<?xml version="1.0" encoding="utf-8" standalone="no"?>
<!DOCTYPE svg PUBLIC "-//W3C//DTD SVG 1.1//EN"
  "http://www.w3.org/Graphics/SVG/1.1/DTD/svg11.dtd">
<svg xmlns:xlink="http://www.w3.org/1999/xlink" width="460.8pt" height="345.6pt" viewBox="0 0 460.8 345.6" xmlns="http://www.w3.org/2000/svg" version="1.1">
 <metadata>
  <rdf:RDF xmlns:dc="http://purl.org/dc/elements/1.1/" xmlns:cc="http://creativecommons.org/ns#" xmlns:rdf="http://www.w3.org/1999/02/22-rdf-syntax-ns#">
   <cc:Work>
    <dc:type rdf:resource="http://purl.org/dc/dcmitype/StillImage"/>
    <dc:date>2023-12-09T19:38:08.560438</dc:date>
    <dc:format>image/svg+xml</dc:format>
    <dc:creator>
     <cc:Agent>
      <dc:title>Matplotlib v3.7.4, https://matplotlib.org/</dc:title>
     </cc:Agent>
    </dc:creator>
   </cc:Work>
  </rdf:RDF>
 </metadata>
 <defs>
  <style type="text/css">*{stroke-linejoin: round; stroke-linecap: butt}</style>
 </defs>
 <g id="figure_1">
  <g id="patch_1">
   <path d="M 0 345.6 
L 460.8 345.6 
L 460.8 0 
L 0 0 
z
" style="fill: #ffffff"/>
  </g>
  <g id="axes_1">
   <g id="patch_2">
    <path d="M 369.216 174.528 
C 369.216 157.055246 365.774248 139.752393 359.087715 123.609673 
C 352.401182 107.466954 342.599903 92.798303 330.2448 80.4432 
C 317.889697 68.088097 303.221046 58.286818 287.078327 51.600285 
C 270.935607 44.913752 253.632754 41.472 236.16 41.472 
C 218.687246 41.472 201.384393 44.913752 185.241673 51.600285 
C 169.098954 58.286818 154.430303 68.088097 142.0752 80.4432 
C 129.720097 92.798303 119.918818 107.466954 113.232285 123.609673 
C 106.545752 139.752393 103.104 157.055246 103.104 174.528 
C 103.104 192.000754 106.545752 209.303607 113.232285 225.446327 
C 119.918818 241.589046 129.720097 256.257697 142.0752 268.6128 
C 154.430303 280.967903 169.098954 290.769182 185.241673 297.455715 
C 201.384393 304.142248 218.687246 307.584 236.16 307.584 
C 253.632754 307.584 270.935607 304.142248 287.078327 297.455715 
C 303.221046 290.769182 317.889697 280.967903 330.2448 268.6128 
C 342.599903 256.257697 352.401182 241.589046 359.087715 225.446327 
C 365.774248 209.303607 369.216 192.000754 369.216 174.528 
M 236.16 174.528 
C 236.16 174.528 236.16 174.528 236.16 174.528 
C 236.16 174.528 236.16 174.528 236.16 174.528 
C 236.16 174.528 236.16 174.528 236.16 174.528 
C 236.16 174.528 236.16 174.528 236.16 174.528 
C 236.16 174.528 236.16 174.528 236.16 174.528 
C 236.16 174.528 236.16 174.528 236.16 174.528 
C 236.16 174.528 236.16 174.528 236.16 174.528 
C 236.16 174.528 236.16 174.528 236.16 174.528 
C 236.16 174.528 236.16 174.528 236.16 174.528 
C 236.16 174.528 236.16 174.528 236.16 174.528 
C 236.16 174.528 236.16 174.528 236.16 174.528 
C 236.16 174.528 236.16 174.528 236.16 174.528 
C 236.16 174.528 236.16 174.528 236.16 174.528 
C 236.16 174.528 236.16 174.528 236.16 174.528 
C 236.16 174.528 236.16 174.528 236.16 174.528 
C 236.16 174.528 236.16 174.528 236.16 174.528 
z
" style="fill: #ffffff"/>
   </g>
   <g id="PathCollection_1">
    <defs>
     <path id="mc6ea7b7adb" d="M 0 3 
C 0.795609 3 1.55874 2.683901 2.12132 2.12132 
C 2.683901 1.55874 3 0.795609 3 0 
C 3 -0.795609 2.683901 -1.55874 2.12132 -2.12132 
C 1.55874 -2.683901 0.795609 -3 0 -3 
C -0.795609 -3 -1.55874 -2.683901 -2.12132 -2.12132 
C -2.683901 -1.55874 -3 -0.795609 -3 0 
C -3 0.795609 -2.683901 1.55874 -2.12132 2.12132 
C -1.55874 2.683901 -0.795609 3 0 3 
z
" style="stroke: #1f77b4"/>
    </defs>
    <g clip-path="url(#p62a86c82c4)">
     <use xlink:href="#mc6ea7b7adb" x="186.720287" y="224.353799" style="fill: #1f77b4; stroke: #1f77b4"/>
     <use xlink:href="#mc6ea7b7adb" x="216.791534" y="212.415039" style="fill: #1f77b4; stroke: #1f77b4"/>
     <use xlink:href="#mc6ea7b7adb" x="185.32187" y="216.429778" style="fill: #1f77b4; stroke: #1f77b4"/>
     <use xlink:href="#mc6ea7b7adb" x="182.719543" y="217.150781" style="fill: #1f77b4; stroke: #1f77b4"/>
     <use xlink:href="#mc6ea7b7adb" x="209.117061" y="216.113738" style="fill: #1f77b4; stroke: #1f77b4"/>
     <use xlink:href="#mc6ea7b7adb" x="238.58109" y="211.508118" style="fill: #1f77b4; stroke: #1f77b4"/>
     <use xlink:href="#mc6ea7b7adb" x="295.704239" y="190.545615" style="fill: #1f77b4; stroke: #1f77b4"/>
     <use xlink:href="#mc6ea7b7adb" x="255.058246" y="188.326258" style="fill: #1f77b4; stroke: #1f77b4"/>
     <use xlink:href="#mc6ea7b7adb" x="175.974392" y="200.519162" style="fill: #1f77b4; stroke: #1f77b4"/>
     <use xlink:href="#mc6ea7b7adb" x="207.068301" y="201.980811" style="fill: #1f77b4; stroke: #1f77b4"/>
     <use xlink:href="#mc6ea7b7adb" x="230.017276" y="193.134469" style="fill: #1f77b4; stroke: #1f77b4"/>
     <use xlink:href="#mc6ea7b7adb" x="281.965398" y="188.730125" style="fill: #1f77b4; stroke: #1f77b4"/>
     <use xlink:href="#mc6ea7b7adb" x="276.662709" y="181.677405" style="fill: #1f77b4; stroke: #1f77b4"/>
     <use xlink:href="#mc6ea7b7adb" x="263.952329" y="163.752887" style="fill: #1f77b4; stroke: #1f77b4"/>
     <use xlink:href="#mc6ea7b7adb" x="168.640313" y="168.705707" style="fill: #1f77b4; stroke: #1f77b4"/>
     <use xlink:href="#mc6ea7b7adb" x="155.107124" y="179.344101" style="fill: #1f77b4; stroke: #1f77b4"/>
     <use xlink:href="#mc6ea7b7adb" x="292.844756" y="167.493304" style="fill: #1f77b4; stroke: #1f77b4"/>
     <use xlink:href="#mc6ea7b7adb" x="266.197058" y="168.142024" style="fill: #1f77b4; stroke: #1f77b4"/>
     <use xlink:href="#mc6ea7b7adb" x="229.551318" y="156.080781" style="fill: #1f77b4; stroke: #1f77b4"/>
     <use xlink:href="#mc6ea7b7adb" x="240.425847" y="147.407261" style="fill: #1f77b4; stroke: #1f77b4"/>
     <use xlink:href="#mc6ea7b7adb" x="191.168833" y="166.222532" style="fill: #1f77b4; stroke: #1f77b4"/>
     <use xlink:href="#mc6ea7b7adb" x="181.765945" y="177.566791" style="fill: #1f77b4; stroke: #1f77b4"/>
     <use xlink:href="#mc6ea7b7adb" x="248.774243" y="177.840287" style="fill: #1f77b4; stroke: #1f77b4"/>
     <use xlink:href="#mc6ea7b7adb" x="289.544924" y="173.189323" style="fill: #1f77b4; stroke: #1f77b4"/>
    </g>
   </g>
   <g id="PathCollection_2">
    <defs>
     <path id="mfd3237eee7" d="M 0 3 
C 0.795609 3 1.55874 2.683901 2.12132 2.12132 
C 2.683901 1.55874 3 0.795609 3 0 
C 3 -0.795609 2.683901 -1.55874 2.12132 -2.12132 
C 1.55874 -2.683901 0.795609 -3 0 -3 
C -0.795609 -3 -1.55874 -2.683901 -2.12132 -2.12132 
C -2.683901 -1.55874 -3 -0.795609 -3 0 
C -3 0.795609 -2.683901 1.55874 -2.12132 2.12132 
C -1.55874 2.683901 -0.795609 3 0 3 
z
" style="stroke: #ff7f0e"/>
    </defs>
    <g clip-path="url(#p62a86c82c4)">
     <use xlink:href="#mfd3237eee7" x="204.235927" y="165.438225" style="fill: #ff7f0e; stroke: #ff7f0e"/>
     <use xlink:href="#mfd3237eee7" x="269.181325" y="154.916774" style="fill: #ff7f0e; stroke: #ff7f0e"/>
     <use xlink:href="#mfd3237eee7" x="203.059864" y="154.445253" style="fill: #ff7f0e; stroke: #ff7f0e"/>
     <use xlink:href="#mfd3237eee7" x="220.471677" y="162.36532" style="fill: #ff7f0e; stroke: #ff7f0e"/>
     <use xlink:href="#mfd3237eee7" x="148.822619" y="189.709355" style="fill: #ff7f0e; stroke: #ff7f0e"/>
     <use xlink:href="#mfd3237eee7" x="268.500452" y="177.367379" style="fill: #ff7f0e; stroke: #ff7f0e"/>
     <use xlink:href="#mfd3237eee7" x="305.140224" y="163.835724" style="fill: #ff7f0e; stroke: #ff7f0e"/>
     <use xlink:href="#mfd3237eee7" x="197.249453" y="169.741854" style="fill: #ff7f0e; stroke: #ff7f0e"/>
     <use xlink:href="#mfd3237eee7" x="239.702765" y="165.678592" style="fill: #ff7f0e; stroke: #ff7f0e"/>
     <use xlink:href="#mfd3237eee7" x="269.496744" y="161.534838" style="fill: #ff7f0e; stroke: #ff7f0e"/>
     <use xlink:href="#mfd3237eee7" x="190.457365" y="170.08706" style="fill: #ff7f0e; stroke: #ff7f0e"/>
     <use xlink:href="#mfd3237eee7" x="221.196828" y="168.953134" style="fill: #ff7f0e; stroke: #ff7f0e"/>
     <use xlink:href="#mfd3237eee7" x="288.644685" y="162.250138" style="fill: #ff7f0e; stroke: #ff7f0e"/>
     <use xlink:href="#mfd3237eee7" x="293.990463" y="153.638972" style="fill: #ff7f0e; stroke: #ff7f0e"/>
     <use xlink:href="#mfd3237eee7" x="266.035177" y="152.162408" style="fill: #ff7f0e; stroke: #ff7f0e"/>
     <use xlink:href="#mfd3237eee7" x="228.530707" y="155.541803" style="fill: #ff7f0e; stroke: #ff7f0e"/>
     <use xlink:href="#mfd3237eee7" x="185.952692" y="173.323652" style="fill: #ff7f0e; stroke: #ff7f0e"/>
     <use xlink:href="#mfd3237eee7" x="258.376084" y="176.263149" style="fill: #ff7f0e; stroke: #ff7f0e"/>
     <use xlink:href="#mfd3237eee7" x="228.274617" y="180.201326" style="fill: #ff7f0e; stroke: #ff7f0e"/>
     <use xlink:href="#mfd3237eee7" x="259.574216" y="171.672267" style="fill: #ff7f0e; stroke: #ff7f0e"/>
     <use xlink:href="#mfd3237eee7" x="273.323245" y="164.870259" style="fill: #ff7f0e; stroke: #ff7f0e"/>
     <use xlink:href="#mfd3237eee7" x="203.181104" y="180.127098" style="fill: #ff7f0e; stroke: #ff7f0e"/>
     <use xlink:href="#mfd3237eee7" x="113.838706" y="207.625726" style="fill: #ff7f0e; stroke: #ff7f0e"/>
     <use xlink:href="#mfd3237eee7" x="222.010927" y="207.215395" style="fill: #ff7f0e; stroke: #ff7f0e"/>
    </g>
   </g>
   <g id="PathCollection_3">
    <defs>
     <path id="m1ce57a1e75" d="M 0 3 
C 0.795609 3 1.55874 2.683901 2.12132 2.12132 
C 2.683901 1.55874 3 0.795609 3 0 
C 3 -0.795609 2.683901 -1.55874 2.12132 -2.12132 
C 1.55874 -2.683901 0.795609 -3 0 -3 
C -0.795609 -3 -1.55874 -2.683901 -2.12132 -2.12132 
C -2.683901 -1.55874 -3 -0.795609 -3 0 
C -3 0.795609 -2.683901 1.55874 -2.12132 2.12132 
C -1.55874 2.683901 -0.795609 3 0 3 
z
" style="stroke: #2ca02c"/>
    </defs>
    <g clip-path="url(#p62a86c82c4)">
     <use xlink:href="#m1ce57a1e75" x="295.301019" y="190.806204" style="fill: #2ca02c; stroke: #2ca02c"/>
     <use xlink:href="#m1ce57a1e75" x="229.544455" y="186.366032" style="fill: #2ca02c; stroke: #2ca02c"/>
     <use xlink:href="#m1ce57a1e75" x="221.475494" y="187.502957" style="fill: #2ca02c; stroke: #2ca02c"/>
     <use xlink:href="#m1ce57a1e75" x="270.381864" y="177.952102" style="fill: #2ca02c; stroke: #2ca02c"/>
     <use xlink:href="#m1ce57a1e75" x="215.722286" y="175.458819" style="fill: #2ca02c; stroke: #2ca02c"/>
     <use xlink:href="#m1ce57a1e75" x="201.800817" y="179.675084" style="fill: #2ca02c; stroke: #2ca02c"/>
     <use xlink:href="#m1ce57a1e75" x="255.198284" y="173.021769" style="fill: #2ca02c; stroke: #2ca02c"/>
     <use xlink:href="#m1ce57a1e75" x="288.7388" y="162.417248" style="fill: #2ca02c; stroke: #2ca02c"/>
     <use xlink:href="#m1ce57a1e75" x="249.070502" y="166.237452" style="fill: #2ca02c; stroke: #2ca02c"/>
     <use xlink:href="#m1ce57a1e75" x="254.068656" y="174.859392" style="fill: #2ca02c; stroke: #2ca02c"/>
     <use xlink:href="#m1ce57a1e75" x="232.01488" y="182.456736" style="fill: #2ca02c; stroke: #2ca02c"/>
     <use xlink:href="#m1ce57a1e75" x="196.792714" y="193.874958" style="fill: #2ca02c; stroke: #2ca02c"/>
     <use xlink:href="#m1ce57a1e75" x="209.439797" y="189.056881" style="fill: #2ca02c; stroke: #2ca02c"/>
     <use xlink:href="#m1ce57a1e75" x="212.717338" y="198.964189" style="fill: #2ca02c; stroke: #2ca02c"/>
     <use xlink:href="#m1ce57a1e75" x="217.619705" y="211.822669" style="fill: #2ca02c; stroke: #2ca02c"/>
     <use xlink:href="#m1ce57a1e75" x="284.93394" y="199.813211" style="fill: #2ca02c; stroke: #2ca02c"/>
     <use xlink:href="#m1ce57a1e75" x="319.448695" y="180.008287" style="fill: #2ca02c; stroke: #2ca02c"/>
     <use xlink:href="#m1ce57a1e75" x="308.65474" y="168.030783" style="fill: #2ca02c; stroke: #2ca02c"/>
     <use xlink:href="#m1ce57a1e75" x="204.617113" y="175.890494" style="fill: #2ca02c; stroke: #2ca02c"/>
     <use xlink:href="#m1ce57a1e75" x="268.709146" y="168.773214" style="fill: #2ca02c; stroke: #2ca02c"/>
     <use xlink:href="#m1ce57a1e75" x="187.029361" y="189.103174" style="fill: #2ca02c; stroke: #2ca02c"/>
     <use xlink:href="#m1ce57a1e75" x="238.058461" y="193.43443" style="fill: #2ca02c; stroke: #2ca02c"/>
     <use xlink:href="#m1ce57a1e75" x="274.657918" y="178.838949" style="fill: #2ca02c; stroke: #2ca02c"/>
     <use xlink:href="#m1ce57a1e75" x="249.495205" y="176.734524" style="fill: #2ca02c; stroke: #2ca02c"/>
    </g>
   </g>
   <g id="matplotlib.axis_1">
    <g id="xtick_1">
     <g id="line2d_1">
      <path d="M 236.16 174.528 
L 369.216 174.528 
" clip-path="url(#p62a86c82c4)" style="fill: none; stroke: #b0b0b0; stroke-width: 0.8; stroke-linecap: square"/>
     </g>
     <g id="text_1">
      <!-- 0° -->
      <g transform="translate(377.53475 177.287375) scale(0.1 -0.1)">
       <defs>
        <path id="DejaVuSans-30" d="M 2034 4250 
Q 1547 4250 1301 3770 
Q 1056 3291 1056 2328 
Q 1056 1369 1301 889 
Q 1547 409 2034 409 
Q 2525 409 2770 889 
Q 3016 1369 3016 2328 
Q 3016 3291 2770 3770 
Q 2525 4250 2034 4250 
z
M 2034 4750 
Q 2819 4750 3233 4129 
Q 3647 3509 3647 2328 
Q 3647 1150 3233 529 
Q 2819 -91 2034 -91 
Q 1250 -91 836 529 
Q 422 1150 422 2328 
Q 422 3509 836 4129 
Q 1250 4750 2034 4750 
z
" transform="scale(0.015625)"/>
        <path id="DejaVuSans-b0" d="M 1600 4347 
Q 1350 4347 1178 4173 
Q 1006 4000 1006 3750 
Q 1006 3503 1178 3333 
Q 1350 3163 1600 3163 
Q 1850 3163 2022 3333 
Q 2194 3503 2194 3750 
Q 2194 3997 2020 4172 
Q 1847 4347 1600 4347 
z
M 1600 4750 
Q 1800 4750 1984 4673 
Q 2169 4597 2303 4453 
Q 2447 4313 2519 4134 
Q 2591 3956 2591 3750 
Q 2591 3338 2302 3052 
Q 2013 2766 1594 2766 
Q 1172 2766 890 3047 
Q 609 3328 609 3750 
Q 609 4169 896 4459 
Q 1184 4750 1600 4750 
z
" transform="scale(0.015625)"/>
       </defs>
       <use xlink:href="#DejaVuSans-30"/>
       <use xlink:href="#DejaVuSans-b0" x="63.623047"/>
      </g>
     </g>
    </g>
    <g id="xtick_2">
     <g id="line2d_2">
      <path d="M 236.16 174.528 
L 330.2448 80.4432 
" clip-path="url(#p62a86c82c4)" style="fill: none; stroke: #b0b0b0; stroke-width: 0.8; stroke-linecap: square"/>
     </g>
     <g id="text_2">
      <!-- 45° -->
      <g transform="translate(331.281795 73.30308) scale(0.1 -0.1)">
       <defs>
        <path id="DejaVuSans-34" d="M 2419 4116 
L 825 1625 
L 2419 1625 
L 2419 4116 
z
M 2253 4666 
L 3047 4666 
L 3047 1625 
L 3713 1625 
L 3713 1100 
L 3047 1100 
L 3047 0 
L 2419 0 
L 2419 1100 
L 313 1100 
L 313 1709 
L 2253 4666 
z
" transform="scale(0.015625)"/>
        <path id="DejaVuSans-35" d="M 691 4666 
L 3169 4666 
L 3169 4134 
L 1269 4134 
L 1269 2991 
Q 1406 3038 1543 3061 
Q 1681 3084 1819 3084 
Q 2600 3084 3056 2656 
Q 3513 2228 3513 1497 
Q 3513 744 3044 326 
Q 2575 -91 1722 -91 
Q 1428 -91 1123 -41 
Q 819 9 494 109 
L 494 744 
Q 775 591 1075 516 
Q 1375 441 1709 441 
Q 2250 441 2565 725 
Q 2881 1009 2881 1497 
Q 2881 1984 2565 2268 
Q 2250 2553 1709 2553 
Q 1456 2553 1204 2497 
Q 953 2441 691 2322 
L 691 4666 
z
" transform="scale(0.015625)"/>
       </defs>
       <use xlink:href="#DejaVuSans-34"/>
       <use xlink:href="#DejaVuSans-35" x="63.623047"/>
       <use xlink:href="#DejaVuSans-b0" x="127.246094"/>
      </g>
     </g>
    </g>
    <g id="xtick_3">
     <g id="line2d_3">
      <path d="M 236.16 174.528 
L 236.16 41.472 
" clip-path="url(#p62a86c82c4)" style="fill: none; stroke: #b0b0b0; stroke-width: 0.8; stroke-linecap: square"/>
     </g>
     <g id="text_3">
      <!-- 90° -->
      <g transform="translate(227.2975 30.231375) scale(0.1 -0.1)">
       <defs>
        <path id="DejaVuSans-39" d="M 703 97 
L 703 672 
Q 941 559 1184 500 
Q 1428 441 1663 441 
Q 2288 441 2617 861 
Q 2947 1281 2994 2138 
Q 2813 1869 2534 1725 
Q 2256 1581 1919 1581 
Q 1219 1581 811 2004 
Q 403 2428 403 3163 
Q 403 3881 828 4315 
Q 1253 4750 1959 4750 
Q 2769 4750 3195 4129 
Q 3622 3509 3622 2328 
Q 3622 1225 3098 567 
Q 2575 -91 1691 -91 
Q 1453 -91 1209 -44 
Q 966 3 703 97 
z
M 1959 2075 
Q 2384 2075 2632 2365 
Q 2881 2656 2881 3163 
Q 2881 3666 2632 3958 
Q 2384 4250 1959 4250 
Q 1534 4250 1286 3958 
Q 1038 3666 1038 3163 
Q 1038 2656 1286 2365 
Q 1534 2075 1959 2075 
z
" transform="scale(0.015625)"/>
       </defs>
       <use xlink:href="#DejaVuSans-39"/>
       <use xlink:href="#DejaVuSans-30" x="63.623047"/>
       <use xlink:href="#DejaVuSans-b0" x="127.246094"/>
      </g>
     </g>
    </g>
    <g id="xtick_4">
     <g id="line2d_4">
      <path d="M 236.16 174.528 
L 142.0752 80.4432 
" clip-path="url(#p62a86c82c4)" style="fill: none; stroke: #b0b0b0; stroke-width: 0.8; stroke-linecap: square"/>
     </g>
     <g id="text_4">
      <!-- 135° -->
      <g transform="translate(120.131955 73.30308) scale(0.1 -0.1)">
       <defs>
        <path id="DejaVuSans-31" d="M 794 531 
L 1825 531 
L 1825 4091 
L 703 3866 
L 703 4441 
L 1819 4666 
L 2450 4666 
L 2450 531 
L 3481 531 
L 3481 0 
L 794 0 
L 794 531 
z
" transform="scale(0.015625)"/>
        <path id="DejaVuSans-33" d="M 2597 2516 
Q 3050 2419 3304 2112 
Q 3559 1806 3559 1356 
Q 3559 666 3084 287 
Q 2609 -91 1734 -91 
Q 1441 -91 1130 -33 
Q 819 25 488 141 
L 488 750 
Q 750 597 1062 519 
Q 1375 441 1716 441 
Q 2309 441 2620 675 
Q 2931 909 2931 1356 
Q 2931 1769 2642 2001 
Q 2353 2234 1838 2234 
L 1294 2234 
L 1294 2753 
L 1863 2753 
Q 2328 2753 2575 2939 
Q 2822 3125 2822 3475 
Q 2822 3834 2567 4026 
Q 2313 4219 1838 4219 
Q 1578 4219 1281 4162 
Q 984 4106 628 3988 
L 628 4550 
Q 988 4650 1302 4700 
Q 1616 4750 1894 4750 
Q 2613 4750 3031 4423 
Q 3450 4097 3450 3541 
Q 3450 3153 3228 2886 
Q 3006 2619 2597 2516 
z
" transform="scale(0.015625)"/>
       </defs>
       <use xlink:href="#DejaVuSans-31"/>
       <use xlink:href="#DejaVuSans-33" x="63.623047"/>
       <use xlink:href="#DejaVuSans-35" x="127.246094"/>
       <use xlink:href="#DejaVuSans-b0" x="190.869141"/>
      </g>
     </g>
    </g>
    <g id="xtick_5">
     <g id="line2d_5">
      <path d="M 236.16 174.528 
L 103.104 174.528 
" clip-path="url(#p62a86c82c4)" style="fill: none; stroke: #b0b0b0; stroke-width: 0.8; stroke-linecap: square"/>
     </g>
     <g id="text_5">
      <!-- 180° -->
      <g transform="translate(77.06025 177.287375) scale(0.1 -0.1)">
       <defs>
        <path id="DejaVuSans-38" d="M 2034 2216 
Q 1584 2216 1326 1975 
Q 1069 1734 1069 1313 
Q 1069 891 1326 650 
Q 1584 409 2034 409 
Q 2484 409 2743 651 
Q 3003 894 3003 1313 
Q 3003 1734 2745 1975 
Q 2488 2216 2034 2216 
z
M 1403 2484 
Q 997 2584 770 2862 
Q 544 3141 544 3541 
Q 544 4100 942 4425 
Q 1341 4750 2034 4750 
Q 2731 4750 3128 4425 
Q 3525 4100 3525 3541 
Q 3525 3141 3298 2862 
Q 3072 2584 2669 2484 
Q 3125 2378 3379 2068 
Q 3634 1759 3634 1313 
Q 3634 634 3220 271 
Q 2806 -91 2034 -91 
Q 1263 -91 848 271 
Q 434 634 434 1313 
Q 434 1759 690 2068 
Q 947 2378 1403 2484 
z
M 1172 3481 
Q 1172 3119 1398 2916 
Q 1625 2713 2034 2713 
Q 2441 2713 2670 2916 
Q 2900 3119 2900 3481 
Q 2900 3844 2670 4047 
Q 2441 4250 2034 4250 
Q 1625 4250 1398 4047 
Q 1172 3844 1172 3481 
z
" transform="scale(0.015625)"/>
       </defs>
       <use xlink:href="#DejaVuSans-31"/>
       <use xlink:href="#DejaVuSans-38" x="63.623047"/>
       <use xlink:href="#DejaVuSans-30" x="127.246094"/>
       <use xlink:href="#DejaVuSans-b0" x="190.869141"/>
      </g>
     </g>
    </g>
    <g id="xtick_6">
     <g id="line2d_6">
      <path d="M 236.16 174.528 
L 142.0752 268.6128 
" clip-path="url(#p62a86c82c4)" style="fill: none; stroke: #b0b0b0; stroke-width: 0.8; stroke-linecap: square"/>
     </g>
     <g id="text_6">
      <!-- 225° -->
      <g transform="translate(120.131955 281.27167) scale(0.1 -0.1)">
       <defs>
        <path id="DejaVuSans-32" d="M 1228 531 
L 3431 531 
L 3431 0 
L 469 0 
L 469 531 
Q 828 903 1448 1529 
Q 2069 2156 2228 2338 
Q 2531 2678 2651 2914 
Q 2772 3150 2772 3378 
Q 2772 3750 2511 3984 
Q 2250 4219 1831 4219 
Q 1534 4219 1204 4116 
Q 875 4013 500 3803 
L 500 4441 
Q 881 4594 1212 4672 
Q 1544 4750 1819 4750 
Q 2544 4750 2975 4387 
Q 3406 4025 3406 3419 
Q 3406 3131 3298 2873 
Q 3191 2616 2906 2266 
Q 2828 2175 2409 1742 
Q 1991 1309 1228 531 
z
" transform="scale(0.015625)"/>
       </defs>
       <use xlink:href="#DejaVuSans-32"/>
       <use xlink:href="#DejaVuSans-32" x="63.623047"/>
       <use xlink:href="#DejaVuSans-35" x="127.246094"/>
       <use xlink:href="#DejaVuSans-b0" x="190.869141"/>
      </g>
     </g>
    </g>
    <g id="xtick_7">
     <g id="line2d_7">
      <path d="M 236.16 174.528 
L 236.16 307.584 
" clip-path="url(#p62a86c82c4)" style="fill: none; stroke: #b0b0b0; stroke-width: 0.8; stroke-linecap: square"/>
     </g>
     <g id="text_7">
      <!-- 270° -->
      <g transform="translate(224.11625 324.343375) scale(0.1 -0.1)">
       <defs>
        <path id="DejaVuSans-37" d="M 525 4666 
L 3525 4666 
L 3525 4397 
L 1831 0 
L 1172 0 
L 2766 4134 
L 525 4134 
L 525 4666 
z
" transform="scale(0.015625)"/>
       </defs>
       <use xlink:href="#DejaVuSans-32"/>
       <use xlink:href="#DejaVuSans-37" x="63.623047"/>
       <use xlink:href="#DejaVuSans-30" x="127.246094"/>
       <use xlink:href="#DejaVuSans-b0" x="190.869141"/>
      </g>
     </g>
    </g>
    <g id="xtick_8">
     <g id="line2d_8">
      <path d="M 236.16 174.528 
L 330.2448 268.6128 
" clip-path="url(#p62a86c82c4)" style="fill: none; stroke: #b0b0b0; stroke-width: 0.8; stroke-linecap: square"/>
     </g>
     <g id="text_8">
      <!-- 315° -->
      <g transform="translate(328.100545 281.27167) scale(0.1 -0.1)">
       <use xlink:href="#DejaVuSans-33"/>
       <use xlink:href="#DejaVuSans-31" x="63.623047"/>
       <use xlink:href="#DejaVuSans-35" x="127.246094"/>
       <use xlink:href="#DejaVuSans-b0" x="190.869141"/>
      </g>
     </g>
    </g>
   </g>
   <g id="matplotlib.axis_2">
    <g id="ytick_1">
     <g id="line2d_9">
      <path d="M 251.75917 174.528 
C 251.75917 172.479536 251.355667 170.45099 250.571754 168.558456 
C 249.78784 166.665922 248.638762 164.946204 247.190279 163.497721 
C 245.741796 162.049238 244.022078 160.90016 242.129544 160.116246 
C 240.23701 159.332333 238.208464 158.92883 236.16 158.92883 
C 234.111536 158.92883 232.08299 159.332333 230.190456 160.116246 
C 228.297922 160.90016 226.578204 162.049238 225.129721 163.497721 
C 223.681238 164.946204 222.53216 166.665922 221.748246 168.558456 
C 220.964333 170.45099 220.56083 172.479536 220.56083 174.528 
C 220.56083 176.576464 220.964333 178.60501 221.748246 180.497544 
C 222.53216 182.390078 223.681238 184.109796 225.129721 185.558279 
C 226.578204 187.006762 228.297922 188.15584 230.190456 188.939754 
C 232.08299 189.723667 234.111536 190.12717 236.16 190.12717 
C 238.208464 190.12717 240.23701 189.723667 242.129544 188.939754 
C 244.022078 188.15584 245.741796 187.006762 247.190279 185.558279 
C 248.638762 184.109796 249.78784 182.390078 250.571754 180.497544 
C 251.355667 178.60501 251.75917 176.576464 251.75917 174.528 
" clip-path="url(#p62a86c82c4)" style="fill: none; stroke: #b0b0b0; stroke-width: 0.8; stroke-linecap: square"/>
     </g>
     <g id="text_9">
      <!-- 0.02 -->
      <g transform="translate(250.571754 166.478769) scale(0.1 -0.1)">
       <defs>
        <path id="DejaVuSans-2e" d="M 684 794 
L 1344 794 
L 1344 0 
L 684 0 
L 684 794 
z
" transform="scale(0.015625)"/>
       </defs>
       <use xlink:href="#DejaVuSans-30"/>
       <use xlink:href="#DejaVuSans-2e" x="63.623047"/>
       <use xlink:href="#DejaVuSans-30" x="95.410156"/>
       <use xlink:href="#DejaVuSans-32" x="159.033203"/>
      </g>
     </g>
    </g>
    <g id="ytick_2">
     <g id="line2d_10">
      <path d="M 267.358339 174.528 
C 267.358339 170.431072 266.551334 166.373981 264.983507 162.588912 
C 263.41568 158.803844 261.117523 155.364409 258.220557 152.467443 
C 255.323591 149.570477 251.884156 147.27232 248.099088 145.704493 
C 244.314019 144.136666 240.256928 143.329661 236.16 143.329661 
C 232.063072 143.329661 228.005981 144.136666 224.220912 145.704493 
C 220.435844 147.27232 216.996409 149.570477 214.099443 152.467443 
C 211.202477 155.364409 208.90432 158.803844 207.336493 162.588912 
C 205.768666 166.373981 204.961661 170.431072 204.961661 174.528 
C 204.961661 178.624928 205.768666 182.682019 207.336493 186.467088 
C 208.90432 190.252156 211.202477 193.691591 214.099443 196.588557 
C 216.996409 199.485523 220.435844 201.78368 224.220912 203.351507 
C 228.005981 204.919334 232.063072 205.726339 236.16 205.726339 
C 240.256928 205.726339 244.314019 204.919334 248.099088 203.351507 
C 251.884156 201.78368 255.323591 199.485523 258.220557 196.588557 
C 261.117523 193.691591 263.41568 190.252156 264.983507 186.467088 
C 266.551334 182.682019 267.358339 178.624928 267.358339 174.528 
" clip-path="url(#p62a86c82c4)" style="fill: none; stroke: #b0b0b0; stroke-width: 0.8; stroke-linecap: square"/>
     </g>
     <g id="text_10">
      <!-- 0.04 -->
      <g transform="translate(264.983507 160.509225) scale(0.1 -0.1)">
       <use xlink:href="#DejaVuSans-30"/>
       <use xlink:href="#DejaVuSans-2e" x="63.623047"/>
       <use xlink:href="#DejaVuSans-30" x="95.410156"/>
       <use xlink:href="#DejaVuSans-34" x="159.033203"/>
      </g>
     </g>
    </g>
    <g id="ytick_3">
     <g id="line2d_11">
      <path d="M 282.957509 174.528 
C 282.957509 168.382607 281.747001 162.296971 279.395261 156.619369 
C 277.043521 150.941766 273.596285 145.782613 269.250836 141.437164 
C 264.905387 137.091715 259.746234 133.644479 254.068631 131.292739 
C 248.391029 128.940999 242.305393 127.730491 236.16 127.730491 
C 230.014607 127.730491 223.928971 128.940999 218.251369 131.292739 
C 212.573766 133.644479 207.414613 137.091715 203.069164 141.437164 
C 198.723715 145.782613 195.276479 150.941766 192.924739 156.619369 
C 190.572999 162.296971 189.362491 168.382607 189.362491 174.528 
C 189.362491 180.673393 190.572999 186.759029 192.924739 192.436631 
C 195.276479 198.114234 198.723715 203.273387 203.069164 207.618836 
C 207.414613 211.964285 212.573766 215.411521 218.251369 217.763261 
C 223.928971 220.115001 230.014607 221.325509 236.16 221.325509 
C 242.305393 221.325509 248.391029 220.115001 254.068631 217.763261 
C 259.746234 215.411521 264.905387 211.964285 269.250836 207.618836 
C 273.596285 203.273387 277.043521 198.114234 279.395261 192.436631 
C 281.747001 186.759029 282.957509 180.673393 282.957509 174.528 
" clip-path="url(#p62a86c82c4)" style="fill: none; stroke: #b0b0b0; stroke-width: 0.8; stroke-linecap: square"/>
     </g>
     <g id="text_11">
      <!-- 0.06 -->
      <g transform="translate(279.395261 154.539681) scale(0.1 -0.1)">
       <defs>
        <path id="DejaVuSans-36" d="M 2113 2584 
Q 1688 2584 1439 2293 
Q 1191 2003 1191 1497 
Q 1191 994 1439 701 
Q 1688 409 2113 409 
Q 2538 409 2786 701 
Q 3034 994 3034 1497 
Q 3034 2003 2786 2293 
Q 2538 2584 2113 2584 
z
M 3366 4563 
L 3366 3988 
Q 3128 4100 2886 4159 
Q 2644 4219 2406 4219 
Q 1781 4219 1451 3797 
Q 1122 3375 1075 2522 
Q 1259 2794 1537 2939 
Q 1816 3084 2150 3084 
Q 2853 3084 3261 2657 
Q 3669 2231 3669 1497 
Q 3669 778 3244 343 
Q 2819 -91 2113 -91 
Q 1303 -91 875 529 
Q 447 1150 447 2328 
Q 447 3434 972 4092 
Q 1497 4750 2381 4750 
Q 2619 4750 2861 4703 
Q 3103 4656 3366 4563 
z
" transform="scale(0.015625)"/>
       </defs>
       <use xlink:href="#DejaVuSans-30"/>
       <use xlink:href="#DejaVuSans-2e" x="63.623047"/>
       <use xlink:href="#DejaVuSans-30" x="95.410156"/>
       <use xlink:href="#DejaVuSans-36" x="159.033203"/>
      </g>
     </g>
    </g>
    <g id="ytick_4">
     <g id="line2d_12">
      <path d="M 298.556679 174.528 
C 298.556679 166.334143 296.942667 158.219961 293.807014 150.649825 
C 290.671361 143.079688 286.075046 136.200817 280.281115 130.406885 
C 274.487183 124.612954 267.608312 120.016639 260.038175 116.880986 
C 252.468039 113.745333 244.353857 112.131321 236.16 112.131321 
C 227.966143 112.131321 219.851961 113.745333 212.281825 116.880986 
C 204.711688 120.016639 197.832817 124.612954 192.038885 130.406885 
C 186.244954 136.200817 181.648639 143.079688 178.512986 150.649825 
C 175.377333 158.219961 173.763321 166.334143 173.763321 174.528 
C 173.763321 182.721857 175.377333 190.836039 178.512986 198.406175 
C 181.648639 205.976312 186.244954 212.855183 192.038885 218.649115 
C 197.832817 224.443046 204.711688 229.039361 212.281825 232.175014 
C 219.851961 235.310667 227.966143 236.924679 236.16 236.924679 
C 244.353857 236.924679 252.468039 235.310667 260.038175 232.175014 
C 267.608312 229.039361 274.487183 224.443046 280.281115 218.649115 
C 286.075046 212.855183 290.671361 205.976312 293.807014 198.406175 
C 296.942667 190.836039 298.556679 182.721857 298.556679 174.528 
" clip-path="url(#p62a86c82c4)" style="fill: none; stroke: #b0b0b0; stroke-width: 0.8; stroke-linecap: square"/>
     </g>
     <g id="text_12">
      <!-- 0.08 -->
      <g transform="translate(293.807014 148.570137) scale(0.1 -0.1)">
       <use xlink:href="#DejaVuSans-30"/>
       <use xlink:href="#DejaVuSans-2e" x="63.623047"/>
       <use xlink:href="#DejaVuSans-30" x="95.410156"/>
       <use xlink:href="#DejaVuSans-38" x="159.033203"/>
      </g>
     </g>
    </g>
    <g id="ytick_5">
     <g id="line2d_13">
      <path d="M 314.155848 174.528 
C 314.155848 164.285679 312.138334 154.142952 308.218768 144.680281 
C 304.299201 135.21761 298.553808 126.619021 291.311393 119.376607 
C 284.068979 112.134192 275.47039 106.388799 266.007719 102.469232 
C 256.545048 98.549666 246.402321 96.532152 236.16 96.532152 
C 225.917679 96.532152 215.774952 98.549666 206.312281 102.469232 
C 196.84961 106.388799 188.251021 112.134192 181.008607 119.376607 
C 173.766192 126.619021 168.020799 135.21761 164.101232 144.680281 
C 160.181666 154.142952 158.164152 164.285679 158.164152 174.528 
C 158.164152 184.770321 160.181666 194.913048 164.101232 204.375719 
C 168.020799 213.83839 173.766192 222.436979 181.008607 229.679393 
C 188.251021 236.921808 196.84961 242.667201 206.312281 246.586768 
C 215.774952 250.506334 225.917679 252.523848 236.16 252.523848 
C 246.402321 252.523848 256.545048 250.506334 266.007719 246.586768 
C 275.47039 242.667201 284.068979 236.921808 291.311393 229.679393 
C 298.553808 222.436979 304.299201 213.83839 308.218768 204.375719 
C 312.138334 194.913048 314.155848 184.770321 314.155848 174.528 
" clip-path="url(#p62a86c82c4)" style="fill: none; stroke: #b0b0b0; stroke-width: 0.8; stroke-linecap: square"/>
     </g>
     <g id="text_13">
      <!-- 0.10 -->
      <g transform="translate(308.218768 142.600594) scale(0.1 -0.1)">
       <use xlink:href="#DejaVuSans-30"/>
       <use xlink:href="#DejaVuSans-2e" x="63.623047"/>
       <use xlink:href="#DejaVuSans-31" x="95.410156"/>
       <use xlink:href="#DejaVuSans-30" x="159.033203"/>
      </g>
     </g>
    </g>
    <g id="ytick_6">
     <g id="line2d_14">
      <path d="M 329.755018 174.528 
C 329.755018 162.237215 327.334001 150.065942 322.630521 138.710737 
C 317.927041 127.355533 311.032569 117.037226 302.341672 108.346328 
C 293.650774 99.655431 283.332467 92.760959 271.977263 88.057479 
C 260.622058 83.353999 248.450785 80.932982 236.16 80.932982 
C 223.869215 80.932982 211.697942 83.353999 200.342737 88.057479 
C 188.987533 92.760959 178.669226 99.655431 169.978328 108.346328 
C 161.287431 117.037226 154.392959 127.355533 149.689479 138.710737 
C 144.985999 150.065942 142.564982 162.237215 142.564982 174.528 
C 142.564982 186.818785 144.985999 198.990058 149.689479 210.345263 
C 154.392959 221.700467 161.287431 232.018774 169.978328 240.709672 
C 178.669226 249.400569 188.987533 256.295041 200.342737 260.998521 
C 211.697942 265.702001 223.869215 268.123018 236.16 268.123018 
C 248.450785 268.123018 260.622058 265.702001 271.977263 260.998521 
C 283.332467 256.295041 293.650774 249.400569 302.341672 240.709672 
C 311.032569 232.018774 317.927041 221.700467 322.630521 210.345263 
C 327.334001 198.990058 329.755018 186.818785 329.755018 174.528 
" clip-path="url(#p62a86c82c4)" style="fill: none; stroke: #b0b0b0; stroke-width: 0.8; stroke-linecap: square"/>
     </g>
     <g id="text_14">
      <!-- 0.12 -->
      <g transform="translate(322.630521 136.63105) scale(0.1 -0.1)">
       <use xlink:href="#DejaVuSans-30"/>
       <use xlink:href="#DejaVuSans-2e" x="63.623047"/>
       <use xlink:href="#DejaVuSans-31" x="95.410156"/>
       <use xlink:href="#DejaVuSans-32" x="159.033203"/>
      </g>
     </g>
    </g>
    <g id="ytick_7">
     <g id="line2d_15">
      <path d="M 345.354187 174.528 
C 345.354187 160.188751 342.529668 145.988933 337.042275 132.741194 
C 331.554882 119.493455 323.511331 107.45543 313.37195 97.31605 
C 303.23257 87.176669 291.194545 79.133118 277.946806 73.645725 
C 264.699067 68.158332 250.499249 65.333813 236.16 65.333813 
C 221.820751 65.333813 207.620933 68.158332 194.373194 73.645725 
C 181.125455 79.133118 169.08743 87.176669 158.94805 97.31605 
C 148.808669 107.45543 140.765118 119.493455 135.277725 132.741194 
C 129.790332 145.988933 126.965813 160.188751 126.965813 174.528 
C 126.965813 188.867249 129.790332 203.067067 135.277725 216.314806 
C 140.765118 229.562545 148.808669 241.60057 158.94805 251.73995 
C 169.08743 261.879331 181.125455 269.922882 194.373194 275.410275 
C 207.620933 280.897668 221.820751 283.722187 236.16 283.722187 
C 250.499249 283.722187 264.699067 280.897668 277.946806 275.410275 
C 291.194545 269.922882 303.23257 261.879331 313.37195 251.73995 
C 323.511331 241.60057 331.554882 229.562545 337.042275 216.314806 
C 342.529668 203.067067 345.354187 188.867249 345.354187 174.528 
" clip-path="url(#p62a86c82c4)" style="fill: none; stroke: #b0b0b0; stroke-width: 0.8; stroke-linecap: square"/>
     </g>
     <g id="text_15">
      <!-- 0.14 -->
      <g transform="translate(337.042275 130.661506) scale(0.1 -0.1)">
       <use xlink:href="#DejaVuSans-30"/>
       <use xlink:href="#DejaVuSans-2e" x="63.623047"/>
       <use xlink:href="#DejaVuSans-31" x="95.410156"/>
       <use xlink:href="#DejaVuSans-34" x="159.033203"/>
      </g>
     </g>
    </g>
    <g id="ytick_8">
     <g id="line2d_16">
      <path d="M 360.953357 174.528 
C 360.953357 158.140287 357.725335 141.911923 351.454028 126.77165 
C 345.182722 111.631377 335.990092 97.873634 324.402229 86.285771 
C 312.814366 74.697908 299.056623 65.505278 283.91635 59.233972 
C 268.776077 52.962665 252.547713 49.734643 236.16 49.734643 
C 219.772287 49.734643 203.543923 52.962665 188.40365 59.233972 
C 173.263377 65.505278 159.505634 74.697908 147.917771 86.285771 
C 136.329908 97.873634 127.137278 111.631377 120.865972 126.77165 
C 114.594665 141.911923 111.366643 158.140287 111.366643 174.528 
C 111.366643 190.915713 114.594665 207.144077 120.865972 222.28435 
C 127.137278 237.424623 136.329908 251.182366 147.917771 262.770229 
C 159.505634 274.358092 173.263377 283.550722 188.40365 289.822028 
C 203.543923 296.093335 219.772287 299.321357 236.16 299.321357 
C 252.547713 299.321357 268.776077 296.093335 283.91635 289.822028 
C 299.056623 283.550722 312.814366 274.358092 324.402229 262.770229 
C 335.990092 251.182366 345.182722 237.424623 351.454028 222.28435 
C 357.725335 207.144077 360.953357 190.915713 360.953357 174.528 
" clip-path="url(#p62a86c82c4)" style="fill: none; stroke: #b0b0b0; stroke-width: 0.8; stroke-linecap: square"/>
     </g>
     <g id="text_16">
      <!-- 0.16 -->
      <g transform="translate(351.454028 124.691962) scale(0.1 -0.1)">
       <use xlink:href="#DejaVuSans-30"/>
       <use xlink:href="#DejaVuSans-2e" x="63.623047"/>
       <use xlink:href="#DejaVuSans-31" x="95.410156"/>
       <use xlink:href="#DejaVuSans-36" x="159.033203"/>
      </g>
     </g>
    </g>
   </g>
   <g id="line2d_17">
    <path d="M 236.16 174.528 
L 334.564447 254.368612 
" clip-path="url(#p62a86c82c4)" style="fill: none; stroke-dasharray: 7.4,3.2; stroke-dashoffset: 0; stroke: #ff0000; stroke-width: 2"/>
   </g>
   <g id="patch_3">
    <path d="M 369.216 174.528 
C 369.216 157.055246 365.774248 139.752393 359.087715 123.609673 
C 352.401182 107.466954 342.599903 92.798303 330.2448 80.4432 
C 317.889697 68.088097 303.221046 58.286818 287.078327 51.600285 
C 270.935607 44.913752 253.632754 41.472 236.16 41.472 
C 218.687246 41.472 201.384393 44.913752 185.241673 51.600285 
C 169.098954 58.286818 154.430303 68.088097 142.0752 80.4432 
C 129.720097 92.798303 119.918818 107.466954 113.232285 123.609673 
C 106.545752 139.752393 103.104 157.055246 103.104 174.528 
C 103.104 192.000754 106.545752 209.303607 113.232285 225.446327 
C 119.918818 241.589046 129.720097 256.257697 142.0752 268.6128 
C 154.430303 280.967903 169.098954 290.769182 185.241673 297.455715 
C 201.384393 304.142248 218.687246 307.584 236.16 307.584 
C 253.632754 307.584 270.935607 304.142248 287.078327 297.455715 
C 303.221046 290.769182 317.889697 280.967903 330.2448 268.6128 
C 342.599903 256.257697 352.401182 241.589046 359.087715 225.446327 
C 365.774248 209.303607 369.216 192.000754 369.216 174.528 
" style="fill: none; stroke: #000000; stroke-width: 0.8; stroke-linejoin: miter; stroke-linecap: square"/>
   </g>
   <g id="text_17">
    <!-- Distribution of projected eye movement velocity on the screen - NewM1_1_23 -->
    <g transform="translate(2.185313 13.803563) scale(0.12 -0.12)">
     <defs>
      <path id="DejaVuSans-44" d="M 1259 4147 
L 1259 519 
L 2022 519 
Q 2988 519 3436 956 
Q 3884 1394 3884 2338 
Q 3884 3275 3436 3711 
Q 2988 4147 2022 4147 
L 1259 4147 
z
M 628 4666 
L 1925 4666 
Q 3281 4666 3915 4102 
Q 4550 3538 4550 2338 
Q 4550 1131 3912 565 
Q 3275 0 1925 0 
L 628 0 
L 628 4666 
z
" transform="scale(0.015625)"/>
      <path id="DejaVuSans-69" d="M 603 3500 
L 1178 3500 
L 1178 0 
L 603 0 
L 603 3500 
z
M 603 4863 
L 1178 4863 
L 1178 4134 
L 603 4134 
L 603 4863 
z
" transform="scale(0.015625)"/>
      <path id="DejaVuSans-73" d="M 2834 3397 
L 2834 2853 
Q 2591 2978 2328 3040 
Q 2066 3103 1784 3103 
Q 1356 3103 1142 2972 
Q 928 2841 928 2578 
Q 928 2378 1081 2264 
Q 1234 2150 1697 2047 
L 1894 2003 
Q 2506 1872 2764 1633 
Q 3022 1394 3022 966 
Q 3022 478 2636 193 
Q 2250 -91 1575 -91 
Q 1294 -91 989 -36 
Q 684 19 347 128 
L 347 722 
Q 666 556 975 473 
Q 1284 391 1588 391 
Q 1994 391 2212 530 
Q 2431 669 2431 922 
Q 2431 1156 2273 1281 
Q 2116 1406 1581 1522 
L 1381 1569 
Q 847 1681 609 1914 
Q 372 2147 372 2553 
Q 372 3047 722 3315 
Q 1072 3584 1716 3584 
Q 2034 3584 2315 3537 
Q 2597 3491 2834 3397 
z
" transform="scale(0.015625)"/>
      <path id="DejaVuSans-74" d="M 1172 4494 
L 1172 3500 
L 2356 3500 
L 2356 3053 
L 1172 3053 
L 1172 1153 
Q 1172 725 1289 603 
Q 1406 481 1766 481 
L 2356 481 
L 2356 0 
L 1766 0 
Q 1100 0 847 248 
Q 594 497 594 1153 
L 594 3053 
L 172 3053 
L 172 3500 
L 594 3500 
L 594 4494 
L 1172 4494 
z
" transform="scale(0.015625)"/>
      <path id="DejaVuSans-72" d="M 2631 2963 
Q 2534 3019 2420 3045 
Q 2306 3072 2169 3072 
Q 1681 3072 1420 2755 
Q 1159 2438 1159 1844 
L 1159 0 
L 581 0 
L 581 3500 
L 1159 3500 
L 1159 2956 
Q 1341 3275 1631 3429 
Q 1922 3584 2338 3584 
Q 2397 3584 2469 3576 
Q 2541 3569 2628 3553 
L 2631 2963 
z
" transform="scale(0.015625)"/>
      <path id="DejaVuSans-62" d="M 3116 1747 
Q 3116 2381 2855 2742 
Q 2594 3103 2138 3103 
Q 1681 3103 1420 2742 
Q 1159 2381 1159 1747 
Q 1159 1113 1420 752 
Q 1681 391 2138 391 
Q 2594 391 2855 752 
Q 3116 1113 3116 1747 
z
M 1159 2969 
Q 1341 3281 1617 3432 
Q 1894 3584 2278 3584 
Q 2916 3584 3314 3078 
Q 3713 2572 3713 1747 
Q 3713 922 3314 415 
Q 2916 -91 2278 -91 
Q 1894 -91 1617 61 
Q 1341 213 1159 525 
L 1159 0 
L 581 0 
L 581 4863 
L 1159 4863 
L 1159 2969 
z
" transform="scale(0.015625)"/>
      <path id="DejaVuSans-75" d="M 544 1381 
L 544 3500 
L 1119 3500 
L 1119 1403 
Q 1119 906 1312 657 
Q 1506 409 1894 409 
Q 2359 409 2629 706 
Q 2900 1003 2900 1516 
L 2900 3500 
L 3475 3500 
L 3475 0 
L 2900 0 
L 2900 538 
Q 2691 219 2414 64 
Q 2138 -91 1772 -91 
Q 1169 -91 856 284 
Q 544 659 544 1381 
z
M 1991 3584 
L 1991 3584 
z
" transform="scale(0.015625)"/>
      <path id="DejaVuSans-6f" d="M 1959 3097 
Q 1497 3097 1228 2736 
Q 959 2375 959 1747 
Q 959 1119 1226 758 
Q 1494 397 1959 397 
Q 2419 397 2687 759 
Q 2956 1122 2956 1747 
Q 2956 2369 2687 2733 
Q 2419 3097 1959 3097 
z
M 1959 3584 
Q 2709 3584 3137 3096 
Q 3566 2609 3566 1747 
Q 3566 888 3137 398 
Q 2709 -91 1959 -91 
Q 1206 -91 779 398 
Q 353 888 353 1747 
Q 353 2609 779 3096 
Q 1206 3584 1959 3584 
z
" transform="scale(0.015625)"/>
      <path id="DejaVuSans-6e" d="M 3513 2113 
L 3513 0 
L 2938 0 
L 2938 2094 
Q 2938 2591 2744 2837 
Q 2550 3084 2163 3084 
Q 1697 3084 1428 2787 
Q 1159 2491 1159 1978 
L 1159 0 
L 581 0 
L 581 3500 
L 1159 3500 
L 1159 2956 
Q 1366 3272 1645 3428 
Q 1925 3584 2291 3584 
Q 2894 3584 3203 3211 
Q 3513 2838 3513 2113 
z
" transform="scale(0.015625)"/>
      <path id="DejaVuSans-20" transform="scale(0.015625)"/>
      <path id="DejaVuSans-66" d="M 2375 4863 
L 2375 4384 
L 1825 4384 
Q 1516 4384 1395 4259 
Q 1275 4134 1275 3809 
L 1275 3500 
L 2222 3500 
L 2222 3053 
L 1275 3053 
L 1275 0 
L 697 0 
L 697 3053 
L 147 3053 
L 147 3500 
L 697 3500 
L 697 3744 
Q 697 4328 969 4595 
Q 1241 4863 1831 4863 
L 2375 4863 
z
" transform="scale(0.015625)"/>
      <path id="DejaVuSans-70" d="M 1159 525 
L 1159 -1331 
L 581 -1331 
L 581 3500 
L 1159 3500 
L 1159 2969 
Q 1341 3281 1617 3432 
Q 1894 3584 2278 3584 
Q 2916 3584 3314 3078 
Q 3713 2572 3713 1747 
Q 3713 922 3314 415 
Q 2916 -91 2278 -91 
Q 1894 -91 1617 61 
Q 1341 213 1159 525 
z
M 3116 1747 
Q 3116 2381 2855 2742 
Q 2594 3103 2138 3103 
Q 1681 3103 1420 2742 
Q 1159 2381 1159 1747 
Q 1159 1113 1420 752 
Q 1681 391 2138 391 
Q 2594 391 2855 752 
Q 3116 1113 3116 1747 
z
" transform="scale(0.015625)"/>
      <path id="DejaVuSans-6a" d="M 603 3500 
L 1178 3500 
L 1178 -63 
Q 1178 -731 923 -1031 
Q 669 -1331 103 -1331 
L -116 -1331 
L -116 -844 
L 38 -844 
Q 366 -844 484 -692 
Q 603 -541 603 -63 
L 603 3500 
z
M 603 4863 
L 1178 4863 
L 1178 4134 
L 603 4134 
L 603 4863 
z
" transform="scale(0.015625)"/>
      <path id="DejaVuSans-65" d="M 3597 1894 
L 3597 1613 
L 953 1613 
Q 991 1019 1311 708 
Q 1631 397 2203 397 
Q 2534 397 2845 478 
Q 3156 559 3463 722 
L 3463 178 
Q 3153 47 2828 -22 
Q 2503 -91 2169 -91 
Q 1331 -91 842 396 
Q 353 884 353 1716 
Q 353 2575 817 3079 
Q 1281 3584 2069 3584 
Q 2775 3584 3186 3129 
Q 3597 2675 3597 1894 
z
M 3022 2063 
Q 3016 2534 2758 2815 
Q 2500 3097 2075 3097 
Q 1594 3097 1305 2825 
Q 1016 2553 972 2059 
L 3022 2063 
z
" transform="scale(0.015625)"/>
      <path id="DejaVuSans-63" d="M 3122 3366 
L 3122 2828 
Q 2878 2963 2633 3030 
Q 2388 3097 2138 3097 
Q 1578 3097 1268 2742 
Q 959 2388 959 1747 
Q 959 1106 1268 751 
Q 1578 397 2138 397 
Q 2388 397 2633 464 
Q 2878 531 3122 666 
L 3122 134 
Q 2881 22 2623 -34 
Q 2366 -91 2075 -91 
Q 1284 -91 818 406 
Q 353 903 353 1747 
Q 353 2603 823 3093 
Q 1294 3584 2113 3584 
Q 2378 3584 2631 3529 
Q 2884 3475 3122 3366 
z
" transform="scale(0.015625)"/>
      <path id="DejaVuSans-64" d="M 2906 2969 
L 2906 4863 
L 3481 4863 
L 3481 0 
L 2906 0 
L 2906 525 
Q 2725 213 2448 61 
Q 2172 -91 1784 -91 
Q 1150 -91 751 415 
Q 353 922 353 1747 
Q 353 2572 751 3078 
Q 1150 3584 1784 3584 
Q 2172 3584 2448 3432 
Q 2725 3281 2906 2969 
z
M 947 1747 
Q 947 1113 1208 752 
Q 1469 391 1925 391 
Q 2381 391 2643 752 
Q 2906 1113 2906 1747 
Q 2906 2381 2643 2742 
Q 2381 3103 1925 3103 
Q 1469 3103 1208 2742 
Q 947 2381 947 1747 
z
" transform="scale(0.015625)"/>
      <path id="DejaVuSans-79" d="M 2059 -325 
Q 1816 -950 1584 -1140 
Q 1353 -1331 966 -1331 
L 506 -1331 
L 506 -850 
L 844 -850 
Q 1081 -850 1212 -737 
Q 1344 -625 1503 -206 
L 1606 56 
L 191 3500 
L 800 3500 
L 1894 763 
L 2988 3500 
L 3597 3500 
L 2059 -325 
z
" transform="scale(0.015625)"/>
      <path id="DejaVuSans-6d" d="M 3328 2828 
Q 3544 3216 3844 3400 
Q 4144 3584 4550 3584 
Q 5097 3584 5394 3201 
Q 5691 2819 5691 2113 
L 5691 0 
L 5113 0 
L 5113 2094 
Q 5113 2597 4934 2840 
Q 4756 3084 4391 3084 
Q 3944 3084 3684 2787 
Q 3425 2491 3425 1978 
L 3425 0 
L 2847 0 
L 2847 2094 
Q 2847 2600 2669 2842 
Q 2491 3084 2119 3084 
Q 1678 3084 1418 2786 
Q 1159 2488 1159 1978 
L 1159 0 
L 581 0 
L 581 3500 
L 1159 3500 
L 1159 2956 
Q 1356 3278 1631 3431 
Q 1906 3584 2284 3584 
Q 2666 3584 2933 3390 
Q 3200 3197 3328 2828 
z
" transform="scale(0.015625)"/>
      <path id="DejaVuSans-76" d="M 191 3500 
L 800 3500 
L 1894 563 
L 2988 3500 
L 3597 3500 
L 2284 0 
L 1503 0 
L 191 3500 
z
" transform="scale(0.015625)"/>
      <path id="DejaVuSans-6c" d="M 603 4863 
L 1178 4863 
L 1178 0 
L 603 0 
L 603 4863 
z
" transform="scale(0.015625)"/>
      <path id="DejaVuSans-68" d="M 3513 2113 
L 3513 0 
L 2938 0 
L 2938 2094 
Q 2938 2591 2744 2837 
Q 2550 3084 2163 3084 
Q 1697 3084 1428 2787 
Q 1159 2491 1159 1978 
L 1159 0 
L 581 0 
L 581 4863 
L 1159 4863 
L 1159 2956 
Q 1366 3272 1645 3428 
Q 1925 3584 2291 3584 
Q 2894 3584 3203 3211 
Q 3513 2838 3513 2113 
z
" transform="scale(0.015625)"/>
      <path id="DejaVuSans-2d" d="M 313 2009 
L 1997 2009 
L 1997 1497 
L 313 1497 
L 313 2009 
z
" transform="scale(0.015625)"/>
      <path id="DejaVuSans-4e" d="M 628 4666 
L 1478 4666 
L 3547 763 
L 3547 4666 
L 4159 4666 
L 4159 0 
L 3309 0 
L 1241 3903 
L 1241 0 
L 628 0 
L 628 4666 
z
" transform="scale(0.015625)"/>
      <path id="DejaVuSans-77" d="M 269 3500 
L 844 3500 
L 1563 769 
L 2278 3500 
L 2956 3500 
L 3675 769 
L 4391 3500 
L 4966 3500 
L 4050 0 
L 3372 0 
L 2619 2869 
L 1863 0 
L 1184 0 
L 269 3500 
z
" transform="scale(0.015625)"/>
      <path id="DejaVuSans-4d" d="M 628 4666 
L 1569 4666 
L 2759 1491 
L 3956 4666 
L 4897 4666 
L 4897 0 
L 4281 0 
L 4281 4097 
L 3078 897 
L 2444 897 
L 1241 4097 
L 1241 0 
L 628 0 
L 628 4666 
z
" transform="scale(0.015625)"/>
      <path id="DejaVuSans-5f" d="M 3263 -1063 
L 3263 -1509 
L -63 -1509 
L -63 -1063 
L 3263 -1063 
z
" transform="scale(0.015625)"/>
     </defs>
     <use xlink:href="#DejaVuSans-44"/>
     <use xlink:href="#DejaVuSans-69" x="77.001953"/>
     <use xlink:href="#DejaVuSans-73" x="104.785156"/>
     <use xlink:href="#DejaVuSans-74" x="156.884766"/>
     <use xlink:href="#DejaVuSans-72" x="196.09375"/>
     <use xlink:href="#DejaVuSans-69" x="237.207031"/>
     <use xlink:href="#DejaVuSans-62" x="264.990234"/>
     <use xlink:href="#DejaVuSans-75" x="328.466797"/>
     <use xlink:href="#DejaVuSans-74" x="391.845703"/>
     <use xlink:href="#DejaVuSans-69" x="431.054688"/>
     <use xlink:href="#DejaVuSans-6f" x="458.837891"/>
     <use xlink:href="#DejaVuSans-6e" x="520.019531"/>
     <use xlink:href="#DejaVuSans-20" x="583.398438"/>
     <use xlink:href="#DejaVuSans-6f" x="615.185547"/>
     <use xlink:href="#DejaVuSans-66" x="676.367188"/>
     <use xlink:href="#DejaVuSans-20" x="711.572266"/>
     <use xlink:href="#DejaVuSans-70" x="743.359375"/>
     <use xlink:href="#DejaVuSans-72" x="806.835938"/>
     <use xlink:href="#DejaVuSans-6f" x="845.699219"/>
     <use xlink:href="#DejaVuSans-6a" x="906.880859"/>
     <use xlink:href="#DejaVuSans-65" x="934.664062"/>
     <use xlink:href="#DejaVuSans-63" x="996.1875"/>
     <use xlink:href="#DejaVuSans-74" x="1051.167969"/>
     <use xlink:href="#DejaVuSans-65" x="1090.376953"/>
     <use xlink:href="#DejaVuSans-64" x="1151.900391"/>
     <use xlink:href="#DejaVuSans-20" x="1215.376953"/>
     <use xlink:href="#DejaVuSans-65" x="1247.164062"/>
     <use xlink:href="#DejaVuSans-79" x="1308.6875"/>
     <use xlink:href="#DejaVuSans-65" x="1367.867188"/>
     <use xlink:href="#DejaVuSans-20" x="1429.390625"/>
     <use xlink:href="#DejaVuSans-6d" x="1461.177734"/>
     <use xlink:href="#DejaVuSans-6f" x="1558.589844"/>
     <use xlink:href="#DejaVuSans-76" x="1619.771484"/>
     <use xlink:href="#DejaVuSans-65" x="1678.951172"/>
     <use xlink:href="#DejaVuSans-6d" x="1740.474609"/>
     <use xlink:href="#DejaVuSans-65" x="1837.886719"/>
     <use xlink:href="#DejaVuSans-6e" x="1899.410156"/>
     <use xlink:href="#DejaVuSans-74" x="1962.789062"/>
     <use xlink:href="#DejaVuSans-20" x="2001.998047"/>
     <use xlink:href="#DejaVuSans-76" x="2033.785156"/>
     <use xlink:href="#DejaVuSans-65" x="2092.964844"/>
     <use xlink:href="#DejaVuSans-6c" x="2154.488281"/>
     <use xlink:href="#DejaVuSans-6f" x="2182.271484"/>
     <use xlink:href="#DejaVuSans-63" x="2243.453125"/>
     <use xlink:href="#DejaVuSans-69" x="2298.433594"/>
     <use xlink:href="#DejaVuSans-74" x="2326.216797"/>
     <use xlink:href="#DejaVuSans-79" x="2365.425781"/>
     <use xlink:href="#DejaVuSans-20" x="2424.605469"/>
     <use xlink:href="#DejaVuSans-6f" x="2456.392578"/>
     <use xlink:href="#DejaVuSans-6e" x="2517.574219"/>
     <use xlink:href="#DejaVuSans-20" x="2580.953125"/>
     <use xlink:href="#DejaVuSans-74" x="2612.740234"/>
     <use xlink:href="#DejaVuSans-68" x="2651.949219"/>
     <use xlink:href="#DejaVuSans-65" x="2715.328125"/>
     <use xlink:href="#DejaVuSans-20" x="2776.851562"/>
     <use xlink:href="#DejaVuSans-73" x="2808.638672"/>
     <use xlink:href="#DejaVuSans-63" x="2860.738281"/>
     <use xlink:href="#DejaVuSans-72" x="2915.71875"/>
     <use xlink:href="#DejaVuSans-65" x="2954.582031"/>
     <use xlink:href="#DejaVuSans-65" x="3016.105469"/>
     <use xlink:href="#DejaVuSans-6e" x="3077.628906"/>
     <use xlink:href="#DejaVuSans-20" x="3141.007812"/>
     <use xlink:href="#DejaVuSans-2d" x="3172.794922"/>
     <use xlink:href="#DejaVuSans-20" x="3208.878906"/>
     <use xlink:href="#DejaVuSans-4e" x="3240.666016"/>
     <use xlink:href="#DejaVuSans-65" x="3315.470703"/>
     <use xlink:href="#DejaVuSans-77" x="3376.994141"/>
     <use xlink:href="#DejaVuSans-4d" x="3458.78125"/>
     <use xlink:href="#DejaVuSans-31" x="3545.060547"/>
     <use xlink:href="#DejaVuSans-5f" x="3608.683594"/>
     <use xlink:href="#DejaVuSans-31" x="3658.683594"/>
     <use xlink:href="#DejaVuSans-5f" x="3722.306641"/>
     <use xlink:href="#DejaVuSans-32" x="3772.306641"/>
     <use xlink:href="#DejaVuSans-33" x="3835.929688"/>
    </g>
   </g>
   <g id="legend_1">
    <g id="patch_4">
     <path d="M 124.242031 108.1845 
L 348.077969 108.1845 
Q 350.077969 108.1845 350.077969 106.1845 
L 350.077969 48.472 
Q 350.077969 46.472 348.077969 46.472 
L 124.242031 46.472 
Q 122.242031 46.472 122.242031 48.472 
L 122.242031 106.1845 
Q 122.242031 108.1845 124.242031 108.1845 
z
" style="fill: #ffffff; opacity: 0.8; stroke: #cccccc; stroke-linejoin: miter"/>
    </g>
    <g id="PathCollection_4">
     <g>
      <use xlink:href="#mc6ea7b7adb" x="136.242031" y="55.445438" style="fill: #1f77b4; stroke: #1f77b4"/>
     </g>
    </g>
    <g id="text_18">
     <!-- $-0.5 &lt; t &lt; 0.$ -->
     <g transform="translate(154.242031 58.070438) scale(0.1 -0.1)">
      <defs>
       <path id="DejaVuSans-2212" d="M 678 2272 
L 4684 2272 
L 4684 1741 
L 678 1741 
L 678 2272 
z
" transform="scale(0.015625)"/>
       <path id="DejaVuSans-3c" d="M 4684 3150 
L 1459 2003 
L 4684 863 
L 4684 294 
L 678 1747 
L 678 2266 
L 4684 3719 
L 4684 3150 
z
" transform="scale(0.015625)"/>
       <path id="DejaVuSans-Oblique-74" d="M 2706 3500 
L 2619 3053 
L 1472 3053 
L 1100 1153 
Q 1081 1047 1072 975 
Q 1063 903 1063 863 
Q 1063 663 1183 572 
Q 1303 481 1569 481 
L 2150 481 
L 2053 0 
L 1503 0 
Q 991 0 739 200 
Q 488 400 488 806 
Q 488 878 497 964 
Q 506 1050 525 1153 
L 897 3053 
L 409 3053 
L 500 3500 
L 978 3500 
L 1172 4494 
L 1747 4494 
L 1556 3500 
L 2706 3500 
z
" transform="scale(0.015625)"/>
      </defs>
      <use xlink:href="#DejaVuSans-2212" transform="translate(0 0.78125)"/>
      <use xlink:href="#DejaVuSans-30" transform="translate(83.789062 0.78125)"/>
      <use xlink:href="#DejaVuSans-2e" transform="translate(147.412109 0.78125)"/>
      <use xlink:href="#DejaVuSans-35" transform="translate(179.199219 0.78125)"/>
      <use xlink:href="#DejaVuSans-3c" transform="translate(262.304688 0.78125)"/>
      <use xlink:href="#DejaVuSans-Oblique-74" transform="translate(365.576172 0.78125)"/>
      <use xlink:href="#DejaVuSans-3c" transform="translate(424.267578 0.78125)"/>
      <use xlink:href="#DejaVuSans-30" transform="translate(527.539062 0.78125)"/>
      <use xlink:href="#DejaVuSans-2e" transform="translate(591.162109 0.78125)"/>
     </g>
    </g>
    <g id="PathCollection_5">
     <g>
      <use xlink:href="#mfd3237eee7" x="136.242031" y="70.123563" style="fill: #ff7f0e; stroke: #ff7f0e"/>
     </g>
    </g>
    <g id="text_19">
     <!-- $0. &lt; t &lt; 0.5$ -->
     <g transform="translate(154.242031 72.748563) scale(0.1 -0.1)">
      <use xlink:href="#DejaVuSans-30" transform="translate(0 0.78125)"/>
      <use xlink:href="#DejaVuSans-2e" transform="translate(63.623047 0.78125)"/>
      <use xlink:href="#DejaVuSans-3c" transform="translate(134.375 0.78125)"/>
      <use xlink:href="#DejaVuSans-Oblique-74" transform="translate(237.646484 0.78125)"/>
      <use xlink:href="#DejaVuSans-3c" transform="translate(296.337891 0.78125)"/>
      <use xlink:href="#DejaVuSans-30" transform="translate(399.609375 0.78125)"/>
      <use xlink:href="#DejaVuSans-2e" transform="translate(463.232422 0.78125)"/>
      <use xlink:href="#DejaVuSans-35" transform="translate(495.019531 0.78125)"/>
     </g>
    </g>
    <g id="PathCollection_6">
     <g>
      <use xlink:href="#m1ce57a1e75" x="136.242031" y="84.801688" style="fill: #2ca02c; stroke: #2ca02c"/>
     </g>
    </g>
    <g id="text_20">
     <!-- $0.5 &lt; t &lt; 1.$ -->
     <g transform="translate(154.242031 87.426688) scale(0.1 -0.1)">
      <use xlink:href="#DejaVuSans-30" transform="translate(0 0.78125)"/>
      <use xlink:href="#DejaVuSans-2e" transform="translate(63.623047 0.78125)"/>
      <use xlink:href="#DejaVuSans-35" transform="translate(95.410156 0.78125)"/>
      <use xlink:href="#DejaVuSans-3c" transform="translate(178.515625 0.78125)"/>
      <use xlink:href="#DejaVuSans-Oblique-74" transform="translate(281.787109 0.78125)"/>
      <use xlink:href="#DejaVuSans-3c" transform="translate(340.478516 0.78125)"/>
      <use xlink:href="#DejaVuSans-31" transform="translate(443.75 0.78125)"/>
      <use xlink:href="#DejaVuSans-2e" transform="translate(507.373047 0.78125)"/>
     </g>
    </g>
    <g id="line2d_18">
     <path d="M 126.242031 98.604813 
L 136.242031 98.604813 
L 146.242031 98.604813 
" style="fill: none; stroke-dasharray: 7.4,3.2; stroke-dashoffset: 0; stroke: #ff0000; stroke-width: 2"/>
    </g>
    <g id="text_21">
     <!-- Average angle in light: -39.05 degrees -->
     <g transform="translate(154.242031 102.104813) scale(0.1 -0.1)">
      <defs>
       <path id="DejaVuSans-41" d="M 2188 4044 
L 1331 1722 
L 3047 1722 
L 2188 4044 
z
M 1831 4666 
L 2547 4666 
L 4325 0 
L 3669 0 
L 3244 1197 
L 1141 1197 
L 716 0 
L 50 0 
L 1831 4666 
z
" transform="scale(0.015625)"/>
       <path id="DejaVuSans-61" d="M 2194 1759 
Q 1497 1759 1228 1600 
Q 959 1441 959 1056 
Q 959 750 1161 570 
Q 1363 391 1709 391 
Q 2188 391 2477 730 
Q 2766 1069 2766 1631 
L 2766 1759 
L 2194 1759 
z
M 3341 1997 
L 3341 0 
L 2766 0 
L 2766 531 
Q 2569 213 2275 61 
Q 1981 -91 1556 -91 
Q 1019 -91 701 211 
Q 384 513 384 1019 
Q 384 1609 779 1909 
Q 1175 2209 1959 2209 
L 2766 2209 
L 2766 2266 
Q 2766 2663 2505 2880 
Q 2244 3097 1772 3097 
Q 1472 3097 1187 3025 
Q 903 2953 641 2809 
L 641 3341 
Q 956 3463 1253 3523 
Q 1550 3584 1831 3584 
Q 2591 3584 2966 3190 
Q 3341 2797 3341 1997 
z
" transform="scale(0.015625)"/>
       <path id="DejaVuSans-67" d="M 2906 1791 
Q 2906 2416 2648 2759 
Q 2391 3103 1925 3103 
Q 1463 3103 1205 2759 
Q 947 2416 947 1791 
Q 947 1169 1205 825 
Q 1463 481 1925 481 
Q 2391 481 2648 825 
Q 2906 1169 2906 1791 
z
M 3481 434 
Q 3481 -459 3084 -895 
Q 2688 -1331 1869 -1331 
Q 1566 -1331 1297 -1286 
Q 1028 -1241 775 -1147 
L 775 -588 
Q 1028 -725 1275 -790 
Q 1522 -856 1778 -856 
Q 2344 -856 2625 -561 
Q 2906 -266 2906 331 
L 2906 616 
Q 2728 306 2450 153 
Q 2172 0 1784 0 
Q 1141 0 747 490 
Q 353 981 353 1791 
Q 353 2603 747 3093 
Q 1141 3584 1784 3584 
Q 2172 3584 2450 3431 
Q 2728 3278 2906 2969 
L 2906 3500 
L 3481 3500 
L 3481 434 
z
" transform="scale(0.015625)"/>
       <path id="DejaVuSans-3a" d="M 750 794 
L 1409 794 
L 1409 0 
L 750 0 
L 750 794 
z
M 750 3309 
L 1409 3309 
L 1409 2516 
L 750 2516 
L 750 3309 
z
" transform="scale(0.015625)"/>
      </defs>
      <use xlink:href="#DejaVuSans-41"/>
      <use xlink:href="#DejaVuSans-76" x="62.533203"/>
      <use xlink:href="#DejaVuSans-65" x="121.712891"/>
      <use xlink:href="#DejaVuSans-72" x="183.236328"/>
      <use xlink:href="#DejaVuSans-61" x="224.349609"/>
      <use xlink:href="#DejaVuSans-67" x="285.628906"/>
      <use xlink:href="#DejaVuSans-65" x="349.105469"/>
      <use xlink:href="#DejaVuSans-20" x="410.628906"/>
      <use xlink:href="#DejaVuSans-61" x="442.416016"/>
      <use xlink:href="#DejaVuSans-6e" x="503.695312"/>
      <use xlink:href="#DejaVuSans-67" x="567.074219"/>
      <use xlink:href="#DejaVuSans-6c" x="630.550781"/>
      <use xlink:href="#DejaVuSans-65" x="658.333984"/>
      <use xlink:href="#DejaVuSans-20" x="719.857422"/>
      <use xlink:href="#DejaVuSans-69" x="751.644531"/>
      <use xlink:href="#DejaVuSans-6e" x="779.427734"/>
      <use xlink:href="#DejaVuSans-20" x="842.806641"/>
      <use xlink:href="#DejaVuSans-6c" x="874.59375"/>
      <use xlink:href="#DejaVuSans-69" x="902.376953"/>
      <use xlink:href="#DejaVuSans-67" x="930.160156"/>
      <use xlink:href="#DejaVuSans-68" x="993.636719"/>
      <use xlink:href="#DejaVuSans-74" x="1057.015625"/>
      <use xlink:href="#DejaVuSans-3a" x="1096.224609"/>
      <use xlink:href="#DejaVuSans-20" x="1129.916016"/>
      <use xlink:href="#DejaVuSans-2d" x="1161.703125"/>
      <use xlink:href="#DejaVuSans-33" x="1197.787109"/>
      <use xlink:href="#DejaVuSans-39" x="1261.410156"/>
      <use xlink:href="#DejaVuSans-2e" x="1325.033203"/>
      <use xlink:href="#DejaVuSans-30" x="1356.820312"/>
      <use xlink:href="#DejaVuSans-35" x="1420.443359"/>
      <use xlink:href="#DejaVuSans-20" x="1484.066406"/>
      <use xlink:href="#DejaVuSans-64" x="1515.853516"/>
      <use xlink:href="#DejaVuSans-65" x="1579.330078"/>
      <use xlink:href="#DejaVuSans-67" x="1640.853516"/>
      <use xlink:href="#DejaVuSans-72" x="1704.330078"/>
      <use xlink:href="#DejaVuSans-65" x="1743.193359"/>
      <use xlink:href="#DejaVuSans-65" x="1804.716797"/>
      <use xlink:href="#DejaVuSans-73" x="1866.240234"/>
     </g>
    </g>
   </g>
  </g>
 </g>
 <defs>
  <clipPath id="p62a86c82c4">
   <path d="M 369.216 174.528 
C 369.216 157.055246 365.774248 139.752393 359.087715 123.609673 
C 352.401182 107.466954 342.599903 92.798303 330.2448 80.4432 
C 317.889697 68.088097 303.221046 58.286818 287.078327 51.600285 
C 270.935607 44.913752 253.632754 41.472 236.16 41.472 
C 218.687246 41.472 201.384393 44.913752 185.241673 51.600285 
C 169.098954 58.286818 154.430303 68.088097 142.0752 80.4432 
C 129.720097 92.798303 119.918818 107.466954 113.232285 123.609673 
C 106.545752 139.752393 103.104 157.055246 103.104 174.528 
C 103.104 192.000754 106.545752 209.303607 113.232285 225.446327 
C 119.918818 241.589046 129.720097 256.257697 142.0752 268.6128 
C 154.430303 280.967903 169.098954 290.769182 185.241673 297.455715 
C 201.384393 304.142248 218.687246 307.584 236.16 307.584 
C 253.632754 307.584 270.935607 304.142248 287.078327 297.455715 
C 303.221046 290.769182 317.889697 280.967903 330.2448 268.6128 
C 342.599903 256.257697 352.401182 241.589046 359.087715 225.446327 
C 365.774248 209.303607 369.216 192.000754 369.216 174.528 
M 236.16 174.528 
C 236.16 174.528 236.16 174.528 236.16 174.528 
C 236.16 174.528 236.16 174.528 236.16 174.528 
C 236.16 174.528 236.16 174.528 236.16 174.528 
C 236.16 174.528 236.16 174.528 236.16 174.528 
C 236.16 174.528 236.16 174.528 236.16 174.528 
C 236.16 174.528 236.16 174.528 236.16 174.528 
C 236.16 174.528 236.16 174.528 236.16 174.528 
C 236.16 174.528 236.16 174.528 236.16 174.528 
C 236.16 174.528 236.16 174.528 236.16 174.528 
C 236.16 174.528 236.16 174.528 236.16 174.528 
C 236.16 174.528 236.16 174.528 236.16 174.528 
C 236.16 174.528 236.16 174.528 236.16 174.528 
C 236.16 174.528 236.16 174.528 236.16 174.528 
C 236.16 174.528 236.16 174.528 236.16 174.528 
C 236.16 174.528 236.16 174.528 236.16 174.528 
C 236.16 174.528 236.16 174.528 236.16 174.528 
z
"/>
  </clipPath>
 </defs>
</svg>
