<?xml version="1.0" encoding="utf-8" standalone="no"?>
<!DOCTYPE svg PUBLIC "-//W3C//DTD SVG 1.1//EN"
  "http://www.w3.org/Graphics/SVG/1.1/DTD/svg11.dtd">
<!-- Created with matplotlib (https://matplotlib.org/) -->
<svg height="396pt" version="1.1" viewBox="0 0 576 396" width="576pt" xmlns="http://www.w3.org/2000/svg" xmlns:xlink="http://www.w3.org/1999/xlink">
 <defs>
  <style type="text/css">
*{stroke-linecap:butt;stroke-linejoin:round;}
  </style>
 </defs>
 <g id="figure_1">
  <g id="patch_1">
   <path d="M 0 396 
L 576 396 
L 576 0 
L 0 0 
z
" style="fill:#ffffff;"/>
  </g>
  <g id="axes_1">
   <g id="patch_2">
    <path d="M 447.66 199.98 
C 447.66 179.959136 443.716326 160.13295 436.054674 141.636084 
C 428.393021 123.139218 417.162388 106.331389 403.0055 92.1745 
C 388.848611 78.017612 372.040782 66.786979 353.543916 59.125326 
C 335.04705 51.463674 315.220864 47.52 295.2 47.52 
C 275.179136 47.52 255.35295 51.463674 236.856084 59.125326 
C 218.359218 66.786979 201.551389 78.017612 187.3945 92.1745 
C 173.237612 106.331389 162.006979 123.139218 154.345326 141.636084 
C 146.683674 160.13295 142.74 179.959136 142.74 199.98 
C 142.74 220.000864 146.683674 239.82705 154.345326 258.323916 
C 162.006979 276.820782 173.237612 293.628611 187.3945 307.7855 
C 201.551389 321.942388 218.359218 333.173021 236.856084 340.834674 
C 255.35295 348.496326 275.179136 352.44 295.2 352.44 
C 315.220864 352.44 335.04705 348.496326 353.543916 340.834674 
C 372.040782 333.173021 388.848611 321.942388 403.0055 307.7855 
C 417.162388 293.628611 428.393021 276.820782 436.054674 258.323916 
C 443.716326 239.82705 447.66 220.000864 447.66 199.98 
M 295.2 199.98 
C 295.2 199.98 295.2 199.98 295.2 199.98 
C 295.2 199.98 295.2 199.98 295.2 199.98 
C 295.2 199.98 295.2 199.98 295.2 199.98 
C 295.2 199.98 295.2 199.98 295.2 199.98 
C 295.2 199.98 295.2 199.98 295.2 199.98 
C 295.2 199.98 295.2 199.98 295.2 199.98 
C 295.2 199.98 295.2 199.98 295.2 199.98 
C 295.2 199.98 295.2 199.98 295.2 199.98 
C 295.2 199.98 295.2 199.98 295.2 199.98 
C 295.2 199.98 295.2 199.98 295.2 199.98 
C 295.2 199.98 295.2 199.98 295.2 199.98 
C 295.2 199.98 295.2 199.98 295.2 199.98 
C 295.2 199.98 295.2 199.98 295.2 199.98 
C 295.2 199.98 295.2 199.98 295.2 199.98 
C 295.2 199.98 295.2 199.98 295.2 199.98 
C 295.2 199.98 295.2 199.98 295.2 199.98 
M 447.66 199.98 
z
" style="fill:#eaeaf2;"/>
   </g>
   <g id="matplotlib.axis_1">
    <g id="xtick_1">
     <g id="line2d_1">
      <path clip-path="url(#pa1de743cc2)" d="M 295.2 199.98 
L 447.66 199.98 
" style="fill:none;stroke:#ffffff;stroke-linecap:round;"/>
     </g>
     <g id="text_1">
      <!-- 0° -->
      <defs>
       <path d="M 4.15625 35.296875 
Q 4.15625 48 6.765625 55.734375 
Q 9.375 63.484375 14.515625 67.671875 
Q 19.671875 71.875 27.484375 71.875 
Q 33.25 71.875 37.59375 69.546875 
Q 41.9375 67.234375 44.765625 62.859375 
Q 47.609375 58.5 49.21875 52.21875 
Q 50.828125 45.953125 50.828125 35.296875 
Q 50.828125 22.703125 48.234375 14.96875 
Q 45.65625 7.234375 40.5 3 
Q 35.359375 -1.21875 27.484375 -1.21875 
Q 17.140625 -1.21875 11.234375 6.203125 
Q 4.15625 15.140625 4.15625 35.296875 
z
M 13.1875 35.296875 
Q 13.1875 17.671875 17.3125 11.828125 
Q 21.4375 6 27.484375 6 
Q 33.546875 6 37.671875 11.859375 
Q 41.796875 17.71875 41.796875 35.296875 
Q 41.796875 52.984375 37.671875 58.78125 
Q 33.546875 64.59375 27.390625 64.59375 
Q 21.34375 64.59375 17.71875 59.46875 
Q 13.1875 52.9375 13.1875 35.296875 
z
" id="ArialMT-48"/>
       <path d="M 6.25 59.28125 
Q 6.25 64.890625 10.21875 68.84375 
Q 14.203125 72.796875 19.78125 72.796875 
Q 25.4375 72.796875 29.390625 68.84375 
Q 33.34375 64.890625 33.34375 59.28125 
Q 33.34375 53.65625 29.359375 49.671875 
Q 25.390625 45.703125 19.78125 45.703125 
Q 14.203125 45.703125 10.21875 49.65625 
Q 6.25 53.609375 6.25 59.28125 
z
M 11.578125 59.28125 
Q 11.578125 55.859375 13.984375 53.4375 
Q 16.40625 51.03125 19.828125 51.03125 
Q 23.1875 51.03125 25.609375 53.4375 
Q 28.03125 55.859375 28.03125 59.28125 
Q 28.03125 62.703125 25.609375 65.109375 
Q 23.1875 67.53125 19.828125 67.53125 
Q 16.40625 67.53125 13.984375 65.109375 
Q 11.578125 62.703125 11.578125 59.28125 
z
" id="ArialMT-176"/>
      </defs>
      <g style="fill:#262626;" transform="translate(456.880313 202.565156)scale(0.1 -0.1)">
       <use xlink:href="#ArialMT-48"/>
       <use x="55.615234" xlink:href="#ArialMT-176"/>
      </g>
     </g>
    </g>
    <g id="xtick_2">
     <g id="line2d_2">
      <path clip-path="url(#pa1de743cc2)" d="M 295.2 199.98 
L 403.0055 92.1745 
" style="fill:none;stroke:#ffffff;stroke-linecap:round;"/>
     </g>
     <g id="text_2">
      <!-- 45° -->
      <defs>
       <path d="M 32.328125 0 
L 32.328125 17.140625 
L 1.265625 17.140625 
L 1.265625 25.203125 
L 33.9375 71.578125 
L 41.109375 71.578125 
L 41.109375 25.203125 
L 50.78125 25.203125 
L 50.78125 17.140625 
L 41.109375 17.140625 
L 41.109375 0 
z
M 32.328125 25.203125 
L 32.328125 57.46875 
L 9.90625 25.203125 
z
" id="ArialMT-52"/>
       <path d="M 4.15625 18.75 
L 13.375 19.53125 
Q 14.40625 12.796875 18.140625 9.390625 
Q 21.875 6 27.15625 6 
Q 33.5 6 37.890625 10.78125 
Q 42.28125 15.578125 42.28125 23.484375 
Q 42.28125 31 38.0625 35.34375 
Q 33.84375 39.703125 27 39.703125 
Q 22.75 39.703125 19.328125 37.765625 
Q 15.921875 35.84375 13.96875 32.765625 
L 5.71875 33.84375 
L 12.640625 70.609375 
L 48.25 70.609375 
L 48.25 62.203125 
L 19.671875 62.203125 
L 15.828125 42.96875 
Q 22.265625 47.46875 29.34375 47.46875 
Q 38.71875 47.46875 45.15625 40.96875 
Q 51.609375 34.46875 51.609375 24.265625 
Q 51.609375 14.546875 45.953125 7.46875 
Q 39.0625 -1.21875 27.15625 -1.21875 
Q 17.390625 -1.21875 11.203125 4.25 
Q 5.03125 9.71875 4.15625 18.75 
z
" id="ArialMT-53"/>
      </defs>
      <g style="fill:#262626;" transform="translate(405.344839 84.860161)scale(0.1 -0.1)">
       <use xlink:href="#ArialMT-52"/>
       <use x="55.615234" xlink:href="#ArialMT-53"/>
       <use x="111.230469" xlink:href="#ArialMT-176"/>
      </g>
     </g>
    </g>
    <g id="xtick_3">
     <g id="line2d_3">
      <path clip-path="url(#pa1de743cc2)" d="M 295.2 199.98 
L 295.2 47.52 
" style="fill:none;stroke:#ffffff;stroke-linecap:round;"/>
     </g>
     <g id="text_3">
      <!-- 90° -->
      <defs>
       <path d="M 5.46875 16.546875 
L 13.921875 17.328125 
Q 14.984375 11.375 18.015625 8.6875 
Q 21.046875 6 25.78125 6 
Q 29.828125 6 32.875 7.859375 
Q 35.9375 9.71875 37.890625 12.8125 
Q 39.84375 15.921875 41.15625 21.1875 
Q 42.484375 26.46875 42.484375 31.9375 
Q 42.484375 32.515625 42.4375 33.6875 
Q 39.796875 29.5 35.234375 26.875 
Q 30.671875 24.265625 25.34375 24.265625 
Q 16.453125 24.265625 10.296875 30.703125 
Q 4.15625 37.15625 4.15625 47.703125 
Q 4.15625 58.59375 10.578125 65.234375 
Q 17 71.875 26.65625 71.875 
Q 33.640625 71.875 39.421875 68.109375 
Q 45.21875 64.359375 48.21875 57.390625 
Q 51.21875 50.4375 51.21875 37.25 
Q 51.21875 23.53125 48.234375 15.40625 
Q 45.265625 7.28125 39.375 3.03125 
Q 33.5 -1.21875 25.59375 -1.21875 
Q 17.1875 -1.21875 11.859375 3.4375 
Q 6.546875 8.109375 5.46875 16.546875 
z
M 41.453125 48.140625 
Q 41.453125 55.71875 37.421875 60.15625 
Q 33.40625 64.59375 27.734375 64.59375 
Q 21.875 64.59375 17.53125 59.8125 
Q 13.1875 55.03125 13.1875 47.40625 
Q 13.1875 40.578125 17.3125 36.296875 
Q 21.4375 32.03125 27.484375 32.03125 
Q 33.59375 32.03125 37.515625 36.296875 
Q 41.453125 40.578125 41.453125 48.140625 
z
" id="ArialMT-57"/>
      </defs>
      <g style="fill:#262626;" transform="translate(287.639844 36.105156)scale(0.1 -0.1)">
       <use xlink:href="#ArialMT-57"/>
       <use x="55.615234" xlink:href="#ArialMT-48"/>
       <use x="111.230469" xlink:href="#ArialMT-176"/>
      </g>
     </g>
    </g>
    <g id="xtick_4">
     <g id="line2d_4">
      <path clip-path="url(#pa1de743cc2)" d="M 295.2 199.98 
L 187.3945 92.1745 
" style="fill:none;stroke:#ffffff;stroke-linecap:round;"/>
     </g>
     <g id="text_4">
      <!-- 135° -->
      <defs>
       <path d="M 37.25 0 
L 28.46875 0 
L 28.46875 56 
Q 25.296875 52.984375 20.140625 49.953125 
Q 14.984375 46.921875 10.890625 45.40625 
L 10.890625 53.90625 
Q 18.265625 57.375 23.78125 62.296875 
Q 29.296875 67.234375 31.59375 71.875 
L 37.25 71.875 
z
" id="ArialMT-49"/>
       <path d="M 4.203125 18.890625 
L 12.984375 20.0625 
Q 14.5 12.59375 18.140625 9.296875 
Q 21.78125 6 27 6 
Q 33.203125 6 37.46875 10.296875 
Q 41.75 14.59375 41.75 20.953125 
Q 41.75 27 37.796875 30.921875 
Q 33.84375 34.859375 27.734375 34.859375 
Q 25.25 34.859375 21.53125 33.890625 
L 22.515625 41.609375 
Q 23.390625 41.5 23.921875 41.5 
Q 29.546875 41.5 34.03125 44.421875 
Q 38.53125 47.359375 38.53125 53.46875 
Q 38.53125 58.296875 35.25 61.46875 
Q 31.984375 64.65625 26.8125 64.65625 
Q 21.6875 64.65625 18.265625 61.421875 
Q 14.84375 58.203125 13.875 51.765625 
L 5.078125 53.328125 
Q 6.6875 62.15625 12.390625 67.015625 
Q 18.109375 71.875 26.609375 71.875 
Q 32.46875 71.875 37.390625 69.359375 
Q 42.328125 66.84375 44.9375 62.5 
Q 47.5625 58.15625 47.5625 53.265625 
Q 47.5625 48.640625 45.0625 44.828125 
Q 42.578125 41.015625 37.703125 38.765625 
Q 44.046875 37.3125 47.5625 32.6875 
Q 51.078125 28.078125 51.078125 21.140625 
Q 51.078125 11.765625 44.234375 5.25 
Q 37.40625 -1.265625 26.953125 -1.265625 
Q 17.53125 -1.265625 11.296875 4.34375 
Q 5.078125 9.96875 4.203125 18.890625 
z
" id="ArialMT-51"/>
      </defs>
      <g style="fill:#262626;" transform="translate(167.15438 84.860161)scale(0.1 -0.1)">
       <use xlink:href="#ArialMT-49"/>
       <use x="55.615234" xlink:href="#ArialMT-51"/>
       <use x="111.230469" xlink:href="#ArialMT-53"/>
       <use x="166.845703" xlink:href="#ArialMT-176"/>
      </g>
     </g>
    </g>
    <g id="xtick_5">
     <g id="line2d_5">
      <path clip-path="url(#pa1de743cc2)" d="M 295.2 199.98 
L 142.74 199.98 
" style="fill:none;stroke:#ffffff;stroke-linecap:round;"/>
     </g>
     <g id="text_5">
      <!-- 180° -->
      <defs>
       <path d="M 17.671875 38.8125 
Q 12.203125 40.828125 9.5625 44.53125 
Q 6.9375 48.25 6.9375 53.421875 
Q 6.9375 61.234375 12.546875 66.546875 
Q 18.171875 71.875 27.484375 71.875 
Q 36.859375 71.875 42.578125 66.421875 
Q 48.296875 60.984375 48.296875 53.171875 
Q 48.296875 48.1875 45.671875 44.5 
Q 43.0625 40.828125 37.75 38.8125 
Q 44.34375 36.671875 47.78125 31.875 
Q 51.21875 27.09375 51.21875 20.453125 
Q 51.21875 11.28125 44.71875 5.03125 
Q 38.234375 -1.21875 27.640625 -1.21875 
Q 17.046875 -1.21875 10.546875 5.046875 
Q 4.046875 11.328125 4.046875 20.703125 
Q 4.046875 27.6875 7.59375 32.390625 
Q 11.140625 37.109375 17.671875 38.8125 
z
M 15.921875 53.71875 
Q 15.921875 48.640625 19.1875 45.40625 
Q 22.46875 42.1875 27.6875 42.1875 
Q 32.765625 42.1875 36.015625 45.375 
Q 39.265625 48.578125 39.265625 53.21875 
Q 39.265625 58.0625 35.90625 61.359375 
Q 32.5625 64.65625 27.59375 64.65625 
Q 22.5625 64.65625 19.234375 61.421875 
Q 15.921875 58.203125 15.921875 53.71875 
z
M 13.09375 20.65625 
Q 13.09375 16.890625 14.875 13.375 
Q 16.65625 9.859375 20.171875 7.921875 
Q 23.6875 6 27.734375 6 
Q 34.03125 6 38.125 10.046875 
Q 42.234375 14.109375 42.234375 20.359375 
Q 42.234375 26.703125 38.015625 30.859375 
Q 33.796875 35.015625 27.4375 35.015625 
Q 21.234375 35.015625 17.15625 30.90625 
Q 13.09375 26.8125 13.09375 20.65625 
z
" id="ArialMT-56"/>
      </defs>
      <g style="fill:#262626;" transform="translate(118.399375 202.565156)scale(0.1 -0.1)">
       <use xlink:href="#ArialMT-49"/>
       <use x="55.615234" xlink:href="#ArialMT-56"/>
       <use x="111.230469" xlink:href="#ArialMT-48"/>
       <use x="166.845703" xlink:href="#ArialMT-176"/>
      </g>
     </g>
    </g>
    <g id="xtick_6">
     <g id="line2d_6">
      <path clip-path="url(#pa1de743cc2)" d="M 295.2 199.98 
L 187.3945 307.7855 
" style="fill:none;stroke:#ffffff;stroke-linecap:round;"/>
     </g>
     <g id="text_6">
      <!-- 225° -->
      <defs>
       <path d="M 50.34375 8.453125 
L 50.34375 0 
L 3.03125 0 
Q 2.9375 3.171875 4.046875 6.109375 
Q 5.859375 10.9375 9.828125 15.625 
Q 13.8125 20.3125 21.34375 26.46875 
Q 33.015625 36.03125 37.109375 41.625 
Q 41.21875 47.21875 41.21875 52.203125 
Q 41.21875 57.421875 37.46875 61 
Q 33.734375 64.59375 27.734375 64.59375 
Q 21.390625 64.59375 17.578125 60.78125 
Q 13.765625 56.984375 13.71875 50.25 
L 4.6875 51.171875 
Q 5.609375 61.28125 11.65625 66.578125 
Q 17.71875 71.875 27.9375 71.875 
Q 38.234375 71.875 44.234375 66.15625 
Q 50.25 60.453125 50.25 52 
Q 50.25 47.703125 48.484375 43.546875 
Q 46.734375 39.40625 42.65625 34.8125 
Q 38.578125 30.21875 29.109375 22.21875 
Q 21.1875 15.578125 18.9375 13.203125 
Q 16.703125 10.84375 15.234375 8.453125 
z
" id="ArialMT-50"/>
      </defs>
      <g style="fill:#262626;" transform="translate(167.15438 320.270151)scale(0.1 -0.1)">
       <use xlink:href="#ArialMT-50"/>
       <use x="55.615234" xlink:href="#ArialMT-50"/>
       <use x="111.230469" xlink:href="#ArialMT-53"/>
       <use x="166.845703" xlink:href="#ArialMT-176"/>
      </g>
     </g>
    </g>
    <g id="xtick_7">
     <g id="line2d_7">
      <path clip-path="url(#pa1de743cc2)" d="M 295.2 199.98 
L 295.2 352.44 
" style="fill:none;stroke:#ffffff;stroke-linecap:round;"/>
     </g>
     <g id="text_7">
      <!-- 270° -->
      <defs>
       <path d="M 4.734375 62.203125 
L 4.734375 70.65625 
L 51.078125 70.65625 
L 51.078125 63.8125 
Q 44.234375 56.546875 37.515625 44.484375 
Q 30.8125 32.421875 27.15625 19.671875 
Q 24.515625 10.6875 23.78125 0 
L 14.75 0 
Q 14.890625 8.453125 18.0625 20.40625 
Q 21.234375 32.375 27.171875 43.484375 
Q 33.109375 54.59375 39.796875 62.203125 
z
" id="ArialMT-55"/>
      </defs>
      <g style="fill:#262626;" transform="translate(284.859375 369.025156)scale(0.1 -0.1)">
       <use xlink:href="#ArialMT-50"/>
       <use x="55.615234" xlink:href="#ArialMT-55"/>
       <use x="111.230469" xlink:href="#ArialMT-48"/>
       <use x="166.845703" xlink:href="#ArialMT-176"/>
      </g>
     </g>
    </g>
    <g id="xtick_8">
     <g id="line2d_8">
      <path clip-path="url(#pa1de743cc2)" d="M 295.2 199.98 
L 403.0055 307.7855 
" style="fill:none;stroke:#ffffff;stroke-linecap:round;"/>
     </g>
     <g id="text_8">
      <!-- 315° -->
      <g style="fill:#262626;" transform="translate(402.56437 320.270151)scale(0.1 -0.1)">
       <use xlink:href="#ArialMT-51"/>
       <use x="55.615234" xlink:href="#ArialMT-49"/>
       <use x="111.230469" xlink:href="#ArialMT-53"/>
       <use x="166.845703" xlink:href="#ArialMT-176"/>
      </g>
     </g>
    </g>
   </g>
   <g id="matplotlib.axis_2">
    <g id="ytick_1">
     <g id="line2d_9">
      <path clip-path="url(#pa1de743cc2)" d="M 319.987843 199.98 
L 319.852052 197.388965 
L 319.446169 194.826318 
L 318.77464 192.320135 
L 317.844821 189.897876 
L 316.666902 187.586079 
L 315.253786 185.410072 
L 313.620957 183.393696 
L 311.786304 181.559043 
L 309.769928 179.926214 
L 307.593921 178.513098 
L 305.282124 177.335179 
L 302.859865 176.40536 
L 300.353682 175.733831 
L 297.791035 175.327948 
L 295.2 175.192157 
L 292.608965 175.327948 
L 290.046318 175.733831 
L 287.540135 176.40536 
L 285.117876 177.335179 
L 282.806079 178.513098 
L 280.630072 179.926214 
L 278.613696 181.559043 
L 276.779043 183.393696 
L 275.146214 185.410072 
L 273.733098 187.586079 
L 272.555179 189.897876 
L 271.62536 192.320135 
L 270.953831 194.826318 
L 270.547948 197.388965 
L 270.412157 199.98 
L 270.547948 202.571035 
L 270.953831 205.133682 
L 271.62536 207.639865 
L 272.555179 210.062124 
L 273.733098 212.373921 
L 275.146214 214.549928 
L 276.779043 216.566304 
L 278.613696 218.400957 
L 280.630072 220.033786 
L 282.806079 221.446902 
L 285.117876 222.624821 
L 287.540135 223.55464 
L 290.046318 224.226169 
L 292.608965 224.632052 
L 295.2 224.767843 
L 297.791035 224.632052 
L 300.353682 224.226169 
L 302.859865 223.55464 
L 305.282124 222.624821 
L 307.593921 221.446902 
L 309.769928 220.033786 
L 311.786304 218.400957 
L 313.620957 216.566304 
L 315.253786 214.549928 
L 316.666902 212.373921 
L 317.844821 210.062124 
L 318.77464 207.639865 
L 319.446169 205.133682 
L 319.852052 202.571035 
L 319.987843 199.98 
L 319.987843 199.98 
" style="fill:none;stroke:#ffffff;stroke-linecap:round;"/>
     </g>
     <g id="text_9">
      <!-- 0.1 -->
      <defs>
       <path d="M 9.078125 0 
L 9.078125 10.015625 
L 19.09375 10.015625 
L 19.09375 0 
z
" id="ArialMT-46"/>
      </defs>
      <g style="fill:#262626;" transform="translate(318.100981 188.506603)scale(0.1 -0.1)">
       <use xlink:href="#ArialMT-48"/>
       <use x="55.615234" xlink:href="#ArialMT-46"/>
       <use x="83.398438" xlink:href="#ArialMT-49"/>
      </g>
     </g>
    </g>
    <g id="ytick_2">
     <g id="line2d_10">
      <path clip-path="url(#pa1de743cc2)" d="M 344.775686 199.98 
L 344.654922 196.521775 
L 344.293219 193.080398 
L 343.692338 189.672635 
L 342.855208 186.315089 
L 341.785906 183.024117 
L 340.489643 179.815752 
L 338.972732 176.705625 
L 337.242566 173.708889 
L 335.307572 170.840143 
L 333.177179 168.113363 
L 330.861764 165.541835 
L 328.372609 163.138086 
L 325.72184 160.913826 
L 322.922372 158.879894 
L 319.987843 157.046197 
L 316.93255 155.421669 
L 313.771379 154.014225 
L 310.519729 152.830721 
L 307.193444 151.876924 
L 303.808727 151.15748 
L 300.38207 150.675895 
L 296.930166 150.434514 
L 293.469834 150.434514 
L 290.01793 150.675895 
L 286.591273 151.15748 
L 283.206556 151.876924 
L 279.880271 152.830721 
L 276.628621 154.014225 
L 273.46745 155.421669 
L 270.412157 157.046197 
L 267.477628 158.879894 
L 264.67816 160.913826 
L 262.027391 163.138086 
L 259.538236 165.541835 
L 257.222821 168.113363 
L 255.092428 170.840143 
L 253.157434 173.708889 
L 251.427268 176.705625 
L 249.910357 179.815752 
L 248.614094 183.024117 
L 247.544792 186.315089 
L 246.707662 189.672635 
L 246.106781 193.080398 
L 245.745078 196.521775 
L 245.624314 199.98 
L 245.745078 203.438225 
L 246.106781 206.879602 
L 246.707662 210.287365 
L 247.544792 213.644911 
L 248.614094 216.935883 
L 249.910357 220.144248 
L 251.427268 223.254375 
L 253.157434 226.251111 
L 255.092428 229.119857 
L 257.222821 231.846637 
L 259.538236 234.418165 
L 262.027391 236.821914 
L 264.67816 239.046174 
L 267.477628 241.080106 
L 270.412157 242.913803 
L 273.46745 244.538331 
L 276.628621 245.945775 
L 279.880271 247.129279 
L 283.206556 248.083076 
L 286.591273 248.80252 
L 290.01793 249.284105 
L 293.469834 249.525486 
L 296.930166 249.525486 
L 300.38207 249.284105 
L 303.808727 248.80252 
L 307.193444 248.083076 
L 310.519729 247.129279 
L 313.771379 245.945775 
L 316.93255 244.538331 
L 319.987843 242.913803 
L 322.922372 241.080106 
L 325.72184 239.046174 
L 328.372609 236.821914 
L 330.861764 234.418165 
L 333.177179 231.846637 
L 335.307572 229.119857 
L 337.242566 226.251111 
L 338.972732 223.254375 
L 340.489643 220.144248 
L 341.785906 216.935883 
L 342.855208 213.644911 
L 343.692338 210.287365 
L 344.293219 206.879602 
L 344.654922 203.438225 
L 344.775686 199.98 
L 344.775686 199.98 
" style="fill:none;stroke:#ffffff;stroke-linecap:round;"/>
     </g>
     <g id="text_10">
      <!-- 0.2 -->
      <g style="fill:#262626;" transform="translate(341.001961 179.020706)scale(0.1 -0.1)">
       <use xlink:href="#ArialMT-48"/>
       <use x="55.615234" xlink:href="#ArialMT-46"/>
       <use x="83.398438" xlink:href="#ArialMT-50"/>
      </g>
     </g>
    </g>
    <g id="ytick_3">
     <g id="line2d_11">
      <path clip-path="url(#pa1de743cc2)" d="M 369.563529 199.98 
L 369.382383 194.792662 
L 368.839828 189.630597 
L 367.938507 184.518953 
L 366.682812 179.482634 
L 365.078859 174.546175 
L 363.134464 169.733628 
L 360.859099 165.068438 
L 358.263849 160.573334 
L 355.361358 156.270215 
L 352.165768 152.180045 
L 348.692646 148.322752 
L 344.958913 144.717128 
L 340.98276 141.38074 
L 336.783558 138.329841 
L 332.381764 135.579295 
L 327.798825 133.142503 
L 323.057068 131.031337 
L 318.179594 129.256081 
L 313.190166 127.825386 
L 308.113091 126.74622 
L 302.973105 126.023843 
L 297.79525 125.661772 
L 292.60475 125.661772 
L 287.426895 126.023843 
L 282.286909 126.74622 
L 277.209834 127.825386 
L 272.220406 129.256081 
L 267.342932 131.031337 
L 262.601175 133.142503 
L 258.018236 135.579295 
L 253.616442 138.329841 
L 249.41724 141.38074 
L 245.441087 144.717128 
L 241.707354 148.322752 
L 238.234232 152.180045 
L 235.038642 156.270215 
L 232.136151 160.573334 
L 229.540901 165.068438 
L 227.265536 169.733628 
L 225.321141 174.546175 
L 223.717188 179.482634 
L 222.461493 184.518953 
L 221.560172 189.630597 
L 221.017617 194.792662 
L 220.836471 199.98 
L 221.017617 205.167338 
L 221.560172 210.329403 
L 222.461493 215.441047 
L 223.717188 220.477366 
L 225.321141 225.413825 
L 227.265536 230.226372 
L 229.540901 234.891562 
L 232.136151 239.386666 
L 235.038642 243.689785 
L 238.234232 247.779955 
L 241.707354 251.637248 
L 245.441087 255.242872 
L 249.41724 258.57926 
L 253.616442 261.630159 
L 258.018236 264.380705 
L 262.601175 266.817497 
L 267.342932 268.928663 
L 272.220406 270.703919 
L 277.209834 272.134614 
L 282.286909 273.21378 
L 287.426895 273.936157 
L 292.60475 274.298228 
L 297.79525 274.298228 
L 302.973105 273.936157 
L 308.113091 273.21378 
L 313.190166 272.134614 
L 318.179594 270.703919 
L 323.057068 268.928663 
L 327.798825 266.817497 
L 332.381764 264.380705 
L 336.783558 261.630159 
L 340.98276 258.57926 
L 344.958913 255.242872 
L 348.692646 251.637248 
L 352.165768 247.779955 
L 355.361358 243.689785 
L 358.263849 239.386666 
L 360.859099 234.891562 
L 363.134464 230.226372 
L 365.078859 225.413825 
L 366.682812 220.477366 
L 367.938507 215.441047 
L 368.839828 210.329403 
L 369.382383 205.167338 
L 369.563529 199.98 
L 369.563529 199.98 
" style="fill:none;stroke:#ffffff;stroke-linecap:round;"/>
     </g>
     <g id="text_11">
      <!-- 0.3 -->
      <g style="fill:#262626;" transform="translate(363.902942 169.53481)scale(0.1 -0.1)">
       <use xlink:href="#ArialMT-48"/>
       <use x="55.615234" xlink:href="#ArialMT-46"/>
       <use x="83.398438" xlink:href="#ArialMT-51"/>
      </g>
     </g>
    </g>
    <g id="ytick_4">
     <g id="line2d_12">
      <path clip-path="url(#pa1de743cc2)" d="M 394.351372 199.98 
L 394.290971 196.519667 
L 394.109844 193.06355 
L 393.80821 189.61586 
L 393.386437 186.180796 
L 392.845039 182.762545 
L 392.184676 179.365271 
L 391.406152 175.993112 
L 390.510416 172.650178 
L 389.498558 169.340541 
L 388.371812 166.068234 
L 387.131551 162.837242 
L 385.779285 159.651504 
L 384.316662 156.5149 
L 382.745465 153.431251 
L 381.067607 150.404314 
L 379.285132 147.437778 
L 377.400212 144.535257 
L 375.415145 141.700286 
L 373.332347 138.93632 
L 371.154357 136.246727 
L 368.883829 133.634783 
L 366.523528 131.10367 
L 364.07633 128.656472 
L 361.545217 126.296171 
L 358.933273 124.025643 
L 356.24368 121.847653 
L 353.479714 119.764855 
L 350.644743 117.779788 
L 347.742222 115.894868 
L 344.775686 114.112393 
L 341.748749 112.434535 
L 338.6651 110.863338 
L 335.528496 109.400715 
L 332.342758 108.048449 
L 329.111766 106.808188 
L 325.839459 105.681442 
L 322.529822 104.669584 
L 319.186888 103.773848 
L 315.814729 102.995324 
L 312.417455 102.334961 
L 308.999204 101.793563 
L 305.56414 101.37179 
L 302.11645 101.070156 
L 298.660333 100.889029 
L 295.2 100.828628 
L 291.739667 100.889029 
L 288.28355 101.070156 
L 284.83586 101.37179 
L 281.400796 101.793563 
L 277.982545 102.334961 
L 274.585271 102.995324 
L 271.213112 103.773848 
L 267.870178 104.669584 
L 264.560541 105.681442 
L 261.288234 106.808188 
L 258.057242 108.048449 
L 254.871504 109.400715 
L 251.7349 110.863338 
L 248.651251 112.434535 
L 245.624314 114.112393 
L 242.657778 115.894868 
L 239.755257 117.779788 
L 236.920286 119.764855 
L 234.15632 121.847653 
L 231.466727 124.025643 
L 228.854783 126.296171 
L 226.32367 128.656472 
L 223.876472 131.10367 
L 221.516171 133.634783 
L 219.245643 136.246727 
L 217.067653 138.93632 
L 214.984855 141.700286 
L 212.999788 144.535257 
L 211.114868 147.437778 
L 209.332393 150.404314 
L 207.654535 153.431251 
L 206.083338 156.5149 
L 204.620715 159.651504 
L 203.268449 162.837242 
L 202.028188 166.068234 
L 200.901442 169.340541 
L 199.889584 172.650178 
L 198.993848 175.993112 
L 198.215324 179.365271 
L 197.554961 182.762545 
L 197.013563 186.180796 
L 196.59179 189.61586 
L 196.290156 193.06355 
L 196.109029 196.519667 
L 196.048628 199.98 
L 196.109029 203.440333 
L 196.290156 206.89645 
L 196.59179 210.34414 
L 197.013563 213.779204 
L 197.554961 217.197455 
L 198.215324 220.594729 
L 198.993848 223.966888 
L 199.889584 227.309822 
L 200.901442 230.619459 
L 202.028188 233.891766 
L 203.268449 237.122758 
L 204.620715 240.308496 
L 206.083338 243.4451 
L 207.654535 246.528749 
L 209.332393 249.555686 
L 211.114868 252.522222 
L 212.999788 255.424743 
L 214.984855 258.259714 
L 217.067653 261.02368 
L 219.245643 263.713273 
L 221.516171 266.325217 
L 223.876472 268.85633 
L 226.32367 271.303528 
L 228.854783 273.663829 
L 231.466727 275.934357 
L 234.15632 278.112347 
L 236.920286 280.195145 
L 239.755257 282.180212 
L 242.657778 284.065132 
L 245.624314 285.847607 
L 248.651251 287.525465 
L 251.7349 289.096662 
L 254.871504 290.559285 
L 258.057242 291.911551 
L 261.288234 293.151812 
L 264.560541 294.278558 
L 267.870178 295.290416 
L 271.213112 296.186152 
L 274.585271 296.964676 
L 277.982545 297.625039 
L 281.400796 298.166437 
L 284.83586 298.58821 
L 288.28355 298.889844 
L 291.739667 299.070971 
L 295.2 299.131372 
L 298.660333 299.070971 
L 302.11645 298.889844 
L 305.56414 298.58821 
L 308.999204 298.166437 
L 312.417455 297.625039 
L 315.814729 296.964676 
L 319.186888 296.186152 
L 322.529822 295.290416 
L 325.839459 294.278558 
L 329.111766 293.151812 
L 332.342758 291.911551 
L 335.528496 290.559285 
L 338.6651 289.096662 
L 341.748749 287.525465 
L 344.775686 285.847607 
L 347.742222 284.065132 
L 350.644743 282.180212 
L 353.479714 280.195145 
L 356.24368 278.112347 
L 358.933273 275.934357 
L 361.545217 273.663829 
L 364.07633 271.303528 
L 366.523528 268.85633 
L 368.883829 266.325217 
L 371.154357 263.713273 
L 373.332347 261.02368 
L 375.415145 258.259714 
L 377.400212 255.424743 
L 379.285132 252.522222 
L 381.067607 249.555686 
L 382.745465 246.528749 
L 384.316662 243.4451 
L 385.779285 240.308496 
L 387.131551 237.122758 
L 388.371812 233.891766 
L 389.498558 230.619459 
L 390.510416 227.309822 
L 391.406152 223.966888 
L 392.184676 220.594729 
L 392.845039 217.197455 
L 393.386437 213.779204 
L 393.80821 210.34414 
L 394.109844 206.89645 
L 394.290971 203.440333 
L 394.351372 199.98 
L 394.351372 199.98 
" style="fill:none;stroke:#ffffff;stroke-linecap:round;"/>
     </g>
     <g id="text_12">
      <!-- 0.4 -->
      <g style="fill:#262626;" transform="translate(386.803923 160.048913)scale(0.1 -0.1)">
       <use xlink:href="#ArialMT-48"/>
       <use x="55.615234" xlink:href="#ArialMT-46"/>
       <use x="83.398438" xlink:href="#ArialMT-52"/>
      </g>
     </g>
    </g>
    <g id="ytick_5">
     <g id="line2d_13">
      <path clip-path="url(#pa1de743cc2)" d="M 419.139214 199.98 
L 419.063714 195.654584 
L 418.837305 191.334437 
L 418.460262 187.024824 
L 417.933047 182.730995 
L 417.256299 178.458181 
L 416.430845 174.211588 
L 415.45769 169.99639 
L 414.338019 165.817723 
L 413.073198 161.680676 
L 411.664765 157.590292 
L 410.114439 153.551553 
L 408.424106 149.56938 
L 406.595828 145.648624 
L 404.631831 141.794063 
L 402.534508 138.010393 
L 400.306415 134.302223 
L 397.950265 130.674071 
L 395.468931 127.130358 
L 392.865434 123.6754 
L 390.142947 120.313409 
L 387.304786 117.048478 
L 384.35441 113.884587 
L 381.295413 110.82559 
L 378.131522 107.875214 
L 374.866591 105.037053 
L 371.5046 102.314566 
L 368.049642 99.711069 
L 364.505929 97.229735 
L 360.877777 94.873585 
L 357.169607 92.645492 
L 353.385937 90.548169 
L 349.531376 88.584172 
L 345.61062 86.755894 
L 341.628447 85.065561 
L 337.589708 83.515235 
L 333.499324 82.106802 
L 329.362277 80.841981 
L 325.18361 79.72231 
L 320.968412 78.749155 
L 316.721819 77.923701 
L 312.449005 77.246953 
L 308.155176 76.719738 
L 303.845563 76.342695 
L 299.525416 76.116286 
L 295.2 76.040786 
L 290.874584 76.116286 
L 286.554437 76.342695 
L 282.244824 76.719738 
L 277.950995 77.246953 
L 273.678181 77.923701 
L 269.431588 78.749155 
L 265.21639 79.72231 
L 261.037723 80.841981 
L 256.900676 82.106802 
L 252.810292 83.515235 
L 248.771553 85.065561 
L 244.78938 86.755894 
L 240.868624 88.584172 
L 237.014063 90.548169 
L 233.230393 92.645492 
L 229.522223 94.873585 
L 225.894071 97.229735 
L 222.350358 99.711069 
L 218.8954 102.314566 
L 215.533409 105.037053 
L 212.268478 107.875214 
L 209.104587 110.82559 
L 206.04559 113.884587 
L 203.095214 117.048478 
L 200.257053 120.313409 
L 197.534566 123.6754 
L 194.931069 127.130358 
L 192.449735 130.674071 
L 190.093585 134.302223 
L 187.865492 138.010393 
L 185.768169 141.794063 
L 183.804172 145.648624 
L 181.975894 149.56938 
L 180.285561 153.551553 
L 178.735235 157.590292 
L 177.326802 161.680676 
L 176.061981 165.817723 
L 174.94231 169.99639 
L 173.969155 174.211588 
L 173.143701 178.458181 
L 172.466953 182.730995 
L 171.939738 187.024824 
L 171.562695 191.334437 
L 171.336286 195.654584 
L 171.260786 199.98 
L 171.336286 204.305416 
L 171.562695 208.625563 
L 171.939738 212.935176 
L 172.466953 217.229005 
L 173.143701 221.501819 
L 173.969155 225.748412 
L 174.94231 229.96361 
L 176.061981 234.142277 
L 177.326802 238.279324 
L 178.735235 242.369708 
L 180.285561 246.408447 
L 181.975894 250.39062 
L 183.804172 254.311376 
L 185.768169 258.165937 
L 187.865492 261.949607 
L 190.093585 265.657777 
L 192.449735 269.285929 
L 194.931069 272.829642 
L 197.534566 276.2846 
L 200.257053 279.646591 
L 203.095214 282.911522 
L 206.04559 286.075413 
L 209.104587 289.13441 
L 212.268478 292.084786 
L 215.533409 294.922947 
L 218.8954 297.645434 
L 222.350358 300.248931 
L 225.894071 302.730265 
L 229.522223 305.086415 
L 233.230393 307.314508 
L 237.014063 309.411831 
L 240.868624 311.375828 
L 244.78938 313.204106 
L 248.771553 314.894439 
L 252.810292 316.444765 
L 256.900676 317.853198 
L 261.037723 319.118019 
L 265.21639 320.23769 
L 269.431588 321.210845 
L 273.678181 322.036299 
L 277.950995 322.713047 
L 282.244824 323.240262 
L 286.554437 323.617305 
L 290.874584 323.843714 
L 295.2 323.919214 
L 299.525416 323.843714 
L 303.845563 323.617305 
L 308.155176 323.240262 
L 312.449005 322.713047 
L 316.721819 322.036299 
L 320.968412 321.210845 
L 325.18361 320.23769 
L 329.362277 319.118019 
L 333.499324 317.853198 
L 337.589708 316.444765 
L 341.628447 314.894439 
L 345.61062 313.204106 
L 349.531376 311.375828 
L 353.385937 309.411831 
L 357.169607 307.314508 
L 360.877777 305.086415 
L 364.505929 302.730265 
L 368.049642 300.248931 
L 371.5046 297.645434 
L 374.866591 294.922947 
L 378.131522 292.084786 
L 381.295413 289.13441 
L 384.35441 286.075413 
L 387.304786 282.911522 
L 390.142947 279.646591 
L 392.865434 276.2846 
L 395.468931 272.829642 
L 397.950265 269.285929 
L 400.306415 265.657777 
L 402.534508 261.949607 
L 404.631831 258.165937 
L 406.595828 254.311376 
L 408.424106 250.39062 
L 410.114439 246.408447 
L 411.664765 242.369708 
L 413.073198 238.279324 
L 414.338019 234.142277 
L 415.45769 229.96361 
L 416.430845 225.748412 
L 417.256299 221.501819 
L 417.933047 217.229005 
L 418.460262 212.935176 
L 418.837305 208.625563 
L 419.063714 204.305416 
L 419.139214 199.98 
L 419.139214 199.98 
" style="fill:none;stroke:#ffffff;stroke-linecap:round;"/>
     </g>
     <g id="text_13">
      <!-- 0.5 -->
      <g style="fill:#262626;" transform="translate(409.704903 150.563016)scale(0.1 -0.1)">
       <use xlink:href="#ArialMT-48"/>
       <use x="55.615234" xlink:href="#ArialMT-46"/>
       <use x="83.398438" xlink:href="#ArialMT-53"/>
      </g>
     </g>
    </g>
    <g id="ytick_6">
     <g id="line2d_14">
      <path clip-path="url(#pa1de743cc2)" d="M 443.927057 199.98 
L 443.836457 194.789501 
L 443.564766 189.605325 
L 443.112315 184.433789 
L 442.479656 179.281194 
L 441.667559 174.153818 
L 440.677014 169.057906 
L 439.509228 163.999668 
L 438.165623 158.985267 
L 436.647837 154.020812 
L 434.957718 149.112351 
L 433.097326 144.265864 
L 431.068928 139.487256 
L 428.874994 134.782349 
L 426.518197 130.156876 
L 424.00141 125.616471 
L 421.327698 121.166667 
L 418.500319 116.812885 
L 415.522717 112.560429 
L 412.398521 108.41448 
L 409.131536 104.38009 
L 405.725743 100.462174 
L 402.185292 96.665505 
L 398.514495 92.994708 
L 394.717826 89.454257 
L 390.79991 86.048464 
L 386.76552 82.781479 
L 382.619571 79.657283 
L 378.367115 76.679681 
L 374.013333 73.852302 
L 369.563529 71.17859 
L 365.023124 68.661803 
L 360.397651 66.305006 
L 355.692744 64.111072 
L 350.914136 62.082674 
L 346.067649 60.222282 
L 341.159188 58.532163 
L 336.194733 57.014377 
L 331.180332 55.670772 
L 326.122094 54.502986 
L 321.026182 53.512441 
L 315.898806 52.700344 
L 310.746211 52.067685 
L 305.574675 51.615234 
L 300.390499 51.343543 
L 295.2 51.252943 
L 290.009501 51.343543 
L 284.825325 51.615234 
L 279.653789 52.067685 
L 274.501194 52.700344 
L 269.373818 53.512441 
L 264.277906 54.502986 
L 259.219668 55.670772 
L 254.205267 57.014377 
L 249.240812 58.532163 
L 244.332351 60.222282 
L 239.485864 62.082674 
L 234.707256 64.111072 
L 230.002349 66.305006 
L 225.376876 68.661803 
L 220.836471 71.17859 
L 216.386667 73.852302 
L 212.032885 76.679681 
L 207.780429 79.657283 
L 203.63448 82.781479 
L 199.60009 86.048464 
L 195.682174 89.454257 
L 191.885505 92.994708 
L 188.214708 96.665505 
L 184.674257 100.462174 
L 181.268464 104.38009 
L 178.001479 108.41448 
L 174.877283 112.560429 
L 171.899681 116.812885 
L 169.072302 121.166667 
L 166.39859 125.616471 
L 163.881803 130.156876 
L 161.525006 134.782349 
L 159.331072 139.487256 
L 157.302674 144.265864 
L 155.442282 149.112351 
L 153.752163 154.020812 
L 152.234377 158.985267 
L 150.890772 163.999668 
L 149.722986 169.057906 
L 148.732441 174.153818 
L 147.920344 179.281194 
L 147.287685 184.433789 
L 146.835234 189.605325 
L 146.563543 194.789501 
L 146.472943 199.98 
L 146.563543 205.170499 
L 146.835234 210.354675 
L 147.287685 215.526211 
L 147.920344 220.678806 
L 148.732441 225.806182 
L 149.722986 230.902094 
L 150.890772 235.960332 
L 152.234377 240.974733 
L 153.752163 245.939188 
L 155.442282 250.847649 
L 157.302674 255.694136 
L 159.331072 260.472744 
L 161.525006 265.177651 
L 163.881803 269.803124 
L 166.39859 274.343529 
L 169.072302 278.793333 
L 171.899681 283.147115 
L 174.877283 287.399571 
L 178.001479 291.54552 
L 181.268464 295.57991 
L 184.674257 299.497826 
L 188.214708 303.294495 
L 191.885505 306.965292 
L 195.682174 310.505743 
L 199.60009 313.911536 
L 203.63448 317.178521 
L 207.780429 320.302717 
L 212.032885 323.280319 
L 216.386667 326.107698 
L 220.836471 328.78141 
L 225.376876 331.298197 
L 230.002349 333.654994 
L 234.707256 335.848928 
L 239.485864 337.877326 
L 244.332351 339.737718 
L 249.240812 341.427837 
L 254.205267 342.945623 
L 259.219668 344.289228 
L 264.277906 345.457014 
L 269.373818 346.447559 
L 274.501194 347.259656 
L 279.653789 347.892315 
L 284.825325 348.344766 
L 290.009501 348.616457 
L 295.2 348.707057 
L 300.390499 348.616457 
L 305.574675 348.344766 
L 310.746211 347.892315 
L 315.898806 347.259656 
L 321.026182 346.447559 
L 326.122094 345.457014 
L 331.180332 344.289228 
L 336.194733 342.945623 
L 341.159188 341.427837 
L 346.067649 339.737718 
L 350.914136 337.877326 
L 355.692744 335.848928 
L 360.397651 333.654994 
L 365.023124 331.298197 
L 369.563529 328.78141 
L 374.013333 326.107698 
L 378.367115 323.280319 
L 382.619571 320.302717 
L 386.76552 317.178521 
L 390.79991 313.911536 
L 394.717826 310.505743 
L 398.514495 306.965292 
L 402.185292 303.294495 
L 405.725743 299.497826 
L 409.131536 295.57991 
L 412.398521 291.54552 
L 415.522717 287.399571 
L 418.500319 283.147115 
L 421.327698 278.793333 
L 424.00141 274.343529 
L 426.518197 269.803124 
L 428.874994 265.177651 
L 431.068928 260.472744 
L 433.097326 255.694136 
L 434.957718 250.847649 
L 436.647837 245.939188 
L 438.165623 240.974733 
L 439.509228 235.960332 
L 440.677014 230.902094 
L 441.667559 225.806182 
L 442.479656 220.678806 
L 443.112315 215.526211 
L 443.564766 210.354675 
L 443.836457 205.170499 
L 443.927057 199.98 
L 443.927057 199.98 
" style="fill:none;stroke:#ffffff;stroke-linecap:round;"/>
     </g>
     <g id="text_14">
      <!-- 0.6 -->
      <defs>
       <path d="M 49.75 54.046875 
L 41.015625 53.375 
Q 39.84375 58.546875 37.703125 60.890625 
Q 34.125 64.65625 28.90625 64.65625 
Q 24.703125 64.65625 21.53125 62.3125 
Q 17.390625 59.28125 14.984375 53.46875 
Q 12.59375 47.65625 12.5 36.921875 
Q 15.671875 41.75 20.265625 44.09375 
Q 24.859375 46.4375 29.890625 46.4375 
Q 38.671875 46.4375 44.84375 39.96875 
Q 51.03125 33.5 51.03125 23.25 
Q 51.03125 16.5 48.125 10.71875 
Q 45.21875 4.9375 40.140625 1.859375 
Q 35.0625 -1.21875 28.609375 -1.21875 
Q 17.625 -1.21875 10.6875 6.859375 
Q 3.765625 14.9375 3.765625 33.5 
Q 3.765625 54.25 11.421875 63.671875 
Q 18.109375 71.875 29.4375 71.875 
Q 37.890625 71.875 43.28125 67.140625 
Q 48.6875 62.40625 49.75 54.046875 
z
M 13.875 23.1875 
Q 13.875 18.65625 15.796875 14.5 
Q 17.71875 10.359375 21.1875 8.171875 
Q 24.65625 6 28.46875 6 
Q 34.03125 6 38.03125 10.484375 
Q 42.046875 14.984375 42.046875 22.703125 
Q 42.046875 30.125 38.078125 34.390625 
Q 34.125 38.671875 28.125 38.671875 
Q 22.171875 38.671875 18.015625 34.390625 
Q 13.875 30.125 13.875 23.1875 
z
" id="ArialMT-54"/>
      </defs>
      <g style="fill:#262626;" transform="translate(432.605884 141.077119)scale(0.1 -0.1)">
       <use xlink:href="#ArialMT-48"/>
       <use x="55.615234" xlink:href="#ArialMT-46"/>
       <use x="83.398438" xlink:href="#ArialMT-54"/>
      </g>
     </g>
    </g>
   </g>
   <g id="PathCollection_1">
    <defs>
     <path d="M 0 3.5 
C 0.928211 3.5 1.81853 3.131218 2.474874 2.474874 
C 3.131218 1.81853 3.5 0.928211 3.5 0 
C 3.5 -0.928211 3.131218 -1.81853 2.474874 -2.474874 
C 1.81853 -3.131218 0.928211 -3.5 0 -3.5 
C -0.928211 -3.5 -1.81853 -3.131218 -2.474874 -2.474874 
C -3.131218 -1.81853 -3.5 -0.928211 -3.5 0 
C -3.5 0.928211 -3.131218 1.81853 -2.474874 2.474874 
C -1.81853 3.131218 -0.928211 3.5 0 3.5 
z
" id="ma2e0e4cb61" style="stroke:#4c72b0;stroke-width:0.3;"/>
    </defs>
    <g clip-path="url(#pa1de743cc2)">
     <use style="fill:#4c72b0;stroke:#4c72b0;stroke-width:0.3;" x="283.086067" xlink:href="#ma2e0e4cb61" y="208.400149"/>
     <use style="fill:#4c72b0;stroke:#4c72b0;stroke-width:0.3;" x="282.651915" xlink:href="#ma2e0e4cb61" y="209.112338"/>
     <use style="fill:#4c72b0;stroke:#4c72b0;stroke-width:0.3;" x="285.21266" xlink:href="#ma2e0e4cb61" y="209.570296"/>
     <use style="fill:#4c72b0;stroke:#4c72b0;stroke-width:0.3;" x="295.664509" xlink:href="#ma2e0e4cb61" y="201.837676"/>
     <use style="fill:#4c72b0;stroke:#4c72b0;stroke-width:0.3;" x="291.334008" xlink:href="#ma2e0e4cb61" y="207.880772"/>
     <use style="fill:#4c72b0;stroke:#4c72b0;stroke-width:0.3;" x="260.269915" xlink:href="#ma2e0e4cb61" y="216.642499"/>
     <use style="fill:#4c72b0;stroke:#4c72b0;stroke-width:0.3;" x="304.896243" xlink:href="#ma2e0e4cb61" y="205.299455"/>
     <use style="fill:#4c72b0;stroke:#4c72b0;stroke-width:0.3;" x="337.128463" xlink:href="#ma2e0e4cb61" y="198.610186"/>
     <use style="fill:#4c72b0;stroke:#4c72b0;stroke-width:0.3;" x="302.562261" xlink:href="#ma2e0e4cb61" y="201.76998"/>
     <use style="fill:#4c72b0;stroke:#4c72b0;stroke-width:0.3;" x="299.720615" xlink:href="#ma2e0e4cb61" y="201.569415"/>
     <use style="fill:#4c72b0;stroke:#4c72b0;stroke-width:0.3;" x="285.140872" xlink:href="#ma2e0e4cb61" y="202.757393"/>
     <use style="fill:#4c72b0;stroke:#4c72b0;stroke-width:0.3;" x="237.447429" xlink:href="#ma2e0e4cb61" y="211.897238"/>
     <use style="fill:#4c72b0;stroke:#4c72b0;stroke-width:0.3;" x="334.346798" xlink:href="#ma2e0e4cb61" y="197.590223"/>
     <use style="fill:#4c72b0;stroke:#4c72b0;stroke-width:0.3;" x="308.660937" xlink:href="#ma2e0e4cb61" y="201.616232"/>
     <use style="fill:#4c72b0;stroke:#4c72b0;stroke-width:0.3;" x="290.215053" xlink:href="#ma2e0e4cb61" y="204.115144"/>
     <use style="fill:#4c72b0;stroke:#4c72b0;stroke-width:0.3;" x="237.964385" xlink:href="#ma2e0e4cb61" y="208.171611"/>
     <use style="fill:#4c72b0;stroke:#4c72b0;stroke-width:0.3;" x="250.641618" xlink:href="#ma2e0e4cb61" y="204.941223"/>
     <use style="fill:#4c72b0;stroke:#4c72b0;stroke-width:0.3;" x="278.352767" xlink:href="#ma2e0e4cb61" y="202.605387"/>
     <use style="fill:#4c72b0;stroke:#4c72b0;stroke-width:0.3;" x="288.298297" xlink:href="#ma2e0e4cb61" y="198.395879"/>
     <use style="fill:#4c72b0;stroke:#4c72b0;stroke-width:0.3;" x="277.043216" xlink:href="#ma2e0e4cb61" y="200.367821"/>
     <use style="fill:#4c72b0;stroke:#4c72b0;stroke-width:0.3;" x="278.608805" xlink:href="#ma2e0e4cb61" y="195.584618"/>
     <use style="fill:#4c72b0;stroke:#4c72b0;stroke-width:0.3;" x="289.977378" xlink:href="#ma2e0e4cb61" y="194.385146"/>
     <use style="fill:#4c72b0;stroke:#4c72b0;stroke-width:0.3;" x="284.332415" xlink:href="#ma2e0e4cb61" y="195.929349"/>
     <use style="fill:#4c72b0;stroke:#4c72b0;stroke-width:0.3;" x="287.166033" xlink:href="#ma2e0e4cb61" y="193.910575"/>
    </g>
   </g>
   <g id="PathCollection_2">
    <defs>
     <path d="M 0 3.5 
C 0.928211 3.5 1.81853 3.131218 2.474874 2.474874 
C 3.131218 1.81853 3.5 0.928211 3.5 0 
C 3.5 -0.928211 3.131218 -1.81853 2.474874 -2.474874 
C 1.81853 -3.131218 0.928211 -3.5 0 -3.5 
C -0.928211 -3.5 -1.81853 -3.131218 -2.474874 -2.474874 
C -3.131218 -1.81853 -3.5 -0.928211 -3.5 0 
C -3.5 0.928211 -3.131218 1.81853 -2.474874 2.474874 
C -1.81853 3.131218 -0.928211 3.5 0 3.5 
z
" id="mc136fda82d" style="stroke:#55a868;stroke-width:0.3;"/>
    </defs>
    <g clip-path="url(#pa1de743cc2)">
     <use style="fill:#55a868;stroke:#55a868;stroke-width:0.3;" x="286.485451" xlink:href="#mc136fda82d" y="187.936045"/>
     <use style="fill:#55a868;stroke:#55a868;stroke-width:0.3;" x="278.322092" xlink:href="#mc136fda82d" y="186.995731"/>
     <use style="fill:#55a868;stroke:#55a868;stroke-width:0.3;" x="283.43389" xlink:href="#mc136fda82d" y="186.924875"/>
     <use style="fill:#55a868;stroke:#55a868;stroke-width:0.3;" x="290.481082" xlink:href="#mc136fda82d" y="185.253247"/>
     <use style="fill:#55a868;stroke:#55a868;stroke-width:0.3;" x="265.905705" xlink:href="#mc136fda82d" y="191.071601"/>
     <use style="fill:#55a868;stroke:#55a868;stroke-width:0.3;" x="279.448483" xlink:href="#mc136fda82d" y="186.108348"/>
     <use style="fill:#55a868;stroke:#55a868;stroke-width:0.3;" x="244.81128" xlink:href="#mc136fda82d" y="188.169336"/>
     <use style="fill:#55a868;stroke:#55a868;stroke-width:0.3;" x="305.499518" xlink:href="#mc136fda82d" y="188.712708"/>
     <use style="fill:#55a868;stroke:#55a868;stroke-width:0.3;" x="293.749797" xlink:href="#mc136fda82d" y="184.998645"/>
     <use style="fill:#55a868;stroke:#55a868;stroke-width:0.3;" x="296.032871" xlink:href="#mc136fda82d" y="184.261601"/>
     <use style="fill:#55a868;stroke:#55a868;stroke-width:0.3;" x="285.304813" xlink:href="#mc136fda82d" y="180.375709"/>
     <use style="fill:#55a868;stroke:#55a868;stroke-width:0.3;" x="271.454566" xlink:href="#mc136fda82d" y="180.055316"/>
     <use style="fill:#55a868;stroke:#55a868;stroke-width:0.3;" x="284.253334" xlink:href="#mc136fda82d" y="177.009627"/>
     <use style="fill:#55a868;stroke:#55a868;stroke-width:0.3;" x="298.163129" xlink:href="#mc136fda82d" y="176.579127"/>
     <use style="fill:#55a868;stroke:#55a868;stroke-width:0.3;" x="327.071039" xlink:href="#mc136fda82d" y="178.541305"/>
     <use style="fill:#55a868;stroke:#55a868;stroke-width:0.3;" x="306.223708" xlink:href="#mc136fda82d" y="182.571091"/>
     <use style="fill:#55a868;stroke:#55a868;stroke-width:0.3;" x="276.277731" xlink:href="#mc136fda82d" y="188.033478"/>
     <use style="fill:#55a868;stroke:#55a868;stroke-width:0.3;" x="287.785501" xlink:href="#mc136fda82d" y="186.0173"/>
     <use style="fill:#55a868;stroke:#55a868;stroke-width:0.3;" x="320.52023" xlink:href="#mc136fda82d" y="189.271024"/>
     <use style="fill:#55a868;stroke:#55a868;stroke-width:0.3;" x="308.823317" xlink:href="#mc136fda82d" y="183.769663"/>
     <use style="fill:#55a868;stroke:#55a868;stroke-width:0.3;" x="334.948747" xlink:href="#mc136fda82d" y="189.01384"/>
     <use style="fill:#55a868;stroke:#55a868;stroke-width:0.3;" x="315.204628" xlink:href="#mc136fda82d" y="190.513411"/>
     <use style="fill:#55a868;stroke:#55a868;stroke-width:0.3;" x="325.161673" xlink:href="#mc136fda82d" y="189.929437"/>
     <use style="fill:#55a868;stroke:#55a868;stroke-width:0.3;" x="311.922389" xlink:href="#mc136fda82d" y="191.766879"/>
    </g>
   </g>
   <g id="PathCollection_3">
    <defs>
     <path d="M 0 3.5 
C 0.928211 3.5 1.81853 3.131218 2.474874 2.474874 
C 3.131218 1.81853 3.5 0.928211 3.5 0 
C 3.5 -0.928211 3.131218 -1.81853 2.474874 -2.474874 
C 1.81853 -3.131218 0.928211 -3.5 0 -3.5 
C -0.928211 -3.5 -1.81853 -3.131218 -2.474874 -2.474874 
C -3.131218 -1.81853 -3.5 -0.928211 -3.5 0 
C -3.5 0.928211 -3.131218 1.81853 -2.474874 2.474874 
C -1.81853 3.131218 -0.928211 3.5 0 3.5 
z
" id="m6abdd19a72" style="stroke:#c44e52;stroke-width:0.3;"/>
    </defs>
    <g clip-path="url(#pa1de743cc2)">
     <use style="fill:#c44e52;stroke:#c44e52;stroke-width:0.3;" x="325.902892" xlink:href="#m6abdd19a72" y="206.401046"/>
     <use style="fill:#c44e52;stroke:#c44e52;stroke-width:0.3;" x="350.386562" xlink:href="#m6abdd19a72" y="210.730848"/>
     <use style="fill:#c44e52;stroke:#c44e52;stroke-width:0.3;" x="348.425415" xlink:href="#m6abdd19a72" y="208.811055"/>
     <use style="fill:#c44e52;stroke:#c44e52;stroke-width:0.3;" x="369.484784" xlink:href="#m6abdd19a72" y="212.125593"/>
     <use style="fill:#c44e52;stroke:#c44e52;stroke-width:0.3;" x="350.173695" xlink:href="#m6abdd19a72" y="214.509684"/>
     <use style="fill:#c44e52;stroke:#c44e52;stroke-width:0.3;" x="369.384934" xlink:href="#m6abdd19a72" y="221.27101"/>
     <use style="fill:#c44e52;stroke:#c44e52;stroke-width:0.3;" x="359.642374" xlink:href="#m6abdd19a72" y="217.699232"/>
     <use style="fill:#c44e52;stroke:#c44e52;stroke-width:0.3;" x="413.842522" xlink:href="#m6abdd19a72" y="222.519117"/>
     <use style="fill:#c44e52;stroke:#c44e52;stroke-width:0.3;" x="387.024712" xlink:href="#m6abdd19a72" y="214.413056"/>
     <use style="fill:#c44e52;stroke:#c44e52;stroke-width:0.3;" x="362.051592" xlink:href="#m6abdd19a72" y="210.849645"/>
     <use style="fill:#c44e52;stroke:#c44e52;stroke-width:0.3;" x="369.698896" xlink:href="#m6abdd19a72" y="220.111928"/>
     <use style="fill:#c44e52;stroke:#c44e52;stroke-width:0.3;" x="373.514267" xlink:href="#m6abdd19a72" y="223.062402"/>
     <use style="fill:#c44e52;stroke:#c44e52;stroke-width:0.3;" x="418.815773" xlink:href="#m6abdd19a72" y="229.367485"/>
     <use style="fill:#c44e52;stroke:#c44e52;stroke-width:0.3;" x="396.814383" xlink:href="#m6abdd19a72" y="225.70287"/>
     <use style="fill:#c44e52;stroke:#c44e52;stroke-width:0.3;" x="437.943758" xlink:href="#m6abdd19a72" y="226.574353"/>
     <use style="fill:#c44e52;stroke:#c44e52;stroke-width:0.3;" x="393.140077" xlink:href="#m6abdd19a72" y="220.636027"/>
     <use style="fill:#c44e52;stroke:#c44e52;stroke-width:0.3;" x="399.169244" xlink:href="#m6abdd19a72" y="216.397353"/>
     <use style="fill:#c44e52;stroke:#c44e52;stroke-width:0.3;" x="352.777937" xlink:href="#m6abdd19a72" y="217.784215"/>
     <use style="fill:#c44e52;stroke:#c44e52;stroke-width:0.3;" x="378.207904" xlink:href="#m6abdd19a72" y="217.659958"/>
     <use style="fill:#c44e52;stroke:#c44e52;stroke-width:0.3;" x="384.215253" xlink:href="#m6abdd19a72" y="214.305351"/>
     <use style="fill:#c44e52;stroke:#c44e52;stroke-width:0.3;" x="373.336574" xlink:href="#m6abdd19a72" y="212.301072"/>
     <use style="fill:#c44e52;stroke:#c44e52;stroke-width:0.3;" x="369.010018" xlink:href="#m6abdd19a72" y="208.556689"/>
     <use style="fill:#c44e52;stroke:#c44e52;stroke-width:0.3;" x="376.450673" xlink:href="#m6abdd19a72" y="211.846967"/>
     <use style="fill:#c44e52;stroke:#c44e52;stroke-width:0.3;" x="333.591314" xlink:href="#m6abdd19a72" y="208.837506"/>
    </g>
   </g>
   <g id="line2d_15">
    <path clip-path="url(#pa1de743cc2)" d="M 295.2 199.98 
L 440.380255 202.374473 
" style="fill:none;stroke:#ff0000;stroke-dasharray:7.4,3.2;stroke-dashoffset:0;stroke-width:2;"/>
   </g>
   <g id="patch_3">
    <path d="M 447.66 199.98 
C 447.66 179.959136 443.716326 160.13295 436.054674 141.636084 
C 428.393021 123.139218 417.162388 106.331389 403.0055 92.1745 
C 388.848611 78.017612 372.040782 66.786979 353.543916 59.125326 
C 335.04705 51.463674 315.220864 47.52 295.2 47.52 
C 275.179136 47.52 255.35295 51.463674 236.856084 59.125326 
C 218.359218 66.786979 201.551389 78.017612 187.3945 92.1745 
C 173.237612 106.331389 162.006979 123.139218 154.345326 141.636084 
C 146.683674 160.13295 142.74 179.959136 142.74 199.98 
C 142.74 220.000864 146.683674 239.82705 154.345326 258.323916 
C 162.006979 276.820782 173.237612 293.628611 187.3945 307.7855 
C 201.551389 321.942388 218.359218 333.173021 236.856084 340.834674 
C 255.35295 348.496326 275.179136 352.44 295.2 352.44 
C 315.220864 352.44 335.04705 348.496326 353.543916 340.834674 
C 372.040782 333.173021 388.848611 321.942388 403.0055 307.7855 
C 417.162388 293.628611 428.393021 276.820782 436.054674 258.323916 
C 443.716326 239.82705 447.66 220.000864 447.66 199.98 
" style="fill:none;"/>
   </g>
   <g id="text_15">
    <!-- Distribution of projected eye movement velocity on the screen - NewGat1_10_21 -->
    <defs>
     <path d="M 7.71875 0 
L 7.71875 71.578125 
L 32.375 71.578125 
Q 40.71875 71.578125 45.125 70.5625 
Q 51.265625 69.140625 55.609375 65.4375 
Q 61.28125 60.640625 64.078125 53.1875 
Q 66.890625 45.75 66.890625 36.1875 
Q 66.890625 28.03125 64.984375 21.734375 
Q 63.09375 15.4375 60.109375 11.296875 
Q 57.125 7.171875 53.578125 4.796875 
Q 50.046875 2.4375 45.046875 1.21875 
Q 40.046875 0 33.546875 0 
z
M 17.1875 8.453125 
L 32.46875 8.453125 
Q 39.546875 8.453125 43.578125 9.765625 
Q 47.609375 11.078125 50 13.484375 
Q 53.375 16.84375 55.25 22.53125 
Q 57.125 28.21875 57.125 36.328125 
Q 57.125 47.5625 53.4375 53.59375 
Q 49.75 59.625 44.484375 61.671875 
Q 40.671875 63.140625 32.234375 63.140625 
L 17.1875 63.140625 
z
" id="ArialMT-68"/>
     <path d="M 6.640625 61.46875 
L 6.640625 71.578125 
L 15.4375 71.578125 
L 15.4375 61.46875 
z
M 6.640625 0 
L 6.640625 51.859375 
L 15.4375 51.859375 
L 15.4375 0 
z
" id="ArialMT-105"/>
     <path d="M 3.078125 15.484375 
L 11.765625 16.84375 
Q 12.5 11.625 15.84375 8.84375 
Q 19.1875 6.0625 25.203125 6.0625 
Q 31.25 6.0625 34.171875 8.515625 
Q 37.109375 10.984375 37.109375 14.3125 
Q 37.109375 17.28125 34.515625 19 
Q 32.71875 20.171875 25.53125 21.96875 
Q 15.875 24.421875 12.140625 26.203125 
Q 8.40625 27.984375 6.46875 31.125 
Q 4.546875 34.28125 4.546875 38.09375 
Q 4.546875 41.546875 6.125 44.5 
Q 7.71875 47.46875 10.453125 49.421875 
Q 12.5 50.921875 16.03125 51.96875 
Q 19.578125 53.03125 23.640625 53.03125 
Q 29.734375 53.03125 34.34375 51.265625 
Q 38.96875 49.515625 41.15625 46.5 
Q 43.359375 43.5 44.1875 38.484375 
L 35.59375 37.3125 
Q 35.015625 41.3125 32.203125 43.546875 
Q 29.390625 45.796875 24.265625 45.796875 
Q 18.21875 45.796875 15.625 43.796875 
Q 13.03125 41.796875 13.03125 39.109375 
Q 13.03125 37.40625 14.109375 36.03125 
Q 15.1875 34.625 17.484375 33.6875 
Q 18.796875 33.203125 25.25 31.453125 
Q 34.578125 28.953125 38.25 27.359375 
Q 41.9375 25.78125 44.03125 22.75 
Q 46.140625 19.734375 46.140625 15.234375 
Q 46.140625 10.84375 43.578125 6.953125 
Q 41.015625 3.078125 36.171875 0.953125 
Q 31.34375 -1.171875 25.25 -1.171875 
Q 15.140625 -1.171875 9.84375 3.03125 
Q 4.546875 7.234375 3.078125 15.484375 
z
" id="ArialMT-115"/>
     <path d="M 25.78125 7.859375 
L 27.046875 0.09375 
Q 23.34375 -0.6875 20.40625 -0.6875 
Q 15.625 -0.6875 12.984375 0.828125 
Q 10.359375 2.34375 9.28125 4.8125 
Q 8.203125 7.28125 8.203125 15.1875 
L 8.203125 45.015625 
L 1.765625 45.015625 
L 1.765625 51.859375 
L 8.203125 51.859375 
L 8.203125 64.703125 
L 16.9375 69.96875 
L 16.9375 51.859375 
L 25.78125 51.859375 
L 25.78125 45.015625 
L 16.9375 45.015625 
L 16.9375 14.703125 
Q 16.9375 10.9375 17.40625 9.859375 
Q 17.875 8.796875 18.921875 8.15625 
Q 19.96875 7.515625 21.921875 7.515625 
Q 23.390625 7.515625 25.78125 7.859375 
z
" id="ArialMT-116"/>
     <path d="M 6.5 0 
L 6.5 51.859375 
L 14.40625 51.859375 
L 14.40625 44 
Q 17.4375 49.515625 20 51.265625 
Q 22.5625 53.03125 25.640625 53.03125 
Q 30.078125 53.03125 34.671875 50.203125 
L 31.640625 42.046875 
Q 28.421875 43.953125 25.203125 43.953125 
Q 22.3125 43.953125 20.015625 42.21875 
Q 17.71875 40.484375 16.75 37.40625 
Q 15.28125 32.71875 15.28125 27.15625 
L 15.28125 0 
z
" id="ArialMT-114"/>
     <path d="M 14.703125 0 
L 6.546875 0 
L 6.546875 71.578125 
L 15.328125 71.578125 
L 15.328125 46.046875 
Q 20.90625 53.03125 29.546875 53.03125 
Q 34.328125 53.03125 38.59375 51.09375 
Q 42.875 49.171875 45.625 45.671875 
Q 48.390625 42.1875 49.953125 37.25 
Q 51.515625 32.328125 51.515625 26.703125 
Q 51.515625 13.375 44.921875 6.09375 
Q 38.328125 -1.171875 29.109375 -1.171875 
Q 19.921875 -1.171875 14.703125 6.5 
z
M 14.59375 26.3125 
Q 14.59375 17 17.140625 12.84375 
Q 21.296875 6.0625 28.375 6.0625 
Q 34.125 6.0625 38.328125 11.0625 
Q 42.53125 16.0625 42.53125 25.984375 
Q 42.53125 36.140625 38.5 40.96875 
Q 34.46875 45.796875 28.765625 45.796875 
Q 23 45.796875 18.796875 40.796875 
Q 14.59375 35.796875 14.59375 26.3125 
z
" id="ArialMT-98"/>
     <path d="M 40.578125 0 
L 40.578125 7.625 
Q 34.515625 -1.171875 24.125 -1.171875 
Q 19.53125 -1.171875 15.546875 0.578125 
Q 11.578125 2.34375 9.640625 5 
Q 7.71875 7.671875 6.9375 11.53125 
Q 6.390625 14.109375 6.390625 19.734375 
L 6.390625 51.859375 
L 15.1875 51.859375 
L 15.1875 23.09375 
Q 15.1875 16.21875 15.71875 13.8125 
Q 16.546875 10.359375 19.234375 8.375 
Q 21.921875 6.390625 25.875 6.390625 
Q 29.828125 6.390625 33.296875 8.421875 
Q 36.765625 10.453125 38.203125 13.9375 
Q 39.65625 17.4375 39.65625 24.078125 
L 39.65625 51.859375 
L 48.4375 51.859375 
L 48.4375 0 
z
" id="ArialMT-117"/>
     <path d="M 3.328125 25.921875 
Q 3.328125 40.328125 11.328125 47.265625 
Q 18.015625 53.03125 27.640625 53.03125 
Q 38.328125 53.03125 45.109375 46.015625 
Q 51.90625 39.015625 51.90625 26.65625 
Q 51.90625 16.65625 48.90625 10.90625 
Q 45.90625 5.171875 40.15625 2 
Q 34.421875 -1.171875 27.640625 -1.171875 
Q 16.75 -1.171875 10.03125 5.8125 
Q 3.328125 12.796875 3.328125 25.921875 
z
M 12.359375 25.921875 
Q 12.359375 15.96875 16.703125 11.015625 
Q 21.046875 6.0625 27.640625 6.0625 
Q 34.1875 6.0625 38.53125 11.03125 
Q 42.875 16.015625 42.875 26.21875 
Q 42.875 35.84375 38.5 40.796875 
Q 34.125 45.75 27.640625 45.75 
Q 21.046875 45.75 16.703125 40.8125 
Q 12.359375 35.890625 12.359375 25.921875 
z
" id="ArialMT-111"/>
     <path d="M 6.59375 0 
L 6.59375 51.859375 
L 14.5 51.859375 
L 14.5 44.484375 
Q 20.21875 53.03125 31 53.03125 
Q 35.6875 53.03125 39.625 51.34375 
Q 43.5625 49.65625 45.515625 46.921875 
Q 47.46875 44.1875 48.25 40.4375 
Q 48.734375 37.984375 48.734375 31.890625 
L 48.734375 0 
L 39.9375 0 
L 39.9375 31.546875 
Q 39.9375 36.921875 38.90625 39.578125 
Q 37.890625 42.234375 35.28125 43.8125 
Q 32.671875 45.40625 29.15625 45.40625 
Q 23.53125 45.40625 19.453125 41.84375 
Q 15.375 38.28125 15.375 28.328125 
L 15.375 0 
z
" id="ArialMT-110"/>
     <path id="ArialMT-32"/>
     <path d="M 8.6875 0 
L 8.6875 45.015625 
L 0.921875 45.015625 
L 0.921875 51.859375 
L 8.6875 51.859375 
L 8.6875 57.375 
Q 8.6875 62.59375 9.625 65.140625 
Q 10.890625 68.5625 14.078125 70.671875 
Q 17.28125 72.796875 23.046875 72.796875 
Q 26.765625 72.796875 31.25 71.921875 
L 29.9375 64.265625 
Q 27.203125 64.75 24.75 64.75 
Q 20.75 64.75 19.09375 63.03125 
Q 17.4375 61.328125 17.4375 56.640625 
L 17.4375 51.859375 
L 27.546875 51.859375 
L 27.546875 45.015625 
L 17.4375 45.015625 
L 17.4375 0 
z
" id="ArialMT-102"/>
     <path d="M 6.59375 -19.875 
L 6.59375 51.859375 
L 14.59375 51.859375 
L 14.59375 45.125 
Q 17.4375 49.078125 21 51.046875 
Q 24.5625 53.03125 29.640625 53.03125 
Q 36.28125 53.03125 41.359375 49.609375 
Q 46.4375 46.1875 49.015625 39.953125 
Q 51.609375 33.734375 51.609375 26.3125 
Q 51.609375 18.359375 48.75 11.984375 
Q 45.90625 5.609375 40.453125 2.21875 
Q 35.015625 -1.171875 29 -1.171875 
Q 24.609375 -1.171875 21.109375 0.6875 
Q 17.625 2.546875 15.375 5.375 
L 15.375 -19.875 
z
M 14.546875 25.640625 
Q 14.546875 15.625 18.59375 10.84375 
Q 22.65625 6.0625 28.421875 6.0625 
Q 34.28125 6.0625 38.453125 11.015625 
Q 42.625 15.96875 42.625 26.375 
Q 42.625 36.28125 38.546875 41.203125 
Q 34.46875 46.140625 28.8125 46.140625 
Q 23.1875 46.140625 18.859375 40.890625 
Q 14.546875 35.640625 14.546875 25.640625 
z
" id="ArialMT-112"/>
     <path d="M 6.546875 61.375 
L 6.546875 71.578125 
L 15.328125 71.578125 
L 15.328125 61.375 
z
M -4.59375 -20.125 
L -2.9375 -12.640625 
Q -0.296875 -13.328125 1.21875 -13.328125 
Q 3.90625 -13.328125 5.21875 -11.546875 
Q 6.546875 -9.765625 6.546875 -2.640625 
L 6.546875 51.859375 
L 15.328125 51.859375 
L 15.328125 -2.828125 
Q 15.328125 -12.40625 12.84375 -16.15625 
Q 9.671875 -21.046875 2.296875 -21.046875 
Q -1.265625 -21.046875 -4.59375 -20.125 
z
" id="ArialMT-106"/>
     <path d="M 42.09375 16.703125 
L 51.171875 15.578125 
Q 49.03125 7.625 43.21875 3.21875 
Q 37.40625 -1.171875 28.375 -1.171875 
Q 17 -1.171875 10.328125 5.828125 
Q 3.65625 12.84375 3.65625 25.484375 
Q 3.65625 38.578125 10.390625 45.796875 
Q 17.140625 53.03125 27.875 53.03125 
Q 38.28125 53.03125 44.875 45.953125 
Q 51.46875 38.875 51.46875 26.03125 
Q 51.46875 25.25 51.421875 23.6875 
L 12.75 23.6875 
Q 13.234375 15.140625 17.578125 10.59375 
Q 21.921875 6.0625 28.421875 6.0625 
Q 33.25 6.0625 36.671875 8.59375 
Q 40.09375 11.140625 42.09375 16.703125 
z
M 13.234375 30.90625 
L 42.1875 30.90625 
Q 41.609375 37.453125 38.875 40.71875 
Q 34.671875 45.796875 27.984375 45.796875 
Q 21.921875 45.796875 17.796875 41.75 
Q 13.671875 37.703125 13.234375 30.90625 
z
" id="ArialMT-101"/>
     <path d="M 40.4375 19 
L 49.078125 17.875 
Q 47.65625 8.9375 41.8125 3.875 
Q 35.984375 -1.171875 27.484375 -1.171875 
Q 16.84375 -1.171875 10.375 5.78125 
Q 3.90625 12.75 3.90625 25.734375 
Q 3.90625 34.125 6.6875 40.421875 
Q 9.46875 46.734375 15.15625 49.875 
Q 20.84375 53.03125 27.546875 53.03125 
Q 35.984375 53.03125 41.359375 48.75 
Q 46.734375 44.484375 48.25 36.625 
L 39.703125 35.296875 
Q 38.484375 40.53125 35.375 43.15625 
Q 32.28125 45.796875 27.875 45.796875 
Q 21.234375 45.796875 17.078125 41.03125 
Q 12.9375 36.28125 12.9375 25.984375 
Q 12.9375 15.53125 16.9375 10.796875 
Q 20.953125 6.0625 27.390625 6.0625 
Q 32.5625 6.0625 36.03125 9.234375 
Q 39.5 12.40625 40.4375 19 
z
" id="ArialMT-99"/>
     <path d="M 40.234375 0 
L 40.234375 6.546875 
Q 35.296875 -1.171875 25.734375 -1.171875 
Q 19.53125 -1.171875 14.328125 2.25 
Q 9.125 5.671875 6.265625 11.796875 
Q 3.421875 17.921875 3.421875 25.875 
Q 3.421875 33.640625 6 39.96875 
Q 8.59375 46.296875 13.765625 49.65625 
Q 18.953125 53.03125 25.34375 53.03125 
Q 30.03125 53.03125 33.6875 51.046875 
Q 37.359375 49.078125 39.65625 45.90625 
L 39.65625 71.578125 
L 48.390625 71.578125 
L 48.390625 0 
z
M 12.453125 25.875 
Q 12.453125 15.921875 16.640625 10.984375 
Q 20.84375 6.0625 26.5625 6.0625 
Q 32.328125 6.0625 36.34375 10.765625 
Q 40.375 15.484375 40.375 25.140625 
Q 40.375 35.796875 36.265625 40.765625 
Q 32.171875 45.75 26.171875 45.75 
Q 20.3125 45.75 16.375 40.96875 
Q 12.453125 36.1875 12.453125 25.875 
z
" id="ArialMT-100"/>
     <path d="M 6.203125 -19.96875 
L 5.21875 -11.71875 
Q 8.109375 -12.5 10.25 -12.5 
Q 13.1875 -12.5 14.9375 -11.515625 
Q 16.703125 -10.546875 17.828125 -8.796875 
Q 18.65625 -7.46875 20.515625 -2.25 
Q 20.75 -1.515625 21.296875 -0.09375 
L 1.609375 51.859375 
L 11.078125 51.859375 
L 21.875 21.828125 
Q 23.96875 16.109375 25.640625 9.8125 
Q 27.15625 15.875 29.25 21.625 
L 40.328125 51.859375 
L 49.125 51.859375 
L 29.390625 -0.875 
Q 26.21875 -9.421875 24.46875 -12.640625 
Q 22.125 -17 19.09375 -19.015625 
Q 16.0625 -21.046875 11.859375 -21.046875 
Q 9.328125 -21.046875 6.203125 -19.96875 
z
" id="ArialMT-121"/>
     <path d="M 6.59375 0 
L 6.59375 51.859375 
L 14.453125 51.859375 
L 14.453125 44.578125 
Q 16.890625 48.390625 20.9375 50.703125 
Q 25 53.03125 30.171875 53.03125 
Q 35.9375 53.03125 39.625 50.640625 
Q 43.3125 48.25 44.828125 43.953125 
Q 50.984375 53.03125 60.84375 53.03125 
Q 68.5625 53.03125 72.703125 48.75 
Q 76.859375 44.484375 76.859375 35.59375 
L 76.859375 0 
L 68.109375 0 
L 68.109375 32.671875 
Q 68.109375 37.9375 67.25 40.25 
Q 66.40625 42.578125 64.15625 43.984375 
Q 61.921875 45.40625 58.890625 45.40625 
Q 53.421875 45.40625 49.796875 41.765625 
Q 46.1875 38.140625 46.1875 30.125 
L 46.1875 0 
L 37.40625 0 
L 37.40625 33.6875 
Q 37.40625 39.546875 35.25 42.46875 
Q 33.109375 45.40625 28.21875 45.40625 
Q 24.515625 45.40625 21.359375 43.453125 
Q 18.21875 41.5 16.796875 37.734375 
Q 15.375 33.984375 15.375 26.90625 
L 15.375 0 
z
" id="ArialMT-109"/>
     <path d="M 21 0 
L 1.265625 51.859375 
L 10.546875 51.859375 
L 21.6875 20.796875 
Q 23.484375 15.765625 25 10.359375 
Q 26.171875 14.453125 28.265625 20.21875 
L 39.796875 51.859375 
L 48.828125 51.859375 
L 29.203125 0 
z
" id="ArialMT-118"/>
     <path d="M 6.390625 0 
L 6.390625 71.578125 
L 15.1875 71.578125 
L 15.1875 0 
z
" id="ArialMT-108"/>
     <path d="M 6.59375 0 
L 6.59375 71.578125 
L 15.375 71.578125 
L 15.375 45.90625 
Q 21.53125 53.03125 30.90625 53.03125 
Q 36.671875 53.03125 40.921875 50.75 
Q 45.171875 48.484375 47 44.484375 
Q 48.828125 40.484375 48.828125 32.859375 
L 48.828125 0 
L 40.046875 0 
L 40.046875 32.859375 
Q 40.046875 39.453125 37.1875 42.453125 
Q 34.328125 45.453125 29.109375 45.453125 
Q 25.203125 45.453125 21.75 43.421875 
Q 18.3125 41.40625 16.84375 37.9375 
Q 15.375 34.46875 15.375 28.375 
L 15.375 0 
z
" id="ArialMT-104"/>
     <path d="M 3.171875 21.484375 
L 3.171875 30.328125 
L 30.171875 30.328125 
L 30.171875 21.484375 
z
" id="ArialMT-45"/>
     <path d="M 7.625 0 
L 7.625 71.578125 
L 17.328125 71.578125 
L 54.9375 15.375 
L 54.9375 71.578125 
L 64.015625 71.578125 
L 64.015625 0 
L 54.296875 0 
L 16.703125 56.25 
L 16.703125 0 
z
" id="ArialMT-78"/>
     <path d="M 16.15625 0 
L 0.296875 51.859375 
L 9.375 51.859375 
L 17.625 21.921875 
L 20.703125 10.796875 
Q 20.90625 11.625 23.390625 21.484375 
L 31.640625 51.859375 
L 40.671875 51.859375 
L 48.4375 21.78125 
L 51.03125 11.859375 
L 54 21.875 
L 62.890625 51.859375 
L 71.4375 51.859375 
L 55.21875 0 
L 46.09375 0 
L 37.84375 31.0625 
L 35.84375 39.890625 
L 25.34375 0 
z
" id="ArialMT-119"/>
     <path d="M 41.21875 28.078125 
L 41.21875 36.46875 
L 71.53125 36.53125 
L 71.53125 9.96875 
Q 64.546875 4.390625 57.125 1.578125 
Q 49.703125 -1.21875 41.890625 -1.21875 
Q 31.34375 -1.21875 22.71875 3.296875 
Q 14.109375 7.8125 9.71875 16.359375 
Q 5.328125 24.90625 5.328125 35.453125 
Q 5.328125 45.90625 9.6875 54.953125 
Q 14.0625 64.015625 22.265625 68.40625 
Q 30.46875 72.796875 41.15625 72.796875 
Q 48.921875 72.796875 55.1875 70.28125 
Q 61.46875 67.78125 65.03125 63.28125 
Q 68.609375 58.796875 70.453125 51.5625 
L 61.921875 49.21875 
Q 60.296875 54.6875 57.90625 57.8125 
Q 55.515625 60.9375 51.0625 62.8125 
Q 46.625 64.703125 41.21875 64.703125 
Q 34.71875 64.703125 29.984375 62.71875 
Q 25.25 60.75 22.34375 57.515625 
Q 19.4375 54.296875 17.828125 50.4375 
Q 15.09375 43.796875 15.09375 36.03125 
Q 15.09375 26.46875 18.390625 20.015625 
Q 21.6875 13.578125 27.984375 10.453125 
Q 34.28125 7.328125 41.359375 7.328125 
Q 47.515625 7.328125 53.375 9.6875 
Q 59.234375 12.0625 62.25 14.75 
L 62.25 28.078125 
z
" id="ArialMT-71"/>
     <path d="M 40.4375 6.390625 
Q 35.546875 2.25 31.03125 0.53125 
Q 26.515625 -1.171875 21.34375 -1.171875 
Q 12.796875 -1.171875 8.203125 3 
Q 3.609375 7.171875 3.609375 13.671875 
Q 3.609375 17.484375 5.34375 20.625 
Q 7.078125 23.78125 9.890625 25.6875 
Q 12.703125 27.59375 16.21875 28.5625 
Q 18.796875 29.25 24.03125 29.890625 
Q 34.671875 31.15625 39.703125 32.90625 
Q 39.75 34.71875 39.75 35.203125 
Q 39.75 40.578125 37.25 42.78125 
Q 33.890625 45.75 27.25 45.75 
Q 21.046875 45.75 18.09375 43.578125 
Q 15.140625 41.40625 13.71875 35.890625 
L 5.125 37.0625 
Q 6.296875 42.578125 8.984375 45.96875 
Q 11.671875 49.359375 16.75 51.1875 
Q 21.828125 53.03125 28.515625 53.03125 
Q 35.15625 53.03125 39.296875 51.46875 
Q 43.453125 49.90625 45.40625 47.53125 
Q 47.359375 45.171875 48.140625 41.546875 
Q 48.578125 39.3125 48.578125 33.453125 
L 48.578125 21.734375 
Q 48.578125 9.46875 49.140625 6.21875 
Q 49.703125 2.984375 51.375 0 
L 42.1875 0 
Q 40.828125 2.734375 40.4375 6.390625 
z
M 39.703125 26.03125 
Q 34.90625 24.078125 25.34375 22.703125 
Q 19.921875 21.921875 17.671875 20.9375 
Q 15.4375 19.96875 14.203125 18.09375 
Q 12.984375 16.21875 12.984375 13.921875 
Q 12.984375 10.40625 15.640625 8.0625 
Q 18.3125 5.71875 23.4375 5.71875 
Q 28.515625 5.71875 32.46875 7.9375 
Q 36.421875 10.15625 38.28125 14.015625 
Q 39.703125 17 39.703125 22.796875 
z
" id="ArialMT-97"/>
     <path d="M -1.515625 -19.875 
L -1.515625 -13.53125 
L 56.734375 -13.53125 
L 56.734375 -19.875 
z
" id="ArialMT-95"/>
    </defs>
    <g style="fill:#262626;" transform="translate(81.10125 23.748375)scale(0.12 -0.12)">
     <use xlink:href="#ArialMT-68"/>
     <use x="72.216797" xlink:href="#ArialMT-105"/>
     <use x="94.433594" xlink:href="#ArialMT-115"/>
     <use x="144.433594" xlink:href="#ArialMT-116"/>
     <use x="172.216797" xlink:href="#ArialMT-114"/>
     <use x="205.517578" xlink:href="#ArialMT-105"/>
     <use x="227.734375" xlink:href="#ArialMT-98"/>
     <use x="283.349609" xlink:href="#ArialMT-117"/>
     <use x="338.964844" xlink:href="#ArialMT-116"/>
     <use x="366.748047" xlink:href="#ArialMT-105"/>
     <use x="388.964844" xlink:href="#ArialMT-111"/>
     <use x="444.580078" xlink:href="#ArialMT-110"/>
     <use x="500.195312" xlink:href="#ArialMT-32"/>
     <use x="527.978516" xlink:href="#ArialMT-111"/>
     <use x="583.59375" xlink:href="#ArialMT-102"/>
     <use x="611.376953" xlink:href="#ArialMT-32"/>
     <use x="639.160156" xlink:href="#ArialMT-112"/>
     <use x="694.775391" xlink:href="#ArialMT-114"/>
     <use x="728.076172" xlink:href="#ArialMT-111"/>
     <use x="783.691406" xlink:href="#ArialMT-106"/>
     <use x="805.908203" xlink:href="#ArialMT-101"/>
     <use x="861.523438" xlink:href="#ArialMT-99"/>
     <use x="911.523438" xlink:href="#ArialMT-116"/>
     <use x="939.306641" xlink:href="#ArialMT-101"/>
     <use x="994.921875" xlink:href="#ArialMT-100"/>
     <use x="1050.537109" xlink:href="#ArialMT-32"/>
     <use x="1078.320312" xlink:href="#ArialMT-101"/>
     <use x="1133.935547" xlink:href="#ArialMT-121"/>
     <use x="1183.935547" xlink:href="#ArialMT-101"/>
     <use x="1239.550781" xlink:href="#ArialMT-32"/>
     <use x="1267.333984" xlink:href="#ArialMT-109"/>
     <use x="1350.634766" xlink:href="#ArialMT-111"/>
     <use x="1406.25" xlink:href="#ArialMT-118"/>
     <use x="1456.25" xlink:href="#ArialMT-101"/>
     <use x="1511.865234" xlink:href="#ArialMT-109"/>
     <use x="1595.166016" xlink:href="#ArialMT-101"/>
     <use x="1650.78125" xlink:href="#ArialMT-110"/>
     <use x="1706.396484" xlink:href="#ArialMT-116"/>
     <use x="1734.179688" xlink:href="#ArialMT-32"/>
     <use x="1761.962891" xlink:href="#ArialMT-118"/>
     <use x="1811.962891" xlink:href="#ArialMT-101"/>
     <use x="1867.578125" xlink:href="#ArialMT-108"/>
     <use x="1889.794922" xlink:href="#ArialMT-111"/>
     <use x="1945.410156" xlink:href="#ArialMT-99"/>
     <use x="1995.410156" xlink:href="#ArialMT-105"/>
     <use x="2017.626953" xlink:href="#ArialMT-116"/>
     <use x="2045.410156" xlink:href="#ArialMT-121"/>
     <use x="2095.410156" xlink:href="#ArialMT-32"/>
     <use x="2123.193359" xlink:href="#ArialMT-111"/>
     <use x="2178.808594" xlink:href="#ArialMT-110"/>
     <use x="2234.423828" xlink:href="#ArialMT-32"/>
     <use x="2262.207031" xlink:href="#ArialMT-116"/>
     <use x="2289.990234" xlink:href="#ArialMT-104"/>
     <use x="2345.605469" xlink:href="#ArialMT-101"/>
     <use x="2401.220703" xlink:href="#ArialMT-32"/>
     <use x="2429.003906" xlink:href="#ArialMT-115"/>
     <use x="2479.003906" xlink:href="#ArialMT-99"/>
     <use x="2529.003906" xlink:href="#ArialMT-114"/>
     <use x="2562.304688" xlink:href="#ArialMT-101"/>
     <use x="2617.919922" xlink:href="#ArialMT-101"/>
     <use x="2673.535156" xlink:href="#ArialMT-110"/>
     <use x="2729.150391" xlink:href="#ArialMT-32"/>
     <use x="2756.933594" xlink:href="#ArialMT-45"/>
     <use x="2790.234375" xlink:href="#ArialMT-32"/>
     <use x="2818.017578" xlink:href="#ArialMT-78"/>
     <use x="2890.234375" xlink:href="#ArialMT-101"/>
     <use x="2945.849609" xlink:href="#ArialMT-119"/>
     <use x="3018.066406" xlink:href="#ArialMT-71"/>
     <use x="3095.849609" xlink:href="#ArialMT-97"/>
     <use x="3151.464844" xlink:href="#ArialMT-116"/>
     <use x="3179.248047" xlink:href="#ArialMT-49"/>
     <use x="3234.863281" xlink:href="#ArialMT-95"/>
     <use x="3290.478516" xlink:href="#ArialMT-49"/>
     <use x="3346.09375" xlink:href="#ArialMT-48"/>
     <use x="3401.708984" xlink:href="#ArialMT-95"/>
     <use x="3457.324219" xlink:href="#ArialMT-50"/>
     <use x="3512.939453" xlink:href="#ArialMT-49"/>
    </g>
   </g>
   <g id="legend_1">
    <g id="line2d_16">
     <path d="M 199.485938 60.2075 
L 219.485938 60.2075 
" style="fill:none;stroke:#ff0000;stroke-dasharray:7.4,3.2;stroke-dashoffset:0;stroke-width:2;"/>
    </g>
    <g id="line2d_17"/>
    <g id="text_16">
     <!-- Average angle in light: -0.94 degrees -->
     <defs>
      <path d="M -0.140625 0 
L 27.34375 71.578125 
L 37.546875 71.578125 
L 66.84375 0 
L 56.0625 0 
L 47.703125 21.6875 
L 17.78125 21.6875 
L 9.90625 0 
z
M 20.515625 29.390625 
L 44.78125 29.390625 
L 37.3125 49.21875 
Q 33.890625 58.25 32.234375 64.0625 
Q 30.859375 57.171875 28.375 50.390625 
z
" id="ArialMT-65"/>
      <path d="M 4.984375 -4.296875 
L 13.53125 -5.5625 
Q 14.0625 -9.515625 16.5 -11.328125 
Q 19.78125 -13.765625 25.4375 -13.765625 
Q 31.546875 -13.765625 34.859375 -11.328125 
Q 38.1875 -8.890625 39.359375 -4.5 
Q 40.046875 -1.8125 39.984375 6.78125 
Q 34.234375 0 25.640625 0 
Q 14.9375 0 9.078125 7.71875 
Q 3.21875 15.4375 3.21875 26.21875 
Q 3.21875 33.640625 5.90625 39.90625 
Q 8.59375 46.1875 13.6875 49.609375 
Q 18.796875 53.03125 25.6875 53.03125 
Q 34.859375 53.03125 40.828125 45.609375 
L 40.828125 51.859375 
L 48.921875 51.859375 
L 48.921875 7.03125 
Q 48.921875 -5.078125 46.453125 -10.125 
Q 44 -15.1875 38.640625 -18.109375 
Q 33.296875 -21.046875 25.484375 -21.046875 
Q 16.21875 -21.046875 10.5 -16.875 
Q 4.78125 -12.703125 4.984375 -4.296875 
z
M 12.25 26.859375 
Q 12.25 16.65625 16.296875 11.96875 
Q 20.359375 7.28125 26.46875 7.28125 
Q 32.515625 7.28125 36.609375 11.9375 
Q 40.71875 16.609375 40.71875 26.5625 
Q 40.71875 36.078125 36.5 40.90625 
Q 32.28125 45.75 26.3125 45.75 
Q 20.453125 45.75 16.34375 40.984375 
Q 12.25 36.234375 12.25 26.859375 
z
" id="ArialMT-103"/>
      <path d="M 9.03125 41.84375 
L 9.03125 51.859375 
L 19.046875 51.859375 
L 19.046875 41.84375 
z
M 9.03125 0 
L 9.03125 10.015625 
L 19.046875 10.015625 
L 19.046875 0 
z
" id="ArialMT-58"/>
     </defs>
     <g style="fill:#262626;" transform="translate(227.485938 63.7075)scale(0.1 -0.1)">
      <use xlink:href="#ArialMT-65"/>
      <use x="66.683594" xlink:href="#ArialMT-118"/>
      <use x="116.683594" xlink:href="#ArialMT-101"/>
      <use x="172.298828" xlink:href="#ArialMT-114"/>
      <use x="205.599609" xlink:href="#ArialMT-97"/>
      <use x="261.214844" xlink:href="#ArialMT-103"/>
      <use x="316.830078" xlink:href="#ArialMT-101"/>
      <use x="372.445312" xlink:href="#ArialMT-32"/>
      <use x="400.228516" xlink:href="#ArialMT-97"/>
      <use x="455.84375" xlink:href="#ArialMT-110"/>
      <use x="511.458984" xlink:href="#ArialMT-103"/>
      <use x="567.074219" xlink:href="#ArialMT-108"/>
      <use x="589.291016" xlink:href="#ArialMT-101"/>
      <use x="644.90625" xlink:href="#ArialMT-32"/>
      <use x="672.689453" xlink:href="#ArialMT-105"/>
      <use x="694.90625" xlink:href="#ArialMT-110"/>
      <use x="750.521484" xlink:href="#ArialMT-32"/>
      <use x="778.304688" xlink:href="#ArialMT-108"/>
      <use x="800.521484" xlink:href="#ArialMT-105"/>
      <use x="822.738281" xlink:href="#ArialMT-103"/>
      <use x="878.353516" xlink:href="#ArialMT-104"/>
      <use x="933.96875" xlink:href="#ArialMT-116"/>
      <use x="961.751953" xlink:href="#ArialMT-58"/>
      <use x="989.535156" xlink:href="#ArialMT-32"/>
      <use x="1017.318359" xlink:href="#ArialMT-45"/>
      <use x="1050.619141" xlink:href="#ArialMT-48"/>
      <use x="1106.234375" xlink:href="#ArialMT-46"/>
      <use x="1134.017578" xlink:href="#ArialMT-57"/>
      <use x="1189.632812" xlink:href="#ArialMT-52"/>
      <use x="1245.248047" xlink:href="#ArialMT-32"/>
      <use x="1273.03125" xlink:href="#ArialMT-100"/>
      <use x="1328.646484" xlink:href="#ArialMT-101"/>
      <use x="1384.261719" xlink:href="#ArialMT-103"/>
      <use x="1439.876953" xlink:href="#ArialMT-114"/>
      <use x="1473.177734" xlink:href="#ArialMT-101"/>
      <use x="1528.792969" xlink:href="#ArialMT-101"/>
      <use x="1584.408203" xlink:href="#ArialMT-115"/>
     </g>
    </g>
    <g id="PathCollection_4">
     <g>
      <use style="fill:#4c72b0;stroke:#4c72b0;stroke-width:0.3;" x="209.485938" xlink:href="#ma2e0e4cb61" y="75.345"/>
     </g>
    </g>
    <g id="text_17">
     <!-- $-0.5 &lt; t &lt; 0.$ -->
     <defs>
      <path d="M 10.59375 35.5 
L 73.1875 35.5 
L 73.1875 27.203125 
L 10.59375 27.203125 
z
" id="DejaVuSans-8722"/>
      <path d="M 31.78125 66.40625 
Q 24.171875 66.40625 20.328125 58.90625 
Q 16.5 51.421875 16.5 36.375 
Q 16.5 21.390625 20.328125 13.890625 
Q 24.171875 6.390625 31.78125 6.390625 
Q 39.453125 6.390625 43.28125 13.890625 
Q 47.125 21.390625 47.125 36.375 
Q 47.125 51.421875 43.28125 58.90625 
Q 39.453125 66.40625 31.78125 66.40625 
z
M 31.78125 74.21875 
Q 44.046875 74.21875 50.515625 64.515625 
Q 56.984375 54.828125 56.984375 36.375 
Q 56.984375 17.96875 50.515625 8.265625 
Q 44.046875 -1.421875 31.78125 -1.421875 
Q 19.53125 -1.421875 13.0625 8.265625 
Q 6.59375 17.96875 6.59375 36.375 
Q 6.59375 54.828125 13.0625 64.515625 
Q 19.53125 74.21875 31.78125 74.21875 
z
" id="DejaVuSans-48"/>
      <path d="M 10.6875 12.40625 
L 21 12.40625 
L 21 0 
L 10.6875 0 
z
" id="DejaVuSans-46"/>
      <path d="M 10.796875 72.90625 
L 49.515625 72.90625 
L 49.515625 64.59375 
L 19.828125 64.59375 
L 19.828125 46.734375 
Q 21.96875 47.46875 24.109375 47.828125 
Q 26.265625 48.1875 28.421875 48.1875 
Q 40.625 48.1875 47.75 41.5 
Q 54.890625 34.8125 54.890625 23.390625 
Q 54.890625 11.625 47.5625 5.09375 
Q 40.234375 -1.421875 26.90625 -1.421875 
Q 22.3125 -1.421875 17.546875 -0.640625 
Q 12.796875 0.140625 7.71875 1.703125 
L 7.71875 11.625 
Q 12.109375 9.234375 16.796875 8.0625 
Q 21.484375 6.890625 26.703125 6.890625 
Q 35.15625 6.890625 40.078125 11.328125 
Q 45.015625 15.765625 45.015625 23.390625 
Q 45.015625 31 40.078125 35.4375 
Q 35.15625 39.890625 26.703125 39.890625 
Q 22.75 39.890625 18.8125 39.015625 
Q 14.890625 38.140625 10.796875 36.28125 
z
" id="DejaVuSans-53"/>
      <path d="M 73.1875 49.21875 
L 22.796875 31.296875 
L 73.1875 13.484375 
L 73.1875 4.59375 
L 10.59375 27.296875 
L 10.59375 35.40625 
L 73.1875 58.109375 
z
" id="DejaVuSans-60"/>
      <path d="M 42.28125 54.6875 
L 40.921875 47.703125 
L 23 47.703125 
L 17.1875 18.015625 
Q 16.890625 16.359375 16.75 15.234375 
Q 16.609375 14.109375 16.609375 13.484375 
Q 16.609375 10.359375 18.484375 8.9375 
Q 20.359375 7.515625 24.515625 7.515625 
L 33.59375 7.515625 
L 32.078125 0 
L 23.484375 0 
Q 15.484375 0 11.546875 3.125 
Q 7.625 6.25 7.625 12.59375 
Q 7.625 13.71875 7.765625 15.0625 
Q 7.90625 16.40625 8.203125 18.015625 
L 14.015625 47.703125 
L 6.390625 47.703125 
L 7.8125 54.6875 
L 15.28125 54.6875 
L 18.3125 70.21875 
L 27.296875 70.21875 
L 24.3125 54.6875 
z
" id="DejaVuSans-Oblique-116"/>
     </defs>
     <g style="fill:#262626;" transform="translate(227.485938 77.97)scale(0.1 -0.1)">
      <use transform="translate(0 0.78125)" xlink:href="#DejaVuSans-8722"/>
      <use transform="translate(83.789062 0.78125)" xlink:href="#DejaVuSans-48"/>
      <use transform="translate(147.412109 0.78125)" xlink:href="#DejaVuSans-46"/>
      <use transform="translate(179.199219 0.78125)" xlink:href="#DejaVuSans-53"/>
      <use transform="translate(262.304688 0.78125)" xlink:href="#DejaVuSans-60"/>
      <use transform="translate(365.576172 0.78125)" xlink:href="#DejaVuSans-Oblique-116"/>
      <use transform="translate(424.267578 0.78125)" xlink:href="#DejaVuSans-60"/>
      <use transform="translate(527.539062 0.78125)" xlink:href="#DejaVuSans-48"/>
     </g>
    </g>
    <g id="PathCollection_5">
     <g>
      <use style="fill:#55a868;stroke:#55a868;stroke-width:0.3;" x="209.485938" xlink:href="#mc136fda82d" y="89.490312"/>
     </g>
    </g>
    <g id="text_18">
     <!-- $0. &lt; t &lt; 0.5$ -->
     <g style="fill:#262626;" transform="translate(227.485938 92.115312)scale(0.1 -0.1)">
      <use transform="translate(0 0.78125)" xlink:href="#DejaVuSans-48"/>
      <use transform="translate(63.623047 0.78125)" xlink:href="#DejaVuSans-46"/>
      <use transform="translate(134.375 0.78125)" xlink:href="#DejaVuSans-60"/>
      <use transform="translate(237.646484 0.78125)" xlink:href="#DejaVuSans-Oblique-116"/>
      <use transform="translate(296.337891 0.78125)" xlink:href="#DejaVuSans-60"/>
      <use transform="translate(399.609375 0.78125)" xlink:href="#DejaVuSans-48"/>
      <use transform="translate(463.232422 0.78125)" xlink:href="#DejaVuSans-46"/>
      <use transform="translate(495.019531 0.78125)" xlink:href="#DejaVuSans-53"/>
     </g>
    </g>
    <g id="PathCollection_6">
     <g>
      <use style="fill:#c44e52;stroke:#c44e52;stroke-width:0.3;" x="209.485938" xlink:href="#m6abdd19a72" y="103.635625"/>
     </g>
    </g>
    <g id="text_19">
     <!-- $0.5 &lt; t &lt; 1.$ -->
     <defs>
      <path d="M 12.40625 8.296875 
L 28.515625 8.296875 
L 28.515625 63.921875 
L 10.984375 60.40625 
L 10.984375 69.390625 
L 28.421875 72.90625 
L 38.28125 72.90625 
L 38.28125 8.296875 
L 54.390625 8.296875 
L 54.390625 0 
L 12.40625 0 
z
" id="DejaVuSans-49"/>
     </defs>
     <g style="fill:#262626;" transform="translate(227.485938 106.260625)scale(0.1 -0.1)">
      <use transform="translate(0 0.78125)" xlink:href="#DejaVuSans-48"/>
      <use transform="translate(63.623047 0.78125)" xlink:href="#DejaVuSans-46"/>
      <use transform="translate(95.410156 0.78125)" xlink:href="#DejaVuSans-53"/>
      <use transform="translate(178.515625 0.78125)" xlink:href="#DejaVuSans-60"/>
      <use transform="translate(281.787109 0.78125)" xlink:href="#DejaVuSans-Oblique-116"/>
      <use transform="translate(340.478516 0.78125)" xlink:href="#DejaVuSans-60"/>
      <use transform="translate(443.75 0.78125)" xlink:href="#DejaVuSans-49"/>
     </g>
    </g>
   </g>
  </g>
 </g>
 <defs>
  <clipPath id="pa1de743cc2">
   <path d="M 447.66 199.98 
C 447.66 179.959136 443.716326 160.13295 436.054674 141.636084 
C 428.393021 123.139218 417.162388 106.331389 403.0055 92.1745 
C 388.848611 78.017612 372.040782 66.786979 353.543916 59.125326 
C 335.04705 51.463674 315.220864 47.52 295.2 47.52 
C 275.179136 47.52 255.35295 51.463674 236.856084 59.125326 
C 218.359218 66.786979 201.551389 78.017612 187.3945 92.1745 
C 173.237612 106.331389 162.006979 123.139218 154.345326 141.636084 
C 146.683674 160.13295 142.74 179.959136 142.74 199.98 
C 142.74 220.000864 146.683674 239.82705 154.345326 258.323916 
C 162.006979 276.820782 173.237612 293.628611 187.3945 307.7855 
C 201.551389 321.942388 218.359218 333.173021 236.856084 340.834674 
C 255.35295 348.496326 275.179136 352.44 295.2 352.44 
C 315.220864 352.44 335.04705 348.496326 353.543916 340.834674 
C 372.040782 333.173021 388.848611 321.942388 403.0055 307.7855 
C 417.162388 293.628611 428.393021 276.820782 436.054674 258.323916 
C 443.716326 239.82705 447.66 220.000864 447.66 199.98 
M 295.2 199.98 
C 295.2 199.98 295.2 199.98 295.2 199.98 
C 295.2 199.98 295.2 199.98 295.2 199.98 
C 295.2 199.98 295.2 199.98 295.2 199.98 
C 295.2 199.98 295.2 199.98 295.2 199.98 
C 295.2 199.98 295.2 199.98 295.2 199.98 
C 295.2 199.98 295.2 199.98 295.2 199.98 
C 295.2 199.98 295.2 199.98 295.2 199.98 
C 295.2 199.98 295.2 199.98 295.2 199.98 
C 295.2 199.98 295.2 199.98 295.2 199.98 
C 295.2 199.98 295.2 199.98 295.2 199.98 
C 295.2 199.98 295.2 199.98 295.2 199.98 
C 295.2 199.98 295.2 199.98 295.2 199.98 
C 295.2 199.98 295.2 199.98 295.2 199.98 
C 295.2 199.98 295.2 199.98 295.2 199.98 
C 295.2 199.98 295.2 199.98 295.2 199.98 
C 295.2 199.98 295.2 199.98 295.2 199.98 
M 447.66 199.98 
z
"/>
  </clipPath>
 </defs>
</svg>
