<?xml version="1.0" encoding="utf-8" standalone="no"?>
<!DOCTYPE svg PUBLIC "-//W3C//DTD SVG 1.1//EN"
  "http://www.w3.org/Graphics/SVG/1.1/DTD/svg11.dtd">
<!-- Created with matplotlib (https://matplotlib.org/) -->
<svg height="396pt" version="1.1" viewBox="0 0 576 396" width="576pt" xmlns="http://www.w3.org/2000/svg" xmlns:xlink="http://www.w3.org/1999/xlink">
 <defs>
  <style type="text/css">
*{stroke-linecap:butt;stroke-linejoin:round;}
  </style>
 </defs>
 <g id="figure_1">
  <g id="patch_1">
   <path d="M 0 396 
L 576 396 
L 576 0 
L 0 0 
z
" style="fill:#ffffff;"/>
  </g>
  <g id="axes_1">
   <g id="patch_2">
    <path d="M 447.66 199.98 
C 447.66 179.959136 443.716326 160.13295 436.054674 141.636084 
C 428.393021 123.139218 417.162388 106.331389 403.0055 92.1745 
C 388.848611 78.017612 372.040782 66.786979 353.543916 59.125326 
C 335.04705 51.463674 315.220864 47.52 295.2 47.52 
C 275.179136 47.52 255.35295 51.463674 236.856084 59.125326 
C 218.359218 66.786979 201.551389 78.017612 187.3945 92.1745 
C 173.237612 106.331389 162.006979 123.139218 154.345326 141.636084 
C 146.683674 160.13295 142.74 179.959136 142.74 199.98 
C 142.74 220.000864 146.683674 239.82705 154.345326 258.323916 
C 162.006979 276.820782 173.237612 293.628611 187.3945 307.7855 
C 201.551389 321.942388 218.359218 333.173021 236.856084 340.834674 
C 255.35295 348.496326 275.179136 352.44 295.2 352.44 
C 315.220864 352.44 335.04705 348.496326 353.543916 340.834674 
C 372.040782 333.173021 388.848611 321.942388 403.0055 307.7855 
C 417.162388 293.628611 428.393021 276.820782 436.054674 258.323916 
C 443.716326 239.82705 447.66 220.000864 447.66 199.98 
M 295.2 199.98 
C 295.2 199.98 295.2 199.98 295.2 199.98 
C 295.2 199.98 295.2 199.98 295.2 199.98 
C 295.2 199.98 295.2 199.98 295.2 199.98 
C 295.2 199.98 295.2 199.98 295.2 199.98 
C 295.2 199.98 295.2 199.98 295.2 199.98 
C 295.2 199.98 295.2 199.98 295.2 199.98 
C 295.2 199.98 295.2 199.98 295.2 199.98 
C 295.2 199.98 295.2 199.98 295.2 199.98 
C 295.2 199.98 295.2 199.98 295.2 199.98 
C 295.2 199.98 295.2 199.98 295.2 199.98 
C 295.2 199.98 295.2 199.98 295.2 199.98 
C 295.2 199.98 295.2 199.98 295.2 199.98 
C 295.2 199.98 295.2 199.98 295.2 199.98 
C 295.2 199.98 295.2 199.98 295.2 199.98 
C 295.2 199.98 295.2 199.98 295.2 199.98 
C 295.2 199.98 295.2 199.98 295.2 199.98 
M 447.66 199.98 
z
" style="fill:#eaeaf2;"/>
   </g>
   <g id="matplotlib.axis_1">
    <g id="xtick_1">
     <g id="line2d_1">
      <path clip-path="url(#p484d71733f)" d="M 295.2 199.98 
L 447.66 199.98 
" style="fill:none;stroke:#ffffff;stroke-linecap:round;"/>
     </g>
     <g id="text_1">
      <!-- 0° -->
      <defs>
       <path d="M 4.15625 35.296875 
Q 4.15625 48 6.765625 55.734375 
Q 9.375 63.484375 14.515625 67.671875 
Q 19.671875 71.875 27.484375 71.875 
Q 33.25 71.875 37.59375 69.546875 
Q 41.9375 67.234375 44.765625 62.859375 
Q 47.609375 58.5 49.21875 52.21875 
Q 50.828125 45.953125 50.828125 35.296875 
Q 50.828125 22.703125 48.234375 14.96875 
Q 45.65625 7.234375 40.5 3 
Q 35.359375 -1.21875 27.484375 -1.21875 
Q 17.140625 -1.21875 11.234375 6.203125 
Q 4.15625 15.140625 4.15625 35.296875 
z
M 13.1875 35.296875 
Q 13.1875 17.671875 17.3125 11.828125 
Q 21.4375 6 27.484375 6 
Q 33.546875 6 37.671875 11.859375 
Q 41.796875 17.71875 41.796875 35.296875 
Q 41.796875 52.984375 37.671875 58.78125 
Q 33.546875 64.59375 27.390625 64.59375 
Q 21.34375 64.59375 17.71875 59.46875 
Q 13.1875 52.9375 13.1875 35.296875 
z
" id="ArialMT-48"/>
       <path d="M 6.25 59.28125 
Q 6.25 64.890625 10.21875 68.84375 
Q 14.203125 72.796875 19.78125 72.796875 
Q 25.4375 72.796875 29.390625 68.84375 
Q 33.34375 64.890625 33.34375 59.28125 
Q 33.34375 53.65625 29.359375 49.671875 
Q 25.390625 45.703125 19.78125 45.703125 
Q 14.203125 45.703125 10.21875 49.65625 
Q 6.25 53.609375 6.25 59.28125 
z
M 11.578125 59.28125 
Q 11.578125 55.859375 13.984375 53.4375 
Q 16.40625 51.03125 19.828125 51.03125 
Q 23.1875 51.03125 25.609375 53.4375 
Q 28.03125 55.859375 28.03125 59.28125 
Q 28.03125 62.703125 25.609375 65.109375 
Q 23.1875 67.53125 19.828125 67.53125 
Q 16.40625 67.53125 13.984375 65.109375 
Q 11.578125 62.703125 11.578125 59.28125 
z
" id="ArialMT-176"/>
      </defs>
      <g style="fill:#262626;" transform="translate(456.880313 202.565156)scale(0.1 -0.1)">
       <use xlink:href="#ArialMT-48"/>
       <use x="55.615234" xlink:href="#ArialMT-176"/>
      </g>
     </g>
    </g>
    <g id="xtick_2">
     <g id="line2d_2">
      <path clip-path="url(#p484d71733f)" d="M 295.2 199.98 
L 403.0055 92.1745 
" style="fill:none;stroke:#ffffff;stroke-linecap:round;"/>
     </g>
     <g id="text_2">
      <!-- 45° -->
      <defs>
       <path d="M 32.328125 0 
L 32.328125 17.140625 
L 1.265625 17.140625 
L 1.265625 25.203125 
L 33.9375 71.578125 
L 41.109375 71.578125 
L 41.109375 25.203125 
L 50.78125 25.203125 
L 50.78125 17.140625 
L 41.109375 17.140625 
L 41.109375 0 
z
M 32.328125 25.203125 
L 32.328125 57.46875 
L 9.90625 25.203125 
z
" id="ArialMT-52"/>
       <path d="M 4.15625 18.75 
L 13.375 19.53125 
Q 14.40625 12.796875 18.140625 9.390625 
Q 21.875 6 27.15625 6 
Q 33.5 6 37.890625 10.78125 
Q 42.28125 15.578125 42.28125 23.484375 
Q 42.28125 31 38.0625 35.34375 
Q 33.84375 39.703125 27 39.703125 
Q 22.75 39.703125 19.328125 37.765625 
Q 15.921875 35.84375 13.96875 32.765625 
L 5.71875 33.84375 
L 12.640625 70.609375 
L 48.25 70.609375 
L 48.25 62.203125 
L 19.671875 62.203125 
L 15.828125 42.96875 
Q 22.265625 47.46875 29.34375 47.46875 
Q 38.71875 47.46875 45.15625 40.96875 
Q 51.609375 34.46875 51.609375 24.265625 
Q 51.609375 14.546875 45.953125 7.46875 
Q 39.0625 -1.21875 27.15625 -1.21875 
Q 17.390625 -1.21875 11.203125 4.25 
Q 5.03125 9.71875 4.15625 18.75 
z
" id="ArialMT-53"/>
      </defs>
      <g style="fill:#262626;" transform="translate(405.344839 84.860161)scale(0.1 -0.1)">
       <use xlink:href="#ArialMT-52"/>
       <use x="55.615234" xlink:href="#ArialMT-53"/>
       <use x="111.230469" xlink:href="#ArialMT-176"/>
      </g>
     </g>
    </g>
    <g id="xtick_3">
     <g id="line2d_3">
      <path clip-path="url(#p484d71733f)" d="M 295.2 199.98 
L 295.2 47.52 
" style="fill:none;stroke:#ffffff;stroke-linecap:round;"/>
     </g>
     <g id="text_3">
      <!-- 90° -->
      <defs>
       <path d="M 5.46875 16.546875 
L 13.921875 17.328125 
Q 14.984375 11.375 18.015625 8.6875 
Q 21.046875 6 25.78125 6 
Q 29.828125 6 32.875 7.859375 
Q 35.9375 9.71875 37.890625 12.8125 
Q 39.84375 15.921875 41.15625 21.1875 
Q 42.484375 26.46875 42.484375 31.9375 
Q 42.484375 32.515625 42.4375 33.6875 
Q 39.796875 29.5 35.234375 26.875 
Q 30.671875 24.265625 25.34375 24.265625 
Q 16.453125 24.265625 10.296875 30.703125 
Q 4.15625 37.15625 4.15625 47.703125 
Q 4.15625 58.59375 10.578125 65.234375 
Q 17 71.875 26.65625 71.875 
Q 33.640625 71.875 39.421875 68.109375 
Q 45.21875 64.359375 48.21875 57.390625 
Q 51.21875 50.4375 51.21875 37.25 
Q 51.21875 23.53125 48.234375 15.40625 
Q 45.265625 7.28125 39.375 3.03125 
Q 33.5 -1.21875 25.59375 -1.21875 
Q 17.1875 -1.21875 11.859375 3.4375 
Q 6.546875 8.109375 5.46875 16.546875 
z
M 41.453125 48.140625 
Q 41.453125 55.71875 37.421875 60.15625 
Q 33.40625 64.59375 27.734375 64.59375 
Q 21.875 64.59375 17.53125 59.8125 
Q 13.1875 55.03125 13.1875 47.40625 
Q 13.1875 40.578125 17.3125 36.296875 
Q 21.4375 32.03125 27.484375 32.03125 
Q 33.59375 32.03125 37.515625 36.296875 
Q 41.453125 40.578125 41.453125 48.140625 
z
" id="ArialMT-57"/>
      </defs>
      <g style="fill:#262626;" transform="translate(287.639844 36.105156)scale(0.1 -0.1)">
       <use xlink:href="#ArialMT-57"/>
       <use x="55.615234" xlink:href="#ArialMT-48"/>
       <use x="111.230469" xlink:href="#ArialMT-176"/>
      </g>
     </g>
    </g>
    <g id="xtick_4">
     <g id="line2d_4">
      <path clip-path="url(#p484d71733f)" d="M 295.2 199.98 
L 187.3945 92.1745 
" style="fill:none;stroke:#ffffff;stroke-linecap:round;"/>
     </g>
     <g id="text_4">
      <!-- 135° -->
      <defs>
       <path d="M 37.25 0 
L 28.46875 0 
L 28.46875 56 
Q 25.296875 52.984375 20.140625 49.953125 
Q 14.984375 46.921875 10.890625 45.40625 
L 10.890625 53.90625 
Q 18.265625 57.375 23.78125 62.296875 
Q 29.296875 67.234375 31.59375 71.875 
L 37.25 71.875 
z
" id="ArialMT-49"/>
       <path d="M 4.203125 18.890625 
L 12.984375 20.0625 
Q 14.5 12.59375 18.140625 9.296875 
Q 21.78125 6 27 6 
Q 33.203125 6 37.46875 10.296875 
Q 41.75 14.59375 41.75 20.953125 
Q 41.75 27 37.796875 30.921875 
Q 33.84375 34.859375 27.734375 34.859375 
Q 25.25 34.859375 21.53125 33.890625 
L 22.515625 41.609375 
Q 23.390625 41.5 23.921875 41.5 
Q 29.546875 41.5 34.03125 44.421875 
Q 38.53125 47.359375 38.53125 53.46875 
Q 38.53125 58.296875 35.25 61.46875 
Q 31.984375 64.65625 26.8125 64.65625 
Q 21.6875 64.65625 18.265625 61.421875 
Q 14.84375 58.203125 13.875 51.765625 
L 5.078125 53.328125 
Q 6.6875 62.15625 12.390625 67.015625 
Q 18.109375 71.875 26.609375 71.875 
Q 32.46875 71.875 37.390625 69.359375 
Q 42.328125 66.84375 44.9375 62.5 
Q 47.5625 58.15625 47.5625 53.265625 
Q 47.5625 48.640625 45.0625 44.828125 
Q 42.578125 41.015625 37.703125 38.765625 
Q 44.046875 37.3125 47.5625 32.6875 
Q 51.078125 28.078125 51.078125 21.140625 
Q 51.078125 11.765625 44.234375 5.25 
Q 37.40625 -1.265625 26.953125 -1.265625 
Q 17.53125 -1.265625 11.296875 4.34375 
Q 5.078125 9.96875 4.203125 18.890625 
z
" id="ArialMT-51"/>
      </defs>
      <g style="fill:#262626;" transform="translate(167.15438 84.860161)scale(0.1 -0.1)">
       <use xlink:href="#ArialMT-49"/>
       <use x="55.615234" xlink:href="#ArialMT-51"/>
       <use x="111.230469" xlink:href="#ArialMT-53"/>
       <use x="166.845703" xlink:href="#ArialMT-176"/>
      </g>
     </g>
    </g>
    <g id="xtick_5">
     <g id="line2d_5">
      <path clip-path="url(#p484d71733f)" d="M 295.2 199.98 
L 142.74 199.98 
" style="fill:none;stroke:#ffffff;stroke-linecap:round;"/>
     </g>
     <g id="text_5">
      <!-- 180° -->
      <defs>
       <path d="M 17.671875 38.8125 
Q 12.203125 40.828125 9.5625 44.53125 
Q 6.9375 48.25 6.9375 53.421875 
Q 6.9375 61.234375 12.546875 66.546875 
Q 18.171875 71.875 27.484375 71.875 
Q 36.859375 71.875 42.578125 66.421875 
Q 48.296875 60.984375 48.296875 53.171875 
Q 48.296875 48.1875 45.671875 44.5 
Q 43.0625 40.828125 37.75 38.8125 
Q 44.34375 36.671875 47.78125 31.875 
Q 51.21875 27.09375 51.21875 20.453125 
Q 51.21875 11.28125 44.71875 5.03125 
Q 38.234375 -1.21875 27.640625 -1.21875 
Q 17.046875 -1.21875 10.546875 5.046875 
Q 4.046875 11.328125 4.046875 20.703125 
Q 4.046875 27.6875 7.59375 32.390625 
Q 11.140625 37.109375 17.671875 38.8125 
z
M 15.921875 53.71875 
Q 15.921875 48.640625 19.1875 45.40625 
Q 22.46875 42.1875 27.6875 42.1875 
Q 32.765625 42.1875 36.015625 45.375 
Q 39.265625 48.578125 39.265625 53.21875 
Q 39.265625 58.0625 35.90625 61.359375 
Q 32.5625 64.65625 27.59375 64.65625 
Q 22.5625 64.65625 19.234375 61.421875 
Q 15.921875 58.203125 15.921875 53.71875 
z
M 13.09375 20.65625 
Q 13.09375 16.890625 14.875 13.375 
Q 16.65625 9.859375 20.171875 7.921875 
Q 23.6875 6 27.734375 6 
Q 34.03125 6 38.125 10.046875 
Q 42.234375 14.109375 42.234375 20.359375 
Q 42.234375 26.703125 38.015625 30.859375 
Q 33.796875 35.015625 27.4375 35.015625 
Q 21.234375 35.015625 17.15625 30.90625 
Q 13.09375 26.8125 13.09375 20.65625 
z
" id="ArialMT-56"/>
      </defs>
      <g style="fill:#262626;" transform="translate(118.399375 202.565156)scale(0.1 -0.1)">
       <use xlink:href="#ArialMT-49"/>
       <use x="55.615234" xlink:href="#ArialMT-56"/>
       <use x="111.230469" xlink:href="#ArialMT-48"/>
       <use x="166.845703" xlink:href="#ArialMT-176"/>
      </g>
     </g>
    </g>
    <g id="xtick_6">
     <g id="line2d_6">
      <path clip-path="url(#p484d71733f)" d="M 295.2 199.98 
L 187.3945 307.7855 
" style="fill:none;stroke:#ffffff;stroke-linecap:round;"/>
     </g>
     <g id="text_6">
      <!-- 225° -->
      <defs>
       <path d="M 50.34375 8.453125 
L 50.34375 0 
L 3.03125 0 
Q 2.9375 3.171875 4.046875 6.109375 
Q 5.859375 10.9375 9.828125 15.625 
Q 13.8125 20.3125 21.34375 26.46875 
Q 33.015625 36.03125 37.109375 41.625 
Q 41.21875 47.21875 41.21875 52.203125 
Q 41.21875 57.421875 37.46875 61 
Q 33.734375 64.59375 27.734375 64.59375 
Q 21.390625 64.59375 17.578125 60.78125 
Q 13.765625 56.984375 13.71875 50.25 
L 4.6875 51.171875 
Q 5.609375 61.28125 11.65625 66.578125 
Q 17.71875 71.875 27.9375 71.875 
Q 38.234375 71.875 44.234375 66.15625 
Q 50.25 60.453125 50.25 52 
Q 50.25 47.703125 48.484375 43.546875 
Q 46.734375 39.40625 42.65625 34.8125 
Q 38.578125 30.21875 29.109375 22.21875 
Q 21.1875 15.578125 18.9375 13.203125 
Q 16.703125 10.84375 15.234375 8.453125 
z
" id="ArialMT-50"/>
      </defs>
      <g style="fill:#262626;" transform="translate(167.15438 320.270151)scale(0.1 -0.1)">
       <use xlink:href="#ArialMT-50"/>
       <use x="55.615234" xlink:href="#ArialMT-50"/>
       <use x="111.230469" xlink:href="#ArialMT-53"/>
       <use x="166.845703" xlink:href="#ArialMT-176"/>
      </g>
     </g>
    </g>
    <g id="xtick_7">
     <g id="line2d_7">
      <path clip-path="url(#p484d71733f)" d="M 295.2 199.98 
L 295.2 352.44 
" style="fill:none;stroke:#ffffff;stroke-linecap:round;"/>
     </g>
     <g id="text_7">
      <!-- 270° -->
      <defs>
       <path d="M 4.734375 62.203125 
L 4.734375 70.65625 
L 51.078125 70.65625 
L 51.078125 63.8125 
Q 44.234375 56.546875 37.515625 44.484375 
Q 30.8125 32.421875 27.15625 19.671875 
Q 24.515625 10.6875 23.78125 0 
L 14.75 0 
Q 14.890625 8.453125 18.0625 20.40625 
Q 21.234375 32.375 27.171875 43.484375 
Q 33.109375 54.59375 39.796875 62.203125 
z
" id="ArialMT-55"/>
      </defs>
      <g style="fill:#262626;" transform="translate(284.859375 369.025156)scale(0.1 -0.1)">
       <use xlink:href="#ArialMT-50"/>
       <use x="55.615234" xlink:href="#ArialMT-55"/>
       <use x="111.230469" xlink:href="#ArialMT-48"/>
       <use x="166.845703" xlink:href="#ArialMT-176"/>
      </g>
     </g>
    </g>
    <g id="xtick_8">
     <g id="line2d_8">
      <path clip-path="url(#p484d71733f)" d="M 295.2 199.98 
L 403.0055 307.7855 
" style="fill:none;stroke:#ffffff;stroke-linecap:round;"/>
     </g>
     <g id="text_8">
      <!-- 315° -->
      <g style="fill:#262626;" transform="translate(402.56437 320.270151)scale(0.1 -0.1)">
       <use xlink:href="#ArialMT-51"/>
       <use x="55.615234" xlink:href="#ArialMT-49"/>
       <use x="111.230469" xlink:href="#ArialMT-53"/>
       <use x="166.845703" xlink:href="#ArialMT-176"/>
      </g>
     </g>
    </g>
   </g>
   <g id="matplotlib.axis_2">
    <g id="ytick_1">
     <g id="line2d_9">
      <path clip-path="url(#p484d71733f)" d="M 320.923243 199.98 
L 320.782329 197.291189 
L 320.361129 194.631837 
L 319.664258 192.031081 
L 318.699352 189.517414 
L 317.476982 187.118378 
L 316.010541 184.860257 
L 314.316095 182.767791 
L 312.412209 180.863905 
L 310.319743 179.169459 
L 308.061622 177.703018 
L 305.662586 176.480648 
L 303.148919 175.515742 
L 300.548163 174.818871 
L 297.888811 174.397671 
L 295.2 174.256757 
L 292.511189 174.397671 
L 289.851837 174.818871 
L 287.251081 175.515742 
L 284.737414 176.480648 
L 282.338378 177.703018 
L 280.080257 179.169459 
L 277.987791 180.863905 
L 276.083905 182.767791 
L 274.389459 184.860257 
L 272.923018 187.118378 
L 271.700648 189.517414 
L 270.735742 192.031081 
L 270.038871 194.631837 
L 269.617671 197.291189 
L 269.476757 199.98 
L 269.617671 202.668811 
L 270.038871 205.328163 
L 270.735742 207.928919 
L 271.700648 210.442586 
L 272.923018 212.841622 
L 274.389459 215.099743 
L 276.083905 217.192209 
L 277.987791 219.096095 
L 280.080257 220.790541 
L 282.338378 222.256982 
L 284.737414 223.479352 
L 287.251081 224.444258 
L 289.851837 225.141129 
L 292.511189 225.562329 
L 295.2 225.703243 
L 297.888811 225.562329 
L 300.548163 225.141129 
L 303.148919 224.444258 
L 305.662586 223.479352 
L 308.061622 222.256982 
L 310.319743 220.790541 
L 312.412209 219.096095 
L 314.316095 217.192209 
L 316.010541 215.099743 
L 317.476982 212.841622 
L 318.699352 210.442586 
L 319.664258 207.928919 
L 320.361129 205.328163 
L 320.782329 202.668811 
L 320.923243 199.98 
L 320.923243 199.98 
" style="fill:none;stroke:#ffffff;stroke-linecap:round;"/>
     </g>
     <g id="text_9">
      <!-- 0.05 -->
      <defs>
       <path d="M 9.078125 0 
L 9.078125 10.015625 
L 19.09375 10.015625 
L 19.09375 0 
z
" id="ArialMT-46"/>
      </defs>
      <g style="fill:#262626;" transform="translate(318.965178 188.148641)scale(0.1 -0.1)">
       <use xlink:href="#ArialMT-48"/>
       <use x="55.615234" xlink:href="#ArialMT-46"/>
       <use x="83.398438" xlink:href="#ArialMT-48"/>
       <use x="139.013672" xlink:href="#ArialMT-53"/>
      </g>
     </g>
    </g>
    <g id="ytick_2">
     <g id="line2d_10">
      <path clip-path="url(#p484d71733f)" d="M 346.646487 199.98 
L 346.521166 196.391275 
L 346.145813 192.820033 
L 345.522257 189.283674 
L 344.653537 185.799426 
L 343.543884 182.384265 
L 342.198704 179.054829 
L 340.624552 175.827338 
L 338.829095 172.717516 
L 336.821082 169.740514 
L 334.610295 166.910836 
L 332.207505 164.242267 
L 329.624419 161.74781 
L 326.87362 159.439615 
L 323.96851 157.32893 
L 320.923243 155.426036 
L 317.752655 153.740204 
L 314.472193 152.279648 
L 311.097839 151.051484 
L 307.646032 150.061694 
L 304.133589 149.315101 
L 300.577622 148.815343 
L 296.995456 148.564853 
L 293.404544 148.564853 
L 289.822378 148.815343 
L 286.266411 149.315101 
L 282.753968 150.061694 
L 279.302161 151.051484 
L 275.927807 152.279648 
L 272.647345 153.740204 
L 269.476757 155.426036 
L 266.43149 157.32893 
L 263.52638 159.439615 
L 260.775581 161.74781 
L 258.192495 164.242267 
L 255.789705 166.910836 
L 253.578918 169.740514 
L 251.570905 172.717516 
L 249.775448 175.827338 
L 248.201296 179.054829 
L 246.856116 182.384265 
L 245.746463 185.799426 
L 244.877743 189.283674 
L 244.254187 192.820033 
L 243.878834 196.391275 
L 243.753513 199.98 
L 243.878834 203.568725 
L 244.254187 207.139967 
L 244.877743 210.676326 
L 245.746463 214.160574 
L 246.856116 217.575735 
L 248.201296 220.905171 
L 249.775448 224.132662 
L 251.570905 227.242484 
L 253.578918 230.219486 
L 255.789705 233.049164 
L 258.192495 235.717733 
L 260.775581 238.21219 
L 263.52638 240.520385 
L 266.43149 242.63107 
L 269.476757 244.533964 
L 272.647345 246.219796 
L 275.927807 247.680352 
L 279.302161 248.908516 
L 282.753968 249.898306 
L 286.266411 250.644899 
L 289.822378 251.144657 
L 293.404544 251.395147 
L 296.995456 251.395147 
L 300.577622 251.144657 
L 304.133589 250.644899 
L 307.646032 249.898306 
L 311.097839 248.908516 
L 314.472193 247.680352 
L 317.752655 246.219796 
L 320.923243 244.533964 
L 323.96851 242.63107 
L 326.87362 240.520385 
L 329.624419 238.21219 
L 332.207505 235.717733 
L 334.610295 233.049164 
L 336.821082 230.219486 
L 338.829095 227.242484 
L 340.624552 224.132662 
L 342.198704 220.905171 
L 343.543884 217.575735 
L 344.653537 214.160574 
L 345.522257 210.676326 
L 346.145813 207.139967 
L 346.521166 203.568725 
L 346.646487 199.98 
L 346.646487 199.98 
" style="fill:none;stroke:#ffffff;stroke-linecap:round;"/>
     </g>
     <g id="text_10">
      <!-- 0.10 -->
      <g style="fill:#262626;" transform="translate(342.730356 178.304782)scale(0.1 -0.1)">
       <use xlink:href="#ArialMT-48"/>
       <use x="55.615234" xlink:href="#ArialMT-46"/>
       <use x="83.398438" xlink:href="#ArialMT-49"/>
       <use x="139.013672" xlink:href="#ArialMT-48"/>
      </g>
     </g>
    </g>
    <g id="ytick_3">
     <g id="line2d_11">
      <path clip-path="url(#p484d71733f)" d="M 372.36973 199.98 
L 372.181748 194.596912 
L 371.618719 189.240049 
L 370.683386 183.935511 
L 369.380305 178.70914 
L 367.715826 173.586398 
L 365.698056 168.592243 
L 363.336827 163.751006 
L 360.643643 159.086274 
L 357.631623 154.620771 
L 354.315443 150.376254 
L 350.711258 146.373401 
L 346.836628 142.631715 
L 342.71043 139.169423 
L 338.352765 136.003394 
L 333.784865 133.149054 
L 329.028983 130.620306 
L 324.10829 128.429472 
L 319.046758 126.587226 
L 313.869047 125.102541 
L 308.600383 123.982652 
L 303.266433 123.233014 
L 297.893185 122.85728 
L 292.506815 122.85728 
L 287.133567 123.233014 
L 281.799617 123.982652 
L 276.530953 125.102541 
L 271.353242 126.587226 
L 266.29171 128.429472 
L 261.371017 130.620306 
L 256.615135 133.149054 
L 252.047235 136.003394 
L 247.68957 139.169423 
L 243.563372 142.631715 
L 239.688742 146.373401 
L 236.084557 150.376254 
L 232.768377 154.620771 
L 229.756357 159.086274 
L 227.063173 163.751006 
L 224.701944 168.592243 
L 222.684174 173.586398 
L 221.019695 178.70914 
L 219.716614 183.935511 
L 218.781281 189.240049 
L 218.218252 194.596912 
L 218.03027 199.98 
L 218.218252 205.363088 
L 218.781281 210.719951 
L 219.716614 216.024489 
L 221.019695 221.25086 
L 222.684174 226.373602 
L 224.701944 231.367757 
L 227.063173 236.208994 
L 229.756357 240.873726 
L 232.768377 245.339229 
L 236.084557 249.583746 
L 239.688742 253.586599 
L 243.563372 257.328285 
L 247.68957 260.790577 
L 252.047235 263.956606 
L 256.615135 266.810946 
L 261.371017 269.339694 
L 266.29171 271.530528 
L 271.353242 273.372774 
L 276.530953 274.857459 
L 281.799617 275.977348 
L 287.133567 276.726986 
L 292.506815 277.10272 
L 297.893185 277.10272 
L 303.266433 276.726986 
L 308.600383 275.977348 
L 313.869047 274.857459 
L 319.046758 273.372774 
L 324.10829 271.530528 
L 329.028983 269.339694 
L 333.784865 266.810946 
L 338.352765 263.956606 
L 342.71043 260.790577 
L 346.836628 257.328285 
L 350.711258 253.586599 
L 354.315443 249.583746 
L 357.631623 245.339229 
L 360.643643 240.873726 
L 363.336827 236.208994 
L 365.698056 231.367757 
L 367.715826 226.373602 
L 369.380305 221.25086 
L 370.683386 216.024489 
L 371.618719 210.719951 
L 372.181748 205.363088 
L 372.36973 199.98 
L 372.36973 199.98 
" style="fill:none;stroke:#ffffff;stroke-linecap:round;"/>
     </g>
     <g id="text_11">
      <!-- 0.15 -->
      <g style="fill:#262626;" transform="translate(366.495534 168.460923)scale(0.1 -0.1)">
       <use xlink:href="#ArialMT-48"/>
       <use x="55.615234" xlink:href="#ArialMT-46"/>
       <use x="83.398438" xlink:href="#ArialMT-49"/>
       <use x="139.013672" xlink:href="#ArialMT-53"/>
      </g>
     </g>
    </g>
    <g id="ytick_4">
     <g id="line2d_12">
      <path clip-path="url(#p484d71733f)" d="M 398.092973 199.98 
L 398.030294 196.389087 
L 397.842331 192.802549 
L 397.529315 189.224756 
L 397.091626 185.660066 
L 396.529798 182.112823 
L 395.844515 178.587348 
L 395.036612 175.087937 
L 394.107074 171.618853 
L 393.057033 168.184323 
L 391.887768 164.788531 
L 390.600704 161.435614 
L 389.197408 158.129657 
L 387.679592 154.874689 
L 386.049103 151.674675 
L 384.307929 148.533513 
L 382.45819 145.455031 
L 380.502141 142.44298 
L 378.442164 139.501028 
L 376.280769 136.63276 
L 374.02059 133.841672 
L 371.664381 131.131162 
L 369.215011 128.504535 
L 366.675465 125.964989 
L 364.048838 123.515619 
L 361.338328 121.15941 
L 358.54724 118.899231 
L 355.678972 116.737836 
L 352.73702 114.677859 
L 349.724969 112.72181 
L 346.646487 110.872071 
L 343.505325 109.130897 
L 340.305311 107.500408 
L 337.050343 105.982592 
L 333.744386 104.579296 
L 330.391469 103.292232 
L 326.995677 102.122967 
L 323.561147 101.072926 
L 320.092063 100.143388 
L 316.592652 99.335485 
L 313.067177 98.650202 
L 309.519934 98.088374 
L 305.955244 97.650685 
L 302.377451 97.337669 
L 298.790913 97.149706 
L 295.2 97.087027 
L 291.609087 97.149706 
L 288.022549 97.337669 
L 284.444756 97.650685 
L 280.880066 98.088374 
L 277.332823 98.650202 
L 273.807348 99.335485 
L 270.307937 100.143388 
L 266.838853 101.072926 
L 263.404323 102.122967 
L 260.008531 103.292232 
L 256.655614 104.579296 
L 253.349657 105.982592 
L 250.094689 107.500408 
L 246.894675 109.130897 
L 243.753513 110.872071 
L 240.675031 112.72181 
L 237.66298 114.677859 
L 234.721028 116.737836 
L 231.85276 118.899231 
L 229.061672 121.15941 
L 226.351162 123.515619 
L 223.724535 125.964989 
L 221.184989 128.504535 
L 218.735619 131.131162 
L 216.37941 133.841672 
L 214.119231 136.63276 
L 211.957836 139.501028 
L 209.897859 142.44298 
L 207.94181 145.455031 
L 206.092071 148.533513 
L 204.350897 151.674675 
L 202.720408 154.874689 
L 201.202592 158.129657 
L 199.799296 161.435614 
L 198.512232 164.788531 
L 197.342967 168.184323 
L 196.292926 171.618853 
L 195.363388 175.087937 
L 194.555485 178.587348 
L 193.870202 182.112823 
L 193.308374 185.660066 
L 192.870685 189.224756 
L 192.557669 192.802549 
L 192.369706 196.389087 
L 192.307027 199.98 
L 192.369706 203.570913 
L 192.557669 207.157451 
L 192.870685 210.735244 
L 193.308374 214.299934 
L 193.870202 217.847177 
L 194.555485 221.372652 
L 195.363388 224.872063 
L 196.292926 228.341147 
L 197.342967 231.775677 
L 198.512232 235.171469 
L 199.799296 238.524386 
L 201.202592 241.830343 
L 202.720408 245.085311 
L 204.350897 248.285325 
L 206.092071 251.426487 
L 207.94181 254.504969 
L 209.897859 257.51702 
L 211.957836 260.458972 
L 214.119231 263.32724 
L 216.37941 266.118328 
L 218.735619 268.828838 
L 221.184989 271.455465 
L 223.724535 273.995011 
L 226.351162 276.444381 
L 229.061672 278.80059 
L 231.85276 281.060769 
L 234.721028 283.222164 
L 237.66298 285.282141 
L 240.675031 287.23819 
L 243.753513 289.087929 
L 246.894675 290.829103 
L 250.094689 292.459592 
L 253.349657 293.977408 
L 256.655614 295.380704 
L 260.008531 296.667768 
L 263.404323 297.837033 
L 266.838853 298.887074 
L 270.307937 299.816612 
L 273.807348 300.624515 
L 277.332823 301.309798 
L 280.880066 301.871626 
L 284.444756 302.309315 
L 288.022549 302.622331 
L 291.609087 302.810294 
L 295.2 302.872973 
L 298.790913 302.810294 
L 302.377451 302.622331 
L 305.955244 302.309315 
L 309.519934 301.871626 
L 313.067177 301.309798 
L 316.592652 300.624515 
L 320.092063 299.816612 
L 323.561147 298.887074 
L 326.995677 297.837033 
L 330.391469 296.667768 
L 333.744386 295.380704 
L 337.050343 293.977408 
L 340.305311 292.459592 
L 343.505325 290.829103 
L 346.646487 289.087929 
L 349.724969 287.23819 
L 352.73702 285.282141 
L 355.678972 283.222164 
L 358.54724 281.060769 
L 361.338328 278.80059 
L 364.048838 276.444381 
L 366.675465 273.995011 
L 369.215011 271.455465 
L 371.664381 268.828838 
L 374.02059 266.118328 
L 376.280769 263.32724 
L 378.442164 260.458972 
L 380.502141 257.51702 
L 382.45819 254.504969 
L 384.307929 251.426487 
L 386.049103 248.285325 
L 387.679592 245.085311 
L 389.197408 241.830343 
L 390.600704 238.524386 
L 391.887768 235.171469 
L 393.057033 231.775677 
L 394.107074 228.341147 
L 395.036612 224.872063 
L 395.844515 221.372652 
L 396.529798 217.847177 
L 397.091626 214.299934 
L 397.529315 210.735244 
L 397.842331 207.157451 
L 398.030294 203.570913 
L 398.092973 199.98 
L 398.092973 199.98 
" style="fill:none;stroke:#ffffff;stroke-linecap:round;"/>
     </g>
     <g id="text_12">
      <!-- 0.20 -->
      <g style="fill:#262626;" transform="translate(390.260712 158.617064)scale(0.1 -0.1)">
       <use xlink:href="#ArialMT-48"/>
       <use x="55.615234" xlink:href="#ArialMT-46"/>
       <use x="83.398438" xlink:href="#ArialMT-50"/>
       <use x="139.013672" xlink:href="#ArialMT-48"/>
      </g>
     </g>
    </g>
    <g id="ytick_5">
     <g id="line2d_13">
      <path clip-path="url(#p484d71733f)" d="M 423.816217 199.98 
L 423.737867 195.491359 
L 423.502914 191.008186 
L 423.111643 186.535945 
L 422.564532 182.080082 
L 421.862247 177.646028 
L 421.005644 173.239185 
L 419.995765 168.864921 
L 418.833842 164.528566 
L 417.521291 160.235403 
L 416.05971 155.990663 
L 414.450879 151.799517 
L 412.69676 147.667072 
L 410.79949 143.598362 
L 408.761379 139.598344 
L 406.584911 135.671892 
L 404.272738 131.823789 
L 401.827676 128.058724 
L 399.252705 124.381285 
L 396.550962 120.79595 
L 393.725738 117.30709 
L 390.780476 113.918953 
L 387.718763 110.635669 
L 384.544331 107.461237 
L 381.261047 104.399524 
L 377.87291 101.454262 
L 374.38405 98.629038 
L 370.798715 95.927295 
L 367.121276 93.352324 
L 363.356211 90.907262 
L 359.508108 88.595089 
L 355.581656 86.418621 
L 351.581638 84.38051 
L 347.512928 82.48324 
L 343.380483 80.729121 
L 339.189337 79.12029 
L 334.944597 77.658709 
L 330.651434 76.346158 
L 326.315079 75.184235 
L 321.940815 74.174356 
L 317.533972 73.317753 
L 313.099918 72.615468 
L 308.644055 72.068357 
L 304.171814 71.677086 
L 299.688641 71.442133 
L 295.2 71.363783 
L 290.711359 71.442133 
L 286.228186 71.677086 
L 281.755945 72.068357 
L 277.300082 72.615468 
L 272.866028 73.317753 
L 268.459185 74.174356 
L 264.084921 75.184235 
L 259.748566 76.346158 
L 255.455403 77.658709 
L 251.210663 79.12029 
L 247.019517 80.729121 
L 242.887072 82.48324 
L 238.818362 84.38051 
L 234.818344 86.418621 
L 230.891892 88.595089 
L 227.043789 90.907262 
L 223.278724 93.352324 
L 219.601285 95.927295 
L 216.01595 98.629038 
L 212.52709 101.454262 
L 209.138953 104.399524 
L 205.855669 107.461237 
L 202.681237 110.635669 
L 199.619524 113.918953 
L 196.674262 117.30709 
L 193.849038 120.79595 
L 191.147295 124.381285 
L 188.572324 128.058724 
L 186.127262 131.823789 
L 183.815089 135.671892 
L 181.638621 139.598344 
L 179.60051 143.598362 
L 177.70324 147.667072 
L 175.949121 151.799517 
L 174.34029 155.990663 
L 172.878709 160.235403 
L 171.566158 164.528566 
L 170.404235 168.864921 
L 169.394356 173.239185 
L 168.537753 177.646028 
L 167.835468 182.080082 
L 167.288357 186.535945 
L 166.897086 191.008186 
L 166.662133 195.491359 
L 166.583783 199.98 
L 166.662133 204.468641 
L 166.897086 208.951814 
L 167.288357 213.424055 
L 167.835468 217.879918 
L 168.537753 222.313972 
L 169.394356 226.720815 
L 170.404235 231.095079 
L 171.566158 235.431434 
L 172.878709 239.724597 
L 174.34029 243.969337 
L 175.949121 248.160483 
L 177.70324 252.292928 
L 179.60051 256.361638 
L 181.638621 260.361656 
L 183.815089 264.288108 
L 186.127262 268.136211 
L 188.572324 271.901276 
L 191.147295 275.578715 
L 193.849038 279.16405 
L 196.674262 282.65291 
L 199.619524 286.041047 
L 202.681237 289.324331 
L 205.855669 292.498763 
L 209.138953 295.560476 
L 212.52709 298.505738 
L 216.01595 301.330962 
L 219.601285 304.032705 
L 223.278724 306.607676 
L 227.043789 309.052738 
L 230.891892 311.364911 
L 234.818344 313.541379 
L 238.818362 315.57949 
L 242.887072 317.47676 
L 247.019517 319.230879 
L 251.210663 320.83971 
L 255.455403 322.301291 
L 259.748566 323.613842 
L 264.084921 324.775765 
L 268.459185 325.785644 
L 272.866028 326.642247 
L 277.300082 327.344532 
L 281.755945 327.891643 
L 286.228186 328.282914 
L 290.711359 328.517867 
L 295.2 328.596217 
L 299.688641 328.517867 
L 304.171814 328.282914 
L 308.644055 327.891643 
L 313.099918 327.344532 
L 317.533972 326.642247 
L 321.940815 325.785644 
L 326.315079 324.775765 
L 330.651434 323.613842 
L 334.944597 322.301291 
L 339.189337 320.83971 
L 343.380483 319.230879 
L 347.512928 317.47676 
L 351.581638 315.57949 
L 355.581656 313.541379 
L 359.508108 311.364911 
L 363.356211 309.052738 
L 367.121276 306.607676 
L 370.798715 304.032705 
L 374.38405 301.330962 
L 377.87291 298.505738 
L 381.261047 295.560476 
L 384.544331 292.498763 
L 387.718763 289.324331 
L 390.780476 286.041047 
L 393.725738 282.65291 
L 396.550962 279.16405 
L 399.252705 275.578715 
L 401.827676 271.901276 
L 404.272738 268.136211 
L 406.584911 264.288108 
L 408.761379 260.361656 
L 410.79949 256.361638 
L 412.69676 252.292928 
L 414.450879 248.160483 
L 416.05971 243.969337 
L 417.521291 239.724597 
L 418.833842 235.431434 
L 419.995765 231.095079 
L 421.005644 226.720815 
L 421.862247 222.313972 
L 422.564532 217.879918 
L 423.111643 213.424055 
L 423.502914 208.951814 
L 423.737867 204.468641 
L 423.816217 199.98 
L 423.816217 199.98 
" style="fill:none;stroke:#ffffff;stroke-linecap:round;"/>
     </g>
     <g id="text_13">
      <!-- 0.25 -->
      <g style="fill:#262626;" transform="translate(414.02589 148.773205)scale(0.1 -0.1)">
       <use xlink:href="#ArialMT-48"/>
       <use x="55.615234" xlink:href="#ArialMT-46"/>
       <use x="83.398438" xlink:href="#ArialMT-50"/>
       <use x="139.013672" xlink:href="#ArialMT-53"/>
      </g>
     </g>
    </g>
   </g>
   <g id="PathCollection_1">
    <defs>
     <path d="M 0 3.5 
C 0.928211 3.5 1.81853 3.131218 2.474874 2.474874 
C 3.131218 1.81853 3.5 0.928211 3.5 0 
C 3.5 -0.928211 3.131218 -1.81853 2.474874 -2.474874 
C 1.81853 -3.131218 0.928211 -3.5 0 -3.5 
C -0.928211 -3.5 -1.81853 -3.131218 -2.474874 -2.474874 
C -3.131218 -1.81853 -3.5 -0.928211 -3.5 0 
C -3.5 0.928211 -3.131218 1.81853 -2.474874 2.474874 
C -1.81853 3.131218 -0.928211 3.5 0 3.5 
z
" id="m9a11dc1df0" style="stroke:#4c72b0;stroke-width:0.3;"/>
    </defs>
    <g clip-path="url(#p484d71733f)">
     <use style="fill:#4c72b0;stroke:#4c72b0;stroke-width:0.3;" x="272.593424" xlink:href="#m9a11dc1df0" y="172.974223"/>
     <use style="fill:#4c72b0;stroke:#4c72b0;stroke-width:0.3;" x="242.179546" xlink:href="#m9a11dc1df0" y="176.671079"/>
     <use style="fill:#4c72b0;stroke:#4c72b0;stroke-width:0.3;" x="280.125584" xlink:href="#m9a11dc1df0" y="174.51488"/>
     <use style="fill:#4c72b0;stroke:#4c72b0;stroke-width:0.3;" x="262.25202" xlink:href="#m9a11dc1df0" y="168.110388"/>
     <use style="fill:#4c72b0;stroke:#4c72b0;stroke-width:0.3;" x="263.579104" xlink:href="#m9a11dc1df0" y="161.088764"/>
     <use style="fill:#4c72b0;stroke:#4c72b0;stroke-width:0.3;" x="229.369426" xlink:href="#m9a11dc1df0" y="171.648439"/>
     <use style="fill:#4c72b0;stroke:#4c72b0;stroke-width:0.3;" x="251.797724" xlink:href="#m9a11dc1df0" y="170.01227"/>
     <use style="fill:#4c72b0;stroke:#4c72b0;stroke-width:0.3;" x="303.602461" xlink:href="#m9a11dc1df0" y="154.817459"/>
     <use style="fill:#4c72b0;stroke:#4c72b0;stroke-width:0.3;" x="294.477678" xlink:href="#m9a11dc1df0" y="150.722698"/>
     <use style="fill:#4c72b0;stroke:#4c72b0;stroke-width:0.3;" x="259.537519" xlink:href="#m9a11dc1df0" y="150.859612"/>
     <use style="fill:#4c72b0;stroke:#4c72b0;stroke-width:0.3;" x="334.863206" xlink:href="#m9a11dc1df0" y="136.636767"/>
     <use style="fill:#4c72b0;stroke:#4c72b0;stroke-width:0.3;" x="254.599455" xlink:href="#m9a11dc1df0" y="145.855473"/>
     <use style="fill:#4c72b0;stroke:#4c72b0;stroke-width:0.3;" x="307.754803" xlink:href="#m9a11dc1df0" y="134.446729"/>
     <use style="fill:#4c72b0;stroke:#4c72b0;stroke-width:0.3;" x="241.540837" xlink:href="#m9a11dc1df0" y="138.757003"/>
     <use style="fill:#4c72b0;stroke:#4c72b0;stroke-width:0.3;" x="248.548299" xlink:href="#m9a11dc1df0" y="141.334121"/>
     <use style="fill:#4c72b0;stroke:#4c72b0;stroke-width:0.3;" x="273.788576" xlink:href="#m9a11dc1df0" y="144.33881"/>
     <use style="fill:#4c72b0;stroke:#4c72b0;stroke-width:0.3;" x="255.924671" xlink:href="#m9a11dc1df0" y="140.304154"/>
     <use style="fill:#4c72b0;stroke:#4c72b0;stroke-width:0.3;" x="270.028728" xlink:href="#m9a11dc1df0" y="128.38617"/>
     <use style="fill:#4c72b0;stroke:#4c72b0;stroke-width:0.3;" x="266.679741" xlink:href="#m9a11dc1df0" y="123.93225"/>
     <use style="fill:#4c72b0;stroke:#4c72b0;stroke-width:0.3;" x="253.931659" xlink:href="#m9a11dc1df0" y="126.855438"/>
     <use style="fill:#4c72b0;stroke:#4c72b0;stroke-width:0.3;" x="260.341159" xlink:href="#m9a11dc1df0" y="121.445972"/>
     <use style="fill:#4c72b0;stroke:#4c72b0;stroke-width:0.3;" x="294.759642" xlink:href="#m9a11dc1df0" y="116.136769"/>
     <use style="fill:#4c72b0;stroke:#4c72b0;stroke-width:0.3;" x="244.515695" xlink:href="#m9a11dc1df0" y="120.393011"/>
     <use style="fill:#4c72b0;stroke:#4c72b0;stroke-width:0.3;" x="284.021645" xlink:href="#m9a11dc1df0" y="113.818598"/>
    </g>
   </g>
   <g id="PathCollection_2">
    <defs>
     <path d="M 0 3.5 
C 0.928211 3.5 1.81853 3.131218 2.474874 2.474874 
C 3.131218 1.81853 3.5 0.928211 3.5 0 
C 3.5 -0.928211 3.131218 -1.81853 2.474874 -2.474874 
C 1.81853 -3.131218 0.928211 -3.5 0 -3.5 
C -0.928211 -3.5 -1.81853 -3.131218 -2.474874 -2.474874 
C -3.131218 -1.81853 -3.5 -0.928211 -3.5 0 
C -3.5 0.928211 -3.131218 1.81853 -2.474874 2.474874 
C -1.81853 3.131218 -0.928211 3.5 0 3.5 
z
" id="m908d1437a2" style="stroke:#55a868;stroke-width:0.3;"/>
    </defs>
    <g clip-path="url(#p484d71733f)">
     <use style="fill:#55a868;stroke:#55a868;stroke-width:0.3;" x="288.417772" xlink:href="#m908d1437a2" y="111.125947"/>
     <use style="fill:#55a868;stroke:#55a868;stroke-width:0.3;" x="228.9375" xlink:href="#m908d1437a2" y="117.104411"/>
     <use style="fill:#55a868;stroke:#55a868;stroke-width:0.3;" x="207.574919" xlink:href="#m908d1437a2" y="118.655347"/>
     <use style="fill:#55a868;stroke:#55a868;stroke-width:0.3;" x="250.997011" xlink:href="#m908d1437a2" y="116.740228"/>
     <use style="fill:#55a868;stroke:#55a868;stroke-width:0.3;" x="270.300214" xlink:href="#m908d1437a2" y="124.088927"/>
     <use style="fill:#55a868;stroke:#55a868;stroke-width:0.3;" x="277.121633" xlink:href="#m908d1437a2" y="118.703574"/>
     <use style="fill:#55a868;stroke:#55a868;stroke-width:0.3;" x="230.636625" xlink:href="#m908d1437a2" y="118.627386"/>
     <use style="fill:#55a868;stroke:#55a868;stroke-width:0.3;" x="248.604437" xlink:href="#m908d1437a2" y="121.272769"/>
     <use style="fill:#55a868;stroke:#55a868;stroke-width:0.3;" x="241.101883" xlink:href="#m908d1437a2" y="113.549666"/>
     <use style="fill:#55a868;stroke:#55a868;stroke-width:0.3;" x="231.287085" xlink:href="#m908d1437a2" y="110.030732"/>
     <use style="fill:#55a868;stroke:#55a868;stroke-width:0.3;" x="219.169364" xlink:href="#m908d1437a2" y="108.676325"/>
     <use style="fill:#55a868;stroke:#55a868;stroke-width:0.3;" x="208.636536" xlink:href="#m908d1437a2" y="107.176312"/>
     <use style="fill:#55a868;stroke:#55a868;stroke-width:0.3;" x="230.453545" xlink:href="#m908d1437a2" y="113.602549"/>
     <use style="fill:#55a868;stroke:#55a868;stroke-width:0.3;" x="234.589576" xlink:href="#m908d1437a2" y="103.481696"/>
     <use style="fill:#55a868;stroke:#55a868;stroke-width:0.3;" x="228.644728" xlink:href="#m908d1437a2" y="99.49982"/>
     <use style="fill:#55a868;stroke:#55a868;stroke-width:0.3;" x="243.104878" xlink:href="#m908d1437a2" y="95.86894"/>
     <use style="fill:#55a868;stroke:#55a868;stroke-width:0.3;" x="274.52463" xlink:href="#m908d1437a2" y="93.644202"/>
     <use style="fill:#55a868;stroke:#55a868;stroke-width:0.3;" x="234.093996" xlink:href="#m908d1437a2" y="100.820815"/>
     <use style="fill:#55a868;stroke:#55a868;stroke-width:0.3;" x="234.188321" xlink:href="#m908d1437a2" y="95.924791"/>
     <use style="fill:#55a868;stroke:#55a868;stroke-width:0.3;" x="227.021322" xlink:href="#m908d1437a2" y="87.247113"/>
     <use style="fill:#55a868;stroke:#55a868;stroke-width:0.3;" x="230.035647" xlink:href="#m908d1437a2" y="97.700363"/>
     <use style="fill:#55a868;stroke:#55a868;stroke-width:0.3;" x="232.276603" xlink:href="#m908d1437a2" y="101.570606"/>
     <use style="fill:#55a868;stroke:#55a868;stroke-width:0.3;" x="238.586176" xlink:href="#m908d1437a2" y="111.355541"/>
     <use style="fill:#55a868;stroke:#55a868;stroke-width:0.3;" x="257.348148" xlink:href="#m908d1437a2" y="116.616069"/>
    </g>
   </g>
   <g id="PathCollection_3">
    <defs>
     <path d="M 0 3.5 
C 0.928211 3.5 1.81853 3.131218 2.474874 2.474874 
C 3.131218 1.81853 3.5 0.928211 3.5 0 
C 3.5 -0.928211 3.131218 -1.81853 2.474874 -2.474874 
C 1.81853 -3.131218 0.928211 -3.5 0 -3.5 
C -0.928211 -3.5 -1.81853 -3.131218 -2.474874 -2.474874 
C -3.131218 -1.81853 -3.5 -0.928211 -3.5 0 
C -3.5 0.928211 -3.131218 1.81853 -2.474874 2.474874 
C -1.81853 3.131218 -0.928211 3.5 0 3.5 
z
" id="mfdbcc96865" style="stroke:#c44e52;stroke-width:0.3;"/>
    </defs>
    <g clip-path="url(#p484d71733f)">
     <use style="fill:#c44e52;stroke:#c44e52;stroke-width:0.3;" x="262.210394" xlink:href="#mfdbcc96865" y="122.029476"/>
     <use style="fill:#c44e52;stroke:#c44e52;stroke-width:0.3;" x="265.075433" xlink:href="#mfdbcc96865" y="123.84885"/>
     <use style="fill:#c44e52;stroke:#c44e52;stroke-width:0.3;" x="307.948773" xlink:href="#mfdbcc96865" y="121.291743"/>
     <use style="fill:#c44e52;stroke:#c44e52;stroke-width:0.3;" x="269.375661" xlink:href="#mfdbcc96865" y="111.954348"/>
     <use style="fill:#c44e52;stroke:#c44e52;stroke-width:0.3;" x="260.950934" xlink:href="#mfdbcc96865" y="108.806399"/>
     <use style="fill:#c44e52;stroke:#c44e52;stroke-width:0.3;" x="281.114335" xlink:href="#mfdbcc96865" y="116.156952"/>
     <use style="fill:#c44e52;stroke:#c44e52;stroke-width:0.3;" x="191.397666" xlink:href="#mfdbcc96865" y="129.868143"/>
     <use style="fill:#c44e52;stroke:#c44e52;stroke-width:0.3;" x="289.325924" xlink:href="#mfdbcc96865" y="151.278577"/>
     <use style="fill:#c44e52;stroke:#c44e52;stroke-width:0.3;" x="257.349873" xlink:href="#mfdbcc96865" y="164.434785"/>
     <use style="fill:#c44e52;stroke:#c44e52;stroke-width:0.3;" x="272.60648" xlink:href="#mfdbcc96865" y="178.850088"/>
     <use style="fill:#c44e52;stroke:#c44e52;stroke-width:0.3;" x="219.789324" xlink:href="#mfdbcc96865" y="184.540436"/>
     <use style="fill:#c44e52;stroke:#c44e52;stroke-width:0.3;" x="236.634911" xlink:href="#mfdbcc96865" y="196.962749"/>
     <use style="fill:#c44e52;stroke:#c44e52;stroke-width:0.3;" x="289.276524" xlink:href="#mfdbcc96865" y="206.529629"/>
     <use style="fill:#c44e52;stroke:#c44e52;stroke-width:0.3;" x="333.230827" xlink:href="#mfdbcc96865" y="205.428703"/>
     <use style="fill:#c44e52;stroke:#c44e52;stroke-width:0.3;" x="378.833292" xlink:href="#mfdbcc96865" y="209.617717"/>
     <use style="fill:#c44e52;stroke:#c44e52;stroke-width:0.3;" x="340.636325" xlink:href="#mfdbcc96865" y="209.61972"/>
     <use style="fill:#c44e52;stroke:#c44e52;stroke-width:0.3;" x="331.738479" xlink:href="#mfdbcc96865" y="206.740408"/>
     <use style="fill:#c44e52;stroke:#c44e52;stroke-width:0.3;" x="284.409575" xlink:href="#mfdbcc96865" y="192.573937"/>
     <use style="fill:#c44e52;stroke:#c44e52;stroke-width:0.3;" x="314.611609" xlink:href="#mfdbcc96865" y="204.62166"/>
     <use style="fill:#c44e52;stroke:#c44e52;stroke-width:0.3;" x="348.800819" xlink:href="#mfdbcc96865" y="203.457889"/>
     <use style="fill:#c44e52;stroke:#c44e52;stroke-width:0.3;" x="307.114802" xlink:href="#mfdbcc96865" y="216.418228"/>
     <use style="fill:#c44e52;stroke:#c44e52;stroke-width:0.3;" x="387.855344" xlink:href="#mfdbcc96865" y="223.726355"/>
     <use style="fill:#c44e52;stroke:#c44e52;stroke-width:0.3;" x="323.56889" xlink:href="#mfdbcc96865" y="227.283765"/>
     <use style="fill:#c44e52;stroke:#c44e52;stroke-width:0.3;" x="334.72216" xlink:href="#mfdbcc96865" y="235.719853"/>
    </g>
   </g>
   <g id="line2d_14">
    <path clip-path="url(#p484d71733f)" d="M 295.2 199.98 
L 238.169016 81.21762 
" style="fill:none;stroke:#ff0000;stroke-dasharray:7.4,3.2;stroke-dashoffset:0;stroke-width:2;"/>
   </g>
   <g id="patch_3">
    <path d="M 447.66 199.98 
C 447.66 179.959136 443.716326 160.13295 436.054674 141.636084 
C 428.393021 123.139218 417.162388 106.331389 403.0055 92.1745 
C 388.848611 78.017612 372.040782 66.786979 353.543916 59.125326 
C 335.04705 51.463674 315.220864 47.52 295.2 47.52 
C 275.179136 47.52 255.35295 51.463674 236.856084 59.125326 
C 218.359218 66.786979 201.551389 78.017612 187.3945 92.1745 
C 173.237612 106.331389 162.006979 123.139218 154.345326 141.636084 
C 146.683674 160.13295 142.74 179.959136 142.74 199.98 
C 142.74 220.000864 146.683674 239.82705 154.345326 258.323916 
C 162.006979 276.820782 173.237612 293.628611 187.3945 307.7855 
C 201.551389 321.942388 218.359218 333.173021 236.856084 340.834674 
C 255.35295 348.496326 275.179136 352.44 295.2 352.44 
C 315.220864 352.44 335.04705 348.496326 353.543916 340.834674 
C 372.040782 333.173021 388.848611 321.942388 403.0055 307.7855 
C 417.162388 293.628611 428.393021 276.820782 436.054674 258.323916 
C 443.716326 239.82705 447.66 220.000864 447.66 199.98 
" style="fill:none;"/>
   </g>
   <g id="text_14">
    <!-- Distribution of projected eye movement velocity on the screen - NewGat1_10_21 -->
    <defs>
     <path d="M 7.71875 0 
L 7.71875 71.578125 
L 32.375 71.578125 
Q 40.71875 71.578125 45.125 70.5625 
Q 51.265625 69.140625 55.609375 65.4375 
Q 61.28125 60.640625 64.078125 53.1875 
Q 66.890625 45.75 66.890625 36.1875 
Q 66.890625 28.03125 64.984375 21.734375 
Q 63.09375 15.4375 60.109375 11.296875 
Q 57.125 7.171875 53.578125 4.796875 
Q 50.046875 2.4375 45.046875 1.21875 
Q 40.046875 0 33.546875 0 
z
M 17.1875 8.453125 
L 32.46875 8.453125 
Q 39.546875 8.453125 43.578125 9.765625 
Q 47.609375 11.078125 50 13.484375 
Q 53.375 16.84375 55.25 22.53125 
Q 57.125 28.21875 57.125 36.328125 
Q 57.125 47.5625 53.4375 53.59375 
Q 49.75 59.625 44.484375 61.671875 
Q 40.671875 63.140625 32.234375 63.140625 
L 17.1875 63.140625 
z
" id="ArialMT-68"/>
     <path d="M 6.640625 61.46875 
L 6.640625 71.578125 
L 15.4375 71.578125 
L 15.4375 61.46875 
z
M 6.640625 0 
L 6.640625 51.859375 
L 15.4375 51.859375 
L 15.4375 0 
z
" id="ArialMT-105"/>
     <path d="M 3.078125 15.484375 
L 11.765625 16.84375 
Q 12.5 11.625 15.84375 8.84375 
Q 19.1875 6.0625 25.203125 6.0625 
Q 31.25 6.0625 34.171875 8.515625 
Q 37.109375 10.984375 37.109375 14.3125 
Q 37.109375 17.28125 34.515625 19 
Q 32.71875 20.171875 25.53125 21.96875 
Q 15.875 24.421875 12.140625 26.203125 
Q 8.40625 27.984375 6.46875 31.125 
Q 4.546875 34.28125 4.546875 38.09375 
Q 4.546875 41.546875 6.125 44.5 
Q 7.71875 47.46875 10.453125 49.421875 
Q 12.5 50.921875 16.03125 51.96875 
Q 19.578125 53.03125 23.640625 53.03125 
Q 29.734375 53.03125 34.34375 51.265625 
Q 38.96875 49.515625 41.15625 46.5 
Q 43.359375 43.5 44.1875 38.484375 
L 35.59375 37.3125 
Q 35.015625 41.3125 32.203125 43.546875 
Q 29.390625 45.796875 24.265625 45.796875 
Q 18.21875 45.796875 15.625 43.796875 
Q 13.03125 41.796875 13.03125 39.109375 
Q 13.03125 37.40625 14.109375 36.03125 
Q 15.1875 34.625 17.484375 33.6875 
Q 18.796875 33.203125 25.25 31.453125 
Q 34.578125 28.953125 38.25 27.359375 
Q 41.9375 25.78125 44.03125 22.75 
Q 46.140625 19.734375 46.140625 15.234375 
Q 46.140625 10.84375 43.578125 6.953125 
Q 41.015625 3.078125 36.171875 0.953125 
Q 31.34375 -1.171875 25.25 -1.171875 
Q 15.140625 -1.171875 9.84375 3.03125 
Q 4.546875 7.234375 3.078125 15.484375 
z
" id="ArialMT-115"/>
     <path d="M 25.78125 7.859375 
L 27.046875 0.09375 
Q 23.34375 -0.6875 20.40625 -0.6875 
Q 15.625 -0.6875 12.984375 0.828125 
Q 10.359375 2.34375 9.28125 4.8125 
Q 8.203125 7.28125 8.203125 15.1875 
L 8.203125 45.015625 
L 1.765625 45.015625 
L 1.765625 51.859375 
L 8.203125 51.859375 
L 8.203125 64.703125 
L 16.9375 69.96875 
L 16.9375 51.859375 
L 25.78125 51.859375 
L 25.78125 45.015625 
L 16.9375 45.015625 
L 16.9375 14.703125 
Q 16.9375 10.9375 17.40625 9.859375 
Q 17.875 8.796875 18.921875 8.15625 
Q 19.96875 7.515625 21.921875 7.515625 
Q 23.390625 7.515625 25.78125 7.859375 
z
" id="ArialMT-116"/>
     <path d="M 6.5 0 
L 6.5 51.859375 
L 14.40625 51.859375 
L 14.40625 44 
Q 17.4375 49.515625 20 51.265625 
Q 22.5625 53.03125 25.640625 53.03125 
Q 30.078125 53.03125 34.671875 50.203125 
L 31.640625 42.046875 
Q 28.421875 43.953125 25.203125 43.953125 
Q 22.3125 43.953125 20.015625 42.21875 
Q 17.71875 40.484375 16.75 37.40625 
Q 15.28125 32.71875 15.28125 27.15625 
L 15.28125 0 
z
" id="ArialMT-114"/>
     <path d="M 14.703125 0 
L 6.546875 0 
L 6.546875 71.578125 
L 15.328125 71.578125 
L 15.328125 46.046875 
Q 20.90625 53.03125 29.546875 53.03125 
Q 34.328125 53.03125 38.59375 51.09375 
Q 42.875 49.171875 45.625 45.671875 
Q 48.390625 42.1875 49.953125 37.25 
Q 51.515625 32.328125 51.515625 26.703125 
Q 51.515625 13.375 44.921875 6.09375 
Q 38.328125 -1.171875 29.109375 -1.171875 
Q 19.921875 -1.171875 14.703125 6.5 
z
M 14.59375 26.3125 
Q 14.59375 17 17.140625 12.84375 
Q 21.296875 6.0625 28.375 6.0625 
Q 34.125 6.0625 38.328125 11.0625 
Q 42.53125 16.0625 42.53125 25.984375 
Q 42.53125 36.140625 38.5 40.96875 
Q 34.46875 45.796875 28.765625 45.796875 
Q 23 45.796875 18.796875 40.796875 
Q 14.59375 35.796875 14.59375 26.3125 
z
" id="ArialMT-98"/>
     <path d="M 40.578125 0 
L 40.578125 7.625 
Q 34.515625 -1.171875 24.125 -1.171875 
Q 19.53125 -1.171875 15.546875 0.578125 
Q 11.578125 2.34375 9.640625 5 
Q 7.71875 7.671875 6.9375 11.53125 
Q 6.390625 14.109375 6.390625 19.734375 
L 6.390625 51.859375 
L 15.1875 51.859375 
L 15.1875 23.09375 
Q 15.1875 16.21875 15.71875 13.8125 
Q 16.546875 10.359375 19.234375 8.375 
Q 21.921875 6.390625 25.875 6.390625 
Q 29.828125 6.390625 33.296875 8.421875 
Q 36.765625 10.453125 38.203125 13.9375 
Q 39.65625 17.4375 39.65625 24.078125 
L 39.65625 51.859375 
L 48.4375 51.859375 
L 48.4375 0 
z
" id="ArialMT-117"/>
     <path d="M 3.328125 25.921875 
Q 3.328125 40.328125 11.328125 47.265625 
Q 18.015625 53.03125 27.640625 53.03125 
Q 38.328125 53.03125 45.109375 46.015625 
Q 51.90625 39.015625 51.90625 26.65625 
Q 51.90625 16.65625 48.90625 10.90625 
Q 45.90625 5.171875 40.15625 2 
Q 34.421875 -1.171875 27.640625 -1.171875 
Q 16.75 -1.171875 10.03125 5.8125 
Q 3.328125 12.796875 3.328125 25.921875 
z
M 12.359375 25.921875 
Q 12.359375 15.96875 16.703125 11.015625 
Q 21.046875 6.0625 27.640625 6.0625 
Q 34.1875 6.0625 38.53125 11.03125 
Q 42.875 16.015625 42.875 26.21875 
Q 42.875 35.84375 38.5 40.796875 
Q 34.125 45.75 27.640625 45.75 
Q 21.046875 45.75 16.703125 40.8125 
Q 12.359375 35.890625 12.359375 25.921875 
z
" id="ArialMT-111"/>
     <path d="M 6.59375 0 
L 6.59375 51.859375 
L 14.5 51.859375 
L 14.5 44.484375 
Q 20.21875 53.03125 31 53.03125 
Q 35.6875 53.03125 39.625 51.34375 
Q 43.5625 49.65625 45.515625 46.921875 
Q 47.46875 44.1875 48.25 40.4375 
Q 48.734375 37.984375 48.734375 31.890625 
L 48.734375 0 
L 39.9375 0 
L 39.9375 31.546875 
Q 39.9375 36.921875 38.90625 39.578125 
Q 37.890625 42.234375 35.28125 43.8125 
Q 32.671875 45.40625 29.15625 45.40625 
Q 23.53125 45.40625 19.453125 41.84375 
Q 15.375 38.28125 15.375 28.328125 
L 15.375 0 
z
" id="ArialMT-110"/>
     <path id="ArialMT-32"/>
     <path d="M 8.6875 0 
L 8.6875 45.015625 
L 0.921875 45.015625 
L 0.921875 51.859375 
L 8.6875 51.859375 
L 8.6875 57.375 
Q 8.6875 62.59375 9.625 65.140625 
Q 10.890625 68.5625 14.078125 70.671875 
Q 17.28125 72.796875 23.046875 72.796875 
Q 26.765625 72.796875 31.25 71.921875 
L 29.9375 64.265625 
Q 27.203125 64.75 24.75 64.75 
Q 20.75 64.75 19.09375 63.03125 
Q 17.4375 61.328125 17.4375 56.640625 
L 17.4375 51.859375 
L 27.546875 51.859375 
L 27.546875 45.015625 
L 17.4375 45.015625 
L 17.4375 0 
z
" id="ArialMT-102"/>
     <path d="M 6.59375 -19.875 
L 6.59375 51.859375 
L 14.59375 51.859375 
L 14.59375 45.125 
Q 17.4375 49.078125 21 51.046875 
Q 24.5625 53.03125 29.640625 53.03125 
Q 36.28125 53.03125 41.359375 49.609375 
Q 46.4375 46.1875 49.015625 39.953125 
Q 51.609375 33.734375 51.609375 26.3125 
Q 51.609375 18.359375 48.75 11.984375 
Q 45.90625 5.609375 40.453125 2.21875 
Q 35.015625 -1.171875 29 -1.171875 
Q 24.609375 -1.171875 21.109375 0.6875 
Q 17.625 2.546875 15.375 5.375 
L 15.375 -19.875 
z
M 14.546875 25.640625 
Q 14.546875 15.625 18.59375 10.84375 
Q 22.65625 6.0625 28.421875 6.0625 
Q 34.28125 6.0625 38.453125 11.015625 
Q 42.625 15.96875 42.625 26.375 
Q 42.625 36.28125 38.546875 41.203125 
Q 34.46875 46.140625 28.8125 46.140625 
Q 23.1875 46.140625 18.859375 40.890625 
Q 14.546875 35.640625 14.546875 25.640625 
z
" id="ArialMT-112"/>
     <path d="M 6.546875 61.375 
L 6.546875 71.578125 
L 15.328125 71.578125 
L 15.328125 61.375 
z
M -4.59375 -20.125 
L -2.9375 -12.640625 
Q -0.296875 -13.328125 1.21875 -13.328125 
Q 3.90625 -13.328125 5.21875 -11.546875 
Q 6.546875 -9.765625 6.546875 -2.640625 
L 6.546875 51.859375 
L 15.328125 51.859375 
L 15.328125 -2.828125 
Q 15.328125 -12.40625 12.84375 -16.15625 
Q 9.671875 -21.046875 2.296875 -21.046875 
Q -1.265625 -21.046875 -4.59375 -20.125 
z
" id="ArialMT-106"/>
     <path d="M 42.09375 16.703125 
L 51.171875 15.578125 
Q 49.03125 7.625 43.21875 3.21875 
Q 37.40625 -1.171875 28.375 -1.171875 
Q 17 -1.171875 10.328125 5.828125 
Q 3.65625 12.84375 3.65625 25.484375 
Q 3.65625 38.578125 10.390625 45.796875 
Q 17.140625 53.03125 27.875 53.03125 
Q 38.28125 53.03125 44.875 45.953125 
Q 51.46875 38.875 51.46875 26.03125 
Q 51.46875 25.25 51.421875 23.6875 
L 12.75 23.6875 
Q 13.234375 15.140625 17.578125 10.59375 
Q 21.921875 6.0625 28.421875 6.0625 
Q 33.25 6.0625 36.671875 8.59375 
Q 40.09375 11.140625 42.09375 16.703125 
z
M 13.234375 30.90625 
L 42.1875 30.90625 
Q 41.609375 37.453125 38.875 40.71875 
Q 34.671875 45.796875 27.984375 45.796875 
Q 21.921875 45.796875 17.796875 41.75 
Q 13.671875 37.703125 13.234375 30.90625 
z
" id="ArialMT-101"/>
     <path d="M 40.4375 19 
L 49.078125 17.875 
Q 47.65625 8.9375 41.8125 3.875 
Q 35.984375 -1.171875 27.484375 -1.171875 
Q 16.84375 -1.171875 10.375 5.78125 
Q 3.90625 12.75 3.90625 25.734375 
Q 3.90625 34.125 6.6875 40.421875 
Q 9.46875 46.734375 15.15625 49.875 
Q 20.84375 53.03125 27.546875 53.03125 
Q 35.984375 53.03125 41.359375 48.75 
Q 46.734375 44.484375 48.25 36.625 
L 39.703125 35.296875 
Q 38.484375 40.53125 35.375 43.15625 
Q 32.28125 45.796875 27.875 45.796875 
Q 21.234375 45.796875 17.078125 41.03125 
Q 12.9375 36.28125 12.9375 25.984375 
Q 12.9375 15.53125 16.9375 10.796875 
Q 20.953125 6.0625 27.390625 6.0625 
Q 32.5625 6.0625 36.03125 9.234375 
Q 39.5 12.40625 40.4375 19 
z
" id="ArialMT-99"/>
     <path d="M 40.234375 0 
L 40.234375 6.546875 
Q 35.296875 -1.171875 25.734375 -1.171875 
Q 19.53125 -1.171875 14.328125 2.25 
Q 9.125 5.671875 6.265625 11.796875 
Q 3.421875 17.921875 3.421875 25.875 
Q 3.421875 33.640625 6 39.96875 
Q 8.59375 46.296875 13.765625 49.65625 
Q 18.953125 53.03125 25.34375 53.03125 
Q 30.03125 53.03125 33.6875 51.046875 
Q 37.359375 49.078125 39.65625 45.90625 
L 39.65625 71.578125 
L 48.390625 71.578125 
L 48.390625 0 
z
M 12.453125 25.875 
Q 12.453125 15.921875 16.640625 10.984375 
Q 20.84375 6.0625 26.5625 6.0625 
Q 32.328125 6.0625 36.34375 10.765625 
Q 40.375 15.484375 40.375 25.140625 
Q 40.375 35.796875 36.265625 40.765625 
Q 32.171875 45.75 26.171875 45.75 
Q 20.3125 45.75 16.375 40.96875 
Q 12.453125 36.1875 12.453125 25.875 
z
" id="ArialMT-100"/>
     <path d="M 6.203125 -19.96875 
L 5.21875 -11.71875 
Q 8.109375 -12.5 10.25 -12.5 
Q 13.1875 -12.5 14.9375 -11.515625 
Q 16.703125 -10.546875 17.828125 -8.796875 
Q 18.65625 -7.46875 20.515625 -2.25 
Q 20.75 -1.515625 21.296875 -0.09375 
L 1.609375 51.859375 
L 11.078125 51.859375 
L 21.875 21.828125 
Q 23.96875 16.109375 25.640625 9.8125 
Q 27.15625 15.875 29.25 21.625 
L 40.328125 51.859375 
L 49.125 51.859375 
L 29.390625 -0.875 
Q 26.21875 -9.421875 24.46875 -12.640625 
Q 22.125 -17 19.09375 -19.015625 
Q 16.0625 -21.046875 11.859375 -21.046875 
Q 9.328125 -21.046875 6.203125 -19.96875 
z
" id="ArialMT-121"/>
     <path d="M 6.59375 0 
L 6.59375 51.859375 
L 14.453125 51.859375 
L 14.453125 44.578125 
Q 16.890625 48.390625 20.9375 50.703125 
Q 25 53.03125 30.171875 53.03125 
Q 35.9375 53.03125 39.625 50.640625 
Q 43.3125 48.25 44.828125 43.953125 
Q 50.984375 53.03125 60.84375 53.03125 
Q 68.5625 53.03125 72.703125 48.75 
Q 76.859375 44.484375 76.859375 35.59375 
L 76.859375 0 
L 68.109375 0 
L 68.109375 32.671875 
Q 68.109375 37.9375 67.25 40.25 
Q 66.40625 42.578125 64.15625 43.984375 
Q 61.921875 45.40625 58.890625 45.40625 
Q 53.421875 45.40625 49.796875 41.765625 
Q 46.1875 38.140625 46.1875 30.125 
L 46.1875 0 
L 37.40625 0 
L 37.40625 33.6875 
Q 37.40625 39.546875 35.25 42.46875 
Q 33.109375 45.40625 28.21875 45.40625 
Q 24.515625 45.40625 21.359375 43.453125 
Q 18.21875 41.5 16.796875 37.734375 
Q 15.375 33.984375 15.375 26.90625 
L 15.375 0 
z
" id="ArialMT-109"/>
     <path d="M 21 0 
L 1.265625 51.859375 
L 10.546875 51.859375 
L 21.6875 20.796875 
Q 23.484375 15.765625 25 10.359375 
Q 26.171875 14.453125 28.265625 20.21875 
L 39.796875 51.859375 
L 48.828125 51.859375 
L 29.203125 0 
z
" id="ArialMT-118"/>
     <path d="M 6.390625 0 
L 6.390625 71.578125 
L 15.1875 71.578125 
L 15.1875 0 
z
" id="ArialMT-108"/>
     <path d="M 6.59375 0 
L 6.59375 71.578125 
L 15.375 71.578125 
L 15.375 45.90625 
Q 21.53125 53.03125 30.90625 53.03125 
Q 36.671875 53.03125 40.921875 50.75 
Q 45.171875 48.484375 47 44.484375 
Q 48.828125 40.484375 48.828125 32.859375 
L 48.828125 0 
L 40.046875 0 
L 40.046875 32.859375 
Q 40.046875 39.453125 37.1875 42.453125 
Q 34.328125 45.453125 29.109375 45.453125 
Q 25.203125 45.453125 21.75 43.421875 
Q 18.3125 41.40625 16.84375 37.9375 
Q 15.375 34.46875 15.375 28.375 
L 15.375 0 
z
" id="ArialMT-104"/>
     <path d="M 3.171875 21.484375 
L 3.171875 30.328125 
L 30.171875 30.328125 
L 30.171875 21.484375 
z
" id="ArialMT-45"/>
     <path d="M 7.625 0 
L 7.625 71.578125 
L 17.328125 71.578125 
L 54.9375 15.375 
L 54.9375 71.578125 
L 64.015625 71.578125 
L 64.015625 0 
L 54.296875 0 
L 16.703125 56.25 
L 16.703125 0 
z
" id="ArialMT-78"/>
     <path d="M 16.15625 0 
L 0.296875 51.859375 
L 9.375 51.859375 
L 17.625 21.921875 
L 20.703125 10.796875 
Q 20.90625 11.625 23.390625 21.484375 
L 31.640625 51.859375 
L 40.671875 51.859375 
L 48.4375 21.78125 
L 51.03125 11.859375 
L 54 21.875 
L 62.890625 51.859375 
L 71.4375 51.859375 
L 55.21875 0 
L 46.09375 0 
L 37.84375 31.0625 
L 35.84375 39.890625 
L 25.34375 0 
z
" id="ArialMT-119"/>
     <path d="M 41.21875 28.078125 
L 41.21875 36.46875 
L 71.53125 36.53125 
L 71.53125 9.96875 
Q 64.546875 4.390625 57.125 1.578125 
Q 49.703125 -1.21875 41.890625 -1.21875 
Q 31.34375 -1.21875 22.71875 3.296875 
Q 14.109375 7.8125 9.71875 16.359375 
Q 5.328125 24.90625 5.328125 35.453125 
Q 5.328125 45.90625 9.6875 54.953125 
Q 14.0625 64.015625 22.265625 68.40625 
Q 30.46875 72.796875 41.15625 72.796875 
Q 48.921875 72.796875 55.1875 70.28125 
Q 61.46875 67.78125 65.03125 63.28125 
Q 68.609375 58.796875 70.453125 51.5625 
L 61.921875 49.21875 
Q 60.296875 54.6875 57.90625 57.8125 
Q 55.515625 60.9375 51.0625 62.8125 
Q 46.625 64.703125 41.21875 64.703125 
Q 34.71875 64.703125 29.984375 62.71875 
Q 25.25 60.75 22.34375 57.515625 
Q 19.4375 54.296875 17.828125 50.4375 
Q 15.09375 43.796875 15.09375 36.03125 
Q 15.09375 26.46875 18.390625 20.015625 
Q 21.6875 13.578125 27.984375 10.453125 
Q 34.28125 7.328125 41.359375 7.328125 
Q 47.515625 7.328125 53.375 9.6875 
Q 59.234375 12.0625 62.25 14.75 
L 62.25 28.078125 
z
" id="ArialMT-71"/>
     <path d="M 40.4375 6.390625 
Q 35.546875 2.25 31.03125 0.53125 
Q 26.515625 -1.171875 21.34375 -1.171875 
Q 12.796875 -1.171875 8.203125 3 
Q 3.609375 7.171875 3.609375 13.671875 
Q 3.609375 17.484375 5.34375 20.625 
Q 7.078125 23.78125 9.890625 25.6875 
Q 12.703125 27.59375 16.21875 28.5625 
Q 18.796875 29.25 24.03125 29.890625 
Q 34.671875 31.15625 39.703125 32.90625 
Q 39.75 34.71875 39.75 35.203125 
Q 39.75 40.578125 37.25 42.78125 
Q 33.890625 45.75 27.25 45.75 
Q 21.046875 45.75 18.09375 43.578125 
Q 15.140625 41.40625 13.71875 35.890625 
L 5.125 37.0625 
Q 6.296875 42.578125 8.984375 45.96875 
Q 11.671875 49.359375 16.75 51.1875 
Q 21.828125 53.03125 28.515625 53.03125 
Q 35.15625 53.03125 39.296875 51.46875 
Q 43.453125 49.90625 45.40625 47.53125 
Q 47.359375 45.171875 48.140625 41.546875 
Q 48.578125 39.3125 48.578125 33.453125 
L 48.578125 21.734375 
Q 48.578125 9.46875 49.140625 6.21875 
Q 49.703125 2.984375 51.375 0 
L 42.1875 0 
Q 40.828125 2.734375 40.4375 6.390625 
z
M 39.703125 26.03125 
Q 34.90625 24.078125 25.34375 22.703125 
Q 19.921875 21.921875 17.671875 20.9375 
Q 15.4375 19.96875 14.203125 18.09375 
Q 12.984375 16.21875 12.984375 13.921875 
Q 12.984375 10.40625 15.640625 8.0625 
Q 18.3125 5.71875 23.4375 5.71875 
Q 28.515625 5.71875 32.46875 7.9375 
Q 36.421875 10.15625 38.28125 14.015625 
Q 39.703125 17 39.703125 22.796875 
z
" id="ArialMT-97"/>
     <path d="M -1.515625 -19.875 
L -1.515625 -13.53125 
L 56.734375 -13.53125 
L 56.734375 -19.875 
z
" id="ArialMT-95"/>
    </defs>
    <g style="fill:#262626;" transform="translate(81.10125 23.748375)scale(0.12 -0.12)">
     <use xlink:href="#ArialMT-68"/>
     <use x="72.216797" xlink:href="#ArialMT-105"/>
     <use x="94.433594" xlink:href="#ArialMT-115"/>
     <use x="144.433594" xlink:href="#ArialMT-116"/>
     <use x="172.216797" xlink:href="#ArialMT-114"/>
     <use x="205.517578" xlink:href="#ArialMT-105"/>
     <use x="227.734375" xlink:href="#ArialMT-98"/>
     <use x="283.349609" xlink:href="#ArialMT-117"/>
     <use x="338.964844" xlink:href="#ArialMT-116"/>
     <use x="366.748047" xlink:href="#ArialMT-105"/>
     <use x="388.964844" xlink:href="#ArialMT-111"/>
     <use x="444.580078" xlink:href="#ArialMT-110"/>
     <use x="500.195312" xlink:href="#ArialMT-32"/>
     <use x="527.978516" xlink:href="#ArialMT-111"/>
     <use x="583.59375" xlink:href="#ArialMT-102"/>
     <use x="611.376953" xlink:href="#ArialMT-32"/>
     <use x="639.160156" xlink:href="#ArialMT-112"/>
     <use x="694.775391" xlink:href="#ArialMT-114"/>
     <use x="728.076172" xlink:href="#ArialMT-111"/>
     <use x="783.691406" xlink:href="#ArialMT-106"/>
     <use x="805.908203" xlink:href="#ArialMT-101"/>
     <use x="861.523438" xlink:href="#ArialMT-99"/>
     <use x="911.523438" xlink:href="#ArialMT-116"/>
     <use x="939.306641" xlink:href="#ArialMT-101"/>
     <use x="994.921875" xlink:href="#ArialMT-100"/>
     <use x="1050.537109" xlink:href="#ArialMT-32"/>
     <use x="1078.320312" xlink:href="#ArialMT-101"/>
     <use x="1133.935547" xlink:href="#ArialMT-121"/>
     <use x="1183.935547" xlink:href="#ArialMT-101"/>
     <use x="1239.550781" xlink:href="#ArialMT-32"/>
     <use x="1267.333984" xlink:href="#ArialMT-109"/>
     <use x="1350.634766" xlink:href="#ArialMT-111"/>
     <use x="1406.25" xlink:href="#ArialMT-118"/>
     <use x="1456.25" xlink:href="#ArialMT-101"/>
     <use x="1511.865234" xlink:href="#ArialMT-109"/>
     <use x="1595.166016" xlink:href="#ArialMT-101"/>
     <use x="1650.78125" xlink:href="#ArialMT-110"/>
     <use x="1706.396484" xlink:href="#ArialMT-116"/>
     <use x="1734.179688" xlink:href="#ArialMT-32"/>
     <use x="1761.962891" xlink:href="#ArialMT-118"/>
     <use x="1811.962891" xlink:href="#ArialMT-101"/>
     <use x="1867.578125" xlink:href="#ArialMT-108"/>
     <use x="1889.794922" xlink:href="#ArialMT-111"/>
     <use x="1945.410156" xlink:href="#ArialMT-99"/>
     <use x="1995.410156" xlink:href="#ArialMT-105"/>
     <use x="2017.626953" xlink:href="#ArialMT-116"/>
     <use x="2045.410156" xlink:href="#ArialMT-121"/>
     <use x="2095.410156" xlink:href="#ArialMT-32"/>
     <use x="2123.193359" xlink:href="#ArialMT-111"/>
     <use x="2178.808594" xlink:href="#ArialMT-110"/>
     <use x="2234.423828" xlink:href="#ArialMT-32"/>
     <use x="2262.207031" xlink:href="#ArialMT-116"/>
     <use x="2289.990234" xlink:href="#ArialMT-104"/>
     <use x="2345.605469" xlink:href="#ArialMT-101"/>
     <use x="2401.220703" xlink:href="#ArialMT-32"/>
     <use x="2429.003906" xlink:href="#ArialMT-115"/>
     <use x="2479.003906" xlink:href="#ArialMT-99"/>
     <use x="2529.003906" xlink:href="#ArialMT-114"/>
     <use x="2562.304688" xlink:href="#ArialMT-101"/>
     <use x="2617.919922" xlink:href="#ArialMT-101"/>
     <use x="2673.535156" xlink:href="#ArialMT-110"/>
     <use x="2729.150391" xlink:href="#ArialMT-32"/>
     <use x="2756.933594" xlink:href="#ArialMT-45"/>
     <use x="2790.234375" xlink:href="#ArialMT-32"/>
     <use x="2818.017578" xlink:href="#ArialMT-78"/>
     <use x="2890.234375" xlink:href="#ArialMT-101"/>
     <use x="2945.849609" xlink:href="#ArialMT-119"/>
     <use x="3018.066406" xlink:href="#ArialMT-71"/>
     <use x="3095.849609" xlink:href="#ArialMT-97"/>
     <use x="3151.464844" xlink:href="#ArialMT-116"/>
     <use x="3179.248047" xlink:href="#ArialMT-49"/>
     <use x="3234.863281" xlink:href="#ArialMT-95"/>
     <use x="3290.478516" xlink:href="#ArialMT-49"/>
     <use x="3346.09375" xlink:href="#ArialMT-48"/>
     <use x="3401.708984" xlink:href="#ArialMT-95"/>
     <use x="3457.324219" xlink:href="#ArialMT-50"/>
     <use x="3512.939453" xlink:href="#ArialMT-49"/>
    </g>
   </g>
   <g id="legend_1">
    <g id="line2d_15">
     <path d="M 195.041406 60.2075 
L 215.041406 60.2075 
" style="fill:none;stroke:#ff0000;stroke-dasharray:7.4,3.2;stroke-dashoffset:0;stroke-width:2;"/>
    </g>
    <g id="line2d_16"/>
    <g id="text_15">
     <!-- Average angle in dark: 115.65 degrees -->
     <defs>
      <path d="M -0.140625 0 
L 27.34375 71.578125 
L 37.546875 71.578125 
L 66.84375 0 
L 56.0625 0 
L 47.703125 21.6875 
L 17.78125 21.6875 
L 9.90625 0 
z
M 20.515625 29.390625 
L 44.78125 29.390625 
L 37.3125 49.21875 
Q 33.890625 58.25 32.234375 64.0625 
Q 30.859375 57.171875 28.375 50.390625 
z
" id="ArialMT-65"/>
      <path d="M 4.984375 -4.296875 
L 13.53125 -5.5625 
Q 14.0625 -9.515625 16.5 -11.328125 
Q 19.78125 -13.765625 25.4375 -13.765625 
Q 31.546875 -13.765625 34.859375 -11.328125 
Q 38.1875 -8.890625 39.359375 -4.5 
Q 40.046875 -1.8125 39.984375 6.78125 
Q 34.234375 0 25.640625 0 
Q 14.9375 0 9.078125 7.71875 
Q 3.21875 15.4375 3.21875 26.21875 
Q 3.21875 33.640625 5.90625 39.90625 
Q 8.59375 46.1875 13.6875 49.609375 
Q 18.796875 53.03125 25.6875 53.03125 
Q 34.859375 53.03125 40.828125 45.609375 
L 40.828125 51.859375 
L 48.921875 51.859375 
L 48.921875 7.03125 
Q 48.921875 -5.078125 46.453125 -10.125 
Q 44 -15.1875 38.640625 -18.109375 
Q 33.296875 -21.046875 25.484375 -21.046875 
Q 16.21875 -21.046875 10.5 -16.875 
Q 4.78125 -12.703125 4.984375 -4.296875 
z
M 12.25 26.859375 
Q 12.25 16.65625 16.296875 11.96875 
Q 20.359375 7.28125 26.46875 7.28125 
Q 32.515625 7.28125 36.609375 11.9375 
Q 40.71875 16.609375 40.71875 26.5625 
Q 40.71875 36.078125 36.5 40.90625 
Q 32.28125 45.75 26.3125 45.75 
Q 20.453125 45.75 16.34375 40.984375 
Q 12.25 36.234375 12.25 26.859375 
z
" id="ArialMT-103"/>
      <path d="M 6.640625 0 
L 6.640625 71.578125 
L 15.4375 71.578125 
L 15.4375 30.765625 
L 36.234375 51.859375 
L 47.609375 51.859375 
L 27.78125 32.625 
L 49.609375 0 
L 38.765625 0 
L 21.625 26.515625 
L 15.4375 20.5625 
L 15.4375 0 
z
" id="ArialMT-107"/>
      <path d="M 9.03125 41.84375 
L 9.03125 51.859375 
L 19.046875 51.859375 
L 19.046875 41.84375 
z
M 9.03125 0 
L 9.03125 10.015625 
L 19.046875 10.015625 
L 19.046875 0 
z
" id="ArialMT-58"/>
      <path d="M 49.75 54.046875 
L 41.015625 53.375 
Q 39.84375 58.546875 37.703125 60.890625 
Q 34.125 64.65625 28.90625 64.65625 
Q 24.703125 64.65625 21.53125 62.3125 
Q 17.390625 59.28125 14.984375 53.46875 
Q 12.59375 47.65625 12.5 36.921875 
Q 15.671875 41.75 20.265625 44.09375 
Q 24.859375 46.4375 29.890625 46.4375 
Q 38.671875 46.4375 44.84375 39.96875 
Q 51.03125 33.5 51.03125 23.25 
Q 51.03125 16.5 48.125 10.71875 
Q 45.21875 4.9375 40.140625 1.859375 
Q 35.0625 -1.21875 28.609375 -1.21875 
Q 17.625 -1.21875 10.6875 6.859375 
Q 3.765625 14.9375 3.765625 33.5 
Q 3.765625 54.25 11.421875 63.671875 
Q 18.109375 71.875 29.4375 71.875 
Q 37.890625 71.875 43.28125 67.140625 
Q 48.6875 62.40625 49.75 54.046875 
z
M 13.875 23.1875 
Q 13.875 18.65625 15.796875 14.5 
Q 17.71875 10.359375 21.1875 8.171875 
Q 24.65625 6 28.46875 6 
Q 34.03125 6 38.03125 10.484375 
Q 42.046875 14.984375 42.046875 22.703125 
Q 42.046875 30.125 38.078125 34.390625 
Q 34.125 38.671875 28.125 38.671875 
Q 22.171875 38.671875 18.015625 34.390625 
Q 13.875 30.125 13.875 23.1875 
z
" id="ArialMT-54"/>
     </defs>
     <g style="fill:#262626;" transform="translate(223.041406 63.7075)scale(0.1 -0.1)">
      <use xlink:href="#ArialMT-65"/>
      <use x="66.683594" xlink:href="#ArialMT-118"/>
      <use x="116.683594" xlink:href="#ArialMT-101"/>
      <use x="172.298828" xlink:href="#ArialMT-114"/>
      <use x="205.599609" xlink:href="#ArialMT-97"/>
      <use x="261.214844" xlink:href="#ArialMT-103"/>
      <use x="316.830078" xlink:href="#ArialMT-101"/>
      <use x="372.445312" xlink:href="#ArialMT-32"/>
      <use x="400.228516" xlink:href="#ArialMT-97"/>
      <use x="455.84375" xlink:href="#ArialMT-110"/>
      <use x="511.458984" xlink:href="#ArialMT-103"/>
      <use x="567.074219" xlink:href="#ArialMT-108"/>
      <use x="589.291016" xlink:href="#ArialMT-101"/>
      <use x="644.90625" xlink:href="#ArialMT-32"/>
      <use x="672.689453" xlink:href="#ArialMT-105"/>
      <use x="694.90625" xlink:href="#ArialMT-110"/>
      <use x="750.521484" xlink:href="#ArialMT-32"/>
      <use x="778.304688" xlink:href="#ArialMT-100"/>
      <use x="833.919922" xlink:href="#ArialMT-97"/>
      <use x="889.535156" xlink:href="#ArialMT-114"/>
      <use x="922.835938" xlink:href="#ArialMT-107"/>
      <use x="972.835938" xlink:href="#ArialMT-58"/>
      <use x="1000.619141" xlink:href="#ArialMT-32"/>
      <use x="1028.402344" xlink:href="#ArialMT-49"/>
      <use x="1083.908203" xlink:href="#ArialMT-49"/>
      <use x="1139.523438" xlink:href="#ArialMT-53"/>
      <use x="1195.138672" xlink:href="#ArialMT-46"/>
      <use x="1222.921875" xlink:href="#ArialMT-54"/>
      <use x="1278.537109" xlink:href="#ArialMT-53"/>
      <use x="1334.152344" xlink:href="#ArialMT-32"/>
      <use x="1361.935547" xlink:href="#ArialMT-100"/>
      <use x="1417.550781" xlink:href="#ArialMT-101"/>
      <use x="1473.166016" xlink:href="#ArialMT-103"/>
      <use x="1528.78125" xlink:href="#ArialMT-114"/>
      <use x="1562.082031" xlink:href="#ArialMT-101"/>
      <use x="1617.697266" xlink:href="#ArialMT-101"/>
      <use x="1673.3125" xlink:href="#ArialMT-115"/>
     </g>
    </g>
    <g id="PathCollection_4">
     <g>
      <use style="fill:#4c72b0;stroke:#4c72b0;stroke-width:0.3;" x="205.041406" xlink:href="#m9a11dc1df0" y="75.345"/>
     </g>
    </g>
    <g id="text_16">
     <!-- $-0.5 &lt; t &lt; 0.$ -->
     <defs>
      <path d="M 10.59375 35.5 
L 73.1875 35.5 
L 73.1875 27.203125 
L 10.59375 27.203125 
z
" id="DejaVuSans-8722"/>
      <path d="M 31.78125 66.40625 
Q 24.171875 66.40625 20.328125 58.90625 
Q 16.5 51.421875 16.5 36.375 
Q 16.5 21.390625 20.328125 13.890625 
Q 24.171875 6.390625 31.78125 6.390625 
Q 39.453125 6.390625 43.28125 13.890625 
Q 47.125 21.390625 47.125 36.375 
Q 47.125 51.421875 43.28125 58.90625 
Q 39.453125 66.40625 31.78125 66.40625 
z
M 31.78125 74.21875 
Q 44.046875 74.21875 50.515625 64.515625 
Q 56.984375 54.828125 56.984375 36.375 
Q 56.984375 17.96875 50.515625 8.265625 
Q 44.046875 -1.421875 31.78125 -1.421875 
Q 19.53125 -1.421875 13.0625 8.265625 
Q 6.59375 17.96875 6.59375 36.375 
Q 6.59375 54.828125 13.0625 64.515625 
Q 19.53125 74.21875 31.78125 74.21875 
z
" id="DejaVuSans-48"/>
      <path d="M 10.6875 12.40625 
L 21 12.40625 
L 21 0 
L 10.6875 0 
z
" id="DejaVuSans-46"/>
      <path d="M 10.796875 72.90625 
L 49.515625 72.90625 
L 49.515625 64.59375 
L 19.828125 64.59375 
L 19.828125 46.734375 
Q 21.96875 47.46875 24.109375 47.828125 
Q 26.265625 48.1875 28.421875 48.1875 
Q 40.625 48.1875 47.75 41.5 
Q 54.890625 34.8125 54.890625 23.390625 
Q 54.890625 11.625 47.5625 5.09375 
Q 40.234375 -1.421875 26.90625 -1.421875 
Q 22.3125 -1.421875 17.546875 -0.640625 
Q 12.796875 0.140625 7.71875 1.703125 
L 7.71875 11.625 
Q 12.109375 9.234375 16.796875 8.0625 
Q 21.484375 6.890625 26.703125 6.890625 
Q 35.15625 6.890625 40.078125 11.328125 
Q 45.015625 15.765625 45.015625 23.390625 
Q 45.015625 31 40.078125 35.4375 
Q 35.15625 39.890625 26.703125 39.890625 
Q 22.75 39.890625 18.8125 39.015625 
Q 14.890625 38.140625 10.796875 36.28125 
z
" id="DejaVuSans-53"/>
      <path d="M 73.1875 49.21875 
L 22.796875 31.296875 
L 73.1875 13.484375 
L 73.1875 4.59375 
L 10.59375 27.296875 
L 10.59375 35.40625 
L 73.1875 58.109375 
z
" id="DejaVuSans-60"/>
      <path d="M 42.28125 54.6875 
L 40.921875 47.703125 
L 23 47.703125 
L 17.1875 18.015625 
Q 16.890625 16.359375 16.75 15.234375 
Q 16.609375 14.109375 16.609375 13.484375 
Q 16.609375 10.359375 18.484375 8.9375 
Q 20.359375 7.515625 24.515625 7.515625 
L 33.59375 7.515625 
L 32.078125 0 
L 23.484375 0 
Q 15.484375 0 11.546875 3.125 
Q 7.625 6.25 7.625 12.59375 
Q 7.625 13.71875 7.765625 15.0625 
Q 7.90625 16.40625 8.203125 18.015625 
L 14.015625 47.703125 
L 6.390625 47.703125 
L 7.8125 54.6875 
L 15.28125 54.6875 
L 18.3125 70.21875 
L 27.296875 70.21875 
L 24.3125 54.6875 
z
" id="DejaVuSans-Oblique-116"/>
     </defs>
     <g style="fill:#262626;" transform="translate(223.041406 77.97)scale(0.1 -0.1)">
      <use transform="translate(0 0.78125)" xlink:href="#DejaVuSans-8722"/>
      <use transform="translate(83.789062 0.78125)" xlink:href="#DejaVuSans-48"/>
      <use transform="translate(147.412109 0.78125)" xlink:href="#DejaVuSans-46"/>
      <use transform="translate(179.199219 0.78125)" xlink:href="#DejaVuSans-53"/>
      <use transform="translate(262.304688 0.78125)" xlink:href="#DejaVuSans-60"/>
      <use transform="translate(365.576172 0.78125)" xlink:href="#DejaVuSans-Oblique-116"/>
      <use transform="translate(424.267578 0.78125)" xlink:href="#DejaVuSans-60"/>
      <use transform="translate(527.539062 0.78125)" xlink:href="#DejaVuSans-48"/>
     </g>
    </g>
    <g id="PathCollection_5">
     <g>
      <use style="fill:#55a868;stroke:#55a868;stroke-width:0.3;" x="205.041406" xlink:href="#m908d1437a2" y="89.490312"/>
     </g>
    </g>
    <g id="text_17">
     <!-- $0. &lt; t &lt; 0.5$ -->
     <g style="fill:#262626;" transform="translate(223.041406 92.115312)scale(0.1 -0.1)">
      <use transform="translate(0 0.78125)" xlink:href="#DejaVuSans-48"/>
      <use transform="translate(63.623047 0.78125)" xlink:href="#DejaVuSans-46"/>
      <use transform="translate(134.375 0.78125)" xlink:href="#DejaVuSans-60"/>
      <use transform="translate(237.646484 0.78125)" xlink:href="#DejaVuSans-Oblique-116"/>
      <use transform="translate(296.337891 0.78125)" xlink:href="#DejaVuSans-60"/>
      <use transform="translate(399.609375 0.78125)" xlink:href="#DejaVuSans-48"/>
      <use transform="translate(463.232422 0.78125)" xlink:href="#DejaVuSans-46"/>
      <use transform="translate(495.019531 0.78125)" xlink:href="#DejaVuSans-53"/>
     </g>
    </g>
    <g id="PathCollection_6">
     <g>
      <use style="fill:#c44e52;stroke:#c44e52;stroke-width:0.3;" x="205.041406" xlink:href="#mfdbcc96865" y="103.635625"/>
     </g>
    </g>
    <g id="text_18">
     <!-- $0.5 &lt; t &lt; 1.$ -->
     <defs>
      <path d="M 12.40625 8.296875 
L 28.515625 8.296875 
L 28.515625 63.921875 
L 10.984375 60.40625 
L 10.984375 69.390625 
L 28.421875 72.90625 
L 38.28125 72.90625 
L 38.28125 8.296875 
L 54.390625 8.296875 
L 54.390625 0 
L 12.40625 0 
z
" id="DejaVuSans-49"/>
     </defs>
     <g style="fill:#262626;" transform="translate(223.041406 106.260625)scale(0.1 -0.1)">
      <use transform="translate(0 0.78125)" xlink:href="#DejaVuSans-48"/>
      <use transform="translate(63.623047 0.78125)" xlink:href="#DejaVuSans-46"/>
      <use transform="translate(95.410156 0.78125)" xlink:href="#DejaVuSans-53"/>
      <use transform="translate(178.515625 0.78125)" xlink:href="#DejaVuSans-60"/>
      <use transform="translate(281.787109 0.78125)" xlink:href="#DejaVuSans-Oblique-116"/>
      <use transform="translate(340.478516 0.78125)" xlink:href="#DejaVuSans-60"/>
      <use transform="translate(443.75 0.78125)" xlink:href="#DejaVuSans-49"/>
     </g>
    </g>
   </g>
  </g>
 </g>
 <defs>
  <clipPath id="p484d71733f">
   <path d="M 447.66 199.98 
C 447.66 179.959136 443.716326 160.13295 436.054674 141.636084 
C 428.393021 123.139218 417.162388 106.331389 403.0055 92.1745 
C 388.848611 78.017612 372.040782 66.786979 353.543916 59.125326 
C 335.04705 51.463674 315.220864 47.52 295.2 47.52 
C 275.179136 47.52 255.35295 51.463674 236.856084 59.125326 
C 218.359218 66.786979 201.551389 78.017612 187.3945 92.1745 
C 173.237612 106.331389 162.006979 123.139218 154.345326 141.636084 
C 146.683674 160.13295 142.74 179.959136 142.74 199.98 
C 142.74 220.000864 146.683674 239.82705 154.345326 258.323916 
C 162.006979 276.820782 173.237612 293.628611 187.3945 307.7855 
C 201.551389 321.942388 218.359218 333.173021 236.856084 340.834674 
C 255.35295 348.496326 275.179136 352.44 295.2 352.44 
C 315.220864 352.44 335.04705 348.496326 353.543916 340.834674 
C 372.040782 333.173021 388.848611 321.942388 403.0055 307.7855 
C 417.162388 293.628611 428.393021 276.820782 436.054674 258.323916 
C 443.716326 239.82705 447.66 220.000864 447.66 199.98 
M 295.2 199.98 
C 295.2 199.98 295.2 199.98 295.2 199.98 
C 295.2 199.98 295.2 199.98 295.2 199.98 
C 295.2 199.98 295.2 199.98 295.2 199.98 
C 295.2 199.98 295.2 199.98 295.2 199.98 
C 295.2 199.98 295.2 199.98 295.2 199.98 
C 295.2 199.98 295.2 199.98 295.2 199.98 
C 295.2 199.98 295.2 199.98 295.2 199.98 
C 295.2 199.98 295.2 199.98 295.2 199.98 
C 295.2 199.98 295.2 199.98 295.2 199.98 
C 295.2 199.98 295.2 199.98 295.2 199.98 
C 295.2 199.98 295.2 199.98 295.2 199.98 
C 295.2 199.98 295.2 199.98 295.2 199.98 
C 295.2 199.98 295.2 199.98 295.2 199.98 
C 295.2 199.98 295.2 199.98 295.2 199.98 
C 295.2 199.98 295.2 199.98 295.2 199.98 
C 295.2 199.98 295.2 199.98 295.2 199.98 
M 447.66 199.98 
z
"/>
  </clipPath>
 </defs>
</svg>
