<?xml version="1.0" encoding="utf-8" standalone="no"?>
<!DOCTYPE svg PUBLIC "-//W3C//DTD SVG 1.1//EN"
  "http://www.w3.org/Graphics/SVG/1.1/DTD/svg11.dtd">
<!-- Created with matplotlib (https://matplotlib.org/) -->
<svg height="396pt" version="1.1" viewBox="0 0 576 396" width="576pt" xmlns="http://www.w3.org/2000/svg" xmlns:xlink="http://www.w3.org/1999/xlink">
 <defs>
  <style type="text/css">
*{stroke-linecap:butt;stroke-linejoin:round;}
  </style>
 </defs>
 <g id="figure_1">
  <g id="patch_1">
   <path d="M 0 396 
L 576 396 
L 576 0 
L 0 0 
z
" style="fill:#ffffff;"/>
  </g>
  <g id="axes_1">
   <g id="patch_2">
    <path d="M 447.66 199.98 
C 447.66 179.959136 443.716326 160.13295 436.054674 141.636084 
C 428.393021 123.139218 417.162388 106.331389 403.0055 92.1745 
C 388.848611 78.017612 372.040782 66.786979 353.543916 59.125326 
C 335.04705 51.463674 315.220864 47.52 295.2 47.52 
C 275.179136 47.52 255.35295 51.463674 236.856084 59.125326 
C 218.359218 66.786979 201.551389 78.017612 187.3945 92.1745 
C 173.237612 106.331389 162.006979 123.139218 154.345326 141.636084 
C 146.683674 160.13295 142.74 179.959136 142.74 199.98 
C 142.74 220.000864 146.683674 239.82705 154.345326 258.323916 
C 162.006979 276.820782 173.237612 293.628611 187.3945 307.7855 
C 201.551389 321.942388 218.359218 333.173021 236.856084 340.834674 
C 255.35295 348.496326 275.179136 352.44 295.2 352.44 
C 315.220864 352.44 335.04705 348.496326 353.543916 340.834674 
C 372.040782 333.173021 388.848611 321.942388 403.0055 307.7855 
C 417.162388 293.628611 428.393021 276.820782 436.054674 258.323916 
C 443.716326 239.82705 447.66 220.000864 447.66 199.98 
M 295.2 199.98 
C 295.2 199.98 295.2 199.98 295.2 199.98 
C 295.2 199.98 295.2 199.98 295.2 199.98 
C 295.2 199.98 295.2 199.98 295.2 199.98 
C 295.2 199.98 295.2 199.98 295.2 199.98 
C 295.2 199.98 295.2 199.98 295.2 199.98 
C 295.2 199.98 295.2 199.98 295.2 199.98 
C 295.2 199.98 295.2 199.98 295.2 199.98 
C 295.2 199.98 295.2 199.98 295.2 199.98 
C 295.2 199.98 295.2 199.98 295.2 199.98 
C 295.2 199.98 295.2 199.98 295.2 199.98 
C 295.2 199.98 295.2 199.98 295.2 199.98 
C 295.2 199.98 295.2 199.98 295.2 199.98 
C 295.2 199.98 295.2 199.98 295.2 199.98 
C 295.2 199.98 295.2 199.98 295.2 199.98 
C 295.2 199.98 295.2 199.98 295.2 199.98 
C 295.2 199.98 295.2 199.98 295.2 199.98 
M 447.66 199.98 
z
" style="fill:#eaeaf2;"/>
   </g>
   <g id="matplotlib.axis_1">
    <g id="xtick_1">
     <g id="line2d_1">
      <path clip-path="url(#p330ee2a342)" d="M 295.2 199.98 
L 447.66 199.98 
" style="fill:none;stroke:#ffffff;stroke-linecap:round;"/>
     </g>
     <g id="text_1">
      <!-- 0° -->
      <defs>
       <path d="M 4.15625 35.296875 
Q 4.15625 48 6.765625 55.734375 
Q 9.375 63.484375 14.515625 67.671875 
Q 19.671875 71.875 27.484375 71.875 
Q 33.25 71.875 37.59375 69.546875 
Q 41.9375 67.234375 44.765625 62.859375 
Q 47.609375 58.5 49.21875 52.21875 
Q 50.828125 45.953125 50.828125 35.296875 
Q 50.828125 22.703125 48.234375 14.96875 
Q 45.65625 7.234375 40.5 3 
Q 35.359375 -1.21875 27.484375 -1.21875 
Q 17.140625 -1.21875 11.234375 6.203125 
Q 4.15625 15.140625 4.15625 35.296875 
z
M 13.1875 35.296875 
Q 13.1875 17.671875 17.3125 11.828125 
Q 21.4375 6 27.484375 6 
Q 33.546875 6 37.671875 11.859375 
Q 41.796875 17.71875 41.796875 35.296875 
Q 41.796875 52.984375 37.671875 58.78125 
Q 33.546875 64.59375 27.390625 64.59375 
Q 21.34375 64.59375 17.71875 59.46875 
Q 13.1875 52.9375 13.1875 35.296875 
z
" id="ArialMT-48"/>
       <path d="M 6.25 59.28125 
Q 6.25 64.890625 10.21875 68.84375 
Q 14.203125 72.796875 19.78125 72.796875 
Q 25.4375 72.796875 29.390625 68.84375 
Q 33.34375 64.890625 33.34375 59.28125 
Q 33.34375 53.65625 29.359375 49.671875 
Q 25.390625 45.703125 19.78125 45.703125 
Q 14.203125 45.703125 10.21875 49.65625 
Q 6.25 53.609375 6.25 59.28125 
z
M 11.578125 59.28125 
Q 11.578125 55.859375 13.984375 53.4375 
Q 16.40625 51.03125 19.828125 51.03125 
Q 23.1875 51.03125 25.609375 53.4375 
Q 28.03125 55.859375 28.03125 59.28125 
Q 28.03125 62.703125 25.609375 65.109375 
Q 23.1875 67.53125 19.828125 67.53125 
Q 16.40625 67.53125 13.984375 65.109375 
Q 11.578125 62.703125 11.578125 59.28125 
z
" id="ArialMT-176"/>
      </defs>
      <g style="fill:#262626;" transform="translate(456.880313 202.565156)scale(0.1 -0.1)">
       <use xlink:href="#ArialMT-48"/>
       <use x="55.615234" xlink:href="#ArialMT-176"/>
      </g>
     </g>
    </g>
    <g id="xtick_2">
     <g id="line2d_2">
      <path clip-path="url(#p330ee2a342)" d="M 295.2 199.98 
L 403.0055 92.1745 
" style="fill:none;stroke:#ffffff;stroke-linecap:round;"/>
     </g>
     <g id="text_2">
      <!-- 45° -->
      <defs>
       <path d="M 32.328125 0 
L 32.328125 17.140625 
L 1.265625 17.140625 
L 1.265625 25.203125 
L 33.9375 71.578125 
L 41.109375 71.578125 
L 41.109375 25.203125 
L 50.78125 25.203125 
L 50.78125 17.140625 
L 41.109375 17.140625 
L 41.109375 0 
z
M 32.328125 25.203125 
L 32.328125 57.46875 
L 9.90625 25.203125 
z
" id="ArialMT-52"/>
       <path d="M 4.15625 18.75 
L 13.375 19.53125 
Q 14.40625 12.796875 18.140625 9.390625 
Q 21.875 6 27.15625 6 
Q 33.5 6 37.890625 10.78125 
Q 42.28125 15.578125 42.28125 23.484375 
Q 42.28125 31 38.0625 35.34375 
Q 33.84375 39.703125 27 39.703125 
Q 22.75 39.703125 19.328125 37.765625 
Q 15.921875 35.84375 13.96875 32.765625 
L 5.71875 33.84375 
L 12.640625 70.609375 
L 48.25 70.609375 
L 48.25 62.203125 
L 19.671875 62.203125 
L 15.828125 42.96875 
Q 22.265625 47.46875 29.34375 47.46875 
Q 38.71875 47.46875 45.15625 40.96875 
Q 51.609375 34.46875 51.609375 24.265625 
Q 51.609375 14.546875 45.953125 7.46875 
Q 39.0625 -1.21875 27.15625 -1.21875 
Q 17.390625 -1.21875 11.203125 4.25 
Q 5.03125 9.71875 4.15625 18.75 
z
" id="ArialMT-53"/>
      </defs>
      <g style="fill:#262626;" transform="translate(405.344839 84.860161)scale(0.1 -0.1)">
       <use xlink:href="#ArialMT-52"/>
       <use x="55.615234" xlink:href="#ArialMT-53"/>
       <use x="111.230469" xlink:href="#ArialMT-176"/>
      </g>
     </g>
    </g>
    <g id="xtick_3">
     <g id="line2d_3">
      <path clip-path="url(#p330ee2a342)" d="M 295.2 199.98 
L 295.2 47.52 
" style="fill:none;stroke:#ffffff;stroke-linecap:round;"/>
     </g>
     <g id="text_3">
      <!-- 90° -->
      <defs>
       <path d="M 5.46875 16.546875 
L 13.921875 17.328125 
Q 14.984375 11.375 18.015625 8.6875 
Q 21.046875 6 25.78125 6 
Q 29.828125 6 32.875 7.859375 
Q 35.9375 9.71875 37.890625 12.8125 
Q 39.84375 15.921875 41.15625 21.1875 
Q 42.484375 26.46875 42.484375 31.9375 
Q 42.484375 32.515625 42.4375 33.6875 
Q 39.796875 29.5 35.234375 26.875 
Q 30.671875 24.265625 25.34375 24.265625 
Q 16.453125 24.265625 10.296875 30.703125 
Q 4.15625 37.15625 4.15625 47.703125 
Q 4.15625 58.59375 10.578125 65.234375 
Q 17 71.875 26.65625 71.875 
Q 33.640625 71.875 39.421875 68.109375 
Q 45.21875 64.359375 48.21875 57.390625 
Q 51.21875 50.4375 51.21875 37.25 
Q 51.21875 23.53125 48.234375 15.40625 
Q 45.265625 7.28125 39.375 3.03125 
Q 33.5 -1.21875 25.59375 -1.21875 
Q 17.1875 -1.21875 11.859375 3.4375 
Q 6.546875 8.109375 5.46875 16.546875 
z
M 41.453125 48.140625 
Q 41.453125 55.71875 37.421875 60.15625 
Q 33.40625 64.59375 27.734375 64.59375 
Q 21.875 64.59375 17.53125 59.8125 
Q 13.1875 55.03125 13.1875 47.40625 
Q 13.1875 40.578125 17.3125 36.296875 
Q 21.4375 32.03125 27.484375 32.03125 
Q 33.59375 32.03125 37.515625 36.296875 
Q 41.453125 40.578125 41.453125 48.140625 
z
" id="ArialMT-57"/>
      </defs>
      <g style="fill:#262626;" transform="translate(287.639844 36.105156)scale(0.1 -0.1)">
       <use xlink:href="#ArialMT-57"/>
       <use x="55.615234" xlink:href="#ArialMT-48"/>
       <use x="111.230469" xlink:href="#ArialMT-176"/>
      </g>
     </g>
    </g>
    <g id="xtick_4">
     <g id="line2d_4">
      <path clip-path="url(#p330ee2a342)" d="M 295.2 199.98 
L 187.3945 92.1745 
" style="fill:none;stroke:#ffffff;stroke-linecap:round;"/>
     </g>
     <g id="text_4">
      <!-- 135° -->
      <defs>
       <path d="M 37.25 0 
L 28.46875 0 
L 28.46875 56 
Q 25.296875 52.984375 20.140625 49.953125 
Q 14.984375 46.921875 10.890625 45.40625 
L 10.890625 53.90625 
Q 18.265625 57.375 23.78125 62.296875 
Q 29.296875 67.234375 31.59375 71.875 
L 37.25 71.875 
z
" id="ArialMT-49"/>
       <path d="M 4.203125 18.890625 
L 12.984375 20.0625 
Q 14.5 12.59375 18.140625 9.296875 
Q 21.78125 6 27 6 
Q 33.203125 6 37.46875 10.296875 
Q 41.75 14.59375 41.75 20.953125 
Q 41.75 27 37.796875 30.921875 
Q 33.84375 34.859375 27.734375 34.859375 
Q 25.25 34.859375 21.53125 33.890625 
L 22.515625 41.609375 
Q 23.390625 41.5 23.921875 41.5 
Q 29.546875 41.5 34.03125 44.421875 
Q 38.53125 47.359375 38.53125 53.46875 
Q 38.53125 58.296875 35.25 61.46875 
Q 31.984375 64.65625 26.8125 64.65625 
Q 21.6875 64.65625 18.265625 61.421875 
Q 14.84375 58.203125 13.875 51.765625 
L 5.078125 53.328125 
Q 6.6875 62.15625 12.390625 67.015625 
Q 18.109375 71.875 26.609375 71.875 
Q 32.46875 71.875 37.390625 69.359375 
Q 42.328125 66.84375 44.9375 62.5 
Q 47.5625 58.15625 47.5625 53.265625 
Q 47.5625 48.640625 45.0625 44.828125 
Q 42.578125 41.015625 37.703125 38.765625 
Q 44.046875 37.3125 47.5625 32.6875 
Q 51.078125 28.078125 51.078125 21.140625 
Q 51.078125 11.765625 44.234375 5.25 
Q 37.40625 -1.265625 26.953125 -1.265625 
Q 17.53125 -1.265625 11.296875 4.34375 
Q 5.078125 9.96875 4.203125 18.890625 
z
" id="ArialMT-51"/>
      </defs>
      <g style="fill:#262626;" transform="translate(167.15438 84.860161)scale(0.1 -0.1)">
       <use xlink:href="#ArialMT-49"/>
       <use x="55.615234" xlink:href="#ArialMT-51"/>
       <use x="111.230469" xlink:href="#ArialMT-53"/>
       <use x="166.845703" xlink:href="#ArialMT-176"/>
      </g>
     </g>
    </g>
    <g id="xtick_5">
     <g id="line2d_5">
      <path clip-path="url(#p330ee2a342)" d="M 295.2 199.98 
L 142.74 199.98 
" style="fill:none;stroke:#ffffff;stroke-linecap:round;"/>
     </g>
     <g id="text_5">
      <!-- 180° -->
      <defs>
       <path d="M 17.671875 38.8125 
Q 12.203125 40.828125 9.5625 44.53125 
Q 6.9375 48.25 6.9375 53.421875 
Q 6.9375 61.234375 12.546875 66.546875 
Q 18.171875 71.875 27.484375 71.875 
Q 36.859375 71.875 42.578125 66.421875 
Q 48.296875 60.984375 48.296875 53.171875 
Q 48.296875 48.1875 45.671875 44.5 
Q 43.0625 40.828125 37.75 38.8125 
Q 44.34375 36.671875 47.78125 31.875 
Q 51.21875 27.09375 51.21875 20.453125 
Q 51.21875 11.28125 44.71875 5.03125 
Q 38.234375 -1.21875 27.640625 -1.21875 
Q 17.046875 -1.21875 10.546875 5.046875 
Q 4.046875 11.328125 4.046875 20.703125 
Q 4.046875 27.6875 7.59375 32.390625 
Q 11.140625 37.109375 17.671875 38.8125 
z
M 15.921875 53.71875 
Q 15.921875 48.640625 19.1875 45.40625 
Q 22.46875 42.1875 27.6875 42.1875 
Q 32.765625 42.1875 36.015625 45.375 
Q 39.265625 48.578125 39.265625 53.21875 
Q 39.265625 58.0625 35.90625 61.359375 
Q 32.5625 64.65625 27.59375 64.65625 
Q 22.5625 64.65625 19.234375 61.421875 
Q 15.921875 58.203125 15.921875 53.71875 
z
M 13.09375 20.65625 
Q 13.09375 16.890625 14.875 13.375 
Q 16.65625 9.859375 20.171875 7.921875 
Q 23.6875 6 27.734375 6 
Q 34.03125 6 38.125 10.046875 
Q 42.234375 14.109375 42.234375 20.359375 
Q 42.234375 26.703125 38.015625 30.859375 
Q 33.796875 35.015625 27.4375 35.015625 
Q 21.234375 35.015625 17.15625 30.90625 
Q 13.09375 26.8125 13.09375 20.65625 
z
" id="ArialMT-56"/>
      </defs>
      <g style="fill:#262626;" transform="translate(118.399375 202.565156)scale(0.1 -0.1)">
       <use xlink:href="#ArialMT-49"/>
       <use x="55.615234" xlink:href="#ArialMT-56"/>
       <use x="111.230469" xlink:href="#ArialMT-48"/>
       <use x="166.845703" xlink:href="#ArialMT-176"/>
      </g>
     </g>
    </g>
    <g id="xtick_6">
     <g id="line2d_6">
      <path clip-path="url(#p330ee2a342)" d="M 295.2 199.98 
L 187.3945 307.7855 
" style="fill:none;stroke:#ffffff;stroke-linecap:round;"/>
     </g>
     <g id="text_6">
      <!-- 225° -->
      <defs>
       <path d="M 50.34375 8.453125 
L 50.34375 0 
L 3.03125 0 
Q 2.9375 3.171875 4.046875 6.109375 
Q 5.859375 10.9375 9.828125 15.625 
Q 13.8125 20.3125 21.34375 26.46875 
Q 33.015625 36.03125 37.109375 41.625 
Q 41.21875 47.21875 41.21875 52.203125 
Q 41.21875 57.421875 37.46875 61 
Q 33.734375 64.59375 27.734375 64.59375 
Q 21.390625 64.59375 17.578125 60.78125 
Q 13.765625 56.984375 13.71875 50.25 
L 4.6875 51.171875 
Q 5.609375 61.28125 11.65625 66.578125 
Q 17.71875 71.875 27.9375 71.875 
Q 38.234375 71.875 44.234375 66.15625 
Q 50.25 60.453125 50.25 52 
Q 50.25 47.703125 48.484375 43.546875 
Q 46.734375 39.40625 42.65625 34.8125 
Q 38.578125 30.21875 29.109375 22.21875 
Q 21.1875 15.578125 18.9375 13.203125 
Q 16.703125 10.84375 15.234375 8.453125 
z
" id="ArialMT-50"/>
      </defs>
      <g style="fill:#262626;" transform="translate(167.15438 320.270151)scale(0.1 -0.1)">
       <use xlink:href="#ArialMT-50"/>
       <use x="55.615234" xlink:href="#ArialMT-50"/>
       <use x="111.230469" xlink:href="#ArialMT-53"/>
       <use x="166.845703" xlink:href="#ArialMT-176"/>
      </g>
     </g>
    </g>
    <g id="xtick_7">
     <g id="line2d_7">
      <path clip-path="url(#p330ee2a342)" d="M 295.2 199.98 
L 295.2 352.44 
" style="fill:none;stroke:#ffffff;stroke-linecap:round;"/>
     </g>
     <g id="text_7">
      <!-- 270° -->
      <defs>
       <path d="M 4.734375 62.203125 
L 4.734375 70.65625 
L 51.078125 70.65625 
L 51.078125 63.8125 
Q 44.234375 56.546875 37.515625 44.484375 
Q 30.8125 32.421875 27.15625 19.671875 
Q 24.515625 10.6875 23.78125 0 
L 14.75 0 
Q 14.890625 8.453125 18.0625 20.40625 
Q 21.234375 32.375 27.171875 43.484375 
Q 33.109375 54.59375 39.796875 62.203125 
z
" id="ArialMT-55"/>
      </defs>
      <g style="fill:#262626;" transform="translate(284.859375 369.025156)scale(0.1 -0.1)">
       <use xlink:href="#ArialMT-50"/>
       <use x="55.615234" xlink:href="#ArialMT-55"/>
       <use x="111.230469" xlink:href="#ArialMT-48"/>
       <use x="166.845703" xlink:href="#ArialMT-176"/>
      </g>
     </g>
    </g>
    <g id="xtick_8">
     <g id="line2d_8">
      <path clip-path="url(#p330ee2a342)" d="M 295.2 199.98 
L 403.0055 307.7855 
" style="fill:none;stroke:#ffffff;stroke-linecap:round;"/>
     </g>
     <g id="text_8">
      <!-- 315° -->
      <g style="fill:#262626;" transform="translate(402.56437 320.270151)scale(0.1 -0.1)">
       <use xlink:href="#ArialMT-51"/>
       <use x="55.615234" xlink:href="#ArialMT-49"/>
       <use x="111.230469" xlink:href="#ArialMT-53"/>
       <use x="166.845703" xlink:href="#ArialMT-176"/>
      </g>
     </g>
    </g>
   </g>
   <g id="matplotlib.axis_2">
    <g id="ytick_1">
     <g id="line2d_9">
      <path clip-path="url(#p330ee2a342)" d="M 318.684917 199.98 
L 318.556264 197.525158 
L 318.171715 195.097211 
L 317.535484 192.722761 
L 316.654539 190.427824 
L 315.538535 188.237541 
L 314.199697 186.175912 
L 312.652695 184.265523 
L 310.914477 182.527305 
L 309.004088 180.980303 
L 306.942459 179.641465 
L 304.752176 178.525461 
L 302.457239 177.644516 
L 300.082789 177.008285 
L 297.654842 176.623736 
L 295.2 176.495083 
L 292.745158 176.623736 
L 290.317211 177.008285 
L 287.942761 177.644516 
L 285.647824 178.525461 
L 283.457541 179.641465 
L 281.395912 180.980303 
L 279.485523 182.527305 
L 277.747305 184.265523 
L 276.200303 186.175912 
L 274.861465 188.237541 
L 273.745461 190.427824 
L 272.864516 192.722761 
L 272.228285 195.097211 
L 271.843736 197.525158 
L 271.715083 199.98 
L 271.843736 202.434842 
L 272.228285 204.862789 
L 272.864516 207.237239 
L 273.745461 209.532176 
L 274.861465 211.722459 
L 276.200303 213.784088 
L 277.747305 215.694477 
L 279.485523 217.432695 
L 281.395912 218.979697 
L 283.457541 220.318535 
L 285.647824 221.434539 
L 287.942761 222.315484 
L 290.317211 222.951715 
L 292.745158 223.336264 
L 295.2 223.464917 
L 297.654842 223.336264 
L 300.082789 222.951715 
L 302.457239 222.315484 
L 304.752176 221.434539 
L 306.942459 220.318535 
L 309.004088 218.979697 
L 310.914477 217.432695 
L 312.652695 215.694477 
L 314.199697 213.784088 
L 315.538535 211.722459 
L 316.654539 209.532176 
L 317.535484 207.237239 
L 318.171715 204.862789 
L 318.556264 202.434842 
L 318.684917 199.98 
L 318.684917 199.98 
" style="fill:none;stroke:#ffffff;stroke-linecap:round;"/>
     </g>
     <g id="text_9">
      <!-- 0.1 -->
      <defs>
       <path d="M 9.078125 0 
L 9.078125 10.015625 
L 19.09375 10.015625 
L 19.09375 0 
z
" id="ArialMT-46"/>
      </defs>
      <g style="fill:#262626;" transform="translate(316.897234 189.005211)scale(0.1 -0.1)">
       <use xlink:href="#ArialMT-48"/>
       <use x="55.615234" xlink:href="#ArialMT-46"/>
       <use x="83.398438" xlink:href="#ArialMT-49"/>
      </g>
     </g>
    </g>
    <g id="ytick_2">
     <g id="line2d_10">
      <path clip-path="url(#p330ee2a342)" d="M 342.169834 199.98 
L 342.055418 196.70355 
L 341.712727 193.443062 
L 341.143431 190.214422 
L 340.350303 187.033359 
L 339.337207 183.91537 
L 338.109079 180.875647 
L 336.671902 177.928998 
L 335.032679 175.08978 
L 333.199394 172.371824 
L 331.180981 169.788372 
L 328.987271 167.352011 
L 326.628954 165.074611 
L 324.117518 162.967265 
L 321.465198 161.040242 
L 318.684917 159.30293 
L 315.79022 157.763792 
L 312.79521 156.430328 
L 309.714477 155.309033 
L 306.563031 154.40537 
L 303.356226 153.723743 
L 300.109685 153.267471 
L 296.839224 153.038778 
L 293.560776 153.038778 
L 290.290315 153.267471 
L 287.043774 153.723743 
L 283.836969 154.40537 
L 280.685523 155.309033 
L 277.60479 156.430328 
L 274.60978 157.763792 
L 271.715083 159.30293 
L 268.934802 161.040242 
L 266.282482 162.967265 
L 263.771046 165.074611 
L 261.412729 167.352011 
L 259.219019 169.788372 
L 257.200606 172.371824 
L 255.367321 175.08978 
L 253.728098 177.928998 
L 252.290921 180.875647 
L 251.062793 183.91537 
L 250.049697 187.033359 
L 249.256569 190.214422 
L 248.687273 193.443062 
L 248.344582 196.70355 
L 248.230166 199.98 
L 248.344582 203.25645 
L 248.687273 206.516938 
L 249.256569 209.745578 
L 250.049697 212.926641 
L 251.062793 216.04463 
L 252.290921 219.084353 
L 253.728098 222.031002 
L 255.367321 224.87022 
L 257.200606 227.588176 
L 259.219019 230.171628 
L 261.412729 232.607989 
L 263.771046 234.885389 
L 266.282482 236.992735 
L 268.934802 238.919758 
L 271.715083 240.65707 
L 274.60978 242.196208 
L 277.60479 243.529672 
L 280.685523 244.650967 
L 283.836969 245.55463 
L 287.043774 246.236257 
L 290.290315 246.692529 
L 293.560776 246.921222 
L 296.839224 246.921222 
L 300.109685 246.692529 
L 303.356226 246.236257 
L 306.563031 245.55463 
L 309.714477 244.650967 
L 312.79521 243.529672 
L 315.79022 242.196208 
L 318.684917 240.65707 
L 321.465198 238.919758 
L 324.117518 236.992735 
L 326.628954 234.885389 
L 328.987271 232.607989 
L 331.180981 230.171628 
L 333.199394 227.588176 
L 335.032679 224.87022 
L 336.671902 222.031002 
L 338.109079 219.084353 
L 339.337207 216.04463 
L 340.350303 212.926641 
L 341.143431 209.745578 
L 341.712727 206.516938 
L 342.055418 203.25645 
L 342.169834 199.98 
L 342.169834 199.98 
" style="fill:none;stroke:#ffffff;stroke-linecap:round;"/>
     </g>
     <g id="text_10">
      <!-- 0.2 -->
      <g style="fill:#262626;" transform="translate(338.594469 180.017923)scale(0.1 -0.1)">
       <use xlink:href="#ArialMT-48"/>
       <use x="55.615234" xlink:href="#ArialMT-46"/>
       <use x="83.398438" xlink:href="#ArialMT-50"/>
      </g>
     </g>
    </g>
    <g id="ytick_3">
     <g id="line2d_11">
      <path clip-path="url(#p330ee2a342)" d="M 365.654752 199.98 
L 365.483127 195.065325 
L 364.969091 190.174594 
L 364.115146 185.331633 
L 362.925454 180.560039 
L 361.40581 175.883056 
L 359.563618 171.323471 
L 357.407853 166.903498 
L 354.949018 162.64467 
L 352.199091 158.567736 
L 349.171471 154.692559 
L 345.880907 151.038017 
L 342.343431 147.621916 
L 338.576276 144.460898 
L 334.597797 141.570364 
L 330.427376 138.964395 
L 326.08533 136.655689 
L 321.592815 134.655492 
L 316.971716 132.973549 
L 312.244547 131.618056 
L 307.434339 130.595614 
L 302.564527 129.911207 
L 297.658835 129.568167 
L 292.741165 129.568167 
L 287.835473 129.911207 
L 282.965661 130.595614 
L 278.155453 131.618056 
L 273.428284 132.973549 
L 268.807185 134.655492 
L 264.31467 136.655689 
L 259.972624 138.964395 
L 255.802203 141.570364 
L 251.823724 144.460898 
L 248.056569 147.621916 
L 244.519093 151.038017 
L 241.228529 154.692559 
L 238.200909 158.567736 
L 235.450982 162.64467 
L 232.992147 166.903498 
L 230.836382 171.323471 
L 228.99419 175.883056 
L 227.474546 180.560039 
L 226.284854 185.331633 
L 225.430909 190.174594 
L 224.916873 195.065325 
L 224.745248 199.98 
L 224.916873 204.894675 
L 225.430909 209.785406 
L 226.284854 214.628367 
L 227.474546 219.399961 
L 228.99419 224.076944 
L 230.836382 228.636529 
L 232.992147 233.056502 
L 235.450982 237.31533 
L 238.200909 241.392264 
L 241.228529 245.267441 
L 244.519093 248.921983 
L 248.056569 252.338084 
L 251.823724 255.499102 
L 255.802203 258.389636 
L 259.972624 260.995605 
L 264.31467 263.304311 
L 268.807185 265.304508 
L 273.428284 266.986451 
L 278.155453 268.341944 
L 282.965661 269.364386 
L 287.835473 270.048793 
L 292.741165 270.391833 
L 297.658835 270.391833 
L 302.564527 270.048793 
L 307.434339 269.364386 
L 312.244547 268.341944 
L 316.971716 266.986451 
L 321.592815 265.304508 
L 326.08533 263.304311 
L 330.427376 260.995605 
L 334.597797 258.389636 
L 338.576276 255.499102 
L 342.343431 252.338084 
L 345.880907 248.921983 
L 349.171471 245.267441 
L 352.199091 241.392264 
L 354.949018 237.31533 
L 357.407853 233.056502 
L 359.563618 228.636529 
L 361.40581 224.076944 
L 362.925454 219.399961 
L 364.115146 214.628367 
L 364.969091 209.785406 
L 365.483127 204.894675 
L 365.654752 199.98 
L 365.654752 199.98 
" style="fill:none;stroke:#ffffff;stroke-linecap:round;"/>
     </g>
     <g id="text_11">
      <!-- 0.3 -->
      <g style="fill:#262626;" transform="translate(360.291703 171.030634)scale(0.1 -0.1)">
       <use xlink:href="#ArialMT-48"/>
       <use x="55.615234" xlink:href="#ArialMT-46"/>
       <use x="83.398438" xlink:href="#ArialMT-51"/>
      </g>
     </g>
    </g>
    <g id="ytick_4">
     <g id="line2d_12">
      <path clip-path="url(#p330ee2a342)" d="M 389.139669 199.98 
L 389.082443 196.701553 
L 388.910837 193.4271 
L 388.625058 190.160631 
L 388.225454 186.906125 
L 387.712514 183.667548 
L 387.086862 180.448845 
L 386.349259 177.253937 
L 385.500605 174.086718 
L 384.541934 170.951046 
L 383.474414 167.850741 
L 382.299344 164.789581 
L 381.018158 161.771294 
L 379.632415 158.79956 
L 378.143804 155.877997 
L 376.55414 153.010166 
L 374.865357 150.19956 
L 373.079515 147.449604 
L 371.198789 144.763648 
L 369.225469 142.144965 
L 367.161961 139.596745 
L 365.010779 137.122092 
L 362.774543 134.724023 
L 360.455977 132.405457 
L 358.057908 130.169221 
L 355.583255 128.018039 
L 353.035035 125.954531 
L 350.416352 123.981211 
L 347.730396 122.100485 
L 344.98044 120.314643 
L 342.169834 118.62586 
L 339.302003 117.036196 
L 336.38044 115.547585 
L 333.408706 114.161842 
L 330.390419 112.880656 
L 327.329259 111.705586 
L 324.228954 110.638066 
L 321.093282 109.679395 
L 317.926063 108.830741 
L 314.731155 108.093138 
L 311.512452 107.467486 
L 308.273875 106.954546 
L 305.019369 106.554942 
L 301.7529 106.269163 
L 298.478447 106.097557 
L 295.2 106.040331 
L 291.921553 106.097557 
L 288.6471 106.269163 
L 285.380631 106.554942 
L 282.126125 106.954546 
L 278.887548 107.467486 
L 275.668845 108.093138 
L 272.473937 108.830741 
L 269.306718 109.679395 
L 266.171046 110.638066 
L 263.070741 111.705586 
L 260.009581 112.880656 
L 256.991294 114.161842 
L 254.01956 115.547585 
L 251.097997 117.036196 
L 248.230166 118.62586 
L 245.41956 120.314643 
L 242.669604 122.100485 
L 239.983648 123.981211 
L 237.364965 125.954531 
L 234.816745 128.018039 
L 232.342092 130.169221 
L 229.944023 132.405457 
L 227.625457 134.724023 
L 225.389221 137.122092 
L 223.238039 139.596745 
L 221.174531 142.144965 
L 219.201211 144.763648 
L 217.320485 147.449604 
L 215.534643 150.19956 
L 213.84586 153.010166 
L 212.256196 155.877997 
L 210.767585 158.79956 
L 209.381842 161.771294 
L 208.100656 164.789581 
L 206.925586 167.850741 
L 205.858066 170.951046 
L 204.899395 174.086718 
L 204.050741 177.253937 
L 203.313138 180.448845 
L 202.687486 183.667548 
L 202.174546 186.906125 
L 201.774942 190.160631 
L 201.489163 193.4271 
L 201.317557 196.701553 
L 201.260331 199.98 
L 201.317557 203.258447 
L 201.489163 206.5329 
L 201.774942 209.799369 
L 202.174546 213.053875 
L 202.687486 216.292452 
L 203.313138 219.511155 
L 204.050741 222.706063 
L 204.899395 225.873282 
L 205.858066 229.008954 
L 206.925586 232.109259 
L 208.100656 235.170419 
L 209.381842 238.188706 
L 210.767585 241.16044 
L 212.256196 244.082003 
L 213.84586 246.949834 
L 215.534643 249.76044 
L 217.320485 252.510396 
L 219.201211 255.196352 
L 221.174531 257.815035 
L 223.238039 260.363255 
L 225.389221 262.837908 
L 227.625457 265.235977 
L 229.944023 267.554543 
L 232.342092 269.790779 
L 234.816745 271.941961 
L 237.364965 274.005469 
L 239.983648 275.978789 
L 242.669604 277.859515 
L 245.41956 279.645357 
L 248.230166 281.33414 
L 251.097997 282.923804 
L 254.01956 284.412415 
L 256.991294 285.798158 
L 260.009581 287.079344 
L 263.070741 288.254414 
L 266.171046 289.321934 
L 269.306718 290.280605 
L 272.473937 291.129259 
L 275.668845 291.866862 
L 278.887548 292.492514 
L 282.126125 293.005454 
L 285.380631 293.405058 
L 288.6471 293.690837 
L 291.921553 293.862443 
L 295.2 293.919669 
L 298.478447 293.862443 
L 301.7529 293.690837 
L 305.019369 293.405058 
L 308.273875 293.005454 
L 311.512452 292.492514 
L 314.731155 291.866862 
L 317.926063 291.129259 
L 321.093282 290.280605 
L 324.228954 289.321934 
L 327.329259 288.254414 
L 330.390419 287.079344 
L 333.408706 285.798158 
L 336.38044 284.412415 
L 339.302003 282.923804 
L 342.169834 281.33414 
L 344.98044 279.645357 
L 347.730396 277.859515 
L 350.416352 275.978789 
L 353.035035 274.005469 
L 355.583255 271.941961 
L 358.057908 269.790779 
L 360.455977 267.554543 
L 362.774543 265.235977 
L 365.010779 262.837908 
L 367.161961 260.363255 
L 369.225469 257.815035 
L 371.198789 255.196352 
L 373.079515 252.510396 
L 374.865357 249.76044 
L 376.55414 246.949834 
L 378.143804 244.082003 
L 379.632415 241.16044 
L 381.018158 238.188706 
L 382.299344 235.170419 
L 383.474414 232.109259 
L 384.541934 229.008954 
L 385.500605 225.873282 
L 386.349259 222.706063 
L 387.086862 219.511155 
L 387.712514 216.292452 
L 388.225454 213.053875 
L 388.625058 209.799369 
L 388.910837 206.5329 
L 389.082443 203.258447 
L 389.139669 199.98 
L 389.139669 199.98 
" style="fill:none;stroke:#ffffff;stroke-linecap:round;"/>
     </g>
     <g id="text_12">
      <!-- 0.4 -->
      <g style="fill:#262626;" transform="translate(381.988937 162.043345)scale(0.1 -0.1)">
       <use xlink:href="#ArialMT-48"/>
       <use x="55.615234" xlink:href="#ArialMT-46"/>
       <use x="83.398438" xlink:href="#ArialMT-52"/>
      </g>
     </g>
    </g>
    <g id="ytick_5">
     <g id="line2d_13">
      <path clip-path="url(#p330ee2a342)" d="M 412.624586 199.98 
L 412.553054 195.881941 
L 412.338546 191.788875 
L 411.981322 187.705788 
L 411.481818 183.637656 
L 410.840643 179.589435 
L 410.058577 175.566056 
L 409.136574 171.572422 
L 408.075757 167.613398 
L 406.877418 163.693807 
L 405.543017 159.818426 
L 404.07418 155.991976 
L 402.472697 152.219118 
L 400.740519 148.50445 
L 398.879756 144.852496 
L 396.892675 141.267707 
L 394.781697 137.75445 
L 392.549394 134.317005 
L 390.198486 130.95956 
L 387.731837 127.686206 
L 385.152452 124.500931 
L 382.463474 121.407616 
L 379.668178 118.410028 
L 376.769972 115.511822 
L 373.772384 112.716526 
L 370.679069 110.027548 
L 367.493794 107.448163 
L 364.22044 104.981514 
L 360.862995 102.630606 
L 357.42555 100.398303 
L 353.912293 98.287325 
L 350.327504 96.300244 
L 346.67555 94.439481 
L 342.960882 92.707303 
L 339.188024 91.10582 
L 335.361574 89.636983 
L 331.486193 88.302582 
L 327.566602 87.104243 
L 323.607578 86.043426 
L 319.613944 85.121423 
L 315.590565 84.339357 
L 311.542344 83.698182 
L 307.474212 83.198678 
L 303.391125 82.841454 
L 299.298059 82.626946 
L 295.2 82.555414 
L 291.101941 82.626946 
L 287.008875 82.841454 
L 282.925788 83.198678 
L 278.857656 83.698182 
L 274.809435 84.339357 
L 270.786056 85.121423 
L 266.792422 86.043426 
L 262.833398 87.104243 
L 258.913807 88.302582 
L 255.038426 89.636983 
L 251.211976 91.10582 
L 247.439118 92.707303 
L 243.72445 94.439481 
L 240.072496 96.300244 
L 236.487707 98.287325 
L 232.97445 100.398303 
L 229.537005 102.630606 
L 226.17956 104.981514 
L 222.906206 107.448163 
L 219.720931 110.027548 
L 216.627616 112.716526 
L 213.630028 115.511822 
L 210.731822 118.410028 
L 207.936526 121.407616 
L 205.247548 124.500931 
L 202.668163 127.686206 
L 200.201514 130.95956 
L 197.850606 134.317005 
L 195.618303 137.75445 
L 193.507325 141.267707 
L 191.520244 144.852496 
L 189.659481 148.50445 
L 187.927303 152.219118 
L 186.32582 155.991976 
L 184.856983 159.818426 
L 183.522582 163.693807 
L 182.324243 167.613398 
L 181.263426 171.572422 
L 180.341423 175.566056 
L 179.559357 179.589435 
L 178.918182 183.637656 
L 178.418678 187.705788 
L 178.061454 191.788875 
L 177.846946 195.881941 
L 177.775414 199.98 
L 177.846946 204.078059 
L 178.061454 208.171125 
L 178.418678 212.254212 
L 178.918182 216.322344 
L 179.559357 220.370565 
L 180.341423 224.393944 
L 181.263426 228.387578 
L 182.324243 232.346602 
L 183.522582 236.266193 
L 184.856983 240.141574 
L 186.32582 243.968024 
L 187.927303 247.740882 
L 189.659481 251.45555 
L 191.520244 255.107504 
L 193.507325 258.692293 
L 195.618303 262.20555 
L 197.850606 265.642995 
L 200.201514 269.00044 
L 202.668163 272.273794 
L 205.247548 275.459069 
L 207.936526 278.552384 
L 210.731822 281.549972 
L 213.630028 284.448178 
L 216.627616 287.243474 
L 219.720931 289.932452 
L 222.906206 292.511837 
L 226.17956 294.978486 
L 229.537005 297.329394 
L 232.97445 299.561697 
L 236.487707 301.672675 
L 240.072496 303.659756 
L 243.72445 305.520519 
L 247.439118 307.252697 
L 251.211976 308.85418 
L 255.038426 310.323017 
L 258.913807 311.657418 
L 262.833398 312.855757 
L 266.792422 313.916574 
L 270.786056 314.838577 
L 274.809435 315.620643 
L 278.857656 316.261818 
L 282.925788 316.761322 
L 287.008875 317.118546 
L 291.101941 317.333054 
L 295.2 317.404586 
L 299.298059 317.333054 
L 303.391125 317.118546 
L 307.474212 316.761322 
L 311.542344 316.261818 
L 315.590565 315.620643 
L 319.613944 314.838577 
L 323.607578 313.916574 
L 327.566602 312.855757 
L 331.486193 311.657418 
L 335.361574 310.323017 
L 339.188024 308.85418 
L 342.960882 307.252697 
L 346.67555 305.520519 
L 350.327504 303.659756 
L 353.912293 301.672675 
L 357.42555 299.561697 
L 360.862995 297.329394 
L 364.22044 294.978486 
L 367.493794 292.511837 
L 370.679069 289.932452 
L 373.772384 287.243474 
L 376.769972 284.448178 
L 379.668178 281.549972 
L 382.463474 278.552384 
L 385.152452 275.459069 
L 387.731837 272.273794 
L 390.198486 269.00044 
L 392.549394 265.642995 
L 394.781697 262.20555 
L 396.892675 258.692293 
L 398.879756 255.107504 
L 400.740519 251.45555 
L 402.472697 247.740882 
L 404.07418 243.968024 
L 405.543017 240.141574 
L 406.877418 236.266193 
L 408.075757 232.346602 
L 409.136574 228.387578 
L 410.058577 224.393944 
L 410.840643 220.370565 
L 411.481818 216.322344 
L 411.981322 212.254212 
L 412.338546 208.171125 
L 412.553054 204.078059 
L 412.624586 199.98 
L 412.624586 199.98 
" style="fill:none;stroke:#ffffff;stroke-linecap:round;"/>
     </g>
     <g id="text_13">
      <!-- 0.5 -->
      <g style="fill:#262626;" transform="translate(403.686172 153.056056)scale(0.1 -0.1)">
       <use xlink:href="#ArialMT-48"/>
       <use x="55.615234" xlink:href="#ArialMT-46"/>
       <use x="83.398438" xlink:href="#ArialMT-53"/>
      </g>
     </g>
    </g>
    <g id="ytick_6">
     <g id="line2d_14">
      <path clip-path="url(#p330ee2a342)" d="M 436.109503 199.98 
L 436.023665 195.062329 
L 435.766255 190.15065 
L 435.337586 185.250946 
L 434.738182 180.369187 
L 433.968771 175.511322 
L 433.030293 170.683267 
L 431.923889 165.890906 
L 430.650908 161.140077 
L 429.212901 156.436569 
L 427.61162 151.786111 
L 425.849016 147.194371 
L 423.927237 142.666942 
L 421.848623 138.209339 
L 419.615707 133.826995 
L 417.231209 129.525248 
L 414.698036 125.30934 
L 412.019273 121.184406 
L 409.198183 117.155472 
L 406.238204 113.227447 
L 403.142942 109.405117 
L 399.916168 105.693139 
L 396.561814 102.096034 
L 393.083966 98.618186 
L 389.486861 95.263832 
L 385.774883 92.037058 
L 381.952553 88.941796 
L 378.024528 85.981817 
L 373.995594 83.160727 
L 369.87066 80.481964 
L 365.654752 77.948791 
L 361.353005 75.564293 
L 356.970661 73.331377 
L 352.513058 71.252763 
L 347.985629 69.330984 
L 343.393889 67.56838 
L 338.743431 65.967099 
L 334.039923 64.529092 
L 329.289094 63.256111 
L 324.496733 62.149707 
L 319.668678 61.211229 
L 314.810813 60.441818 
L 309.929054 59.842414 
L 305.02935 59.413745 
L 300.117671 59.156335 
L 295.2 59.070497 
L 290.282329 59.156335 
L 285.37065 59.413745 
L 280.470946 59.842414 
L 275.589187 60.441818 
L 270.731322 61.211229 
L 265.903267 62.149707 
L 261.110906 63.256111 
L 256.360077 64.529092 
L 251.656569 65.967099 
L 247.006111 67.56838 
L 242.414371 69.330984 
L 237.886942 71.252763 
L 233.429339 73.331377 
L 229.046995 75.564293 
L 224.745248 77.948791 
L 220.52934 80.481964 
L 216.404406 83.160727 
L 212.375472 85.981817 
L 208.447447 88.941796 
L 204.625117 92.037058 
L 200.913139 95.263832 
L 197.316034 98.618186 
L 193.838186 102.096034 
L 190.483832 105.693139 
L 187.257058 109.405117 
L 184.161796 113.227447 
L 181.201817 117.155472 
L 178.380727 121.184406 
L 175.701964 125.30934 
L 173.168791 129.525248 
L 170.784293 133.826995 
L 168.551377 138.209339 
L 166.472763 142.666942 
L 164.550984 147.194371 
L 162.78838 151.786111 
L 161.187099 156.436569 
L 159.749092 161.140077 
L 158.476111 165.890906 
L 157.369707 170.683267 
L 156.431229 175.511322 
L 155.661818 180.369187 
L 155.062414 185.250946 
L 154.633745 190.15065 
L 154.376335 195.062329 
L 154.290497 199.98 
L 154.376335 204.897671 
L 154.633745 209.80935 
L 155.062414 214.709054 
L 155.661818 219.590813 
L 156.431229 224.448678 
L 157.369707 229.276733 
L 158.476111 234.069094 
L 159.749092 238.819923 
L 161.187099 243.523431 
L 162.78838 248.173889 
L 164.550984 252.765629 
L 166.472763 257.293058 
L 168.551377 261.750661 
L 170.784293 266.133005 
L 173.168791 270.434752 
L 175.701964 274.65066 
L 178.380727 278.775594 
L 181.201817 282.804528 
L 184.161796 286.732553 
L 187.257058 290.554883 
L 190.483832 294.266861 
L 193.838186 297.863966 
L 197.316034 301.341814 
L 200.913139 304.696168 
L 204.625117 307.922942 
L 208.447447 311.018204 
L 212.375472 313.978183 
L 216.404406 316.799273 
L 220.52934 319.478036 
L 224.745248 322.011209 
L 229.046995 324.395707 
L 233.429339 326.628623 
L 237.886942 328.707237 
L 242.414371 330.629016 
L 247.006111 332.39162 
L 251.656569 333.992901 
L 256.360077 335.430908 
L 261.110906 336.703889 
L 265.903267 337.810293 
L 270.731322 338.748771 
L 275.589187 339.518182 
L 280.470946 340.117586 
L 285.37065 340.546255 
L 290.282329 340.803665 
L 295.2 340.889503 
L 300.117671 340.803665 
L 305.02935 340.546255 
L 309.929054 340.117586 
L 314.810813 339.518182 
L 319.668678 338.748771 
L 324.496733 337.810293 
L 329.289094 336.703889 
L 334.039923 335.430908 
L 338.743431 333.992901 
L 343.393889 332.39162 
L 347.985629 330.629016 
L 352.513058 328.707237 
L 356.970661 326.628623 
L 361.353005 324.395707 
L 365.654752 322.011209 
L 369.87066 319.478036 
L 373.995594 316.799273 
L 378.024528 313.978183 
L 381.952553 311.018204 
L 385.774883 307.922942 
L 389.486861 304.696168 
L 393.083966 301.341814 
L 396.561814 297.863966 
L 399.916168 294.266861 
L 403.142942 290.554883 
L 406.238204 286.732553 
L 409.198183 282.804528 
L 412.019273 278.775594 
L 414.698036 274.65066 
L 417.231209 270.434752 
L 419.615707 266.133005 
L 421.848623 261.750661 
L 423.927237 257.293058 
L 425.849016 252.765629 
L 427.61162 248.173889 
L 429.212901 243.523431 
L 430.650908 238.819923 
L 431.923889 234.069094 
L 433.030293 229.276733 
L 433.968771 224.448678 
L 434.738182 219.590813 
L 435.337586 214.709054 
L 435.766255 209.80935 
L 436.023665 204.897671 
L 436.109503 199.98 
L 436.109503 199.98 
" style="fill:none;stroke:#ffffff;stroke-linecap:round;"/>
     </g>
     <g id="text_14">
      <!-- 0.6 -->
      <defs>
       <path d="M 49.75 54.046875 
L 41.015625 53.375 
Q 39.84375 58.546875 37.703125 60.890625 
Q 34.125 64.65625 28.90625 64.65625 
Q 24.703125 64.65625 21.53125 62.3125 
Q 17.390625 59.28125 14.984375 53.46875 
Q 12.59375 47.65625 12.5 36.921875 
Q 15.671875 41.75 20.265625 44.09375 
Q 24.859375 46.4375 29.890625 46.4375 
Q 38.671875 46.4375 44.84375 39.96875 
Q 51.03125 33.5 51.03125 23.25 
Q 51.03125 16.5 48.125 10.71875 
Q 45.21875 4.9375 40.140625 1.859375 
Q 35.0625 -1.21875 28.609375 -1.21875 
Q 17.625 -1.21875 10.6875 6.859375 
Q 3.765625 14.9375 3.765625 33.5 
Q 3.765625 54.25 11.421875 63.671875 
Q 18.109375 71.875 29.4375 71.875 
Q 37.890625 71.875 43.28125 67.140625 
Q 48.6875 62.40625 49.75 54.046875 
z
M 13.875 23.1875 
Q 13.875 18.65625 15.796875 14.5 
Q 17.71875 10.359375 21.1875 8.171875 
Q 24.65625 6 28.46875 6 
Q 34.03125 6 38.03125 10.484375 
Q 42.046875 14.984375 42.046875 22.703125 
Q 42.046875 30.125 38.078125 34.390625 
Q 34.125 38.671875 28.125 38.671875 
Q 22.171875 38.671875 18.015625 34.390625 
Q 13.875 30.125 13.875 23.1875 
z
" id="ArialMT-54"/>
      </defs>
      <g style="fill:#262626;" transform="translate(425.383406 144.068768)scale(0.1 -0.1)">
       <use xlink:href="#ArialMT-48"/>
       <use x="55.615234" xlink:href="#ArialMT-46"/>
       <use x="83.398438" xlink:href="#ArialMT-54"/>
      </g>
     </g>
    </g>
   </g>
   <g id="PathCollection_1">
    <defs>
     <path d="M 0 3.5 
C 0.928211 3.5 1.81853 3.131218 2.474874 2.474874 
C 3.131218 1.81853 3.5 0.928211 3.5 0 
C 3.5 -0.928211 3.131218 -1.81853 2.474874 -2.474874 
C 1.81853 -3.131218 0.928211 -3.5 0 -3.5 
C -0.928211 -3.5 -1.81853 -3.131218 -2.474874 -2.474874 
C -3.131218 -1.81853 -3.5 -0.928211 -3.5 0 
C -3.5 0.928211 -3.131218 1.81853 -2.474874 2.474874 
C -1.81853 3.131218 -0.928211 3.5 0 3.5 
z
" id="mb9e103ceb2" style="stroke:#4c72b0;stroke-width:0.3;"/>
    </defs>
    <g clip-path="url(#p330ee2a342)">
     <use style="fill:#4c72b0;stroke:#4c72b0;stroke-width:0.3;" x="307.118974" xlink:href="#mb9e103ceb2" y="186.72114"/>
     <use style="fill:#4c72b0;stroke:#4c72b0;stroke-width:0.3;" x="280.53189" xlink:href="#mb9e103ceb2" y="194.451584"/>
     <use style="fill:#4c72b0;stroke:#4c72b0;stroke-width:0.3;" x="290.014655" xlink:href="#mb9e103ceb2" y="196.666286"/>
     <use style="fill:#4c72b0;stroke:#4c72b0;stroke-width:0.3;" x="280.401408" xlink:href="#mb9e103ceb2" y="193.023132"/>
     <use style="fill:#4c72b0;stroke:#4c72b0;stroke-width:0.3;" x="262.285076" xlink:href="#mb9e103ceb2" y="198.475656"/>
     <use style="fill:#4c72b0;stroke:#4c72b0;stroke-width:0.3;" x="306.711763" xlink:href="#mb9e103ceb2" y="200.747106"/>
     <use style="fill:#4c72b0;stroke:#4c72b0;stroke-width:0.3;" x="310.762419" xlink:href="#mb9e103ceb2" y="196.993042"/>
     <use style="fill:#4c72b0;stroke:#4c72b0;stroke-width:0.3;" x="298.014052" xlink:href="#mb9e103ceb2" y="196.257397"/>
     <use style="fill:#4c72b0;stroke:#4c72b0;stroke-width:0.3;" x="273.027593" xlink:href="#mb9e103ceb2" y="200.242523"/>
     <use style="fill:#4c72b0;stroke:#4c72b0;stroke-width:0.3;" x="307.334453" xlink:href="#mb9e103ceb2" y="202.638754"/>
     <use style="fill:#4c72b0;stroke:#4c72b0;stroke-width:0.3;" x="356.010465" xlink:href="#mb9e103ceb2" y="192.351323"/>
     <use style="fill:#4c72b0;stroke:#4c72b0;stroke-width:0.3;" x="363.478444" xlink:href="#mb9e103ceb2" y="185.18646"/>
     <use style="fill:#4c72b0;stroke:#4c72b0;stroke-width:0.3;" x="309.350013" xlink:href="#mb9e103ceb2" y="185.038033"/>
     <use style="fill:#4c72b0;stroke:#4c72b0;stroke-width:0.3;" x="276.818094" xlink:href="#mb9e103ceb2" y="187.203459"/>
     <use style="fill:#4c72b0;stroke:#4c72b0;stroke-width:0.3;" x="313.819052" xlink:href="#mb9e103ceb2" y="184.767325"/>
     <use style="fill:#4c72b0;stroke:#4c72b0;stroke-width:0.3;" x="317.266129" xlink:href="#mb9e103ceb2" y="184.136721"/>
     <use style="fill:#4c72b0;stroke:#4c72b0;stroke-width:0.3;" x="287.403605" xlink:href="#mb9e103ceb2" y="192.388709"/>
     <use style="fill:#4c72b0;stroke:#4c72b0;stroke-width:0.3;" x="256.841167" xlink:href="#mb9e103ceb2" y="196.262403"/>
     <use style="fill:#4c72b0;stroke:#4c72b0;stroke-width:0.3;" x="300.152945" xlink:href="#mb9e103ceb2" y="201.52317"/>
     <use style="fill:#4c72b0;stroke:#4c72b0;stroke-width:0.3;" x="313.203314" xlink:href="#mb9e103ceb2" y="202.167756"/>
     <use style="fill:#4c72b0;stroke:#4c72b0;stroke-width:0.3;" x="329.879473" xlink:href="#mb9e103ceb2" y="205.607905"/>
     <use style="fill:#4c72b0;stroke:#4c72b0;stroke-width:0.3;" x="304.209971" xlink:href="#mb9e103ceb2" y="212.968145"/>
     <use style="fill:#4c72b0;stroke:#4c72b0;stroke-width:0.3;" x="322.582342" xlink:href="#mb9e103ceb2" y="208.890553"/>
     <use style="fill:#4c72b0;stroke:#4c72b0;stroke-width:0.3;" x="234.260622" xlink:href="#mb9e103ceb2" y="217.588239"/>
    </g>
   </g>
   <g id="PathCollection_2">
    <defs>
     <path d="M 0 3.5 
C 0.928211 3.5 1.81853 3.131218 2.474874 2.474874 
C 3.131218 1.81853 3.5 0.928211 3.5 0 
C 3.5 -0.928211 3.131218 -1.81853 2.474874 -2.474874 
C 1.81853 -3.131218 0.928211 -3.5 0 -3.5 
C -0.928211 -3.5 -1.81853 -3.131218 -2.474874 -2.474874 
C -3.131218 -1.81853 -3.5 -0.928211 -3.5 0 
C -3.5 0.928211 -3.131218 1.81853 -2.474874 2.474874 
C -1.81853 3.131218 -0.928211 3.5 0 3.5 
z
" id="m7e4dc62aed" style="stroke:#55a868;stroke-width:0.3;"/>
    </defs>
    <g clip-path="url(#p330ee2a342)">
     <use style="fill:#55a868;stroke:#55a868;stroke-width:0.3;" x="298.999064" xlink:href="#m7e4dc62aed" y="205.859488"/>
     <use style="fill:#55a868;stroke:#55a868;stroke-width:0.3;" x="331.357207" xlink:href="#m7e4dc62aed" y="198.878355"/>
     <use style="fill:#55a868;stroke:#55a868;stroke-width:0.3;" x="303.879585" xlink:href="#m7e4dc62aed" y="196.016636"/>
     <use style="fill:#55a868;stroke:#55a868;stroke-width:0.3;" x="265.726891" xlink:href="#m7e4dc62aed" y="201.950599"/>
     <use style="fill:#55a868;stroke:#55a868;stroke-width:0.3;" x="292.011822" xlink:href="#m7e4dc62aed" y="200.84482"/>
     <use style="fill:#55a868;stroke:#55a868;stroke-width:0.3;" x="288.869678" xlink:href="#m7e4dc62aed" y="205.546969"/>
     <use style="fill:#55a868;stroke:#55a868;stroke-width:0.3;" x="303.964124" xlink:href="#m7e4dc62aed" y="206.495399"/>
     <use style="fill:#55a868;stroke:#55a868;stroke-width:0.3;" x="295.528349" xlink:href="#m7e4dc62aed" y="209.306704"/>
     <use style="fill:#55a868;stroke:#55a868;stroke-width:0.3;" x="232.087167" xlink:href="#m7e4dc62aed" y="221.628169"/>
     <use style="fill:#55a868;stroke:#55a868;stroke-width:0.3;" x="287.681701" xlink:href="#m7e4dc62aed" y="219.449147"/>
     <use style="fill:#55a868;stroke:#55a868;stroke-width:0.3;" x="313.732612" xlink:href="#m7e4dc62aed" y="210.014854"/>
     <use style="fill:#55a868;stroke:#55a868;stroke-width:0.3;" x="308.174838" xlink:href="#m7e4dc62aed" y="207.119679"/>
     <use style="fill:#55a868;stroke:#55a868;stroke-width:0.3;" x="296.813179" xlink:href="#m7e4dc62aed" y="203.679289"/>
     <use style="fill:#55a868;stroke:#55a868;stroke-width:0.3;" x="279.40508" xlink:href="#m7e4dc62aed" y="203.597366"/>
     <use style="fill:#55a868;stroke:#55a868;stroke-width:0.3;" x="303.789087" xlink:href="#m7e4dc62aed" y="197.000092"/>
     <use style="fill:#55a868;stroke:#55a868;stroke-width:0.3;" x="273.736539" xlink:href="#m7e4dc62aed" y="200.497138"/>
     <use style="fill:#55a868;stroke:#55a868;stroke-width:0.3;" x="350.354393" xlink:href="#m7e4dc62aed" y="180.835129"/>
     <use style="fill:#55a868;stroke:#55a868;stroke-width:0.3;" x="247.463657" xlink:href="#m7e4dc62aed" y="195.538805"/>
     <use style="fill:#55a868;stroke:#55a868;stroke-width:0.3;" x="267.443542" xlink:href="#m7e4dc62aed" y="191.054207"/>
     <use style="fill:#55a868;stroke:#55a868;stroke-width:0.3;" x="276.961236" xlink:href="#m7e4dc62aed" y="197.797719"/>
     <use style="fill:#55a868;stroke:#55a868;stroke-width:0.3;" x="327.093076" xlink:href="#m7e4dc62aed" y="193.579621"/>
     <use style="fill:#55a868;stroke:#55a868;stroke-width:0.3;" x="263.768641" xlink:href="#m7e4dc62aed" y="201.078924"/>
     <use style="fill:#55a868;stroke:#55a868;stroke-width:0.3;" x="259.365041" xlink:href="#m7e4dc62aed" y="203.570811"/>
     <use style="fill:#55a868;stroke:#55a868;stroke-width:0.3;" x="303.681712" xlink:href="#m7e4dc62aed" y="196.434657"/>
    </g>
   </g>
   <g id="PathCollection_3">
    <defs>
     <path d="M 0 3.5 
C 0.928211 3.5 1.81853 3.131218 2.474874 2.474874 
C 3.131218 1.81853 3.5 0.928211 3.5 0 
C 3.5 -0.928211 3.131218 -1.81853 2.474874 -2.474874 
C 1.81853 -3.131218 0.928211 -3.5 0 -3.5 
C -0.928211 -3.5 -1.81853 -3.131218 -2.474874 -2.474874 
C -3.131218 -1.81853 -3.5 -0.928211 -3.5 0 
C -3.5 0.928211 -3.131218 1.81853 -2.474874 2.474874 
C -1.81853 3.131218 -0.928211 3.5 0 3.5 
z
" id="m72f26e57b9" style="stroke:#c44e52;stroke-width:0.3;"/>
    </defs>
    <g clip-path="url(#p330ee2a342)">
     <use style="fill:#c44e52;stroke:#c44e52;stroke-width:0.3;" x="292.005662" xlink:href="#m72f26e57b9" y="196.148276"/>
     <use style="fill:#c44e52;stroke:#c44e52;stroke-width:0.3;" x="298.128512" xlink:href="#m72f26e57b9" y="195.388238"/>
     <use style="fill:#c44e52;stroke:#c44e52;stroke-width:0.3;" x="328.364757" xlink:href="#m72f26e57b9" y="187.074669"/>
     <use style="fill:#c44e52;stroke:#c44e52;stroke-width:0.3;" x="267.614946" xlink:href="#m72f26e57b9" y="200.912105"/>
     <use style="fill:#c44e52;stroke:#c44e52;stroke-width:0.3;" x="403.810948" xlink:href="#m72f26e57b9" y="172.214919"/>
     <use style="fill:#c44e52;stroke:#c44e52;stroke-width:0.3;" x="263.310869" xlink:href="#m72f26e57b9" y="192.219723"/>
     <use style="fill:#c44e52;stroke:#c44e52;stroke-width:0.3;" x="295.467916" xlink:href="#m72f26e57b9" y="185.853942"/>
     <use style="fill:#c44e52;stroke:#c44e52;stroke-width:0.3;" x="303.974698" xlink:href="#m72f26e57b9" y="192.51913"/>
     <use style="fill:#c44e52;stroke:#c44e52;stroke-width:0.3;" x="265.976587" xlink:href="#m72f26e57b9" y="200.156214"/>
     <use style="fill:#c44e52;stroke:#c44e52;stroke-width:0.3;" x="435.875626" xlink:href="#m72f26e57b9" y="164.016016"/>
     <use style="fill:#c44e52;stroke:#c44e52;stroke-width:0.3;" x="236.189686" xlink:href="#m72f26e57b9" y="197.568654"/>
     <use style="fill:#c44e52;stroke:#c44e52;stroke-width:0.3;" x="282.393031" xlink:href="#m72f26e57b9" y="190.325364"/>
     <use style="fill:#c44e52;stroke:#c44e52;stroke-width:0.3;" x="294.667315" xlink:href="#m72f26e57b9" y="194.875727"/>
     <use style="fill:#c44e52;stroke:#c44e52;stroke-width:0.3;" x="293.729514" xlink:href="#m72f26e57b9" y="195.67844"/>
     <use style="fill:#c44e52;stroke:#c44e52;stroke-width:0.3;" x="349.909927" xlink:href="#m72f26e57b9" y="181.092597"/>
     <use style="fill:#c44e52;stroke:#c44e52;stroke-width:0.3;" x="342.429601" xlink:href="#m72f26e57b9" y="181.533516"/>
     <use style="fill:#c44e52;stroke:#c44e52;stroke-width:0.3;" x="225.51168" xlink:href="#m72f26e57b9" y="208.373271"/>
     <use style="fill:#c44e52;stroke:#c44e52;stroke-width:0.3;" x="289.022969" xlink:href="#m72f26e57b9" y="202.222656"/>
     <use style="fill:#c44e52;stroke:#c44e52;stroke-width:0.3;" x="288.840148" xlink:href="#m72f26e57b9" y="211.663456"/>
     <use style="fill:#c44e52;stroke:#c44e52;stroke-width:0.3;" x="290.130147" xlink:href="#m72f26e57b9" y="211.046512"/>
     <use style="fill:#c44e52;stroke:#c44e52;stroke-width:0.3;" x="291.654501" xlink:href="#m72f26e57b9" y="206.985813"/>
     <use style="fill:#c44e52;stroke:#c44e52;stroke-width:0.3;" x="257.041686" xlink:href="#m72f26e57b9" y="209.685417"/>
     <use style="fill:#c44e52;stroke:#c44e52;stroke-width:0.3;" x="289.822249" xlink:href="#m72f26e57b9" y="203.214528"/>
     <use style="fill:#c44e52;stroke:#c44e52;stroke-width:0.3;" x="325.879695" xlink:href="#m72f26e57b9" y="184.314844"/>
    </g>
   </g>
   <g id="line2d_15">
    <path clip-path="url(#p330ee2a342)" d="M 295.2 199.98 
L 375.610838 79.078647 
" style="fill:none;stroke:#ff0000;stroke-dasharray:7.4,3.2;stroke-dashoffset:0;stroke-width:2;"/>
   </g>
   <g id="patch_3">
    <path d="M 447.66 199.98 
C 447.66 179.959136 443.716326 160.13295 436.054674 141.636084 
C 428.393021 123.139218 417.162388 106.331389 403.0055 92.1745 
C 388.848611 78.017612 372.040782 66.786979 353.543916 59.125326 
C 335.04705 51.463674 315.220864 47.52 295.2 47.52 
C 275.179136 47.52 255.35295 51.463674 236.856084 59.125326 
C 218.359218 66.786979 201.551389 78.017612 187.3945 92.1745 
C 173.237612 106.331389 162.006979 123.139218 154.345326 141.636084 
C 146.683674 160.13295 142.74 179.959136 142.74 199.98 
C 142.74 220.000864 146.683674 239.82705 154.345326 258.323916 
C 162.006979 276.820782 173.237612 293.628611 187.3945 307.7855 
C 201.551389 321.942388 218.359218 333.173021 236.856084 340.834674 
C 255.35295 348.496326 275.179136 352.44 295.2 352.44 
C 315.220864 352.44 335.04705 348.496326 353.543916 340.834674 
C 372.040782 333.173021 388.848611 321.942388 403.0055 307.7855 
C 417.162388 293.628611 428.393021 276.820782 436.054674 258.323916 
C 443.716326 239.82705 447.66 220.000864 447.66 199.98 
" style="fill:none;"/>
   </g>
   <g id="text_15">
    <!-- Distribution of projected eye movement velocity on the screen - NewGat1_9_11 -->
    <defs>
     <path d="M 7.71875 0 
L 7.71875 71.578125 
L 32.375 71.578125 
Q 40.71875 71.578125 45.125 70.5625 
Q 51.265625 69.140625 55.609375 65.4375 
Q 61.28125 60.640625 64.078125 53.1875 
Q 66.890625 45.75 66.890625 36.1875 
Q 66.890625 28.03125 64.984375 21.734375 
Q 63.09375 15.4375 60.109375 11.296875 
Q 57.125 7.171875 53.578125 4.796875 
Q 50.046875 2.4375 45.046875 1.21875 
Q 40.046875 0 33.546875 0 
z
M 17.1875 8.453125 
L 32.46875 8.453125 
Q 39.546875 8.453125 43.578125 9.765625 
Q 47.609375 11.078125 50 13.484375 
Q 53.375 16.84375 55.25 22.53125 
Q 57.125 28.21875 57.125 36.328125 
Q 57.125 47.5625 53.4375 53.59375 
Q 49.75 59.625 44.484375 61.671875 
Q 40.671875 63.140625 32.234375 63.140625 
L 17.1875 63.140625 
z
" id="ArialMT-68"/>
     <path d="M 6.640625 61.46875 
L 6.640625 71.578125 
L 15.4375 71.578125 
L 15.4375 61.46875 
z
M 6.640625 0 
L 6.640625 51.859375 
L 15.4375 51.859375 
L 15.4375 0 
z
" id="ArialMT-105"/>
     <path d="M 3.078125 15.484375 
L 11.765625 16.84375 
Q 12.5 11.625 15.84375 8.84375 
Q 19.1875 6.0625 25.203125 6.0625 
Q 31.25 6.0625 34.171875 8.515625 
Q 37.109375 10.984375 37.109375 14.3125 
Q 37.109375 17.28125 34.515625 19 
Q 32.71875 20.171875 25.53125 21.96875 
Q 15.875 24.421875 12.140625 26.203125 
Q 8.40625 27.984375 6.46875 31.125 
Q 4.546875 34.28125 4.546875 38.09375 
Q 4.546875 41.546875 6.125 44.5 
Q 7.71875 47.46875 10.453125 49.421875 
Q 12.5 50.921875 16.03125 51.96875 
Q 19.578125 53.03125 23.640625 53.03125 
Q 29.734375 53.03125 34.34375 51.265625 
Q 38.96875 49.515625 41.15625 46.5 
Q 43.359375 43.5 44.1875 38.484375 
L 35.59375 37.3125 
Q 35.015625 41.3125 32.203125 43.546875 
Q 29.390625 45.796875 24.265625 45.796875 
Q 18.21875 45.796875 15.625 43.796875 
Q 13.03125 41.796875 13.03125 39.109375 
Q 13.03125 37.40625 14.109375 36.03125 
Q 15.1875 34.625 17.484375 33.6875 
Q 18.796875 33.203125 25.25 31.453125 
Q 34.578125 28.953125 38.25 27.359375 
Q 41.9375 25.78125 44.03125 22.75 
Q 46.140625 19.734375 46.140625 15.234375 
Q 46.140625 10.84375 43.578125 6.953125 
Q 41.015625 3.078125 36.171875 0.953125 
Q 31.34375 -1.171875 25.25 -1.171875 
Q 15.140625 -1.171875 9.84375 3.03125 
Q 4.546875 7.234375 3.078125 15.484375 
z
" id="ArialMT-115"/>
     <path d="M 25.78125 7.859375 
L 27.046875 0.09375 
Q 23.34375 -0.6875 20.40625 -0.6875 
Q 15.625 -0.6875 12.984375 0.828125 
Q 10.359375 2.34375 9.28125 4.8125 
Q 8.203125 7.28125 8.203125 15.1875 
L 8.203125 45.015625 
L 1.765625 45.015625 
L 1.765625 51.859375 
L 8.203125 51.859375 
L 8.203125 64.703125 
L 16.9375 69.96875 
L 16.9375 51.859375 
L 25.78125 51.859375 
L 25.78125 45.015625 
L 16.9375 45.015625 
L 16.9375 14.703125 
Q 16.9375 10.9375 17.40625 9.859375 
Q 17.875 8.796875 18.921875 8.15625 
Q 19.96875 7.515625 21.921875 7.515625 
Q 23.390625 7.515625 25.78125 7.859375 
z
" id="ArialMT-116"/>
     <path d="M 6.5 0 
L 6.5 51.859375 
L 14.40625 51.859375 
L 14.40625 44 
Q 17.4375 49.515625 20 51.265625 
Q 22.5625 53.03125 25.640625 53.03125 
Q 30.078125 53.03125 34.671875 50.203125 
L 31.640625 42.046875 
Q 28.421875 43.953125 25.203125 43.953125 
Q 22.3125 43.953125 20.015625 42.21875 
Q 17.71875 40.484375 16.75 37.40625 
Q 15.28125 32.71875 15.28125 27.15625 
L 15.28125 0 
z
" id="ArialMT-114"/>
     <path d="M 14.703125 0 
L 6.546875 0 
L 6.546875 71.578125 
L 15.328125 71.578125 
L 15.328125 46.046875 
Q 20.90625 53.03125 29.546875 53.03125 
Q 34.328125 53.03125 38.59375 51.09375 
Q 42.875 49.171875 45.625 45.671875 
Q 48.390625 42.1875 49.953125 37.25 
Q 51.515625 32.328125 51.515625 26.703125 
Q 51.515625 13.375 44.921875 6.09375 
Q 38.328125 -1.171875 29.109375 -1.171875 
Q 19.921875 -1.171875 14.703125 6.5 
z
M 14.59375 26.3125 
Q 14.59375 17 17.140625 12.84375 
Q 21.296875 6.0625 28.375 6.0625 
Q 34.125 6.0625 38.328125 11.0625 
Q 42.53125 16.0625 42.53125 25.984375 
Q 42.53125 36.140625 38.5 40.96875 
Q 34.46875 45.796875 28.765625 45.796875 
Q 23 45.796875 18.796875 40.796875 
Q 14.59375 35.796875 14.59375 26.3125 
z
" id="ArialMT-98"/>
     <path d="M 40.578125 0 
L 40.578125 7.625 
Q 34.515625 -1.171875 24.125 -1.171875 
Q 19.53125 -1.171875 15.546875 0.578125 
Q 11.578125 2.34375 9.640625 5 
Q 7.71875 7.671875 6.9375 11.53125 
Q 6.390625 14.109375 6.390625 19.734375 
L 6.390625 51.859375 
L 15.1875 51.859375 
L 15.1875 23.09375 
Q 15.1875 16.21875 15.71875 13.8125 
Q 16.546875 10.359375 19.234375 8.375 
Q 21.921875 6.390625 25.875 6.390625 
Q 29.828125 6.390625 33.296875 8.421875 
Q 36.765625 10.453125 38.203125 13.9375 
Q 39.65625 17.4375 39.65625 24.078125 
L 39.65625 51.859375 
L 48.4375 51.859375 
L 48.4375 0 
z
" id="ArialMT-117"/>
     <path d="M 3.328125 25.921875 
Q 3.328125 40.328125 11.328125 47.265625 
Q 18.015625 53.03125 27.640625 53.03125 
Q 38.328125 53.03125 45.109375 46.015625 
Q 51.90625 39.015625 51.90625 26.65625 
Q 51.90625 16.65625 48.90625 10.90625 
Q 45.90625 5.171875 40.15625 2 
Q 34.421875 -1.171875 27.640625 -1.171875 
Q 16.75 -1.171875 10.03125 5.8125 
Q 3.328125 12.796875 3.328125 25.921875 
z
M 12.359375 25.921875 
Q 12.359375 15.96875 16.703125 11.015625 
Q 21.046875 6.0625 27.640625 6.0625 
Q 34.1875 6.0625 38.53125 11.03125 
Q 42.875 16.015625 42.875 26.21875 
Q 42.875 35.84375 38.5 40.796875 
Q 34.125 45.75 27.640625 45.75 
Q 21.046875 45.75 16.703125 40.8125 
Q 12.359375 35.890625 12.359375 25.921875 
z
" id="ArialMT-111"/>
     <path d="M 6.59375 0 
L 6.59375 51.859375 
L 14.5 51.859375 
L 14.5 44.484375 
Q 20.21875 53.03125 31 53.03125 
Q 35.6875 53.03125 39.625 51.34375 
Q 43.5625 49.65625 45.515625 46.921875 
Q 47.46875 44.1875 48.25 40.4375 
Q 48.734375 37.984375 48.734375 31.890625 
L 48.734375 0 
L 39.9375 0 
L 39.9375 31.546875 
Q 39.9375 36.921875 38.90625 39.578125 
Q 37.890625 42.234375 35.28125 43.8125 
Q 32.671875 45.40625 29.15625 45.40625 
Q 23.53125 45.40625 19.453125 41.84375 
Q 15.375 38.28125 15.375 28.328125 
L 15.375 0 
z
" id="ArialMT-110"/>
     <path id="ArialMT-32"/>
     <path d="M 8.6875 0 
L 8.6875 45.015625 
L 0.921875 45.015625 
L 0.921875 51.859375 
L 8.6875 51.859375 
L 8.6875 57.375 
Q 8.6875 62.59375 9.625 65.140625 
Q 10.890625 68.5625 14.078125 70.671875 
Q 17.28125 72.796875 23.046875 72.796875 
Q 26.765625 72.796875 31.25 71.921875 
L 29.9375 64.265625 
Q 27.203125 64.75 24.75 64.75 
Q 20.75 64.75 19.09375 63.03125 
Q 17.4375 61.328125 17.4375 56.640625 
L 17.4375 51.859375 
L 27.546875 51.859375 
L 27.546875 45.015625 
L 17.4375 45.015625 
L 17.4375 0 
z
" id="ArialMT-102"/>
     <path d="M 6.59375 -19.875 
L 6.59375 51.859375 
L 14.59375 51.859375 
L 14.59375 45.125 
Q 17.4375 49.078125 21 51.046875 
Q 24.5625 53.03125 29.640625 53.03125 
Q 36.28125 53.03125 41.359375 49.609375 
Q 46.4375 46.1875 49.015625 39.953125 
Q 51.609375 33.734375 51.609375 26.3125 
Q 51.609375 18.359375 48.75 11.984375 
Q 45.90625 5.609375 40.453125 2.21875 
Q 35.015625 -1.171875 29 -1.171875 
Q 24.609375 -1.171875 21.109375 0.6875 
Q 17.625 2.546875 15.375 5.375 
L 15.375 -19.875 
z
M 14.546875 25.640625 
Q 14.546875 15.625 18.59375 10.84375 
Q 22.65625 6.0625 28.421875 6.0625 
Q 34.28125 6.0625 38.453125 11.015625 
Q 42.625 15.96875 42.625 26.375 
Q 42.625 36.28125 38.546875 41.203125 
Q 34.46875 46.140625 28.8125 46.140625 
Q 23.1875 46.140625 18.859375 40.890625 
Q 14.546875 35.640625 14.546875 25.640625 
z
" id="ArialMT-112"/>
     <path d="M 6.546875 61.375 
L 6.546875 71.578125 
L 15.328125 71.578125 
L 15.328125 61.375 
z
M -4.59375 -20.125 
L -2.9375 -12.640625 
Q -0.296875 -13.328125 1.21875 -13.328125 
Q 3.90625 -13.328125 5.21875 -11.546875 
Q 6.546875 -9.765625 6.546875 -2.640625 
L 6.546875 51.859375 
L 15.328125 51.859375 
L 15.328125 -2.828125 
Q 15.328125 -12.40625 12.84375 -16.15625 
Q 9.671875 -21.046875 2.296875 -21.046875 
Q -1.265625 -21.046875 -4.59375 -20.125 
z
" id="ArialMT-106"/>
     <path d="M 42.09375 16.703125 
L 51.171875 15.578125 
Q 49.03125 7.625 43.21875 3.21875 
Q 37.40625 -1.171875 28.375 -1.171875 
Q 17 -1.171875 10.328125 5.828125 
Q 3.65625 12.84375 3.65625 25.484375 
Q 3.65625 38.578125 10.390625 45.796875 
Q 17.140625 53.03125 27.875 53.03125 
Q 38.28125 53.03125 44.875 45.953125 
Q 51.46875 38.875 51.46875 26.03125 
Q 51.46875 25.25 51.421875 23.6875 
L 12.75 23.6875 
Q 13.234375 15.140625 17.578125 10.59375 
Q 21.921875 6.0625 28.421875 6.0625 
Q 33.25 6.0625 36.671875 8.59375 
Q 40.09375 11.140625 42.09375 16.703125 
z
M 13.234375 30.90625 
L 42.1875 30.90625 
Q 41.609375 37.453125 38.875 40.71875 
Q 34.671875 45.796875 27.984375 45.796875 
Q 21.921875 45.796875 17.796875 41.75 
Q 13.671875 37.703125 13.234375 30.90625 
z
" id="ArialMT-101"/>
     <path d="M 40.4375 19 
L 49.078125 17.875 
Q 47.65625 8.9375 41.8125 3.875 
Q 35.984375 -1.171875 27.484375 -1.171875 
Q 16.84375 -1.171875 10.375 5.78125 
Q 3.90625 12.75 3.90625 25.734375 
Q 3.90625 34.125 6.6875 40.421875 
Q 9.46875 46.734375 15.15625 49.875 
Q 20.84375 53.03125 27.546875 53.03125 
Q 35.984375 53.03125 41.359375 48.75 
Q 46.734375 44.484375 48.25 36.625 
L 39.703125 35.296875 
Q 38.484375 40.53125 35.375 43.15625 
Q 32.28125 45.796875 27.875 45.796875 
Q 21.234375 45.796875 17.078125 41.03125 
Q 12.9375 36.28125 12.9375 25.984375 
Q 12.9375 15.53125 16.9375 10.796875 
Q 20.953125 6.0625 27.390625 6.0625 
Q 32.5625 6.0625 36.03125 9.234375 
Q 39.5 12.40625 40.4375 19 
z
" id="ArialMT-99"/>
     <path d="M 40.234375 0 
L 40.234375 6.546875 
Q 35.296875 -1.171875 25.734375 -1.171875 
Q 19.53125 -1.171875 14.328125 2.25 
Q 9.125 5.671875 6.265625 11.796875 
Q 3.421875 17.921875 3.421875 25.875 
Q 3.421875 33.640625 6 39.96875 
Q 8.59375 46.296875 13.765625 49.65625 
Q 18.953125 53.03125 25.34375 53.03125 
Q 30.03125 53.03125 33.6875 51.046875 
Q 37.359375 49.078125 39.65625 45.90625 
L 39.65625 71.578125 
L 48.390625 71.578125 
L 48.390625 0 
z
M 12.453125 25.875 
Q 12.453125 15.921875 16.640625 10.984375 
Q 20.84375 6.0625 26.5625 6.0625 
Q 32.328125 6.0625 36.34375 10.765625 
Q 40.375 15.484375 40.375 25.140625 
Q 40.375 35.796875 36.265625 40.765625 
Q 32.171875 45.75 26.171875 45.75 
Q 20.3125 45.75 16.375 40.96875 
Q 12.453125 36.1875 12.453125 25.875 
z
" id="ArialMT-100"/>
     <path d="M 6.203125 -19.96875 
L 5.21875 -11.71875 
Q 8.109375 -12.5 10.25 -12.5 
Q 13.1875 -12.5 14.9375 -11.515625 
Q 16.703125 -10.546875 17.828125 -8.796875 
Q 18.65625 -7.46875 20.515625 -2.25 
Q 20.75 -1.515625 21.296875 -0.09375 
L 1.609375 51.859375 
L 11.078125 51.859375 
L 21.875 21.828125 
Q 23.96875 16.109375 25.640625 9.8125 
Q 27.15625 15.875 29.25 21.625 
L 40.328125 51.859375 
L 49.125 51.859375 
L 29.390625 -0.875 
Q 26.21875 -9.421875 24.46875 -12.640625 
Q 22.125 -17 19.09375 -19.015625 
Q 16.0625 -21.046875 11.859375 -21.046875 
Q 9.328125 -21.046875 6.203125 -19.96875 
z
" id="ArialMT-121"/>
     <path d="M 6.59375 0 
L 6.59375 51.859375 
L 14.453125 51.859375 
L 14.453125 44.578125 
Q 16.890625 48.390625 20.9375 50.703125 
Q 25 53.03125 30.171875 53.03125 
Q 35.9375 53.03125 39.625 50.640625 
Q 43.3125 48.25 44.828125 43.953125 
Q 50.984375 53.03125 60.84375 53.03125 
Q 68.5625 53.03125 72.703125 48.75 
Q 76.859375 44.484375 76.859375 35.59375 
L 76.859375 0 
L 68.109375 0 
L 68.109375 32.671875 
Q 68.109375 37.9375 67.25 40.25 
Q 66.40625 42.578125 64.15625 43.984375 
Q 61.921875 45.40625 58.890625 45.40625 
Q 53.421875 45.40625 49.796875 41.765625 
Q 46.1875 38.140625 46.1875 30.125 
L 46.1875 0 
L 37.40625 0 
L 37.40625 33.6875 
Q 37.40625 39.546875 35.25 42.46875 
Q 33.109375 45.40625 28.21875 45.40625 
Q 24.515625 45.40625 21.359375 43.453125 
Q 18.21875 41.5 16.796875 37.734375 
Q 15.375 33.984375 15.375 26.90625 
L 15.375 0 
z
" id="ArialMT-109"/>
     <path d="M 21 0 
L 1.265625 51.859375 
L 10.546875 51.859375 
L 21.6875 20.796875 
Q 23.484375 15.765625 25 10.359375 
Q 26.171875 14.453125 28.265625 20.21875 
L 39.796875 51.859375 
L 48.828125 51.859375 
L 29.203125 0 
z
" id="ArialMT-118"/>
     <path d="M 6.390625 0 
L 6.390625 71.578125 
L 15.1875 71.578125 
L 15.1875 0 
z
" id="ArialMT-108"/>
     <path d="M 6.59375 0 
L 6.59375 71.578125 
L 15.375 71.578125 
L 15.375 45.90625 
Q 21.53125 53.03125 30.90625 53.03125 
Q 36.671875 53.03125 40.921875 50.75 
Q 45.171875 48.484375 47 44.484375 
Q 48.828125 40.484375 48.828125 32.859375 
L 48.828125 0 
L 40.046875 0 
L 40.046875 32.859375 
Q 40.046875 39.453125 37.1875 42.453125 
Q 34.328125 45.453125 29.109375 45.453125 
Q 25.203125 45.453125 21.75 43.421875 
Q 18.3125 41.40625 16.84375 37.9375 
Q 15.375 34.46875 15.375 28.375 
L 15.375 0 
z
" id="ArialMT-104"/>
     <path d="M 3.171875 21.484375 
L 3.171875 30.328125 
L 30.171875 30.328125 
L 30.171875 21.484375 
z
" id="ArialMT-45"/>
     <path d="M 7.625 0 
L 7.625 71.578125 
L 17.328125 71.578125 
L 54.9375 15.375 
L 54.9375 71.578125 
L 64.015625 71.578125 
L 64.015625 0 
L 54.296875 0 
L 16.703125 56.25 
L 16.703125 0 
z
" id="ArialMT-78"/>
     <path d="M 16.15625 0 
L 0.296875 51.859375 
L 9.375 51.859375 
L 17.625 21.921875 
L 20.703125 10.796875 
Q 20.90625 11.625 23.390625 21.484375 
L 31.640625 51.859375 
L 40.671875 51.859375 
L 48.4375 21.78125 
L 51.03125 11.859375 
L 54 21.875 
L 62.890625 51.859375 
L 71.4375 51.859375 
L 55.21875 0 
L 46.09375 0 
L 37.84375 31.0625 
L 35.84375 39.890625 
L 25.34375 0 
z
" id="ArialMT-119"/>
     <path d="M 41.21875 28.078125 
L 41.21875 36.46875 
L 71.53125 36.53125 
L 71.53125 9.96875 
Q 64.546875 4.390625 57.125 1.578125 
Q 49.703125 -1.21875 41.890625 -1.21875 
Q 31.34375 -1.21875 22.71875 3.296875 
Q 14.109375 7.8125 9.71875 16.359375 
Q 5.328125 24.90625 5.328125 35.453125 
Q 5.328125 45.90625 9.6875 54.953125 
Q 14.0625 64.015625 22.265625 68.40625 
Q 30.46875 72.796875 41.15625 72.796875 
Q 48.921875 72.796875 55.1875 70.28125 
Q 61.46875 67.78125 65.03125 63.28125 
Q 68.609375 58.796875 70.453125 51.5625 
L 61.921875 49.21875 
Q 60.296875 54.6875 57.90625 57.8125 
Q 55.515625 60.9375 51.0625 62.8125 
Q 46.625 64.703125 41.21875 64.703125 
Q 34.71875 64.703125 29.984375 62.71875 
Q 25.25 60.75 22.34375 57.515625 
Q 19.4375 54.296875 17.828125 50.4375 
Q 15.09375 43.796875 15.09375 36.03125 
Q 15.09375 26.46875 18.390625 20.015625 
Q 21.6875 13.578125 27.984375 10.453125 
Q 34.28125 7.328125 41.359375 7.328125 
Q 47.515625 7.328125 53.375 9.6875 
Q 59.234375 12.0625 62.25 14.75 
L 62.25 28.078125 
z
" id="ArialMT-71"/>
     <path d="M 40.4375 6.390625 
Q 35.546875 2.25 31.03125 0.53125 
Q 26.515625 -1.171875 21.34375 -1.171875 
Q 12.796875 -1.171875 8.203125 3 
Q 3.609375 7.171875 3.609375 13.671875 
Q 3.609375 17.484375 5.34375 20.625 
Q 7.078125 23.78125 9.890625 25.6875 
Q 12.703125 27.59375 16.21875 28.5625 
Q 18.796875 29.25 24.03125 29.890625 
Q 34.671875 31.15625 39.703125 32.90625 
Q 39.75 34.71875 39.75 35.203125 
Q 39.75 40.578125 37.25 42.78125 
Q 33.890625 45.75 27.25 45.75 
Q 21.046875 45.75 18.09375 43.578125 
Q 15.140625 41.40625 13.71875 35.890625 
L 5.125 37.0625 
Q 6.296875 42.578125 8.984375 45.96875 
Q 11.671875 49.359375 16.75 51.1875 
Q 21.828125 53.03125 28.515625 53.03125 
Q 35.15625 53.03125 39.296875 51.46875 
Q 43.453125 49.90625 45.40625 47.53125 
Q 47.359375 45.171875 48.140625 41.546875 
Q 48.578125 39.3125 48.578125 33.453125 
L 48.578125 21.734375 
Q 48.578125 9.46875 49.140625 6.21875 
Q 49.703125 2.984375 51.375 0 
L 42.1875 0 
Q 40.828125 2.734375 40.4375 6.390625 
z
M 39.703125 26.03125 
Q 34.90625 24.078125 25.34375 22.703125 
Q 19.921875 21.921875 17.671875 20.9375 
Q 15.4375 19.96875 14.203125 18.09375 
Q 12.984375 16.21875 12.984375 13.921875 
Q 12.984375 10.40625 15.640625 8.0625 
Q 18.3125 5.71875 23.4375 5.71875 
Q 28.515625 5.71875 32.46875 7.9375 
Q 36.421875 10.15625 38.28125 14.015625 
Q 39.703125 17 39.703125 22.796875 
z
" id="ArialMT-97"/>
     <path d="M -1.515625 -19.875 
L -1.515625 -13.53125 
L 56.734375 -13.53125 
L 56.734375 -19.875 
z
" id="ArialMT-95"/>
    </defs>
    <g style="fill:#262626;" transform="translate(84.444375 23.748375)scale(0.12 -0.12)">
     <use xlink:href="#ArialMT-68"/>
     <use x="72.216797" xlink:href="#ArialMT-105"/>
     <use x="94.433594" xlink:href="#ArialMT-115"/>
     <use x="144.433594" xlink:href="#ArialMT-116"/>
     <use x="172.216797" xlink:href="#ArialMT-114"/>
     <use x="205.517578" xlink:href="#ArialMT-105"/>
     <use x="227.734375" xlink:href="#ArialMT-98"/>
     <use x="283.349609" xlink:href="#ArialMT-117"/>
     <use x="338.964844" xlink:href="#ArialMT-116"/>
     <use x="366.748047" xlink:href="#ArialMT-105"/>
     <use x="388.964844" xlink:href="#ArialMT-111"/>
     <use x="444.580078" xlink:href="#ArialMT-110"/>
     <use x="500.195312" xlink:href="#ArialMT-32"/>
     <use x="527.978516" xlink:href="#ArialMT-111"/>
     <use x="583.59375" xlink:href="#ArialMT-102"/>
     <use x="611.376953" xlink:href="#ArialMT-32"/>
     <use x="639.160156" xlink:href="#ArialMT-112"/>
     <use x="694.775391" xlink:href="#ArialMT-114"/>
     <use x="728.076172" xlink:href="#ArialMT-111"/>
     <use x="783.691406" xlink:href="#ArialMT-106"/>
     <use x="805.908203" xlink:href="#ArialMT-101"/>
     <use x="861.523438" xlink:href="#ArialMT-99"/>
     <use x="911.523438" xlink:href="#ArialMT-116"/>
     <use x="939.306641" xlink:href="#ArialMT-101"/>
     <use x="994.921875" xlink:href="#ArialMT-100"/>
     <use x="1050.537109" xlink:href="#ArialMT-32"/>
     <use x="1078.320312" xlink:href="#ArialMT-101"/>
     <use x="1133.935547" xlink:href="#ArialMT-121"/>
     <use x="1183.935547" xlink:href="#ArialMT-101"/>
     <use x="1239.550781" xlink:href="#ArialMT-32"/>
     <use x="1267.333984" xlink:href="#ArialMT-109"/>
     <use x="1350.634766" xlink:href="#ArialMT-111"/>
     <use x="1406.25" xlink:href="#ArialMT-118"/>
     <use x="1456.25" xlink:href="#ArialMT-101"/>
     <use x="1511.865234" xlink:href="#ArialMT-109"/>
     <use x="1595.166016" xlink:href="#ArialMT-101"/>
     <use x="1650.78125" xlink:href="#ArialMT-110"/>
     <use x="1706.396484" xlink:href="#ArialMT-116"/>
     <use x="1734.179688" xlink:href="#ArialMT-32"/>
     <use x="1761.962891" xlink:href="#ArialMT-118"/>
     <use x="1811.962891" xlink:href="#ArialMT-101"/>
     <use x="1867.578125" xlink:href="#ArialMT-108"/>
     <use x="1889.794922" xlink:href="#ArialMT-111"/>
     <use x="1945.410156" xlink:href="#ArialMT-99"/>
     <use x="1995.410156" xlink:href="#ArialMT-105"/>
     <use x="2017.626953" xlink:href="#ArialMT-116"/>
     <use x="2045.410156" xlink:href="#ArialMT-121"/>
     <use x="2095.410156" xlink:href="#ArialMT-32"/>
     <use x="2123.193359" xlink:href="#ArialMT-111"/>
     <use x="2178.808594" xlink:href="#ArialMT-110"/>
     <use x="2234.423828" xlink:href="#ArialMT-32"/>
     <use x="2262.207031" xlink:href="#ArialMT-116"/>
     <use x="2289.990234" xlink:href="#ArialMT-104"/>
     <use x="2345.605469" xlink:href="#ArialMT-101"/>
     <use x="2401.220703" xlink:href="#ArialMT-32"/>
     <use x="2429.003906" xlink:href="#ArialMT-115"/>
     <use x="2479.003906" xlink:href="#ArialMT-99"/>
     <use x="2529.003906" xlink:href="#ArialMT-114"/>
     <use x="2562.304688" xlink:href="#ArialMT-101"/>
     <use x="2617.919922" xlink:href="#ArialMT-101"/>
     <use x="2673.535156" xlink:href="#ArialMT-110"/>
     <use x="2729.150391" xlink:href="#ArialMT-32"/>
     <use x="2756.933594" xlink:href="#ArialMT-45"/>
     <use x="2790.234375" xlink:href="#ArialMT-32"/>
     <use x="2818.017578" xlink:href="#ArialMT-78"/>
     <use x="2890.234375" xlink:href="#ArialMT-101"/>
     <use x="2945.849609" xlink:href="#ArialMT-119"/>
     <use x="3018.066406" xlink:href="#ArialMT-71"/>
     <use x="3095.849609" xlink:href="#ArialMT-97"/>
     <use x="3151.464844" xlink:href="#ArialMT-116"/>
     <use x="3179.248047" xlink:href="#ArialMT-49"/>
     <use x="3234.863281" xlink:href="#ArialMT-95"/>
     <use x="3290.478516" xlink:href="#ArialMT-57"/>
     <use x="3346.09375" xlink:href="#ArialMT-95"/>
     <use x="3401.708984" xlink:href="#ArialMT-49"/>
     <use x="3457.214844" xlink:href="#ArialMT-49"/>
    </g>
   </g>
   <g id="legend_1">
    <g id="line2d_16">
     <path d="M 197.816406 60.2075 
L 217.816406 60.2075 
" style="fill:none;stroke:#ff0000;stroke-dasharray:7.4,3.2;stroke-dashoffset:0;stroke-width:2;"/>
    </g>
    <g id="line2d_17"/>
    <g id="text_16">
     <!-- Average angle in dark: 56.37 degrees -->
     <defs>
      <path d="M -0.140625 0 
L 27.34375 71.578125 
L 37.546875 71.578125 
L 66.84375 0 
L 56.0625 0 
L 47.703125 21.6875 
L 17.78125 21.6875 
L 9.90625 0 
z
M 20.515625 29.390625 
L 44.78125 29.390625 
L 37.3125 49.21875 
Q 33.890625 58.25 32.234375 64.0625 
Q 30.859375 57.171875 28.375 50.390625 
z
" id="ArialMT-65"/>
      <path d="M 4.984375 -4.296875 
L 13.53125 -5.5625 
Q 14.0625 -9.515625 16.5 -11.328125 
Q 19.78125 -13.765625 25.4375 -13.765625 
Q 31.546875 -13.765625 34.859375 -11.328125 
Q 38.1875 -8.890625 39.359375 -4.5 
Q 40.046875 -1.8125 39.984375 6.78125 
Q 34.234375 0 25.640625 0 
Q 14.9375 0 9.078125 7.71875 
Q 3.21875 15.4375 3.21875 26.21875 
Q 3.21875 33.640625 5.90625 39.90625 
Q 8.59375 46.1875 13.6875 49.609375 
Q 18.796875 53.03125 25.6875 53.03125 
Q 34.859375 53.03125 40.828125 45.609375 
L 40.828125 51.859375 
L 48.921875 51.859375 
L 48.921875 7.03125 
Q 48.921875 -5.078125 46.453125 -10.125 
Q 44 -15.1875 38.640625 -18.109375 
Q 33.296875 -21.046875 25.484375 -21.046875 
Q 16.21875 -21.046875 10.5 -16.875 
Q 4.78125 -12.703125 4.984375 -4.296875 
z
M 12.25 26.859375 
Q 12.25 16.65625 16.296875 11.96875 
Q 20.359375 7.28125 26.46875 7.28125 
Q 32.515625 7.28125 36.609375 11.9375 
Q 40.71875 16.609375 40.71875 26.5625 
Q 40.71875 36.078125 36.5 40.90625 
Q 32.28125 45.75 26.3125 45.75 
Q 20.453125 45.75 16.34375 40.984375 
Q 12.25 36.234375 12.25 26.859375 
z
" id="ArialMT-103"/>
      <path d="M 6.640625 0 
L 6.640625 71.578125 
L 15.4375 71.578125 
L 15.4375 30.765625 
L 36.234375 51.859375 
L 47.609375 51.859375 
L 27.78125 32.625 
L 49.609375 0 
L 38.765625 0 
L 21.625 26.515625 
L 15.4375 20.5625 
L 15.4375 0 
z
" id="ArialMT-107"/>
      <path d="M 9.03125 41.84375 
L 9.03125 51.859375 
L 19.046875 51.859375 
L 19.046875 41.84375 
z
M 9.03125 0 
L 9.03125 10.015625 
L 19.046875 10.015625 
L 19.046875 0 
z
" id="ArialMT-58"/>
     </defs>
     <g style="fill:#262626;" transform="translate(225.816406 63.7075)scale(0.1 -0.1)">
      <use xlink:href="#ArialMT-65"/>
      <use x="66.683594" xlink:href="#ArialMT-118"/>
      <use x="116.683594" xlink:href="#ArialMT-101"/>
      <use x="172.298828" xlink:href="#ArialMT-114"/>
      <use x="205.599609" xlink:href="#ArialMT-97"/>
      <use x="261.214844" xlink:href="#ArialMT-103"/>
      <use x="316.830078" xlink:href="#ArialMT-101"/>
      <use x="372.445312" xlink:href="#ArialMT-32"/>
      <use x="400.228516" xlink:href="#ArialMT-97"/>
      <use x="455.84375" xlink:href="#ArialMT-110"/>
      <use x="511.458984" xlink:href="#ArialMT-103"/>
      <use x="567.074219" xlink:href="#ArialMT-108"/>
      <use x="589.291016" xlink:href="#ArialMT-101"/>
      <use x="644.90625" xlink:href="#ArialMT-32"/>
      <use x="672.689453" xlink:href="#ArialMT-105"/>
      <use x="694.90625" xlink:href="#ArialMT-110"/>
      <use x="750.521484" xlink:href="#ArialMT-32"/>
      <use x="778.304688" xlink:href="#ArialMT-100"/>
      <use x="833.919922" xlink:href="#ArialMT-97"/>
      <use x="889.535156" xlink:href="#ArialMT-114"/>
      <use x="922.835938" xlink:href="#ArialMT-107"/>
      <use x="972.835938" xlink:href="#ArialMT-58"/>
      <use x="1000.619141" xlink:href="#ArialMT-32"/>
      <use x="1028.402344" xlink:href="#ArialMT-53"/>
      <use x="1084.017578" xlink:href="#ArialMT-54"/>
      <use x="1139.632812" xlink:href="#ArialMT-46"/>
      <use x="1167.416016" xlink:href="#ArialMT-51"/>
      <use x="1223.03125" xlink:href="#ArialMT-55"/>
      <use x="1278.646484" xlink:href="#ArialMT-32"/>
      <use x="1306.429688" xlink:href="#ArialMT-100"/>
      <use x="1362.044922" xlink:href="#ArialMT-101"/>
      <use x="1417.660156" xlink:href="#ArialMT-103"/>
      <use x="1473.275391" xlink:href="#ArialMT-114"/>
      <use x="1506.576172" xlink:href="#ArialMT-101"/>
      <use x="1562.191406" xlink:href="#ArialMT-101"/>
      <use x="1617.806641" xlink:href="#ArialMT-115"/>
     </g>
    </g>
    <g id="PathCollection_4">
     <g>
      <use style="fill:#4c72b0;stroke:#4c72b0;stroke-width:0.3;" x="207.816406" xlink:href="#mb9e103ceb2" y="75.345"/>
     </g>
    </g>
    <g id="text_17">
     <!-- $-0.5 &lt; t &lt; 0.$ -->
     <defs>
      <path d="M 10.59375 35.5 
L 73.1875 35.5 
L 73.1875 27.203125 
L 10.59375 27.203125 
z
" id="DejaVuSans-8722"/>
      <path d="M 31.78125 66.40625 
Q 24.171875 66.40625 20.328125 58.90625 
Q 16.5 51.421875 16.5 36.375 
Q 16.5 21.390625 20.328125 13.890625 
Q 24.171875 6.390625 31.78125 6.390625 
Q 39.453125 6.390625 43.28125 13.890625 
Q 47.125 21.390625 47.125 36.375 
Q 47.125 51.421875 43.28125 58.90625 
Q 39.453125 66.40625 31.78125 66.40625 
z
M 31.78125 74.21875 
Q 44.046875 74.21875 50.515625 64.515625 
Q 56.984375 54.828125 56.984375 36.375 
Q 56.984375 17.96875 50.515625 8.265625 
Q 44.046875 -1.421875 31.78125 -1.421875 
Q 19.53125 -1.421875 13.0625 8.265625 
Q 6.59375 17.96875 6.59375 36.375 
Q 6.59375 54.828125 13.0625 64.515625 
Q 19.53125 74.21875 31.78125 74.21875 
z
" id="DejaVuSans-48"/>
      <path d="M 10.6875 12.40625 
L 21 12.40625 
L 21 0 
L 10.6875 0 
z
" id="DejaVuSans-46"/>
      <path d="M 10.796875 72.90625 
L 49.515625 72.90625 
L 49.515625 64.59375 
L 19.828125 64.59375 
L 19.828125 46.734375 
Q 21.96875 47.46875 24.109375 47.828125 
Q 26.265625 48.1875 28.421875 48.1875 
Q 40.625 48.1875 47.75 41.5 
Q 54.890625 34.8125 54.890625 23.390625 
Q 54.890625 11.625 47.5625 5.09375 
Q 40.234375 -1.421875 26.90625 -1.421875 
Q 22.3125 -1.421875 17.546875 -0.640625 
Q 12.796875 0.140625 7.71875 1.703125 
L 7.71875 11.625 
Q 12.109375 9.234375 16.796875 8.0625 
Q 21.484375 6.890625 26.703125 6.890625 
Q 35.15625 6.890625 40.078125 11.328125 
Q 45.015625 15.765625 45.015625 23.390625 
Q 45.015625 31 40.078125 35.4375 
Q 35.15625 39.890625 26.703125 39.890625 
Q 22.75 39.890625 18.8125 39.015625 
Q 14.890625 38.140625 10.796875 36.28125 
z
" id="DejaVuSans-53"/>
      <path d="M 73.1875 49.21875 
L 22.796875 31.296875 
L 73.1875 13.484375 
L 73.1875 4.59375 
L 10.59375 27.296875 
L 10.59375 35.40625 
L 73.1875 58.109375 
z
" id="DejaVuSans-60"/>
      <path d="M 42.28125 54.6875 
L 40.921875 47.703125 
L 23 47.703125 
L 17.1875 18.015625 
Q 16.890625 16.359375 16.75 15.234375 
Q 16.609375 14.109375 16.609375 13.484375 
Q 16.609375 10.359375 18.484375 8.9375 
Q 20.359375 7.515625 24.515625 7.515625 
L 33.59375 7.515625 
L 32.078125 0 
L 23.484375 0 
Q 15.484375 0 11.546875 3.125 
Q 7.625 6.25 7.625 12.59375 
Q 7.625 13.71875 7.765625 15.0625 
Q 7.90625 16.40625 8.203125 18.015625 
L 14.015625 47.703125 
L 6.390625 47.703125 
L 7.8125 54.6875 
L 15.28125 54.6875 
L 18.3125 70.21875 
L 27.296875 70.21875 
L 24.3125 54.6875 
z
" id="DejaVuSans-Oblique-116"/>
     </defs>
     <g style="fill:#262626;" transform="translate(225.816406 77.97)scale(0.1 -0.1)">
      <use transform="translate(0 0.78125)" xlink:href="#DejaVuSans-8722"/>
      <use transform="translate(83.789062 0.78125)" xlink:href="#DejaVuSans-48"/>
      <use transform="translate(147.412109 0.78125)" xlink:href="#DejaVuSans-46"/>
      <use transform="translate(179.199219 0.78125)" xlink:href="#DejaVuSans-53"/>
      <use transform="translate(262.304688 0.78125)" xlink:href="#DejaVuSans-60"/>
      <use transform="translate(365.576172 0.78125)" xlink:href="#DejaVuSans-Oblique-116"/>
      <use transform="translate(424.267578 0.78125)" xlink:href="#DejaVuSans-60"/>
      <use transform="translate(527.539062 0.78125)" xlink:href="#DejaVuSans-48"/>
     </g>
    </g>
    <g id="PathCollection_5">
     <g>
      <use style="fill:#55a868;stroke:#55a868;stroke-width:0.3;" x="207.816406" xlink:href="#m7e4dc62aed" y="89.490312"/>
     </g>
    </g>
    <g id="text_18">
     <!-- $0. &lt; t &lt; 0.5$ -->
     <g style="fill:#262626;" transform="translate(225.816406 92.115312)scale(0.1 -0.1)">
      <use transform="translate(0 0.78125)" xlink:href="#DejaVuSans-48"/>
      <use transform="translate(63.623047 0.78125)" xlink:href="#DejaVuSans-46"/>
      <use transform="translate(134.375 0.78125)" xlink:href="#DejaVuSans-60"/>
      <use transform="translate(237.646484 0.78125)" xlink:href="#DejaVuSans-Oblique-116"/>
      <use transform="translate(296.337891 0.78125)" xlink:href="#DejaVuSans-60"/>
      <use transform="translate(399.609375 0.78125)" xlink:href="#DejaVuSans-48"/>
      <use transform="translate(463.232422 0.78125)" xlink:href="#DejaVuSans-46"/>
      <use transform="translate(495.019531 0.78125)" xlink:href="#DejaVuSans-53"/>
     </g>
    </g>
    <g id="PathCollection_6">
     <g>
      <use style="fill:#c44e52;stroke:#c44e52;stroke-width:0.3;" x="207.816406" xlink:href="#m72f26e57b9" y="103.635625"/>
     </g>
    </g>
    <g id="text_19">
     <!-- $0.5 &lt; t &lt; 1.$ -->
     <defs>
      <path d="M 12.40625 8.296875 
L 28.515625 8.296875 
L 28.515625 63.921875 
L 10.984375 60.40625 
L 10.984375 69.390625 
L 28.421875 72.90625 
L 38.28125 72.90625 
L 38.28125 8.296875 
L 54.390625 8.296875 
L 54.390625 0 
L 12.40625 0 
z
" id="DejaVuSans-49"/>
     </defs>
     <g style="fill:#262626;" transform="translate(225.816406 106.260625)scale(0.1 -0.1)">
      <use transform="translate(0 0.78125)" xlink:href="#DejaVuSans-48"/>
      <use transform="translate(63.623047 0.78125)" xlink:href="#DejaVuSans-46"/>
      <use transform="translate(95.410156 0.78125)" xlink:href="#DejaVuSans-53"/>
      <use transform="translate(178.515625 0.78125)" xlink:href="#DejaVuSans-60"/>
      <use transform="translate(281.787109 0.78125)" xlink:href="#DejaVuSans-Oblique-116"/>
      <use transform="translate(340.478516 0.78125)" xlink:href="#DejaVuSans-60"/>
      <use transform="translate(443.75 0.78125)" xlink:href="#DejaVuSans-49"/>
     </g>
    </g>
   </g>
  </g>
 </g>
 <defs>
  <clipPath id="p330ee2a342">
   <path d="M 447.66 199.98 
C 447.66 179.959136 443.716326 160.13295 436.054674 141.636084 
C 428.393021 123.139218 417.162388 106.331389 403.0055 92.1745 
C 388.848611 78.017612 372.040782 66.786979 353.543916 59.125326 
C 335.04705 51.463674 315.220864 47.52 295.2 47.52 
C 275.179136 47.52 255.35295 51.463674 236.856084 59.125326 
C 218.359218 66.786979 201.551389 78.017612 187.3945 92.1745 
C 173.237612 106.331389 162.006979 123.139218 154.345326 141.636084 
C 146.683674 160.13295 142.74 179.959136 142.74 199.98 
C 142.74 220.000864 146.683674 239.82705 154.345326 258.323916 
C 162.006979 276.820782 173.237612 293.628611 187.3945 307.7855 
C 201.551389 321.942388 218.359218 333.173021 236.856084 340.834674 
C 255.35295 348.496326 275.179136 352.44 295.2 352.44 
C 315.220864 352.44 335.04705 348.496326 353.543916 340.834674 
C 372.040782 333.173021 388.848611 321.942388 403.0055 307.7855 
C 417.162388 293.628611 428.393021 276.820782 436.054674 258.323916 
C 443.716326 239.82705 447.66 220.000864 447.66 199.98 
M 295.2 199.98 
C 295.2 199.98 295.2 199.98 295.2 199.98 
C 295.2 199.98 295.2 199.98 295.2 199.98 
C 295.2 199.98 295.2 199.98 295.2 199.98 
C 295.2 199.98 295.2 199.98 295.2 199.98 
C 295.2 199.98 295.2 199.98 295.2 199.98 
C 295.2 199.98 295.2 199.98 295.2 199.98 
C 295.2 199.98 295.2 199.98 295.2 199.98 
C 295.2 199.98 295.2 199.98 295.2 199.98 
C 295.2 199.98 295.2 199.98 295.2 199.98 
C 295.2 199.98 295.2 199.98 295.2 199.98 
C 295.2 199.98 295.2 199.98 295.2 199.98 
C 295.2 199.98 295.2 199.98 295.2 199.98 
C 295.2 199.98 295.2 199.98 295.2 199.98 
C 295.2 199.98 295.2 199.98 295.2 199.98 
C 295.2 199.98 295.2 199.98 295.2 199.98 
C 295.2 199.98 295.2 199.98 295.2 199.98 
M 447.66 199.98 
z
"/>
  </clipPath>
 </defs>
</svg>
