<?xml version="1.0" encoding="utf-8" standalone="no"?>
<!DOCTYPE svg PUBLIC "-//W3C//DTD SVG 1.1//EN"
  "http://www.w3.org/Graphics/SVG/1.1/DTD/svg11.dtd">
<!-- Created with matplotlib (https://matplotlib.org/) -->
<svg height="396pt" version="1.1" viewBox="0 0 576 396" width="576pt" xmlns="http://www.w3.org/2000/svg" xmlns:xlink="http://www.w3.org/1999/xlink">
 <defs>
  <style type="text/css">
*{stroke-linecap:butt;stroke-linejoin:round;}
  </style>
 </defs>
 <g id="figure_1">
  <g id="patch_1">
   <path d="M 0 396 
L 576 396 
L 576 0 
L 0 0 
z
" style="fill:#ffffff;"/>
  </g>
  <g id="axes_1">
   <g id="patch_2">
    <path d="M 447.66 199.98 
C 447.66 179.959136 443.716326 160.13295 436.054674 141.636084 
C 428.393021 123.139218 417.162388 106.331389 403.0055 92.1745 
C 388.848611 78.017612 372.040782 66.786979 353.543916 59.125326 
C 335.04705 51.463674 315.220864 47.52 295.2 47.52 
C 275.179136 47.52 255.35295 51.463674 236.856084 59.125326 
C 218.359218 66.786979 201.551389 78.017612 187.3945 92.1745 
C 173.237612 106.331389 162.006979 123.139218 154.345326 141.636084 
C 146.683674 160.13295 142.74 179.959136 142.74 199.98 
C 142.74 220.000864 146.683674 239.82705 154.345326 258.323916 
C 162.006979 276.820782 173.237612 293.628611 187.3945 307.7855 
C 201.551389 321.942388 218.359218 333.173021 236.856084 340.834674 
C 255.35295 348.496326 275.179136 352.44 295.2 352.44 
C 315.220864 352.44 335.04705 348.496326 353.543916 340.834674 
C 372.040782 333.173021 388.848611 321.942388 403.0055 307.7855 
C 417.162388 293.628611 428.393021 276.820782 436.054674 258.323916 
C 443.716326 239.82705 447.66 220.000864 447.66 199.98 
M 295.2 199.98 
C 295.2 199.98 295.2 199.98 295.2 199.98 
C 295.2 199.98 295.2 199.98 295.2 199.98 
C 295.2 199.98 295.2 199.98 295.2 199.98 
C 295.2 199.98 295.2 199.98 295.2 199.98 
C 295.2 199.98 295.2 199.98 295.2 199.98 
C 295.2 199.98 295.2 199.98 295.2 199.98 
C 295.2 199.98 295.2 199.98 295.2 199.98 
C 295.2 199.98 295.2 199.98 295.2 199.98 
C 295.2 199.98 295.2 199.98 295.2 199.98 
C 295.2 199.98 295.2 199.98 295.2 199.98 
C 295.2 199.98 295.2 199.98 295.2 199.98 
C 295.2 199.98 295.2 199.98 295.2 199.98 
C 295.2 199.98 295.2 199.98 295.2 199.98 
C 295.2 199.98 295.2 199.98 295.2 199.98 
C 295.2 199.98 295.2 199.98 295.2 199.98 
C 295.2 199.98 295.2 199.98 295.2 199.98 
M 447.66 199.98 
z
" style="fill:#eaeaf2;"/>
   </g>
   <g id="matplotlib.axis_1">
    <g id="xtick_1">
     <g id="line2d_1">
      <path clip-path="url(#p49424f41fd)" d="M 295.2 199.98 
L 447.66 199.98 
" style="fill:none;stroke:#ffffff;stroke-linecap:round;"/>
     </g>
     <g id="text_1">
      <!-- 0° -->
      <defs>
       <path d="M 4.15625 35.296875 
Q 4.15625 48 6.765625 55.734375 
Q 9.375 63.484375 14.515625 67.671875 
Q 19.671875 71.875 27.484375 71.875 
Q 33.25 71.875 37.59375 69.546875 
Q 41.9375 67.234375 44.765625 62.859375 
Q 47.609375 58.5 49.21875 52.21875 
Q 50.828125 45.953125 50.828125 35.296875 
Q 50.828125 22.703125 48.234375 14.96875 
Q 45.65625 7.234375 40.5 3 
Q 35.359375 -1.21875 27.484375 -1.21875 
Q 17.140625 -1.21875 11.234375 6.203125 
Q 4.15625 15.140625 4.15625 35.296875 
z
M 13.1875 35.296875 
Q 13.1875 17.671875 17.3125 11.828125 
Q 21.4375 6 27.484375 6 
Q 33.546875 6 37.671875 11.859375 
Q 41.796875 17.71875 41.796875 35.296875 
Q 41.796875 52.984375 37.671875 58.78125 
Q 33.546875 64.59375 27.390625 64.59375 
Q 21.34375 64.59375 17.71875 59.46875 
Q 13.1875 52.9375 13.1875 35.296875 
z
" id="ArialMT-48"/>
       <path d="M 6.25 59.28125 
Q 6.25 64.890625 10.21875 68.84375 
Q 14.203125 72.796875 19.78125 72.796875 
Q 25.4375 72.796875 29.390625 68.84375 
Q 33.34375 64.890625 33.34375 59.28125 
Q 33.34375 53.65625 29.359375 49.671875 
Q 25.390625 45.703125 19.78125 45.703125 
Q 14.203125 45.703125 10.21875 49.65625 
Q 6.25 53.609375 6.25 59.28125 
z
M 11.578125 59.28125 
Q 11.578125 55.859375 13.984375 53.4375 
Q 16.40625 51.03125 19.828125 51.03125 
Q 23.1875 51.03125 25.609375 53.4375 
Q 28.03125 55.859375 28.03125 59.28125 
Q 28.03125 62.703125 25.609375 65.109375 
Q 23.1875 67.53125 19.828125 67.53125 
Q 16.40625 67.53125 13.984375 65.109375 
Q 11.578125 62.703125 11.578125 59.28125 
z
" id="ArialMT-176"/>
      </defs>
      <g style="fill:#262626;" transform="translate(456.880313 202.565156)scale(0.1 -0.1)">
       <use xlink:href="#ArialMT-48"/>
       <use x="55.615234" xlink:href="#ArialMT-176"/>
      </g>
     </g>
    </g>
    <g id="xtick_2">
     <g id="line2d_2">
      <path clip-path="url(#p49424f41fd)" d="M 295.2 199.98 
L 403.0055 92.1745 
" style="fill:none;stroke:#ffffff;stroke-linecap:round;"/>
     </g>
     <g id="text_2">
      <!-- 45° -->
      <defs>
       <path d="M 32.328125 0 
L 32.328125 17.140625 
L 1.265625 17.140625 
L 1.265625 25.203125 
L 33.9375 71.578125 
L 41.109375 71.578125 
L 41.109375 25.203125 
L 50.78125 25.203125 
L 50.78125 17.140625 
L 41.109375 17.140625 
L 41.109375 0 
z
M 32.328125 25.203125 
L 32.328125 57.46875 
L 9.90625 25.203125 
z
" id="ArialMT-52"/>
       <path d="M 4.15625 18.75 
L 13.375 19.53125 
Q 14.40625 12.796875 18.140625 9.390625 
Q 21.875 6 27.15625 6 
Q 33.5 6 37.890625 10.78125 
Q 42.28125 15.578125 42.28125 23.484375 
Q 42.28125 31 38.0625 35.34375 
Q 33.84375 39.703125 27 39.703125 
Q 22.75 39.703125 19.328125 37.765625 
Q 15.921875 35.84375 13.96875 32.765625 
L 5.71875 33.84375 
L 12.640625 70.609375 
L 48.25 70.609375 
L 48.25 62.203125 
L 19.671875 62.203125 
L 15.828125 42.96875 
Q 22.265625 47.46875 29.34375 47.46875 
Q 38.71875 47.46875 45.15625 40.96875 
Q 51.609375 34.46875 51.609375 24.265625 
Q 51.609375 14.546875 45.953125 7.46875 
Q 39.0625 -1.21875 27.15625 -1.21875 
Q 17.390625 -1.21875 11.203125 4.25 
Q 5.03125 9.71875 4.15625 18.75 
z
" id="ArialMT-53"/>
      </defs>
      <g style="fill:#262626;" transform="translate(405.344839 84.860161)scale(0.1 -0.1)">
       <use xlink:href="#ArialMT-52"/>
       <use x="55.615234" xlink:href="#ArialMT-53"/>
       <use x="111.230469" xlink:href="#ArialMT-176"/>
      </g>
     </g>
    </g>
    <g id="xtick_3">
     <g id="line2d_3">
      <path clip-path="url(#p49424f41fd)" d="M 295.2 199.98 
L 295.2 47.52 
" style="fill:none;stroke:#ffffff;stroke-linecap:round;"/>
     </g>
     <g id="text_3">
      <!-- 90° -->
      <defs>
       <path d="M 5.46875 16.546875 
L 13.921875 17.328125 
Q 14.984375 11.375 18.015625 8.6875 
Q 21.046875 6 25.78125 6 
Q 29.828125 6 32.875 7.859375 
Q 35.9375 9.71875 37.890625 12.8125 
Q 39.84375 15.921875 41.15625 21.1875 
Q 42.484375 26.46875 42.484375 31.9375 
Q 42.484375 32.515625 42.4375 33.6875 
Q 39.796875 29.5 35.234375 26.875 
Q 30.671875 24.265625 25.34375 24.265625 
Q 16.453125 24.265625 10.296875 30.703125 
Q 4.15625 37.15625 4.15625 47.703125 
Q 4.15625 58.59375 10.578125 65.234375 
Q 17 71.875 26.65625 71.875 
Q 33.640625 71.875 39.421875 68.109375 
Q 45.21875 64.359375 48.21875 57.390625 
Q 51.21875 50.4375 51.21875 37.25 
Q 51.21875 23.53125 48.234375 15.40625 
Q 45.265625 7.28125 39.375 3.03125 
Q 33.5 -1.21875 25.59375 -1.21875 
Q 17.1875 -1.21875 11.859375 3.4375 
Q 6.546875 8.109375 5.46875 16.546875 
z
M 41.453125 48.140625 
Q 41.453125 55.71875 37.421875 60.15625 
Q 33.40625 64.59375 27.734375 64.59375 
Q 21.875 64.59375 17.53125 59.8125 
Q 13.1875 55.03125 13.1875 47.40625 
Q 13.1875 40.578125 17.3125 36.296875 
Q 21.4375 32.03125 27.484375 32.03125 
Q 33.59375 32.03125 37.515625 36.296875 
Q 41.453125 40.578125 41.453125 48.140625 
z
" id="ArialMT-57"/>
      </defs>
      <g style="fill:#262626;" transform="translate(287.639844 36.105156)scale(0.1 -0.1)">
       <use xlink:href="#ArialMT-57"/>
       <use x="55.615234" xlink:href="#ArialMT-48"/>
       <use x="111.230469" xlink:href="#ArialMT-176"/>
      </g>
     </g>
    </g>
    <g id="xtick_4">
     <g id="line2d_4">
      <path clip-path="url(#p49424f41fd)" d="M 295.2 199.98 
L 187.3945 92.1745 
" style="fill:none;stroke:#ffffff;stroke-linecap:round;"/>
     </g>
     <g id="text_4">
      <!-- 135° -->
      <defs>
       <path d="M 37.25 0 
L 28.46875 0 
L 28.46875 56 
Q 25.296875 52.984375 20.140625 49.953125 
Q 14.984375 46.921875 10.890625 45.40625 
L 10.890625 53.90625 
Q 18.265625 57.375 23.78125 62.296875 
Q 29.296875 67.234375 31.59375 71.875 
L 37.25 71.875 
z
" id="ArialMT-49"/>
       <path d="M 4.203125 18.890625 
L 12.984375 20.0625 
Q 14.5 12.59375 18.140625 9.296875 
Q 21.78125 6 27 6 
Q 33.203125 6 37.46875 10.296875 
Q 41.75 14.59375 41.75 20.953125 
Q 41.75 27 37.796875 30.921875 
Q 33.84375 34.859375 27.734375 34.859375 
Q 25.25 34.859375 21.53125 33.890625 
L 22.515625 41.609375 
Q 23.390625 41.5 23.921875 41.5 
Q 29.546875 41.5 34.03125 44.421875 
Q 38.53125 47.359375 38.53125 53.46875 
Q 38.53125 58.296875 35.25 61.46875 
Q 31.984375 64.65625 26.8125 64.65625 
Q 21.6875 64.65625 18.265625 61.421875 
Q 14.84375 58.203125 13.875 51.765625 
L 5.078125 53.328125 
Q 6.6875 62.15625 12.390625 67.015625 
Q 18.109375 71.875 26.609375 71.875 
Q 32.46875 71.875 37.390625 69.359375 
Q 42.328125 66.84375 44.9375 62.5 
Q 47.5625 58.15625 47.5625 53.265625 
Q 47.5625 48.640625 45.0625 44.828125 
Q 42.578125 41.015625 37.703125 38.765625 
Q 44.046875 37.3125 47.5625 32.6875 
Q 51.078125 28.078125 51.078125 21.140625 
Q 51.078125 11.765625 44.234375 5.25 
Q 37.40625 -1.265625 26.953125 -1.265625 
Q 17.53125 -1.265625 11.296875 4.34375 
Q 5.078125 9.96875 4.203125 18.890625 
z
" id="ArialMT-51"/>
      </defs>
      <g style="fill:#262626;" transform="translate(167.15438 84.860161)scale(0.1 -0.1)">
       <use xlink:href="#ArialMT-49"/>
       <use x="55.615234" xlink:href="#ArialMT-51"/>
       <use x="111.230469" xlink:href="#ArialMT-53"/>
       <use x="166.845703" xlink:href="#ArialMT-176"/>
      </g>
     </g>
    </g>
    <g id="xtick_5">
     <g id="line2d_5">
      <path clip-path="url(#p49424f41fd)" d="M 295.2 199.98 
L 142.74 199.98 
" style="fill:none;stroke:#ffffff;stroke-linecap:round;"/>
     </g>
     <g id="text_5">
      <!-- 180° -->
      <defs>
       <path d="M 17.671875 38.8125 
Q 12.203125 40.828125 9.5625 44.53125 
Q 6.9375 48.25 6.9375 53.421875 
Q 6.9375 61.234375 12.546875 66.546875 
Q 18.171875 71.875 27.484375 71.875 
Q 36.859375 71.875 42.578125 66.421875 
Q 48.296875 60.984375 48.296875 53.171875 
Q 48.296875 48.1875 45.671875 44.5 
Q 43.0625 40.828125 37.75 38.8125 
Q 44.34375 36.671875 47.78125 31.875 
Q 51.21875 27.09375 51.21875 20.453125 
Q 51.21875 11.28125 44.71875 5.03125 
Q 38.234375 -1.21875 27.640625 -1.21875 
Q 17.046875 -1.21875 10.546875 5.046875 
Q 4.046875 11.328125 4.046875 20.703125 
Q 4.046875 27.6875 7.59375 32.390625 
Q 11.140625 37.109375 17.671875 38.8125 
z
M 15.921875 53.71875 
Q 15.921875 48.640625 19.1875 45.40625 
Q 22.46875 42.1875 27.6875 42.1875 
Q 32.765625 42.1875 36.015625 45.375 
Q 39.265625 48.578125 39.265625 53.21875 
Q 39.265625 58.0625 35.90625 61.359375 
Q 32.5625 64.65625 27.59375 64.65625 
Q 22.5625 64.65625 19.234375 61.421875 
Q 15.921875 58.203125 15.921875 53.71875 
z
M 13.09375 20.65625 
Q 13.09375 16.890625 14.875 13.375 
Q 16.65625 9.859375 20.171875 7.921875 
Q 23.6875 6 27.734375 6 
Q 34.03125 6 38.125 10.046875 
Q 42.234375 14.109375 42.234375 20.359375 
Q 42.234375 26.703125 38.015625 30.859375 
Q 33.796875 35.015625 27.4375 35.015625 
Q 21.234375 35.015625 17.15625 30.90625 
Q 13.09375 26.8125 13.09375 20.65625 
z
" id="ArialMT-56"/>
      </defs>
      <g style="fill:#262626;" transform="translate(118.399375 202.565156)scale(0.1 -0.1)">
       <use xlink:href="#ArialMT-49"/>
       <use x="55.615234" xlink:href="#ArialMT-56"/>
       <use x="111.230469" xlink:href="#ArialMT-48"/>
       <use x="166.845703" xlink:href="#ArialMT-176"/>
      </g>
     </g>
    </g>
    <g id="xtick_6">
     <g id="line2d_6">
      <path clip-path="url(#p49424f41fd)" d="M 295.2 199.98 
L 187.3945 307.7855 
" style="fill:none;stroke:#ffffff;stroke-linecap:round;"/>
     </g>
     <g id="text_6">
      <!-- 225° -->
      <defs>
       <path d="M 50.34375 8.453125 
L 50.34375 0 
L 3.03125 0 
Q 2.9375 3.171875 4.046875 6.109375 
Q 5.859375 10.9375 9.828125 15.625 
Q 13.8125 20.3125 21.34375 26.46875 
Q 33.015625 36.03125 37.109375 41.625 
Q 41.21875 47.21875 41.21875 52.203125 
Q 41.21875 57.421875 37.46875 61 
Q 33.734375 64.59375 27.734375 64.59375 
Q 21.390625 64.59375 17.578125 60.78125 
Q 13.765625 56.984375 13.71875 50.25 
L 4.6875 51.171875 
Q 5.609375 61.28125 11.65625 66.578125 
Q 17.71875 71.875 27.9375 71.875 
Q 38.234375 71.875 44.234375 66.15625 
Q 50.25 60.453125 50.25 52 
Q 50.25 47.703125 48.484375 43.546875 
Q 46.734375 39.40625 42.65625 34.8125 
Q 38.578125 30.21875 29.109375 22.21875 
Q 21.1875 15.578125 18.9375 13.203125 
Q 16.703125 10.84375 15.234375 8.453125 
z
" id="ArialMT-50"/>
      </defs>
      <g style="fill:#262626;" transform="translate(167.15438 320.270151)scale(0.1 -0.1)">
       <use xlink:href="#ArialMT-50"/>
       <use x="55.615234" xlink:href="#ArialMT-50"/>
       <use x="111.230469" xlink:href="#ArialMT-53"/>
       <use x="166.845703" xlink:href="#ArialMT-176"/>
      </g>
     </g>
    </g>
    <g id="xtick_7">
     <g id="line2d_7">
      <path clip-path="url(#p49424f41fd)" d="M 295.2 199.98 
L 295.2 352.44 
" style="fill:none;stroke:#ffffff;stroke-linecap:round;"/>
     </g>
     <g id="text_7">
      <!-- 270° -->
      <defs>
       <path d="M 4.734375 62.203125 
L 4.734375 70.65625 
L 51.078125 70.65625 
L 51.078125 63.8125 
Q 44.234375 56.546875 37.515625 44.484375 
Q 30.8125 32.421875 27.15625 19.671875 
Q 24.515625 10.6875 23.78125 0 
L 14.75 0 
Q 14.890625 8.453125 18.0625 20.40625 
Q 21.234375 32.375 27.171875 43.484375 
Q 33.109375 54.59375 39.796875 62.203125 
z
" id="ArialMT-55"/>
      </defs>
      <g style="fill:#262626;" transform="translate(284.859375 369.025156)scale(0.1 -0.1)">
       <use xlink:href="#ArialMT-50"/>
       <use x="55.615234" xlink:href="#ArialMT-55"/>
       <use x="111.230469" xlink:href="#ArialMT-48"/>
       <use x="166.845703" xlink:href="#ArialMT-176"/>
      </g>
     </g>
    </g>
    <g id="xtick_8">
     <g id="line2d_8">
      <path clip-path="url(#p49424f41fd)" d="M 295.2 199.98 
L 403.0055 307.7855 
" style="fill:none;stroke:#ffffff;stroke-linecap:round;"/>
     </g>
     <g id="text_8">
      <!-- 315° -->
      <g style="fill:#262626;" transform="translate(402.56437 320.270151)scale(0.1 -0.1)">
       <use xlink:href="#ArialMT-51"/>
       <use x="55.615234" xlink:href="#ArialMT-49"/>
       <use x="111.230469" xlink:href="#ArialMT-53"/>
       <use x="166.845703" xlink:href="#ArialMT-176"/>
      </g>
     </g>
    </g>
   </g>
   <g id="matplotlib.axis_2">
    <g id="ytick_1">
     <g id="line2d_9">
      <path clip-path="url(#p49424f41fd)" d="M 322.055775 199.98 
L 321.908656 197.172807 
L 321.468912 194.39637 
L 320.74136 191.681109 
L 319.733971 189.056772 
L 318.457783 186.552112 
L 316.926778 184.194571 
L 315.15773 182.009979 
L 313.170021 180.02227 
L 310.985429 178.253222 
L 308.627888 176.722217 
L 306.123228 175.446029 
L 303.498891 174.43864 
L 300.78363 173.711088 
L 298.007193 173.271344 
L 295.2 173.124225 
L 292.392807 173.271344 
L 289.61637 173.711088 
L 286.901109 174.43864 
L 284.276772 175.446029 
L 281.772112 176.722217 
L 279.414571 178.253222 
L 277.229979 180.02227 
L 275.24227 182.009979 
L 273.473222 184.194571 
L 271.942217 186.552112 
L 270.666029 189.056772 
L 269.65864 191.681109 
L 268.931088 194.39637 
L 268.491344 197.172807 
L 268.344225 199.98 
L 268.491344 202.787193 
L 268.931088 205.56363 
L 269.65864 208.278891 
L 270.666029 210.903228 
L 271.942217 213.407888 
L 273.473222 215.765429 
L 275.24227 217.950021 
L 277.229979 219.93773 
L 279.414571 221.706778 
L 281.772112 223.237783 
L 284.276772 224.513971 
L 286.901109 225.52136 
L 289.61637 226.248912 
L 292.392807 226.688656 
L 295.2 226.835775 
L 298.007193 226.688656 
L 300.78363 226.248912 
L 303.498891 225.52136 
L 306.123228 224.513971 
L 308.627888 223.237783 
L 310.985429 221.706778 
L 313.170021 219.93773 
L 315.15773 217.950021 
L 316.926778 215.765429 
L 318.457783 213.407888 
L 319.733971 210.903228 
L 320.74136 208.278891 
L 321.468912 205.56363 
L 321.908656 202.787193 
L 322.055775 199.98 
L 322.055775 199.98 
" style="fill:none;stroke:#ffffff;stroke-linecap:round;"/>
     </g>
     <g id="text_9">
      <!-- 0.2 -->
      <defs>
       <path d="M 9.078125 0 
L 9.078125 10.015625 
L 19.09375 10.015625 
L 19.09375 0 
z
" id="ArialMT-46"/>
      </defs>
      <g style="fill:#262626;" transform="translate(320.011501 187.71524)scale(0.1 -0.1)">
       <use xlink:href="#ArialMT-48"/>
       <use x="55.615234" xlink:href="#ArialMT-46"/>
       <use x="83.398438" xlink:href="#ArialMT-50"/>
      </g>
     </g>
    </g>
    <g id="ytick_2">
     <g id="line2d_10">
      <path clip-path="url(#p49424f41fd)" d="M 348.91155 199.98 
L 348.780712 196.233272 
L 348.388833 192.504797 
L 347.737824 188.812741 
L 346.830856 185.17509 
L 345.672347 181.609568 
L 344.267943 178.133544 
L 342.624484 174.763955 
L 340.749978 171.517215 
L 338.653557 168.409143 
L 336.345435 165.454881 
L 333.836856 162.668822 
L 331.140042 160.064539 
L 328.268132 157.654721 
L 325.235118 155.451107 
L 322.055775 153.464433 
L 318.745594 151.704379 
L 315.320701 150.179518 
L 311.797782 148.89728 
L 308.194 147.863912 
L 304.526913 147.084449 
L 300.814386 146.562687 
L 297.074506 146.301169 
L 293.325494 146.301169 
L 289.585614 146.562687 
L 285.873087 147.084449 
L 282.206 147.863912 
L 278.602218 148.89728 
L 275.079299 150.179518 
L 271.654406 151.704379 
L 268.344225 153.464433 
L 265.164882 155.451107 
L 262.131868 157.654721 
L 259.259958 160.064539 
L 256.563144 162.668822 
L 254.054565 165.454881 
L 251.746443 168.409143 
L 249.650022 171.517215 
L 247.775516 174.763955 
L 246.132057 178.133544 
L 244.727653 181.609568 
L 243.569144 185.17509 
L 242.662176 188.812741 
L 242.011167 192.504797 
L 241.619288 196.233272 
L 241.48845 199.98 
L 241.619288 203.726728 
L 242.011167 207.455203 
L 242.662176 211.147259 
L 243.569144 214.78491 
L 244.727653 218.350432 
L 246.132057 221.826456 
L 247.775516 225.196045 
L 249.650022 228.442785 
L 251.746443 231.550857 
L 254.054565 234.505119 
L 256.563144 237.291178 
L 259.259958 239.895461 
L 262.131868 242.305279 
L 265.164882 244.508893 
L 268.344225 246.495567 
L 271.654406 248.255621 
L 275.079299 249.780482 
L 278.602218 251.06272 
L 282.206 252.096088 
L 285.873087 252.875551 
L 289.585614 253.397313 
L 293.325494 253.658831 
L 297.074506 253.658831 
L 300.814386 253.397313 
L 304.526913 252.875551 
L 308.194 252.096088 
L 311.797782 251.06272 
L 315.320701 249.780482 
L 318.745594 248.255621 
L 322.055775 246.495567 
L 325.235118 244.508893 
L 328.268132 242.305279 
L 331.140042 239.895461 
L 333.836856 237.291178 
L 336.345435 234.505119 
L 338.653557 231.550857 
L 340.749978 228.442785 
L 342.624484 225.196045 
L 344.267943 221.826456 
L 345.672347 218.350432 
L 346.830856 214.78491 
L 347.737824 211.147259 
L 348.388833 207.455203 
L 348.780712 203.726728 
L 348.91155 199.98 
L 348.91155 199.98 
" style="fill:none;stroke:#ffffff;stroke-linecap:round;"/>
     </g>
     <g id="text_10">
      <!-- 0.4 -->
      <g style="fill:#262626;" transform="translate(344.823002 177.43798)scale(0.1 -0.1)">
       <use xlink:href="#ArialMT-48"/>
       <use x="55.615234" xlink:href="#ArialMT-46"/>
       <use x="83.398438" xlink:href="#ArialMT-52"/>
      </g>
     </g>
    </g>
    <g id="ytick_3">
     <g id="line2d_11">
      <path clip-path="url(#p49424f41fd)" d="M 375.767325 199.98 
L 375.571067 194.359907 
L 374.98325 188.767196 
L 374.006736 183.229111 
L 372.646284 177.772636 
L 370.908521 172.424352 
L 368.801914 167.210317 
L 366.336726 162.155932 
L 363.524967 157.285822 
L 360.380335 152.623714 
L 356.918152 148.192322 
L 353.155284 144.013233 
L 349.110063 140.106809 
L 344.802198 136.492081 
L 340.252677 133.18666 
L 335.483663 130.20665 
L 330.518391 127.566568 
L 325.381051 125.279277 
L 320.096673 123.35592 
L 314.691 121.805869 
L 309.190369 120.636673 
L 303.621579 119.854031 
L 298.011759 119.461754 
L 292.388241 119.461754 
L 286.778421 119.854031 
L 281.209631 120.636673 
L 275.709 121.805869 
L 270.303327 123.35592 
L 265.018949 125.279277 
L 259.881609 127.566568 
L 254.916337 130.20665 
L 250.147323 133.18666 
L 245.597802 136.492081 
L 241.289937 140.106809 
L 237.244716 144.013233 
L 233.481848 148.192322 
L 230.019665 152.623714 
L 226.875033 157.285822 
L 224.063274 162.155932 
L 221.598086 167.210317 
L 219.491479 172.424352 
L 217.753716 177.772636 
L 216.393264 183.229111 
L 215.41675 188.767196 
L 214.828933 194.359907 
L 214.632675 199.98 
L 214.828933 205.600093 
L 215.41675 211.192804 
L 216.393264 216.730889 
L 217.753716 222.187364 
L 219.491479 227.535648 
L 221.598086 232.749683 
L 224.063274 237.804068 
L 226.875033 242.674178 
L 230.019665 247.336286 
L 233.481848 251.767678 
L 237.244716 255.946767 
L 241.289937 259.853191 
L 245.597802 263.467919 
L 250.147323 266.77334 
L 254.916337 269.75335 
L 259.881609 272.393432 
L 265.018949 274.680723 
L 270.303327 276.60408 
L 275.709 278.154131 
L 281.209631 279.323327 
L 286.778421 280.105969 
L 292.388241 280.498246 
L 298.011759 280.498246 
L 303.621579 280.105969 
L 309.190369 279.323327 
L 314.691 278.154131 
L 320.096673 276.60408 
L 325.381051 274.680723 
L 330.518391 272.393432 
L 335.483663 269.75335 
L 340.252677 266.77334 
L 344.802198 263.467919 
L 349.110063 259.853191 
L 353.155284 255.946767 
L 356.918152 251.767678 
L 360.380335 247.336286 
L 363.524967 242.674178 
L 366.336726 237.804068 
L 368.801914 232.749683 
L 370.908521 227.535648 
L 372.646284 222.187364 
L 374.006736 216.730889 
L 374.98325 211.192804 
L 375.571067 205.600093 
L 375.767325 199.98 
L 375.767325 199.98 
" style="fill:none;stroke:#ffffff;stroke-linecap:round;"/>
     </g>
     <g id="text_11">
      <!-- 0.6 -->
      <defs>
       <path d="M 49.75 54.046875 
L 41.015625 53.375 
Q 39.84375 58.546875 37.703125 60.890625 
Q 34.125 64.65625 28.90625 64.65625 
Q 24.703125 64.65625 21.53125 62.3125 
Q 17.390625 59.28125 14.984375 53.46875 
Q 12.59375 47.65625 12.5 36.921875 
Q 15.671875 41.75 20.265625 44.09375 
Q 24.859375 46.4375 29.890625 46.4375 
Q 38.671875 46.4375 44.84375 39.96875 
Q 51.03125 33.5 51.03125 23.25 
Q 51.03125 16.5 48.125 10.71875 
Q 45.21875 4.9375 40.140625 1.859375 
Q 35.0625 -1.21875 28.609375 -1.21875 
Q 17.625 -1.21875 10.6875 6.859375 
Q 3.765625 14.9375 3.765625 33.5 
Q 3.765625 54.25 11.421875 63.671875 
Q 18.109375 71.875 29.4375 71.875 
Q 37.890625 71.875 43.28125 67.140625 
Q 48.6875 62.40625 49.75 54.046875 
z
M 13.875 23.1875 
Q 13.875 18.65625 15.796875 14.5 
Q 17.71875 10.359375 21.1875 8.171875 
Q 24.65625 6 28.46875 6 
Q 34.03125 6 38.03125 10.484375 
Q 42.046875 14.984375 42.046875 22.703125 
Q 42.046875 30.125 38.078125 34.390625 
Q 34.125 38.671875 28.125 38.671875 
Q 22.171875 38.671875 18.015625 34.390625 
Q 13.875 30.125 13.875 23.1875 
z
" id="ArialMT-54"/>
      </defs>
      <g style="fill:#262626;" transform="translate(369.634503 167.160719)scale(0.1 -0.1)">
       <use xlink:href="#ArialMT-48"/>
       <use x="55.615234" xlink:href="#ArialMT-46"/>
       <use x="83.398438" xlink:href="#ArialMT-54"/>
      </g>
     </g>
    </g>
    <g id="ytick_4">
     <g id="line2d_12">
      <path clip-path="url(#p49424f41fd)" d="M 402.6231 199.98 
L 402.557661 196.230988 
L 402.361423 192.486543 
L 402.034625 188.751228 
L 401.577666 185.029594 
L 400.991102 181.326174 
L 400.275648 177.645482 
L 399.432175 173.992 
L 398.461712 170.370181 
L 397.36544 166.784436 
L 396.144695 163.239136 
L 394.800964 159.738598 
L 393.335885 156.287089 
L 391.751243 152.888812 
L 390.048968 149.547909 
L 388.231134 146.26845 
L 386.299956 143.05443 
L 384.257786 139.909765 
L 382.107114 136.838286 
L 379.850558 133.843736 
L 377.490869 130.929762 
L 375.030921 128.099916 
L 372.473712 125.357644 
L 369.822356 122.706288 
L 367.080084 120.149079 
L 364.250238 117.689131 
L 361.336264 115.329442 
L 358.341714 113.072886 
L 355.270235 110.922214 
L 352.12557 108.880044 
L 348.91155 106.948866 
L 345.632091 105.131032 
L 342.291188 103.428757 
L 338.892911 101.844115 
L 335.441402 100.379036 
L 331.940864 99.035305 
L 328.395564 97.81456 
L 324.809819 96.718288 
L 321.188 95.747825 
L 317.534518 94.904352 
L 313.853826 94.188898 
L 310.150406 93.602334 
L 306.428772 93.145375 
L 302.693457 92.818577 
L 298.949012 92.622339 
L 295.2 92.5569 
L 291.450988 92.622339 
L 287.706543 92.818577 
L 283.971228 93.145375 
L 280.249594 93.602334 
L 276.546174 94.188898 
L 272.865482 94.904352 
L 269.212 95.747825 
L 265.590181 96.718288 
L 262.004436 97.81456 
L 258.459136 99.035305 
L 254.958598 100.379036 
L 251.507089 101.844115 
L 248.108812 103.428757 
L 244.767909 105.131032 
L 241.48845 106.948866 
L 238.27443 108.880044 
L 235.129765 110.922214 
L 232.058286 113.072886 
L 229.063736 115.329442 
L 226.149762 117.689131 
L 223.319916 120.149079 
L 220.577644 122.706288 
L 217.926288 125.357644 
L 215.369079 128.099916 
L 212.909131 130.929762 
L 210.549442 133.843736 
L 208.292886 136.838286 
L 206.142214 139.909765 
L 204.100044 143.05443 
L 202.168866 146.26845 
L 200.351032 149.547909 
L 198.648757 152.888812 
L 197.064115 156.287089 
L 195.599036 159.738598 
L 194.255305 163.239136 
L 193.03456 166.784436 
L 191.938288 170.370181 
L 190.967825 173.992 
L 190.124352 177.645482 
L 189.408898 181.326174 
L 188.822334 185.029594 
L 188.365375 188.751228 
L 188.038577 192.486543 
L 187.842339 196.230988 
L 187.7769 199.98 
L 187.842339 203.729012 
L 188.038577 207.473457 
L 188.365375 211.208772 
L 188.822334 214.930406 
L 189.408898 218.633826 
L 190.124352 222.314518 
L 190.967825 225.968 
L 191.938288 229.589819 
L 193.03456 233.175564 
L 194.255305 236.720864 
L 195.599036 240.221402 
L 197.064115 243.672911 
L 198.648757 247.071188 
L 200.351032 250.412091 
L 202.168866 253.69155 
L 204.100044 256.90557 
L 206.142214 260.050235 
L 208.292886 263.121714 
L 210.549442 266.116264 
L 212.909131 269.030238 
L 215.369079 271.860084 
L 217.926288 274.602356 
L 220.577644 277.253712 
L 223.319916 279.810921 
L 226.149762 282.270869 
L 229.063736 284.630558 
L 232.058286 286.887114 
L 235.129765 289.037786 
L 238.27443 291.079956 
L 241.48845 293.011134 
L 244.767909 294.828968 
L 248.108812 296.531243 
L 251.507089 298.115885 
L 254.958598 299.580964 
L 258.459136 300.924695 
L 262.004436 302.14544 
L 265.590181 303.241712 
L 269.212 304.212175 
L 272.865482 305.055648 
L 276.546174 305.771102 
L 280.249594 306.357666 
L 283.971228 306.814625 
L 287.706543 307.141423 
L 291.450988 307.337661 
L 295.2 307.4031 
L 298.949012 307.337661 
L 302.693457 307.141423 
L 306.428772 306.814625 
L 310.150406 306.357666 
L 313.853826 305.771102 
L 317.534518 305.055648 
L 321.188 304.212175 
L 324.809819 303.241712 
L 328.395564 302.14544 
L 331.940864 300.924695 
L 335.441402 299.580964 
L 338.892911 298.115885 
L 342.291188 296.531243 
L 345.632091 294.828968 
L 348.91155 293.011134 
L 352.12557 291.079956 
L 355.270235 289.037786 
L 358.341714 286.887114 
L 361.336264 284.630558 
L 364.250238 282.270869 
L 367.080084 279.810921 
L 369.822356 277.253712 
L 372.473712 274.602356 
L 375.030921 271.860084 
L 377.490869 269.030238 
L 379.850558 266.116264 
L 382.107114 263.121714 
L 384.257786 260.050235 
L 386.299956 256.90557 
L 388.231134 253.69155 
L 390.048968 250.412091 
L 391.751243 247.071188 
L 393.335885 243.672911 
L 394.800964 240.221402 
L 396.144695 236.720864 
L 397.36544 233.175564 
L 398.461712 229.589819 
L 399.432175 225.968 
L 400.275648 222.314518 
L 400.991102 218.633826 
L 401.577666 214.930406 
L 402.034625 211.208772 
L 402.361423 207.473457 
L 402.557661 203.729012 
L 402.6231 199.98 
L 402.6231 199.98 
" style="fill:none;stroke:#ffffff;stroke-linecap:round;"/>
     </g>
     <g id="text_12">
      <!-- 0.8 -->
      <g style="fill:#262626;" transform="translate(394.446004 156.883459)scale(0.1 -0.1)">
       <use xlink:href="#ArialMT-48"/>
       <use x="55.615234" xlink:href="#ArialMT-46"/>
       <use x="83.398438" xlink:href="#ArialMT-56"/>
      </g>
     </g>
    </g>
    <g id="ytick_5">
     <g id="line2d_13">
      <path clip-path="url(#p49424f41fd)" d="M 429.478875 199.98 
L 429.397076 195.293735 
L 429.151779 190.613179 
L 428.743282 185.944036 
L 428.172083 181.291993 
L 427.438878 176.662718 
L 426.54456 172.061852 
L 425.490219 167.495 
L 424.277139 162.967726 
L 422.906799 158.485546 
L 421.380868 154.05392 
L 419.701205 149.678248 
L 417.869857 145.363861 
L 415.889054 141.116015 
L 413.76121 136.939887 
L 411.488917 132.840562 
L 409.074945 128.823037 
L 406.522233 124.892206 
L 403.833892 121.052857 
L 401.013198 117.309669 
L 398.063586 113.667203 
L 394.988651 110.129895 
L 391.792139 106.702055 
L 388.477945 103.387861 
L 385.050105 100.191349 
L 381.512797 97.116414 
L 377.870331 94.166802 
L 374.127143 91.346108 
L 370.287794 88.657767 
L 366.356963 86.105055 
L 362.339438 83.691083 
L 358.240113 81.41879 
L 354.063985 79.290946 
L 349.816139 77.310143 
L 345.501752 75.478795 
L 341.12608 73.799132 
L 336.694454 72.273201 
L 332.212274 70.902861 
L 327.685 69.689781 
L 323.118148 68.63544 
L 318.517282 67.741122 
L 313.888007 67.007917 
L 309.235964 66.436718 
L 304.566821 66.028221 
L 299.886265 65.782924 
L 295.2 65.701125 
L 290.513735 65.782924 
L 285.833179 66.028221 
L 281.164036 66.436718 
L 276.511993 67.007917 
L 271.882718 67.741122 
L 267.281852 68.63544 
L 262.715 69.689781 
L 258.187726 70.902861 
L 253.705546 72.273201 
L 249.27392 73.799132 
L 244.898248 75.478795 
L 240.583861 77.310143 
L 236.336015 79.290946 
L 232.159887 81.41879 
L 228.060562 83.691083 
L 224.043037 86.105055 
L 220.112206 88.657767 
L 216.272857 91.346108 
L 212.529669 94.166802 
L 208.887203 97.116414 
L 205.349895 100.191349 
L 201.922055 103.387861 
L 198.607861 106.702055 
L 195.411349 110.129895 
L 192.336414 113.667203 
L 189.386802 117.309669 
L 186.566108 121.052857 
L 183.877767 124.892206 
L 181.325055 128.823037 
L 178.911083 132.840562 
L 176.63879 136.939887 
L 174.510946 141.116015 
L 172.530143 145.363861 
L 170.698795 149.678248 
L 169.019132 154.05392 
L 167.493201 158.485546 
L 166.122861 162.967726 
L 164.909781 167.495 
L 163.85544 172.061852 
L 162.961122 176.662718 
L 162.227917 181.291993 
L 161.656718 185.944036 
L 161.248221 190.613179 
L 161.002924 195.293735 
L 160.921125 199.98 
L 161.002924 204.666265 
L 161.248221 209.346821 
L 161.656718 214.015964 
L 162.227917 218.668007 
L 162.961122 223.297282 
L 163.85544 227.898148 
L 164.909781 232.465 
L 166.122861 236.992274 
L 167.493201 241.474454 
L 169.019132 245.90608 
L 170.698795 250.281752 
L 172.530143 254.596139 
L 174.510946 258.843985 
L 176.63879 263.020113 
L 178.911083 267.119438 
L 181.325055 271.136963 
L 183.877767 275.067794 
L 186.566108 278.907143 
L 189.386802 282.650331 
L 192.336414 286.292797 
L 195.411349 289.830105 
L 198.607861 293.257945 
L 201.922055 296.572139 
L 205.349895 299.768651 
L 208.887203 302.843586 
L 212.529669 305.793198 
L 216.272857 308.613892 
L 220.112206 311.302233 
L 224.043037 313.854945 
L 228.060562 316.268917 
L 232.159887 318.54121 
L 236.336015 320.669054 
L 240.583861 322.649857 
L 244.898248 324.481205 
L 249.27392 326.160868 
L 253.705546 327.686799 
L 258.187726 329.057139 
L 262.715 330.270219 
L 267.281852 331.32456 
L 271.882718 332.218878 
L 276.511993 332.952083 
L 281.164036 333.523282 
L 285.833179 333.931779 
L 290.513735 334.177076 
L 295.2 334.258875 
L 299.886265 334.177076 
L 304.566821 333.931779 
L 309.235964 333.523282 
L 313.888007 332.952083 
L 318.517282 332.218878 
L 323.118148 331.32456 
L 327.685 330.270219 
L 332.212274 329.057139 
L 336.694454 327.686799 
L 341.12608 326.160868 
L 345.501752 324.481205 
L 349.816139 322.649857 
L 354.063985 320.669054 
L 358.240113 318.54121 
L 362.339438 316.268917 
L 366.356963 313.854945 
L 370.287794 311.302233 
L 374.127143 308.613892 
L 377.870331 305.793198 
L 381.512797 302.843586 
L 385.050105 299.768651 
L 388.477945 296.572139 
L 391.792139 293.257945 
L 394.988651 289.830105 
L 398.063586 286.292797 
L 401.013198 282.650331 
L 403.833892 278.907143 
L 406.522233 275.067794 
L 409.074945 271.136963 
L 411.488917 267.119438 
L 413.76121 263.020113 
L 415.889054 258.843985 
L 417.869857 254.596139 
L 419.701205 250.281752 
L 421.380868 245.90608 
L 422.906799 241.474454 
L 424.277139 236.992274 
L 425.490219 232.465 
L 426.54456 227.898148 
L 427.438878 223.297282 
L 428.172083 218.668007 
L 428.743282 214.015964 
L 429.151779 209.346821 
L 429.397076 204.666265 
L 429.478875 199.98 
L 429.478875 199.98 
" style="fill:none;stroke:#ffffff;stroke-linecap:round;"/>
     </g>
     <g id="text_13">
      <!-- 1.0 -->
      <g style="fill:#262626;" transform="translate(419.257505 146.606199)scale(0.1 -0.1)">
       <use xlink:href="#ArialMT-49"/>
       <use x="55.615234" xlink:href="#ArialMT-46"/>
       <use x="83.398438" xlink:href="#ArialMT-48"/>
      </g>
     </g>
    </g>
   </g>
   <g id="PathCollection_1">
    <defs>
     <path d="M 0 3.5 
C 0.928211 3.5 1.81853 3.131218 2.474874 2.474874 
C 3.131218 1.81853 3.5 0.928211 3.5 0 
C 3.5 -0.928211 3.131218 -1.81853 2.474874 -2.474874 
C 1.81853 -3.131218 0.928211 -3.5 0 -3.5 
C -0.928211 -3.5 -1.81853 -3.131218 -2.474874 -2.474874 
C -3.131218 -1.81853 -3.5 -0.928211 -3.5 0 
C -3.5 0.928211 -3.131218 1.81853 -2.474874 2.474874 
C -1.81853 3.131218 -0.928211 3.5 0 3.5 
z
" id="mcb805817d4" style="stroke:#4c72b0;stroke-width:0.3;"/>
    </defs>
    <g clip-path="url(#p49424f41fd)">
     <use style="fill:#4c72b0;stroke:#4c72b0;stroke-width:0.3;" x="288.411838" xlink:href="#mcb805817d4" y="195.089279"/>
     <use style="fill:#4c72b0;stroke:#4c72b0;stroke-width:0.3;" x="273.482252" xlink:href="#mcb805817d4" y="197.406715"/>
     <use style="fill:#4c72b0;stroke:#4c72b0;stroke-width:0.3;" x="272.513447" xlink:href="#mcb805817d4" y="195.875857"/>
     <use style="fill:#4c72b0;stroke:#4c72b0;stroke-width:0.3;" x="256.529992" xlink:href="#mcb805817d4" y="207.070645"/>
     <use style="fill:#4c72b0;stroke:#4c72b0;stroke-width:0.3;" x="331.837101" xlink:href="#mcb805817d4" y="198.021767"/>
     <use style="fill:#4c72b0;stroke:#4c72b0;stroke-width:0.3;" x="326.235807" xlink:href="#mcb805817d4" y="198.417071"/>
     <use style="fill:#4c72b0;stroke:#4c72b0;stroke-width:0.3;" x="290.208183" xlink:href="#mcb805817d4" y="200.578497"/>
     <use style="fill:#4c72b0;stroke:#4c72b0;stroke-width:0.3;" x="278.789944" xlink:href="#mcb805817d4" y="202.626304"/>
     <use style="fill:#4c72b0;stroke:#4c72b0;stroke-width:0.3;" x="261.158712" xlink:href="#mcb805817d4" y="209.611674"/>
     <use style="fill:#4c72b0;stroke:#4c72b0;stroke-width:0.3;" x="272.970494" xlink:href="#mcb805817d4" y="209.746308"/>
     <use style="fill:#4c72b0;stroke:#4c72b0;stroke-width:0.3;" x="257.101582" xlink:href="#mcb805817d4" y="220.695498"/>
     <use style="fill:#4c72b0;stroke:#4c72b0;stroke-width:0.3;" x="270.427812" xlink:href="#mcb805817d4" y="223.253777"/>
     <use style="fill:#4c72b0;stroke:#4c72b0;stroke-width:0.3;" x="282.133744" xlink:href="#mcb805817d4" y="221.690648"/>
     <use style="fill:#4c72b0;stroke:#4c72b0;stroke-width:0.3;" x="303.574764" xlink:href="#mcb805817d4" y="222.983584"/>
     <use style="fill:#4c72b0;stroke:#4c72b0;stroke-width:0.3;" x="297.786025" xlink:href="#mcb805817d4" y="216.967563"/>
     <use style="fill:#4c72b0;stroke:#4c72b0;stroke-width:0.3;" x="263.234895" xlink:href="#mcb805817d4" y="219.23147"/>
     <use style="fill:#4c72b0;stroke:#4c72b0;stroke-width:0.3;" x="286.779182" xlink:href="#mcb805817d4" y="215.313078"/>
     <use style="fill:#4c72b0;stroke:#4c72b0;stroke-width:0.3;" x="285.694924" xlink:href="#mcb805817d4" y="215.843446"/>
     <use style="fill:#4c72b0;stroke:#4c72b0;stroke-width:0.3;" x="254.867624" xlink:href="#mcb805817d4" y="224.445525"/>
     <use style="fill:#4c72b0;stroke:#4c72b0;stroke-width:0.3;" x="271.982123" xlink:href="#mcb805817d4" y="228.152987"/>
     <use style="fill:#4c72b0;stroke:#4c72b0;stroke-width:0.3;" x="271.643893" xlink:href="#mcb805817d4" y="225.702982"/>
     <use style="fill:#4c72b0;stroke:#4c72b0;stroke-width:0.3;" x="263.201019" xlink:href="#mcb805817d4" y="228.097938"/>
     <use style="fill:#4c72b0;stroke:#4c72b0;stroke-width:0.3;" x="270.039004" xlink:href="#mcb805817d4" y="228.535616"/>
     <use style="fill:#4c72b0;stroke:#4c72b0;stroke-width:0.3;" x="279.396863" xlink:href="#mcb805817d4" y="223.965567"/>
    </g>
   </g>
   <g id="PathCollection_2">
    <defs>
     <path d="M 0 3.5 
C 0.928211 3.5 1.81853 3.131218 2.474874 2.474874 
C 3.131218 1.81853 3.5 0.928211 3.5 0 
C 3.5 -0.928211 3.131218 -1.81853 2.474874 -2.474874 
C 1.81853 -3.131218 0.928211 -3.5 0 -3.5 
C -0.928211 -3.5 -1.81853 -3.131218 -2.474874 -2.474874 
C -3.131218 -1.81853 -3.5 -0.928211 -3.5 0 
C -3.5 0.928211 -3.131218 1.81853 -2.474874 2.474874 
C -1.81853 3.131218 -0.928211 3.5 0 3.5 
z
" id="m46271f4cee" style="stroke:#55a868;stroke-width:0.3;"/>
    </defs>
    <g clip-path="url(#p49424f41fd)">
     <use style="fill:#55a868;stroke:#55a868;stroke-width:0.3;" x="299.504374" xlink:href="#m46271f4cee" y="210.6808"/>
     <use style="fill:#55a868;stroke:#55a868;stroke-width:0.3;" x="275.213589" xlink:href="#m46271f4cee" y="209.257652"/>
     <use style="fill:#55a868;stroke:#55a868;stroke-width:0.3;" x="289.177826" xlink:href="#m46271f4cee" y="208.390497"/>
     <use style="fill:#55a868;stroke:#55a868;stroke-width:0.3;" x="267.9284" xlink:href="#m46271f4cee" y="215.763113"/>
     <use style="fill:#55a868;stroke:#55a868;stroke-width:0.3;" x="295.652686" xlink:href="#m46271f4cee" y="218.981507"/>
     <use style="fill:#55a868;stroke:#55a868;stroke-width:0.3;" x="263.337837" xlink:href="#m46271f4cee" y="221.34719"/>
     <use style="fill:#55a868;stroke:#55a868;stroke-width:0.3;" x="277.346613" xlink:href="#m46271f4cee" y="221.592681"/>
     <use style="fill:#55a868;stroke:#55a868;stroke-width:0.3;" x="323.052248" xlink:href="#m46271f4cee" y="210.422795"/>
     <use style="fill:#55a868;stroke:#55a868;stroke-width:0.3;" x="303.632132" xlink:href="#m46271f4cee" y="208.519775"/>
     <use style="fill:#55a868;stroke:#55a868;stroke-width:0.3;" x="300.199697" xlink:href="#m46271f4cee" y="206.765108"/>
     <use style="fill:#55a868;stroke:#55a868;stroke-width:0.3;" x="259.284594" xlink:href="#m46271f4cee" y="215.236522"/>
     <use style="fill:#55a868;stroke:#55a868;stroke-width:0.3;" x="165.106609" xlink:href="#m46271f4cee" y="243.686594"/>
     <use style="fill:#55a868;stroke:#55a868;stroke-width:0.3;" x="350.817218" xlink:href="#m46271f4cee" y="206.169711"/>
     <use style="fill:#55a868;stroke:#55a868;stroke-width:0.3;" x="351.198868" xlink:href="#m46271f4cee" y="193.632566"/>
     <use style="fill:#55a868;stroke:#55a868;stroke-width:0.3;" x="314.307941" xlink:href="#m46271f4cee" y="196.30897"/>
     <use style="fill:#55a868;stroke:#55a868;stroke-width:0.3;" x="157.60255" xlink:href="#m46271f4cee" y="234.799722"/>
     <use style="fill:#55a868;stroke:#55a868;stroke-width:0.3;" x="349.351075" xlink:href="#m46271f4cee" y="191.561832"/>
     <use style="fill:#55a868;stroke:#55a868;stroke-width:0.3;" x="290.958706" xlink:href="#m46271f4cee" y="193.569838"/>
     <use style="fill:#55a868;stroke:#55a868;stroke-width:0.3;" x="250.226578" xlink:href="#m46271f4cee" y="205.251248"/>
     <use style="fill:#55a868;stroke:#55a868;stroke-width:0.3;" x="311.109896" xlink:href="#m46271f4cee" y="198.325112"/>
     <use style="fill:#55a868;stroke:#55a868;stroke-width:0.3;" x="328.230516" xlink:href="#m46271f4cee" y="201.217968"/>
     <use style="fill:#55a868;stroke:#55a868;stroke-width:0.3;" x="318.351991" xlink:href="#m46271f4cee" y="202.240744"/>
     <use style="fill:#55a868;stroke:#55a868;stroke-width:0.3;" x="284.870702" xlink:href="#m46271f4cee" y="201.685281"/>
     <use style="fill:#55a868;stroke:#55a868;stroke-width:0.3;" x="272.203463" xlink:href="#m46271f4cee" y="203.222521"/>
    </g>
   </g>
   <g id="PathCollection_3">
    <defs>
     <path d="M 0 3.5 
C 0.928211 3.5 1.81853 3.131218 2.474874 2.474874 
C 3.131218 1.81853 3.5 0.928211 3.5 0 
C 3.5 -0.928211 3.131218 -1.81853 2.474874 -2.474874 
C 1.81853 -3.131218 0.928211 -3.5 0 -3.5 
C -0.928211 -3.5 -1.81853 -3.131218 -2.474874 -2.474874 
C -3.131218 -1.81853 -3.5 -0.928211 -3.5 0 
C -3.5 0.928211 -3.131218 1.81853 -2.474874 2.474874 
C -1.81853 3.131218 -0.928211 3.5 0 3.5 
z
" id="m5303d57c60" style="stroke:#c44e52;stroke-width:0.3;"/>
    </defs>
    <g clip-path="url(#p49424f41fd)">
     <use style="fill:#c44e52;stroke:#c44e52;stroke-width:0.3;" x="287.149807" xlink:href="#m5303d57c60" y="213.378114"/>
     <use style="fill:#c44e52;stroke:#c44e52;stroke-width:0.3;" x="259.581886" xlink:href="#m5303d57c60" y="219.067355"/>
     <use style="fill:#c44e52;stroke:#c44e52;stroke-width:0.3;" x="305.072183" xlink:href="#m5303d57c60" y="214.599765"/>
     <use style="fill:#c44e52;stroke:#c44e52;stroke-width:0.3;" x="386.726092" xlink:href="#m5303d57c60" y="189.266651"/>
     <use style="fill:#c44e52;stroke:#c44e52;stroke-width:0.3;" x="262.871303" xlink:href="#m5303d57c60" y="198.48853"/>
     <use style="fill:#c44e52;stroke:#c44e52;stroke-width:0.3;" x="280.771224" xlink:href="#m5303d57c60" y="196.382426"/>
     <use style="fill:#c44e52;stroke:#c44e52;stroke-width:0.3;" x="294.132821" xlink:href="#m5303d57c60" y="194.816354"/>
     <use style="fill:#c44e52;stroke:#c44e52;stroke-width:0.3;" x="261.412421" xlink:href="#m5303d57c60" y="198.022927"/>
     <use style="fill:#c44e52;stroke:#c44e52;stroke-width:0.3;" x="267.635763" xlink:href="#m5303d57c60" y="200.790691"/>
     <use style="fill:#c44e52;stroke:#c44e52;stroke-width:0.3;" x="289.851782" xlink:href="#m5303d57c60" y="198.878551"/>
     <use style="fill:#c44e52;stroke:#c44e52;stroke-width:0.3;" x="268.386918" xlink:href="#m5303d57c60" y="212.721329"/>
     <use style="fill:#c44e52;stroke:#c44e52;stroke-width:0.3;" x="301.282691" xlink:href="#m5303d57c60" y="206.445902"/>
     <use style="fill:#c44e52;stroke:#c44e52;stroke-width:0.3;" x="322.40391" xlink:href="#m5303d57c60" y="196.9744"/>
     <use style="fill:#c44e52;stroke:#c44e52;stroke-width:0.3;" x="308.751366" xlink:href="#m5303d57c60" y="191.585792"/>
     <use style="fill:#c44e52;stroke:#c44e52;stroke-width:0.3;" x="296.059576" xlink:href="#m5303d57c60" y="192.862789"/>
     <use style="fill:#c44e52;stroke:#c44e52;stroke-width:0.3;" x="273.014001" xlink:href="#m5303d57c60" y="201.710653"/>
     <use style="fill:#c44e52;stroke:#c44e52;stroke-width:0.3;" x="259.308943" xlink:href="#m5303d57c60" y="210.532667"/>
     <use style="fill:#c44e52;stroke:#c44e52;stroke-width:0.3;" x="271.230323" xlink:href="#m5303d57c60" y="212.065122"/>
     <use style="fill:#c44e52;stroke:#c44e52;stroke-width:0.3;" x="288.769472" xlink:href="#m5303d57c60" y="202.665541"/>
     <use style="fill:#c44e52;stroke:#c44e52;stroke-width:0.3;" x="293.544323" xlink:href="#m5303d57c60" y="199.20045"/>
     <use style="fill:#c44e52;stroke:#c44e52;stroke-width:0.3;" x="282.819458" xlink:href="#m5303d57c60" y="206.236461"/>
     <use style="fill:#c44e52;stroke:#c44e52;stroke-width:0.3;" x="273.334248" xlink:href="#m5303d57c60" y="215.644928"/>
     <use style="fill:#c44e52;stroke:#c44e52;stroke-width:0.3;" x="289.568635" xlink:href="#m5303d57c60" y="212.739874"/>
     <use style="fill:#c44e52;stroke:#c44e52;stroke-width:0.3;" x="292.628354" xlink:href="#m5303d57c60" y="208.673911"/>
    </g>
   </g>
   <g id="line2d_14">
    <path clip-path="url(#p49424f41fd)" d="M 295.2 199.98 
L 190.561603 295.877221 
" style="fill:none;stroke:#ff0000;stroke-dasharray:7.4,3.2;stroke-dashoffset:0;stroke-width:2;"/>
   </g>
   <g id="patch_3">
    <path d="M 447.66 199.98 
C 447.66 179.959136 443.716326 160.13295 436.054674 141.636084 
C 428.393021 123.139218 417.162388 106.331389 403.0055 92.1745 
C 388.848611 78.017612 372.040782 66.786979 353.543916 59.125326 
C 335.04705 51.463674 315.220864 47.52 295.2 47.52 
C 275.179136 47.52 255.35295 51.463674 236.856084 59.125326 
C 218.359218 66.786979 201.551389 78.017612 187.3945 92.1745 
C 173.237612 106.331389 162.006979 123.139218 154.345326 141.636084 
C 146.683674 160.13295 142.74 179.959136 142.74 199.98 
C 142.74 220.000864 146.683674 239.82705 154.345326 258.323916 
C 162.006979 276.820782 173.237612 293.628611 187.3945 307.7855 
C 201.551389 321.942388 218.359218 333.173021 236.856084 340.834674 
C 255.35295 348.496326 275.179136 352.44 295.2 352.44 
C 315.220864 352.44 335.04705 348.496326 353.543916 340.834674 
C 372.040782 333.173021 388.848611 321.942388 403.0055 307.7855 
C 417.162388 293.628611 428.393021 276.820782 436.054674 258.323916 
C 443.716326 239.82705 447.66 220.000864 447.66 199.98 
" style="fill:none;"/>
   </g>
   <g id="text_14">
    <!-- Distribution of projected eye movement velocity on the screen - NewM1_11_12 -->
    <defs>
     <path d="M 7.71875 0 
L 7.71875 71.578125 
L 32.375 71.578125 
Q 40.71875 71.578125 45.125 70.5625 
Q 51.265625 69.140625 55.609375 65.4375 
Q 61.28125 60.640625 64.078125 53.1875 
Q 66.890625 45.75 66.890625 36.1875 
Q 66.890625 28.03125 64.984375 21.734375 
Q 63.09375 15.4375 60.109375 11.296875 
Q 57.125 7.171875 53.578125 4.796875 
Q 50.046875 2.4375 45.046875 1.21875 
Q 40.046875 0 33.546875 0 
z
M 17.1875 8.453125 
L 32.46875 8.453125 
Q 39.546875 8.453125 43.578125 9.765625 
Q 47.609375 11.078125 50 13.484375 
Q 53.375 16.84375 55.25 22.53125 
Q 57.125 28.21875 57.125 36.328125 
Q 57.125 47.5625 53.4375 53.59375 
Q 49.75 59.625 44.484375 61.671875 
Q 40.671875 63.140625 32.234375 63.140625 
L 17.1875 63.140625 
z
" id="ArialMT-68"/>
     <path d="M 6.640625 61.46875 
L 6.640625 71.578125 
L 15.4375 71.578125 
L 15.4375 61.46875 
z
M 6.640625 0 
L 6.640625 51.859375 
L 15.4375 51.859375 
L 15.4375 0 
z
" id="ArialMT-105"/>
     <path d="M 3.078125 15.484375 
L 11.765625 16.84375 
Q 12.5 11.625 15.84375 8.84375 
Q 19.1875 6.0625 25.203125 6.0625 
Q 31.25 6.0625 34.171875 8.515625 
Q 37.109375 10.984375 37.109375 14.3125 
Q 37.109375 17.28125 34.515625 19 
Q 32.71875 20.171875 25.53125 21.96875 
Q 15.875 24.421875 12.140625 26.203125 
Q 8.40625 27.984375 6.46875 31.125 
Q 4.546875 34.28125 4.546875 38.09375 
Q 4.546875 41.546875 6.125 44.5 
Q 7.71875 47.46875 10.453125 49.421875 
Q 12.5 50.921875 16.03125 51.96875 
Q 19.578125 53.03125 23.640625 53.03125 
Q 29.734375 53.03125 34.34375 51.265625 
Q 38.96875 49.515625 41.15625 46.5 
Q 43.359375 43.5 44.1875 38.484375 
L 35.59375 37.3125 
Q 35.015625 41.3125 32.203125 43.546875 
Q 29.390625 45.796875 24.265625 45.796875 
Q 18.21875 45.796875 15.625 43.796875 
Q 13.03125 41.796875 13.03125 39.109375 
Q 13.03125 37.40625 14.109375 36.03125 
Q 15.1875 34.625 17.484375 33.6875 
Q 18.796875 33.203125 25.25 31.453125 
Q 34.578125 28.953125 38.25 27.359375 
Q 41.9375 25.78125 44.03125 22.75 
Q 46.140625 19.734375 46.140625 15.234375 
Q 46.140625 10.84375 43.578125 6.953125 
Q 41.015625 3.078125 36.171875 0.953125 
Q 31.34375 -1.171875 25.25 -1.171875 
Q 15.140625 -1.171875 9.84375 3.03125 
Q 4.546875 7.234375 3.078125 15.484375 
z
" id="ArialMT-115"/>
     <path d="M 25.78125 7.859375 
L 27.046875 0.09375 
Q 23.34375 -0.6875 20.40625 -0.6875 
Q 15.625 -0.6875 12.984375 0.828125 
Q 10.359375 2.34375 9.28125 4.8125 
Q 8.203125 7.28125 8.203125 15.1875 
L 8.203125 45.015625 
L 1.765625 45.015625 
L 1.765625 51.859375 
L 8.203125 51.859375 
L 8.203125 64.703125 
L 16.9375 69.96875 
L 16.9375 51.859375 
L 25.78125 51.859375 
L 25.78125 45.015625 
L 16.9375 45.015625 
L 16.9375 14.703125 
Q 16.9375 10.9375 17.40625 9.859375 
Q 17.875 8.796875 18.921875 8.15625 
Q 19.96875 7.515625 21.921875 7.515625 
Q 23.390625 7.515625 25.78125 7.859375 
z
" id="ArialMT-116"/>
     <path d="M 6.5 0 
L 6.5 51.859375 
L 14.40625 51.859375 
L 14.40625 44 
Q 17.4375 49.515625 20 51.265625 
Q 22.5625 53.03125 25.640625 53.03125 
Q 30.078125 53.03125 34.671875 50.203125 
L 31.640625 42.046875 
Q 28.421875 43.953125 25.203125 43.953125 
Q 22.3125 43.953125 20.015625 42.21875 
Q 17.71875 40.484375 16.75 37.40625 
Q 15.28125 32.71875 15.28125 27.15625 
L 15.28125 0 
z
" id="ArialMT-114"/>
     <path d="M 14.703125 0 
L 6.546875 0 
L 6.546875 71.578125 
L 15.328125 71.578125 
L 15.328125 46.046875 
Q 20.90625 53.03125 29.546875 53.03125 
Q 34.328125 53.03125 38.59375 51.09375 
Q 42.875 49.171875 45.625 45.671875 
Q 48.390625 42.1875 49.953125 37.25 
Q 51.515625 32.328125 51.515625 26.703125 
Q 51.515625 13.375 44.921875 6.09375 
Q 38.328125 -1.171875 29.109375 -1.171875 
Q 19.921875 -1.171875 14.703125 6.5 
z
M 14.59375 26.3125 
Q 14.59375 17 17.140625 12.84375 
Q 21.296875 6.0625 28.375 6.0625 
Q 34.125 6.0625 38.328125 11.0625 
Q 42.53125 16.0625 42.53125 25.984375 
Q 42.53125 36.140625 38.5 40.96875 
Q 34.46875 45.796875 28.765625 45.796875 
Q 23 45.796875 18.796875 40.796875 
Q 14.59375 35.796875 14.59375 26.3125 
z
" id="ArialMT-98"/>
     <path d="M 40.578125 0 
L 40.578125 7.625 
Q 34.515625 -1.171875 24.125 -1.171875 
Q 19.53125 -1.171875 15.546875 0.578125 
Q 11.578125 2.34375 9.640625 5 
Q 7.71875 7.671875 6.9375 11.53125 
Q 6.390625 14.109375 6.390625 19.734375 
L 6.390625 51.859375 
L 15.1875 51.859375 
L 15.1875 23.09375 
Q 15.1875 16.21875 15.71875 13.8125 
Q 16.546875 10.359375 19.234375 8.375 
Q 21.921875 6.390625 25.875 6.390625 
Q 29.828125 6.390625 33.296875 8.421875 
Q 36.765625 10.453125 38.203125 13.9375 
Q 39.65625 17.4375 39.65625 24.078125 
L 39.65625 51.859375 
L 48.4375 51.859375 
L 48.4375 0 
z
" id="ArialMT-117"/>
     <path d="M 3.328125 25.921875 
Q 3.328125 40.328125 11.328125 47.265625 
Q 18.015625 53.03125 27.640625 53.03125 
Q 38.328125 53.03125 45.109375 46.015625 
Q 51.90625 39.015625 51.90625 26.65625 
Q 51.90625 16.65625 48.90625 10.90625 
Q 45.90625 5.171875 40.15625 2 
Q 34.421875 -1.171875 27.640625 -1.171875 
Q 16.75 -1.171875 10.03125 5.8125 
Q 3.328125 12.796875 3.328125 25.921875 
z
M 12.359375 25.921875 
Q 12.359375 15.96875 16.703125 11.015625 
Q 21.046875 6.0625 27.640625 6.0625 
Q 34.1875 6.0625 38.53125 11.03125 
Q 42.875 16.015625 42.875 26.21875 
Q 42.875 35.84375 38.5 40.796875 
Q 34.125 45.75 27.640625 45.75 
Q 21.046875 45.75 16.703125 40.8125 
Q 12.359375 35.890625 12.359375 25.921875 
z
" id="ArialMT-111"/>
     <path d="M 6.59375 0 
L 6.59375 51.859375 
L 14.5 51.859375 
L 14.5 44.484375 
Q 20.21875 53.03125 31 53.03125 
Q 35.6875 53.03125 39.625 51.34375 
Q 43.5625 49.65625 45.515625 46.921875 
Q 47.46875 44.1875 48.25 40.4375 
Q 48.734375 37.984375 48.734375 31.890625 
L 48.734375 0 
L 39.9375 0 
L 39.9375 31.546875 
Q 39.9375 36.921875 38.90625 39.578125 
Q 37.890625 42.234375 35.28125 43.8125 
Q 32.671875 45.40625 29.15625 45.40625 
Q 23.53125 45.40625 19.453125 41.84375 
Q 15.375 38.28125 15.375 28.328125 
L 15.375 0 
z
" id="ArialMT-110"/>
     <path id="ArialMT-32"/>
     <path d="M 8.6875 0 
L 8.6875 45.015625 
L 0.921875 45.015625 
L 0.921875 51.859375 
L 8.6875 51.859375 
L 8.6875 57.375 
Q 8.6875 62.59375 9.625 65.140625 
Q 10.890625 68.5625 14.078125 70.671875 
Q 17.28125 72.796875 23.046875 72.796875 
Q 26.765625 72.796875 31.25 71.921875 
L 29.9375 64.265625 
Q 27.203125 64.75 24.75 64.75 
Q 20.75 64.75 19.09375 63.03125 
Q 17.4375 61.328125 17.4375 56.640625 
L 17.4375 51.859375 
L 27.546875 51.859375 
L 27.546875 45.015625 
L 17.4375 45.015625 
L 17.4375 0 
z
" id="ArialMT-102"/>
     <path d="M 6.59375 -19.875 
L 6.59375 51.859375 
L 14.59375 51.859375 
L 14.59375 45.125 
Q 17.4375 49.078125 21 51.046875 
Q 24.5625 53.03125 29.640625 53.03125 
Q 36.28125 53.03125 41.359375 49.609375 
Q 46.4375 46.1875 49.015625 39.953125 
Q 51.609375 33.734375 51.609375 26.3125 
Q 51.609375 18.359375 48.75 11.984375 
Q 45.90625 5.609375 40.453125 2.21875 
Q 35.015625 -1.171875 29 -1.171875 
Q 24.609375 -1.171875 21.109375 0.6875 
Q 17.625 2.546875 15.375 5.375 
L 15.375 -19.875 
z
M 14.546875 25.640625 
Q 14.546875 15.625 18.59375 10.84375 
Q 22.65625 6.0625 28.421875 6.0625 
Q 34.28125 6.0625 38.453125 11.015625 
Q 42.625 15.96875 42.625 26.375 
Q 42.625 36.28125 38.546875 41.203125 
Q 34.46875 46.140625 28.8125 46.140625 
Q 23.1875 46.140625 18.859375 40.890625 
Q 14.546875 35.640625 14.546875 25.640625 
z
" id="ArialMT-112"/>
     <path d="M 6.546875 61.375 
L 6.546875 71.578125 
L 15.328125 71.578125 
L 15.328125 61.375 
z
M -4.59375 -20.125 
L -2.9375 -12.640625 
Q -0.296875 -13.328125 1.21875 -13.328125 
Q 3.90625 -13.328125 5.21875 -11.546875 
Q 6.546875 -9.765625 6.546875 -2.640625 
L 6.546875 51.859375 
L 15.328125 51.859375 
L 15.328125 -2.828125 
Q 15.328125 -12.40625 12.84375 -16.15625 
Q 9.671875 -21.046875 2.296875 -21.046875 
Q -1.265625 -21.046875 -4.59375 -20.125 
z
" id="ArialMT-106"/>
     <path d="M 42.09375 16.703125 
L 51.171875 15.578125 
Q 49.03125 7.625 43.21875 3.21875 
Q 37.40625 -1.171875 28.375 -1.171875 
Q 17 -1.171875 10.328125 5.828125 
Q 3.65625 12.84375 3.65625 25.484375 
Q 3.65625 38.578125 10.390625 45.796875 
Q 17.140625 53.03125 27.875 53.03125 
Q 38.28125 53.03125 44.875 45.953125 
Q 51.46875 38.875 51.46875 26.03125 
Q 51.46875 25.25 51.421875 23.6875 
L 12.75 23.6875 
Q 13.234375 15.140625 17.578125 10.59375 
Q 21.921875 6.0625 28.421875 6.0625 
Q 33.25 6.0625 36.671875 8.59375 
Q 40.09375 11.140625 42.09375 16.703125 
z
M 13.234375 30.90625 
L 42.1875 30.90625 
Q 41.609375 37.453125 38.875 40.71875 
Q 34.671875 45.796875 27.984375 45.796875 
Q 21.921875 45.796875 17.796875 41.75 
Q 13.671875 37.703125 13.234375 30.90625 
z
" id="ArialMT-101"/>
     <path d="M 40.4375 19 
L 49.078125 17.875 
Q 47.65625 8.9375 41.8125 3.875 
Q 35.984375 -1.171875 27.484375 -1.171875 
Q 16.84375 -1.171875 10.375 5.78125 
Q 3.90625 12.75 3.90625 25.734375 
Q 3.90625 34.125 6.6875 40.421875 
Q 9.46875 46.734375 15.15625 49.875 
Q 20.84375 53.03125 27.546875 53.03125 
Q 35.984375 53.03125 41.359375 48.75 
Q 46.734375 44.484375 48.25 36.625 
L 39.703125 35.296875 
Q 38.484375 40.53125 35.375 43.15625 
Q 32.28125 45.796875 27.875 45.796875 
Q 21.234375 45.796875 17.078125 41.03125 
Q 12.9375 36.28125 12.9375 25.984375 
Q 12.9375 15.53125 16.9375 10.796875 
Q 20.953125 6.0625 27.390625 6.0625 
Q 32.5625 6.0625 36.03125 9.234375 
Q 39.5 12.40625 40.4375 19 
z
" id="ArialMT-99"/>
     <path d="M 40.234375 0 
L 40.234375 6.546875 
Q 35.296875 -1.171875 25.734375 -1.171875 
Q 19.53125 -1.171875 14.328125 2.25 
Q 9.125 5.671875 6.265625 11.796875 
Q 3.421875 17.921875 3.421875 25.875 
Q 3.421875 33.640625 6 39.96875 
Q 8.59375 46.296875 13.765625 49.65625 
Q 18.953125 53.03125 25.34375 53.03125 
Q 30.03125 53.03125 33.6875 51.046875 
Q 37.359375 49.078125 39.65625 45.90625 
L 39.65625 71.578125 
L 48.390625 71.578125 
L 48.390625 0 
z
M 12.453125 25.875 
Q 12.453125 15.921875 16.640625 10.984375 
Q 20.84375 6.0625 26.5625 6.0625 
Q 32.328125 6.0625 36.34375 10.765625 
Q 40.375 15.484375 40.375 25.140625 
Q 40.375 35.796875 36.265625 40.765625 
Q 32.171875 45.75 26.171875 45.75 
Q 20.3125 45.75 16.375 40.96875 
Q 12.453125 36.1875 12.453125 25.875 
z
" id="ArialMT-100"/>
     <path d="M 6.203125 -19.96875 
L 5.21875 -11.71875 
Q 8.109375 -12.5 10.25 -12.5 
Q 13.1875 -12.5 14.9375 -11.515625 
Q 16.703125 -10.546875 17.828125 -8.796875 
Q 18.65625 -7.46875 20.515625 -2.25 
Q 20.75 -1.515625 21.296875 -0.09375 
L 1.609375 51.859375 
L 11.078125 51.859375 
L 21.875 21.828125 
Q 23.96875 16.109375 25.640625 9.8125 
Q 27.15625 15.875 29.25 21.625 
L 40.328125 51.859375 
L 49.125 51.859375 
L 29.390625 -0.875 
Q 26.21875 -9.421875 24.46875 -12.640625 
Q 22.125 -17 19.09375 -19.015625 
Q 16.0625 -21.046875 11.859375 -21.046875 
Q 9.328125 -21.046875 6.203125 -19.96875 
z
" id="ArialMT-121"/>
     <path d="M 6.59375 0 
L 6.59375 51.859375 
L 14.453125 51.859375 
L 14.453125 44.578125 
Q 16.890625 48.390625 20.9375 50.703125 
Q 25 53.03125 30.171875 53.03125 
Q 35.9375 53.03125 39.625 50.640625 
Q 43.3125 48.25 44.828125 43.953125 
Q 50.984375 53.03125 60.84375 53.03125 
Q 68.5625 53.03125 72.703125 48.75 
Q 76.859375 44.484375 76.859375 35.59375 
L 76.859375 0 
L 68.109375 0 
L 68.109375 32.671875 
Q 68.109375 37.9375 67.25 40.25 
Q 66.40625 42.578125 64.15625 43.984375 
Q 61.921875 45.40625 58.890625 45.40625 
Q 53.421875 45.40625 49.796875 41.765625 
Q 46.1875 38.140625 46.1875 30.125 
L 46.1875 0 
L 37.40625 0 
L 37.40625 33.6875 
Q 37.40625 39.546875 35.25 42.46875 
Q 33.109375 45.40625 28.21875 45.40625 
Q 24.515625 45.40625 21.359375 43.453125 
Q 18.21875 41.5 16.796875 37.734375 
Q 15.375 33.984375 15.375 26.90625 
L 15.375 0 
z
" id="ArialMT-109"/>
     <path d="M 21 0 
L 1.265625 51.859375 
L 10.546875 51.859375 
L 21.6875 20.796875 
Q 23.484375 15.765625 25 10.359375 
Q 26.171875 14.453125 28.265625 20.21875 
L 39.796875 51.859375 
L 48.828125 51.859375 
L 29.203125 0 
z
" id="ArialMT-118"/>
     <path d="M 6.390625 0 
L 6.390625 71.578125 
L 15.1875 71.578125 
L 15.1875 0 
z
" id="ArialMT-108"/>
     <path d="M 6.59375 0 
L 6.59375 71.578125 
L 15.375 71.578125 
L 15.375 45.90625 
Q 21.53125 53.03125 30.90625 53.03125 
Q 36.671875 53.03125 40.921875 50.75 
Q 45.171875 48.484375 47 44.484375 
Q 48.828125 40.484375 48.828125 32.859375 
L 48.828125 0 
L 40.046875 0 
L 40.046875 32.859375 
Q 40.046875 39.453125 37.1875 42.453125 
Q 34.328125 45.453125 29.109375 45.453125 
Q 25.203125 45.453125 21.75 43.421875 
Q 18.3125 41.40625 16.84375 37.9375 
Q 15.375 34.46875 15.375 28.375 
L 15.375 0 
z
" id="ArialMT-104"/>
     <path d="M 3.171875 21.484375 
L 3.171875 30.328125 
L 30.171875 30.328125 
L 30.171875 21.484375 
z
" id="ArialMT-45"/>
     <path d="M 7.625 0 
L 7.625 71.578125 
L 17.328125 71.578125 
L 54.9375 15.375 
L 54.9375 71.578125 
L 64.015625 71.578125 
L 64.015625 0 
L 54.296875 0 
L 16.703125 56.25 
L 16.703125 0 
z
" id="ArialMT-78"/>
     <path d="M 16.15625 0 
L 0.296875 51.859375 
L 9.375 51.859375 
L 17.625 21.921875 
L 20.703125 10.796875 
Q 20.90625 11.625 23.390625 21.484375 
L 31.640625 51.859375 
L 40.671875 51.859375 
L 48.4375 21.78125 
L 51.03125 11.859375 
L 54 21.875 
L 62.890625 51.859375 
L 71.4375 51.859375 
L 55.21875 0 
L 46.09375 0 
L 37.84375 31.0625 
L 35.84375 39.890625 
L 25.34375 0 
z
" id="ArialMT-119"/>
     <path d="M 7.421875 0 
L 7.421875 71.578125 
L 21.6875 71.578125 
L 38.625 20.90625 
Q 40.96875 13.8125 42.046875 10.296875 
Q 43.265625 14.203125 45.84375 21.78125 
L 62.984375 71.578125 
L 75.734375 71.578125 
L 75.734375 0 
L 66.609375 0 
L 66.609375 59.90625 
L 45.796875 0 
L 37.25 0 
L 16.546875 60.9375 
L 16.546875 0 
z
" id="ArialMT-77"/>
     <path d="M -1.515625 -19.875 
L -1.515625 -13.53125 
L 56.734375 -13.53125 
L 56.734375 -19.875 
z
" id="ArialMT-95"/>
    </defs>
    <g style="fill:#262626;" transform="translate(85.780313 23.748375)scale(0.12 -0.12)">
     <use xlink:href="#ArialMT-68"/>
     <use x="72.216797" xlink:href="#ArialMT-105"/>
     <use x="94.433594" xlink:href="#ArialMT-115"/>
     <use x="144.433594" xlink:href="#ArialMT-116"/>
     <use x="172.216797" xlink:href="#ArialMT-114"/>
     <use x="205.517578" xlink:href="#ArialMT-105"/>
     <use x="227.734375" xlink:href="#ArialMT-98"/>
     <use x="283.349609" xlink:href="#ArialMT-117"/>
     <use x="338.964844" xlink:href="#ArialMT-116"/>
     <use x="366.748047" xlink:href="#ArialMT-105"/>
     <use x="388.964844" xlink:href="#ArialMT-111"/>
     <use x="444.580078" xlink:href="#ArialMT-110"/>
     <use x="500.195312" xlink:href="#ArialMT-32"/>
     <use x="527.978516" xlink:href="#ArialMT-111"/>
     <use x="583.59375" xlink:href="#ArialMT-102"/>
     <use x="611.376953" xlink:href="#ArialMT-32"/>
     <use x="639.160156" xlink:href="#ArialMT-112"/>
     <use x="694.775391" xlink:href="#ArialMT-114"/>
     <use x="728.076172" xlink:href="#ArialMT-111"/>
     <use x="783.691406" xlink:href="#ArialMT-106"/>
     <use x="805.908203" xlink:href="#ArialMT-101"/>
     <use x="861.523438" xlink:href="#ArialMT-99"/>
     <use x="911.523438" xlink:href="#ArialMT-116"/>
     <use x="939.306641" xlink:href="#ArialMT-101"/>
     <use x="994.921875" xlink:href="#ArialMT-100"/>
     <use x="1050.537109" xlink:href="#ArialMT-32"/>
     <use x="1078.320312" xlink:href="#ArialMT-101"/>
     <use x="1133.935547" xlink:href="#ArialMT-121"/>
     <use x="1183.935547" xlink:href="#ArialMT-101"/>
     <use x="1239.550781" xlink:href="#ArialMT-32"/>
     <use x="1267.333984" xlink:href="#ArialMT-109"/>
     <use x="1350.634766" xlink:href="#ArialMT-111"/>
     <use x="1406.25" xlink:href="#ArialMT-118"/>
     <use x="1456.25" xlink:href="#ArialMT-101"/>
     <use x="1511.865234" xlink:href="#ArialMT-109"/>
     <use x="1595.166016" xlink:href="#ArialMT-101"/>
     <use x="1650.78125" xlink:href="#ArialMT-110"/>
     <use x="1706.396484" xlink:href="#ArialMT-116"/>
     <use x="1734.179688" xlink:href="#ArialMT-32"/>
     <use x="1761.962891" xlink:href="#ArialMT-118"/>
     <use x="1811.962891" xlink:href="#ArialMT-101"/>
     <use x="1867.578125" xlink:href="#ArialMT-108"/>
     <use x="1889.794922" xlink:href="#ArialMT-111"/>
     <use x="1945.410156" xlink:href="#ArialMT-99"/>
     <use x="1995.410156" xlink:href="#ArialMT-105"/>
     <use x="2017.626953" xlink:href="#ArialMT-116"/>
     <use x="2045.410156" xlink:href="#ArialMT-121"/>
     <use x="2095.410156" xlink:href="#ArialMT-32"/>
     <use x="2123.193359" xlink:href="#ArialMT-111"/>
     <use x="2178.808594" xlink:href="#ArialMT-110"/>
     <use x="2234.423828" xlink:href="#ArialMT-32"/>
     <use x="2262.207031" xlink:href="#ArialMT-116"/>
     <use x="2289.990234" xlink:href="#ArialMT-104"/>
     <use x="2345.605469" xlink:href="#ArialMT-101"/>
     <use x="2401.220703" xlink:href="#ArialMT-32"/>
     <use x="2429.003906" xlink:href="#ArialMT-115"/>
     <use x="2479.003906" xlink:href="#ArialMT-99"/>
     <use x="2529.003906" xlink:href="#ArialMT-114"/>
     <use x="2562.304688" xlink:href="#ArialMT-101"/>
     <use x="2617.919922" xlink:href="#ArialMT-101"/>
     <use x="2673.535156" xlink:href="#ArialMT-110"/>
     <use x="2729.150391" xlink:href="#ArialMT-32"/>
     <use x="2756.933594" xlink:href="#ArialMT-45"/>
     <use x="2790.234375" xlink:href="#ArialMT-32"/>
     <use x="2818.017578" xlink:href="#ArialMT-78"/>
     <use x="2890.234375" xlink:href="#ArialMT-101"/>
     <use x="2945.849609" xlink:href="#ArialMT-119"/>
     <use x="3018.066406" xlink:href="#ArialMT-77"/>
     <use x="3101.367188" xlink:href="#ArialMT-49"/>
     <use x="3156.982422" xlink:href="#ArialMT-95"/>
     <use x="3212.597656" xlink:href="#ArialMT-49"/>
     <use x="3268.103516" xlink:href="#ArialMT-49"/>
     <use x="3323.71875" xlink:href="#ArialMT-95"/>
     <use x="3379.333984" xlink:href="#ArialMT-49"/>
     <use x="3434.949219" xlink:href="#ArialMT-50"/>
    </g>
   </g>
   <g id="legend_1">
    <g id="line2d_15">
     <path d="M 196.151563 60.2075 
L 216.151563 60.2075 
" style="fill:none;stroke:#ff0000;stroke-dasharray:7.4,3.2;stroke-dashoffset:0;stroke-width:2;"/>
    </g>
    <g id="line2d_16"/>
    <g id="text_15">
     <!-- Average angle in dark: -137.5 degrees -->
     <defs>
      <path d="M -0.140625 0 
L 27.34375 71.578125 
L 37.546875 71.578125 
L 66.84375 0 
L 56.0625 0 
L 47.703125 21.6875 
L 17.78125 21.6875 
L 9.90625 0 
z
M 20.515625 29.390625 
L 44.78125 29.390625 
L 37.3125 49.21875 
Q 33.890625 58.25 32.234375 64.0625 
Q 30.859375 57.171875 28.375 50.390625 
z
" id="ArialMT-65"/>
      <path d="M 40.4375 6.390625 
Q 35.546875 2.25 31.03125 0.53125 
Q 26.515625 -1.171875 21.34375 -1.171875 
Q 12.796875 -1.171875 8.203125 3 
Q 3.609375 7.171875 3.609375 13.671875 
Q 3.609375 17.484375 5.34375 20.625 
Q 7.078125 23.78125 9.890625 25.6875 
Q 12.703125 27.59375 16.21875 28.5625 
Q 18.796875 29.25 24.03125 29.890625 
Q 34.671875 31.15625 39.703125 32.90625 
Q 39.75 34.71875 39.75 35.203125 
Q 39.75 40.578125 37.25 42.78125 
Q 33.890625 45.75 27.25 45.75 
Q 21.046875 45.75 18.09375 43.578125 
Q 15.140625 41.40625 13.71875 35.890625 
L 5.125 37.0625 
Q 6.296875 42.578125 8.984375 45.96875 
Q 11.671875 49.359375 16.75 51.1875 
Q 21.828125 53.03125 28.515625 53.03125 
Q 35.15625 53.03125 39.296875 51.46875 
Q 43.453125 49.90625 45.40625 47.53125 
Q 47.359375 45.171875 48.140625 41.546875 
Q 48.578125 39.3125 48.578125 33.453125 
L 48.578125 21.734375 
Q 48.578125 9.46875 49.140625 6.21875 
Q 49.703125 2.984375 51.375 0 
L 42.1875 0 
Q 40.828125 2.734375 40.4375 6.390625 
z
M 39.703125 26.03125 
Q 34.90625 24.078125 25.34375 22.703125 
Q 19.921875 21.921875 17.671875 20.9375 
Q 15.4375 19.96875 14.203125 18.09375 
Q 12.984375 16.21875 12.984375 13.921875 
Q 12.984375 10.40625 15.640625 8.0625 
Q 18.3125 5.71875 23.4375 5.71875 
Q 28.515625 5.71875 32.46875 7.9375 
Q 36.421875 10.15625 38.28125 14.015625 
Q 39.703125 17 39.703125 22.796875 
z
" id="ArialMT-97"/>
      <path d="M 4.984375 -4.296875 
L 13.53125 -5.5625 
Q 14.0625 -9.515625 16.5 -11.328125 
Q 19.78125 -13.765625 25.4375 -13.765625 
Q 31.546875 -13.765625 34.859375 -11.328125 
Q 38.1875 -8.890625 39.359375 -4.5 
Q 40.046875 -1.8125 39.984375 6.78125 
Q 34.234375 0 25.640625 0 
Q 14.9375 0 9.078125 7.71875 
Q 3.21875 15.4375 3.21875 26.21875 
Q 3.21875 33.640625 5.90625 39.90625 
Q 8.59375 46.1875 13.6875 49.609375 
Q 18.796875 53.03125 25.6875 53.03125 
Q 34.859375 53.03125 40.828125 45.609375 
L 40.828125 51.859375 
L 48.921875 51.859375 
L 48.921875 7.03125 
Q 48.921875 -5.078125 46.453125 -10.125 
Q 44 -15.1875 38.640625 -18.109375 
Q 33.296875 -21.046875 25.484375 -21.046875 
Q 16.21875 -21.046875 10.5 -16.875 
Q 4.78125 -12.703125 4.984375 -4.296875 
z
M 12.25 26.859375 
Q 12.25 16.65625 16.296875 11.96875 
Q 20.359375 7.28125 26.46875 7.28125 
Q 32.515625 7.28125 36.609375 11.9375 
Q 40.71875 16.609375 40.71875 26.5625 
Q 40.71875 36.078125 36.5 40.90625 
Q 32.28125 45.75 26.3125 45.75 
Q 20.453125 45.75 16.34375 40.984375 
Q 12.25 36.234375 12.25 26.859375 
z
" id="ArialMT-103"/>
      <path d="M 6.640625 0 
L 6.640625 71.578125 
L 15.4375 71.578125 
L 15.4375 30.765625 
L 36.234375 51.859375 
L 47.609375 51.859375 
L 27.78125 32.625 
L 49.609375 0 
L 38.765625 0 
L 21.625 26.515625 
L 15.4375 20.5625 
L 15.4375 0 
z
" id="ArialMT-107"/>
      <path d="M 9.03125 41.84375 
L 9.03125 51.859375 
L 19.046875 51.859375 
L 19.046875 41.84375 
z
M 9.03125 0 
L 9.03125 10.015625 
L 19.046875 10.015625 
L 19.046875 0 
z
" id="ArialMT-58"/>
     </defs>
     <g style="fill:#262626;" transform="translate(224.151563 63.7075)scale(0.1 -0.1)">
      <use xlink:href="#ArialMT-65"/>
      <use x="66.683594" xlink:href="#ArialMT-118"/>
      <use x="116.683594" xlink:href="#ArialMT-101"/>
      <use x="172.298828" xlink:href="#ArialMT-114"/>
      <use x="205.599609" xlink:href="#ArialMT-97"/>
      <use x="261.214844" xlink:href="#ArialMT-103"/>
      <use x="316.830078" xlink:href="#ArialMT-101"/>
      <use x="372.445312" xlink:href="#ArialMT-32"/>
      <use x="400.228516" xlink:href="#ArialMT-97"/>
      <use x="455.84375" xlink:href="#ArialMT-110"/>
      <use x="511.458984" xlink:href="#ArialMT-103"/>
      <use x="567.074219" xlink:href="#ArialMT-108"/>
      <use x="589.291016" xlink:href="#ArialMT-101"/>
      <use x="644.90625" xlink:href="#ArialMT-32"/>
      <use x="672.689453" xlink:href="#ArialMT-105"/>
      <use x="694.90625" xlink:href="#ArialMT-110"/>
      <use x="750.521484" xlink:href="#ArialMT-32"/>
      <use x="778.304688" xlink:href="#ArialMT-100"/>
      <use x="833.919922" xlink:href="#ArialMT-97"/>
      <use x="889.535156" xlink:href="#ArialMT-114"/>
      <use x="922.835938" xlink:href="#ArialMT-107"/>
      <use x="972.835938" xlink:href="#ArialMT-58"/>
      <use x="1000.619141" xlink:href="#ArialMT-32"/>
      <use x="1028.402344" xlink:href="#ArialMT-45"/>
      <use x="1061.703125" xlink:href="#ArialMT-49"/>
      <use x="1117.318359" xlink:href="#ArialMT-51"/>
      <use x="1172.933594" xlink:href="#ArialMT-55"/>
      <use x="1228.548828" xlink:href="#ArialMT-46"/>
      <use x="1256.332031" xlink:href="#ArialMT-53"/>
      <use x="1311.947266" xlink:href="#ArialMT-32"/>
      <use x="1339.730469" xlink:href="#ArialMT-100"/>
      <use x="1395.345703" xlink:href="#ArialMT-101"/>
      <use x="1450.960938" xlink:href="#ArialMT-103"/>
      <use x="1506.576172" xlink:href="#ArialMT-114"/>
      <use x="1539.876953" xlink:href="#ArialMT-101"/>
      <use x="1595.492188" xlink:href="#ArialMT-101"/>
      <use x="1651.107422" xlink:href="#ArialMT-115"/>
     </g>
    </g>
    <g id="PathCollection_4">
     <g>
      <use style="fill:#4c72b0;stroke:#4c72b0;stroke-width:0.3;" x="206.151563" xlink:href="#mcb805817d4" y="75.345"/>
     </g>
    </g>
    <g id="text_16">
     <!-- $-0.5 &lt; t &lt; 0.$ -->
     <defs>
      <path d="M 10.59375 35.5 
L 73.1875 35.5 
L 73.1875 27.203125 
L 10.59375 27.203125 
z
" id="DejaVuSans-8722"/>
      <path d="M 31.78125 66.40625 
Q 24.171875 66.40625 20.328125 58.90625 
Q 16.5 51.421875 16.5 36.375 
Q 16.5 21.390625 20.328125 13.890625 
Q 24.171875 6.390625 31.78125 6.390625 
Q 39.453125 6.390625 43.28125 13.890625 
Q 47.125 21.390625 47.125 36.375 
Q 47.125 51.421875 43.28125 58.90625 
Q 39.453125 66.40625 31.78125 66.40625 
z
M 31.78125 74.21875 
Q 44.046875 74.21875 50.515625 64.515625 
Q 56.984375 54.828125 56.984375 36.375 
Q 56.984375 17.96875 50.515625 8.265625 
Q 44.046875 -1.421875 31.78125 -1.421875 
Q 19.53125 -1.421875 13.0625 8.265625 
Q 6.59375 17.96875 6.59375 36.375 
Q 6.59375 54.828125 13.0625 64.515625 
Q 19.53125 74.21875 31.78125 74.21875 
z
" id="DejaVuSans-48"/>
      <path d="M 10.6875 12.40625 
L 21 12.40625 
L 21 0 
L 10.6875 0 
z
" id="DejaVuSans-46"/>
      <path d="M 10.796875 72.90625 
L 49.515625 72.90625 
L 49.515625 64.59375 
L 19.828125 64.59375 
L 19.828125 46.734375 
Q 21.96875 47.46875 24.109375 47.828125 
Q 26.265625 48.1875 28.421875 48.1875 
Q 40.625 48.1875 47.75 41.5 
Q 54.890625 34.8125 54.890625 23.390625 
Q 54.890625 11.625 47.5625 5.09375 
Q 40.234375 -1.421875 26.90625 -1.421875 
Q 22.3125 -1.421875 17.546875 -0.640625 
Q 12.796875 0.140625 7.71875 1.703125 
L 7.71875 11.625 
Q 12.109375 9.234375 16.796875 8.0625 
Q 21.484375 6.890625 26.703125 6.890625 
Q 35.15625 6.890625 40.078125 11.328125 
Q 45.015625 15.765625 45.015625 23.390625 
Q 45.015625 31 40.078125 35.4375 
Q 35.15625 39.890625 26.703125 39.890625 
Q 22.75 39.890625 18.8125 39.015625 
Q 14.890625 38.140625 10.796875 36.28125 
z
" id="DejaVuSans-53"/>
      <path d="M 73.1875 49.21875 
L 22.796875 31.296875 
L 73.1875 13.484375 
L 73.1875 4.59375 
L 10.59375 27.296875 
L 10.59375 35.40625 
L 73.1875 58.109375 
z
" id="DejaVuSans-60"/>
      <path d="M 42.28125 54.6875 
L 40.921875 47.703125 
L 23 47.703125 
L 17.1875 18.015625 
Q 16.890625 16.359375 16.75 15.234375 
Q 16.609375 14.109375 16.609375 13.484375 
Q 16.609375 10.359375 18.484375 8.9375 
Q 20.359375 7.515625 24.515625 7.515625 
L 33.59375 7.515625 
L 32.078125 0 
L 23.484375 0 
Q 15.484375 0 11.546875 3.125 
Q 7.625 6.25 7.625 12.59375 
Q 7.625 13.71875 7.765625 15.0625 
Q 7.90625 16.40625 8.203125 18.015625 
L 14.015625 47.703125 
L 6.390625 47.703125 
L 7.8125 54.6875 
L 15.28125 54.6875 
L 18.3125 70.21875 
L 27.296875 70.21875 
L 24.3125 54.6875 
z
" id="DejaVuSans-Oblique-116"/>
     </defs>
     <g style="fill:#262626;" transform="translate(224.151563 77.97)scale(0.1 -0.1)">
      <use transform="translate(0 0.78125)" xlink:href="#DejaVuSans-8722"/>
      <use transform="translate(83.789062 0.78125)" xlink:href="#DejaVuSans-48"/>
      <use transform="translate(147.412109 0.78125)" xlink:href="#DejaVuSans-46"/>
      <use transform="translate(179.199219 0.78125)" xlink:href="#DejaVuSans-53"/>
      <use transform="translate(262.304688 0.78125)" xlink:href="#DejaVuSans-60"/>
      <use transform="translate(365.576172 0.78125)" xlink:href="#DejaVuSans-Oblique-116"/>
      <use transform="translate(424.267578 0.78125)" xlink:href="#DejaVuSans-60"/>
      <use transform="translate(527.539062 0.78125)" xlink:href="#DejaVuSans-48"/>
     </g>
    </g>
    <g id="PathCollection_5">
     <g>
      <use style="fill:#55a868;stroke:#55a868;stroke-width:0.3;" x="206.151563" xlink:href="#m46271f4cee" y="89.490312"/>
     </g>
    </g>
    <g id="text_17">
     <!-- $0. &lt; t &lt; 0.5$ -->
     <g style="fill:#262626;" transform="translate(224.151563 92.115312)scale(0.1 -0.1)">
      <use transform="translate(0 0.78125)" xlink:href="#DejaVuSans-48"/>
      <use transform="translate(63.623047 0.78125)" xlink:href="#DejaVuSans-46"/>
      <use transform="translate(134.375 0.78125)" xlink:href="#DejaVuSans-60"/>
      <use transform="translate(237.646484 0.78125)" xlink:href="#DejaVuSans-Oblique-116"/>
      <use transform="translate(296.337891 0.78125)" xlink:href="#DejaVuSans-60"/>
      <use transform="translate(399.609375 0.78125)" xlink:href="#DejaVuSans-48"/>
      <use transform="translate(463.232422 0.78125)" xlink:href="#DejaVuSans-46"/>
      <use transform="translate(495.019531 0.78125)" xlink:href="#DejaVuSans-53"/>
     </g>
    </g>
    <g id="PathCollection_6">
     <g>
      <use style="fill:#c44e52;stroke:#c44e52;stroke-width:0.3;" x="206.151563" xlink:href="#m5303d57c60" y="103.635625"/>
     </g>
    </g>
    <g id="text_18">
     <!-- $0.5 &lt; t &lt; 1.$ -->
     <defs>
      <path d="M 12.40625 8.296875 
L 28.515625 8.296875 
L 28.515625 63.921875 
L 10.984375 60.40625 
L 10.984375 69.390625 
L 28.421875 72.90625 
L 38.28125 72.90625 
L 38.28125 8.296875 
L 54.390625 8.296875 
L 54.390625 0 
L 12.40625 0 
z
" id="DejaVuSans-49"/>
     </defs>
     <g style="fill:#262626;" transform="translate(224.151563 106.260625)scale(0.1 -0.1)">
      <use transform="translate(0 0.78125)" xlink:href="#DejaVuSans-48"/>
      <use transform="translate(63.623047 0.78125)" xlink:href="#DejaVuSans-46"/>
      <use transform="translate(95.410156 0.78125)" xlink:href="#DejaVuSans-53"/>
      <use transform="translate(178.515625 0.78125)" xlink:href="#DejaVuSans-60"/>
      <use transform="translate(281.787109 0.78125)" xlink:href="#DejaVuSans-Oblique-116"/>
      <use transform="translate(340.478516 0.78125)" xlink:href="#DejaVuSans-60"/>
      <use transform="translate(443.75 0.78125)" xlink:href="#DejaVuSans-49"/>
     </g>
    </g>
   </g>
  </g>
 </g>
 <defs>
  <clipPath id="p49424f41fd">
   <path d="M 447.66 199.98 
C 447.66 179.959136 443.716326 160.13295 436.054674 141.636084 
C 428.393021 123.139218 417.162388 106.331389 403.0055 92.1745 
C 388.848611 78.017612 372.040782 66.786979 353.543916 59.125326 
C 335.04705 51.463674 315.220864 47.52 295.2 47.52 
C 275.179136 47.52 255.35295 51.463674 236.856084 59.125326 
C 218.359218 66.786979 201.551389 78.017612 187.3945 92.1745 
C 173.237612 106.331389 162.006979 123.139218 154.345326 141.636084 
C 146.683674 160.13295 142.74 179.959136 142.74 199.98 
C 142.74 220.000864 146.683674 239.82705 154.345326 258.323916 
C 162.006979 276.820782 173.237612 293.628611 187.3945 307.7855 
C 201.551389 321.942388 218.359218 333.173021 236.856084 340.834674 
C 255.35295 348.496326 275.179136 352.44 295.2 352.44 
C 315.220864 352.44 335.04705 348.496326 353.543916 340.834674 
C 372.040782 333.173021 388.848611 321.942388 403.0055 307.7855 
C 417.162388 293.628611 428.393021 276.820782 436.054674 258.323916 
C 443.716326 239.82705 447.66 220.000864 447.66 199.98 
M 295.2 199.98 
C 295.2 199.98 295.2 199.98 295.2 199.98 
C 295.2 199.98 295.2 199.98 295.2 199.98 
C 295.2 199.98 295.2 199.98 295.2 199.98 
C 295.2 199.98 295.2 199.98 295.2 199.98 
C 295.2 199.98 295.2 199.98 295.2 199.98 
C 295.2 199.98 295.2 199.98 295.2 199.98 
C 295.2 199.98 295.2 199.98 295.2 199.98 
C 295.2 199.98 295.2 199.98 295.2 199.98 
C 295.2 199.98 295.2 199.98 295.2 199.98 
C 295.2 199.98 295.2 199.98 295.2 199.98 
C 295.2 199.98 295.2 199.98 295.2 199.98 
C 295.2 199.98 295.2 199.98 295.2 199.98 
C 295.2 199.98 295.2 199.98 295.2 199.98 
C 295.2 199.98 295.2 199.98 295.2 199.98 
C 295.2 199.98 295.2 199.98 295.2 199.98 
C 295.2 199.98 295.2 199.98 295.2 199.98 
M 447.66 199.98 
z
"/>
  </clipPath>
 </defs>
</svg>
