<?xml version="1.0" encoding="utf-8" standalone="no"?>
<!DOCTYPE svg PUBLIC "-//W3C//DTD SVG 1.1//EN"
  "http://www.w3.org/Graphics/SVG/1.1/DTD/svg11.dtd">
<!-- Created with matplotlib (https://matplotlib.org/) -->
<svg height="396pt" version="1.1" viewBox="0 0 576 396" width="576pt" xmlns="http://www.w3.org/2000/svg" xmlns:xlink="http://www.w3.org/1999/xlink">
 <defs>
  <style type="text/css">
*{stroke-linecap:butt;stroke-linejoin:round;}
  </style>
 </defs>
 <g id="figure_1">
  <g id="patch_1">
   <path d="M 0 396 
L 576 396 
L 576 0 
L 0 0 
z
" style="fill:#ffffff;"/>
  </g>
  <g id="axes_1">
   <g id="patch_2">
    <path d="M 447.66 199.98 
C 447.66 179.959136 443.716326 160.13295 436.054674 141.636084 
C 428.393021 123.139218 417.162388 106.331389 403.0055 92.1745 
C 388.848611 78.017612 372.040782 66.786979 353.543916 59.125326 
C 335.04705 51.463674 315.220864 47.52 295.2 47.52 
C 275.179136 47.52 255.35295 51.463674 236.856084 59.125326 
C 218.359218 66.786979 201.551389 78.017612 187.3945 92.1745 
C 173.237612 106.331389 162.006979 123.139218 154.345326 141.636084 
C 146.683674 160.13295 142.74 179.959136 142.74 199.98 
C 142.74 220.000864 146.683674 239.82705 154.345326 258.323916 
C 162.006979 276.820782 173.237612 293.628611 187.3945 307.7855 
C 201.551389 321.942388 218.359218 333.173021 236.856084 340.834674 
C 255.35295 348.496326 275.179136 352.44 295.2 352.44 
C 315.220864 352.44 335.04705 348.496326 353.543916 340.834674 
C 372.040782 333.173021 388.848611 321.942388 403.0055 307.7855 
C 417.162388 293.628611 428.393021 276.820782 436.054674 258.323916 
C 443.716326 239.82705 447.66 220.000864 447.66 199.98 
M 295.2 199.98 
C 295.2 199.98 295.2 199.98 295.2 199.98 
C 295.2 199.98 295.2 199.98 295.2 199.98 
C 295.2 199.98 295.2 199.98 295.2 199.98 
C 295.2 199.98 295.2 199.98 295.2 199.98 
C 295.2 199.98 295.2 199.98 295.2 199.98 
C 295.2 199.98 295.2 199.98 295.2 199.98 
C 295.2 199.98 295.2 199.98 295.2 199.98 
C 295.2 199.98 295.2 199.98 295.2 199.98 
C 295.2 199.98 295.2 199.98 295.2 199.98 
C 295.2 199.98 295.2 199.98 295.2 199.98 
C 295.2 199.98 295.2 199.98 295.2 199.98 
C 295.2 199.98 295.2 199.98 295.2 199.98 
C 295.2 199.98 295.2 199.98 295.2 199.98 
C 295.2 199.98 295.2 199.98 295.2 199.98 
C 295.2 199.98 295.2 199.98 295.2 199.98 
C 295.2 199.98 295.2 199.98 295.2 199.98 
M 447.66 199.98 
z
" style="fill:#eaeaf2;"/>
   </g>
   <g id="matplotlib.axis_1">
    <g id="xtick_1">
     <g id="line2d_1">
      <path clip-path="url(#pf3dde14986)" d="M 295.2 199.98 
L 447.66 199.98 
" style="fill:none;stroke:#ffffff;stroke-linecap:round;"/>
     </g>
     <g id="text_1">
      <!-- 0° -->
      <defs>
       <path d="M 4.15625 35.296875 
Q 4.15625 48 6.765625 55.734375 
Q 9.375 63.484375 14.515625 67.671875 
Q 19.671875 71.875 27.484375 71.875 
Q 33.25 71.875 37.59375 69.546875 
Q 41.9375 67.234375 44.765625 62.859375 
Q 47.609375 58.5 49.21875 52.21875 
Q 50.828125 45.953125 50.828125 35.296875 
Q 50.828125 22.703125 48.234375 14.96875 
Q 45.65625 7.234375 40.5 3 
Q 35.359375 -1.21875 27.484375 -1.21875 
Q 17.140625 -1.21875 11.234375 6.203125 
Q 4.15625 15.140625 4.15625 35.296875 
z
M 13.1875 35.296875 
Q 13.1875 17.671875 17.3125 11.828125 
Q 21.4375 6 27.484375 6 
Q 33.546875 6 37.671875 11.859375 
Q 41.796875 17.71875 41.796875 35.296875 
Q 41.796875 52.984375 37.671875 58.78125 
Q 33.546875 64.59375 27.390625 64.59375 
Q 21.34375 64.59375 17.71875 59.46875 
Q 13.1875 52.9375 13.1875 35.296875 
z
" id="ArialMT-48"/>
       <path d="M 6.25 59.28125 
Q 6.25 64.890625 10.21875 68.84375 
Q 14.203125 72.796875 19.78125 72.796875 
Q 25.4375 72.796875 29.390625 68.84375 
Q 33.34375 64.890625 33.34375 59.28125 
Q 33.34375 53.65625 29.359375 49.671875 
Q 25.390625 45.703125 19.78125 45.703125 
Q 14.203125 45.703125 10.21875 49.65625 
Q 6.25 53.609375 6.25 59.28125 
z
M 11.578125 59.28125 
Q 11.578125 55.859375 13.984375 53.4375 
Q 16.40625 51.03125 19.828125 51.03125 
Q 23.1875 51.03125 25.609375 53.4375 
Q 28.03125 55.859375 28.03125 59.28125 
Q 28.03125 62.703125 25.609375 65.109375 
Q 23.1875 67.53125 19.828125 67.53125 
Q 16.40625 67.53125 13.984375 65.109375 
Q 11.578125 62.703125 11.578125 59.28125 
z
" id="ArialMT-176"/>
      </defs>
      <g style="fill:#262626;" transform="translate(456.880313 202.565156)scale(0.1 -0.1)">
       <use xlink:href="#ArialMT-48"/>
       <use x="55.615234" xlink:href="#ArialMT-176"/>
      </g>
     </g>
    </g>
    <g id="xtick_2">
     <g id="line2d_2">
      <path clip-path="url(#pf3dde14986)" d="M 295.2 199.98 
L 403.0055 92.1745 
" style="fill:none;stroke:#ffffff;stroke-linecap:round;"/>
     </g>
     <g id="text_2">
      <!-- 45° -->
      <defs>
       <path d="M 32.328125 0 
L 32.328125 17.140625 
L 1.265625 17.140625 
L 1.265625 25.203125 
L 33.9375 71.578125 
L 41.109375 71.578125 
L 41.109375 25.203125 
L 50.78125 25.203125 
L 50.78125 17.140625 
L 41.109375 17.140625 
L 41.109375 0 
z
M 32.328125 25.203125 
L 32.328125 57.46875 
L 9.90625 25.203125 
z
" id="ArialMT-52"/>
       <path d="M 4.15625 18.75 
L 13.375 19.53125 
Q 14.40625 12.796875 18.140625 9.390625 
Q 21.875 6 27.15625 6 
Q 33.5 6 37.890625 10.78125 
Q 42.28125 15.578125 42.28125 23.484375 
Q 42.28125 31 38.0625 35.34375 
Q 33.84375 39.703125 27 39.703125 
Q 22.75 39.703125 19.328125 37.765625 
Q 15.921875 35.84375 13.96875 32.765625 
L 5.71875 33.84375 
L 12.640625 70.609375 
L 48.25 70.609375 
L 48.25 62.203125 
L 19.671875 62.203125 
L 15.828125 42.96875 
Q 22.265625 47.46875 29.34375 47.46875 
Q 38.71875 47.46875 45.15625 40.96875 
Q 51.609375 34.46875 51.609375 24.265625 
Q 51.609375 14.546875 45.953125 7.46875 
Q 39.0625 -1.21875 27.15625 -1.21875 
Q 17.390625 -1.21875 11.203125 4.25 
Q 5.03125 9.71875 4.15625 18.75 
z
" id="ArialMT-53"/>
      </defs>
      <g style="fill:#262626;" transform="translate(405.344839 84.860161)scale(0.1 -0.1)">
       <use xlink:href="#ArialMT-52"/>
       <use x="55.615234" xlink:href="#ArialMT-53"/>
       <use x="111.230469" xlink:href="#ArialMT-176"/>
      </g>
     </g>
    </g>
    <g id="xtick_3">
     <g id="line2d_3">
      <path clip-path="url(#pf3dde14986)" d="M 295.2 199.98 
L 295.2 47.52 
" style="fill:none;stroke:#ffffff;stroke-linecap:round;"/>
     </g>
     <g id="text_3">
      <!-- 90° -->
      <defs>
       <path d="M 5.46875 16.546875 
L 13.921875 17.328125 
Q 14.984375 11.375 18.015625 8.6875 
Q 21.046875 6 25.78125 6 
Q 29.828125 6 32.875 7.859375 
Q 35.9375 9.71875 37.890625 12.8125 
Q 39.84375 15.921875 41.15625 21.1875 
Q 42.484375 26.46875 42.484375 31.9375 
Q 42.484375 32.515625 42.4375 33.6875 
Q 39.796875 29.5 35.234375 26.875 
Q 30.671875 24.265625 25.34375 24.265625 
Q 16.453125 24.265625 10.296875 30.703125 
Q 4.15625 37.15625 4.15625 47.703125 
Q 4.15625 58.59375 10.578125 65.234375 
Q 17 71.875 26.65625 71.875 
Q 33.640625 71.875 39.421875 68.109375 
Q 45.21875 64.359375 48.21875 57.390625 
Q 51.21875 50.4375 51.21875 37.25 
Q 51.21875 23.53125 48.234375 15.40625 
Q 45.265625 7.28125 39.375 3.03125 
Q 33.5 -1.21875 25.59375 -1.21875 
Q 17.1875 -1.21875 11.859375 3.4375 
Q 6.546875 8.109375 5.46875 16.546875 
z
M 41.453125 48.140625 
Q 41.453125 55.71875 37.421875 60.15625 
Q 33.40625 64.59375 27.734375 64.59375 
Q 21.875 64.59375 17.53125 59.8125 
Q 13.1875 55.03125 13.1875 47.40625 
Q 13.1875 40.578125 17.3125 36.296875 
Q 21.4375 32.03125 27.484375 32.03125 
Q 33.59375 32.03125 37.515625 36.296875 
Q 41.453125 40.578125 41.453125 48.140625 
z
" id="ArialMT-57"/>
      </defs>
      <g style="fill:#262626;" transform="translate(287.639844 36.105156)scale(0.1 -0.1)">
       <use xlink:href="#ArialMT-57"/>
       <use x="55.615234" xlink:href="#ArialMT-48"/>
       <use x="111.230469" xlink:href="#ArialMT-176"/>
      </g>
     </g>
    </g>
    <g id="xtick_4">
     <g id="line2d_4">
      <path clip-path="url(#pf3dde14986)" d="M 295.2 199.98 
L 187.3945 92.1745 
" style="fill:none;stroke:#ffffff;stroke-linecap:round;"/>
     </g>
     <g id="text_4">
      <!-- 135° -->
      <defs>
       <path d="M 37.25 0 
L 28.46875 0 
L 28.46875 56 
Q 25.296875 52.984375 20.140625 49.953125 
Q 14.984375 46.921875 10.890625 45.40625 
L 10.890625 53.90625 
Q 18.265625 57.375 23.78125 62.296875 
Q 29.296875 67.234375 31.59375 71.875 
L 37.25 71.875 
z
" id="ArialMT-49"/>
       <path d="M 4.203125 18.890625 
L 12.984375 20.0625 
Q 14.5 12.59375 18.140625 9.296875 
Q 21.78125 6 27 6 
Q 33.203125 6 37.46875 10.296875 
Q 41.75 14.59375 41.75 20.953125 
Q 41.75 27 37.796875 30.921875 
Q 33.84375 34.859375 27.734375 34.859375 
Q 25.25 34.859375 21.53125 33.890625 
L 22.515625 41.609375 
Q 23.390625 41.5 23.921875 41.5 
Q 29.546875 41.5 34.03125 44.421875 
Q 38.53125 47.359375 38.53125 53.46875 
Q 38.53125 58.296875 35.25 61.46875 
Q 31.984375 64.65625 26.8125 64.65625 
Q 21.6875 64.65625 18.265625 61.421875 
Q 14.84375 58.203125 13.875 51.765625 
L 5.078125 53.328125 
Q 6.6875 62.15625 12.390625 67.015625 
Q 18.109375 71.875 26.609375 71.875 
Q 32.46875 71.875 37.390625 69.359375 
Q 42.328125 66.84375 44.9375 62.5 
Q 47.5625 58.15625 47.5625 53.265625 
Q 47.5625 48.640625 45.0625 44.828125 
Q 42.578125 41.015625 37.703125 38.765625 
Q 44.046875 37.3125 47.5625 32.6875 
Q 51.078125 28.078125 51.078125 21.140625 
Q 51.078125 11.765625 44.234375 5.25 
Q 37.40625 -1.265625 26.953125 -1.265625 
Q 17.53125 -1.265625 11.296875 4.34375 
Q 5.078125 9.96875 4.203125 18.890625 
z
" id="ArialMT-51"/>
      </defs>
      <g style="fill:#262626;" transform="translate(167.15438 84.860161)scale(0.1 -0.1)">
       <use xlink:href="#ArialMT-49"/>
       <use x="55.615234" xlink:href="#ArialMT-51"/>
       <use x="111.230469" xlink:href="#ArialMT-53"/>
       <use x="166.845703" xlink:href="#ArialMT-176"/>
      </g>
     </g>
    </g>
    <g id="xtick_5">
     <g id="line2d_5">
      <path clip-path="url(#pf3dde14986)" d="M 295.2 199.98 
L 142.74 199.98 
" style="fill:none;stroke:#ffffff;stroke-linecap:round;"/>
     </g>
     <g id="text_5">
      <!-- 180° -->
      <defs>
       <path d="M 17.671875 38.8125 
Q 12.203125 40.828125 9.5625 44.53125 
Q 6.9375 48.25 6.9375 53.421875 
Q 6.9375 61.234375 12.546875 66.546875 
Q 18.171875 71.875 27.484375 71.875 
Q 36.859375 71.875 42.578125 66.421875 
Q 48.296875 60.984375 48.296875 53.171875 
Q 48.296875 48.1875 45.671875 44.5 
Q 43.0625 40.828125 37.75 38.8125 
Q 44.34375 36.671875 47.78125 31.875 
Q 51.21875 27.09375 51.21875 20.453125 
Q 51.21875 11.28125 44.71875 5.03125 
Q 38.234375 -1.21875 27.640625 -1.21875 
Q 17.046875 -1.21875 10.546875 5.046875 
Q 4.046875 11.328125 4.046875 20.703125 
Q 4.046875 27.6875 7.59375 32.390625 
Q 11.140625 37.109375 17.671875 38.8125 
z
M 15.921875 53.71875 
Q 15.921875 48.640625 19.1875 45.40625 
Q 22.46875 42.1875 27.6875 42.1875 
Q 32.765625 42.1875 36.015625 45.375 
Q 39.265625 48.578125 39.265625 53.21875 
Q 39.265625 58.0625 35.90625 61.359375 
Q 32.5625 64.65625 27.59375 64.65625 
Q 22.5625 64.65625 19.234375 61.421875 
Q 15.921875 58.203125 15.921875 53.71875 
z
M 13.09375 20.65625 
Q 13.09375 16.890625 14.875 13.375 
Q 16.65625 9.859375 20.171875 7.921875 
Q 23.6875 6 27.734375 6 
Q 34.03125 6 38.125 10.046875 
Q 42.234375 14.109375 42.234375 20.359375 
Q 42.234375 26.703125 38.015625 30.859375 
Q 33.796875 35.015625 27.4375 35.015625 
Q 21.234375 35.015625 17.15625 30.90625 
Q 13.09375 26.8125 13.09375 20.65625 
z
" id="ArialMT-56"/>
      </defs>
      <g style="fill:#262626;" transform="translate(118.399375 202.565156)scale(0.1 -0.1)">
       <use xlink:href="#ArialMT-49"/>
       <use x="55.615234" xlink:href="#ArialMT-56"/>
       <use x="111.230469" xlink:href="#ArialMT-48"/>
       <use x="166.845703" xlink:href="#ArialMT-176"/>
      </g>
     </g>
    </g>
    <g id="xtick_6">
     <g id="line2d_6">
      <path clip-path="url(#pf3dde14986)" d="M 295.2 199.98 
L 187.3945 307.7855 
" style="fill:none;stroke:#ffffff;stroke-linecap:round;"/>
     </g>
     <g id="text_6">
      <!-- 225° -->
      <defs>
       <path d="M 50.34375 8.453125 
L 50.34375 0 
L 3.03125 0 
Q 2.9375 3.171875 4.046875 6.109375 
Q 5.859375 10.9375 9.828125 15.625 
Q 13.8125 20.3125 21.34375 26.46875 
Q 33.015625 36.03125 37.109375 41.625 
Q 41.21875 47.21875 41.21875 52.203125 
Q 41.21875 57.421875 37.46875 61 
Q 33.734375 64.59375 27.734375 64.59375 
Q 21.390625 64.59375 17.578125 60.78125 
Q 13.765625 56.984375 13.71875 50.25 
L 4.6875 51.171875 
Q 5.609375 61.28125 11.65625 66.578125 
Q 17.71875 71.875 27.9375 71.875 
Q 38.234375 71.875 44.234375 66.15625 
Q 50.25 60.453125 50.25 52 
Q 50.25 47.703125 48.484375 43.546875 
Q 46.734375 39.40625 42.65625 34.8125 
Q 38.578125 30.21875 29.109375 22.21875 
Q 21.1875 15.578125 18.9375 13.203125 
Q 16.703125 10.84375 15.234375 8.453125 
z
" id="ArialMT-50"/>
      </defs>
      <g style="fill:#262626;" transform="translate(167.15438 320.270151)scale(0.1 -0.1)">
       <use xlink:href="#ArialMT-50"/>
       <use x="55.615234" xlink:href="#ArialMT-50"/>
       <use x="111.230469" xlink:href="#ArialMT-53"/>
       <use x="166.845703" xlink:href="#ArialMT-176"/>
      </g>
     </g>
    </g>
    <g id="xtick_7">
     <g id="line2d_7">
      <path clip-path="url(#pf3dde14986)" d="M 295.2 199.98 
L 295.2 352.44 
" style="fill:none;stroke:#ffffff;stroke-linecap:round;"/>
     </g>
     <g id="text_7">
      <!-- 270° -->
      <defs>
       <path d="M 4.734375 62.203125 
L 4.734375 70.65625 
L 51.078125 70.65625 
L 51.078125 63.8125 
Q 44.234375 56.546875 37.515625 44.484375 
Q 30.8125 32.421875 27.15625 19.671875 
Q 24.515625 10.6875 23.78125 0 
L 14.75 0 
Q 14.890625 8.453125 18.0625 20.40625 
Q 21.234375 32.375 27.171875 43.484375 
Q 33.109375 54.59375 39.796875 62.203125 
z
" id="ArialMT-55"/>
      </defs>
      <g style="fill:#262626;" transform="translate(284.859375 369.025156)scale(0.1 -0.1)">
       <use xlink:href="#ArialMT-50"/>
       <use x="55.615234" xlink:href="#ArialMT-55"/>
       <use x="111.230469" xlink:href="#ArialMT-48"/>
       <use x="166.845703" xlink:href="#ArialMT-176"/>
      </g>
     </g>
    </g>
    <g id="xtick_8">
     <g id="line2d_8">
      <path clip-path="url(#pf3dde14986)" d="M 295.2 199.98 
L 403.0055 307.7855 
" style="fill:none;stroke:#ffffff;stroke-linecap:round;"/>
     </g>
     <g id="text_8">
      <!-- 315° -->
      <g style="fill:#262626;" transform="translate(402.56437 320.270151)scale(0.1 -0.1)">
       <use xlink:href="#ArialMT-51"/>
       <use x="55.615234" xlink:href="#ArialMT-49"/>
       <use x="111.230469" xlink:href="#ArialMT-53"/>
       <use x="166.845703" xlink:href="#ArialMT-176"/>
      </g>
     </g>
    </g>
   </g>
   <g id="matplotlib.axis_2">
    <g id="ytick_1">
     <g id="line2d_9">
      <path clip-path="url(#pf3dde14986)" d="M 312.537208 199.98 
L 312.442233 198.167768 
L 312.158349 196.375392 
L 311.688665 194.622508 
L 311.038328 192.928322 
L 310.214463 191.311396 
L 309.226096 189.789445 
L 308.084056 188.379143 
L 306.800857 187.095944 
L 305.390555 185.953904 
L 303.868604 184.965537 
L 302.251678 184.141672 
L 300.557492 183.491335 
L 298.804608 183.021651 
L 297.012232 182.737767 
L 295.2 182.642792 
L 293.387768 182.737767 
L 291.595392 183.021651 
L 289.842508 183.491335 
L 288.148322 184.141672 
L 286.531396 184.965537 
L 285.009445 185.953904 
L 283.599143 187.095944 
L 282.315944 188.379143 
L 281.173904 189.789445 
L 280.185537 191.311396 
L 279.361672 192.928322 
L 278.711335 194.622508 
L 278.241651 196.375392 
L 277.957767 198.167768 
L 277.862792 199.98 
L 277.957767 201.792232 
L 278.241651 203.584608 
L 278.711335 205.337492 
L 279.361672 207.031678 
L 280.185537 208.648604 
L 281.173904 210.170555 
L 282.315944 211.580857 
L 283.599143 212.864056 
L 285.009445 214.006096 
L 286.531396 214.994463 
L 288.148322 215.818328 
L 289.842508 216.468665 
L 291.595392 216.938349 
L 293.387768 217.222233 
L 295.2 217.317208 
L 297.012232 217.222233 
L 298.804608 216.938349 
L 300.557492 216.468665 
L 302.251678 215.818328 
L 303.868604 214.994463 
L 305.390555 214.006096 
L 306.800857 212.864056 
L 308.084056 211.580857 
L 309.226096 210.170555 
L 310.214463 208.648604 
L 311.038328 207.031678 
L 311.688665 205.337492 
L 312.158349 203.584608 
L 312.442233 201.792232 
L 312.537208 199.98 
L 312.537208 199.98 
" style="fill:none;stroke:#ffffff;stroke-linecap:round;"/>
     </g>
     <g id="text_9">
      <!-- 0.02 -->
      <defs>
       <path d="M 9.078125 0 
L 9.078125 10.015625 
L 19.09375 10.015625 
L 19.09375 0 
z
" id="ArialMT-46"/>
      </defs>
      <g style="fill:#262626;" transform="translate(311.217492 191.357838)scale(0.1 -0.1)">
       <use xlink:href="#ArialMT-48"/>
       <use x="55.615234" xlink:href="#ArialMT-46"/>
       <use x="83.398438" xlink:href="#ArialMT-48"/>
       <use x="139.013672" xlink:href="#ArialMT-50"/>
      </g>
     </g>
    </g>
    <g id="ytick_2">
     <g id="line2d_10">
      <path clip-path="url(#pf3dde14986)" d="M 329.874416 199.98 
L 329.789951 197.561235 
L 329.536967 195.154254 
L 329.116697 192.770783 
L 328.531188 190.422436 
L 327.783293 188.120651 
L 326.876655 185.876644 
L 325.815692 183.701348 
L 324.605573 181.605359 
L 323.252192 179.59889 
L 321.762144 177.691715 
L 320.142688 175.893127 
L 318.401713 174.211887 
L 316.547702 172.656187 
L 314.589687 171.233606 
L 312.537208 169.951075 
L 310.400264 168.814841 
L 308.189265 167.830441 
L 305.914984 167.002671 
L 303.5885 166.335562 
L 301.221149 165.832366 
L 298.824463 165.495534 
L 296.41012 165.326707 
L 293.98988 165.326707 
L 291.575537 165.495534 
L 289.178851 165.832366 
L 286.8115 166.335562 
L 284.485016 167.002671 
L 282.210735 167.830441 
L 279.999736 168.814841 
L 277.862792 169.951075 
L 275.810313 171.233606 
L 273.852298 172.656187 
L 271.998287 174.211887 
L 270.257312 175.893127 
L 268.637856 177.691715 
L 267.147808 179.59889 
L 265.794427 181.605359 
L 264.584308 183.701348 
L 263.523345 185.876644 
L 262.616707 188.120651 
L 261.868812 190.422436 
L 261.283303 192.770783 
L 260.863033 195.154254 
L 260.610049 197.561235 
L 260.525584 199.98 
L 260.610049 202.398765 
L 260.863033 204.805746 
L 261.283303 207.189217 
L 261.868812 209.537564 
L 262.616707 211.839349 
L 263.523345 214.083356 
L 264.584308 216.258652 
L 265.794427 218.354641 
L 267.147808 220.36111 
L 268.637856 222.268285 
L 270.257312 224.066873 
L 271.998287 225.748113 
L 273.852298 227.303813 
L 275.810313 228.726394 
L 277.862792 230.008925 
L 279.999736 231.145159 
L 282.210735 232.129559 
L 284.485016 232.957329 
L 286.8115 233.624438 
L 289.178851 234.127634 
L 291.575537 234.464466 
L 293.98988 234.633293 
L 296.41012 234.633293 
L 298.824463 234.464466 
L 301.221149 234.127634 
L 303.5885 233.624438 
L 305.914984 232.957329 
L 308.189265 232.129559 
L 310.400264 231.145159 
L 312.537208 230.008925 
L 314.589687 228.726394 
L 316.547702 227.303813 
L 318.401713 225.748113 
L 320.142688 224.066873 
L 321.762144 222.268285 
L 323.252192 220.36111 
L 324.605573 218.354641 
L 325.815692 216.258652 
L 326.876655 214.083356 
L 327.783293 211.839349 
L 328.531188 209.537564 
L 329.116697 207.189217 
L 329.536967 204.805746 
L 329.789951 202.398765 
L 329.874416 199.98 
L 329.874416 199.98 
" style="fill:none;stroke:#ffffff;stroke-linecap:round;"/>
     </g>
     <g id="text_10">
      <!-- 0.04 -->
      <g style="fill:#262626;" transform="translate(327.234983 184.723175)scale(0.1 -0.1)">
       <use xlink:href="#ArialMT-48"/>
       <use x="55.615234" xlink:href="#ArialMT-46"/>
       <use x="83.398438" xlink:href="#ArialMT-48"/>
       <use x="139.013672" xlink:href="#ArialMT-52"/>
      </g>
     </g>
    </g>
    <g id="ytick_3">
     <g id="line2d_11">
      <path clip-path="url(#pf3dde14986)" d="M 347.211624 199.98 
L 347.084927 196.351852 
L 346.705451 192.741381 
L 346.075046 189.166175 
L 345.196782 185.643653 
L 344.07494 182.190977 
L 342.714983 178.824967 
L 341.123538 175.562021 
L 339.308359 172.418038 
L 337.278288 169.408334 
L 335.043216 166.547572 
L 332.614031 163.84969 
L 330.00257 161.327831 
L 327.221553 158.994281 
L 324.284531 156.860409 
L 321.205812 154.936612 
L 318.000395 153.232262 
L 314.683897 151.755662 
L 311.272476 150.514006 
L 307.782751 149.513343 
L 304.231724 148.758549 
L 300.636695 148.253301 
L 297.01518 148.00006 
L 293.38482 148.00006 
L 289.763305 148.253301 
L 286.168276 148.758549 
L 282.617249 149.513343 
L 279.127524 150.514006 
L 275.716103 151.755662 
L 272.399605 153.232262 
L 269.194188 154.936612 
L 266.115469 156.860409 
L 263.178447 158.994281 
L 260.39743 161.327831 
L 257.785969 163.84969 
L 255.356784 166.547572 
L 253.121712 169.408334 
L 251.091641 172.418038 
L 249.276462 175.562021 
L 247.685017 178.824967 
L 246.32506 182.190977 
L 245.203218 185.643653 
L 244.324954 189.166175 
L 243.694549 192.741381 
L 243.315073 196.351852 
L 243.188376 199.98 
L 243.315073 203.608148 
L 243.694549 207.218619 
L 244.324954 210.793825 
L 245.203218 214.316347 
L 246.32506 217.769023 
L 247.685017 221.135033 
L 249.276462 224.397979 
L 251.091641 227.541962 
L 253.121712 230.551666 
L 255.356784 233.412428 
L 257.785969 236.11031 
L 260.39743 238.632169 
L 263.178447 240.965719 
L 266.115469 243.099591 
L 269.194188 245.023388 
L 272.399605 246.727738 
L 275.716103 248.204338 
L 279.127524 249.445994 
L 282.617249 250.446657 
L 286.168276 251.201451 
L 289.763305 251.706699 
L 293.38482 251.95994 
L 297.01518 251.95994 
L 300.636695 251.706699 
L 304.231724 251.201451 
L 307.782751 250.446657 
L 311.272476 249.445994 
L 314.683897 248.204338 
L 318.000395 246.727738 
L 321.205812 245.023388 
L 324.284531 243.099591 
L 327.221553 240.965719 
L 330.00257 238.632169 
L 332.614031 236.11031 
L 335.043216 233.412428 
L 337.278288 230.551666 
L 339.308359 227.541962 
L 341.123538 224.397979 
L 342.714983 221.135033 
L 344.07494 217.769023 
L 345.196782 214.316347 
L 346.075046 210.793825 
L 346.705451 207.218619 
L 347.084927 203.608148 
L 347.211624 199.98 
L 347.211624 199.98 
" style="fill:none;stroke:#ffffff;stroke-linecap:round;"/>
     </g>
     <g id="text_11">
      <!-- 0.06 -->
      <defs>
       <path d="M 49.75 54.046875 
L 41.015625 53.375 
Q 39.84375 58.546875 37.703125 60.890625 
Q 34.125 64.65625 28.90625 64.65625 
Q 24.703125 64.65625 21.53125 62.3125 
Q 17.390625 59.28125 14.984375 53.46875 
Q 12.59375 47.65625 12.5 36.921875 
Q 15.671875 41.75 20.265625 44.09375 
Q 24.859375 46.4375 29.890625 46.4375 
Q 38.671875 46.4375 44.84375 39.96875 
Q 51.03125 33.5 51.03125 23.25 
Q 51.03125 16.5 48.125 10.71875 
Q 45.21875 4.9375 40.140625 1.859375 
Q 35.0625 -1.21875 28.609375 -1.21875 
Q 17.625 -1.21875 10.6875 6.859375 
Q 3.765625 14.9375 3.765625 33.5 
Q 3.765625 54.25 11.421875 63.671875 
Q 18.109375 71.875 29.4375 71.875 
Q 37.890625 71.875 43.28125 67.140625 
Q 48.6875 62.40625 49.75 54.046875 
z
M 13.875 23.1875 
Q 13.875 18.65625 15.796875 14.5 
Q 17.71875 10.359375 21.1875 8.171875 
Q 24.65625 6 28.46875 6 
Q 34.03125 6 38.03125 10.484375 
Q 42.046875 14.984375 42.046875 22.703125 
Q 42.046875 30.125 38.078125 34.390625 
Q 34.125 38.671875 28.125 38.671875 
Q 22.171875 38.671875 18.015625 34.390625 
Q 13.875 30.125 13.875 23.1875 
z
" id="ArialMT-54"/>
      </defs>
      <g style="fill:#262626;" transform="translate(343.252475 178.088513)scale(0.1 -0.1)">
       <use xlink:href="#ArialMT-48"/>
       <use x="55.615234" xlink:href="#ArialMT-46"/>
       <use x="83.398438" xlink:href="#ArialMT-48"/>
       <use x="139.013672" xlink:href="#ArialMT-54"/>
      </g>
     </g>
    </g>
    <g id="ytick_4">
     <g id="line2d_12">
      <path clip-path="url(#pf3dde14986)" d="M 364.548832 199.98 
L 364.379902 195.14247 
L 363.873934 190.328508 
L 363.033394 185.561567 
L 361.862376 180.864871 
L 360.366586 176.261302 
L 358.553311 171.773289 
L 356.431385 167.422695 
L 354.011145 163.230718 
L 351.304384 159.217779 
L 348.324288 155.40343 
L 345.085375 151.806253 
L 341.603426 148.443774 
L 337.895404 145.332374 
L 333.979375 142.487212 
L 329.874416 139.922149 
L 325.600527 137.649682 
L 321.17853 135.680882 
L 316.629968 134.025341 
L 311.977001 132.691124 
L 307.242298 131.684732 
L 302.448927 131.011068 
L 297.620239 130.673413 
L 292.779761 130.673413 
L 287.951073 131.011068 
L 283.157702 131.684732 
L 278.422999 132.691124 
L 273.770032 134.025341 
L 269.22147 135.680882 
L 264.799473 137.649682 
L 260.525584 139.922149 
L 256.420625 142.487212 
L 252.504596 145.332374 
L 248.796574 148.443774 
L 245.314625 151.806253 
L 242.075712 155.40343 
L 239.095616 159.217779 
L 236.388855 163.230718 
L 233.968615 167.422695 
L 231.846689 171.773289 
L 230.033414 176.261302 
L 228.537624 180.864871 
L 227.366606 185.561567 
L 226.526066 190.328508 
L 226.020098 195.14247 
L 225.851168 199.98 
L 226.020098 204.81753 
L 226.526066 209.631492 
L 227.366606 214.398433 
L 228.537624 219.095129 
L 230.033414 223.698698 
L 231.846689 228.186711 
L 233.968615 232.537305 
L 236.388855 236.729282 
L 239.095616 240.742221 
L 242.075712 244.55657 
L 245.314625 248.153747 
L 248.796574 251.516226 
L 252.504596 254.627626 
L 256.420625 257.472788 
L 260.525584 260.037851 
L 264.799473 262.310318 
L 269.22147 264.279118 
L 273.770032 265.934659 
L 278.422999 267.268876 
L 283.157702 268.275268 
L 287.951073 268.948932 
L 292.779761 269.286587 
L 297.620239 269.286587 
L 302.448927 268.948932 
L 307.242298 268.275268 
L 311.977001 267.268876 
L 316.629968 265.934659 
L 321.17853 264.279118 
L 325.600527 262.310318 
L 329.874416 260.037851 
L 333.979375 257.472788 
L 337.895404 254.627626 
L 341.603426 251.516226 
L 345.085375 248.153747 
L 348.324288 244.55657 
L 351.304384 240.742221 
L 354.011145 236.729282 
L 356.431385 232.537305 
L 358.553311 228.186711 
L 360.366586 223.698698 
L 361.862376 219.095129 
L 363.033394 214.398433 
L 363.873934 209.631492 
L 364.379902 204.81753 
L 364.548832 199.98 
L 364.548832 199.98 
" style="fill:none;stroke:#ffffff;stroke-linecap:round;"/>
     </g>
     <g id="text_12">
      <!-- 0.08 -->
      <g style="fill:#262626;" transform="translate(359.269967 171.453851)scale(0.1 -0.1)">
       <use xlink:href="#ArialMT-48"/>
       <use x="55.615234" xlink:href="#ArialMT-46"/>
       <use x="83.398438" xlink:href="#ArialMT-48"/>
       <use x="139.013672" xlink:href="#ArialMT-56"/>
      </g>
     </g>
    </g>
    <g id="ytick_5">
     <g id="line2d_13">
      <path clip-path="url(#pf3dde14986)" d="M 381.886041 199.98 
L 381.674878 193.933087 
L 381.042418 187.915635 
L 379.991743 181.956959 
L 378.52797 176.086089 
L 376.658233 170.331628 
L 374.391639 164.721611 
L 371.739231 159.283369 
L 368.713932 154.043397 
L 365.33048 149.027224 
L 361.60536 144.259287 
L 357.556719 139.762816 
L 353.204283 135.559718 
L 348.569256 131.670468 
L 343.674219 128.114015 
L 338.54302 124.907687 
L 333.200659 122.067103 
L 327.673162 119.606103 
L 321.98746 117.536676 
L 316.171251 115.868905 
L 310.252873 114.610915 
L 304.261159 113.768835 
L 298.225299 113.346766 
L 292.174701 113.346766 
L 286.138841 113.768835 
L 280.147127 114.610915 
L 274.228749 115.868905 
L 268.41254 117.536676 
L 262.726838 119.606103 
L 257.199341 122.067103 
L 251.85698 124.907687 
L 246.725781 128.114015 
L 241.830744 131.670468 
L 237.195717 135.559718 
L 232.843281 139.762816 
L 228.79464 144.259287 
L 225.06952 149.027224 
L 221.686068 154.043397 
L 218.660769 159.283369 
L 216.008361 164.721611 
L 213.741767 170.331628 
L 211.87203 176.086089 
L 210.408257 181.956959 
L 209.357582 187.915635 
L 208.725122 193.933087 
L 208.513959 199.98 
L 208.725122 206.026913 
L 209.357582 212.044365 
L 210.408257 218.003041 
L 211.87203 223.873911 
L 213.741767 229.628372 
L 216.008361 235.238389 
L 218.660769 240.676631 
L 221.686068 245.916603 
L 225.06952 250.932776 
L 228.79464 255.700713 
L 232.843281 260.197184 
L 237.195717 264.400282 
L 241.830744 268.289532 
L 246.725781 271.845985 
L 251.85698 275.052313 
L 257.199341 277.892897 
L 262.726838 280.353897 
L 268.41254 282.423324 
L 274.228749 284.091095 
L 280.147127 285.349085 
L 286.138841 286.191165 
L 292.174701 286.613234 
L 298.225299 286.613234 
L 304.261159 286.191165 
L 310.252873 285.349085 
L 316.171251 284.091095 
L 321.98746 282.423324 
L 327.673162 280.353897 
L 333.200659 277.892897 
L 338.54302 275.052313 
L 343.674219 271.845985 
L 348.569256 268.289532 
L 353.204283 264.400282 
L 357.556719 260.197184 
L 361.60536 255.700713 
L 365.33048 250.932776 
L 368.713932 245.916603 
L 371.739231 240.676631 
L 374.391639 235.238389 
L 376.658233 229.628372 
L 378.52797 223.873911 
L 379.991743 218.003041 
L 381.042418 212.044365 
L 381.674878 206.026913 
L 381.886041 199.98 
L 381.886041 199.98 
" style="fill:none;stroke:#ffffff;stroke-linecap:round;"/>
     </g>
     <g id="text_13">
      <!-- 0.10 -->
      <g style="fill:#262626;" transform="translate(375.287459 164.819188)scale(0.1 -0.1)">
       <use xlink:href="#ArialMT-48"/>
       <use x="55.615234" xlink:href="#ArialMT-46"/>
       <use x="83.398438" xlink:href="#ArialMT-49"/>
       <use x="139.013672" xlink:href="#ArialMT-48"/>
      </g>
     </g>
    </g>
    <g id="ytick_6">
     <g id="line2d_14">
      <path clip-path="url(#pf3dde14986)" d="M 399.223249 199.98 
L 399.15988 196.349641 
L 398.969853 192.723705 
L 398.653398 189.10661 
L 398.210902 185.502762 
L 397.642902 181.916552 
L 396.950091 178.35235 
L 396.133314 174.814499 
L 395.193564 171.307307 
L 394.131988 167.835048 
L 392.949879 164.401954 
L 391.648677 161.012205 
L 390.229966 157.669933 
L 388.695477 154.379209 
L 387.047077 151.144043 
L 385.286776 147.968376 
L 383.416718 144.856077 
L 381.439182 141.810938 
L 379.356576 138.836669 
L 377.171439 135.936893 
L 374.886432 133.115145 
L 372.504339 130.374861 
L 370.028063 127.71938 
L 367.46062 125.151937 
L 364.805139 122.675661 
L 362.064855 120.293568 
L 359.243107 118.008561 
L 356.343331 115.823424 
L 353.369062 113.740818 
L 350.323923 111.763282 
L 347.211624 109.893224 
L 344.035957 108.132923 
L 340.800791 106.484523 
L 337.510067 104.950034 
L 334.167795 103.531323 
L 330.778046 102.230121 
L 327.344952 101.048012 
L 323.872693 99.986436 
L 320.365501 99.046686 
L 316.82765 98.229909 
L 313.263448 97.537098 
L 309.677238 96.969098 
L 306.07339 96.526602 
L 302.456295 96.210147 
L 298.830359 96.02012 
L 295.2 95.956751 
L 291.569641 96.02012 
L 287.943705 96.210147 
L 284.32661 96.526602 
L 280.722762 96.969098 
L 277.136552 97.537098 
L 273.57235 98.229909 
L 270.034499 99.046686 
L 266.527307 99.986436 
L 263.055048 101.048012 
L 259.621954 102.230121 
L 256.232205 103.531323 
L 252.889933 104.950034 
L 249.599209 106.484523 
L 246.364043 108.132923 
L 243.188376 109.893224 
L 240.076077 111.763282 
L 237.030938 113.740818 
L 234.056669 115.823424 
L 231.156893 118.008561 
L 228.335145 120.293568 
L 225.594861 122.675661 
L 222.93938 125.151937 
L 220.371937 127.71938 
L 217.895661 130.374861 
L 215.513568 133.115145 
L 213.228561 135.936893 
L 211.043424 138.836669 
L 208.960818 141.810938 
L 206.983282 144.856077 
L 205.113224 147.968376 
L 203.352923 151.144043 
L 201.704523 154.379209 
L 200.170034 157.669933 
L 198.751323 161.012205 
L 197.450121 164.401954 
L 196.268012 167.835048 
L 195.206436 171.307307 
L 194.266686 174.814499 
L 193.449909 178.35235 
L 192.757098 181.916552 
L 192.189098 185.502762 
L 191.746602 189.10661 
L 191.430147 192.723705 
L 191.24012 196.349641 
L 191.176751 199.98 
L 191.24012 203.610359 
L 191.430147 207.236295 
L 191.746602 210.85339 
L 192.189098 214.457238 
L 192.757098 218.043448 
L 193.449909 221.60765 
L 194.266686 225.145501 
L 195.206436 228.652693 
L 196.268012 232.124952 
L 197.450121 235.558046 
L 198.751323 238.947795 
L 200.170034 242.290067 
L 201.704523 245.580791 
L 203.352923 248.815957 
L 205.113224 251.991624 
L 206.983282 255.103923 
L 208.960818 258.149062 
L 211.043424 261.123331 
L 213.228561 264.023107 
L 215.513568 266.844855 
L 217.895661 269.585139 
L 220.371937 272.24062 
L 222.93938 274.808063 
L 225.594861 277.284339 
L 228.335145 279.666432 
L 231.156893 281.951439 
L 234.056669 284.136576 
L 237.030938 286.219182 
L 240.076077 288.196718 
L 243.188376 290.066776 
L 246.364043 291.827077 
L 249.599209 293.475477 
L 252.889933 295.009966 
L 256.232205 296.428677 
L 259.621954 297.729879 
L 263.055048 298.911988 
L 266.527307 299.973564 
L 270.034499 300.913314 
L 273.57235 301.730091 
L 277.136552 302.422902 
L 280.722762 302.990902 
L 284.32661 303.433398 
L 287.943705 303.749853 
L 291.569641 303.93988 
L 295.2 304.003249 
L 298.830359 303.93988 
L 302.456295 303.749853 
L 306.07339 303.433398 
L 309.677238 302.990902 
L 313.263448 302.422902 
L 316.82765 301.730091 
L 320.365501 300.913314 
L 323.872693 299.973564 
L 327.344952 298.911988 
L 330.778046 297.729879 
L 334.167795 296.428677 
L 337.510067 295.009966 
L 340.800791 293.475477 
L 344.035957 291.827077 
L 347.211624 290.066776 
L 350.323923 288.196718 
L 353.369062 286.219182 
L 356.343331 284.136576 
L 359.243107 281.951439 
L 362.064855 279.666432 
L 364.805139 277.284339 
L 367.46062 274.808063 
L 370.028063 272.24062 
L 372.504339 269.585139 
L 374.886432 266.844855 
L 377.171439 264.023107 
L 379.356576 261.123331 
L 381.439182 258.149062 
L 383.416718 255.103923 
L 385.286776 251.991624 
L 387.047077 248.815957 
L 388.695477 245.580791 
L 390.229966 242.290067 
L 391.648677 238.947795 
L 392.949879 235.558046 
L 394.131988 232.124952 
L 395.193564 228.652693 
L 396.133314 225.145501 
L 396.950091 221.60765 
L 397.642902 218.043448 
L 398.210902 214.457238 
L 398.653398 210.85339 
L 398.969853 207.236295 
L 399.15988 203.610359 
L 399.223249 199.98 
L 399.223249 199.98 
" style="fill:none;stroke:#ffffff;stroke-linecap:round;"/>
     </g>
     <g id="text_14">
      <!-- 0.12 -->
      <g style="fill:#262626;" transform="translate(391.30495 158.184526)scale(0.1 -0.1)">
       <use xlink:href="#ArialMT-48"/>
       <use x="55.615234" xlink:href="#ArialMT-46"/>
       <use x="83.398438" xlink:href="#ArialMT-49"/>
       <use x="139.013672" xlink:href="#ArialMT-50"/>
      </g>
     </g>
    </g>
    <g id="ytick_7">
     <g id="line2d_15">
      <path clip-path="url(#pf3dde14986)" d="M 416.560457 199.98 
L 416.486527 195.744581 
L 416.264829 191.514322 
L 415.895631 187.294378 
L 415.379385 183.089889 
L 414.716719 178.905978 
L 413.90844 174.747742 
L 412.955533 170.620248 
L 411.859158 166.528525 
L 410.620653 162.477556 
L 409.241526 158.472279 
L 407.723456 154.517573 
L 406.068294 150.618255 
L 404.278056 146.779077 
L 402.354923 143.004717 
L 400.301239 139.299772 
L 398.119504 135.668756 
L 395.812378 132.116094 
L 393.382672 128.646113 
L 390.833345 125.263042 
L 388.167503 121.971002 
L 385.388395 118.774004 
L 382.499407 115.675943 
L 379.504057 112.680593 
L 376.405996 109.791605 
L 373.208998 107.012497 
L 369.916958 104.346655 
L 366.533887 101.797328 
L 363.063906 99.367622 
L 359.511244 97.060496 
L 355.880228 94.878761 
L 352.175283 92.825077 
L 348.400923 90.901944 
L 344.561745 89.111706 
L 340.662427 87.456544 
L 336.707721 85.938474 
L 332.702444 84.559347 
L 328.651475 83.320842 
L 324.559752 82.224467 
L 320.432258 81.27156 
L 316.274022 80.463281 
L 312.090111 79.800615 
L 307.885622 79.284369 
L 303.665678 78.915171 
L 299.435419 78.693473 
L 295.2 78.619543 
L 290.964581 78.693473 
L 286.734322 78.915171 
L 282.514378 79.284369 
L 278.309889 79.800615 
L 274.125978 80.463281 
L 269.967742 81.27156 
L 265.840248 82.224467 
L 261.748525 83.320842 
L 257.697556 84.559347 
L 253.692279 85.938474 
L 249.737573 87.456544 
L 245.838255 89.111706 
L 241.999077 90.901944 
L 238.224717 92.825077 
L 234.519772 94.878761 
L 230.888756 97.060496 
L 227.336094 99.367622 
L 223.866113 101.797328 
L 220.483042 104.346655 
L 217.191002 107.012497 
L 213.994004 109.791605 
L 210.895943 112.680593 
L 207.900593 115.675943 
L 205.011605 118.774004 
L 202.232497 121.971002 
L 199.566655 125.263042 
L 197.017328 128.646113 
L 194.587622 132.116094 
L 192.280496 135.668756 
L 190.098761 139.299772 
L 188.045077 143.004717 
L 186.121944 146.779077 
L 184.331706 150.618255 
L 182.676544 154.517573 
L 181.158474 158.472279 
L 179.779347 162.477556 
L 178.540842 166.528525 
L 177.444467 170.620248 
L 176.49156 174.747742 
L 175.683281 178.905978 
L 175.020615 183.089889 
L 174.504369 187.294378 
L 174.135171 191.514322 
L 173.913473 195.744581 
L 173.839543 199.98 
L 173.913473 204.215419 
L 174.135171 208.445678 
L 174.504369 212.665622 
L 175.020615 216.870111 
L 175.683281 221.054022 
L 176.49156 225.212258 
L 177.444467 229.339752 
L 178.540842 233.431475 
L 179.779347 237.482444 
L 181.158474 241.487721 
L 182.676544 245.442427 
L 184.331706 249.341745 
L 186.121944 253.180923 
L 188.045077 256.955283 
L 190.098761 260.660228 
L 192.280496 264.291244 
L 194.587622 267.843906 
L 197.017328 271.313887 
L 199.566655 274.696958 
L 202.232497 277.988998 
L 205.011605 281.185996 
L 207.900593 284.284057 
L 210.895943 287.279407 
L 213.994004 290.168395 
L 217.191002 292.947503 
L 220.483042 295.613345 
L 223.866113 298.162672 
L 227.336094 300.592378 
L 230.888756 302.899504 
L 234.519772 305.081239 
L 238.224717 307.134923 
L 241.999077 309.058056 
L 245.838255 310.848294 
L 249.737573 312.503456 
L 253.692279 314.021526 
L 257.697556 315.400653 
L 261.748525 316.639158 
L 265.840248 317.735533 
L 269.967742 318.68844 
L 274.125978 319.496719 
L 278.309889 320.159385 
L 282.514378 320.675631 
L 286.734322 321.044829 
L 290.964581 321.266527 
L 295.2 321.340457 
L 299.435419 321.266527 
L 303.665678 321.044829 
L 307.885622 320.675631 
L 312.090111 320.159385 
L 316.274022 319.496719 
L 320.432258 318.68844 
L 324.559752 317.735533 
L 328.651475 316.639158 
L 332.702444 315.400653 
L 336.707721 314.021526 
L 340.662427 312.503456 
L 344.561745 310.848294 
L 348.400923 309.058056 
L 352.175283 307.134923 
L 355.880228 305.081239 
L 359.511244 302.899504 
L 363.063906 300.592378 
L 366.533887 298.162672 
L 369.916958 295.613345 
L 373.208998 292.947503 
L 376.405996 290.168395 
L 379.504057 287.279407 
L 382.499407 284.284057 
L 385.388395 281.185996 
L 388.167503 277.988998 
L 390.833345 274.696958 
L 393.382672 271.313887 
L 395.812378 267.843906 
L 398.119504 264.291244 
L 400.301239 260.660228 
L 402.354923 256.955283 
L 404.278056 253.180923 
L 406.068294 249.341745 
L 407.723456 245.442427 
L 409.241526 241.487721 
L 410.620653 237.482444 
L 411.859158 233.431475 
L 412.955533 229.339752 
L 413.90844 225.212258 
L 414.716719 221.054022 
L 415.379385 216.870111 
L 415.895631 212.665622 
L 416.264829 208.445678 
L 416.486527 204.215419 
L 416.560457 199.98 
L 416.560457 199.98 
" style="fill:none;stroke:#ffffff;stroke-linecap:round;"/>
     </g>
     <g id="text_15">
      <!-- 0.14 -->
      <g style="fill:#262626;" transform="translate(407.322442 151.549864)scale(0.1 -0.1)">
       <use xlink:href="#ArialMT-48"/>
       <use x="55.615234" xlink:href="#ArialMT-46"/>
       <use x="83.398438" xlink:href="#ArialMT-49"/>
       <use x="139.013672" xlink:href="#ArialMT-52"/>
      </g>
     </g>
    </g>
    <g id="ytick_8">
     <g id="line2d_16">
      <path clip-path="url(#pf3dde14986)" d="M 433.897665 199.98 
L 433.813174 195.139521 
L 433.559804 190.30494 
L 433.137865 185.482146 
L 432.547869 180.677016 
L 431.790536 175.895403 
L 430.866788 171.143134 
L 429.777751 166.425998 
L 428.524753 161.749742 
L 427.109318 157.120064 
L 425.533172 152.542605 
L 423.798236 148.02294 
L 421.906622 143.566577 
L 419.860635 139.178946 
L 417.662769 134.865391 
L 415.315701 130.631168 
L 412.822291 126.481435 
L 410.185575 122.42125 
L 407.408768 118.455558 
L 404.495251 114.589191 
L 401.448575 110.82686 
L 398.272452 107.173147 
L 394.970751 103.632506 
L 391.547494 100.209249 
L 388.006853 96.907548 
L 384.35314 93.731425 
L 380.590809 90.684749 
L 376.724442 87.771232 
L 372.75875 84.994425 
L 368.698565 82.357709 
L 364.548832 79.864299 
L 360.314609 77.517231 
L 356.001054 75.319365 
L 351.613423 73.273378 
L 347.15706 71.381764 
L 342.637395 69.646828 
L 338.059936 68.070682 
L 333.430258 66.655247 
L 328.754002 65.402249 
L 324.036866 64.313212 
L 319.284597 63.389464 
L 314.502984 62.632131 
L 309.697854 62.042135 
L 304.87506 61.620196 
L 300.040479 61.366826 
L 295.2 61.282335 
L 290.359521 61.366826 
L 285.52494 61.620196 
L 280.702146 62.042135 
L 275.897016 62.632131 
L 271.115403 63.389464 
L 266.363134 64.313212 
L 261.645998 65.402249 
L 256.969742 66.655247 
L 252.340064 68.070682 
L 247.762605 69.646828 
L 243.24294 71.381764 
L 238.786577 73.273378 
L 234.398946 75.319365 
L 230.085391 77.517231 
L 225.851168 79.864299 
L 221.701435 82.357709 
L 217.64125 84.994425 
L 213.675558 87.771232 
L 209.809191 90.684749 
L 206.04686 93.731425 
L 202.393147 96.907548 
L 198.852506 100.209249 
L 195.429249 103.632506 
L 192.127548 107.173147 
L 188.951425 110.82686 
L 185.904749 114.589191 
L 182.991232 118.455558 
L 180.214425 122.42125 
L 177.577709 126.481435 
L 175.084299 130.631168 
L 172.737231 134.865391 
L 170.539365 139.178946 
L 168.493378 143.566577 
L 166.601764 148.02294 
L 164.866828 152.542605 
L 163.290682 157.120064 
L 161.875247 161.749742 
L 160.622249 166.425998 
L 159.533212 171.143134 
L 158.609464 175.895403 
L 157.852131 180.677016 
L 157.262135 185.482146 
L 156.840196 190.30494 
L 156.586826 195.139521 
L 156.502335 199.98 
L 156.586826 204.820479 
L 156.840196 209.65506 
L 157.262135 214.477854 
L 157.852131 219.282984 
L 158.609464 224.064597 
L 159.533212 228.816866 
L 160.622249 233.534002 
L 161.875247 238.210258 
L 163.290682 242.839936 
L 164.866828 247.417395 
L 166.601764 251.93706 
L 168.493378 256.393423 
L 170.539365 260.781054 
L 172.737231 265.094609 
L 175.084299 269.328832 
L 177.577709 273.478565 
L 180.214425 277.53875 
L 182.991232 281.504442 
L 185.904749 285.370809 
L 188.951425 289.13314 
L 192.127548 292.786853 
L 195.429249 296.327494 
L 198.852506 299.750751 
L 202.393147 303.052452 
L 206.04686 306.228575 
L 209.809191 309.275251 
L 213.675558 312.188768 
L 217.64125 314.965575 
L 221.701435 317.602291 
L 225.851168 320.095701 
L 230.085391 322.442769 
L 234.398946 324.640635 
L 238.786577 326.686622 
L 243.24294 328.578236 
L 247.762605 330.313172 
L 252.340064 331.889318 
L 256.969742 333.304753 
L 261.645998 334.557751 
L 266.363134 335.646788 
L 271.115403 336.570536 
L 275.897016 337.327869 
L 280.702146 337.917865 
L 285.52494 338.339804 
L 290.359521 338.593174 
L 295.2 338.677665 
L 300.040479 338.593174 
L 304.87506 338.339804 
L 309.697854 337.917865 
L 314.502984 337.327869 
L 319.284597 336.570536 
L 324.036866 335.646788 
L 328.754002 334.557751 
L 333.430258 333.304753 
L 338.059936 331.889318 
L 342.637395 330.313172 
L 347.15706 328.578236 
L 351.613423 326.686622 
L 356.001054 324.640635 
L 360.314609 322.442769 
L 364.548832 320.095701 
L 368.698565 317.602291 
L 372.75875 314.965575 
L 376.724442 312.188768 
L 380.590809 309.275251 
L 384.35314 306.228575 
L 388.006853 303.052452 
L 391.547494 299.750751 
L 394.970751 296.327494 
L 398.272452 292.786853 
L 401.448575 289.13314 
L 404.495251 285.370809 
L 407.408768 281.504442 
L 410.185575 277.53875 
L 412.822291 273.478565 
L 415.315701 269.328832 
L 417.662769 265.094609 
L 419.860635 260.781054 
L 421.906622 256.393423 
L 423.798236 251.93706 
L 425.533172 247.417395 
L 427.109318 242.839936 
L 428.524753 238.210258 
L 429.777751 233.534002 
L 430.866788 228.816866 
L 431.790536 224.064597 
L 432.547869 219.282984 
L 433.137865 214.477854 
L 433.559804 209.65506 
L 433.813174 204.820479 
L 433.897665 199.98 
L 433.897665 199.98 
" style="fill:none;stroke:#ffffff;stroke-linecap:round;"/>
     </g>
     <g id="text_16">
      <!-- 0.16 -->
      <g style="fill:#262626;" transform="translate(423.339934 144.915202)scale(0.1 -0.1)">
       <use xlink:href="#ArialMT-48"/>
       <use x="55.615234" xlink:href="#ArialMT-46"/>
       <use x="83.398438" xlink:href="#ArialMT-49"/>
       <use x="139.013672" xlink:href="#ArialMT-54"/>
      </g>
     </g>
    </g>
   </g>
   <g id="PathCollection_1">
    <defs>
     <path d="M 0 3.5 
C 0.928211 3.5 1.81853 3.131218 2.474874 2.474874 
C 3.131218 1.81853 3.5 0.928211 3.5 0 
C 3.5 -0.928211 3.131218 -1.81853 2.474874 -2.474874 
C 1.81853 -3.131218 0.928211 -3.5 0 -3.5 
C -0.928211 -3.5 -1.81853 -3.131218 -2.474874 -2.474874 
C -3.131218 -1.81853 -3.5 -0.928211 -3.5 0 
C -3.5 0.928211 -3.131218 1.81853 -2.474874 2.474874 
C -1.81853 3.131218 -0.928211 3.5 0 3.5 
z
" id="m49130c6cf2" style="stroke:#4c72b0;stroke-width:0.3;"/>
    </defs>
    <g clip-path="url(#pf3dde14986)">
     <use style="fill:#4c72b0;stroke:#4c72b0;stroke-width:0.3;" x="266.517196" xlink:href="#m49130c6cf2" y="225.235069"/>
     <use style="fill:#4c72b0;stroke:#4c72b0;stroke-width:0.3;" x="228.74591" xlink:href="#m49130c6cf2" y="233.004656"/>
     <use style="fill:#4c72b0;stroke:#4c72b0;stroke-width:0.3;" x="239.021509" xlink:href="#m49130c6cf2" y="228.84325"/>
     <use style="fill:#4c72b0;stroke:#4c72b0;stroke-width:0.3;" x="277.482756" xlink:href="#m49130c6cf2" y="225.277995"/>
     <use style="fill:#4c72b0;stroke:#4c72b0;stroke-width:0.3;" x="268.983303" xlink:href="#m49130c6cf2" y="223.961204"/>
     <use style="fill:#4c72b0;stroke:#4c72b0;stroke-width:0.3;" x="253.739015" xlink:href="#m49130c6cf2" y="218.461905"/>
     <use style="fill:#4c72b0;stroke:#4c72b0;stroke-width:0.3;" x="283.795818" xlink:href="#m49130c6cf2" y="214.149328"/>
     <use style="fill:#4c72b0;stroke:#4c72b0;stroke-width:0.3;" x="228.31078" xlink:href="#m49130c6cf2" y="216.999938"/>
     <use style="fill:#4c72b0;stroke:#4c72b0;stroke-width:0.3;" x="276.174311" xlink:href="#m49130c6cf2" y="202.242388"/>
     <use style="fill:#4c72b0;stroke:#4c72b0;stroke-width:0.3;" x="306.24457" xlink:href="#m49130c6cf2" y="198.603303"/>
     <use style="fill:#4c72b0;stroke:#4c72b0;stroke-width:0.3;" x="269.952468" xlink:href="#m49130c6cf2" y="198.678551"/>
     <use style="fill:#4c72b0;stroke:#4c72b0;stroke-width:0.3;" x="243.27262" xlink:href="#m49130c6cf2" y="202.985096"/>
     <use style="fill:#4c72b0;stroke:#4c72b0;stroke-width:0.3;" x="330.335215" xlink:href="#m49130c6cf2" y="199.97844"/>
     <use style="fill:#4c72b0;stroke:#4c72b0;stroke-width:0.3;" x="254.504967" xlink:href="#m49130c6cf2" y="210.732987"/>
     <use style="fill:#4c72b0;stroke:#4c72b0;stroke-width:0.3;" x="249.946839" xlink:href="#m49130c6cf2" y="214.964783"/>
     <use style="fill:#4c72b0;stroke:#4c72b0;stroke-width:0.3;" x="282.283181" xlink:href="#m49130c6cf2" y="212.370129"/>
     <use style="fill:#4c72b0;stroke:#4c72b0;stroke-width:0.3;" x="354.785643" xlink:href="#m49130c6cf2" y="209.760985"/>
     <use style="fill:#4c72b0;stroke:#4c72b0;stroke-width:0.3;" x="167.725557" xlink:href="#m49130c6cf2" y="226.729259"/>
     <use style="fill:#4c72b0;stroke:#4c72b0;stroke-width:0.3;" x="271.106672" xlink:href="#m49130c6cf2" y="211.954108"/>
     <use style="fill:#4c72b0;stroke:#4c72b0;stroke-width:0.3;" x="265.261521" xlink:href="#m49130c6cf2" y="211.579788"/>
     <use style="fill:#4c72b0;stroke:#4c72b0;stroke-width:0.3;" x="262.166796" xlink:href="#m49130c6cf2" y="206.84198"/>
     <use style="fill:#4c72b0;stroke:#4c72b0;stroke-width:0.3;" x="264.62537" xlink:href="#m49130c6cf2" y="206.067549"/>
     <use style="fill:#4c72b0;stroke:#4c72b0;stroke-width:0.3;" x="257.532138" xlink:href="#m49130c6cf2" y="206.923949"/>
     <use style="fill:#4c72b0;stroke:#4c72b0;stroke-width:0.3;" x="243.787952" xlink:href="#m49130c6cf2" y="204.00764"/>
    </g>
   </g>
   <g id="PathCollection_2">
    <defs>
     <path d="M 0 3.5 
C 0.928211 3.5 1.81853 3.131218 2.474874 2.474874 
C 3.131218 1.81853 3.5 0.928211 3.5 0 
C 3.5 -0.928211 3.131218 -1.81853 2.474874 -2.474874 
C 1.81853 -3.131218 0.928211 -3.5 0 -3.5 
C -0.928211 -3.5 -1.81853 -3.131218 -2.474874 -2.474874 
C -3.131218 -1.81853 -3.5 -0.928211 -3.5 0 
C -3.5 0.928211 -3.131218 1.81853 -2.474874 2.474874 
C -1.81853 3.131218 -0.928211 3.5 0 3.5 
z
" id="m9f1ee4a69f" style="stroke:#55a868;stroke-width:0.3;"/>
    </defs>
    <g clip-path="url(#pf3dde14986)">
     <use style="fill:#55a868;stroke:#55a868;stroke-width:0.3;" x="255.709407" xlink:href="#m9f1ee4a69f" y="218.37049"/>
     <use style="fill:#55a868;stroke:#55a868;stroke-width:0.3;" x="264.400427" xlink:href="#m9f1ee4a69f" y="212.111001"/>
     <use style="fill:#55a868;stroke:#55a868;stroke-width:0.3;" x="218.620801" xlink:href="#m9f1ee4a69f" y="221.789423"/>
     <use style="fill:#55a868;stroke:#55a868;stroke-width:0.3;" x="265.320765" xlink:href="#m9f1ee4a69f" y="223.931795"/>
     <use style="fill:#55a868;stroke:#55a868;stroke-width:0.3;" x="289.790332" xlink:href="#m9f1ee4a69f" y="210.227628"/>
     <use style="fill:#55a868;stroke:#55a868;stroke-width:0.3;" x="220.485201" xlink:href="#m9f1ee4a69f" y="218.81002"/>
     <use style="fill:#55a868;stroke:#55a868;stroke-width:0.3;" x="305.315577" xlink:href="#m9f1ee4a69f" y="201.620271"/>
     <use style="fill:#55a868;stroke:#55a868;stroke-width:0.3;" x="258.782434" xlink:href="#m9f1ee4a69f" y="207.785069"/>
     <use style="fill:#55a868;stroke:#55a868;stroke-width:0.3;" x="247.847927" xlink:href="#m9f1ee4a69f" y="210.506209"/>
     <use style="fill:#55a868;stroke:#55a868;stroke-width:0.3;" x="282.858169" xlink:href="#m9f1ee4a69f" y="205.337762"/>
     <use style="fill:#55a868;stroke:#55a868;stroke-width:0.3;" x="235.746861" xlink:href="#m9f1ee4a69f" y="217.124731"/>
     <use style="fill:#55a868;stroke:#55a868;stroke-width:0.3;" x="206.314592" xlink:href="#m9f1ee4a69f" y="225.974271"/>
     <use style="fill:#55a868;stroke:#55a868;stroke-width:0.3;" x="256.241491" xlink:href="#m9f1ee4a69f" y="223.950101"/>
     <use style="fill:#55a868;stroke:#55a868;stroke-width:0.3;" x="268.733164" xlink:href="#m9f1ee4a69f" y="224.160172"/>
     <use style="fill:#55a868;stroke:#55a868;stroke-width:0.3;" x="220.526786" xlink:href="#m9f1ee4a69f" y="228.043681"/>
     <use style="fill:#55a868;stroke:#55a868;stroke-width:0.3;" x="225.379755" xlink:href="#m9f1ee4a69f" y="228.118345"/>
     <use style="fill:#55a868;stroke:#55a868;stroke-width:0.3;" x="269.72977" xlink:href="#m9f1ee4a69f" y="221.93172"/>
     <use style="fill:#55a868;stroke:#55a868;stroke-width:0.3;" x="264.083326" xlink:href="#m9f1ee4a69f" y="224.313635"/>
     <use style="fill:#55a868;stroke:#55a868;stroke-width:0.3;" x="293.187273" xlink:href="#m9f1ee4a69f" y="215.463313"/>
     <use style="fill:#55a868;stroke:#55a868;stroke-width:0.3;" x="332.096585" xlink:href="#m9f1ee4a69f" y="211.248482"/>
     <use style="fill:#55a868;stroke:#55a868;stroke-width:0.3;" x="284.076464" xlink:href="#m9f1ee4a69f" y="202.041841"/>
     <use style="fill:#55a868;stroke:#55a868;stroke-width:0.3;" x="188.318681" xlink:href="#m9f1ee4a69f" y="210.699818"/>
     <use style="fill:#55a868;stroke:#55a868;stroke-width:0.3;" x="294.289489" xlink:href="#m9f1ee4a69f" y="207.297856"/>
     <use style="fill:#55a868;stroke:#55a868;stroke-width:0.3;" x="235.328007" xlink:href="#m9f1ee4a69f" y="203.893742"/>
    </g>
   </g>
   <g id="PathCollection_3">
    <defs>
     <path d="M 0 3.5 
C 0.928211 3.5 1.81853 3.131218 2.474874 2.474874 
C 3.131218 1.81853 3.5 0.928211 3.5 0 
C 3.5 -0.928211 3.131218 -1.81853 2.474874 -2.474874 
C 1.81853 -3.131218 0.928211 -3.5 0 -3.5 
C -0.928211 -3.5 -1.81853 -3.131218 -2.474874 -2.474874 
C -3.131218 -1.81853 -3.5 -0.928211 -3.5 0 
C -3.5 0.928211 -3.131218 1.81853 -2.474874 2.474874 
C -1.81853 3.131218 -0.928211 3.5 0 3.5 
z
" id="ma535fbbf67" style="stroke:#c44e52;stroke-width:0.3;"/>
    </defs>
    <g clip-path="url(#pf3dde14986)">
     <use style="fill:#c44e52;stroke:#c44e52;stroke-width:0.3;" x="292.615139" xlink:href="#ma535fbbf67" y="200.920264"/>
     <use style="fill:#c44e52;stroke:#c44e52;stroke-width:0.3;" x="251.068093" xlink:href="#ma535fbbf67" y="193.960928"/>
     <use style="fill:#c44e52;stroke:#c44e52;stroke-width:0.3;" x="311.749261" xlink:href="#ma535fbbf67" y="191.154469"/>
     <use style="fill:#c44e52;stroke:#c44e52;stroke-width:0.3;" x="320.161235" xlink:href="#ma535fbbf67" y="186.466473"/>
     <use style="fill:#c44e52;stroke:#c44e52;stroke-width:0.3;" x="180.767843" xlink:href="#ma535fbbf67" y="210.118977"/>
     <use style="fill:#c44e52;stroke:#c44e52;stroke-width:0.3;" x="260.948964" xlink:href="#ma535fbbf67" y="200.617863"/>
     <use style="fill:#c44e52;stroke:#c44e52;stroke-width:0.3;" x="276.230988" xlink:href="#ma535fbbf67" y="198.973976"/>
     <use style="fill:#c44e52;stroke:#c44e52;stroke-width:0.3;" x="297.108612" xlink:href="#ma535fbbf67" y="198.981496"/>
     <use style="fill:#c44e52;stroke:#c44e52;stroke-width:0.3;" x="257.083266" xlink:href="#ma535fbbf67" y="208.231832"/>
     <use style="fill:#c44e52;stroke:#c44e52;stroke-width:0.3;" x="334.748356" xlink:href="#ma535fbbf67" y="201.198952"/>
     <use style="fill:#c44e52;stroke:#c44e52;stroke-width:0.3;" x="316.372575" xlink:href="#ma535fbbf67" y="195.21902"/>
     <use style="fill:#c44e52;stroke:#c44e52;stroke-width:0.3;" x="297.362838" xlink:href="#ma535fbbf67" y="193.89711"/>
     <use style="fill:#c44e52;stroke:#c44e52;stroke-width:0.3;" x="284.62196" xlink:href="#ma535fbbf67" y="191.925965"/>
     <use style="fill:#c44e52;stroke:#c44e52;stroke-width:0.3;" x="294.923276" xlink:href="#ma535fbbf67" y="189.523275"/>
     <use style="fill:#c44e52;stroke:#c44e52;stroke-width:0.3;" x="257.058984" xlink:href="#ma535fbbf67" y="200.83146"/>
     <use style="fill:#c44e52;stroke:#c44e52;stroke-width:0.3;" x="249.759058" xlink:href="#ma535fbbf67" y="195.240215"/>
     <use style="fill:#c44e52;stroke:#c44e52;stroke-width:0.3;" x="300.466845" xlink:href="#ma535fbbf67" y="192.572415"/>
     <use style="fill:#c44e52;stroke:#c44e52;stroke-width:0.3;" x="279.497411" xlink:href="#ma535fbbf67" y="190.565892"/>
     <use style="fill:#c44e52;stroke:#c44e52;stroke-width:0.3;" x="275.227246" xlink:href="#ma535fbbf67" y="192.05294"/>
     <use style="fill:#c44e52;stroke:#c44e52;stroke-width:0.3;" x="303.953127" xlink:href="#ma535fbbf67" y="193.725966"/>
     <use style="fill:#c44e52;stroke:#c44e52;stroke-width:0.3;" x="266.177072" xlink:href="#ma535fbbf67" y="189.25478"/>
     <use style="fill:#c44e52;stroke:#c44e52;stroke-width:0.3;" x="251.758027" xlink:href="#ma535fbbf67" y="201.031604"/>
     <use style="fill:#c44e52;stroke:#c44e52;stroke-width:0.3;" x="351.231528" xlink:href="#ma535fbbf67" y="180.272622"/>
     <use style="fill:#c44e52;stroke:#c44e52;stroke-width:0.3;" x="289.181511" xlink:href="#ma535fbbf67" y="182.942543"/>
    </g>
   </g>
   <g id="line2d_17">
    <path clip-path="url(#pf3dde14986)" d="M 295.2 199.98 
L 167.74564 226.824786 
" style="fill:none;stroke:#ff0000;stroke-dasharray:7.4,3.2;stroke-dashoffset:0;stroke-width:2;"/>
   </g>
   <g id="patch_3">
    <path d="M 447.66 199.98 
C 447.66 179.959136 443.716326 160.13295 436.054674 141.636084 
C 428.393021 123.139218 417.162388 106.331389 403.0055 92.1745 
C 388.848611 78.017612 372.040782 66.786979 353.543916 59.125326 
C 335.04705 51.463674 315.220864 47.52 295.2 47.52 
C 275.179136 47.52 255.35295 51.463674 236.856084 59.125326 
C 218.359218 66.786979 201.551389 78.017612 187.3945 92.1745 
C 173.237612 106.331389 162.006979 123.139218 154.345326 141.636084 
C 146.683674 160.13295 142.74 179.959136 142.74 199.98 
C 142.74 220.000864 146.683674 239.82705 154.345326 258.323916 
C 162.006979 276.820782 173.237612 293.628611 187.3945 307.7855 
C 201.551389 321.942388 218.359218 333.173021 236.856084 340.834674 
C 255.35295 348.496326 275.179136 352.44 295.2 352.44 
C 315.220864 352.44 335.04705 348.496326 353.543916 340.834674 
C 372.040782 333.173021 388.848611 321.942388 403.0055 307.7855 
C 417.162388 293.628611 428.393021 276.820782 436.054674 258.323916 
C 443.716326 239.82705 447.66 220.000864 447.66 199.98 
" style="fill:none;"/>
   </g>
   <g id="text_17">
    <!-- Distribution of projected eye movement velocity on the screen - NewM1_7_12 -->
    <defs>
     <path d="M 7.71875 0 
L 7.71875 71.578125 
L 32.375 71.578125 
Q 40.71875 71.578125 45.125 70.5625 
Q 51.265625 69.140625 55.609375 65.4375 
Q 61.28125 60.640625 64.078125 53.1875 
Q 66.890625 45.75 66.890625 36.1875 
Q 66.890625 28.03125 64.984375 21.734375 
Q 63.09375 15.4375 60.109375 11.296875 
Q 57.125 7.171875 53.578125 4.796875 
Q 50.046875 2.4375 45.046875 1.21875 
Q 40.046875 0 33.546875 0 
z
M 17.1875 8.453125 
L 32.46875 8.453125 
Q 39.546875 8.453125 43.578125 9.765625 
Q 47.609375 11.078125 50 13.484375 
Q 53.375 16.84375 55.25 22.53125 
Q 57.125 28.21875 57.125 36.328125 
Q 57.125 47.5625 53.4375 53.59375 
Q 49.75 59.625 44.484375 61.671875 
Q 40.671875 63.140625 32.234375 63.140625 
L 17.1875 63.140625 
z
" id="ArialMT-68"/>
     <path d="M 6.640625 61.46875 
L 6.640625 71.578125 
L 15.4375 71.578125 
L 15.4375 61.46875 
z
M 6.640625 0 
L 6.640625 51.859375 
L 15.4375 51.859375 
L 15.4375 0 
z
" id="ArialMT-105"/>
     <path d="M 3.078125 15.484375 
L 11.765625 16.84375 
Q 12.5 11.625 15.84375 8.84375 
Q 19.1875 6.0625 25.203125 6.0625 
Q 31.25 6.0625 34.171875 8.515625 
Q 37.109375 10.984375 37.109375 14.3125 
Q 37.109375 17.28125 34.515625 19 
Q 32.71875 20.171875 25.53125 21.96875 
Q 15.875 24.421875 12.140625 26.203125 
Q 8.40625 27.984375 6.46875 31.125 
Q 4.546875 34.28125 4.546875 38.09375 
Q 4.546875 41.546875 6.125 44.5 
Q 7.71875 47.46875 10.453125 49.421875 
Q 12.5 50.921875 16.03125 51.96875 
Q 19.578125 53.03125 23.640625 53.03125 
Q 29.734375 53.03125 34.34375 51.265625 
Q 38.96875 49.515625 41.15625 46.5 
Q 43.359375 43.5 44.1875 38.484375 
L 35.59375 37.3125 
Q 35.015625 41.3125 32.203125 43.546875 
Q 29.390625 45.796875 24.265625 45.796875 
Q 18.21875 45.796875 15.625 43.796875 
Q 13.03125 41.796875 13.03125 39.109375 
Q 13.03125 37.40625 14.109375 36.03125 
Q 15.1875 34.625 17.484375 33.6875 
Q 18.796875 33.203125 25.25 31.453125 
Q 34.578125 28.953125 38.25 27.359375 
Q 41.9375 25.78125 44.03125 22.75 
Q 46.140625 19.734375 46.140625 15.234375 
Q 46.140625 10.84375 43.578125 6.953125 
Q 41.015625 3.078125 36.171875 0.953125 
Q 31.34375 -1.171875 25.25 -1.171875 
Q 15.140625 -1.171875 9.84375 3.03125 
Q 4.546875 7.234375 3.078125 15.484375 
z
" id="ArialMT-115"/>
     <path d="M 25.78125 7.859375 
L 27.046875 0.09375 
Q 23.34375 -0.6875 20.40625 -0.6875 
Q 15.625 -0.6875 12.984375 0.828125 
Q 10.359375 2.34375 9.28125 4.8125 
Q 8.203125 7.28125 8.203125 15.1875 
L 8.203125 45.015625 
L 1.765625 45.015625 
L 1.765625 51.859375 
L 8.203125 51.859375 
L 8.203125 64.703125 
L 16.9375 69.96875 
L 16.9375 51.859375 
L 25.78125 51.859375 
L 25.78125 45.015625 
L 16.9375 45.015625 
L 16.9375 14.703125 
Q 16.9375 10.9375 17.40625 9.859375 
Q 17.875 8.796875 18.921875 8.15625 
Q 19.96875 7.515625 21.921875 7.515625 
Q 23.390625 7.515625 25.78125 7.859375 
z
" id="ArialMT-116"/>
     <path d="M 6.5 0 
L 6.5 51.859375 
L 14.40625 51.859375 
L 14.40625 44 
Q 17.4375 49.515625 20 51.265625 
Q 22.5625 53.03125 25.640625 53.03125 
Q 30.078125 53.03125 34.671875 50.203125 
L 31.640625 42.046875 
Q 28.421875 43.953125 25.203125 43.953125 
Q 22.3125 43.953125 20.015625 42.21875 
Q 17.71875 40.484375 16.75 37.40625 
Q 15.28125 32.71875 15.28125 27.15625 
L 15.28125 0 
z
" id="ArialMT-114"/>
     <path d="M 14.703125 0 
L 6.546875 0 
L 6.546875 71.578125 
L 15.328125 71.578125 
L 15.328125 46.046875 
Q 20.90625 53.03125 29.546875 53.03125 
Q 34.328125 53.03125 38.59375 51.09375 
Q 42.875 49.171875 45.625 45.671875 
Q 48.390625 42.1875 49.953125 37.25 
Q 51.515625 32.328125 51.515625 26.703125 
Q 51.515625 13.375 44.921875 6.09375 
Q 38.328125 -1.171875 29.109375 -1.171875 
Q 19.921875 -1.171875 14.703125 6.5 
z
M 14.59375 26.3125 
Q 14.59375 17 17.140625 12.84375 
Q 21.296875 6.0625 28.375 6.0625 
Q 34.125 6.0625 38.328125 11.0625 
Q 42.53125 16.0625 42.53125 25.984375 
Q 42.53125 36.140625 38.5 40.96875 
Q 34.46875 45.796875 28.765625 45.796875 
Q 23 45.796875 18.796875 40.796875 
Q 14.59375 35.796875 14.59375 26.3125 
z
" id="ArialMT-98"/>
     <path d="M 40.578125 0 
L 40.578125 7.625 
Q 34.515625 -1.171875 24.125 -1.171875 
Q 19.53125 -1.171875 15.546875 0.578125 
Q 11.578125 2.34375 9.640625 5 
Q 7.71875 7.671875 6.9375 11.53125 
Q 6.390625 14.109375 6.390625 19.734375 
L 6.390625 51.859375 
L 15.1875 51.859375 
L 15.1875 23.09375 
Q 15.1875 16.21875 15.71875 13.8125 
Q 16.546875 10.359375 19.234375 8.375 
Q 21.921875 6.390625 25.875 6.390625 
Q 29.828125 6.390625 33.296875 8.421875 
Q 36.765625 10.453125 38.203125 13.9375 
Q 39.65625 17.4375 39.65625 24.078125 
L 39.65625 51.859375 
L 48.4375 51.859375 
L 48.4375 0 
z
" id="ArialMT-117"/>
     <path d="M 3.328125 25.921875 
Q 3.328125 40.328125 11.328125 47.265625 
Q 18.015625 53.03125 27.640625 53.03125 
Q 38.328125 53.03125 45.109375 46.015625 
Q 51.90625 39.015625 51.90625 26.65625 
Q 51.90625 16.65625 48.90625 10.90625 
Q 45.90625 5.171875 40.15625 2 
Q 34.421875 -1.171875 27.640625 -1.171875 
Q 16.75 -1.171875 10.03125 5.8125 
Q 3.328125 12.796875 3.328125 25.921875 
z
M 12.359375 25.921875 
Q 12.359375 15.96875 16.703125 11.015625 
Q 21.046875 6.0625 27.640625 6.0625 
Q 34.1875 6.0625 38.53125 11.03125 
Q 42.875 16.015625 42.875 26.21875 
Q 42.875 35.84375 38.5 40.796875 
Q 34.125 45.75 27.640625 45.75 
Q 21.046875 45.75 16.703125 40.8125 
Q 12.359375 35.890625 12.359375 25.921875 
z
" id="ArialMT-111"/>
     <path d="M 6.59375 0 
L 6.59375 51.859375 
L 14.5 51.859375 
L 14.5 44.484375 
Q 20.21875 53.03125 31 53.03125 
Q 35.6875 53.03125 39.625 51.34375 
Q 43.5625 49.65625 45.515625 46.921875 
Q 47.46875 44.1875 48.25 40.4375 
Q 48.734375 37.984375 48.734375 31.890625 
L 48.734375 0 
L 39.9375 0 
L 39.9375 31.546875 
Q 39.9375 36.921875 38.90625 39.578125 
Q 37.890625 42.234375 35.28125 43.8125 
Q 32.671875 45.40625 29.15625 45.40625 
Q 23.53125 45.40625 19.453125 41.84375 
Q 15.375 38.28125 15.375 28.328125 
L 15.375 0 
z
" id="ArialMT-110"/>
     <path id="ArialMT-32"/>
     <path d="M 8.6875 0 
L 8.6875 45.015625 
L 0.921875 45.015625 
L 0.921875 51.859375 
L 8.6875 51.859375 
L 8.6875 57.375 
Q 8.6875 62.59375 9.625 65.140625 
Q 10.890625 68.5625 14.078125 70.671875 
Q 17.28125 72.796875 23.046875 72.796875 
Q 26.765625 72.796875 31.25 71.921875 
L 29.9375 64.265625 
Q 27.203125 64.75 24.75 64.75 
Q 20.75 64.75 19.09375 63.03125 
Q 17.4375 61.328125 17.4375 56.640625 
L 17.4375 51.859375 
L 27.546875 51.859375 
L 27.546875 45.015625 
L 17.4375 45.015625 
L 17.4375 0 
z
" id="ArialMT-102"/>
     <path d="M 6.59375 -19.875 
L 6.59375 51.859375 
L 14.59375 51.859375 
L 14.59375 45.125 
Q 17.4375 49.078125 21 51.046875 
Q 24.5625 53.03125 29.640625 53.03125 
Q 36.28125 53.03125 41.359375 49.609375 
Q 46.4375 46.1875 49.015625 39.953125 
Q 51.609375 33.734375 51.609375 26.3125 
Q 51.609375 18.359375 48.75 11.984375 
Q 45.90625 5.609375 40.453125 2.21875 
Q 35.015625 -1.171875 29 -1.171875 
Q 24.609375 -1.171875 21.109375 0.6875 
Q 17.625 2.546875 15.375 5.375 
L 15.375 -19.875 
z
M 14.546875 25.640625 
Q 14.546875 15.625 18.59375 10.84375 
Q 22.65625 6.0625 28.421875 6.0625 
Q 34.28125 6.0625 38.453125 11.015625 
Q 42.625 15.96875 42.625 26.375 
Q 42.625 36.28125 38.546875 41.203125 
Q 34.46875 46.140625 28.8125 46.140625 
Q 23.1875 46.140625 18.859375 40.890625 
Q 14.546875 35.640625 14.546875 25.640625 
z
" id="ArialMT-112"/>
     <path d="M 6.546875 61.375 
L 6.546875 71.578125 
L 15.328125 71.578125 
L 15.328125 61.375 
z
M -4.59375 -20.125 
L -2.9375 -12.640625 
Q -0.296875 -13.328125 1.21875 -13.328125 
Q 3.90625 -13.328125 5.21875 -11.546875 
Q 6.546875 -9.765625 6.546875 -2.640625 
L 6.546875 51.859375 
L 15.328125 51.859375 
L 15.328125 -2.828125 
Q 15.328125 -12.40625 12.84375 -16.15625 
Q 9.671875 -21.046875 2.296875 -21.046875 
Q -1.265625 -21.046875 -4.59375 -20.125 
z
" id="ArialMT-106"/>
     <path d="M 42.09375 16.703125 
L 51.171875 15.578125 
Q 49.03125 7.625 43.21875 3.21875 
Q 37.40625 -1.171875 28.375 -1.171875 
Q 17 -1.171875 10.328125 5.828125 
Q 3.65625 12.84375 3.65625 25.484375 
Q 3.65625 38.578125 10.390625 45.796875 
Q 17.140625 53.03125 27.875 53.03125 
Q 38.28125 53.03125 44.875 45.953125 
Q 51.46875 38.875 51.46875 26.03125 
Q 51.46875 25.25 51.421875 23.6875 
L 12.75 23.6875 
Q 13.234375 15.140625 17.578125 10.59375 
Q 21.921875 6.0625 28.421875 6.0625 
Q 33.25 6.0625 36.671875 8.59375 
Q 40.09375 11.140625 42.09375 16.703125 
z
M 13.234375 30.90625 
L 42.1875 30.90625 
Q 41.609375 37.453125 38.875 40.71875 
Q 34.671875 45.796875 27.984375 45.796875 
Q 21.921875 45.796875 17.796875 41.75 
Q 13.671875 37.703125 13.234375 30.90625 
z
" id="ArialMT-101"/>
     <path d="M 40.4375 19 
L 49.078125 17.875 
Q 47.65625 8.9375 41.8125 3.875 
Q 35.984375 -1.171875 27.484375 -1.171875 
Q 16.84375 -1.171875 10.375 5.78125 
Q 3.90625 12.75 3.90625 25.734375 
Q 3.90625 34.125 6.6875 40.421875 
Q 9.46875 46.734375 15.15625 49.875 
Q 20.84375 53.03125 27.546875 53.03125 
Q 35.984375 53.03125 41.359375 48.75 
Q 46.734375 44.484375 48.25 36.625 
L 39.703125 35.296875 
Q 38.484375 40.53125 35.375 43.15625 
Q 32.28125 45.796875 27.875 45.796875 
Q 21.234375 45.796875 17.078125 41.03125 
Q 12.9375 36.28125 12.9375 25.984375 
Q 12.9375 15.53125 16.9375 10.796875 
Q 20.953125 6.0625 27.390625 6.0625 
Q 32.5625 6.0625 36.03125 9.234375 
Q 39.5 12.40625 40.4375 19 
z
" id="ArialMT-99"/>
     <path d="M 40.234375 0 
L 40.234375 6.546875 
Q 35.296875 -1.171875 25.734375 -1.171875 
Q 19.53125 -1.171875 14.328125 2.25 
Q 9.125 5.671875 6.265625 11.796875 
Q 3.421875 17.921875 3.421875 25.875 
Q 3.421875 33.640625 6 39.96875 
Q 8.59375 46.296875 13.765625 49.65625 
Q 18.953125 53.03125 25.34375 53.03125 
Q 30.03125 53.03125 33.6875 51.046875 
Q 37.359375 49.078125 39.65625 45.90625 
L 39.65625 71.578125 
L 48.390625 71.578125 
L 48.390625 0 
z
M 12.453125 25.875 
Q 12.453125 15.921875 16.640625 10.984375 
Q 20.84375 6.0625 26.5625 6.0625 
Q 32.328125 6.0625 36.34375 10.765625 
Q 40.375 15.484375 40.375 25.140625 
Q 40.375 35.796875 36.265625 40.765625 
Q 32.171875 45.75 26.171875 45.75 
Q 20.3125 45.75 16.375 40.96875 
Q 12.453125 36.1875 12.453125 25.875 
z
" id="ArialMT-100"/>
     <path d="M 6.203125 -19.96875 
L 5.21875 -11.71875 
Q 8.109375 -12.5 10.25 -12.5 
Q 13.1875 -12.5 14.9375 -11.515625 
Q 16.703125 -10.546875 17.828125 -8.796875 
Q 18.65625 -7.46875 20.515625 -2.25 
Q 20.75 -1.515625 21.296875 -0.09375 
L 1.609375 51.859375 
L 11.078125 51.859375 
L 21.875 21.828125 
Q 23.96875 16.109375 25.640625 9.8125 
Q 27.15625 15.875 29.25 21.625 
L 40.328125 51.859375 
L 49.125 51.859375 
L 29.390625 -0.875 
Q 26.21875 -9.421875 24.46875 -12.640625 
Q 22.125 -17 19.09375 -19.015625 
Q 16.0625 -21.046875 11.859375 -21.046875 
Q 9.328125 -21.046875 6.203125 -19.96875 
z
" id="ArialMT-121"/>
     <path d="M 6.59375 0 
L 6.59375 51.859375 
L 14.453125 51.859375 
L 14.453125 44.578125 
Q 16.890625 48.390625 20.9375 50.703125 
Q 25 53.03125 30.171875 53.03125 
Q 35.9375 53.03125 39.625 50.640625 
Q 43.3125 48.25 44.828125 43.953125 
Q 50.984375 53.03125 60.84375 53.03125 
Q 68.5625 53.03125 72.703125 48.75 
Q 76.859375 44.484375 76.859375 35.59375 
L 76.859375 0 
L 68.109375 0 
L 68.109375 32.671875 
Q 68.109375 37.9375 67.25 40.25 
Q 66.40625 42.578125 64.15625 43.984375 
Q 61.921875 45.40625 58.890625 45.40625 
Q 53.421875 45.40625 49.796875 41.765625 
Q 46.1875 38.140625 46.1875 30.125 
L 46.1875 0 
L 37.40625 0 
L 37.40625 33.6875 
Q 37.40625 39.546875 35.25 42.46875 
Q 33.109375 45.40625 28.21875 45.40625 
Q 24.515625 45.40625 21.359375 43.453125 
Q 18.21875 41.5 16.796875 37.734375 
Q 15.375 33.984375 15.375 26.90625 
L 15.375 0 
z
" id="ArialMT-109"/>
     <path d="M 21 0 
L 1.265625 51.859375 
L 10.546875 51.859375 
L 21.6875 20.796875 
Q 23.484375 15.765625 25 10.359375 
Q 26.171875 14.453125 28.265625 20.21875 
L 39.796875 51.859375 
L 48.828125 51.859375 
L 29.203125 0 
z
" id="ArialMT-118"/>
     <path d="M 6.390625 0 
L 6.390625 71.578125 
L 15.1875 71.578125 
L 15.1875 0 
z
" id="ArialMT-108"/>
     <path d="M 6.59375 0 
L 6.59375 71.578125 
L 15.375 71.578125 
L 15.375 45.90625 
Q 21.53125 53.03125 30.90625 53.03125 
Q 36.671875 53.03125 40.921875 50.75 
Q 45.171875 48.484375 47 44.484375 
Q 48.828125 40.484375 48.828125 32.859375 
L 48.828125 0 
L 40.046875 0 
L 40.046875 32.859375 
Q 40.046875 39.453125 37.1875 42.453125 
Q 34.328125 45.453125 29.109375 45.453125 
Q 25.203125 45.453125 21.75 43.421875 
Q 18.3125 41.40625 16.84375 37.9375 
Q 15.375 34.46875 15.375 28.375 
L 15.375 0 
z
" id="ArialMT-104"/>
     <path d="M 3.171875 21.484375 
L 3.171875 30.328125 
L 30.171875 30.328125 
L 30.171875 21.484375 
z
" id="ArialMT-45"/>
     <path d="M 7.625 0 
L 7.625 71.578125 
L 17.328125 71.578125 
L 54.9375 15.375 
L 54.9375 71.578125 
L 64.015625 71.578125 
L 64.015625 0 
L 54.296875 0 
L 16.703125 56.25 
L 16.703125 0 
z
" id="ArialMT-78"/>
     <path d="M 16.15625 0 
L 0.296875 51.859375 
L 9.375 51.859375 
L 17.625 21.921875 
L 20.703125 10.796875 
Q 20.90625 11.625 23.390625 21.484375 
L 31.640625 51.859375 
L 40.671875 51.859375 
L 48.4375 21.78125 
L 51.03125 11.859375 
L 54 21.875 
L 62.890625 51.859375 
L 71.4375 51.859375 
L 55.21875 0 
L 46.09375 0 
L 37.84375 31.0625 
L 35.84375 39.890625 
L 25.34375 0 
z
" id="ArialMT-119"/>
     <path d="M 7.421875 0 
L 7.421875 71.578125 
L 21.6875 71.578125 
L 38.625 20.90625 
Q 40.96875 13.8125 42.046875 10.296875 
Q 43.265625 14.203125 45.84375 21.78125 
L 62.984375 71.578125 
L 75.734375 71.578125 
L 75.734375 0 
L 66.609375 0 
L 66.609375 59.90625 
L 45.796875 0 
L 37.25 0 
L 16.546875 60.9375 
L 16.546875 0 
z
" id="ArialMT-77"/>
     <path d="M -1.515625 -19.875 
L -1.515625 -13.53125 
L 56.734375 -13.53125 
L 56.734375 -19.875 
z
" id="ArialMT-95"/>
    </defs>
    <g style="fill:#262626;" transform="translate(89.110313 23.748375)scale(0.12 -0.12)">
     <use xlink:href="#ArialMT-68"/>
     <use x="72.216797" xlink:href="#ArialMT-105"/>
     <use x="94.433594" xlink:href="#ArialMT-115"/>
     <use x="144.433594" xlink:href="#ArialMT-116"/>
     <use x="172.216797" xlink:href="#ArialMT-114"/>
     <use x="205.517578" xlink:href="#ArialMT-105"/>
     <use x="227.734375" xlink:href="#ArialMT-98"/>
     <use x="283.349609" xlink:href="#ArialMT-117"/>
     <use x="338.964844" xlink:href="#ArialMT-116"/>
     <use x="366.748047" xlink:href="#ArialMT-105"/>
     <use x="388.964844" xlink:href="#ArialMT-111"/>
     <use x="444.580078" xlink:href="#ArialMT-110"/>
     <use x="500.195312" xlink:href="#ArialMT-32"/>
     <use x="527.978516" xlink:href="#ArialMT-111"/>
     <use x="583.59375" xlink:href="#ArialMT-102"/>
     <use x="611.376953" xlink:href="#ArialMT-32"/>
     <use x="639.160156" xlink:href="#ArialMT-112"/>
     <use x="694.775391" xlink:href="#ArialMT-114"/>
     <use x="728.076172" xlink:href="#ArialMT-111"/>
     <use x="783.691406" xlink:href="#ArialMT-106"/>
     <use x="805.908203" xlink:href="#ArialMT-101"/>
     <use x="861.523438" xlink:href="#ArialMT-99"/>
     <use x="911.523438" xlink:href="#ArialMT-116"/>
     <use x="939.306641" xlink:href="#ArialMT-101"/>
     <use x="994.921875" xlink:href="#ArialMT-100"/>
     <use x="1050.537109" xlink:href="#ArialMT-32"/>
     <use x="1078.320312" xlink:href="#ArialMT-101"/>
     <use x="1133.935547" xlink:href="#ArialMT-121"/>
     <use x="1183.935547" xlink:href="#ArialMT-101"/>
     <use x="1239.550781" xlink:href="#ArialMT-32"/>
     <use x="1267.333984" xlink:href="#ArialMT-109"/>
     <use x="1350.634766" xlink:href="#ArialMT-111"/>
     <use x="1406.25" xlink:href="#ArialMT-118"/>
     <use x="1456.25" xlink:href="#ArialMT-101"/>
     <use x="1511.865234" xlink:href="#ArialMT-109"/>
     <use x="1595.166016" xlink:href="#ArialMT-101"/>
     <use x="1650.78125" xlink:href="#ArialMT-110"/>
     <use x="1706.396484" xlink:href="#ArialMT-116"/>
     <use x="1734.179688" xlink:href="#ArialMT-32"/>
     <use x="1761.962891" xlink:href="#ArialMT-118"/>
     <use x="1811.962891" xlink:href="#ArialMT-101"/>
     <use x="1867.578125" xlink:href="#ArialMT-108"/>
     <use x="1889.794922" xlink:href="#ArialMT-111"/>
     <use x="1945.410156" xlink:href="#ArialMT-99"/>
     <use x="1995.410156" xlink:href="#ArialMT-105"/>
     <use x="2017.626953" xlink:href="#ArialMT-116"/>
     <use x="2045.410156" xlink:href="#ArialMT-121"/>
     <use x="2095.410156" xlink:href="#ArialMT-32"/>
     <use x="2123.193359" xlink:href="#ArialMT-111"/>
     <use x="2178.808594" xlink:href="#ArialMT-110"/>
     <use x="2234.423828" xlink:href="#ArialMT-32"/>
     <use x="2262.207031" xlink:href="#ArialMT-116"/>
     <use x="2289.990234" xlink:href="#ArialMT-104"/>
     <use x="2345.605469" xlink:href="#ArialMT-101"/>
     <use x="2401.220703" xlink:href="#ArialMT-32"/>
     <use x="2429.003906" xlink:href="#ArialMT-115"/>
     <use x="2479.003906" xlink:href="#ArialMT-99"/>
     <use x="2529.003906" xlink:href="#ArialMT-114"/>
     <use x="2562.304688" xlink:href="#ArialMT-101"/>
     <use x="2617.919922" xlink:href="#ArialMT-101"/>
     <use x="2673.535156" xlink:href="#ArialMT-110"/>
     <use x="2729.150391" xlink:href="#ArialMT-32"/>
     <use x="2756.933594" xlink:href="#ArialMT-45"/>
     <use x="2790.234375" xlink:href="#ArialMT-32"/>
     <use x="2818.017578" xlink:href="#ArialMT-78"/>
     <use x="2890.234375" xlink:href="#ArialMT-101"/>
     <use x="2945.849609" xlink:href="#ArialMT-119"/>
     <use x="3018.066406" xlink:href="#ArialMT-77"/>
     <use x="3101.367188" xlink:href="#ArialMT-49"/>
     <use x="3156.982422" xlink:href="#ArialMT-95"/>
     <use x="3212.597656" xlink:href="#ArialMT-55"/>
     <use x="3268.212891" xlink:href="#ArialMT-95"/>
     <use x="3323.828125" xlink:href="#ArialMT-49"/>
     <use x="3379.443359" xlink:href="#ArialMT-50"/>
    </g>
   </g>
   <g id="legend_1">
    <g id="line2d_18">
     <path d="M 193.930469 60.2075 
L 213.930469 60.2075 
" style="fill:none;stroke:#ff0000;stroke-dasharray:7.4,3.2;stroke-dashoffset:0;stroke-width:2;"/>
    </g>
    <g id="line2d_19"/>
    <g id="text_18">
     <!-- Average angle in light: -168.11 degrees -->
     <defs>
      <path d="M -0.140625 0 
L 27.34375 71.578125 
L 37.546875 71.578125 
L 66.84375 0 
L 56.0625 0 
L 47.703125 21.6875 
L 17.78125 21.6875 
L 9.90625 0 
z
M 20.515625 29.390625 
L 44.78125 29.390625 
L 37.3125 49.21875 
Q 33.890625 58.25 32.234375 64.0625 
Q 30.859375 57.171875 28.375 50.390625 
z
" id="ArialMT-65"/>
      <path d="M 40.4375 6.390625 
Q 35.546875 2.25 31.03125 0.53125 
Q 26.515625 -1.171875 21.34375 -1.171875 
Q 12.796875 -1.171875 8.203125 3 
Q 3.609375 7.171875 3.609375 13.671875 
Q 3.609375 17.484375 5.34375 20.625 
Q 7.078125 23.78125 9.890625 25.6875 
Q 12.703125 27.59375 16.21875 28.5625 
Q 18.796875 29.25 24.03125 29.890625 
Q 34.671875 31.15625 39.703125 32.90625 
Q 39.75 34.71875 39.75 35.203125 
Q 39.75 40.578125 37.25 42.78125 
Q 33.890625 45.75 27.25 45.75 
Q 21.046875 45.75 18.09375 43.578125 
Q 15.140625 41.40625 13.71875 35.890625 
L 5.125 37.0625 
Q 6.296875 42.578125 8.984375 45.96875 
Q 11.671875 49.359375 16.75 51.1875 
Q 21.828125 53.03125 28.515625 53.03125 
Q 35.15625 53.03125 39.296875 51.46875 
Q 43.453125 49.90625 45.40625 47.53125 
Q 47.359375 45.171875 48.140625 41.546875 
Q 48.578125 39.3125 48.578125 33.453125 
L 48.578125 21.734375 
Q 48.578125 9.46875 49.140625 6.21875 
Q 49.703125 2.984375 51.375 0 
L 42.1875 0 
Q 40.828125 2.734375 40.4375 6.390625 
z
M 39.703125 26.03125 
Q 34.90625 24.078125 25.34375 22.703125 
Q 19.921875 21.921875 17.671875 20.9375 
Q 15.4375 19.96875 14.203125 18.09375 
Q 12.984375 16.21875 12.984375 13.921875 
Q 12.984375 10.40625 15.640625 8.0625 
Q 18.3125 5.71875 23.4375 5.71875 
Q 28.515625 5.71875 32.46875 7.9375 
Q 36.421875 10.15625 38.28125 14.015625 
Q 39.703125 17 39.703125 22.796875 
z
" id="ArialMT-97"/>
      <path d="M 4.984375 -4.296875 
L 13.53125 -5.5625 
Q 14.0625 -9.515625 16.5 -11.328125 
Q 19.78125 -13.765625 25.4375 -13.765625 
Q 31.546875 -13.765625 34.859375 -11.328125 
Q 38.1875 -8.890625 39.359375 -4.5 
Q 40.046875 -1.8125 39.984375 6.78125 
Q 34.234375 0 25.640625 0 
Q 14.9375 0 9.078125 7.71875 
Q 3.21875 15.4375 3.21875 26.21875 
Q 3.21875 33.640625 5.90625 39.90625 
Q 8.59375 46.1875 13.6875 49.609375 
Q 18.796875 53.03125 25.6875 53.03125 
Q 34.859375 53.03125 40.828125 45.609375 
L 40.828125 51.859375 
L 48.921875 51.859375 
L 48.921875 7.03125 
Q 48.921875 -5.078125 46.453125 -10.125 
Q 44 -15.1875 38.640625 -18.109375 
Q 33.296875 -21.046875 25.484375 -21.046875 
Q 16.21875 -21.046875 10.5 -16.875 
Q 4.78125 -12.703125 4.984375 -4.296875 
z
M 12.25 26.859375 
Q 12.25 16.65625 16.296875 11.96875 
Q 20.359375 7.28125 26.46875 7.28125 
Q 32.515625 7.28125 36.609375 11.9375 
Q 40.71875 16.609375 40.71875 26.5625 
Q 40.71875 36.078125 36.5 40.90625 
Q 32.28125 45.75 26.3125 45.75 
Q 20.453125 45.75 16.34375 40.984375 
Q 12.25 36.234375 12.25 26.859375 
z
" id="ArialMT-103"/>
      <path d="M 9.03125 41.84375 
L 9.03125 51.859375 
L 19.046875 51.859375 
L 19.046875 41.84375 
z
M 9.03125 0 
L 9.03125 10.015625 
L 19.046875 10.015625 
L 19.046875 0 
z
" id="ArialMT-58"/>
     </defs>
     <g style="fill:#262626;" transform="translate(221.930469 63.7075)scale(0.1 -0.1)">
      <use xlink:href="#ArialMT-65"/>
      <use x="66.683594" xlink:href="#ArialMT-118"/>
      <use x="116.683594" xlink:href="#ArialMT-101"/>
      <use x="172.298828" xlink:href="#ArialMT-114"/>
      <use x="205.599609" xlink:href="#ArialMT-97"/>
      <use x="261.214844" xlink:href="#ArialMT-103"/>
      <use x="316.830078" xlink:href="#ArialMT-101"/>
      <use x="372.445312" xlink:href="#ArialMT-32"/>
      <use x="400.228516" xlink:href="#ArialMT-97"/>
      <use x="455.84375" xlink:href="#ArialMT-110"/>
      <use x="511.458984" xlink:href="#ArialMT-103"/>
      <use x="567.074219" xlink:href="#ArialMT-108"/>
      <use x="589.291016" xlink:href="#ArialMT-101"/>
      <use x="644.90625" xlink:href="#ArialMT-32"/>
      <use x="672.689453" xlink:href="#ArialMT-105"/>
      <use x="694.90625" xlink:href="#ArialMT-110"/>
      <use x="750.521484" xlink:href="#ArialMT-32"/>
      <use x="778.304688" xlink:href="#ArialMT-108"/>
      <use x="800.521484" xlink:href="#ArialMT-105"/>
      <use x="822.738281" xlink:href="#ArialMT-103"/>
      <use x="878.353516" xlink:href="#ArialMT-104"/>
      <use x="933.96875" xlink:href="#ArialMT-116"/>
      <use x="961.751953" xlink:href="#ArialMT-58"/>
      <use x="989.535156" xlink:href="#ArialMT-32"/>
      <use x="1017.318359" xlink:href="#ArialMT-45"/>
      <use x="1050.619141" xlink:href="#ArialMT-49"/>
      <use x="1106.234375" xlink:href="#ArialMT-54"/>
      <use x="1161.849609" xlink:href="#ArialMT-56"/>
      <use x="1217.464844" xlink:href="#ArialMT-46"/>
      <use x="1245.248047" xlink:href="#ArialMT-49"/>
      <use x="1300.753906" xlink:href="#ArialMT-49"/>
      <use x="1356.369141" xlink:href="#ArialMT-32"/>
      <use x="1384.152344" xlink:href="#ArialMT-100"/>
      <use x="1439.767578" xlink:href="#ArialMT-101"/>
      <use x="1495.382812" xlink:href="#ArialMT-103"/>
      <use x="1550.998047" xlink:href="#ArialMT-114"/>
      <use x="1584.298828" xlink:href="#ArialMT-101"/>
      <use x="1639.914062" xlink:href="#ArialMT-101"/>
      <use x="1695.529297" xlink:href="#ArialMT-115"/>
     </g>
    </g>
    <g id="PathCollection_4">
     <g>
      <use style="fill:#4c72b0;stroke:#4c72b0;stroke-width:0.3;" x="203.930469" xlink:href="#m49130c6cf2" y="75.345"/>
     </g>
    </g>
    <g id="text_19">
     <!-- $-0.5 &lt; t &lt; 0.$ -->
     <defs>
      <path d="M 10.59375 35.5 
L 73.1875 35.5 
L 73.1875 27.203125 
L 10.59375 27.203125 
z
" id="DejaVuSans-8722"/>
      <path d="M 31.78125 66.40625 
Q 24.171875 66.40625 20.328125 58.90625 
Q 16.5 51.421875 16.5 36.375 
Q 16.5 21.390625 20.328125 13.890625 
Q 24.171875 6.390625 31.78125 6.390625 
Q 39.453125 6.390625 43.28125 13.890625 
Q 47.125 21.390625 47.125 36.375 
Q 47.125 51.421875 43.28125 58.90625 
Q 39.453125 66.40625 31.78125 66.40625 
z
M 31.78125 74.21875 
Q 44.046875 74.21875 50.515625 64.515625 
Q 56.984375 54.828125 56.984375 36.375 
Q 56.984375 17.96875 50.515625 8.265625 
Q 44.046875 -1.421875 31.78125 -1.421875 
Q 19.53125 -1.421875 13.0625 8.265625 
Q 6.59375 17.96875 6.59375 36.375 
Q 6.59375 54.828125 13.0625 64.515625 
Q 19.53125 74.21875 31.78125 74.21875 
z
" id="DejaVuSans-48"/>
      <path d="M 10.6875 12.40625 
L 21 12.40625 
L 21 0 
L 10.6875 0 
z
" id="DejaVuSans-46"/>
      <path d="M 10.796875 72.90625 
L 49.515625 72.90625 
L 49.515625 64.59375 
L 19.828125 64.59375 
L 19.828125 46.734375 
Q 21.96875 47.46875 24.109375 47.828125 
Q 26.265625 48.1875 28.421875 48.1875 
Q 40.625 48.1875 47.75 41.5 
Q 54.890625 34.8125 54.890625 23.390625 
Q 54.890625 11.625 47.5625 5.09375 
Q 40.234375 -1.421875 26.90625 -1.421875 
Q 22.3125 -1.421875 17.546875 -0.640625 
Q 12.796875 0.140625 7.71875 1.703125 
L 7.71875 11.625 
Q 12.109375 9.234375 16.796875 8.0625 
Q 21.484375 6.890625 26.703125 6.890625 
Q 35.15625 6.890625 40.078125 11.328125 
Q 45.015625 15.765625 45.015625 23.390625 
Q 45.015625 31 40.078125 35.4375 
Q 35.15625 39.890625 26.703125 39.890625 
Q 22.75 39.890625 18.8125 39.015625 
Q 14.890625 38.140625 10.796875 36.28125 
z
" id="DejaVuSans-53"/>
      <path d="M 73.1875 49.21875 
L 22.796875 31.296875 
L 73.1875 13.484375 
L 73.1875 4.59375 
L 10.59375 27.296875 
L 10.59375 35.40625 
L 73.1875 58.109375 
z
" id="DejaVuSans-60"/>
      <path d="M 42.28125 54.6875 
L 40.921875 47.703125 
L 23 47.703125 
L 17.1875 18.015625 
Q 16.890625 16.359375 16.75 15.234375 
Q 16.609375 14.109375 16.609375 13.484375 
Q 16.609375 10.359375 18.484375 8.9375 
Q 20.359375 7.515625 24.515625 7.515625 
L 33.59375 7.515625 
L 32.078125 0 
L 23.484375 0 
Q 15.484375 0 11.546875 3.125 
Q 7.625 6.25 7.625 12.59375 
Q 7.625 13.71875 7.765625 15.0625 
Q 7.90625 16.40625 8.203125 18.015625 
L 14.015625 47.703125 
L 6.390625 47.703125 
L 7.8125 54.6875 
L 15.28125 54.6875 
L 18.3125 70.21875 
L 27.296875 70.21875 
L 24.3125 54.6875 
z
" id="DejaVuSans-Oblique-116"/>
     </defs>
     <g style="fill:#262626;" transform="translate(221.930469 77.97)scale(0.1 -0.1)">
      <use transform="translate(0 0.78125)" xlink:href="#DejaVuSans-8722"/>
      <use transform="translate(83.789062 0.78125)" xlink:href="#DejaVuSans-48"/>
      <use transform="translate(147.412109 0.78125)" xlink:href="#DejaVuSans-46"/>
      <use transform="translate(179.199219 0.78125)" xlink:href="#DejaVuSans-53"/>
      <use transform="translate(262.304688 0.78125)" xlink:href="#DejaVuSans-60"/>
      <use transform="translate(365.576172 0.78125)" xlink:href="#DejaVuSans-Oblique-116"/>
      <use transform="translate(424.267578 0.78125)" xlink:href="#DejaVuSans-60"/>
      <use transform="translate(527.539062 0.78125)" xlink:href="#DejaVuSans-48"/>
     </g>
    </g>
    <g id="PathCollection_5">
     <g>
      <use style="fill:#55a868;stroke:#55a868;stroke-width:0.3;" x="203.930469" xlink:href="#m9f1ee4a69f" y="89.490312"/>
     </g>
    </g>
    <g id="text_20">
     <!-- $0. &lt; t &lt; 0.5$ -->
     <g style="fill:#262626;" transform="translate(221.930469 92.115312)scale(0.1 -0.1)">
      <use transform="translate(0 0.78125)" xlink:href="#DejaVuSans-48"/>
      <use transform="translate(63.623047 0.78125)" xlink:href="#DejaVuSans-46"/>
      <use transform="translate(134.375 0.78125)" xlink:href="#DejaVuSans-60"/>
      <use transform="translate(237.646484 0.78125)" xlink:href="#DejaVuSans-Oblique-116"/>
      <use transform="translate(296.337891 0.78125)" xlink:href="#DejaVuSans-60"/>
      <use transform="translate(399.609375 0.78125)" xlink:href="#DejaVuSans-48"/>
      <use transform="translate(463.232422 0.78125)" xlink:href="#DejaVuSans-46"/>
      <use transform="translate(495.019531 0.78125)" xlink:href="#DejaVuSans-53"/>
     </g>
    </g>
    <g id="PathCollection_6">
     <g>
      <use style="fill:#c44e52;stroke:#c44e52;stroke-width:0.3;" x="203.930469" xlink:href="#ma535fbbf67" y="103.635625"/>
     </g>
    </g>
    <g id="text_21">
     <!-- $0.5 &lt; t &lt; 1.$ -->
     <defs>
      <path d="M 12.40625 8.296875 
L 28.515625 8.296875 
L 28.515625 63.921875 
L 10.984375 60.40625 
L 10.984375 69.390625 
L 28.421875 72.90625 
L 38.28125 72.90625 
L 38.28125 8.296875 
L 54.390625 8.296875 
L 54.390625 0 
L 12.40625 0 
z
" id="DejaVuSans-49"/>
     </defs>
     <g style="fill:#262626;" transform="translate(221.930469 106.260625)scale(0.1 -0.1)">
      <use transform="translate(0 0.78125)" xlink:href="#DejaVuSans-48"/>
      <use transform="translate(63.623047 0.78125)" xlink:href="#DejaVuSans-46"/>
      <use transform="translate(95.410156 0.78125)" xlink:href="#DejaVuSans-53"/>
      <use transform="translate(178.515625 0.78125)" xlink:href="#DejaVuSans-60"/>
      <use transform="translate(281.787109 0.78125)" xlink:href="#DejaVuSans-Oblique-116"/>
      <use transform="translate(340.478516 0.78125)" xlink:href="#DejaVuSans-60"/>
      <use transform="translate(443.75 0.78125)" xlink:href="#DejaVuSans-49"/>
     </g>
    </g>
   </g>
  </g>
 </g>
 <defs>
  <clipPath id="pf3dde14986">
   <path d="M 447.66 199.98 
C 447.66 179.959136 443.716326 160.13295 436.054674 141.636084 
C 428.393021 123.139218 417.162388 106.331389 403.0055 92.1745 
C 388.848611 78.017612 372.040782 66.786979 353.543916 59.125326 
C 335.04705 51.463674 315.220864 47.52 295.2 47.52 
C 275.179136 47.52 255.35295 51.463674 236.856084 59.125326 
C 218.359218 66.786979 201.551389 78.017612 187.3945 92.1745 
C 173.237612 106.331389 162.006979 123.139218 154.345326 141.636084 
C 146.683674 160.13295 142.74 179.959136 142.74 199.98 
C 142.74 220.000864 146.683674 239.82705 154.345326 258.323916 
C 162.006979 276.820782 173.237612 293.628611 187.3945 307.7855 
C 201.551389 321.942388 218.359218 333.173021 236.856084 340.834674 
C 255.35295 348.496326 275.179136 352.44 295.2 352.44 
C 315.220864 352.44 335.04705 348.496326 353.543916 340.834674 
C 372.040782 333.173021 388.848611 321.942388 403.0055 307.7855 
C 417.162388 293.628611 428.393021 276.820782 436.054674 258.323916 
C 443.716326 239.82705 447.66 220.000864 447.66 199.98 
M 295.2 199.98 
C 295.2 199.98 295.2 199.98 295.2 199.98 
C 295.2 199.98 295.2 199.98 295.2 199.98 
C 295.2 199.98 295.2 199.98 295.2 199.98 
C 295.2 199.98 295.2 199.98 295.2 199.98 
C 295.2 199.98 295.2 199.98 295.2 199.98 
C 295.2 199.98 295.2 199.98 295.2 199.98 
C 295.2 199.98 295.2 199.98 295.2 199.98 
C 295.2 199.98 295.2 199.98 295.2 199.98 
C 295.2 199.98 295.2 199.98 295.2 199.98 
C 295.2 199.98 295.2 199.98 295.2 199.98 
C 295.2 199.98 295.2 199.98 295.2 199.98 
C 295.2 199.98 295.2 199.98 295.2 199.98 
C 295.2 199.98 295.2 199.98 295.2 199.98 
C 295.2 199.98 295.2 199.98 295.2 199.98 
C 295.2 199.98 295.2 199.98 295.2 199.98 
C 295.2 199.98 295.2 199.98 295.2 199.98 
M 447.66 199.98 
z
"/>
  </clipPath>
 </defs>
</svg>
