<?xml version="1.0" encoding="utf-8" standalone="no"?>
<!DOCTYPE svg PUBLIC "-//W3C//DTD SVG 1.1//EN"
  "http://www.w3.org/Graphics/SVG/1.1/DTD/svg11.dtd">
<!-- Created with matplotlib (https://matplotlib.org/) -->
<svg height="396pt" version="1.1" viewBox="0 0 576 396" width="576pt" xmlns="http://www.w3.org/2000/svg" xmlns:xlink="http://www.w3.org/1999/xlink">
 <defs>
  <style type="text/css">
*{stroke-linecap:butt;stroke-linejoin:round;}
  </style>
 </defs>
 <g id="figure_1">
  <g id="patch_1">
   <path d="M 0 396 
L 576 396 
L 576 0 
L 0 0 
z
" style="fill:#ffffff;"/>
  </g>
  <g id="axes_1">
   <g id="patch_2">
    <path d="M 447.66 199.98 
C 447.66 179.959136 443.716326 160.13295 436.054674 141.636084 
C 428.393021 123.139218 417.162388 106.331389 403.0055 92.1745 
C 388.848611 78.017612 372.040782 66.786979 353.543916 59.125326 
C 335.04705 51.463674 315.220864 47.52 295.2 47.52 
C 275.179136 47.52 255.35295 51.463674 236.856084 59.125326 
C 218.359218 66.786979 201.551389 78.017612 187.3945 92.1745 
C 173.237612 106.331389 162.006979 123.139218 154.345326 141.636084 
C 146.683674 160.13295 142.74 179.959136 142.74 199.98 
C 142.74 220.000864 146.683674 239.82705 154.345326 258.323916 
C 162.006979 276.820782 173.237612 293.628611 187.3945 307.7855 
C 201.551389 321.942388 218.359218 333.173021 236.856084 340.834674 
C 255.35295 348.496326 275.179136 352.44 295.2 352.44 
C 315.220864 352.44 335.04705 348.496326 353.543916 340.834674 
C 372.040782 333.173021 388.848611 321.942388 403.0055 307.7855 
C 417.162388 293.628611 428.393021 276.820782 436.054674 258.323916 
C 443.716326 239.82705 447.66 220.000864 447.66 199.98 
M 295.2 199.98 
C 295.2 199.98 295.2 199.98 295.2 199.98 
C 295.2 199.98 295.2 199.98 295.2 199.98 
C 295.2 199.98 295.2 199.98 295.2 199.98 
C 295.2 199.98 295.2 199.98 295.2 199.98 
C 295.2 199.98 295.2 199.98 295.2 199.98 
C 295.2 199.98 295.2 199.98 295.2 199.98 
C 295.2 199.98 295.2 199.98 295.2 199.98 
C 295.2 199.98 295.2 199.98 295.2 199.98 
C 295.2 199.98 295.2 199.98 295.2 199.98 
C 295.2 199.98 295.2 199.98 295.2 199.98 
C 295.2 199.98 295.2 199.98 295.2 199.98 
C 295.2 199.98 295.2 199.98 295.2 199.98 
C 295.2 199.98 295.2 199.98 295.2 199.98 
C 295.2 199.98 295.2 199.98 295.2 199.98 
C 295.2 199.98 295.2 199.98 295.2 199.98 
C 295.2 199.98 295.2 199.98 295.2 199.98 
M 447.66 199.98 
z
" style="fill:#eaeaf2;"/>
   </g>
   <g id="matplotlib.axis_1">
    <g id="xtick_1">
     <g id="line2d_1">
      <path clip-path="url(#p83f02daf9d)" d="M 295.2 199.98 
L 447.66 199.98 
" style="fill:none;stroke:#ffffff;stroke-linecap:round;"/>
     </g>
     <g id="text_1">
      <!-- 0° -->
      <defs>
       <path d="M 4.15625 35.296875 
Q 4.15625 48 6.765625 55.734375 
Q 9.375 63.484375 14.515625 67.671875 
Q 19.671875 71.875 27.484375 71.875 
Q 33.25 71.875 37.59375 69.546875 
Q 41.9375 67.234375 44.765625 62.859375 
Q 47.609375 58.5 49.21875 52.21875 
Q 50.828125 45.953125 50.828125 35.296875 
Q 50.828125 22.703125 48.234375 14.96875 
Q 45.65625 7.234375 40.5 3 
Q 35.359375 -1.21875 27.484375 -1.21875 
Q 17.140625 -1.21875 11.234375 6.203125 
Q 4.15625 15.140625 4.15625 35.296875 
z
M 13.1875 35.296875 
Q 13.1875 17.671875 17.3125 11.828125 
Q 21.4375 6 27.484375 6 
Q 33.546875 6 37.671875 11.859375 
Q 41.796875 17.71875 41.796875 35.296875 
Q 41.796875 52.984375 37.671875 58.78125 
Q 33.546875 64.59375 27.390625 64.59375 
Q 21.34375 64.59375 17.71875 59.46875 
Q 13.1875 52.9375 13.1875 35.296875 
z
" id="ArialMT-48"/>
       <path d="M 6.25 59.28125 
Q 6.25 64.890625 10.21875 68.84375 
Q 14.203125 72.796875 19.78125 72.796875 
Q 25.4375 72.796875 29.390625 68.84375 
Q 33.34375 64.890625 33.34375 59.28125 
Q 33.34375 53.65625 29.359375 49.671875 
Q 25.390625 45.703125 19.78125 45.703125 
Q 14.203125 45.703125 10.21875 49.65625 
Q 6.25 53.609375 6.25 59.28125 
z
M 11.578125 59.28125 
Q 11.578125 55.859375 13.984375 53.4375 
Q 16.40625 51.03125 19.828125 51.03125 
Q 23.1875 51.03125 25.609375 53.4375 
Q 28.03125 55.859375 28.03125 59.28125 
Q 28.03125 62.703125 25.609375 65.109375 
Q 23.1875 67.53125 19.828125 67.53125 
Q 16.40625 67.53125 13.984375 65.109375 
Q 11.578125 62.703125 11.578125 59.28125 
z
" id="ArialMT-176"/>
      </defs>
      <g style="fill:#262626;" transform="translate(456.880313 202.565156)scale(0.1 -0.1)">
       <use xlink:href="#ArialMT-48"/>
       <use x="55.615234" xlink:href="#ArialMT-176"/>
      </g>
     </g>
    </g>
    <g id="xtick_2">
     <g id="line2d_2">
      <path clip-path="url(#p83f02daf9d)" d="M 295.2 199.98 
L 403.0055 92.1745 
" style="fill:none;stroke:#ffffff;stroke-linecap:round;"/>
     </g>
     <g id="text_2">
      <!-- 45° -->
      <defs>
       <path d="M 32.328125 0 
L 32.328125 17.140625 
L 1.265625 17.140625 
L 1.265625 25.203125 
L 33.9375 71.578125 
L 41.109375 71.578125 
L 41.109375 25.203125 
L 50.78125 25.203125 
L 50.78125 17.140625 
L 41.109375 17.140625 
L 41.109375 0 
z
M 32.328125 25.203125 
L 32.328125 57.46875 
L 9.90625 25.203125 
z
" id="ArialMT-52"/>
       <path d="M 4.15625 18.75 
L 13.375 19.53125 
Q 14.40625 12.796875 18.140625 9.390625 
Q 21.875 6 27.15625 6 
Q 33.5 6 37.890625 10.78125 
Q 42.28125 15.578125 42.28125 23.484375 
Q 42.28125 31 38.0625 35.34375 
Q 33.84375 39.703125 27 39.703125 
Q 22.75 39.703125 19.328125 37.765625 
Q 15.921875 35.84375 13.96875 32.765625 
L 5.71875 33.84375 
L 12.640625 70.609375 
L 48.25 70.609375 
L 48.25 62.203125 
L 19.671875 62.203125 
L 15.828125 42.96875 
Q 22.265625 47.46875 29.34375 47.46875 
Q 38.71875 47.46875 45.15625 40.96875 
Q 51.609375 34.46875 51.609375 24.265625 
Q 51.609375 14.546875 45.953125 7.46875 
Q 39.0625 -1.21875 27.15625 -1.21875 
Q 17.390625 -1.21875 11.203125 4.25 
Q 5.03125 9.71875 4.15625 18.75 
z
" id="ArialMT-53"/>
      </defs>
      <g style="fill:#262626;" transform="translate(405.344839 84.860161)scale(0.1 -0.1)">
       <use xlink:href="#ArialMT-52"/>
       <use x="55.615234" xlink:href="#ArialMT-53"/>
       <use x="111.230469" xlink:href="#ArialMT-176"/>
      </g>
     </g>
    </g>
    <g id="xtick_3">
     <g id="line2d_3">
      <path clip-path="url(#p83f02daf9d)" d="M 295.2 199.98 
L 295.2 47.52 
" style="fill:none;stroke:#ffffff;stroke-linecap:round;"/>
     </g>
     <g id="text_3">
      <!-- 90° -->
      <defs>
       <path d="M 5.46875 16.546875 
L 13.921875 17.328125 
Q 14.984375 11.375 18.015625 8.6875 
Q 21.046875 6 25.78125 6 
Q 29.828125 6 32.875 7.859375 
Q 35.9375 9.71875 37.890625 12.8125 
Q 39.84375 15.921875 41.15625 21.1875 
Q 42.484375 26.46875 42.484375 31.9375 
Q 42.484375 32.515625 42.4375 33.6875 
Q 39.796875 29.5 35.234375 26.875 
Q 30.671875 24.265625 25.34375 24.265625 
Q 16.453125 24.265625 10.296875 30.703125 
Q 4.15625 37.15625 4.15625 47.703125 
Q 4.15625 58.59375 10.578125 65.234375 
Q 17 71.875 26.65625 71.875 
Q 33.640625 71.875 39.421875 68.109375 
Q 45.21875 64.359375 48.21875 57.390625 
Q 51.21875 50.4375 51.21875 37.25 
Q 51.21875 23.53125 48.234375 15.40625 
Q 45.265625 7.28125 39.375 3.03125 
Q 33.5 -1.21875 25.59375 -1.21875 
Q 17.1875 -1.21875 11.859375 3.4375 
Q 6.546875 8.109375 5.46875 16.546875 
z
M 41.453125 48.140625 
Q 41.453125 55.71875 37.421875 60.15625 
Q 33.40625 64.59375 27.734375 64.59375 
Q 21.875 64.59375 17.53125 59.8125 
Q 13.1875 55.03125 13.1875 47.40625 
Q 13.1875 40.578125 17.3125 36.296875 
Q 21.4375 32.03125 27.484375 32.03125 
Q 33.59375 32.03125 37.515625 36.296875 
Q 41.453125 40.578125 41.453125 48.140625 
z
" id="ArialMT-57"/>
      </defs>
      <g style="fill:#262626;" transform="translate(287.639844 36.105156)scale(0.1 -0.1)">
       <use xlink:href="#ArialMT-57"/>
       <use x="55.615234" xlink:href="#ArialMT-48"/>
       <use x="111.230469" xlink:href="#ArialMT-176"/>
      </g>
     </g>
    </g>
    <g id="xtick_4">
     <g id="line2d_4">
      <path clip-path="url(#p83f02daf9d)" d="M 295.2 199.98 
L 187.3945 92.1745 
" style="fill:none;stroke:#ffffff;stroke-linecap:round;"/>
     </g>
     <g id="text_4">
      <!-- 135° -->
      <defs>
       <path d="M 37.25 0 
L 28.46875 0 
L 28.46875 56 
Q 25.296875 52.984375 20.140625 49.953125 
Q 14.984375 46.921875 10.890625 45.40625 
L 10.890625 53.90625 
Q 18.265625 57.375 23.78125 62.296875 
Q 29.296875 67.234375 31.59375 71.875 
L 37.25 71.875 
z
" id="ArialMT-49"/>
       <path d="M 4.203125 18.890625 
L 12.984375 20.0625 
Q 14.5 12.59375 18.140625 9.296875 
Q 21.78125 6 27 6 
Q 33.203125 6 37.46875 10.296875 
Q 41.75 14.59375 41.75 20.953125 
Q 41.75 27 37.796875 30.921875 
Q 33.84375 34.859375 27.734375 34.859375 
Q 25.25 34.859375 21.53125 33.890625 
L 22.515625 41.609375 
Q 23.390625 41.5 23.921875 41.5 
Q 29.546875 41.5 34.03125 44.421875 
Q 38.53125 47.359375 38.53125 53.46875 
Q 38.53125 58.296875 35.25 61.46875 
Q 31.984375 64.65625 26.8125 64.65625 
Q 21.6875 64.65625 18.265625 61.421875 
Q 14.84375 58.203125 13.875 51.765625 
L 5.078125 53.328125 
Q 6.6875 62.15625 12.390625 67.015625 
Q 18.109375 71.875 26.609375 71.875 
Q 32.46875 71.875 37.390625 69.359375 
Q 42.328125 66.84375 44.9375 62.5 
Q 47.5625 58.15625 47.5625 53.265625 
Q 47.5625 48.640625 45.0625 44.828125 
Q 42.578125 41.015625 37.703125 38.765625 
Q 44.046875 37.3125 47.5625 32.6875 
Q 51.078125 28.078125 51.078125 21.140625 
Q 51.078125 11.765625 44.234375 5.25 
Q 37.40625 -1.265625 26.953125 -1.265625 
Q 17.53125 -1.265625 11.296875 4.34375 
Q 5.078125 9.96875 4.203125 18.890625 
z
" id="ArialMT-51"/>
      </defs>
      <g style="fill:#262626;" transform="translate(167.15438 84.860161)scale(0.1 -0.1)">
       <use xlink:href="#ArialMT-49"/>
       <use x="55.615234" xlink:href="#ArialMT-51"/>
       <use x="111.230469" xlink:href="#ArialMT-53"/>
       <use x="166.845703" xlink:href="#ArialMT-176"/>
      </g>
     </g>
    </g>
    <g id="xtick_5">
     <g id="line2d_5">
      <path clip-path="url(#p83f02daf9d)" d="M 295.2 199.98 
L 142.74 199.98 
" style="fill:none;stroke:#ffffff;stroke-linecap:round;"/>
     </g>
     <g id="text_5">
      <!-- 180° -->
      <defs>
       <path d="M 17.671875 38.8125 
Q 12.203125 40.828125 9.5625 44.53125 
Q 6.9375 48.25 6.9375 53.421875 
Q 6.9375 61.234375 12.546875 66.546875 
Q 18.171875 71.875 27.484375 71.875 
Q 36.859375 71.875 42.578125 66.421875 
Q 48.296875 60.984375 48.296875 53.171875 
Q 48.296875 48.1875 45.671875 44.5 
Q 43.0625 40.828125 37.75 38.8125 
Q 44.34375 36.671875 47.78125 31.875 
Q 51.21875 27.09375 51.21875 20.453125 
Q 51.21875 11.28125 44.71875 5.03125 
Q 38.234375 -1.21875 27.640625 -1.21875 
Q 17.046875 -1.21875 10.546875 5.046875 
Q 4.046875 11.328125 4.046875 20.703125 
Q 4.046875 27.6875 7.59375 32.390625 
Q 11.140625 37.109375 17.671875 38.8125 
z
M 15.921875 53.71875 
Q 15.921875 48.640625 19.1875 45.40625 
Q 22.46875 42.1875 27.6875 42.1875 
Q 32.765625 42.1875 36.015625 45.375 
Q 39.265625 48.578125 39.265625 53.21875 
Q 39.265625 58.0625 35.90625 61.359375 
Q 32.5625 64.65625 27.59375 64.65625 
Q 22.5625 64.65625 19.234375 61.421875 
Q 15.921875 58.203125 15.921875 53.71875 
z
M 13.09375 20.65625 
Q 13.09375 16.890625 14.875 13.375 
Q 16.65625 9.859375 20.171875 7.921875 
Q 23.6875 6 27.734375 6 
Q 34.03125 6 38.125 10.046875 
Q 42.234375 14.109375 42.234375 20.359375 
Q 42.234375 26.703125 38.015625 30.859375 
Q 33.796875 35.015625 27.4375 35.015625 
Q 21.234375 35.015625 17.15625 30.90625 
Q 13.09375 26.8125 13.09375 20.65625 
z
" id="ArialMT-56"/>
      </defs>
      <g style="fill:#262626;" transform="translate(118.399375 202.565156)scale(0.1 -0.1)">
       <use xlink:href="#ArialMT-49"/>
       <use x="55.615234" xlink:href="#ArialMT-56"/>
       <use x="111.230469" xlink:href="#ArialMT-48"/>
       <use x="166.845703" xlink:href="#ArialMT-176"/>
      </g>
     </g>
    </g>
    <g id="xtick_6">
     <g id="line2d_6">
      <path clip-path="url(#p83f02daf9d)" d="M 295.2 199.98 
L 187.3945 307.7855 
" style="fill:none;stroke:#ffffff;stroke-linecap:round;"/>
     </g>
     <g id="text_6">
      <!-- 225° -->
      <defs>
       <path d="M 50.34375 8.453125 
L 50.34375 0 
L 3.03125 0 
Q 2.9375 3.171875 4.046875 6.109375 
Q 5.859375 10.9375 9.828125 15.625 
Q 13.8125 20.3125 21.34375 26.46875 
Q 33.015625 36.03125 37.109375 41.625 
Q 41.21875 47.21875 41.21875 52.203125 
Q 41.21875 57.421875 37.46875 61 
Q 33.734375 64.59375 27.734375 64.59375 
Q 21.390625 64.59375 17.578125 60.78125 
Q 13.765625 56.984375 13.71875 50.25 
L 4.6875 51.171875 
Q 5.609375 61.28125 11.65625 66.578125 
Q 17.71875 71.875 27.9375 71.875 
Q 38.234375 71.875 44.234375 66.15625 
Q 50.25 60.453125 50.25 52 
Q 50.25 47.703125 48.484375 43.546875 
Q 46.734375 39.40625 42.65625 34.8125 
Q 38.578125 30.21875 29.109375 22.21875 
Q 21.1875 15.578125 18.9375 13.203125 
Q 16.703125 10.84375 15.234375 8.453125 
z
" id="ArialMT-50"/>
      </defs>
      <g style="fill:#262626;" transform="translate(167.15438 320.270151)scale(0.1 -0.1)">
       <use xlink:href="#ArialMT-50"/>
       <use x="55.615234" xlink:href="#ArialMT-50"/>
       <use x="111.230469" xlink:href="#ArialMT-53"/>
       <use x="166.845703" xlink:href="#ArialMT-176"/>
      </g>
     </g>
    </g>
    <g id="xtick_7">
     <g id="line2d_7">
      <path clip-path="url(#p83f02daf9d)" d="M 295.2 199.98 
L 295.2 352.44 
" style="fill:none;stroke:#ffffff;stroke-linecap:round;"/>
     </g>
     <g id="text_7">
      <!-- 270° -->
      <defs>
       <path d="M 4.734375 62.203125 
L 4.734375 70.65625 
L 51.078125 70.65625 
L 51.078125 63.8125 
Q 44.234375 56.546875 37.515625 44.484375 
Q 30.8125 32.421875 27.15625 19.671875 
Q 24.515625 10.6875 23.78125 0 
L 14.75 0 
Q 14.890625 8.453125 18.0625 20.40625 
Q 21.234375 32.375 27.171875 43.484375 
Q 33.109375 54.59375 39.796875 62.203125 
z
" id="ArialMT-55"/>
      </defs>
      <g style="fill:#262626;" transform="translate(284.859375 369.025156)scale(0.1 -0.1)">
       <use xlink:href="#ArialMT-50"/>
       <use x="55.615234" xlink:href="#ArialMT-55"/>
       <use x="111.230469" xlink:href="#ArialMT-48"/>
       <use x="166.845703" xlink:href="#ArialMT-176"/>
      </g>
     </g>
    </g>
    <g id="xtick_8">
     <g id="line2d_8">
      <path clip-path="url(#p83f02daf9d)" d="M 295.2 199.98 
L 403.0055 307.7855 
" style="fill:none;stroke:#ffffff;stroke-linecap:round;"/>
     </g>
     <g id="text_8">
      <!-- 315° -->
      <g style="fill:#262626;" transform="translate(402.56437 320.270151)scale(0.1 -0.1)">
       <use xlink:href="#ArialMT-51"/>
       <use x="55.615234" xlink:href="#ArialMT-49"/>
       <use x="111.230469" xlink:href="#ArialMT-53"/>
       <use x="166.845703" xlink:href="#ArialMT-176"/>
      </g>
     </g>
    </g>
   </g>
   <g id="matplotlib.axis_2">
    <g id="ytick_1">
     <g id="line2d_9">
      <path clip-path="url(#p83f02daf9d)" d="M 316.147217 199.98 
L 316.032465 197.79042 
L 315.68947 195.624829 
L 315.121987 193.506954 
L 314.336235 191.459999 
L 313.340822 189.506392 
L 312.146654 187.667535 
L 310.766816 185.963576 
L 309.216424 184.413184 
L 307.512465 183.033346 
L 305.673608 181.839178 
L 303.720001 180.843765 
L 301.673046 180.058013 
L 299.555171 179.49053 
L 297.38958 179.147535 
L 295.2 179.032783 
L 293.01042 179.147535 
L 290.844829 179.49053 
L 288.726954 180.058013 
L 286.679999 180.843765 
L 284.726392 181.839178 
L 282.887535 183.033346 
L 281.183576 184.413184 
L 279.633184 185.963576 
L 278.253346 187.667535 
L 277.059178 189.506392 
L 276.063765 191.459999 
L 275.278013 193.506954 
L 274.71053 195.624829 
L 274.367535 197.79042 
L 274.252783 199.98 
L 274.367535 202.16958 
L 274.71053 204.335171 
L 275.278013 206.453046 
L 276.063765 208.500001 
L 277.059178 210.453608 
L 278.253346 212.292465 
L 279.633184 213.996424 
L 281.183576 215.546816 
L 282.887535 216.926654 
L 284.726392 218.120822 
L 286.679999 219.116235 
L 288.726954 219.901987 
L 290.844829 220.46947 
L 293.01042 220.812465 
L 295.2 220.927217 
L 297.38958 220.812465 
L 299.555171 220.46947 
L 301.673046 219.901987 
L 303.720001 219.116235 
L 305.673608 218.120822 
L 307.512465 216.926654 
L 309.216424 215.546816 
L 310.766816 213.996424 
L 312.146654 212.292465 
L 313.340822 210.453608 
L 314.336235 208.500001 
L 315.121987 206.453046 
L 315.68947 204.335171 
L 316.032465 202.16958 
L 316.147217 199.98 
L 316.147217 199.98 
" style="fill:none;stroke:#ffffff;stroke-linecap:round;"/>
     </g>
     <g id="text_9">
      <!-- 0.1 -->
      <defs>
       <path d="M 9.078125 0 
L 9.078125 10.015625 
L 19.09375 10.015625 
L 19.09375 0 
z
" id="ArialMT-46"/>
      </defs>
      <g style="fill:#262626;" transform="translate(314.552705 189.976347)scale(0.1 -0.1)">
       <use xlink:href="#ArialMT-48"/>
       <use x="55.615234" xlink:href="#ArialMT-46"/>
       <use x="83.398438" xlink:href="#ArialMT-49"/>
      </g>
     </g>
    </g>
    <g id="ytick_2">
     <g id="line2d_10">
      <path clip-path="url(#p83f02daf9d)" d="M 337.094433 199.98 
L 336.99238 197.057592 
L 336.686719 194.149422 
L 336.178939 191.269658 
L 335.471514 188.432329 
L 334.56789 185.65126 
L 333.472469 182.939999 
L 332.190589 180.311755 
L 330.728494 177.779333 
L 329.093308 175.35507 
L 327.292998 173.050778 
L 325.336333 170.877681 
L 323.232847 168.846369 
L 320.992788 166.966736 
L 318.62707 165.247941 
L 316.147217 163.698357 
L 313.565311 162.325533 
L 310.893931 161.136158 
L 308.146092 160.136026 
L 305.335181 159.330011 
L 302.474892 158.722038 
L 299.579161 158.315069 
L 296.662095 158.111088 
L 293.737905 158.111088 
L 290.820839 158.315069 
L 287.925108 158.722038 
L 285.064819 159.330011 
L 282.253908 160.136026 
L 279.506069 161.136158 
L 276.834689 162.325533 
L 274.252783 163.698357 
L 271.77293 165.247941 
L 269.407212 166.966736 
L 267.167153 168.846369 
L 265.063667 170.877681 
L 263.107002 173.050778 
L 261.306692 175.35507 
L 259.671506 177.779333 
L 258.209411 180.311755 
L 256.927531 182.939999 
L 255.83211 185.65126 
L 254.928486 188.432329 
L 254.221061 191.269658 
L 253.713281 194.149422 
L 253.40762 197.057592 
L 253.305567 199.98 
L 253.40762 202.902408 
L 253.713281 205.810578 
L 254.221061 208.690342 
L 254.928486 211.527671 
L 255.83211 214.30874 
L 256.927531 217.020001 
L 258.209411 219.648245 
L 259.671506 222.180667 
L 261.306692 224.60493 
L 263.107002 226.909222 
L 265.063667 229.082319 
L 267.167153 231.113631 
L 269.407212 232.993264 
L 271.77293 234.712059 
L 274.252783 236.261643 
L 276.834689 237.634467 
L 279.506069 238.823842 
L 282.253908 239.823974 
L 285.064819 240.629989 
L 287.925108 241.237962 
L 290.820839 241.644931 
L 293.737905 241.848912 
L 296.662095 241.848912 
L 299.579161 241.644931 
L 302.474892 241.237962 
L 305.335181 240.629989 
L 308.146092 239.823974 
L 310.893931 238.823842 
L 313.565311 237.634467 
L 316.147217 236.261643 
L 318.62707 234.712059 
L 320.992788 232.993264 
L 323.232847 231.113631 
L 325.336333 229.082319 
L 327.292998 226.909222 
L 329.093308 224.60493 
L 330.728494 222.180667 
L 332.190589 219.648245 
L 333.472469 217.020001 
L 334.56789 214.30874 
L 335.471514 211.527671 
L 336.178939 208.690342 
L 336.686719 205.810578 
L 336.99238 202.902408 
L 337.094433 199.98 
L 337.094433 199.98 
" style="fill:none;stroke:#ffffff;stroke-linecap:round;"/>
     </g>
     <g id="text_10">
      <!-- 0.2 -->
      <g style="fill:#262626;" transform="translate(333.905409 181.960195)scale(0.1 -0.1)">
       <use xlink:href="#ArialMT-48"/>
       <use x="55.615234" xlink:href="#ArialMT-46"/>
       <use x="83.398438" xlink:href="#ArialMT-50"/>
      </g>
     </g>
    </g>
    <g id="ytick_3">
     <g id="line2d_11">
      <path clip-path="url(#p83f02daf9d)" d="M 358.04165 199.98 
L 357.88857 195.596388 
L 357.430079 191.234133 
L 356.668409 186.914486 
L 355.607271 182.658494 
L 354.251834 178.48689 
L 352.608704 174.419998 
L 350.685883 170.477633 
L 348.492741 166.678999 
L 346.039962 163.042605 
L 343.339496 159.586166 
L 340.4045 156.326522 
L 337.249271 153.279553 
L 333.889183 150.460104 
L 330.340604 147.881911 
L 326.620825 145.557535 
L 322.747966 143.4983 
L 318.740896 141.714237 
L 314.619138 140.21404 
L 310.402771 139.005016 
L 306.112338 138.093056 
L 301.768741 137.482604 
L 297.393142 137.176632 
L 293.006858 137.176632 
L 288.631259 137.482604 
L 284.287662 138.093056 
L 279.997229 139.005016 
L 275.780862 140.21404 
L 271.659104 141.714237 
L 267.652034 143.4983 
L 263.779175 145.557535 
L 260.059396 147.881911 
L 256.510817 150.460104 
L 253.150729 153.279553 
L 249.9955 156.326522 
L 247.060504 159.586166 
L 244.360038 163.042605 
L 241.907259 166.678999 
L 239.714117 170.477633 
L 237.791296 174.419998 
L 236.148166 178.48689 
L 234.792729 182.658494 
L 233.731591 186.914486 
L 232.969921 191.234133 
L 232.51143 195.596388 
L 232.35835 199.98 
L 232.51143 204.363612 
L 232.969921 208.725867 
L 233.731591 213.045514 
L 234.792729 217.301506 
L 236.148166 221.47311 
L 237.791296 225.540002 
L 239.714117 229.482367 
L 241.907259 233.281001 
L 244.360038 236.917395 
L 247.060504 240.373834 
L 249.9955 243.633478 
L 253.150729 246.680447 
L 256.510817 249.499896 
L 260.059396 252.078089 
L 263.779175 254.402465 
L 267.652034 256.4617 
L 271.659104 258.245763 
L 275.780862 259.74596 
L 279.997229 260.954984 
L 284.287662 261.866944 
L 288.631259 262.477396 
L 293.006858 262.783368 
L 297.393142 262.783368 
L 301.768741 262.477396 
L 306.112338 261.866944 
L 310.402771 260.954984 
L 314.619138 259.74596 
L 318.740896 258.245763 
L 322.747966 256.4617 
L 326.620825 254.402465 
L 330.340604 252.078089 
L 333.889183 249.499896 
L 337.249271 246.680447 
L 340.4045 243.633478 
L 343.339496 240.373834 
L 346.039962 236.917395 
L 348.492741 233.281001 
L 350.685883 229.482367 
L 352.608704 225.540002 
L 354.251834 221.47311 
L 355.607271 217.301506 
L 356.668409 213.045514 
L 357.430079 208.725867 
L 357.88857 204.363612 
L 358.04165 199.98 
L 358.04165 199.98 
" style="fill:none;stroke:#ffffff;stroke-linecap:round;"/>
     </g>
     <g id="text_11">
      <!-- 0.3 -->
      <g style="fill:#262626;" transform="translate(353.258114 173.944042)scale(0.1 -0.1)">
       <use xlink:href="#ArialMT-48"/>
       <use x="55.615234" xlink:href="#ArialMT-46"/>
       <use x="83.398438" xlink:href="#ArialMT-51"/>
      </g>
     </g>
    </g>
    <g id="ytick_4">
     <g id="line2d_12">
      <path clip-path="url(#p83f02daf9d)" d="M 378.988866 199.98 
L 378.784761 194.135184 
L 378.173439 188.318844 
L 377.157878 182.559315 
L 375.743028 176.884659 
L 373.935779 171.32252 
L 371.744938 165.899998 
L 369.181178 160.64351 
L 366.256988 155.578666 
L 362.986617 150.73014 
L 359.385995 146.121555 
L 355.472666 141.775363 
L 351.265695 137.712738 
L 346.785577 133.953472 
L 342.054139 130.515882 
L 337.094433 127.416713 
L 331.930621 124.671066 
L 326.587862 122.292316 
L 321.092184 120.292053 
L 315.470361 118.680021 
L 309.749784 117.464075 
L 303.958321 116.650138 
L 298.124189 116.242176 
L 292.275811 116.242176 
L 286.441679 116.650138 
L 280.650216 117.464075 
L 274.929639 118.680021 
L 269.307816 120.292053 
L 263.812138 122.292316 
L 258.469379 124.671066 
L 253.305567 127.416713 
L 248.345861 130.515882 
L 243.614423 133.953472 
L 239.134305 137.712738 
L 234.927334 141.775363 
L 231.014005 146.121555 
L 227.413383 150.73014 
L 224.143012 155.578666 
L 221.218822 160.64351 
L 218.655062 165.899998 
L 216.464221 171.32252 
L 214.656972 176.884659 
L 213.242122 182.559315 
L 212.226561 188.318844 
L 211.615239 194.135184 
L 211.411134 199.98 
L 211.615239 205.824816 
L 212.226561 211.641156 
L 213.242122 217.400685 
L 214.656972 223.075341 
L 216.464221 228.63748 
L 218.655062 234.060002 
L 221.218822 239.31649 
L 224.143012 244.381334 
L 227.413383 249.22986 
L 231.014005 253.838445 
L 234.927334 258.184637 
L 239.134305 262.247262 
L 243.614423 266.006528 
L 248.345861 269.444118 
L 253.305567 272.543287 
L 258.469379 275.288934 
L 263.812138 277.667684 
L 269.307816 279.667947 
L 274.929639 281.279979 
L 280.650216 282.495925 
L 286.441679 283.309862 
L 292.275811 283.717824 
L 298.124189 283.717824 
L 303.958321 283.309862 
L 309.749784 282.495925 
L 315.470361 281.279979 
L 321.092184 279.667947 
L 326.587862 277.667684 
L 331.930621 275.288934 
L 337.094433 272.543287 
L 342.054139 269.444118 
L 346.785577 266.006528 
L 351.265695 262.247262 
L 355.472666 258.184637 
L 359.385995 253.838445 
L 362.986617 249.22986 
L 366.256988 244.381334 
L 369.181178 239.31649 
L 371.744938 234.060002 
L 373.935779 228.63748 
L 375.743028 223.075341 
L 377.157878 217.400685 
L 378.173439 211.641156 
L 378.784761 205.824816 
L 378.988866 199.98 
L 378.988866 199.98 
" style="fill:none;stroke:#ffffff;stroke-linecap:round;"/>
     </g>
     <g id="text_12">
      <!-- 0.4 -->
      <g style="fill:#262626;" transform="translate(372.610818 165.927889)scale(0.1 -0.1)">
       <use xlink:href="#ArialMT-48"/>
       <use x="55.615234" xlink:href="#ArialMT-46"/>
       <use x="83.398438" xlink:href="#ArialMT-52"/>
      </g>
     </g>
    </g>
    <g id="ytick_5">
     <g id="line2d_13">
      <path clip-path="url(#p83f02daf9d)" d="M 399.936083 199.98 
L 399.87228 196.324763 
L 399.680951 192.67398 
L 399.362327 189.032098 
L 398.916798 185.403555 
L 398.344906 181.79277 
L 397.647348 178.204144 
L 396.824973 174.642048 
L 395.878784 171.110823 
L 394.809934 167.614771 
L 393.619724 164.15815 
L 392.309605 160.745173 
L 390.881173 157.379997 
L 389.336167 154.066723 
L 387.676472 150.809388 
L 385.904108 147.611959 
L 384.021235 144.478332 
L 382.030148 141.412326 
L 379.933271 138.417675 
L 377.733159 135.498029 
L 375.432494 132.656944 
L 373.034078 129.897882 
L 370.540833 127.224204 
L 367.955796 124.639167 
L 365.282118 122.145922 
L 362.523056 119.747506 
L 359.681971 117.446841 
L 356.762325 115.246729 
L 353.767674 113.149852 
L 350.701668 111.158765 
L 347.568041 109.275892 
L 344.370612 107.503528 
L 341.113277 105.843833 
L 337.800003 104.298827 
L 334.434827 102.870395 
L 331.02185 101.560276 
L 327.565229 100.370066 
L 324.069177 99.301216 
L 320.537952 98.355027 
L 316.975856 97.532652 
L 313.38723 96.835094 
L 309.776445 96.263202 
L 306.147902 95.817673 
L 302.50602 95.499049 
L 298.855237 95.30772 
L 295.2 95.243917 
L 291.544763 95.30772 
L 287.89398 95.499049 
L 284.252098 95.817673 
L 280.623555 96.263202 
L 277.01277 96.835094 
L 273.424144 97.532652 
L 269.862048 98.355027 
L 266.330823 99.301216 
L 262.834771 100.370066 
L 259.37815 101.560276 
L 255.965173 102.870395 
L 252.599997 104.298827 
L 249.286723 105.843833 
L 246.029388 107.503528 
L 242.831959 109.275892 
L 239.698332 111.158765 
L 236.632326 113.149852 
L 233.637675 115.246729 
L 230.718029 117.446841 
L 227.876944 119.747506 
L 225.117882 122.145922 
L 222.444204 124.639167 
L 219.859167 127.224204 
L 217.365922 129.897882 
L 214.967506 132.656944 
L 212.666841 135.498029 
L 210.466729 138.417675 
L 208.369852 141.412326 
L 206.378765 144.478332 
L 204.495892 147.611959 
L 202.723528 150.809388 
L 201.063833 154.066723 
L 199.518827 157.379997 
L 198.090395 160.745173 
L 196.780276 164.15815 
L 195.590066 167.614771 
L 194.521216 171.110823 
L 193.575027 174.642048 
L 192.752652 178.204144 
L 192.055094 181.79277 
L 191.483202 185.403555 
L 191.037673 189.032098 
L 190.719049 192.67398 
L 190.52772 196.324763 
L 190.463917 199.98 
L 190.52772 203.635237 
L 190.719049 207.28602 
L 191.037673 210.927902 
L 191.483202 214.556445 
L 192.055094 218.16723 
L 192.752652 221.755856 
L 193.575027 225.317952 
L 194.521216 228.849177 
L 195.590066 232.345229 
L 196.780276 235.80185 
L 198.090395 239.214827 
L 199.518827 242.580003 
L 201.063833 245.893277 
L 202.723528 249.150612 
L 204.495892 252.348041 
L 206.378765 255.481668 
L 208.369852 258.547674 
L 210.466729 261.542325 
L 212.666841 264.461971 
L 214.967506 267.303056 
L 217.365922 270.062118 
L 219.859167 272.735796 
L 222.444204 275.320833 
L 225.117882 277.814078 
L 227.876944 280.212494 
L 230.718029 282.513159 
L 233.637675 284.713271 
L 236.632326 286.810148 
L 239.698332 288.801235 
L 242.831959 290.684108 
L 246.029388 292.456472 
L 249.286723 294.116167 
L 252.599997 295.661173 
L 255.965173 297.089605 
L 259.37815 298.399724 
L 262.834771 299.589934 
L 266.330823 300.658784 
L 269.862048 301.604973 
L 273.424144 302.427348 
L 277.01277 303.124906 
L 280.623555 303.696798 
L 284.252098 304.142327 
L 287.89398 304.460951 
L 291.544763 304.65228 
L 295.2 304.716083 
L 298.855237 304.65228 
L 302.50602 304.460951 
L 306.147902 304.142327 
L 309.776445 303.696798 
L 313.38723 303.124906 
L 316.975856 302.427348 
L 320.537952 301.604973 
L 324.069177 300.658784 
L 327.565229 299.589934 
L 331.02185 298.399724 
L 334.434827 297.089605 
L 337.800003 295.661173 
L 341.113277 294.116167 
L 344.370612 292.456472 
L 347.568041 290.684108 
L 350.701668 288.801235 
L 353.767674 286.810148 
L 356.762325 284.713271 
L 359.681971 282.513159 
L 362.523056 280.212494 
L 365.282118 277.814078 
L 367.955796 275.320833 
L 370.540833 272.735796 
L 373.034078 270.062118 
L 375.432494 267.303056 
L 377.733159 264.461971 
L 379.933271 261.542325 
L 382.030148 258.547674 
L 384.021235 255.481668 
L 385.904108 252.348041 
L 387.676472 249.150612 
L 389.336167 245.893277 
L 390.881173 242.580003 
L 392.309605 239.214827 
L 393.619724 235.80185 
L 394.809934 232.345229 
L 395.878784 228.849177 
L 396.824973 225.317952 
L 397.647348 221.755856 
L 398.344906 218.16723 
L 398.916798 214.556445 
L 399.362327 210.927902 
L 399.680951 207.28602 
L 399.87228 203.635237 
L 399.936083 199.98 
L 399.936083 199.98 
" style="fill:none;stroke:#ffffff;stroke-linecap:round;"/>
     </g>
     <g id="text_13">
      <!-- 0.5 -->
      <g style="fill:#262626;" transform="translate(391.963523 157.911736)scale(0.1 -0.1)">
       <use xlink:href="#ArialMT-48"/>
       <use x="55.615234" xlink:href="#ArialMT-46"/>
       <use x="83.398438" xlink:href="#ArialMT-53"/>
      </g>
     </g>
    </g>
    <g id="ytick_6">
     <g id="line2d_14">
      <path clip-path="url(#p83f02daf9d)" d="M 420.883299 199.98 
L 420.806736 195.593716 
L 420.577141 191.212776 
L 420.194793 186.842518 
L 419.660158 182.488266 
L 418.973887 178.155324 
L 418.136817 173.848973 
L 417.149968 169.574458 
L 416.014541 165.336988 
L 414.731921 161.141725 
L 413.303669 156.99378 
L 411.731526 152.898207 
L 410.017407 148.859997 
L 408.163401 144.884068 
L 406.171766 140.975265 
L 404.04493 137.13835 
L 401.785483 133.377999 
L 399.396177 129.698791 
L 396.879925 126.10521 
L 394.239791 122.601635 
L 391.478993 119.192333 
L 388.600893 115.881458 
L 385.608999 112.673044 
L 382.506956 109.571001 
L 379.298542 106.579107 
L 375.987667 103.701007 
L 372.578365 100.940209 
L 369.07479 98.300075 
L 365.481209 95.783823 
L 361.802001 93.394517 
L 358.04165 91.13507 
L 354.204735 89.008234 
L 350.295932 87.016599 
L 346.320003 85.162593 
L 342.281793 83.448474 
L 338.18622 81.876331 
L 334.038275 80.448079 
L 329.843012 79.165459 
L 325.605542 78.030032 
L 321.331027 77.043183 
L 317.024676 76.206113 
L 312.691734 75.519842 
L 308.337482 74.985207 
L 303.967224 74.602859 
L 299.586284 74.373264 
L 295.2 74.296701 
L 290.813716 74.373264 
L 286.432776 74.602859 
L 282.062518 74.985207 
L 277.708266 75.519842 
L 273.375324 76.206113 
L 269.068973 77.043183 
L 264.794458 78.030032 
L 260.556988 79.165459 
L 256.361725 80.448079 
L 252.21378 81.876331 
L 248.118207 83.448474 
L 244.079997 85.162593 
L 240.104068 87.016599 
L 236.195265 89.008234 
L 232.35835 91.13507 
L 228.597999 93.394517 
L 224.918791 95.783823 
L 221.32521 98.300075 
L 217.821635 100.940209 
L 214.412333 103.701007 
L 211.101458 106.579107 
L 207.893044 109.571001 
L 204.791001 112.673044 
L 201.799107 115.881458 
L 198.921007 119.192333 
L 196.160209 122.601635 
L 193.520075 126.10521 
L 191.003823 129.698791 
L 188.614517 133.377999 
L 186.35507 137.13835 
L 184.228234 140.975265 
L 182.236599 144.884068 
L 180.382593 148.859997 
L 178.668474 152.898207 
L 177.096331 156.99378 
L 175.668079 161.141725 
L 174.385459 165.336988 
L 173.250032 169.574458 
L 172.263183 173.848973 
L 171.426113 178.155324 
L 170.739842 182.488266 
L 170.205207 186.842518 
L 169.822859 191.212776 
L 169.593264 195.593716 
L 169.516701 199.98 
L 169.593264 204.366284 
L 169.822859 208.747224 
L 170.205207 213.117482 
L 170.739842 217.471734 
L 171.426113 221.804676 
L 172.263183 226.111027 
L 173.250032 230.385542 
L 174.385459 234.623012 
L 175.668079 238.818275 
L 177.096331 242.96622 
L 178.668474 247.061793 
L 180.382593 251.100003 
L 182.236599 255.075932 
L 184.228234 258.984735 
L 186.35507 262.82165 
L 188.614517 266.582001 
L 191.003823 270.261209 
L 193.520075 273.85479 
L 196.160209 277.358365 
L 198.921007 280.767667 
L 201.799107 284.078542 
L 204.791001 287.286956 
L 207.893044 290.388999 
L 211.101458 293.380893 
L 214.412333 296.258993 
L 217.821635 299.019791 
L 221.32521 301.659925 
L 224.918791 304.176177 
L 228.597999 306.565483 
L 232.35835 308.82493 
L 236.195265 310.951766 
L 240.104068 312.943401 
L 244.079997 314.797407 
L 248.118207 316.511526 
L 252.21378 318.083669 
L 256.361725 319.511921 
L 260.556988 320.794541 
L 264.794458 321.929968 
L 269.068973 322.916817 
L 273.375324 323.753887 
L 277.708266 324.440158 
L 282.062518 324.974793 
L 286.432776 325.357141 
L 290.813716 325.586736 
L 295.2 325.663299 
L 299.586284 325.586736 
L 303.967224 325.357141 
L 308.337482 324.974793 
L 312.691734 324.440158 
L 317.024676 323.753887 
L 321.331027 322.916817 
L 325.605542 321.929968 
L 329.843012 320.794541 
L 334.038275 319.511921 
L 338.18622 318.083669 
L 342.281793 316.511526 
L 346.320003 314.797407 
L 350.295932 312.943401 
L 354.204735 310.951766 
L 358.04165 308.82493 
L 361.802001 306.565483 
L 365.481209 304.176177 
L 369.07479 301.659925 
L 372.578365 299.019791 
L 375.987667 296.258993 
L 379.298542 293.380893 
L 382.506956 290.388999 
L 385.608999 287.286956 
L 388.600893 284.078542 
L 391.478993 280.767667 
L 394.239791 277.358365 
L 396.879925 273.85479 
L 399.396177 270.261209 
L 401.785483 266.582001 
L 404.04493 262.82165 
L 406.171766 258.984735 
L 408.163401 255.075932 
L 410.017407 251.100003 
L 411.731526 247.061793 
L 413.303669 242.96622 
L 414.731921 238.818275 
L 416.014541 234.623012 
L 417.149968 230.385542 
L 418.136817 226.111027 
L 418.973887 221.804676 
L 419.660158 217.471734 
L 420.194793 213.117482 
L 420.577141 208.747224 
L 420.806736 204.366284 
L 420.883299 199.98 
L 420.883299 199.98 
" style="fill:none;stroke:#ffffff;stroke-linecap:round;"/>
     </g>
     <g id="text_14">
      <!-- 0.6 -->
      <defs>
       <path d="M 49.75 54.046875 
L 41.015625 53.375 
Q 39.84375 58.546875 37.703125 60.890625 
Q 34.125 64.65625 28.90625 64.65625 
Q 24.703125 64.65625 21.53125 62.3125 
Q 17.390625 59.28125 14.984375 53.46875 
Q 12.59375 47.65625 12.5 36.921875 
Q 15.671875 41.75 20.265625 44.09375 
Q 24.859375 46.4375 29.890625 46.4375 
Q 38.671875 46.4375 44.84375 39.96875 
Q 51.03125 33.5 51.03125 23.25 
Q 51.03125 16.5 48.125 10.71875 
Q 45.21875 4.9375 40.140625 1.859375 
Q 35.0625 -1.21875 28.609375 -1.21875 
Q 17.625 -1.21875 10.6875 6.859375 
Q 3.765625 14.9375 3.765625 33.5 
Q 3.765625 54.25 11.421875 63.671875 
Q 18.109375 71.875 29.4375 71.875 
Q 37.890625 71.875 43.28125 67.140625 
Q 48.6875 62.40625 49.75 54.046875 
z
M 13.875 23.1875 
Q 13.875 18.65625 15.796875 14.5 
Q 17.71875 10.359375 21.1875 8.171875 
Q 24.65625 6 28.46875 6 
Q 34.03125 6 38.03125 10.484375 
Q 42.046875 14.984375 42.046875 22.703125 
Q 42.046875 30.125 38.078125 34.390625 
Q 34.125 38.671875 28.125 38.671875 
Q 22.171875 38.671875 18.015625 34.390625 
Q 13.875 30.125 13.875 23.1875 
z
" id="ArialMT-54"/>
      </defs>
      <g style="fill:#262626;" transform="translate(411.316228 149.895584)scale(0.1 -0.1)">
       <use xlink:href="#ArialMT-48"/>
       <use x="55.615234" xlink:href="#ArialMT-46"/>
       <use x="83.398438" xlink:href="#ArialMT-54"/>
      </g>
     </g>
    </g>
    <g id="ytick_7">
     <g id="line2d_15">
      <path clip-path="url(#p83f02daf9d)" d="M 441.830516 199.98 
L 441.741192 194.862669 
L 441.473331 189.751572 
L 441.027258 184.652938 
L 440.403518 179.572976 
L 439.602869 174.517878 
L 438.626287 169.493802 
L 437.474963 164.506868 
L 436.150298 159.563152 
L 434.653907 154.668679 
L 432.987614 149.82941 
L 431.153447 145.051242 
L 429.153642 140.339996 
L 426.990634 135.701413 
L 424.667061 131.141143 
L 422.185752 126.664742 
L 419.54973 122.277665 
L 416.762207 117.985256 
L 413.826579 113.792745 
L 410.746423 109.70524 
L 407.525492 105.727721 
L 404.167709 101.865034 
L 400.677166 98.121885 
L 397.058115 94.502834 
L 393.314966 91.012291 
L 389.452279 87.654508 
L 385.47476 84.433577 
L 381.387255 81.353421 
L 377.194744 78.417793 
L 372.902335 75.63027 
L 368.515258 72.994248 
L 364.038857 70.512939 
L 359.478587 68.189366 
L 354.840004 66.026358 
L 350.128758 64.026553 
L 345.35059 62.192386 
L 340.511321 60.526093 
L 335.616848 59.029702 
L 330.673132 57.705037 
L 325.686198 56.553713 
L 320.662122 55.577131 
L 315.607024 54.776482 
L 310.527062 54.152742 
L 305.428428 53.706669 
L 300.317331 53.438808 
L 295.2 53.349484 
L 290.082669 53.438808 
L 284.971572 53.706669 
L 279.872938 54.152742 
L 274.792976 54.776482 
L 269.737878 55.577131 
L 264.713802 56.553713 
L 259.726868 57.705037 
L 254.783152 59.029702 
L 249.888679 60.526093 
L 245.04941 62.192386 
L 240.271242 64.026553 
L 235.559996 66.026358 
L 230.921413 68.189366 
L 226.361143 70.512939 
L 221.884742 72.994248 
L 217.497665 75.63027 
L 213.205256 78.417793 
L 209.012745 81.353421 
L 204.92524 84.433577 
L 200.947721 87.654508 
L 197.085034 91.012291 
L 193.341885 94.502834 
L 189.722834 98.121885 
L 186.232291 101.865034 
L 182.874508 105.727721 
L 179.653577 109.70524 
L 176.573421 113.792745 
L 173.637793 117.985256 
L 170.85027 122.277665 
L 168.214248 126.664742 
L 165.732939 131.141143 
L 163.409366 135.701413 
L 161.246358 140.339996 
L 159.246553 145.051242 
L 157.412386 149.82941 
L 155.746093 154.668679 
L 154.249702 159.563152 
L 152.925037 164.506868 
L 151.773713 169.493802 
L 150.797131 174.517878 
L 149.996482 179.572976 
L 149.372742 184.652938 
L 148.926669 189.751572 
L 148.658808 194.862669 
L 148.569484 199.98 
L 148.658808 205.097331 
L 148.926669 210.208428 
L 149.372742 215.307062 
L 149.996482 220.387024 
L 150.797131 225.442122 
L 151.773713 230.466198 
L 152.925037 235.453132 
L 154.249702 240.396848 
L 155.746093 245.291321 
L 157.412386 250.13059 
L 159.246553 254.908758 
L 161.246358 259.620004 
L 163.409366 264.258587 
L 165.732939 268.818857 
L 168.214248 273.295258 
L 170.85027 277.682335 
L 173.637793 281.974744 
L 176.573421 286.167255 
L 179.653577 290.25476 
L 182.874508 294.232279 
L 186.232291 298.094966 
L 189.722834 301.838115 
L 193.341885 305.457166 
L 197.085034 308.947709 
L 200.947721 312.305492 
L 204.92524 315.526423 
L 209.012745 318.606579 
L 213.205256 321.542207 
L 217.497665 324.32973 
L 221.884742 326.965752 
L 226.361143 329.447061 
L 230.921413 331.770634 
L 235.559996 333.933642 
L 240.271242 335.933447 
L 245.04941 337.767614 
L 249.888679 339.433907 
L 254.783152 340.930298 
L 259.726868 342.254963 
L 264.713802 343.406287 
L 269.737878 344.382869 
L 274.792976 345.183518 
L 279.872938 345.807258 
L 284.971572 346.253331 
L 290.082669 346.521192 
L 295.2 346.610516 
L 300.317331 346.521192 
L 305.428428 346.253331 
L 310.527062 345.807258 
L 315.607024 345.183518 
L 320.662122 344.382869 
L 325.686198 343.406287 
L 330.673132 342.254963 
L 335.616848 340.930298 
L 340.511321 339.433907 
L 345.35059 337.767614 
L 350.128758 335.933447 
L 354.840004 333.933642 
L 359.478587 331.770634 
L 364.038857 329.447061 
L 368.515258 326.965752 
L 372.902335 324.32973 
L 377.194744 321.542207 
L 381.387255 318.606579 
L 385.47476 315.526423 
L 389.452279 312.305492 
L 393.314966 308.947709 
L 397.058115 305.457166 
L 400.677166 301.838115 
L 404.167709 298.094966 
L 407.525492 294.232279 
L 410.746423 290.25476 
L 413.826579 286.167255 
L 416.762207 281.974744 
L 419.54973 277.682335 
L 422.185752 273.295258 
L 424.667061 268.818857 
L 426.990634 264.258587 
L 429.153642 259.620004 
L 431.153447 254.908758 
L 432.987614 250.13059 
L 434.653907 245.291321 
L 436.150298 240.396848 
L 437.474963 235.453132 
L 438.626287 230.466198 
L 439.602869 225.442122 
L 440.403518 220.387024 
L 441.027258 215.307062 
L 441.473331 210.208428 
L 441.741192 205.097331 
L 441.830516 199.98 
L 441.830516 199.98 
" style="fill:none;stroke:#ffffff;stroke-linecap:round;"/>
     </g>
     <g id="text_15">
      <!-- 0.7 -->
      <g style="fill:#262626;" transform="translate(430.668932 141.879431)scale(0.1 -0.1)">
       <use xlink:href="#ArialMT-48"/>
       <use x="55.615234" xlink:href="#ArialMT-46"/>
       <use x="83.398438" xlink:href="#ArialMT-55"/>
      </g>
     </g>
    </g>
   </g>
   <g id="PathCollection_1">
    <defs>
     <path d="M 0 3.5 
C 0.928211 3.5 1.81853 3.131218 2.474874 2.474874 
C 3.131218 1.81853 3.5 0.928211 3.5 0 
C 3.5 -0.928211 3.131218 -1.81853 2.474874 -2.474874 
C 1.81853 -3.131218 0.928211 -3.5 0 -3.5 
C -0.928211 -3.5 -1.81853 -3.131218 -2.474874 -2.474874 
C -3.131218 -1.81853 -3.5 -0.928211 -3.5 0 
C -3.5 0.928211 -3.131218 1.81853 -2.474874 2.474874 
C -1.81853 3.131218 -0.928211 3.5 0 3.5 
z
" id="m532c42dc06" style="stroke:#4c72b0;stroke-width:0.3;"/>
    </defs>
    <g clip-path="url(#p83f02daf9d)">
     <use style="fill:#4c72b0;stroke:#4c72b0;stroke-width:0.3;" x="289.890278" xlink:href="#m532c42dc06" y="202.193192"/>
     <use style="fill:#4c72b0;stroke:#4c72b0;stroke-width:0.3;" x="245.254819" xlink:href="#m532c42dc06" y="197.433614"/>
     <use style="fill:#4c72b0;stroke:#4c72b0;stroke-width:0.3;" x="282.039724" xlink:href="#m532c42dc06" y="188.619276"/>
     <use style="fill:#4c72b0;stroke:#4c72b0;stroke-width:0.3;" x="278.584628" xlink:href="#m532c42dc06" y="184.696743"/>
     <use style="fill:#4c72b0;stroke:#4c72b0;stroke-width:0.3;" x="344.462863" xlink:href="#m532c42dc06" y="179.281216"/>
     <use style="fill:#4c72b0;stroke:#4c72b0;stroke-width:0.3;" x="275.585207" xlink:href="#m532c42dc06" y="171.905388"/>
     <use style="fill:#4c72b0;stroke:#4c72b0;stroke-width:0.3;" x="278.211275" xlink:href="#m532c42dc06" y="176.25161"/>
     <use style="fill:#4c72b0;stroke:#4c72b0;stroke-width:0.3;" x="336.058481" xlink:href="#m532c42dc06" y="180.234567"/>
     <use style="fill:#4c72b0;stroke:#4c72b0;stroke-width:0.3;" x="269.930002" xlink:href="#m532c42dc06" y="188.240736"/>
     <use style="fill:#4c72b0;stroke:#4c72b0;stroke-width:0.3;" x="262.786419" xlink:href="#m532c42dc06" y="193.716099"/>
     <use style="fill:#4c72b0;stroke:#4c72b0;stroke-width:0.3;" x="271.554341" xlink:href="#m532c42dc06" y="192.430387"/>
     <use style="fill:#4c72b0;stroke:#4c72b0;stroke-width:0.3;" x="275.936374" xlink:href="#m532c42dc06" y="185.349513"/>
     <use style="fill:#4c72b0;stroke:#4c72b0;stroke-width:0.3;" x="277.476175" xlink:href="#m532c42dc06" y="194.602805"/>
     <use style="fill:#4c72b0;stroke:#4c72b0;stroke-width:0.3;" x="238.270383" xlink:href="#m532c42dc06" y="178.232053"/>
     <use style="fill:#4c72b0;stroke:#4c72b0;stroke-width:0.3;" x="234.156857" xlink:href="#m532c42dc06" y="171.065095"/>
     <use style="fill:#4c72b0;stroke:#4c72b0;stroke-width:0.3;" x="262.528629" xlink:href="#m532c42dc06" y="183.52731"/>
     <use style="fill:#4c72b0;stroke:#4c72b0;stroke-width:0.3;" x="268.721302" xlink:href="#m532c42dc06" y="189.668805"/>
     <use style="fill:#4c72b0;stroke:#4c72b0;stroke-width:0.3;" x="265.958806" xlink:href="#m532c42dc06" y="189.050473"/>
     <use style="fill:#4c72b0;stroke:#4c72b0;stroke-width:0.3;" x="278.062861" xlink:href="#m532c42dc06" y="181.202528"/>
     <use style="fill:#4c72b0;stroke:#4c72b0;stroke-width:0.3;" x="328.158657" xlink:href="#m532c42dc06" y="176.641954"/>
     <use style="fill:#4c72b0;stroke:#4c72b0;stroke-width:0.3;" x="273.789876" xlink:href="#m532c42dc06" y="176.898593"/>
     <use style="fill:#4c72b0;stroke:#4c72b0;stroke-width:0.3;" x="294.660062" xlink:href="#m532c42dc06" y="186.911988"/>
     <use style="fill:#4c72b0;stroke:#4c72b0;stroke-width:0.3;" x="281.082592" xlink:href="#m532c42dc06" y="181.402599"/>
     <use style="fill:#4c72b0;stroke:#4c72b0;stroke-width:0.3;" x="286.096742" xlink:href="#m532c42dc06" y="175.23262"/>
    </g>
   </g>
   <g id="PathCollection_2">
    <defs>
     <path d="M 0 3.5 
C 0.928211 3.5 1.81853 3.131218 2.474874 2.474874 
C 3.131218 1.81853 3.5 0.928211 3.5 0 
C 3.5 -0.928211 3.131218 -1.81853 2.474874 -2.474874 
C 1.81853 -3.131218 0.928211 -3.5 0 -3.5 
C -0.928211 -3.5 -1.81853 -3.131218 -2.474874 -2.474874 
C -3.131218 -1.81853 -3.5 -0.928211 -3.5 0 
C -3.5 0.928211 -3.131218 1.81853 -2.474874 2.474874 
C -1.81853 3.131218 -0.928211 3.5 0 3.5 
z
" id="mb9232b6420" style="stroke:#55a868;stroke-width:0.3;"/>
    </defs>
    <g clip-path="url(#p83f02daf9d)">
     <use style="fill:#55a868;stroke:#55a868;stroke-width:0.3;" x="307.917304" xlink:href="#mb9232b6420" y="183.290407"/>
     <use style="fill:#55a868;stroke:#55a868;stroke-width:0.3;" x="294.624345" xlink:href="#mb9232b6420" y="181.724378"/>
     <use style="fill:#55a868;stroke:#55a868;stroke-width:0.3;" x="288.752527" xlink:href="#mb9232b6420" y="177.902625"/>
     <use style="fill:#55a868;stroke:#55a868;stroke-width:0.3;" x="288.906835" xlink:href="#mb9232b6420" y="191.327285"/>
     <use style="fill:#55a868;stroke:#55a868;stroke-width:0.3;" x="272.38868" xlink:href="#mb9232b6420" y="194.467077"/>
     <use style="fill:#55a868;stroke:#55a868;stroke-width:0.3;" x="323.163266" xlink:href="#mb9232b6420" y="190.319297"/>
     <use style="fill:#55a868;stroke:#55a868;stroke-width:0.3;" x="315.353539" xlink:href="#mb9232b6420" y="195.813006"/>
     <use style="fill:#55a868;stroke:#55a868;stroke-width:0.3;" x="249.064408" xlink:href="#mb9232b6420" y="186.406563"/>
     <use style="fill:#55a868;stroke:#55a868;stroke-width:0.3;" x="238.832411" xlink:href="#mb9232b6420" y="189.607518"/>
     <use style="fill:#55a868;stroke:#55a868;stroke-width:0.3;" x="250.9819" xlink:href="#mb9232b6420" y="194.789501"/>
     <use style="fill:#55a868;stroke:#55a868;stroke-width:0.3;" x="266.485088" xlink:href="#mb9232b6420" y="191.174895"/>
     <use style="fill:#55a868;stroke:#55a868;stroke-width:0.3;" x="338.388976" xlink:href="#mb9232b6420" y="188.629091"/>
     <use style="fill:#55a868;stroke:#55a868;stroke-width:0.3;" x="307.501087" xlink:href="#mb9232b6420" y="187.026215"/>
     <use style="fill:#55a868;stroke:#55a868;stroke-width:0.3;" x="360.675937" xlink:href="#mb9232b6420" y="190.100419"/>
     <use style="fill:#55a868;stroke:#55a868;stroke-width:0.3;" x="392.877223" xlink:href="#mb9232b6420" y="178.842171"/>
     <use style="fill:#55a868;stroke:#55a868;stroke-width:0.3;" x="301.705092" xlink:href="#mb9232b6420" y="184.323887"/>
     <use style="fill:#55a868;stroke:#55a868;stroke-width:0.3;" x="276.571967" xlink:href="#mb9232b6420" y="186.651898"/>
     <use style="fill:#55a868;stroke:#55a868;stroke-width:0.3;" x="276.119836" xlink:href="#mb9232b6420" y="197.142265"/>
     <use style="fill:#55a868;stroke:#55a868;stroke-width:0.3;" x="319.660176" xlink:href="#mb9232b6420" y="194.138297"/>
     <use style="fill:#55a868;stroke:#55a868;stroke-width:0.3;" x="354.394491" xlink:href="#mb9232b6420" y="191.77104"/>
     <use style="fill:#55a868;stroke:#55a868;stroke-width:0.3;" x="355.070953" xlink:href="#mb9232b6420" y="199.148449"/>
     <use style="fill:#55a868;stroke:#55a868;stroke-width:0.3;" x="386.176858" xlink:href="#mb9232b6420" y="207.785902"/>
     <use style="fill:#55a868;stroke:#55a868;stroke-width:0.3;" x="355.474704" xlink:href="#mb9232b6420" y="199.767306"/>
     <use style="fill:#55a868;stroke:#55a868;stroke-width:0.3;" x="280.258185" xlink:href="#mb9232b6420" y="189.300215"/>
    </g>
   </g>
   <g id="PathCollection_3">
    <defs>
     <path d="M 0 3.5 
C 0.928211 3.5 1.81853 3.131218 2.474874 2.474874 
C 3.131218 1.81853 3.5 0.928211 3.5 0 
C 3.5 -0.928211 3.131218 -1.81853 2.474874 -2.474874 
C 1.81853 -3.131218 0.928211 -3.5 0 -3.5 
C -0.928211 -3.5 -1.81853 -3.131218 -2.474874 -2.474874 
C -3.131218 -1.81853 -3.5 -0.928211 -3.5 0 
C -3.5 0.928211 -3.131218 1.81853 -2.474874 2.474874 
C -1.81853 3.131218 -0.928211 3.5 0 3.5 
z
" id="m472f19abb9" style="stroke:#c44e52;stroke-width:0.3;"/>
    </defs>
    <g clip-path="url(#p83f02daf9d)">
     <use style="fill:#c44e52;stroke:#c44e52;stroke-width:0.3;" x="335.941983" xlink:href="#m472f19abb9" y="232.428789"/>
     <use style="fill:#c44e52;stroke:#c44e52;stroke-width:0.3;" x="337.932415" xlink:href="#m472f19abb9" y="226.261272"/>
     <use style="fill:#c44e52;stroke:#c44e52;stroke-width:0.3;" x="436.832418" xlink:href="#m472f19abb9" y="231.969032"/>
     <use style="fill:#c44e52;stroke:#c44e52;stroke-width:0.3;" x="406.480039" xlink:href="#m472f19abb9" y="234.884853"/>
     <use style="fill:#c44e52;stroke:#c44e52;stroke-width:0.3;" x="376.618126" xlink:href="#m472f19abb9" y="235.846093"/>
     <use style="fill:#c44e52;stroke:#c44e52;stroke-width:0.3;" x="345.339484" xlink:href="#m472f19abb9" y="251.218617"/>
     <use style="fill:#c44e52;stroke:#c44e52;stroke-width:0.3;" x="295.543774" xlink:href="#m472f19abb9" y="238.827576"/>
     <use style="fill:#c44e52;stroke:#c44e52;stroke-width:0.3;" x="285.266102" xlink:href="#m472f19abb9" y="234.243548"/>
     <use style="fill:#c44e52;stroke:#c44e52;stroke-width:0.3;" x="386.123859" xlink:href="#m472f19abb9" y="228.979586"/>
     <use style="fill:#c44e52;stroke:#c44e52;stroke-width:0.3;" x="312.64361" xlink:href="#m472f19abb9" y="225.060967"/>
     <use style="fill:#c44e52;stroke:#c44e52;stroke-width:0.3;" x="297.169926" xlink:href="#m472f19abb9" y="220.973433"/>
     <use style="fill:#c44e52;stroke:#c44e52;stroke-width:0.3;" x="357.001109" xlink:href="#m472f19abb9" y="214.782404"/>
     <use style="fill:#c44e52;stroke:#c44e52;stroke-width:0.3;" x="371.441801" xlink:href="#m472f19abb9" y="207.185285"/>
     <use style="fill:#c44e52;stroke:#c44e52;stroke-width:0.3;" x="273.348979" xlink:href="#m472f19abb9" y="204.056234"/>
     <use style="fill:#c44e52;stroke:#c44e52;stroke-width:0.3;" x="243.881886" xlink:href="#m472f19abb9" y="200.651537"/>
     <use style="fill:#c44e52;stroke:#c44e52;stroke-width:0.3;" x="293.756321" xlink:href="#m472f19abb9" y="187.666721"/>
     <use style="fill:#c44e52;stroke:#c44e52;stroke-width:0.3;" x="338.424419" xlink:href="#m472f19abb9" y="199.548756"/>
     <use style="fill:#c44e52;stroke:#c44e52;stroke-width:0.3;" x="293.463244" xlink:href="#m472f19abb9" y="209.900529"/>
     <use style="fill:#c44e52;stroke:#c44e52;stroke-width:0.3;" x="311.921181" xlink:href="#m472f19abb9" y="208.48892"/>
     <use style="fill:#c44e52;stroke:#c44e52;stroke-width:0.3;" x="362.739481" xlink:href="#m472f19abb9" y="202.109009"/>
     <use style="fill:#c44e52;stroke:#c44e52;stroke-width:0.3;" x="352.231105" xlink:href="#m472f19abb9" y="201.054996"/>
     <use style="fill:#c44e52;stroke:#c44e52;stroke-width:0.3;" x="338.032357" xlink:href="#m472f19abb9" y="204.095996"/>
     <use style="fill:#c44e52;stroke:#c44e52;stroke-width:0.3;" x="295.029507" xlink:href="#m472f19abb9" y="201.424787"/>
     <use style="fill:#c44e52;stroke:#c44e52;stroke-width:0.3;" x="219.456764" xlink:href="#m472f19abb9" y="196.062035"/>
    </g>
   </g>
   <g id="line2d_16">
    <path clip-path="url(#p83f02daf9d)" d="M 295.2 199.98 
L 438.892154 220.851148 
" style="fill:none;stroke:#ff0000;stroke-dasharray:7.4,3.2;stroke-dashoffset:0;stroke-width:2;"/>
   </g>
   <g id="patch_3">
    <path d="M 447.66 199.98 
C 447.66 179.959136 443.716326 160.13295 436.054674 141.636084 
C 428.393021 123.139218 417.162388 106.331389 403.0055 92.1745 
C 388.848611 78.017612 372.040782 66.786979 353.543916 59.125326 
C 335.04705 51.463674 315.220864 47.52 295.2 47.52 
C 275.179136 47.52 255.35295 51.463674 236.856084 59.125326 
C 218.359218 66.786979 201.551389 78.017612 187.3945 92.1745 
C 173.237612 106.331389 162.006979 123.139218 154.345326 141.636084 
C 146.683674 160.13295 142.74 179.959136 142.74 199.98 
C 142.74 220.000864 146.683674 239.82705 154.345326 258.323916 
C 162.006979 276.820782 173.237612 293.628611 187.3945 307.7855 
C 201.551389 321.942388 218.359218 333.173021 236.856084 340.834674 
C 255.35295 348.496326 275.179136 352.44 295.2 352.44 
C 315.220864 352.44 335.04705 348.496326 353.543916 340.834674 
C 372.040782 333.173021 388.848611 321.942388 403.0055 307.7855 
C 417.162388 293.628611 428.393021 276.820782 436.054674 258.323916 
C 443.716326 239.82705 447.66 220.000864 447.66 199.98 
" style="fill:none;"/>
   </g>
   <g id="text_16">
    <!-- Distribution of projected eye movement velocity on the screen - NewM4_9_23 -->
    <defs>
     <path d="M 7.71875 0 
L 7.71875 71.578125 
L 32.375 71.578125 
Q 40.71875 71.578125 45.125 70.5625 
Q 51.265625 69.140625 55.609375 65.4375 
Q 61.28125 60.640625 64.078125 53.1875 
Q 66.890625 45.75 66.890625 36.1875 
Q 66.890625 28.03125 64.984375 21.734375 
Q 63.09375 15.4375 60.109375 11.296875 
Q 57.125 7.171875 53.578125 4.796875 
Q 50.046875 2.4375 45.046875 1.21875 
Q 40.046875 0 33.546875 0 
z
M 17.1875 8.453125 
L 32.46875 8.453125 
Q 39.546875 8.453125 43.578125 9.765625 
Q 47.609375 11.078125 50 13.484375 
Q 53.375 16.84375 55.25 22.53125 
Q 57.125 28.21875 57.125 36.328125 
Q 57.125 47.5625 53.4375 53.59375 
Q 49.75 59.625 44.484375 61.671875 
Q 40.671875 63.140625 32.234375 63.140625 
L 17.1875 63.140625 
z
" id="ArialMT-68"/>
     <path d="M 6.640625 61.46875 
L 6.640625 71.578125 
L 15.4375 71.578125 
L 15.4375 61.46875 
z
M 6.640625 0 
L 6.640625 51.859375 
L 15.4375 51.859375 
L 15.4375 0 
z
" id="ArialMT-105"/>
     <path d="M 3.078125 15.484375 
L 11.765625 16.84375 
Q 12.5 11.625 15.84375 8.84375 
Q 19.1875 6.0625 25.203125 6.0625 
Q 31.25 6.0625 34.171875 8.515625 
Q 37.109375 10.984375 37.109375 14.3125 
Q 37.109375 17.28125 34.515625 19 
Q 32.71875 20.171875 25.53125 21.96875 
Q 15.875 24.421875 12.140625 26.203125 
Q 8.40625 27.984375 6.46875 31.125 
Q 4.546875 34.28125 4.546875 38.09375 
Q 4.546875 41.546875 6.125 44.5 
Q 7.71875 47.46875 10.453125 49.421875 
Q 12.5 50.921875 16.03125 51.96875 
Q 19.578125 53.03125 23.640625 53.03125 
Q 29.734375 53.03125 34.34375 51.265625 
Q 38.96875 49.515625 41.15625 46.5 
Q 43.359375 43.5 44.1875 38.484375 
L 35.59375 37.3125 
Q 35.015625 41.3125 32.203125 43.546875 
Q 29.390625 45.796875 24.265625 45.796875 
Q 18.21875 45.796875 15.625 43.796875 
Q 13.03125 41.796875 13.03125 39.109375 
Q 13.03125 37.40625 14.109375 36.03125 
Q 15.1875 34.625 17.484375 33.6875 
Q 18.796875 33.203125 25.25 31.453125 
Q 34.578125 28.953125 38.25 27.359375 
Q 41.9375 25.78125 44.03125 22.75 
Q 46.140625 19.734375 46.140625 15.234375 
Q 46.140625 10.84375 43.578125 6.953125 
Q 41.015625 3.078125 36.171875 0.953125 
Q 31.34375 -1.171875 25.25 -1.171875 
Q 15.140625 -1.171875 9.84375 3.03125 
Q 4.546875 7.234375 3.078125 15.484375 
z
" id="ArialMT-115"/>
     <path d="M 25.78125 7.859375 
L 27.046875 0.09375 
Q 23.34375 -0.6875 20.40625 -0.6875 
Q 15.625 -0.6875 12.984375 0.828125 
Q 10.359375 2.34375 9.28125 4.8125 
Q 8.203125 7.28125 8.203125 15.1875 
L 8.203125 45.015625 
L 1.765625 45.015625 
L 1.765625 51.859375 
L 8.203125 51.859375 
L 8.203125 64.703125 
L 16.9375 69.96875 
L 16.9375 51.859375 
L 25.78125 51.859375 
L 25.78125 45.015625 
L 16.9375 45.015625 
L 16.9375 14.703125 
Q 16.9375 10.9375 17.40625 9.859375 
Q 17.875 8.796875 18.921875 8.15625 
Q 19.96875 7.515625 21.921875 7.515625 
Q 23.390625 7.515625 25.78125 7.859375 
z
" id="ArialMT-116"/>
     <path d="M 6.5 0 
L 6.5 51.859375 
L 14.40625 51.859375 
L 14.40625 44 
Q 17.4375 49.515625 20 51.265625 
Q 22.5625 53.03125 25.640625 53.03125 
Q 30.078125 53.03125 34.671875 50.203125 
L 31.640625 42.046875 
Q 28.421875 43.953125 25.203125 43.953125 
Q 22.3125 43.953125 20.015625 42.21875 
Q 17.71875 40.484375 16.75 37.40625 
Q 15.28125 32.71875 15.28125 27.15625 
L 15.28125 0 
z
" id="ArialMT-114"/>
     <path d="M 14.703125 0 
L 6.546875 0 
L 6.546875 71.578125 
L 15.328125 71.578125 
L 15.328125 46.046875 
Q 20.90625 53.03125 29.546875 53.03125 
Q 34.328125 53.03125 38.59375 51.09375 
Q 42.875 49.171875 45.625 45.671875 
Q 48.390625 42.1875 49.953125 37.25 
Q 51.515625 32.328125 51.515625 26.703125 
Q 51.515625 13.375 44.921875 6.09375 
Q 38.328125 -1.171875 29.109375 -1.171875 
Q 19.921875 -1.171875 14.703125 6.5 
z
M 14.59375 26.3125 
Q 14.59375 17 17.140625 12.84375 
Q 21.296875 6.0625 28.375 6.0625 
Q 34.125 6.0625 38.328125 11.0625 
Q 42.53125 16.0625 42.53125 25.984375 
Q 42.53125 36.140625 38.5 40.96875 
Q 34.46875 45.796875 28.765625 45.796875 
Q 23 45.796875 18.796875 40.796875 
Q 14.59375 35.796875 14.59375 26.3125 
z
" id="ArialMT-98"/>
     <path d="M 40.578125 0 
L 40.578125 7.625 
Q 34.515625 -1.171875 24.125 -1.171875 
Q 19.53125 -1.171875 15.546875 0.578125 
Q 11.578125 2.34375 9.640625 5 
Q 7.71875 7.671875 6.9375 11.53125 
Q 6.390625 14.109375 6.390625 19.734375 
L 6.390625 51.859375 
L 15.1875 51.859375 
L 15.1875 23.09375 
Q 15.1875 16.21875 15.71875 13.8125 
Q 16.546875 10.359375 19.234375 8.375 
Q 21.921875 6.390625 25.875 6.390625 
Q 29.828125 6.390625 33.296875 8.421875 
Q 36.765625 10.453125 38.203125 13.9375 
Q 39.65625 17.4375 39.65625 24.078125 
L 39.65625 51.859375 
L 48.4375 51.859375 
L 48.4375 0 
z
" id="ArialMT-117"/>
     <path d="M 3.328125 25.921875 
Q 3.328125 40.328125 11.328125 47.265625 
Q 18.015625 53.03125 27.640625 53.03125 
Q 38.328125 53.03125 45.109375 46.015625 
Q 51.90625 39.015625 51.90625 26.65625 
Q 51.90625 16.65625 48.90625 10.90625 
Q 45.90625 5.171875 40.15625 2 
Q 34.421875 -1.171875 27.640625 -1.171875 
Q 16.75 -1.171875 10.03125 5.8125 
Q 3.328125 12.796875 3.328125 25.921875 
z
M 12.359375 25.921875 
Q 12.359375 15.96875 16.703125 11.015625 
Q 21.046875 6.0625 27.640625 6.0625 
Q 34.1875 6.0625 38.53125 11.03125 
Q 42.875 16.015625 42.875 26.21875 
Q 42.875 35.84375 38.5 40.796875 
Q 34.125 45.75 27.640625 45.75 
Q 21.046875 45.75 16.703125 40.8125 
Q 12.359375 35.890625 12.359375 25.921875 
z
" id="ArialMT-111"/>
     <path d="M 6.59375 0 
L 6.59375 51.859375 
L 14.5 51.859375 
L 14.5 44.484375 
Q 20.21875 53.03125 31 53.03125 
Q 35.6875 53.03125 39.625 51.34375 
Q 43.5625 49.65625 45.515625 46.921875 
Q 47.46875 44.1875 48.25 40.4375 
Q 48.734375 37.984375 48.734375 31.890625 
L 48.734375 0 
L 39.9375 0 
L 39.9375 31.546875 
Q 39.9375 36.921875 38.90625 39.578125 
Q 37.890625 42.234375 35.28125 43.8125 
Q 32.671875 45.40625 29.15625 45.40625 
Q 23.53125 45.40625 19.453125 41.84375 
Q 15.375 38.28125 15.375 28.328125 
L 15.375 0 
z
" id="ArialMT-110"/>
     <path id="ArialMT-32"/>
     <path d="M 8.6875 0 
L 8.6875 45.015625 
L 0.921875 45.015625 
L 0.921875 51.859375 
L 8.6875 51.859375 
L 8.6875 57.375 
Q 8.6875 62.59375 9.625 65.140625 
Q 10.890625 68.5625 14.078125 70.671875 
Q 17.28125 72.796875 23.046875 72.796875 
Q 26.765625 72.796875 31.25 71.921875 
L 29.9375 64.265625 
Q 27.203125 64.75 24.75 64.75 
Q 20.75 64.75 19.09375 63.03125 
Q 17.4375 61.328125 17.4375 56.640625 
L 17.4375 51.859375 
L 27.546875 51.859375 
L 27.546875 45.015625 
L 17.4375 45.015625 
L 17.4375 0 
z
" id="ArialMT-102"/>
     <path d="M 6.59375 -19.875 
L 6.59375 51.859375 
L 14.59375 51.859375 
L 14.59375 45.125 
Q 17.4375 49.078125 21 51.046875 
Q 24.5625 53.03125 29.640625 53.03125 
Q 36.28125 53.03125 41.359375 49.609375 
Q 46.4375 46.1875 49.015625 39.953125 
Q 51.609375 33.734375 51.609375 26.3125 
Q 51.609375 18.359375 48.75 11.984375 
Q 45.90625 5.609375 40.453125 2.21875 
Q 35.015625 -1.171875 29 -1.171875 
Q 24.609375 -1.171875 21.109375 0.6875 
Q 17.625 2.546875 15.375 5.375 
L 15.375 -19.875 
z
M 14.546875 25.640625 
Q 14.546875 15.625 18.59375 10.84375 
Q 22.65625 6.0625 28.421875 6.0625 
Q 34.28125 6.0625 38.453125 11.015625 
Q 42.625 15.96875 42.625 26.375 
Q 42.625 36.28125 38.546875 41.203125 
Q 34.46875 46.140625 28.8125 46.140625 
Q 23.1875 46.140625 18.859375 40.890625 
Q 14.546875 35.640625 14.546875 25.640625 
z
" id="ArialMT-112"/>
     <path d="M 6.546875 61.375 
L 6.546875 71.578125 
L 15.328125 71.578125 
L 15.328125 61.375 
z
M -4.59375 -20.125 
L -2.9375 -12.640625 
Q -0.296875 -13.328125 1.21875 -13.328125 
Q 3.90625 -13.328125 5.21875 -11.546875 
Q 6.546875 -9.765625 6.546875 -2.640625 
L 6.546875 51.859375 
L 15.328125 51.859375 
L 15.328125 -2.828125 
Q 15.328125 -12.40625 12.84375 -16.15625 
Q 9.671875 -21.046875 2.296875 -21.046875 
Q -1.265625 -21.046875 -4.59375 -20.125 
z
" id="ArialMT-106"/>
     <path d="M 42.09375 16.703125 
L 51.171875 15.578125 
Q 49.03125 7.625 43.21875 3.21875 
Q 37.40625 -1.171875 28.375 -1.171875 
Q 17 -1.171875 10.328125 5.828125 
Q 3.65625 12.84375 3.65625 25.484375 
Q 3.65625 38.578125 10.390625 45.796875 
Q 17.140625 53.03125 27.875 53.03125 
Q 38.28125 53.03125 44.875 45.953125 
Q 51.46875 38.875 51.46875 26.03125 
Q 51.46875 25.25 51.421875 23.6875 
L 12.75 23.6875 
Q 13.234375 15.140625 17.578125 10.59375 
Q 21.921875 6.0625 28.421875 6.0625 
Q 33.25 6.0625 36.671875 8.59375 
Q 40.09375 11.140625 42.09375 16.703125 
z
M 13.234375 30.90625 
L 42.1875 30.90625 
Q 41.609375 37.453125 38.875 40.71875 
Q 34.671875 45.796875 27.984375 45.796875 
Q 21.921875 45.796875 17.796875 41.75 
Q 13.671875 37.703125 13.234375 30.90625 
z
" id="ArialMT-101"/>
     <path d="M 40.4375 19 
L 49.078125 17.875 
Q 47.65625 8.9375 41.8125 3.875 
Q 35.984375 -1.171875 27.484375 -1.171875 
Q 16.84375 -1.171875 10.375 5.78125 
Q 3.90625 12.75 3.90625 25.734375 
Q 3.90625 34.125 6.6875 40.421875 
Q 9.46875 46.734375 15.15625 49.875 
Q 20.84375 53.03125 27.546875 53.03125 
Q 35.984375 53.03125 41.359375 48.75 
Q 46.734375 44.484375 48.25 36.625 
L 39.703125 35.296875 
Q 38.484375 40.53125 35.375 43.15625 
Q 32.28125 45.796875 27.875 45.796875 
Q 21.234375 45.796875 17.078125 41.03125 
Q 12.9375 36.28125 12.9375 25.984375 
Q 12.9375 15.53125 16.9375 10.796875 
Q 20.953125 6.0625 27.390625 6.0625 
Q 32.5625 6.0625 36.03125 9.234375 
Q 39.5 12.40625 40.4375 19 
z
" id="ArialMT-99"/>
     <path d="M 40.234375 0 
L 40.234375 6.546875 
Q 35.296875 -1.171875 25.734375 -1.171875 
Q 19.53125 -1.171875 14.328125 2.25 
Q 9.125 5.671875 6.265625 11.796875 
Q 3.421875 17.921875 3.421875 25.875 
Q 3.421875 33.640625 6 39.96875 
Q 8.59375 46.296875 13.765625 49.65625 
Q 18.953125 53.03125 25.34375 53.03125 
Q 30.03125 53.03125 33.6875 51.046875 
Q 37.359375 49.078125 39.65625 45.90625 
L 39.65625 71.578125 
L 48.390625 71.578125 
L 48.390625 0 
z
M 12.453125 25.875 
Q 12.453125 15.921875 16.640625 10.984375 
Q 20.84375 6.0625 26.5625 6.0625 
Q 32.328125 6.0625 36.34375 10.765625 
Q 40.375 15.484375 40.375 25.140625 
Q 40.375 35.796875 36.265625 40.765625 
Q 32.171875 45.75 26.171875 45.75 
Q 20.3125 45.75 16.375 40.96875 
Q 12.453125 36.1875 12.453125 25.875 
z
" id="ArialMT-100"/>
     <path d="M 6.203125 -19.96875 
L 5.21875 -11.71875 
Q 8.109375 -12.5 10.25 -12.5 
Q 13.1875 -12.5 14.9375 -11.515625 
Q 16.703125 -10.546875 17.828125 -8.796875 
Q 18.65625 -7.46875 20.515625 -2.25 
Q 20.75 -1.515625 21.296875 -0.09375 
L 1.609375 51.859375 
L 11.078125 51.859375 
L 21.875 21.828125 
Q 23.96875 16.109375 25.640625 9.8125 
Q 27.15625 15.875 29.25 21.625 
L 40.328125 51.859375 
L 49.125 51.859375 
L 29.390625 -0.875 
Q 26.21875 -9.421875 24.46875 -12.640625 
Q 22.125 -17 19.09375 -19.015625 
Q 16.0625 -21.046875 11.859375 -21.046875 
Q 9.328125 -21.046875 6.203125 -19.96875 
z
" id="ArialMT-121"/>
     <path d="M 6.59375 0 
L 6.59375 51.859375 
L 14.453125 51.859375 
L 14.453125 44.578125 
Q 16.890625 48.390625 20.9375 50.703125 
Q 25 53.03125 30.171875 53.03125 
Q 35.9375 53.03125 39.625 50.640625 
Q 43.3125 48.25 44.828125 43.953125 
Q 50.984375 53.03125 60.84375 53.03125 
Q 68.5625 53.03125 72.703125 48.75 
Q 76.859375 44.484375 76.859375 35.59375 
L 76.859375 0 
L 68.109375 0 
L 68.109375 32.671875 
Q 68.109375 37.9375 67.25 40.25 
Q 66.40625 42.578125 64.15625 43.984375 
Q 61.921875 45.40625 58.890625 45.40625 
Q 53.421875 45.40625 49.796875 41.765625 
Q 46.1875 38.140625 46.1875 30.125 
L 46.1875 0 
L 37.40625 0 
L 37.40625 33.6875 
Q 37.40625 39.546875 35.25 42.46875 
Q 33.109375 45.40625 28.21875 45.40625 
Q 24.515625 45.40625 21.359375 43.453125 
Q 18.21875 41.5 16.796875 37.734375 
Q 15.375 33.984375 15.375 26.90625 
L 15.375 0 
z
" id="ArialMT-109"/>
     <path d="M 21 0 
L 1.265625 51.859375 
L 10.546875 51.859375 
L 21.6875 20.796875 
Q 23.484375 15.765625 25 10.359375 
Q 26.171875 14.453125 28.265625 20.21875 
L 39.796875 51.859375 
L 48.828125 51.859375 
L 29.203125 0 
z
" id="ArialMT-118"/>
     <path d="M 6.390625 0 
L 6.390625 71.578125 
L 15.1875 71.578125 
L 15.1875 0 
z
" id="ArialMT-108"/>
     <path d="M 6.59375 0 
L 6.59375 71.578125 
L 15.375 71.578125 
L 15.375 45.90625 
Q 21.53125 53.03125 30.90625 53.03125 
Q 36.671875 53.03125 40.921875 50.75 
Q 45.171875 48.484375 47 44.484375 
Q 48.828125 40.484375 48.828125 32.859375 
L 48.828125 0 
L 40.046875 0 
L 40.046875 32.859375 
Q 40.046875 39.453125 37.1875 42.453125 
Q 34.328125 45.453125 29.109375 45.453125 
Q 25.203125 45.453125 21.75 43.421875 
Q 18.3125 41.40625 16.84375 37.9375 
Q 15.375 34.46875 15.375 28.375 
L 15.375 0 
z
" id="ArialMT-104"/>
     <path d="M 3.171875 21.484375 
L 3.171875 30.328125 
L 30.171875 30.328125 
L 30.171875 21.484375 
z
" id="ArialMT-45"/>
     <path d="M 7.625 0 
L 7.625 71.578125 
L 17.328125 71.578125 
L 54.9375 15.375 
L 54.9375 71.578125 
L 64.015625 71.578125 
L 64.015625 0 
L 54.296875 0 
L 16.703125 56.25 
L 16.703125 0 
z
" id="ArialMT-78"/>
     <path d="M 16.15625 0 
L 0.296875 51.859375 
L 9.375 51.859375 
L 17.625 21.921875 
L 20.703125 10.796875 
Q 20.90625 11.625 23.390625 21.484375 
L 31.640625 51.859375 
L 40.671875 51.859375 
L 48.4375 21.78125 
L 51.03125 11.859375 
L 54 21.875 
L 62.890625 51.859375 
L 71.4375 51.859375 
L 55.21875 0 
L 46.09375 0 
L 37.84375 31.0625 
L 35.84375 39.890625 
L 25.34375 0 
z
" id="ArialMT-119"/>
     <path d="M 7.421875 0 
L 7.421875 71.578125 
L 21.6875 71.578125 
L 38.625 20.90625 
Q 40.96875 13.8125 42.046875 10.296875 
Q 43.265625 14.203125 45.84375 21.78125 
L 62.984375 71.578125 
L 75.734375 71.578125 
L 75.734375 0 
L 66.609375 0 
L 66.609375 59.90625 
L 45.796875 0 
L 37.25 0 
L 16.546875 60.9375 
L 16.546875 0 
z
" id="ArialMT-77"/>
     <path d="M -1.515625 -19.875 
L -1.515625 -13.53125 
L 56.734375 -13.53125 
L 56.734375 -19.875 
z
" id="ArialMT-95"/>
    </defs>
    <g style="fill:#262626;" transform="translate(89.110313 23.748375)scale(0.12 -0.12)">
     <use xlink:href="#ArialMT-68"/>
     <use x="72.216797" xlink:href="#ArialMT-105"/>
     <use x="94.433594" xlink:href="#ArialMT-115"/>
     <use x="144.433594" xlink:href="#ArialMT-116"/>
     <use x="172.216797" xlink:href="#ArialMT-114"/>
     <use x="205.517578" xlink:href="#ArialMT-105"/>
     <use x="227.734375" xlink:href="#ArialMT-98"/>
     <use x="283.349609" xlink:href="#ArialMT-117"/>
     <use x="338.964844" xlink:href="#ArialMT-116"/>
     <use x="366.748047" xlink:href="#ArialMT-105"/>
     <use x="388.964844" xlink:href="#ArialMT-111"/>
     <use x="444.580078" xlink:href="#ArialMT-110"/>
     <use x="500.195312" xlink:href="#ArialMT-32"/>
     <use x="527.978516" xlink:href="#ArialMT-111"/>
     <use x="583.59375" xlink:href="#ArialMT-102"/>
     <use x="611.376953" xlink:href="#ArialMT-32"/>
     <use x="639.160156" xlink:href="#ArialMT-112"/>
     <use x="694.775391" xlink:href="#ArialMT-114"/>
     <use x="728.076172" xlink:href="#ArialMT-111"/>
     <use x="783.691406" xlink:href="#ArialMT-106"/>
     <use x="805.908203" xlink:href="#ArialMT-101"/>
     <use x="861.523438" xlink:href="#ArialMT-99"/>
     <use x="911.523438" xlink:href="#ArialMT-116"/>
     <use x="939.306641" xlink:href="#ArialMT-101"/>
     <use x="994.921875" xlink:href="#ArialMT-100"/>
     <use x="1050.537109" xlink:href="#ArialMT-32"/>
     <use x="1078.320312" xlink:href="#ArialMT-101"/>
     <use x="1133.935547" xlink:href="#ArialMT-121"/>
     <use x="1183.935547" xlink:href="#ArialMT-101"/>
     <use x="1239.550781" xlink:href="#ArialMT-32"/>
     <use x="1267.333984" xlink:href="#ArialMT-109"/>
     <use x="1350.634766" xlink:href="#ArialMT-111"/>
     <use x="1406.25" xlink:href="#ArialMT-118"/>
     <use x="1456.25" xlink:href="#ArialMT-101"/>
     <use x="1511.865234" xlink:href="#ArialMT-109"/>
     <use x="1595.166016" xlink:href="#ArialMT-101"/>
     <use x="1650.78125" xlink:href="#ArialMT-110"/>
     <use x="1706.396484" xlink:href="#ArialMT-116"/>
     <use x="1734.179688" xlink:href="#ArialMT-32"/>
     <use x="1761.962891" xlink:href="#ArialMT-118"/>
     <use x="1811.962891" xlink:href="#ArialMT-101"/>
     <use x="1867.578125" xlink:href="#ArialMT-108"/>
     <use x="1889.794922" xlink:href="#ArialMT-111"/>
     <use x="1945.410156" xlink:href="#ArialMT-99"/>
     <use x="1995.410156" xlink:href="#ArialMT-105"/>
     <use x="2017.626953" xlink:href="#ArialMT-116"/>
     <use x="2045.410156" xlink:href="#ArialMT-121"/>
     <use x="2095.410156" xlink:href="#ArialMT-32"/>
     <use x="2123.193359" xlink:href="#ArialMT-111"/>
     <use x="2178.808594" xlink:href="#ArialMT-110"/>
     <use x="2234.423828" xlink:href="#ArialMT-32"/>
     <use x="2262.207031" xlink:href="#ArialMT-116"/>
     <use x="2289.990234" xlink:href="#ArialMT-104"/>
     <use x="2345.605469" xlink:href="#ArialMT-101"/>
     <use x="2401.220703" xlink:href="#ArialMT-32"/>
     <use x="2429.003906" xlink:href="#ArialMT-115"/>
     <use x="2479.003906" xlink:href="#ArialMT-99"/>
     <use x="2529.003906" xlink:href="#ArialMT-114"/>
     <use x="2562.304688" xlink:href="#ArialMT-101"/>
     <use x="2617.919922" xlink:href="#ArialMT-101"/>
     <use x="2673.535156" xlink:href="#ArialMT-110"/>
     <use x="2729.150391" xlink:href="#ArialMT-32"/>
     <use x="2756.933594" xlink:href="#ArialMT-45"/>
     <use x="2790.234375" xlink:href="#ArialMT-32"/>
     <use x="2818.017578" xlink:href="#ArialMT-78"/>
     <use x="2890.234375" xlink:href="#ArialMT-101"/>
     <use x="2945.849609" xlink:href="#ArialMT-119"/>
     <use x="3018.066406" xlink:href="#ArialMT-77"/>
     <use x="3101.367188" xlink:href="#ArialMT-52"/>
     <use x="3156.982422" xlink:href="#ArialMT-95"/>
     <use x="3212.597656" xlink:href="#ArialMT-57"/>
     <use x="3268.212891" xlink:href="#ArialMT-95"/>
     <use x="3323.828125" xlink:href="#ArialMT-50"/>
     <use x="3379.443359" xlink:href="#ArialMT-51"/>
    </g>
   </g>
   <g id="legend_1">
    <g id="line2d_17">
     <path d="M 199.485938 60.2075 
L 219.485938 60.2075 
" style="fill:none;stroke:#ff0000;stroke-dasharray:7.4,3.2;stroke-dashoffset:0;stroke-width:2;"/>
    </g>
    <g id="line2d_18"/>
    <g id="text_17">
     <!-- Average angle in light: -8.26 degrees -->
     <defs>
      <path d="M -0.140625 0 
L 27.34375 71.578125 
L 37.546875 71.578125 
L 66.84375 0 
L 56.0625 0 
L 47.703125 21.6875 
L 17.78125 21.6875 
L 9.90625 0 
z
M 20.515625 29.390625 
L 44.78125 29.390625 
L 37.3125 49.21875 
Q 33.890625 58.25 32.234375 64.0625 
Q 30.859375 57.171875 28.375 50.390625 
z
" id="ArialMT-65"/>
      <path d="M 40.4375 6.390625 
Q 35.546875 2.25 31.03125 0.53125 
Q 26.515625 -1.171875 21.34375 -1.171875 
Q 12.796875 -1.171875 8.203125 3 
Q 3.609375 7.171875 3.609375 13.671875 
Q 3.609375 17.484375 5.34375 20.625 
Q 7.078125 23.78125 9.890625 25.6875 
Q 12.703125 27.59375 16.21875 28.5625 
Q 18.796875 29.25 24.03125 29.890625 
Q 34.671875 31.15625 39.703125 32.90625 
Q 39.75 34.71875 39.75 35.203125 
Q 39.75 40.578125 37.25 42.78125 
Q 33.890625 45.75 27.25 45.75 
Q 21.046875 45.75 18.09375 43.578125 
Q 15.140625 41.40625 13.71875 35.890625 
L 5.125 37.0625 
Q 6.296875 42.578125 8.984375 45.96875 
Q 11.671875 49.359375 16.75 51.1875 
Q 21.828125 53.03125 28.515625 53.03125 
Q 35.15625 53.03125 39.296875 51.46875 
Q 43.453125 49.90625 45.40625 47.53125 
Q 47.359375 45.171875 48.140625 41.546875 
Q 48.578125 39.3125 48.578125 33.453125 
L 48.578125 21.734375 
Q 48.578125 9.46875 49.140625 6.21875 
Q 49.703125 2.984375 51.375 0 
L 42.1875 0 
Q 40.828125 2.734375 40.4375 6.390625 
z
M 39.703125 26.03125 
Q 34.90625 24.078125 25.34375 22.703125 
Q 19.921875 21.921875 17.671875 20.9375 
Q 15.4375 19.96875 14.203125 18.09375 
Q 12.984375 16.21875 12.984375 13.921875 
Q 12.984375 10.40625 15.640625 8.0625 
Q 18.3125 5.71875 23.4375 5.71875 
Q 28.515625 5.71875 32.46875 7.9375 
Q 36.421875 10.15625 38.28125 14.015625 
Q 39.703125 17 39.703125 22.796875 
z
" id="ArialMT-97"/>
      <path d="M 4.984375 -4.296875 
L 13.53125 -5.5625 
Q 14.0625 -9.515625 16.5 -11.328125 
Q 19.78125 -13.765625 25.4375 -13.765625 
Q 31.546875 -13.765625 34.859375 -11.328125 
Q 38.1875 -8.890625 39.359375 -4.5 
Q 40.046875 -1.8125 39.984375 6.78125 
Q 34.234375 0 25.640625 0 
Q 14.9375 0 9.078125 7.71875 
Q 3.21875 15.4375 3.21875 26.21875 
Q 3.21875 33.640625 5.90625 39.90625 
Q 8.59375 46.1875 13.6875 49.609375 
Q 18.796875 53.03125 25.6875 53.03125 
Q 34.859375 53.03125 40.828125 45.609375 
L 40.828125 51.859375 
L 48.921875 51.859375 
L 48.921875 7.03125 
Q 48.921875 -5.078125 46.453125 -10.125 
Q 44 -15.1875 38.640625 -18.109375 
Q 33.296875 -21.046875 25.484375 -21.046875 
Q 16.21875 -21.046875 10.5 -16.875 
Q 4.78125 -12.703125 4.984375 -4.296875 
z
M 12.25 26.859375 
Q 12.25 16.65625 16.296875 11.96875 
Q 20.359375 7.28125 26.46875 7.28125 
Q 32.515625 7.28125 36.609375 11.9375 
Q 40.71875 16.609375 40.71875 26.5625 
Q 40.71875 36.078125 36.5 40.90625 
Q 32.28125 45.75 26.3125 45.75 
Q 20.453125 45.75 16.34375 40.984375 
Q 12.25 36.234375 12.25 26.859375 
z
" id="ArialMT-103"/>
      <path d="M 9.03125 41.84375 
L 9.03125 51.859375 
L 19.046875 51.859375 
L 19.046875 41.84375 
z
M 9.03125 0 
L 9.03125 10.015625 
L 19.046875 10.015625 
L 19.046875 0 
z
" id="ArialMT-58"/>
     </defs>
     <g style="fill:#262626;" transform="translate(227.485938 63.7075)scale(0.1 -0.1)">
      <use xlink:href="#ArialMT-65"/>
      <use x="66.683594" xlink:href="#ArialMT-118"/>
      <use x="116.683594" xlink:href="#ArialMT-101"/>
      <use x="172.298828" xlink:href="#ArialMT-114"/>
      <use x="205.599609" xlink:href="#ArialMT-97"/>
      <use x="261.214844" xlink:href="#ArialMT-103"/>
      <use x="316.830078" xlink:href="#ArialMT-101"/>
      <use x="372.445312" xlink:href="#ArialMT-32"/>
      <use x="400.228516" xlink:href="#ArialMT-97"/>
      <use x="455.84375" xlink:href="#ArialMT-110"/>
      <use x="511.458984" xlink:href="#ArialMT-103"/>
      <use x="567.074219" xlink:href="#ArialMT-108"/>
      <use x="589.291016" xlink:href="#ArialMT-101"/>
      <use x="644.90625" xlink:href="#ArialMT-32"/>
      <use x="672.689453" xlink:href="#ArialMT-105"/>
      <use x="694.90625" xlink:href="#ArialMT-110"/>
      <use x="750.521484" xlink:href="#ArialMT-32"/>
      <use x="778.304688" xlink:href="#ArialMT-108"/>
      <use x="800.521484" xlink:href="#ArialMT-105"/>
      <use x="822.738281" xlink:href="#ArialMT-103"/>
      <use x="878.353516" xlink:href="#ArialMT-104"/>
      <use x="933.96875" xlink:href="#ArialMT-116"/>
      <use x="961.751953" xlink:href="#ArialMT-58"/>
      <use x="989.535156" xlink:href="#ArialMT-32"/>
      <use x="1017.318359" xlink:href="#ArialMT-45"/>
      <use x="1050.619141" xlink:href="#ArialMT-56"/>
      <use x="1106.234375" xlink:href="#ArialMT-46"/>
      <use x="1134.017578" xlink:href="#ArialMT-50"/>
      <use x="1189.632812" xlink:href="#ArialMT-54"/>
      <use x="1245.248047" xlink:href="#ArialMT-32"/>
      <use x="1273.03125" xlink:href="#ArialMT-100"/>
      <use x="1328.646484" xlink:href="#ArialMT-101"/>
      <use x="1384.261719" xlink:href="#ArialMT-103"/>
      <use x="1439.876953" xlink:href="#ArialMT-114"/>
      <use x="1473.177734" xlink:href="#ArialMT-101"/>
      <use x="1528.792969" xlink:href="#ArialMT-101"/>
      <use x="1584.408203" xlink:href="#ArialMT-115"/>
     </g>
    </g>
    <g id="PathCollection_4">
     <g>
      <use style="fill:#4c72b0;stroke:#4c72b0;stroke-width:0.3;" x="209.485938" xlink:href="#m532c42dc06" y="75.345"/>
     </g>
    </g>
    <g id="text_18">
     <!-- $-0.5 &lt; t &lt; 0.$ -->
     <defs>
      <path d="M 10.59375 35.5 
L 73.1875 35.5 
L 73.1875 27.203125 
L 10.59375 27.203125 
z
" id="DejaVuSans-8722"/>
      <path d="M 31.78125 66.40625 
Q 24.171875 66.40625 20.328125 58.90625 
Q 16.5 51.421875 16.5 36.375 
Q 16.5 21.390625 20.328125 13.890625 
Q 24.171875 6.390625 31.78125 6.390625 
Q 39.453125 6.390625 43.28125 13.890625 
Q 47.125 21.390625 47.125 36.375 
Q 47.125 51.421875 43.28125 58.90625 
Q 39.453125 66.40625 31.78125 66.40625 
z
M 31.78125 74.21875 
Q 44.046875 74.21875 50.515625 64.515625 
Q 56.984375 54.828125 56.984375 36.375 
Q 56.984375 17.96875 50.515625 8.265625 
Q 44.046875 -1.421875 31.78125 -1.421875 
Q 19.53125 -1.421875 13.0625 8.265625 
Q 6.59375 17.96875 6.59375 36.375 
Q 6.59375 54.828125 13.0625 64.515625 
Q 19.53125 74.21875 31.78125 74.21875 
z
" id="DejaVuSans-48"/>
      <path d="M 10.6875 12.40625 
L 21 12.40625 
L 21 0 
L 10.6875 0 
z
" id="DejaVuSans-46"/>
      <path d="M 10.796875 72.90625 
L 49.515625 72.90625 
L 49.515625 64.59375 
L 19.828125 64.59375 
L 19.828125 46.734375 
Q 21.96875 47.46875 24.109375 47.828125 
Q 26.265625 48.1875 28.421875 48.1875 
Q 40.625 48.1875 47.75 41.5 
Q 54.890625 34.8125 54.890625 23.390625 
Q 54.890625 11.625 47.5625 5.09375 
Q 40.234375 -1.421875 26.90625 -1.421875 
Q 22.3125 -1.421875 17.546875 -0.640625 
Q 12.796875 0.140625 7.71875 1.703125 
L 7.71875 11.625 
Q 12.109375 9.234375 16.796875 8.0625 
Q 21.484375 6.890625 26.703125 6.890625 
Q 35.15625 6.890625 40.078125 11.328125 
Q 45.015625 15.765625 45.015625 23.390625 
Q 45.015625 31 40.078125 35.4375 
Q 35.15625 39.890625 26.703125 39.890625 
Q 22.75 39.890625 18.8125 39.015625 
Q 14.890625 38.140625 10.796875 36.28125 
z
" id="DejaVuSans-53"/>
      <path d="M 73.1875 49.21875 
L 22.796875 31.296875 
L 73.1875 13.484375 
L 73.1875 4.59375 
L 10.59375 27.296875 
L 10.59375 35.40625 
L 73.1875 58.109375 
z
" id="DejaVuSans-60"/>
      <path d="M 42.28125 54.6875 
L 40.921875 47.703125 
L 23 47.703125 
L 17.1875 18.015625 
Q 16.890625 16.359375 16.75 15.234375 
Q 16.609375 14.109375 16.609375 13.484375 
Q 16.609375 10.359375 18.484375 8.9375 
Q 20.359375 7.515625 24.515625 7.515625 
L 33.59375 7.515625 
L 32.078125 0 
L 23.484375 0 
Q 15.484375 0 11.546875 3.125 
Q 7.625 6.25 7.625 12.59375 
Q 7.625 13.71875 7.765625 15.0625 
Q 7.90625 16.40625 8.203125 18.015625 
L 14.015625 47.703125 
L 6.390625 47.703125 
L 7.8125 54.6875 
L 15.28125 54.6875 
L 18.3125 70.21875 
L 27.296875 70.21875 
L 24.3125 54.6875 
z
" id="DejaVuSans-Oblique-116"/>
     </defs>
     <g style="fill:#262626;" transform="translate(227.485938 77.97)scale(0.1 -0.1)">
      <use transform="translate(0 0.78125)" xlink:href="#DejaVuSans-8722"/>
      <use transform="translate(83.789062 0.78125)" xlink:href="#DejaVuSans-48"/>
      <use transform="translate(147.412109 0.78125)" xlink:href="#DejaVuSans-46"/>
      <use transform="translate(179.199219 0.78125)" xlink:href="#DejaVuSans-53"/>
      <use transform="translate(262.304688 0.78125)" xlink:href="#DejaVuSans-60"/>
      <use transform="translate(365.576172 0.78125)" xlink:href="#DejaVuSans-Oblique-116"/>
      <use transform="translate(424.267578 0.78125)" xlink:href="#DejaVuSans-60"/>
      <use transform="translate(527.539062 0.78125)" xlink:href="#DejaVuSans-48"/>
     </g>
    </g>
    <g id="PathCollection_5">
     <g>
      <use style="fill:#55a868;stroke:#55a868;stroke-width:0.3;" x="209.485938" xlink:href="#mb9232b6420" y="89.490312"/>
     </g>
    </g>
    <g id="text_19">
     <!-- $0. &lt; t &lt; 0.5$ -->
     <g style="fill:#262626;" transform="translate(227.485938 92.115312)scale(0.1 -0.1)">
      <use transform="translate(0 0.78125)" xlink:href="#DejaVuSans-48"/>
      <use transform="translate(63.623047 0.78125)" xlink:href="#DejaVuSans-46"/>
      <use transform="translate(134.375 0.78125)" xlink:href="#DejaVuSans-60"/>
      <use transform="translate(237.646484 0.78125)" xlink:href="#DejaVuSans-Oblique-116"/>
      <use transform="translate(296.337891 0.78125)" xlink:href="#DejaVuSans-60"/>
      <use transform="translate(399.609375 0.78125)" xlink:href="#DejaVuSans-48"/>
      <use transform="translate(463.232422 0.78125)" xlink:href="#DejaVuSans-46"/>
      <use transform="translate(495.019531 0.78125)" xlink:href="#DejaVuSans-53"/>
     </g>
    </g>
    <g id="PathCollection_6">
     <g>
      <use style="fill:#c44e52;stroke:#c44e52;stroke-width:0.3;" x="209.485938" xlink:href="#m472f19abb9" y="103.635625"/>
     </g>
    </g>
    <g id="text_20">
     <!-- $0.5 &lt; t &lt; 1.$ -->
     <defs>
      <path d="M 12.40625 8.296875 
L 28.515625 8.296875 
L 28.515625 63.921875 
L 10.984375 60.40625 
L 10.984375 69.390625 
L 28.421875 72.90625 
L 38.28125 72.90625 
L 38.28125 8.296875 
L 54.390625 8.296875 
L 54.390625 0 
L 12.40625 0 
z
" id="DejaVuSans-49"/>
     </defs>
     <g style="fill:#262626;" transform="translate(227.485938 106.260625)scale(0.1 -0.1)">
      <use transform="translate(0 0.78125)" xlink:href="#DejaVuSans-48"/>
      <use transform="translate(63.623047 0.78125)" xlink:href="#DejaVuSans-46"/>
      <use transform="translate(95.410156 0.78125)" xlink:href="#DejaVuSans-53"/>
      <use transform="translate(178.515625 0.78125)" xlink:href="#DejaVuSans-60"/>
      <use transform="translate(281.787109 0.78125)" xlink:href="#DejaVuSans-Oblique-116"/>
      <use transform="translate(340.478516 0.78125)" xlink:href="#DejaVuSans-60"/>
      <use transform="translate(443.75 0.78125)" xlink:href="#DejaVuSans-49"/>
     </g>
    </g>
   </g>
  </g>
 </g>
 <defs>
  <clipPath id="p83f02daf9d">
   <path d="M 447.66 199.98 
C 447.66 179.959136 443.716326 160.13295 436.054674 141.636084 
C 428.393021 123.139218 417.162388 106.331389 403.0055 92.1745 
C 388.848611 78.017612 372.040782 66.786979 353.543916 59.125326 
C 335.04705 51.463674 315.220864 47.52 295.2 47.52 
C 275.179136 47.52 255.35295 51.463674 236.856084 59.125326 
C 218.359218 66.786979 201.551389 78.017612 187.3945 92.1745 
C 173.237612 106.331389 162.006979 123.139218 154.345326 141.636084 
C 146.683674 160.13295 142.74 179.959136 142.74 199.98 
C 142.74 220.000864 146.683674 239.82705 154.345326 258.323916 
C 162.006979 276.820782 173.237612 293.628611 187.3945 307.7855 
C 201.551389 321.942388 218.359218 333.173021 236.856084 340.834674 
C 255.35295 348.496326 275.179136 352.44 295.2 352.44 
C 315.220864 352.44 335.04705 348.496326 353.543916 340.834674 
C 372.040782 333.173021 388.848611 321.942388 403.0055 307.7855 
C 417.162388 293.628611 428.393021 276.820782 436.054674 258.323916 
C 443.716326 239.82705 447.66 220.000864 447.66 199.98 
M 295.2 199.98 
C 295.2 199.98 295.2 199.98 295.2 199.98 
C 295.2 199.98 295.2 199.98 295.2 199.98 
C 295.2 199.98 295.2 199.98 295.2 199.98 
C 295.2 199.98 295.2 199.98 295.2 199.98 
C 295.2 199.98 295.2 199.98 295.2 199.98 
C 295.2 199.98 295.2 199.98 295.2 199.98 
C 295.2 199.98 295.2 199.98 295.2 199.98 
C 295.2 199.98 295.2 199.98 295.2 199.98 
C 295.2 199.98 295.2 199.98 295.2 199.98 
C 295.2 199.98 295.2 199.98 295.2 199.98 
C 295.2 199.98 295.2 199.98 295.2 199.98 
C 295.2 199.98 295.2 199.98 295.2 199.98 
C 295.2 199.98 295.2 199.98 295.2 199.98 
C 295.2 199.98 295.2 199.98 295.2 199.98 
C 295.2 199.98 295.2 199.98 295.2 199.98 
C 295.2 199.98 295.2 199.98 295.2 199.98 
M 447.66 199.98 
z
"/>
  </clipPath>
 </defs>
</svg>
