<?xml version="1.0" encoding="utf-8" standalone="no"?>
<!DOCTYPE svg PUBLIC "-//W3C//DTD SVG 1.1//EN"
  "http://www.w3.org/Graphics/SVG/1.1/DTD/svg11.dtd">
<!-- Created with matplotlib (https://matplotlib.org/) -->
<svg height="396pt" version="1.1" viewBox="0 0 576 396" width="576pt" xmlns="http://www.w3.org/2000/svg" xmlns:xlink="http://www.w3.org/1999/xlink">
 <defs>
  <style type="text/css">
*{stroke-linecap:butt;stroke-linejoin:round;}
  </style>
 </defs>
 <g id="figure_1">
  <g id="patch_1">
   <path d="M 0 396 
L 576 396 
L 576 0 
L 0 0 
z
" style="fill:#ffffff;"/>
  </g>
  <g id="axes_1">
   <g id="patch_2">
    <path d="M 447.66 199.98 
C 447.66 179.959136 443.716326 160.13295 436.054674 141.636084 
C 428.393021 123.139218 417.162388 106.331389 403.0055 92.1745 
C 388.848611 78.017612 372.040782 66.786979 353.543916 59.125326 
C 335.04705 51.463674 315.220864 47.52 295.2 47.52 
C 275.179136 47.52 255.35295 51.463674 236.856084 59.125326 
C 218.359218 66.786979 201.551389 78.017612 187.3945 92.1745 
C 173.237612 106.331389 162.006979 123.139218 154.345326 141.636084 
C 146.683674 160.13295 142.74 179.959136 142.74 199.98 
C 142.74 220.000864 146.683674 239.82705 154.345326 258.323916 
C 162.006979 276.820782 173.237612 293.628611 187.3945 307.7855 
C 201.551389 321.942388 218.359218 333.173021 236.856084 340.834674 
C 255.35295 348.496326 275.179136 352.44 295.2 352.44 
C 315.220864 352.44 335.04705 348.496326 353.543916 340.834674 
C 372.040782 333.173021 388.848611 321.942388 403.0055 307.7855 
C 417.162388 293.628611 428.393021 276.820782 436.054674 258.323916 
C 443.716326 239.82705 447.66 220.000864 447.66 199.98 
M 295.2 199.98 
C 295.2 199.98 295.2 199.98 295.2 199.98 
C 295.2 199.98 295.2 199.98 295.2 199.98 
C 295.2 199.98 295.2 199.98 295.2 199.98 
C 295.2 199.98 295.2 199.98 295.2 199.98 
C 295.2 199.98 295.2 199.98 295.2 199.98 
C 295.2 199.98 295.2 199.98 295.2 199.98 
C 295.2 199.98 295.2 199.98 295.2 199.98 
C 295.2 199.98 295.2 199.98 295.2 199.98 
C 295.2 199.98 295.2 199.98 295.2 199.98 
C 295.2 199.98 295.2 199.98 295.2 199.98 
C 295.2 199.98 295.2 199.98 295.2 199.98 
C 295.2 199.98 295.2 199.98 295.2 199.98 
C 295.2 199.98 295.2 199.98 295.2 199.98 
C 295.2 199.98 295.2 199.98 295.2 199.98 
C 295.2 199.98 295.2 199.98 295.2 199.98 
C 295.2 199.98 295.2 199.98 295.2 199.98 
M 447.66 199.98 
z
" style="fill:#eaeaf2;"/>
   </g>
   <g id="matplotlib.axis_1">
    <g id="xtick_1">
     <g id="line2d_1">
      <path clip-path="url(#p98a0cf1717)" d="M 295.2 199.98 
L 447.66 199.98 
" style="fill:none;stroke:#ffffff;stroke-linecap:round;"/>
     </g>
     <g id="text_1">
      <!-- 0° -->
      <defs>
       <path d="M 4.15625 35.296875 
Q 4.15625 48 6.765625 55.734375 
Q 9.375 63.484375 14.515625 67.671875 
Q 19.671875 71.875 27.484375 71.875 
Q 33.25 71.875 37.59375 69.546875 
Q 41.9375 67.234375 44.765625 62.859375 
Q 47.609375 58.5 49.21875 52.21875 
Q 50.828125 45.953125 50.828125 35.296875 
Q 50.828125 22.703125 48.234375 14.96875 
Q 45.65625 7.234375 40.5 3 
Q 35.359375 -1.21875 27.484375 -1.21875 
Q 17.140625 -1.21875 11.234375 6.203125 
Q 4.15625 15.140625 4.15625 35.296875 
z
M 13.1875 35.296875 
Q 13.1875 17.671875 17.3125 11.828125 
Q 21.4375 6 27.484375 6 
Q 33.546875 6 37.671875 11.859375 
Q 41.796875 17.71875 41.796875 35.296875 
Q 41.796875 52.984375 37.671875 58.78125 
Q 33.546875 64.59375 27.390625 64.59375 
Q 21.34375 64.59375 17.71875 59.46875 
Q 13.1875 52.9375 13.1875 35.296875 
z
" id="ArialMT-48"/>
       <path d="M 6.25 59.28125 
Q 6.25 64.890625 10.21875 68.84375 
Q 14.203125 72.796875 19.78125 72.796875 
Q 25.4375 72.796875 29.390625 68.84375 
Q 33.34375 64.890625 33.34375 59.28125 
Q 33.34375 53.65625 29.359375 49.671875 
Q 25.390625 45.703125 19.78125 45.703125 
Q 14.203125 45.703125 10.21875 49.65625 
Q 6.25 53.609375 6.25 59.28125 
z
M 11.578125 59.28125 
Q 11.578125 55.859375 13.984375 53.4375 
Q 16.40625 51.03125 19.828125 51.03125 
Q 23.1875 51.03125 25.609375 53.4375 
Q 28.03125 55.859375 28.03125 59.28125 
Q 28.03125 62.703125 25.609375 65.109375 
Q 23.1875 67.53125 19.828125 67.53125 
Q 16.40625 67.53125 13.984375 65.109375 
Q 11.578125 62.703125 11.578125 59.28125 
z
" id="ArialMT-176"/>
      </defs>
      <g style="fill:#262626;" transform="translate(456.880313 202.565156)scale(0.1 -0.1)">
       <use xlink:href="#ArialMT-48"/>
       <use x="55.615234" xlink:href="#ArialMT-176"/>
      </g>
     </g>
    </g>
    <g id="xtick_2">
     <g id="line2d_2">
      <path clip-path="url(#p98a0cf1717)" d="M 295.2 199.98 
L 403.0055 92.1745 
" style="fill:none;stroke:#ffffff;stroke-linecap:round;"/>
     </g>
     <g id="text_2">
      <!-- 45° -->
      <defs>
       <path d="M 32.328125 0 
L 32.328125 17.140625 
L 1.265625 17.140625 
L 1.265625 25.203125 
L 33.9375 71.578125 
L 41.109375 71.578125 
L 41.109375 25.203125 
L 50.78125 25.203125 
L 50.78125 17.140625 
L 41.109375 17.140625 
L 41.109375 0 
z
M 32.328125 25.203125 
L 32.328125 57.46875 
L 9.90625 25.203125 
z
" id="ArialMT-52"/>
       <path d="M 4.15625 18.75 
L 13.375 19.53125 
Q 14.40625 12.796875 18.140625 9.390625 
Q 21.875 6 27.15625 6 
Q 33.5 6 37.890625 10.78125 
Q 42.28125 15.578125 42.28125 23.484375 
Q 42.28125 31 38.0625 35.34375 
Q 33.84375 39.703125 27 39.703125 
Q 22.75 39.703125 19.328125 37.765625 
Q 15.921875 35.84375 13.96875 32.765625 
L 5.71875 33.84375 
L 12.640625 70.609375 
L 48.25 70.609375 
L 48.25 62.203125 
L 19.671875 62.203125 
L 15.828125 42.96875 
Q 22.265625 47.46875 29.34375 47.46875 
Q 38.71875 47.46875 45.15625 40.96875 
Q 51.609375 34.46875 51.609375 24.265625 
Q 51.609375 14.546875 45.953125 7.46875 
Q 39.0625 -1.21875 27.15625 -1.21875 
Q 17.390625 -1.21875 11.203125 4.25 
Q 5.03125 9.71875 4.15625 18.75 
z
" id="ArialMT-53"/>
      </defs>
      <g style="fill:#262626;" transform="translate(405.344839 84.860161)scale(0.1 -0.1)">
       <use xlink:href="#ArialMT-52"/>
       <use x="55.615234" xlink:href="#ArialMT-53"/>
       <use x="111.230469" xlink:href="#ArialMT-176"/>
      </g>
     </g>
    </g>
    <g id="xtick_3">
     <g id="line2d_3">
      <path clip-path="url(#p98a0cf1717)" d="M 295.2 199.98 
L 295.2 47.52 
" style="fill:none;stroke:#ffffff;stroke-linecap:round;"/>
     </g>
     <g id="text_3">
      <!-- 90° -->
      <defs>
       <path d="M 5.46875 16.546875 
L 13.921875 17.328125 
Q 14.984375 11.375 18.015625 8.6875 
Q 21.046875 6 25.78125 6 
Q 29.828125 6 32.875 7.859375 
Q 35.9375 9.71875 37.890625 12.8125 
Q 39.84375 15.921875 41.15625 21.1875 
Q 42.484375 26.46875 42.484375 31.9375 
Q 42.484375 32.515625 42.4375 33.6875 
Q 39.796875 29.5 35.234375 26.875 
Q 30.671875 24.265625 25.34375 24.265625 
Q 16.453125 24.265625 10.296875 30.703125 
Q 4.15625 37.15625 4.15625 47.703125 
Q 4.15625 58.59375 10.578125 65.234375 
Q 17 71.875 26.65625 71.875 
Q 33.640625 71.875 39.421875 68.109375 
Q 45.21875 64.359375 48.21875 57.390625 
Q 51.21875 50.4375 51.21875 37.25 
Q 51.21875 23.53125 48.234375 15.40625 
Q 45.265625 7.28125 39.375 3.03125 
Q 33.5 -1.21875 25.59375 -1.21875 
Q 17.1875 -1.21875 11.859375 3.4375 
Q 6.546875 8.109375 5.46875 16.546875 
z
M 41.453125 48.140625 
Q 41.453125 55.71875 37.421875 60.15625 
Q 33.40625 64.59375 27.734375 64.59375 
Q 21.875 64.59375 17.53125 59.8125 
Q 13.1875 55.03125 13.1875 47.40625 
Q 13.1875 40.578125 17.3125 36.296875 
Q 21.4375 32.03125 27.484375 32.03125 
Q 33.59375 32.03125 37.515625 36.296875 
Q 41.453125 40.578125 41.453125 48.140625 
z
" id="ArialMT-57"/>
      </defs>
      <g style="fill:#262626;" transform="translate(287.639844 36.105156)scale(0.1 -0.1)">
       <use xlink:href="#ArialMT-57"/>
       <use x="55.615234" xlink:href="#ArialMT-48"/>
       <use x="111.230469" xlink:href="#ArialMT-176"/>
      </g>
     </g>
    </g>
    <g id="xtick_4">
     <g id="line2d_4">
      <path clip-path="url(#p98a0cf1717)" d="M 295.2 199.98 
L 187.3945 92.1745 
" style="fill:none;stroke:#ffffff;stroke-linecap:round;"/>
     </g>
     <g id="text_4">
      <!-- 135° -->
      <defs>
       <path d="M 37.25 0 
L 28.46875 0 
L 28.46875 56 
Q 25.296875 52.984375 20.140625 49.953125 
Q 14.984375 46.921875 10.890625 45.40625 
L 10.890625 53.90625 
Q 18.265625 57.375 23.78125 62.296875 
Q 29.296875 67.234375 31.59375 71.875 
L 37.25 71.875 
z
" id="ArialMT-49"/>
       <path d="M 4.203125 18.890625 
L 12.984375 20.0625 
Q 14.5 12.59375 18.140625 9.296875 
Q 21.78125 6 27 6 
Q 33.203125 6 37.46875 10.296875 
Q 41.75 14.59375 41.75 20.953125 
Q 41.75 27 37.796875 30.921875 
Q 33.84375 34.859375 27.734375 34.859375 
Q 25.25 34.859375 21.53125 33.890625 
L 22.515625 41.609375 
Q 23.390625 41.5 23.921875 41.5 
Q 29.546875 41.5 34.03125 44.421875 
Q 38.53125 47.359375 38.53125 53.46875 
Q 38.53125 58.296875 35.25 61.46875 
Q 31.984375 64.65625 26.8125 64.65625 
Q 21.6875 64.65625 18.265625 61.421875 
Q 14.84375 58.203125 13.875 51.765625 
L 5.078125 53.328125 
Q 6.6875 62.15625 12.390625 67.015625 
Q 18.109375 71.875 26.609375 71.875 
Q 32.46875 71.875 37.390625 69.359375 
Q 42.328125 66.84375 44.9375 62.5 
Q 47.5625 58.15625 47.5625 53.265625 
Q 47.5625 48.640625 45.0625 44.828125 
Q 42.578125 41.015625 37.703125 38.765625 
Q 44.046875 37.3125 47.5625 32.6875 
Q 51.078125 28.078125 51.078125 21.140625 
Q 51.078125 11.765625 44.234375 5.25 
Q 37.40625 -1.265625 26.953125 -1.265625 
Q 17.53125 -1.265625 11.296875 4.34375 
Q 5.078125 9.96875 4.203125 18.890625 
z
" id="ArialMT-51"/>
      </defs>
      <g style="fill:#262626;" transform="translate(167.15438 84.860161)scale(0.1 -0.1)">
       <use xlink:href="#ArialMT-49"/>
       <use x="55.615234" xlink:href="#ArialMT-51"/>
       <use x="111.230469" xlink:href="#ArialMT-53"/>
       <use x="166.845703" xlink:href="#ArialMT-176"/>
      </g>
     </g>
    </g>
    <g id="xtick_5">
     <g id="line2d_5">
      <path clip-path="url(#p98a0cf1717)" d="M 295.2 199.98 
L 142.74 199.98 
" style="fill:none;stroke:#ffffff;stroke-linecap:round;"/>
     </g>
     <g id="text_5">
      <!-- 180° -->
      <defs>
       <path d="M 17.671875 38.8125 
Q 12.203125 40.828125 9.5625 44.53125 
Q 6.9375 48.25 6.9375 53.421875 
Q 6.9375 61.234375 12.546875 66.546875 
Q 18.171875 71.875 27.484375 71.875 
Q 36.859375 71.875 42.578125 66.421875 
Q 48.296875 60.984375 48.296875 53.171875 
Q 48.296875 48.1875 45.671875 44.5 
Q 43.0625 40.828125 37.75 38.8125 
Q 44.34375 36.671875 47.78125 31.875 
Q 51.21875 27.09375 51.21875 20.453125 
Q 51.21875 11.28125 44.71875 5.03125 
Q 38.234375 -1.21875 27.640625 -1.21875 
Q 17.046875 -1.21875 10.546875 5.046875 
Q 4.046875 11.328125 4.046875 20.703125 
Q 4.046875 27.6875 7.59375 32.390625 
Q 11.140625 37.109375 17.671875 38.8125 
z
M 15.921875 53.71875 
Q 15.921875 48.640625 19.1875 45.40625 
Q 22.46875 42.1875 27.6875 42.1875 
Q 32.765625 42.1875 36.015625 45.375 
Q 39.265625 48.578125 39.265625 53.21875 
Q 39.265625 58.0625 35.90625 61.359375 
Q 32.5625 64.65625 27.59375 64.65625 
Q 22.5625 64.65625 19.234375 61.421875 
Q 15.921875 58.203125 15.921875 53.71875 
z
M 13.09375 20.65625 
Q 13.09375 16.890625 14.875 13.375 
Q 16.65625 9.859375 20.171875 7.921875 
Q 23.6875 6 27.734375 6 
Q 34.03125 6 38.125 10.046875 
Q 42.234375 14.109375 42.234375 20.359375 
Q 42.234375 26.703125 38.015625 30.859375 
Q 33.796875 35.015625 27.4375 35.015625 
Q 21.234375 35.015625 17.15625 30.90625 
Q 13.09375 26.8125 13.09375 20.65625 
z
" id="ArialMT-56"/>
      </defs>
      <g style="fill:#262626;" transform="translate(118.399375 202.565156)scale(0.1 -0.1)">
       <use xlink:href="#ArialMT-49"/>
       <use x="55.615234" xlink:href="#ArialMT-56"/>
       <use x="111.230469" xlink:href="#ArialMT-48"/>
       <use x="166.845703" xlink:href="#ArialMT-176"/>
      </g>
     </g>
    </g>
    <g id="xtick_6">
     <g id="line2d_6">
      <path clip-path="url(#p98a0cf1717)" d="M 295.2 199.98 
L 187.3945 307.7855 
" style="fill:none;stroke:#ffffff;stroke-linecap:round;"/>
     </g>
     <g id="text_6">
      <!-- 225° -->
      <defs>
       <path d="M 50.34375 8.453125 
L 50.34375 0 
L 3.03125 0 
Q 2.9375 3.171875 4.046875 6.109375 
Q 5.859375 10.9375 9.828125 15.625 
Q 13.8125 20.3125 21.34375 26.46875 
Q 33.015625 36.03125 37.109375 41.625 
Q 41.21875 47.21875 41.21875 52.203125 
Q 41.21875 57.421875 37.46875 61 
Q 33.734375 64.59375 27.734375 64.59375 
Q 21.390625 64.59375 17.578125 60.78125 
Q 13.765625 56.984375 13.71875 50.25 
L 4.6875 51.171875 
Q 5.609375 61.28125 11.65625 66.578125 
Q 17.71875 71.875 27.9375 71.875 
Q 38.234375 71.875 44.234375 66.15625 
Q 50.25 60.453125 50.25 52 
Q 50.25 47.703125 48.484375 43.546875 
Q 46.734375 39.40625 42.65625 34.8125 
Q 38.578125 30.21875 29.109375 22.21875 
Q 21.1875 15.578125 18.9375 13.203125 
Q 16.703125 10.84375 15.234375 8.453125 
z
" id="ArialMT-50"/>
      </defs>
      <g style="fill:#262626;" transform="translate(167.15438 320.270151)scale(0.1 -0.1)">
       <use xlink:href="#ArialMT-50"/>
       <use x="55.615234" xlink:href="#ArialMT-50"/>
       <use x="111.230469" xlink:href="#ArialMT-53"/>
       <use x="166.845703" xlink:href="#ArialMT-176"/>
      </g>
     </g>
    </g>
    <g id="xtick_7">
     <g id="line2d_7">
      <path clip-path="url(#p98a0cf1717)" d="M 295.2 199.98 
L 295.2 352.44 
" style="fill:none;stroke:#ffffff;stroke-linecap:round;"/>
     </g>
     <g id="text_7">
      <!-- 270° -->
      <defs>
       <path d="M 4.734375 62.203125 
L 4.734375 70.65625 
L 51.078125 70.65625 
L 51.078125 63.8125 
Q 44.234375 56.546875 37.515625 44.484375 
Q 30.8125 32.421875 27.15625 19.671875 
Q 24.515625 10.6875 23.78125 0 
L 14.75 0 
Q 14.890625 8.453125 18.0625 20.40625 
Q 21.234375 32.375 27.171875 43.484375 
Q 33.109375 54.59375 39.796875 62.203125 
z
" id="ArialMT-55"/>
      </defs>
      <g style="fill:#262626;" transform="translate(284.859375 369.025156)scale(0.1 -0.1)">
       <use xlink:href="#ArialMT-50"/>
       <use x="55.615234" xlink:href="#ArialMT-55"/>
       <use x="111.230469" xlink:href="#ArialMT-48"/>
       <use x="166.845703" xlink:href="#ArialMT-176"/>
      </g>
     </g>
    </g>
    <g id="xtick_8">
     <g id="line2d_8">
      <path clip-path="url(#p98a0cf1717)" d="M 295.2 199.98 
L 403.0055 307.7855 
" style="fill:none;stroke:#ffffff;stroke-linecap:round;"/>
     </g>
     <g id="text_8">
      <!-- 315° -->
      <g style="fill:#262626;" transform="translate(402.56437 320.270151)scale(0.1 -0.1)">
       <use xlink:href="#ArialMT-51"/>
       <use x="55.615234" xlink:href="#ArialMT-49"/>
       <use x="111.230469" xlink:href="#ArialMT-53"/>
       <use x="166.845703" xlink:href="#ArialMT-176"/>
      </g>
     </g>
    </g>
   </g>
   <g id="matplotlib.axis_2">
    <g id="ytick_1">
     <g id="line2d_9">
      <path clip-path="url(#p98a0cf1717)" d="M 312.320375 199.98 
L 312.226588 198.190433 
L 311.946254 196.420474 
L 311.482445 194.689513 
L 310.840241 193.016516 
L 310.02668 191.419812 
L 309.050675 189.916896 
L 307.922918 188.524233 
L 306.655767 187.257082 
L 305.263104 186.129325 
L 303.760188 185.15332 
L 302.163484 184.339759 
L 300.490487 183.697555 
L 298.759526 183.233746 
L 296.989567 182.953412 
L 295.2 182.859625 
L 293.410433 182.953412 
L 291.640474 183.233746 
L 289.909513 183.697555 
L 288.236516 184.339759 
L 286.639812 185.15332 
L 285.136896 186.129325 
L 283.744233 187.257082 
L 282.477082 188.524233 
L 281.349325 189.916896 
L 280.37332 191.419812 
L 279.559759 193.016516 
L 278.917555 194.689513 
L 278.453746 196.420474 
L 278.173412 198.190433 
L 278.079625 199.98 
L 278.173412 201.769567 
L 278.453746 203.539526 
L 278.917555 205.270487 
L 279.559759 206.943484 
L 280.37332 208.540188 
L 281.349325 210.043104 
L 282.477082 211.435767 
L 283.744233 212.702918 
L 285.136896 213.830675 
L 286.639812 214.80668 
L 288.236516 215.620241 
L 289.909513 216.262445 
L 291.640474 216.726254 
L 293.410433 217.006588 
L 295.2 217.100375 
L 296.989567 217.006588 
L 298.759526 216.726254 
L 300.490487 216.262445 
L 302.163484 215.620241 
L 303.760188 214.80668 
L 305.263104 213.830675 
L 306.655767 212.702918 
L 307.922918 211.435767 
L 309.050675 210.043104 
L 310.02668 208.540188 
L 310.840241 206.943484 
L 311.482445 205.270487 
L 311.946254 203.539526 
L 312.226588 201.769567 
L 312.320375 199.98 
L 312.320375 199.98 
" style="fill:none;stroke:#ffffff;stroke-linecap:round;"/>
     </g>
     <g id="text_9">
      <!-- 0.05 -->
      <defs>
       <path d="M 9.078125 0 
L 9.078125 10.015625 
L 19.09375 10.015625 
L 19.09375 0 
z
" id="ArialMT-46"/>
      </defs>
      <g style="fill:#262626;" transform="translate(311.017164 191.440816)scale(0.1 -0.1)">
       <use xlink:href="#ArialMT-48"/>
       <use x="55.615234" xlink:href="#ArialMT-46"/>
       <use x="83.398438" xlink:href="#ArialMT-48"/>
       <use x="139.013672" xlink:href="#ArialMT-53"/>
      </g>
     </g>
    </g>
    <g id="ytick_2">
     <g id="line2d_10">
      <path clip-path="url(#p98a0cf1717)" d="M 329.440751 199.98 
L 329.357342 197.591486 
L 329.107522 195.214609 
L 328.692508 192.860948 
L 328.114322 190.54197 
L 327.375781 188.268973 
L 326.480482 186.053032 
L 325.432789 183.904941 
L 324.237804 181.835167 
L 322.901349 179.853792 
L 321.429937 177.97047 
L 319.830735 176.194376 
L 318.111534 174.534163 
L 316.280711 172.99792 
L 314.347185 171.593131 
L 312.320375 170.32664 
L 310.210157 169.204617 
L 308.026811 168.232529 
L 305.780974 167.415111 
L 303.483587 166.756346 
L 301.145844 166.259443 
L 298.779133 165.926824 
L 296.394985 165.760108 
L 294.005015 165.760108 
L 291.620867 165.926824 
L 289.254156 166.259443 
L 286.916413 166.756346 
L 284.619026 167.415111 
L 282.373189 168.232529 
L 280.189843 169.204617 
L 278.079625 170.32664 
L 276.052815 171.593131 
L 274.119289 172.99792 
L 272.288466 174.534163 
L 270.569265 176.194376 
L 268.970063 177.97047 
L 267.498651 179.853792 
L 266.162196 181.835167 
L 264.967211 183.904941 
L 263.919518 186.053032 
L 263.024219 188.268973 
L 262.285678 190.54197 
L 261.707492 192.860948 
L 261.292478 195.214609 
L 261.042658 197.591486 
L 260.959249 199.98 
L 261.042658 202.368514 
L 261.292478 204.745391 
L 261.707492 207.099052 
L 262.285678 209.41803 
L 263.024219 211.691027 
L 263.919518 213.906968 
L 264.967211 216.055059 
L 266.162196 218.124833 
L 267.498651 220.106208 
L 268.970063 221.98953 
L 270.569265 223.765624 
L 272.288466 225.425837 
L 274.119289 226.96208 
L 276.052815 228.366869 
L 278.079625 229.63336 
L 280.189843 230.755383 
L 282.373189 231.727471 
L 284.619026 232.544889 
L 286.916413 233.203654 
L 289.254156 233.700557 
L 291.620867 234.033176 
L 294.005015 234.199892 
L 296.394985 234.199892 
L 298.779133 234.033176 
L 301.145844 233.700557 
L 303.483587 233.203654 
L 305.780974 232.544889 
L 308.026811 231.727471 
L 310.210157 230.755383 
L 312.320375 229.63336 
L 314.347185 228.366869 
L 316.280711 226.96208 
L 318.111534 225.425837 
L 319.830735 223.765624 
L 321.429937 221.98953 
L 322.901349 220.106208 
L 324.237804 218.124833 
L 325.432789 216.055059 
L 326.480482 213.906968 
L 327.375781 211.691027 
L 328.114322 209.41803 
L 328.692508 207.099052 
L 329.107522 204.745391 
L 329.357342 202.368514 
L 329.440751 199.98 
L 329.440751 199.98 
" style="fill:none;stroke:#ffffff;stroke-linecap:round;"/>
     </g>
     <g id="text_10">
      <!-- 0.10 -->
      <g style="fill:#262626;" transform="translate(326.834329 184.889132)scale(0.1 -0.1)">
       <use xlink:href="#ArialMT-48"/>
       <use x="55.615234" xlink:href="#ArialMT-46"/>
       <use x="83.398438" xlink:href="#ArialMT-49"/>
       <use x="139.013672" xlink:href="#ArialMT-48"/>
      </g>
     </g>
    </g>
    <g id="ytick_3">
     <g id="line2d_11">
      <path clip-path="url(#p98a0cf1717)" d="M 346.561126 199.98 
L 346.436013 196.397229 
L 346.061283 192.831913 
L 345.438762 189.301421 
L 344.571483 185.822955 
L 343.463671 182.41346 
L 342.120724 179.089548 
L 340.549183 175.867412 
L 338.756705 172.76275 
L 336.752024 169.790687 
L 334.544905 166.965704 
L 332.146102 164.301564 
L 329.567302 161.811245 
L 326.821067 159.50688 
L 323.920777 157.399697 
L 320.880563 155.49996 
L 317.715236 153.816926 
L 314.440217 152.358793 
L 311.071461 151.132666 
L 307.625381 150.144519 
L 304.118766 149.399165 
L 300.5687 148.900235 
L 296.992477 148.650162 
L 293.407523 148.650162 
L 289.8313 148.900235 
L 286.281234 149.399165 
L 282.774619 150.144519 
L 279.328539 151.132666 
L 275.959783 152.358793 
L 272.684764 153.816926 
L 269.519437 155.49996 
L 266.479223 157.399697 
L 263.578933 159.50688 
L 260.832698 161.811245 
L 258.253898 164.301564 
L 255.855095 166.965704 
L 253.647976 169.790687 
L 251.643295 172.76275 
L 249.850817 175.867412 
L 248.279276 179.089548 
L 246.936329 182.41346 
L 245.828517 185.822955 
L 244.961238 189.301421 
L 244.338717 192.831913 
L 243.963987 196.397229 
L 243.838874 199.98 
L 243.963987 203.562771 
L 244.338717 207.128087 
L 244.961238 210.658579 
L 245.828517 214.137045 
L 246.936329 217.54654 
L 248.279276 220.870452 
L 249.850817 224.092588 
L 251.643295 227.19725 
L 253.647976 230.169313 
L 255.855095 232.994296 
L 258.253898 235.658436 
L 260.832698 238.148755 
L 263.578933 240.45312 
L 266.479223 242.560303 
L 269.519437 244.46004 
L 272.684764 246.143074 
L 275.959783 247.601207 
L 279.328539 248.827334 
L 282.774619 249.815481 
L 286.281234 250.560835 
L 289.8313 251.059765 
L 293.407523 251.309838 
L 296.992477 251.309838 
L 300.5687 251.059765 
L 304.118766 250.560835 
L 307.625381 249.815481 
L 311.071461 248.827334 
L 314.440217 247.601207 
L 317.715236 246.143074 
L 320.880563 244.46004 
L 323.920777 242.560303 
L 326.821067 240.45312 
L 329.567302 238.148755 
L 332.146102 235.658436 
L 334.544905 232.994296 
L 336.752024 230.169313 
L 338.756705 227.19725 
L 340.549183 224.092588 
L 342.120724 220.870452 
L 343.463671 217.54654 
L 344.571483 214.137045 
L 345.438762 210.658579 
L 346.061283 207.128087 
L 346.436013 203.562771 
L 346.561126 199.98 
L 346.561126 199.98 
" style="fill:none;stroke:#ffffff;stroke-linecap:round;"/>
     </g>
     <g id="text_11">
      <!-- 0.15 -->
      <g style="fill:#262626;" transform="translate(342.651493 178.337448)scale(0.1 -0.1)">
       <use xlink:href="#ArialMT-48"/>
       <use x="55.615234" xlink:href="#ArialMT-46"/>
       <use x="83.398438" xlink:href="#ArialMT-49"/>
       <use x="139.013672" xlink:href="#ArialMT-53"/>
      </g>
     </g>
    </g>
    <g id="ytick_4">
     <g id="line2d_12">
      <path clip-path="url(#p98a0cf1717)" d="M 363.681502 199.98 
L 363.514684 195.202972 
L 363.015044 190.449217 
L 362.185017 185.741895 
L 361.028644 181.10394 
L 359.551562 176.557947 
L 357.760965 172.126064 
L 355.665577 167.829882 
L 353.275607 163.690333 
L 350.602699 159.727583 
L 347.659874 155.960939 
L 344.46147 152.408752 
L 341.023069 149.088326 
L 337.361422 146.01584 
L 333.49437 143.206262 
L 329.440751 140.67328 
L 325.220314 138.429234 
L 320.853622 136.485057 
L 316.361948 134.850222 
L 311.767175 133.532692 
L 307.091688 132.538886 
L 302.358266 131.873647 
L 297.58997 131.540215 
L 292.81003 131.540215 
L 288.041734 131.873647 
L 283.308312 132.538886 
L 278.632825 133.532692 
L 274.038052 134.850222 
L 269.546378 136.485057 
L 265.179686 138.429234 
L 260.959249 140.67328 
L 256.90563 143.206262 
L 253.038578 146.01584 
L 249.376931 149.088326 
L 245.93853 152.408752 
L 242.740126 155.960939 
L 239.797301 159.727583 
L 237.124393 163.690333 
L 234.734423 167.829882 
L 232.639035 172.126064 
L 230.848438 176.557947 
L 229.371356 181.10394 
L 228.214983 185.741895 
L 227.384956 190.449217 
L 226.885316 195.202972 
L 226.718498 199.98 
L 226.885316 204.757028 
L 227.384956 209.510783 
L 228.214983 214.218105 
L 229.371356 218.85606 
L 230.848438 223.402053 
L 232.639035 227.833936 
L 234.734423 232.130118 
L 237.124393 236.269667 
L 239.797301 240.232417 
L 242.740126 243.999061 
L 245.93853 247.551248 
L 249.376931 250.871674 
L 253.038578 253.94416 
L 256.90563 256.753738 
L 260.959249 259.28672 
L 265.179686 261.530766 
L 269.546378 263.474943 
L 274.038052 265.109778 
L 278.632825 266.427308 
L 283.308312 267.421114 
L 288.041734 268.086353 
L 292.81003 268.419785 
L 297.58997 268.419785 
L 302.358266 268.086353 
L 307.091688 267.421114 
L 311.767175 266.427308 
L 316.361948 265.109778 
L 320.853622 263.474943 
L 325.220314 261.530766 
L 329.440751 259.28672 
L 333.49437 256.753738 
L 337.361422 253.94416 
L 341.023069 250.871674 
L 344.46147 247.551248 
L 347.659874 243.999061 
L 350.602699 240.232417 
L 353.275607 236.269667 
L 355.665577 232.130118 
L 357.760965 227.833936 
L 359.551562 223.402053 
L 361.028644 218.85606 
L 362.185017 214.218105 
L 363.015044 209.510783 
L 363.514684 204.757028 
L 363.681502 199.98 
L 363.681502 199.98 
" style="fill:none;stroke:#ffffff;stroke-linecap:round;"/>
     </g>
     <g id="text_12">
      <!-- 0.20 -->
      <g style="fill:#262626;" transform="translate(358.468658 171.785764)scale(0.1 -0.1)">
       <use xlink:href="#ArialMT-48"/>
       <use x="55.615234" xlink:href="#ArialMT-46"/>
       <use x="83.398438" xlink:href="#ArialMT-50"/>
       <use x="139.013672" xlink:href="#ArialMT-48"/>
      </g>
     </g>
    </g>
    <g id="ytick_5">
     <g id="line2d_13">
      <path clip-path="url(#p98a0cf1717)" d="M 380.801877 199.98 
L 380.593355 194.008715 
L 379.968806 188.066521 
L 378.931271 182.182369 
L 377.485806 176.384925 
L 375.639452 170.702434 
L 373.401206 165.16258 
L 370.781971 159.792353 
L 367.794509 154.617916 
L 364.453373 149.664479 
L 360.774842 144.956174 
L 356.776837 140.51594 
L 352.478836 136.365408 
L 347.901778 132.5248 
L 343.067962 129.012828 
L 338.000939 125.8466 
L 332.725393 123.041543 
L 327.267028 120.611322 
L 321.652435 118.567777 
L 315.908968 116.920864 
L 310.06461 115.678608 
L 304.147833 114.847059 
L 298.187462 114.430269 
L 292.212538 114.430269 
L 286.252167 114.847059 
L 280.33539 115.678608 
L 274.491032 116.920864 
L 268.747565 118.567777 
L 263.132972 120.611322 
L 257.674607 123.041543 
L 252.399061 125.8466 
L 247.332038 129.012828 
L 242.498222 132.5248 
L 237.921164 136.365408 
L 233.623163 140.51594 
L 229.625158 144.956174 
L 225.946627 149.664479 
L 222.605491 154.617916 
L 219.618029 159.792353 
L 216.998794 165.16258 
L 214.760548 170.702434 
L 212.914194 176.384925 
L 211.468729 182.182369 
L 210.431194 188.066521 
L 209.806645 194.008715 
L 209.598123 199.98 
L 209.806645 205.951285 
L 210.431194 211.893479 
L 211.468729 217.777631 
L 212.914194 223.575075 
L 214.760548 229.257566 
L 216.998794 234.79742 
L 219.618029 240.167647 
L 222.605491 245.342084 
L 225.946627 250.295521 
L 229.625158 255.003826 
L 233.623163 259.44406 
L 237.921164 263.594592 
L 242.498222 267.4352 
L 247.332038 270.947172 
L 252.399061 274.1134 
L 257.674607 276.918457 
L 263.132972 279.348678 
L 268.747565 281.392223 
L 274.491032 283.039136 
L 280.33539 284.281392 
L 286.252167 285.112941 
L 292.212538 285.529731 
L 298.187462 285.529731 
L 304.147833 285.112941 
L 310.06461 284.281392 
L 315.908968 283.039136 
L 321.652435 281.392223 
L 327.267028 279.348678 
L 332.725393 276.918457 
L 338.000939 274.1134 
L 343.067962 270.947172 
L 347.901778 267.4352 
L 352.478836 263.594592 
L 356.776837 259.44406 
L 360.774842 255.003826 
L 364.453373 250.295521 
L 367.794509 245.342084 
L 370.781971 240.167647 
L 373.401206 234.79742 
L 375.639452 229.257566 
L 377.485806 223.575075 
L 378.931271 217.777631 
L 379.968806 211.893479 
L 380.593355 205.951285 
L 380.801877 199.98 
L 380.801877 199.98 
" style="fill:none;stroke:#ffffff;stroke-linecap:round;"/>
     </g>
     <g id="text_13">
      <!-- 0.25 -->
      <g style="fill:#262626;" transform="translate(374.285822 165.23408)scale(0.1 -0.1)">
       <use xlink:href="#ArialMT-48"/>
       <use x="55.615234" xlink:href="#ArialMT-46"/>
       <use x="83.398438" xlink:href="#ArialMT-50"/>
       <use x="139.013672" xlink:href="#ArialMT-53"/>
      </g>
     </g>
    </g>
    <g id="ytick_6">
     <g id="line2d_14">
      <path clip-path="url(#p98a0cf1717)" d="M 397.922253 199.98 
L 397.859677 196.395045 
L 397.672026 192.814458 
L 397.359529 189.242601 
L 396.922567 185.683826 
L 396.361671 182.142468 
L 395.677525 178.622843 
L 394.870963 175.129238 
L 393.942967 171.66591 
L 392.894668 168.237078 
L 391.727343 164.84692 
L 390.442414 161.499567 
L 389.041447 158.199096 
L 387.526149 154.949528 
L 385.898366 151.754824 
L 384.16008 148.618874 
L 382.313411 145.5455 
L 380.360607 142.538445 
L 378.304048 139.601375 
L 376.14624 136.737866 
L 373.889811 133.951409 
L 371.53751 131.245397 
L 369.092205 128.623127 
L 366.556873 126.087795 
L 363.934603 123.64249 
L 361.228591 121.290189 
L 358.442134 119.03376 
L 355.578625 116.875952 
L 352.641555 114.819393 
L 349.6345 112.866589 
L 346.561126 111.01992 
L 343.425176 109.281634 
L 340.230472 107.653851 
L 336.980904 106.138553 
L 333.680433 104.737586 
L 330.33308 103.452657 
L 326.942922 102.285332 
L 323.51409 101.237033 
L 320.050762 100.309037 
L 316.557157 99.502475 
L 313.037532 98.818329 
L 309.496174 98.257433 
L 305.937399 97.820471 
L 302.365542 97.507974 
L 298.784955 97.320323 
L 295.2 97.257747 
L 291.615045 97.320323 
L 288.034458 97.507974 
L 284.462601 97.820471 
L 280.903826 98.257433 
L 277.362468 98.818329 
L 273.842843 99.502475 
L 270.349238 100.309037 
L 266.88591 101.237033 
L 263.457078 102.285332 
L 260.06692 103.452657 
L 256.719567 104.737586 
L 253.419096 106.138553 
L 250.169528 107.653851 
L 246.974824 109.281634 
L 243.838874 111.01992 
L 240.7655 112.866589 
L 237.758445 114.819393 
L 234.821375 116.875952 
L 231.957866 119.03376 
L 229.171409 121.290189 
L 226.465397 123.64249 
L 223.843127 126.087795 
L 221.307795 128.623127 
L 218.86249 131.245397 
L 216.510189 133.951409 
L 214.25376 136.737866 
L 212.095952 139.601375 
L 210.039393 142.538445 
L 208.086589 145.5455 
L 206.23992 148.618874 
L 204.501634 151.754824 
L 202.873851 154.949528 
L 201.358553 158.199096 
L 199.957586 161.499567 
L 198.672657 164.84692 
L 197.505332 168.237078 
L 196.457033 171.66591 
L 195.529037 175.129238 
L 194.722475 178.622843 
L 194.038329 182.142468 
L 193.477433 185.683826 
L 193.040471 189.242601 
L 192.727974 192.814458 
L 192.540323 196.395045 
L 192.477747 199.98 
L 192.540323 203.564955 
L 192.727974 207.145542 
L 193.040471 210.717399 
L 193.477433 214.276174 
L 194.038329 217.817532 
L 194.722475 221.337157 
L 195.529037 224.830762 
L 196.457033 228.29409 
L 197.505332 231.722922 
L 198.672657 235.11308 
L 199.957586 238.460433 
L 201.358553 241.760904 
L 202.873851 245.010472 
L 204.501634 248.205176 
L 206.23992 251.341126 
L 208.086589 254.4145 
L 210.039393 257.421555 
L 212.095952 260.358625 
L 214.25376 263.222134 
L 216.510189 266.008591 
L 218.86249 268.714603 
L 221.307795 271.336873 
L 223.843127 273.872205 
L 226.465397 276.31751 
L 229.171409 278.669811 
L 231.957866 280.92624 
L 234.821375 283.084048 
L 237.758445 285.140607 
L 240.7655 287.093411 
L 243.838874 288.94008 
L 246.974824 290.678366 
L 250.169528 292.306149 
L 253.419096 293.821447 
L 256.719567 295.222414 
L 260.06692 296.507343 
L 263.457078 297.674668 
L 266.88591 298.722967 
L 270.349238 299.650963 
L 273.842843 300.457525 
L 277.362468 301.141671 
L 280.903826 301.702567 
L 284.462601 302.139529 
L 288.034458 302.452026 
L 291.615045 302.639677 
L 295.2 302.702253 
L 298.784955 302.639677 
L 302.365542 302.452026 
L 305.937399 302.139529 
L 309.496174 301.702567 
L 313.037532 301.141671 
L 316.557157 300.457525 
L 320.050762 299.650963 
L 323.51409 298.722967 
L 326.942922 297.674668 
L 330.33308 296.507343 
L 333.680433 295.222414 
L 336.980904 293.821447 
L 340.230472 292.306149 
L 343.425176 290.678366 
L 346.561126 288.94008 
L 349.6345 287.093411 
L 352.641555 285.140607 
L 355.578625 283.084048 
L 358.442134 280.92624 
L 361.228591 278.669811 
L 363.934603 276.31751 
L 366.556873 273.872205 
L 369.092205 271.336873 
L 371.53751 268.714603 
L 373.889811 266.008591 
L 376.14624 263.222134 
L 378.304048 260.358625 
L 380.360607 257.421555 
L 382.313411 254.4145 
L 384.16008 251.341126 
L 385.898366 248.205176 
L 387.526149 245.010472 
L 389.041447 241.760904 
L 390.442414 238.460433 
L 391.727343 235.11308 
L 392.894668 231.722922 
L 393.942967 228.29409 
L 394.870963 224.830762 
L 395.677525 221.337157 
L 396.361671 217.817532 
L 396.922567 214.276174 
L 397.359529 210.717399 
L 397.672026 207.145542 
L 397.859677 203.564955 
L 397.922253 199.98 
L 397.922253 199.98 
" style="fill:none;stroke:#ffffff;stroke-linecap:round;"/>
     </g>
     <g id="text_14">
      <!-- 0.30 -->
      <g style="fill:#262626;" transform="translate(390.102987 158.682396)scale(0.1 -0.1)">
       <use xlink:href="#ArialMT-48"/>
       <use x="55.615234" xlink:href="#ArialMT-46"/>
       <use x="83.398438" xlink:href="#ArialMT-51"/>
       <use x="139.013672" xlink:href="#ArialMT-48"/>
      </g>
     </g>
    </g>
    <g id="ytick_7">
     <g id="line2d_15">
      <path clip-path="url(#p98a0cf1717)" d="M 415.042628 199.98 
L 414.969623 195.797553 
L 414.750697 191.620201 
L 414.386117 187.453034 
L 413.876328 183.30113 
L 413.221949 179.169546 
L 412.423779 175.063317 
L 411.48279 170.987444 
L 410.400128 166.946895 
L 409.177112 162.946591 
L 407.815233 158.991407 
L 406.31615 155.086161 
L 404.681688 151.235612 
L 402.91384 147.44445 
L 401.01476 143.717294 
L 398.98676 140.058686 
L 396.832312 136.473083 
L 394.554041 132.964853 
L 392.154723 129.538271 
L 389.63728 126.197511 
L 387.004779 122.946644 
L 384.260429 119.78963 
L 381.407572 116.730315 
L 378.449685 113.772428 
L 375.39037 110.919571 
L 372.233356 108.175221 
L 368.982489 105.54272 
L 365.641729 103.025277 
L 362.215147 100.625959 
L 358.706917 98.347688 
L 355.121314 96.19324 
L 351.462706 94.16524 
L 347.73555 92.26616 
L 343.944388 90.498312 
L 340.093839 88.86385 
L 336.188593 87.364767 
L 332.233409 86.002888 
L 328.233105 84.779872 
L 324.192556 83.69721 
L 320.116683 82.756221 
L 316.010454 81.958051 
L 311.87887 81.303672 
L 307.726966 80.793883 
L 303.559799 80.429303 
L 299.382447 80.210377 
L 295.2 80.137372 
L 291.017553 80.210377 
L 286.840201 80.429303 
L 282.673034 80.793883 
L 278.52113 81.303672 
L 274.389546 81.958051 
L 270.283317 82.756221 
L 266.207444 83.69721 
L 262.166895 84.779872 
L 258.166591 86.002888 
L 254.211407 87.364767 
L 250.306161 88.86385 
L 246.455612 90.498312 
L 242.66445 92.26616 
L 238.937294 94.16524 
L 235.278686 96.19324 
L 231.693083 98.347688 
L 228.184853 100.625959 
L 224.758271 103.025277 
L 221.417511 105.54272 
L 218.166644 108.175221 
L 215.00963 110.919571 
L 211.950315 113.772428 
L 208.992428 116.730315 
L 206.139571 119.78963 
L 203.395221 122.946644 
L 200.76272 126.197511 
L 198.245277 129.538271 
L 195.845959 132.964853 
L 193.567688 136.473083 
L 191.41324 140.058686 
L 189.38524 143.717294 
L 187.48616 147.44445 
L 185.718312 151.235612 
L 184.08385 155.086161 
L 182.584767 158.991407 
L 181.222888 162.946591 
L 179.999872 166.946895 
L 178.91721 170.987444 
L 177.976221 175.063317 
L 177.178051 179.169546 
L 176.523672 183.30113 
L 176.013883 187.453034 
L 175.649303 191.620201 
L 175.430377 195.797553 
L 175.357372 199.98 
L 175.430377 204.162447 
L 175.649303 208.339799 
L 176.013883 212.506966 
L 176.523672 216.65887 
L 177.178051 220.790454 
L 177.976221 224.896683 
L 178.91721 228.972556 
L 179.999872 233.013105 
L 181.222888 237.013409 
L 182.584767 240.968593 
L 184.08385 244.873839 
L 185.718312 248.724388 
L 187.48616 252.51555 
L 189.38524 256.242706 
L 191.41324 259.901314 
L 193.567688 263.486917 
L 195.845959 266.995147 
L 198.245277 270.421729 
L 200.76272 273.762489 
L 203.395221 277.013356 
L 206.139571 280.17037 
L 208.992428 283.229685 
L 211.950315 286.187572 
L 215.00963 289.040429 
L 218.166644 291.784779 
L 221.417511 294.41728 
L 224.758271 296.934723 
L 228.184853 299.334041 
L 231.693083 301.612312 
L 235.278686 303.76676 
L 238.937294 305.79476 
L 242.66445 307.69384 
L 246.455612 309.461688 
L 250.306161 311.09615 
L 254.211407 312.595233 
L 258.166591 313.957112 
L 262.166895 315.180128 
L 266.207444 316.26279 
L 270.283317 317.203779 
L 274.389546 318.001949 
L 278.52113 318.656328 
L 282.673034 319.166117 
L 286.840201 319.530697 
L 291.017553 319.749623 
L 295.2 319.822628 
L 299.382447 319.749623 
L 303.559799 319.530697 
L 307.726966 319.166117 
L 311.87887 318.656328 
L 316.010454 318.001949 
L 320.116683 317.203779 
L 324.192556 316.26279 
L 328.233105 315.180128 
L 332.233409 313.957112 
L 336.188593 312.595233 
L 340.093839 311.09615 
L 343.944388 309.461688 
L 347.73555 307.69384 
L 351.462706 305.79476 
L 355.121314 303.76676 
L 358.706917 301.612312 
L 362.215147 299.334041 
L 365.641729 296.934723 
L 368.982489 294.41728 
L 372.233356 291.784779 
L 375.39037 289.040429 
L 378.449685 286.187572 
L 381.407572 283.229685 
L 384.260429 280.17037 
L 387.004779 277.013356 
L 389.63728 273.762489 
L 392.154723 270.421729 
L 394.554041 266.995147 
L 396.832312 263.486917 
L 398.98676 259.901314 
L 401.01476 256.242706 
L 402.91384 252.51555 
L 404.681688 248.724388 
L 406.31615 244.873839 
L 407.815233 240.968593 
L 409.177112 237.013409 
L 410.400128 233.013105 
L 411.48279 228.972556 
L 412.423779 224.896683 
L 413.221949 220.790454 
L 413.876328 216.65887 
L 414.386117 212.506966 
L 414.750697 208.339799 
L 414.969623 204.162447 
L 415.042628 199.98 
L 415.042628 199.98 
" style="fill:none;stroke:#ffffff;stroke-linecap:round;"/>
     </g>
     <g id="text_15">
      <!-- 0.35 -->
      <g style="fill:#262626;" transform="translate(405.920151 152.130712)scale(0.1 -0.1)">
       <use xlink:href="#ArialMT-48"/>
       <use x="55.615234" xlink:href="#ArialMT-46"/>
       <use x="83.398438" xlink:href="#ArialMT-51"/>
       <use x="139.013672" xlink:href="#ArialMT-53"/>
      </g>
     </g>
    </g>
    <g id="ytick_8">
     <g id="line2d_16">
      <path clip-path="url(#p98a0cf1717)" d="M 432.163003 199.98 
L 432.079569 195.20006 
L 431.829368 190.425944 
L 431.412706 185.663468 
L 430.830089 180.918434 
L 430.082228 176.196624 
L 429.170033 171.50379 
L 428.094617 166.845651 
L 426.857289 162.22788 
L 425.459557 157.656104 
L 423.903124 153.135894 
L 422.189885 148.672756 
L 420.32193 144.272128 
L 418.301532 139.939371 
L 416.131154 135.679765 
L 413.81344 131.498498 
L 411.351214 127.400666 
L 408.747476 123.39126 
L 406.005397 119.475167 
L 403.128319 115.657155 
L 400.119748 111.941878 
L 396.983347 108.333863 
L 393.722939 104.837503 
L 390.342497 101.457061 
L 386.846137 98.196653 
L 383.238122 95.060252 
L 379.522845 92.051681 
L 375.704833 89.174603 
L 371.78874 86.432524 
L 367.779334 83.828786 
L 363.681502 81.36656 
L 359.500235 79.048846 
L 355.240629 76.878468 
L 350.907872 74.85807 
L 346.507244 72.990115 
L 342.044106 71.276876 
L 337.523896 69.720443 
L 332.95212 68.322711 
L 328.334349 67.085383 
L 323.67621 66.009967 
L 318.983376 65.097772 
L 314.261566 64.349911 
L 309.516532 63.767294 
L 304.754056 63.350632 
L 299.97994 63.100431 
L 295.2 63.016997 
L 290.42006 63.100431 
L 285.645944 63.350632 
L 280.883468 63.767294 
L 276.138434 64.349911 
L 271.416624 65.097772 
L 266.72379 66.009967 
L 262.065651 67.085383 
L 257.44788 68.322711 
L 252.876104 69.720443 
L 248.355894 71.276876 
L 243.892756 72.990115 
L 239.492128 74.85807 
L 235.159371 76.878468 
L 230.899765 79.048846 
L 226.718498 81.36656 
L 222.620666 83.828786 
L 218.61126 86.432524 
L 214.695167 89.174603 
L 210.877155 92.051681 
L 207.161878 95.060252 
L 203.553863 98.196653 
L 200.057503 101.457061 
L 196.677061 104.837503 
L 193.416653 108.333863 
L 190.280252 111.941878 
L 187.271681 115.657155 
L 184.394603 119.475167 
L 181.652524 123.39126 
L 179.048786 127.400666 
L 176.58656 131.498498 
L 174.268846 135.679765 
L 172.098468 139.939371 
L 170.07807 144.272128 
L 168.210115 148.672756 
L 166.496876 153.135894 
L 164.940443 157.656104 
L 163.542711 162.22788 
L 162.305383 166.845651 
L 161.229967 171.50379 
L 160.317772 176.196624 
L 159.569911 180.918434 
L 158.987294 185.663468 
L 158.570632 190.425944 
L 158.320431 195.20006 
L 158.236997 199.98 
L 158.320431 204.75994 
L 158.570632 209.534056 
L 158.987294 214.296532 
L 159.569911 219.041566 
L 160.317772 223.763376 
L 161.229967 228.45621 
L 162.305383 233.114349 
L 163.542711 237.73212 
L 164.940443 242.303896 
L 166.496876 246.824106 
L 168.210115 251.287244 
L 170.07807 255.687872 
L 172.098468 260.020629 
L 174.268846 264.280235 
L 176.58656 268.461502 
L 179.048786 272.559334 
L 181.652524 276.56874 
L 184.394603 280.484833 
L 187.271681 284.302845 
L 190.280252 288.018122 
L 193.416653 291.626137 
L 196.677061 295.122497 
L 200.057503 298.502939 
L 203.553863 301.763347 
L 207.161878 304.899748 
L 210.877155 307.908319 
L 214.695167 310.785397 
L 218.61126 313.527476 
L 222.620666 316.131214 
L 226.718498 318.59344 
L 230.899765 320.911154 
L 235.159371 323.081532 
L 239.492128 325.10193 
L 243.892756 326.969885 
L 248.355894 328.683124 
L 252.876104 330.239557 
L 257.44788 331.637289 
L 262.065651 332.874617 
L 266.72379 333.950033 
L 271.416624 334.862228 
L 276.138434 335.610089 
L 280.883468 336.192706 
L 285.645944 336.609368 
L 290.42006 336.859569 
L 295.2 336.943003 
L 299.97994 336.859569 
L 304.754056 336.609368 
L 309.516532 336.192706 
L 314.261566 335.610089 
L 318.983376 334.862228 
L 323.67621 333.950033 
L 328.334349 332.874617 
L 332.95212 331.637289 
L 337.523896 330.239557 
L 342.044106 328.683124 
L 346.507244 326.969885 
L 350.907872 325.10193 
L 355.240629 323.081532 
L 359.500235 320.911154 
L 363.681502 318.59344 
L 367.779334 316.131214 
L 371.78874 313.527476 
L 375.704833 310.785397 
L 379.522845 307.908319 
L 383.238122 304.899748 
L 386.846137 301.763347 
L 390.342497 298.502939 
L 393.722939 295.122497 
L 396.983347 291.626137 
L 400.119748 288.018122 
L 403.128319 284.302845 
L 406.005397 280.484833 
L 408.747476 276.56874 
L 411.351214 272.559334 
L 413.81344 268.461502 
L 416.131154 264.280235 
L 418.301532 260.020629 
L 420.32193 255.687872 
L 422.189885 251.287244 
L 423.903124 246.824106 
L 425.459557 242.303896 
L 426.857289 237.73212 
L 428.094617 233.114349 
L 429.170033 228.45621 
L 430.082228 223.763376 
L 430.830089 219.041566 
L 431.412706 214.296532 
L 431.829368 209.534056 
L 432.079569 204.75994 
L 432.163003 199.98 
L 432.163003 199.98 
" style="fill:none;stroke:#ffffff;stroke-linecap:round;"/>
     </g>
     <g id="text_16">
      <!-- 0.40 -->
      <g style="fill:#262626;" transform="translate(421.737316 145.579028)scale(0.1 -0.1)">
       <use xlink:href="#ArialMT-48"/>
       <use x="55.615234" xlink:href="#ArialMT-46"/>
       <use x="83.398438" xlink:href="#ArialMT-52"/>
       <use x="139.013672" xlink:href="#ArialMT-48"/>
      </g>
     </g>
    </g>
   </g>
   <g id="PathCollection_1">
    <defs>
     <path d="M 0 3.5 
C 0.928211 3.5 1.81853 3.131218 2.474874 2.474874 
C 3.131218 1.81853 3.5 0.928211 3.5 0 
C 3.5 -0.928211 3.131218 -1.81853 2.474874 -2.474874 
C 1.81853 -3.131218 0.928211 -3.5 0 -3.5 
C -0.928211 -3.5 -1.81853 -3.131218 -2.474874 -2.474874 
C -3.131218 -1.81853 -3.5 -0.928211 -3.5 0 
C -3.5 0.928211 -3.131218 1.81853 -2.474874 2.474874 
C -1.81853 3.131218 -0.928211 3.5 0 3.5 
z
" id="mc43cbd6fb8" style="stroke:#4c72b0;stroke-width:0.3;"/>
    </defs>
    <g clip-path="url(#p98a0cf1717)">
     <use style="fill:#4c72b0;stroke:#4c72b0;stroke-width:0.3;" x="278.723347" xlink:href="#mc43cbd6fb8" y="188.761747"/>
     <use style="fill:#4c72b0;stroke:#4c72b0;stroke-width:0.3;" x="307.604159" xlink:href="#mc43cbd6fb8" y="181.013684"/>
     <use style="fill:#4c72b0;stroke:#4c72b0;stroke-width:0.3;" x="248.448594" xlink:href="#mc43cbd6fb8" y="191.157945"/>
     <use style="fill:#4c72b0;stroke:#4c72b0;stroke-width:0.3;" x="252.584832" xlink:href="#mc43cbd6fb8" y="199.310362"/>
     <use style="fill:#4c72b0;stroke:#4c72b0;stroke-width:0.3;" x="259.976798" xlink:href="#mc43cbd6fb8" y="190.954145"/>
     <use style="fill:#4c72b0;stroke:#4c72b0;stroke-width:0.3;" x="306.917652" xlink:href="#mc43cbd6fb8" y="183.469302"/>
     <use style="fill:#4c72b0;stroke:#4c72b0;stroke-width:0.3;" x="325.749323" xlink:href="#mc43cbd6fb8" y="170.37731"/>
     <use style="fill:#4c72b0;stroke:#4c72b0;stroke-width:0.3;" x="265.760588" xlink:href="#mc43cbd6fb8" y="179.231842"/>
     <use style="fill:#4c72b0;stroke:#4c72b0;stroke-width:0.3;" x="244.749082" xlink:href="#mc43cbd6fb8" y="195.881885"/>
     <use style="fill:#4c72b0;stroke:#4c72b0;stroke-width:0.3;" x="311.563585" xlink:href="#mc43cbd6fb8" y="183.095324"/>
     <use style="fill:#4c72b0;stroke:#4c72b0;stroke-width:0.3;" x="295.07562" xlink:href="#mc43cbd6fb8" y="187.97954"/>
     <use style="fill:#4c72b0;stroke:#4c72b0;stroke-width:0.3;" x="328.542116" xlink:href="#mc43cbd6fb8" y="186.446559"/>
     <use style="fill:#4c72b0;stroke:#4c72b0;stroke-width:0.3;" x="300.294769" xlink:href="#mc43cbd6fb8" y="181.199141"/>
     <use style="fill:#4c72b0;stroke:#4c72b0;stroke-width:0.3;" x="244.633602" xlink:href="#mc43cbd6fb8" y="196.741305"/>
     <use style="fill:#4c72b0;stroke:#4c72b0;stroke-width:0.3;" x="304.828781" xlink:href="#mc43cbd6fb8" y="200.907099"/>
     <use style="fill:#4c72b0;stroke:#4c72b0;stroke-width:0.3;" x="252.978932" xlink:href="#mc43cbd6fb8" y="212.763582"/>
     <use style="fill:#4c72b0;stroke:#4c72b0;stroke-width:0.3;" x="275.541457" xlink:href="#mc43cbd6fb8" y="203.974886"/>
     <use style="fill:#4c72b0;stroke:#4c72b0;stroke-width:0.3;" x="300.898309" xlink:href="#mc43cbd6fb8" y="200.096684"/>
     <use style="fill:#4c72b0;stroke:#4c72b0;stroke-width:0.3;" x="340.019589" xlink:href="#mc43cbd6fb8" y="192.004685"/>
     <use style="fill:#4c72b0;stroke:#4c72b0;stroke-width:0.3;" x="286.868988" xlink:href="#mc43cbd6fb8" y="197.887692"/>
     <use style="fill:#4c72b0;stroke:#4c72b0;stroke-width:0.3;" x="262.776064" xlink:href="#mc43cbd6fb8" y="190.581476"/>
     <use style="fill:#4c72b0;stroke:#4c72b0;stroke-width:0.3;" x="285.218512" xlink:href="#mc43cbd6fb8" y="182.633758"/>
     <use style="fill:#4c72b0;stroke:#4c72b0;stroke-width:0.3;" x="236.220658" xlink:href="#mc43cbd6fb8" y="188.566485"/>
     <use style="fill:#4c72b0;stroke:#4c72b0;stroke-width:0.3;" x="253.112203" xlink:href="#mc43cbd6fb8" y="189.821584"/>
    </g>
   </g>
   <g id="PathCollection_2">
    <defs>
     <path d="M 0 3.5 
C 0.928211 3.5 1.81853 3.131218 2.474874 2.474874 
C 3.131218 1.81853 3.5 0.928211 3.5 0 
C 3.5 -0.928211 3.131218 -1.81853 2.474874 -2.474874 
C 1.81853 -3.131218 0.928211 -3.5 0 -3.5 
C -0.928211 -3.5 -1.81853 -3.131218 -2.474874 -2.474874 
C -3.131218 -1.81853 -3.5 -0.928211 -3.5 0 
C -3.5 0.928211 -3.131218 1.81853 -2.474874 2.474874 
C -1.81853 3.131218 -0.928211 3.5 0 3.5 
z
" id="mf83cccada3" style="stroke:#55a868;stroke-width:0.3;"/>
    </defs>
    <g clip-path="url(#p98a0cf1717)">
     <use style="fill:#55a868;stroke:#55a868;stroke-width:0.3;" x="316.478633" xlink:href="#mf83cccada3" y="195.983626"/>
     <use style="fill:#55a868;stroke:#55a868;stroke-width:0.3;" x="271.074372" xlink:href="#mf83cccada3" y="183.269953"/>
     <use style="fill:#55a868;stroke:#55a868;stroke-width:0.3;" x="242.906154" xlink:href="#mf83cccada3" y="185.576799"/>
     <use style="fill:#55a868;stroke:#55a868;stroke-width:0.3;" x="301.668621" xlink:href="#mf83cccada3" y="175.982281"/>
     <use style="fill:#55a868;stroke:#55a868;stroke-width:0.3;" x="320.850155" xlink:href="#mf83cccada3" y="168.549064"/>
     <use style="fill:#55a868;stroke:#55a868;stroke-width:0.3;" x="249.140114" xlink:href="#mf83cccada3" y="178.141691"/>
     <use style="fill:#55a868;stroke:#55a868;stroke-width:0.3;" x="295.826681" xlink:href="#mf83cccada3" y="174.831981"/>
     <use style="fill:#55a868;stroke:#55a868;stroke-width:0.3;" x="272.038573" xlink:href="#mf83cccada3" y="174.92"/>
     <use style="fill:#55a868;stroke:#55a868;stroke-width:0.3;" x="281.12382" xlink:href="#mf83cccada3" y="176.399877"/>
     <use style="fill:#55a868;stroke:#55a868;stroke-width:0.3;" x="314.430397" xlink:href="#mf83cccada3" y="186.808697"/>
     <use style="fill:#55a868;stroke:#55a868;stroke-width:0.3;" x="246.898366" xlink:href="#mf83cccada3" y="194.925683"/>
     <use style="fill:#55a868;stroke:#55a868;stroke-width:0.3;" x="254.175486" xlink:href="#mf83cccada3" y="192.457714"/>
     <use style="fill:#55a868;stroke:#55a868;stroke-width:0.3;" x="255.112819" xlink:href="#mf83cccada3" y="194.427234"/>
     <use style="fill:#55a868;stroke:#55a868;stroke-width:0.3;" x="295.815747" xlink:href="#mf83cccada3" y="195.727841"/>
     <use style="fill:#55a868;stroke:#55a868;stroke-width:0.3;" x="277.824542" xlink:href="#mf83cccada3" y="195.72119"/>
     <use style="fill:#55a868;stroke:#55a868;stroke-width:0.3;" x="279.867581" xlink:href="#mf83cccada3" y="198.399827"/>
     <use style="fill:#55a868;stroke:#55a868;stroke-width:0.3;" x="330.773766" xlink:href="#mf83cccada3" y="195.037662"/>
     <use style="fill:#55a868;stroke:#55a868;stroke-width:0.3;" x="278.838354" xlink:href="#mf83cccada3" y="206.423683"/>
     <use style="fill:#55a868;stroke:#55a868;stroke-width:0.3;" x="241.959951" xlink:href="#mf83cccada3" y="197.209995"/>
     <use style="fill:#55a868;stroke:#55a868;stroke-width:0.3;" x="261.649762" xlink:href="#mf83cccada3" y="193.204815"/>
     <use style="fill:#55a868;stroke:#55a868;stroke-width:0.3;" x="297.802634" xlink:href="#mf83cccada3" y="194.82712"/>
     <use style="fill:#55a868;stroke:#55a868;stroke-width:0.3;" x="265.463758" xlink:href="#mf83cccada3" y="199.930351"/>
     <use style="fill:#55a868;stroke:#55a868;stroke-width:0.3;" x="258.865038" xlink:href="#mf83cccada3" y="195.886886"/>
     <use style="fill:#55a868;stroke:#55a868;stroke-width:0.3;" x="286.84114" xlink:href="#mf83cccada3" y="194.871769"/>
    </g>
   </g>
   <g id="PathCollection_3">
    <defs>
     <path d="M 0 3.5 
C 0.928211 3.5 1.81853 3.131218 2.474874 2.474874 
C 3.131218 1.81853 3.5 0.928211 3.5 0 
C 3.5 -0.928211 3.131218 -1.81853 2.474874 -2.474874 
C 1.81853 -3.131218 0.928211 -3.5 0 -3.5 
C -0.928211 -3.5 -1.81853 -3.131218 -2.474874 -2.474874 
C -3.131218 -1.81853 -3.5 -0.928211 -3.5 0 
C -3.5 0.928211 -3.131218 1.81853 -2.474874 2.474874 
C -1.81853 3.131218 -0.928211 3.5 0 3.5 
z
" id="m9ac3a9bb18" style="stroke:#c44e52;stroke-width:0.3;"/>
    </defs>
    <g clip-path="url(#p98a0cf1717)">
     <use style="fill:#c44e52;stroke:#c44e52;stroke-width:0.3;" x="293.425579" xlink:href="#m9ac3a9bb18" y="204.290617"/>
     <use style="fill:#c44e52;stroke:#c44e52;stroke-width:0.3;" x="196.378338" xlink:href="#m9ac3a9bb18" y="216.454961"/>
     <use style="fill:#c44e52;stroke:#c44e52;stroke-width:0.3;" x="236.200479" xlink:href="#m9ac3a9bb18" y="210.897094"/>
     <use style="fill:#c44e52;stroke:#c44e52;stroke-width:0.3;" x="274.115733" xlink:href="#m9ac3a9bb18" y="201.727286"/>
     <use style="fill:#c44e52;stroke:#c44e52;stroke-width:0.3;" x="286.415628" xlink:href="#m9ac3a9bb18" y="206.325807"/>
     <use style="fill:#c44e52;stroke:#c44e52;stroke-width:0.3;" x="188.353654" xlink:href="#m9ac3a9bb18" y="216.418208"/>
     <use style="fill:#c44e52;stroke:#c44e52;stroke-width:0.3;" x="236.475637" xlink:href="#m9ac3a9bb18" y="218.905404"/>
     <use style="fill:#c44e52;stroke:#c44e52;stroke-width:0.3;" x="239.307235" xlink:href="#m9ac3a9bb18" y="236.294053"/>
     <use style="fill:#c44e52;stroke:#c44e52;stroke-width:0.3;" x="299.571894" xlink:href="#m9ac3a9bb18" y="232.675308"/>
     <use style="fill:#c44e52;stroke:#c44e52;stroke-width:0.3;" x="297.098377" xlink:href="#m9ac3a9bb18" y="223.546181"/>
     <use style="fill:#c44e52;stroke:#c44e52;stroke-width:0.3;" x="301.273793" xlink:href="#m9ac3a9bb18" y="220.864591"/>
     <use style="fill:#c44e52;stroke:#c44e52;stroke-width:0.3;" x="290.591311" xlink:href="#m9ac3a9bb18" y="228.787933"/>
     <use style="fill:#c44e52;stroke:#c44e52;stroke-width:0.3;" x="307.970151" xlink:href="#m9ac3a9bb18" y="228.099886"/>
     <use style="fill:#c44e52;stroke:#c44e52;stroke-width:0.3;" x="242.504679" xlink:href="#m9ac3a9bb18" y="241.552687"/>
     <use style="fill:#c44e52;stroke:#c44e52;stroke-width:0.3;" x="262.66303" xlink:href="#m9ac3a9bb18" y="245.594419"/>
     <use style="fill:#c44e52;stroke:#c44e52;stroke-width:0.3;" x="257.360271" xlink:href="#m9ac3a9bb18" y="264.363096"/>
     <use style="fill:#c44e52;stroke:#c44e52;stroke-width:0.3;" x="307.512379" xlink:href="#m9ac3a9bb18" y="247.5027"/>
     <use style="fill:#c44e52;stroke:#c44e52;stroke-width:0.3;" x="227.343991" xlink:href="#m9ac3a9bb18" y="262.786898"/>
     <use style="fill:#c44e52;stroke:#c44e52;stroke-width:0.3;" x="217.001508" xlink:href="#m9ac3a9bb18" y="278.606075"/>
     <use style="fill:#c44e52;stroke:#c44e52;stroke-width:0.3;" x="267.916661" xlink:href="#m9ac3a9bb18" y="275.980591"/>
     <use style="fill:#c44e52;stroke:#c44e52;stroke-width:0.3;" x="194.933631" xlink:href="#m9ac3a9bb18" y="285.470525"/>
     <use style="fill:#c44e52;stroke:#c44e52;stroke-width:0.3;" x="302.297481" xlink:href="#m9ac3a9bb18" y="264.314878"/>
     <use style="fill:#c44e52;stroke:#c44e52;stroke-width:0.3;" x="240.027297" xlink:href="#m9ac3a9bb18" y="276.624589"/>
     <use style="fill:#c44e52;stroke:#c44e52;stroke-width:0.3;" x="207.626772" xlink:href="#m9ac3a9bb18" y="296.192377"/>
    </g>
   </g>
   <g id="line2d_17">
    <path clip-path="url(#p98a0cf1717)" d="M 295.2 199.98 
L 180.680781 265.151491 
" style="fill:none;stroke:#ff0000;stroke-dasharray:7.4,3.2;stroke-dashoffset:0;stroke-width:2;"/>
   </g>
   <g id="patch_3">
    <path d="M 447.66 199.98 
C 447.66 179.959136 443.716326 160.13295 436.054674 141.636084 
C 428.393021 123.139218 417.162388 106.331389 403.0055 92.1745 
C 388.848611 78.017612 372.040782 66.786979 353.543916 59.125326 
C 335.04705 51.463674 315.220864 47.52 295.2 47.52 
C 275.179136 47.52 255.35295 51.463674 236.856084 59.125326 
C 218.359218 66.786979 201.551389 78.017612 187.3945 92.1745 
C 173.237612 106.331389 162.006979 123.139218 154.345326 141.636084 
C 146.683674 160.13295 142.74 179.959136 142.74 199.98 
C 142.74 220.000864 146.683674 239.82705 154.345326 258.323916 
C 162.006979 276.820782 173.237612 293.628611 187.3945 307.7855 
C 201.551389 321.942388 218.359218 333.173021 236.856084 340.834674 
C 255.35295 348.496326 275.179136 352.44 295.2 352.44 
C 315.220864 352.44 335.04705 348.496326 353.543916 340.834674 
C 372.040782 333.173021 388.848611 321.942388 403.0055 307.7855 
C 417.162388 293.628611 428.393021 276.820782 436.054674 258.323916 
C 443.716326 239.82705 447.66 220.000864 447.66 199.98 
" style="fill:none;"/>
   </g>
   <g id="text_17">
    <!-- Distribution of projected eye movement velocity on the screen - NewM1_9_35 -->
    <defs>
     <path d="M 7.71875 0 
L 7.71875 71.578125 
L 32.375 71.578125 
Q 40.71875 71.578125 45.125 70.5625 
Q 51.265625 69.140625 55.609375 65.4375 
Q 61.28125 60.640625 64.078125 53.1875 
Q 66.890625 45.75 66.890625 36.1875 
Q 66.890625 28.03125 64.984375 21.734375 
Q 63.09375 15.4375 60.109375 11.296875 
Q 57.125 7.171875 53.578125 4.796875 
Q 50.046875 2.4375 45.046875 1.21875 
Q 40.046875 0 33.546875 0 
z
M 17.1875 8.453125 
L 32.46875 8.453125 
Q 39.546875 8.453125 43.578125 9.765625 
Q 47.609375 11.078125 50 13.484375 
Q 53.375 16.84375 55.25 22.53125 
Q 57.125 28.21875 57.125 36.328125 
Q 57.125 47.5625 53.4375 53.59375 
Q 49.75 59.625 44.484375 61.671875 
Q 40.671875 63.140625 32.234375 63.140625 
L 17.1875 63.140625 
z
" id="ArialMT-68"/>
     <path d="M 6.640625 61.46875 
L 6.640625 71.578125 
L 15.4375 71.578125 
L 15.4375 61.46875 
z
M 6.640625 0 
L 6.640625 51.859375 
L 15.4375 51.859375 
L 15.4375 0 
z
" id="ArialMT-105"/>
     <path d="M 3.078125 15.484375 
L 11.765625 16.84375 
Q 12.5 11.625 15.84375 8.84375 
Q 19.1875 6.0625 25.203125 6.0625 
Q 31.25 6.0625 34.171875 8.515625 
Q 37.109375 10.984375 37.109375 14.3125 
Q 37.109375 17.28125 34.515625 19 
Q 32.71875 20.171875 25.53125 21.96875 
Q 15.875 24.421875 12.140625 26.203125 
Q 8.40625 27.984375 6.46875 31.125 
Q 4.546875 34.28125 4.546875 38.09375 
Q 4.546875 41.546875 6.125 44.5 
Q 7.71875 47.46875 10.453125 49.421875 
Q 12.5 50.921875 16.03125 51.96875 
Q 19.578125 53.03125 23.640625 53.03125 
Q 29.734375 53.03125 34.34375 51.265625 
Q 38.96875 49.515625 41.15625 46.5 
Q 43.359375 43.5 44.1875 38.484375 
L 35.59375 37.3125 
Q 35.015625 41.3125 32.203125 43.546875 
Q 29.390625 45.796875 24.265625 45.796875 
Q 18.21875 45.796875 15.625 43.796875 
Q 13.03125 41.796875 13.03125 39.109375 
Q 13.03125 37.40625 14.109375 36.03125 
Q 15.1875 34.625 17.484375 33.6875 
Q 18.796875 33.203125 25.25 31.453125 
Q 34.578125 28.953125 38.25 27.359375 
Q 41.9375 25.78125 44.03125 22.75 
Q 46.140625 19.734375 46.140625 15.234375 
Q 46.140625 10.84375 43.578125 6.953125 
Q 41.015625 3.078125 36.171875 0.953125 
Q 31.34375 -1.171875 25.25 -1.171875 
Q 15.140625 -1.171875 9.84375 3.03125 
Q 4.546875 7.234375 3.078125 15.484375 
z
" id="ArialMT-115"/>
     <path d="M 25.78125 7.859375 
L 27.046875 0.09375 
Q 23.34375 -0.6875 20.40625 -0.6875 
Q 15.625 -0.6875 12.984375 0.828125 
Q 10.359375 2.34375 9.28125 4.8125 
Q 8.203125 7.28125 8.203125 15.1875 
L 8.203125 45.015625 
L 1.765625 45.015625 
L 1.765625 51.859375 
L 8.203125 51.859375 
L 8.203125 64.703125 
L 16.9375 69.96875 
L 16.9375 51.859375 
L 25.78125 51.859375 
L 25.78125 45.015625 
L 16.9375 45.015625 
L 16.9375 14.703125 
Q 16.9375 10.9375 17.40625 9.859375 
Q 17.875 8.796875 18.921875 8.15625 
Q 19.96875 7.515625 21.921875 7.515625 
Q 23.390625 7.515625 25.78125 7.859375 
z
" id="ArialMT-116"/>
     <path d="M 6.5 0 
L 6.5 51.859375 
L 14.40625 51.859375 
L 14.40625 44 
Q 17.4375 49.515625 20 51.265625 
Q 22.5625 53.03125 25.640625 53.03125 
Q 30.078125 53.03125 34.671875 50.203125 
L 31.640625 42.046875 
Q 28.421875 43.953125 25.203125 43.953125 
Q 22.3125 43.953125 20.015625 42.21875 
Q 17.71875 40.484375 16.75 37.40625 
Q 15.28125 32.71875 15.28125 27.15625 
L 15.28125 0 
z
" id="ArialMT-114"/>
     <path d="M 14.703125 0 
L 6.546875 0 
L 6.546875 71.578125 
L 15.328125 71.578125 
L 15.328125 46.046875 
Q 20.90625 53.03125 29.546875 53.03125 
Q 34.328125 53.03125 38.59375 51.09375 
Q 42.875 49.171875 45.625 45.671875 
Q 48.390625 42.1875 49.953125 37.25 
Q 51.515625 32.328125 51.515625 26.703125 
Q 51.515625 13.375 44.921875 6.09375 
Q 38.328125 -1.171875 29.109375 -1.171875 
Q 19.921875 -1.171875 14.703125 6.5 
z
M 14.59375 26.3125 
Q 14.59375 17 17.140625 12.84375 
Q 21.296875 6.0625 28.375 6.0625 
Q 34.125 6.0625 38.328125 11.0625 
Q 42.53125 16.0625 42.53125 25.984375 
Q 42.53125 36.140625 38.5 40.96875 
Q 34.46875 45.796875 28.765625 45.796875 
Q 23 45.796875 18.796875 40.796875 
Q 14.59375 35.796875 14.59375 26.3125 
z
" id="ArialMT-98"/>
     <path d="M 40.578125 0 
L 40.578125 7.625 
Q 34.515625 -1.171875 24.125 -1.171875 
Q 19.53125 -1.171875 15.546875 0.578125 
Q 11.578125 2.34375 9.640625 5 
Q 7.71875 7.671875 6.9375 11.53125 
Q 6.390625 14.109375 6.390625 19.734375 
L 6.390625 51.859375 
L 15.1875 51.859375 
L 15.1875 23.09375 
Q 15.1875 16.21875 15.71875 13.8125 
Q 16.546875 10.359375 19.234375 8.375 
Q 21.921875 6.390625 25.875 6.390625 
Q 29.828125 6.390625 33.296875 8.421875 
Q 36.765625 10.453125 38.203125 13.9375 
Q 39.65625 17.4375 39.65625 24.078125 
L 39.65625 51.859375 
L 48.4375 51.859375 
L 48.4375 0 
z
" id="ArialMT-117"/>
     <path d="M 3.328125 25.921875 
Q 3.328125 40.328125 11.328125 47.265625 
Q 18.015625 53.03125 27.640625 53.03125 
Q 38.328125 53.03125 45.109375 46.015625 
Q 51.90625 39.015625 51.90625 26.65625 
Q 51.90625 16.65625 48.90625 10.90625 
Q 45.90625 5.171875 40.15625 2 
Q 34.421875 -1.171875 27.640625 -1.171875 
Q 16.75 -1.171875 10.03125 5.8125 
Q 3.328125 12.796875 3.328125 25.921875 
z
M 12.359375 25.921875 
Q 12.359375 15.96875 16.703125 11.015625 
Q 21.046875 6.0625 27.640625 6.0625 
Q 34.1875 6.0625 38.53125 11.03125 
Q 42.875 16.015625 42.875 26.21875 
Q 42.875 35.84375 38.5 40.796875 
Q 34.125 45.75 27.640625 45.75 
Q 21.046875 45.75 16.703125 40.8125 
Q 12.359375 35.890625 12.359375 25.921875 
z
" id="ArialMT-111"/>
     <path d="M 6.59375 0 
L 6.59375 51.859375 
L 14.5 51.859375 
L 14.5 44.484375 
Q 20.21875 53.03125 31 53.03125 
Q 35.6875 53.03125 39.625 51.34375 
Q 43.5625 49.65625 45.515625 46.921875 
Q 47.46875 44.1875 48.25 40.4375 
Q 48.734375 37.984375 48.734375 31.890625 
L 48.734375 0 
L 39.9375 0 
L 39.9375 31.546875 
Q 39.9375 36.921875 38.90625 39.578125 
Q 37.890625 42.234375 35.28125 43.8125 
Q 32.671875 45.40625 29.15625 45.40625 
Q 23.53125 45.40625 19.453125 41.84375 
Q 15.375 38.28125 15.375 28.328125 
L 15.375 0 
z
" id="ArialMT-110"/>
     <path id="ArialMT-32"/>
     <path d="M 8.6875 0 
L 8.6875 45.015625 
L 0.921875 45.015625 
L 0.921875 51.859375 
L 8.6875 51.859375 
L 8.6875 57.375 
Q 8.6875 62.59375 9.625 65.140625 
Q 10.890625 68.5625 14.078125 70.671875 
Q 17.28125 72.796875 23.046875 72.796875 
Q 26.765625 72.796875 31.25 71.921875 
L 29.9375 64.265625 
Q 27.203125 64.75 24.75 64.75 
Q 20.75 64.75 19.09375 63.03125 
Q 17.4375 61.328125 17.4375 56.640625 
L 17.4375 51.859375 
L 27.546875 51.859375 
L 27.546875 45.015625 
L 17.4375 45.015625 
L 17.4375 0 
z
" id="ArialMT-102"/>
     <path d="M 6.59375 -19.875 
L 6.59375 51.859375 
L 14.59375 51.859375 
L 14.59375 45.125 
Q 17.4375 49.078125 21 51.046875 
Q 24.5625 53.03125 29.640625 53.03125 
Q 36.28125 53.03125 41.359375 49.609375 
Q 46.4375 46.1875 49.015625 39.953125 
Q 51.609375 33.734375 51.609375 26.3125 
Q 51.609375 18.359375 48.75 11.984375 
Q 45.90625 5.609375 40.453125 2.21875 
Q 35.015625 -1.171875 29 -1.171875 
Q 24.609375 -1.171875 21.109375 0.6875 
Q 17.625 2.546875 15.375 5.375 
L 15.375 -19.875 
z
M 14.546875 25.640625 
Q 14.546875 15.625 18.59375 10.84375 
Q 22.65625 6.0625 28.421875 6.0625 
Q 34.28125 6.0625 38.453125 11.015625 
Q 42.625 15.96875 42.625 26.375 
Q 42.625 36.28125 38.546875 41.203125 
Q 34.46875 46.140625 28.8125 46.140625 
Q 23.1875 46.140625 18.859375 40.890625 
Q 14.546875 35.640625 14.546875 25.640625 
z
" id="ArialMT-112"/>
     <path d="M 6.546875 61.375 
L 6.546875 71.578125 
L 15.328125 71.578125 
L 15.328125 61.375 
z
M -4.59375 -20.125 
L -2.9375 -12.640625 
Q -0.296875 -13.328125 1.21875 -13.328125 
Q 3.90625 -13.328125 5.21875 -11.546875 
Q 6.546875 -9.765625 6.546875 -2.640625 
L 6.546875 51.859375 
L 15.328125 51.859375 
L 15.328125 -2.828125 
Q 15.328125 -12.40625 12.84375 -16.15625 
Q 9.671875 -21.046875 2.296875 -21.046875 
Q -1.265625 -21.046875 -4.59375 -20.125 
z
" id="ArialMT-106"/>
     <path d="M 42.09375 16.703125 
L 51.171875 15.578125 
Q 49.03125 7.625 43.21875 3.21875 
Q 37.40625 -1.171875 28.375 -1.171875 
Q 17 -1.171875 10.328125 5.828125 
Q 3.65625 12.84375 3.65625 25.484375 
Q 3.65625 38.578125 10.390625 45.796875 
Q 17.140625 53.03125 27.875 53.03125 
Q 38.28125 53.03125 44.875 45.953125 
Q 51.46875 38.875 51.46875 26.03125 
Q 51.46875 25.25 51.421875 23.6875 
L 12.75 23.6875 
Q 13.234375 15.140625 17.578125 10.59375 
Q 21.921875 6.0625 28.421875 6.0625 
Q 33.25 6.0625 36.671875 8.59375 
Q 40.09375 11.140625 42.09375 16.703125 
z
M 13.234375 30.90625 
L 42.1875 30.90625 
Q 41.609375 37.453125 38.875 40.71875 
Q 34.671875 45.796875 27.984375 45.796875 
Q 21.921875 45.796875 17.796875 41.75 
Q 13.671875 37.703125 13.234375 30.90625 
z
" id="ArialMT-101"/>
     <path d="M 40.4375 19 
L 49.078125 17.875 
Q 47.65625 8.9375 41.8125 3.875 
Q 35.984375 -1.171875 27.484375 -1.171875 
Q 16.84375 -1.171875 10.375 5.78125 
Q 3.90625 12.75 3.90625 25.734375 
Q 3.90625 34.125 6.6875 40.421875 
Q 9.46875 46.734375 15.15625 49.875 
Q 20.84375 53.03125 27.546875 53.03125 
Q 35.984375 53.03125 41.359375 48.75 
Q 46.734375 44.484375 48.25 36.625 
L 39.703125 35.296875 
Q 38.484375 40.53125 35.375 43.15625 
Q 32.28125 45.796875 27.875 45.796875 
Q 21.234375 45.796875 17.078125 41.03125 
Q 12.9375 36.28125 12.9375 25.984375 
Q 12.9375 15.53125 16.9375 10.796875 
Q 20.953125 6.0625 27.390625 6.0625 
Q 32.5625 6.0625 36.03125 9.234375 
Q 39.5 12.40625 40.4375 19 
z
" id="ArialMT-99"/>
     <path d="M 40.234375 0 
L 40.234375 6.546875 
Q 35.296875 -1.171875 25.734375 -1.171875 
Q 19.53125 -1.171875 14.328125 2.25 
Q 9.125 5.671875 6.265625 11.796875 
Q 3.421875 17.921875 3.421875 25.875 
Q 3.421875 33.640625 6 39.96875 
Q 8.59375 46.296875 13.765625 49.65625 
Q 18.953125 53.03125 25.34375 53.03125 
Q 30.03125 53.03125 33.6875 51.046875 
Q 37.359375 49.078125 39.65625 45.90625 
L 39.65625 71.578125 
L 48.390625 71.578125 
L 48.390625 0 
z
M 12.453125 25.875 
Q 12.453125 15.921875 16.640625 10.984375 
Q 20.84375 6.0625 26.5625 6.0625 
Q 32.328125 6.0625 36.34375 10.765625 
Q 40.375 15.484375 40.375 25.140625 
Q 40.375 35.796875 36.265625 40.765625 
Q 32.171875 45.75 26.171875 45.75 
Q 20.3125 45.75 16.375 40.96875 
Q 12.453125 36.1875 12.453125 25.875 
z
" id="ArialMT-100"/>
     <path d="M 6.203125 -19.96875 
L 5.21875 -11.71875 
Q 8.109375 -12.5 10.25 -12.5 
Q 13.1875 -12.5 14.9375 -11.515625 
Q 16.703125 -10.546875 17.828125 -8.796875 
Q 18.65625 -7.46875 20.515625 -2.25 
Q 20.75 -1.515625 21.296875 -0.09375 
L 1.609375 51.859375 
L 11.078125 51.859375 
L 21.875 21.828125 
Q 23.96875 16.109375 25.640625 9.8125 
Q 27.15625 15.875 29.25 21.625 
L 40.328125 51.859375 
L 49.125 51.859375 
L 29.390625 -0.875 
Q 26.21875 -9.421875 24.46875 -12.640625 
Q 22.125 -17 19.09375 -19.015625 
Q 16.0625 -21.046875 11.859375 -21.046875 
Q 9.328125 -21.046875 6.203125 -19.96875 
z
" id="ArialMT-121"/>
     <path d="M 6.59375 0 
L 6.59375 51.859375 
L 14.453125 51.859375 
L 14.453125 44.578125 
Q 16.890625 48.390625 20.9375 50.703125 
Q 25 53.03125 30.171875 53.03125 
Q 35.9375 53.03125 39.625 50.640625 
Q 43.3125 48.25 44.828125 43.953125 
Q 50.984375 53.03125 60.84375 53.03125 
Q 68.5625 53.03125 72.703125 48.75 
Q 76.859375 44.484375 76.859375 35.59375 
L 76.859375 0 
L 68.109375 0 
L 68.109375 32.671875 
Q 68.109375 37.9375 67.25 40.25 
Q 66.40625 42.578125 64.15625 43.984375 
Q 61.921875 45.40625 58.890625 45.40625 
Q 53.421875 45.40625 49.796875 41.765625 
Q 46.1875 38.140625 46.1875 30.125 
L 46.1875 0 
L 37.40625 0 
L 37.40625 33.6875 
Q 37.40625 39.546875 35.25 42.46875 
Q 33.109375 45.40625 28.21875 45.40625 
Q 24.515625 45.40625 21.359375 43.453125 
Q 18.21875 41.5 16.796875 37.734375 
Q 15.375 33.984375 15.375 26.90625 
L 15.375 0 
z
" id="ArialMT-109"/>
     <path d="M 21 0 
L 1.265625 51.859375 
L 10.546875 51.859375 
L 21.6875 20.796875 
Q 23.484375 15.765625 25 10.359375 
Q 26.171875 14.453125 28.265625 20.21875 
L 39.796875 51.859375 
L 48.828125 51.859375 
L 29.203125 0 
z
" id="ArialMT-118"/>
     <path d="M 6.390625 0 
L 6.390625 71.578125 
L 15.1875 71.578125 
L 15.1875 0 
z
" id="ArialMT-108"/>
     <path d="M 6.59375 0 
L 6.59375 71.578125 
L 15.375 71.578125 
L 15.375 45.90625 
Q 21.53125 53.03125 30.90625 53.03125 
Q 36.671875 53.03125 40.921875 50.75 
Q 45.171875 48.484375 47 44.484375 
Q 48.828125 40.484375 48.828125 32.859375 
L 48.828125 0 
L 40.046875 0 
L 40.046875 32.859375 
Q 40.046875 39.453125 37.1875 42.453125 
Q 34.328125 45.453125 29.109375 45.453125 
Q 25.203125 45.453125 21.75 43.421875 
Q 18.3125 41.40625 16.84375 37.9375 
Q 15.375 34.46875 15.375 28.375 
L 15.375 0 
z
" id="ArialMT-104"/>
     <path d="M 3.171875 21.484375 
L 3.171875 30.328125 
L 30.171875 30.328125 
L 30.171875 21.484375 
z
" id="ArialMT-45"/>
     <path d="M 7.625 0 
L 7.625 71.578125 
L 17.328125 71.578125 
L 54.9375 15.375 
L 54.9375 71.578125 
L 64.015625 71.578125 
L 64.015625 0 
L 54.296875 0 
L 16.703125 56.25 
L 16.703125 0 
z
" id="ArialMT-78"/>
     <path d="M 16.15625 0 
L 0.296875 51.859375 
L 9.375 51.859375 
L 17.625 21.921875 
L 20.703125 10.796875 
Q 20.90625 11.625 23.390625 21.484375 
L 31.640625 51.859375 
L 40.671875 51.859375 
L 48.4375 21.78125 
L 51.03125 11.859375 
L 54 21.875 
L 62.890625 51.859375 
L 71.4375 51.859375 
L 55.21875 0 
L 46.09375 0 
L 37.84375 31.0625 
L 35.84375 39.890625 
L 25.34375 0 
z
" id="ArialMT-119"/>
     <path d="M 7.421875 0 
L 7.421875 71.578125 
L 21.6875 71.578125 
L 38.625 20.90625 
Q 40.96875 13.8125 42.046875 10.296875 
Q 43.265625 14.203125 45.84375 21.78125 
L 62.984375 71.578125 
L 75.734375 71.578125 
L 75.734375 0 
L 66.609375 0 
L 66.609375 59.90625 
L 45.796875 0 
L 37.25 0 
L 16.546875 60.9375 
L 16.546875 0 
z
" id="ArialMT-77"/>
     <path d="M -1.515625 -19.875 
L -1.515625 -13.53125 
L 56.734375 -13.53125 
L 56.734375 -19.875 
z
" id="ArialMT-95"/>
    </defs>
    <g style="fill:#262626;" transform="translate(89.110313 23.748375)scale(0.12 -0.12)">
     <use xlink:href="#ArialMT-68"/>
     <use x="72.216797" xlink:href="#ArialMT-105"/>
     <use x="94.433594" xlink:href="#ArialMT-115"/>
     <use x="144.433594" xlink:href="#ArialMT-116"/>
     <use x="172.216797" xlink:href="#ArialMT-114"/>
     <use x="205.517578" xlink:href="#ArialMT-105"/>
     <use x="227.734375" xlink:href="#ArialMT-98"/>
     <use x="283.349609" xlink:href="#ArialMT-117"/>
     <use x="338.964844" xlink:href="#ArialMT-116"/>
     <use x="366.748047" xlink:href="#ArialMT-105"/>
     <use x="388.964844" xlink:href="#ArialMT-111"/>
     <use x="444.580078" xlink:href="#ArialMT-110"/>
     <use x="500.195312" xlink:href="#ArialMT-32"/>
     <use x="527.978516" xlink:href="#ArialMT-111"/>
     <use x="583.59375" xlink:href="#ArialMT-102"/>
     <use x="611.376953" xlink:href="#ArialMT-32"/>
     <use x="639.160156" xlink:href="#ArialMT-112"/>
     <use x="694.775391" xlink:href="#ArialMT-114"/>
     <use x="728.076172" xlink:href="#ArialMT-111"/>
     <use x="783.691406" xlink:href="#ArialMT-106"/>
     <use x="805.908203" xlink:href="#ArialMT-101"/>
     <use x="861.523438" xlink:href="#ArialMT-99"/>
     <use x="911.523438" xlink:href="#ArialMT-116"/>
     <use x="939.306641" xlink:href="#ArialMT-101"/>
     <use x="994.921875" xlink:href="#ArialMT-100"/>
     <use x="1050.537109" xlink:href="#ArialMT-32"/>
     <use x="1078.320312" xlink:href="#ArialMT-101"/>
     <use x="1133.935547" xlink:href="#ArialMT-121"/>
     <use x="1183.935547" xlink:href="#ArialMT-101"/>
     <use x="1239.550781" xlink:href="#ArialMT-32"/>
     <use x="1267.333984" xlink:href="#ArialMT-109"/>
     <use x="1350.634766" xlink:href="#ArialMT-111"/>
     <use x="1406.25" xlink:href="#ArialMT-118"/>
     <use x="1456.25" xlink:href="#ArialMT-101"/>
     <use x="1511.865234" xlink:href="#ArialMT-109"/>
     <use x="1595.166016" xlink:href="#ArialMT-101"/>
     <use x="1650.78125" xlink:href="#ArialMT-110"/>
     <use x="1706.396484" xlink:href="#ArialMT-116"/>
     <use x="1734.179688" xlink:href="#ArialMT-32"/>
     <use x="1761.962891" xlink:href="#ArialMT-118"/>
     <use x="1811.962891" xlink:href="#ArialMT-101"/>
     <use x="1867.578125" xlink:href="#ArialMT-108"/>
     <use x="1889.794922" xlink:href="#ArialMT-111"/>
     <use x="1945.410156" xlink:href="#ArialMT-99"/>
     <use x="1995.410156" xlink:href="#ArialMT-105"/>
     <use x="2017.626953" xlink:href="#ArialMT-116"/>
     <use x="2045.410156" xlink:href="#ArialMT-121"/>
     <use x="2095.410156" xlink:href="#ArialMT-32"/>
     <use x="2123.193359" xlink:href="#ArialMT-111"/>
     <use x="2178.808594" xlink:href="#ArialMT-110"/>
     <use x="2234.423828" xlink:href="#ArialMT-32"/>
     <use x="2262.207031" xlink:href="#ArialMT-116"/>
     <use x="2289.990234" xlink:href="#ArialMT-104"/>
     <use x="2345.605469" xlink:href="#ArialMT-101"/>
     <use x="2401.220703" xlink:href="#ArialMT-32"/>
     <use x="2429.003906" xlink:href="#ArialMT-115"/>
     <use x="2479.003906" xlink:href="#ArialMT-99"/>
     <use x="2529.003906" xlink:href="#ArialMT-114"/>
     <use x="2562.304688" xlink:href="#ArialMT-101"/>
     <use x="2617.919922" xlink:href="#ArialMT-101"/>
     <use x="2673.535156" xlink:href="#ArialMT-110"/>
     <use x="2729.150391" xlink:href="#ArialMT-32"/>
     <use x="2756.933594" xlink:href="#ArialMT-45"/>
     <use x="2790.234375" xlink:href="#ArialMT-32"/>
     <use x="2818.017578" xlink:href="#ArialMT-78"/>
     <use x="2890.234375" xlink:href="#ArialMT-101"/>
     <use x="2945.849609" xlink:href="#ArialMT-119"/>
     <use x="3018.066406" xlink:href="#ArialMT-77"/>
     <use x="3101.367188" xlink:href="#ArialMT-49"/>
     <use x="3156.982422" xlink:href="#ArialMT-95"/>
     <use x="3212.597656" xlink:href="#ArialMT-57"/>
     <use x="3268.212891" xlink:href="#ArialMT-95"/>
     <use x="3323.828125" xlink:href="#ArialMT-51"/>
     <use x="3379.443359" xlink:href="#ArialMT-53"/>
    </g>
   </g>
   <g id="legend_1">
    <g id="line2d_18">
     <path d="M 193.925 60.2075 
L 213.925 60.2075 
" style="fill:none;stroke:#ff0000;stroke-dasharray:7.4,3.2;stroke-dashoffset:0;stroke-width:2;"/>
    </g>
    <g id="line2d_19"/>
    <g id="text_18">
     <!-- Average angle in light: -150.36 degrees -->
     <defs>
      <path d="M -0.140625 0 
L 27.34375 71.578125 
L 37.546875 71.578125 
L 66.84375 0 
L 56.0625 0 
L 47.703125 21.6875 
L 17.78125 21.6875 
L 9.90625 0 
z
M 20.515625 29.390625 
L 44.78125 29.390625 
L 37.3125 49.21875 
Q 33.890625 58.25 32.234375 64.0625 
Q 30.859375 57.171875 28.375 50.390625 
z
" id="ArialMT-65"/>
      <path d="M 40.4375 6.390625 
Q 35.546875 2.25 31.03125 0.53125 
Q 26.515625 -1.171875 21.34375 -1.171875 
Q 12.796875 -1.171875 8.203125 3 
Q 3.609375 7.171875 3.609375 13.671875 
Q 3.609375 17.484375 5.34375 20.625 
Q 7.078125 23.78125 9.890625 25.6875 
Q 12.703125 27.59375 16.21875 28.5625 
Q 18.796875 29.25 24.03125 29.890625 
Q 34.671875 31.15625 39.703125 32.90625 
Q 39.75 34.71875 39.75 35.203125 
Q 39.75 40.578125 37.25 42.78125 
Q 33.890625 45.75 27.25 45.75 
Q 21.046875 45.75 18.09375 43.578125 
Q 15.140625 41.40625 13.71875 35.890625 
L 5.125 37.0625 
Q 6.296875 42.578125 8.984375 45.96875 
Q 11.671875 49.359375 16.75 51.1875 
Q 21.828125 53.03125 28.515625 53.03125 
Q 35.15625 53.03125 39.296875 51.46875 
Q 43.453125 49.90625 45.40625 47.53125 
Q 47.359375 45.171875 48.140625 41.546875 
Q 48.578125 39.3125 48.578125 33.453125 
L 48.578125 21.734375 
Q 48.578125 9.46875 49.140625 6.21875 
Q 49.703125 2.984375 51.375 0 
L 42.1875 0 
Q 40.828125 2.734375 40.4375 6.390625 
z
M 39.703125 26.03125 
Q 34.90625 24.078125 25.34375 22.703125 
Q 19.921875 21.921875 17.671875 20.9375 
Q 15.4375 19.96875 14.203125 18.09375 
Q 12.984375 16.21875 12.984375 13.921875 
Q 12.984375 10.40625 15.640625 8.0625 
Q 18.3125 5.71875 23.4375 5.71875 
Q 28.515625 5.71875 32.46875 7.9375 
Q 36.421875 10.15625 38.28125 14.015625 
Q 39.703125 17 39.703125 22.796875 
z
" id="ArialMT-97"/>
      <path d="M 4.984375 -4.296875 
L 13.53125 -5.5625 
Q 14.0625 -9.515625 16.5 -11.328125 
Q 19.78125 -13.765625 25.4375 -13.765625 
Q 31.546875 -13.765625 34.859375 -11.328125 
Q 38.1875 -8.890625 39.359375 -4.5 
Q 40.046875 -1.8125 39.984375 6.78125 
Q 34.234375 0 25.640625 0 
Q 14.9375 0 9.078125 7.71875 
Q 3.21875 15.4375 3.21875 26.21875 
Q 3.21875 33.640625 5.90625 39.90625 
Q 8.59375 46.1875 13.6875 49.609375 
Q 18.796875 53.03125 25.6875 53.03125 
Q 34.859375 53.03125 40.828125 45.609375 
L 40.828125 51.859375 
L 48.921875 51.859375 
L 48.921875 7.03125 
Q 48.921875 -5.078125 46.453125 -10.125 
Q 44 -15.1875 38.640625 -18.109375 
Q 33.296875 -21.046875 25.484375 -21.046875 
Q 16.21875 -21.046875 10.5 -16.875 
Q 4.78125 -12.703125 4.984375 -4.296875 
z
M 12.25 26.859375 
Q 12.25 16.65625 16.296875 11.96875 
Q 20.359375 7.28125 26.46875 7.28125 
Q 32.515625 7.28125 36.609375 11.9375 
Q 40.71875 16.609375 40.71875 26.5625 
Q 40.71875 36.078125 36.5 40.90625 
Q 32.28125 45.75 26.3125 45.75 
Q 20.453125 45.75 16.34375 40.984375 
Q 12.25 36.234375 12.25 26.859375 
z
" id="ArialMT-103"/>
      <path d="M 9.03125 41.84375 
L 9.03125 51.859375 
L 19.046875 51.859375 
L 19.046875 41.84375 
z
M 9.03125 0 
L 9.03125 10.015625 
L 19.046875 10.015625 
L 19.046875 0 
z
" id="ArialMT-58"/>
      <path d="M 49.75 54.046875 
L 41.015625 53.375 
Q 39.84375 58.546875 37.703125 60.890625 
Q 34.125 64.65625 28.90625 64.65625 
Q 24.703125 64.65625 21.53125 62.3125 
Q 17.390625 59.28125 14.984375 53.46875 
Q 12.59375 47.65625 12.5 36.921875 
Q 15.671875 41.75 20.265625 44.09375 
Q 24.859375 46.4375 29.890625 46.4375 
Q 38.671875 46.4375 44.84375 39.96875 
Q 51.03125 33.5 51.03125 23.25 
Q 51.03125 16.5 48.125 10.71875 
Q 45.21875 4.9375 40.140625 1.859375 
Q 35.0625 -1.21875 28.609375 -1.21875 
Q 17.625 -1.21875 10.6875 6.859375 
Q 3.765625 14.9375 3.765625 33.5 
Q 3.765625 54.25 11.421875 63.671875 
Q 18.109375 71.875 29.4375 71.875 
Q 37.890625 71.875 43.28125 67.140625 
Q 48.6875 62.40625 49.75 54.046875 
z
M 13.875 23.1875 
Q 13.875 18.65625 15.796875 14.5 
Q 17.71875 10.359375 21.1875 8.171875 
Q 24.65625 6 28.46875 6 
Q 34.03125 6 38.03125 10.484375 
Q 42.046875 14.984375 42.046875 22.703125 
Q 42.046875 30.125 38.078125 34.390625 
Q 34.125 38.671875 28.125 38.671875 
Q 22.171875 38.671875 18.015625 34.390625 
Q 13.875 30.125 13.875 23.1875 
z
" id="ArialMT-54"/>
     </defs>
     <g style="fill:#262626;" transform="translate(221.925 63.7075)scale(0.1 -0.1)">
      <use xlink:href="#ArialMT-65"/>
      <use x="66.683594" xlink:href="#ArialMT-118"/>
      <use x="116.683594" xlink:href="#ArialMT-101"/>
      <use x="172.298828" xlink:href="#ArialMT-114"/>
      <use x="205.599609" xlink:href="#ArialMT-97"/>
      <use x="261.214844" xlink:href="#ArialMT-103"/>
      <use x="316.830078" xlink:href="#ArialMT-101"/>
      <use x="372.445312" xlink:href="#ArialMT-32"/>
      <use x="400.228516" xlink:href="#ArialMT-97"/>
      <use x="455.84375" xlink:href="#ArialMT-110"/>
      <use x="511.458984" xlink:href="#ArialMT-103"/>
      <use x="567.074219" xlink:href="#ArialMT-108"/>
      <use x="589.291016" xlink:href="#ArialMT-101"/>
      <use x="644.90625" xlink:href="#ArialMT-32"/>
      <use x="672.689453" xlink:href="#ArialMT-105"/>
      <use x="694.90625" xlink:href="#ArialMT-110"/>
      <use x="750.521484" xlink:href="#ArialMT-32"/>
      <use x="778.304688" xlink:href="#ArialMT-108"/>
      <use x="800.521484" xlink:href="#ArialMT-105"/>
      <use x="822.738281" xlink:href="#ArialMT-103"/>
      <use x="878.353516" xlink:href="#ArialMT-104"/>
      <use x="933.96875" xlink:href="#ArialMT-116"/>
      <use x="961.751953" xlink:href="#ArialMT-58"/>
      <use x="989.535156" xlink:href="#ArialMT-32"/>
      <use x="1017.318359" xlink:href="#ArialMT-45"/>
      <use x="1050.619141" xlink:href="#ArialMT-49"/>
      <use x="1106.234375" xlink:href="#ArialMT-53"/>
      <use x="1161.849609" xlink:href="#ArialMT-48"/>
      <use x="1217.464844" xlink:href="#ArialMT-46"/>
      <use x="1245.248047" xlink:href="#ArialMT-51"/>
      <use x="1300.863281" xlink:href="#ArialMT-54"/>
      <use x="1356.478516" xlink:href="#ArialMT-32"/>
      <use x="1384.261719" xlink:href="#ArialMT-100"/>
      <use x="1439.876953" xlink:href="#ArialMT-101"/>
      <use x="1495.492188" xlink:href="#ArialMT-103"/>
      <use x="1551.107422" xlink:href="#ArialMT-114"/>
      <use x="1584.408203" xlink:href="#ArialMT-101"/>
      <use x="1640.023438" xlink:href="#ArialMT-101"/>
      <use x="1695.638672" xlink:href="#ArialMT-115"/>
     </g>
    </g>
    <g id="PathCollection_4">
     <g>
      <use style="fill:#4c72b0;stroke:#4c72b0;stroke-width:0.3;" x="203.925" xlink:href="#mc43cbd6fb8" y="75.345"/>
     </g>
    </g>
    <g id="text_19">
     <!-- $-0.5 &lt; t &lt; 0.$ -->
     <defs>
      <path d="M 10.59375 35.5 
L 73.1875 35.5 
L 73.1875 27.203125 
L 10.59375 27.203125 
z
" id="DejaVuSans-8722"/>
      <path d="M 31.78125 66.40625 
Q 24.171875 66.40625 20.328125 58.90625 
Q 16.5 51.421875 16.5 36.375 
Q 16.5 21.390625 20.328125 13.890625 
Q 24.171875 6.390625 31.78125 6.390625 
Q 39.453125 6.390625 43.28125 13.890625 
Q 47.125 21.390625 47.125 36.375 
Q 47.125 51.421875 43.28125 58.90625 
Q 39.453125 66.40625 31.78125 66.40625 
z
M 31.78125 74.21875 
Q 44.046875 74.21875 50.515625 64.515625 
Q 56.984375 54.828125 56.984375 36.375 
Q 56.984375 17.96875 50.515625 8.265625 
Q 44.046875 -1.421875 31.78125 -1.421875 
Q 19.53125 -1.421875 13.0625 8.265625 
Q 6.59375 17.96875 6.59375 36.375 
Q 6.59375 54.828125 13.0625 64.515625 
Q 19.53125 74.21875 31.78125 74.21875 
z
" id="DejaVuSans-48"/>
      <path d="M 10.6875 12.40625 
L 21 12.40625 
L 21 0 
L 10.6875 0 
z
" id="DejaVuSans-46"/>
      <path d="M 10.796875 72.90625 
L 49.515625 72.90625 
L 49.515625 64.59375 
L 19.828125 64.59375 
L 19.828125 46.734375 
Q 21.96875 47.46875 24.109375 47.828125 
Q 26.265625 48.1875 28.421875 48.1875 
Q 40.625 48.1875 47.75 41.5 
Q 54.890625 34.8125 54.890625 23.390625 
Q 54.890625 11.625 47.5625 5.09375 
Q 40.234375 -1.421875 26.90625 -1.421875 
Q 22.3125 -1.421875 17.546875 -0.640625 
Q 12.796875 0.140625 7.71875 1.703125 
L 7.71875 11.625 
Q 12.109375 9.234375 16.796875 8.0625 
Q 21.484375 6.890625 26.703125 6.890625 
Q 35.15625 6.890625 40.078125 11.328125 
Q 45.015625 15.765625 45.015625 23.390625 
Q 45.015625 31 40.078125 35.4375 
Q 35.15625 39.890625 26.703125 39.890625 
Q 22.75 39.890625 18.8125 39.015625 
Q 14.890625 38.140625 10.796875 36.28125 
z
" id="DejaVuSans-53"/>
      <path d="M 73.1875 49.21875 
L 22.796875 31.296875 
L 73.1875 13.484375 
L 73.1875 4.59375 
L 10.59375 27.296875 
L 10.59375 35.40625 
L 73.1875 58.109375 
z
" id="DejaVuSans-60"/>
      <path d="M 42.28125 54.6875 
L 40.921875 47.703125 
L 23 47.703125 
L 17.1875 18.015625 
Q 16.890625 16.359375 16.75 15.234375 
Q 16.609375 14.109375 16.609375 13.484375 
Q 16.609375 10.359375 18.484375 8.9375 
Q 20.359375 7.515625 24.515625 7.515625 
L 33.59375 7.515625 
L 32.078125 0 
L 23.484375 0 
Q 15.484375 0 11.546875 3.125 
Q 7.625 6.25 7.625 12.59375 
Q 7.625 13.71875 7.765625 15.0625 
Q 7.90625 16.40625 8.203125 18.015625 
L 14.015625 47.703125 
L 6.390625 47.703125 
L 7.8125 54.6875 
L 15.28125 54.6875 
L 18.3125 70.21875 
L 27.296875 70.21875 
L 24.3125 54.6875 
z
" id="DejaVuSans-Oblique-116"/>
     </defs>
     <g style="fill:#262626;" transform="translate(221.925 77.97)scale(0.1 -0.1)">
      <use transform="translate(0 0.78125)" xlink:href="#DejaVuSans-8722"/>
      <use transform="translate(83.789062 0.78125)" xlink:href="#DejaVuSans-48"/>
      <use transform="translate(147.412109 0.78125)" xlink:href="#DejaVuSans-46"/>
      <use transform="translate(179.199219 0.78125)" xlink:href="#DejaVuSans-53"/>
      <use transform="translate(262.304688 0.78125)" xlink:href="#DejaVuSans-60"/>
      <use transform="translate(365.576172 0.78125)" xlink:href="#DejaVuSans-Oblique-116"/>
      <use transform="translate(424.267578 0.78125)" xlink:href="#DejaVuSans-60"/>
      <use transform="translate(527.539062 0.78125)" xlink:href="#DejaVuSans-48"/>
     </g>
    </g>
    <g id="PathCollection_5">
     <g>
      <use style="fill:#55a868;stroke:#55a868;stroke-width:0.3;" x="203.925" xlink:href="#mf83cccada3" y="89.490312"/>
     </g>
    </g>
    <g id="text_20">
     <!-- $0. &lt; t &lt; 0.5$ -->
     <g style="fill:#262626;" transform="translate(221.925 92.115312)scale(0.1 -0.1)">
      <use transform="translate(0 0.78125)" xlink:href="#DejaVuSans-48"/>
      <use transform="translate(63.623047 0.78125)" xlink:href="#DejaVuSans-46"/>
      <use transform="translate(134.375 0.78125)" xlink:href="#DejaVuSans-60"/>
      <use transform="translate(237.646484 0.78125)" xlink:href="#DejaVuSans-Oblique-116"/>
      <use transform="translate(296.337891 0.78125)" xlink:href="#DejaVuSans-60"/>
      <use transform="translate(399.609375 0.78125)" xlink:href="#DejaVuSans-48"/>
      <use transform="translate(463.232422 0.78125)" xlink:href="#DejaVuSans-46"/>
      <use transform="translate(495.019531 0.78125)" xlink:href="#DejaVuSans-53"/>
     </g>
    </g>
    <g id="PathCollection_6">
     <g>
      <use style="fill:#c44e52;stroke:#c44e52;stroke-width:0.3;" x="203.925" xlink:href="#m9ac3a9bb18" y="103.635625"/>
     </g>
    </g>
    <g id="text_21">
     <!-- $0.5 &lt; t &lt; 1.$ -->
     <defs>
      <path d="M 12.40625 8.296875 
L 28.515625 8.296875 
L 28.515625 63.921875 
L 10.984375 60.40625 
L 10.984375 69.390625 
L 28.421875 72.90625 
L 38.28125 72.90625 
L 38.28125 8.296875 
L 54.390625 8.296875 
L 54.390625 0 
L 12.40625 0 
z
" id="DejaVuSans-49"/>
     </defs>
     <g style="fill:#262626;" transform="translate(221.925 106.260625)scale(0.1 -0.1)">
      <use transform="translate(0 0.78125)" xlink:href="#DejaVuSans-48"/>
      <use transform="translate(63.623047 0.78125)" xlink:href="#DejaVuSans-46"/>
      <use transform="translate(95.410156 0.78125)" xlink:href="#DejaVuSans-53"/>
      <use transform="translate(178.515625 0.78125)" xlink:href="#DejaVuSans-60"/>
      <use transform="translate(281.787109 0.78125)" xlink:href="#DejaVuSans-Oblique-116"/>
      <use transform="translate(340.478516 0.78125)" xlink:href="#DejaVuSans-60"/>
      <use transform="translate(443.75 0.78125)" xlink:href="#DejaVuSans-49"/>
     </g>
    </g>
   </g>
  </g>
 </g>
 <defs>
  <clipPath id="p98a0cf1717">
   <path d="M 447.66 199.98 
C 447.66 179.959136 443.716326 160.13295 436.054674 141.636084 
C 428.393021 123.139218 417.162388 106.331389 403.0055 92.1745 
C 388.848611 78.017612 372.040782 66.786979 353.543916 59.125326 
C 335.04705 51.463674 315.220864 47.52 295.2 47.52 
C 275.179136 47.52 255.35295 51.463674 236.856084 59.125326 
C 218.359218 66.786979 201.551389 78.017612 187.3945 92.1745 
C 173.237612 106.331389 162.006979 123.139218 154.345326 141.636084 
C 146.683674 160.13295 142.74 179.959136 142.74 199.98 
C 142.74 220.000864 146.683674 239.82705 154.345326 258.323916 
C 162.006979 276.820782 173.237612 293.628611 187.3945 307.7855 
C 201.551389 321.942388 218.359218 333.173021 236.856084 340.834674 
C 255.35295 348.496326 275.179136 352.44 295.2 352.44 
C 315.220864 352.44 335.04705 348.496326 353.543916 340.834674 
C 372.040782 333.173021 388.848611 321.942388 403.0055 307.7855 
C 417.162388 293.628611 428.393021 276.820782 436.054674 258.323916 
C 443.716326 239.82705 447.66 220.000864 447.66 199.98 
M 295.2 199.98 
C 295.2 199.98 295.2 199.98 295.2 199.98 
C 295.2 199.98 295.2 199.98 295.2 199.98 
C 295.2 199.98 295.2 199.98 295.2 199.98 
C 295.2 199.98 295.2 199.98 295.2 199.98 
C 295.2 199.98 295.2 199.98 295.2 199.98 
C 295.2 199.98 295.2 199.98 295.2 199.98 
C 295.2 199.98 295.2 199.98 295.2 199.98 
C 295.2 199.98 295.2 199.98 295.2 199.98 
C 295.2 199.98 295.2 199.98 295.2 199.98 
C 295.2 199.98 295.2 199.98 295.2 199.98 
C 295.2 199.98 295.2 199.98 295.2 199.98 
C 295.2 199.98 295.2 199.98 295.2 199.98 
C 295.2 199.98 295.2 199.98 295.2 199.98 
C 295.2 199.98 295.2 199.98 295.2 199.98 
C 295.2 199.98 295.2 199.98 295.2 199.98 
C 295.2 199.98 295.2 199.98 295.2 199.98 
M 447.66 199.98 
z
"/>
  </clipPath>
 </defs>
</svg>
