<?xml version="1.0" encoding="utf-8" standalone="no"?>
<!DOCTYPE svg PUBLIC "-//W3C//DTD SVG 1.1//EN"
  "http://www.w3.org/Graphics/SVG/1.1/DTD/svg11.dtd">
<!-- Created with matplotlib (https://matplotlib.org/) -->
<svg height="396pt" version="1.1" viewBox="0 0 576 396" width="576pt" xmlns="http://www.w3.org/2000/svg" xmlns:xlink="http://www.w3.org/1999/xlink">
 <defs>
  <style type="text/css">
*{stroke-linecap:butt;stroke-linejoin:round;}
  </style>
 </defs>
 <g id="figure_1">
  <g id="patch_1">
   <path d="M 0 396 
L 576 396 
L 576 0 
L 0 0 
z
" style="fill:#ffffff;"/>
  </g>
  <g id="axes_1">
   <g id="patch_2">
    <path d="M 447.66 199.98 
C 447.66 179.959136 443.716326 160.13295 436.054674 141.636084 
C 428.393021 123.139218 417.162388 106.331389 403.0055 92.1745 
C 388.848611 78.017612 372.040782 66.786979 353.543916 59.125326 
C 335.04705 51.463674 315.220864 47.52 295.2 47.52 
C 275.179136 47.52 255.35295 51.463674 236.856084 59.125326 
C 218.359218 66.786979 201.551389 78.017612 187.3945 92.1745 
C 173.237612 106.331389 162.006979 123.139218 154.345326 141.636084 
C 146.683674 160.13295 142.74 179.959136 142.74 199.98 
C 142.74 220.000864 146.683674 239.82705 154.345326 258.323916 
C 162.006979 276.820782 173.237612 293.628611 187.3945 307.7855 
C 201.551389 321.942388 218.359218 333.173021 236.856084 340.834674 
C 255.35295 348.496326 275.179136 352.44 295.2 352.44 
C 315.220864 352.44 335.04705 348.496326 353.543916 340.834674 
C 372.040782 333.173021 388.848611 321.942388 403.0055 307.7855 
C 417.162388 293.628611 428.393021 276.820782 436.054674 258.323916 
C 443.716326 239.82705 447.66 220.000864 447.66 199.98 
M 295.2 199.98 
C 295.2 199.98 295.2 199.98 295.2 199.98 
C 295.2 199.98 295.2 199.98 295.2 199.98 
C 295.2 199.98 295.2 199.98 295.2 199.98 
C 295.2 199.98 295.2 199.98 295.2 199.98 
C 295.2 199.98 295.2 199.98 295.2 199.98 
C 295.2 199.98 295.2 199.98 295.2 199.98 
C 295.2 199.98 295.2 199.98 295.2 199.98 
C 295.2 199.98 295.2 199.98 295.2 199.98 
C 295.2 199.98 295.2 199.98 295.2 199.98 
C 295.2 199.98 295.2 199.98 295.2 199.98 
C 295.2 199.98 295.2 199.98 295.2 199.98 
C 295.2 199.98 295.2 199.98 295.2 199.98 
C 295.2 199.98 295.2 199.98 295.2 199.98 
C 295.2 199.98 295.2 199.98 295.2 199.98 
C 295.2 199.98 295.2 199.98 295.2 199.98 
C 295.2 199.98 295.2 199.98 295.2 199.98 
M 447.66 199.98 
z
" style="fill:#eaeaf2;"/>
   </g>
   <g id="matplotlib.axis_1">
    <g id="xtick_1">
     <g id="line2d_1">
      <path clip-path="url(#pdf0a810428)" d="M 295.2 199.98 
L 447.66 199.98 
" style="fill:none;stroke:#ffffff;stroke-linecap:round;"/>
     </g>
     <g id="text_1">
      <!-- 0° -->
      <defs>
       <path d="M 4.15625 35.296875 
Q 4.15625 48 6.765625 55.734375 
Q 9.375 63.484375 14.515625 67.671875 
Q 19.671875 71.875 27.484375 71.875 
Q 33.25 71.875 37.59375 69.546875 
Q 41.9375 67.234375 44.765625 62.859375 
Q 47.609375 58.5 49.21875 52.21875 
Q 50.828125 45.953125 50.828125 35.296875 
Q 50.828125 22.703125 48.234375 14.96875 
Q 45.65625 7.234375 40.5 3 
Q 35.359375 -1.21875 27.484375 -1.21875 
Q 17.140625 -1.21875 11.234375 6.203125 
Q 4.15625 15.140625 4.15625 35.296875 
z
M 13.1875 35.296875 
Q 13.1875 17.671875 17.3125 11.828125 
Q 21.4375 6 27.484375 6 
Q 33.546875 6 37.671875 11.859375 
Q 41.796875 17.71875 41.796875 35.296875 
Q 41.796875 52.984375 37.671875 58.78125 
Q 33.546875 64.59375 27.390625 64.59375 
Q 21.34375 64.59375 17.71875 59.46875 
Q 13.1875 52.9375 13.1875 35.296875 
z
" id="ArialMT-48"/>
       <path d="M 6.25 59.28125 
Q 6.25 64.890625 10.21875 68.84375 
Q 14.203125 72.796875 19.78125 72.796875 
Q 25.4375 72.796875 29.390625 68.84375 
Q 33.34375 64.890625 33.34375 59.28125 
Q 33.34375 53.65625 29.359375 49.671875 
Q 25.390625 45.703125 19.78125 45.703125 
Q 14.203125 45.703125 10.21875 49.65625 
Q 6.25 53.609375 6.25 59.28125 
z
M 11.578125 59.28125 
Q 11.578125 55.859375 13.984375 53.4375 
Q 16.40625 51.03125 19.828125 51.03125 
Q 23.1875 51.03125 25.609375 53.4375 
Q 28.03125 55.859375 28.03125 59.28125 
Q 28.03125 62.703125 25.609375 65.109375 
Q 23.1875 67.53125 19.828125 67.53125 
Q 16.40625 67.53125 13.984375 65.109375 
Q 11.578125 62.703125 11.578125 59.28125 
z
" id="ArialMT-176"/>
      </defs>
      <g style="fill:#262626;" transform="translate(456.880313 202.565156)scale(0.1 -0.1)">
       <use xlink:href="#ArialMT-48"/>
       <use x="55.615234" xlink:href="#ArialMT-176"/>
      </g>
     </g>
    </g>
    <g id="xtick_2">
     <g id="line2d_2">
      <path clip-path="url(#pdf0a810428)" d="M 295.2 199.98 
L 403.0055 92.1745 
" style="fill:none;stroke:#ffffff;stroke-linecap:round;"/>
     </g>
     <g id="text_2">
      <!-- 45° -->
      <defs>
       <path d="M 32.328125 0 
L 32.328125 17.140625 
L 1.265625 17.140625 
L 1.265625 25.203125 
L 33.9375 71.578125 
L 41.109375 71.578125 
L 41.109375 25.203125 
L 50.78125 25.203125 
L 50.78125 17.140625 
L 41.109375 17.140625 
L 41.109375 0 
z
M 32.328125 25.203125 
L 32.328125 57.46875 
L 9.90625 25.203125 
z
" id="ArialMT-52"/>
       <path d="M 4.15625 18.75 
L 13.375 19.53125 
Q 14.40625 12.796875 18.140625 9.390625 
Q 21.875 6 27.15625 6 
Q 33.5 6 37.890625 10.78125 
Q 42.28125 15.578125 42.28125 23.484375 
Q 42.28125 31 38.0625 35.34375 
Q 33.84375 39.703125 27 39.703125 
Q 22.75 39.703125 19.328125 37.765625 
Q 15.921875 35.84375 13.96875 32.765625 
L 5.71875 33.84375 
L 12.640625 70.609375 
L 48.25 70.609375 
L 48.25 62.203125 
L 19.671875 62.203125 
L 15.828125 42.96875 
Q 22.265625 47.46875 29.34375 47.46875 
Q 38.71875 47.46875 45.15625 40.96875 
Q 51.609375 34.46875 51.609375 24.265625 
Q 51.609375 14.546875 45.953125 7.46875 
Q 39.0625 -1.21875 27.15625 -1.21875 
Q 17.390625 -1.21875 11.203125 4.25 
Q 5.03125 9.71875 4.15625 18.75 
z
" id="ArialMT-53"/>
      </defs>
      <g style="fill:#262626;" transform="translate(405.344839 84.860161)scale(0.1 -0.1)">
       <use xlink:href="#ArialMT-52"/>
       <use x="55.615234" xlink:href="#ArialMT-53"/>
       <use x="111.230469" xlink:href="#ArialMT-176"/>
      </g>
     </g>
    </g>
    <g id="xtick_3">
     <g id="line2d_3">
      <path clip-path="url(#pdf0a810428)" d="M 295.2 199.98 
L 295.2 47.52 
" style="fill:none;stroke:#ffffff;stroke-linecap:round;"/>
     </g>
     <g id="text_3">
      <!-- 90° -->
      <defs>
       <path d="M 5.46875 16.546875 
L 13.921875 17.328125 
Q 14.984375 11.375 18.015625 8.6875 
Q 21.046875 6 25.78125 6 
Q 29.828125 6 32.875 7.859375 
Q 35.9375 9.71875 37.890625 12.8125 
Q 39.84375 15.921875 41.15625 21.1875 
Q 42.484375 26.46875 42.484375 31.9375 
Q 42.484375 32.515625 42.4375 33.6875 
Q 39.796875 29.5 35.234375 26.875 
Q 30.671875 24.265625 25.34375 24.265625 
Q 16.453125 24.265625 10.296875 30.703125 
Q 4.15625 37.15625 4.15625 47.703125 
Q 4.15625 58.59375 10.578125 65.234375 
Q 17 71.875 26.65625 71.875 
Q 33.640625 71.875 39.421875 68.109375 
Q 45.21875 64.359375 48.21875 57.390625 
Q 51.21875 50.4375 51.21875 37.25 
Q 51.21875 23.53125 48.234375 15.40625 
Q 45.265625 7.28125 39.375 3.03125 
Q 33.5 -1.21875 25.59375 -1.21875 
Q 17.1875 -1.21875 11.859375 3.4375 
Q 6.546875 8.109375 5.46875 16.546875 
z
M 41.453125 48.140625 
Q 41.453125 55.71875 37.421875 60.15625 
Q 33.40625 64.59375 27.734375 64.59375 
Q 21.875 64.59375 17.53125 59.8125 
Q 13.1875 55.03125 13.1875 47.40625 
Q 13.1875 40.578125 17.3125 36.296875 
Q 21.4375 32.03125 27.484375 32.03125 
Q 33.59375 32.03125 37.515625 36.296875 
Q 41.453125 40.578125 41.453125 48.140625 
z
" id="ArialMT-57"/>
      </defs>
      <g style="fill:#262626;" transform="translate(287.639844 36.105156)scale(0.1 -0.1)">
       <use xlink:href="#ArialMT-57"/>
       <use x="55.615234" xlink:href="#ArialMT-48"/>
       <use x="111.230469" xlink:href="#ArialMT-176"/>
      </g>
     </g>
    </g>
    <g id="xtick_4">
     <g id="line2d_4">
      <path clip-path="url(#pdf0a810428)" d="M 295.2 199.98 
L 187.3945 92.1745 
" style="fill:none;stroke:#ffffff;stroke-linecap:round;"/>
     </g>
     <g id="text_4">
      <!-- 135° -->
      <defs>
       <path d="M 37.25 0 
L 28.46875 0 
L 28.46875 56 
Q 25.296875 52.984375 20.140625 49.953125 
Q 14.984375 46.921875 10.890625 45.40625 
L 10.890625 53.90625 
Q 18.265625 57.375 23.78125 62.296875 
Q 29.296875 67.234375 31.59375 71.875 
L 37.25 71.875 
z
" id="ArialMT-49"/>
       <path d="M 4.203125 18.890625 
L 12.984375 20.0625 
Q 14.5 12.59375 18.140625 9.296875 
Q 21.78125 6 27 6 
Q 33.203125 6 37.46875 10.296875 
Q 41.75 14.59375 41.75 20.953125 
Q 41.75 27 37.796875 30.921875 
Q 33.84375 34.859375 27.734375 34.859375 
Q 25.25 34.859375 21.53125 33.890625 
L 22.515625 41.609375 
Q 23.390625 41.5 23.921875 41.5 
Q 29.546875 41.5 34.03125 44.421875 
Q 38.53125 47.359375 38.53125 53.46875 
Q 38.53125 58.296875 35.25 61.46875 
Q 31.984375 64.65625 26.8125 64.65625 
Q 21.6875 64.65625 18.265625 61.421875 
Q 14.84375 58.203125 13.875 51.765625 
L 5.078125 53.328125 
Q 6.6875 62.15625 12.390625 67.015625 
Q 18.109375 71.875 26.609375 71.875 
Q 32.46875 71.875 37.390625 69.359375 
Q 42.328125 66.84375 44.9375 62.5 
Q 47.5625 58.15625 47.5625 53.265625 
Q 47.5625 48.640625 45.0625 44.828125 
Q 42.578125 41.015625 37.703125 38.765625 
Q 44.046875 37.3125 47.5625 32.6875 
Q 51.078125 28.078125 51.078125 21.140625 
Q 51.078125 11.765625 44.234375 5.25 
Q 37.40625 -1.265625 26.953125 -1.265625 
Q 17.53125 -1.265625 11.296875 4.34375 
Q 5.078125 9.96875 4.203125 18.890625 
z
" id="ArialMT-51"/>
      </defs>
      <g style="fill:#262626;" transform="translate(167.15438 84.860161)scale(0.1 -0.1)">
       <use xlink:href="#ArialMT-49"/>
       <use x="55.615234" xlink:href="#ArialMT-51"/>
       <use x="111.230469" xlink:href="#ArialMT-53"/>
       <use x="166.845703" xlink:href="#ArialMT-176"/>
      </g>
     </g>
    </g>
    <g id="xtick_5">
     <g id="line2d_5">
      <path clip-path="url(#pdf0a810428)" d="M 295.2 199.98 
L 142.74 199.98 
" style="fill:none;stroke:#ffffff;stroke-linecap:round;"/>
     </g>
     <g id="text_5">
      <!-- 180° -->
      <defs>
       <path d="M 17.671875 38.8125 
Q 12.203125 40.828125 9.5625 44.53125 
Q 6.9375 48.25 6.9375 53.421875 
Q 6.9375 61.234375 12.546875 66.546875 
Q 18.171875 71.875 27.484375 71.875 
Q 36.859375 71.875 42.578125 66.421875 
Q 48.296875 60.984375 48.296875 53.171875 
Q 48.296875 48.1875 45.671875 44.5 
Q 43.0625 40.828125 37.75 38.8125 
Q 44.34375 36.671875 47.78125 31.875 
Q 51.21875 27.09375 51.21875 20.453125 
Q 51.21875 11.28125 44.71875 5.03125 
Q 38.234375 -1.21875 27.640625 -1.21875 
Q 17.046875 -1.21875 10.546875 5.046875 
Q 4.046875 11.328125 4.046875 20.703125 
Q 4.046875 27.6875 7.59375 32.390625 
Q 11.140625 37.109375 17.671875 38.8125 
z
M 15.921875 53.71875 
Q 15.921875 48.640625 19.1875 45.40625 
Q 22.46875 42.1875 27.6875 42.1875 
Q 32.765625 42.1875 36.015625 45.375 
Q 39.265625 48.578125 39.265625 53.21875 
Q 39.265625 58.0625 35.90625 61.359375 
Q 32.5625 64.65625 27.59375 64.65625 
Q 22.5625 64.65625 19.234375 61.421875 
Q 15.921875 58.203125 15.921875 53.71875 
z
M 13.09375 20.65625 
Q 13.09375 16.890625 14.875 13.375 
Q 16.65625 9.859375 20.171875 7.921875 
Q 23.6875 6 27.734375 6 
Q 34.03125 6 38.125 10.046875 
Q 42.234375 14.109375 42.234375 20.359375 
Q 42.234375 26.703125 38.015625 30.859375 
Q 33.796875 35.015625 27.4375 35.015625 
Q 21.234375 35.015625 17.15625 30.90625 
Q 13.09375 26.8125 13.09375 20.65625 
z
" id="ArialMT-56"/>
      </defs>
      <g style="fill:#262626;" transform="translate(118.399375 202.565156)scale(0.1 -0.1)">
       <use xlink:href="#ArialMT-49"/>
       <use x="55.615234" xlink:href="#ArialMT-56"/>
       <use x="111.230469" xlink:href="#ArialMT-48"/>
       <use x="166.845703" xlink:href="#ArialMT-176"/>
      </g>
     </g>
    </g>
    <g id="xtick_6">
     <g id="line2d_6">
      <path clip-path="url(#pdf0a810428)" d="M 295.2 199.98 
L 187.3945 307.7855 
" style="fill:none;stroke:#ffffff;stroke-linecap:round;"/>
     </g>
     <g id="text_6">
      <!-- 225° -->
      <defs>
       <path d="M 50.34375 8.453125 
L 50.34375 0 
L 3.03125 0 
Q 2.9375 3.171875 4.046875 6.109375 
Q 5.859375 10.9375 9.828125 15.625 
Q 13.8125 20.3125 21.34375 26.46875 
Q 33.015625 36.03125 37.109375 41.625 
Q 41.21875 47.21875 41.21875 52.203125 
Q 41.21875 57.421875 37.46875 61 
Q 33.734375 64.59375 27.734375 64.59375 
Q 21.390625 64.59375 17.578125 60.78125 
Q 13.765625 56.984375 13.71875 50.25 
L 4.6875 51.171875 
Q 5.609375 61.28125 11.65625 66.578125 
Q 17.71875 71.875 27.9375 71.875 
Q 38.234375 71.875 44.234375 66.15625 
Q 50.25 60.453125 50.25 52 
Q 50.25 47.703125 48.484375 43.546875 
Q 46.734375 39.40625 42.65625 34.8125 
Q 38.578125 30.21875 29.109375 22.21875 
Q 21.1875 15.578125 18.9375 13.203125 
Q 16.703125 10.84375 15.234375 8.453125 
z
" id="ArialMT-50"/>
      </defs>
      <g style="fill:#262626;" transform="translate(167.15438 320.270151)scale(0.1 -0.1)">
       <use xlink:href="#ArialMT-50"/>
       <use x="55.615234" xlink:href="#ArialMT-50"/>
       <use x="111.230469" xlink:href="#ArialMT-53"/>
       <use x="166.845703" xlink:href="#ArialMT-176"/>
      </g>
     </g>
    </g>
    <g id="xtick_7">
     <g id="line2d_7">
      <path clip-path="url(#pdf0a810428)" d="M 295.2 199.98 
L 295.2 352.44 
" style="fill:none;stroke:#ffffff;stroke-linecap:round;"/>
     </g>
     <g id="text_7">
      <!-- 270° -->
      <defs>
       <path d="M 4.734375 62.203125 
L 4.734375 70.65625 
L 51.078125 70.65625 
L 51.078125 63.8125 
Q 44.234375 56.546875 37.515625 44.484375 
Q 30.8125 32.421875 27.15625 19.671875 
Q 24.515625 10.6875 23.78125 0 
L 14.75 0 
Q 14.890625 8.453125 18.0625 20.40625 
Q 21.234375 32.375 27.171875 43.484375 
Q 33.109375 54.59375 39.796875 62.203125 
z
" id="ArialMT-55"/>
      </defs>
      <g style="fill:#262626;" transform="translate(284.859375 369.025156)scale(0.1 -0.1)">
       <use xlink:href="#ArialMT-50"/>
       <use x="55.615234" xlink:href="#ArialMT-55"/>
       <use x="111.230469" xlink:href="#ArialMT-48"/>
       <use x="166.845703" xlink:href="#ArialMT-176"/>
      </g>
     </g>
    </g>
    <g id="xtick_8">
     <g id="line2d_8">
      <path clip-path="url(#pdf0a810428)" d="M 295.2 199.98 
L 403.0055 307.7855 
" style="fill:none;stroke:#ffffff;stroke-linecap:round;"/>
     </g>
     <g id="text_8">
      <!-- 315° -->
      <g style="fill:#262626;" transform="translate(402.56437 320.270151)scale(0.1 -0.1)">
       <use xlink:href="#ArialMT-51"/>
       <use x="55.615234" xlink:href="#ArialMT-49"/>
       <use x="111.230469" xlink:href="#ArialMT-53"/>
       <use x="166.845703" xlink:href="#ArialMT-176"/>
      </g>
     </g>
    </g>
   </g>
   <g id="matplotlib.axis_2">
    <g id="ytick_1">
     <g id="line2d_9">
      <path clip-path="url(#pdf0a810428)" d="M 312.70446 199.98 
L 312.608569 198.150286 
L 312.321946 196.340618 
L 311.847731 194.570824 
L 311.19112 192.860295 
L 310.359307 191.22777 
L 309.361406 189.691136 
L 308.208349 188.26723 
L 306.91277 186.971651 
L 305.488864 185.818594 
L 303.95223 184.820693 
L 302.319705 183.98888 
L 300.609176 183.332269 
L 298.839382 182.858054 
L 297.029714 182.571431 
L 295.2 182.47554 
L 293.370286 182.571431 
L 291.560618 182.858054 
L 289.790824 183.332269 
L 288.080295 183.98888 
L 286.44777 184.820693 
L 284.911136 185.818594 
L 283.48723 186.971651 
L 282.191651 188.26723 
L 281.038594 189.691136 
L 280.040693 191.22777 
L 279.20888 192.860295 
L 278.552269 194.570824 
L 278.078054 196.340618 
L 277.791431 198.150286 
L 277.69554 199.98 
L 277.791431 201.809714 
L 278.078054 203.619382 
L 278.552269 205.389176 
L 279.20888 207.099705 
L 280.040693 208.73223 
L 281.038594 210.268864 
L 282.191651 211.69277 
L 283.48723 212.988349 
L 284.911136 214.141406 
L 286.44777 215.139307 
L 288.080295 215.97112 
L 289.790824 216.627731 
L 291.560618 217.101946 
L 293.370286 217.388569 
L 295.2 217.48446 
L 297.029714 217.388569 
L 298.839382 217.101946 
L 300.609176 216.627731 
L 302.319705 215.97112 
L 303.95223 215.139307 
L 305.488864 214.141406 
L 306.91277 212.988349 
L 308.208349 211.69277 
L 309.361406 210.268864 
L 310.359307 208.73223 
L 311.19112 207.099705 
L 311.847731 205.389176 
L 312.321946 203.619382 
L 312.608569 201.809714 
L 312.70446 199.98 
L 312.70446 199.98 
" style="fill:none;stroke:#ffffff;stroke-linecap:round;"/>
     </g>
     <g id="text_9">
      <!-- 0.05 -->
      <defs>
       <path d="M 9.078125 0 
L 9.078125 10.015625 
L 19.09375 10.015625 
L 19.09375 0 
z
" id="ArialMT-46"/>
      </defs>
      <g style="fill:#262626;" transform="translate(311.372013 191.293833)scale(0.1 -0.1)">
       <use xlink:href="#ArialMT-48"/>
       <use x="55.615234" xlink:href="#ArialMT-46"/>
       <use x="83.398438" xlink:href="#ArialMT-48"/>
       <use x="139.013672" xlink:href="#ArialMT-53"/>
      </g>
     </g>
    </g>
    <g id="ytick_2">
     <g id="line2d_10">
      <path clip-path="url(#pdf0a810428)" d="M 330.208921 199.98 
L 330.123641 197.537901 
L 329.868216 195.1077 
L 329.443892 192.701236 
L 328.852734 190.330234 
L 328.097624 188.006244 
L 327.18224 185.740589 
L 326.111042 183.544307 
L 324.889248 181.428099 
L 323.522812 179.402273 
L 322.018389 177.4767 
L 320.38331 175.66076 
L 318.62554 173.963302 
L 316.753644 172.392594 
L 314.77674 170.956289 
L 312.70446 169.661385 
L 310.546901 168.514191 
L 308.314572 167.520294 
L 306.018351 166.684538 
L 303.669424 166.010994 
L 301.279235 165.502944 
L 298.859429 165.162862 
L 296.421794 164.992406 
L 293.978206 164.992406 
L 291.540571 165.162862 
L 289.120765 165.502944 
L 286.730576 166.010994 
L 284.381649 166.684538 
L 282.085428 167.520294 
L 279.853099 168.514191 
L 277.69554 169.661385 
L 275.62326 170.956289 
L 273.646356 172.392594 
L 271.77446 173.963302 
L 270.01669 175.66076 
L 268.381611 177.4767 
L 266.877188 179.402273 
L 265.510752 181.428099 
L 264.288958 183.544307 
L 263.21776 185.740589 
L 262.302376 188.006244 
L 261.547266 190.330234 
L 260.956108 192.701236 
L 260.531784 195.1077 
L 260.276359 197.537901 
L 260.191079 199.98 
L 260.276359 202.422099 
L 260.531784 204.8523 
L 260.956108 207.258764 
L 261.547266 209.629766 
L 262.302376 211.953756 
L 263.21776 214.219411 
L 264.288958 216.415693 
L 265.510752 218.531901 
L 266.877188 220.557727 
L 268.381611 222.4833 
L 270.01669 224.29924 
L 271.77446 225.996698 
L 273.646356 227.567406 
L 275.62326 229.003711 
L 277.69554 230.298615 
L 279.853099 231.445809 
L 282.085428 232.439706 
L 284.381649 233.275462 
L 286.730576 233.949006 
L 289.120765 234.457056 
L 291.540571 234.797138 
L 293.978206 234.967594 
L 296.421794 234.967594 
L 298.859429 234.797138 
L 301.279235 234.457056 
L 303.669424 233.949006 
L 306.018351 233.275462 
L 308.314572 232.439706 
L 310.546901 231.445809 
L 312.70446 230.298615 
L 314.77674 229.003711 
L 316.753644 227.567406 
L 318.62554 225.996698 
L 320.38331 224.29924 
L 322.018389 222.4833 
L 323.522812 220.557727 
L 324.889248 218.531901 
L 326.111042 216.415693 
L 327.18224 214.219411 
L 328.097624 211.953756 
L 328.852734 209.629766 
L 329.443892 207.258764 
L 329.868216 204.8523 
L 330.123641 202.422099 
L 330.208921 199.98 
L 330.208921 199.98 
" style="fill:none;stroke:#ffffff;stroke-linecap:round;"/>
     </g>
     <g id="text_10">
      <!-- 0.10 -->
      <g style="fill:#262626;" transform="translate(327.544025 184.595166)scale(0.1 -0.1)">
       <use xlink:href="#ArialMT-48"/>
       <use x="55.615234" xlink:href="#ArialMT-46"/>
       <use x="83.398438" xlink:href="#ArialMT-49"/>
       <use x="139.013672" xlink:href="#ArialMT-48"/>
      </g>
     </g>
    </g>
    <g id="ytick_3">
     <g id="line2d_11">
      <path clip-path="url(#pdf0a810428)" d="M 347.713381 199.98 
L 347.585461 196.316852 
L 347.202324 192.67155 
L 346.565838 189.061854 
L 345.679102 185.505351 
L 344.546437 182.019366 
L 343.173361 178.620884 
L 341.566563 175.326461 
L 339.733873 172.152148 
L 337.684218 169.113409 
L 335.427584 166.225049 
L 332.974965 163.50114 
L 330.33831 160.954953 
L 327.530466 158.598891 
L 324.56511 156.444434 
L 321.45669 154.502078 
L 318.220351 152.781286 
L 314.871859 151.290441 
L 311.427527 150.036807 
L 307.904137 149.026491 
L 304.318853 148.264415 
L 300.689143 147.754293 
L 297.032691 147.498609 
L 293.367309 147.498609 
L 289.710857 147.754293 
L 286.081147 148.264415 
L 282.495863 149.026491 
L 278.972473 150.036807 
L 275.528141 151.290441 
L 272.179649 152.781286 
L 268.94331 154.502078 
L 265.83489 156.444434 
L 262.869534 158.598891 
L 260.06169 160.954953 
L 257.425035 163.50114 
L 254.972416 166.225049 
L 252.715782 169.113409 
L 250.666127 172.152148 
L 248.833437 175.326461 
L 247.226639 178.620884 
L 245.853563 182.019366 
L 244.720898 185.505351 
L 243.834162 189.061854 
L 243.197676 192.67155 
L 242.814539 196.316852 
L 242.686619 199.98 
L 242.814539 203.643148 
L 243.197676 207.28845 
L 243.834162 210.898146 
L 244.720898 214.454649 
L 245.853563 217.940634 
L 247.226639 221.339116 
L 248.833437 224.633539 
L 250.666127 227.807852 
L 252.715782 230.846591 
L 254.972416 233.734951 
L 257.425035 236.45886 
L 260.06169 239.005047 
L 262.869534 241.361109 
L 265.83489 243.515566 
L 268.94331 245.457922 
L 272.179649 247.178714 
L 275.528141 248.669559 
L 278.972473 249.923193 
L 282.495863 250.933509 
L 286.081147 251.695585 
L 289.710857 252.205707 
L 293.367309 252.461391 
L 297.032691 252.461391 
L 300.689143 252.205707 
L 304.318853 251.695585 
L 307.904137 250.933509 
L 311.427527 249.923193 
L 314.871859 248.669559 
L 318.220351 247.178714 
L 321.45669 245.457922 
L 324.56511 243.515566 
L 327.530466 241.361109 
L 330.33831 239.005047 
L 332.974965 236.45886 
L 335.427584 233.734951 
L 337.684218 230.846591 
L 339.733873 227.807852 
L 341.566563 224.633539 
L 343.173361 221.339116 
L 344.546437 217.940634 
L 345.679102 214.454649 
L 346.565838 210.898146 
L 347.202324 207.28845 
L 347.585461 203.643148 
L 347.713381 199.98 
L 347.713381 199.98 
" style="fill:none;stroke:#ffffff;stroke-linecap:round;"/>
     </g>
     <g id="text_11">
      <!-- 0.15 -->
      <g style="fill:#262626;" transform="translate(343.716038 177.896499)scale(0.1 -0.1)">
       <use xlink:href="#ArialMT-48"/>
       <use x="55.615234" xlink:href="#ArialMT-46"/>
       <use x="83.398438" xlink:href="#ArialMT-49"/>
       <use x="139.013672" xlink:href="#ArialMT-53"/>
      </g>
     </g>
    </g>
    <g id="ytick_4">
     <g id="line2d_12">
      <path clip-path="url(#pdf0a810428)" d="M 365.217841 199.98 
L 365.047281 195.095802 
L 364.536432 190.2354 
L 363.687783 185.422472 
L 362.505469 180.680467 
L 360.995249 176.032488 
L 359.164481 171.501178 
L 357.022084 167.108615 
L 354.578497 162.876197 
L 351.845623 158.824546 
L 348.836778 154.973399 
L 345.56662 151.341521 
L 342.051081 147.946604 
L 338.307287 144.805188 
L 334.35348 141.932579 
L 330.208921 139.342771 
L 325.893801 137.048381 
L 321.429145 135.060588 
L 316.836703 133.389076 
L 312.138849 132.041988 
L 307.358471 131.025887 
L 302.518857 130.345724 
L 297.643587 130.004812 
L 292.756413 130.004812 
L 287.881143 130.345724 
L 283.041529 131.025887 
L 278.261151 132.041988 
L 273.563297 133.389076 
L 268.970855 135.060588 
L 264.506199 137.048381 
L 260.191079 139.342771 
L 256.04652 141.932579 
L 252.092713 144.805188 
L 248.348919 147.946604 
L 244.83338 151.341521 
L 241.563222 154.973399 
L 238.554377 158.824546 
L 235.821503 162.876197 
L 233.377916 167.108615 
L 231.235519 171.501178 
L 229.404751 176.032488 
L 227.894531 180.680467 
L 226.712217 185.422472 
L 225.863568 190.2354 
L 225.352719 195.095802 
L 225.182159 199.98 
L 225.352719 204.864198 
L 225.863568 209.7246 
L 226.712217 214.537528 
L 227.894531 219.279533 
L 229.404751 223.927512 
L 231.235519 228.458822 
L 233.377916 232.851385 
L 235.821503 237.083803 
L 238.554377 241.135454 
L 241.563222 244.986601 
L 244.83338 248.618479 
L 248.348919 252.013396 
L 252.092713 255.154812 
L 256.04652 258.027421 
L 260.191079 260.617229 
L 264.506199 262.911619 
L 268.970855 264.899412 
L 273.563297 266.570924 
L 278.261151 267.918012 
L 283.041529 268.934113 
L 287.881143 269.614276 
L 292.756413 269.955188 
L 297.643587 269.955188 
L 302.518857 269.614276 
L 307.358471 268.934113 
L 312.138849 267.918012 
L 316.836703 266.570924 
L 321.429145 264.899412 
L 325.893801 262.911619 
L 330.208921 260.617229 
L 334.35348 258.027421 
L 338.307287 255.154812 
L 342.051081 252.013396 
L 345.56662 248.618479 
L 348.836778 244.986601 
L 351.845623 241.135454 
L 354.578497 237.083803 
L 357.022084 232.851385 
L 359.164481 228.458822 
L 360.995249 223.927512 
L 362.505469 219.279533 
L 363.687783 214.537528 
L 364.536432 209.7246 
L 365.047281 204.864198 
L 365.217841 199.98 
L 365.217841 199.98 
" style="fill:none;stroke:#ffffff;stroke-linecap:round;"/>
     </g>
     <g id="text_12">
      <!-- 0.20 -->
      <g style="fill:#262626;" transform="translate(359.88805 171.197832)scale(0.1 -0.1)">
       <use xlink:href="#ArialMT-48"/>
       <use x="55.615234" xlink:href="#ArialMT-46"/>
       <use x="83.398438" xlink:href="#ArialMT-50"/>
       <use x="139.013672" xlink:href="#ArialMT-48"/>
      </g>
     </g>
    </g>
    <g id="ytick_5">
     <g id="line2d_13">
      <path clip-path="url(#pdf0a810428)" d="M 382.722302 199.98 
L 382.509102 193.874753 
L 381.870541 187.79925 
L 380.809729 181.78309 
L 379.331836 175.855584 
L 377.444061 170.04561 
L 375.155601 164.381473 
L 372.477605 158.890768 
L 369.423121 153.600246 
L 366.007029 148.535682 
L 362.245973 143.721749 
L 358.158275 139.181901 
L 353.763851 134.938255 
L 349.084109 131.011485 
L 344.14185 127.420724 
L 338.961151 124.183463 
L 333.567252 121.315476 
L 327.986431 118.830735 
L 322.245879 116.741345 
L 316.373561 115.057485 
L 310.398088 113.787359 
L 304.348572 112.937155 
L 298.254484 112.511015 
L 292.145516 112.511015 
L 286.051428 112.937155 
L 280.001912 113.787359 
L 274.026439 115.057485 
L 268.154121 116.741345 
L 262.413569 118.830735 
L 256.832748 121.315476 
L 251.438849 124.183463 
L 246.25815 127.420724 
L 241.315891 131.011485 
L 236.636149 134.938255 
L 232.241725 139.181901 
L 228.154027 143.721749 
L 224.392971 148.535682 
L 220.976879 153.600246 
L 217.922395 158.890768 
L 215.244399 164.381473 
L 212.955939 170.04561 
L 211.068164 175.855584 
L 209.590271 181.78309 
L 208.529459 187.79925 
L 207.890898 193.874753 
L 207.677698 199.98 
L 207.890898 206.085247 
L 208.529459 212.16075 
L 209.590271 218.17691 
L 211.068164 224.104416 
L 212.955939 229.91439 
L 215.244399 235.578527 
L 217.922395 241.069232 
L 220.976879 246.359754 
L 224.392971 251.424318 
L 228.154027 256.238251 
L 232.241725 260.778099 
L 236.636149 265.021745 
L 241.315891 268.948515 
L 246.25815 272.539276 
L 251.438849 275.776537 
L 256.832748 278.644524 
L 262.413569 281.129265 
L 268.154121 283.218655 
L 274.026439 284.902515 
L 280.001912 286.172641 
L 286.051428 287.022845 
L 292.145516 287.448985 
L 298.254484 287.448985 
L 304.348572 287.022845 
L 310.398088 286.172641 
L 316.373561 284.902515 
L 322.245879 283.218655 
L 327.986431 281.129265 
L 333.567252 278.644524 
L 338.961151 275.776537 
L 344.14185 272.539276 
L 349.084109 268.948515 
L 353.763851 265.021745 
L 358.158275 260.778099 
L 362.245973 256.238251 
L 366.007029 251.424318 
L 369.423121 246.359754 
L 372.477605 241.069232 
L 375.155601 235.578527 
L 377.444061 229.91439 
L 379.331836 224.104416 
L 380.809729 218.17691 
L 381.870541 212.16075 
L 382.509102 206.085247 
L 382.722302 199.98 
L 382.722302 199.98 
" style="fill:none;stroke:#ffffff;stroke-linecap:round;"/>
     </g>
     <g id="text_13">
      <!-- 0.25 -->
      <g style="fill:#262626;" transform="translate(376.060063 164.499165)scale(0.1 -0.1)">
       <use xlink:href="#ArialMT-48"/>
       <use x="55.615234" xlink:href="#ArialMT-46"/>
       <use x="83.398438" xlink:href="#ArialMT-50"/>
       <use x="139.013672" xlink:href="#ArialMT-53"/>
      </g>
     </g>
    </g>
    <g id="ytick_6">
     <g id="line2d_14">
      <path clip-path="url(#pdf0a810428)" d="M 400.226762 199.98 
L 400.162782 196.314619 
L 399.970922 192.653703 
L 399.651414 189.001714 
L 399.204649 185.3631 
L 398.631169 181.742294 
L 397.931675 178.143708 
L 397.107018 174.571727 
L 396.158203 171.030701 
L 395.086386 167.524946 
L 393.892873 164.058732 
L 392.579118 160.636283 
L 391.146721 157.261767 
L 389.597428 153.939298 
L 387.933127 150.672922 
L 386.155844 147.466619 
L 384.267745 144.324296 
L 382.271132 141.24978 
L 380.168435 138.246818 
L 377.962218 135.319069 
L 375.655167 132.470099 
L 373.250095 129.703379 
L 370.74993 127.022281 
L 368.157719 124.43007 
L 365.476621 121.929905 
L 362.709901 119.524833 
L 359.860931 117.217782 
L 356.933182 115.011565 
L 353.93022 112.908868 
L 350.855704 110.912255 
L 347.713381 109.024156 
L 344.507078 107.246873 
L 341.240702 105.582572 
L 337.918233 104.033279 
L 334.543717 102.600882 
L 331.121268 101.287127 
L 327.655054 100.093614 
L 324.149299 99.021797 
L 320.608273 98.072982 
L 317.036292 97.248325 
L 313.437706 96.548831 
L 309.8169 95.975351 
L 306.178286 95.528586 
L 302.526297 95.209078 
L 298.865381 95.017218 
L 295.2 94.953238 
L 291.534619 95.017218 
L 287.873703 95.209078 
L 284.221714 95.528586 
L 280.5831 95.975351 
L 276.962294 96.548831 
L 273.363708 97.248325 
L 269.791727 98.072982 
L 266.250701 99.021797 
L 262.744946 100.093614 
L 259.278732 101.287127 
L 255.856283 102.600882 
L 252.481767 104.033279 
L 249.159298 105.582572 
L 245.892922 107.246873 
L 242.686619 109.024156 
L 239.544296 110.912255 
L 236.46978 112.908868 
L 233.466818 115.011565 
L 230.539069 117.217782 
L 227.690099 119.524833 
L 224.923379 121.929905 
L 222.242281 124.43007 
L 219.65007 127.022281 
L 217.149905 129.703379 
L 214.744833 132.470099 
L 212.437782 135.319069 
L 210.231565 138.246818 
L 208.128868 141.24978 
L 206.132255 144.324296 
L 204.244156 147.466619 
L 202.466873 150.672922 
L 200.802572 153.939298 
L 199.253279 157.261767 
L 197.820882 160.636283 
L 196.507127 164.058732 
L 195.313614 167.524946 
L 194.241797 171.030701 
L 193.292982 174.571727 
L 192.468325 178.143708 
L 191.768831 181.742294 
L 191.195351 185.3631 
L 190.748586 189.001714 
L 190.429078 192.653703 
L 190.237218 196.314619 
L 190.173238 199.98 
L 190.237218 203.645381 
L 190.429078 207.306297 
L 190.748586 210.958286 
L 191.195351 214.5969 
L 191.768831 218.217706 
L 192.468325 221.816292 
L 193.292982 225.388273 
L 194.241797 228.929299 
L 195.313614 232.435054 
L 196.507127 235.901268 
L 197.820882 239.323717 
L 199.253279 242.698233 
L 200.802572 246.020702 
L 202.466873 249.287078 
L 204.244156 252.493381 
L 206.132255 255.635704 
L 208.128868 258.71022 
L 210.231565 261.713182 
L 212.437782 264.640931 
L 214.744833 267.489901 
L 217.149905 270.256621 
L 219.65007 272.937719 
L 222.242281 275.52993 
L 224.923379 278.030095 
L 227.690099 280.435167 
L 230.539069 282.742218 
L 233.466818 284.948435 
L 236.46978 287.051132 
L 239.544296 289.047745 
L 242.686619 290.935844 
L 245.892922 292.713127 
L 249.159298 294.377428 
L 252.481767 295.926721 
L 255.856283 297.359118 
L 259.278732 298.672873 
L 262.744946 299.866386 
L 266.250701 300.938203 
L 269.791727 301.887018 
L 273.363708 302.711675 
L 276.962294 303.411169 
L 280.5831 303.984649 
L 284.221714 304.431414 
L 287.873703 304.750922 
L 291.534619 304.942782 
L 295.2 305.006762 
L 298.865381 304.942782 
L 302.526297 304.750922 
L 306.178286 304.431414 
L 309.8169 303.984649 
L 313.437706 303.411169 
L 317.036292 302.711675 
L 320.608273 301.887018 
L 324.149299 300.938203 
L 327.655054 299.866386 
L 331.121268 298.672873 
L 334.543717 297.359118 
L 337.918233 295.926721 
L 341.240702 294.377428 
L 344.507078 292.713127 
L 347.713381 290.935844 
L 350.855704 289.047745 
L 353.93022 287.051132 
L 356.933182 284.948435 
L 359.860931 282.742218 
L 362.709901 280.435167 
L 365.476621 278.030095 
L 368.157719 275.52993 
L 370.74993 272.937719 
L 373.250095 270.256621 
L 375.655167 267.489901 
L 377.962218 264.640931 
L 380.168435 261.713182 
L 382.271132 258.71022 
L 384.267745 255.635704 
L 386.155844 252.493381 
L 387.933127 249.287078 
L 389.597428 246.020702 
L 391.146721 242.698233 
L 392.579118 239.323717 
L 393.892873 235.901268 
L 395.086386 232.435054 
L 396.158203 228.929299 
L 397.107018 225.388273 
L 397.931675 221.816292 
L 398.631169 218.217706 
L 399.204649 214.5969 
L 399.651414 210.958286 
L 399.970922 207.306297 
L 400.162782 203.645381 
L 400.226762 199.98 
L 400.226762 199.98 
" style="fill:none;stroke:#ffffff;stroke-linecap:round;"/>
     </g>
     <g id="text_14">
      <!-- 0.30 -->
      <g style="fill:#262626;" transform="translate(392.232076 157.800498)scale(0.1 -0.1)">
       <use xlink:href="#ArialMT-48"/>
       <use x="55.615234" xlink:href="#ArialMT-46"/>
       <use x="83.398438" xlink:href="#ArialMT-51"/>
       <use x="139.013672" xlink:href="#ArialMT-48"/>
      </g>
     </g>
    </g>
    <g id="ytick_7">
     <g id="line2d_15">
      <path clip-path="url(#pdf0a810428)" d="M 417.731222 199.98 
L 417.656579 195.703722 
L 417.432742 191.432654 
L 417.059983 187.172 
L 416.538757 182.92695 
L 415.869698 178.702677 
L 415.053621 174.504326 
L 414.091521 170.337014 
L 412.98457 166.205818 
L 411.734117 162.11577 
L 410.341685 158.071854 
L 408.808971 154.078996 
L 407.137841 150.142062 
L 405.330333 146.265848 
L 403.388648 142.455076 
L 401.315151 138.714389 
L 399.11237 135.048345 
L 396.782987 131.46141 
L 394.329841 127.957955 
L 391.755921 124.542247 
L 389.064362 121.218449 
L 386.258444 117.990609 
L 383.341585 114.862661 
L 380.317339 111.838415 
L 377.189391 108.921556 
L 373.961551 106.115638 
L 370.637753 103.424079 
L 367.222045 100.850159 
L 363.71859 98.397013 
L 360.131655 96.06763 
L 356.465611 93.864849 
L 352.724924 91.791352 
L 348.914152 89.849667 
L 345.037938 88.042159 
L 341.101004 86.371029 
L 337.108146 84.838315 
L 333.06423 83.445883 
L 328.974182 82.19543 
L 324.842986 81.088479 
L 320.675674 80.126379 
L 316.477323 79.310302 
L 312.25305 78.641243 
L 308.008 78.120017 
L 303.747346 77.747258 
L 299.476278 77.523421 
L 295.2 77.448778 
L 290.923722 77.523421 
L 286.652654 77.747258 
L 282.392 78.120017 
L 278.14695 78.641243 
L 273.922677 79.310302 
L 269.724326 80.126379 
L 265.557014 81.088479 
L 261.425818 82.19543 
L 257.33577 83.445883 
L 253.291854 84.838315 
L 249.298996 86.371029 
L 245.362062 88.042159 
L 241.485848 89.849667 
L 237.675076 91.791352 
L 233.934389 93.864849 
L 230.268345 96.06763 
L 226.68141 98.397013 
L 223.177955 100.850159 
L 219.762247 103.424079 
L 216.438449 106.115638 
L 213.210609 108.921556 
L 210.082661 111.838415 
L 207.058415 114.862661 
L 204.141556 117.990609 
L 201.335638 121.218449 
L 198.644079 124.542247 
L 196.070159 127.957955 
L 193.617013 131.46141 
L 191.28763 135.048345 
L 189.084849 138.714389 
L 187.011352 142.455076 
L 185.069667 146.265848 
L 183.262159 150.142062 
L 181.591029 154.078996 
L 180.058315 158.071854 
L 178.665883 162.11577 
L 177.41543 166.205818 
L 176.308479 170.337014 
L 175.346379 174.504326 
L 174.530302 178.702677 
L 173.861243 182.92695 
L 173.340017 187.172 
L 172.967258 191.432654 
L 172.743421 195.703722 
L 172.668778 199.98 
L 172.743421 204.256278 
L 172.967258 208.527346 
L 173.340017 212.788 
L 173.861243 217.03305 
L 174.530302 221.257323 
L 175.346379 225.455674 
L 176.308479 229.622986 
L 177.41543 233.754182 
L 178.665883 237.84423 
L 180.058315 241.888146 
L 181.591029 245.881004 
L 183.262159 249.817938 
L 185.069667 253.694152 
L 187.011352 257.504924 
L 189.084849 261.245611 
L 191.28763 264.911655 
L 193.617013 268.49859 
L 196.070159 272.002045 
L 198.644079 275.417753 
L 201.335638 278.741551 
L 204.141556 281.969391 
L 207.058415 285.097339 
L 210.082661 288.121585 
L 213.210609 291.038444 
L 216.438449 293.844362 
L 219.762247 296.535921 
L 223.177955 299.109841 
L 226.68141 301.562987 
L 230.268345 303.89237 
L 233.934389 306.095151 
L 237.675076 308.168648 
L 241.485848 310.110333 
L 245.362062 311.917841 
L 249.298996 313.588971 
L 253.291854 315.121685 
L 257.33577 316.514117 
L 261.425818 317.76457 
L 265.557014 318.871521 
L 269.724326 319.833621 
L 273.922677 320.649698 
L 278.14695 321.318757 
L 282.392 321.839983 
L 286.652654 322.212742 
L 290.923722 322.436579 
L 295.2 322.511222 
L 299.476278 322.436579 
L 303.747346 322.212742 
L 308.008 321.839983 
L 312.25305 321.318757 
L 316.477323 320.649698 
L 320.675674 319.833621 
L 324.842986 318.871521 
L 328.974182 317.76457 
L 333.06423 316.514117 
L 337.108146 315.121685 
L 341.101004 313.588971 
L 345.037938 311.917841 
L 348.914152 310.110333 
L 352.724924 308.168648 
L 356.465611 306.095151 
L 360.131655 303.89237 
L 363.71859 301.562987 
L 367.222045 299.109841 
L 370.637753 296.535921 
L 373.961551 293.844362 
L 377.189391 291.038444 
L 380.317339 288.121585 
L 383.341585 285.097339 
L 386.258444 281.969391 
L 389.064362 278.741551 
L 391.755921 275.417753 
L 394.329841 272.002045 
L 396.782987 268.49859 
L 399.11237 264.911655 
L 401.315151 261.245611 
L 403.388648 257.504924 
L 405.330333 253.694152 
L 407.137841 249.817938 
L 408.808971 245.881004 
L 410.341685 241.888146 
L 411.734117 237.84423 
L 412.98457 233.754182 
L 414.091521 229.622986 
L 415.053621 225.455674 
L 415.869698 221.257323 
L 416.538757 217.03305 
L 417.059983 212.788 
L 417.432742 208.527346 
L 417.656579 204.256278 
L 417.731222 199.98 
L 417.731222 199.98 
" style="fill:none;stroke:#ffffff;stroke-linecap:round;"/>
     </g>
     <g id="text_15">
      <!-- 0.35 -->
      <g style="fill:#262626;" transform="translate(408.404088 151.101831)scale(0.1 -0.1)">
       <use xlink:href="#ArialMT-48"/>
       <use x="55.615234" xlink:href="#ArialMT-46"/>
       <use x="83.398438" xlink:href="#ArialMT-51"/>
       <use x="139.013672" xlink:href="#ArialMT-53"/>
      </g>
     </g>
    </g>
    <g id="ytick_8">
     <g id="line2d_16">
      <path clip-path="url(#pdf0a810428)" d="M 435.235682 199.98 
L 435.150376 195.092825 
L 434.894563 190.211605 
L 434.468552 185.342285 
L 433.872865 180.4908 
L 433.108226 175.663059 
L 432.175567 170.864944 
L 431.076024 166.102302 
L 429.810938 161.380935 
L 428.381848 156.706594 
L 426.790497 152.084976 
L 425.038824 147.52171 
L 423.128962 143.022357 
L 421.063238 138.592397 
L 418.844169 134.237229 
L 416.474458 129.962159 
L 413.956994 125.772394 
L 411.294842 121.67304 
L 408.491247 117.669091 
L 405.549624 113.765425 
L 402.473556 109.966798 
L 399.266793 106.277839 
L 395.93324 102.703041 
L 392.476959 99.24676 
L 388.902161 95.913207 
L 385.213202 92.706444 
L 381.414575 89.630376 
L 377.510909 86.688753 
L 373.50696 83.885158 
L 369.407606 81.223006 
L 365.217841 78.705542 
L 360.942771 76.335831 
L 356.587603 74.116762 
L 352.157643 72.051038 
L 347.65829 70.141176 
L 343.095024 68.389503 
L 338.473406 66.798152 
L 333.799065 65.369062 
L 329.077698 64.103976 
L 324.315056 63.004433 
L 319.516941 62.071774 
L 314.6892 61.307135 
L 309.837715 60.711448 
L 304.968395 60.285437 
L 300.087175 60.029624 
L 295.2 59.944318 
L 290.312825 60.029624 
L 285.431605 60.285437 
L 280.562285 60.711448 
L 275.7108 61.307135 
L 270.883059 62.071774 
L 266.084944 63.004433 
L 261.322302 64.103976 
L 256.600935 65.369062 
L 251.926594 66.798152 
L 247.304976 68.389503 
L 242.74171 70.141176 
L 238.242357 72.051038 
L 233.812397 74.116762 
L 229.457229 76.335831 
L 225.182159 78.705542 
L 220.992394 81.223006 
L 216.89304 83.885158 
L 212.889091 86.688753 
L 208.985425 89.630376 
L 205.186798 92.706444 
L 201.497839 95.913207 
L 197.923041 99.24676 
L 194.46676 102.703041 
L 191.133207 106.277839 
L 187.926444 109.966798 
L 184.850376 113.765425 
L 181.908753 117.669091 
L 179.105158 121.67304 
L 176.443006 125.772394 
L 173.925542 129.962159 
L 171.555831 134.237229 
L 169.336762 138.592397 
L 167.271038 143.022357 
L 165.361176 147.52171 
L 163.609503 152.084976 
L 162.018152 156.706594 
L 160.589062 161.380935 
L 159.323976 166.102302 
L 158.224433 170.864944 
L 157.291774 175.663059 
L 156.527135 180.4908 
L 155.931448 185.342285 
L 155.505437 190.211605 
L 155.249624 195.092825 
L 155.164318 199.98 
L 155.249624 204.867175 
L 155.505437 209.748395 
L 155.931448 214.617715 
L 156.527135 219.4692 
L 157.291774 224.296941 
L 158.224433 229.095056 
L 159.323976 233.857698 
L 160.589062 238.579065 
L 162.018152 243.253406 
L 163.609503 247.875024 
L 165.361176 252.43829 
L 167.271038 256.937643 
L 169.336762 261.367603 
L 171.555831 265.722771 
L 173.925542 269.997841 
L 176.443006 274.187606 
L 179.105158 278.28696 
L 181.908753 282.290909 
L 184.850376 286.194575 
L 187.926444 289.993202 
L 191.133207 293.682161 
L 194.46676 297.256959 
L 197.923041 300.71324 
L 201.497839 304.046793 
L 205.186798 307.253556 
L 208.985425 310.329624 
L 212.889091 313.271247 
L 216.89304 316.074842 
L 220.992394 318.736994 
L 225.182159 321.254458 
L 229.457229 323.624169 
L 233.812397 325.843238 
L 238.242357 327.908962 
L 242.74171 329.818824 
L 247.304976 331.570497 
L 251.926594 333.161848 
L 256.600935 334.590938 
L 261.322302 335.856024 
L 266.084944 336.955567 
L 270.883059 337.888226 
L 275.7108 338.652865 
L 280.562285 339.248552 
L 285.431605 339.674563 
L 290.312825 339.930376 
L 295.2 340.015682 
L 300.087175 339.930376 
L 304.968395 339.674563 
L 309.837715 339.248552 
L 314.6892 338.652865 
L 319.516941 337.888226 
L 324.315056 336.955567 
L 329.077698 335.856024 
L 333.799065 334.590938 
L 338.473406 333.161848 
L 343.095024 331.570497 
L 347.65829 329.818824 
L 352.157643 327.908962 
L 356.587603 325.843238 
L 360.942771 323.624169 
L 365.217841 321.254458 
L 369.407606 318.736994 
L 373.50696 316.074842 
L 377.510909 313.271247 
L 381.414575 310.329624 
L 385.213202 307.253556 
L 388.902161 304.046793 
L 392.476959 300.71324 
L 395.93324 297.256959 
L 399.266793 293.682161 
L 402.473556 289.993202 
L 405.549624 286.194575 
L 408.491247 282.290909 
L 411.294842 278.28696 
L 413.956994 274.187606 
L 416.474458 269.997841 
L 418.844169 265.722771 
L 421.063238 261.367603 
L 423.128962 256.937643 
L 425.038824 252.43829 
L 426.790497 247.875024 
L 428.381848 243.253406 
L 429.810938 238.579065 
L 431.076024 233.857698 
L 432.175567 229.095056 
L 433.108226 224.296941 
L 433.872865 219.4692 
L 434.468552 214.617715 
L 434.894563 209.748395 
L 435.150376 204.867175 
L 435.235682 199.98 
L 435.235682 199.98 
" style="fill:none;stroke:#ffffff;stroke-linecap:round;"/>
     </g>
     <g id="text_16">
      <!-- 0.40 -->
      <g style="fill:#262626;" transform="translate(424.576101 144.403164)scale(0.1 -0.1)">
       <use xlink:href="#ArialMT-48"/>
       <use x="55.615234" xlink:href="#ArialMT-46"/>
       <use x="83.398438" xlink:href="#ArialMT-52"/>
       <use x="139.013672" xlink:href="#ArialMT-48"/>
      </g>
     </g>
    </g>
   </g>
   <g id="PathCollection_1">
    <defs>
     <path d="M 0 3.5 
C 0.928211 3.5 1.81853 3.131218 2.474874 2.474874 
C 3.131218 1.81853 3.5 0.928211 3.5 0 
C 3.5 -0.928211 3.131218 -1.81853 2.474874 -2.474874 
C 1.81853 -3.131218 0.928211 -3.5 0 -3.5 
C -0.928211 -3.5 -1.81853 -3.131218 -2.474874 -2.474874 
C -3.131218 -1.81853 -3.5 -0.928211 -3.5 0 
C -3.5 0.928211 -3.131218 1.81853 -2.474874 2.474874 
C -1.81853 3.131218 -0.928211 3.5 0 3.5 
z
" id="m5340216a88" style="stroke:#4c72b0;stroke-width:0.3;"/>
    </defs>
    <g clip-path="url(#pdf0a810428)">
     <use style="fill:#4c72b0;stroke:#4c72b0;stroke-width:0.3;" x="280.517312" xlink:href="#m5340216a88" y="186.343038"/>
     <use style="fill:#4c72b0;stroke:#4c72b0;stroke-width:0.3;" x="300.813027" xlink:href="#m5340216a88" y="182.818564"/>
     <use style="fill:#4c72b0;stroke:#4c72b0;stroke-width:0.3;" x="253.662571" xlink:href="#m5340216a88" y="179.841687"/>
     <use style="fill:#4c72b0;stroke:#4c72b0;stroke-width:0.3;" x="294.051991" xlink:href="#m5340216a88" y="186.108461"/>
     <use style="fill:#4c72b0;stroke:#4c72b0;stroke-width:0.3;" x="289.620213" xlink:href="#m5340216a88" y="179.0969"/>
     <use style="fill:#4c72b0;stroke:#4c72b0;stroke-width:0.3;" x="291.264537" xlink:href="#m5340216a88" y="180.443185"/>
     <use style="fill:#4c72b0;stroke:#4c72b0;stroke-width:0.3;" x="271.523242" xlink:href="#m5340216a88" y="177.938781"/>
     <use style="fill:#4c72b0;stroke:#4c72b0;stroke-width:0.3;" x="254.008313" xlink:href="#m5340216a88" y="178.135745"/>
     <use style="fill:#4c72b0;stroke:#4c72b0;stroke-width:0.3;" x="272.368861" xlink:href="#m5340216a88" y="181.242324"/>
     <use style="fill:#4c72b0;stroke:#4c72b0;stroke-width:0.3;" x="253.980973" xlink:href="#m5340216a88" y="186.825756"/>
     <use style="fill:#4c72b0;stroke:#4c72b0;stroke-width:0.3;" x="257.231747" xlink:href="#m5340216a88" y="186.959509"/>
     <use style="fill:#4c72b0;stroke:#4c72b0;stroke-width:0.3;" x="263.107678" xlink:href="#m5340216a88" y="191.142469"/>
     <use style="fill:#4c72b0;stroke:#4c72b0;stroke-width:0.3;" x="279.062232" xlink:href="#m5340216a88" y="192.708582"/>
     <use style="fill:#4c72b0;stroke:#4c72b0;stroke-width:0.3;" x="242.21851" xlink:href="#m5340216a88" y="186.209444"/>
     <use style="fill:#4c72b0;stroke:#4c72b0;stroke-width:0.3;" x="231.629552" xlink:href="#m5340216a88" y="175.507951"/>
     <use style="fill:#4c72b0;stroke:#4c72b0;stroke-width:0.3;" x="276.865611" xlink:href="#m5340216a88" y="184.958955"/>
     <use style="fill:#4c72b0;stroke:#4c72b0;stroke-width:0.3;" x="279.562685" xlink:href="#m5340216a88" y="180.669064"/>
     <use style="fill:#4c72b0;stroke:#4c72b0;stroke-width:0.3;" x="238.288477" xlink:href="#m5340216a88" y="178.35211"/>
     <use style="fill:#4c72b0;stroke:#4c72b0;stroke-width:0.3;" x="250.282385" xlink:href="#m5340216a88" y="168.77745"/>
     <use style="fill:#4c72b0;stroke:#4c72b0;stroke-width:0.3;" x="259.753935" xlink:href="#m5340216a88" y="168.026919"/>
     <use style="fill:#4c72b0;stroke:#4c72b0;stroke-width:0.3;" x="273.819167" xlink:href="#m5340216a88" y="166.557623"/>
     <use style="fill:#4c72b0;stroke:#4c72b0;stroke-width:0.3;" x="271.95307" xlink:href="#m5340216a88" y="171.797595"/>
     <use style="fill:#4c72b0;stroke:#4c72b0;stroke-width:0.3;" x="244.494347" xlink:href="#m5340216a88" y="171.202725"/>
     <use style="fill:#4c72b0;stroke:#4c72b0;stroke-width:0.3;" x="242.837044" xlink:href="#m5340216a88" y="163.238505"/>
    </g>
   </g>
   <g id="PathCollection_2">
    <defs>
     <path d="M 0 3.5 
C 0.928211 3.5 1.81853 3.131218 2.474874 2.474874 
C 3.131218 1.81853 3.5 0.928211 3.5 0 
C 3.5 -0.928211 3.131218 -1.81853 2.474874 -2.474874 
C 1.81853 -3.131218 0.928211 -3.5 0 -3.5 
C -0.928211 -3.5 -1.81853 -3.131218 -2.474874 -2.474874 
C -3.131218 -1.81853 -3.5 -0.928211 -3.5 0 
C -3.5 0.928211 -3.131218 1.81853 -2.474874 2.474874 
C -1.81853 3.131218 -0.928211 3.5 0 3.5 
z
" id="m87fe187da7" style="stroke:#55a868;stroke-width:0.3;"/>
    </defs>
    <g clip-path="url(#pdf0a810428)">
     <use style="fill:#55a868;stroke:#55a868;stroke-width:0.3;" x="307.706991" xlink:href="#m87fe187da7" y="180.869256"/>
     <use style="fill:#55a868;stroke:#55a868;stroke-width:0.3;" x="245.297817" xlink:href="#m87fe187da7" y="179.832919"/>
     <use style="fill:#55a868;stroke:#55a868;stroke-width:0.3;" x="303.821449" xlink:href="#m87fe187da7" y="182.568253"/>
     <use style="fill:#55a868;stroke:#55a868;stroke-width:0.3;" x="282.64443" xlink:href="#m87fe187da7" y="180.341006"/>
     <use style="fill:#55a868;stroke:#55a868;stroke-width:0.3;" x="282.356058" xlink:href="#m87fe187da7" y="178.03174"/>
     <use style="fill:#55a868;stroke:#55a868;stroke-width:0.3;" x="294.826313" xlink:href="#m87fe187da7" y="189.111136"/>
     <use style="fill:#55a868;stroke:#55a868;stroke-width:0.3;" x="317.828991" xlink:href="#m87fe187da7" y="185.406497"/>
     <use style="fill:#55a868;stroke:#55a868;stroke-width:0.3;" x="334.041366" xlink:href="#m87fe187da7" y="186.539751"/>
     <use style="fill:#55a868;stroke:#55a868;stroke-width:0.3;" x="298.249025" xlink:href="#m87fe187da7" y="186.625604"/>
     <use style="fill:#55a868;stroke:#55a868;stroke-width:0.3;" x="275.781591" xlink:href="#m87fe187da7" y="179.869886"/>
     <use style="fill:#55a868;stroke:#55a868;stroke-width:0.3;" x="286.769689" xlink:href="#m87fe187da7" y="180.436451"/>
     <use style="fill:#55a868;stroke:#55a868;stroke-width:0.3;" x="320.009961" xlink:href="#m87fe187da7" y="185.217048"/>
     <use style="fill:#55a868;stroke:#55a868;stroke-width:0.3;" x="298.696752" xlink:href="#m87fe187da7" y="188.816903"/>
     <use style="fill:#55a868;stroke:#55a868;stroke-width:0.3;" x="311.926534" xlink:href="#m87fe187da7" y="194.787368"/>
     <use style="fill:#55a868;stroke:#55a868;stroke-width:0.3;" x="300.072837" xlink:href="#m87fe187da7" y="190.172628"/>
     <use style="fill:#55a868;stroke:#55a868;stroke-width:0.3;" x="322.751129" xlink:href="#m87fe187da7" y="192.798527"/>
     <use style="fill:#55a868;stroke:#55a868;stroke-width:0.3;" x="363.147514" xlink:href="#m87fe187da7" y="183.858836"/>
     <use style="fill:#55a868;stroke:#55a868;stroke-width:0.3;" x="372.153723" xlink:href="#m87fe187da7" y="188.077437"/>
     <use style="fill:#55a868;stroke:#55a868;stroke-width:0.3;" x="300.256417" xlink:href="#m87fe187da7" y="188.273221"/>
     <use style="fill:#55a868;stroke:#55a868;stroke-width:0.3;" x="311.622371" xlink:href="#m87fe187da7" y="194.529286"/>
     <use style="fill:#55a868;stroke:#55a868;stroke-width:0.3;" x="302.232401" xlink:href="#m87fe187da7" y="202.274892"/>
     <use style="fill:#55a868;stroke:#55a868;stroke-width:0.3;" x="357.883164" xlink:href="#m87fe187da7" y="207.846297"/>
     <use style="fill:#55a868;stroke:#55a868;stroke-width:0.3;" x="327.155309" xlink:href="#m87fe187da7" y="217.417125"/>
     <use style="fill:#55a868;stroke:#55a868;stroke-width:0.3;" x="349.229356" xlink:href="#m87fe187da7" y="224.322739"/>
    </g>
   </g>
   <g id="PathCollection_3">
    <defs>
     <path d="M 0 3.5 
C 0.928211 3.5 1.81853 3.131218 2.474874 2.474874 
C 3.131218 1.81853 3.5 0.928211 3.5 0 
C 3.5 -0.928211 3.131218 -1.81853 2.474874 -2.474874 
C 1.81853 -3.131218 0.928211 -3.5 0 -3.5 
C -0.928211 -3.5 -1.81853 -3.131218 -2.474874 -2.474874 
C -3.131218 -1.81853 -3.5 -0.928211 -3.5 0 
C -3.5 0.928211 -3.131218 1.81853 -2.474874 2.474874 
C -1.81853 3.131218 -0.928211 3.5 0 3.5 
z
" id="maf4b16e2dd" style="stroke:#c44e52;stroke-width:0.3;"/>
    </defs>
    <g clip-path="url(#pdf0a810428)">
     <use style="fill:#c44e52;stroke:#c44e52;stroke-width:0.3;" x="337.149424" xlink:href="#maf4b16e2dd" y="231.120741"/>
     <use style="fill:#c44e52;stroke:#c44e52;stroke-width:0.3;" x="388.766782" xlink:href="#maf4b16e2dd" y="236.870998"/>
     <use style="fill:#c44e52;stroke:#c44e52;stroke-width:0.3;" x="361.402912" xlink:href="#maf4b16e2dd" y="240.370684"/>
     <use style="fill:#c44e52;stroke:#c44e52;stroke-width:0.3;" x="431.834657" xlink:href="#maf4b16e2dd" y="249.112581"/>
     <use style="fill:#c44e52;stroke:#c44e52;stroke-width:0.3;" x="390.106423" xlink:href="#maf4b16e2dd" y="257.878359"/>
     <use style="fill:#c44e52;stroke:#c44e52;stroke-width:0.3;" x="372.152959" xlink:href="#maf4b16e2dd" y="258.423907"/>
     <use style="fill:#c44e52;stroke:#c44e52;stroke-width:0.3;" x="375.298565" xlink:href="#maf4b16e2dd" y="248.647239"/>
     <use style="fill:#c44e52;stroke:#c44e52;stroke-width:0.3;" x="368.024404" xlink:href="#maf4b16e2dd" y="249.655005"/>
     <use style="fill:#c44e52;stroke:#c44e52;stroke-width:0.3;" x="344.087503" xlink:href="#maf4b16e2dd" y="249.493156"/>
     <use style="fill:#c44e52;stroke:#c44e52;stroke-width:0.3;" x="312.65431" xlink:href="#maf4b16e2dd" y="250.514504"/>
     <use style="fill:#c44e52;stroke:#c44e52;stroke-width:0.3;" x="353.657232" xlink:href="#maf4b16e2dd" y="252.741713"/>
     <use style="fill:#c44e52;stroke:#c44e52;stroke-width:0.3;" x="362.653104" xlink:href="#maf4b16e2dd" y="249.21329"/>
     <use style="fill:#c44e52;stroke:#c44e52;stroke-width:0.3;" x="303.94227" xlink:href="#maf4b16e2dd" y="242.549373"/>
     <use style="fill:#c44e52;stroke:#c44e52;stroke-width:0.3;" x="330.021361" xlink:href="#maf4b16e2dd" y="225.592557"/>
     <use style="fill:#c44e52;stroke:#c44e52;stroke-width:0.3;" x="294.147784" xlink:href="#maf4b16e2dd" y="221.87481"/>
     <use style="fill:#c44e52;stroke:#c44e52;stroke-width:0.3;" x="323.018554" xlink:href="#maf4b16e2dd" y="220.246528"/>
     <use style="fill:#c44e52;stroke:#c44e52;stroke-width:0.3;" x="322.650626" xlink:href="#maf4b16e2dd" y="218.339728"/>
     <use style="fill:#c44e52;stroke:#c44e52;stroke-width:0.3;" x="295.462585" xlink:href="#maf4b16e2dd" y="212.277428"/>
     <use style="fill:#c44e52;stroke:#c44e52;stroke-width:0.3;" x="266.836362" xlink:href="#maf4b16e2dd" y="212.083416"/>
     <use style="fill:#c44e52;stroke:#c44e52;stroke-width:0.3;" x="238.539243" xlink:href="#maf4b16e2dd" y="211.59485"/>
     <use style="fill:#c44e52;stroke:#c44e52;stroke-width:0.3;" x="267.6931" xlink:href="#maf4b16e2dd" y="207.087722"/>
     <use style="fill:#c44e52;stroke:#c44e52;stroke-width:0.3;" x="306.184346" xlink:href="#maf4b16e2dd" y="202.789027"/>
     <use style="fill:#c44e52;stroke:#c44e52;stroke-width:0.3;" x="283.755452" xlink:href="#maf4b16e2dd" y="194.533566"/>
     <use style="fill:#c44e52;stroke:#c44e52;stroke-width:0.3;" x="301.093837" xlink:href="#maf4b16e2dd" y="190.838203"/>
    </g>
   </g>
   <g id="line2d_17">
    <path clip-path="url(#pdf0a810428)" d="M 295.2 199.98 
L 429.424709 255.358403 
" style="fill:none;stroke:#ff0000;stroke-dasharray:7.4,3.2;stroke-dashoffset:0;stroke-width:2;"/>
   </g>
   <g id="patch_3">
    <path d="M 447.66 199.98 
C 447.66 179.959136 443.716326 160.13295 436.054674 141.636084 
C 428.393021 123.139218 417.162388 106.331389 403.0055 92.1745 
C 388.848611 78.017612 372.040782 66.786979 353.543916 59.125326 
C 335.04705 51.463674 315.220864 47.52 295.2 47.52 
C 275.179136 47.52 255.35295 51.463674 236.856084 59.125326 
C 218.359218 66.786979 201.551389 78.017612 187.3945 92.1745 
C 173.237612 106.331389 162.006979 123.139218 154.345326 141.636084 
C 146.683674 160.13295 142.74 179.959136 142.74 199.98 
C 142.74 220.000864 146.683674 239.82705 154.345326 258.323916 
C 162.006979 276.820782 173.237612 293.628611 187.3945 307.7855 
C 201.551389 321.942388 218.359218 333.173021 236.856084 340.834674 
C 255.35295 348.496326 275.179136 352.44 295.2 352.44 
C 315.220864 352.44 335.04705 348.496326 353.543916 340.834674 
C 372.040782 333.173021 388.848611 321.942388 403.0055 307.7855 
C 417.162388 293.628611 428.393021 276.820782 436.054674 258.323916 
C 443.716326 239.82705 447.66 220.000864 447.66 199.98 
" style="fill:none;"/>
   </g>
   <g id="text_17">
    <!-- Distribution of projected eye movement velocity on the screen - NewM4_9_11 -->
    <defs>
     <path d="M 7.71875 0 
L 7.71875 71.578125 
L 32.375 71.578125 
Q 40.71875 71.578125 45.125 70.5625 
Q 51.265625 69.140625 55.609375 65.4375 
Q 61.28125 60.640625 64.078125 53.1875 
Q 66.890625 45.75 66.890625 36.1875 
Q 66.890625 28.03125 64.984375 21.734375 
Q 63.09375 15.4375 60.109375 11.296875 
Q 57.125 7.171875 53.578125 4.796875 
Q 50.046875 2.4375 45.046875 1.21875 
Q 40.046875 0 33.546875 0 
z
M 17.1875 8.453125 
L 32.46875 8.453125 
Q 39.546875 8.453125 43.578125 9.765625 
Q 47.609375 11.078125 50 13.484375 
Q 53.375 16.84375 55.25 22.53125 
Q 57.125 28.21875 57.125 36.328125 
Q 57.125 47.5625 53.4375 53.59375 
Q 49.75 59.625 44.484375 61.671875 
Q 40.671875 63.140625 32.234375 63.140625 
L 17.1875 63.140625 
z
" id="ArialMT-68"/>
     <path d="M 6.640625 61.46875 
L 6.640625 71.578125 
L 15.4375 71.578125 
L 15.4375 61.46875 
z
M 6.640625 0 
L 6.640625 51.859375 
L 15.4375 51.859375 
L 15.4375 0 
z
" id="ArialMT-105"/>
     <path d="M 3.078125 15.484375 
L 11.765625 16.84375 
Q 12.5 11.625 15.84375 8.84375 
Q 19.1875 6.0625 25.203125 6.0625 
Q 31.25 6.0625 34.171875 8.515625 
Q 37.109375 10.984375 37.109375 14.3125 
Q 37.109375 17.28125 34.515625 19 
Q 32.71875 20.171875 25.53125 21.96875 
Q 15.875 24.421875 12.140625 26.203125 
Q 8.40625 27.984375 6.46875 31.125 
Q 4.546875 34.28125 4.546875 38.09375 
Q 4.546875 41.546875 6.125 44.5 
Q 7.71875 47.46875 10.453125 49.421875 
Q 12.5 50.921875 16.03125 51.96875 
Q 19.578125 53.03125 23.640625 53.03125 
Q 29.734375 53.03125 34.34375 51.265625 
Q 38.96875 49.515625 41.15625 46.5 
Q 43.359375 43.5 44.1875 38.484375 
L 35.59375 37.3125 
Q 35.015625 41.3125 32.203125 43.546875 
Q 29.390625 45.796875 24.265625 45.796875 
Q 18.21875 45.796875 15.625 43.796875 
Q 13.03125 41.796875 13.03125 39.109375 
Q 13.03125 37.40625 14.109375 36.03125 
Q 15.1875 34.625 17.484375 33.6875 
Q 18.796875 33.203125 25.25 31.453125 
Q 34.578125 28.953125 38.25 27.359375 
Q 41.9375 25.78125 44.03125 22.75 
Q 46.140625 19.734375 46.140625 15.234375 
Q 46.140625 10.84375 43.578125 6.953125 
Q 41.015625 3.078125 36.171875 0.953125 
Q 31.34375 -1.171875 25.25 -1.171875 
Q 15.140625 -1.171875 9.84375 3.03125 
Q 4.546875 7.234375 3.078125 15.484375 
z
" id="ArialMT-115"/>
     <path d="M 25.78125 7.859375 
L 27.046875 0.09375 
Q 23.34375 -0.6875 20.40625 -0.6875 
Q 15.625 -0.6875 12.984375 0.828125 
Q 10.359375 2.34375 9.28125 4.8125 
Q 8.203125 7.28125 8.203125 15.1875 
L 8.203125 45.015625 
L 1.765625 45.015625 
L 1.765625 51.859375 
L 8.203125 51.859375 
L 8.203125 64.703125 
L 16.9375 69.96875 
L 16.9375 51.859375 
L 25.78125 51.859375 
L 25.78125 45.015625 
L 16.9375 45.015625 
L 16.9375 14.703125 
Q 16.9375 10.9375 17.40625 9.859375 
Q 17.875 8.796875 18.921875 8.15625 
Q 19.96875 7.515625 21.921875 7.515625 
Q 23.390625 7.515625 25.78125 7.859375 
z
" id="ArialMT-116"/>
     <path d="M 6.5 0 
L 6.5 51.859375 
L 14.40625 51.859375 
L 14.40625 44 
Q 17.4375 49.515625 20 51.265625 
Q 22.5625 53.03125 25.640625 53.03125 
Q 30.078125 53.03125 34.671875 50.203125 
L 31.640625 42.046875 
Q 28.421875 43.953125 25.203125 43.953125 
Q 22.3125 43.953125 20.015625 42.21875 
Q 17.71875 40.484375 16.75 37.40625 
Q 15.28125 32.71875 15.28125 27.15625 
L 15.28125 0 
z
" id="ArialMT-114"/>
     <path d="M 14.703125 0 
L 6.546875 0 
L 6.546875 71.578125 
L 15.328125 71.578125 
L 15.328125 46.046875 
Q 20.90625 53.03125 29.546875 53.03125 
Q 34.328125 53.03125 38.59375 51.09375 
Q 42.875 49.171875 45.625 45.671875 
Q 48.390625 42.1875 49.953125 37.25 
Q 51.515625 32.328125 51.515625 26.703125 
Q 51.515625 13.375 44.921875 6.09375 
Q 38.328125 -1.171875 29.109375 -1.171875 
Q 19.921875 -1.171875 14.703125 6.5 
z
M 14.59375 26.3125 
Q 14.59375 17 17.140625 12.84375 
Q 21.296875 6.0625 28.375 6.0625 
Q 34.125 6.0625 38.328125 11.0625 
Q 42.53125 16.0625 42.53125 25.984375 
Q 42.53125 36.140625 38.5 40.96875 
Q 34.46875 45.796875 28.765625 45.796875 
Q 23 45.796875 18.796875 40.796875 
Q 14.59375 35.796875 14.59375 26.3125 
z
" id="ArialMT-98"/>
     <path d="M 40.578125 0 
L 40.578125 7.625 
Q 34.515625 -1.171875 24.125 -1.171875 
Q 19.53125 -1.171875 15.546875 0.578125 
Q 11.578125 2.34375 9.640625 5 
Q 7.71875 7.671875 6.9375 11.53125 
Q 6.390625 14.109375 6.390625 19.734375 
L 6.390625 51.859375 
L 15.1875 51.859375 
L 15.1875 23.09375 
Q 15.1875 16.21875 15.71875 13.8125 
Q 16.546875 10.359375 19.234375 8.375 
Q 21.921875 6.390625 25.875 6.390625 
Q 29.828125 6.390625 33.296875 8.421875 
Q 36.765625 10.453125 38.203125 13.9375 
Q 39.65625 17.4375 39.65625 24.078125 
L 39.65625 51.859375 
L 48.4375 51.859375 
L 48.4375 0 
z
" id="ArialMT-117"/>
     <path d="M 3.328125 25.921875 
Q 3.328125 40.328125 11.328125 47.265625 
Q 18.015625 53.03125 27.640625 53.03125 
Q 38.328125 53.03125 45.109375 46.015625 
Q 51.90625 39.015625 51.90625 26.65625 
Q 51.90625 16.65625 48.90625 10.90625 
Q 45.90625 5.171875 40.15625 2 
Q 34.421875 -1.171875 27.640625 -1.171875 
Q 16.75 -1.171875 10.03125 5.8125 
Q 3.328125 12.796875 3.328125 25.921875 
z
M 12.359375 25.921875 
Q 12.359375 15.96875 16.703125 11.015625 
Q 21.046875 6.0625 27.640625 6.0625 
Q 34.1875 6.0625 38.53125 11.03125 
Q 42.875 16.015625 42.875 26.21875 
Q 42.875 35.84375 38.5 40.796875 
Q 34.125 45.75 27.640625 45.75 
Q 21.046875 45.75 16.703125 40.8125 
Q 12.359375 35.890625 12.359375 25.921875 
z
" id="ArialMT-111"/>
     <path d="M 6.59375 0 
L 6.59375 51.859375 
L 14.5 51.859375 
L 14.5 44.484375 
Q 20.21875 53.03125 31 53.03125 
Q 35.6875 53.03125 39.625 51.34375 
Q 43.5625 49.65625 45.515625 46.921875 
Q 47.46875 44.1875 48.25 40.4375 
Q 48.734375 37.984375 48.734375 31.890625 
L 48.734375 0 
L 39.9375 0 
L 39.9375 31.546875 
Q 39.9375 36.921875 38.90625 39.578125 
Q 37.890625 42.234375 35.28125 43.8125 
Q 32.671875 45.40625 29.15625 45.40625 
Q 23.53125 45.40625 19.453125 41.84375 
Q 15.375 38.28125 15.375 28.328125 
L 15.375 0 
z
" id="ArialMT-110"/>
     <path id="ArialMT-32"/>
     <path d="M 8.6875 0 
L 8.6875 45.015625 
L 0.921875 45.015625 
L 0.921875 51.859375 
L 8.6875 51.859375 
L 8.6875 57.375 
Q 8.6875 62.59375 9.625 65.140625 
Q 10.890625 68.5625 14.078125 70.671875 
Q 17.28125 72.796875 23.046875 72.796875 
Q 26.765625 72.796875 31.25 71.921875 
L 29.9375 64.265625 
Q 27.203125 64.75 24.75 64.75 
Q 20.75 64.75 19.09375 63.03125 
Q 17.4375 61.328125 17.4375 56.640625 
L 17.4375 51.859375 
L 27.546875 51.859375 
L 27.546875 45.015625 
L 17.4375 45.015625 
L 17.4375 0 
z
" id="ArialMT-102"/>
     <path d="M 6.59375 -19.875 
L 6.59375 51.859375 
L 14.59375 51.859375 
L 14.59375 45.125 
Q 17.4375 49.078125 21 51.046875 
Q 24.5625 53.03125 29.640625 53.03125 
Q 36.28125 53.03125 41.359375 49.609375 
Q 46.4375 46.1875 49.015625 39.953125 
Q 51.609375 33.734375 51.609375 26.3125 
Q 51.609375 18.359375 48.75 11.984375 
Q 45.90625 5.609375 40.453125 2.21875 
Q 35.015625 -1.171875 29 -1.171875 
Q 24.609375 -1.171875 21.109375 0.6875 
Q 17.625 2.546875 15.375 5.375 
L 15.375 -19.875 
z
M 14.546875 25.640625 
Q 14.546875 15.625 18.59375 10.84375 
Q 22.65625 6.0625 28.421875 6.0625 
Q 34.28125 6.0625 38.453125 11.015625 
Q 42.625 15.96875 42.625 26.375 
Q 42.625 36.28125 38.546875 41.203125 
Q 34.46875 46.140625 28.8125 46.140625 
Q 23.1875 46.140625 18.859375 40.890625 
Q 14.546875 35.640625 14.546875 25.640625 
z
" id="ArialMT-112"/>
     <path d="M 6.546875 61.375 
L 6.546875 71.578125 
L 15.328125 71.578125 
L 15.328125 61.375 
z
M -4.59375 -20.125 
L -2.9375 -12.640625 
Q -0.296875 -13.328125 1.21875 -13.328125 
Q 3.90625 -13.328125 5.21875 -11.546875 
Q 6.546875 -9.765625 6.546875 -2.640625 
L 6.546875 51.859375 
L 15.328125 51.859375 
L 15.328125 -2.828125 
Q 15.328125 -12.40625 12.84375 -16.15625 
Q 9.671875 -21.046875 2.296875 -21.046875 
Q -1.265625 -21.046875 -4.59375 -20.125 
z
" id="ArialMT-106"/>
     <path d="M 42.09375 16.703125 
L 51.171875 15.578125 
Q 49.03125 7.625 43.21875 3.21875 
Q 37.40625 -1.171875 28.375 -1.171875 
Q 17 -1.171875 10.328125 5.828125 
Q 3.65625 12.84375 3.65625 25.484375 
Q 3.65625 38.578125 10.390625 45.796875 
Q 17.140625 53.03125 27.875 53.03125 
Q 38.28125 53.03125 44.875 45.953125 
Q 51.46875 38.875 51.46875 26.03125 
Q 51.46875 25.25 51.421875 23.6875 
L 12.75 23.6875 
Q 13.234375 15.140625 17.578125 10.59375 
Q 21.921875 6.0625 28.421875 6.0625 
Q 33.25 6.0625 36.671875 8.59375 
Q 40.09375 11.140625 42.09375 16.703125 
z
M 13.234375 30.90625 
L 42.1875 30.90625 
Q 41.609375 37.453125 38.875 40.71875 
Q 34.671875 45.796875 27.984375 45.796875 
Q 21.921875 45.796875 17.796875 41.75 
Q 13.671875 37.703125 13.234375 30.90625 
z
" id="ArialMT-101"/>
     <path d="M 40.4375 19 
L 49.078125 17.875 
Q 47.65625 8.9375 41.8125 3.875 
Q 35.984375 -1.171875 27.484375 -1.171875 
Q 16.84375 -1.171875 10.375 5.78125 
Q 3.90625 12.75 3.90625 25.734375 
Q 3.90625 34.125 6.6875 40.421875 
Q 9.46875 46.734375 15.15625 49.875 
Q 20.84375 53.03125 27.546875 53.03125 
Q 35.984375 53.03125 41.359375 48.75 
Q 46.734375 44.484375 48.25 36.625 
L 39.703125 35.296875 
Q 38.484375 40.53125 35.375 43.15625 
Q 32.28125 45.796875 27.875 45.796875 
Q 21.234375 45.796875 17.078125 41.03125 
Q 12.9375 36.28125 12.9375 25.984375 
Q 12.9375 15.53125 16.9375 10.796875 
Q 20.953125 6.0625 27.390625 6.0625 
Q 32.5625 6.0625 36.03125 9.234375 
Q 39.5 12.40625 40.4375 19 
z
" id="ArialMT-99"/>
     <path d="M 40.234375 0 
L 40.234375 6.546875 
Q 35.296875 -1.171875 25.734375 -1.171875 
Q 19.53125 -1.171875 14.328125 2.25 
Q 9.125 5.671875 6.265625 11.796875 
Q 3.421875 17.921875 3.421875 25.875 
Q 3.421875 33.640625 6 39.96875 
Q 8.59375 46.296875 13.765625 49.65625 
Q 18.953125 53.03125 25.34375 53.03125 
Q 30.03125 53.03125 33.6875 51.046875 
Q 37.359375 49.078125 39.65625 45.90625 
L 39.65625 71.578125 
L 48.390625 71.578125 
L 48.390625 0 
z
M 12.453125 25.875 
Q 12.453125 15.921875 16.640625 10.984375 
Q 20.84375 6.0625 26.5625 6.0625 
Q 32.328125 6.0625 36.34375 10.765625 
Q 40.375 15.484375 40.375 25.140625 
Q 40.375 35.796875 36.265625 40.765625 
Q 32.171875 45.75 26.171875 45.75 
Q 20.3125 45.75 16.375 40.96875 
Q 12.453125 36.1875 12.453125 25.875 
z
" id="ArialMT-100"/>
     <path d="M 6.203125 -19.96875 
L 5.21875 -11.71875 
Q 8.109375 -12.5 10.25 -12.5 
Q 13.1875 -12.5 14.9375 -11.515625 
Q 16.703125 -10.546875 17.828125 -8.796875 
Q 18.65625 -7.46875 20.515625 -2.25 
Q 20.75 -1.515625 21.296875 -0.09375 
L 1.609375 51.859375 
L 11.078125 51.859375 
L 21.875 21.828125 
Q 23.96875 16.109375 25.640625 9.8125 
Q 27.15625 15.875 29.25 21.625 
L 40.328125 51.859375 
L 49.125 51.859375 
L 29.390625 -0.875 
Q 26.21875 -9.421875 24.46875 -12.640625 
Q 22.125 -17 19.09375 -19.015625 
Q 16.0625 -21.046875 11.859375 -21.046875 
Q 9.328125 -21.046875 6.203125 -19.96875 
z
" id="ArialMT-121"/>
     <path d="M 6.59375 0 
L 6.59375 51.859375 
L 14.453125 51.859375 
L 14.453125 44.578125 
Q 16.890625 48.390625 20.9375 50.703125 
Q 25 53.03125 30.171875 53.03125 
Q 35.9375 53.03125 39.625 50.640625 
Q 43.3125 48.25 44.828125 43.953125 
Q 50.984375 53.03125 60.84375 53.03125 
Q 68.5625 53.03125 72.703125 48.75 
Q 76.859375 44.484375 76.859375 35.59375 
L 76.859375 0 
L 68.109375 0 
L 68.109375 32.671875 
Q 68.109375 37.9375 67.25 40.25 
Q 66.40625 42.578125 64.15625 43.984375 
Q 61.921875 45.40625 58.890625 45.40625 
Q 53.421875 45.40625 49.796875 41.765625 
Q 46.1875 38.140625 46.1875 30.125 
L 46.1875 0 
L 37.40625 0 
L 37.40625 33.6875 
Q 37.40625 39.546875 35.25 42.46875 
Q 33.109375 45.40625 28.21875 45.40625 
Q 24.515625 45.40625 21.359375 43.453125 
Q 18.21875 41.5 16.796875 37.734375 
Q 15.375 33.984375 15.375 26.90625 
L 15.375 0 
z
" id="ArialMT-109"/>
     <path d="M 21 0 
L 1.265625 51.859375 
L 10.546875 51.859375 
L 21.6875 20.796875 
Q 23.484375 15.765625 25 10.359375 
Q 26.171875 14.453125 28.265625 20.21875 
L 39.796875 51.859375 
L 48.828125 51.859375 
L 29.203125 0 
z
" id="ArialMT-118"/>
     <path d="M 6.390625 0 
L 6.390625 71.578125 
L 15.1875 71.578125 
L 15.1875 0 
z
" id="ArialMT-108"/>
     <path d="M 6.59375 0 
L 6.59375 71.578125 
L 15.375 71.578125 
L 15.375 45.90625 
Q 21.53125 53.03125 30.90625 53.03125 
Q 36.671875 53.03125 40.921875 50.75 
Q 45.171875 48.484375 47 44.484375 
Q 48.828125 40.484375 48.828125 32.859375 
L 48.828125 0 
L 40.046875 0 
L 40.046875 32.859375 
Q 40.046875 39.453125 37.1875 42.453125 
Q 34.328125 45.453125 29.109375 45.453125 
Q 25.203125 45.453125 21.75 43.421875 
Q 18.3125 41.40625 16.84375 37.9375 
Q 15.375 34.46875 15.375 28.375 
L 15.375 0 
z
" id="ArialMT-104"/>
     <path d="M 3.171875 21.484375 
L 3.171875 30.328125 
L 30.171875 30.328125 
L 30.171875 21.484375 
z
" id="ArialMT-45"/>
     <path d="M 7.625 0 
L 7.625 71.578125 
L 17.328125 71.578125 
L 54.9375 15.375 
L 54.9375 71.578125 
L 64.015625 71.578125 
L 64.015625 0 
L 54.296875 0 
L 16.703125 56.25 
L 16.703125 0 
z
" id="ArialMT-78"/>
     <path d="M 16.15625 0 
L 0.296875 51.859375 
L 9.375 51.859375 
L 17.625 21.921875 
L 20.703125 10.796875 
Q 20.90625 11.625 23.390625 21.484375 
L 31.640625 51.859375 
L 40.671875 51.859375 
L 48.4375 21.78125 
L 51.03125 11.859375 
L 54 21.875 
L 62.890625 51.859375 
L 71.4375 51.859375 
L 55.21875 0 
L 46.09375 0 
L 37.84375 31.0625 
L 35.84375 39.890625 
L 25.34375 0 
z
" id="ArialMT-119"/>
     <path d="M 7.421875 0 
L 7.421875 71.578125 
L 21.6875 71.578125 
L 38.625 20.90625 
Q 40.96875 13.8125 42.046875 10.296875 
Q 43.265625 14.203125 45.84375 21.78125 
L 62.984375 71.578125 
L 75.734375 71.578125 
L 75.734375 0 
L 66.609375 0 
L 66.609375 59.90625 
L 45.796875 0 
L 37.25 0 
L 16.546875 60.9375 
L 16.546875 0 
z
" id="ArialMT-77"/>
     <path d="M -1.515625 -19.875 
L -1.515625 -13.53125 
L 56.734375 -13.53125 
L 56.734375 -19.875 
z
" id="ArialMT-95"/>
    </defs>
    <g style="fill:#262626;" transform="translate(89.116875 23.748375)scale(0.12 -0.12)">
     <use xlink:href="#ArialMT-68"/>
     <use x="72.216797" xlink:href="#ArialMT-105"/>
     <use x="94.433594" xlink:href="#ArialMT-115"/>
     <use x="144.433594" xlink:href="#ArialMT-116"/>
     <use x="172.216797" xlink:href="#ArialMT-114"/>
     <use x="205.517578" xlink:href="#ArialMT-105"/>
     <use x="227.734375" xlink:href="#ArialMT-98"/>
     <use x="283.349609" xlink:href="#ArialMT-117"/>
     <use x="338.964844" xlink:href="#ArialMT-116"/>
     <use x="366.748047" xlink:href="#ArialMT-105"/>
     <use x="388.964844" xlink:href="#ArialMT-111"/>
     <use x="444.580078" xlink:href="#ArialMT-110"/>
     <use x="500.195312" xlink:href="#ArialMT-32"/>
     <use x="527.978516" xlink:href="#ArialMT-111"/>
     <use x="583.59375" xlink:href="#ArialMT-102"/>
     <use x="611.376953" xlink:href="#ArialMT-32"/>
     <use x="639.160156" xlink:href="#ArialMT-112"/>
     <use x="694.775391" xlink:href="#ArialMT-114"/>
     <use x="728.076172" xlink:href="#ArialMT-111"/>
     <use x="783.691406" xlink:href="#ArialMT-106"/>
     <use x="805.908203" xlink:href="#ArialMT-101"/>
     <use x="861.523438" xlink:href="#ArialMT-99"/>
     <use x="911.523438" xlink:href="#ArialMT-116"/>
     <use x="939.306641" xlink:href="#ArialMT-101"/>
     <use x="994.921875" xlink:href="#ArialMT-100"/>
     <use x="1050.537109" xlink:href="#ArialMT-32"/>
     <use x="1078.320312" xlink:href="#ArialMT-101"/>
     <use x="1133.935547" xlink:href="#ArialMT-121"/>
     <use x="1183.935547" xlink:href="#ArialMT-101"/>
     <use x="1239.550781" xlink:href="#ArialMT-32"/>
     <use x="1267.333984" xlink:href="#ArialMT-109"/>
     <use x="1350.634766" xlink:href="#ArialMT-111"/>
     <use x="1406.25" xlink:href="#ArialMT-118"/>
     <use x="1456.25" xlink:href="#ArialMT-101"/>
     <use x="1511.865234" xlink:href="#ArialMT-109"/>
     <use x="1595.166016" xlink:href="#ArialMT-101"/>
     <use x="1650.78125" xlink:href="#ArialMT-110"/>
     <use x="1706.396484" xlink:href="#ArialMT-116"/>
     <use x="1734.179688" xlink:href="#ArialMT-32"/>
     <use x="1761.962891" xlink:href="#ArialMT-118"/>
     <use x="1811.962891" xlink:href="#ArialMT-101"/>
     <use x="1867.578125" xlink:href="#ArialMT-108"/>
     <use x="1889.794922" xlink:href="#ArialMT-111"/>
     <use x="1945.410156" xlink:href="#ArialMT-99"/>
     <use x="1995.410156" xlink:href="#ArialMT-105"/>
     <use x="2017.626953" xlink:href="#ArialMT-116"/>
     <use x="2045.410156" xlink:href="#ArialMT-121"/>
     <use x="2095.410156" xlink:href="#ArialMT-32"/>
     <use x="2123.193359" xlink:href="#ArialMT-111"/>
     <use x="2178.808594" xlink:href="#ArialMT-110"/>
     <use x="2234.423828" xlink:href="#ArialMT-32"/>
     <use x="2262.207031" xlink:href="#ArialMT-116"/>
     <use x="2289.990234" xlink:href="#ArialMT-104"/>
     <use x="2345.605469" xlink:href="#ArialMT-101"/>
     <use x="2401.220703" xlink:href="#ArialMT-32"/>
     <use x="2429.003906" xlink:href="#ArialMT-115"/>
     <use x="2479.003906" xlink:href="#ArialMT-99"/>
     <use x="2529.003906" xlink:href="#ArialMT-114"/>
     <use x="2562.304688" xlink:href="#ArialMT-101"/>
     <use x="2617.919922" xlink:href="#ArialMT-101"/>
     <use x="2673.535156" xlink:href="#ArialMT-110"/>
     <use x="2729.150391" xlink:href="#ArialMT-32"/>
     <use x="2756.933594" xlink:href="#ArialMT-45"/>
     <use x="2790.234375" xlink:href="#ArialMT-32"/>
     <use x="2818.017578" xlink:href="#ArialMT-78"/>
     <use x="2890.234375" xlink:href="#ArialMT-101"/>
     <use x="2945.849609" xlink:href="#ArialMT-119"/>
     <use x="3018.066406" xlink:href="#ArialMT-77"/>
     <use x="3101.367188" xlink:href="#ArialMT-52"/>
     <use x="3156.982422" xlink:href="#ArialMT-95"/>
     <use x="3212.597656" xlink:href="#ArialMT-57"/>
     <use x="3268.212891" xlink:href="#ArialMT-95"/>
     <use x="3323.828125" xlink:href="#ArialMT-49"/>
     <use x="3379.333984" xlink:href="#ArialMT-49"/>
    </g>
   </g>
   <g id="legend_1">
    <g id="line2d_18">
     <path d="M 196.705469 60.2075 
L 216.705469 60.2075 
" style="fill:none;stroke:#ff0000;stroke-dasharray:7.4,3.2;stroke-dashoffset:0;stroke-width:2;"/>
    </g>
    <g id="line2d_19"/>
    <g id="text_18">
     <!-- Average angle in light: -22.42 degrees -->
     <defs>
      <path d="M -0.140625 0 
L 27.34375 71.578125 
L 37.546875 71.578125 
L 66.84375 0 
L 56.0625 0 
L 47.703125 21.6875 
L 17.78125 21.6875 
L 9.90625 0 
z
M 20.515625 29.390625 
L 44.78125 29.390625 
L 37.3125 49.21875 
Q 33.890625 58.25 32.234375 64.0625 
Q 30.859375 57.171875 28.375 50.390625 
z
" id="ArialMT-65"/>
      <path d="M 40.4375 6.390625 
Q 35.546875 2.25 31.03125 0.53125 
Q 26.515625 -1.171875 21.34375 -1.171875 
Q 12.796875 -1.171875 8.203125 3 
Q 3.609375 7.171875 3.609375 13.671875 
Q 3.609375 17.484375 5.34375 20.625 
Q 7.078125 23.78125 9.890625 25.6875 
Q 12.703125 27.59375 16.21875 28.5625 
Q 18.796875 29.25 24.03125 29.890625 
Q 34.671875 31.15625 39.703125 32.90625 
Q 39.75 34.71875 39.75 35.203125 
Q 39.75 40.578125 37.25 42.78125 
Q 33.890625 45.75 27.25 45.75 
Q 21.046875 45.75 18.09375 43.578125 
Q 15.140625 41.40625 13.71875 35.890625 
L 5.125 37.0625 
Q 6.296875 42.578125 8.984375 45.96875 
Q 11.671875 49.359375 16.75 51.1875 
Q 21.828125 53.03125 28.515625 53.03125 
Q 35.15625 53.03125 39.296875 51.46875 
Q 43.453125 49.90625 45.40625 47.53125 
Q 47.359375 45.171875 48.140625 41.546875 
Q 48.578125 39.3125 48.578125 33.453125 
L 48.578125 21.734375 
Q 48.578125 9.46875 49.140625 6.21875 
Q 49.703125 2.984375 51.375 0 
L 42.1875 0 
Q 40.828125 2.734375 40.4375 6.390625 
z
M 39.703125 26.03125 
Q 34.90625 24.078125 25.34375 22.703125 
Q 19.921875 21.921875 17.671875 20.9375 
Q 15.4375 19.96875 14.203125 18.09375 
Q 12.984375 16.21875 12.984375 13.921875 
Q 12.984375 10.40625 15.640625 8.0625 
Q 18.3125 5.71875 23.4375 5.71875 
Q 28.515625 5.71875 32.46875 7.9375 
Q 36.421875 10.15625 38.28125 14.015625 
Q 39.703125 17 39.703125 22.796875 
z
" id="ArialMT-97"/>
      <path d="M 4.984375 -4.296875 
L 13.53125 -5.5625 
Q 14.0625 -9.515625 16.5 -11.328125 
Q 19.78125 -13.765625 25.4375 -13.765625 
Q 31.546875 -13.765625 34.859375 -11.328125 
Q 38.1875 -8.890625 39.359375 -4.5 
Q 40.046875 -1.8125 39.984375 6.78125 
Q 34.234375 0 25.640625 0 
Q 14.9375 0 9.078125 7.71875 
Q 3.21875 15.4375 3.21875 26.21875 
Q 3.21875 33.640625 5.90625 39.90625 
Q 8.59375 46.1875 13.6875 49.609375 
Q 18.796875 53.03125 25.6875 53.03125 
Q 34.859375 53.03125 40.828125 45.609375 
L 40.828125 51.859375 
L 48.921875 51.859375 
L 48.921875 7.03125 
Q 48.921875 -5.078125 46.453125 -10.125 
Q 44 -15.1875 38.640625 -18.109375 
Q 33.296875 -21.046875 25.484375 -21.046875 
Q 16.21875 -21.046875 10.5 -16.875 
Q 4.78125 -12.703125 4.984375 -4.296875 
z
M 12.25 26.859375 
Q 12.25 16.65625 16.296875 11.96875 
Q 20.359375 7.28125 26.46875 7.28125 
Q 32.515625 7.28125 36.609375 11.9375 
Q 40.71875 16.609375 40.71875 26.5625 
Q 40.71875 36.078125 36.5 40.90625 
Q 32.28125 45.75 26.3125 45.75 
Q 20.453125 45.75 16.34375 40.984375 
Q 12.25 36.234375 12.25 26.859375 
z
" id="ArialMT-103"/>
      <path d="M 9.03125 41.84375 
L 9.03125 51.859375 
L 19.046875 51.859375 
L 19.046875 41.84375 
z
M 9.03125 0 
L 9.03125 10.015625 
L 19.046875 10.015625 
L 19.046875 0 
z
" id="ArialMT-58"/>
     </defs>
     <g style="fill:#262626;" transform="translate(224.705469 63.7075)scale(0.1 -0.1)">
      <use xlink:href="#ArialMT-65"/>
      <use x="66.683594" xlink:href="#ArialMT-118"/>
      <use x="116.683594" xlink:href="#ArialMT-101"/>
      <use x="172.298828" xlink:href="#ArialMT-114"/>
      <use x="205.599609" xlink:href="#ArialMT-97"/>
      <use x="261.214844" xlink:href="#ArialMT-103"/>
      <use x="316.830078" xlink:href="#ArialMT-101"/>
      <use x="372.445312" xlink:href="#ArialMT-32"/>
      <use x="400.228516" xlink:href="#ArialMT-97"/>
      <use x="455.84375" xlink:href="#ArialMT-110"/>
      <use x="511.458984" xlink:href="#ArialMT-103"/>
      <use x="567.074219" xlink:href="#ArialMT-108"/>
      <use x="589.291016" xlink:href="#ArialMT-101"/>
      <use x="644.90625" xlink:href="#ArialMT-32"/>
      <use x="672.689453" xlink:href="#ArialMT-105"/>
      <use x="694.90625" xlink:href="#ArialMT-110"/>
      <use x="750.521484" xlink:href="#ArialMT-32"/>
      <use x="778.304688" xlink:href="#ArialMT-108"/>
      <use x="800.521484" xlink:href="#ArialMT-105"/>
      <use x="822.738281" xlink:href="#ArialMT-103"/>
      <use x="878.353516" xlink:href="#ArialMT-104"/>
      <use x="933.96875" xlink:href="#ArialMT-116"/>
      <use x="961.751953" xlink:href="#ArialMT-58"/>
      <use x="989.535156" xlink:href="#ArialMT-32"/>
      <use x="1017.318359" xlink:href="#ArialMT-45"/>
      <use x="1050.619141" xlink:href="#ArialMT-50"/>
      <use x="1106.234375" xlink:href="#ArialMT-50"/>
      <use x="1161.849609" xlink:href="#ArialMT-46"/>
      <use x="1189.632812" xlink:href="#ArialMT-52"/>
      <use x="1245.248047" xlink:href="#ArialMT-50"/>
      <use x="1300.863281" xlink:href="#ArialMT-32"/>
      <use x="1328.646484" xlink:href="#ArialMT-100"/>
      <use x="1384.261719" xlink:href="#ArialMT-101"/>
      <use x="1439.876953" xlink:href="#ArialMT-103"/>
      <use x="1495.492188" xlink:href="#ArialMT-114"/>
      <use x="1528.792969" xlink:href="#ArialMT-101"/>
      <use x="1584.408203" xlink:href="#ArialMT-101"/>
      <use x="1640.023438" xlink:href="#ArialMT-115"/>
     </g>
    </g>
    <g id="PathCollection_4">
     <g>
      <use style="fill:#4c72b0;stroke:#4c72b0;stroke-width:0.3;" x="206.705469" xlink:href="#m5340216a88" y="75.345"/>
     </g>
    </g>
    <g id="text_19">
     <!-- $-0.5 &lt; t &lt; 0.$ -->
     <defs>
      <path d="M 10.59375 35.5 
L 73.1875 35.5 
L 73.1875 27.203125 
L 10.59375 27.203125 
z
" id="DejaVuSans-8722"/>
      <path d="M 31.78125 66.40625 
Q 24.171875 66.40625 20.328125 58.90625 
Q 16.5 51.421875 16.5 36.375 
Q 16.5 21.390625 20.328125 13.890625 
Q 24.171875 6.390625 31.78125 6.390625 
Q 39.453125 6.390625 43.28125 13.890625 
Q 47.125 21.390625 47.125 36.375 
Q 47.125 51.421875 43.28125 58.90625 
Q 39.453125 66.40625 31.78125 66.40625 
z
M 31.78125 74.21875 
Q 44.046875 74.21875 50.515625 64.515625 
Q 56.984375 54.828125 56.984375 36.375 
Q 56.984375 17.96875 50.515625 8.265625 
Q 44.046875 -1.421875 31.78125 -1.421875 
Q 19.53125 -1.421875 13.0625 8.265625 
Q 6.59375 17.96875 6.59375 36.375 
Q 6.59375 54.828125 13.0625 64.515625 
Q 19.53125 74.21875 31.78125 74.21875 
z
" id="DejaVuSans-48"/>
      <path d="M 10.6875 12.40625 
L 21 12.40625 
L 21 0 
L 10.6875 0 
z
" id="DejaVuSans-46"/>
      <path d="M 10.796875 72.90625 
L 49.515625 72.90625 
L 49.515625 64.59375 
L 19.828125 64.59375 
L 19.828125 46.734375 
Q 21.96875 47.46875 24.109375 47.828125 
Q 26.265625 48.1875 28.421875 48.1875 
Q 40.625 48.1875 47.75 41.5 
Q 54.890625 34.8125 54.890625 23.390625 
Q 54.890625 11.625 47.5625 5.09375 
Q 40.234375 -1.421875 26.90625 -1.421875 
Q 22.3125 -1.421875 17.546875 -0.640625 
Q 12.796875 0.140625 7.71875 1.703125 
L 7.71875 11.625 
Q 12.109375 9.234375 16.796875 8.0625 
Q 21.484375 6.890625 26.703125 6.890625 
Q 35.15625 6.890625 40.078125 11.328125 
Q 45.015625 15.765625 45.015625 23.390625 
Q 45.015625 31 40.078125 35.4375 
Q 35.15625 39.890625 26.703125 39.890625 
Q 22.75 39.890625 18.8125 39.015625 
Q 14.890625 38.140625 10.796875 36.28125 
z
" id="DejaVuSans-53"/>
      <path d="M 73.1875 49.21875 
L 22.796875 31.296875 
L 73.1875 13.484375 
L 73.1875 4.59375 
L 10.59375 27.296875 
L 10.59375 35.40625 
L 73.1875 58.109375 
z
" id="DejaVuSans-60"/>
      <path d="M 42.28125 54.6875 
L 40.921875 47.703125 
L 23 47.703125 
L 17.1875 18.015625 
Q 16.890625 16.359375 16.75 15.234375 
Q 16.609375 14.109375 16.609375 13.484375 
Q 16.609375 10.359375 18.484375 8.9375 
Q 20.359375 7.515625 24.515625 7.515625 
L 33.59375 7.515625 
L 32.078125 0 
L 23.484375 0 
Q 15.484375 0 11.546875 3.125 
Q 7.625 6.25 7.625 12.59375 
Q 7.625 13.71875 7.765625 15.0625 
Q 7.90625 16.40625 8.203125 18.015625 
L 14.015625 47.703125 
L 6.390625 47.703125 
L 7.8125 54.6875 
L 15.28125 54.6875 
L 18.3125 70.21875 
L 27.296875 70.21875 
L 24.3125 54.6875 
z
" id="DejaVuSans-Oblique-116"/>
     </defs>
     <g style="fill:#262626;" transform="translate(224.705469 77.97)scale(0.1 -0.1)">
      <use transform="translate(0 0.78125)" xlink:href="#DejaVuSans-8722"/>
      <use transform="translate(83.789062 0.78125)" xlink:href="#DejaVuSans-48"/>
      <use transform="translate(147.412109 0.78125)" xlink:href="#DejaVuSans-46"/>
      <use transform="translate(179.199219 0.78125)" xlink:href="#DejaVuSans-53"/>
      <use transform="translate(262.304688 0.78125)" xlink:href="#DejaVuSans-60"/>
      <use transform="translate(365.576172 0.78125)" xlink:href="#DejaVuSans-Oblique-116"/>
      <use transform="translate(424.267578 0.78125)" xlink:href="#DejaVuSans-60"/>
      <use transform="translate(527.539062 0.78125)" xlink:href="#DejaVuSans-48"/>
     </g>
    </g>
    <g id="PathCollection_5">
     <g>
      <use style="fill:#55a868;stroke:#55a868;stroke-width:0.3;" x="206.705469" xlink:href="#m87fe187da7" y="89.490312"/>
     </g>
    </g>
    <g id="text_20">
     <!-- $0. &lt; t &lt; 0.5$ -->
     <g style="fill:#262626;" transform="translate(224.705469 92.115312)scale(0.1 -0.1)">
      <use transform="translate(0 0.78125)" xlink:href="#DejaVuSans-48"/>
      <use transform="translate(63.623047 0.78125)" xlink:href="#DejaVuSans-46"/>
      <use transform="translate(134.375 0.78125)" xlink:href="#DejaVuSans-60"/>
      <use transform="translate(237.646484 0.78125)" xlink:href="#DejaVuSans-Oblique-116"/>
      <use transform="translate(296.337891 0.78125)" xlink:href="#DejaVuSans-60"/>
      <use transform="translate(399.609375 0.78125)" xlink:href="#DejaVuSans-48"/>
      <use transform="translate(463.232422 0.78125)" xlink:href="#DejaVuSans-46"/>
      <use transform="translate(495.019531 0.78125)" xlink:href="#DejaVuSans-53"/>
     </g>
    </g>
    <g id="PathCollection_6">
     <g>
      <use style="fill:#c44e52;stroke:#c44e52;stroke-width:0.3;" x="206.705469" xlink:href="#maf4b16e2dd" y="103.635625"/>
     </g>
    </g>
    <g id="text_21">
     <!-- $0.5 &lt; t &lt; 1.$ -->
     <defs>
      <path d="M 12.40625 8.296875 
L 28.515625 8.296875 
L 28.515625 63.921875 
L 10.984375 60.40625 
L 10.984375 69.390625 
L 28.421875 72.90625 
L 38.28125 72.90625 
L 38.28125 8.296875 
L 54.390625 8.296875 
L 54.390625 0 
L 12.40625 0 
z
" id="DejaVuSans-49"/>
     </defs>
     <g style="fill:#262626;" transform="translate(224.705469 106.260625)scale(0.1 -0.1)">
      <use transform="translate(0 0.78125)" xlink:href="#DejaVuSans-48"/>
      <use transform="translate(63.623047 0.78125)" xlink:href="#DejaVuSans-46"/>
      <use transform="translate(95.410156 0.78125)" xlink:href="#DejaVuSans-53"/>
      <use transform="translate(178.515625 0.78125)" xlink:href="#DejaVuSans-60"/>
      <use transform="translate(281.787109 0.78125)" xlink:href="#DejaVuSans-Oblique-116"/>
      <use transform="translate(340.478516 0.78125)" xlink:href="#DejaVuSans-60"/>
      <use transform="translate(443.75 0.78125)" xlink:href="#DejaVuSans-49"/>
     </g>
    </g>
   </g>
  </g>
 </g>
 <defs>
  <clipPath id="pdf0a810428">
   <path d="M 447.66 199.98 
C 447.66 179.959136 443.716326 160.13295 436.054674 141.636084 
C 428.393021 123.139218 417.162388 106.331389 403.0055 92.1745 
C 388.848611 78.017612 372.040782 66.786979 353.543916 59.125326 
C 335.04705 51.463674 315.220864 47.52 295.2 47.52 
C 275.179136 47.52 255.35295 51.463674 236.856084 59.125326 
C 218.359218 66.786979 201.551389 78.017612 187.3945 92.1745 
C 173.237612 106.331389 162.006979 123.139218 154.345326 141.636084 
C 146.683674 160.13295 142.74 179.959136 142.74 199.98 
C 142.74 220.000864 146.683674 239.82705 154.345326 258.323916 
C 162.006979 276.820782 173.237612 293.628611 187.3945 307.7855 
C 201.551389 321.942388 218.359218 333.173021 236.856084 340.834674 
C 255.35295 348.496326 275.179136 352.44 295.2 352.44 
C 315.220864 352.44 335.04705 348.496326 353.543916 340.834674 
C 372.040782 333.173021 388.848611 321.942388 403.0055 307.7855 
C 417.162388 293.628611 428.393021 276.820782 436.054674 258.323916 
C 443.716326 239.82705 447.66 220.000864 447.66 199.98 
M 295.2 199.98 
C 295.2 199.98 295.2 199.98 295.2 199.98 
C 295.2 199.98 295.2 199.98 295.2 199.98 
C 295.2 199.98 295.2 199.98 295.2 199.98 
C 295.2 199.98 295.2 199.98 295.2 199.98 
C 295.2 199.98 295.2 199.98 295.2 199.98 
C 295.2 199.98 295.2 199.98 295.2 199.98 
C 295.2 199.98 295.2 199.98 295.2 199.98 
C 295.2 199.98 295.2 199.98 295.2 199.98 
C 295.2 199.98 295.2 199.98 295.2 199.98 
C 295.2 199.98 295.2 199.98 295.2 199.98 
C 295.2 199.98 295.2 199.98 295.2 199.98 
C 295.2 199.98 295.2 199.98 295.2 199.98 
C 295.2 199.98 295.2 199.98 295.2 199.98 
C 295.2 199.98 295.2 199.98 295.2 199.98 
C 295.2 199.98 295.2 199.98 295.2 199.98 
C 295.2 199.98 295.2 199.98 295.2 199.98 
M 447.66 199.98 
z
"/>
  </clipPath>
 </defs>
</svg>
