<?xml version="1.0" encoding="utf-8" standalone="no"?>
<!DOCTYPE svg PUBLIC "-//W3C//DTD SVG 1.1//EN"
  "http://www.w3.org/Graphics/SVG/1.1/DTD/svg11.dtd">
<!-- Created with matplotlib (https://matplotlib.org/) -->
<svg height="396pt" version="1.1" viewBox="0 0 576 396" width="576pt" xmlns="http://www.w3.org/2000/svg" xmlns:xlink="http://www.w3.org/1999/xlink">
 <defs>
  <style type="text/css">
*{stroke-linecap:butt;stroke-linejoin:round;}
  </style>
 </defs>
 <g id="figure_1">
  <g id="patch_1">
   <path d="M 0 396 
L 576 396 
L 576 0 
L 0 0 
z
" style="fill:#ffffff;"/>
  </g>
  <g id="axes_1">
   <g id="patch_2">
    <path d="M 447.66 199.98 
C 447.66 179.959136 443.716326 160.13295 436.054674 141.636084 
C 428.393021 123.139218 417.162388 106.331389 403.0055 92.1745 
C 388.848611 78.017612 372.040782 66.786979 353.543916 59.125326 
C 335.04705 51.463674 315.220864 47.52 295.2 47.52 
C 275.179136 47.52 255.35295 51.463674 236.856084 59.125326 
C 218.359218 66.786979 201.551389 78.017612 187.3945 92.1745 
C 173.237612 106.331389 162.006979 123.139218 154.345326 141.636084 
C 146.683674 160.13295 142.74 179.959136 142.74 199.98 
C 142.74 220.000864 146.683674 239.82705 154.345326 258.323916 
C 162.006979 276.820782 173.237612 293.628611 187.3945 307.7855 
C 201.551389 321.942388 218.359218 333.173021 236.856084 340.834674 
C 255.35295 348.496326 275.179136 352.44 295.2 352.44 
C 315.220864 352.44 335.04705 348.496326 353.543916 340.834674 
C 372.040782 333.173021 388.848611 321.942388 403.0055 307.7855 
C 417.162388 293.628611 428.393021 276.820782 436.054674 258.323916 
C 443.716326 239.82705 447.66 220.000864 447.66 199.98 
M 295.2 199.98 
C 295.2 199.98 295.2 199.98 295.2 199.98 
C 295.2 199.98 295.2 199.98 295.2 199.98 
C 295.2 199.98 295.2 199.98 295.2 199.98 
C 295.2 199.98 295.2 199.98 295.2 199.98 
C 295.2 199.98 295.2 199.98 295.2 199.98 
C 295.2 199.98 295.2 199.98 295.2 199.98 
C 295.2 199.98 295.2 199.98 295.2 199.98 
C 295.2 199.98 295.2 199.98 295.2 199.98 
C 295.2 199.98 295.2 199.98 295.2 199.98 
C 295.2 199.98 295.2 199.98 295.2 199.98 
C 295.2 199.98 295.2 199.98 295.2 199.98 
C 295.2 199.98 295.2 199.98 295.2 199.98 
C 295.2 199.98 295.2 199.98 295.2 199.98 
C 295.2 199.98 295.2 199.98 295.2 199.98 
C 295.2 199.98 295.2 199.98 295.2 199.98 
C 295.2 199.98 295.2 199.98 295.2 199.98 
M 447.66 199.98 
z
" style="fill:#eaeaf2;"/>
   </g>
   <g id="matplotlib.axis_1">
    <g id="xtick_1">
     <g id="line2d_1">
      <path clip-path="url(#pb74adbdeac)" d="M 295.2 199.98 
L 447.66 199.98 
" style="fill:none;stroke:#ffffff;stroke-linecap:round;"/>
     </g>
     <g id="text_1">
      <!-- 0° -->
      <defs>
       <path d="M 4.15625 35.296875 
Q 4.15625 48 6.765625 55.734375 
Q 9.375 63.484375 14.515625 67.671875 
Q 19.671875 71.875 27.484375 71.875 
Q 33.25 71.875 37.59375 69.546875 
Q 41.9375 67.234375 44.765625 62.859375 
Q 47.609375 58.5 49.21875 52.21875 
Q 50.828125 45.953125 50.828125 35.296875 
Q 50.828125 22.703125 48.234375 14.96875 
Q 45.65625 7.234375 40.5 3 
Q 35.359375 -1.21875 27.484375 -1.21875 
Q 17.140625 -1.21875 11.234375 6.203125 
Q 4.15625 15.140625 4.15625 35.296875 
z
M 13.1875 35.296875 
Q 13.1875 17.671875 17.3125 11.828125 
Q 21.4375 6 27.484375 6 
Q 33.546875 6 37.671875 11.859375 
Q 41.796875 17.71875 41.796875 35.296875 
Q 41.796875 52.984375 37.671875 58.78125 
Q 33.546875 64.59375 27.390625 64.59375 
Q 21.34375 64.59375 17.71875 59.46875 
Q 13.1875 52.9375 13.1875 35.296875 
z
" id="ArialMT-48"/>
       <path d="M 6.25 59.28125 
Q 6.25 64.890625 10.21875 68.84375 
Q 14.203125 72.796875 19.78125 72.796875 
Q 25.4375 72.796875 29.390625 68.84375 
Q 33.34375 64.890625 33.34375 59.28125 
Q 33.34375 53.65625 29.359375 49.671875 
Q 25.390625 45.703125 19.78125 45.703125 
Q 14.203125 45.703125 10.21875 49.65625 
Q 6.25 53.609375 6.25 59.28125 
z
M 11.578125 59.28125 
Q 11.578125 55.859375 13.984375 53.4375 
Q 16.40625 51.03125 19.828125 51.03125 
Q 23.1875 51.03125 25.609375 53.4375 
Q 28.03125 55.859375 28.03125 59.28125 
Q 28.03125 62.703125 25.609375 65.109375 
Q 23.1875 67.53125 19.828125 67.53125 
Q 16.40625 67.53125 13.984375 65.109375 
Q 11.578125 62.703125 11.578125 59.28125 
z
" id="ArialMT-176"/>
      </defs>
      <g style="fill:#262626;" transform="translate(456.880313 202.565156)scale(0.1 -0.1)">
       <use xlink:href="#ArialMT-48"/>
       <use x="55.615234" xlink:href="#ArialMT-176"/>
      </g>
     </g>
    </g>
    <g id="xtick_2">
     <g id="line2d_2">
      <path clip-path="url(#pb74adbdeac)" d="M 295.2 199.98 
L 403.0055 92.1745 
" style="fill:none;stroke:#ffffff;stroke-linecap:round;"/>
     </g>
     <g id="text_2">
      <!-- 45° -->
      <defs>
       <path d="M 32.328125 0 
L 32.328125 17.140625 
L 1.265625 17.140625 
L 1.265625 25.203125 
L 33.9375 71.578125 
L 41.109375 71.578125 
L 41.109375 25.203125 
L 50.78125 25.203125 
L 50.78125 17.140625 
L 41.109375 17.140625 
L 41.109375 0 
z
M 32.328125 25.203125 
L 32.328125 57.46875 
L 9.90625 25.203125 
z
" id="ArialMT-52"/>
       <path d="M 4.15625 18.75 
L 13.375 19.53125 
Q 14.40625 12.796875 18.140625 9.390625 
Q 21.875 6 27.15625 6 
Q 33.5 6 37.890625 10.78125 
Q 42.28125 15.578125 42.28125 23.484375 
Q 42.28125 31 38.0625 35.34375 
Q 33.84375 39.703125 27 39.703125 
Q 22.75 39.703125 19.328125 37.765625 
Q 15.921875 35.84375 13.96875 32.765625 
L 5.71875 33.84375 
L 12.640625 70.609375 
L 48.25 70.609375 
L 48.25 62.203125 
L 19.671875 62.203125 
L 15.828125 42.96875 
Q 22.265625 47.46875 29.34375 47.46875 
Q 38.71875 47.46875 45.15625 40.96875 
Q 51.609375 34.46875 51.609375 24.265625 
Q 51.609375 14.546875 45.953125 7.46875 
Q 39.0625 -1.21875 27.15625 -1.21875 
Q 17.390625 -1.21875 11.203125 4.25 
Q 5.03125 9.71875 4.15625 18.75 
z
" id="ArialMT-53"/>
      </defs>
      <g style="fill:#262626;" transform="translate(405.344839 84.860161)scale(0.1 -0.1)">
       <use xlink:href="#ArialMT-52"/>
       <use x="55.615234" xlink:href="#ArialMT-53"/>
       <use x="111.230469" xlink:href="#ArialMT-176"/>
      </g>
     </g>
    </g>
    <g id="xtick_3">
     <g id="line2d_3">
      <path clip-path="url(#pb74adbdeac)" d="M 295.2 199.98 
L 295.2 47.52 
" style="fill:none;stroke:#ffffff;stroke-linecap:round;"/>
     </g>
     <g id="text_3">
      <!-- 90° -->
      <defs>
       <path d="M 5.46875 16.546875 
L 13.921875 17.328125 
Q 14.984375 11.375 18.015625 8.6875 
Q 21.046875 6 25.78125 6 
Q 29.828125 6 32.875 7.859375 
Q 35.9375 9.71875 37.890625 12.8125 
Q 39.84375 15.921875 41.15625 21.1875 
Q 42.484375 26.46875 42.484375 31.9375 
Q 42.484375 32.515625 42.4375 33.6875 
Q 39.796875 29.5 35.234375 26.875 
Q 30.671875 24.265625 25.34375 24.265625 
Q 16.453125 24.265625 10.296875 30.703125 
Q 4.15625 37.15625 4.15625 47.703125 
Q 4.15625 58.59375 10.578125 65.234375 
Q 17 71.875 26.65625 71.875 
Q 33.640625 71.875 39.421875 68.109375 
Q 45.21875 64.359375 48.21875 57.390625 
Q 51.21875 50.4375 51.21875 37.25 
Q 51.21875 23.53125 48.234375 15.40625 
Q 45.265625 7.28125 39.375 3.03125 
Q 33.5 -1.21875 25.59375 -1.21875 
Q 17.1875 -1.21875 11.859375 3.4375 
Q 6.546875 8.109375 5.46875 16.546875 
z
M 41.453125 48.140625 
Q 41.453125 55.71875 37.421875 60.15625 
Q 33.40625 64.59375 27.734375 64.59375 
Q 21.875 64.59375 17.53125 59.8125 
Q 13.1875 55.03125 13.1875 47.40625 
Q 13.1875 40.578125 17.3125 36.296875 
Q 21.4375 32.03125 27.484375 32.03125 
Q 33.59375 32.03125 37.515625 36.296875 
Q 41.453125 40.578125 41.453125 48.140625 
z
" id="ArialMT-57"/>
      </defs>
      <g style="fill:#262626;" transform="translate(287.639844 36.105156)scale(0.1 -0.1)">
       <use xlink:href="#ArialMT-57"/>
       <use x="55.615234" xlink:href="#ArialMT-48"/>
       <use x="111.230469" xlink:href="#ArialMT-176"/>
      </g>
     </g>
    </g>
    <g id="xtick_4">
     <g id="line2d_4">
      <path clip-path="url(#pb74adbdeac)" d="M 295.2 199.98 
L 187.3945 92.1745 
" style="fill:none;stroke:#ffffff;stroke-linecap:round;"/>
     </g>
     <g id="text_4">
      <!-- 135° -->
      <defs>
       <path d="M 37.25 0 
L 28.46875 0 
L 28.46875 56 
Q 25.296875 52.984375 20.140625 49.953125 
Q 14.984375 46.921875 10.890625 45.40625 
L 10.890625 53.90625 
Q 18.265625 57.375 23.78125 62.296875 
Q 29.296875 67.234375 31.59375 71.875 
L 37.25 71.875 
z
" id="ArialMT-49"/>
       <path d="M 4.203125 18.890625 
L 12.984375 20.0625 
Q 14.5 12.59375 18.140625 9.296875 
Q 21.78125 6 27 6 
Q 33.203125 6 37.46875 10.296875 
Q 41.75 14.59375 41.75 20.953125 
Q 41.75 27 37.796875 30.921875 
Q 33.84375 34.859375 27.734375 34.859375 
Q 25.25 34.859375 21.53125 33.890625 
L 22.515625 41.609375 
Q 23.390625 41.5 23.921875 41.5 
Q 29.546875 41.5 34.03125 44.421875 
Q 38.53125 47.359375 38.53125 53.46875 
Q 38.53125 58.296875 35.25 61.46875 
Q 31.984375 64.65625 26.8125 64.65625 
Q 21.6875 64.65625 18.265625 61.421875 
Q 14.84375 58.203125 13.875 51.765625 
L 5.078125 53.328125 
Q 6.6875 62.15625 12.390625 67.015625 
Q 18.109375 71.875 26.609375 71.875 
Q 32.46875 71.875 37.390625 69.359375 
Q 42.328125 66.84375 44.9375 62.5 
Q 47.5625 58.15625 47.5625 53.265625 
Q 47.5625 48.640625 45.0625 44.828125 
Q 42.578125 41.015625 37.703125 38.765625 
Q 44.046875 37.3125 47.5625 32.6875 
Q 51.078125 28.078125 51.078125 21.140625 
Q 51.078125 11.765625 44.234375 5.25 
Q 37.40625 -1.265625 26.953125 -1.265625 
Q 17.53125 -1.265625 11.296875 4.34375 
Q 5.078125 9.96875 4.203125 18.890625 
z
" id="ArialMT-51"/>
      </defs>
      <g style="fill:#262626;" transform="translate(167.15438 84.860161)scale(0.1 -0.1)">
       <use xlink:href="#ArialMT-49"/>
       <use x="55.615234" xlink:href="#ArialMT-51"/>
       <use x="111.230469" xlink:href="#ArialMT-53"/>
       <use x="166.845703" xlink:href="#ArialMT-176"/>
      </g>
     </g>
    </g>
    <g id="xtick_5">
     <g id="line2d_5">
      <path clip-path="url(#pb74adbdeac)" d="M 295.2 199.98 
L 142.74 199.98 
" style="fill:none;stroke:#ffffff;stroke-linecap:round;"/>
     </g>
     <g id="text_5">
      <!-- 180° -->
      <defs>
       <path d="M 17.671875 38.8125 
Q 12.203125 40.828125 9.5625 44.53125 
Q 6.9375 48.25 6.9375 53.421875 
Q 6.9375 61.234375 12.546875 66.546875 
Q 18.171875 71.875 27.484375 71.875 
Q 36.859375 71.875 42.578125 66.421875 
Q 48.296875 60.984375 48.296875 53.171875 
Q 48.296875 48.1875 45.671875 44.5 
Q 43.0625 40.828125 37.75 38.8125 
Q 44.34375 36.671875 47.78125 31.875 
Q 51.21875 27.09375 51.21875 20.453125 
Q 51.21875 11.28125 44.71875 5.03125 
Q 38.234375 -1.21875 27.640625 -1.21875 
Q 17.046875 -1.21875 10.546875 5.046875 
Q 4.046875 11.328125 4.046875 20.703125 
Q 4.046875 27.6875 7.59375 32.390625 
Q 11.140625 37.109375 17.671875 38.8125 
z
M 15.921875 53.71875 
Q 15.921875 48.640625 19.1875 45.40625 
Q 22.46875 42.1875 27.6875 42.1875 
Q 32.765625 42.1875 36.015625 45.375 
Q 39.265625 48.578125 39.265625 53.21875 
Q 39.265625 58.0625 35.90625 61.359375 
Q 32.5625 64.65625 27.59375 64.65625 
Q 22.5625 64.65625 19.234375 61.421875 
Q 15.921875 58.203125 15.921875 53.71875 
z
M 13.09375 20.65625 
Q 13.09375 16.890625 14.875 13.375 
Q 16.65625 9.859375 20.171875 7.921875 
Q 23.6875 6 27.734375 6 
Q 34.03125 6 38.125 10.046875 
Q 42.234375 14.109375 42.234375 20.359375 
Q 42.234375 26.703125 38.015625 30.859375 
Q 33.796875 35.015625 27.4375 35.015625 
Q 21.234375 35.015625 17.15625 30.90625 
Q 13.09375 26.8125 13.09375 20.65625 
z
" id="ArialMT-56"/>
      </defs>
      <g style="fill:#262626;" transform="translate(118.399375 202.565156)scale(0.1 -0.1)">
       <use xlink:href="#ArialMT-49"/>
       <use x="55.615234" xlink:href="#ArialMT-56"/>
       <use x="111.230469" xlink:href="#ArialMT-48"/>
       <use x="166.845703" xlink:href="#ArialMT-176"/>
      </g>
     </g>
    </g>
    <g id="xtick_6">
     <g id="line2d_6">
      <path clip-path="url(#pb74adbdeac)" d="M 295.2 199.98 
L 187.3945 307.7855 
" style="fill:none;stroke:#ffffff;stroke-linecap:round;"/>
     </g>
     <g id="text_6">
      <!-- 225° -->
      <defs>
       <path d="M 50.34375 8.453125 
L 50.34375 0 
L 3.03125 0 
Q 2.9375 3.171875 4.046875 6.109375 
Q 5.859375 10.9375 9.828125 15.625 
Q 13.8125 20.3125 21.34375 26.46875 
Q 33.015625 36.03125 37.109375 41.625 
Q 41.21875 47.21875 41.21875 52.203125 
Q 41.21875 57.421875 37.46875 61 
Q 33.734375 64.59375 27.734375 64.59375 
Q 21.390625 64.59375 17.578125 60.78125 
Q 13.765625 56.984375 13.71875 50.25 
L 4.6875 51.171875 
Q 5.609375 61.28125 11.65625 66.578125 
Q 17.71875 71.875 27.9375 71.875 
Q 38.234375 71.875 44.234375 66.15625 
Q 50.25 60.453125 50.25 52 
Q 50.25 47.703125 48.484375 43.546875 
Q 46.734375 39.40625 42.65625 34.8125 
Q 38.578125 30.21875 29.109375 22.21875 
Q 21.1875 15.578125 18.9375 13.203125 
Q 16.703125 10.84375 15.234375 8.453125 
z
" id="ArialMT-50"/>
      </defs>
      <g style="fill:#262626;" transform="translate(167.15438 320.270151)scale(0.1 -0.1)">
       <use xlink:href="#ArialMT-50"/>
       <use x="55.615234" xlink:href="#ArialMT-50"/>
       <use x="111.230469" xlink:href="#ArialMT-53"/>
       <use x="166.845703" xlink:href="#ArialMT-176"/>
      </g>
     </g>
    </g>
    <g id="xtick_7">
     <g id="line2d_7">
      <path clip-path="url(#pb74adbdeac)" d="M 295.2 199.98 
L 295.2 352.44 
" style="fill:none;stroke:#ffffff;stroke-linecap:round;"/>
     </g>
     <g id="text_7">
      <!-- 270° -->
      <defs>
       <path d="M 4.734375 62.203125 
L 4.734375 70.65625 
L 51.078125 70.65625 
L 51.078125 63.8125 
Q 44.234375 56.546875 37.515625 44.484375 
Q 30.8125 32.421875 27.15625 19.671875 
Q 24.515625 10.6875 23.78125 0 
L 14.75 0 
Q 14.890625 8.453125 18.0625 20.40625 
Q 21.234375 32.375 27.171875 43.484375 
Q 33.109375 54.59375 39.796875 62.203125 
z
" id="ArialMT-55"/>
      </defs>
      <g style="fill:#262626;" transform="translate(284.859375 369.025156)scale(0.1 -0.1)">
       <use xlink:href="#ArialMT-50"/>
       <use x="55.615234" xlink:href="#ArialMT-55"/>
       <use x="111.230469" xlink:href="#ArialMT-48"/>
       <use x="166.845703" xlink:href="#ArialMT-176"/>
      </g>
     </g>
    </g>
    <g id="xtick_8">
     <g id="line2d_8">
      <path clip-path="url(#pb74adbdeac)" d="M 295.2 199.98 
L 403.0055 307.7855 
" style="fill:none;stroke:#ffffff;stroke-linecap:round;"/>
     </g>
     <g id="text_8">
      <!-- 315° -->
      <g style="fill:#262626;" transform="translate(402.56437 320.270151)scale(0.1 -0.1)">
       <use xlink:href="#ArialMT-51"/>
       <use x="55.615234" xlink:href="#ArialMT-49"/>
       <use x="111.230469" xlink:href="#ArialMT-53"/>
       <use x="166.845703" xlink:href="#ArialMT-176"/>
      </g>
     </g>
    </g>
   </g>
   <g id="matplotlib.axis_2">
    <g id="ytick_1">
     <g id="line2d_9">
      <path clip-path="url(#pb74adbdeac)" d="M 312.498639 199.98 
L 312.403875 198.1718 
L 312.120622 196.383411 
L 311.651983 194.634427 
L 311.003093 192.94401 
L 310.181061 191.330681 
L 309.194893 189.812115 
L 308.055394 188.404951 
L 306.775049 187.124606 
L 305.367885 185.985107 
L 303.849319 184.998939 
L 302.23599 184.176907 
L 300.545573 183.528017 
L 298.796589 183.059378 
L 297.0082 182.776125 
L 295.2 182.681361 
L 293.3918 182.776125 
L 291.603411 183.059378 
L 289.854427 183.528017 
L 288.16401 184.176907 
L 286.550681 184.998939 
L 285.032115 185.985107 
L 283.624951 187.124606 
L 282.344606 188.404951 
L 281.205107 189.812115 
L 280.218939 191.330681 
L 279.396907 192.94401 
L 278.748017 194.634427 
L 278.279378 196.383411 
L 277.996125 198.1718 
L 277.901361 199.98 
L 277.996125 201.7882 
L 278.279378 203.576589 
L 278.748017 205.325573 
L 279.396907 207.01599 
L 280.218939 208.629319 
L 281.205107 210.147885 
L 282.344606 211.555049 
L 283.624951 212.835394 
L 285.032115 213.974893 
L 286.550681 214.961061 
L 288.16401 215.783093 
L 289.854427 216.431983 
L 291.603411 216.900622 
L 293.3918 217.183875 
L 295.2 217.278639 
L 297.0082 217.183875 
L 298.796589 216.900622 
L 300.545573 216.431983 
L 302.23599 215.783093 
L 303.849319 214.961061 
L 305.367885 213.974893 
L 306.775049 212.835394 
L 308.055394 211.555049 
L 309.194893 210.147885 
L 310.181061 208.629319 
L 311.003093 207.01599 
L 311.651983 205.325573 
L 312.120622 203.576589 
L 312.403875 201.7882 
L 312.498639 199.98 
L 312.498639 199.98 
" style="fill:none;stroke:#ffffff;stroke-linecap:round;"/>
     </g>
     <g id="text_9">
      <!-- 0.025 -->
      <defs>
       <path d="M 9.078125 0 
L 9.078125 10.015625 
L 19.09375 10.015625 
L 19.09375 0 
z
" id="ArialMT-46"/>
      </defs>
      <g style="fill:#262626;" transform="translate(311.181858 191.372597)scale(0.1 -0.1)">
       <use xlink:href="#ArialMT-48"/>
       <use x="55.615234" xlink:href="#ArialMT-46"/>
       <use x="83.398438" xlink:href="#ArialMT-48"/>
       <use x="139.013672" xlink:href="#ArialMT-50"/>
       <use x="194.628906" xlink:href="#ArialMT-53"/>
      </g>
     </g>
    </g>
    <g id="ytick_2">
     <g id="line2d_10">
      <path clip-path="url(#pb74adbdeac)" d="M 329.797278 199.98 
L 329.713001 197.566616 
L 329.46058 195.16499 
L 329.041244 192.786821 
L 328.457038 190.443698 
L 327.710807 188.147034 
L 326.806186 185.908019 
L 325.747583 183.737562 
L 324.540156 181.646236 
L 323.189786 179.64423 
L 321.703052 177.741298 
L 320.087199 175.946711 
L 318.350098 174.269212 
L 316.500211 172.716973 
L 314.546552 171.297557 
L 312.498639 170.017878 
L 310.366448 168.884173 
L 308.160368 167.901963 
L 305.891147 167.076033 
L 303.569839 166.410409 
L 301.207754 165.908333 
L 298.8164 165.57225 
L 296.407428 165.403798 
L 293.992572 165.403798 
L 291.5836 165.57225 
L 289.192246 165.908333 
L 286.830161 166.410409 
L 284.508853 167.076033 
L 282.239632 167.901963 
L 280.033552 168.884173 
L 277.901361 170.017878 
L 275.853448 171.297557 
L 273.899789 172.716973 
L 272.049902 174.269212 
L 270.312801 175.946711 
L 268.696948 177.741298 
L 267.210214 179.64423 
L 265.859844 181.646236 
L 264.652417 183.737562 
L 263.593814 185.908019 
L 262.689193 188.147034 
L 261.942962 190.443698 
L 261.358756 192.786821 
L 260.93942 195.16499 
L 260.686999 197.566616 
L 260.602722 199.98 
L 260.686999 202.393384 
L 260.93942 204.79501 
L 261.358756 207.173179 
L 261.942962 209.516302 
L 262.689193 211.812966 
L 263.593814 214.051981 
L 264.652417 216.222438 
L 265.859844 218.313764 
L 267.210214 220.31577 
L 268.696948 222.218702 
L 270.312801 224.013289 
L 272.049902 225.690788 
L 273.899789 227.243027 
L 275.853448 228.662443 
L 277.901361 229.942122 
L 280.033552 231.075827 
L 282.239632 232.058037 
L 284.508853 232.883967 
L 286.830161 233.549591 
L 289.192246 234.051667 
L 291.5836 234.38775 
L 293.992572 234.556202 
L 296.407428 234.556202 
L 298.8164 234.38775 
L 301.207754 234.051667 
L 303.569839 233.549591 
L 305.891147 232.883967 
L 308.160368 232.058037 
L 310.366448 231.075827 
L 312.498639 229.942122 
L 314.546552 228.662443 
L 316.500211 227.243027 
L 318.350098 225.690788 
L 320.087199 224.013289 
L 321.703052 222.218702 
L 323.189786 220.31577 
L 324.540156 218.313764 
L 325.747583 216.222438 
L 326.806186 214.051981 
L 327.710807 211.812966 
L 328.457038 209.516302 
L 329.041244 207.173179 
L 329.46058 204.79501 
L 329.713001 202.393384 
L 329.797278 199.98 
L 329.797278 199.98 
" style="fill:none;stroke:#ffffff;stroke-linecap:round;"/>
     </g>
     <g id="text_10">
      <!-- 0.050 -->
      <g style="fill:#262626;" transform="translate(327.163717 184.752695)scale(0.1 -0.1)">
       <use xlink:href="#ArialMT-48"/>
       <use x="55.615234" xlink:href="#ArialMT-46"/>
       <use x="83.398438" xlink:href="#ArialMT-48"/>
       <use x="139.013672" xlink:href="#ArialMT-53"/>
       <use x="194.628906" xlink:href="#ArialMT-48"/>
      </g>
     </g>
    </g>
    <g id="ytick_3">
     <g id="line2d_11">
      <path clip-path="url(#pb74adbdeac)" d="M 347.095917 199.98 
L 346.969501 196.359924 
L 346.590869 192.757484 
L 345.961866 189.190232 
L 345.085557 185.675547 
L 343.96621 182.230551 
L 342.609279 178.872029 
L 341.021375 175.616343 
L 339.210233 172.479354 
L 337.184679 169.476345 
L 334.954579 166.621948 
L 332.530798 163.930067 
L 329.925146 161.413818 
L 327.150317 159.08546 
L 324.219828 156.956335 
L 321.147958 155.036818 
L 317.949673 153.336259 
L 314.640553 151.862944 
L 311.23672 150.62405 
L 307.754759 149.625614 
L 304.211631 148.872499 
L 300.6246 148.368374 
L 297.011141 148.115697 
L 293.388859 148.115697 
L 289.7754 148.368374 
L 286.188369 148.872499 
L 282.645241 149.625614 
L 279.16328 150.62405 
L 275.759447 151.862944 
L 272.450327 153.336259 
L 269.252042 155.036818 
L 266.180172 156.956335 
L 263.249683 159.08546 
L 260.474854 161.413818 
L 257.869202 163.930067 
L 255.445421 166.621948 
L 253.215321 169.476345 
L 251.189767 172.479354 
L 249.378625 175.616343 
L 247.790721 178.872029 
L 246.43379 182.230551 
L 245.314443 185.675547 
L 244.438134 189.190232 
L 243.809131 192.757484 
L 243.430499 196.359924 
L 243.304083 199.98 
L 243.430499 203.600076 
L 243.809131 207.202516 
L 244.438134 210.769768 
L 245.314443 214.284453 
L 246.43379 217.729449 
L 247.790721 221.087971 
L 249.378625 224.343657 
L 251.189767 227.480646 
L 253.215321 230.483655 
L 255.445421 233.338052 
L 257.869202 236.029933 
L 260.474854 238.546182 
L 263.249683 240.87454 
L 266.180172 243.003665 
L 269.252042 244.923182 
L 272.450327 246.623741 
L 275.759447 248.097056 
L 279.16328 249.33595 
L 282.645241 250.334386 
L 286.188369 251.087501 
L 289.7754 251.591626 
L 293.388859 251.844303 
L 297.011141 251.844303 
L 300.6246 251.591626 
L 304.211631 251.087501 
L 307.754759 250.334386 
L 311.23672 249.33595 
L 314.640553 248.097056 
L 317.949673 246.623741 
L 321.147958 244.923182 
L 324.219828 243.003665 
L 327.150317 240.87454 
L 329.925146 238.546182 
L 332.530798 236.029933 
L 334.954579 233.338052 
L 337.184679 230.483655 
L 339.210233 227.480646 
L 341.021375 224.343657 
L 342.609279 221.087971 
L 343.96621 217.729449 
L 345.085557 214.284453 
L 345.961866 210.769768 
L 346.590869 207.202516 
L 346.969501 203.600076 
L 347.095917 199.98 
L 347.095917 199.98 
" style="fill:none;stroke:#ffffff;stroke-linecap:round;"/>
     </g>
     <g id="text_11">
      <!-- 0.075 -->
      <g style="fill:#262626;" transform="translate(343.145575 178.132792)scale(0.1 -0.1)">
       <use xlink:href="#ArialMT-48"/>
       <use x="55.615234" xlink:href="#ArialMT-46"/>
       <use x="83.398438" xlink:href="#ArialMT-48"/>
       <use x="139.013672" xlink:href="#ArialMT-55"/>
       <use x="194.628906" xlink:href="#ArialMT-53"/>
      </g>
     </g>
    </g>
    <g id="ytick_4">
     <g id="line2d_12">
      <path clip-path="url(#pb74adbdeac)" d="M 364.394556 199.98 
L 364.226001 195.153232 
L 363.721159 190.349979 
L 362.882489 185.593643 
L 361.714076 180.907396 
L 360.221613 176.314068 
L 358.412372 171.836039 
L 356.295166 167.495124 
L 353.880311 163.312472 
L 351.179571 159.308461 
L 348.206105 155.502597 
L 344.974398 151.913423 
L 341.500195 148.558424 
L 337.800422 145.453946 
L 333.893105 142.615114 
L 329.797278 140.055757 
L 325.532897 137.788345 
L 321.120737 135.823925 
L 316.582294 134.172067 
L 311.939678 132.840818 
L 307.215509 131.836665 
L 302.432801 131.164499 
L 297.614855 130.827596 
L 292.785145 130.827596 
L 287.967199 131.164499 
L 283.184491 131.836665 
L 278.460322 132.840818 
L 273.817706 134.172067 
L 269.279263 135.823925 
L 264.867103 137.788345 
L 260.602722 140.055757 
L 256.506895 142.615114 
L 252.599578 145.453946 
L 248.899805 148.558424 
L 245.425602 151.913423 
L 242.193895 155.502597 
L 239.220429 159.308461 
L 236.519689 163.312472 
L 234.104834 167.495124 
L 231.987628 171.836039 
L 230.178387 176.314068 
L 228.685924 180.907396 
L 227.517511 185.593643 
L 226.678841 190.349979 
L 226.173999 195.153232 
L 226.005444 199.98 
L 226.173999 204.806768 
L 226.678841 209.610021 
L 227.517511 214.366357 
L 228.685924 219.052604 
L 230.178387 223.645932 
L 231.987628 228.123961 
L 234.104834 232.464876 
L 236.519689 236.647528 
L 239.220429 240.651539 
L 242.193895 244.457403 
L 245.425602 248.046577 
L 248.899805 251.401576 
L 252.599578 254.506054 
L 256.506895 257.344886 
L 260.602722 259.904243 
L 264.867103 262.171655 
L 269.279263 264.136075 
L 273.817706 265.787933 
L 278.460322 267.119182 
L 283.184491 268.123335 
L 287.967199 268.795501 
L 292.785145 269.132404 
L 297.614855 269.132404 
L 302.432801 268.795501 
L 307.215509 268.123335 
L 311.939678 267.119182 
L 316.582294 265.787933 
L 321.120737 264.136075 
L 325.532897 262.171655 
L 329.797278 259.904243 
L 333.893105 257.344886 
L 337.800422 254.506054 
L 341.500195 251.401576 
L 344.974398 248.046577 
L 348.206105 244.457403 
L 351.179571 240.651539 
L 353.880311 236.647528 
L 356.295166 232.464876 
L 358.412372 228.123961 
L 360.221613 223.645932 
L 361.714076 219.052604 
L 362.882489 214.366357 
L 363.721159 209.610021 
L 364.226001 204.806768 
L 364.394556 199.98 
L 364.394556 199.98 
" style="fill:none;stroke:#ffffff;stroke-linecap:round;"/>
     </g>
     <g id="text_12">
      <!-- 0.100 -->
      <g style="fill:#262626;" transform="translate(359.127434 171.51289)scale(0.1 -0.1)">
       <use xlink:href="#ArialMT-48"/>
       <use x="55.615234" xlink:href="#ArialMT-46"/>
       <use x="83.398438" xlink:href="#ArialMT-49"/>
       <use x="139.013672" xlink:href="#ArialMT-48"/>
       <use x="194.628906" xlink:href="#ArialMT-48"/>
      </g>
     </g>
    </g>
    <g id="ytick_5">
     <g id="line2d_13">
      <path clip-path="url(#pb74adbdeac)" d="M 381.693195 199.98 
L 381.482502 193.94654 
L 380.851449 187.942474 
L 379.803111 181.997054 
L 378.342595 176.139245 
L 376.477017 170.397585 
L 374.215465 164.800048 
L 371.568958 159.373905 
L 368.550389 154.14559 
L 365.174464 149.140576 
L 361.457631 144.383246 
L 357.417997 139.896778 
L 353.075244 135.70303 
L 348.450528 131.822433 
L 343.566381 128.273892 
L 338.446597 125.074696 
L 333.116121 122.240432 
L 327.600921 119.784906 
L 321.927867 117.720084 
L 316.124598 116.056023 
L 310.219386 114.800831 
L 304.241001 113.960624 
L 298.218569 113.539495 
L 292.181431 113.539495 
L 286.158999 113.960624 
L 280.180614 114.800831 
L 274.275402 116.056023 
L 268.472133 117.720084 
L 262.799079 119.784906 
L 257.283879 122.240432 
L 251.953403 125.074696 
L 246.833619 128.273892 
L 241.949472 131.822433 
L 237.324756 135.70303 
L 232.982003 139.896778 
L 228.942369 144.383246 
L 225.225536 149.140576 
L 221.849611 154.14559 
L 218.831042 159.373905 
L 216.184535 164.800048 
L 213.922983 170.397585 
L 212.057405 176.139245 
L 210.596889 181.997054 
L 209.548551 187.942474 
L 208.917498 193.94654 
L 208.706805 199.98 
L 208.917498 206.01346 
L 209.548551 212.017526 
L 210.596889 217.962946 
L 212.057405 223.820755 
L 213.922983 229.562415 
L 216.184535 235.159952 
L 218.831042 240.586095 
L 221.849611 245.81441 
L 225.225536 250.819424 
L 228.942369 255.576754 
L 232.982003 260.063222 
L 237.324756 264.25697 
L 241.949472 268.137567 
L 246.833619 271.686108 
L 251.953403 274.885304 
L 257.283879 277.719568 
L 262.799079 280.175094 
L 268.472133 282.239916 
L 274.275402 283.903977 
L 280.180614 285.159169 
L 286.158999 285.999376 
L 292.181431 286.420505 
L 298.218569 286.420505 
L 304.241001 285.999376 
L 310.219386 285.159169 
L 316.124598 283.903977 
L 321.927867 282.239916 
L 327.600921 280.175094 
L 333.116121 277.719568 
L 338.446597 274.885304 
L 343.566381 271.686108 
L 348.450528 268.137567 
L 353.075244 264.25697 
L 357.417997 260.063222 
L 361.457631 255.576754 
L 365.174464 250.819424 
L 368.550389 245.81441 
L 371.568958 240.586095 
L 374.215465 235.159952 
L 376.477017 229.562415 
L 378.342595 223.820755 
L 379.803111 217.962946 
L 380.851449 212.017526 
L 381.482502 206.01346 
L 381.693195 199.98 
L 381.693195 199.98 
" style="fill:none;stroke:#ffffff;stroke-linecap:round;"/>
     </g>
     <g id="text_13">
      <!-- 0.125 -->
      <g style="fill:#262626;" transform="translate(375.109292 164.892987)scale(0.1 -0.1)">
       <use xlink:href="#ArialMT-48"/>
       <use x="55.615234" xlink:href="#ArialMT-46"/>
       <use x="83.398438" xlink:href="#ArialMT-49"/>
       <use x="139.013672" xlink:href="#ArialMT-50"/>
       <use x="194.628906" xlink:href="#ArialMT-53"/>
      </g>
     </g>
    </g>
    <g id="ytick_6">
     <g id="line2d_14">
      <path clip-path="url(#pb74adbdeac)" d="M 398.991834 199.98 
L 398.928606 196.357717 
L 398.739002 192.739848 
L 398.423251 189.130799 
L 397.981739 185.534969 
L 397.415002 181.956737 
L 396.723733 178.400464 
L 395.908773 174.870483 
L 394.971114 171.371093 
L 393.9119 167.90656 
L 392.73242 164.481102 
L 391.434112 161.098895 
L 390.018558 157.764058 
L 388.487482 154.480655 
L 386.84275 151.252686 
L 385.086365 148.084083 
L 383.220467 144.978708 
L 381.24733 141.940343 
L 379.169357 138.972691 
L 376.989081 136.079367 
L 374.709157 133.263895 
L 372.332364 130.529707 
L 369.861597 127.880134 
L 367.299866 125.318403 
L 364.650293 122.847636 
L 361.916105 120.470843 
L 359.100633 118.190919 
L 356.207309 116.010643 
L 353.239657 113.93267 
L 350.201292 111.959533 
L 347.095917 110.093635 
L 343.927314 108.33725 
L 340.699345 106.692518 
L 337.415942 105.161442 
L 334.081105 103.745888 
L 330.698898 102.44758 
L 327.27344 101.2681 
L 323.808907 100.208886 
L 320.309517 99.271227 
L 316.779536 98.456267 
L 313.223263 97.764998 
L 309.645031 97.198261 
L 306.049201 96.756749 
L 302.440152 96.440998 
L 298.822283 96.251394 
L 295.2 96.188166 
L 291.577717 96.251394 
L 287.959848 96.440998 
L 284.350799 96.756749 
L 280.754969 97.198261 
L 277.176737 97.764998 
L 273.620464 98.456267 
L 270.090483 99.271227 
L 266.591093 100.208886 
L 263.12656 101.2681 
L 259.701102 102.44758 
L 256.318895 103.745888 
L 252.984058 105.161442 
L 249.700655 106.692518 
L 246.472686 108.33725 
L 243.304083 110.093635 
L 240.198708 111.959533 
L 237.160343 113.93267 
L 234.192691 116.010643 
L 231.299367 118.190919 
L 228.483895 120.470843 
L 225.749707 122.847636 
L 223.100134 125.318403 
L 220.538403 127.880134 
L 218.067636 130.529707 
L 215.690843 133.263895 
L 213.410919 136.079367 
L 211.230643 138.972691 
L 209.15267 141.940343 
L 207.179533 144.978708 
L 205.313635 148.084083 
L 203.55725 151.252686 
L 201.912518 154.480655 
L 200.381442 157.764058 
L 198.965888 161.098895 
L 197.66758 164.481102 
L 196.4881 167.90656 
L 195.428886 171.371093 
L 194.491227 174.870483 
L 193.676267 178.400464 
L 192.984998 181.956737 
L 192.418261 185.534969 
L 191.976749 189.130799 
L 191.660998 192.739848 
L 191.471394 196.357717 
L 191.408166 199.98 
L 191.471394 203.602283 
L 191.660998 207.220152 
L 191.976749 210.829201 
L 192.418261 214.425031 
L 192.984998 218.003263 
L 193.676267 221.559536 
L 194.491227 225.089517 
L 195.428886 228.588907 
L 196.4881 232.05344 
L 197.66758 235.478898 
L 198.965888 238.861105 
L 200.381442 242.195942 
L 201.912518 245.479345 
L 203.55725 248.707314 
L 205.313635 251.875917 
L 207.179533 254.981292 
L 209.15267 258.019657 
L 211.230643 260.987309 
L 213.410919 263.880633 
L 215.690843 266.696105 
L 218.067636 269.430293 
L 220.538403 272.079866 
L 223.100134 274.641597 
L 225.749707 277.112364 
L 228.483895 279.489157 
L 231.299367 281.769081 
L 234.192691 283.949357 
L 237.160343 286.02733 
L 240.198708 288.000467 
L 243.304083 289.866365 
L 246.472686 291.62275 
L 249.700655 293.267482 
L 252.984058 294.798558 
L 256.318895 296.214112 
L 259.701102 297.51242 
L 263.12656 298.6919 
L 266.591093 299.751114 
L 270.090483 300.688773 
L 273.620464 301.503733 
L 277.176737 302.195002 
L 280.754969 302.761739 
L 284.350799 303.203251 
L 287.959848 303.519002 
L 291.577717 303.708606 
L 295.2 303.771834 
L 298.822283 303.708606 
L 302.440152 303.519002 
L 306.049201 303.203251 
L 309.645031 302.761739 
L 313.223263 302.195002 
L 316.779536 301.503733 
L 320.309517 300.688773 
L 323.808907 299.751114 
L 327.27344 298.6919 
L 330.698898 297.51242 
L 334.081105 296.214112 
L 337.415942 294.798558 
L 340.699345 293.267482 
L 343.927314 291.62275 
L 347.095917 289.866365 
L 350.201292 288.000467 
L 353.239657 286.02733 
L 356.207309 283.949357 
L 359.100633 281.769081 
L 361.916105 279.489157 
L 364.650293 277.112364 
L 367.299866 274.641597 
L 369.861597 272.079866 
L 372.332364 269.430293 
L 374.709157 266.696105 
L 376.989081 263.880633 
L 379.169357 260.987309 
L 381.24733 258.019657 
L 383.220467 254.981292 
L 385.086365 251.875917 
L 386.84275 248.707314 
L 388.487482 245.479345 
L 390.018558 242.195942 
L 391.434112 238.861105 
L 392.73242 235.478898 
L 393.9119 232.05344 
L 394.971114 228.588907 
L 395.908773 225.089517 
L 396.723733 221.559536 
L 397.415002 218.003263 
L 397.981739 214.425031 
L 398.423251 210.829201 
L 398.739002 207.220152 
L 398.928606 203.602283 
L 398.991834 199.98 
L 398.991834 199.98 
" style="fill:none;stroke:#ffffff;stroke-linecap:round;"/>
     </g>
     <g id="text_14">
      <!-- 0.150 -->
      <g style="fill:#262626;" transform="translate(391.091151 158.273085)scale(0.1 -0.1)">
       <use xlink:href="#ArialMT-48"/>
       <use x="55.615234" xlink:href="#ArialMT-46"/>
       <use x="83.398438" xlink:href="#ArialMT-49"/>
       <use x="139.013672" xlink:href="#ArialMT-53"/>
       <use x="194.628906" xlink:href="#ArialMT-48"/>
      </g>
     </g>
    </g>
    <g id="ytick_7">
     <g id="line2d_15">
      <path clip-path="url(#pb74adbdeac)" d="M 416.290472 199.98 
L 416.216707 195.754003 
L 415.995502 191.533156 
L 415.627126 187.322599 
L 415.112028 183.127463 
L 414.450836 178.95286 
L 413.644355 174.803875 
L 412.693568 170.685563 
L 411.599633 166.602942 
L 410.363883 162.560986 
L 408.987823 158.564619 
L 407.473131 154.618711 
L 405.821651 150.728068 
L 404.035396 146.897431 
L 402.116541 143.131467 
L 400.067425 139.434764 
L 397.890545 135.811826 
L 395.588551 132.267067 
L 393.16425 128.804806 
L 390.620594 125.429261 
L 387.960684 122.144545 
L 385.187758 118.954659 
L 382.305196 115.86349 
L 379.31651 112.874804 
L 376.225341 109.992242 
L 373.035455 107.219316 
L 369.750739 104.559406 
L 366.375194 102.01575 
L 362.912933 99.591449 
L 359.368174 97.289455 
L 355.745236 95.112575 
L 352.048533 93.063459 
L 348.282569 91.144604 
L 344.451932 89.358349 
L 340.561289 87.706869 
L 336.615381 86.192177 
L 332.619014 84.816117 
L 328.577058 83.580367 
L 324.494437 82.486432 
L 320.376125 81.535645 
L 316.22714 80.729164 
L 312.052537 80.067972 
L 307.857401 79.552874 
L 303.646844 79.184498 
L 299.425997 78.963293 
L 295.2 78.889528 
L 290.974003 78.963293 
L 286.753156 79.184498 
L 282.542599 79.552874 
L 278.347463 80.067972 
L 274.17286 80.729164 
L 270.023875 81.535645 
L 265.905563 82.486432 
L 261.822942 83.580367 
L 257.780986 84.816117 
L 253.784619 86.192177 
L 249.838711 87.706869 
L 245.948068 89.358349 
L 242.117431 91.144604 
L 238.351467 93.063459 
L 234.654764 95.112575 
L 231.031826 97.289455 
L 227.487067 99.591449 
L 224.024806 102.01575 
L 220.649261 104.559406 
L 217.364545 107.219316 
L 214.174659 109.992242 
L 211.08349 112.874804 
L 208.094804 115.86349 
L 205.212242 118.954659 
L 202.439316 122.144545 
L 199.779406 125.429261 
L 197.23575 128.804806 
L 194.811449 132.267067 
L 192.509455 135.811826 
L 190.332575 139.434764 
L 188.283459 143.131467 
L 186.364604 146.897431 
L 184.578349 150.728068 
L 182.926869 154.618711 
L 181.412177 158.564619 
L 180.036117 162.560986 
L 178.800367 166.602942 
L 177.706432 170.685563 
L 176.755645 174.803875 
L 175.949164 178.95286 
L 175.287972 183.127463 
L 174.772874 187.322599 
L 174.404498 191.533156 
L 174.183293 195.754003 
L 174.109528 199.98 
L 174.183293 204.205997 
L 174.404498 208.426844 
L 174.772874 212.637401 
L 175.287972 216.832537 
L 175.949164 221.00714 
L 176.755645 225.156125 
L 177.706432 229.274437 
L 178.800367 233.357058 
L 180.036117 237.399014 
L 181.412177 241.395381 
L 182.926869 245.341289 
L 184.578349 249.231932 
L 186.364604 253.062569 
L 188.283459 256.828533 
L 190.332575 260.525236 
L 192.509455 264.148174 
L 194.811449 267.692933 
L 197.23575 271.155194 
L 199.779406 274.530739 
L 202.439316 277.815455 
L 205.212242 281.005341 
L 208.094804 284.09651 
L 211.08349 287.085196 
L 214.174659 289.967758 
L 217.364545 292.740684 
L 220.649261 295.400594 
L 224.024806 297.94425 
L 227.487067 300.368551 
L 231.031826 302.670545 
L 234.654764 304.847425 
L 238.351467 306.896541 
L 242.117431 308.815396 
L 245.948068 310.601651 
L 249.838711 312.253131 
L 253.784619 313.767823 
L 257.780986 315.143883 
L 261.822942 316.379633 
L 265.905563 317.473568 
L 270.023875 318.424355 
L 274.17286 319.230836 
L 278.347463 319.892028 
L 282.542599 320.407126 
L 286.753156 320.775502 
L 290.974003 320.996707 
L 295.2 321.070472 
L 299.425997 320.996707 
L 303.646844 320.775502 
L 307.857401 320.407126 
L 312.052537 319.892028 
L 316.22714 319.230836 
L 320.376125 318.424355 
L 324.494437 317.473568 
L 328.577058 316.379633 
L 332.619014 315.143883 
L 336.615381 313.767823 
L 340.561289 312.253131 
L 344.451932 310.601651 
L 348.282569 308.815396 
L 352.048533 306.896541 
L 355.745236 304.847425 
L 359.368174 302.670545 
L 362.912933 300.368551 
L 366.375194 297.94425 
L 369.750739 295.400594 
L 373.035455 292.740684 
L 376.225341 289.967758 
L 379.31651 287.085196 
L 382.305196 284.09651 
L 385.187758 281.005341 
L 387.960684 277.815455 
L 390.620594 274.530739 
L 393.16425 271.155194 
L 395.588551 267.692933 
L 397.890545 264.148174 
L 400.067425 260.525236 
L 402.116541 256.828533 
L 404.035396 253.062569 
L 405.821651 249.231932 
L 407.473131 245.341289 
L 408.987823 241.395381 
L 410.363883 237.399014 
L 411.599633 233.357058 
L 412.693568 229.274437 
L 413.644355 225.156125 
L 414.450836 221.00714 
L 415.112028 216.832537 
L 415.627126 212.637401 
L 415.995502 208.426844 
L 416.216707 204.205997 
L 416.290472 199.98 
L 416.290472 199.98 
" style="fill:none;stroke:#ffffff;stroke-linecap:round;"/>
     </g>
     <g id="text_15">
      <!-- 0.175 -->
      <g style="fill:#262626;" transform="translate(407.073009 151.653182)scale(0.1 -0.1)">
       <use xlink:href="#ArialMT-48"/>
       <use x="55.615234" xlink:href="#ArialMT-46"/>
       <use x="83.398438" xlink:href="#ArialMT-49"/>
       <use x="139.013672" xlink:href="#ArialMT-55"/>
       <use x="194.628906" xlink:href="#ArialMT-53"/>
      </g>
     </g>
    </g>
    <g id="ytick_8">
     <g id="line2d_16">
      <path clip-path="url(#pb74adbdeac)" d="M 433.589111 199.98 
L 433.504809 195.15029 
L 433.252002 190.326464 
L 432.831001 185.514399 
L 432.242318 180.719958 
L 431.48667 175.948983 
L 430.564977 171.207286 
L 429.478363 166.500644 
L 428.228152 161.834791 
L 426.815866 157.215413 
L 425.243227 152.648136 
L 423.51215 148.138526 
L 421.624744 143.692077 
L 419.583309 139.314207 
L 417.390333 135.010248 
L 415.048486 130.785444 
L 412.560622 126.644944 
L 409.929773 122.593791 
L 407.159143 118.636921 
L 404.252108 114.779155 
L 401.21221 111.025194 
L 398.043152 107.37961 
L 394.748796 103.846845 
L 391.333155 100.431204 
L 387.80039 97.136848 
L 384.154806 93.96779 
L 380.400845 90.927892 
L 376.543079 88.020857 
L 372.586209 85.250227 
L 368.535056 82.619378 
L 364.394556 80.131514 
L 360.169752 77.789667 
L 355.865793 75.596691 
L 351.487923 73.555256 
L 347.041474 71.66785 
L 342.531864 69.936773 
L 337.964587 68.364134 
L 333.345209 66.951848 
L 328.679356 65.701637 
L 323.972714 64.615023 
L 319.231017 63.69333 
L 314.460042 62.937682 
L 309.665601 62.348999 
L 304.853536 61.927998 
L 300.02971 61.675191 
L 295.2 61.590889 
L 290.37029 61.675191 
L 285.546464 61.927998 
L 280.734399 62.348999 
L 275.939958 62.937682 
L 271.168983 63.69333 
L 266.427286 64.615023 
L 261.720644 65.701637 
L 257.054791 66.951848 
L 252.435413 68.364134 
L 247.868136 69.936773 
L 243.358526 71.66785 
L 238.912077 73.555256 
L 234.534207 75.596691 
L 230.230248 77.789667 
L 226.005444 80.131514 
L 221.864944 82.619378 
L 217.813791 85.250227 
L 213.856921 88.020857 
L 209.999155 90.927892 
L 206.245194 93.96779 
L 202.59961 97.136848 
L 199.066845 100.431204 
L 195.651204 103.846845 
L 192.356848 107.37961 
L 189.18779 111.025194 
L 186.147892 114.779155 
L 183.240857 118.636921 
L 180.470227 122.593791 
L 177.839378 126.644944 
L 175.351514 130.785444 
L 173.009667 135.010248 
L 170.816691 139.314207 
L 168.775256 143.692077 
L 166.88785 148.138526 
L 165.156773 152.648136 
L 163.584134 157.215413 
L 162.171848 161.834791 
L 160.921637 166.500644 
L 159.835023 171.207286 
L 158.91333 175.948983 
L 158.157682 180.719958 
L 157.568999 185.514399 
L 157.147998 190.326464 
L 156.895191 195.15029 
L 156.810889 199.98 
L 156.895191 204.80971 
L 157.147998 209.633536 
L 157.568999 214.445601 
L 158.157682 219.240042 
L 158.91333 224.011017 
L 159.835023 228.752714 
L 160.921637 233.459356 
L 162.171848 238.125209 
L 163.584134 242.744587 
L 165.156773 247.311864 
L 166.88785 251.821474 
L 168.775256 256.267923 
L 170.816691 260.645793 
L 173.009667 264.949752 
L 175.351514 269.174556 
L 177.839378 273.315056 
L 180.470227 277.366209 
L 183.240857 281.323079 
L 186.147892 285.180845 
L 189.18779 288.934806 
L 192.356848 292.58039 
L 195.651204 296.113155 
L 199.066845 299.528796 
L 202.59961 302.823152 
L 206.245194 305.99221 
L 209.999155 309.032108 
L 213.856921 311.939143 
L 217.813791 314.709773 
L 221.864944 317.340622 
L 226.005444 319.828486 
L 230.230248 322.170333 
L 234.534207 324.363309 
L 238.912077 326.404744 
L 243.358526 328.29215 
L 247.868136 330.023227 
L 252.435413 331.595866 
L 257.054791 333.008152 
L 261.720644 334.258363 
L 266.427286 335.344977 
L 271.168983 336.26667 
L 275.939958 337.022318 
L 280.734399 337.611001 
L 285.546464 338.032002 
L 290.37029 338.284809 
L 295.2 338.369111 
L 300.02971 338.284809 
L 304.853536 338.032002 
L 309.665601 337.611001 
L 314.460042 337.022318 
L 319.231017 336.26667 
L 323.972714 335.344977 
L 328.679356 334.258363 
L 333.345209 333.008152 
L 337.964587 331.595866 
L 342.531864 330.023227 
L 347.041474 328.29215 
L 351.487923 326.404744 
L 355.865793 324.363309 
L 360.169752 322.170333 
L 364.394556 319.828486 
L 368.535056 317.340622 
L 372.586209 314.709773 
L 376.543079 311.939143 
L 380.400845 309.032108 
L 384.154806 305.99221 
L 387.80039 302.823152 
L 391.333155 299.528796 
L 394.748796 296.113155 
L 398.043152 292.58039 
L 401.21221 288.934806 
L 404.252108 285.180845 
L 407.159143 281.323079 
L 409.929773 277.366209 
L 412.560622 273.315056 
L 415.048486 269.174556 
L 417.390333 264.949752 
L 419.583309 260.645793 
L 421.624744 256.267923 
L 423.51215 251.821474 
L 425.243227 247.311864 
L 426.815866 242.744587 
L 428.228152 238.125209 
L 429.478363 233.459356 
L 430.564977 228.752714 
L 431.48667 224.011017 
L 432.242318 219.240042 
L 432.831001 214.445601 
L 433.252002 209.633536 
L 433.504809 204.80971 
L 433.589111 199.98 
L 433.589111 199.98 
" style="fill:none;stroke:#ffffff;stroke-linecap:round;"/>
     </g>
     <g id="text_16">
      <!-- 0.200 -->
      <g style="fill:#262626;" transform="translate(423.054868 145.03328)scale(0.1 -0.1)">
       <use xlink:href="#ArialMT-48"/>
       <use x="55.615234" xlink:href="#ArialMT-46"/>
       <use x="83.398438" xlink:href="#ArialMT-50"/>
       <use x="139.013672" xlink:href="#ArialMT-48"/>
       <use x="194.628906" xlink:href="#ArialMT-48"/>
      </g>
     </g>
    </g>
   </g>
   <g id="PathCollection_1">
    <defs>
     <path d="M 0 3.5 
C 0.928211 3.5 1.81853 3.131218 2.474874 2.474874 
C 3.131218 1.81853 3.5 0.928211 3.5 0 
C 3.5 -0.928211 3.131218 -1.81853 2.474874 -2.474874 
C 1.81853 -3.131218 0.928211 -3.5 0 -3.5 
C -0.928211 -3.5 -1.81853 -3.131218 -2.474874 -2.474874 
C -3.131218 -1.81853 -3.5 -0.928211 -3.5 0 
C -3.5 0.928211 -3.131218 1.81853 -2.474874 2.474874 
C -1.81853 3.131218 -0.928211 3.5 0 3.5 
z
" id="mfe032575d8" style="stroke:#4c72b0;stroke-width:0.3;"/>
    </defs>
    <g clip-path="url(#pb74adbdeac)">
     <use style="fill:#4c72b0;stroke:#4c72b0;stroke-width:0.3;" x="280.285833" xlink:href="#mfe032575d8" y="209.645704"/>
     <use style="fill:#4c72b0;stroke:#4c72b0;stroke-width:0.3;" x="306.386136" xlink:href="#mfe032575d8" y="202.408388"/>
     <use style="fill:#4c72b0;stroke:#4c72b0;stroke-width:0.3;" x="250.354305" xlink:href="#mfe032575d8" y="201.53799"/>
     <use style="fill:#4c72b0;stroke:#4c72b0;stroke-width:0.3;" x="326.504998" xlink:href="#mfe032575d8" y="184.377924"/>
     <use style="fill:#4c72b0;stroke:#4c72b0;stroke-width:0.3;" x="199.404519" xlink:href="#mfe032575d8" y="199.308105"/>
     <use style="fill:#4c72b0;stroke:#4c72b0;stroke-width:0.3;" x="278.841266" xlink:href="#mfe032575d8" y="202.020255"/>
     <use style="fill:#4c72b0;stroke:#4c72b0;stroke-width:0.3;" x="273.331937" xlink:href="#mfe032575d8" y="204.617157"/>
     <use style="fill:#4c72b0;stroke:#4c72b0;stroke-width:0.3;" x="253.294344" xlink:href="#mfe032575d8" y="208.073331"/>
     <use style="fill:#4c72b0;stroke:#4c72b0;stroke-width:0.3;" x="370.349694" xlink:href="#mfe032575d8" y="199.567443"/>
     <use style="fill:#4c72b0;stroke:#4c72b0;stroke-width:0.3;" x="342.626036" xlink:href="#mfe032575d8" y="200.736905"/>
     <use style="fill:#4c72b0;stroke:#4c72b0;stroke-width:0.3;" x="331.993116" xlink:href="#mfe032575d8" y="202.541461"/>
     <use style="fill:#4c72b0;stroke:#4c72b0;stroke-width:0.3;" x="283.324935" xlink:href="#mfe032575d8" y="201.660057"/>
     <use style="fill:#4c72b0;stroke:#4c72b0;stroke-width:0.3;" x="268.012229" xlink:href="#mfe032575d8" y="202.906698"/>
     <use style="fill:#4c72b0;stroke:#4c72b0;stroke-width:0.3;" x="223.978367" xlink:href="#mfe032575d8" y="206.668003"/>
     <use style="fill:#4c72b0;stroke:#4c72b0;stroke-width:0.3;" x="166.158654" xlink:href="#mfe032575d8" y="218.173609"/>
     <use style="fill:#4c72b0;stroke:#4c72b0;stroke-width:0.3;" x="278.459292" xlink:href="#mfe032575d8" y="206.78526"/>
     <use style="fill:#4c72b0;stroke:#4c72b0;stroke-width:0.3;" x="328.224986" xlink:href="#mfe032575d8" y="193.608716"/>
     <use style="fill:#4c72b0;stroke:#4c72b0;stroke-width:0.3;" x="238.700773" xlink:href="#mfe032575d8" y="213.124966"/>
     <use style="fill:#4c72b0;stroke:#4c72b0;stroke-width:0.3;" x="285.466822" xlink:href="#mfe032575d8" y="219.563443"/>
     <use style="fill:#4c72b0;stroke:#4c72b0;stroke-width:0.3;" x="367.81755" xlink:href="#mfe032575d8" y="210.722417"/>
     <use style="fill:#4c72b0;stroke:#4c72b0;stroke-width:0.3;" x="213.007944" xlink:href="#mfe032575d8" y="212.100481"/>
     <use style="fill:#4c72b0;stroke:#4c72b0;stroke-width:0.3;" x="266.907061" xlink:href="#mfe032575d8" y="202.518148"/>
     <use style="fill:#4c72b0;stroke:#4c72b0;stroke-width:0.3;" x="295.270576" xlink:href="#mfe032575d8" y="201.987335"/>
     <use style="fill:#4c72b0;stroke:#4c72b0;stroke-width:0.3;" x="232.064094" xlink:href="#mfe032575d8" y="209.371962"/>
    </g>
   </g>
   <g id="PathCollection_2">
    <defs>
     <path d="M 0 3.5 
C 0.928211 3.5 1.81853 3.131218 2.474874 2.474874 
C 3.131218 1.81853 3.5 0.928211 3.5 0 
C 3.5 -0.928211 3.131218 -1.81853 2.474874 -2.474874 
C 1.81853 -3.131218 0.928211 -3.5 0 -3.5 
C -0.928211 -3.5 -1.81853 -3.131218 -2.474874 -2.474874 
C -3.131218 -1.81853 -3.5 -0.928211 -3.5 0 
C -3.5 0.928211 -3.131218 1.81853 -2.474874 2.474874 
C -1.81853 3.131218 -0.928211 3.5 0 3.5 
z
" id="m477f39d5e0" style="stroke:#55a868;stroke-width:0.3;"/>
    </defs>
    <g clip-path="url(#pb74adbdeac)">
     <use style="fill:#55a868;stroke:#55a868;stroke-width:0.3;" x="307.50541" xlink:href="#m477f39d5e0" y="217.044236"/>
     <use style="fill:#55a868;stroke:#55a868;stroke-width:0.3;" x="333.038356" xlink:href="#m477f39d5e0" y="214.633054"/>
     <use style="fill:#55a868;stroke:#55a868;stroke-width:0.3;" x="280.068124" xlink:href="#m477f39d5e0" y="225.551251"/>
     <use style="fill:#55a868;stroke:#55a868;stroke-width:0.3;" x="292.068192" xlink:href="#m477f39d5e0" y="221.822988"/>
     <use style="fill:#55a868;stroke:#55a868;stroke-width:0.3;" x="307.37063" xlink:href="#m477f39d5e0" y="201.577518"/>
     <use style="fill:#55a868;stroke:#55a868;stroke-width:0.3;" x="313.66028" xlink:href="#m477f39d5e0" y="193.694031"/>
     <use style="fill:#55a868;stroke:#55a868;stroke-width:0.3;" x="309.731107" xlink:href="#m477f39d5e0" y="198.603362"/>
     <use style="fill:#55a868;stroke:#55a868;stroke-width:0.3;" x="305.518567" xlink:href="#m477f39d5e0" y="198.556169"/>
     <use style="fill:#55a868;stroke:#55a868;stroke-width:0.3;" x="344.15708" xlink:href="#m477f39d5e0" y="192.472998"/>
     <use style="fill:#55a868;stroke:#55a868;stroke-width:0.3;" x="295.478542" xlink:href="#m477f39d5e0" y="200.33227"/>
     <use style="fill:#55a868;stroke:#55a868;stroke-width:0.3;" x="302.1462" xlink:href="#m477f39d5e0" y="193.418363"/>
     <use style="fill:#55a868;stroke:#55a868;stroke-width:0.3;" x="307.406394" xlink:href="#m477f39d5e0" y="195.349303"/>
     <use style="fill:#55a868;stroke:#55a868;stroke-width:0.3;" x="327.711916" xlink:href="#m477f39d5e0" y="199.192112"/>
     <use style="fill:#55a868;stroke:#55a868;stroke-width:0.3;" x="273.578001" xlink:href="#m477f39d5e0" y="212.701689"/>
     <use style="fill:#55a868;stroke:#55a868;stroke-width:0.3;" x="322.019432" xlink:href="#m477f39d5e0" y="209.375728"/>
     <use style="fill:#55a868;stroke:#55a868;stroke-width:0.3;" x="323.991256" xlink:href="#m477f39d5e0" y="211.505779"/>
     <use style="fill:#55a868;stroke:#55a868;stroke-width:0.3;" x="410.468574" xlink:href="#m477f39d5e0" y="202.918753"/>
     <use style="fill:#55a868;stroke:#55a868;stroke-width:0.3;" x="395.596857" xlink:href="#m477f39d5e0" y="211.507152"/>
     <use style="fill:#55a868;stroke:#55a868;stroke-width:0.3;" x="415.022483" xlink:href="#m477f39d5e0" y="210.226207"/>
     <use style="fill:#55a868;stroke:#55a868;stroke-width:0.3;" x="352.67797" xlink:href="#m477f39d5e0" y="205.551693"/>
     <use style="fill:#55a868;stroke:#55a868;stroke-width:0.3;" x="334.89784" xlink:href="#m477f39d5e0" y="191.584136"/>
     <use style="fill:#55a868;stroke:#55a868;stroke-width:0.3;" x="374.986264" xlink:href="#m477f39d5e0" y="178.903522"/>
     <use style="fill:#55a868;stroke:#55a868;stroke-width:0.3;" x="301.65269" xlink:href="#m477f39d5e0" y="180.438608"/>
     <use style="fill:#55a868;stroke:#55a868;stroke-width:0.3;" x="251.673994" xlink:href="#m477f39d5e0" y="194.272745"/>
    </g>
   </g>
   <g id="PathCollection_3">
    <defs>
     <path d="M 0 3.5 
C 0.928211 3.5 1.81853 3.131218 2.474874 2.474874 
C 3.131218 1.81853 3.5 0.928211 3.5 0 
C 3.5 -0.928211 3.131218 -1.81853 2.474874 -2.474874 
C 1.81853 -3.131218 0.928211 -3.5 0 -3.5 
C -0.928211 -3.5 -1.81853 -3.131218 -2.474874 -2.474874 
C -3.131218 -1.81853 -3.5 -0.928211 -3.5 0 
C -3.5 0.928211 -3.131218 1.81853 -2.474874 2.474874 
C -1.81853 3.131218 -0.928211 3.5 0 3.5 
z
" id="m34bad107e7" style="stroke:#c44e52;stroke-width:0.3;"/>
    </defs>
    <g clip-path="url(#pb74adbdeac)">
     <use style="fill:#c44e52;stroke:#c44e52;stroke-width:0.3;" x="274.366582" xlink:href="#m34bad107e7" y="216.938746"/>
     <use style="fill:#c44e52;stroke:#c44e52;stroke-width:0.3;" x="439.126388" xlink:href="#m34bad107e7" y="180.790552"/>
     <use style="fill:#c44e52;stroke:#c44e52;stroke-width:0.3;" x="329.551661" xlink:href="#m34bad107e7" y="181.921796"/>
     <use style="fill:#c44e52;stroke:#c44e52;stroke-width:0.3;" x="365.6343" xlink:href="#m34bad107e7" y="188.024169"/>
     <use style="fill:#c44e52;stroke:#c44e52;stroke-width:0.3;" x="376.892096" xlink:href="#m34bad107e7" y="191.509572"/>
     <use style="fill:#c44e52;stroke:#c44e52;stroke-width:0.3;" x="340.869815" xlink:href="#m34bad107e7" y="201.161123"/>
     <use style="fill:#c44e52;stroke:#c44e52;stroke-width:0.3;" x="349.299061" xlink:href="#m34bad107e7" y="194.074224"/>
     <use style="fill:#c44e52;stroke:#c44e52;stroke-width:0.3;" x="323.034194" xlink:href="#m34bad107e7" y="198.15963"/>
     <use style="fill:#c44e52;stroke:#c44e52;stroke-width:0.3;" x="298.72657" xlink:href="#m34bad107e7" y="199.455913"/>
     <use style="fill:#c44e52;stroke:#c44e52;stroke-width:0.3;" x="275.043224" xlink:href="#m34bad107e7" y="208.281574"/>
     <use style="fill:#c44e52;stroke:#c44e52;stroke-width:0.3;" x="313.680877" xlink:href="#m34bad107e7" y="203.753916"/>
     <use style="fill:#c44e52;stroke:#c44e52;stroke-width:0.3;" x="336.82586" xlink:href="#m34bad107e7" y="194.935152"/>
     <use style="fill:#c44e52;stroke:#c44e52;stroke-width:0.3;" x="294.786" xlink:href="#m34bad107e7" y="189.322145"/>
     <use style="fill:#c44e52;stroke:#c44e52;stroke-width:0.3;" x="248.928775" xlink:href="#m34bad107e7" y="188.993632"/>
     <use style="fill:#c44e52;stroke:#c44e52;stroke-width:0.3;" x="303.102461" xlink:href="#m34bad107e7" y="187.761042"/>
     <use style="fill:#c44e52;stroke:#c44e52;stroke-width:0.3;" x="319.635659" xlink:href="#m34bad107e7" y="188.992857"/>
     <use style="fill:#c44e52;stroke:#c44e52;stroke-width:0.3;" x="292.372642" xlink:href="#m34bad107e7" y="190.765705"/>
     <use style="fill:#c44e52;stroke:#c44e52;stroke-width:0.3;" x="314.850416" xlink:href="#m34bad107e7" y="194.09669"/>
     <use style="fill:#c44e52;stroke:#c44e52;stroke-width:0.3;" x="431.597491" xlink:href="#m34bad107e7" y="179.13999"/>
     <use style="fill:#c44e52;stroke:#c44e52;stroke-width:0.3;" x="277.504178" xlink:href="#m34bad107e7" y="183.944538"/>
     <use style="fill:#c44e52;stroke:#c44e52;stroke-width:0.3;" x="296.616525" xlink:href="#m34bad107e7" y="183.121107"/>
     <use style="fill:#c44e52;stroke:#c44e52;stroke-width:0.3;" x="259.464857" xlink:href="#m34bad107e7" y="193.097497"/>
     <use style="fill:#c44e52;stroke:#c44e52;stroke-width:0.3;" x="219.473591" xlink:href="#m34bad107e7" y="215.277238"/>
     <use style="fill:#c44e52;stroke:#c44e52;stroke-width:0.3;" x="290.632801" xlink:href="#m34bad107e7" y="212.36226"/>
    </g>
   </g>
   <g id="line2d_17">
    <path clip-path="url(#pb74adbdeac)" d="M 295.2 199.98 
L 440.251016 193.40408 
" style="fill:none;stroke:#ff0000;stroke-dasharray:7.4,3.2;stroke-dashoffset:0;stroke-width:2;"/>
   </g>
   <g id="patch_3">
    <path d="M 447.66 199.98 
C 447.66 179.959136 443.716326 160.13295 436.054674 141.636084 
C 428.393021 123.139218 417.162388 106.331389 403.0055 92.1745 
C 388.848611 78.017612 372.040782 66.786979 353.543916 59.125326 
C 335.04705 51.463674 315.220864 47.52 295.2 47.52 
C 275.179136 47.52 255.35295 51.463674 236.856084 59.125326 
C 218.359218 66.786979 201.551389 78.017612 187.3945 92.1745 
C 173.237612 106.331389 162.006979 123.139218 154.345326 141.636084 
C 146.683674 160.13295 142.74 179.959136 142.74 199.98 
C 142.74 220.000864 146.683674 239.82705 154.345326 258.323916 
C 162.006979 276.820782 173.237612 293.628611 187.3945 307.7855 
C 201.551389 321.942388 218.359218 333.173021 236.856084 340.834674 
C 255.35295 348.496326 275.179136 352.44 295.2 352.44 
C 315.220864 352.44 335.04705 348.496326 353.543916 340.834674 
C 372.040782 333.173021 388.848611 321.942388 403.0055 307.7855 
C 417.162388 293.628611 428.393021 276.820782 436.054674 258.323916 
C 443.716326 239.82705 447.66 220.000864 447.66 199.98 
" style="fill:none;"/>
   </g>
   <g id="text_17">
    <!-- Distribution of projected eye movement velocity on the screen - NewM1_5_13 -->
    <defs>
     <path d="M 7.71875 0 
L 7.71875 71.578125 
L 32.375 71.578125 
Q 40.71875 71.578125 45.125 70.5625 
Q 51.265625 69.140625 55.609375 65.4375 
Q 61.28125 60.640625 64.078125 53.1875 
Q 66.890625 45.75 66.890625 36.1875 
Q 66.890625 28.03125 64.984375 21.734375 
Q 63.09375 15.4375 60.109375 11.296875 
Q 57.125 7.171875 53.578125 4.796875 
Q 50.046875 2.4375 45.046875 1.21875 
Q 40.046875 0 33.546875 0 
z
M 17.1875 8.453125 
L 32.46875 8.453125 
Q 39.546875 8.453125 43.578125 9.765625 
Q 47.609375 11.078125 50 13.484375 
Q 53.375 16.84375 55.25 22.53125 
Q 57.125 28.21875 57.125 36.328125 
Q 57.125 47.5625 53.4375 53.59375 
Q 49.75 59.625 44.484375 61.671875 
Q 40.671875 63.140625 32.234375 63.140625 
L 17.1875 63.140625 
z
" id="ArialMT-68"/>
     <path d="M 6.640625 61.46875 
L 6.640625 71.578125 
L 15.4375 71.578125 
L 15.4375 61.46875 
z
M 6.640625 0 
L 6.640625 51.859375 
L 15.4375 51.859375 
L 15.4375 0 
z
" id="ArialMT-105"/>
     <path d="M 3.078125 15.484375 
L 11.765625 16.84375 
Q 12.5 11.625 15.84375 8.84375 
Q 19.1875 6.0625 25.203125 6.0625 
Q 31.25 6.0625 34.171875 8.515625 
Q 37.109375 10.984375 37.109375 14.3125 
Q 37.109375 17.28125 34.515625 19 
Q 32.71875 20.171875 25.53125 21.96875 
Q 15.875 24.421875 12.140625 26.203125 
Q 8.40625 27.984375 6.46875 31.125 
Q 4.546875 34.28125 4.546875 38.09375 
Q 4.546875 41.546875 6.125 44.5 
Q 7.71875 47.46875 10.453125 49.421875 
Q 12.5 50.921875 16.03125 51.96875 
Q 19.578125 53.03125 23.640625 53.03125 
Q 29.734375 53.03125 34.34375 51.265625 
Q 38.96875 49.515625 41.15625 46.5 
Q 43.359375 43.5 44.1875 38.484375 
L 35.59375 37.3125 
Q 35.015625 41.3125 32.203125 43.546875 
Q 29.390625 45.796875 24.265625 45.796875 
Q 18.21875 45.796875 15.625 43.796875 
Q 13.03125 41.796875 13.03125 39.109375 
Q 13.03125 37.40625 14.109375 36.03125 
Q 15.1875 34.625 17.484375 33.6875 
Q 18.796875 33.203125 25.25 31.453125 
Q 34.578125 28.953125 38.25 27.359375 
Q 41.9375 25.78125 44.03125 22.75 
Q 46.140625 19.734375 46.140625 15.234375 
Q 46.140625 10.84375 43.578125 6.953125 
Q 41.015625 3.078125 36.171875 0.953125 
Q 31.34375 -1.171875 25.25 -1.171875 
Q 15.140625 -1.171875 9.84375 3.03125 
Q 4.546875 7.234375 3.078125 15.484375 
z
" id="ArialMT-115"/>
     <path d="M 25.78125 7.859375 
L 27.046875 0.09375 
Q 23.34375 -0.6875 20.40625 -0.6875 
Q 15.625 -0.6875 12.984375 0.828125 
Q 10.359375 2.34375 9.28125 4.8125 
Q 8.203125 7.28125 8.203125 15.1875 
L 8.203125 45.015625 
L 1.765625 45.015625 
L 1.765625 51.859375 
L 8.203125 51.859375 
L 8.203125 64.703125 
L 16.9375 69.96875 
L 16.9375 51.859375 
L 25.78125 51.859375 
L 25.78125 45.015625 
L 16.9375 45.015625 
L 16.9375 14.703125 
Q 16.9375 10.9375 17.40625 9.859375 
Q 17.875 8.796875 18.921875 8.15625 
Q 19.96875 7.515625 21.921875 7.515625 
Q 23.390625 7.515625 25.78125 7.859375 
z
" id="ArialMT-116"/>
     <path d="M 6.5 0 
L 6.5 51.859375 
L 14.40625 51.859375 
L 14.40625 44 
Q 17.4375 49.515625 20 51.265625 
Q 22.5625 53.03125 25.640625 53.03125 
Q 30.078125 53.03125 34.671875 50.203125 
L 31.640625 42.046875 
Q 28.421875 43.953125 25.203125 43.953125 
Q 22.3125 43.953125 20.015625 42.21875 
Q 17.71875 40.484375 16.75 37.40625 
Q 15.28125 32.71875 15.28125 27.15625 
L 15.28125 0 
z
" id="ArialMT-114"/>
     <path d="M 14.703125 0 
L 6.546875 0 
L 6.546875 71.578125 
L 15.328125 71.578125 
L 15.328125 46.046875 
Q 20.90625 53.03125 29.546875 53.03125 
Q 34.328125 53.03125 38.59375 51.09375 
Q 42.875 49.171875 45.625 45.671875 
Q 48.390625 42.1875 49.953125 37.25 
Q 51.515625 32.328125 51.515625 26.703125 
Q 51.515625 13.375 44.921875 6.09375 
Q 38.328125 -1.171875 29.109375 -1.171875 
Q 19.921875 -1.171875 14.703125 6.5 
z
M 14.59375 26.3125 
Q 14.59375 17 17.140625 12.84375 
Q 21.296875 6.0625 28.375 6.0625 
Q 34.125 6.0625 38.328125 11.0625 
Q 42.53125 16.0625 42.53125 25.984375 
Q 42.53125 36.140625 38.5 40.96875 
Q 34.46875 45.796875 28.765625 45.796875 
Q 23 45.796875 18.796875 40.796875 
Q 14.59375 35.796875 14.59375 26.3125 
z
" id="ArialMT-98"/>
     <path d="M 40.578125 0 
L 40.578125 7.625 
Q 34.515625 -1.171875 24.125 -1.171875 
Q 19.53125 -1.171875 15.546875 0.578125 
Q 11.578125 2.34375 9.640625 5 
Q 7.71875 7.671875 6.9375 11.53125 
Q 6.390625 14.109375 6.390625 19.734375 
L 6.390625 51.859375 
L 15.1875 51.859375 
L 15.1875 23.09375 
Q 15.1875 16.21875 15.71875 13.8125 
Q 16.546875 10.359375 19.234375 8.375 
Q 21.921875 6.390625 25.875 6.390625 
Q 29.828125 6.390625 33.296875 8.421875 
Q 36.765625 10.453125 38.203125 13.9375 
Q 39.65625 17.4375 39.65625 24.078125 
L 39.65625 51.859375 
L 48.4375 51.859375 
L 48.4375 0 
z
" id="ArialMT-117"/>
     <path d="M 3.328125 25.921875 
Q 3.328125 40.328125 11.328125 47.265625 
Q 18.015625 53.03125 27.640625 53.03125 
Q 38.328125 53.03125 45.109375 46.015625 
Q 51.90625 39.015625 51.90625 26.65625 
Q 51.90625 16.65625 48.90625 10.90625 
Q 45.90625 5.171875 40.15625 2 
Q 34.421875 -1.171875 27.640625 -1.171875 
Q 16.75 -1.171875 10.03125 5.8125 
Q 3.328125 12.796875 3.328125 25.921875 
z
M 12.359375 25.921875 
Q 12.359375 15.96875 16.703125 11.015625 
Q 21.046875 6.0625 27.640625 6.0625 
Q 34.1875 6.0625 38.53125 11.03125 
Q 42.875 16.015625 42.875 26.21875 
Q 42.875 35.84375 38.5 40.796875 
Q 34.125 45.75 27.640625 45.75 
Q 21.046875 45.75 16.703125 40.8125 
Q 12.359375 35.890625 12.359375 25.921875 
z
" id="ArialMT-111"/>
     <path d="M 6.59375 0 
L 6.59375 51.859375 
L 14.5 51.859375 
L 14.5 44.484375 
Q 20.21875 53.03125 31 53.03125 
Q 35.6875 53.03125 39.625 51.34375 
Q 43.5625 49.65625 45.515625 46.921875 
Q 47.46875 44.1875 48.25 40.4375 
Q 48.734375 37.984375 48.734375 31.890625 
L 48.734375 0 
L 39.9375 0 
L 39.9375 31.546875 
Q 39.9375 36.921875 38.90625 39.578125 
Q 37.890625 42.234375 35.28125 43.8125 
Q 32.671875 45.40625 29.15625 45.40625 
Q 23.53125 45.40625 19.453125 41.84375 
Q 15.375 38.28125 15.375 28.328125 
L 15.375 0 
z
" id="ArialMT-110"/>
     <path id="ArialMT-32"/>
     <path d="M 8.6875 0 
L 8.6875 45.015625 
L 0.921875 45.015625 
L 0.921875 51.859375 
L 8.6875 51.859375 
L 8.6875 57.375 
Q 8.6875 62.59375 9.625 65.140625 
Q 10.890625 68.5625 14.078125 70.671875 
Q 17.28125 72.796875 23.046875 72.796875 
Q 26.765625 72.796875 31.25 71.921875 
L 29.9375 64.265625 
Q 27.203125 64.75 24.75 64.75 
Q 20.75 64.75 19.09375 63.03125 
Q 17.4375 61.328125 17.4375 56.640625 
L 17.4375 51.859375 
L 27.546875 51.859375 
L 27.546875 45.015625 
L 17.4375 45.015625 
L 17.4375 0 
z
" id="ArialMT-102"/>
     <path d="M 6.59375 -19.875 
L 6.59375 51.859375 
L 14.59375 51.859375 
L 14.59375 45.125 
Q 17.4375 49.078125 21 51.046875 
Q 24.5625 53.03125 29.640625 53.03125 
Q 36.28125 53.03125 41.359375 49.609375 
Q 46.4375 46.1875 49.015625 39.953125 
Q 51.609375 33.734375 51.609375 26.3125 
Q 51.609375 18.359375 48.75 11.984375 
Q 45.90625 5.609375 40.453125 2.21875 
Q 35.015625 -1.171875 29 -1.171875 
Q 24.609375 -1.171875 21.109375 0.6875 
Q 17.625 2.546875 15.375 5.375 
L 15.375 -19.875 
z
M 14.546875 25.640625 
Q 14.546875 15.625 18.59375 10.84375 
Q 22.65625 6.0625 28.421875 6.0625 
Q 34.28125 6.0625 38.453125 11.015625 
Q 42.625 15.96875 42.625 26.375 
Q 42.625 36.28125 38.546875 41.203125 
Q 34.46875 46.140625 28.8125 46.140625 
Q 23.1875 46.140625 18.859375 40.890625 
Q 14.546875 35.640625 14.546875 25.640625 
z
" id="ArialMT-112"/>
     <path d="M 6.546875 61.375 
L 6.546875 71.578125 
L 15.328125 71.578125 
L 15.328125 61.375 
z
M -4.59375 -20.125 
L -2.9375 -12.640625 
Q -0.296875 -13.328125 1.21875 -13.328125 
Q 3.90625 -13.328125 5.21875 -11.546875 
Q 6.546875 -9.765625 6.546875 -2.640625 
L 6.546875 51.859375 
L 15.328125 51.859375 
L 15.328125 -2.828125 
Q 15.328125 -12.40625 12.84375 -16.15625 
Q 9.671875 -21.046875 2.296875 -21.046875 
Q -1.265625 -21.046875 -4.59375 -20.125 
z
" id="ArialMT-106"/>
     <path d="M 42.09375 16.703125 
L 51.171875 15.578125 
Q 49.03125 7.625 43.21875 3.21875 
Q 37.40625 -1.171875 28.375 -1.171875 
Q 17 -1.171875 10.328125 5.828125 
Q 3.65625 12.84375 3.65625 25.484375 
Q 3.65625 38.578125 10.390625 45.796875 
Q 17.140625 53.03125 27.875 53.03125 
Q 38.28125 53.03125 44.875 45.953125 
Q 51.46875 38.875 51.46875 26.03125 
Q 51.46875 25.25 51.421875 23.6875 
L 12.75 23.6875 
Q 13.234375 15.140625 17.578125 10.59375 
Q 21.921875 6.0625 28.421875 6.0625 
Q 33.25 6.0625 36.671875 8.59375 
Q 40.09375 11.140625 42.09375 16.703125 
z
M 13.234375 30.90625 
L 42.1875 30.90625 
Q 41.609375 37.453125 38.875 40.71875 
Q 34.671875 45.796875 27.984375 45.796875 
Q 21.921875 45.796875 17.796875 41.75 
Q 13.671875 37.703125 13.234375 30.90625 
z
" id="ArialMT-101"/>
     <path d="M 40.4375 19 
L 49.078125 17.875 
Q 47.65625 8.9375 41.8125 3.875 
Q 35.984375 -1.171875 27.484375 -1.171875 
Q 16.84375 -1.171875 10.375 5.78125 
Q 3.90625 12.75 3.90625 25.734375 
Q 3.90625 34.125 6.6875 40.421875 
Q 9.46875 46.734375 15.15625 49.875 
Q 20.84375 53.03125 27.546875 53.03125 
Q 35.984375 53.03125 41.359375 48.75 
Q 46.734375 44.484375 48.25 36.625 
L 39.703125 35.296875 
Q 38.484375 40.53125 35.375 43.15625 
Q 32.28125 45.796875 27.875 45.796875 
Q 21.234375 45.796875 17.078125 41.03125 
Q 12.9375 36.28125 12.9375 25.984375 
Q 12.9375 15.53125 16.9375 10.796875 
Q 20.953125 6.0625 27.390625 6.0625 
Q 32.5625 6.0625 36.03125 9.234375 
Q 39.5 12.40625 40.4375 19 
z
" id="ArialMT-99"/>
     <path d="M 40.234375 0 
L 40.234375 6.546875 
Q 35.296875 -1.171875 25.734375 -1.171875 
Q 19.53125 -1.171875 14.328125 2.25 
Q 9.125 5.671875 6.265625 11.796875 
Q 3.421875 17.921875 3.421875 25.875 
Q 3.421875 33.640625 6 39.96875 
Q 8.59375 46.296875 13.765625 49.65625 
Q 18.953125 53.03125 25.34375 53.03125 
Q 30.03125 53.03125 33.6875 51.046875 
Q 37.359375 49.078125 39.65625 45.90625 
L 39.65625 71.578125 
L 48.390625 71.578125 
L 48.390625 0 
z
M 12.453125 25.875 
Q 12.453125 15.921875 16.640625 10.984375 
Q 20.84375 6.0625 26.5625 6.0625 
Q 32.328125 6.0625 36.34375 10.765625 
Q 40.375 15.484375 40.375 25.140625 
Q 40.375 35.796875 36.265625 40.765625 
Q 32.171875 45.75 26.171875 45.75 
Q 20.3125 45.75 16.375 40.96875 
Q 12.453125 36.1875 12.453125 25.875 
z
" id="ArialMT-100"/>
     <path d="M 6.203125 -19.96875 
L 5.21875 -11.71875 
Q 8.109375 -12.5 10.25 -12.5 
Q 13.1875 -12.5 14.9375 -11.515625 
Q 16.703125 -10.546875 17.828125 -8.796875 
Q 18.65625 -7.46875 20.515625 -2.25 
Q 20.75 -1.515625 21.296875 -0.09375 
L 1.609375 51.859375 
L 11.078125 51.859375 
L 21.875 21.828125 
Q 23.96875 16.109375 25.640625 9.8125 
Q 27.15625 15.875 29.25 21.625 
L 40.328125 51.859375 
L 49.125 51.859375 
L 29.390625 -0.875 
Q 26.21875 -9.421875 24.46875 -12.640625 
Q 22.125 -17 19.09375 -19.015625 
Q 16.0625 -21.046875 11.859375 -21.046875 
Q 9.328125 -21.046875 6.203125 -19.96875 
z
" id="ArialMT-121"/>
     <path d="M 6.59375 0 
L 6.59375 51.859375 
L 14.453125 51.859375 
L 14.453125 44.578125 
Q 16.890625 48.390625 20.9375 50.703125 
Q 25 53.03125 30.171875 53.03125 
Q 35.9375 53.03125 39.625 50.640625 
Q 43.3125 48.25 44.828125 43.953125 
Q 50.984375 53.03125 60.84375 53.03125 
Q 68.5625 53.03125 72.703125 48.75 
Q 76.859375 44.484375 76.859375 35.59375 
L 76.859375 0 
L 68.109375 0 
L 68.109375 32.671875 
Q 68.109375 37.9375 67.25 40.25 
Q 66.40625 42.578125 64.15625 43.984375 
Q 61.921875 45.40625 58.890625 45.40625 
Q 53.421875 45.40625 49.796875 41.765625 
Q 46.1875 38.140625 46.1875 30.125 
L 46.1875 0 
L 37.40625 0 
L 37.40625 33.6875 
Q 37.40625 39.546875 35.25 42.46875 
Q 33.109375 45.40625 28.21875 45.40625 
Q 24.515625 45.40625 21.359375 43.453125 
Q 18.21875 41.5 16.796875 37.734375 
Q 15.375 33.984375 15.375 26.90625 
L 15.375 0 
z
" id="ArialMT-109"/>
     <path d="M 21 0 
L 1.265625 51.859375 
L 10.546875 51.859375 
L 21.6875 20.796875 
Q 23.484375 15.765625 25 10.359375 
Q 26.171875 14.453125 28.265625 20.21875 
L 39.796875 51.859375 
L 48.828125 51.859375 
L 29.203125 0 
z
" id="ArialMT-118"/>
     <path d="M 6.390625 0 
L 6.390625 71.578125 
L 15.1875 71.578125 
L 15.1875 0 
z
" id="ArialMT-108"/>
     <path d="M 6.59375 0 
L 6.59375 71.578125 
L 15.375 71.578125 
L 15.375 45.90625 
Q 21.53125 53.03125 30.90625 53.03125 
Q 36.671875 53.03125 40.921875 50.75 
Q 45.171875 48.484375 47 44.484375 
Q 48.828125 40.484375 48.828125 32.859375 
L 48.828125 0 
L 40.046875 0 
L 40.046875 32.859375 
Q 40.046875 39.453125 37.1875 42.453125 
Q 34.328125 45.453125 29.109375 45.453125 
Q 25.203125 45.453125 21.75 43.421875 
Q 18.3125 41.40625 16.84375 37.9375 
Q 15.375 34.46875 15.375 28.375 
L 15.375 0 
z
" id="ArialMT-104"/>
     <path d="M 3.171875 21.484375 
L 3.171875 30.328125 
L 30.171875 30.328125 
L 30.171875 21.484375 
z
" id="ArialMT-45"/>
     <path d="M 7.625 0 
L 7.625 71.578125 
L 17.328125 71.578125 
L 54.9375 15.375 
L 54.9375 71.578125 
L 64.015625 71.578125 
L 64.015625 0 
L 54.296875 0 
L 16.703125 56.25 
L 16.703125 0 
z
" id="ArialMT-78"/>
     <path d="M 16.15625 0 
L 0.296875 51.859375 
L 9.375 51.859375 
L 17.625 21.921875 
L 20.703125 10.796875 
Q 20.90625 11.625 23.390625 21.484375 
L 31.640625 51.859375 
L 40.671875 51.859375 
L 48.4375 21.78125 
L 51.03125 11.859375 
L 54 21.875 
L 62.890625 51.859375 
L 71.4375 51.859375 
L 55.21875 0 
L 46.09375 0 
L 37.84375 31.0625 
L 35.84375 39.890625 
L 25.34375 0 
z
" id="ArialMT-119"/>
     <path d="M 7.421875 0 
L 7.421875 71.578125 
L 21.6875 71.578125 
L 38.625 20.90625 
Q 40.96875 13.8125 42.046875 10.296875 
Q 43.265625 14.203125 45.84375 21.78125 
L 62.984375 71.578125 
L 75.734375 71.578125 
L 75.734375 0 
L 66.609375 0 
L 66.609375 59.90625 
L 45.796875 0 
L 37.25 0 
L 16.546875 60.9375 
L 16.546875 0 
z
" id="ArialMT-77"/>
     <path d="M -1.515625 -19.875 
L -1.515625 -13.53125 
L 56.734375 -13.53125 
L 56.734375 -19.875 
z
" id="ArialMT-95"/>
    </defs>
    <g style="fill:#262626;" transform="translate(89.110313 23.748375)scale(0.12 -0.12)">
     <use xlink:href="#ArialMT-68"/>
     <use x="72.216797" xlink:href="#ArialMT-105"/>
     <use x="94.433594" xlink:href="#ArialMT-115"/>
     <use x="144.433594" xlink:href="#ArialMT-116"/>
     <use x="172.216797" xlink:href="#ArialMT-114"/>
     <use x="205.517578" xlink:href="#ArialMT-105"/>
     <use x="227.734375" xlink:href="#ArialMT-98"/>
     <use x="283.349609" xlink:href="#ArialMT-117"/>
     <use x="338.964844" xlink:href="#ArialMT-116"/>
     <use x="366.748047" xlink:href="#ArialMT-105"/>
     <use x="388.964844" xlink:href="#ArialMT-111"/>
     <use x="444.580078" xlink:href="#ArialMT-110"/>
     <use x="500.195312" xlink:href="#ArialMT-32"/>
     <use x="527.978516" xlink:href="#ArialMT-111"/>
     <use x="583.59375" xlink:href="#ArialMT-102"/>
     <use x="611.376953" xlink:href="#ArialMT-32"/>
     <use x="639.160156" xlink:href="#ArialMT-112"/>
     <use x="694.775391" xlink:href="#ArialMT-114"/>
     <use x="728.076172" xlink:href="#ArialMT-111"/>
     <use x="783.691406" xlink:href="#ArialMT-106"/>
     <use x="805.908203" xlink:href="#ArialMT-101"/>
     <use x="861.523438" xlink:href="#ArialMT-99"/>
     <use x="911.523438" xlink:href="#ArialMT-116"/>
     <use x="939.306641" xlink:href="#ArialMT-101"/>
     <use x="994.921875" xlink:href="#ArialMT-100"/>
     <use x="1050.537109" xlink:href="#ArialMT-32"/>
     <use x="1078.320312" xlink:href="#ArialMT-101"/>
     <use x="1133.935547" xlink:href="#ArialMT-121"/>
     <use x="1183.935547" xlink:href="#ArialMT-101"/>
     <use x="1239.550781" xlink:href="#ArialMT-32"/>
     <use x="1267.333984" xlink:href="#ArialMT-109"/>
     <use x="1350.634766" xlink:href="#ArialMT-111"/>
     <use x="1406.25" xlink:href="#ArialMT-118"/>
     <use x="1456.25" xlink:href="#ArialMT-101"/>
     <use x="1511.865234" xlink:href="#ArialMT-109"/>
     <use x="1595.166016" xlink:href="#ArialMT-101"/>
     <use x="1650.78125" xlink:href="#ArialMT-110"/>
     <use x="1706.396484" xlink:href="#ArialMT-116"/>
     <use x="1734.179688" xlink:href="#ArialMT-32"/>
     <use x="1761.962891" xlink:href="#ArialMT-118"/>
     <use x="1811.962891" xlink:href="#ArialMT-101"/>
     <use x="1867.578125" xlink:href="#ArialMT-108"/>
     <use x="1889.794922" xlink:href="#ArialMT-111"/>
     <use x="1945.410156" xlink:href="#ArialMT-99"/>
     <use x="1995.410156" xlink:href="#ArialMT-105"/>
     <use x="2017.626953" xlink:href="#ArialMT-116"/>
     <use x="2045.410156" xlink:href="#ArialMT-121"/>
     <use x="2095.410156" xlink:href="#ArialMT-32"/>
     <use x="2123.193359" xlink:href="#ArialMT-111"/>
     <use x="2178.808594" xlink:href="#ArialMT-110"/>
     <use x="2234.423828" xlink:href="#ArialMT-32"/>
     <use x="2262.207031" xlink:href="#ArialMT-116"/>
     <use x="2289.990234" xlink:href="#ArialMT-104"/>
     <use x="2345.605469" xlink:href="#ArialMT-101"/>
     <use x="2401.220703" xlink:href="#ArialMT-32"/>
     <use x="2429.003906" xlink:href="#ArialMT-115"/>
     <use x="2479.003906" xlink:href="#ArialMT-99"/>
     <use x="2529.003906" xlink:href="#ArialMT-114"/>
     <use x="2562.304688" xlink:href="#ArialMT-101"/>
     <use x="2617.919922" xlink:href="#ArialMT-101"/>
     <use x="2673.535156" xlink:href="#ArialMT-110"/>
     <use x="2729.150391" xlink:href="#ArialMT-32"/>
     <use x="2756.933594" xlink:href="#ArialMT-45"/>
     <use x="2790.234375" xlink:href="#ArialMT-32"/>
     <use x="2818.017578" xlink:href="#ArialMT-78"/>
     <use x="2890.234375" xlink:href="#ArialMT-101"/>
     <use x="2945.849609" xlink:href="#ArialMT-119"/>
     <use x="3018.066406" xlink:href="#ArialMT-77"/>
     <use x="3101.367188" xlink:href="#ArialMT-49"/>
     <use x="3156.982422" xlink:href="#ArialMT-95"/>
     <use x="3212.597656" xlink:href="#ArialMT-53"/>
     <use x="3268.212891" xlink:href="#ArialMT-95"/>
     <use x="3323.828125" xlink:href="#ArialMT-49"/>
     <use x="3379.443359" xlink:href="#ArialMT-51"/>
    </g>
   </g>
   <g id="legend_1">
    <g id="line2d_18">
     <path d="M 203.93125 60.2075 
L 223.93125 60.2075 
" style="fill:none;stroke:#ff0000;stroke-dasharray:7.4,3.2;stroke-dashoffset:0;stroke-width:2;"/>
    </g>
    <g id="line2d_19"/>
    <g id="text_18">
     <!-- Average angle in light: 2.6 degrees -->
     <defs>
      <path d="M -0.140625 0 
L 27.34375 71.578125 
L 37.546875 71.578125 
L 66.84375 0 
L 56.0625 0 
L 47.703125 21.6875 
L 17.78125 21.6875 
L 9.90625 0 
z
M 20.515625 29.390625 
L 44.78125 29.390625 
L 37.3125 49.21875 
Q 33.890625 58.25 32.234375 64.0625 
Q 30.859375 57.171875 28.375 50.390625 
z
" id="ArialMT-65"/>
      <path d="M 40.4375 6.390625 
Q 35.546875 2.25 31.03125 0.53125 
Q 26.515625 -1.171875 21.34375 -1.171875 
Q 12.796875 -1.171875 8.203125 3 
Q 3.609375 7.171875 3.609375 13.671875 
Q 3.609375 17.484375 5.34375 20.625 
Q 7.078125 23.78125 9.890625 25.6875 
Q 12.703125 27.59375 16.21875 28.5625 
Q 18.796875 29.25 24.03125 29.890625 
Q 34.671875 31.15625 39.703125 32.90625 
Q 39.75 34.71875 39.75 35.203125 
Q 39.75 40.578125 37.25 42.78125 
Q 33.890625 45.75 27.25 45.75 
Q 21.046875 45.75 18.09375 43.578125 
Q 15.140625 41.40625 13.71875 35.890625 
L 5.125 37.0625 
Q 6.296875 42.578125 8.984375 45.96875 
Q 11.671875 49.359375 16.75 51.1875 
Q 21.828125 53.03125 28.515625 53.03125 
Q 35.15625 53.03125 39.296875 51.46875 
Q 43.453125 49.90625 45.40625 47.53125 
Q 47.359375 45.171875 48.140625 41.546875 
Q 48.578125 39.3125 48.578125 33.453125 
L 48.578125 21.734375 
Q 48.578125 9.46875 49.140625 6.21875 
Q 49.703125 2.984375 51.375 0 
L 42.1875 0 
Q 40.828125 2.734375 40.4375 6.390625 
z
M 39.703125 26.03125 
Q 34.90625 24.078125 25.34375 22.703125 
Q 19.921875 21.921875 17.671875 20.9375 
Q 15.4375 19.96875 14.203125 18.09375 
Q 12.984375 16.21875 12.984375 13.921875 
Q 12.984375 10.40625 15.640625 8.0625 
Q 18.3125 5.71875 23.4375 5.71875 
Q 28.515625 5.71875 32.46875 7.9375 
Q 36.421875 10.15625 38.28125 14.015625 
Q 39.703125 17 39.703125 22.796875 
z
" id="ArialMT-97"/>
      <path d="M 4.984375 -4.296875 
L 13.53125 -5.5625 
Q 14.0625 -9.515625 16.5 -11.328125 
Q 19.78125 -13.765625 25.4375 -13.765625 
Q 31.546875 -13.765625 34.859375 -11.328125 
Q 38.1875 -8.890625 39.359375 -4.5 
Q 40.046875 -1.8125 39.984375 6.78125 
Q 34.234375 0 25.640625 0 
Q 14.9375 0 9.078125 7.71875 
Q 3.21875 15.4375 3.21875 26.21875 
Q 3.21875 33.640625 5.90625 39.90625 
Q 8.59375 46.1875 13.6875 49.609375 
Q 18.796875 53.03125 25.6875 53.03125 
Q 34.859375 53.03125 40.828125 45.609375 
L 40.828125 51.859375 
L 48.921875 51.859375 
L 48.921875 7.03125 
Q 48.921875 -5.078125 46.453125 -10.125 
Q 44 -15.1875 38.640625 -18.109375 
Q 33.296875 -21.046875 25.484375 -21.046875 
Q 16.21875 -21.046875 10.5 -16.875 
Q 4.78125 -12.703125 4.984375 -4.296875 
z
M 12.25 26.859375 
Q 12.25 16.65625 16.296875 11.96875 
Q 20.359375 7.28125 26.46875 7.28125 
Q 32.515625 7.28125 36.609375 11.9375 
Q 40.71875 16.609375 40.71875 26.5625 
Q 40.71875 36.078125 36.5 40.90625 
Q 32.28125 45.75 26.3125 45.75 
Q 20.453125 45.75 16.34375 40.984375 
Q 12.25 36.234375 12.25 26.859375 
z
" id="ArialMT-103"/>
      <path d="M 9.03125 41.84375 
L 9.03125 51.859375 
L 19.046875 51.859375 
L 19.046875 41.84375 
z
M 9.03125 0 
L 9.03125 10.015625 
L 19.046875 10.015625 
L 19.046875 0 
z
" id="ArialMT-58"/>
      <path d="M 49.75 54.046875 
L 41.015625 53.375 
Q 39.84375 58.546875 37.703125 60.890625 
Q 34.125 64.65625 28.90625 64.65625 
Q 24.703125 64.65625 21.53125 62.3125 
Q 17.390625 59.28125 14.984375 53.46875 
Q 12.59375 47.65625 12.5 36.921875 
Q 15.671875 41.75 20.265625 44.09375 
Q 24.859375 46.4375 29.890625 46.4375 
Q 38.671875 46.4375 44.84375 39.96875 
Q 51.03125 33.5 51.03125 23.25 
Q 51.03125 16.5 48.125 10.71875 
Q 45.21875 4.9375 40.140625 1.859375 
Q 35.0625 -1.21875 28.609375 -1.21875 
Q 17.625 -1.21875 10.6875 6.859375 
Q 3.765625 14.9375 3.765625 33.5 
Q 3.765625 54.25 11.421875 63.671875 
Q 18.109375 71.875 29.4375 71.875 
Q 37.890625 71.875 43.28125 67.140625 
Q 48.6875 62.40625 49.75 54.046875 
z
M 13.875 23.1875 
Q 13.875 18.65625 15.796875 14.5 
Q 17.71875 10.359375 21.1875 8.171875 
Q 24.65625 6 28.46875 6 
Q 34.03125 6 38.03125 10.484375 
Q 42.046875 14.984375 42.046875 22.703125 
Q 42.046875 30.125 38.078125 34.390625 
Q 34.125 38.671875 28.125 38.671875 
Q 22.171875 38.671875 18.015625 34.390625 
Q 13.875 30.125 13.875 23.1875 
z
" id="ArialMT-54"/>
     </defs>
     <g style="fill:#262626;" transform="translate(231.93125 63.7075)scale(0.1 -0.1)">
      <use xlink:href="#ArialMT-65"/>
      <use x="66.683594" xlink:href="#ArialMT-118"/>
      <use x="116.683594" xlink:href="#ArialMT-101"/>
      <use x="172.298828" xlink:href="#ArialMT-114"/>
      <use x="205.599609" xlink:href="#ArialMT-97"/>
      <use x="261.214844" xlink:href="#ArialMT-103"/>
      <use x="316.830078" xlink:href="#ArialMT-101"/>
      <use x="372.445312" xlink:href="#ArialMT-32"/>
      <use x="400.228516" xlink:href="#ArialMT-97"/>
      <use x="455.84375" xlink:href="#ArialMT-110"/>
      <use x="511.458984" xlink:href="#ArialMT-103"/>
      <use x="567.074219" xlink:href="#ArialMT-108"/>
      <use x="589.291016" xlink:href="#ArialMT-101"/>
      <use x="644.90625" xlink:href="#ArialMT-32"/>
      <use x="672.689453" xlink:href="#ArialMT-105"/>
      <use x="694.90625" xlink:href="#ArialMT-110"/>
      <use x="750.521484" xlink:href="#ArialMT-32"/>
      <use x="778.304688" xlink:href="#ArialMT-108"/>
      <use x="800.521484" xlink:href="#ArialMT-105"/>
      <use x="822.738281" xlink:href="#ArialMT-103"/>
      <use x="878.353516" xlink:href="#ArialMT-104"/>
      <use x="933.96875" xlink:href="#ArialMT-116"/>
      <use x="961.751953" xlink:href="#ArialMT-58"/>
      <use x="989.535156" xlink:href="#ArialMT-32"/>
      <use x="1017.318359" xlink:href="#ArialMT-50"/>
      <use x="1072.933594" xlink:href="#ArialMT-46"/>
      <use x="1100.716797" xlink:href="#ArialMT-54"/>
      <use x="1156.332031" xlink:href="#ArialMT-32"/>
      <use x="1184.115234" xlink:href="#ArialMT-100"/>
      <use x="1239.730469" xlink:href="#ArialMT-101"/>
      <use x="1295.345703" xlink:href="#ArialMT-103"/>
      <use x="1350.960938" xlink:href="#ArialMT-114"/>
      <use x="1384.261719" xlink:href="#ArialMT-101"/>
      <use x="1439.876953" xlink:href="#ArialMT-101"/>
      <use x="1495.492188" xlink:href="#ArialMT-115"/>
     </g>
    </g>
    <g id="PathCollection_4">
     <g>
      <use style="fill:#4c72b0;stroke:#4c72b0;stroke-width:0.3;" x="213.93125" xlink:href="#mfe032575d8" y="75.345"/>
     </g>
    </g>
    <g id="text_19">
     <!-- $-0.5 &lt; t &lt; 0.$ -->
     <defs>
      <path d="M 10.59375 35.5 
L 73.1875 35.5 
L 73.1875 27.203125 
L 10.59375 27.203125 
z
" id="DejaVuSans-8722"/>
      <path d="M 31.78125 66.40625 
Q 24.171875 66.40625 20.328125 58.90625 
Q 16.5 51.421875 16.5 36.375 
Q 16.5 21.390625 20.328125 13.890625 
Q 24.171875 6.390625 31.78125 6.390625 
Q 39.453125 6.390625 43.28125 13.890625 
Q 47.125 21.390625 47.125 36.375 
Q 47.125 51.421875 43.28125 58.90625 
Q 39.453125 66.40625 31.78125 66.40625 
z
M 31.78125 74.21875 
Q 44.046875 74.21875 50.515625 64.515625 
Q 56.984375 54.828125 56.984375 36.375 
Q 56.984375 17.96875 50.515625 8.265625 
Q 44.046875 -1.421875 31.78125 -1.421875 
Q 19.53125 -1.421875 13.0625 8.265625 
Q 6.59375 17.96875 6.59375 36.375 
Q 6.59375 54.828125 13.0625 64.515625 
Q 19.53125 74.21875 31.78125 74.21875 
z
" id="DejaVuSans-48"/>
      <path d="M 10.6875 12.40625 
L 21 12.40625 
L 21 0 
L 10.6875 0 
z
" id="DejaVuSans-46"/>
      <path d="M 10.796875 72.90625 
L 49.515625 72.90625 
L 49.515625 64.59375 
L 19.828125 64.59375 
L 19.828125 46.734375 
Q 21.96875 47.46875 24.109375 47.828125 
Q 26.265625 48.1875 28.421875 48.1875 
Q 40.625 48.1875 47.75 41.5 
Q 54.890625 34.8125 54.890625 23.390625 
Q 54.890625 11.625 47.5625 5.09375 
Q 40.234375 -1.421875 26.90625 -1.421875 
Q 22.3125 -1.421875 17.546875 -0.640625 
Q 12.796875 0.140625 7.71875 1.703125 
L 7.71875 11.625 
Q 12.109375 9.234375 16.796875 8.0625 
Q 21.484375 6.890625 26.703125 6.890625 
Q 35.15625 6.890625 40.078125 11.328125 
Q 45.015625 15.765625 45.015625 23.390625 
Q 45.015625 31 40.078125 35.4375 
Q 35.15625 39.890625 26.703125 39.890625 
Q 22.75 39.890625 18.8125 39.015625 
Q 14.890625 38.140625 10.796875 36.28125 
z
" id="DejaVuSans-53"/>
      <path d="M 73.1875 49.21875 
L 22.796875 31.296875 
L 73.1875 13.484375 
L 73.1875 4.59375 
L 10.59375 27.296875 
L 10.59375 35.40625 
L 73.1875 58.109375 
z
" id="DejaVuSans-60"/>
      <path d="M 42.28125 54.6875 
L 40.921875 47.703125 
L 23 47.703125 
L 17.1875 18.015625 
Q 16.890625 16.359375 16.75 15.234375 
Q 16.609375 14.109375 16.609375 13.484375 
Q 16.609375 10.359375 18.484375 8.9375 
Q 20.359375 7.515625 24.515625 7.515625 
L 33.59375 7.515625 
L 32.078125 0 
L 23.484375 0 
Q 15.484375 0 11.546875 3.125 
Q 7.625 6.25 7.625 12.59375 
Q 7.625 13.71875 7.765625 15.0625 
Q 7.90625 16.40625 8.203125 18.015625 
L 14.015625 47.703125 
L 6.390625 47.703125 
L 7.8125 54.6875 
L 15.28125 54.6875 
L 18.3125 70.21875 
L 27.296875 70.21875 
L 24.3125 54.6875 
z
" id="DejaVuSans-Oblique-116"/>
     </defs>
     <g style="fill:#262626;" transform="translate(231.93125 77.97)scale(0.1 -0.1)">
      <use transform="translate(0 0.78125)" xlink:href="#DejaVuSans-8722"/>
      <use transform="translate(83.789062 0.78125)" xlink:href="#DejaVuSans-48"/>
      <use transform="translate(147.412109 0.78125)" xlink:href="#DejaVuSans-46"/>
      <use transform="translate(179.199219 0.78125)" xlink:href="#DejaVuSans-53"/>
      <use transform="translate(262.304688 0.78125)" xlink:href="#DejaVuSans-60"/>
      <use transform="translate(365.576172 0.78125)" xlink:href="#DejaVuSans-Oblique-116"/>
      <use transform="translate(424.267578 0.78125)" xlink:href="#DejaVuSans-60"/>
      <use transform="translate(527.539062 0.78125)" xlink:href="#DejaVuSans-48"/>
     </g>
    </g>
    <g id="PathCollection_5">
     <g>
      <use style="fill:#55a868;stroke:#55a868;stroke-width:0.3;" x="213.93125" xlink:href="#m477f39d5e0" y="89.490312"/>
     </g>
    </g>
    <g id="text_20">
     <!-- $0. &lt; t &lt; 0.5$ -->
     <g style="fill:#262626;" transform="translate(231.93125 92.115312)scale(0.1 -0.1)">
      <use transform="translate(0 0.78125)" xlink:href="#DejaVuSans-48"/>
      <use transform="translate(63.623047 0.78125)" xlink:href="#DejaVuSans-46"/>
      <use transform="translate(134.375 0.78125)" xlink:href="#DejaVuSans-60"/>
      <use transform="translate(237.646484 0.78125)" xlink:href="#DejaVuSans-Oblique-116"/>
      <use transform="translate(296.337891 0.78125)" xlink:href="#DejaVuSans-60"/>
      <use transform="translate(399.609375 0.78125)" xlink:href="#DejaVuSans-48"/>
      <use transform="translate(463.232422 0.78125)" xlink:href="#DejaVuSans-46"/>
      <use transform="translate(495.019531 0.78125)" xlink:href="#DejaVuSans-53"/>
     </g>
    </g>
    <g id="PathCollection_6">
     <g>
      <use style="fill:#c44e52;stroke:#c44e52;stroke-width:0.3;" x="213.93125" xlink:href="#m34bad107e7" y="103.635625"/>
     </g>
    </g>
    <g id="text_21">
     <!-- $0.5 &lt; t &lt; 1.$ -->
     <defs>
      <path d="M 12.40625 8.296875 
L 28.515625 8.296875 
L 28.515625 63.921875 
L 10.984375 60.40625 
L 10.984375 69.390625 
L 28.421875 72.90625 
L 38.28125 72.90625 
L 38.28125 8.296875 
L 54.390625 8.296875 
L 54.390625 0 
L 12.40625 0 
z
" id="DejaVuSans-49"/>
     </defs>
     <g style="fill:#262626;" transform="translate(231.93125 106.260625)scale(0.1 -0.1)">
      <use transform="translate(0 0.78125)" xlink:href="#DejaVuSans-48"/>
      <use transform="translate(63.623047 0.78125)" xlink:href="#DejaVuSans-46"/>
      <use transform="translate(95.410156 0.78125)" xlink:href="#DejaVuSans-53"/>
      <use transform="translate(178.515625 0.78125)" xlink:href="#DejaVuSans-60"/>
      <use transform="translate(281.787109 0.78125)" xlink:href="#DejaVuSans-Oblique-116"/>
      <use transform="translate(340.478516 0.78125)" xlink:href="#DejaVuSans-60"/>
      <use transform="translate(443.75 0.78125)" xlink:href="#DejaVuSans-49"/>
     </g>
    </g>
   </g>
  </g>
 </g>
 <defs>
  <clipPath id="pb74adbdeac">
   <path d="M 447.66 199.98 
C 447.66 179.959136 443.716326 160.13295 436.054674 141.636084 
C 428.393021 123.139218 417.162388 106.331389 403.0055 92.1745 
C 388.848611 78.017612 372.040782 66.786979 353.543916 59.125326 
C 335.04705 51.463674 315.220864 47.52 295.2 47.52 
C 275.179136 47.52 255.35295 51.463674 236.856084 59.125326 
C 218.359218 66.786979 201.551389 78.017612 187.3945 92.1745 
C 173.237612 106.331389 162.006979 123.139218 154.345326 141.636084 
C 146.683674 160.13295 142.74 179.959136 142.74 199.98 
C 142.74 220.000864 146.683674 239.82705 154.345326 258.323916 
C 162.006979 276.820782 173.237612 293.628611 187.3945 307.7855 
C 201.551389 321.942388 218.359218 333.173021 236.856084 340.834674 
C 255.35295 348.496326 275.179136 352.44 295.2 352.44 
C 315.220864 352.44 335.04705 348.496326 353.543916 340.834674 
C 372.040782 333.173021 388.848611 321.942388 403.0055 307.7855 
C 417.162388 293.628611 428.393021 276.820782 436.054674 258.323916 
C 443.716326 239.82705 447.66 220.000864 447.66 199.98 
M 295.2 199.98 
C 295.2 199.98 295.2 199.98 295.2 199.98 
C 295.2 199.98 295.2 199.98 295.2 199.98 
C 295.2 199.98 295.2 199.98 295.2 199.98 
C 295.2 199.98 295.2 199.98 295.2 199.98 
C 295.2 199.98 295.2 199.98 295.2 199.98 
C 295.2 199.98 295.2 199.98 295.2 199.98 
C 295.2 199.98 295.2 199.98 295.2 199.98 
C 295.2 199.98 295.2 199.98 295.2 199.98 
C 295.2 199.98 295.2 199.98 295.2 199.98 
C 295.2 199.98 295.2 199.98 295.2 199.98 
C 295.2 199.98 295.2 199.98 295.2 199.98 
C 295.2 199.98 295.2 199.98 295.2 199.98 
C 295.2 199.98 295.2 199.98 295.2 199.98 
C 295.2 199.98 295.2 199.98 295.2 199.98 
C 295.2 199.98 295.2 199.98 295.2 199.98 
C 295.2 199.98 295.2 199.98 295.2 199.98 
M 447.66 199.98 
z
"/>
  </clipPath>
 </defs>
</svg>
