<?xml version="1.0" encoding="utf-8" standalone="no"?>
<!DOCTYPE svg PUBLIC "-//W3C//DTD SVG 1.1//EN"
  "http://www.w3.org/Graphics/SVG/1.1/DTD/svg11.dtd">
<!-- Created with matplotlib (https://matplotlib.org/) -->
<svg height="396pt" version="1.1" viewBox="0 0 576 396" width="576pt" xmlns="http://www.w3.org/2000/svg" xmlns:xlink="http://www.w3.org/1999/xlink">
 <defs>
  <style type="text/css">
*{stroke-linecap:butt;stroke-linejoin:round;}
  </style>
 </defs>
 <g id="figure_1">
  <g id="patch_1">
   <path d="M 0 396 
L 576 396 
L 576 0 
L 0 0 
z
" style="fill:#ffffff;"/>
  </g>
  <g id="axes_1">
   <g id="patch_2">
    <path d="M 447.66 199.98 
C 447.66 179.959136 443.716326 160.13295 436.054674 141.636084 
C 428.393021 123.139218 417.162388 106.331389 403.0055 92.1745 
C 388.848611 78.017612 372.040782 66.786979 353.543916 59.125326 
C 335.04705 51.463674 315.220864 47.52 295.2 47.52 
C 275.179136 47.52 255.35295 51.463674 236.856084 59.125326 
C 218.359218 66.786979 201.551389 78.017612 187.3945 92.1745 
C 173.237612 106.331389 162.006979 123.139218 154.345326 141.636084 
C 146.683674 160.13295 142.74 179.959136 142.74 199.98 
C 142.74 220.000864 146.683674 239.82705 154.345326 258.323916 
C 162.006979 276.820782 173.237612 293.628611 187.3945 307.7855 
C 201.551389 321.942388 218.359218 333.173021 236.856084 340.834674 
C 255.35295 348.496326 275.179136 352.44 295.2 352.44 
C 315.220864 352.44 335.04705 348.496326 353.543916 340.834674 
C 372.040782 333.173021 388.848611 321.942388 403.0055 307.7855 
C 417.162388 293.628611 428.393021 276.820782 436.054674 258.323916 
C 443.716326 239.82705 447.66 220.000864 447.66 199.98 
M 295.2 199.98 
C 295.2 199.98 295.2 199.98 295.2 199.98 
C 295.2 199.98 295.2 199.98 295.2 199.98 
C 295.2 199.98 295.2 199.98 295.2 199.98 
C 295.2 199.98 295.2 199.98 295.2 199.98 
C 295.2 199.98 295.2 199.98 295.2 199.98 
C 295.2 199.98 295.2 199.98 295.2 199.98 
C 295.2 199.98 295.2 199.98 295.2 199.98 
C 295.2 199.98 295.2 199.98 295.2 199.98 
C 295.2 199.98 295.2 199.98 295.2 199.98 
C 295.2 199.98 295.2 199.98 295.2 199.98 
C 295.2 199.98 295.2 199.98 295.2 199.98 
C 295.2 199.98 295.2 199.98 295.2 199.98 
C 295.2 199.98 295.2 199.98 295.2 199.98 
C 295.2 199.98 295.2 199.98 295.2 199.98 
C 295.2 199.98 295.2 199.98 295.2 199.98 
C 295.2 199.98 295.2 199.98 295.2 199.98 
M 447.66 199.98 
z
" style="fill:#eaeaf2;"/>
   </g>
   <g id="matplotlib.axis_1">
    <g id="xtick_1">
     <g id="line2d_1">
      <path clip-path="url(#pe11f55b2a8)" d="M 295.2 199.98 
L 447.66 199.98 
" style="fill:none;stroke:#ffffff;stroke-linecap:round;"/>
     </g>
     <g id="text_1">
      <!-- 0° -->
      <defs>
       <path d="M 4.15625 35.296875 
Q 4.15625 48 6.765625 55.734375 
Q 9.375 63.484375 14.515625 67.671875 
Q 19.671875 71.875 27.484375 71.875 
Q 33.25 71.875 37.59375 69.546875 
Q 41.9375 67.234375 44.765625 62.859375 
Q 47.609375 58.5 49.21875 52.21875 
Q 50.828125 45.953125 50.828125 35.296875 
Q 50.828125 22.703125 48.234375 14.96875 
Q 45.65625 7.234375 40.5 3 
Q 35.359375 -1.21875 27.484375 -1.21875 
Q 17.140625 -1.21875 11.234375 6.203125 
Q 4.15625 15.140625 4.15625 35.296875 
z
M 13.1875 35.296875 
Q 13.1875 17.671875 17.3125 11.828125 
Q 21.4375 6 27.484375 6 
Q 33.546875 6 37.671875 11.859375 
Q 41.796875 17.71875 41.796875 35.296875 
Q 41.796875 52.984375 37.671875 58.78125 
Q 33.546875 64.59375 27.390625 64.59375 
Q 21.34375 64.59375 17.71875 59.46875 
Q 13.1875 52.9375 13.1875 35.296875 
z
" id="ArialMT-48"/>
       <path d="M 6.25 59.28125 
Q 6.25 64.890625 10.21875 68.84375 
Q 14.203125 72.796875 19.78125 72.796875 
Q 25.4375 72.796875 29.390625 68.84375 
Q 33.34375 64.890625 33.34375 59.28125 
Q 33.34375 53.65625 29.359375 49.671875 
Q 25.390625 45.703125 19.78125 45.703125 
Q 14.203125 45.703125 10.21875 49.65625 
Q 6.25 53.609375 6.25 59.28125 
z
M 11.578125 59.28125 
Q 11.578125 55.859375 13.984375 53.4375 
Q 16.40625 51.03125 19.828125 51.03125 
Q 23.1875 51.03125 25.609375 53.4375 
Q 28.03125 55.859375 28.03125 59.28125 
Q 28.03125 62.703125 25.609375 65.109375 
Q 23.1875 67.53125 19.828125 67.53125 
Q 16.40625 67.53125 13.984375 65.109375 
Q 11.578125 62.703125 11.578125 59.28125 
z
" id="ArialMT-176"/>
      </defs>
      <g style="fill:#262626;" transform="translate(456.880313 202.565156)scale(0.1 -0.1)">
       <use xlink:href="#ArialMT-48"/>
       <use x="55.615234" xlink:href="#ArialMT-176"/>
      </g>
     </g>
    </g>
    <g id="xtick_2">
     <g id="line2d_2">
      <path clip-path="url(#pe11f55b2a8)" d="M 295.2 199.98 
L 403.0055 92.1745 
" style="fill:none;stroke:#ffffff;stroke-linecap:round;"/>
     </g>
     <g id="text_2">
      <!-- 45° -->
      <defs>
       <path d="M 32.328125 0 
L 32.328125 17.140625 
L 1.265625 17.140625 
L 1.265625 25.203125 
L 33.9375 71.578125 
L 41.109375 71.578125 
L 41.109375 25.203125 
L 50.78125 25.203125 
L 50.78125 17.140625 
L 41.109375 17.140625 
L 41.109375 0 
z
M 32.328125 25.203125 
L 32.328125 57.46875 
L 9.90625 25.203125 
z
" id="ArialMT-52"/>
       <path d="M 4.15625 18.75 
L 13.375 19.53125 
Q 14.40625 12.796875 18.140625 9.390625 
Q 21.875 6 27.15625 6 
Q 33.5 6 37.890625 10.78125 
Q 42.28125 15.578125 42.28125 23.484375 
Q 42.28125 31 38.0625 35.34375 
Q 33.84375 39.703125 27 39.703125 
Q 22.75 39.703125 19.328125 37.765625 
Q 15.921875 35.84375 13.96875 32.765625 
L 5.71875 33.84375 
L 12.640625 70.609375 
L 48.25 70.609375 
L 48.25 62.203125 
L 19.671875 62.203125 
L 15.828125 42.96875 
Q 22.265625 47.46875 29.34375 47.46875 
Q 38.71875 47.46875 45.15625 40.96875 
Q 51.609375 34.46875 51.609375 24.265625 
Q 51.609375 14.546875 45.953125 7.46875 
Q 39.0625 -1.21875 27.15625 -1.21875 
Q 17.390625 -1.21875 11.203125 4.25 
Q 5.03125 9.71875 4.15625 18.75 
z
" id="ArialMT-53"/>
      </defs>
      <g style="fill:#262626;" transform="translate(405.344839 84.860161)scale(0.1 -0.1)">
       <use xlink:href="#ArialMT-52"/>
       <use x="55.615234" xlink:href="#ArialMT-53"/>
       <use x="111.230469" xlink:href="#ArialMT-176"/>
      </g>
     </g>
    </g>
    <g id="xtick_3">
     <g id="line2d_3">
      <path clip-path="url(#pe11f55b2a8)" d="M 295.2 199.98 
L 295.2 47.52 
" style="fill:none;stroke:#ffffff;stroke-linecap:round;"/>
     </g>
     <g id="text_3">
      <!-- 90° -->
      <defs>
       <path d="M 5.46875 16.546875 
L 13.921875 17.328125 
Q 14.984375 11.375 18.015625 8.6875 
Q 21.046875 6 25.78125 6 
Q 29.828125 6 32.875 7.859375 
Q 35.9375 9.71875 37.890625 12.8125 
Q 39.84375 15.921875 41.15625 21.1875 
Q 42.484375 26.46875 42.484375 31.9375 
Q 42.484375 32.515625 42.4375 33.6875 
Q 39.796875 29.5 35.234375 26.875 
Q 30.671875 24.265625 25.34375 24.265625 
Q 16.453125 24.265625 10.296875 30.703125 
Q 4.15625 37.15625 4.15625 47.703125 
Q 4.15625 58.59375 10.578125 65.234375 
Q 17 71.875 26.65625 71.875 
Q 33.640625 71.875 39.421875 68.109375 
Q 45.21875 64.359375 48.21875 57.390625 
Q 51.21875 50.4375 51.21875 37.25 
Q 51.21875 23.53125 48.234375 15.40625 
Q 45.265625 7.28125 39.375 3.03125 
Q 33.5 -1.21875 25.59375 -1.21875 
Q 17.1875 -1.21875 11.859375 3.4375 
Q 6.546875 8.109375 5.46875 16.546875 
z
M 41.453125 48.140625 
Q 41.453125 55.71875 37.421875 60.15625 
Q 33.40625 64.59375 27.734375 64.59375 
Q 21.875 64.59375 17.53125 59.8125 
Q 13.1875 55.03125 13.1875 47.40625 
Q 13.1875 40.578125 17.3125 36.296875 
Q 21.4375 32.03125 27.484375 32.03125 
Q 33.59375 32.03125 37.515625 36.296875 
Q 41.453125 40.578125 41.453125 48.140625 
z
" id="ArialMT-57"/>
      </defs>
      <g style="fill:#262626;" transform="translate(287.639844 36.105156)scale(0.1 -0.1)">
       <use xlink:href="#ArialMT-57"/>
       <use x="55.615234" xlink:href="#ArialMT-48"/>
       <use x="111.230469" xlink:href="#ArialMT-176"/>
      </g>
     </g>
    </g>
    <g id="xtick_4">
     <g id="line2d_4">
      <path clip-path="url(#pe11f55b2a8)" d="M 295.2 199.98 
L 187.3945 92.1745 
" style="fill:none;stroke:#ffffff;stroke-linecap:round;"/>
     </g>
     <g id="text_4">
      <!-- 135° -->
      <defs>
       <path d="M 37.25 0 
L 28.46875 0 
L 28.46875 56 
Q 25.296875 52.984375 20.140625 49.953125 
Q 14.984375 46.921875 10.890625 45.40625 
L 10.890625 53.90625 
Q 18.265625 57.375 23.78125 62.296875 
Q 29.296875 67.234375 31.59375 71.875 
L 37.25 71.875 
z
" id="ArialMT-49"/>
       <path d="M 4.203125 18.890625 
L 12.984375 20.0625 
Q 14.5 12.59375 18.140625 9.296875 
Q 21.78125 6 27 6 
Q 33.203125 6 37.46875 10.296875 
Q 41.75 14.59375 41.75 20.953125 
Q 41.75 27 37.796875 30.921875 
Q 33.84375 34.859375 27.734375 34.859375 
Q 25.25 34.859375 21.53125 33.890625 
L 22.515625 41.609375 
Q 23.390625 41.5 23.921875 41.5 
Q 29.546875 41.5 34.03125 44.421875 
Q 38.53125 47.359375 38.53125 53.46875 
Q 38.53125 58.296875 35.25 61.46875 
Q 31.984375 64.65625 26.8125 64.65625 
Q 21.6875 64.65625 18.265625 61.421875 
Q 14.84375 58.203125 13.875 51.765625 
L 5.078125 53.328125 
Q 6.6875 62.15625 12.390625 67.015625 
Q 18.109375 71.875 26.609375 71.875 
Q 32.46875 71.875 37.390625 69.359375 
Q 42.328125 66.84375 44.9375 62.5 
Q 47.5625 58.15625 47.5625 53.265625 
Q 47.5625 48.640625 45.0625 44.828125 
Q 42.578125 41.015625 37.703125 38.765625 
Q 44.046875 37.3125 47.5625 32.6875 
Q 51.078125 28.078125 51.078125 21.140625 
Q 51.078125 11.765625 44.234375 5.25 
Q 37.40625 -1.265625 26.953125 -1.265625 
Q 17.53125 -1.265625 11.296875 4.34375 
Q 5.078125 9.96875 4.203125 18.890625 
z
" id="ArialMT-51"/>
      </defs>
      <g style="fill:#262626;" transform="translate(167.15438 84.860161)scale(0.1 -0.1)">
       <use xlink:href="#ArialMT-49"/>
       <use x="55.615234" xlink:href="#ArialMT-51"/>
       <use x="111.230469" xlink:href="#ArialMT-53"/>
       <use x="166.845703" xlink:href="#ArialMT-176"/>
      </g>
     </g>
    </g>
    <g id="xtick_5">
     <g id="line2d_5">
      <path clip-path="url(#pe11f55b2a8)" d="M 295.2 199.98 
L 142.74 199.98 
" style="fill:none;stroke:#ffffff;stroke-linecap:round;"/>
     </g>
     <g id="text_5">
      <!-- 180° -->
      <defs>
       <path d="M 17.671875 38.8125 
Q 12.203125 40.828125 9.5625 44.53125 
Q 6.9375 48.25 6.9375 53.421875 
Q 6.9375 61.234375 12.546875 66.546875 
Q 18.171875 71.875 27.484375 71.875 
Q 36.859375 71.875 42.578125 66.421875 
Q 48.296875 60.984375 48.296875 53.171875 
Q 48.296875 48.1875 45.671875 44.5 
Q 43.0625 40.828125 37.75 38.8125 
Q 44.34375 36.671875 47.78125 31.875 
Q 51.21875 27.09375 51.21875 20.453125 
Q 51.21875 11.28125 44.71875 5.03125 
Q 38.234375 -1.21875 27.640625 -1.21875 
Q 17.046875 -1.21875 10.546875 5.046875 
Q 4.046875 11.328125 4.046875 20.703125 
Q 4.046875 27.6875 7.59375 32.390625 
Q 11.140625 37.109375 17.671875 38.8125 
z
M 15.921875 53.71875 
Q 15.921875 48.640625 19.1875 45.40625 
Q 22.46875 42.1875 27.6875 42.1875 
Q 32.765625 42.1875 36.015625 45.375 
Q 39.265625 48.578125 39.265625 53.21875 
Q 39.265625 58.0625 35.90625 61.359375 
Q 32.5625 64.65625 27.59375 64.65625 
Q 22.5625 64.65625 19.234375 61.421875 
Q 15.921875 58.203125 15.921875 53.71875 
z
M 13.09375 20.65625 
Q 13.09375 16.890625 14.875 13.375 
Q 16.65625 9.859375 20.171875 7.921875 
Q 23.6875 6 27.734375 6 
Q 34.03125 6 38.125 10.046875 
Q 42.234375 14.109375 42.234375 20.359375 
Q 42.234375 26.703125 38.015625 30.859375 
Q 33.796875 35.015625 27.4375 35.015625 
Q 21.234375 35.015625 17.15625 30.90625 
Q 13.09375 26.8125 13.09375 20.65625 
z
" id="ArialMT-56"/>
      </defs>
      <g style="fill:#262626;" transform="translate(118.399375 202.565156)scale(0.1 -0.1)">
       <use xlink:href="#ArialMT-49"/>
       <use x="55.615234" xlink:href="#ArialMT-56"/>
       <use x="111.230469" xlink:href="#ArialMT-48"/>
       <use x="166.845703" xlink:href="#ArialMT-176"/>
      </g>
     </g>
    </g>
    <g id="xtick_6">
     <g id="line2d_6">
      <path clip-path="url(#pe11f55b2a8)" d="M 295.2 199.98 
L 187.3945 307.7855 
" style="fill:none;stroke:#ffffff;stroke-linecap:round;"/>
     </g>
     <g id="text_6">
      <!-- 225° -->
      <defs>
       <path d="M 50.34375 8.453125 
L 50.34375 0 
L 3.03125 0 
Q 2.9375 3.171875 4.046875 6.109375 
Q 5.859375 10.9375 9.828125 15.625 
Q 13.8125 20.3125 21.34375 26.46875 
Q 33.015625 36.03125 37.109375 41.625 
Q 41.21875 47.21875 41.21875 52.203125 
Q 41.21875 57.421875 37.46875 61 
Q 33.734375 64.59375 27.734375 64.59375 
Q 21.390625 64.59375 17.578125 60.78125 
Q 13.765625 56.984375 13.71875 50.25 
L 4.6875 51.171875 
Q 5.609375 61.28125 11.65625 66.578125 
Q 17.71875 71.875 27.9375 71.875 
Q 38.234375 71.875 44.234375 66.15625 
Q 50.25 60.453125 50.25 52 
Q 50.25 47.703125 48.484375 43.546875 
Q 46.734375 39.40625 42.65625 34.8125 
Q 38.578125 30.21875 29.109375 22.21875 
Q 21.1875 15.578125 18.9375 13.203125 
Q 16.703125 10.84375 15.234375 8.453125 
z
" id="ArialMT-50"/>
      </defs>
      <g style="fill:#262626;" transform="translate(167.15438 320.270151)scale(0.1 -0.1)">
       <use xlink:href="#ArialMT-50"/>
       <use x="55.615234" xlink:href="#ArialMT-50"/>
       <use x="111.230469" xlink:href="#ArialMT-53"/>
       <use x="166.845703" xlink:href="#ArialMT-176"/>
      </g>
     </g>
    </g>
    <g id="xtick_7">
     <g id="line2d_7">
      <path clip-path="url(#pe11f55b2a8)" d="M 295.2 199.98 
L 295.2 352.44 
" style="fill:none;stroke:#ffffff;stroke-linecap:round;"/>
     </g>
     <g id="text_7">
      <!-- 270° -->
      <defs>
       <path d="M 4.734375 62.203125 
L 4.734375 70.65625 
L 51.078125 70.65625 
L 51.078125 63.8125 
Q 44.234375 56.546875 37.515625 44.484375 
Q 30.8125 32.421875 27.15625 19.671875 
Q 24.515625 10.6875 23.78125 0 
L 14.75 0 
Q 14.890625 8.453125 18.0625 20.40625 
Q 21.234375 32.375 27.171875 43.484375 
Q 33.109375 54.59375 39.796875 62.203125 
z
" id="ArialMT-55"/>
      </defs>
      <g style="fill:#262626;" transform="translate(284.859375 369.025156)scale(0.1 -0.1)">
       <use xlink:href="#ArialMT-50"/>
       <use x="55.615234" xlink:href="#ArialMT-55"/>
       <use x="111.230469" xlink:href="#ArialMT-48"/>
       <use x="166.845703" xlink:href="#ArialMT-176"/>
      </g>
     </g>
    </g>
    <g id="xtick_8">
     <g id="line2d_8">
      <path clip-path="url(#pe11f55b2a8)" d="M 295.2 199.98 
L 403.0055 307.7855 
" style="fill:none;stroke:#ffffff;stroke-linecap:round;"/>
     </g>
     <g id="text_8">
      <!-- 315° -->
      <g style="fill:#262626;" transform="translate(402.56437 320.270151)scale(0.1 -0.1)">
       <use xlink:href="#ArialMT-51"/>
       <use x="55.615234" xlink:href="#ArialMT-49"/>
       <use x="111.230469" xlink:href="#ArialMT-53"/>
       <use x="166.845703" xlink:href="#ArialMT-176"/>
      </g>
     </g>
    </g>
   </g>
   <g id="matplotlib.axis_2">
    <g id="ytick_1">
     <g id="line2d_9">
      <path clip-path="url(#pe11f55b2a8)" d="M 324.554009 199.98 
L 324.393205 196.91167 
L 323.912554 193.876958 
L 323.117322 190.909112 
L 322.016222 188.040649 
L 320.621318 185.302995 
L 318.947893 182.726146 
L 317.01428 180.338334 
L 314.841666 178.16572 
L 312.453854 176.232107 
L 309.877005 174.558682 
L 307.139351 173.163778 
L 304.270888 172.062678 
L 301.303042 171.267446 
L 298.26833 170.786795 
L 295.2 170.625991 
L 292.13167 170.786795 
L 289.096958 171.267446 
L 286.129112 172.062678 
L 283.260649 173.163778 
L 280.522995 174.558682 
L 277.946146 176.232107 
L 275.558334 178.16572 
L 273.38572 180.338334 
L 271.452107 182.726146 
L 269.778682 185.302995 
L 268.383778 188.040649 
L 267.282678 190.909112 
L 266.487446 193.876958 
L 266.006795 196.91167 
L 265.845991 199.98 
L 266.006795 203.04833 
L 266.487446 206.083042 
L 267.282678 209.050888 
L 268.383778 211.919351 
L 269.778682 214.657005 
L 271.452107 217.233854 
L 273.38572 219.621666 
L 275.558334 221.79428 
L 277.946146 223.727893 
L 280.522995 225.401318 
L 283.260649 226.796222 
L 286.129112 227.897322 
L 289.096958 228.692554 
L 292.13167 229.173205 
L 295.2 229.334009 
L 298.26833 229.173205 
L 301.303042 228.692554 
L 304.270888 227.897322 
L 307.139351 226.796222 
L 309.877005 225.401318 
L 312.453854 223.727893 
L 314.841666 221.79428 
L 317.01428 219.621666 
L 318.947893 217.233854 
L 320.621318 214.657005 
L 322.016222 211.919351 
L 323.117322 209.050888 
L 323.912554 206.083042 
L 324.393205 203.04833 
L 324.554009 199.98 
L 324.554009 199.98 
" style="fill:none;stroke:#ffffff;stroke-linecap:round;"/>
     </g>
     <g id="text_9">
      <!-- 0.05 -->
      <defs>
       <path d="M 9.078125 0 
L 9.078125 10.015625 
L 19.09375 10.015625 
L 19.09375 0 
z
" id="ArialMT-46"/>
      </defs>
      <g style="fill:#262626;" transform="translate(322.319569 186.759207)scale(0.1 -0.1)">
       <use xlink:href="#ArialMT-48"/>
       <use x="55.615234" xlink:href="#ArialMT-46"/>
       <use x="83.398438" xlink:href="#ArialMT-48"/>
       <use x="139.013672" xlink:href="#ArialMT-53"/>
      </g>
     </g>
    </g>
    <g id="ytick_2">
     <g id="line2d_10">
      <path clip-path="url(#pe11f55b2a8)" d="M 353.908019 199.98 
L 353.765009 195.884736 
L 353.336677 191.809423 
L 352.625108 187.773917 
L 351.63377 183.797877 
L 350.367492 179.900675 
L 348.832444 176.101297 
L 347.036104 172.418255 
L 344.987224 168.86949 
L 342.695785 165.472292 
L 340.172952 162.243213 
L 337.431015 159.197983 
L 334.483332 156.351439 
L 331.344266 153.71745 
L 328.029108 151.308846 
L 324.554009 149.137364 
L 320.935902 147.213582 
L 317.192411 145.546873 
L 313.341776 144.145356 
L 309.402755 143.01586 
L 305.394541 142.163888 
L 301.336659 141.59359 
L 297.24888 141.307744 
L 293.15112 141.307744 
L 289.063341 141.59359 
L 285.005459 142.163888 
L 280.997245 143.01586 
L 277.058224 144.145356 
L 273.207589 145.546873 
L 269.464098 147.213582 
L 265.845991 149.137364 
L 262.370892 151.308846 
L 259.055734 153.71745 
L 255.916668 156.351439 
L 252.968985 159.197983 
L 250.227048 162.243213 
L 247.704215 165.472292 
L 245.412776 168.86949 
L 243.363896 172.418255 
L 241.567556 176.101297 
L 240.032508 179.900675 
L 238.76623 183.797877 
L 237.774892 187.773917 
L 237.063323 191.809423 
L 236.634991 195.884736 
L 236.491981 199.98 
L 236.634991 204.075264 
L 237.063323 208.150577 
L 237.774892 212.186083 
L 238.76623 216.162123 
L 240.032508 220.059325 
L 241.567556 223.858703 
L 243.363896 227.541745 
L 245.412776 231.09051 
L 247.704215 234.487708 
L 250.227048 237.716787 
L 252.968985 240.762017 
L 255.916668 243.608561 
L 259.055734 246.24255 
L 262.370892 248.651154 
L 265.845991 250.822636 
L 269.464098 252.746418 
L 273.207589 254.413127 
L 277.058224 255.814644 
L 280.997245 256.94414 
L 285.005459 257.796112 
L 289.063341 258.36641 
L 293.15112 258.652256 
L 297.24888 258.652256 
L 301.336659 258.36641 
L 305.394541 257.796112 
L 309.402755 256.94414 
L 313.341776 255.814644 
L 317.192411 254.413127 
L 320.935902 252.746418 
L 324.554009 250.822636 
L 328.029108 248.651154 
L 331.344266 246.24255 
L 334.483332 243.608561 
L 337.431015 240.762017 
L 340.172952 237.716787 
L 342.695785 234.487708 
L 344.987224 231.09051 
L 347.036104 227.541745 
L 348.832444 223.858703 
L 350.367492 220.059325 
L 351.63377 216.162123 
L 352.625108 212.186083 
L 353.336677 208.150577 
L 353.765009 204.075264 
L 353.908019 199.98 
L 353.908019 199.98 
" style="fill:none;stroke:#ffffff;stroke-linecap:round;"/>
     </g>
     <g id="text_10">
      <!-- 0.10 -->
      <g style="fill:#262626;" transform="translate(349.439137 175.525914)scale(0.1 -0.1)">
       <use xlink:href="#ArialMT-48"/>
       <use x="55.615234" xlink:href="#ArialMT-46"/>
       <use x="83.398438" xlink:href="#ArialMT-49"/>
       <use x="139.013672" xlink:href="#ArialMT-48"/>
      </g>
     </g>
    </g>
    <g id="ytick_3">
     <g id="line2d_11">
      <path clip-path="url(#pe11f55b2a8)" d="M 383.262028 199.98 
L 383.047514 193.837103 
L 382.405015 187.724134 
L 381.337662 181.670875 
L 379.850655 175.706815 
L 377.951238 169.861012 
L 375.648666 164.161946 
L 372.954156 158.637382 
L 369.880836 153.314235 
L 366.443678 148.218438 
L 362.659428 143.374819 
L 358.546522 138.806975 
L 354.124998 134.537159 
L 349.416398 130.586175 
L 344.443661 126.97327 
L 339.231014 123.716046 
L 333.803852 120.830373 
L 328.188616 118.330309 
L 322.412663 116.228034 
L 316.504133 114.53379 
L 310.491811 113.255832 
L 304.404989 112.400385 
L 298.27332 111.971617 
L 292.12668 111.971617 
L 285.995011 112.400385 
L 279.908189 113.255832 
L 273.895867 114.53379 
L 267.987337 116.228034 
L 262.211384 118.330309 
L 256.596148 120.830373 
L 251.168986 123.716046 
L 245.956339 126.97327 
L 240.983602 130.586175 
L 236.275002 134.537159 
L 231.853478 138.806975 
L 227.740572 143.374819 
L 223.956322 148.218438 
L 220.519164 153.314235 
L 217.445844 158.637382 
L 214.751334 164.161946 
L 212.448762 169.861012 
L 210.549345 175.706815 
L 209.062338 181.670875 
L 207.994985 187.724134 
L 207.352486 193.837103 
L 207.137972 199.98 
L 207.352486 206.122897 
L 207.994985 212.235866 
L 209.062338 218.289125 
L 210.549345 224.253185 
L 212.448762 230.098988 
L 214.751334 235.798054 
L 217.445844 241.322618 
L 220.519164 246.645765 
L 223.956322 251.741562 
L 227.740572 256.585181 
L 231.853478 261.153025 
L 236.275002 265.422841 
L 240.983602 269.373825 
L 245.956339 272.98673 
L 251.168986 276.243954 
L 256.596148 279.129627 
L 262.211384 281.629691 
L 267.987337 283.731966 
L 273.895867 285.42621 
L 279.908189 286.704168 
L 285.995011 287.559615 
L 292.12668 287.988383 
L 298.27332 287.988383 
L 304.404989 287.559615 
L 310.491811 286.704168 
L 316.504133 285.42621 
L 322.412663 283.731966 
L 328.188616 281.629691 
L 333.803852 279.129627 
L 339.231014 276.243954 
L 344.443661 272.98673 
L 349.416398 269.373825 
L 354.124998 265.422841 
L 358.546522 261.153025 
L 362.659428 256.585181 
L 366.443678 251.741562 
L 369.880836 246.645765 
L 372.954156 241.322618 
L 375.648666 235.798054 
L 377.951238 230.098988 
L 379.850655 224.253185 
L 381.337662 218.289125 
L 382.405015 212.235866 
L 383.047514 206.122897 
L 383.262028 199.98 
L 383.262028 199.98 
" style="fill:none;stroke:#ffffff;stroke-linecap:round;"/>
     </g>
     <g id="text_11">
      <!-- 0.15 -->
      <g style="fill:#262626;" transform="translate(376.558706 164.292621)scale(0.1 -0.1)">
       <use xlink:href="#ArialMT-48"/>
       <use x="55.615234" xlink:href="#ArialMT-46"/>
       <use x="83.398438" xlink:href="#ArialMT-49"/>
       <use x="139.013672" xlink:href="#ArialMT-53"/>
      </g>
     </g>
    </g>
    <g id="ytick_4">
     <g id="line2d_12">
      <path clip-path="url(#pe11f55b2a8)" d="M 412.616038 199.98 
L 412.544511 195.882239 
L 412.330018 191.789471 
L 411.972821 187.706682 
L 411.473353 183.638846 
L 410.832224 179.590919 
L 410.050216 175.567833 
L 409.12828 171.57449 
L 408.06754 167.615754 
L 406.869288 163.696449 
L 405.534984 159.82135 
L 404.066255 155.995178 
L 402.464888 152.222595 
L 400.732836 148.508197 
L 398.872208 144.856509 
L 396.885272 141.271981 
L 394.774447 137.75898 
L 392.542307 134.321785 
L 390.19157 130.964585 
L 387.725101 127.691469 
L 385.145903 124.506426 
L 382.457121 121.413335 
L 379.662029 118.415966 
L 376.764034 115.517971 
L 373.766665 112.722879 
L 370.673574 110.034097 
L 367.488531 107.454899 
L 364.215415 104.98843 
L 360.858215 102.637693 
L 357.42102 100.405553 
L 353.908019 98.294728 
L 350.323491 96.307792 
L 346.671803 94.447164 
L 342.957405 92.715112 
L 339.184822 91.113745 
L 335.35865 89.645016 
L 331.483551 88.310712 
L 327.564246 87.11246 
L 323.60551 86.05172 
L 319.612167 85.129784 
L 315.589081 84.347776 
L 311.541154 83.706647 
L 307.473318 83.207179 
L 303.390529 82.849982 
L 299.297761 82.635489 
L 295.2 82.563962 
L 291.102239 82.635489 
L 287.009471 82.849982 
L 282.926682 83.207179 
L 278.858846 83.706647 
L 274.810919 84.347776 
L 270.787833 85.129784 
L 266.79449 86.05172 
L 262.835754 87.11246 
L 258.916449 88.310712 
L 255.04135 89.645016 
L 251.215178 91.113745 
L 247.442595 92.715112 
L 243.728197 94.447164 
L 240.076509 96.307792 
L 236.491981 98.294728 
L 232.97898 100.405553 
L 229.541785 102.637693 
L 226.184585 104.98843 
L 222.911469 107.454899 
L 219.726426 110.034097 
L 216.633335 112.722879 
L 213.635966 115.517971 
L 210.737971 118.415966 
L 207.942879 121.413335 
L 205.254097 124.506426 
L 202.674899 127.691469 
L 200.20843 130.964585 
L 197.857693 134.321785 
L 195.625553 137.75898 
L 193.514728 141.271981 
L 191.527792 144.856509 
L 189.667164 148.508197 
L 187.935112 152.222595 
L 186.333745 155.995178 
L 184.865016 159.82135 
L 183.530712 163.696449 
L 182.33246 167.615754 
L 181.27172 171.57449 
L 180.349784 175.567833 
L 179.567776 179.590919 
L 178.926647 183.638846 
L 178.427179 187.706682 
L 178.069982 191.789471 
L 177.855489 195.882239 
L 177.783962 199.98 
L 177.855489 204.077761 
L 178.069982 208.170529 
L 178.427179 212.253318 
L 178.926647 216.321154 
L 179.567776 220.369081 
L 180.349784 224.392167 
L 181.27172 228.38551 
L 182.33246 232.344246 
L 183.530712 236.263551 
L 184.865016 240.13865 
L 186.333745 243.964822 
L 187.935112 247.737405 
L 189.667164 251.451803 
L 191.527792 255.103491 
L 193.514728 258.688019 
L 195.625553 262.20102 
L 197.857693 265.638215 
L 200.20843 268.995415 
L 202.674899 272.268531 
L 205.254097 275.453574 
L 207.942879 278.546665 
L 210.737971 281.544034 
L 213.635966 284.442029 
L 216.633335 287.237121 
L 219.726426 289.925903 
L 222.911469 292.505101 
L 226.184585 294.97157 
L 229.541785 297.322307 
L 232.97898 299.554447 
L 236.491981 301.665272 
L 240.076509 303.652208 
L 243.728197 305.512836 
L 247.442595 307.244888 
L 251.215178 308.846255 
L 255.04135 310.314984 
L 258.916449 311.649288 
L 262.835754 312.84754 
L 266.79449 313.90828 
L 270.787833 314.830216 
L 274.810919 315.612224 
L 278.858846 316.253353 
L 282.926682 316.752821 
L 287.009471 317.110018 
L 291.102239 317.324511 
L 295.2 317.396038 
L 299.297761 317.324511 
L 303.390529 317.110018 
L 307.473318 316.752821 
L 311.541154 316.253353 
L 315.589081 315.612224 
L 319.612167 314.830216 
L 323.60551 313.90828 
L 327.564246 312.84754 
L 331.483551 311.649288 
L 335.35865 310.314984 
L 339.184822 308.846255 
L 342.957405 307.244888 
L 346.671803 305.512836 
L 350.323491 303.652208 
L 353.908019 301.665272 
L 357.42102 299.554447 
L 360.858215 297.322307 
L 364.215415 294.97157 
L 367.488531 292.505101 
L 370.673574 289.925903 
L 373.766665 287.237121 
L 376.764034 284.442029 
L 379.662029 281.544034 
L 382.457121 278.546665 
L 385.145903 275.453574 
L 387.725101 272.268531 
L 390.19157 268.995415 
L 392.542307 265.638215 
L 394.774447 262.20102 
L 396.885272 258.688019 
L 398.872208 255.103491 
L 400.732836 251.451803 
L 402.464888 247.737405 
L 404.066255 243.964822 
L 405.534984 240.13865 
L 406.869288 236.263551 
L 408.06754 232.344246 
L 409.12828 228.38551 
L 410.050216 224.392167 
L 410.832224 220.369081 
L 411.473353 216.321154 
L 411.972821 212.253318 
L 412.330018 208.170529 
L 412.544511 204.077761 
L 412.616038 199.98 
L 412.616038 199.98 
" style="fill:none;stroke:#ffffff;stroke-linecap:round;"/>
     </g>
     <g id="text_12">
      <!-- 0.20 -->
      <g style="fill:#262626;" transform="translate(403.678274 153.059328)scale(0.1 -0.1)">
       <use xlink:href="#ArialMT-48"/>
       <use x="55.615234" xlink:href="#ArialMT-46"/>
       <use x="83.398438" xlink:href="#ArialMT-50"/>
       <use x="139.013672" xlink:href="#ArialMT-48"/>
      </g>
     </g>
    </g>
    <g id="ytick_5">
     <g id="line2d_13">
      <path clip-path="url(#pe11f55b2a8)" d="M 441.970047 199.98 
L 441.880639 194.857799 
L 441.612523 189.741839 
L 441.166026 184.638352 
L 440.541691 179.553557 
L 439.740281 174.493649 
L 438.76277 169.464791 
L 437.61035 164.473112 
L 436.284425 159.524692 
L 434.78661 154.625561 
L 433.118731 149.781687 
L 431.282818 144.998973 
L 429.28111 140.283244 
L 427.116045 135.640246 
L 424.79026 131.075636 
L 422.30659 126.594976 
L 419.668059 122.203724 
L 416.877884 117.907231 
L 413.939463 113.710731 
L 410.856376 109.619336 
L 407.632379 105.638032 
L 404.271401 101.771669 
L 400.777537 98.024958 
L 397.155042 94.402463 
L 393.408331 90.908599 
L 389.541968 87.547621 
L 385.560664 84.323624 
L 381.469269 81.240537 
L 377.272769 78.302116 
L 372.976276 75.511941 
L 368.585024 72.87341 
L 364.104364 70.38974 
L 359.539754 68.063955 
L 354.896756 65.89889 
L 350.181027 63.897182 
L 345.398313 62.061269 
L 340.554439 60.39339 
L 335.655308 58.895575 
L 330.706888 57.56965 
L 325.715209 56.41723 
L 320.686351 55.439719 
L 315.626443 54.638309 
L 310.541648 54.013974 
L 305.438161 53.567477 
L 300.322201 53.299361 
L 295.2 53.209953 
L 290.077799 53.299361 
L 284.961839 53.567477 
L 279.858352 54.013974 
L 274.773557 54.638309 
L 269.713649 55.439719 
L 264.684791 56.41723 
L 259.693112 57.56965 
L 254.744692 58.895575 
L 249.845561 60.39339 
L 245.001687 62.061269 
L 240.218973 63.897182 
L 235.503244 65.89889 
L 230.860246 68.063955 
L 226.295636 70.38974 
L 221.814976 72.87341 
L 217.423724 75.511941 
L 213.127231 78.302116 
L 208.930731 81.240537 
L 204.839336 84.323624 
L 200.858032 87.547621 
L 196.991669 90.908599 
L 193.244958 94.402463 
L 189.622463 98.024958 
L 186.128599 101.771669 
L 182.767621 105.638032 
L 179.543624 109.619336 
L 176.460537 113.710731 
L 173.522116 117.907231 
L 170.731941 122.203724 
L 168.09341 126.594976 
L 165.60974 131.075636 
L 163.283955 135.640246 
L 161.11889 140.283244 
L 159.117182 144.998973 
L 157.281269 149.781687 
L 155.61339 154.625561 
L 154.115575 159.524692 
L 152.78965 164.473112 
L 151.63723 169.464791 
L 150.659719 174.493649 
L 149.858309 179.553557 
L 149.233974 184.638352 
L 148.787477 189.741839 
L 148.519361 194.857799 
L 148.429953 199.98 
L 148.519361 205.102201 
L 148.787477 210.218161 
L 149.233974 215.321648 
L 149.858309 220.406443 
L 150.659719 225.466351 
L 151.63723 230.495209 
L 152.78965 235.486888 
L 154.115575 240.435308 
L 155.61339 245.334439 
L 157.281269 250.178313 
L 159.117182 254.961027 
L 161.11889 259.676756 
L 163.283955 264.319754 
L 165.60974 268.884364 
L 168.09341 273.365024 
L 170.731941 277.756276 
L 173.522116 282.052769 
L 176.460537 286.249269 
L 179.543624 290.340664 
L 182.767621 294.321968 
L 186.128599 298.188331 
L 189.622463 301.935042 
L 193.244958 305.557537 
L 196.991669 309.051401 
L 200.858032 312.412379 
L 204.839336 315.636376 
L 208.930731 318.719463 
L 213.127231 321.657884 
L 217.423724 324.448059 
L 221.814976 327.08659 
L 226.295636 329.57026 
L 230.860246 331.896045 
L 235.503244 334.06111 
L 240.218973 336.062818 
L 245.001687 337.898731 
L 249.845561 339.56661 
L 254.744692 341.064425 
L 259.693112 342.39035 
L 264.684791 343.54277 
L 269.713649 344.520281 
L 274.773557 345.321691 
L 279.858352 345.946026 
L 284.961839 346.392523 
L 290.077799 346.660639 
L 295.2 346.750047 
L 300.322201 346.660639 
L 305.438161 346.392523 
L 310.541648 345.946026 
L 315.626443 345.321691 
L 320.686351 344.520281 
L 325.715209 343.54277 
L 330.706888 342.39035 
L 335.655308 341.064425 
L 340.554439 339.56661 
L 345.398313 337.898731 
L 350.181027 336.062818 
L 354.896756 334.06111 
L 359.539754 331.896045 
L 364.104364 329.57026 
L 368.585024 327.08659 
L 372.976276 324.448059 
L 377.272769 321.657884 
L 381.469269 318.719463 
L 385.560664 315.636376 
L 389.541968 312.412379 
L 393.408331 309.051401 
L 397.155042 305.557537 
L 400.777537 301.935042 
L 404.271401 298.188331 
L 407.632379 294.321968 
L 410.856376 290.340664 
L 413.939463 286.249269 
L 416.877884 282.052769 
L 419.668059 277.756276 
L 422.30659 273.365024 
L 424.79026 268.884364 
L 427.116045 264.319754 
L 429.28111 259.676756 
L 431.282818 254.961027 
L 433.118731 250.178313 
L 434.78661 245.334439 
L 436.284425 240.435308 
L 437.61035 235.486888 
L 438.76277 230.495209 
L 439.740281 225.466351 
L 440.541691 220.406443 
L 441.166026 215.321648 
L 441.612523 210.218161 
L 441.880639 205.102201 
L 441.970047 199.98 
L 441.970047 199.98 
" style="fill:none;stroke:#ffffff;stroke-linecap:round;"/>
     </g>
     <g id="text_13">
      <!-- 0.25 -->
      <g style="fill:#262626;" transform="translate(430.797843 141.826034)scale(0.1 -0.1)">
       <use xlink:href="#ArialMT-48"/>
       <use x="55.615234" xlink:href="#ArialMT-46"/>
       <use x="83.398438" xlink:href="#ArialMT-50"/>
       <use x="139.013672" xlink:href="#ArialMT-53"/>
      </g>
     </g>
    </g>
   </g>
   <g id="PathCollection_1">
    <defs>
     <path d="M 0 3.5 
C 0.928211 3.5 1.81853 3.131218 2.474874 2.474874 
C 3.131218 1.81853 3.5 0.928211 3.5 0 
C 3.5 -0.928211 3.131218 -1.81853 2.474874 -2.474874 
C 1.81853 -3.131218 0.928211 -3.5 0 -3.5 
C -0.928211 -3.5 -1.81853 -3.131218 -2.474874 -2.474874 
C -3.131218 -1.81853 -3.5 -0.928211 -3.5 0 
C -3.5 0.928211 -3.131218 1.81853 -2.474874 2.474874 
C -1.81853 3.131218 -0.928211 3.5 0 3.5 
z
" id="me549d992d4" style="stroke:#4c72b0;stroke-width:0.3;"/>
    </defs>
    <g clip-path="url(#pe11f55b2a8)">
     <use style="fill:#4c72b0;stroke:#4c72b0;stroke-width:0.3;" x="296.18714" xlink:href="#me549d992d4" y="200.784201"/>
     <use style="fill:#4c72b0;stroke:#4c72b0;stroke-width:0.3;" x="285.90647" xlink:href="#me549d992d4" y="190.058646"/>
     <use style="fill:#4c72b0;stroke:#4c72b0;stroke-width:0.3;" x="214.920332" xlink:href="#me549d992d4" y="190.789322"/>
     <use style="fill:#4c72b0;stroke:#4c72b0;stroke-width:0.3;" x="338.532351" xlink:href="#me549d992d4" y="183.781136"/>
     <use style="fill:#4c72b0;stroke:#4c72b0;stroke-width:0.3;" x="191.491324" xlink:href="#me549d992d4" y="206.986883"/>
     <use style="fill:#4c72b0;stroke:#4c72b0;stroke-width:0.3;" x="257.833428" xlink:href="#me549d992d4" y="205.943666"/>
     <use style="fill:#4c72b0;stroke:#4c72b0;stroke-width:0.3;" x="385.135097" xlink:href="#me549d992d4" y="191.734299"/>
     <use style="fill:#4c72b0;stroke:#4c72b0;stroke-width:0.3;" x="319.358205" xlink:href="#me549d992d4" y="194.133235"/>
     <use style="fill:#4c72b0;stroke:#4c72b0;stroke-width:0.3;" x="274.253864" xlink:href="#me549d992d4" y="206.520755"/>
     <use style="fill:#4c72b0;stroke:#4c72b0;stroke-width:0.3;" x="268.405695" xlink:href="#me549d992d4" y="216.026855"/>
     <use style="fill:#4c72b0;stroke:#4c72b0;stroke-width:0.3;" x="379.009298" xlink:href="#me549d992d4" y="188.399454"/>
     <use style="fill:#4c72b0;stroke:#4c72b0;stroke-width:0.3;" x="259.270945" xlink:href="#me549d992d4" y="205.350247"/>
     <use style="fill:#4c72b0;stroke:#4c72b0;stroke-width:0.3;" x="242.134639" xlink:href="#me549d992d4" y="220.950002"/>
     <use style="fill:#4c72b0;stroke:#4c72b0;stroke-width:0.3;" x="317.007097" xlink:href="#me549d992d4" y="210.183879"/>
     <use style="fill:#4c72b0;stroke:#4c72b0;stroke-width:0.3;" x="289.43195" xlink:href="#me549d992d4" y="209.985385"/>
     <use style="fill:#4c72b0;stroke:#4c72b0;stroke-width:0.3;" x="159.905256" xlink:href="#me549d992d4" y="219.163718"/>
     <use style="fill:#4c72b0;stroke:#4c72b0;stroke-width:0.3;" x="364.212165" xlink:href="#me549d992d4" y="188.172853"/>
     <use style="fill:#4c72b0;stroke:#4c72b0;stroke-width:0.3;" x="210.477734" xlink:href="#me549d992d4" y="208.82158"/>
     <use style="fill:#4c72b0;stroke:#4c72b0;stroke-width:0.3;" x="349.471482" xlink:href="#me549d992d4" y="193.853751"/>
     <use style="fill:#4c72b0;stroke:#4c72b0;stroke-width:0.3;" x="305.46082" xlink:href="#me549d992d4" y="206.766729"/>
     <use style="fill:#4c72b0;stroke:#4c72b0;stroke-width:0.3;" x="314.888235" xlink:href="#me549d992d4" y="190.81595"/>
     <use style="fill:#4c72b0;stroke:#4c72b0;stroke-width:0.3;" x="280.573566" xlink:href="#me549d992d4" y="211.60254"/>
     <use style="fill:#4c72b0;stroke:#4c72b0;stroke-width:0.3;" x="301.625948" xlink:href="#me549d992d4" y="213.466134"/>
     <use style="fill:#4c72b0;stroke:#4c72b0;stroke-width:0.3;" x="308.0011" xlink:href="#me549d992d4" y="208.334753"/>
    </g>
   </g>
   <g id="PathCollection_2">
    <defs>
     <path d="M 0 3.5 
C 0.928211 3.5 1.81853 3.131218 2.474874 2.474874 
C 3.131218 1.81853 3.5 0.928211 3.5 0 
C 3.5 -0.928211 3.131218 -1.81853 2.474874 -2.474874 
C 1.81853 -3.131218 0.928211 -3.5 0 -3.5 
C -0.928211 -3.5 -1.81853 -3.131218 -2.474874 -2.474874 
C -3.131218 -1.81853 -3.5 -0.928211 -3.5 0 
C -3.5 0.928211 -3.131218 1.81853 -2.474874 2.474874 
C -1.81853 3.131218 -0.928211 3.5 0 3.5 
z
" id="m090d2f0da7" style="stroke:#55a868;stroke-width:0.3;"/>
    </defs>
    <g clip-path="url(#pe11f55b2a8)">
     <use style="fill:#55a868;stroke:#55a868;stroke-width:0.3;" x="383.376214" xlink:href="#m090d2f0da7" y="172.861994"/>
     <use style="fill:#55a868;stroke:#55a868;stroke-width:0.3;" x="405.044329" xlink:href="#m090d2f0da7" y="156.260694"/>
     <use style="fill:#55a868;stroke:#55a868;stroke-width:0.3;" x="324.194718" xlink:href="#m090d2f0da7" y="151.859197"/>
     <use style="fill:#55a868;stroke:#55a868;stroke-width:0.3;" x="190.076866" xlink:href="#m090d2f0da7" y="164.76642"/>
     <use style="fill:#55a868;stroke:#55a868;stroke-width:0.3;" x="265.654909" xlink:href="#m090d2f0da7" y="173.891204"/>
     <use style="fill:#55a868;stroke:#55a868;stroke-width:0.3;" x="273.500678" xlink:href="#m090d2f0da7" y="185.961776"/>
     <use style="fill:#55a868;stroke:#55a868;stroke-width:0.3;" x="247.382519" xlink:href="#m090d2f0da7" y="201.144045"/>
     <use style="fill:#55a868;stroke:#55a868;stroke-width:0.3;" x="369.92372" xlink:href="#m090d2f0da7" y="176.057737"/>
     <use style="fill:#55a868;stroke:#55a868;stroke-width:0.3;" x="330.966615" xlink:href="#m090d2f0da7" y="181.027508"/>
     <use style="fill:#55a868;stroke:#55a868;stroke-width:0.3;" x="418.369834" xlink:href="#m090d2f0da7" y="157.836667"/>
     <use style="fill:#55a868;stroke:#55a868;stroke-width:0.3;" x="373.248757" xlink:href="#m090d2f0da7" y="163.176576"/>
     <use style="fill:#55a868;stroke:#55a868;stroke-width:0.3;" x="185.58386" xlink:href="#m090d2f0da7" y="211.948756"/>
     <use style="fill:#55a868;stroke:#55a868;stroke-width:0.3;" x="413.033543" xlink:href="#m090d2f0da7" y="200.358922"/>
     <use style="fill:#55a868;stroke:#55a868;stroke-width:0.3;" x="180.756151" xlink:href="#m090d2f0da7" y="215.244332"/>
     <use style="fill:#55a868;stroke:#55a868;stroke-width:0.3;" x="419.226532" xlink:href="#m090d2f0da7" y="185.225288"/>
     <use style="fill:#55a868;stroke:#55a868;stroke-width:0.3;" x="285.441881" xlink:href="#m090d2f0da7" y="200.388781"/>
     <use style="fill:#55a868;stroke:#55a868;stroke-width:0.3;" x="244.490504" xlink:href="#m090d2f0da7" y="212.5854"/>
     <use style="fill:#55a868;stroke:#55a868;stroke-width:0.3;" x="297.739741" xlink:href="#m090d2f0da7" y="215.077278"/>
     <use style="fill:#55a868;stroke:#55a868;stroke-width:0.3;" x="278.654218" xlink:href="#m090d2f0da7" y="211.53802"/>
     <use style="fill:#55a868;stroke:#55a868;stroke-width:0.3;" x="313.63065" xlink:href="#m090d2f0da7" y="193.8637"/>
     <use style="fill:#55a868;stroke:#55a868;stroke-width:0.3;" x="275.095399" xlink:href="#m090d2f0da7" y="198.571347"/>
     <use style="fill:#55a868;stroke:#55a868;stroke-width:0.3;" x="304.408508" xlink:href="#m090d2f0da7" y="193.709207"/>
     <use style="fill:#55a868;stroke:#55a868;stroke-width:0.3;" x="277.678037" xlink:href="#m090d2f0da7" y="201.586075"/>
     <use style="fill:#55a868;stroke:#55a868;stroke-width:0.3;" x="315.014738" xlink:href="#m090d2f0da7" y="196.76794"/>
    </g>
   </g>
   <g id="PathCollection_3">
    <defs>
     <path d="M 0 3.5 
C 0.928211 3.5 1.81853 3.131218 2.474874 2.474874 
C 3.131218 1.81853 3.5 0.928211 3.5 0 
C 3.5 -0.928211 3.131218 -1.81853 2.474874 -2.474874 
C 1.81853 -3.131218 0.928211 -3.5 0 -3.5 
C -0.928211 -3.5 -1.81853 -3.131218 -2.474874 -2.474874 
C -3.131218 -1.81853 -3.5 -0.928211 -3.5 0 
C -3.5 0.928211 -3.131218 1.81853 -2.474874 2.474874 
C -1.81853 3.131218 -0.928211 3.5 0 3.5 
z
" id="meb4a95db8f" style="stroke:#c44e52;stroke-width:0.3;"/>
    </defs>
    <g clip-path="url(#pe11f55b2a8)">
     <use style="fill:#c44e52;stroke:#c44e52;stroke-width:0.3;" x="315.537503" xlink:href="#meb4a95db8f" y="198.655755"/>
     <use style="fill:#c44e52;stroke:#c44e52;stroke-width:0.3;" x="362.289401" xlink:href="#meb4a95db8f" y="199.418249"/>
     <use style="fill:#c44e52;stroke:#c44e52;stroke-width:0.3;" x="281.207541" xlink:href="#meb4a95db8f" y="210.139285"/>
     <use style="fill:#c44e52;stroke:#c44e52;stroke-width:0.3;" x="313.508099" xlink:href="#meb4a95db8f" y="203.702398"/>
     <use style="fill:#c44e52;stroke:#c44e52;stroke-width:0.3;" x="299.614093" xlink:href="#meb4a95db8f" y="199.870762"/>
     <use style="fill:#c44e52;stroke:#c44e52;stroke-width:0.3;" x="311.328544" xlink:href="#meb4a95db8f" y="196.039955"/>
     <use style="fill:#c44e52;stroke:#c44e52;stroke-width:0.3;" x="402.526574" xlink:href="#meb4a95db8f" y="175.479896"/>
     <use style="fill:#c44e52;stroke:#c44e52;stroke-width:0.3;" x="222.402682" xlink:href="#meb4a95db8f" y="186.705675"/>
     <use style="fill:#c44e52;stroke:#c44e52;stroke-width:0.3;" x="323.6449" xlink:href="#meb4a95db8f" y="181.504351"/>
     <use style="fill:#c44e52;stroke:#c44e52;stroke-width:0.3;" x="257.329205" xlink:href="#meb4a95db8f" y="191.492413"/>
     <use style="fill:#c44e52;stroke:#c44e52;stroke-width:0.3;" x="302.190484" xlink:href="#meb4a95db8f" y="184.283582"/>
     <use style="fill:#c44e52;stroke:#c44e52;stroke-width:0.3;" x="283.030687" xlink:href="#meb4a95db8f" y="195.561816"/>
     <use style="fill:#c44e52;stroke:#c44e52;stroke-width:0.3;" x="298.495252" xlink:href="#meb4a95db8f" y="191.875562"/>
     <use style="fill:#c44e52;stroke:#c44e52;stroke-width:0.3;" x="333.054806" xlink:href="#meb4a95db8f" y="174.702053"/>
     <use style="fill:#c44e52;stroke:#c44e52;stroke-width:0.3;" x="305.881312" xlink:href="#meb4a95db8f" y="187.761113"/>
     <use style="fill:#c44e52;stroke:#c44e52;stroke-width:0.3;" x="428.488339" xlink:href="#meb4a95db8f" y="172.597846"/>
     <use style="fill:#c44e52;stroke:#c44e52;stroke-width:0.3;" x="392.125461" xlink:href="#meb4a95db8f" y="175.172939"/>
     <use style="fill:#c44e52;stroke:#c44e52;stroke-width:0.3;" x="389.353181" xlink:href="#meb4a95db8f" y="169.526042"/>
     <use style="fill:#c44e52;stroke:#c44e52;stroke-width:0.3;" x="301.982941" xlink:href="#meb4a95db8f" y="180.648467"/>
     <use style="fill:#c44e52;stroke:#c44e52;stroke-width:0.3;" x="202.716208" xlink:href="#meb4a95db8f" y="201.866924"/>
     <use style="fill:#c44e52;stroke:#c44e52;stroke-width:0.3;" x="375.519893" xlink:href="#meb4a95db8f" y="188.237458"/>
     <use style="fill:#c44e52;stroke:#c44e52;stroke-width:0.3;" x="422.530235" xlink:href="#meb4a95db8f" y="167.86134"/>
     <use style="fill:#c44e52;stroke:#c44e52;stroke-width:0.3;" x="348.293635" xlink:href="#meb4a95db8f" y="171.972754"/>
     <use style="fill:#c44e52;stroke:#c44e52;stroke-width:0.3;" x="243.527235" xlink:href="#meb4a95db8f" y="192.7472"/>
    </g>
   </g>
   <g id="line2d_14">
    <path clip-path="url(#pe11f55b2a8)" d="M 295.2 199.98 
L 412.727561 130.26662 
" style="fill:none;stroke:#ff0000;stroke-dasharray:7.4,3.2;stroke-dashoffset:0;stroke-width:2;"/>
   </g>
   <g id="patch_3">
    <path d="M 447.66 199.98 
C 447.66 179.959136 443.716326 160.13295 436.054674 141.636084 
C 428.393021 123.139218 417.162388 106.331389 403.0055 92.1745 
C 388.848611 78.017612 372.040782 66.786979 353.543916 59.125326 
C 335.04705 51.463674 315.220864 47.52 295.2 47.52 
C 275.179136 47.52 255.35295 51.463674 236.856084 59.125326 
C 218.359218 66.786979 201.551389 78.017612 187.3945 92.1745 
C 173.237612 106.331389 162.006979 123.139218 154.345326 141.636084 
C 146.683674 160.13295 142.74 179.959136 142.74 199.98 
C 142.74 220.000864 146.683674 239.82705 154.345326 258.323916 
C 162.006979 276.820782 173.237612 293.628611 187.3945 307.7855 
C 201.551389 321.942388 218.359218 333.173021 236.856084 340.834674 
C 255.35295 348.496326 275.179136 352.44 295.2 352.44 
C 315.220864 352.44 335.04705 348.496326 353.543916 340.834674 
C 372.040782 333.173021 388.848611 321.942388 403.0055 307.7855 
C 417.162388 293.628611 428.393021 276.820782 436.054674 258.323916 
C 443.716326 239.82705 447.66 220.000864 447.66 199.98 
" style="fill:none;"/>
   </g>
   <g id="text_14">
    <!-- Distribution of projected eye movement velocity on the screen - NewM1_12_12 -->
    <defs>
     <path d="M 7.71875 0 
L 7.71875 71.578125 
L 32.375 71.578125 
Q 40.71875 71.578125 45.125 70.5625 
Q 51.265625 69.140625 55.609375 65.4375 
Q 61.28125 60.640625 64.078125 53.1875 
Q 66.890625 45.75 66.890625 36.1875 
Q 66.890625 28.03125 64.984375 21.734375 
Q 63.09375 15.4375 60.109375 11.296875 
Q 57.125 7.171875 53.578125 4.796875 
Q 50.046875 2.4375 45.046875 1.21875 
Q 40.046875 0 33.546875 0 
z
M 17.1875 8.453125 
L 32.46875 8.453125 
Q 39.546875 8.453125 43.578125 9.765625 
Q 47.609375 11.078125 50 13.484375 
Q 53.375 16.84375 55.25 22.53125 
Q 57.125 28.21875 57.125 36.328125 
Q 57.125 47.5625 53.4375 53.59375 
Q 49.75 59.625 44.484375 61.671875 
Q 40.671875 63.140625 32.234375 63.140625 
L 17.1875 63.140625 
z
" id="ArialMT-68"/>
     <path d="M 6.640625 61.46875 
L 6.640625 71.578125 
L 15.4375 71.578125 
L 15.4375 61.46875 
z
M 6.640625 0 
L 6.640625 51.859375 
L 15.4375 51.859375 
L 15.4375 0 
z
" id="ArialMT-105"/>
     <path d="M 3.078125 15.484375 
L 11.765625 16.84375 
Q 12.5 11.625 15.84375 8.84375 
Q 19.1875 6.0625 25.203125 6.0625 
Q 31.25 6.0625 34.171875 8.515625 
Q 37.109375 10.984375 37.109375 14.3125 
Q 37.109375 17.28125 34.515625 19 
Q 32.71875 20.171875 25.53125 21.96875 
Q 15.875 24.421875 12.140625 26.203125 
Q 8.40625 27.984375 6.46875 31.125 
Q 4.546875 34.28125 4.546875 38.09375 
Q 4.546875 41.546875 6.125 44.5 
Q 7.71875 47.46875 10.453125 49.421875 
Q 12.5 50.921875 16.03125 51.96875 
Q 19.578125 53.03125 23.640625 53.03125 
Q 29.734375 53.03125 34.34375 51.265625 
Q 38.96875 49.515625 41.15625 46.5 
Q 43.359375 43.5 44.1875 38.484375 
L 35.59375 37.3125 
Q 35.015625 41.3125 32.203125 43.546875 
Q 29.390625 45.796875 24.265625 45.796875 
Q 18.21875 45.796875 15.625 43.796875 
Q 13.03125 41.796875 13.03125 39.109375 
Q 13.03125 37.40625 14.109375 36.03125 
Q 15.1875 34.625 17.484375 33.6875 
Q 18.796875 33.203125 25.25 31.453125 
Q 34.578125 28.953125 38.25 27.359375 
Q 41.9375 25.78125 44.03125 22.75 
Q 46.140625 19.734375 46.140625 15.234375 
Q 46.140625 10.84375 43.578125 6.953125 
Q 41.015625 3.078125 36.171875 0.953125 
Q 31.34375 -1.171875 25.25 -1.171875 
Q 15.140625 -1.171875 9.84375 3.03125 
Q 4.546875 7.234375 3.078125 15.484375 
z
" id="ArialMT-115"/>
     <path d="M 25.78125 7.859375 
L 27.046875 0.09375 
Q 23.34375 -0.6875 20.40625 -0.6875 
Q 15.625 -0.6875 12.984375 0.828125 
Q 10.359375 2.34375 9.28125 4.8125 
Q 8.203125 7.28125 8.203125 15.1875 
L 8.203125 45.015625 
L 1.765625 45.015625 
L 1.765625 51.859375 
L 8.203125 51.859375 
L 8.203125 64.703125 
L 16.9375 69.96875 
L 16.9375 51.859375 
L 25.78125 51.859375 
L 25.78125 45.015625 
L 16.9375 45.015625 
L 16.9375 14.703125 
Q 16.9375 10.9375 17.40625 9.859375 
Q 17.875 8.796875 18.921875 8.15625 
Q 19.96875 7.515625 21.921875 7.515625 
Q 23.390625 7.515625 25.78125 7.859375 
z
" id="ArialMT-116"/>
     <path d="M 6.5 0 
L 6.5 51.859375 
L 14.40625 51.859375 
L 14.40625 44 
Q 17.4375 49.515625 20 51.265625 
Q 22.5625 53.03125 25.640625 53.03125 
Q 30.078125 53.03125 34.671875 50.203125 
L 31.640625 42.046875 
Q 28.421875 43.953125 25.203125 43.953125 
Q 22.3125 43.953125 20.015625 42.21875 
Q 17.71875 40.484375 16.75 37.40625 
Q 15.28125 32.71875 15.28125 27.15625 
L 15.28125 0 
z
" id="ArialMT-114"/>
     <path d="M 14.703125 0 
L 6.546875 0 
L 6.546875 71.578125 
L 15.328125 71.578125 
L 15.328125 46.046875 
Q 20.90625 53.03125 29.546875 53.03125 
Q 34.328125 53.03125 38.59375 51.09375 
Q 42.875 49.171875 45.625 45.671875 
Q 48.390625 42.1875 49.953125 37.25 
Q 51.515625 32.328125 51.515625 26.703125 
Q 51.515625 13.375 44.921875 6.09375 
Q 38.328125 -1.171875 29.109375 -1.171875 
Q 19.921875 -1.171875 14.703125 6.5 
z
M 14.59375 26.3125 
Q 14.59375 17 17.140625 12.84375 
Q 21.296875 6.0625 28.375 6.0625 
Q 34.125 6.0625 38.328125 11.0625 
Q 42.53125 16.0625 42.53125 25.984375 
Q 42.53125 36.140625 38.5 40.96875 
Q 34.46875 45.796875 28.765625 45.796875 
Q 23 45.796875 18.796875 40.796875 
Q 14.59375 35.796875 14.59375 26.3125 
z
" id="ArialMT-98"/>
     <path d="M 40.578125 0 
L 40.578125 7.625 
Q 34.515625 -1.171875 24.125 -1.171875 
Q 19.53125 -1.171875 15.546875 0.578125 
Q 11.578125 2.34375 9.640625 5 
Q 7.71875 7.671875 6.9375 11.53125 
Q 6.390625 14.109375 6.390625 19.734375 
L 6.390625 51.859375 
L 15.1875 51.859375 
L 15.1875 23.09375 
Q 15.1875 16.21875 15.71875 13.8125 
Q 16.546875 10.359375 19.234375 8.375 
Q 21.921875 6.390625 25.875 6.390625 
Q 29.828125 6.390625 33.296875 8.421875 
Q 36.765625 10.453125 38.203125 13.9375 
Q 39.65625 17.4375 39.65625 24.078125 
L 39.65625 51.859375 
L 48.4375 51.859375 
L 48.4375 0 
z
" id="ArialMT-117"/>
     <path d="M 3.328125 25.921875 
Q 3.328125 40.328125 11.328125 47.265625 
Q 18.015625 53.03125 27.640625 53.03125 
Q 38.328125 53.03125 45.109375 46.015625 
Q 51.90625 39.015625 51.90625 26.65625 
Q 51.90625 16.65625 48.90625 10.90625 
Q 45.90625 5.171875 40.15625 2 
Q 34.421875 -1.171875 27.640625 -1.171875 
Q 16.75 -1.171875 10.03125 5.8125 
Q 3.328125 12.796875 3.328125 25.921875 
z
M 12.359375 25.921875 
Q 12.359375 15.96875 16.703125 11.015625 
Q 21.046875 6.0625 27.640625 6.0625 
Q 34.1875 6.0625 38.53125 11.03125 
Q 42.875 16.015625 42.875 26.21875 
Q 42.875 35.84375 38.5 40.796875 
Q 34.125 45.75 27.640625 45.75 
Q 21.046875 45.75 16.703125 40.8125 
Q 12.359375 35.890625 12.359375 25.921875 
z
" id="ArialMT-111"/>
     <path d="M 6.59375 0 
L 6.59375 51.859375 
L 14.5 51.859375 
L 14.5 44.484375 
Q 20.21875 53.03125 31 53.03125 
Q 35.6875 53.03125 39.625 51.34375 
Q 43.5625 49.65625 45.515625 46.921875 
Q 47.46875 44.1875 48.25 40.4375 
Q 48.734375 37.984375 48.734375 31.890625 
L 48.734375 0 
L 39.9375 0 
L 39.9375 31.546875 
Q 39.9375 36.921875 38.90625 39.578125 
Q 37.890625 42.234375 35.28125 43.8125 
Q 32.671875 45.40625 29.15625 45.40625 
Q 23.53125 45.40625 19.453125 41.84375 
Q 15.375 38.28125 15.375 28.328125 
L 15.375 0 
z
" id="ArialMT-110"/>
     <path id="ArialMT-32"/>
     <path d="M 8.6875 0 
L 8.6875 45.015625 
L 0.921875 45.015625 
L 0.921875 51.859375 
L 8.6875 51.859375 
L 8.6875 57.375 
Q 8.6875 62.59375 9.625 65.140625 
Q 10.890625 68.5625 14.078125 70.671875 
Q 17.28125 72.796875 23.046875 72.796875 
Q 26.765625 72.796875 31.25 71.921875 
L 29.9375 64.265625 
Q 27.203125 64.75 24.75 64.75 
Q 20.75 64.75 19.09375 63.03125 
Q 17.4375 61.328125 17.4375 56.640625 
L 17.4375 51.859375 
L 27.546875 51.859375 
L 27.546875 45.015625 
L 17.4375 45.015625 
L 17.4375 0 
z
" id="ArialMT-102"/>
     <path d="M 6.59375 -19.875 
L 6.59375 51.859375 
L 14.59375 51.859375 
L 14.59375 45.125 
Q 17.4375 49.078125 21 51.046875 
Q 24.5625 53.03125 29.640625 53.03125 
Q 36.28125 53.03125 41.359375 49.609375 
Q 46.4375 46.1875 49.015625 39.953125 
Q 51.609375 33.734375 51.609375 26.3125 
Q 51.609375 18.359375 48.75 11.984375 
Q 45.90625 5.609375 40.453125 2.21875 
Q 35.015625 -1.171875 29 -1.171875 
Q 24.609375 -1.171875 21.109375 0.6875 
Q 17.625 2.546875 15.375 5.375 
L 15.375 -19.875 
z
M 14.546875 25.640625 
Q 14.546875 15.625 18.59375 10.84375 
Q 22.65625 6.0625 28.421875 6.0625 
Q 34.28125 6.0625 38.453125 11.015625 
Q 42.625 15.96875 42.625 26.375 
Q 42.625 36.28125 38.546875 41.203125 
Q 34.46875 46.140625 28.8125 46.140625 
Q 23.1875 46.140625 18.859375 40.890625 
Q 14.546875 35.640625 14.546875 25.640625 
z
" id="ArialMT-112"/>
     <path d="M 6.546875 61.375 
L 6.546875 71.578125 
L 15.328125 71.578125 
L 15.328125 61.375 
z
M -4.59375 -20.125 
L -2.9375 -12.640625 
Q -0.296875 -13.328125 1.21875 -13.328125 
Q 3.90625 -13.328125 5.21875 -11.546875 
Q 6.546875 -9.765625 6.546875 -2.640625 
L 6.546875 51.859375 
L 15.328125 51.859375 
L 15.328125 -2.828125 
Q 15.328125 -12.40625 12.84375 -16.15625 
Q 9.671875 -21.046875 2.296875 -21.046875 
Q -1.265625 -21.046875 -4.59375 -20.125 
z
" id="ArialMT-106"/>
     <path d="M 42.09375 16.703125 
L 51.171875 15.578125 
Q 49.03125 7.625 43.21875 3.21875 
Q 37.40625 -1.171875 28.375 -1.171875 
Q 17 -1.171875 10.328125 5.828125 
Q 3.65625 12.84375 3.65625 25.484375 
Q 3.65625 38.578125 10.390625 45.796875 
Q 17.140625 53.03125 27.875 53.03125 
Q 38.28125 53.03125 44.875 45.953125 
Q 51.46875 38.875 51.46875 26.03125 
Q 51.46875 25.25 51.421875 23.6875 
L 12.75 23.6875 
Q 13.234375 15.140625 17.578125 10.59375 
Q 21.921875 6.0625 28.421875 6.0625 
Q 33.25 6.0625 36.671875 8.59375 
Q 40.09375 11.140625 42.09375 16.703125 
z
M 13.234375 30.90625 
L 42.1875 30.90625 
Q 41.609375 37.453125 38.875 40.71875 
Q 34.671875 45.796875 27.984375 45.796875 
Q 21.921875 45.796875 17.796875 41.75 
Q 13.671875 37.703125 13.234375 30.90625 
z
" id="ArialMT-101"/>
     <path d="M 40.4375 19 
L 49.078125 17.875 
Q 47.65625 8.9375 41.8125 3.875 
Q 35.984375 -1.171875 27.484375 -1.171875 
Q 16.84375 -1.171875 10.375 5.78125 
Q 3.90625 12.75 3.90625 25.734375 
Q 3.90625 34.125 6.6875 40.421875 
Q 9.46875 46.734375 15.15625 49.875 
Q 20.84375 53.03125 27.546875 53.03125 
Q 35.984375 53.03125 41.359375 48.75 
Q 46.734375 44.484375 48.25 36.625 
L 39.703125 35.296875 
Q 38.484375 40.53125 35.375 43.15625 
Q 32.28125 45.796875 27.875 45.796875 
Q 21.234375 45.796875 17.078125 41.03125 
Q 12.9375 36.28125 12.9375 25.984375 
Q 12.9375 15.53125 16.9375 10.796875 
Q 20.953125 6.0625 27.390625 6.0625 
Q 32.5625 6.0625 36.03125 9.234375 
Q 39.5 12.40625 40.4375 19 
z
" id="ArialMT-99"/>
     <path d="M 40.234375 0 
L 40.234375 6.546875 
Q 35.296875 -1.171875 25.734375 -1.171875 
Q 19.53125 -1.171875 14.328125 2.25 
Q 9.125 5.671875 6.265625 11.796875 
Q 3.421875 17.921875 3.421875 25.875 
Q 3.421875 33.640625 6 39.96875 
Q 8.59375 46.296875 13.765625 49.65625 
Q 18.953125 53.03125 25.34375 53.03125 
Q 30.03125 53.03125 33.6875 51.046875 
Q 37.359375 49.078125 39.65625 45.90625 
L 39.65625 71.578125 
L 48.390625 71.578125 
L 48.390625 0 
z
M 12.453125 25.875 
Q 12.453125 15.921875 16.640625 10.984375 
Q 20.84375 6.0625 26.5625 6.0625 
Q 32.328125 6.0625 36.34375 10.765625 
Q 40.375 15.484375 40.375 25.140625 
Q 40.375 35.796875 36.265625 40.765625 
Q 32.171875 45.75 26.171875 45.75 
Q 20.3125 45.75 16.375 40.96875 
Q 12.453125 36.1875 12.453125 25.875 
z
" id="ArialMT-100"/>
     <path d="M 6.203125 -19.96875 
L 5.21875 -11.71875 
Q 8.109375 -12.5 10.25 -12.5 
Q 13.1875 -12.5 14.9375 -11.515625 
Q 16.703125 -10.546875 17.828125 -8.796875 
Q 18.65625 -7.46875 20.515625 -2.25 
Q 20.75 -1.515625 21.296875 -0.09375 
L 1.609375 51.859375 
L 11.078125 51.859375 
L 21.875 21.828125 
Q 23.96875 16.109375 25.640625 9.8125 
Q 27.15625 15.875 29.25 21.625 
L 40.328125 51.859375 
L 49.125 51.859375 
L 29.390625 -0.875 
Q 26.21875 -9.421875 24.46875 -12.640625 
Q 22.125 -17 19.09375 -19.015625 
Q 16.0625 -21.046875 11.859375 -21.046875 
Q 9.328125 -21.046875 6.203125 -19.96875 
z
" id="ArialMT-121"/>
     <path d="M 6.59375 0 
L 6.59375 51.859375 
L 14.453125 51.859375 
L 14.453125 44.578125 
Q 16.890625 48.390625 20.9375 50.703125 
Q 25 53.03125 30.171875 53.03125 
Q 35.9375 53.03125 39.625 50.640625 
Q 43.3125 48.25 44.828125 43.953125 
Q 50.984375 53.03125 60.84375 53.03125 
Q 68.5625 53.03125 72.703125 48.75 
Q 76.859375 44.484375 76.859375 35.59375 
L 76.859375 0 
L 68.109375 0 
L 68.109375 32.671875 
Q 68.109375 37.9375 67.25 40.25 
Q 66.40625 42.578125 64.15625 43.984375 
Q 61.921875 45.40625 58.890625 45.40625 
Q 53.421875 45.40625 49.796875 41.765625 
Q 46.1875 38.140625 46.1875 30.125 
L 46.1875 0 
L 37.40625 0 
L 37.40625 33.6875 
Q 37.40625 39.546875 35.25 42.46875 
Q 33.109375 45.40625 28.21875 45.40625 
Q 24.515625 45.40625 21.359375 43.453125 
Q 18.21875 41.5 16.796875 37.734375 
Q 15.375 33.984375 15.375 26.90625 
L 15.375 0 
z
" id="ArialMT-109"/>
     <path d="M 21 0 
L 1.265625 51.859375 
L 10.546875 51.859375 
L 21.6875 20.796875 
Q 23.484375 15.765625 25 10.359375 
Q 26.171875 14.453125 28.265625 20.21875 
L 39.796875 51.859375 
L 48.828125 51.859375 
L 29.203125 0 
z
" id="ArialMT-118"/>
     <path d="M 6.390625 0 
L 6.390625 71.578125 
L 15.1875 71.578125 
L 15.1875 0 
z
" id="ArialMT-108"/>
     <path d="M 6.59375 0 
L 6.59375 71.578125 
L 15.375 71.578125 
L 15.375 45.90625 
Q 21.53125 53.03125 30.90625 53.03125 
Q 36.671875 53.03125 40.921875 50.75 
Q 45.171875 48.484375 47 44.484375 
Q 48.828125 40.484375 48.828125 32.859375 
L 48.828125 0 
L 40.046875 0 
L 40.046875 32.859375 
Q 40.046875 39.453125 37.1875 42.453125 
Q 34.328125 45.453125 29.109375 45.453125 
Q 25.203125 45.453125 21.75 43.421875 
Q 18.3125 41.40625 16.84375 37.9375 
Q 15.375 34.46875 15.375 28.375 
L 15.375 0 
z
" id="ArialMT-104"/>
     <path d="M 3.171875 21.484375 
L 3.171875 30.328125 
L 30.171875 30.328125 
L 30.171875 21.484375 
z
" id="ArialMT-45"/>
     <path d="M 7.625 0 
L 7.625 71.578125 
L 17.328125 71.578125 
L 54.9375 15.375 
L 54.9375 71.578125 
L 64.015625 71.578125 
L 64.015625 0 
L 54.296875 0 
L 16.703125 56.25 
L 16.703125 0 
z
" id="ArialMT-78"/>
     <path d="M 16.15625 0 
L 0.296875 51.859375 
L 9.375 51.859375 
L 17.625 21.921875 
L 20.703125 10.796875 
Q 20.90625 11.625 23.390625 21.484375 
L 31.640625 51.859375 
L 40.671875 51.859375 
L 48.4375 21.78125 
L 51.03125 11.859375 
L 54 21.875 
L 62.890625 51.859375 
L 71.4375 51.859375 
L 55.21875 0 
L 46.09375 0 
L 37.84375 31.0625 
L 35.84375 39.890625 
L 25.34375 0 
z
" id="ArialMT-119"/>
     <path d="M 7.421875 0 
L 7.421875 71.578125 
L 21.6875 71.578125 
L 38.625 20.90625 
Q 40.96875 13.8125 42.046875 10.296875 
Q 43.265625 14.203125 45.84375 21.78125 
L 62.984375 71.578125 
L 75.734375 71.578125 
L 75.734375 0 
L 66.609375 0 
L 66.609375 59.90625 
L 45.796875 0 
L 37.25 0 
L 16.546875 60.9375 
L 16.546875 0 
z
" id="ArialMT-77"/>
     <path d="M -1.515625 -19.875 
L -1.515625 -13.53125 
L 56.734375 -13.53125 
L 56.734375 -19.875 
z
" id="ArialMT-95"/>
    </defs>
    <g style="fill:#262626;" transform="translate(85.77375 23.748375)scale(0.12 -0.12)">
     <use xlink:href="#ArialMT-68"/>
     <use x="72.216797" xlink:href="#ArialMT-105"/>
     <use x="94.433594" xlink:href="#ArialMT-115"/>
     <use x="144.433594" xlink:href="#ArialMT-116"/>
     <use x="172.216797" xlink:href="#ArialMT-114"/>
     <use x="205.517578" xlink:href="#ArialMT-105"/>
     <use x="227.734375" xlink:href="#ArialMT-98"/>
     <use x="283.349609" xlink:href="#ArialMT-117"/>
     <use x="338.964844" xlink:href="#ArialMT-116"/>
     <use x="366.748047" xlink:href="#ArialMT-105"/>
     <use x="388.964844" xlink:href="#ArialMT-111"/>
     <use x="444.580078" xlink:href="#ArialMT-110"/>
     <use x="500.195312" xlink:href="#ArialMT-32"/>
     <use x="527.978516" xlink:href="#ArialMT-111"/>
     <use x="583.59375" xlink:href="#ArialMT-102"/>
     <use x="611.376953" xlink:href="#ArialMT-32"/>
     <use x="639.160156" xlink:href="#ArialMT-112"/>
     <use x="694.775391" xlink:href="#ArialMT-114"/>
     <use x="728.076172" xlink:href="#ArialMT-111"/>
     <use x="783.691406" xlink:href="#ArialMT-106"/>
     <use x="805.908203" xlink:href="#ArialMT-101"/>
     <use x="861.523438" xlink:href="#ArialMT-99"/>
     <use x="911.523438" xlink:href="#ArialMT-116"/>
     <use x="939.306641" xlink:href="#ArialMT-101"/>
     <use x="994.921875" xlink:href="#ArialMT-100"/>
     <use x="1050.537109" xlink:href="#ArialMT-32"/>
     <use x="1078.320312" xlink:href="#ArialMT-101"/>
     <use x="1133.935547" xlink:href="#ArialMT-121"/>
     <use x="1183.935547" xlink:href="#ArialMT-101"/>
     <use x="1239.550781" xlink:href="#ArialMT-32"/>
     <use x="1267.333984" xlink:href="#ArialMT-109"/>
     <use x="1350.634766" xlink:href="#ArialMT-111"/>
     <use x="1406.25" xlink:href="#ArialMT-118"/>
     <use x="1456.25" xlink:href="#ArialMT-101"/>
     <use x="1511.865234" xlink:href="#ArialMT-109"/>
     <use x="1595.166016" xlink:href="#ArialMT-101"/>
     <use x="1650.78125" xlink:href="#ArialMT-110"/>
     <use x="1706.396484" xlink:href="#ArialMT-116"/>
     <use x="1734.179688" xlink:href="#ArialMT-32"/>
     <use x="1761.962891" xlink:href="#ArialMT-118"/>
     <use x="1811.962891" xlink:href="#ArialMT-101"/>
     <use x="1867.578125" xlink:href="#ArialMT-108"/>
     <use x="1889.794922" xlink:href="#ArialMT-111"/>
     <use x="1945.410156" xlink:href="#ArialMT-99"/>
     <use x="1995.410156" xlink:href="#ArialMT-105"/>
     <use x="2017.626953" xlink:href="#ArialMT-116"/>
     <use x="2045.410156" xlink:href="#ArialMT-121"/>
     <use x="2095.410156" xlink:href="#ArialMT-32"/>
     <use x="2123.193359" xlink:href="#ArialMT-111"/>
     <use x="2178.808594" xlink:href="#ArialMT-110"/>
     <use x="2234.423828" xlink:href="#ArialMT-32"/>
     <use x="2262.207031" xlink:href="#ArialMT-116"/>
     <use x="2289.990234" xlink:href="#ArialMT-104"/>
     <use x="2345.605469" xlink:href="#ArialMT-101"/>
     <use x="2401.220703" xlink:href="#ArialMT-32"/>
     <use x="2429.003906" xlink:href="#ArialMT-115"/>
     <use x="2479.003906" xlink:href="#ArialMT-99"/>
     <use x="2529.003906" xlink:href="#ArialMT-114"/>
     <use x="2562.304688" xlink:href="#ArialMT-101"/>
     <use x="2617.919922" xlink:href="#ArialMT-101"/>
     <use x="2673.535156" xlink:href="#ArialMT-110"/>
     <use x="2729.150391" xlink:href="#ArialMT-32"/>
     <use x="2756.933594" xlink:href="#ArialMT-45"/>
     <use x="2790.234375" xlink:href="#ArialMT-32"/>
     <use x="2818.017578" xlink:href="#ArialMT-78"/>
     <use x="2890.234375" xlink:href="#ArialMT-101"/>
     <use x="2945.849609" xlink:href="#ArialMT-119"/>
     <use x="3018.066406" xlink:href="#ArialMT-77"/>
     <use x="3101.367188" xlink:href="#ArialMT-49"/>
     <use x="3156.982422" xlink:href="#ArialMT-95"/>
     <use x="3212.597656" xlink:href="#ArialMT-49"/>
     <use x="3268.212891" xlink:href="#ArialMT-50"/>
     <use x="3323.828125" xlink:href="#ArialMT-95"/>
     <use x="3379.443359" xlink:href="#ArialMT-49"/>
     <use x="3435.058594" xlink:href="#ArialMT-50"/>
    </g>
   </g>
   <g id="legend_1">
    <g id="line2d_15">
     <path d="M 198.370313 60.2075 
L 218.370313 60.2075 
" style="fill:none;stroke:#ff0000;stroke-dasharray:7.4,3.2;stroke-dashoffset:0;stroke-width:2;"/>
    </g>
    <g id="line2d_16"/>
    <g id="text_15">
     <!-- Average angle in light: 30.67 degrees -->
     <defs>
      <path d="M -0.140625 0 
L 27.34375 71.578125 
L 37.546875 71.578125 
L 66.84375 0 
L 56.0625 0 
L 47.703125 21.6875 
L 17.78125 21.6875 
L 9.90625 0 
z
M 20.515625 29.390625 
L 44.78125 29.390625 
L 37.3125 49.21875 
Q 33.890625 58.25 32.234375 64.0625 
Q 30.859375 57.171875 28.375 50.390625 
z
" id="ArialMT-65"/>
      <path d="M 40.4375 6.390625 
Q 35.546875 2.25 31.03125 0.53125 
Q 26.515625 -1.171875 21.34375 -1.171875 
Q 12.796875 -1.171875 8.203125 3 
Q 3.609375 7.171875 3.609375 13.671875 
Q 3.609375 17.484375 5.34375 20.625 
Q 7.078125 23.78125 9.890625 25.6875 
Q 12.703125 27.59375 16.21875 28.5625 
Q 18.796875 29.25 24.03125 29.890625 
Q 34.671875 31.15625 39.703125 32.90625 
Q 39.75 34.71875 39.75 35.203125 
Q 39.75 40.578125 37.25 42.78125 
Q 33.890625 45.75 27.25 45.75 
Q 21.046875 45.75 18.09375 43.578125 
Q 15.140625 41.40625 13.71875 35.890625 
L 5.125 37.0625 
Q 6.296875 42.578125 8.984375 45.96875 
Q 11.671875 49.359375 16.75 51.1875 
Q 21.828125 53.03125 28.515625 53.03125 
Q 35.15625 53.03125 39.296875 51.46875 
Q 43.453125 49.90625 45.40625 47.53125 
Q 47.359375 45.171875 48.140625 41.546875 
Q 48.578125 39.3125 48.578125 33.453125 
L 48.578125 21.734375 
Q 48.578125 9.46875 49.140625 6.21875 
Q 49.703125 2.984375 51.375 0 
L 42.1875 0 
Q 40.828125 2.734375 40.4375 6.390625 
z
M 39.703125 26.03125 
Q 34.90625 24.078125 25.34375 22.703125 
Q 19.921875 21.921875 17.671875 20.9375 
Q 15.4375 19.96875 14.203125 18.09375 
Q 12.984375 16.21875 12.984375 13.921875 
Q 12.984375 10.40625 15.640625 8.0625 
Q 18.3125 5.71875 23.4375 5.71875 
Q 28.515625 5.71875 32.46875 7.9375 
Q 36.421875 10.15625 38.28125 14.015625 
Q 39.703125 17 39.703125 22.796875 
z
" id="ArialMT-97"/>
      <path d="M 4.984375 -4.296875 
L 13.53125 -5.5625 
Q 14.0625 -9.515625 16.5 -11.328125 
Q 19.78125 -13.765625 25.4375 -13.765625 
Q 31.546875 -13.765625 34.859375 -11.328125 
Q 38.1875 -8.890625 39.359375 -4.5 
Q 40.046875 -1.8125 39.984375 6.78125 
Q 34.234375 0 25.640625 0 
Q 14.9375 0 9.078125 7.71875 
Q 3.21875 15.4375 3.21875 26.21875 
Q 3.21875 33.640625 5.90625 39.90625 
Q 8.59375 46.1875 13.6875 49.609375 
Q 18.796875 53.03125 25.6875 53.03125 
Q 34.859375 53.03125 40.828125 45.609375 
L 40.828125 51.859375 
L 48.921875 51.859375 
L 48.921875 7.03125 
Q 48.921875 -5.078125 46.453125 -10.125 
Q 44 -15.1875 38.640625 -18.109375 
Q 33.296875 -21.046875 25.484375 -21.046875 
Q 16.21875 -21.046875 10.5 -16.875 
Q 4.78125 -12.703125 4.984375 -4.296875 
z
M 12.25 26.859375 
Q 12.25 16.65625 16.296875 11.96875 
Q 20.359375 7.28125 26.46875 7.28125 
Q 32.515625 7.28125 36.609375 11.9375 
Q 40.71875 16.609375 40.71875 26.5625 
Q 40.71875 36.078125 36.5 40.90625 
Q 32.28125 45.75 26.3125 45.75 
Q 20.453125 45.75 16.34375 40.984375 
Q 12.25 36.234375 12.25 26.859375 
z
" id="ArialMT-103"/>
      <path d="M 9.03125 41.84375 
L 9.03125 51.859375 
L 19.046875 51.859375 
L 19.046875 41.84375 
z
M 9.03125 0 
L 9.03125 10.015625 
L 19.046875 10.015625 
L 19.046875 0 
z
" id="ArialMT-58"/>
      <path d="M 49.75 54.046875 
L 41.015625 53.375 
Q 39.84375 58.546875 37.703125 60.890625 
Q 34.125 64.65625 28.90625 64.65625 
Q 24.703125 64.65625 21.53125 62.3125 
Q 17.390625 59.28125 14.984375 53.46875 
Q 12.59375 47.65625 12.5 36.921875 
Q 15.671875 41.75 20.265625 44.09375 
Q 24.859375 46.4375 29.890625 46.4375 
Q 38.671875 46.4375 44.84375 39.96875 
Q 51.03125 33.5 51.03125 23.25 
Q 51.03125 16.5 48.125 10.71875 
Q 45.21875 4.9375 40.140625 1.859375 
Q 35.0625 -1.21875 28.609375 -1.21875 
Q 17.625 -1.21875 10.6875 6.859375 
Q 3.765625 14.9375 3.765625 33.5 
Q 3.765625 54.25 11.421875 63.671875 
Q 18.109375 71.875 29.4375 71.875 
Q 37.890625 71.875 43.28125 67.140625 
Q 48.6875 62.40625 49.75 54.046875 
z
M 13.875 23.1875 
Q 13.875 18.65625 15.796875 14.5 
Q 17.71875 10.359375 21.1875 8.171875 
Q 24.65625 6 28.46875 6 
Q 34.03125 6 38.03125 10.484375 
Q 42.046875 14.984375 42.046875 22.703125 
Q 42.046875 30.125 38.078125 34.390625 
Q 34.125 38.671875 28.125 38.671875 
Q 22.171875 38.671875 18.015625 34.390625 
Q 13.875 30.125 13.875 23.1875 
z
" id="ArialMT-54"/>
     </defs>
     <g style="fill:#262626;" transform="translate(226.370313 63.7075)scale(0.1 -0.1)">
      <use xlink:href="#ArialMT-65"/>
      <use x="66.683594" xlink:href="#ArialMT-118"/>
      <use x="116.683594" xlink:href="#ArialMT-101"/>
      <use x="172.298828" xlink:href="#ArialMT-114"/>
      <use x="205.599609" xlink:href="#ArialMT-97"/>
      <use x="261.214844" xlink:href="#ArialMT-103"/>
      <use x="316.830078" xlink:href="#ArialMT-101"/>
      <use x="372.445312" xlink:href="#ArialMT-32"/>
      <use x="400.228516" xlink:href="#ArialMT-97"/>
      <use x="455.84375" xlink:href="#ArialMT-110"/>
      <use x="511.458984" xlink:href="#ArialMT-103"/>
      <use x="567.074219" xlink:href="#ArialMT-108"/>
      <use x="589.291016" xlink:href="#ArialMT-101"/>
      <use x="644.90625" xlink:href="#ArialMT-32"/>
      <use x="672.689453" xlink:href="#ArialMT-105"/>
      <use x="694.90625" xlink:href="#ArialMT-110"/>
      <use x="750.521484" xlink:href="#ArialMT-32"/>
      <use x="778.304688" xlink:href="#ArialMT-108"/>
      <use x="800.521484" xlink:href="#ArialMT-105"/>
      <use x="822.738281" xlink:href="#ArialMT-103"/>
      <use x="878.353516" xlink:href="#ArialMT-104"/>
      <use x="933.96875" xlink:href="#ArialMT-116"/>
      <use x="961.751953" xlink:href="#ArialMT-58"/>
      <use x="989.535156" xlink:href="#ArialMT-32"/>
      <use x="1017.318359" xlink:href="#ArialMT-51"/>
      <use x="1072.933594" xlink:href="#ArialMT-48"/>
      <use x="1128.548828" xlink:href="#ArialMT-46"/>
      <use x="1156.332031" xlink:href="#ArialMT-54"/>
      <use x="1211.947266" xlink:href="#ArialMT-55"/>
      <use x="1267.5625" xlink:href="#ArialMT-32"/>
      <use x="1295.345703" xlink:href="#ArialMT-100"/>
      <use x="1350.960938" xlink:href="#ArialMT-101"/>
      <use x="1406.576172" xlink:href="#ArialMT-103"/>
      <use x="1462.191406" xlink:href="#ArialMT-114"/>
      <use x="1495.492188" xlink:href="#ArialMT-101"/>
      <use x="1551.107422" xlink:href="#ArialMT-101"/>
      <use x="1606.722656" xlink:href="#ArialMT-115"/>
     </g>
    </g>
    <g id="PathCollection_4">
     <g>
      <use style="fill:#4c72b0;stroke:#4c72b0;stroke-width:0.3;" x="208.370313" xlink:href="#me549d992d4" y="75.345"/>
     </g>
    </g>
    <g id="text_16">
     <!-- $-0.5 &lt; t &lt; 0.$ -->
     <defs>
      <path d="M 10.59375 35.5 
L 73.1875 35.5 
L 73.1875 27.203125 
L 10.59375 27.203125 
z
" id="DejaVuSans-8722"/>
      <path d="M 31.78125 66.40625 
Q 24.171875 66.40625 20.328125 58.90625 
Q 16.5 51.421875 16.5 36.375 
Q 16.5 21.390625 20.328125 13.890625 
Q 24.171875 6.390625 31.78125 6.390625 
Q 39.453125 6.390625 43.28125 13.890625 
Q 47.125 21.390625 47.125 36.375 
Q 47.125 51.421875 43.28125 58.90625 
Q 39.453125 66.40625 31.78125 66.40625 
z
M 31.78125 74.21875 
Q 44.046875 74.21875 50.515625 64.515625 
Q 56.984375 54.828125 56.984375 36.375 
Q 56.984375 17.96875 50.515625 8.265625 
Q 44.046875 -1.421875 31.78125 -1.421875 
Q 19.53125 -1.421875 13.0625 8.265625 
Q 6.59375 17.96875 6.59375 36.375 
Q 6.59375 54.828125 13.0625 64.515625 
Q 19.53125 74.21875 31.78125 74.21875 
z
" id="DejaVuSans-48"/>
      <path d="M 10.6875 12.40625 
L 21 12.40625 
L 21 0 
L 10.6875 0 
z
" id="DejaVuSans-46"/>
      <path d="M 10.796875 72.90625 
L 49.515625 72.90625 
L 49.515625 64.59375 
L 19.828125 64.59375 
L 19.828125 46.734375 
Q 21.96875 47.46875 24.109375 47.828125 
Q 26.265625 48.1875 28.421875 48.1875 
Q 40.625 48.1875 47.75 41.5 
Q 54.890625 34.8125 54.890625 23.390625 
Q 54.890625 11.625 47.5625 5.09375 
Q 40.234375 -1.421875 26.90625 -1.421875 
Q 22.3125 -1.421875 17.546875 -0.640625 
Q 12.796875 0.140625 7.71875 1.703125 
L 7.71875 11.625 
Q 12.109375 9.234375 16.796875 8.0625 
Q 21.484375 6.890625 26.703125 6.890625 
Q 35.15625 6.890625 40.078125 11.328125 
Q 45.015625 15.765625 45.015625 23.390625 
Q 45.015625 31 40.078125 35.4375 
Q 35.15625 39.890625 26.703125 39.890625 
Q 22.75 39.890625 18.8125 39.015625 
Q 14.890625 38.140625 10.796875 36.28125 
z
" id="DejaVuSans-53"/>
      <path d="M 73.1875 49.21875 
L 22.796875 31.296875 
L 73.1875 13.484375 
L 73.1875 4.59375 
L 10.59375 27.296875 
L 10.59375 35.40625 
L 73.1875 58.109375 
z
" id="DejaVuSans-60"/>
      <path d="M 42.28125 54.6875 
L 40.921875 47.703125 
L 23 47.703125 
L 17.1875 18.015625 
Q 16.890625 16.359375 16.75 15.234375 
Q 16.609375 14.109375 16.609375 13.484375 
Q 16.609375 10.359375 18.484375 8.9375 
Q 20.359375 7.515625 24.515625 7.515625 
L 33.59375 7.515625 
L 32.078125 0 
L 23.484375 0 
Q 15.484375 0 11.546875 3.125 
Q 7.625 6.25 7.625 12.59375 
Q 7.625 13.71875 7.765625 15.0625 
Q 7.90625 16.40625 8.203125 18.015625 
L 14.015625 47.703125 
L 6.390625 47.703125 
L 7.8125 54.6875 
L 15.28125 54.6875 
L 18.3125 70.21875 
L 27.296875 70.21875 
L 24.3125 54.6875 
z
" id="DejaVuSans-Oblique-116"/>
     </defs>
     <g style="fill:#262626;" transform="translate(226.370313 77.97)scale(0.1 -0.1)">
      <use transform="translate(0 0.78125)" xlink:href="#DejaVuSans-8722"/>
      <use transform="translate(83.789062 0.78125)" xlink:href="#DejaVuSans-48"/>
      <use transform="translate(147.412109 0.78125)" xlink:href="#DejaVuSans-46"/>
      <use transform="translate(179.199219 0.78125)" xlink:href="#DejaVuSans-53"/>
      <use transform="translate(262.304688 0.78125)" xlink:href="#DejaVuSans-60"/>
      <use transform="translate(365.576172 0.78125)" xlink:href="#DejaVuSans-Oblique-116"/>
      <use transform="translate(424.267578 0.78125)" xlink:href="#DejaVuSans-60"/>
      <use transform="translate(527.539062 0.78125)" xlink:href="#DejaVuSans-48"/>
     </g>
    </g>
    <g id="PathCollection_5">
     <g>
      <use style="fill:#55a868;stroke:#55a868;stroke-width:0.3;" x="208.370313" xlink:href="#m090d2f0da7" y="89.490312"/>
     </g>
    </g>
    <g id="text_17">
     <!-- $0. &lt; t &lt; 0.5$ -->
     <g style="fill:#262626;" transform="translate(226.370313 92.115312)scale(0.1 -0.1)">
      <use transform="translate(0 0.78125)" xlink:href="#DejaVuSans-48"/>
      <use transform="translate(63.623047 0.78125)" xlink:href="#DejaVuSans-46"/>
      <use transform="translate(134.375 0.78125)" xlink:href="#DejaVuSans-60"/>
      <use transform="translate(237.646484 0.78125)" xlink:href="#DejaVuSans-Oblique-116"/>
      <use transform="translate(296.337891 0.78125)" xlink:href="#DejaVuSans-60"/>
      <use transform="translate(399.609375 0.78125)" xlink:href="#DejaVuSans-48"/>
      <use transform="translate(463.232422 0.78125)" xlink:href="#DejaVuSans-46"/>
      <use transform="translate(495.019531 0.78125)" xlink:href="#DejaVuSans-53"/>
     </g>
    </g>
    <g id="PathCollection_6">
     <g>
      <use style="fill:#c44e52;stroke:#c44e52;stroke-width:0.3;" x="208.370313" xlink:href="#meb4a95db8f" y="103.635625"/>
     </g>
    </g>
    <g id="text_18">
     <!-- $0.5 &lt; t &lt; 1.$ -->
     <defs>
      <path d="M 12.40625 8.296875 
L 28.515625 8.296875 
L 28.515625 63.921875 
L 10.984375 60.40625 
L 10.984375 69.390625 
L 28.421875 72.90625 
L 38.28125 72.90625 
L 38.28125 8.296875 
L 54.390625 8.296875 
L 54.390625 0 
L 12.40625 0 
z
" id="DejaVuSans-49"/>
     </defs>
     <g style="fill:#262626;" transform="translate(226.370313 106.260625)scale(0.1 -0.1)">
      <use transform="translate(0 0.78125)" xlink:href="#DejaVuSans-48"/>
      <use transform="translate(63.623047 0.78125)" xlink:href="#DejaVuSans-46"/>
      <use transform="translate(95.410156 0.78125)" xlink:href="#DejaVuSans-53"/>
      <use transform="translate(178.515625 0.78125)" xlink:href="#DejaVuSans-60"/>
      <use transform="translate(281.787109 0.78125)" xlink:href="#DejaVuSans-Oblique-116"/>
      <use transform="translate(340.478516 0.78125)" xlink:href="#DejaVuSans-60"/>
      <use transform="translate(443.75 0.78125)" xlink:href="#DejaVuSans-49"/>
     </g>
    </g>
   </g>
  </g>
 </g>
 <defs>
  <clipPath id="pe11f55b2a8">
   <path d="M 447.66 199.98 
C 447.66 179.959136 443.716326 160.13295 436.054674 141.636084 
C 428.393021 123.139218 417.162388 106.331389 403.0055 92.1745 
C 388.848611 78.017612 372.040782 66.786979 353.543916 59.125326 
C 335.04705 51.463674 315.220864 47.52 295.2 47.52 
C 275.179136 47.52 255.35295 51.463674 236.856084 59.125326 
C 218.359218 66.786979 201.551389 78.017612 187.3945 92.1745 
C 173.237612 106.331389 162.006979 123.139218 154.345326 141.636084 
C 146.683674 160.13295 142.74 179.959136 142.74 199.98 
C 142.74 220.000864 146.683674 239.82705 154.345326 258.323916 
C 162.006979 276.820782 173.237612 293.628611 187.3945 307.7855 
C 201.551389 321.942388 218.359218 333.173021 236.856084 340.834674 
C 255.35295 348.496326 275.179136 352.44 295.2 352.44 
C 315.220864 352.44 335.04705 348.496326 353.543916 340.834674 
C 372.040782 333.173021 388.848611 321.942388 403.0055 307.7855 
C 417.162388 293.628611 428.393021 276.820782 436.054674 258.323916 
C 443.716326 239.82705 447.66 220.000864 447.66 199.98 
M 295.2 199.98 
C 295.2 199.98 295.2 199.98 295.2 199.98 
C 295.2 199.98 295.2 199.98 295.2 199.98 
C 295.2 199.98 295.2 199.98 295.2 199.98 
C 295.2 199.98 295.2 199.98 295.2 199.98 
C 295.2 199.98 295.2 199.98 295.2 199.98 
C 295.2 199.98 295.2 199.98 295.2 199.98 
C 295.2 199.98 295.2 199.98 295.2 199.98 
C 295.2 199.98 295.2 199.98 295.2 199.98 
C 295.2 199.98 295.2 199.98 295.2 199.98 
C 295.2 199.98 295.2 199.98 295.2 199.98 
C 295.2 199.98 295.2 199.98 295.2 199.98 
C 295.2 199.98 295.2 199.98 295.2 199.98 
C 295.2 199.98 295.2 199.98 295.2 199.98 
C 295.2 199.98 295.2 199.98 295.2 199.98 
C 295.2 199.98 295.2 199.98 295.2 199.98 
C 295.2 199.98 295.2 199.98 295.2 199.98 
M 447.66 199.98 
z
"/>
  </clipPath>
 </defs>
</svg>
