<?xml version="1.0" encoding="utf-8" standalone="no"?>
<!DOCTYPE svg PUBLIC "-//W3C//DTD SVG 1.1//EN"
  "http://www.w3.org/Graphics/SVG/1.1/DTD/svg11.dtd">
<!-- Created with matplotlib (https://matplotlib.org/) -->
<svg height="396pt" version="1.1" viewBox="0 0 576 396" width="576pt" xmlns="http://www.w3.org/2000/svg" xmlns:xlink="http://www.w3.org/1999/xlink">
 <defs>
  <style type="text/css">
*{stroke-linecap:butt;stroke-linejoin:round;}
  </style>
 </defs>
 <g id="figure_1">
  <g id="patch_1">
   <path d="M 0 396 
L 576 396 
L 576 0 
L 0 0 
z
" style="fill:#ffffff;"/>
  </g>
  <g id="axes_1">
   <g id="patch_2">
    <path d="M 447.66 199.98 
C 447.66 179.959136 443.716326 160.13295 436.054674 141.636084 
C 428.393021 123.139218 417.162388 106.331389 403.0055 92.1745 
C 388.848611 78.017612 372.040782 66.786979 353.543916 59.125326 
C 335.04705 51.463674 315.220864 47.52 295.2 47.52 
C 275.179136 47.52 255.35295 51.463674 236.856084 59.125326 
C 218.359218 66.786979 201.551389 78.017612 187.3945 92.1745 
C 173.237612 106.331389 162.006979 123.139218 154.345326 141.636084 
C 146.683674 160.13295 142.74 179.959136 142.74 199.98 
C 142.74 220.000864 146.683674 239.82705 154.345326 258.323916 
C 162.006979 276.820782 173.237612 293.628611 187.3945 307.7855 
C 201.551389 321.942388 218.359218 333.173021 236.856084 340.834674 
C 255.35295 348.496326 275.179136 352.44 295.2 352.44 
C 315.220864 352.44 335.04705 348.496326 353.543916 340.834674 
C 372.040782 333.173021 388.848611 321.942388 403.0055 307.7855 
C 417.162388 293.628611 428.393021 276.820782 436.054674 258.323916 
C 443.716326 239.82705 447.66 220.000864 447.66 199.98 
M 295.2 199.98 
C 295.2 199.98 295.2 199.98 295.2 199.98 
C 295.2 199.98 295.2 199.98 295.2 199.98 
C 295.2 199.98 295.2 199.98 295.2 199.98 
C 295.2 199.98 295.2 199.98 295.2 199.98 
C 295.2 199.98 295.2 199.98 295.2 199.98 
C 295.2 199.98 295.2 199.98 295.2 199.98 
C 295.2 199.98 295.2 199.98 295.2 199.98 
C 295.2 199.98 295.2 199.98 295.2 199.98 
C 295.2 199.98 295.2 199.98 295.2 199.98 
C 295.2 199.98 295.2 199.98 295.2 199.98 
C 295.2 199.98 295.2 199.98 295.2 199.98 
C 295.2 199.98 295.2 199.98 295.2 199.98 
C 295.2 199.98 295.2 199.98 295.2 199.98 
C 295.2 199.98 295.2 199.98 295.2 199.98 
C 295.2 199.98 295.2 199.98 295.2 199.98 
C 295.2 199.98 295.2 199.98 295.2 199.98 
M 447.66 199.98 
z
" style="fill:#eaeaf2;"/>
   </g>
   <g id="matplotlib.axis_1">
    <g id="xtick_1">
     <g id="line2d_1">
      <path clip-path="url(#pec865e4895)" d="M 295.2 199.98 
L 447.66 199.98 
" style="fill:none;stroke:#ffffff;stroke-linecap:round;"/>
     </g>
     <g id="text_1">
      <!-- 0° -->
      <defs>
       <path d="M 4.15625 35.296875 
Q 4.15625 48 6.765625 55.734375 
Q 9.375 63.484375 14.515625 67.671875 
Q 19.671875 71.875 27.484375 71.875 
Q 33.25 71.875 37.59375 69.546875 
Q 41.9375 67.234375 44.765625 62.859375 
Q 47.609375 58.5 49.21875 52.21875 
Q 50.828125 45.953125 50.828125 35.296875 
Q 50.828125 22.703125 48.234375 14.96875 
Q 45.65625 7.234375 40.5 3 
Q 35.359375 -1.21875 27.484375 -1.21875 
Q 17.140625 -1.21875 11.234375 6.203125 
Q 4.15625 15.140625 4.15625 35.296875 
z
M 13.1875 35.296875 
Q 13.1875 17.671875 17.3125 11.828125 
Q 21.4375 6 27.484375 6 
Q 33.546875 6 37.671875 11.859375 
Q 41.796875 17.71875 41.796875 35.296875 
Q 41.796875 52.984375 37.671875 58.78125 
Q 33.546875 64.59375 27.390625 64.59375 
Q 21.34375 64.59375 17.71875 59.46875 
Q 13.1875 52.9375 13.1875 35.296875 
z
" id="ArialMT-48"/>
       <path d="M 6.25 59.28125 
Q 6.25 64.890625 10.21875 68.84375 
Q 14.203125 72.796875 19.78125 72.796875 
Q 25.4375 72.796875 29.390625 68.84375 
Q 33.34375 64.890625 33.34375 59.28125 
Q 33.34375 53.65625 29.359375 49.671875 
Q 25.390625 45.703125 19.78125 45.703125 
Q 14.203125 45.703125 10.21875 49.65625 
Q 6.25 53.609375 6.25 59.28125 
z
M 11.578125 59.28125 
Q 11.578125 55.859375 13.984375 53.4375 
Q 16.40625 51.03125 19.828125 51.03125 
Q 23.1875 51.03125 25.609375 53.4375 
Q 28.03125 55.859375 28.03125 59.28125 
Q 28.03125 62.703125 25.609375 65.109375 
Q 23.1875 67.53125 19.828125 67.53125 
Q 16.40625 67.53125 13.984375 65.109375 
Q 11.578125 62.703125 11.578125 59.28125 
z
" id="ArialMT-176"/>
      </defs>
      <g style="fill:#262626;" transform="translate(456.880312 202.565156)scale(0.1 -0.1)">
       <use xlink:href="#ArialMT-48"/>
       <use x="55.615234" xlink:href="#ArialMT-176"/>
      </g>
     </g>
    </g>
    <g id="xtick_2">
     <g id="line2d_2">
      <path clip-path="url(#pec865e4895)" d="M 295.2 199.98 
L 403.0055 92.1745 
" style="fill:none;stroke:#ffffff;stroke-linecap:round;"/>
     </g>
     <g id="text_2">
      <!-- 45° -->
      <defs>
       <path d="M 32.328125 0 
L 32.328125 17.140625 
L 1.265625 17.140625 
L 1.265625 25.203125 
L 33.9375 71.578125 
L 41.109375 71.578125 
L 41.109375 25.203125 
L 50.78125 25.203125 
L 50.78125 17.140625 
L 41.109375 17.140625 
L 41.109375 0 
z
M 32.328125 25.203125 
L 32.328125 57.46875 
L 9.90625 25.203125 
z
" id="ArialMT-52"/>
       <path d="M 4.15625 18.75 
L 13.375 19.53125 
Q 14.40625 12.796875 18.140625 9.390625 
Q 21.875 6 27.15625 6 
Q 33.5 6 37.890625 10.78125 
Q 42.28125 15.578125 42.28125 23.484375 
Q 42.28125 31 38.0625 35.34375 
Q 33.84375 39.703125 27 39.703125 
Q 22.75 39.703125 19.328125 37.765625 
Q 15.921875 35.84375 13.96875 32.765625 
L 5.71875 33.84375 
L 12.640625 70.609375 
L 48.25 70.609375 
L 48.25 62.203125 
L 19.671875 62.203125 
L 15.828125 42.96875 
Q 22.265625 47.46875 29.34375 47.46875 
Q 38.71875 47.46875 45.15625 40.96875 
Q 51.609375 34.46875 51.609375 24.265625 
Q 51.609375 14.546875 45.953125 7.46875 
Q 39.0625 -1.21875 27.15625 -1.21875 
Q 17.390625 -1.21875 11.203125 4.25 
Q 5.03125 9.71875 4.15625 18.75 
z
" id="ArialMT-53"/>
      </defs>
      <g style="fill:#262626;" transform="translate(405.344839 84.860161)scale(0.1 -0.1)">
       <use xlink:href="#ArialMT-52"/>
       <use x="55.615234" xlink:href="#ArialMT-53"/>
       <use x="111.230469" xlink:href="#ArialMT-176"/>
      </g>
     </g>
    </g>
    <g id="xtick_3">
     <g id="line2d_3">
      <path clip-path="url(#pec865e4895)" d="M 295.2 199.98 
L 295.2 47.52 
" style="fill:none;stroke:#ffffff;stroke-linecap:round;"/>
     </g>
     <g id="text_3">
      <!-- 90° -->
      <defs>
       <path d="M 5.46875 16.546875 
L 13.921875 17.328125 
Q 14.984375 11.375 18.015625 8.6875 
Q 21.046875 6 25.78125 6 
Q 29.828125 6 32.875 7.859375 
Q 35.9375 9.71875 37.890625 12.8125 
Q 39.84375 15.921875 41.15625 21.1875 
Q 42.484375 26.46875 42.484375 31.9375 
Q 42.484375 32.515625 42.4375 33.6875 
Q 39.796875 29.5 35.234375 26.875 
Q 30.671875 24.265625 25.34375 24.265625 
Q 16.453125 24.265625 10.296875 30.703125 
Q 4.15625 37.15625 4.15625 47.703125 
Q 4.15625 58.59375 10.578125 65.234375 
Q 17 71.875 26.65625 71.875 
Q 33.640625 71.875 39.421875 68.109375 
Q 45.21875 64.359375 48.21875 57.390625 
Q 51.21875 50.4375 51.21875 37.25 
Q 51.21875 23.53125 48.234375 15.40625 
Q 45.265625 7.28125 39.375 3.03125 
Q 33.5 -1.21875 25.59375 -1.21875 
Q 17.1875 -1.21875 11.859375 3.4375 
Q 6.546875 8.109375 5.46875 16.546875 
z
M 41.453125 48.140625 
Q 41.453125 55.71875 37.421875 60.15625 
Q 33.40625 64.59375 27.734375 64.59375 
Q 21.875 64.59375 17.53125 59.8125 
Q 13.1875 55.03125 13.1875 47.40625 
Q 13.1875 40.578125 17.3125 36.296875 
Q 21.4375 32.03125 27.484375 32.03125 
Q 33.59375 32.03125 37.515625 36.296875 
Q 41.453125 40.578125 41.453125 48.140625 
z
" id="ArialMT-57"/>
      </defs>
      <g style="fill:#262626;" transform="translate(287.639844 36.105156)scale(0.1 -0.1)">
       <use xlink:href="#ArialMT-57"/>
       <use x="55.615234" xlink:href="#ArialMT-48"/>
       <use x="111.230469" xlink:href="#ArialMT-176"/>
      </g>
     </g>
    </g>
    <g id="xtick_4">
     <g id="line2d_4">
      <path clip-path="url(#pec865e4895)" d="M 295.2 199.98 
L 187.3945 92.1745 
" style="fill:none;stroke:#ffffff;stroke-linecap:round;"/>
     </g>
     <g id="text_4">
      <!-- 135° -->
      <defs>
       <path d="M 37.25 0 
L 28.46875 0 
L 28.46875 56 
Q 25.296875 52.984375 20.140625 49.953125 
Q 14.984375 46.921875 10.890625 45.40625 
L 10.890625 53.90625 
Q 18.265625 57.375 23.78125 62.296875 
Q 29.296875 67.234375 31.59375 71.875 
L 37.25 71.875 
z
" id="ArialMT-49"/>
       <path d="M 4.203125 18.890625 
L 12.984375 20.0625 
Q 14.5 12.59375 18.140625 9.296875 
Q 21.78125 6 27 6 
Q 33.203125 6 37.46875 10.296875 
Q 41.75 14.59375 41.75 20.953125 
Q 41.75 27 37.796875 30.921875 
Q 33.84375 34.859375 27.734375 34.859375 
Q 25.25 34.859375 21.53125 33.890625 
L 22.515625 41.609375 
Q 23.390625 41.5 23.921875 41.5 
Q 29.546875 41.5 34.03125 44.421875 
Q 38.53125 47.359375 38.53125 53.46875 
Q 38.53125 58.296875 35.25 61.46875 
Q 31.984375 64.65625 26.8125 64.65625 
Q 21.6875 64.65625 18.265625 61.421875 
Q 14.84375 58.203125 13.875 51.765625 
L 5.078125 53.328125 
Q 6.6875 62.15625 12.390625 67.015625 
Q 18.109375 71.875 26.609375 71.875 
Q 32.46875 71.875 37.390625 69.359375 
Q 42.328125 66.84375 44.9375 62.5 
Q 47.5625 58.15625 47.5625 53.265625 
Q 47.5625 48.640625 45.0625 44.828125 
Q 42.578125 41.015625 37.703125 38.765625 
Q 44.046875 37.3125 47.5625 32.6875 
Q 51.078125 28.078125 51.078125 21.140625 
Q 51.078125 11.765625 44.234375 5.25 
Q 37.40625 -1.265625 26.953125 -1.265625 
Q 17.53125 -1.265625 11.296875 4.34375 
Q 5.078125 9.96875 4.203125 18.890625 
z
" id="ArialMT-51"/>
      </defs>
      <g style="fill:#262626;" transform="translate(167.15438 84.860161)scale(0.1 -0.1)">
       <use xlink:href="#ArialMT-49"/>
       <use x="55.615234" xlink:href="#ArialMT-51"/>
       <use x="111.230469" xlink:href="#ArialMT-53"/>
       <use x="166.845703" xlink:href="#ArialMT-176"/>
      </g>
     </g>
    </g>
    <g id="xtick_5">
     <g id="line2d_5">
      <path clip-path="url(#pec865e4895)" d="M 295.2 199.98 
L 142.74 199.98 
" style="fill:none;stroke:#ffffff;stroke-linecap:round;"/>
     </g>
     <g id="text_5">
      <!-- 180° -->
      <defs>
       <path d="M 17.671875 38.8125 
Q 12.203125 40.828125 9.5625 44.53125 
Q 6.9375 48.25 6.9375 53.421875 
Q 6.9375 61.234375 12.546875 66.546875 
Q 18.171875 71.875 27.484375 71.875 
Q 36.859375 71.875 42.578125 66.421875 
Q 48.296875 60.984375 48.296875 53.171875 
Q 48.296875 48.1875 45.671875 44.5 
Q 43.0625 40.828125 37.75 38.8125 
Q 44.34375 36.671875 47.78125 31.875 
Q 51.21875 27.09375 51.21875 20.453125 
Q 51.21875 11.28125 44.71875 5.03125 
Q 38.234375 -1.21875 27.640625 -1.21875 
Q 17.046875 -1.21875 10.546875 5.046875 
Q 4.046875 11.328125 4.046875 20.703125 
Q 4.046875 27.6875 7.59375 32.390625 
Q 11.140625 37.109375 17.671875 38.8125 
z
M 15.921875 53.71875 
Q 15.921875 48.640625 19.1875 45.40625 
Q 22.46875 42.1875 27.6875 42.1875 
Q 32.765625 42.1875 36.015625 45.375 
Q 39.265625 48.578125 39.265625 53.21875 
Q 39.265625 58.0625 35.90625 61.359375 
Q 32.5625 64.65625 27.59375 64.65625 
Q 22.5625 64.65625 19.234375 61.421875 
Q 15.921875 58.203125 15.921875 53.71875 
z
M 13.09375 20.65625 
Q 13.09375 16.890625 14.875 13.375 
Q 16.65625 9.859375 20.171875 7.921875 
Q 23.6875 6 27.734375 6 
Q 34.03125 6 38.125 10.046875 
Q 42.234375 14.109375 42.234375 20.359375 
Q 42.234375 26.703125 38.015625 30.859375 
Q 33.796875 35.015625 27.4375 35.015625 
Q 21.234375 35.015625 17.15625 30.90625 
Q 13.09375 26.8125 13.09375 20.65625 
z
" id="ArialMT-56"/>
      </defs>
      <g style="fill:#262626;" transform="translate(118.399375 202.565156)scale(0.1 -0.1)">
       <use xlink:href="#ArialMT-49"/>
       <use x="55.615234" xlink:href="#ArialMT-56"/>
       <use x="111.230469" xlink:href="#ArialMT-48"/>
       <use x="166.845703" xlink:href="#ArialMT-176"/>
      </g>
     </g>
    </g>
    <g id="xtick_6">
     <g id="line2d_6">
      <path clip-path="url(#pec865e4895)" d="M 295.2 199.98 
L 187.3945 307.7855 
" style="fill:none;stroke:#ffffff;stroke-linecap:round;"/>
     </g>
     <g id="text_6">
      <!-- 225° -->
      <defs>
       <path d="M 50.34375 8.453125 
L 50.34375 0 
L 3.03125 0 
Q 2.9375 3.171875 4.046875 6.109375 
Q 5.859375 10.9375 9.828125 15.625 
Q 13.8125 20.3125 21.34375 26.46875 
Q 33.015625 36.03125 37.109375 41.625 
Q 41.21875 47.21875 41.21875 52.203125 
Q 41.21875 57.421875 37.46875 61 
Q 33.734375 64.59375 27.734375 64.59375 
Q 21.390625 64.59375 17.578125 60.78125 
Q 13.765625 56.984375 13.71875 50.25 
L 4.6875 51.171875 
Q 5.609375 61.28125 11.65625 66.578125 
Q 17.71875 71.875 27.9375 71.875 
Q 38.234375 71.875 44.234375 66.15625 
Q 50.25 60.453125 50.25 52 
Q 50.25 47.703125 48.484375 43.546875 
Q 46.734375 39.40625 42.65625 34.8125 
Q 38.578125 30.21875 29.109375 22.21875 
Q 21.1875 15.578125 18.9375 13.203125 
Q 16.703125 10.84375 15.234375 8.453125 
z
" id="ArialMT-50"/>
      </defs>
      <g style="fill:#262626;" transform="translate(167.15438 320.270151)scale(0.1 -0.1)">
       <use xlink:href="#ArialMT-50"/>
       <use x="55.615234" xlink:href="#ArialMT-50"/>
       <use x="111.230469" xlink:href="#ArialMT-53"/>
       <use x="166.845703" xlink:href="#ArialMT-176"/>
      </g>
     </g>
    </g>
    <g id="xtick_7">
     <g id="line2d_7">
      <path clip-path="url(#pec865e4895)" d="M 295.2 199.98 
L 295.2 352.44 
" style="fill:none;stroke:#ffffff;stroke-linecap:round;"/>
     </g>
     <g id="text_7">
      <!-- 270° -->
      <defs>
       <path d="M 4.734375 62.203125 
L 4.734375 70.65625 
L 51.078125 70.65625 
L 51.078125 63.8125 
Q 44.234375 56.546875 37.515625 44.484375 
Q 30.8125 32.421875 27.15625 19.671875 
Q 24.515625 10.6875 23.78125 0 
L 14.75 0 
Q 14.890625 8.453125 18.0625 20.40625 
Q 21.234375 32.375 27.171875 43.484375 
Q 33.109375 54.59375 39.796875 62.203125 
z
" id="ArialMT-55"/>
      </defs>
      <g style="fill:#262626;" transform="translate(284.859375 369.025156)scale(0.1 -0.1)">
       <use xlink:href="#ArialMT-50"/>
       <use x="55.615234" xlink:href="#ArialMT-55"/>
       <use x="111.230469" xlink:href="#ArialMT-48"/>
       <use x="166.845703" xlink:href="#ArialMT-176"/>
      </g>
     </g>
    </g>
    <g id="xtick_8">
     <g id="line2d_8">
      <path clip-path="url(#pec865e4895)" d="M 295.2 199.98 
L 403.0055 307.7855 
" style="fill:none;stroke:#ffffff;stroke-linecap:round;"/>
     </g>
     <g id="text_8">
      <!-- 315° -->
      <g style="fill:#262626;" transform="translate(402.56437 320.270151)scale(0.1 -0.1)">
       <use xlink:href="#ArialMT-51"/>
       <use x="55.615234" xlink:href="#ArialMT-49"/>
       <use x="111.230469" xlink:href="#ArialMT-53"/>
       <use x="166.845703" xlink:href="#ArialMT-176"/>
      </g>
     </g>
    </g>
   </g>
   <g id="matplotlib.axis_2">
    <g id="ytick_1">
     <g id="line2d_9">
      <path clip-path="url(#pec865e4895)" d="M 312.34857 199.98 
L 312.254629 198.187486 
L 311.973833 196.414612 
L 311.50926 194.6808 
L 310.865998 193.005048 
L 310.051098 191.405715 
L 309.073485 189.900323 
L 307.943871 188.505367 
L 306.674633 187.236129 
L 305.279677 186.106515 
L 303.774285 185.128902 
L 302.174952 184.314002 
L 300.4992 183.67074 
L 298.765388 183.206167 
L 296.992514 182.925371 
L 295.2 182.83143 
L 293.407486 182.925371 
L 291.634612 183.206167 
L 289.9008 183.67074 
L 288.225048 184.314002 
L 286.625715 185.128902 
L 285.120323 186.106515 
L 283.725367 187.236129 
L 282.456129 188.505367 
L 281.326515 189.900323 
L 280.348902 191.405715 
L 279.534002 193.005048 
L 278.89074 194.6808 
L 278.426167 196.414612 
L 278.145371 198.187486 
L 278.05143 199.98 
L 278.145371 201.772514 
L 278.426167 203.545388 
L 278.89074 205.2792 
L 279.534002 206.954952 
L 280.348902 208.554285 
L 281.326515 210.059677 
L 282.456129 211.454633 
L 283.725367 212.723871 
L 285.120323 213.853485 
L 286.625715 214.831098 
L 288.225048 215.645998 
L 289.9008 216.28926 
L 291.634612 216.753833 
L 293.407486 217.034629 
L 295.2 217.12857 
L 296.992514 217.034629 
L 298.765388 216.753833 
L 300.4992 216.28926 
L 302.174952 215.645998 
L 303.774285 214.831098 
L 305.279677 213.853485 
L 306.674633 212.723871 
L 307.943871 211.454633 
L 309.073485 210.059677 
L 310.051098 208.554285 
L 310.865998 206.954952 
L 311.50926 205.2792 
L 311.973833 203.545388 
L 312.254629 201.772514 
L 312.34857 199.98 
L 312.34857 199.98 
" style="fill:none;stroke:#ffffff;stroke-linecap:round;"/>
     </g>
     <g id="text_9">
      <!-- 0.05 -->
      <defs>
       <path d="M 9.078125 0 
L 9.078125 10.015625 
L 19.09375 10.015625 
L 19.09375 0 
z
" id="ArialMT-46"/>
      </defs>
      <g style="fill:#262626;" transform="translate(311.043213 191.430026)scale(0.1 -0.1)">
       <use xlink:href="#ArialMT-48"/>
       <use x="55.615234" xlink:href="#ArialMT-46"/>
       <use x="83.398438" xlink:href="#ArialMT-48"/>
       <use x="139.013672" xlink:href="#ArialMT-53"/>
      </g>
     </g>
    </g>
    <g id="ytick_2">
     <g id="line2d_10">
      <path clip-path="url(#pec865e4895)" d="M 329.497141 199.98 
L 329.413594 197.587552 
L 329.163363 195.206761 
L 328.747666 192.849224 
L 328.168528 190.526427 
L 327.42877 188.249687 
L 326.531997 186.030096 
L 325.482578 183.878468 
L 324.285625 181.805284 
L 322.94697 179.820647 
L 321.473134 177.934223 
L 319.871298 176.155204 
L 318.149266 174.492257 
L 316.315428 172.953484 
L 314.378718 171.546382 
L 312.34857 170.277805 
L 310.234877 169.153934 
L 308.047935 168.180245 
L 305.798399 167.361481 
L 303.497229 166.701631 
L 301.155636 166.20391 
L 298.785027 165.870743 
L 296.396953 165.703752 
L 294.003047 165.703752 
L 291.614973 165.870743 
L 289.244364 166.20391 
L 286.902771 166.701631 
L 284.601601 167.361481 
L 282.352065 168.180245 
L 280.165123 169.153934 
L 278.05143 170.277805 
L 276.021282 171.546382 
L 274.084572 172.953484 
L 272.250734 174.492257 
L 270.528702 176.155204 
L 268.926866 177.934223 
L 267.45303 179.820647 
L 266.114375 181.805284 
L 264.917422 183.878468 
L 263.868003 186.030096 
L 262.97123 188.249687 
L 262.231472 190.526427 
L 261.652334 192.849224 
L 261.236637 195.206761 
L 260.986406 197.587552 
L 260.902859 199.98 
L 260.986406 202.372448 
L 261.236637 204.753239 
L 261.652334 207.110776 
L 262.231472 209.433573 
L 262.97123 211.710313 
L 263.868003 213.929904 
L 264.917422 216.081532 
L 266.114375 218.154716 
L 267.45303 220.139353 
L 268.926866 222.025777 
L 270.528702 223.804796 
L 272.250734 225.467743 
L 274.084572 227.006516 
L 276.021282 228.413618 
L 278.05143 229.682195 
L 280.165123 230.806066 
L 282.352065 231.779755 
L 284.601601 232.598519 
L 286.902771 233.258369 
L 289.244364 233.75609 
L 291.614973 234.089257 
L 294.003047 234.256248 
L 296.396953 234.256248 
L 298.785027 234.089257 
L 301.155636 233.75609 
L 303.497229 233.258369 
L 305.798399 232.598519 
L 308.047935 231.779755 
L 310.234877 230.806066 
L 312.34857 229.682195 
L 314.378718 228.413618 
L 316.315428 227.006516 
L 318.149266 225.467743 
L 319.871298 223.804796 
L 321.473134 222.025777 
L 322.94697 220.139353 
L 324.285625 218.154716 
L 325.482578 216.081532 
L 326.531997 213.929904 
L 327.42877 211.710313 
L 328.168528 209.433573 
L 328.747666 207.110776 
L 329.163363 204.753239 
L 329.413594 202.372448 
L 329.497141 199.98 
L 329.497141 199.98 
" style="fill:none;stroke:#ffffff;stroke-linecap:round;"/>
     </g>
     <g id="text_10">
      <!-- 0.10 -->
      <g style="fill:#262626;" transform="translate(326.886426 184.867553)scale(0.1 -0.1)">
       <use xlink:href="#ArialMT-48"/>
       <use x="55.615234" xlink:href="#ArialMT-46"/>
       <use x="83.398438" xlink:href="#ArialMT-49"/>
       <use x="139.013672" xlink:href="#ArialMT-48"/>
      </g>
     </g>
    </g>
    <g id="ytick_3">
     <g id="line2d_11">
      <path clip-path="url(#pec865e4895)" d="M 346.645711 199.98 
L 346.520392 196.391329 
L 346.145045 192.820141 
L 345.521499 189.283835 
L 344.652791 185.79964 
L 343.543155 182.384531 
L 342.197995 179.055144 
L 340.623867 175.827702 
L 338.828437 172.717927 
L 336.820454 169.74097 
L 334.609701 166.911334 
L 332.206947 164.242806 
L 329.6239 161.748386 
L 326.873142 159.440227 
L 323.968076 157.329573 
L 320.922855 155.426707 
L 317.752315 153.740901 
L 314.471902 152.280367 
L 311.097599 151.052221 
L 307.645844 150.062447 
L 304.133454 149.315865 
L 300.577541 148.816114 
L 296.995429 148.565628 
L 293.404571 148.565628 
L 289.822459 148.816114 
L 286.266546 149.315865 
L 282.754156 150.062447 
L 279.302401 151.052221 
L 275.928098 152.280367 
L 272.647685 153.740901 
L 269.477145 155.426707 
L 266.431924 157.329573 
L 263.526858 159.440227 
L 260.7761 161.748386 
L 258.193053 164.242806 
L 255.790299 166.911334 
L 253.579546 169.74097 
L 251.571563 172.717927 
L 249.776133 175.827702 
L 248.202005 179.055144 
L 246.856845 182.384531 
L 245.747209 185.79964 
L 244.878501 189.283835 
L 244.254955 192.820141 
L 243.879608 196.391329 
L 243.754289 199.98 
L 243.879608 203.568671 
L 244.254955 207.139859 
L 244.878501 210.676165 
L 245.747209 214.16036 
L 246.856845 217.575469 
L 248.202005 220.904856 
L 249.776133 224.132298 
L 251.571563 227.242073 
L 253.579546 230.21903 
L 255.790299 233.048666 
L 258.193053 235.717194 
L 260.7761 238.211614 
L 263.526858 240.519773 
L 266.431924 242.630427 
L 269.477145 244.533293 
L 272.647685 246.219099 
L 275.928098 247.679633 
L 279.302401 248.907779 
L 282.754156 249.897553 
L 286.266546 250.644135 
L 289.822459 251.143886 
L 293.404571 251.394372 
L 296.995429 251.394372 
L 300.577541 251.143886 
L 304.133454 250.644135 
L 307.645844 249.897553 
L 311.097599 248.907779 
L 314.471902 247.679633 
L 317.752315 246.219099 
L 320.922855 244.533293 
L 323.968076 242.630427 
L 326.873142 240.519773 
L 329.6239 238.211614 
L 332.206947 235.717194 
L 334.609701 233.048666 
L 336.820454 230.21903 
L 338.828437 227.242073 
L 340.623867 224.132298 
L 342.197995 220.904856 
L 343.543155 217.575469 
L 344.652791 214.16036 
L 345.521499 210.676165 
L 346.145045 207.139859 
L 346.520392 203.568671 
L 346.645711 199.98 
L 346.645711 199.98 
" style="fill:none;stroke:#ffffff;stroke-linecap:round;"/>
     </g>
     <g id="text_11">
      <!-- 0.15 -->
      <g style="fill:#262626;" transform="translate(342.729639 178.305079)scale(0.1 -0.1)">
       <use xlink:href="#ArialMT-48"/>
       <use x="55.615234" xlink:href="#ArialMT-46"/>
       <use x="83.398438" xlink:href="#ArialMT-49"/>
       <use x="139.013672" xlink:href="#ArialMT-53"/>
      </g>
     </g>
    </g>
    <g id="ytick_4">
     <g id="line2d_12">
      <path clip-path="url(#pec865e4895)" d="M 363.794281 199.98 
L 363.627189 195.195105 
L 363.126726 190.433521 
L 362.295332 185.718447 
L 361.137055 181.072854 
L 359.65754 176.519374 
L 357.863994 172.080192 
L 355.765155 167.776936 
L 353.37125 163.630569 
L 350.693939 159.661293 
L 347.746268 155.888446 
L 344.542597 152.330408 
L 341.098533 149.004515 
L 337.430856 145.926969 
L 333.557435 143.112764 
L 329.497141 140.57561 
L 325.269754 138.327868 
L 320.89587 136.38049 
L 316.396799 134.742962 
L 311.794459 133.423262 
L 307.111272 132.42782 
L 302.370055 131.761485 
L 297.593906 131.427505 
L 292.806094 131.427505 
L 288.029945 131.761485 
L 283.288728 132.42782 
L 278.605541 133.423262 
L 274.003201 134.742962 
L 269.50413 136.38049 
L 265.130246 138.327868 
L 260.902859 140.57561 
L 256.842565 143.112764 
L 252.969144 145.926969 
L 249.301467 149.004515 
L 245.857403 152.330408 
L 242.653732 155.888446 
L 239.706061 159.661293 
L 237.02875 163.630569 
L 234.634845 167.776936 
L 232.536006 172.080192 
L 230.74246 176.519374 
L 229.262945 181.072854 
L 228.104668 185.718447 
L 227.273274 190.433521 
L 226.772811 195.195105 
L 226.605719 199.98 
L 226.772811 204.764895 
L 227.273274 209.526479 
L 228.104668 214.241553 
L 229.262945 218.887146 
L 230.74246 223.440626 
L 232.536006 227.879808 
L 234.634845 232.183064 
L 237.02875 236.329431 
L 239.706061 240.298707 
L 242.653732 244.071554 
L 245.857403 247.629592 
L 249.301467 250.955485 
L 252.969144 254.033031 
L 256.842565 256.847236 
L 260.902859 259.38439 
L 265.130246 261.632132 
L 269.50413 263.57951 
L 274.003201 265.217038 
L 278.605541 266.536738 
L 283.288728 267.53218 
L 288.029945 268.198515 
L 292.806094 268.532495 
L 297.593906 268.532495 
L 302.370055 268.198515 
L 307.111272 267.53218 
L 311.794459 266.536738 
L 316.396799 265.217038 
L 320.89587 263.57951 
L 325.269754 261.632132 
L 329.497141 259.38439 
L 333.557435 256.847236 
L 337.430856 254.033031 
L 341.098533 250.955485 
L 344.542597 247.629592 
L 347.746268 244.071554 
L 350.693939 240.298707 
L 353.37125 236.329431 
L 355.765155 232.183064 
L 357.863994 227.879808 
L 359.65754 223.440626 
L 361.137055 218.887146 
L 362.295332 214.241553 
L 363.126726 209.526479 
L 363.627189 204.764895 
L 363.794281 199.98 
L 363.794281 199.98 
" style="fill:none;stroke:#ffffff;stroke-linecap:round;"/>
     </g>
     <g id="text_12">
      <!-- 0.20 -->
      <g style="fill:#262626;" transform="translate(358.572852 171.742605)scale(0.1 -0.1)">
       <use xlink:href="#ArialMT-48"/>
       <use x="55.615234" xlink:href="#ArialMT-46"/>
       <use x="83.398438" xlink:href="#ArialMT-50"/>
       <use x="139.013672" xlink:href="#ArialMT-48"/>
      </g>
     </g>
    </g>
    <g id="ytick_5">
     <g id="line2d_13">
      <path clip-path="url(#pec865e4895)" d="M 380.942851 199.98 
L 380.733986 193.998881 
L 380.108408 188.046901 
L 379.069164 182.153059 
L 377.621319 176.346067 
L 375.771925 170.654218 
L 373.529992 165.10524 
L 370.906444 159.72617 
L 367.914062 154.543211 
L 364.567424 149.581616 
L 360.882835 144.865557 
L 356.878246 140.418011 
L 352.573166 136.260644 
L 347.98857 132.413711 
L 343.146794 128.895955 
L 338.071426 125.724512 
L 332.787192 122.914836 
L 327.319837 120.480612 
L 321.695998 118.433702 
L 315.943073 116.784078 
L 310.08909 115.539775 
L 304.162568 114.706857 
L 298.192382 114.289381 
L 292.207618 114.289381 
L 286.237432 114.706857 
L 280.31091 115.539775 
L 274.456927 116.784078 
L 268.704002 118.433702 
L 263.080163 120.480612 
L 257.612808 122.914836 
L 252.328574 125.724512 
L 247.253206 128.895955 
L 242.41143 132.413711 
L 237.826834 136.260644 
L 233.521754 140.418011 
L 229.517165 144.865557 
L 225.832576 149.581616 
L 222.485938 154.543211 
L 219.493556 159.72617 
L 216.870008 165.10524 
L 214.628075 170.654218 
L 212.778681 176.346067 
L 211.330836 182.153059 
L 210.291592 188.046901 
L 209.666014 193.998881 
L 209.457149 199.98 
L 209.666014 205.961119 
L 210.291592 211.913099 
L 211.330836 217.806941 
L 212.778681 223.613933 
L 214.628075 229.305782 
L 216.870008 234.85476 
L 219.493556 240.23383 
L 222.485938 245.416789 
L 225.832576 250.378384 
L 229.517165 255.094443 
L 233.521754 259.541989 
L 237.826834 263.699356 
L 242.41143 267.546289 
L 247.253206 271.064045 
L 252.328574 274.235488 
L 257.612808 277.045164 
L 263.080163 279.479388 
L 268.704002 281.526298 
L 274.456927 283.175922 
L 280.31091 284.420225 
L 286.237432 285.253143 
L 292.207618 285.670619 
L 298.192382 285.670619 
L 304.162568 285.253143 
L 310.08909 284.420225 
L 315.943073 283.175922 
L 321.695998 281.526298 
L 327.319837 279.479388 
L 332.787192 277.045164 
L 338.071426 274.235488 
L 343.146794 271.064045 
L 347.98857 267.546289 
L 352.573166 263.699356 
L 356.878246 259.541989 
L 360.882835 255.094443 
L 364.567424 250.378384 
L 367.914062 245.416789 
L 370.906444 240.23383 
L 373.529992 234.85476 
L 375.771925 229.305782 
L 377.621319 223.613933 
L 379.069164 217.806941 
L 380.108408 211.913099 
L 380.733986 205.961119 
L 380.942851 199.98 
L 380.942851 199.98 
" style="fill:none;stroke:#ffffff;stroke-linecap:round;"/>
     </g>
     <g id="text_13">
      <!-- 0.25 -->
      <g style="fill:#262626;" transform="translate(374.416066 165.180131)scale(0.1 -0.1)">
       <use xlink:href="#ArialMT-48"/>
       <use x="55.615234" xlink:href="#ArialMT-46"/>
       <use x="83.398438" xlink:href="#ArialMT-50"/>
       <use x="139.013672" xlink:href="#ArialMT-53"/>
      </g>
     </g>
    </g>
    <g id="ytick_6">
     <g id="line2d_14">
      <path clip-path="url(#pec865e4895)" d="M 398.091422 199.98 
L 398.028743 196.389141 
L 397.840783 192.802657 
L 397.527772 189.224918 
L 397.09009 185.660282 
L 396.52827 182.113092 
L 395.842997 178.587671 
L 395.035107 175.088312 
L 394.105583 171.619281 
L 393.055557 168.184802 
L 391.88631 164.789061 
L 390.599265 161.436195 
L 389.195991 158.130289 
L 387.678197 154.875369 
L 386.047733 151.675403 
L 384.306585 148.534289 
L 382.456874 145.455853 
L 380.500855 142.443847 
L 378.440909 139.50194 
L 376.279547 136.633715 
L 374.019402 133.842669 
L 371.663228 131.132201 
L 369.213895 128.505613 
L 366.674387 125.966105 
L 364.047799 123.516772 
L 361.337331 121.160598 
L 358.546285 118.900453 
L 355.67806 116.739091 
L 352.736153 114.679145 
L 349.724147 112.723126 
L 346.645711 110.873415 
L 343.504597 109.132267 
L 340.304631 107.501803 
L 337.049711 105.984009 
L 333.743805 104.580735 
L 330.390939 103.29369 
L 326.995198 102.124443 
L 323.560719 101.074417 
L 320.091688 100.144893 
L 316.592329 99.337003 
L 313.066908 98.65173 
L 309.519718 98.08991 
L 305.955082 97.652228 
L 302.377343 97.339217 
L 298.790859 97.151257 
L 295.2 97.088578 
L 291.609141 97.151257 
L 288.022657 97.339217 
L 284.444918 97.652228 
L 280.880282 98.08991 
L 277.333092 98.65173 
L 273.807671 99.337003 
L 270.308312 100.144893 
L 266.839281 101.074417 
L 263.404802 102.124443 
L 260.009061 103.29369 
L 256.656195 104.580735 
L 253.350289 105.984009 
L 250.095369 107.501803 
L 246.895403 109.132267 
L 243.754289 110.873415 
L 240.675853 112.723126 
L 237.663847 114.679145 
L 234.72194 116.739091 
L 231.853715 118.900453 
L 229.062669 121.160598 
L 226.352201 123.516772 
L 223.725613 125.966105 
L 221.186105 128.505613 
L 218.736772 131.132201 
L 216.380598 133.842669 
L 214.120453 136.633715 
L 211.959091 139.50194 
L 209.899145 142.443847 
L 207.943126 145.455853 
L 206.093415 148.534289 
L 204.352267 151.675403 
L 202.721803 154.875369 
L 201.204009 158.130289 
L 199.800735 161.436195 
L 198.51369 164.789061 
L 197.344443 168.184802 
L 196.294417 171.619281 
L 195.364893 175.088312 
L 194.557003 178.587671 
L 193.87173 182.113092 
L 193.30991 185.660282 
L 192.872228 189.224918 
L 192.559217 192.802657 
L 192.371257 196.389141 
L 192.308578 199.98 
L 192.371257 203.570859 
L 192.559217 207.157343 
L 192.872228 210.735082 
L 193.30991 214.299718 
L 193.87173 217.846908 
L 194.557003 221.372329 
L 195.364893 224.871688 
L 196.294417 228.340719 
L 197.344443 231.775198 
L 198.51369 235.170939 
L 199.800735 238.523805 
L 201.204009 241.829711 
L 202.721803 245.084631 
L 204.352267 248.284597 
L 206.093415 251.425711 
L 207.943126 254.504147 
L 209.899145 257.516153 
L 211.959091 260.45806 
L 214.120453 263.326285 
L 216.380598 266.117331 
L 218.736772 268.827799 
L 221.186105 271.454387 
L 223.725613 273.993895 
L 226.352201 276.443228 
L 229.062669 278.799402 
L 231.853715 281.059547 
L 234.72194 283.220909 
L 237.663847 285.280855 
L 240.675853 287.236874 
L 243.754289 289.086585 
L 246.895403 290.827733 
L 250.095369 292.458197 
L 253.350289 293.975991 
L 256.656195 295.379265 
L 260.009061 296.66631 
L 263.404802 297.835557 
L 266.839281 298.885583 
L 270.308312 299.815107 
L 273.807671 300.622997 
L 277.333092 301.30827 
L 280.880282 301.87009 
L 284.444918 302.307772 
L 288.022657 302.620783 
L 291.609141 302.808743 
L 295.2 302.871422 
L 298.790859 302.808743 
L 302.377343 302.620783 
L 305.955082 302.307772 
L 309.519718 301.87009 
L 313.066908 301.30827 
L 316.592329 300.622997 
L 320.091688 299.815107 
L 323.560719 298.885583 
L 326.995198 297.835557 
L 330.390939 296.66631 
L 333.743805 295.379265 
L 337.049711 293.975991 
L 340.304631 292.458197 
L 343.504597 290.827733 
L 346.645711 289.086585 
L 349.724147 287.236874 
L 352.736153 285.280855 
L 355.67806 283.220909 
L 358.546285 281.059547 
L 361.337331 278.799402 
L 364.047799 276.443228 
L 366.674387 273.993895 
L 369.213895 271.454387 
L 371.663228 268.827799 
L 374.019402 266.117331 
L 376.279547 263.326285 
L 378.440909 260.45806 
L 380.500855 257.516153 
L 382.456874 254.504147 
L 384.306585 251.425711 
L 386.047733 248.284597 
L 387.678197 245.084631 
L 389.195991 241.829711 
L 390.599265 238.523805 
L 391.88631 235.170939 
L 393.055557 231.775198 
L 394.105583 228.340719 
L 395.035107 224.871688 
L 395.842997 221.372329 
L 396.52827 217.846908 
L 397.09009 214.299718 
L 397.527772 210.735082 
L 397.840783 207.157343 
L 398.028743 203.570859 
L 398.091422 199.98 
L 398.091422 199.98 
" style="fill:none;stroke:#ffffff;stroke-linecap:round;"/>
     </g>
     <g id="text_14">
      <!-- 0.30 -->
      <g style="fill:#262626;" transform="translate(390.259279 158.617658)scale(0.1 -0.1)">
       <use xlink:href="#ArialMT-48"/>
       <use x="55.615234" xlink:href="#ArialMT-46"/>
       <use x="83.398438" xlink:href="#ArialMT-51"/>
       <use x="139.013672" xlink:href="#ArialMT-48"/>
      </g>
     </g>
    </g>
    <g id="ytick_7">
     <g id="line2d_15">
      <path clip-path="url(#pec865e4895)" d="M 415.239992 199.98 
L 415.166867 195.790665 
L 414.947581 191.606433 
L 414.5824 187.432404 
L 414.071771 183.273662 
L 413.416315 179.135274 
L 412.61683 175.022282 
L 411.674291 170.939698 
L 410.589846 166.892494 
L 409.364817 162.885602 
L 408.000695 158.923905 
L 406.499143 155.012228 
L 404.861989 151.155337 
L 403.09123 147.357931 
L 401.189022 143.624637 
L 399.157683 139.960004 
L 396.999687 136.368496 
L 394.717664 132.854488 
L 392.314394 129.422263 
L 389.792805 126.076001 
L 387.155969 122.81978 
L 384.407099 119.657567 
L 381.549544 116.593215 
L 378.586785 113.630456 
L 375.522433 110.772901 
L 372.36022 108.024031 
L 369.103999 105.387195 
L 365.757737 102.865606 
L 362.325512 100.462336 
L 358.811504 98.180313 
L 355.219996 96.022317 
L 351.555363 93.990978 
L 347.822069 92.08877 
L 344.024663 90.318011 
L 340.167772 88.680857 
L 336.256095 87.179305 
L 332.294398 85.815183 
L 328.287506 84.590154 
L 324.240302 83.505709 
L 320.157718 82.56317 
L 316.044726 81.763685 
L 311.906338 81.108229 
L 307.747596 80.5976 
L 303.573567 80.232419 
L 299.389335 80.013133 
L 295.2 79.940008 
L 291.010665 80.013133 
L 286.826433 80.232419 
L 282.652404 80.5976 
L 278.493662 81.108229 
L 274.355274 81.763685 
L 270.242282 82.56317 
L 266.159698 83.505709 
L 262.112494 84.590154 
L 258.105602 85.815183 
L 254.143905 87.179305 
L 250.232228 88.680857 
L 246.375337 90.318011 
L 242.577931 92.08877 
L 238.844637 93.990978 
L 235.180004 96.022317 
L 231.588496 98.180313 
L 228.074488 100.462336 
L 224.642263 102.865606 
L 221.296001 105.387195 
L 218.03978 108.024031 
L 214.877567 110.772901 
L 211.813215 113.630456 
L 208.850456 116.593215 
L 205.992901 119.657567 
L 203.244031 122.81978 
L 200.607195 126.076001 
L 198.085606 129.422263 
L 195.682336 132.854488 
L 193.400313 136.368496 
L 191.242317 139.960004 
L 189.210978 143.624637 
L 187.30877 147.357931 
L 185.538011 151.155337 
L 183.900857 155.012228 
L 182.399305 158.923905 
L 181.035183 162.885602 
L 179.810154 166.892494 
L 178.725709 170.939698 
L 177.78317 175.022282 
L 176.983685 179.135274 
L 176.328229 183.273662 
L 175.8176 187.432404 
L 175.452419 191.606433 
L 175.233133 195.790665 
L 175.160008 199.98 
L 175.233133 204.169335 
L 175.452419 208.353567 
L 175.8176 212.527596 
L 176.328229 216.686338 
L 176.983685 220.824726 
L 177.78317 224.937718 
L 178.725709 229.020302 
L 179.810154 233.067506 
L 181.035183 237.074398 
L 182.399305 241.036095 
L 183.900857 244.947772 
L 185.538011 248.804663 
L 187.30877 252.602069 
L 189.210978 256.335363 
L 191.242317 259.999996 
L 193.400313 263.591504 
L 195.682336 267.105512 
L 198.085606 270.537737 
L 200.607195 273.883999 
L 203.244031 277.14022 
L 205.992901 280.302433 
L 208.850456 283.366785 
L 211.813215 286.329544 
L 214.877567 289.187099 
L 218.03978 291.935969 
L 221.296001 294.572805 
L 224.642263 297.094394 
L 228.074488 299.497664 
L 231.588496 301.779687 
L 235.180004 303.937683 
L 238.844637 305.969022 
L 242.577931 307.87123 
L 246.375337 309.641989 
L 250.232228 311.279143 
L 254.143905 312.780695 
L 258.105602 314.144817 
L 262.112494 315.369846 
L 266.159698 316.454291 
L 270.242282 317.39683 
L 274.355274 318.196315 
L 278.493662 318.851771 
L 282.652404 319.3624 
L 286.826433 319.727581 
L 291.010665 319.946867 
L 295.2 320.019992 
L 299.389335 319.946867 
L 303.573567 319.727581 
L 307.747596 319.3624 
L 311.906338 318.851771 
L 316.044726 318.196315 
L 320.157718 317.39683 
L 324.240302 316.454291 
L 328.287506 315.369846 
L 332.294398 314.144817 
L 336.256095 312.780695 
L 340.167772 311.279143 
L 344.024663 309.641989 
L 347.822069 307.87123 
L 351.555363 305.969022 
L 355.219996 303.937683 
L 358.811504 301.779687 
L 362.325512 299.497664 
L 365.757737 297.094394 
L 369.103999 294.572805 
L 372.36022 291.935969 
L 375.522433 289.187099 
L 378.586785 286.329544 
L 381.549544 283.366785 
L 384.407099 280.302433 
L 387.155969 277.14022 
L 389.792805 273.883999 
L 392.314394 270.537737 
L 394.717664 267.105512 
L 396.999687 263.591504 
L 399.157683 259.999996 
L 401.189022 256.335363 
L 403.09123 252.602069 
L 404.861989 248.804663 
L 406.499143 244.947772 
L 408.000695 241.036095 
L 409.364817 237.074398 
L 410.589846 233.067506 
L 411.674291 229.020302 
L 412.61683 224.937718 
L 413.416315 220.824726 
L 414.071771 216.686338 
L 414.5824 212.527596 
L 414.947581 208.353567 
L 415.166867 204.169335 
L 415.239992 199.98 
L 415.239992 199.98 
" style="fill:none;stroke:#ffffff;stroke-linecap:round;"/>
     </g>
     <g id="text_15">
      <!-- 0.35 -->
      <g style="fill:#262626;" transform="translate(406.102492 152.055184)scale(0.1 -0.1)">
       <use xlink:href="#ArialMT-48"/>
       <use x="55.615234" xlink:href="#ArialMT-46"/>
       <use x="83.398438" xlink:href="#ArialMT-51"/>
       <use x="139.013672" xlink:href="#ArialMT-53"/>
      </g>
     </g>
    </g>
    <g id="ytick_8">
     <g id="line2d_16">
      <path clip-path="url(#pec865e4895)" d="M 432.388562 199.98 
L 432.304991 195.192188 
L 432.054378 190.41021 
L 431.637029 185.63989 
L 431.053453 180.887042 
L 430.30436 176.157456 
L 429.390663 171.456894 
L 428.313476 166.791083 
L 427.07411 162.165707 
L 425.674076 157.586403 
L 424.11508 153.058748 
L 422.39902 148.58826 
L 420.527988 144.180385 
L 418.504263 139.840493 
L 416.330311 135.573871 
L 414.00878 131.385719 
L 411.542499 127.281138 
L 408.934473 123.26513 
L 406.187878 119.342586 
L 403.306062 115.518287 
L 400.292536 111.796892 
L 397.15097 108.182934 
L 393.885193 104.680817 
L 390.499183 101.294807 
L 386.997066 98.02903 
L 383.383108 94.887464 
L 379.661713 91.873938 
L 375.837414 88.992122 
L 371.91487 86.245527 
L 367.898862 83.637501 
L 363.794281 81.17122 
L 359.606129 78.849689 
L 355.339507 76.675737 
L 350.999615 74.652012 
L 346.59174 72.78098 
L 342.121252 71.06492 
L 337.593597 69.505924 
L 333.014293 68.10589 
L 328.388917 66.866524 
L 323.723106 65.789337 
L 319.022544 64.87564 
L 314.292958 64.126547 
L 309.54011 63.542971 
L 304.76979 63.125622 
L 299.987812 62.875009 
L 295.2 62.791438 
L 290.412188 62.875009 
L 285.63021 63.125622 
L 280.85989 63.542971 
L 276.107042 64.126547 
L 271.377456 64.87564 
L 266.676894 65.789337 
L 262.011083 66.866524 
L 257.385707 68.10589 
L 252.806403 69.505924 
L 248.278748 71.06492 
L 243.80826 72.78098 
L 239.400385 74.652012 
L 235.060493 76.675737 
L 230.793871 78.849689 
L 226.605719 81.17122 
L 222.501138 83.637501 
L 218.48513 86.245527 
L 214.562586 88.992122 
L 210.738287 91.873938 
L 207.016892 94.887464 
L 203.402934 98.02903 
L 199.900817 101.294807 
L 196.514807 104.680817 
L 193.24903 108.182934 
L 190.107464 111.796892 
L 187.093938 115.518287 
L 184.212122 119.342586 
L 181.465527 123.26513 
L 178.857501 127.281138 
L 176.39122 131.385719 
L 174.069689 135.573871 
L 171.895737 139.840493 
L 169.872012 144.180385 
L 168.00098 148.58826 
L 166.28492 153.058748 
L 164.725924 157.586403 
L 163.32589 162.165707 
L 162.086524 166.791083 
L 161.009337 171.456894 
L 160.09564 176.157456 
L 159.346547 180.887042 
L 158.762971 185.63989 
L 158.345622 190.41021 
L 158.095009 195.192188 
L 158.011438 199.98 
L 158.095009 204.767812 
L 158.345622 209.54979 
L 158.762971 214.32011 
L 159.346547 219.072958 
L 160.09564 223.802544 
L 161.009337 228.503106 
L 162.086524 233.168917 
L 163.32589 237.794293 
L 164.725924 242.373597 
L 166.28492 246.901252 
L 168.00098 251.37174 
L 169.872012 255.779615 
L 171.895737 260.119507 
L 174.069689 264.386129 
L 176.39122 268.574281 
L 178.857501 272.678862 
L 181.465527 276.69487 
L 184.212122 280.617414 
L 187.093938 284.441713 
L 190.107464 288.163108 
L 193.24903 291.777066 
L 196.514807 295.279183 
L 199.900817 298.665193 
L 203.402934 301.93097 
L 207.016892 305.072536 
L 210.738287 308.086062 
L 214.562586 310.967878 
L 218.48513 313.714473 
L 222.501138 316.322499 
L 226.605719 318.78878 
L 230.793871 321.110311 
L 235.060493 323.284263 
L 239.400385 325.307988 
L 243.80826 327.17902 
L 248.278748 328.89508 
L 252.806403 330.454076 
L 257.385707 331.85411 
L 262.011083 333.093476 
L 266.676894 334.170663 
L 271.377456 335.08436 
L 276.107042 335.833453 
L 280.85989 336.417029 
L 285.63021 336.834378 
L 290.412188 337.084991 
L 295.2 337.168562 
L 299.987812 337.084991 
L 304.76979 336.834378 
L 309.54011 336.417029 
L 314.292958 335.833453 
L 319.022544 335.08436 
L 323.723106 334.170663 
L 328.388917 333.093476 
L 333.014293 331.85411 
L 337.593597 330.454076 
L 342.121252 328.89508 
L 346.59174 327.17902 
L 350.999615 325.307988 
L 355.339507 323.284263 
L 359.606129 321.110311 
L 363.794281 318.78878 
L 367.898862 316.322499 
L 371.91487 313.714473 
L 375.837414 310.967878 
L 379.661713 308.086062 
L 383.383108 305.072536 
L 386.997066 301.93097 
L 390.499183 298.665193 
L 393.885193 295.279183 
L 397.15097 291.777066 
L 400.292536 288.163108 
L 403.306062 284.441713 
L 406.187878 280.617414 
L 408.934473 276.69487 
L 411.542499 272.678862 
L 414.00878 268.574281 
L 416.330311 264.386129 
L 418.504263 260.119507 
L 420.527988 255.779615 
L 422.39902 251.37174 
L 424.11508 246.901252 
L 425.674076 242.373597 
L 427.07411 237.794293 
L 428.313476 233.168917 
L 429.390663 228.503106 
L 430.30436 223.802544 
L 431.053453 219.072958 
L 431.637029 214.32011 
L 432.054378 209.54979 
L 432.304991 204.767812 
L 432.388562 199.98 
L 432.388562 199.98 
" style="fill:none;stroke:#ffffff;stroke-linecap:round;"/>
     </g>
     <g id="text_16">
      <!-- 0.40 -->
      <g style="fill:#262626;" transform="translate(421.945705 145.49271)scale(0.1 -0.1)">
       <use xlink:href="#ArialMT-48"/>
       <use x="55.615234" xlink:href="#ArialMT-46"/>
       <use x="83.398438" xlink:href="#ArialMT-52"/>
       <use x="139.013672" xlink:href="#ArialMT-48"/>
      </g>
     </g>
    </g>
   </g>
   <g id="PathCollection_1">
    <defs>
     <path d="M 0 3.5 
C 0.928211 3.5 1.81853 3.131218 2.474874 2.474874 
C 3.131218 1.81853 3.5 0.928211 3.5 0 
C 3.5 -0.928211 3.131218 -1.81853 2.474874 -2.474874 
C 1.81853 -3.131218 0.928211 -3.5 0 -3.5 
C -0.928211 -3.5 -1.81853 -3.131218 -2.474874 -2.474874 
C -3.131218 -1.81853 -3.5 -0.928211 -3.5 0 
C -3.5 0.928211 -3.131218 1.81853 -2.474874 2.474874 
C -1.81853 3.131218 -0.928211 3.5 0 3.5 
z
" id="m97566af9a3" style="stroke:#4c72b0;stroke-width:0.3;"/>
    </defs>
    <g clip-path="url(#pec865e4895)">
     <use style="fill:#4c72b0;stroke:#4c72b0;stroke-width:0.3;" x="299.180136" xlink:href="#m97566af9a3" y="206.103664"/>
     <use style="fill:#4c72b0;stroke:#4c72b0;stroke-width:0.3;" x="295.675514" xlink:href="#m97566af9a3" y="205.516393"/>
     <use style="fill:#4c72b0;stroke:#4c72b0;stroke-width:0.3;" x="297.644821" xlink:href="#m97566af9a3" y="209.469963"/>
     <use style="fill:#4c72b0;stroke:#4c72b0;stroke-width:0.3;" x="284.120809" xlink:href="#m97566af9a3" y="209.706205"/>
     <use style="fill:#4c72b0;stroke:#4c72b0;stroke-width:0.3;" x="302.785548" xlink:href="#m97566af9a3" y="208.422991"/>
     <use style="fill:#4c72b0;stroke:#4c72b0;stroke-width:0.3;" x="257.132868" xlink:href="#m97566af9a3" y="213.626709"/>
     <use style="fill:#4c72b0;stroke:#4c72b0;stroke-width:0.3;" x="266.452662" xlink:href="#m97566af9a3" y="211.1596"/>
     <use style="fill:#4c72b0;stroke:#4c72b0;stroke-width:0.3;" x="279.425252" xlink:href="#m97566af9a3" y="206.789011"/>
     <use style="fill:#4c72b0;stroke:#4c72b0;stroke-width:0.3;" x="243.615877" xlink:href="#m97566af9a3" y="210.213447"/>
     <use style="fill:#4c72b0;stroke:#4c72b0;stroke-width:0.3;" x="362.960923" xlink:href="#m97566af9a3" y="204.43973"/>
     <use style="fill:#4c72b0;stroke:#4c72b0;stroke-width:0.3;" x="306.771589" xlink:href="#m97566af9a3" y="214.69184"/>
     <use style="fill:#4c72b0;stroke:#4c72b0;stroke-width:0.3;" x="305.82919" xlink:href="#m97566af9a3" y="221.759318"/>
     <use style="fill:#4c72b0;stroke:#4c72b0;stroke-width:0.3;" x="278.409432" xlink:href="#m97566af9a3" y="225.859126"/>
     <use style="fill:#4c72b0;stroke:#4c72b0;stroke-width:0.3;" x="278.592464" xlink:href="#m97566af9a3" y="232.239138"/>
     <use style="fill:#4c72b0;stroke:#4c72b0;stroke-width:0.3;" x="265.613459" xlink:href="#m97566af9a3" y="233.688567"/>
     <use style="fill:#4c72b0;stroke:#4c72b0;stroke-width:0.3;" x="272.274354" xlink:href="#m97566af9a3" y="223.231981"/>
     <use style="fill:#4c72b0;stroke:#4c72b0;stroke-width:0.3;" x="321.858297" xlink:href="#m97566af9a3" y="208.007496"/>
     <use style="fill:#4c72b0;stroke:#4c72b0;stroke-width:0.3;" x="285.979307" xlink:href="#m97566af9a3" y="215.226411"/>
     <use style="fill:#4c72b0;stroke:#4c72b0;stroke-width:0.3;" x="249.82882" xlink:href="#m97566af9a3" y="217.593129"/>
     <use style="fill:#4c72b0;stroke:#4c72b0;stroke-width:0.3;" x="290.352039" xlink:href="#m97566af9a3" y="218.483532"/>
     <use style="fill:#4c72b0;stroke:#4c72b0;stroke-width:0.3;" x="321.400019" xlink:href="#m97566af9a3" y="205.242067"/>
     <use style="fill:#4c72b0;stroke:#4c72b0;stroke-width:0.3;" x="278.486331" xlink:href="#m97566af9a3" y="201.842544"/>
     <use style="fill:#4c72b0;stroke:#4c72b0;stroke-width:0.3;" x="302.792204" xlink:href="#m97566af9a3" y="198.10369"/>
     <use style="fill:#4c72b0;stroke:#4c72b0;stroke-width:0.3;" x="303.998213" xlink:href="#m97566af9a3" y="204.417007"/>
    </g>
   </g>
   <g id="PathCollection_2">
    <defs>
     <path d="M 0 3.5 
C 0.928211 3.5 1.81853 3.131218 2.474874 2.474874 
C 3.131218 1.81853 3.5 0.928211 3.5 0 
C 3.5 -0.928211 3.131218 -1.81853 2.474874 -2.474874 
C 1.81853 -3.131218 0.928211 -3.5 0 -3.5 
C -0.928211 -3.5 -1.81853 -3.131218 -2.474874 -2.474874 
C -3.131218 -1.81853 -3.5 -0.928211 -3.5 0 
C -3.5 0.928211 -3.131218 1.81853 -2.474874 2.474874 
C -1.81853 3.131218 -0.928211 3.5 0 3.5 
z
" id="m5597c6d315" style="stroke:#55a868;stroke-width:0.3;"/>
    </defs>
    <g clip-path="url(#pec865e4895)">
     <use style="fill:#55a868;stroke:#55a868;stroke-width:0.3;" x="361.735072" xlink:href="#m5597c6d315" y="186.254623"/>
     <use style="fill:#55a868;stroke:#55a868;stroke-width:0.3;" x="323.594495" xlink:href="#m5597c6d315" y="192.271146"/>
     <use style="fill:#55a868;stroke:#55a868;stroke-width:0.3;" x="246.480584" xlink:href="#m5597c6d315" y="201.12003"/>
     <use style="fill:#55a868;stroke:#55a868;stroke-width:0.3;" x="278.010438" xlink:href="#m5597c6d315" y="201.654796"/>
     <use style="fill:#55a868;stroke:#55a868;stroke-width:0.3;" x="311.349855" xlink:href="#m5597c6d315" y="187.90647"/>
     <use style="fill:#55a868;stroke:#55a868;stroke-width:0.3;" x="361.38451" xlink:href="#m5597c6d315" y="177.816697"/>
     <use style="fill:#55a868;stroke:#55a868;stroke-width:0.3;" x="394.443332" xlink:href="#m5597c6d315" y="174.906945"/>
     <use style="fill:#55a868;stroke:#55a868;stroke-width:0.3;" x="300.945974" xlink:href="#m5597c6d315" y="187.374099"/>
     <use style="fill:#55a868;stroke:#55a868;stroke-width:0.3;" x="188.629093" xlink:href="#m5597c6d315" y="197.79671"/>
     <use style="fill:#55a868;stroke:#55a868;stroke-width:0.3;" x="250.264985" xlink:href="#m5597c6d315" y="198.890589"/>
     <use style="fill:#55a868;stroke:#55a868;stroke-width:0.3;" x="343.172244" xlink:href="#m5597c6d315" y="194.814349"/>
     <use style="fill:#55a868;stroke:#55a868;stroke-width:0.3;" x="343.259006" xlink:href="#m5597c6d315" y="199.386833"/>
     <use style="fill:#55a868;stroke:#55a868;stroke-width:0.3;" x="278.327968" xlink:href="#m5597c6d315" y="212.575533"/>
     <use style="fill:#55a868;stroke:#55a868;stroke-width:0.3;" x="279.864198" xlink:href="#m5597c6d315" y="215.066816"/>
     <use style="fill:#55a868;stroke:#55a868;stroke-width:0.3;" x="305.020895" xlink:href="#m5597c6d315" y="208.208012"/>
     <use style="fill:#55a868;stroke:#55a868;stroke-width:0.3;" x="392.755227" xlink:href="#m5597c6d315" y="194.858077"/>
     <use style="fill:#55a868;stroke:#55a868;stroke-width:0.3;" x="273.052643" xlink:href="#m5597c6d315" y="206.245413"/>
     <use style="fill:#55a868;stroke:#55a868;stroke-width:0.3;" x="312.692963" xlink:href="#m5597c6d315" y="203.898124"/>
     <use style="fill:#55a868;stroke:#55a868;stroke-width:0.3;" x="307.12512" xlink:href="#m5597c6d315" y="214.410016"/>
     <use style="fill:#55a868;stroke:#55a868;stroke-width:0.3;" x="229.797052" xlink:href="#m5597c6d315" y="244.161754"/>
     <use style="fill:#55a868;stroke:#55a868;stroke-width:0.3;" x="171.817651" xlink:href="#m5597c6d315" y="274.132387"/>
     <use style="fill:#55a868;stroke:#55a868;stroke-width:0.3;" x="326.331791" xlink:href="#m5597c6d315" y="246.681153"/>
     <use style="fill:#55a868;stroke:#55a868;stroke-width:0.3;" x="302.265091" xlink:href="#m5597c6d315" y="235.40666"/>
     <use style="fill:#55a868;stroke:#55a868;stroke-width:0.3;" x="314.978379" xlink:href="#m5597c6d315" y="243.567863"/>
    </g>
   </g>
   <g id="PathCollection_3">
    <defs>
     <path d="M 0 3.5 
C 0.928211 3.5 1.81853 3.131218 2.474874 2.474874 
C 3.131218 1.81853 3.5 0.928211 3.5 0 
C 3.5 -0.928211 3.131218 -1.81853 2.474874 -2.474874 
C 1.81853 -3.131218 0.928211 -3.5 0 -3.5 
C -0.928211 -3.5 -1.81853 -3.131218 -2.474874 -2.474874 
C -3.131218 -1.81853 -3.5 -0.928211 -3.5 0 
C -3.5 0.928211 -3.131218 1.81853 -2.474874 2.474874 
C -1.81853 3.131218 -0.928211 3.5 0 3.5 
z
" id="m298712b23f" style="stroke:#c44e52;stroke-width:0.3;"/>
    </defs>
    <g clip-path="url(#pec865e4895)">
     <use style="fill:#c44e52;stroke:#c44e52;stroke-width:0.3;" x="219.593381" xlink:href="#m298712b23f" y="243.123093"/>
     <use style="fill:#c44e52;stroke:#c44e52;stroke-width:0.3;" x="347.19896" xlink:href="#m298712b23f" y="227.290376"/>
     <use style="fill:#c44e52;stroke:#c44e52;stroke-width:0.3;" x="303.674121" xlink:href="#m298712b23f" y="221.599649"/>
     <use style="fill:#c44e52;stroke:#c44e52;stroke-width:0.3;" x="202.563656" xlink:href="#m298712b23f" y="227.212217"/>
     <use style="fill:#c44e52;stroke:#c44e52;stroke-width:0.3;" x="317.645271" xlink:href="#m298712b23f" y="210.360524"/>
     <use style="fill:#c44e52;stroke:#c44e52;stroke-width:0.3;" x="296.671151" xlink:href="#m298712b23f" y="214.310829"/>
     <use style="fill:#c44e52;stroke:#c44e52;stroke-width:0.3;" x="189.869911" xlink:href="#m298712b23f" y="220.80735"/>
     <use style="fill:#c44e52;stroke:#c44e52;stroke-width:0.3;" x="346.556253" xlink:href="#m298712b23f" y="196.623696"/>
     <use style="fill:#c44e52;stroke:#c44e52;stroke-width:0.3;" x="245.068925" xlink:href="#m298712b23f" y="211.548816"/>
     <use style="fill:#c44e52;stroke:#c44e52;stroke-width:0.3;" x="294.601127" xlink:href="#m298712b23f" y="206.870716"/>
     <use style="fill:#c44e52;stroke:#c44e52;stroke-width:0.3;" x="305.905388" xlink:href="#m298712b23f" y="205.648747"/>
     <use style="fill:#c44e52;stroke:#c44e52;stroke-width:0.3;" x="307.273316" xlink:href="#m298712b23f" y="202.318978"/>
     <use style="fill:#c44e52;stroke:#c44e52;stroke-width:0.3;" x="316.93255" xlink:href="#m298712b23f" y="208.074562"/>
     <use style="fill:#c44e52;stroke:#c44e52;stroke-width:0.3;" x="314.752923" xlink:href="#m298712b23f" y="201.163574"/>
     <use style="fill:#c44e52;stroke:#c44e52;stroke-width:0.3;" x="270.939976" xlink:href="#m298712b23f" y="208.031279"/>
     <use style="fill:#c44e52;stroke:#c44e52;stroke-width:0.3;" x="260.501425" xlink:href="#m298712b23f" y="200.467799"/>
     <use style="fill:#c44e52;stroke:#c44e52;stroke-width:0.3;" x="315.091889" xlink:href="#m298712b23f" y="190.093621"/>
     <use style="fill:#c44e52;stroke:#c44e52;stroke-width:0.3;" x="236.910348" xlink:href="#m298712b23f" y="200.918851"/>
     <use style="fill:#c44e52;stroke:#c44e52;stroke-width:0.3;" x="339.498061" xlink:href="#m298712b23f" y="202.43265"/>
     <use style="fill:#c44e52;stroke:#c44e52;stroke-width:0.3;" x="299.955059" xlink:href="#m298712b23f" y="217.578664"/>
     <use style="fill:#c44e52;stroke:#c44e52;stroke-width:0.3;" x="380.258531" xlink:href="#m298712b23f" y="197.245319"/>
     <use style="fill:#c44e52;stroke:#c44e52;stroke-width:0.3;" x="337.954312" xlink:href="#m298712b23f" y="180.723725"/>
     <use style="fill:#c44e52;stroke:#c44e52;stroke-width:0.3;" x="380.395462" xlink:href="#m298712b23f" y="170.935392"/>
     <use style="fill:#c44e52;stroke:#c44e52;stroke-width:0.3;" x="292.464382" xlink:href="#m298712b23f" y="174.754606"/>
    </g>
   </g>
   <g id="line2d_17">
    <path clip-path="url(#pec865e4895)" d="M 295.2 199.98 
L 364.010291 326.41941 
" style="fill:none;stroke:#ff0000;stroke-dasharray:7.4,3.2;stroke-dashoffset:0;stroke-width:2;"/>
   </g>
   <g id="patch_3">
    <path d="M 447.66 199.98 
C 447.66 179.959136 443.716326 160.13295 436.054674 141.636084 
C 428.393021 123.139218 417.162388 106.331389 403.0055 92.1745 
C 388.848611 78.017612 372.040782 66.786979 353.543916 59.125326 
C 335.04705 51.463674 315.220864 47.52 295.2 47.52 
C 275.179136 47.52 255.35295 51.463674 236.856084 59.125326 
C 218.359218 66.786979 201.551389 78.017612 187.3945 92.1745 
C 173.237612 106.331389 162.006979 123.139218 154.345326 141.636084 
C 146.683674 160.13295 142.74 179.959136 142.74 199.98 
C 142.74 220.000864 146.683674 239.82705 154.345326 258.323916 
C 162.006979 276.820782 173.237612 293.628611 187.3945 307.7855 
C 201.551389 321.942388 218.359218 333.173021 236.856084 340.834674 
C 255.35295 348.496326 275.179136 352.44 295.2 352.44 
C 315.220864 352.44 335.04705 348.496326 353.543916 340.834674 
C 372.040782 333.173021 388.848611 321.942388 403.0055 307.7855 
C 417.162388 293.628611 428.393021 276.820782 436.054674 258.323916 
C 443.716326 239.82705 447.66 220.000864 447.66 199.98 
" style="fill:none;"/>
   </g>
   <g id="text_17">
    <!-- Distribution of projected eye movement velocity on the screen - NewM5_6_22 -->
    <defs>
     <path d="M 7.71875 0 
L 7.71875 71.578125 
L 32.375 71.578125 
Q 40.71875 71.578125 45.125 70.5625 
Q 51.265625 69.140625 55.609375 65.4375 
Q 61.28125 60.640625 64.078125 53.1875 
Q 66.890625 45.75 66.890625 36.1875 
Q 66.890625 28.03125 64.984375 21.734375 
Q 63.09375 15.4375 60.109375 11.296875 
Q 57.125 7.171875 53.578125 4.796875 
Q 50.046875 2.4375 45.046875 1.21875 
Q 40.046875 0 33.546875 0 
z
M 17.1875 8.453125 
L 32.46875 8.453125 
Q 39.546875 8.453125 43.578125 9.765625 
Q 47.609375 11.078125 50 13.484375 
Q 53.375 16.84375 55.25 22.53125 
Q 57.125 28.21875 57.125 36.328125 
Q 57.125 47.5625 53.4375 53.59375 
Q 49.75 59.625 44.484375 61.671875 
Q 40.671875 63.140625 32.234375 63.140625 
L 17.1875 63.140625 
z
" id="ArialMT-68"/>
     <path d="M 6.640625 61.46875 
L 6.640625 71.578125 
L 15.4375 71.578125 
L 15.4375 61.46875 
z
M 6.640625 0 
L 6.640625 51.859375 
L 15.4375 51.859375 
L 15.4375 0 
z
" id="ArialMT-105"/>
     <path d="M 3.078125 15.484375 
L 11.765625 16.84375 
Q 12.5 11.625 15.84375 8.84375 
Q 19.1875 6.0625 25.203125 6.0625 
Q 31.25 6.0625 34.171875 8.515625 
Q 37.109375 10.984375 37.109375 14.3125 
Q 37.109375 17.28125 34.515625 19 
Q 32.71875 20.171875 25.53125 21.96875 
Q 15.875 24.421875 12.140625 26.203125 
Q 8.40625 27.984375 6.46875 31.125 
Q 4.546875 34.28125 4.546875 38.09375 
Q 4.546875 41.546875 6.125 44.5 
Q 7.71875 47.46875 10.453125 49.421875 
Q 12.5 50.921875 16.03125 51.96875 
Q 19.578125 53.03125 23.640625 53.03125 
Q 29.734375 53.03125 34.34375 51.265625 
Q 38.96875 49.515625 41.15625 46.5 
Q 43.359375 43.5 44.1875 38.484375 
L 35.59375 37.3125 
Q 35.015625 41.3125 32.203125 43.546875 
Q 29.390625 45.796875 24.265625 45.796875 
Q 18.21875 45.796875 15.625 43.796875 
Q 13.03125 41.796875 13.03125 39.109375 
Q 13.03125 37.40625 14.109375 36.03125 
Q 15.1875 34.625 17.484375 33.6875 
Q 18.796875 33.203125 25.25 31.453125 
Q 34.578125 28.953125 38.25 27.359375 
Q 41.9375 25.78125 44.03125 22.75 
Q 46.140625 19.734375 46.140625 15.234375 
Q 46.140625 10.84375 43.578125 6.953125 
Q 41.015625 3.078125 36.171875 0.953125 
Q 31.34375 -1.171875 25.25 -1.171875 
Q 15.140625 -1.171875 9.84375 3.03125 
Q 4.546875 7.234375 3.078125 15.484375 
z
" id="ArialMT-115"/>
     <path d="M 25.78125 7.859375 
L 27.046875 0.09375 
Q 23.34375 -0.6875 20.40625 -0.6875 
Q 15.625 -0.6875 12.984375 0.828125 
Q 10.359375 2.34375 9.28125 4.8125 
Q 8.203125 7.28125 8.203125 15.1875 
L 8.203125 45.015625 
L 1.765625 45.015625 
L 1.765625 51.859375 
L 8.203125 51.859375 
L 8.203125 64.703125 
L 16.9375 69.96875 
L 16.9375 51.859375 
L 25.78125 51.859375 
L 25.78125 45.015625 
L 16.9375 45.015625 
L 16.9375 14.703125 
Q 16.9375 10.9375 17.40625 9.859375 
Q 17.875 8.796875 18.921875 8.15625 
Q 19.96875 7.515625 21.921875 7.515625 
Q 23.390625 7.515625 25.78125 7.859375 
z
" id="ArialMT-116"/>
     <path d="M 6.5 0 
L 6.5 51.859375 
L 14.40625 51.859375 
L 14.40625 44 
Q 17.4375 49.515625 20 51.265625 
Q 22.5625 53.03125 25.640625 53.03125 
Q 30.078125 53.03125 34.671875 50.203125 
L 31.640625 42.046875 
Q 28.421875 43.953125 25.203125 43.953125 
Q 22.3125 43.953125 20.015625 42.21875 
Q 17.71875 40.484375 16.75 37.40625 
Q 15.28125 32.71875 15.28125 27.15625 
L 15.28125 0 
z
" id="ArialMT-114"/>
     <path d="M 14.703125 0 
L 6.546875 0 
L 6.546875 71.578125 
L 15.328125 71.578125 
L 15.328125 46.046875 
Q 20.90625 53.03125 29.546875 53.03125 
Q 34.328125 53.03125 38.59375 51.09375 
Q 42.875 49.171875 45.625 45.671875 
Q 48.390625 42.1875 49.953125 37.25 
Q 51.515625 32.328125 51.515625 26.703125 
Q 51.515625 13.375 44.921875 6.09375 
Q 38.328125 -1.171875 29.109375 -1.171875 
Q 19.921875 -1.171875 14.703125 6.5 
z
M 14.59375 26.3125 
Q 14.59375 17 17.140625 12.84375 
Q 21.296875 6.0625 28.375 6.0625 
Q 34.125 6.0625 38.328125 11.0625 
Q 42.53125 16.0625 42.53125 25.984375 
Q 42.53125 36.140625 38.5 40.96875 
Q 34.46875 45.796875 28.765625 45.796875 
Q 23 45.796875 18.796875 40.796875 
Q 14.59375 35.796875 14.59375 26.3125 
z
" id="ArialMT-98"/>
     <path d="M 40.578125 0 
L 40.578125 7.625 
Q 34.515625 -1.171875 24.125 -1.171875 
Q 19.53125 -1.171875 15.546875 0.578125 
Q 11.578125 2.34375 9.640625 5 
Q 7.71875 7.671875 6.9375 11.53125 
Q 6.390625 14.109375 6.390625 19.734375 
L 6.390625 51.859375 
L 15.1875 51.859375 
L 15.1875 23.09375 
Q 15.1875 16.21875 15.71875 13.8125 
Q 16.546875 10.359375 19.234375 8.375 
Q 21.921875 6.390625 25.875 6.390625 
Q 29.828125 6.390625 33.296875 8.421875 
Q 36.765625 10.453125 38.203125 13.9375 
Q 39.65625 17.4375 39.65625 24.078125 
L 39.65625 51.859375 
L 48.4375 51.859375 
L 48.4375 0 
z
" id="ArialMT-117"/>
     <path d="M 3.328125 25.921875 
Q 3.328125 40.328125 11.328125 47.265625 
Q 18.015625 53.03125 27.640625 53.03125 
Q 38.328125 53.03125 45.109375 46.015625 
Q 51.90625 39.015625 51.90625 26.65625 
Q 51.90625 16.65625 48.90625 10.90625 
Q 45.90625 5.171875 40.15625 2 
Q 34.421875 -1.171875 27.640625 -1.171875 
Q 16.75 -1.171875 10.03125 5.8125 
Q 3.328125 12.796875 3.328125 25.921875 
z
M 12.359375 25.921875 
Q 12.359375 15.96875 16.703125 11.015625 
Q 21.046875 6.0625 27.640625 6.0625 
Q 34.1875 6.0625 38.53125 11.03125 
Q 42.875 16.015625 42.875 26.21875 
Q 42.875 35.84375 38.5 40.796875 
Q 34.125 45.75 27.640625 45.75 
Q 21.046875 45.75 16.703125 40.8125 
Q 12.359375 35.890625 12.359375 25.921875 
z
" id="ArialMT-111"/>
     <path d="M 6.59375 0 
L 6.59375 51.859375 
L 14.5 51.859375 
L 14.5 44.484375 
Q 20.21875 53.03125 31 53.03125 
Q 35.6875 53.03125 39.625 51.34375 
Q 43.5625 49.65625 45.515625 46.921875 
Q 47.46875 44.1875 48.25 40.4375 
Q 48.734375 37.984375 48.734375 31.890625 
L 48.734375 0 
L 39.9375 0 
L 39.9375 31.546875 
Q 39.9375 36.921875 38.90625 39.578125 
Q 37.890625 42.234375 35.28125 43.8125 
Q 32.671875 45.40625 29.15625 45.40625 
Q 23.53125 45.40625 19.453125 41.84375 
Q 15.375 38.28125 15.375 28.328125 
L 15.375 0 
z
" id="ArialMT-110"/>
     <path id="ArialMT-32"/>
     <path d="M 8.6875 0 
L 8.6875 45.015625 
L 0.921875 45.015625 
L 0.921875 51.859375 
L 8.6875 51.859375 
L 8.6875 57.375 
Q 8.6875 62.59375 9.625 65.140625 
Q 10.890625 68.5625 14.078125 70.671875 
Q 17.28125 72.796875 23.046875 72.796875 
Q 26.765625 72.796875 31.25 71.921875 
L 29.9375 64.265625 
Q 27.203125 64.75 24.75 64.75 
Q 20.75 64.75 19.09375 63.03125 
Q 17.4375 61.328125 17.4375 56.640625 
L 17.4375 51.859375 
L 27.546875 51.859375 
L 27.546875 45.015625 
L 17.4375 45.015625 
L 17.4375 0 
z
" id="ArialMT-102"/>
     <path d="M 6.59375 -19.875 
L 6.59375 51.859375 
L 14.59375 51.859375 
L 14.59375 45.125 
Q 17.4375 49.078125 21 51.046875 
Q 24.5625 53.03125 29.640625 53.03125 
Q 36.28125 53.03125 41.359375 49.609375 
Q 46.4375 46.1875 49.015625 39.953125 
Q 51.609375 33.734375 51.609375 26.3125 
Q 51.609375 18.359375 48.75 11.984375 
Q 45.90625 5.609375 40.453125 2.21875 
Q 35.015625 -1.171875 29 -1.171875 
Q 24.609375 -1.171875 21.109375 0.6875 
Q 17.625 2.546875 15.375 5.375 
L 15.375 -19.875 
z
M 14.546875 25.640625 
Q 14.546875 15.625 18.59375 10.84375 
Q 22.65625 6.0625 28.421875 6.0625 
Q 34.28125 6.0625 38.453125 11.015625 
Q 42.625 15.96875 42.625 26.375 
Q 42.625 36.28125 38.546875 41.203125 
Q 34.46875 46.140625 28.8125 46.140625 
Q 23.1875 46.140625 18.859375 40.890625 
Q 14.546875 35.640625 14.546875 25.640625 
z
" id="ArialMT-112"/>
     <path d="M 6.546875 61.375 
L 6.546875 71.578125 
L 15.328125 71.578125 
L 15.328125 61.375 
z
M -4.59375 -20.125 
L -2.9375 -12.640625 
Q -0.296875 -13.328125 1.21875 -13.328125 
Q 3.90625 -13.328125 5.21875 -11.546875 
Q 6.546875 -9.765625 6.546875 -2.640625 
L 6.546875 51.859375 
L 15.328125 51.859375 
L 15.328125 -2.828125 
Q 15.328125 -12.40625 12.84375 -16.15625 
Q 9.671875 -21.046875 2.296875 -21.046875 
Q -1.265625 -21.046875 -4.59375 -20.125 
z
" id="ArialMT-106"/>
     <path d="M 42.09375 16.703125 
L 51.171875 15.578125 
Q 49.03125 7.625 43.21875 3.21875 
Q 37.40625 -1.171875 28.375 -1.171875 
Q 17 -1.171875 10.328125 5.828125 
Q 3.65625 12.84375 3.65625 25.484375 
Q 3.65625 38.578125 10.390625 45.796875 
Q 17.140625 53.03125 27.875 53.03125 
Q 38.28125 53.03125 44.875 45.953125 
Q 51.46875 38.875 51.46875 26.03125 
Q 51.46875 25.25 51.421875 23.6875 
L 12.75 23.6875 
Q 13.234375 15.140625 17.578125 10.59375 
Q 21.921875 6.0625 28.421875 6.0625 
Q 33.25 6.0625 36.671875 8.59375 
Q 40.09375 11.140625 42.09375 16.703125 
z
M 13.234375 30.90625 
L 42.1875 30.90625 
Q 41.609375 37.453125 38.875 40.71875 
Q 34.671875 45.796875 27.984375 45.796875 
Q 21.921875 45.796875 17.796875 41.75 
Q 13.671875 37.703125 13.234375 30.90625 
z
" id="ArialMT-101"/>
     <path d="M 40.4375 19 
L 49.078125 17.875 
Q 47.65625 8.9375 41.8125 3.875 
Q 35.984375 -1.171875 27.484375 -1.171875 
Q 16.84375 -1.171875 10.375 5.78125 
Q 3.90625 12.75 3.90625 25.734375 
Q 3.90625 34.125 6.6875 40.421875 
Q 9.46875 46.734375 15.15625 49.875 
Q 20.84375 53.03125 27.546875 53.03125 
Q 35.984375 53.03125 41.359375 48.75 
Q 46.734375 44.484375 48.25 36.625 
L 39.703125 35.296875 
Q 38.484375 40.53125 35.375 43.15625 
Q 32.28125 45.796875 27.875 45.796875 
Q 21.234375 45.796875 17.078125 41.03125 
Q 12.9375 36.28125 12.9375 25.984375 
Q 12.9375 15.53125 16.9375 10.796875 
Q 20.953125 6.0625 27.390625 6.0625 
Q 32.5625 6.0625 36.03125 9.234375 
Q 39.5 12.40625 40.4375 19 
z
" id="ArialMT-99"/>
     <path d="M 40.234375 0 
L 40.234375 6.546875 
Q 35.296875 -1.171875 25.734375 -1.171875 
Q 19.53125 -1.171875 14.328125 2.25 
Q 9.125 5.671875 6.265625 11.796875 
Q 3.421875 17.921875 3.421875 25.875 
Q 3.421875 33.640625 6 39.96875 
Q 8.59375 46.296875 13.765625 49.65625 
Q 18.953125 53.03125 25.34375 53.03125 
Q 30.03125 53.03125 33.6875 51.046875 
Q 37.359375 49.078125 39.65625 45.90625 
L 39.65625 71.578125 
L 48.390625 71.578125 
L 48.390625 0 
z
M 12.453125 25.875 
Q 12.453125 15.921875 16.640625 10.984375 
Q 20.84375 6.0625 26.5625 6.0625 
Q 32.328125 6.0625 36.34375 10.765625 
Q 40.375 15.484375 40.375 25.140625 
Q 40.375 35.796875 36.265625 40.765625 
Q 32.171875 45.75 26.171875 45.75 
Q 20.3125 45.75 16.375 40.96875 
Q 12.453125 36.1875 12.453125 25.875 
z
" id="ArialMT-100"/>
     <path d="M 6.203125 -19.96875 
L 5.21875 -11.71875 
Q 8.109375 -12.5 10.25 -12.5 
Q 13.1875 -12.5 14.9375 -11.515625 
Q 16.703125 -10.546875 17.828125 -8.796875 
Q 18.65625 -7.46875 20.515625 -2.25 
Q 20.75 -1.515625 21.296875 -0.09375 
L 1.609375 51.859375 
L 11.078125 51.859375 
L 21.875 21.828125 
Q 23.96875 16.109375 25.640625 9.8125 
Q 27.15625 15.875 29.25 21.625 
L 40.328125 51.859375 
L 49.125 51.859375 
L 29.390625 -0.875 
Q 26.21875 -9.421875 24.46875 -12.640625 
Q 22.125 -17 19.09375 -19.015625 
Q 16.0625 -21.046875 11.859375 -21.046875 
Q 9.328125 -21.046875 6.203125 -19.96875 
z
" id="ArialMT-121"/>
     <path d="M 6.59375 0 
L 6.59375 51.859375 
L 14.453125 51.859375 
L 14.453125 44.578125 
Q 16.890625 48.390625 20.9375 50.703125 
Q 25 53.03125 30.171875 53.03125 
Q 35.9375 53.03125 39.625 50.640625 
Q 43.3125 48.25 44.828125 43.953125 
Q 50.984375 53.03125 60.84375 53.03125 
Q 68.5625 53.03125 72.703125 48.75 
Q 76.859375 44.484375 76.859375 35.59375 
L 76.859375 0 
L 68.109375 0 
L 68.109375 32.671875 
Q 68.109375 37.9375 67.25 40.25 
Q 66.40625 42.578125 64.15625 43.984375 
Q 61.921875 45.40625 58.890625 45.40625 
Q 53.421875 45.40625 49.796875 41.765625 
Q 46.1875 38.140625 46.1875 30.125 
L 46.1875 0 
L 37.40625 0 
L 37.40625 33.6875 
Q 37.40625 39.546875 35.25 42.46875 
Q 33.109375 45.40625 28.21875 45.40625 
Q 24.515625 45.40625 21.359375 43.453125 
Q 18.21875 41.5 16.796875 37.734375 
Q 15.375 33.984375 15.375 26.90625 
L 15.375 0 
z
" id="ArialMT-109"/>
     <path d="M 21 0 
L 1.265625 51.859375 
L 10.546875 51.859375 
L 21.6875 20.796875 
Q 23.484375 15.765625 25 10.359375 
Q 26.171875 14.453125 28.265625 20.21875 
L 39.796875 51.859375 
L 48.828125 51.859375 
L 29.203125 0 
z
" id="ArialMT-118"/>
     <path d="M 6.390625 0 
L 6.390625 71.578125 
L 15.1875 71.578125 
L 15.1875 0 
z
" id="ArialMT-108"/>
     <path d="M 6.59375 0 
L 6.59375 71.578125 
L 15.375 71.578125 
L 15.375 45.90625 
Q 21.53125 53.03125 30.90625 53.03125 
Q 36.671875 53.03125 40.921875 50.75 
Q 45.171875 48.484375 47 44.484375 
Q 48.828125 40.484375 48.828125 32.859375 
L 48.828125 0 
L 40.046875 0 
L 40.046875 32.859375 
Q 40.046875 39.453125 37.1875 42.453125 
Q 34.328125 45.453125 29.109375 45.453125 
Q 25.203125 45.453125 21.75 43.421875 
Q 18.3125 41.40625 16.84375 37.9375 
Q 15.375 34.46875 15.375 28.375 
L 15.375 0 
z
" id="ArialMT-104"/>
     <path d="M 3.171875 21.484375 
L 3.171875 30.328125 
L 30.171875 30.328125 
L 30.171875 21.484375 
z
" id="ArialMT-45"/>
     <path d="M 7.625 0 
L 7.625 71.578125 
L 17.328125 71.578125 
L 54.9375 15.375 
L 54.9375 71.578125 
L 64.015625 71.578125 
L 64.015625 0 
L 54.296875 0 
L 16.703125 56.25 
L 16.703125 0 
z
" id="ArialMT-78"/>
     <path d="M 16.15625 0 
L 0.296875 51.859375 
L 9.375 51.859375 
L 17.625 21.921875 
L 20.703125 10.796875 
Q 20.90625 11.625 23.390625 21.484375 
L 31.640625 51.859375 
L 40.671875 51.859375 
L 48.4375 21.78125 
L 51.03125 11.859375 
L 54 21.875 
L 62.890625 51.859375 
L 71.4375 51.859375 
L 55.21875 0 
L 46.09375 0 
L 37.84375 31.0625 
L 35.84375 39.890625 
L 25.34375 0 
z
" id="ArialMT-119"/>
     <path d="M 7.421875 0 
L 7.421875 71.578125 
L 21.6875 71.578125 
L 38.625 20.90625 
Q 40.96875 13.8125 42.046875 10.296875 
Q 43.265625 14.203125 45.84375 21.78125 
L 62.984375 71.578125 
L 75.734375 71.578125 
L 75.734375 0 
L 66.609375 0 
L 66.609375 59.90625 
L 45.796875 0 
L 37.25 0 
L 16.546875 60.9375 
L 16.546875 0 
z
" id="ArialMT-77"/>
     <path d="M -1.515625 -19.875 
L -1.515625 -13.53125 
L 56.734375 -13.53125 
L 56.734375 -19.875 
z
" id="ArialMT-95"/>
     <path d="M 49.75 54.046875 
L 41.015625 53.375 
Q 39.84375 58.546875 37.703125 60.890625 
Q 34.125 64.65625 28.90625 64.65625 
Q 24.703125 64.65625 21.53125 62.3125 
Q 17.390625 59.28125 14.984375 53.46875 
Q 12.59375 47.65625 12.5 36.921875 
Q 15.671875 41.75 20.265625 44.09375 
Q 24.859375 46.4375 29.890625 46.4375 
Q 38.671875 46.4375 44.84375 39.96875 
Q 51.03125 33.5 51.03125 23.25 
Q 51.03125 16.5 48.125 10.71875 
Q 45.21875 4.9375 40.140625 1.859375 
Q 35.0625 -1.21875 28.609375 -1.21875 
Q 17.625 -1.21875 10.6875 6.859375 
Q 3.765625 14.9375 3.765625 33.5 
Q 3.765625 54.25 11.421875 63.671875 
Q 18.109375 71.875 29.4375 71.875 
Q 37.890625 71.875 43.28125 67.140625 
Q 48.6875 62.40625 49.75 54.046875 
z
M 13.875 23.1875 
Q 13.875 18.65625 15.796875 14.5 
Q 17.71875 10.359375 21.1875 8.171875 
Q 24.65625 6 28.46875 6 
Q 34.03125 6 38.03125 10.484375 
Q 42.046875 14.984375 42.046875 22.703125 
Q 42.046875 30.125 38.078125 34.390625 
Q 34.125 38.671875 28.125 38.671875 
Q 22.171875 38.671875 18.015625 34.390625 
Q 13.875 30.125 13.875 23.1875 
z
" id="ArialMT-54"/>
    </defs>
    <g style="fill:#262626;" transform="translate(89.110313 23.748375)scale(0.12 -0.12)">
     <use xlink:href="#ArialMT-68"/>
     <use x="72.216797" xlink:href="#ArialMT-105"/>
     <use x="94.433594" xlink:href="#ArialMT-115"/>
     <use x="144.433594" xlink:href="#ArialMT-116"/>
     <use x="172.216797" xlink:href="#ArialMT-114"/>
     <use x="205.517578" xlink:href="#ArialMT-105"/>
     <use x="227.734375" xlink:href="#ArialMT-98"/>
     <use x="283.349609" xlink:href="#ArialMT-117"/>
     <use x="338.964844" xlink:href="#ArialMT-116"/>
     <use x="366.748047" xlink:href="#ArialMT-105"/>
     <use x="388.964844" xlink:href="#ArialMT-111"/>
     <use x="444.580078" xlink:href="#ArialMT-110"/>
     <use x="500.195312" xlink:href="#ArialMT-32"/>
     <use x="527.978516" xlink:href="#ArialMT-111"/>
     <use x="583.59375" xlink:href="#ArialMT-102"/>
     <use x="611.376953" xlink:href="#ArialMT-32"/>
     <use x="639.160156" xlink:href="#ArialMT-112"/>
     <use x="694.775391" xlink:href="#ArialMT-114"/>
     <use x="728.076172" xlink:href="#ArialMT-111"/>
     <use x="783.691406" xlink:href="#ArialMT-106"/>
     <use x="805.908203" xlink:href="#ArialMT-101"/>
     <use x="861.523438" xlink:href="#ArialMT-99"/>
     <use x="911.523438" xlink:href="#ArialMT-116"/>
     <use x="939.306641" xlink:href="#ArialMT-101"/>
     <use x="994.921875" xlink:href="#ArialMT-100"/>
     <use x="1050.537109" xlink:href="#ArialMT-32"/>
     <use x="1078.320312" xlink:href="#ArialMT-101"/>
     <use x="1133.935547" xlink:href="#ArialMT-121"/>
     <use x="1183.935547" xlink:href="#ArialMT-101"/>
     <use x="1239.550781" xlink:href="#ArialMT-32"/>
     <use x="1267.333984" xlink:href="#ArialMT-109"/>
     <use x="1350.634766" xlink:href="#ArialMT-111"/>
     <use x="1406.25" xlink:href="#ArialMT-118"/>
     <use x="1456.25" xlink:href="#ArialMT-101"/>
     <use x="1511.865234" xlink:href="#ArialMT-109"/>
     <use x="1595.166016" xlink:href="#ArialMT-101"/>
     <use x="1650.78125" xlink:href="#ArialMT-110"/>
     <use x="1706.396484" xlink:href="#ArialMT-116"/>
     <use x="1734.179688" xlink:href="#ArialMT-32"/>
     <use x="1761.962891" xlink:href="#ArialMT-118"/>
     <use x="1811.962891" xlink:href="#ArialMT-101"/>
     <use x="1867.578125" xlink:href="#ArialMT-108"/>
     <use x="1889.794922" xlink:href="#ArialMT-111"/>
     <use x="1945.410156" xlink:href="#ArialMT-99"/>
     <use x="1995.410156" xlink:href="#ArialMT-105"/>
     <use x="2017.626953" xlink:href="#ArialMT-116"/>
     <use x="2045.410156" xlink:href="#ArialMT-121"/>
     <use x="2095.410156" xlink:href="#ArialMT-32"/>
     <use x="2123.193359" xlink:href="#ArialMT-111"/>
     <use x="2178.808594" xlink:href="#ArialMT-110"/>
     <use x="2234.423828" xlink:href="#ArialMT-32"/>
     <use x="2262.207031" xlink:href="#ArialMT-116"/>
     <use x="2289.990234" xlink:href="#ArialMT-104"/>
     <use x="2345.605469" xlink:href="#ArialMT-101"/>
     <use x="2401.220703" xlink:href="#ArialMT-32"/>
     <use x="2429.003906" xlink:href="#ArialMT-115"/>
     <use x="2479.003906" xlink:href="#ArialMT-99"/>
     <use x="2529.003906" xlink:href="#ArialMT-114"/>
     <use x="2562.304688" xlink:href="#ArialMT-101"/>
     <use x="2617.919922" xlink:href="#ArialMT-101"/>
     <use x="2673.535156" xlink:href="#ArialMT-110"/>
     <use x="2729.150391" xlink:href="#ArialMT-32"/>
     <use x="2756.933594" xlink:href="#ArialMT-45"/>
     <use x="2790.234375" xlink:href="#ArialMT-32"/>
     <use x="2818.017578" xlink:href="#ArialMT-78"/>
     <use x="2890.234375" xlink:href="#ArialMT-101"/>
     <use x="2945.849609" xlink:href="#ArialMT-119"/>
     <use x="3018.066406" xlink:href="#ArialMT-77"/>
     <use x="3101.367188" xlink:href="#ArialMT-53"/>
     <use x="3156.982422" xlink:href="#ArialMT-95"/>
     <use x="3212.597656" xlink:href="#ArialMT-54"/>
     <use x="3268.212891" xlink:href="#ArialMT-95"/>
     <use x="3323.828125" xlink:href="#ArialMT-50"/>
     <use x="3379.443359" xlink:href="#ArialMT-50"/>
    </g>
   </g>
   <g id="legend_1">
    <g id="line2d_18">
     <path d="M 196.705469 60.2075 
L 216.705469 60.2075 
" style="fill:none;stroke:#ff0000;stroke-dasharray:7.4,3.2;stroke-dashoffset:0;stroke-width:2;"/>
    </g>
    <g id="line2d_19"/>
    <g id="text_18">
     <!-- Average angle in light: -61.44 degrees -->
     <defs>
      <path d="M -0.140625 0 
L 27.34375 71.578125 
L 37.546875 71.578125 
L 66.84375 0 
L 56.0625 0 
L 47.703125 21.6875 
L 17.78125 21.6875 
L 9.90625 0 
z
M 20.515625 29.390625 
L 44.78125 29.390625 
L 37.3125 49.21875 
Q 33.890625 58.25 32.234375 64.0625 
Q 30.859375 57.171875 28.375 50.390625 
z
" id="ArialMT-65"/>
      <path d="M 40.4375 6.390625 
Q 35.546875 2.25 31.03125 0.53125 
Q 26.515625 -1.171875 21.34375 -1.171875 
Q 12.796875 -1.171875 8.203125 3 
Q 3.609375 7.171875 3.609375 13.671875 
Q 3.609375 17.484375 5.34375 20.625 
Q 7.078125 23.78125 9.890625 25.6875 
Q 12.703125 27.59375 16.21875 28.5625 
Q 18.796875 29.25 24.03125 29.890625 
Q 34.671875 31.15625 39.703125 32.90625 
Q 39.75 34.71875 39.75 35.203125 
Q 39.75 40.578125 37.25 42.78125 
Q 33.890625 45.75 27.25 45.75 
Q 21.046875 45.75 18.09375 43.578125 
Q 15.140625 41.40625 13.71875 35.890625 
L 5.125 37.0625 
Q 6.296875 42.578125 8.984375 45.96875 
Q 11.671875 49.359375 16.75 51.1875 
Q 21.828125 53.03125 28.515625 53.03125 
Q 35.15625 53.03125 39.296875 51.46875 
Q 43.453125 49.90625 45.40625 47.53125 
Q 47.359375 45.171875 48.140625 41.546875 
Q 48.578125 39.3125 48.578125 33.453125 
L 48.578125 21.734375 
Q 48.578125 9.46875 49.140625 6.21875 
Q 49.703125 2.984375 51.375 0 
L 42.1875 0 
Q 40.828125 2.734375 40.4375 6.390625 
z
M 39.703125 26.03125 
Q 34.90625 24.078125 25.34375 22.703125 
Q 19.921875 21.921875 17.671875 20.9375 
Q 15.4375 19.96875 14.203125 18.09375 
Q 12.984375 16.21875 12.984375 13.921875 
Q 12.984375 10.40625 15.640625 8.0625 
Q 18.3125 5.71875 23.4375 5.71875 
Q 28.515625 5.71875 32.46875 7.9375 
Q 36.421875 10.15625 38.28125 14.015625 
Q 39.703125 17 39.703125 22.796875 
z
" id="ArialMT-97"/>
      <path d="M 4.984375 -4.296875 
L 13.53125 -5.5625 
Q 14.0625 -9.515625 16.5 -11.328125 
Q 19.78125 -13.765625 25.4375 -13.765625 
Q 31.546875 -13.765625 34.859375 -11.328125 
Q 38.1875 -8.890625 39.359375 -4.5 
Q 40.046875 -1.8125 39.984375 6.78125 
Q 34.234375 0 25.640625 0 
Q 14.9375 0 9.078125 7.71875 
Q 3.21875 15.4375 3.21875 26.21875 
Q 3.21875 33.640625 5.90625 39.90625 
Q 8.59375 46.1875 13.6875 49.609375 
Q 18.796875 53.03125 25.6875 53.03125 
Q 34.859375 53.03125 40.828125 45.609375 
L 40.828125 51.859375 
L 48.921875 51.859375 
L 48.921875 7.03125 
Q 48.921875 -5.078125 46.453125 -10.125 
Q 44 -15.1875 38.640625 -18.109375 
Q 33.296875 -21.046875 25.484375 -21.046875 
Q 16.21875 -21.046875 10.5 -16.875 
Q 4.78125 -12.703125 4.984375 -4.296875 
z
M 12.25 26.859375 
Q 12.25 16.65625 16.296875 11.96875 
Q 20.359375 7.28125 26.46875 7.28125 
Q 32.515625 7.28125 36.609375 11.9375 
Q 40.71875 16.609375 40.71875 26.5625 
Q 40.71875 36.078125 36.5 40.90625 
Q 32.28125 45.75 26.3125 45.75 
Q 20.453125 45.75 16.34375 40.984375 
Q 12.25 36.234375 12.25 26.859375 
z
" id="ArialMT-103"/>
      <path d="M 9.03125 41.84375 
L 9.03125 51.859375 
L 19.046875 51.859375 
L 19.046875 41.84375 
z
M 9.03125 0 
L 9.03125 10.015625 
L 19.046875 10.015625 
L 19.046875 0 
z
" id="ArialMT-58"/>
     </defs>
     <g style="fill:#262626;" transform="translate(224.705469 63.7075)scale(0.1 -0.1)">
      <use xlink:href="#ArialMT-65"/>
      <use x="66.683594" xlink:href="#ArialMT-118"/>
      <use x="116.683594" xlink:href="#ArialMT-101"/>
      <use x="172.298828" xlink:href="#ArialMT-114"/>
      <use x="205.599609" xlink:href="#ArialMT-97"/>
      <use x="261.214844" xlink:href="#ArialMT-103"/>
      <use x="316.830078" xlink:href="#ArialMT-101"/>
      <use x="372.445312" xlink:href="#ArialMT-32"/>
      <use x="400.228516" xlink:href="#ArialMT-97"/>
      <use x="455.84375" xlink:href="#ArialMT-110"/>
      <use x="511.458984" xlink:href="#ArialMT-103"/>
      <use x="567.074219" xlink:href="#ArialMT-108"/>
      <use x="589.291016" xlink:href="#ArialMT-101"/>
      <use x="644.90625" xlink:href="#ArialMT-32"/>
      <use x="672.689453" xlink:href="#ArialMT-105"/>
      <use x="694.90625" xlink:href="#ArialMT-110"/>
      <use x="750.521484" xlink:href="#ArialMT-32"/>
      <use x="778.304688" xlink:href="#ArialMT-108"/>
      <use x="800.521484" xlink:href="#ArialMT-105"/>
      <use x="822.738281" xlink:href="#ArialMT-103"/>
      <use x="878.353516" xlink:href="#ArialMT-104"/>
      <use x="933.96875" xlink:href="#ArialMT-116"/>
      <use x="961.751953" xlink:href="#ArialMT-58"/>
      <use x="989.535156" xlink:href="#ArialMT-32"/>
      <use x="1017.318359" xlink:href="#ArialMT-45"/>
      <use x="1050.619141" xlink:href="#ArialMT-54"/>
      <use x="1106.234375" xlink:href="#ArialMT-49"/>
      <use x="1161.849609" xlink:href="#ArialMT-46"/>
      <use x="1189.632812" xlink:href="#ArialMT-52"/>
      <use x="1245.248047" xlink:href="#ArialMT-52"/>
      <use x="1300.863281" xlink:href="#ArialMT-32"/>
      <use x="1328.646484" xlink:href="#ArialMT-100"/>
      <use x="1384.261719" xlink:href="#ArialMT-101"/>
      <use x="1439.876953" xlink:href="#ArialMT-103"/>
      <use x="1495.492188" xlink:href="#ArialMT-114"/>
      <use x="1528.792969" xlink:href="#ArialMT-101"/>
      <use x="1584.408203" xlink:href="#ArialMT-101"/>
      <use x="1640.023438" xlink:href="#ArialMT-115"/>
     </g>
    </g>
    <g id="PathCollection_4">
     <g>
      <use style="fill:#4c72b0;stroke:#4c72b0;stroke-width:0.3;" x="206.705469" xlink:href="#m97566af9a3" y="75.345"/>
     </g>
    </g>
    <g id="text_19">
     <!-- $-0.5 &lt; t &lt; 0.$ -->
     <defs>
      <path d="M 10.59375 35.5 
L 73.1875 35.5 
L 73.1875 27.203125 
L 10.59375 27.203125 
z
" id="DejaVuSans-8722"/>
      <path d="M 31.78125 66.40625 
Q 24.171875 66.40625 20.328125 58.90625 
Q 16.5 51.421875 16.5 36.375 
Q 16.5 21.390625 20.328125 13.890625 
Q 24.171875 6.390625 31.78125 6.390625 
Q 39.453125 6.390625 43.28125 13.890625 
Q 47.125 21.390625 47.125 36.375 
Q 47.125 51.421875 43.28125 58.90625 
Q 39.453125 66.40625 31.78125 66.40625 
z
M 31.78125 74.21875 
Q 44.046875 74.21875 50.515625 64.515625 
Q 56.984375 54.828125 56.984375 36.375 
Q 56.984375 17.96875 50.515625 8.265625 
Q 44.046875 -1.421875 31.78125 -1.421875 
Q 19.53125 -1.421875 13.0625 8.265625 
Q 6.59375 17.96875 6.59375 36.375 
Q 6.59375 54.828125 13.0625 64.515625 
Q 19.53125 74.21875 31.78125 74.21875 
z
" id="DejaVuSans-48"/>
      <path d="M 10.6875 12.40625 
L 21 12.40625 
L 21 0 
L 10.6875 0 
z
" id="DejaVuSans-46"/>
      <path d="M 10.796875 72.90625 
L 49.515625 72.90625 
L 49.515625 64.59375 
L 19.828125 64.59375 
L 19.828125 46.734375 
Q 21.96875 47.46875 24.109375 47.828125 
Q 26.265625 48.1875 28.421875 48.1875 
Q 40.625 48.1875 47.75 41.5 
Q 54.890625 34.8125 54.890625 23.390625 
Q 54.890625 11.625 47.5625 5.09375 
Q 40.234375 -1.421875 26.90625 -1.421875 
Q 22.3125 -1.421875 17.546875 -0.640625 
Q 12.796875 0.140625 7.71875 1.703125 
L 7.71875 11.625 
Q 12.109375 9.234375 16.796875 8.0625 
Q 21.484375 6.890625 26.703125 6.890625 
Q 35.15625 6.890625 40.078125 11.328125 
Q 45.015625 15.765625 45.015625 23.390625 
Q 45.015625 31 40.078125 35.4375 
Q 35.15625 39.890625 26.703125 39.890625 
Q 22.75 39.890625 18.8125 39.015625 
Q 14.890625 38.140625 10.796875 36.28125 
z
" id="DejaVuSans-53"/>
      <path d="M 73.1875 49.21875 
L 22.796875 31.296875 
L 73.1875 13.484375 
L 73.1875 4.59375 
L 10.59375 27.296875 
L 10.59375 35.40625 
L 73.1875 58.109375 
z
" id="DejaVuSans-60"/>
      <path d="M 42.28125 54.6875 
L 40.921875 47.703125 
L 23 47.703125 
L 17.1875 18.015625 
Q 16.890625 16.359375 16.75 15.234375 
Q 16.609375 14.109375 16.609375 13.484375 
Q 16.609375 10.359375 18.484375 8.9375 
Q 20.359375 7.515625 24.515625 7.515625 
L 33.59375 7.515625 
L 32.078125 0 
L 23.484375 0 
Q 15.484375 0 11.546875 3.125 
Q 7.625 6.25 7.625 12.59375 
Q 7.625 13.71875 7.765625 15.0625 
Q 7.90625 16.40625 8.203125 18.015625 
L 14.015625 47.703125 
L 6.390625 47.703125 
L 7.8125 54.6875 
L 15.28125 54.6875 
L 18.3125 70.21875 
L 27.296875 70.21875 
L 24.3125 54.6875 
z
" id="DejaVuSans-Oblique-116"/>
     </defs>
     <g style="fill:#262626;" transform="translate(224.705469 77.97)scale(0.1 -0.1)">
      <use transform="translate(0 0.78125)" xlink:href="#DejaVuSans-8722"/>
      <use transform="translate(83.789062 0.78125)" xlink:href="#DejaVuSans-48"/>
      <use transform="translate(147.412109 0.78125)" xlink:href="#DejaVuSans-46"/>
      <use transform="translate(179.199219 0.78125)" xlink:href="#DejaVuSans-53"/>
      <use transform="translate(262.304688 0.78125)" xlink:href="#DejaVuSans-60"/>
      <use transform="translate(365.576172 0.78125)" xlink:href="#DejaVuSans-Oblique-116"/>
      <use transform="translate(424.267578 0.78125)" xlink:href="#DejaVuSans-60"/>
      <use transform="translate(527.539062 0.78125)" xlink:href="#DejaVuSans-48"/>
     </g>
    </g>
    <g id="PathCollection_5">
     <g>
      <use style="fill:#55a868;stroke:#55a868;stroke-width:0.3;" x="206.705469" xlink:href="#m5597c6d315" y="89.490312"/>
     </g>
    </g>
    <g id="text_20">
     <!-- $0. &lt; t &lt; 0.5$ -->
     <g style="fill:#262626;" transform="translate(224.705469 92.115312)scale(0.1 -0.1)">
      <use transform="translate(0 0.78125)" xlink:href="#DejaVuSans-48"/>
      <use transform="translate(63.623047 0.78125)" xlink:href="#DejaVuSans-46"/>
      <use transform="translate(134.375 0.78125)" xlink:href="#DejaVuSans-60"/>
      <use transform="translate(237.646484 0.78125)" xlink:href="#DejaVuSans-Oblique-116"/>
      <use transform="translate(296.337891 0.78125)" xlink:href="#DejaVuSans-60"/>
      <use transform="translate(399.609375 0.78125)" xlink:href="#DejaVuSans-48"/>
      <use transform="translate(463.232422 0.78125)" xlink:href="#DejaVuSans-46"/>
      <use transform="translate(495.019531 0.78125)" xlink:href="#DejaVuSans-53"/>
     </g>
    </g>
    <g id="PathCollection_6">
     <g>
      <use style="fill:#c44e52;stroke:#c44e52;stroke-width:0.3;" x="206.705469" xlink:href="#m298712b23f" y="103.635625"/>
     </g>
    </g>
    <g id="text_21">
     <!-- $0.5 &lt; t &lt; 1.$ -->
     <defs>
      <path d="M 12.40625 8.296875 
L 28.515625 8.296875 
L 28.515625 63.921875 
L 10.984375 60.40625 
L 10.984375 69.390625 
L 28.421875 72.90625 
L 38.28125 72.90625 
L 38.28125 8.296875 
L 54.390625 8.296875 
L 54.390625 0 
L 12.40625 0 
z
" id="DejaVuSans-49"/>
     </defs>
     <g style="fill:#262626;" transform="translate(224.705469 106.260625)scale(0.1 -0.1)">
      <use transform="translate(0 0.78125)" xlink:href="#DejaVuSans-48"/>
      <use transform="translate(63.623047 0.78125)" xlink:href="#DejaVuSans-46"/>
      <use transform="translate(95.410156 0.78125)" xlink:href="#DejaVuSans-53"/>
      <use transform="translate(178.515625 0.78125)" xlink:href="#DejaVuSans-60"/>
      <use transform="translate(281.787109 0.78125)" xlink:href="#DejaVuSans-Oblique-116"/>
      <use transform="translate(340.478516 0.78125)" xlink:href="#DejaVuSans-60"/>
      <use transform="translate(443.75 0.78125)" xlink:href="#DejaVuSans-49"/>
     </g>
    </g>
   </g>
  </g>
 </g>
 <defs>
  <clipPath id="pec865e4895">
   <path d="M 447.66 199.98 
C 447.66 179.959136 443.716326 160.13295 436.054674 141.636084 
C 428.393021 123.139218 417.162388 106.331389 403.0055 92.1745 
C 388.848611 78.017612 372.040782 66.786979 353.543916 59.125326 
C 335.04705 51.463674 315.220864 47.52 295.2 47.52 
C 275.179136 47.52 255.35295 51.463674 236.856084 59.125326 
C 218.359218 66.786979 201.551389 78.017612 187.3945 92.1745 
C 173.237612 106.331389 162.006979 123.139218 154.345326 141.636084 
C 146.683674 160.13295 142.74 179.959136 142.74 199.98 
C 142.74 220.000864 146.683674 239.82705 154.345326 258.323916 
C 162.006979 276.820782 173.237612 293.628611 187.3945 307.7855 
C 201.551389 321.942388 218.359218 333.173021 236.856084 340.834674 
C 255.35295 348.496326 275.179136 352.44 295.2 352.44 
C 315.220864 352.44 335.04705 348.496326 353.543916 340.834674 
C 372.040782 333.173021 388.848611 321.942388 403.0055 307.7855 
C 417.162388 293.628611 428.393021 276.820782 436.054674 258.323916 
C 443.716326 239.82705 447.66 220.000864 447.66 199.98 
M 295.2 199.98 
C 295.2 199.98 295.2 199.98 295.2 199.98 
C 295.2 199.98 295.2 199.98 295.2 199.98 
C 295.2 199.98 295.2 199.98 295.2 199.98 
C 295.2 199.98 295.2 199.98 295.2 199.98 
C 295.2 199.98 295.2 199.98 295.2 199.98 
C 295.2 199.98 295.2 199.98 295.2 199.98 
C 295.2 199.98 295.2 199.98 295.2 199.98 
C 295.2 199.98 295.2 199.98 295.2 199.98 
C 295.2 199.98 295.2 199.98 295.2 199.98 
C 295.2 199.98 295.2 199.98 295.2 199.98 
C 295.2 199.98 295.2 199.98 295.2 199.98 
C 295.2 199.98 295.2 199.98 295.2 199.98 
C 295.2 199.98 295.2 199.98 295.2 199.98 
C 295.2 199.98 295.2 199.98 295.2 199.98 
C 295.2 199.98 295.2 199.98 295.2 199.98 
C 295.2 199.98 295.2 199.98 295.2 199.98 
M 447.66 199.98 
z
"/>
  </clipPath>
 </defs>
</svg>
