<?xml version="1.0" encoding="utf-8" standalone="no"?>
<!DOCTYPE svg PUBLIC "-//W3C//DTD SVG 1.1//EN"
  "http://www.w3.org/Graphics/SVG/1.1/DTD/svg11.dtd">
<!-- Created with matplotlib (https://matplotlib.org/) -->
<svg height="396pt" version="1.1" viewBox="0 0 576 396" width="576pt" xmlns="http://www.w3.org/2000/svg" xmlns:xlink="http://www.w3.org/1999/xlink">
 <defs>
  <style type="text/css">
*{stroke-linecap:butt;stroke-linejoin:round;}
  </style>
 </defs>
 <g id="figure_1">
  <g id="patch_1">
   <path d="M 0 396 
L 576 396 
L 576 0 
L 0 0 
z
" style="fill:#ffffff;"/>
  </g>
  <g id="axes_1">
   <g id="patch_2">
    <path d="M 447.66 199.98 
C 447.66 179.959136 443.716326 160.13295 436.054674 141.636084 
C 428.393021 123.139218 417.162388 106.331389 403.0055 92.1745 
C 388.848611 78.017612 372.040782 66.786979 353.543916 59.125326 
C 335.04705 51.463674 315.220864 47.52 295.2 47.52 
C 275.179136 47.52 255.35295 51.463674 236.856084 59.125326 
C 218.359218 66.786979 201.551389 78.017612 187.3945 92.1745 
C 173.237612 106.331389 162.006979 123.139218 154.345326 141.636084 
C 146.683674 160.13295 142.74 179.959136 142.74 199.98 
C 142.74 220.000864 146.683674 239.82705 154.345326 258.323916 
C 162.006979 276.820782 173.237612 293.628611 187.3945 307.7855 
C 201.551389 321.942388 218.359218 333.173021 236.856084 340.834674 
C 255.35295 348.496326 275.179136 352.44 295.2 352.44 
C 315.220864 352.44 335.04705 348.496326 353.543916 340.834674 
C 372.040782 333.173021 388.848611 321.942388 403.0055 307.7855 
C 417.162388 293.628611 428.393021 276.820782 436.054674 258.323916 
C 443.716326 239.82705 447.66 220.000864 447.66 199.98 
M 295.2 199.98 
C 295.2 199.98 295.2 199.98 295.2 199.98 
C 295.2 199.98 295.2 199.98 295.2 199.98 
C 295.2 199.98 295.2 199.98 295.2 199.98 
C 295.2 199.98 295.2 199.98 295.2 199.98 
C 295.2 199.98 295.2 199.98 295.2 199.98 
C 295.2 199.98 295.2 199.98 295.2 199.98 
C 295.2 199.98 295.2 199.98 295.2 199.98 
C 295.2 199.98 295.2 199.98 295.2 199.98 
C 295.2 199.98 295.2 199.98 295.2 199.98 
C 295.2 199.98 295.2 199.98 295.2 199.98 
C 295.2 199.98 295.2 199.98 295.2 199.98 
C 295.2 199.98 295.2 199.98 295.2 199.98 
C 295.2 199.98 295.2 199.98 295.2 199.98 
C 295.2 199.98 295.2 199.98 295.2 199.98 
C 295.2 199.98 295.2 199.98 295.2 199.98 
C 295.2 199.98 295.2 199.98 295.2 199.98 
M 447.66 199.98 
z
" style="fill:#eaeaf2;"/>
   </g>
   <g id="matplotlib.axis_1">
    <g id="xtick_1">
     <g id="line2d_1">
      <path clip-path="url(#p4fed80ccc2)" d="M 295.2 199.98 
L 447.66 199.98 
" style="fill:none;stroke:#ffffff;stroke-linecap:round;"/>
     </g>
     <g id="text_1">
      <!-- 0° -->
      <defs>
       <path d="M 4.15625 35.296875 
Q 4.15625 48 6.765625 55.734375 
Q 9.375 63.484375 14.515625 67.671875 
Q 19.671875 71.875 27.484375 71.875 
Q 33.25 71.875 37.59375 69.546875 
Q 41.9375 67.234375 44.765625 62.859375 
Q 47.609375 58.5 49.21875 52.21875 
Q 50.828125 45.953125 50.828125 35.296875 
Q 50.828125 22.703125 48.234375 14.96875 
Q 45.65625 7.234375 40.5 3 
Q 35.359375 -1.21875 27.484375 -1.21875 
Q 17.140625 -1.21875 11.234375 6.203125 
Q 4.15625 15.140625 4.15625 35.296875 
z
M 13.1875 35.296875 
Q 13.1875 17.671875 17.3125 11.828125 
Q 21.4375 6 27.484375 6 
Q 33.546875 6 37.671875 11.859375 
Q 41.796875 17.71875 41.796875 35.296875 
Q 41.796875 52.984375 37.671875 58.78125 
Q 33.546875 64.59375 27.390625 64.59375 
Q 21.34375 64.59375 17.71875 59.46875 
Q 13.1875 52.9375 13.1875 35.296875 
z
" id="ArialMT-48"/>
       <path d="M 6.25 59.28125 
Q 6.25 64.890625 10.21875 68.84375 
Q 14.203125 72.796875 19.78125 72.796875 
Q 25.4375 72.796875 29.390625 68.84375 
Q 33.34375 64.890625 33.34375 59.28125 
Q 33.34375 53.65625 29.359375 49.671875 
Q 25.390625 45.703125 19.78125 45.703125 
Q 14.203125 45.703125 10.21875 49.65625 
Q 6.25 53.609375 6.25 59.28125 
z
M 11.578125 59.28125 
Q 11.578125 55.859375 13.984375 53.4375 
Q 16.40625 51.03125 19.828125 51.03125 
Q 23.1875 51.03125 25.609375 53.4375 
Q 28.03125 55.859375 28.03125 59.28125 
Q 28.03125 62.703125 25.609375 65.109375 
Q 23.1875 67.53125 19.828125 67.53125 
Q 16.40625 67.53125 13.984375 65.109375 
Q 11.578125 62.703125 11.578125 59.28125 
z
" id="ArialMT-176"/>
      </defs>
      <g style="fill:#262626;" transform="translate(456.880313 202.565156)scale(0.1 -0.1)">
       <use xlink:href="#ArialMT-48"/>
       <use x="55.615234" xlink:href="#ArialMT-176"/>
      </g>
     </g>
    </g>
    <g id="xtick_2">
     <g id="line2d_2">
      <path clip-path="url(#p4fed80ccc2)" d="M 295.2 199.98 
L 403.0055 92.1745 
" style="fill:none;stroke:#ffffff;stroke-linecap:round;"/>
     </g>
     <g id="text_2">
      <!-- 45° -->
      <defs>
       <path d="M 32.328125 0 
L 32.328125 17.140625 
L 1.265625 17.140625 
L 1.265625 25.203125 
L 33.9375 71.578125 
L 41.109375 71.578125 
L 41.109375 25.203125 
L 50.78125 25.203125 
L 50.78125 17.140625 
L 41.109375 17.140625 
L 41.109375 0 
z
M 32.328125 25.203125 
L 32.328125 57.46875 
L 9.90625 25.203125 
z
" id="ArialMT-52"/>
       <path d="M 4.15625 18.75 
L 13.375 19.53125 
Q 14.40625 12.796875 18.140625 9.390625 
Q 21.875 6 27.15625 6 
Q 33.5 6 37.890625 10.78125 
Q 42.28125 15.578125 42.28125 23.484375 
Q 42.28125 31 38.0625 35.34375 
Q 33.84375 39.703125 27 39.703125 
Q 22.75 39.703125 19.328125 37.765625 
Q 15.921875 35.84375 13.96875 32.765625 
L 5.71875 33.84375 
L 12.640625 70.609375 
L 48.25 70.609375 
L 48.25 62.203125 
L 19.671875 62.203125 
L 15.828125 42.96875 
Q 22.265625 47.46875 29.34375 47.46875 
Q 38.71875 47.46875 45.15625 40.96875 
Q 51.609375 34.46875 51.609375 24.265625 
Q 51.609375 14.546875 45.953125 7.46875 
Q 39.0625 -1.21875 27.15625 -1.21875 
Q 17.390625 -1.21875 11.203125 4.25 
Q 5.03125 9.71875 4.15625 18.75 
z
" id="ArialMT-53"/>
      </defs>
      <g style="fill:#262626;" transform="translate(405.344839 84.860161)scale(0.1 -0.1)">
       <use xlink:href="#ArialMT-52"/>
       <use x="55.615234" xlink:href="#ArialMT-53"/>
       <use x="111.230469" xlink:href="#ArialMT-176"/>
      </g>
     </g>
    </g>
    <g id="xtick_3">
     <g id="line2d_3">
      <path clip-path="url(#p4fed80ccc2)" d="M 295.2 199.98 
L 295.2 47.52 
" style="fill:none;stroke:#ffffff;stroke-linecap:round;"/>
     </g>
     <g id="text_3">
      <!-- 90° -->
      <defs>
       <path d="M 5.46875 16.546875 
L 13.921875 17.328125 
Q 14.984375 11.375 18.015625 8.6875 
Q 21.046875 6 25.78125 6 
Q 29.828125 6 32.875 7.859375 
Q 35.9375 9.71875 37.890625 12.8125 
Q 39.84375 15.921875 41.15625 21.1875 
Q 42.484375 26.46875 42.484375 31.9375 
Q 42.484375 32.515625 42.4375 33.6875 
Q 39.796875 29.5 35.234375 26.875 
Q 30.671875 24.265625 25.34375 24.265625 
Q 16.453125 24.265625 10.296875 30.703125 
Q 4.15625 37.15625 4.15625 47.703125 
Q 4.15625 58.59375 10.578125 65.234375 
Q 17 71.875 26.65625 71.875 
Q 33.640625 71.875 39.421875 68.109375 
Q 45.21875 64.359375 48.21875 57.390625 
Q 51.21875 50.4375 51.21875 37.25 
Q 51.21875 23.53125 48.234375 15.40625 
Q 45.265625 7.28125 39.375 3.03125 
Q 33.5 -1.21875 25.59375 -1.21875 
Q 17.1875 -1.21875 11.859375 3.4375 
Q 6.546875 8.109375 5.46875 16.546875 
z
M 41.453125 48.140625 
Q 41.453125 55.71875 37.421875 60.15625 
Q 33.40625 64.59375 27.734375 64.59375 
Q 21.875 64.59375 17.53125 59.8125 
Q 13.1875 55.03125 13.1875 47.40625 
Q 13.1875 40.578125 17.3125 36.296875 
Q 21.4375 32.03125 27.484375 32.03125 
Q 33.59375 32.03125 37.515625 36.296875 
Q 41.453125 40.578125 41.453125 48.140625 
z
" id="ArialMT-57"/>
      </defs>
      <g style="fill:#262626;" transform="translate(287.639844 36.105156)scale(0.1 -0.1)">
       <use xlink:href="#ArialMT-57"/>
       <use x="55.615234" xlink:href="#ArialMT-48"/>
       <use x="111.230469" xlink:href="#ArialMT-176"/>
      </g>
     </g>
    </g>
    <g id="xtick_4">
     <g id="line2d_4">
      <path clip-path="url(#p4fed80ccc2)" d="M 295.2 199.98 
L 187.3945 92.1745 
" style="fill:none;stroke:#ffffff;stroke-linecap:round;"/>
     </g>
     <g id="text_4">
      <!-- 135° -->
      <defs>
       <path d="M 37.25 0 
L 28.46875 0 
L 28.46875 56 
Q 25.296875 52.984375 20.140625 49.953125 
Q 14.984375 46.921875 10.890625 45.40625 
L 10.890625 53.90625 
Q 18.265625 57.375 23.78125 62.296875 
Q 29.296875 67.234375 31.59375 71.875 
L 37.25 71.875 
z
" id="ArialMT-49"/>
       <path d="M 4.203125 18.890625 
L 12.984375 20.0625 
Q 14.5 12.59375 18.140625 9.296875 
Q 21.78125 6 27 6 
Q 33.203125 6 37.46875 10.296875 
Q 41.75 14.59375 41.75 20.953125 
Q 41.75 27 37.796875 30.921875 
Q 33.84375 34.859375 27.734375 34.859375 
Q 25.25 34.859375 21.53125 33.890625 
L 22.515625 41.609375 
Q 23.390625 41.5 23.921875 41.5 
Q 29.546875 41.5 34.03125 44.421875 
Q 38.53125 47.359375 38.53125 53.46875 
Q 38.53125 58.296875 35.25 61.46875 
Q 31.984375 64.65625 26.8125 64.65625 
Q 21.6875 64.65625 18.265625 61.421875 
Q 14.84375 58.203125 13.875 51.765625 
L 5.078125 53.328125 
Q 6.6875 62.15625 12.390625 67.015625 
Q 18.109375 71.875 26.609375 71.875 
Q 32.46875 71.875 37.390625 69.359375 
Q 42.328125 66.84375 44.9375 62.5 
Q 47.5625 58.15625 47.5625 53.265625 
Q 47.5625 48.640625 45.0625 44.828125 
Q 42.578125 41.015625 37.703125 38.765625 
Q 44.046875 37.3125 47.5625 32.6875 
Q 51.078125 28.078125 51.078125 21.140625 
Q 51.078125 11.765625 44.234375 5.25 
Q 37.40625 -1.265625 26.953125 -1.265625 
Q 17.53125 -1.265625 11.296875 4.34375 
Q 5.078125 9.96875 4.203125 18.890625 
z
" id="ArialMT-51"/>
      </defs>
      <g style="fill:#262626;" transform="translate(167.15438 84.860161)scale(0.1 -0.1)">
       <use xlink:href="#ArialMT-49"/>
       <use x="55.615234" xlink:href="#ArialMT-51"/>
       <use x="111.230469" xlink:href="#ArialMT-53"/>
       <use x="166.845703" xlink:href="#ArialMT-176"/>
      </g>
     </g>
    </g>
    <g id="xtick_5">
     <g id="line2d_5">
      <path clip-path="url(#p4fed80ccc2)" d="M 295.2 199.98 
L 142.74 199.98 
" style="fill:none;stroke:#ffffff;stroke-linecap:round;"/>
     </g>
     <g id="text_5">
      <!-- 180° -->
      <defs>
       <path d="M 17.671875 38.8125 
Q 12.203125 40.828125 9.5625 44.53125 
Q 6.9375 48.25 6.9375 53.421875 
Q 6.9375 61.234375 12.546875 66.546875 
Q 18.171875 71.875 27.484375 71.875 
Q 36.859375 71.875 42.578125 66.421875 
Q 48.296875 60.984375 48.296875 53.171875 
Q 48.296875 48.1875 45.671875 44.5 
Q 43.0625 40.828125 37.75 38.8125 
Q 44.34375 36.671875 47.78125 31.875 
Q 51.21875 27.09375 51.21875 20.453125 
Q 51.21875 11.28125 44.71875 5.03125 
Q 38.234375 -1.21875 27.640625 -1.21875 
Q 17.046875 -1.21875 10.546875 5.046875 
Q 4.046875 11.328125 4.046875 20.703125 
Q 4.046875 27.6875 7.59375 32.390625 
Q 11.140625 37.109375 17.671875 38.8125 
z
M 15.921875 53.71875 
Q 15.921875 48.640625 19.1875 45.40625 
Q 22.46875 42.1875 27.6875 42.1875 
Q 32.765625 42.1875 36.015625 45.375 
Q 39.265625 48.578125 39.265625 53.21875 
Q 39.265625 58.0625 35.90625 61.359375 
Q 32.5625 64.65625 27.59375 64.65625 
Q 22.5625 64.65625 19.234375 61.421875 
Q 15.921875 58.203125 15.921875 53.71875 
z
M 13.09375 20.65625 
Q 13.09375 16.890625 14.875 13.375 
Q 16.65625 9.859375 20.171875 7.921875 
Q 23.6875 6 27.734375 6 
Q 34.03125 6 38.125 10.046875 
Q 42.234375 14.109375 42.234375 20.359375 
Q 42.234375 26.703125 38.015625 30.859375 
Q 33.796875 35.015625 27.4375 35.015625 
Q 21.234375 35.015625 17.15625 30.90625 
Q 13.09375 26.8125 13.09375 20.65625 
z
" id="ArialMT-56"/>
      </defs>
      <g style="fill:#262626;" transform="translate(118.399375 202.565156)scale(0.1 -0.1)">
       <use xlink:href="#ArialMT-49"/>
       <use x="55.615234" xlink:href="#ArialMT-56"/>
       <use x="111.230469" xlink:href="#ArialMT-48"/>
       <use x="166.845703" xlink:href="#ArialMT-176"/>
      </g>
     </g>
    </g>
    <g id="xtick_6">
     <g id="line2d_6">
      <path clip-path="url(#p4fed80ccc2)" d="M 295.2 199.98 
L 187.3945 307.7855 
" style="fill:none;stroke:#ffffff;stroke-linecap:round;"/>
     </g>
     <g id="text_6">
      <!-- 225° -->
      <defs>
       <path d="M 50.34375 8.453125 
L 50.34375 0 
L 3.03125 0 
Q 2.9375 3.171875 4.046875 6.109375 
Q 5.859375 10.9375 9.828125 15.625 
Q 13.8125 20.3125 21.34375 26.46875 
Q 33.015625 36.03125 37.109375 41.625 
Q 41.21875 47.21875 41.21875 52.203125 
Q 41.21875 57.421875 37.46875 61 
Q 33.734375 64.59375 27.734375 64.59375 
Q 21.390625 64.59375 17.578125 60.78125 
Q 13.765625 56.984375 13.71875 50.25 
L 4.6875 51.171875 
Q 5.609375 61.28125 11.65625 66.578125 
Q 17.71875 71.875 27.9375 71.875 
Q 38.234375 71.875 44.234375 66.15625 
Q 50.25 60.453125 50.25 52 
Q 50.25 47.703125 48.484375 43.546875 
Q 46.734375 39.40625 42.65625 34.8125 
Q 38.578125 30.21875 29.109375 22.21875 
Q 21.1875 15.578125 18.9375 13.203125 
Q 16.703125 10.84375 15.234375 8.453125 
z
" id="ArialMT-50"/>
      </defs>
      <g style="fill:#262626;" transform="translate(167.15438 320.270151)scale(0.1 -0.1)">
       <use xlink:href="#ArialMT-50"/>
       <use x="55.615234" xlink:href="#ArialMT-50"/>
       <use x="111.230469" xlink:href="#ArialMT-53"/>
       <use x="166.845703" xlink:href="#ArialMT-176"/>
      </g>
     </g>
    </g>
    <g id="xtick_7">
     <g id="line2d_7">
      <path clip-path="url(#p4fed80ccc2)" d="M 295.2 199.98 
L 295.2 352.44 
" style="fill:none;stroke:#ffffff;stroke-linecap:round;"/>
     </g>
     <g id="text_7">
      <!-- 270° -->
      <defs>
       <path d="M 4.734375 62.203125 
L 4.734375 70.65625 
L 51.078125 70.65625 
L 51.078125 63.8125 
Q 44.234375 56.546875 37.515625 44.484375 
Q 30.8125 32.421875 27.15625 19.671875 
Q 24.515625 10.6875 23.78125 0 
L 14.75 0 
Q 14.890625 8.453125 18.0625 20.40625 
Q 21.234375 32.375 27.171875 43.484375 
Q 33.109375 54.59375 39.796875 62.203125 
z
" id="ArialMT-55"/>
      </defs>
      <g style="fill:#262626;" transform="translate(284.859375 369.025156)scale(0.1 -0.1)">
       <use xlink:href="#ArialMT-50"/>
       <use x="55.615234" xlink:href="#ArialMT-55"/>
       <use x="111.230469" xlink:href="#ArialMT-48"/>
       <use x="166.845703" xlink:href="#ArialMT-176"/>
      </g>
     </g>
    </g>
    <g id="xtick_8">
     <g id="line2d_8">
      <path clip-path="url(#p4fed80ccc2)" d="M 295.2 199.98 
L 403.0055 307.7855 
" style="fill:none;stroke:#ffffff;stroke-linecap:round;"/>
     </g>
     <g id="text_8">
      <!-- 315° -->
      <g style="fill:#262626;" transform="translate(402.56437 320.270151)scale(0.1 -0.1)">
       <use xlink:href="#ArialMT-51"/>
       <use x="55.615234" xlink:href="#ArialMT-49"/>
       <use x="111.230469" xlink:href="#ArialMT-53"/>
       <use x="166.845703" xlink:href="#ArialMT-176"/>
      </g>
     </g>
    </g>
   </g>
   <g id="matplotlib.axis_2">
    <g id="ytick_1">
     <g id="line2d_9">
      <path clip-path="url(#p4fed80ccc2)" d="M 319.625758 199.98 
L 319.491952 197.426813 
L 319.091997 194.901599 
L 318.430277 192.432026 
L 317.514041 190.045149 
L 316.353327 187.767121 
L 314.960854 185.622899 
L 313.351876 183.635977 
L 311.544023 181.828124 
L 309.557101 180.219146 
L 307.412879 178.826673 
L 305.134851 177.665959 
L 302.747974 176.749723 
L 300.278401 176.088003 
L 297.753187 175.688048 
L 295.2 175.554242 
L 292.646813 175.688048 
L 290.121599 176.088003 
L 287.652026 176.749723 
L 285.265149 177.665959 
L 282.987121 178.826673 
L 280.842899 180.219146 
L 278.855977 181.828124 
L 277.048124 183.635977 
L 275.439146 185.622899 
L 274.046673 187.767121 
L 272.885959 190.045149 
L 271.969723 192.432026 
L 271.308003 194.901599 
L 270.908048 197.426813 
L 270.774242 199.98 
L 270.908048 202.533187 
L 271.308003 205.058401 
L 271.969723 207.527974 
L 272.885959 209.914851 
L 274.046673 212.192879 
L 275.439146 214.337101 
L 277.048124 216.324023 
L 278.855977 218.131876 
L 280.842899 219.740854 
L 282.987121 221.133327 
L 285.265149 222.294041 
L 287.652026 223.210277 
L 290.121599 223.871997 
L 292.646813 224.271952 
L 295.2 224.405758 
L 297.753187 224.271952 
L 300.278401 223.871997 
L 302.747974 223.210277 
L 305.134851 222.294041 
L 307.412879 221.133327 
L 309.557101 219.740854 
L 311.544023 218.131876 
L 313.351876 216.324023 
L 314.960854 214.337101 
L 316.353327 212.192879 
L 317.514041 209.914851 
L 318.430277 207.527974 
L 319.091997 205.058401 
L 319.491952 202.533187 
L 319.625758 199.98 
L 319.625758 199.98 
" style="fill:none;stroke:#ffffff;stroke-linecap:round;"/>
     </g>
     <g id="text_9">
      <!-- 0.05 -->
      <defs>
       <path d="M 9.078125 0 
L 9.078125 10.015625 
L 19.09375 10.015625 
L 19.09375 0 
z
" id="ArialMT-46"/>
      </defs>
      <g style="fill:#262626;" transform="translate(317.766458 188.645167)scale(0.1 -0.1)">
       <use xlink:href="#ArialMT-48"/>
       <use x="55.615234" xlink:href="#ArialMT-46"/>
       <use x="83.398438" xlink:href="#ArialMT-48"/>
       <use x="139.013672" xlink:href="#ArialMT-53"/>
      </g>
     </g>
    </g>
    <g id="ytick_2">
     <g id="line2d_10">
      <path clip-path="url(#p4fed80ccc2)" d="M 344.051517 199.98 
L 343.932517 196.57229 
L 343.576097 193.181183 
L 342.983994 189.823199 
L 342.159092 186.514697 
L 341.10541 183.271797 
L 339.828081 180.110298 
L 338.333329 177.045602 
L 336.628436 174.09264 
L 334.721707 171.265799 
L 332.622433 168.57885 
L 330.34084 166.044885 
L 327.888045 163.676248 
L 325.275997 161.484479 
L 322.517422 159.480257 
L 319.625758 157.673345 
L 316.615095 156.072547 
L 313.5001 154.685662 
L 310.295949 153.519447 
L 307.018252 152.579582 
L 303.682977 151.870647 
L 300.306374 151.396097 
L 296.904893 151.158242 
L 293.495107 151.158242 
L 290.093626 151.396097 
L 286.717023 151.870647 
L 283.381748 152.579582 
L 280.104051 153.519447 
L 276.8999 154.685662 
L 273.784905 156.072547 
L 270.774242 157.673345 
L 267.882578 159.480257 
L 265.124003 161.484479 
L 262.511955 163.676248 
L 260.05916 166.044885 
L 257.777567 168.57885 
L 255.678293 171.265799 
L 253.771564 174.09264 
L 252.066671 177.045602 
L 250.571919 180.110298 
L 249.29459 183.271797 
L 248.240908 186.514697 
L 247.416006 189.823199 
L 246.823903 193.181183 
L 246.467483 196.57229 
L 246.348483 199.98 
L 246.467483 203.38771 
L 246.823903 206.778817 
L 247.416006 210.136801 
L 248.240908 213.445303 
L 249.29459 216.688203 
L 250.571919 219.849702 
L 252.066671 222.914398 
L 253.771564 225.86736 
L 255.678293 228.694201 
L 257.777567 231.38115 
L 260.05916 233.915115 
L 262.511955 236.283752 
L 265.124003 238.475521 
L 267.882578 240.479743 
L 270.774242 242.286655 
L 273.784905 243.887453 
L 276.8999 245.274338 
L 280.104051 246.440553 
L 283.381748 247.380418 
L 286.717023 248.089353 
L 290.093626 248.563903 
L 293.495107 248.801758 
L 296.904893 248.801758 
L 300.306374 248.563903 
L 303.682977 248.089353 
L 307.018252 247.380418 
L 310.295949 246.440553 
L 313.5001 245.274338 
L 316.615095 243.887453 
L 319.625758 242.286655 
L 322.517422 240.479743 
L 325.275997 238.475521 
L 327.888045 236.283752 
L 330.34084 233.915115 
L 332.622433 231.38115 
L 334.721707 228.694201 
L 336.628436 225.86736 
L 338.333329 222.914398 
L 339.828081 219.849702 
L 341.10541 216.688203 
L 342.159092 213.445303 
L 342.983994 210.136801 
L 343.576097 206.778817 
L 343.932517 203.38771 
L 344.051517 199.98 
L 344.051517 199.98 
" style="fill:none;stroke:#ffffff;stroke-linecap:round;"/>
     </g>
     <g id="text_10">
      <!-- 0.10 -->
      <g style="fill:#262626;" transform="translate(340.332917 179.297834)scale(0.1 -0.1)">
       <use xlink:href="#ArialMT-48"/>
       <use x="55.615234" xlink:href="#ArialMT-46"/>
       <use x="83.398438" xlink:href="#ArialMT-49"/>
       <use x="139.013672" xlink:href="#ArialMT-48"/>
      </g>
     </g>
    </g>
    <g id="ytick_3">
     <g id="line2d_11">
      <path clip-path="url(#p4fed80ccc2)" d="M 368.477275 199.98 
L 368.298776 194.868436 
L 367.764146 189.781774 
L 366.875991 184.744798 
L 365.638638 179.782046 
L 364.058115 174.917696 
L 362.142122 170.175447 
L 359.899994 165.578403 
L 357.342654 161.14896 
L 354.482561 156.908698 
L 351.33365 152.878275 
L 347.911261 149.077327 
L 344.232068 145.524372 
L 340.313995 142.236719 
L 336.176132 139.230386 
L 331.838638 136.520018 
L 327.322643 134.118821 
L 322.65015 132.038493 
L 317.843923 130.28917 
L 312.927377 128.879373 
L 307.924465 127.815971 
L 302.859561 127.104145 
L 297.75734 126.747363 
L 292.64266 126.747363 
L 287.540439 127.104145 
L 282.475535 127.815971 
L 277.472623 128.879373 
L 272.556077 130.28917 
L 267.74985 132.038493 
L 263.077357 134.118821 
L 258.561362 136.520018 
L 254.223868 139.230386 
L 250.086005 142.236719 
L 246.167932 145.524372 
L 242.488739 149.077327 
L 239.06635 152.878275 
L 235.917439 156.908698 
L 233.057346 161.14896 
L 230.500006 165.578403 
L 228.257878 170.175447 
L 226.341885 174.917696 
L 224.761362 179.782046 
L 223.524009 184.744798 
L 222.635854 189.781774 
L 222.101224 194.868436 
L 221.922725 199.98 
L 222.101224 205.091564 
L 222.635854 210.178226 
L 223.524009 215.215202 
L 224.761362 220.177954 
L 226.341885 225.042304 
L 228.257878 229.784553 
L 230.500006 234.381597 
L 233.057346 238.81104 
L 235.917439 243.051302 
L 239.06635 247.081725 
L 242.488739 250.882673 
L 246.167932 254.435628 
L 250.086005 257.723281 
L 254.223868 260.729614 
L 258.561362 263.439982 
L 263.077357 265.841179 
L 267.74985 267.921507 
L 272.556077 269.67083 
L 277.472623 271.080627 
L 282.475535 272.144029 
L 287.540439 272.855855 
L 292.64266 273.212637 
L 297.75734 273.212637 
L 302.859561 272.855855 
L 307.924465 272.144029 
L 312.927377 271.080627 
L 317.843923 269.67083 
L 322.65015 267.921507 
L 327.322643 265.841179 
L 331.838638 263.439982 
L 336.176132 260.729614 
L 340.313995 257.723281 
L 344.232068 254.435628 
L 347.911261 250.882673 
L 351.33365 247.081725 
L 354.482561 243.051302 
L 357.342654 238.81104 
L 359.899994 234.381597 
L 362.142122 229.784553 
L 364.058115 225.042304 
L 365.638638 220.177954 
L 366.875991 215.215202 
L 367.764146 210.178226 
L 368.298776 205.091564 
L 368.477275 199.98 
L 368.477275 199.98 
" style="fill:none;stroke:#ffffff;stroke-linecap:round;"/>
     </g>
     <g id="text_11">
      <!-- 0.15 -->
      <g style="fill:#262626;" transform="translate(362.899375 169.950501)scale(0.1 -0.1)">
       <use xlink:href="#ArialMT-48"/>
       <use x="55.615234" xlink:href="#ArialMT-46"/>
       <use x="83.398438" xlink:href="#ArialMT-49"/>
       <use x="139.013672" xlink:href="#ArialMT-53"/>
      </g>
     </g>
    </g>
    <g id="ytick_4">
     <g id="line2d_12">
      <path clip-path="url(#p4fed80ccc2)" d="M 392.903034 199.98 
L 392.843516 196.570213 
L 392.665034 193.164581 
L 392.367806 189.767252 
L 391.952195 186.382366 
L 391.418705 183.014046 
L 390.767988 179.666397 
L 390.000836 176.343497 
L 389.118184 173.049394 
L 388.121107 169.788102 
L 387.01082 166.563594 
L 385.788675 163.379799 
L 384.456163 160.240596 
L 383.014905 157.149809 
L 381.466658 154.111204 
L 379.813309 151.128483 
L 378.056872 148.20528 
L 376.199486 145.345157 
L 374.243415 142.551598 
L 372.191041 139.828006 
L 370.044866 137.1777 
L 367.807504 134.60391 
L 365.481681 132.10977 
L 363.07023 129.698319 
L 360.57609 127.372496 
L 358.0023 125.135134 
L 355.351994 122.988959 
L 352.628402 120.936585 
L 349.834843 118.980514 
L 346.97472 117.123128 
L 344.051517 115.366691 
L 341.068796 113.713342 
L 338.030191 112.165095 
L 334.939404 110.723837 
L 331.800201 109.391325 
L 328.616406 108.16918 
L 325.391898 107.058893 
L 322.130606 106.061816 
L 318.836503 105.179164 
L 315.513603 104.412012 
L 312.165954 103.761295 
L 308.797634 103.227805 
L 305.412748 102.812194 
L 302.015419 102.514966 
L 298.609787 102.336484 
L 295.2 102.276966 
L 291.790213 102.336484 
L 288.384581 102.514966 
L 284.987252 102.812194 
L 281.602366 103.227805 
L 278.234046 103.761295 
L 274.886397 104.412012 
L 271.563497 105.179164 
L 268.269394 106.061816 
L 265.008102 107.058893 
L 261.783594 108.16918 
L 258.599799 109.391325 
L 255.460596 110.723837 
L 252.369809 112.165095 
L 249.331204 113.713342 
L 246.348483 115.366691 
L 243.42528 117.123128 
L 240.565157 118.980514 
L 237.771598 120.936585 
L 235.048006 122.988959 
L 232.3977 125.135134 
L 229.82391 127.372496 
L 227.32977 129.698319 
L 224.918319 132.10977 
L 222.592496 134.60391 
L 220.355134 137.1777 
L 218.208959 139.828006 
L 216.156585 142.551598 
L 214.200514 145.345157 
L 212.343128 148.20528 
L 210.586691 151.128483 
L 208.933342 154.111204 
L 207.385095 157.149809 
L 205.943837 160.240596 
L 204.611325 163.379799 
L 203.38918 166.563594 
L 202.278893 169.788102 
L 201.281816 173.049394 
L 200.399164 176.343497 
L 199.632012 179.666397 
L 198.981295 183.014046 
L 198.447805 186.382366 
L 198.032194 189.767252 
L 197.734966 193.164581 
L 197.556484 196.570213 
L 197.496966 199.98 
L 197.556484 203.389787 
L 197.734966 206.795419 
L 198.032194 210.192748 
L 198.447805 213.577634 
L 198.981295 216.945954 
L 199.632012 220.293603 
L 200.399164 223.616503 
L 201.281816 226.910606 
L 202.278893 230.171898 
L 203.38918 233.396406 
L 204.611325 236.580201 
L 205.943837 239.719404 
L 207.385095 242.810191 
L 208.933342 245.848796 
L 210.586691 248.831517 
L 212.343128 251.75472 
L 214.200514 254.614843 
L 216.156585 257.408402 
L 218.208959 260.131994 
L 220.355134 262.7823 
L 222.592496 265.35609 
L 224.918319 267.85023 
L 227.32977 270.261681 
L 229.82391 272.587504 
L 232.3977 274.824866 
L 235.048006 276.971041 
L 237.771598 279.023415 
L 240.565157 280.979486 
L 243.42528 282.836872 
L 246.348483 284.593309 
L 249.331204 286.246658 
L 252.369809 287.794905 
L 255.460596 289.236163 
L 258.599799 290.568675 
L 261.783594 291.79082 
L 265.008102 292.901107 
L 268.269394 293.898184 
L 271.563497 294.780836 
L 274.886397 295.547988 
L 278.234046 296.198705 
L 281.602366 296.732195 
L 284.987252 297.147806 
L 288.384581 297.445034 
L 291.790213 297.623516 
L 295.2 297.683034 
L 298.609787 297.623516 
L 302.015419 297.445034 
L 305.412748 297.147806 
L 308.797634 296.732195 
L 312.165954 296.198705 
L 315.513603 295.547988 
L 318.836503 294.780836 
L 322.130606 293.898184 
L 325.391898 292.901107 
L 328.616406 291.79082 
L 331.800201 290.568675 
L 334.939404 289.236163 
L 338.030191 287.794905 
L 341.068796 286.246658 
L 344.051517 284.593309 
L 346.97472 282.836872 
L 349.834843 280.979486 
L 352.628402 279.023415 
L 355.351994 276.971041 
L 358.0023 274.824866 
L 360.57609 272.587504 
L 363.07023 270.261681 
L 365.481681 267.85023 
L 367.807504 265.35609 
L 370.044866 262.7823 
L 372.191041 260.131994 
L 374.243415 257.408402 
L 376.199486 254.614843 
L 378.056872 251.75472 
L 379.813309 248.831517 
L 381.466658 245.848796 
L 383.014905 242.810191 
L 384.456163 239.719404 
L 385.788675 236.580201 
L 387.01082 233.396406 
L 388.121107 230.171898 
L 389.118184 226.910606 
L 390.000836 223.616503 
L 390.767988 220.293603 
L 391.418705 216.945954 
L 391.952195 213.577634 
L 392.367806 210.192748 
L 392.665034 206.795419 
L 392.843516 203.389787 
L 392.903034 199.98 
L 392.903034 199.98 
" style="fill:none;stroke:#ffffff;stroke-linecap:round;"/>
     </g>
     <g id="text_12">
      <!-- 0.20 -->
      <g style="fill:#262626;" transform="translate(385.465833 160.603168)scale(0.1 -0.1)">
       <use xlink:href="#ArialMT-48"/>
       <use x="55.615234" xlink:href="#ArialMT-46"/>
       <use x="83.398438" xlink:href="#ArialMT-50"/>
       <use x="139.013672" xlink:href="#ArialMT-48"/>
      </g>
     </g>
    </g>
    <g id="ytick_5">
     <g id="line2d_13">
      <path clip-path="url(#p4fed80ccc2)" d="M 417.328792 199.98 
L 417.254395 195.717767 
L 417.031293 191.460726 
L 416.659758 187.214065 
L 416.140243 182.982957 
L 415.473381 178.772558 
L 414.659985 174.587996 
L 413.701045 170.434371 
L 412.59773 166.316743 
L 411.351384 162.240128 
L 409.963525 158.209493 
L 408.435844 154.229749 
L 406.770203 150.305745 
L 404.968631 146.442261 
L 403.033323 142.644005 
L 400.966637 138.915604 
L 398.77109 135.2616 
L 396.449357 131.686446 
L 394.004268 128.194497 
L 391.438802 124.790008 
L 388.756083 121.477126 
L 385.95938 118.259887 
L 383.052101 115.142212 
L 380.037788 112.127899 
L 376.920113 109.22062 
L 373.702874 106.423917 
L 370.389992 103.741198 
L 366.985503 101.175732 
L 363.493554 98.730643 
L 359.9184 96.40891 
L 356.264396 94.213363 
L 352.535995 92.146677 
L 348.737739 90.211369 
L 344.874255 88.409797 
L 340.950251 86.744156 
L 336.970507 85.216475 
L 332.939872 83.828616 
L 328.863257 82.58227 
L 324.745629 81.478955 
L 320.592004 80.520015 
L 316.407442 79.706619 
L 312.197043 79.039757 
L 307.965935 78.520242 
L 303.719274 78.148707 
L 299.462233 77.925605 
L 295.2 77.851208 
L 290.937767 77.925605 
L 286.680726 78.148707 
L 282.434065 78.520242 
L 278.202957 79.039757 
L 273.992558 79.706619 
L 269.807996 80.520015 
L 265.654371 81.478955 
L 261.536743 82.58227 
L 257.460128 83.828616 
L 253.429493 85.216475 
L 249.449749 86.744156 
L 245.525745 88.409797 
L 241.662261 90.211369 
L 237.864005 92.146677 
L 234.135604 94.213363 
L 230.4816 96.40891 
L 226.906446 98.730643 
L 223.414497 101.175732 
L 220.010008 103.741198 
L 216.697126 106.423917 
L 213.479887 109.22062 
L 210.362212 112.127899 
L 207.347899 115.142212 
L 204.44062 118.259887 
L 201.643917 121.477126 
L 198.961198 124.790008 
L 196.395732 128.194497 
L 193.950643 131.686446 
L 191.62891 135.2616 
L 189.433363 138.915604 
L 187.366677 142.644005 
L 185.431369 146.442261 
L 183.629797 150.305745 
L 181.964156 154.229749 
L 180.436475 158.209493 
L 179.048616 162.240128 
L 177.80227 166.316743 
L 176.698955 170.434371 
L 175.740015 174.587996 
L 174.926619 178.772558 
L 174.259757 182.982957 
L 173.740242 187.214065 
L 173.368707 191.460726 
L 173.145605 195.717767 
L 173.071208 199.98 
L 173.145605 204.242233 
L 173.368707 208.499274 
L 173.740242 212.745935 
L 174.259757 216.977043 
L 174.926619 221.187442 
L 175.740015 225.372004 
L 176.698955 229.525629 
L 177.80227 233.643257 
L 179.048616 237.719872 
L 180.436475 241.750507 
L 181.964156 245.730251 
L 183.629797 249.654255 
L 185.431369 253.517739 
L 187.366677 257.315995 
L 189.433363 261.044396 
L 191.62891 264.6984 
L 193.950643 268.273554 
L 196.395732 271.765503 
L 198.961198 275.169992 
L 201.643917 278.482874 
L 204.44062 281.700113 
L 207.347899 284.817788 
L 210.362212 287.832101 
L 213.479887 290.73938 
L 216.697126 293.536083 
L 220.010008 296.218802 
L 223.414497 298.784268 
L 226.906446 301.229357 
L 230.4816 303.55109 
L 234.135604 305.746637 
L 237.864005 307.813323 
L 241.662261 309.748631 
L 245.525745 311.550203 
L 249.449749 313.215844 
L 253.429493 314.743525 
L 257.460128 316.131384 
L 261.536743 317.37773 
L 265.654371 318.481045 
L 269.807996 319.439985 
L 273.992558 320.253381 
L 278.202957 320.920243 
L 282.434065 321.439758 
L 286.680726 321.811293 
L 290.937767 322.034395 
L 295.2 322.108792 
L 299.462233 322.034395 
L 303.719274 321.811293 
L 307.965935 321.439758 
L 312.197043 320.920243 
L 316.407442 320.253381 
L 320.592004 319.439985 
L 324.745629 318.481045 
L 328.863257 317.37773 
L 332.939872 316.131384 
L 336.970507 314.743525 
L 340.950251 313.215844 
L 344.874255 311.550203 
L 348.737739 309.748631 
L 352.535995 307.813323 
L 356.264396 305.746637 
L 359.9184 303.55109 
L 363.493554 301.229357 
L 366.985503 298.784268 
L 370.389992 296.218802 
L 373.702874 293.536083 
L 376.920113 290.73938 
L 380.037788 287.832101 
L 383.052101 284.817788 
L 385.95938 281.700113 
L 388.756083 278.482874 
L 391.438802 275.169992 
L 394.004268 271.765503 
L 396.449357 268.273554 
L 398.77109 264.6984 
L 400.966637 261.044396 
L 403.033323 257.315995 
L 404.968631 253.517739 
L 406.770203 249.654255 
L 408.435844 245.730251 
L 409.963525 241.750507 
L 411.351384 237.719872 
L 412.59773 233.643257 
L 413.701045 229.525629 
L 414.659985 225.372004 
L 415.473381 221.187442 
L 416.140243 216.977043 
L 416.659758 212.745935 
L 417.031293 208.499274 
L 417.254395 204.242233 
L 417.328792 199.98 
L 417.328792 199.98 
" style="fill:none;stroke:#ffffff;stroke-linecap:round;"/>
     </g>
     <g id="text_13">
      <!-- 0.25 -->
      <g style="fill:#262626;" transform="translate(408.032291 151.255835)scale(0.1 -0.1)">
       <use xlink:href="#ArialMT-48"/>
       <use x="55.615234" xlink:href="#ArialMT-46"/>
       <use x="83.398438" xlink:href="#ArialMT-50"/>
       <use x="139.013672" xlink:href="#ArialMT-53"/>
      </g>
     </g>
    </g>
    <g id="ytick_6">
     <g id="line2d_14">
      <path clip-path="url(#p4fed80ccc2)" d="M 441.754551 199.98 
L 441.665274 194.86532 
L 441.397551 189.756871 
L 440.95171 184.660878 
L 440.328292 179.583549 
L 439.528058 174.531069 
L 438.551982 169.509596 
L 437.401254 164.525245 
L 436.077276 159.584091 
L 434.58166 154.692153 
L 432.91623 149.855392 
L 431.083013 145.079699 
L 429.084244 140.370894 
L 426.922358 135.734714 
L 424.599988 131.176806 
L 422.119964 126.702725 
L 419.485308 122.31792 
L 416.699229 118.027735 
L 413.765122 113.837396 
L 410.686562 109.752009 
L 407.467299 105.776551 
L 404.111256 101.915865 
L 400.622521 98.174655 
L 397.005345 94.557479 
L 393.264135 91.068744 
L 389.403449 87.712701 
L 385.427991 84.493438 
L 381.342604 81.414878 
L 377.152265 78.480771 
L 372.86208 75.694692 
L 368.477275 73.060036 
L 364.003194 70.580012 
L 359.445286 68.257642 
L 354.809106 66.095756 
L 350.100301 64.096987 
L 345.324608 62.26377 
L 340.487847 60.59834 
L 335.595909 59.102724 
L 330.654755 57.778746 
L 325.670404 56.628018 
L 320.648931 55.651942 
L 315.596451 54.851708 
L 310.519122 54.22829 
L 305.423129 53.782449 
L 300.31468 53.514726 
L 295.2 53.425449 
L 290.08532 53.514726 
L 284.976871 53.782449 
L 279.880878 54.22829 
L 274.803549 54.851708 
L 269.751069 55.651942 
L 264.729596 56.628018 
L 259.745245 57.778746 
L 254.804091 59.102724 
L 249.912153 60.59834 
L 245.075392 62.26377 
L 240.299699 64.096987 
L 235.590894 66.095756 
L 230.954714 68.257642 
L 226.396806 70.580012 
L 221.922725 73.060036 
L 217.53792 75.694692 
L 213.247735 78.480771 
L 209.057396 81.414878 
L 204.972009 84.493438 
L 200.996551 87.712701 
L 197.135865 91.068744 
L 193.394655 94.557479 
L 189.777479 98.174655 
L 186.288744 101.915865 
L 182.932701 105.776551 
L 179.713438 109.752009 
L 176.634878 113.837396 
L 173.700771 118.027735 
L 170.914692 122.31792 
L 168.280036 126.702725 
L 165.800012 131.176806 
L 163.477642 135.734714 
L 161.315756 140.370894 
L 159.316987 145.079699 
L 157.48377 149.855392 
L 155.81834 154.692153 
L 154.322724 159.584091 
L 152.998746 164.525245 
L 151.848018 169.509596 
L 150.871942 174.531069 
L 150.071708 179.583549 
L 149.44829 184.660878 
L 149.002449 189.756871 
L 148.734726 194.86532 
L 148.645449 199.98 
L 148.734726 205.09468 
L 149.002449 210.203129 
L 149.44829 215.299122 
L 150.071708 220.376451 
L 150.871942 225.428931 
L 151.848018 230.450404 
L 152.998746 235.434755 
L 154.322724 240.375909 
L 155.81834 245.267847 
L 157.48377 250.104608 
L 159.316987 254.880301 
L 161.315756 259.589106 
L 163.477642 264.225286 
L 165.800012 268.783194 
L 168.280036 273.257275 
L 170.914692 277.64208 
L 173.700771 281.932265 
L 176.634878 286.122604 
L 179.713438 290.207991 
L 182.932701 294.183449 
L 186.288744 298.044135 
L 189.777479 301.785345 
L 193.394655 305.402521 
L 197.135865 308.891256 
L 200.996551 312.247299 
L 204.972009 315.466562 
L 209.057396 318.545122 
L 213.247735 321.479229 
L 217.53792 324.265308 
L 221.922725 326.899964 
L 226.396806 329.379988 
L 230.954714 331.702358 
L 235.590894 333.864244 
L 240.299699 335.863013 
L 245.075392 337.69623 
L 249.912153 339.36166 
L 254.804091 340.857276 
L 259.745245 342.181254 
L 264.729596 343.331982 
L 269.751069 344.308058 
L 274.803549 345.108292 
L 279.880878 345.73171 
L 284.976871 346.177551 
L 290.08532 346.445274 
L 295.2 346.534551 
L 300.31468 346.445274 
L 305.423129 346.177551 
L 310.519122 345.73171 
L 315.596451 345.108292 
L 320.648931 344.308058 
L 325.670404 343.331982 
L 330.654755 342.181254 
L 335.595909 340.857276 
L 340.487847 339.36166 
L 345.324608 337.69623 
L 350.100301 335.863013 
L 354.809106 333.864244 
L 359.445286 331.702358 
L 364.003194 329.379988 
L 368.477275 326.899964 
L 372.86208 324.265308 
L 377.152265 321.479229 
L 381.342604 318.545122 
L 385.427991 315.466562 
L 389.403449 312.247299 
L 393.264135 308.891256 
L 397.005345 305.402521 
L 400.622521 301.785345 
L 404.111256 298.044135 
L 407.467299 294.183449 
L 410.686562 290.207991 
L 413.765122 286.122604 
L 416.699229 281.932265 
L 419.485308 277.64208 
L 422.119964 273.257275 
L 424.599988 268.783194 
L 426.922358 264.225286 
L 429.084244 259.589106 
L 431.083013 254.880301 
L 432.91623 250.104608 
L 434.58166 245.267847 
L 436.077276 240.375909 
L 437.401254 235.434755 
L 438.551982 230.450404 
L 439.528058 225.428931 
L 440.328292 220.376451 
L 440.95171 215.299122 
L 441.397551 210.203129 
L 441.665274 205.09468 
L 441.754551 199.98 
L 441.754551 199.98 
" style="fill:none;stroke:#ffffff;stroke-linecap:round;"/>
     </g>
     <g id="text_14">
      <!-- 0.30 -->
      <g style="fill:#262626;" transform="translate(430.59875 141.908502)scale(0.1 -0.1)">
       <use xlink:href="#ArialMT-48"/>
       <use x="55.615234" xlink:href="#ArialMT-46"/>
       <use x="83.398438" xlink:href="#ArialMT-51"/>
       <use x="139.013672" xlink:href="#ArialMT-48"/>
      </g>
     </g>
    </g>
   </g>
   <g id="PathCollection_1">
    <defs>
     <path d="M 0 3.5 
C 0.928211 3.5 1.81853 3.131218 2.474874 2.474874 
C 3.131218 1.81853 3.5 0.928211 3.5 0 
C 3.5 -0.928211 3.131218 -1.81853 2.474874 -2.474874 
C 1.81853 -3.131218 0.928211 -3.5 0 -3.5 
C -0.928211 -3.5 -1.81853 -3.131218 -2.474874 -2.474874 
C -3.131218 -1.81853 -3.5 -0.928211 -3.5 0 
C -3.5 0.928211 -3.131218 1.81853 -2.474874 2.474874 
C -1.81853 3.131218 -0.928211 3.5 0 3.5 
z
" id="md4ad9e02ec" style="stroke:#4c72b0;stroke-width:0.3;"/>
    </defs>
    <g clip-path="url(#p4fed80ccc2)">
     <use style="fill:#4c72b0;stroke:#4c72b0;stroke-width:0.3;" x="279.904335" xlink:href="#md4ad9e02ec" y="228.650979"/>
     <use style="fill:#4c72b0;stroke:#4c72b0;stroke-width:0.3;" x="300.001405" xlink:href="#md4ad9e02ec" y="229.551116"/>
     <use style="fill:#4c72b0;stroke:#4c72b0;stroke-width:0.3;" x="303.910092" xlink:href="#md4ad9e02ec" y="220.336156"/>
     <use style="fill:#4c72b0;stroke:#4c72b0;stroke-width:0.3;" x="277.920913" xlink:href="#md4ad9e02ec" y="210.853354"/>
     <use style="fill:#4c72b0;stroke:#4c72b0;stroke-width:0.3;" x="188.56781" xlink:href="#md4ad9e02ec" y="217.669312"/>
     <use style="fill:#4c72b0;stroke:#4c72b0;stroke-width:0.3;" x="257.173108" xlink:href="#md4ad9e02ec" y="214.576221"/>
     <use style="fill:#4c72b0;stroke:#4c72b0;stroke-width:0.3;" x="341.193818" xlink:href="#md4ad9e02ec" y="203.121611"/>
     <use style="fill:#4c72b0;stroke:#4c72b0;stroke-width:0.3;" x="208.065169" xlink:href="#md4ad9e02ec" y="215.538991"/>
     <use style="fill:#4c72b0;stroke:#4c72b0;stroke-width:0.3;" x="293.814453" xlink:href="#md4ad9e02ec" y="213.602575"/>
     <use style="fill:#4c72b0;stroke:#4c72b0;stroke-width:0.3;" x="236.997175" xlink:href="#md4ad9e02ec" y="219.400281"/>
     <use style="fill:#4c72b0;stroke:#4c72b0;stroke-width:0.3;" x="255.134419" xlink:href="#md4ad9e02ec" y="208.64929"/>
     <use style="fill:#4c72b0;stroke:#4c72b0;stroke-width:0.3;" x="287.550829" xlink:href="#md4ad9e02ec" y="209.467059"/>
     <use style="fill:#4c72b0;stroke:#4c72b0;stroke-width:0.3;" x="404.193292" xlink:href="#md4ad9e02ec" y="194.811757"/>
     <use style="fill:#4c72b0;stroke:#4c72b0;stroke-width:0.3;" x="363.736849" xlink:href="#md4ad9e02ec" y="185.201709"/>
     <use style="fill:#4c72b0;stroke:#4c72b0;stroke-width:0.3;" x="278.201071" xlink:href="#md4ad9e02ec" y="165.749095"/>
     <use style="fill:#4c72b0;stroke:#4c72b0;stroke-width:0.3;" x="291.329236" xlink:href="#md4ad9e02ec" y="170.438018"/>
     <use style="fill:#4c72b0;stroke:#4c72b0;stroke-width:0.3;" x="289.775296" xlink:href="#md4ad9e02ec" y="171.448149"/>
     <use style="fill:#4c72b0;stroke:#4c72b0;stroke-width:0.3;" x="305.016765" xlink:href="#md4ad9e02ec" y="171.513231"/>
     <use style="fill:#4c72b0;stroke:#4c72b0;stroke-width:0.3;" x="322.397754" xlink:href="#md4ad9e02ec" y="156.632125"/>
     <use style="fill:#4c72b0;stroke:#4c72b0;stroke-width:0.3;" x="354.410161" xlink:href="#md4ad9e02ec" y="147.570629"/>
     <use style="fill:#4c72b0;stroke:#4c72b0;stroke-width:0.3;" x="328.604792" xlink:href="#md4ad9e02ec" y="147.087475"/>
     <use style="fill:#4c72b0;stroke:#4c72b0;stroke-width:0.3;" x="236.651827" xlink:href="#md4ad9e02ec" y="165.183285"/>
     <use style="fill:#4c72b0;stroke:#4c72b0;stroke-width:0.3;" x="291.633619" xlink:href="#md4ad9e02ec" y="179.428239"/>
     <use style="fill:#4c72b0;stroke:#4c72b0;stroke-width:0.3;" x="302.036458" xlink:href="#md4ad9e02ec" y="181.36887"/>
    </g>
   </g>
   <g id="PathCollection_2">
    <defs>
     <path d="M 0 3.5 
C 0.928211 3.5 1.81853 3.131218 2.474874 2.474874 
C 3.131218 1.81853 3.5 0.928211 3.5 0 
C 3.5 -0.928211 3.131218 -1.81853 2.474874 -2.474874 
C 1.81853 -3.131218 0.928211 -3.5 0 -3.5 
C -0.928211 -3.5 -1.81853 -3.131218 -2.474874 -2.474874 
C -3.131218 -1.81853 -3.5 -0.928211 -3.5 0 
C -3.5 0.928211 -3.131218 1.81853 -2.474874 2.474874 
C -1.81853 3.131218 -0.928211 3.5 0 3.5 
z
" id="m86b11026e6" style="stroke:#55a868;stroke-width:0.3;"/>
    </defs>
    <g clip-path="url(#p4fed80ccc2)">
     <use style="fill:#55a868;stroke:#55a868;stroke-width:0.3;" x="291.71212" xlink:href="#m86b11026e6" y="184.509588"/>
     <use style="fill:#55a868;stroke:#55a868;stroke-width:0.3;" x="290.266016" xlink:href="#m86b11026e6" y="184.406439"/>
     <use style="fill:#55a868;stroke:#55a868;stroke-width:0.3;" x="300.058143" xlink:href="#m86b11026e6" y="188.301989"/>
     <use style="fill:#55a868;stroke:#55a868;stroke-width:0.3;" x="289.824602" xlink:href="#m86b11026e6" y="200.65464"/>
     <use style="fill:#55a868;stroke:#55a868;stroke-width:0.3;" x="318.240713" xlink:href="#m86b11026e6" y="196.468952"/>
     <use style="fill:#55a868;stroke:#55a868;stroke-width:0.3;" x="311.903595" xlink:href="#m86b11026e6" y="188.849519"/>
     <use style="fill:#55a868;stroke:#55a868;stroke-width:0.3;" x="306.213043" xlink:href="#m86b11026e6" y="183.912516"/>
     <use style="fill:#55a868;stroke:#55a868;stroke-width:0.3;" x="299.859145" xlink:href="#m86b11026e6" y="171.881698"/>
     <use style="fill:#55a868;stroke:#55a868;stroke-width:0.3;" x="332.96407" xlink:href="#m86b11026e6" y="160.955449"/>
     <use style="fill:#55a868;stroke:#55a868;stroke-width:0.3;" x="342.910338" xlink:href="#m86b11026e6" y="158.916176"/>
     <use style="fill:#55a868;stroke:#55a868;stroke-width:0.3;" x="429.714423" xlink:href="#m86b11026e6" y="145.309076"/>
     <use style="fill:#55a868;stroke:#55a868;stroke-width:0.3;" x="382.450032" xlink:href="#m86b11026e6" y="150.330053"/>
     <use style="fill:#55a868;stroke:#55a868;stroke-width:0.3;" x="339.000182" xlink:href="#m86b11026e6" y="158.566945"/>
     <use style="fill:#55a868;stroke:#55a868;stroke-width:0.3;" x="299.957078" xlink:href="#m86b11026e6" y="164.900169"/>
     <use style="fill:#55a868;stroke:#55a868;stroke-width:0.3;" x="342.178052" xlink:href="#m86b11026e6" y="161.969418"/>
     <use style="fill:#55a868;stroke:#55a868;stroke-width:0.3;" x="406.075412" xlink:href="#m86b11026e6" y="153.092644"/>
     <use style="fill:#55a868;stroke:#55a868;stroke-width:0.3;" x="384.796754" xlink:href="#m86b11026e6" y="155.778286"/>
     <use style="fill:#55a868;stroke:#55a868;stroke-width:0.3;" x="340.378276" xlink:href="#m86b11026e6" y="149.494499"/>
     <use style="fill:#55a868;stroke:#55a868;stroke-width:0.3;" x="245.069255" xlink:href="#m86b11026e6" y="160.051518"/>
     <use style="fill:#55a868;stroke:#55a868;stroke-width:0.3;" x="308.145885" xlink:href="#m86b11026e6" y="163.452611"/>
     <use style="fill:#55a868;stroke:#55a868;stroke-width:0.3;" x="352.412998" xlink:href="#m86b11026e6" y="163.28674"/>
     <use style="fill:#55a868;stroke:#55a868;stroke-width:0.3;" x="364.898339" xlink:href="#m86b11026e6" y="159.292038"/>
     <use style="fill:#55a868;stroke:#55a868;stroke-width:0.3;" x="339.887256" xlink:href="#m86b11026e6" y="157.649329"/>
     <use style="fill:#55a868;stroke:#55a868;stroke-width:0.3;" x="392.773061" xlink:href="#m86b11026e6" y="161.368343"/>
    </g>
   </g>
   <g id="PathCollection_3">
    <defs>
     <path d="M 0 3.5 
C 0.928211 3.5 1.81853 3.131218 2.474874 2.474874 
C 3.131218 1.81853 3.5 0.928211 3.5 0 
C 3.5 -0.928211 3.131218 -1.81853 2.474874 -2.474874 
C 1.81853 -3.131218 0.928211 -3.5 0 -3.5 
C -0.928211 -3.5 -1.81853 -3.131218 -2.474874 -2.474874 
C -3.131218 -1.81853 -3.5 -0.928211 -3.5 0 
C -3.5 0.928211 -3.131218 1.81853 -2.474874 2.474874 
C -1.81853 3.131218 -0.928211 3.5 0 3.5 
z
" id="m47610bafa9" style="stroke:#c44e52;stroke-width:0.3;"/>
    </defs>
    <g clip-path="url(#p4fed80ccc2)">
     <use style="fill:#c44e52;stroke:#c44e52;stroke-width:0.3;" x="354.390522" xlink:href="#m47610bafa9" y="159.034202"/>
     <use style="fill:#c44e52;stroke:#c44e52;stroke-width:0.3;" x="370.213363" xlink:href="#m47610bafa9" y="165.328395"/>
     <use style="fill:#c44e52;stroke:#c44e52;stroke-width:0.3;" x="360.052098" xlink:href="#m47610bafa9" y="169.28455"/>
     <use style="fill:#c44e52;stroke:#c44e52;stroke-width:0.3;" x="359.315742" xlink:href="#m47610bafa9" y="169.893273"/>
     <use style="fill:#c44e52;stroke:#c44e52;stroke-width:0.3;" x="364.510455" xlink:href="#m47610bafa9" y="167.440719"/>
     <use style="fill:#c44e52;stroke:#c44e52;stroke-width:0.3;" x="306.264847" xlink:href="#m47610bafa9" y="172.369314"/>
     <use style="fill:#c44e52;stroke:#c44e52;stroke-width:0.3;" x="290.302295" xlink:href="#m47610bafa9" y="176.119714"/>
     <use style="fill:#c44e52;stroke:#c44e52;stroke-width:0.3;" x="241.926795" xlink:href="#m47610bafa9" y="186.501961"/>
     <use style="fill:#c44e52;stroke:#c44e52;stroke-width:0.3;" x="263.681703" xlink:href="#m47610bafa9" y="186.856514"/>
     <use style="fill:#c44e52;stroke:#c44e52;stroke-width:0.3;" x="283.027801" xlink:href="#m47610bafa9" y="183.894383"/>
     <use style="fill:#c44e52;stroke:#c44e52;stroke-width:0.3;" x="278.251725" xlink:href="#m47610bafa9" y="186.181668"/>
     <use style="fill:#c44e52;stroke:#c44e52;stroke-width:0.3;" x="283.751417" xlink:href="#m47610bafa9" y="198.529323"/>
     <use style="fill:#c44e52;stroke:#c44e52;stroke-width:0.3;" x="232.190344" xlink:href="#m47610bafa9" y="208.70543"/>
     <use style="fill:#c44e52;stroke:#c44e52;stroke-width:0.3;" x="211.584508" xlink:href="#m47610bafa9" y="208.96248"/>
     <use style="fill:#c44e52;stroke:#c44e52;stroke-width:0.3;" x="255.553663" xlink:href="#m47610bafa9" y="204.471105"/>
     <use style="fill:#c44e52;stroke:#c44e52;stroke-width:0.3;" x="313.954258" xlink:href="#m47610bafa9" y="198.541557"/>
     <use style="fill:#c44e52;stroke:#c44e52;stroke-width:0.3;" x="291.045097" xlink:href="#m47610bafa9" y="204.321452"/>
     <use style="fill:#c44e52;stroke:#c44e52;stroke-width:0.3;" x="298.658588" xlink:href="#m47610bafa9" y="210.445332"/>
     <use style="fill:#c44e52;stroke:#c44e52;stroke-width:0.3;" x="244.196332" xlink:href="#m47610bafa9" y="212.048957"/>
     <use style="fill:#c44e52;stroke:#c44e52;stroke-width:0.3;" x="310.166562" xlink:href="#m47610bafa9" y="202.008795"/>
     <use style="fill:#c44e52;stroke:#c44e52;stroke-width:0.3;" x="274.169286" xlink:href="#m47610bafa9" y="203.103389"/>
     <use style="fill:#c44e52;stroke:#c44e52;stroke-width:0.3;" x="319.278216" xlink:href="#m47610bafa9" y="196.078923"/>
     <use style="fill:#c44e52;stroke:#c44e52;stroke-width:0.3;" x="314.753817" xlink:href="#m47610bafa9" y="188.055852"/>
     <use style="fill:#c44e52;stroke:#c44e52;stroke-width:0.3;" x="287.033252" xlink:href="#m47610bafa9" y="183.31962"/>
    </g>
   </g>
   <g id="line2d_15">
    <path clip-path="url(#p4fed80ccc2)" d="M 295.2 199.98 
L 395.61149 95.096385 
" style="fill:none;stroke:#ff0000;stroke-dasharray:7.4,3.2;stroke-dashoffset:0;stroke-width:2;"/>
   </g>
   <g id="patch_3">
    <path d="M 447.66 199.98 
C 447.66 179.959136 443.716326 160.13295 436.054674 141.636084 
C 428.393021 123.139218 417.162388 106.331389 403.0055 92.1745 
C 388.848611 78.017612 372.040782 66.786979 353.543916 59.125326 
C 335.04705 51.463674 315.220864 47.52 295.2 47.52 
C 275.179136 47.52 255.35295 51.463674 236.856084 59.125326 
C 218.359218 66.786979 201.551389 78.017612 187.3945 92.1745 
C 173.237612 106.331389 162.006979 123.139218 154.345326 141.636084 
C 146.683674 160.13295 142.74 179.959136 142.74 199.98 
C 142.74 220.000864 146.683674 239.82705 154.345326 258.323916 
C 162.006979 276.820782 173.237612 293.628611 187.3945 307.7855 
C 201.551389 321.942388 218.359218 333.173021 236.856084 340.834674 
C 255.35295 348.496326 275.179136 352.44 295.2 352.44 
C 315.220864 352.44 335.04705 348.496326 353.543916 340.834674 
C 372.040782 333.173021 388.848611 321.942388 403.0055 307.7855 
C 417.162388 293.628611 428.393021 276.820782 436.054674 258.323916 
C 443.716326 239.82705 447.66 220.000864 447.66 199.98 
" style="fill:none;"/>
   </g>
   <g id="text_15">
    <!-- Distribution of projected eye movement velocity on the screen - NewM2_3_21 -->
    <defs>
     <path d="M 7.71875 0 
L 7.71875 71.578125 
L 32.375 71.578125 
Q 40.71875 71.578125 45.125 70.5625 
Q 51.265625 69.140625 55.609375 65.4375 
Q 61.28125 60.640625 64.078125 53.1875 
Q 66.890625 45.75 66.890625 36.1875 
Q 66.890625 28.03125 64.984375 21.734375 
Q 63.09375 15.4375 60.109375 11.296875 
Q 57.125 7.171875 53.578125 4.796875 
Q 50.046875 2.4375 45.046875 1.21875 
Q 40.046875 0 33.546875 0 
z
M 17.1875 8.453125 
L 32.46875 8.453125 
Q 39.546875 8.453125 43.578125 9.765625 
Q 47.609375 11.078125 50 13.484375 
Q 53.375 16.84375 55.25 22.53125 
Q 57.125 28.21875 57.125 36.328125 
Q 57.125 47.5625 53.4375 53.59375 
Q 49.75 59.625 44.484375 61.671875 
Q 40.671875 63.140625 32.234375 63.140625 
L 17.1875 63.140625 
z
" id="ArialMT-68"/>
     <path d="M 6.640625 61.46875 
L 6.640625 71.578125 
L 15.4375 71.578125 
L 15.4375 61.46875 
z
M 6.640625 0 
L 6.640625 51.859375 
L 15.4375 51.859375 
L 15.4375 0 
z
" id="ArialMT-105"/>
     <path d="M 3.078125 15.484375 
L 11.765625 16.84375 
Q 12.5 11.625 15.84375 8.84375 
Q 19.1875 6.0625 25.203125 6.0625 
Q 31.25 6.0625 34.171875 8.515625 
Q 37.109375 10.984375 37.109375 14.3125 
Q 37.109375 17.28125 34.515625 19 
Q 32.71875 20.171875 25.53125 21.96875 
Q 15.875 24.421875 12.140625 26.203125 
Q 8.40625 27.984375 6.46875 31.125 
Q 4.546875 34.28125 4.546875 38.09375 
Q 4.546875 41.546875 6.125 44.5 
Q 7.71875 47.46875 10.453125 49.421875 
Q 12.5 50.921875 16.03125 51.96875 
Q 19.578125 53.03125 23.640625 53.03125 
Q 29.734375 53.03125 34.34375 51.265625 
Q 38.96875 49.515625 41.15625 46.5 
Q 43.359375 43.5 44.1875 38.484375 
L 35.59375 37.3125 
Q 35.015625 41.3125 32.203125 43.546875 
Q 29.390625 45.796875 24.265625 45.796875 
Q 18.21875 45.796875 15.625 43.796875 
Q 13.03125 41.796875 13.03125 39.109375 
Q 13.03125 37.40625 14.109375 36.03125 
Q 15.1875 34.625 17.484375 33.6875 
Q 18.796875 33.203125 25.25 31.453125 
Q 34.578125 28.953125 38.25 27.359375 
Q 41.9375 25.78125 44.03125 22.75 
Q 46.140625 19.734375 46.140625 15.234375 
Q 46.140625 10.84375 43.578125 6.953125 
Q 41.015625 3.078125 36.171875 0.953125 
Q 31.34375 -1.171875 25.25 -1.171875 
Q 15.140625 -1.171875 9.84375 3.03125 
Q 4.546875 7.234375 3.078125 15.484375 
z
" id="ArialMT-115"/>
     <path d="M 25.78125 7.859375 
L 27.046875 0.09375 
Q 23.34375 -0.6875 20.40625 -0.6875 
Q 15.625 -0.6875 12.984375 0.828125 
Q 10.359375 2.34375 9.28125 4.8125 
Q 8.203125 7.28125 8.203125 15.1875 
L 8.203125 45.015625 
L 1.765625 45.015625 
L 1.765625 51.859375 
L 8.203125 51.859375 
L 8.203125 64.703125 
L 16.9375 69.96875 
L 16.9375 51.859375 
L 25.78125 51.859375 
L 25.78125 45.015625 
L 16.9375 45.015625 
L 16.9375 14.703125 
Q 16.9375 10.9375 17.40625 9.859375 
Q 17.875 8.796875 18.921875 8.15625 
Q 19.96875 7.515625 21.921875 7.515625 
Q 23.390625 7.515625 25.78125 7.859375 
z
" id="ArialMT-116"/>
     <path d="M 6.5 0 
L 6.5 51.859375 
L 14.40625 51.859375 
L 14.40625 44 
Q 17.4375 49.515625 20 51.265625 
Q 22.5625 53.03125 25.640625 53.03125 
Q 30.078125 53.03125 34.671875 50.203125 
L 31.640625 42.046875 
Q 28.421875 43.953125 25.203125 43.953125 
Q 22.3125 43.953125 20.015625 42.21875 
Q 17.71875 40.484375 16.75 37.40625 
Q 15.28125 32.71875 15.28125 27.15625 
L 15.28125 0 
z
" id="ArialMT-114"/>
     <path d="M 14.703125 0 
L 6.546875 0 
L 6.546875 71.578125 
L 15.328125 71.578125 
L 15.328125 46.046875 
Q 20.90625 53.03125 29.546875 53.03125 
Q 34.328125 53.03125 38.59375 51.09375 
Q 42.875 49.171875 45.625 45.671875 
Q 48.390625 42.1875 49.953125 37.25 
Q 51.515625 32.328125 51.515625 26.703125 
Q 51.515625 13.375 44.921875 6.09375 
Q 38.328125 -1.171875 29.109375 -1.171875 
Q 19.921875 -1.171875 14.703125 6.5 
z
M 14.59375 26.3125 
Q 14.59375 17 17.140625 12.84375 
Q 21.296875 6.0625 28.375 6.0625 
Q 34.125 6.0625 38.328125 11.0625 
Q 42.53125 16.0625 42.53125 25.984375 
Q 42.53125 36.140625 38.5 40.96875 
Q 34.46875 45.796875 28.765625 45.796875 
Q 23 45.796875 18.796875 40.796875 
Q 14.59375 35.796875 14.59375 26.3125 
z
" id="ArialMT-98"/>
     <path d="M 40.578125 0 
L 40.578125 7.625 
Q 34.515625 -1.171875 24.125 -1.171875 
Q 19.53125 -1.171875 15.546875 0.578125 
Q 11.578125 2.34375 9.640625 5 
Q 7.71875 7.671875 6.9375 11.53125 
Q 6.390625 14.109375 6.390625 19.734375 
L 6.390625 51.859375 
L 15.1875 51.859375 
L 15.1875 23.09375 
Q 15.1875 16.21875 15.71875 13.8125 
Q 16.546875 10.359375 19.234375 8.375 
Q 21.921875 6.390625 25.875 6.390625 
Q 29.828125 6.390625 33.296875 8.421875 
Q 36.765625 10.453125 38.203125 13.9375 
Q 39.65625 17.4375 39.65625 24.078125 
L 39.65625 51.859375 
L 48.4375 51.859375 
L 48.4375 0 
z
" id="ArialMT-117"/>
     <path d="M 3.328125 25.921875 
Q 3.328125 40.328125 11.328125 47.265625 
Q 18.015625 53.03125 27.640625 53.03125 
Q 38.328125 53.03125 45.109375 46.015625 
Q 51.90625 39.015625 51.90625 26.65625 
Q 51.90625 16.65625 48.90625 10.90625 
Q 45.90625 5.171875 40.15625 2 
Q 34.421875 -1.171875 27.640625 -1.171875 
Q 16.75 -1.171875 10.03125 5.8125 
Q 3.328125 12.796875 3.328125 25.921875 
z
M 12.359375 25.921875 
Q 12.359375 15.96875 16.703125 11.015625 
Q 21.046875 6.0625 27.640625 6.0625 
Q 34.1875 6.0625 38.53125 11.03125 
Q 42.875 16.015625 42.875 26.21875 
Q 42.875 35.84375 38.5 40.796875 
Q 34.125 45.75 27.640625 45.75 
Q 21.046875 45.75 16.703125 40.8125 
Q 12.359375 35.890625 12.359375 25.921875 
z
" id="ArialMT-111"/>
     <path d="M 6.59375 0 
L 6.59375 51.859375 
L 14.5 51.859375 
L 14.5 44.484375 
Q 20.21875 53.03125 31 53.03125 
Q 35.6875 53.03125 39.625 51.34375 
Q 43.5625 49.65625 45.515625 46.921875 
Q 47.46875 44.1875 48.25 40.4375 
Q 48.734375 37.984375 48.734375 31.890625 
L 48.734375 0 
L 39.9375 0 
L 39.9375 31.546875 
Q 39.9375 36.921875 38.90625 39.578125 
Q 37.890625 42.234375 35.28125 43.8125 
Q 32.671875 45.40625 29.15625 45.40625 
Q 23.53125 45.40625 19.453125 41.84375 
Q 15.375 38.28125 15.375 28.328125 
L 15.375 0 
z
" id="ArialMT-110"/>
     <path id="ArialMT-32"/>
     <path d="M 8.6875 0 
L 8.6875 45.015625 
L 0.921875 45.015625 
L 0.921875 51.859375 
L 8.6875 51.859375 
L 8.6875 57.375 
Q 8.6875 62.59375 9.625 65.140625 
Q 10.890625 68.5625 14.078125 70.671875 
Q 17.28125 72.796875 23.046875 72.796875 
Q 26.765625 72.796875 31.25 71.921875 
L 29.9375 64.265625 
Q 27.203125 64.75 24.75 64.75 
Q 20.75 64.75 19.09375 63.03125 
Q 17.4375 61.328125 17.4375 56.640625 
L 17.4375 51.859375 
L 27.546875 51.859375 
L 27.546875 45.015625 
L 17.4375 45.015625 
L 17.4375 0 
z
" id="ArialMT-102"/>
     <path d="M 6.59375 -19.875 
L 6.59375 51.859375 
L 14.59375 51.859375 
L 14.59375 45.125 
Q 17.4375 49.078125 21 51.046875 
Q 24.5625 53.03125 29.640625 53.03125 
Q 36.28125 53.03125 41.359375 49.609375 
Q 46.4375 46.1875 49.015625 39.953125 
Q 51.609375 33.734375 51.609375 26.3125 
Q 51.609375 18.359375 48.75 11.984375 
Q 45.90625 5.609375 40.453125 2.21875 
Q 35.015625 -1.171875 29 -1.171875 
Q 24.609375 -1.171875 21.109375 0.6875 
Q 17.625 2.546875 15.375 5.375 
L 15.375 -19.875 
z
M 14.546875 25.640625 
Q 14.546875 15.625 18.59375 10.84375 
Q 22.65625 6.0625 28.421875 6.0625 
Q 34.28125 6.0625 38.453125 11.015625 
Q 42.625 15.96875 42.625 26.375 
Q 42.625 36.28125 38.546875 41.203125 
Q 34.46875 46.140625 28.8125 46.140625 
Q 23.1875 46.140625 18.859375 40.890625 
Q 14.546875 35.640625 14.546875 25.640625 
z
" id="ArialMT-112"/>
     <path d="M 6.546875 61.375 
L 6.546875 71.578125 
L 15.328125 71.578125 
L 15.328125 61.375 
z
M -4.59375 -20.125 
L -2.9375 -12.640625 
Q -0.296875 -13.328125 1.21875 -13.328125 
Q 3.90625 -13.328125 5.21875 -11.546875 
Q 6.546875 -9.765625 6.546875 -2.640625 
L 6.546875 51.859375 
L 15.328125 51.859375 
L 15.328125 -2.828125 
Q 15.328125 -12.40625 12.84375 -16.15625 
Q 9.671875 -21.046875 2.296875 -21.046875 
Q -1.265625 -21.046875 -4.59375 -20.125 
z
" id="ArialMT-106"/>
     <path d="M 42.09375 16.703125 
L 51.171875 15.578125 
Q 49.03125 7.625 43.21875 3.21875 
Q 37.40625 -1.171875 28.375 -1.171875 
Q 17 -1.171875 10.328125 5.828125 
Q 3.65625 12.84375 3.65625 25.484375 
Q 3.65625 38.578125 10.390625 45.796875 
Q 17.140625 53.03125 27.875 53.03125 
Q 38.28125 53.03125 44.875 45.953125 
Q 51.46875 38.875 51.46875 26.03125 
Q 51.46875 25.25 51.421875 23.6875 
L 12.75 23.6875 
Q 13.234375 15.140625 17.578125 10.59375 
Q 21.921875 6.0625 28.421875 6.0625 
Q 33.25 6.0625 36.671875 8.59375 
Q 40.09375 11.140625 42.09375 16.703125 
z
M 13.234375 30.90625 
L 42.1875 30.90625 
Q 41.609375 37.453125 38.875 40.71875 
Q 34.671875 45.796875 27.984375 45.796875 
Q 21.921875 45.796875 17.796875 41.75 
Q 13.671875 37.703125 13.234375 30.90625 
z
" id="ArialMT-101"/>
     <path d="M 40.4375 19 
L 49.078125 17.875 
Q 47.65625 8.9375 41.8125 3.875 
Q 35.984375 -1.171875 27.484375 -1.171875 
Q 16.84375 -1.171875 10.375 5.78125 
Q 3.90625 12.75 3.90625 25.734375 
Q 3.90625 34.125 6.6875 40.421875 
Q 9.46875 46.734375 15.15625 49.875 
Q 20.84375 53.03125 27.546875 53.03125 
Q 35.984375 53.03125 41.359375 48.75 
Q 46.734375 44.484375 48.25 36.625 
L 39.703125 35.296875 
Q 38.484375 40.53125 35.375 43.15625 
Q 32.28125 45.796875 27.875 45.796875 
Q 21.234375 45.796875 17.078125 41.03125 
Q 12.9375 36.28125 12.9375 25.984375 
Q 12.9375 15.53125 16.9375 10.796875 
Q 20.953125 6.0625 27.390625 6.0625 
Q 32.5625 6.0625 36.03125 9.234375 
Q 39.5 12.40625 40.4375 19 
z
" id="ArialMT-99"/>
     <path d="M 40.234375 0 
L 40.234375 6.546875 
Q 35.296875 -1.171875 25.734375 -1.171875 
Q 19.53125 -1.171875 14.328125 2.25 
Q 9.125 5.671875 6.265625 11.796875 
Q 3.421875 17.921875 3.421875 25.875 
Q 3.421875 33.640625 6 39.96875 
Q 8.59375 46.296875 13.765625 49.65625 
Q 18.953125 53.03125 25.34375 53.03125 
Q 30.03125 53.03125 33.6875 51.046875 
Q 37.359375 49.078125 39.65625 45.90625 
L 39.65625 71.578125 
L 48.390625 71.578125 
L 48.390625 0 
z
M 12.453125 25.875 
Q 12.453125 15.921875 16.640625 10.984375 
Q 20.84375 6.0625 26.5625 6.0625 
Q 32.328125 6.0625 36.34375 10.765625 
Q 40.375 15.484375 40.375 25.140625 
Q 40.375 35.796875 36.265625 40.765625 
Q 32.171875 45.75 26.171875 45.75 
Q 20.3125 45.75 16.375 40.96875 
Q 12.453125 36.1875 12.453125 25.875 
z
" id="ArialMT-100"/>
     <path d="M 6.203125 -19.96875 
L 5.21875 -11.71875 
Q 8.109375 -12.5 10.25 -12.5 
Q 13.1875 -12.5 14.9375 -11.515625 
Q 16.703125 -10.546875 17.828125 -8.796875 
Q 18.65625 -7.46875 20.515625 -2.25 
Q 20.75 -1.515625 21.296875 -0.09375 
L 1.609375 51.859375 
L 11.078125 51.859375 
L 21.875 21.828125 
Q 23.96875 16.109375 25.640625 9.8125 
Q 27.15625 15.875 29.25 21.625 
L 40.328125 51.859375 
L 49.125 51.859375 
L 29.390625 -0.875 
Q 26.21875 -9.421875 24.46875 -12.640625 
Q 22.125 -17 19.09375 -19.015625 
Q 16.0625 -21.046875 11.859375 -21.046875 
Q 9.328125 -21.046875 6.203125 -19.96875 
z
" id="ArialMT-121"/>
     <path d="M 6.59375 0 
L 6.59375 51.859375 
L 14.453125 51.859375 
L 14.453125 44.578125 
Q 16.890625 48.390625 20.9375 50.703125 
Q 25 53.03125 30.171875 53.03125 
Q 35.9375 53.03125 39.625 50.640625 
Q 43.3125 48.25 44.828125 43.953125 
Q 50.984375 53.03125 60.84375 53.03125 
Q 68.5625 53.03125 72.703125 48.75 
Q 76.859375 44.484375 76.859375 35.59375 
L 76.859375 0 
L 68.109375 0 
L 68.109375 32.671875 
Q 68.109375 37.9375 67.25 40.25 
Q 66.40625 42.578125 64.15625 43.984375 
Q 61.921875 45.40625 58.890625 45.40625 
Q 53.421875 45.40625 49.796875 41.765625 
Q 46.1875 38.140625 46.1875 30.125 
L 46.1875 0 
L 37.40625 0 
L 37.40625 33.6875 
Q 37.40625 39.546875 35.25 42.46875 
Q 33.109375 45.40625 28.21875 45.40625 
Q 24.515625 45.40625 21.359375 43.453125 
Q 18.21875 41.5 16.796875 37.734375 
Q 15.375 33.984375 15.375 26.90625 
L 15.375 0 
z
" id="ArialMT-109"/>
     <path d="M 21 0 
L 1.265625 51.859375 
L 10.546875 51.859375 
L 21.6875 20.796875 
Q 23.484375 15.765625 25 10.359375 
Q 26.171875 14.453125 28.265625 20.21875 
L 39.796875 51.859375 
L 48.828125 51.859375 
L 29.203125 0 
z
" id="ArialMT-118"/>
     <path d="M 6.390625 0 
L 6.390625 71.578125 
L 15.1875 71.578125 
L 15.1875 0 
z
" id="ArialMT-108"/>
     <path d="M 6.59375 0 
L 6.59375 71.578125 
L 15.375 71.578125 
L 15.375 45.90625 
Q 21.53125 53.03125 30.90625 53.03125 
Q 36.671875 53.03125 40.921875 50.75 
Q 45.171875 48.484375 47 44.484375 
Q 48.828125 40.484375 48.828125 32.859375 
L 48.828125 0 
L 40.046875 0 
L 40.046875 32.859375 
Q 40.046875 39.453125 37.1875 42.453125 
Q 34.328125 45.453125 29.109375 45.453125 
Q 25.203125 45.453125 21.75 43.421875 
Q 18.3125 41.40625 16.84375 37.9375 
Q 15.375 34.46875 15.375 28.375 
L 15.375 0 
z
" id="ArialMT-104"/>
     <path d="M 3.171875 21.484375 
L 3.171875 30.328125 
L 30.171875 30.328125 
L 30.171875 21.484375 
z
" id="ArialMT-45"/>
     <path d="M 7.625 0 
L 7.625 71.578125 
L 17.328125 71.578125 
L 54.9375 15.375 
L 54.9375 71.578125 
L 64.015625 71.578125 
L 64.015625 0 
L 54.296875 0 
L 16.703125 56.25 
L 16.703125 0 
z
" id="ArialMT-78"/>
     <path d="M 16.15625 0 
L 0.296875 51.859375 
L 9.375 51.859375 
L 17.625 21.921875 
L 20.703125 10.796875 
Q 20.90625 11.625 23.390625 21.484375 
L 31.640625 51.859375 
L 40.671875 51.859375 
L 48.4375 21.78125 
L 51.03125 11.859375 
L 54 21.875 
L 62.890625 51.859375 
L 71.4375 51.859375 
L 55.21875 0 
L 46.09375 0 
L 37.84375 31.0625 
L 35.84375 39.890625 
L 25.34375 0 
z
" id="ArialMT-119"/>
     <path d="M 7.421875 0 
L 7.421875 71.578125 
L 21.6875 71.578125 
L 38.625 20.90625 
Q 40.96875 13.8125 42.046875 10.296875 
Q 43.265625 14.203125 45.84375 21.78125 
L 62.984375 71.578125 
L 75.734375 71.578125 
L 75.734375 0 
L 66.609375 0 
L 66.609375 59.90625 
L 45.796875 0 
L 37.25 0 
L 16.546875 60.9375 
L 16.546875 0 
z
" id="ArialMT-77"/>
     <path d="M -1.515625 -19.875 
L -1.515625 -13.53125 
L 56.734375 -13.53125 
L 56.734375 -19.875 
z
" id="ArialMT-95"/>
    </defs>
    <g style="fill:#262626;" transform="translate(89.110313 23.748375)scale(0.12 -0.12)">
     <use xlink:href="#ArialMT-68"/>
     <use x="72.216797" xlink:href="#ArialMT-105"/>
     <use x="94.433594" xlink:href="#ArialMT-115"/>
     <use x="144.433594" xlink:href="#ArialMT-116"/>
     <use x="172.216797" xlink:href="#ArialMT-114"/>
     <use x="205.517578" xlink:href="#ArialMT-105"/>
     <use x="227.734375" xlink:href="#ArialMT-98"/>
     <use x="283.349609" xlink:href="#ArialMT-117"/>
     <use x="338.964844" xlink:href="#ArialMT-116"/>
     <use x="366.748047" xlink:href="#ArialMT-105"/>
     <use x="388.964844" xlink:href="#ArialMT-111"/>
     <use x="444.580078" xlink:href="#ArialMT-110"/>
     <use x="500.195312" xlink:href="#ArialMT-32"/>
     <use x="527.978516" xlink:href="#ArialMT-111"/>
     <use x="583.59375" xlink:href="#ArialMT-102"/>
     <use x="611.376953" xlink:href="#ArialMT-32"/>
     <use x="639.160156" xlink:href="#ArialMT-112"/>
     <use x="694.775391" xlink:href="#ArialMT-114"/>
     <use x="728.076172" xlink:href="#ArialMT-111"/>
     <use x="783.691406" xlink:href="#ArialMT-106"/>
     <use x="805.908203" xlink:href="#ArialMT-101"/>
     <use x="861.523438" xlink:href="#ArialMT-99"/>
     <use x="911.523438" xlink:href="#ArialMT-116"/>
     <use x="939.306641" xlink:href="#ArialMT-101"/>
     <use x="994.921875" xlink:href="#ArialMT-100"/>
     <use x="1050.537109" xlink:href="#ArialMT-32"/>
     <use x="1078.320312" xlink:href="#ArialMT-101"/>
     <use x="1133.935547" xlink:href="#ArialMT-121"/>
     <use x="1183.935547" xlink:href="#ArialMT-101"/>
     <use x="1239.550781" xlink:href="#ArialMT-32"/>
     <use x="1267.333984" xlink:href="#ArialMT-109"/>
     <use x="1350.634766" xlink:href="#ArialMT-111"/>
     <use x="1406.25" xlink:href="#ArialMT-118"/>
     <use x="1456.25" xlink:href="#ArialMT-101"/>
     <use x="1511.865234" xlink:href="#ArialMT-109"/>
     <use x="1595.166016" xlink:href="#ArialMT-101"/>
     <use x="1650.78125" xlink:href="#ArialMT-110"/>
     <use x="1706.396484" xlink:href="#ArialMT-116"/>
     <use x="1734.179688" xlink:href="#ArialMT-32"/>
     <use x="1761.962891" xlink:href="#ArialMT-118"/>
     <use x="1811.962891" xlink:href="#ArialMT-101"/>
     <use x="1867.578125" xlink:href="#ArialMT-108"/>
     <use x="1889.794922" xlink:href="#ArialMT-111"/>
     <use x="1945.410156" xlink:href="#ArialMT-99"/>
     <use x="1995.410156" xlink:href="#ArialMT-105"/>
     <use x="2017.626953" xlink:href="#ArialMT-116"/>
     <use x="2045.410156" xlink:href="#ArialMT-121"/>
     <use x="2095.410156" xlink:href="#ArialMT-32"/>
     <use x="2123.193359" xlink:href="#ArialMT-111"/>
     <use x="2178.808594" xlink:href="#ArialMT-110"/>
     <use x="2234.423828" xlink:href="#ArialMT-32"/>
     <use x="2262.207031" xlink:href="#ArialMT-116"/>
     <use x="2289.990234" xlink:href="#ArialMT-104"/>
     <use x="2345.605469" xlink:href="#ArialMT-101"/>
     <use x="2401.220703" xlink:href="#ArialMT-32"/>
     <use x="2429.003906" xlink:href="#ArialMT-115"/>
     <use x="2479.003906" xlink:href="#ArialMT-99"/>
     <use x="2529.003906" xlink:href="#ArialMT-114"/>
     <use x="2562.304688" xlink:href="#ArialMT-101"/>
     <use x="2617.919922" xlink:href="#ArialMT-101"/>
     <use x="2673.535156" xlink:href="#ArialMT-110"/>
     <use x="2729.150391" xlink:href="#ArialMT-32"/>
     <use x="2756.933594" xlink:href="#ArialMT-45"/>
     <use x="2790.234375" xlink:href="#ArialMT-32"/>
     <use x="2818.017578" xlink:href="#ArialMT-78"/>
     <use x="2890.234375" xlink:href="#ArialMT-101"/>
     <use x="2945.849609" xlink:href="#ArialMT-119"/>
     <use x="3018.066406" xlink:href="#ArialMT-77"/>
     <use x="3101.367188" xlink:href="#ArialMT-50"/>
     <use x="3156.982422" xlink:href="#ArialMT-95"/>
     <use x="3212.597656" xlink:href="#ArialMT-51"/>
     <use x="3268.212891" xlink:href="#ArialMT-95"/>
     <use x="3323.828125" xlink:href="#ArialMT-50"/>
     <use x="3379.443359" xlink:href="#ArialMT-49"/>
    </g>
   </g>
   <g id="legend_1">
    <g id="line2d_16">
     <path d="M 198.370313 60.2075 
L 218.370313 60.2075 
" style="fill:none;stroke:#ff0000;stroke-dasharray:7.4,3.2;stroke-dashoffset:0;stroke-width:2;"/>
    </g>
    <g id="line2d_17"/>
    <g id="text_16">
     <!-- Average angle in light: 46.25 degrees -->
     <defs>
      <path d="M -0.140625 0 
L 27.34375 71.578125 
L 37.546875 71.578125 
L 66.84375 0 
L 56.0625 0 
L 47.703125 21.6875 
L 17.78125 21.6875 
L 9.90625 0 
z
M 20.515625 29.390625 
L 44.78125 29.390625 
L 37.3125 49.21875 
Q 33.890625 58.25 32.234375 64.0625 
Q 30.859375 57.171875 28.375 50.390625 
z
" id="ArialMT-65"/>
      <path d="M 40.4375 6.390625 
Q 35.546875 2.25 31.03125 0.53125 
Q 26.515625 -1.171875 21.34375 -1.171875 
Q 12.796875 -1.171875 8.203125 3 
Q 3.609375 7.171875 3.609375 13.671875 
Q 3.609375 17.484375 5.34375 20.625 
Q 7.078125 23.78125 9.890625 25.6875 
Q 12.703125 27.59375 16.21875 28.5625 
Q 18.796875 29.25 24.03125 29.890625 
Q 34.671875 31.15625 39.703125 32.90625 
Q 39.75 34.71875 39.75 35.203125 
Q 39.75 40.578125 37.25 42.78125 
Q 33.890625 45.75 27.25 45.75 
Q 21.046875 45.75 18.09375 43.578125 
Q 15.140625 41.40625 13.71875 35.890625 
L 5.125 37.0625 
Q 6.296875 42.578125 8.984375 45.96875 
Q 11.671875 49.359375 16.75 51.1875 
Q 21.828125 53.03125 28.515625 53.03125 
Q 35.15625 53.03125 39.296875 51.46875 
Q 43.453125 49.90625 45.40625 47.53125 
Q 47.359375 45.171875 48.140625 41.546875 
Q 48.578125 39.3125 48.578125 33.453125 
L 48.578125 21.734375 
Q 48.578125 9.46875 49.140625 6.21875 
Q 49.703125 2.984375 51.375 0 
L 42.1875 0 
Q 40.828125 2.734375 40.4375 6.390625 
z
M 39.703125 26.03125 
Q 34.90625 24.078125 25.34375 22.703125 
Q 19.921875 21.921875 17.671875 20.9375 
Q 15.4375 19.96875 14.203125 18.09375 
Q 12.984375 16.21875 12.984375 13.921875 
Q 12.984375 10.40625 15.640625 8.0625 
Q 18.3125 5.71875 23.4375 5.71875 
Q 28.515625 5.71875 32.46875 7.9375 
Q 36.421875 10.15625 38.28125 14.015625 
Q 39.703125 17 39.703125 22.796875 
z
" id="ArialMT-97"/>
      <path d="M 4.984375 -4.296875 
L 13.53125 -5.5625 
Q 14.0625 -9.515625 16.5 -11.328125 
Q 19.78125 -13.765625 25.4375 -13.765625 
Q 31.546875 -13.765625 34.859375 -11.328125 
Q 38.1875 -8.890625 39.359375 -4.5 
Q 40.046875 -1.8125 39.984375 6.78125 
Q 34.234375 0 25.640625 0 
Q 14.9375 0 9.078125 7.71875 
Q 3.21875 15.4375 3.21875 26.21875 
Q 3.21875 33.640625 5.90625 39.90625 
Q 8.59375 46.1875 13.6875 49.609375 
Q 18.796875 53.03125 25.6875 53.03125 
Q 34.859375 53.03125 40.828125 45.609375 
L 40.828125 51.859375 
L 48.921875 51.859375 
L 48.921875 7.03125 
Q 48.921875 -5.078125 46.453125 -10.125 
Q 44 -15.1875 38.640625 -18.109375 
Q 33.296875 -21.046875 25.484375 -21.046875 
Q 16.21875 -21.046875 10.5 -16.875 
Q 4.78125 -12.703125 4.984375 -4.296875 
z
M 12.25 26.859375 
Q 12.25 16.65625 16.296875 11.96875 
Q 20.359375 7.28125 26.46875 7.28125 
Q 32.515625 7.28125 36.609375 11.9375 
Q 40.71875 16.609375 40.71875 26.5625 
Q 40.71875 36.078125 36.5 40.90625 
Q 32.28125 45.75 26.3125 45.75 
Q 20.453125 45.75 16.34375 40.984375 
Q 12.25 36.234375 12.25 26.859375 
z
" id="ArialMT-103"/>
      <path d="M 9.03125 41.84375 
L 9.03125 51.859375 
L 19.046875 51.859375 
L 19.046875 41.84375 
z
M 9.03125 0 
L 9.03125 10.015625 
L 19.046875 10.015625 
L 19.046875 0 
z
" id="ArialMT-58"/>
      <path d="M 49.75 54.046875 
L 41.015625 53.375 
Q 39.84375 58.546875 37.703125 60.890625 
Q 34.125 64.65625 28.90625 64.65625 
Q 24.703125 64.65625 21.53125 62.3125 
Q 17.390625 59.28125 14.984375 53.46875 
Q 12.59375 47.65625 12.5 36.921875 
Q 15.671875 41.75 20.265625 44.09375 
Q 24.859375 46.4375 29.890625 46.4375 
Q 38.671875 46.4375 44.84375 39.96875 
Q 51.03125 33.5 51.03125 23.25 
Q 51.03125 16.5 48.125 10.71875 
Q 45.21875 4.9375 40.140625 1.859375 
Q 35.0625 -1.21875 28.609375 -1.21875 
Q 17.625 -1.21875 10.6875 6.859375 
Q 3.765625 14.9375 3.765625 33.5 
Q 3.765625 54.25 11.421875 63.671875 
Q 18.109375 71.875 29.4375 71.875 
Q 37.890625 71.875 43.28125 67.140625 
Q 48.6875 62.40625 49.75 54.046875 
z
M 13.875 23.1875 
Q 13.875 18.65625 15.796875 14.5 
Q 17.71875 10.359375 21.1875 8.171875 
Q 24.65625 6 28.46875 6 
Q 34.03125 6 38.03125 10.484375 
Q 42.046875 14.984375 42.046875 22.703125 
Q 42.046875 30.125 38.078125 34.390625 
Q 34.125 38.671875 28.125 38.671875 
Q 22.171875 38.671875 18.015625 34.390625 
Q 13.875 30.125 13.875 23.1875 
z
" id="ArialMT-54"/>
     </defs>
     <g style="fill:#262626;" transform="translate(226.370313 63.7075)scale(0.1 -0.1)">
      <use xlink:href="#ArialMT-65"/>
      <use x="66.683594" xlink:href="#ArialMT-118"/>
      <use x="116.683594" xlink:href="#ArialMT-101"/>
      <use x="172.298828" xlink:href="#ArialMT-114"/>
      <use x="205.599609" xlink:href="#ArialMT-97"/>
      <use x="261.214844" xlink:href="#ArialMT-103"/>
      <use x="316.830078" xlink:href="#ArialMT-101"/>
      <use x="372.445312" xlink:href="#ArialMT-32"/>
      <use x="400.228516" xlink:href="#ArialMT-97"/>
      <use x="455.84375" xlink:href="#ArialMT-110"/>
      <use x="511.458984" xlink:href="#ArialMT-103"/>
      <use x="567.074219" xlink:href="#ArialMT-108"/>
      <use x="589.291016" xlink:href="#ArialMT-101"/>
      <use x="644.90625" xlink:href="#ArialMT-32"/>
      <use x="672.689453" xlink:href="#ArialMT-105"/>
      <use x="694.90625" xlink:href="#ArialMT-110"/>
      <use x="750.521484" xlink:href="#ArialMT-32"/>
      <use x="778.304688" xlink:href="#ArialMT-108"/>
      <use x="800.521484" xlink:href="#ArialMT-105"/>
      <use x="822.738281" xlink:href="#ArialMT-103"/>
      <use x="878.353516" xlink:href="#ArialMT-104"/>
      <use x="933.96875" xlink:href="#ArialMT-116"/>
      <use x="961.751953" xlink:href="#ArialMT-58"/>
      <use x="989.535156" xlink:href="#ArialMT-32"/>
      <use x="1017.318359" xlink:href="#ArialMT-52"/>
      <use x="1072.933594" xlink:href="#ArialMT-54"/>
      <use x="1128.548828" xlink:href="#ArialMT-46"/>
      <use x="1156.332031" xlink:href="#ArialMT-50"/>
      <use x="1211.947266" xlink:href="#ArialMT-53"/>
      <use x="1267.5625" xlink:href="#ArialMT-32"/>
      <use x="1295.345703" xlink:href="#ArialMT-100"/>
      <use x="1350.960938" xlink:href="#ArialMT-101"/>
      <use x="1406.576172" xlink:href="#ArialMT-103"/>
      <use x="1462.191406" xlink:href="#ArialMT-114"/>
      <use x="1495.492188" xlink:href="#ArialMT-101"/>
      <use x="1551.107422" xlink:href="#ArialMT-101"/>
      <use x="1606.722656" xlink:href="#ArialMT-115"/>
     </g>
    </g>
    <g id="PathCollection_4">
     <g>
      <use style="fill:#4c72b0;stroke:#4c72b0;stroke-width:0.3;" x="208.370313" xlink:href="#md4ad9e02ec" y="75.345"/>
     </g>
    </g>
    <g id="text_17">
     <!-- $-0.5 &lt; t &lt; 0.$ -->
     <defs>
      <path d="M 10.59375 35.5 
L 73.1875 35.5 
L 73.1875 27.203125 
L 10.59375 27.203125 
z
" id="DejaVuSans-8722"/>
      <path d="M 31.78125 66.40625 
Q 24.171875 66.40625 20.328125 58.90625 
Q 16.5 51.421875 16.5 36.375 
Q 16.5 21.390625 20.328125 13.890625 
Q 24.171875 6.390625 31.78125 6.390625 
Q 39.453125 6.390625 43.28125 13.890625 
Q 47.125 21.390625 47.125 36.375 
Q 47.125 51.421875 43.28125 58.90625 
Q 39.453125 66.40625 31.78125 66.40625 
z
M 31.78125 74.21875 
Q 44.046875 74.21875 50.515625 64.515625 
Q 56.984375 54.828125 56.984375 36.375 
Q 56.984375 17.96875 50.515625 8.265625 
Q 44.046875 -1.421875 31.78125 -1.421875 
Q 19.53125 -1.421875 13.0625 8.265625 
Q 6.59375 17.96875 6.59375 36.375 
Q 6.59375 54.828125 13.0625 64.515625 
Q 19.53125 74.21875 31.78125 74.21875 
z
" id="DejaVuSans-48"/>
      <path d="M 10.6875 12.40625 
L 21 12.40625 
L 21 0 
L 10.6875 0 
z
" id="DejaVuSans-46"/>
      <path d="M 10.796875 72.90625 
L 49.515625 72.90625 
L 49.515625 64.59375 
L 19.828125 64.59375 
L 19.828125 46.734375 
Q 21.96875 47.46875 24.109375 47.828125 
Q 26.265625 48.1875 28.421875 48.1875 
Q 40.625 48.1875 47.75 41.5 
Q 54.890625 34.8125 54.890625 23.390625 
Q 54.890625 11.625 47.5625 5.09375 
Q 40.234375 -1.421875 26.90625 -1.421875 
Q 22.3125 -1.421875 17.546875 -0.640625 
Q 12.796875 0.140625 7.71875 1.703125 
L 7.71875 11.625 
Q 12.109375 9.234375 16.796875 8.0625 
Q 21.484375 6.890625 26.703125 6.890625 
Q 35.15625 6.890625 40.078125 11.328125 
Q 45.015625 15.765625 45.015625 23.390625 
Q 45.015625 31 40.078125 35.4375 
Q 35.15625 39.890625 26.703125 39.890625 
Q 22.75 39.890625 18.8125 39.015625 
Q 14.890625 38.140625 10.796875 36.28125 
z
" id="DejaVuSans-53"/>
      <path d="M 73.1875 49.21875 
L 22.796875 31.296875 
L 73.1875 13.484375 
L 73.1875 4.59375 
L 10.59375 27.296875 
L 10.59375 35.40625 
L 73.1875 58.109375 
z
" id="DejaVuSans-60"/>
      <path d="M 42.28125 54.6875 
L 40.921875 47.703125 
L 23 47.703125 
L 17.1875 18.015625 
Q 16.890625 16.359375 16.75 15.234375 
Q 16.609375 14.109375 16.609375 13.484375 
Q 16.609375 10.359375 18.484375 8.9375 
Q 20.359375 7.515625 24.515625 7.515625 
L 33.59375 7.515625 
L 32.078125 0 
L 23.484375 0 
Q 15.484375 0 11.546875 3.125 
Q 7.625 6.25 7.625 12.59375 
Q 7.625 13.71875 7.765625 15.0625 
Q 7.90625 16.40625 8.203125 18.015625 
L 14.015625 47.703125 
L 6.390625 47.703125 
L 7.8125 54.6875 
L 15.28125 54.6875 
L 18.3125 70.21875 
L 27.296875 70.21875 
L 24.3125 54.6875 
z
" id="DejaVuSans-Oblique-116"/>
     </defs>
     <g style="fill:#262626;" transform="translate(226.370313 77.97)scale(0.1 -0.1)">
      <use transform="translate(0 0.78125)" xlink:href="#DejaVuSans-8722"/>
      <use transform="translate(83.789062 0.78125)" xlink:href="#DejaVuSans-48"/>
      <use transform="translate(147.412109 0.78125)" xlink:href="#DejaVuSans-46"/>
      <use transform="translate(179.199219 0.78125)" xlink:href="#DejaVuSans-53"/>
      <use transform="translate(262.304688 0.78125)" xlink:href="#DejaVuSans-60"/>
      <use transform="translate(365.576172 0.78125)" xlink:href="#DejaVuSans-Oblique-116"/>
      <use transform="translate(424.267578 0.78125)" xlink:href="#DejaVuSans-60"/>
      <use transform="translate(527.539062 0.78125)" xlink:href="#DejaVuSans-48"/>
     </g>
    </g>
    <g id="PathCollection_5">
     <g>
      <use style="fill:#55a868;stroke:#55a868;stroke-width:0.3;" x="208.370313" xlink:href="#m86b11026e6" y="89.490312"/>
     </g>
    </g>
    <g id="text_18">
     <!-- $0. &lt; t &lt; 0.5$ -->
     <g style="fill:#262626;" transform="translate(226.370313 92.115312)scale(0.1 -0.1)">
      <use transform="translate(0 0.78125)" xlink:href="#DejaVuSans-48"/>
      <use transform="translate(63.623047 0.78125)" xlink:href="#DejaVuSans-46"/>
      <use transform="translate(134.375 0.78125)" xlink:href="#DejaVuSans-60"/>
      <use transform="translate(237.646484 0.78125)" xlink:href="#DejaVuSans-Oblique-116"/>
      <use transform="translate(296.337891 0.78125)" xlink:href="#DejaVuSans-60"/>
      <use transform="translate(399.609375 0.78125)" xlink:href="#DejaVuSans-48"/>
      <use transform="translate(463.232422 0.78125)" xlink:href="#DejaVuSans-46"/>
      <use transform="translate(495.019531 0.78125)" xlink:href="#DejaVuSans-53"/>
     </g>
    </g>
    <g id="PathCollection_6">
     <g>
      <use style="fill:#c44e52;stroke:#c44e52;stroke-width:0.3;" x="208.370313" xlink:href="#m47610bafa9" y="103.635625"/>
     </g>
    </g>
    <g id="text_19">
     <!-- $0.5 &lt; t &lt; 1.$ -->
     <defs>
      <path d="M 12.40625 8.296875 
L 28.515625 8.296875 
L 28.515625 63.921875 
L 10.984375 60.40625 
L 10.984375 69.390625 
L 28.421875 72.90625 
L 38.28125 72.90625 
L 38.28125 8.296875 
L 54.390625 8.296875 
L 54.390625 0 
L 12.40625 0 
z
" id="DejaVuSans-49"/>
     </defs>
     <g style="fill:#262626;" transform="translate(226.370313 106.260625)scale(0.1 -0.1)">
      <use transform="translate(0 0.78125)" xlink:href="#DejaVuSans-48"/>
      <use transform="translate(63.623047 0.78125)" xlink:href="#DejaVuSans-46"/>
      <use transform="translate(95.410156 0.78125)" xlink:href="#DejaVuSans-53"/>
      <use transform="translate(178.515625 0.78125)" xlink:href="#DejaVuSans-60"/>
      <use transform="translate(281.787109 0.78125)" xlink:href="#DejaVuSans-Oblique-116"/>
      <use transform="translate(340.478516 0.78125)" xlink:href="#DejaVuSans-60"/>
      <use transform="translate(443.75 0.78125)" xlink:href="#DejaVuSans-49"/>
     </g>
    </g>
   </g>
  </g>
 </g>
 <defs>
  <clipPath id="p4fed80ccc2">
   <path d="M 447.66 199.98 
C 447.66 179.959136 443.716326 160.13295 436.054674 141.636084 
C 428.393021 123.139218 417.162388 106.331389 403.0055 92.1745 
C 388.848611 78.017612 372.040782 66.786979 353.543916 59.125326 
C 335.04705 51.463674 315.220864 47.52 295.2 47.52 
C 275.179136 47.52 255.35295 51.463674 236.856084 59.125326 
C 218.359218 66.786979 201.551389 78.017612 187.3945 92.1745 
C 173.237612 106.331389 162.006979 123.139218 154.345326 141.636084 
C 146.683674 160.13295 142.74 179.959136 142.74 199.98 
C 142.74 220.000864 146.683674 239.82705 154.345326 258.323916 
C 162.006979 276.820782 173.237612 293.628611 187.3945 307.7855 
C 201.551389 321.942388 218.359218 333.173021 236.856084 340.834674 
C 255.35295 348.496326 275.179136 352.44 295.2 352.44 
C 315.220864 352.44 335.04705 348.496326 353.543916 340.834674 
C 372.040782 333.173021 388.848611 321.942388 403.0055 307.7855 
C 417.162388 293.628611 428.393021 276.820782 436.054674 258.323916 
C 443.716326 239.82705 447.66 220.000864 447.66 199.98 
M 295.2 199.98 
C 295.2 199.98 295.2 199.98 295.2 199.98 
C 295.2 199.98 295.2 199.98 295.2 199.98 
C 295.2 199.98 295.2 199.98 295.2 199.98 
C 295.2 199.98 295.2 199.98 295.2 199.98 
C 295.2 199.98 295.2 199.98 295.2 199.98 
C 295.2 199.98 295.2 199.98 295.2 199.98 
C 295.2 199.98 295.2 199.98 295.2 199.98 
C 295.2 199.98 295.2 199.98 295.2 199.98 
C 295.2 199.98 295.2 199.98 295.2 199.98 
C 295.2 199.98 295.2 199.98 295.2 199.98 
C 295.2 199.98 295.2 199.98 295.2 199.98 
C 295.2 199.98 295.2 199.98 295.2 199.98 
C 295.2 199.98 295.2 199.98 295.2 199.98 
C 295.2 199.98 295.2 199.98 295.2 199.98 
C 295.2 199.98 295.2 199.98 295.2 199.98 
C 295.2 199.98 295.2 199.98 295.2 199.98 
M 447.66 199.98 
z
"/>
  </clipPath>
 </defs>
</svg>
