<?xml version="1.0" encoding="utf-8" standalone="no"?>
<!DOCTYPE svg PUBLIC "-//W3C//DTD SVG 1.1//EN"
  "http://www.w3.org/Graphics/SVG/1.1/DTD/svg11.dtd">
<!-- Created with matplotlib (https://matplotlib.org/) -->
<svg height="396pt" version="1.1" viewBox="0 0 576 396" width="576pt" xmlns="http://www.w3.org/2000/svg" xmlns:xlink="http://www.w3.org/1999/xlink">
 <defs>
  <style type="text/css">
*{stroke-linecap:butt;stroke-linejoin:round;}
  </style>
 </defs>
 <g id="figure_1">
  <g id="patch_1">
   <path d="M 0 396 
L 576 396 
L 576 0 
L 0 0 
z
" style="fill:#ffffff;"/>
  </g>
  <g id="axes_1">
   <g id="patch_2">
    <path d="M 447.66 199.98 
C 447.66 179.959136 443.716326 160.13295 436.054674 141.636084 
C 428.393021 123.139218 417.162388 106.331389 403.0055 92.1745 
C 388.848611 78.017612 372.040782 66.786979 353.543916 59.125326 
C 335.04705 51.463674 315.220864 47.52 295.2 47.52 
C 275.179136 47.52 255.35295 51.463674 236.856084 59.125326 
C 218.359218 66.786979 201.551389 78.017612 187.3945 92.1745 
C 173.237612 106.331389 162.006979 123.139218 154.345326 141.636084 
C 146.683674 160.13295 142.74 179.959136 142.74 199.98 
C 142.74 220.000864 146.683674 239.82705 154.345326 258.323916 
C 162.006979 276.820782 173.237612 293.628611 187.3945 307.7855 
C 201.551389 321.942388 218.359218 333.173021 236.856084 340.834674 
C 255.35295 348.496326 275.179136 352.44 295.2 352.44 
C 315.220864 352.44 335.04705 348.496326 353.543916 340.834674 
C 372.040782 333.173021 388.848611 321.942388 403.0055 307.7855 
C 417.162388 293.628611 428.393021 276.820782 436.054674 258.323916 
C 443.716326 239.82705 447.66 220.000864 447.66 199.98 
M 295.2 199.98 
C 295.2 199.98 295.2 199.98 295.2 199.98 
C 295.2 199.98 295.2 199.98 295.2 199.98 
C 295.2 199.98 295.2 199.98 295.2 199.98 
C 295.2 199.98 295.2 199.98 295.2 199.98 
C 295.2 199.98 295.2 199.98 295.2 199.98 
C 295.2 199.98 295.2 199.98 295.2 199.98 
C 295.2 199.98 295.2 199.98 295.2 199.98 
C 295.2 199.98 295.2 199.98 295.2 199.98 
C 295.2 199.98 295.2 199.98 295.2 199.98 
C 295.2 199.98 295.2 199.98 295.2 199.98 
C 295.2 199.98 295.2 199.98 295.2 199.98 
C 295.2 199.98 295.2 199.98 295.2 199.98 
C 295.2 199.98 295.2 199.98 295.2 199.98 
C 295.2 199.98 295.2 199.98 295.2 199.98 
C 295.2 199.98 295.2 199.98 295.2 199.98 
C 295.2 199.98 295.2 199.98 295.2 199.98 
M 447.66 199.98 
z
" style="fill:#eaeaf2;"/>
   </g>
   <g id="matplotlib.axis_1">
    <g id="xtick_1">
     <g id="line2d_1">
      <path clip-path="url(#p65cf7d4961)" d="M 295.2 199.98 
L 447.66 199.98 
" style="fill:none;stroke:#ffffff;stroke-linecap:round;"/>
     </g>
     <g id="text_1">
      <!-- 0° -->
      <defs>
       <path d="M 4.15625 35.296875 
Q 4.15625 48 6.765625 55.734375 
Q 9.375 63.484375 14.515625 67.671875 
Q 19.671875 71.875 27.484375 71.875 
Q 33.25 71.875 37.59375 69.546875 
Q 41.9375 67.234375 44.765625 62.859375 
Q 47.609375 58.5 49.21875 52.21875 
Q 50.828125 45.953125 50.828125 35.296875 
Q 50.828125 22.703125 48.234375 14.96875 
Q 45.65625 7.234375 40.5 3 
Q 35.359375 -1.21875 27.484375 -1.21875 
Q 17.140625 -1.21875 11.234375 6.203125 
Q 4.15625 15.140625 4.15625 35.296875 
z
M 13.1875 35.296875 
Q 13.1875 17.671875 17.3125 11.828125 
Q 21.4375 6 27.484375 6 
Q 33.546875 6 37.671875 11.859375 
Q 41.796875 17.71875 41.796875 35.296875 
Q 41.796875 52.984375 37.671875 58.78125 
Q 33.546875 64.59375 27.390625 64.59375 
Q 21.34375 64.59375 17.71875 59.46875 
Q 13.1875 52.9375 13.1875 35.296875 
z
" id="ArialMT-48"/>
       <path d="M 6.25 59.28125 
Q 6.25 64.890625 10.21875 68.84375 
Q 14.203125 72.796875 19.78125 72.796875 
Q 25.4375 72.796875 29.390625 68.84375 
Q 33.34375 64.890625 33.34375 59.28125 
Q 33.34375 53.65625 29.359375 49.671875 
Q 25.390625 45.703125 19.78125 45.703125 
Q 14.203125 45.703125 10.21875 49.65625 
Q 6.25 53.609375 6.25 59.28125 
z
M 11.578125 59.28125 
Q 11.578125 55.859375 13.984375 53.4375 
Q 16.40625 51.03125 19.828125 51.03125 
Q 23.1875 51.03125 25.609375 53.4375 
Q 28.03125 55.859375 28.03125 59.28125 
Q 28.03125 62.703125 25.609375 65.109375 
Q 23.1875 67.53125 19.828125 67.53125 
Q 16.40625 67.53125 13.984375 65.109375 
Q 11.578125 62.703125 11.578125 59.28125 
z
" id="ArialMT-176"/>
      </defs>
      <g style="fill:#262626;" transform="translate(456.880313 202.565156)scale(0.1 -0.1)">
       <use xlink:href="#ArialMT-48"/>
       <use x="55.615234" xlink:href="#ArialMT-176"/>
      </g>
     </g>
    </g>
    <g id="xtick_2">
     <g id="line2d_2">
      <path clip-path="url(#p65cf7d4961)" d="M 295.2 199.98 
L 403.0055 92.1745 
" style="fill:none;stroke:#ffffff;stroke-linecap:round;"/>
     </g>
     <g id="text_2">
      <!-- 45° -->
      <defs>
       <path d="M 32.328125 0 
L 32.328125 17.140625 
L 1.265625 17.140625 
L 1.265625 25.203125 
L 33.9375 71.578125 
L 41.109375 71.578125 
L 41.109375 25.203125 
L 50.78125 25.203125 
L 50.78125 17.140625 
L 41.109375 17.140625 
L 41.109375 0 
z
M 32.328125 25.203125 
L 32.328125 57.46875 
L 9.90625 25.203125 
z
" id="ArialMT-52"/>
       <path d="M 4.15625 18.75 
L 13.375 19.53125 
Q 14.40625 12.796875 18.140625 9.390625 
Q 21.875 6 27.15625 6 
Q 33.5 6 37.890625 10.78125 
Q 42.28125 15.578125 42.28125 23.484375 
Q 42.28125 31 38.0625 35.34375 
Q 33.84375 39.703125 27 39.703125 
Q 22.75 39.703125 19.328125 37.765625 
Q 15.921875 35.84375 13.96875 32.765625 
L 5.71875 33.84375 
L 12.640625 70.609375 
L 48.25 70.609375 
L 48.25 62.203125 
L 19.671875 62.203125 
L 15.828125 42.96875 
Q 22.265625 47.46875 29.34375 47.46875 
Q 38.71875 47.46875 45.15625 40.96875 
Q 51.609375 34.46875 51.609375 24.265625 
Q 51.609375 14.546875 45.953125 7.46875 
Q 39.0625 -1.21875 27.15625 -1.21875 
Q 17.390625 -1.21875 11.203125 4.25 
Q 5.03125 9.71875 4.15625 18.75 
z
" id="ArialMT-53"/>
      </defs>
      <g style="fill:#262626;" transform="translate(405.344839 84.860161)scale(0.1 -0.1)">
       <use xlink:href="#ArialMT-52"/>
       <use x="55.615234" xlink:href="#ArialMT-53"/>
       <use x="111.230469" xlink:href="#ArialMT-176"/>
      </g>
     </g>
    </g>
    <g id="xtick_3">
     <g id="line2d_3">
      <path clip-path="url(#p65cf7d4961)" d="M 295.2 199.98 
L 295.2 47.52 
" style="fill:none;stroke:#ffffff;stroke-linecap:round;"/>
     </g>
     <g id="text_3">
      <!-- 90° -->
      <defs>
       <path d="M 5.46875 16.546875 
L 13.921875 17.328125 
Q 14.984375 11.375 18.015625 8.6875 
Q 21.046875 6 25.78125 6 
Q 29.828125 6 32.875 7.859375 
Q 35.9375 9.71875 37.890625 12.8125 
Q 39.84375 15.921875 41.15625 21.1875 
Q 42.484375 26.46875 42.484375 31.9375 
Q 42.484375 32.515625 42.4375 33.6875 
Q 39.796875 29.5 35.234375 26.875 
Q 30.671875 24.265625 25.34375 24.265625 
Q 16.453125 24.265625 10.296875 30.703125 
Q 4.15625 37.15625 4.15625 47.703125 
Q 4.15625 58.59375 10.578125 65.234375 
Q 17 71.875 26.65625 71.875 
Q 33.640625 71.875 39.421875 68.109375 
Q 45.21875 64.359375 48.21875 57.390625 
Q 51.21875 50.4375 51.21875 37.25 
Q 51.21875 23.53125 48.234375 15.40625 
Q 45.265625 7.28125 39.375 3.03125 
Q 33.5 -1.21875 25.59375 -1.21875 
Q 17.1875 -1.21875 11.859375 3.4375 
Q 6.546875 8.109375 5.46875 16.546875 
z
M 41.453125 48.140625 
Q 41.453125 55.71875 37.421875 60.15625 
Q 33.40625 64.59375 27.734375 64.59375 
Q 21.875 64.59375 17.53125 59.8125 
Q 13.1875 55.03125 13.1875 47.40625 
Q 13.1875 40.578125 17.3125 36.296875 
Q 21.4375 32.03125 27.484375 32.03125 
Q 33.59375 32.03125 37.515625 36.296875 
Q 41.453125 40.578125 41.453125 48.140625 
z
" id="ArialMT-57"/>
      </defs>
      <g style="fill:#262626;" transform="translate(287.639844 36.105156)scale(0.1 -0.1)">
       <use xlink:href="#ArialMT-57"/>
       <use x="55.615234" xlink:href="#ArialMT-48"/>
       <use x="111.230469" xlink:href="#ArialMT-176"/>
      </g>
     </g>
    </g>
    <g id="xtick_4">
     <g id="line2d_4">
      <path clip-path="url(#p65cf7d4961)" d="M 295.2 199.98 
L 187.3945 92.1745 
" style="fill:none;stroke:#ffffff;stroke-linecap:round;"/>
     </g>
     <g id="text_4">
      <!-- 135° -->
      <defs>
       <path d="M 37.25 0 
L 28.46875 0 
L 28.46875 56 
Q 25.296875 52.984375 20.140625 49.953125 
Q 14.984375 46.921875 10.890625 45.40625 
L 10.890625 53.90625 
Q 18.265625 57.375 23.78125 62.296875 
Q 29.296875 67.234375 31.59375 71.875 
L 37.25 71.875 
z
" id="ArialMT-49"/>
       <path d="M 4.203125 18.890625 
L 12.984375 20.0625 
Q 14.5 12.59375 18.140625 9.296875 
Q 21.78125 6 27 6 
Q 33.203125 6 37.46875 10.296875 
Q 41.75 14.59375 41.75 20.953125 
Q 41.75 27 37.796875 30.921875 
Q 33.84375 34.859375 27.734375 34.859375 
Q 25.25 34.859375 21.53125 33.890625 
L 22.515625 41.609375 
Q 23.390625 41.5 23.921875 41.5 
Q 29.546875 41.5 34.03125 44.421875 
Q 38.53125 47.359375 38.53125 53.46875 
Q 38.53125 58.296875 35.25 61.46875 
Q 31.984375 64.65625 26.8125 64.65625 
Q 21.6875 64.65625 18.265625 61.421875 
Q 14.84375 58.203125 13.875 51.765625 
L 5.078125 53.328125 
Q 6.6875 62.15625 12.390625 67.015625 
Q 18.109375 71.875 26.609375 71.875 
Q 32.46875 71.875 37.390625 69.359375 
Q 42.328125 66.84375 44.9375 62.5 
Q 47.5625 58.15625 47.5625 53.265625 
Q 47.5625 48.640625 45.0625 44.828125 
Q 42.578125 41.015625 37.703125 38.765625 
Q 44.046875 37.3125 47.5625 32.6875 
Q 51.078125 28.078125 51.078125 21.140625 
Q 51.078125 11.765625 44.234375 5.25 
Q 37.40625 -1.265625 26.953125 -1.265625 
Q 17.53125 -1.265625 11.296875 4.34375 
Q 5.078125 9.96875 4.203125 18.890625 
z
" id="ArialMT-51"/>
      </defs>
      <g style="fill:#262626;" transform="translate(167.15438 84.860161)scale(0.1 -0.1)">
       <use xlink:href="#ArialMT-49"/>
       <use x="55.615234" xlink:href="#ArialMT-51"/>
       <use x="111.230469" xlink:href="#ArialMT-53"/>
       <use x="166.845703" xlink:href="#ArialMT-176"/>
      </g>
     </g>
    </g>
    <g id="xtick_5">
     <g id="line2d_5">
      <path clip-path="url(#p65cf7d4961)" d="M 295.2 199.98 
L 142.74 199.98 
" style="fill:none;stroke:#ffffff;stroke-linecap:round;"/>
     </g>
     <g id="text_5">
      <!-- 180° -->
      <defs>
       <path d="M 17.671875 38.8125 
Q 12.203125 40.828125 9.5625 44.53125 
Q 6.9375 48.25 6.9375 53.421875 
Q 6.9375 61.234375 12.546875 66.546875 
Q 18.171875 71.875 27.484375 71.875 
Q 36.859375 71.875 42.578125 66.421875 
Q 48.296875 60.984375 48.296875 53.171875 
Q 48.296875 48.1875 45.671875 44.5 
Q 43.0625 40.828125 37.75 38.8125 
Q 44.34375 36.671875 47.78125 31.875 
Q 51.21875 27.09375 51.21875 20.453125 
Q 51.21875 11.28125 44.71875 5.03125 
Q 38.234375 -1.21875 27.640625 -1.21875 
Q 17.046875 -1.21875 10.546875 5.046875 
Q 4.046875 11.328125 4.046875 20.703125 
Q 4.046875 27.6875 7.59375 32.390625 
Q 11.140625 37.109375 17.671875 38.8125 
z
M 15.921875 53.71875 
Q 15.921875 48.640625 19.1875 45.40625 
Q 22.46875 42.1875 27.6875 42.1875 
Q 32.765625 42.1875 36.015625 45.375 
Q 39.265625 48.578125 39.265625 53.21875 
Q 39.265625 58.0625 35.90625 61.359375 
Q 32.5625 64.65625 27.59375 64.65625 
Q 22.5625 64.65625 19.234375 61.421875 
Q 15.921875 58.203125 15.921875 53.71875 
z
M 13.09375 20.65625 
Q 13.09375 16.890625 14.875 13.375 
Q 16.65625 9.859375 20.171875 7.921875 
Q 23.6875 6 27.734375 6 
Q 34.03125 6 38.125 10.046875 
Q 42.234375 14.109375 42.234375 20.359375 
Q 42.234375 26.703125 38.015625 30.859375 
Q 33.796875 35.015625 27.4375 35.015625 
Q 21.234375 35.015625 17.15625 30.90625 
Q 13.09375 26.8125 13.09375 20.65625 
z
" id="ArialMT-56"/>
      </defs>
      <g style="fill:#262626;" transform="translate(118.399375 202.565156)scale(0.1 -0.1)">
       <use xlink:href="#ArialMT-49"/>
       <use x="55.615234" xlink:href="#ArialMT-56"/>
       <use x="111.230469" xlink:href="#ArialMT-48"/>
       <use x="166.845703" xlink:href="#ArialMT-176"/>
      </g>
     </g>
    </g>
    <g id="xtick_6">
     <g id="line2d_6">
      <path clip-path="url(#p65cf7d4961)" d="M 295.2 199.98 
L 187.3945 307.7855 
" style="fill:none;stroke:#ffffff;stroke-linecap:round;"/>
     </g>
     <g id="text_6">
      <!-- 225° -->
      <defs>
       <path d="M 50.34375 8.453125 
L 50.34375 0 
L 3.03125 0 
Q 2.9375 3.171875 4.046875 6.109375 
Q 5.859375 10.9375 9.828125 15.625 
Q 13.8125 20.3125 21.34375 26.46875 
Q 33.015625 36.03125 37.109375 41.625 
Q 41.21875 47.21875 41.21875 52.203125 
Q 41.21875 57.421875 37.46875 61 
Q 33.734375 64.59375 27.734375 64.59375 
Q 21.390625 64.59375 17.578125 60.78125 
Q 13.765625 56.984375 13.71875 50.25 
L 4.6875 51.171875 
Q 5.609375 61.28125 11.65625 66.578125 
Q 17.71875 71.875 27.9375 71.875 
Q 38.234375 71.875 44.234375 66.15625 
Q 50.25 60.453125 50.25 52 
Q 50.25 47.703125 48.484375 43.546875 
Q 46.734375 39.40625 42.65625 34.8125 
Q 38.578125 30.21875 29.109375 22.21875 
Q 21.1875 15.578125 18.9375 13.203125 
Q 16.703125 10.84375 15.234375 8.453125 
z
" id="ArialMT-50"/>
      </defs>
      <g style="fill:#262626;" transform="translate(167.15438 320.270151)scale(0.1 -0.1)">
       <use xlink:href="#ArialMT-50"/>
       <use x="55.615234" xlink:href="#ArialMT-50"/>
       <use x="111.230469" xlink:href="#ArialMT-53"/>
       <use x="166.845703" xlink:href="#ArialMT-176"/>
      </g>
     </g>
    </g>
    <g id="xtick_7">
     <g id="line2d_7">
      <path clip-path="url(#p65cf7d4961)" d="M 295.2 199.98 
L 295.2 352.44 
" style="fill:none;stroke:#ffffff;stroke-linecap:round;"/>
     </g>
     <g id="text_7">
      <!-- 270° -->
      <defs>
       <path d="M 4.734375 62.203125 
L 4.734375 70.65625 
L 51.078125 70.65625 
L 51.078125 63.8125 
Q 44.234375 56.546875 37.515625 44.484375 
Q 30.8125 32.421875 27.15625 19.671875 
Q 24.515625 10.6875 23.78125 0 
L 14.75 0 
Q 14.890625 8.453125 18.0625 20.40625 
Q 21.234375 32.375 27.171875 43.484375 
Q 33.109375 54.59375 39.796875 62.203125 
z
" id="ArialMT-55"/>
      </defs>
      <g style="fill:#262626;" transform="translate(284.859375 369.025156)scale(0.1 -0.1)">
       <use xlink:href="#ArialMT-50"/>
       <use x="55.615234" xlink:href="#ArialMT-55"/>
       <use x="111.230469" xlink:href="#ArialMT-48"/>
       <use x="166.845703" xlink:href="#ArialMT-176"/>
      </g>
     </g>
    </g>
    <g id="xtick_8">
     <g id="line2d_8">
      <path clip-path="url(#p65cf7d4961)" d="M 295.2 199.98 
L 403.0055 307.7855 
" style="fill:none;stroke:#ffffff;stroke-linecap:round;"/>
     </g>
     <g id="text_8">
      <!-- 315° -->
      <g style="fill:#262626;" transform="translate(402.56437 320.270151)scale(0.1 -0.1)">
       <use xlink:href="#ArialMT-51"/>
       <use x="55.615234" xlink:href="#ArialMT-49"/>
       <use x="111.230469" xlink:href="#ArialMT-53"/>
       <use x="166.845703" xlink:href="#ArialMT-176"/>
      </g>
     </g>
    </g>
   </g>
   <g id="matplotlib.axis_2">
    <g id="ytick_1">
     <g id="line2d_9">
      <path clip-path="url(#p65cf7d4961)" d="M 315.906663 199.98 
L 315.793229 197.815564 
L 315.454172 195.674843 
L 314.893207 193.581289 
L 314.116478 191.557842 
L 313.132496 189.626669 
L 311.952042 187.808929 
L 310.588049 186.124538 
L 309.055462 184.591951 
L 307.371071 183.227958 
L 305.553331 182.047504 
L 303.622158 181.063522 
L 301.598711 180.286793 
L 299.505157 179.725828 
L 297.364436 179.386771 
L 295.2 179.273337 
L 293.035564 179.386771 
L 290.894843 179.725828 
L 288.801289 180.286793 
L 286.777842 181.063522 
L 284.846669 182.047504 
L 283.028929 183.227958 
L 281.344538 184.591951 
L 279.811951 186.124538 
L 278.447958 187.808929 
L 277.267504 189.626669 
L 276.283522 191.557842 
L 275.506793 193.581289 
L 274.945828 195.674843 
L 274.606771 197.815564 
L 274.493337 199.98 
L 274.606771 202.144436 
L 274.945828 204.285157 
L 275.506793 206.378711 
L 276.283522 208.402158 
L 277.267504 210.333331 
L 278.447958 212.151071 
L 279.811951 213.835462 
L 281.344538 215.368049 
L 283.028929 216.732042 
L 284.846669 217.912496 
L 286.777842 218.896478 
L 288.801289 219.673207 
L 290.894843 220.234172 
L 293.035564 220.573229 
L 295.2 220.686663 
L 297.364436 220.573229 
L 299.505157 220.234172 
L 301.598711 219.673207 
L 303.622158 218.896478 
L 305.553331 217.912496 
L 307.371071 216.732042 
L 309.055462 215.368049 
L 310.588049 213.835462 
L 311.952042 212.151071 
L 313.132496 210.333331 
L 314.116478 208.402158 
L 314.893207 206.378711 
L 315.454172 204.285157 
L 315.793229 202.144436 
L 315.906663 199.98 
L 315.906663 199.98 
" style="fill:none;stroke:#ffffff;stroke-linecap:round;"/>
     </g>
     <g id="text_9">
      <!-- 0.1 -->
      <defs>
       <path d="M 9.078125 0 
L 9.078125 10.015625 
L 19.09375 10.015625 
L 19.09375 0 
z
" id="ArialMT-46"/>
      </defs>
      <g style="fill:#262626;" transform="translate(314.330462 190.068403)scale(0.1 -0.1)">
       <use xlink:href="#ArialMT-48"/>
       <use x="55.615234" xlink:href="#ArialMT-46"/>
       <use x="83.398438" xlink:href="#ArialMT-49"/>
      </g>
     </g>
    </g>
    <g id="ytick_2">
     <g id="line2d_10">
      <path clip-path="url(#p65cf7d4961)" d="M 336.613325 199.98 
L 336.512445 197.091152 
L 336.210294 194.216379 
L 335.708345 191.369685 
L 335.009043 188.56494 
L 334.115796 185.815809 
L 333.032955 183.135683 
L 331.765796 180.537621 
L 330.320492 178.034281 
L 328.704084 175.637858 
L 326.924448 173.360028 
L 324.990253 171.211887 
L 322.910924 169.203902 
L 320.696589 167.345854 
L 318.358038 165.646797 
L 315.906663 164.115008 
L 313.354407 162.75795 
L 310.713705 161.582233 
L 307.997421 160.593587 
L 305.21879 159.796827 
L 302.391348 159.195836 
L 299.528871 158.793541 
L 296.645304 158.591902 
L 293.754696 158.591902 
L 290.871129 158.793541 
L 288.008652 159.195836 
L 285.18121 159.796827 
L 282.402579 160.593587 
L 279.686295 161.582233 
L 277.045593 162.75795 
L 274.493337 164.115008 
L 272.041962 165.646797 
L 269.703411 167.345854 
L 267.489076 169.203902 
L 265.409747 171.211887 
L 263.475552 173.360028 
L 261.695916 175.637858 
L 260.079508 178.034281 
L 258.634204 180.537621 
L 257.367045 183.135683 
L 256.284204 185.815809 
L 255.390957 188.56494 
L 254.691655 191.369685 
L 254.189706 194.216379 
L 253.887555 197.091152 
L 253.786675 199.98 
L 253.887555 202.868848 
L 254.189706 205.743621 
L 254.691655 208.590315 
L 255.390957 211.39506 
L 256.284204 214.144191 
L 257.367045 216.824317 
L 258.634204 219.422379 
L 260.079508 221.925719 
L 261.695916 224.322142 
L 263.475552 226.599972 
L 265.409747 228.748113 
L 267.489076 230.756098 
L 269.703411 232.614146 
L 272.041962 234.313203 
L 274.493337 235.844992 
L 277.045593 237.20205 
L 279.686295 238.377767 
L 282.402579 239.366413 
L 285.18121 240.163173 
L 288.008652 240.764164 
L 290.871129 241.166459 
L 293.754696 241.368098 
L 296.645304 241.368098 
L 299.528871 241.166459 
L 302.391348 240.764164 
L 305.21879 240.163173 
L 307.997421 239.366413 
L 310.713705 238.377767 
L 313.354407 237.20205 
L 315.906663 235.844992 
L 318.358038 234.313203 
L 320.696589 232.614146 
L 322.910924 230.756098 
L 324.990253 228.748113 
L 326.924448 226.599972 
L 328.704084 224.322142 
L 330.320492 221.925719 
L 331.765796 219.422379 
L 333.032955 216.824317 
L 334.115796 214.144191 
L 335.009043 211.39506 
L 335.708345 208.590315 
L 336.210294 205.743621 
L 336.512445 202.868848 
L 336.613325 199.98 
L 336.613325 199.98 
" style="fill:none;stroke:#ffffff;stroke-linecap:round;"/>
     </g>
     <g id="text_10">
      <!-- 0.2 -->
      <g style="fill:#262626;" transform="translate(333.460924 182.144306)scale(0.1 -0.1)">
       <use xlink:href="#ArialMT-48"/>
       <use x="55.615234" xlink:href="#ArialMT-46"/>
       <use x="83.398438" xlink:href="#ArialMT-50"/>
      </g>
     </g>
    </g>
    <g id="ytick_3">
     <g id="line2d_11">
      <path clip-path="url(#p65cf7d4961)" d="M 357.319988 199.98 
L 357.168667 195.646729 
L 356.715441 191.334569 
L 355.962517 187.064528 
L 354.913565 182.857411 
L 353.573694 178.733713 
L 351.949433 174.713525 
L 350.048694 170.816432 
L 347.880738 167.061422 
L 345.456126 163.466787 
L 342.786672 160.050041 
L 339.88538 156.82783 
L 336.766385 153.815852 
L 333.444884 151.028781 
L 329.937057 148.480196 
L 326.259994 146.182512 
L 322.43161 144.146925 
L 318.470557 142.38335 
L 314.396132 140.90038 
L 310.228185 139.705241 
L 305.987023 138.803754 
L 301.693307 138.200312 
L 297.367956 137.897854 
L 293.032044 137.897854 
L 288.706693 138.200312 
L 284.412977 138.803754 
L 280.171815 139.705241 
L 276.003868 140.90038 
L 271.929443 142.38335 
L 267.96839 144.146925 
L 264.140006 146.182512 
L 260.462943 148.480196 
L 256.955116 151.028781 
L 253.633615 153.815852 
L 250.51462 156.82783 
L 247.613328 160.050041 
L 244.943874 163.466787 
L 242.519262 167.061422 
L 240.351306 170.816432 
L 238.450567 174.713525 
L 236.826306 178.733713 
L 235.486435 182.857411 
L 234.437483 187.064528 
L 233.684559 191.334569 
L 233.231333 195.646729 
L 233.080012 199.98 
L 233.231333 204.313271 
L 233.684559 208.625431 
L 234.437483 212.895472 
L 235.486435 217.102589 
L 236.826306 221.226287 
L 238.450567 225.246475 
L 240.351306 229.143568 
L 242.519262 232.898578 
L 244.943874 236.493213 
L 247.613328 239.909959 
L 250.51462 243.13217 
L 253.633615 246.144148 
L 256.955116 248.931219 
L 260.462943 251.479804 
L 264.140006 253.777488 
L 267.96839 255.813075 
L 271.929443 257.57665 
L 276.003868 259.05962 
L 280.171815 260.254759 
L 284.412977 261.156246 
L 288.706693 261.759688 
L 293.032044 262.062146 
L 297.367956 262.062146 
L 301.693307 261.759688 
L 305.987023 261.156246 
L 310.228185 260.254759 
L 314.396132 259.05962 
L 318.470557 257.57665 
L 322.43161 255.813075 
L 326.259994 253.777488 
L 329.937057 251.479804 
L 333.444884 248.931219 
L 336.766385 246.144148 
L 339.88538 243.13217 
L 342.786672 239.909959 
L 345.456126 236.493213 
L 347.880738 232.898578 
L 350.048694 229.143568 
L 351.949433 225.246475 
L 353.573694 221.226287 
L 354.913565 217.102589 
L 355.962517 212.895472 
L 356.715441 208.625431 
L 357.168667 204.313271 
L 357.319988 199.98 
L 357.319988 199.98 
" style="fill:none;stroke:#ffffff;stroke-linecap:round;"/>
     </g>
     <g id="text_11">
      <!-- 0.3 -->
      <g style="fill:#262626;" transform="translate(352.591386 174.22021)scale(0.1 -0.1)">
       <use xlink:href="#ArialMT-48"/>
       <use x="55.615234" xlink:href="#ArialMT-46"/>
       <use x="83.398438" xlink:href="#ArialMT-51"/>
      </g>
     </g>
    </g>
    <g id="ytick_4">
     <g id="line2d_12">
      <path clip-path="url(#p65cf7d4961)" d="M 378.026651 199.98 
L 377.824889 194.202305 
L 377.220588 188.452758 
L 376.21669 182.759371 
L 374.818087 177.149881 
L 373.031593 171.651617 
L 370.865911 166.291366 
L 368.331592 161.095243 
L 365.440984 156.088562 
L 362.208168 151.295716 
L 358.648896 146.740055 
L 354.780506 142.443774 
L 350.621847 138.427803 
L 346.193178 134.711708 
L 341.516075 131.313594 
L 336.613325 128.250016 
L 331.508814 125.535899 
L 326.22741 123.184467 
L 320.794843 121.207174 
L 315.23758 119.613655 
L 309.582697 118.411672 
L 303.857743 117.607082 
L 298.090608 117.203805 
L 292.309392 117.203805 
L 286.542257 117.607082 
L 280.817303 118.411672 
L 275.16242 119.613655 
L 269.605157 121.207174 
L 264.17259 123.184467 
L 258.891186 125.535899 
L 253.786675 128.250016 
L 248.883925 131.313594 
L 244.206822 134.711708 
L 239.778153 138.427803 
L 235.619494 142.443774 
L 231.751104 146.740055 
L 228.191832 151.295716 
L 224.959016 156.088562 
L 222.068408 161.095243 
L 219.534089 166.291366 
L 217.368407 171.651617 
L 215.581913 177.149881 
L 214.18331 182.759371 
L 213.179412 188.452758 
L 212.575111 194.202305 
L 212.373349 199.98 
L 212.575111 205.757695 
L 213.179412 211.507242 
L 214.18331 217.200629 
L 215.581913 222.810119 
L 217.368407 228.308383 
L 219.534089 233.668634 
L 222.068408 238.864757 
L 224.959016 243.871438 
L 228.191832 248.664284 
L 231.751104 253.219945 
L 235.619494 257.516226 
L 239.778153 261.532197 
L 244.206822 265.248292 
L 248.883925 268.646406 
L 253.786675 271.709984 
L 258.891186 274.424101 
L 264.17259 276.775533 
L 269.605157 278.752826 
L 275.16242 280.346345 
L 280.817303 281.548328 
L 286.542257 282.352918 
L 292.309392 282.756195 
L 298.090608 282.756195 
L 303.857743 282.352918 
L 309.582697 281.548328 
L 315.23758 280.346345 
L 320.794843 278.752826 
L 326.22741 276.775533 
L 331.508814 274.424101 
L 336.613325 271.709984 
L 341.516075 268.646406 
L 346.193178 265.248292 
L 350.621847 261.532197 
L 354.780506 257.516226 
L 358.648896 253.219945 
L 362.208168 248.664284 
L 365.440984 243.871438 
L 368.331592 238.864757 
L 370.865911 233.668634 
L 373.031593 228.308383 
L 374.818087 222.810119 
L 376.21669 217.200629 
L 377.220588 211.507242 
L 377.824889 205.757695 
L 378.026651 199.98 
L 378.026651 199.98 
" style="fill:none;stroke:#ffffff;stroke-linecap:round;"/>
     </g>
     <g id="text_12">
      <!-- 0.4 -->
      <g style="fill:#262626;" transform="translate(371.721847 166.296113)scale(0.1 -0.1)">
       <use xlink:href="#ArialMT-48"/>
       <use x="55.615234" xlink:href="#ArialMT-46"/>
       <use x="83.398438" xlink:href="#ArialMT-52"/>
      </g>
     </g>
    </g>
    <g id="ytick_5">
     <g id="line2d_13">
      <path clip-path="url(#p65cf7d4961)" d="M 398.733314 199.98 
L 398.670244 196.366739 
L 398.481112 192.757881 
L 398.166147 189.157822 
L 397.725734 185.570948 
L 397.16041 182.001629 
L 396.470862 178.454214 
L 395.657932 174.933025 
L 394.722609 171.442351 
L 393.666033 167.986447 
L 392.489491 164.569521 
L 391.194417 161.195738 
L 389.782388 157.869208 
L 388.255126 154.593983 
L 386.61449 151.374053 
L 384.86248 148.213343 
L 383.001229 145.115703 
L 381.033007 142.084906 
L 378.96021 139.124645 
L 376.785364 136.238527 
L 374.51112 133.430069 
L 372.140246 130.702691 
L 369.675633 128.059717 
L 367.120283 125.504367 
L 364.477309 123.039754 
L 361.749931 120.66888 
L 358.941473 118.394636 
L 356.055355 116.21979 
L 353.095094 114.146993 
L 350.064297 112.178771 
L 346.966657 110.31752 
L 343.805947 108.56551 
L 340.586017 106.924874 
L 337.310792 105.397612 
L 333.984262 103.985583 
L 330.610479 102.690509 
L 327.193553 101.513967 
L 323.737649 100.457391 
L 320.246975 99.522068 
L 316.725786 98.709138 
L 313.178371 98.01959 
L 309.609052 97.454266 
L 306.022178 97.013853 
L 302.422119 96.698888 
L 298.813261 96.509756 
L 295.2 96.446686 
L 291.586739 96.509756 
L 287.977881 96.698888 
L 284.377822 97.013853 
L 280.790948 97.454266 
L 277.221629 98.01959 
L 273.674214 98.709138 
L 270.153025 99.522068 
L 266.662351 100.457391 
L 263.206447 101.513967 
L 259.789521 102.690509 
L 256.415738 103.985583 
L 253.089208 105.397612 
L 249.813983 106.924874 
L 246.594053 108.56551 
L 243.433343 110.31752 
L 240.335703 112.178771 
L 237.304906 114.146993 
L 234.344645 116.21979 
L 231.458527 118.394636 
L 228.650069 120.66888 
L 225.922691 123.039754 
L 223.279717 125.504367 
L 220.724367 128.059717 
L 218.259754 130.702691 
L 215.88888 133.430069 
L 213.614636 136.238527 
L 211.43979 139.124645 
L 209.366993 142.084906 
L 207.398771 145.115703 
L 205.53752 148.213343 
L 203.78551 151.374053 
L 202.144874 154.593983 
L 200.617612 157.869208 
L 199.205583 161.195738 
L 197.910509 164.569521 
L 196.733967 167.986447 
L 195.677391 171.442351 
L 194.742068 174.933025 
L 193.929138 178.454214 
L 193.23959 182.001629 
L 192.674266 185.570948 
L 192.233853 189.157822 
L 191.918888 192.757881 
L 191.729756 196.366739 
L 191.666686 199.98 
L 191.729756 203.593261 
L 191.918888 207.202119 
L 192.233853 210.802178 
L 192.674266 214.389052 
L 193.23959 217.958371 
L 193.929138 221.505786 
L 194.742068 225.026975 
L 195.677391 228.517649 
L 196.733967 231.973553 
L 197.910509 235.390479 
L 199.205583 238.764262 
L 200.617612 242.090792 
L 202.144874 245.366017 
L 203.78551 248.585947 
L 205.53752 251.746657 
L 207.398771 254.844297 
L 209.366993 257.875094 
L 211.43979 260.835355 
L 213.614636 263.721473 
L 215.88888 266.529931 
L 218.259754 269.257309 
L 220.724367 271.900283 
L 223.279717 274.455633 
L 225.922691 276.920246 
L 228.650069 279.29112 
L 231.458527 281.565364 
L 234.344645 283.74021 
L 237.304906 285.813007 
L 240.335703 287.781229 
L 243.433343 289.64248 
L 246.594053 291.39449 
L 249.813983 293.035126 
L 253.089208 294.562388 
L 256.415738 295.974417 
L 259.789521 297.269491 
L 263.206447 298.446033 
L 266.662351 299.502609 
L 270.153025 300.437932 
L 273.674214 301.250862 
L 277.221629 301.94041 
L 280.790948 302.505734 
L 284.377822 302.946147 
L 287.977881 303.261112 
L 291.586739 303.450244 
L 295.2 303.513314 
L 298.813261 303.450244 
L 302.422119 303.261112 
L 306.022178 302.946147 
L 309.609052 302.505734 
L 313.178371 301.94041 
L 316.725786 301.250862 
L 320.246975 300.437932 
L 323.737649 299.502609 
L 327.193553 298.446033 
L 330.610479 297.269491 
L 333.984262 295.974417 
L 337.310792 294.562388 
L 340.586017 293.035126 
L 343.805947 291.39449 
L 346.966657 289.64248 
L 350.064297 287.781229 
L 353.095094 285.813007 
L 356.055355 283.74021 
L 358.941473 281.565364 
L 361.749931 279.29112 
L 364.477309 276.920246 
L 367.120283 274.455633 
L 369.675633 271.900283 
L 372.140246 269.257309 
L 374.51112 266.529931 
L 376.785364 263.721473 
L 378.96021 260.835355 
L 381.033007 257.875094 
L 383.001229 254.844297 
L 384.86248 251.746657 
L 386.61449 248.585947 
L 388.255126 245.366017 
L 389.782388 242.090792 
L 391.194417 238.764262 
L 392.489491 235.390479 
L 393.666033 231.973553 
L 394.722609 228.517649 
L 395.657932 225.026975 
L 396.470862 221.505786 
L 397.16041 217.958371 
L 397.725734 214.389052 
L 398.166147 210.802178 
L 398.481112 207.202119 
L 398.670244 203.593261 
L 398.733314 199.98 
L 398.733314 199.98 
" style="fill:none;stroke:#ffffff;stroke-linecap:round;"/>
     </g>
     <g id="text_13">
      <!-- 0.5 -->
      <g style="fill:#262626;" transform="translate(390.852309 158.372016)scale(0.1 -0.1)">
       <use xlink:href="#ArialMT-48"/>
       <use x="55.615234" xlink:href="#ArialMT-46"/>
       <use x="83.398438" xlink:href="#ArialMT-53"/>
      </g>
     </g>
    </g>
    <g id="ytick_6">
     <g id="line2d_14">
      <path clip-path="url(#p65cf7d4961)" d="M 419.439976 199.98 
L 419.364293 195.644087 
L 419.137334 191.313457 
L 418.759377 186.993386 
L 418.230881 182.689137 
L 417.552492 178.405955 
L 416.725035 174.149056 
L 415.749518 169.923629 
L 414.62713 165.734821 
L 413.359239 161.587736 
L 411.947389 157.487426 
L 410.3933 153.438886 
L 408.698866 149.447049 
L 406.866151 145.516779 
L 404.897388 141.652864 
L 402.794976 137.860012 
L 400.561475 134.142843 
L 398.199608 130.505887 
L 395.712252 126.953574 
L 393.102437 123.490233 
L 390.373343 120.120083 
L 387.528295 116.847229 
L 384.57076 113.675661 
L 381.504339 110.60924 
L 378.332771 107.651705 
L 375.059917 104.806657 
L 371.689767 102.077563 
L 368.226426 99.467748 
L 364.674113 96.980392 
L 361.037157 94.618525 
L 357.319988 92.385024 
L 353.527136 90.282612 
L 349.663221 88.313849 
L 345.732951 86.481134 
L 341.741114 84.7867 
L 337.692574 83.232611 
L 333.592264 81.820761 
L 329.445179 80.55287 
L 325.256371 79.430482 
L 321.030944 78.454965 
L 316.774045 77.627508 
L 312.490863 76.949119 
L 308.186614 76.420623 
L 303.866543 76.042666 
L 299.535913 75.815707 
L 295.2 75.740024 
L 290.864087 75.815707 
L 286.533457 76.042666 
L 282.213386 76.420623 
L 277.909137 76.949119 
L 273.625955 77.627508 
L 269.369056 78.454965 
L 265.143629 79.430482 
L 260.954821 80.55287 
L 256.807736 81.820761 
L 252.707426 83.232611 
L 248.658886 84.7867 
L 244.667049 86.481134 
L 240.736779 88.313849 
L 236.872864 90.282612 
L 233.080012 92.385024 
L 229.362843 94.618525 
L 225.725887 96.980392 
L 222.173574 99.467748 
L 218.710233 102.077563 
L 215.340083 104.806657 
L 212.067229 107.651705 
L 208.895661 110.60924 
L 205.82924 113.675661 
L 202.871705 116.847229 
L 200.026657 120.120083 
L 197.297563 123.490233 
L 194.687748 126.953574 
L 192.200392 130.505887 
L 189.838525 134.142843 
L 187.605024 137.860012 
L 185.502612 141.652864 
L 183.533849 145.516779 
L 181.701134 149.447049 
L 180.0067 153.438886 
L 178.452611 157.487426 
L 177.040761 161.587736 
L 175.77287 165.734821 
L 174.650482 169.923629 
L 173.674965 174.149056 
L 172.847508 178.405955 
L 172.169119 182.689137 
L 171.640623 186.993386 
L 171.262666 191.313457 
L 171.035707 195.644087 
L 170.960024 199.98 
L 171.035707 204.315913 
L 171.262666 208.646543 
L 171.640623 212.966614 
L 172.169119 217.270863 
L 172.847508 221.554045 
L 173.674965 225.810944 
L 174.650482 230.036371 
L 175.77287 234.225179 
L 177.040761 238.372264 
L 178.452611 242.472574 
L 180.0067 246.521114 
L 181.701134 250.512951 
L 183.533849 254.443221 
L 185.502612 258.307136 
L 187.605024 262.099988 
L 189.838525 265.817157 
L 192.200392 269.454113 
L 194.687748 273.006426 
L 197.297563 276.469767 
L 200.026657 279.839917 
L 202.871705 283.112771 
L 205.82924 286.284339 
L 208.895661 289.35076 
L 212.067229 292.308295 
L 215.340083 295.153343 
L 218.710233 297.882437 
L 222.173574 300.492252 
L 225.725887 302.979608 
L 229.362843 305.341475 
L 233.080012 307.574976 
L 236.872864 309.677388 
L 240.736779 311.646151 
L 244.667049 313.478866 
L 248.658886 315.1733 
L 252.707426 316.727389 
L 256.807736 318.139239 
L 260.954821 319.40713 
L 265.143629 320.529518 
L 269.369056 321.505035 
L 273.625955 322.332492 
L 277.909137 323.010881 
L 282.213386 323.539377 
L 286.533457 323.917334 
L 290.864087 324.144293 
L 295.2 324.219976 
L 299.535913 324.144293 
L 303.866543 323.917334 
L 308.186614 323.539377 
L 312.490863 323.010881 
L 316.774045 322.332492 
L 321.030944 321.505035 
L 325.256371 320.529518 
L 329.445179 319.40713 
L 333.592264 318.139239 
L 337.692574 316.727389 
L 341.741114 315.1733 
L 345.732951 313.478866 
L 349.663221 311.646151 
L 353.527136 309.677388 
L 357.319988 307.574976 
L 361.037157 305.341475 
L 364.674113 302.979608 
L 368.226426 300.492252 
L 371.689767 297.882437 
L 375.059917 295.153343 
L 378.332771 292.308295 
L 381.504339 289.35076 
L 384.57076 286.284339 
L 387.528295 283.112771 
L 390.373343 279.839917 
L 393.102437 276.469767 
L 395.712252 273.006426 
L 398.199608 269.454113 
L 400.561475 265.817157 
L 402.794976 262.099988 
L 404.897388 258.307136 
L 406.866151 254.443221 
L 408.698866 250.512951 
L 410.3933 246.521114 
L 411.947389 242.472574 
L 413.359239 238.372264 
L 414.62713 234.225179 
L 415.749518 230.036371 
L 416.725035 225.810944 
L 417.552492 221.554045 
L 418.230881 217.270863 
L 418.759377 212.966614 
L 419.137334 208.646543 
L 419.364293 204.315913 
L 419.439976 199.98 
L 419.439976 199.98 
" style="fill:none;stroke:#ffffff;stroke-linecap:round;"/>
     </g>
     <g id="text_14">
      <!-- 0.6 -->
      <defs>
       <path d="M 49.75 54.046875 
L 41.015625 53.375 
Q 39.84375 58.546875 37.703125 60.890625 
Q 34.125 64.65625 28.90625 64.65625 
Q 24.703125 64.65625 21.53125 62.3125 
Q 17.390625 59.28125 14.984375 53.46875 
Q 12.59375 47.65625 12.5 36.921875 
Q 15.671875 41.75 20.265625 44.09375 
Q 24.859375 46.4375 29.890625 46.4375 
Q 38.671875 46.4375 44.84375 39.96875 
Q 51.03125 33.5 51.03125 23.25 
Q 51.03125 16.5 48.125 10.71875 
Q 45.21875 4.9375 40.140625 1.859375 
Q 35.0625 -1.21875 28.609375 -1.21875 
Q 17.625 -1.21875 10.6875 6.859375 
Q 3.765625 14.9375 3.765625 33.5 
Q 3.765625 54.25 11.421875 63.671875 
Q 18.109375 71.875 29.4375 71.875 
Q 37.890625 71.875 43.28125 67.140625 
Q 48.6875 62.40625 49.75 54.046875 
z
M 13.875 23.1875 
Q 13.875 18.65625 15.796875 14.5 
Q 17.71875 10.359375 21.1875 8.171875 
Q 24.65625 6 28.46875 6 
Q 34.03125 6 38.03125 10.484375 
Q 42.046875 14.984375 42.046875 22.703125 
Q 42.046875 30.125 38.078125 34.390625 
Q 34.125 38.671875 28.125 38.671875 
Q 22.171875 38.671875 18.015625 34.390625 
Q 13.875 30.125 13.875 23.1875 
z
" id="ArialMT-54"/>
      </defs>
      <g style="fill:#262626;" transform="translate(409.982771 150.447919)scale(0.1 -0.1)">
       <use xlink:href="#ArialMT-48"/>
       <use x="55.615234" xlink:href="#ArialMT-46"/>
       <use x="83.398438" xlink:href="#ArialMT-54"/>
      </g>
     </g>
    </g>
    <g id="ytick_7">
     <g id="line2d_15">
      <path clip-path="url(#p65cf7d4961)" d="M 440.146639 199.98 
L 440.058341 194.921435 
L 439.793556 189.869034 
L 439.352606 184.828951 
L 438.736028 179.807327 
L 437.944574 174.81028 
L 436.979207 169.843899 
L 435.841104 164.914234 
L 434.531652 160.027292 
L 433.052446 155.189025 
L 431.405287 150.40533 
L 429.592183 145.682033 
L 427.615344 141.024891 
L 425.477176 136.439576 
L 423.180286 131.931675 
L 420.727472 127.506681 
L 418.121721 123.169984 
L 415.36621 118.926868 
L 412.464294 114.782503 
L 409.41951 110.741938 
L 406.235567 106.810096 
L 402.916345 102.991768 
L 399.465886 99.291604 
L 395.888396 95.714114 
L 392.188232 92.263655 
L 388.369904 88.944433 
L 384.438062 85.76049 
L 380.397497 82.715706 
L 376.253132 79.81379 
L 372.010016 77.058279 
L 367.673319 74.452528 
L 363.248325 71.999714 
L 358.740424 69.702824 
L 354.155109 67.564656 
L 349.497967 65.587817 
L 344.77467 63.774713 
L 339.990975 62.127554 
L 335.152708 60.648348 
L 330.265766 59.338896 
L 325.336101 58.200793 
L 320.36972 57.235426 
L 315.372673 56.443972 
L 310.351049 55.827394 
L 305.310966 55.386444 
L 300.258565 55.121659 
L 295.2 55.033361 
L 290.141435 55.121659 
L 285.089034 55.386444 
L 280.048951 55.827394 
L 275.027327 56.443972 
L 270.03028 57.235426 
L 265.063899 58.200793 
L 260.134234 59.338896 
L 255.247292 60.648348 
L 250.409025 62.127554 
L 245.62533 63.774713 
L 240.902033 65.587817 
L 236.244891 67.564656 
L 231.659576 69.702824 
L 227.151675 71.999714 
L 222.726681 74.452528 
L 218.389984 77.058279 
L 214.146868 79.81379 
L 210.002503 82.715706 
L 205.961938 85.76049 
L 202.030096 88.944433 
L 198.211768 92.263655 
L 194.511604 95.714114 
L 190.934114 99.291604 
L 187.483655 102.991768 
L 184.164433 106.810096 
L 180.98049 110.741938 
L 177.935706 114.782503 
L 175.03379 118.926868 
L 172.278279 123.169984 
L 169.672528 127.506681 
L 167.219714 131.931675 
L 164.922824 136.439576 
L 162.784656 141.024891 
L 160.807817 145.682033 
L 158.994713 150.40533 
L 157.347554 155.189025 
L 155.868348 160.027292 
L 154.558896 164.914234 
L 153.420793 169.843899 
L 152.455426 174.81028 
L 151.663972 179.807327 
L 151.047394 184.828951 
L 150.606444 189.869034 
L 150.341659 194.921435 
L 150.253361 199.98 
L 150.341659 205.038565 
L 150.606444 210.090966 
L 151.047394 215.131049 
L 151.663972 220.152673 
L 152.455426 225.14972 
L 153.420793 230.116101 
L 154.558896 235.045766 
L 155.868348 239.932708 
L 157.347554 244.770975 
L 158.994713 249.55467 
L 160.807817 254.277967 
L 162.784656 258.935109 
L 164.922824 263.520424 
L 167.219714 268.028325 
L 169.672528 272.453319 
L 172.278279 276.790016 
L 175.03379 281.033132 
L 177.935706 285.177497 
L 180.98049 289.218062 
L 184.164433 293.149904 
L 187.483655 296.968232 
L 190.934114 300.668396 
L 194.511604 304.245886 
L 198.211768 307.696345 
L 202.030096 311.015567 
L 205.961938 314.19951 
L 210.002503 317.244294 
L 214.146868 320.14621 
L 218.389984 322.901721 
L 222.726681 325.507472 
L 227.151675 327.960286 
L 231.659576 330.257176 
L 236.244891 332.395344 
L 240.902033 334.372183 
L 245.62533 336.185287 
L 250.409025 337.832446 
L 255.247292 339.311652 
L 260.134234 340.621104 
L 265.063899 341.759207 
L 270.03028 342.724574 
L 275.027327 343.516028 
L 280.048951 344.132606 
L 285.089034 344.573556 
L 290.141435 344.838341 
L 295.2 344.926639 
L 300.258565 344.838341 
L 305.310966 344.573556 
L 310.351049 344.132606 
L 315.372673 343.516028 
L 320.36972 342.724574 
L 325.336101 341.759207 
L 330.265766 340.621104 
L 335.152708 339.311652 
L 339.990975 337.832446 
L 344.77467 336.185287 
L 349.497967 334.372183 
L 354.155109 332.395344 
L 358.740424 330.257176 
L 363.248325 327.960286 
L 367.673319 325.507472 
L 372.010016 322.901721 
L 376.253132 320.14621 
L 380.397497 317.244294 
L 384.438062 314.19951 
L 388.369904 311.015567 
L 392.188232 307.696345 
L 395.888396 304.245886 
L 399.465886 300.668396 
L 402.916345 296.968232 
L 406.235567 293.149904 
L 409.41951 289.218062 
L 412.464294 285.177497 
L 415.36621 281.033132 
L 418.121721 276.790016 
L 420.727472 272.453319 
L 423.180286 268.028325 
L 425.477176 263.520424 
L 427.615344 258.935109 
L 429.592183 254.277967 
L 431.405287 249.55467 
L 433.052446 244.770975 
L 434.531652 239.932708 
L 435.841104 235.045766 
L 436.979207 230.116101 
L 437.944574 225.14972 
L 438.736028 220.152673 
L 439.352606 215.131049 
L 439.793556 210.090966 
L 440.058341 205.038565 
L 440.146639 199.98 
L 440.146639 199.98 
" style="fill:none;stroke:#ffffff;stroke-linecap:round;"/>
     </g>
     <g id="text_15">
      <!-- 0.7 -->
      <g style="fill:#262626;" transform="translate(429.113233 142.523823)scale(0.1 -0.1)">
       <use xlink:href="#ArialMT-48"/>
       <use x="55.615234" xlink:href="#ArialMT-46"/>
       <use x="83.398438" xlink:href="#ArialMT-55"/>
      </g>
     </g>
    </g>
   </g>
   <g id="PathCollection_1">
    <defs>
     <path d="M 0 3.5 
C 0.928211 3.5 1.81853 3.131218 2.474874 2.474874 
C 3.131218 1.81853 3.5 0.928211 3.5 0 
C 3.5 -0.928211 3.131218 -1.81853 2.474874 -2.474874 
C 1.81853 -3.131218 0.928211 -3.5 0 -3.5 
C -0.928211 -3.5 -1.81853 -3.131218 -2.474874 -2.474874 
C -3.131218 -1.81853 -3.5 -0.928211 -3.5 0 
C -3.5 0.928211 -3.131218 1.81853 -2.474874 2.474874 
C -1.81853 3.131218 -0.928211 3.5 0 3.5 
z
" id="m647601ed58" style="stroke:#4c72b0;stroke-width:0.3;"/>
    </defs>
    <g clip-path="url(#p65cf7d4961)">
     <use style="fill:#4c72b0;stroke:#4c72b0;stroke-width:0.3;" x="312.281254" xlink:href="#m647601ed58" y="191.816163"/>
     <use style="fill:#4c72b0;stroke:#4c72b0;stroke-width:0.3;" x="267.546014" xlink:href="#m647601ed58" y="196.78688"/>
     <use style="fill:#4c72b0;stroke:#4c72b0;stroke-width:0.3;" x="237.473112" xlink:href="#m647601ed58" y="211.19368"/>
     <use style="fill:#4c72b0;stroke:#4c72b0;stroke-width:0.3;" x="284.093775" xlink:href="#m647601ed58" y="214.399766"/>
     <use style="fill:#4c72b0;stroke:#4c72b0;stroke-width:0.3;" x="392.748165" xlink:href="#m647601ed58" y="202.933432"/>
     <use style="fill:#4c72b0;stroke:#4c72b0;stroke-width:0.3;" x="373.556411" xlink:href="#m647601ed58" y="193.149148"/>
     <use style="fill:#4c72b0;stroke:#4c72b0;stroke-width:0.3;" x="275.043192" xlink:href="#m647601ed58" y="203.285366"/>
     <use style="fill:#4c72b0;stroke:#4c72b0;stroke-width:0.3;" x="240.41131" xlink:href="#m647601ed58" y="212.216595"/>
     <use style="fill:#4c72b0;stroke:#4c72b0;stroke-width:0.3;" x="270.649331" xlink:href="#m647601ed58" y="217.541309"/>
     <use style="fill:#4c72b0;stroke:#4c72b0;stroke-width:0.3;" x="309.690916" xlink:href="#m647601ed58" y="218.092286"/>
     <use style="fill:#4c72b0;stroke:#4c72b0;stroke-width:0.3;" x="280.035487" xlink:href="#m647601ed58" y="225.117271"/>
     <use style="fill:#4c72b0;stroke:#4c72b0;stroke-width:0.3;" x="322.828616" xlink:href="#m647601ed58" y="210.252046"/>
     <use style="fill:#4c72b0;stroke:#4c72b0;stroke-width:0.3;" x="289.711767" xlink:href="#m647601ed58" y="217.582112"/>
     <use style="fill:#4c72b0;stroke:#4c72b0;stroke-width:0.3;" x="373.982078" xlink:href="#m647601ed58" y="221.271252"/>
     <use style="fill:#4c72b0;stroke:#4c72b0;stroke-width:0.3;" x="370.189191" xlink:href="#m647601ed58" y="211.224914"/>
     <use style="fill:#4c72b0;stroke:#4c72b0;stroke-width:0.3;" x="241.234956" xlink:href="#m647601ed58" y="225.154646"/>
     <use style="fill:#4c72b0;stroke:#4c72b0;stroke-width:0.3;" x="212.788798" xlink:href="#m647601ed58" y="231.949055"/>
     <use style="fill:#4c72b0;stroke:#4c72b0;stroke-width:0.3;" x="249.520475" xlink:href="#m647601ed58" y="229.627878"/>
     <use style="fill:#4c72b0;stroke:#4c72b0;stroke-width:0.3;" x="397.684603" xlink:href="#m647601ed58" y="198.643492"/>
     <use style="fill:#4c72b0;stroke:#4c72b0;stroke-width:0.3;" x="244.051336" xlink:href="#m647601ed58" y="210.829051"/>
     <use style="fill:#4c72b0;stroke:#4c72b0;stroke-width:0.3;" x="271.339312" xlink:href="#m647601ed58" y="216.458708"/>
     <use style="fill:#4c72b0;stroke:#4c72b0;stroke-width:0.3;" x="286.309104" xlink:href="#m647601ed58" y="210.962283"/>
     <use style="fill:#4c72b0;stroke:#4c72b0;stroke-width:0.3;" x="280.10803" xlink:href="#m647601ed58" y="209.390973"/>
     <use style="fill:#4c72b0;stroke:#4c72b0;stroke-width:0.3;" x="252.194599" xlink:href="#m647601ed58" y="211.078495"/>
    </g>
   </g>
   <g id="PathCollection_2">
    <defs>
     <path d="M 0 3.5 
C 0.928211 3.5 1.81853 3.131218 2.474874 2.474874 
C 3.131218 1.81853 3.5 0.928211 3.5 0 
C 3.5 -0.928211 3.131218 -1.81853 2.474874 -2.474874 
C 1.81853 -3.131218 0.928211 -3.5 0 -3.5 
C -0.928211 -3.5 -1.81853 -3.131218 -2.474874 -2.474874 
C -3.131218 -1.81853 -3.5 -0.928211 -3.5 0 
C -3.5 0.928211 -3.131218 1.81853 -2.474874 2.474874 
C -1.81853 3.131218 -0.928211 3.5 0 3.5 
z
" id="m09aacb9d07" style="stroke:#55a868;stroke-width:0.3;"/>
    </defs>
    <g clip-path="url(#p65cf7d4961)">
     <use style="fill:#55a868;stroke:#55a868;stroke-width:0.3;" x="247.116604" xlink:href="#m09aacb9d07" y="212.597593"/>
     <use style="fill:#55a868;stroke:#55a868;stroke-width:0.3;" x="220.687591" xlink:href="#m09aacb9d07" y="234.976884"/>
     <use style="fill:#55a868;stroke:#55a868;stroke-width:0.3;" x="261.274501" xlink:href="#m09aacb9d07" y="231.259897"/>
     <use style="fill:#55a868;stroke:#55a868;stroke-width:0.3;" x="361.880163" xlink:href="#m09aacb9d07" y="196.30264"/>
     <use style="fill:#55a868;stroke:#55a868;stroke-width:0.3;" x="333.299349" xlink:href="#m09aacb9d07" y="181.217017"/>
     <use style="fill:#55a868;stroke:#55a868;stroke-width:0.3;" x="286.771975" xlink:href="#m09aacb9d07" y="192.223137"/>
     <use style="fill:#55a868;stroke:#55a868;stroke-width:0.3;" x="303.720673" xlink:href="#m09aacb9d07" y="193.04544"/>
     <use style="fill:#55a868;stroke:#55a868;stroke-width:0.3;" x="438.154723" xlink:href="#m09aacb9d07" y="174.544057"/>
     <use style="fill:#55a868;stroke:#55a868;stroke-width:0.3;" x="185.675491" xlink:href="#m09aacb9d07" y="216.165827"/>
     <use style="fill:#55a868;stroke:#55a868;stroke-width:0.3;" x="293.664903" xlink:href="#m09aacb9d07" y="202.59726"/>
     <use style="fill:#55a868;stroke:#55a868;stroke-width:0.3;" x="229.626643" xlink:href="#m09aacb9d07" y="212.541825"/>
     <use style="fill:#55a868;stroke:#55a868;stroke-width:0.3;" x="337.553199" xlink:href="#m09aacb9d07" y="200.689686"/>
     <use style="fill:#55a868;stroke:#55a868;stroke-width:0.3;" x="314.624099" xlink:href="#m09aacb9d07" y="185.410953"/>
     <use style="fill:#55a868;stroke:#55a868;stroke-width:0.3;" x="304.657886" xlink:href="#m09aacb9d07" y="192.075411"/>
     <use style="fill:#55a868;stroke:#55a868;stroke-width:0.3;" x="370.131574" xlink:href="#m09aacb9d07" y="175.89582"/>
     <use style="fill:#55a868;stroke:#55a868;stroke-width:0.3;" x="255.982035" xlink:href="#m09aacb9d07" y="191.45946"/>
     <use style="fill:#55a868;stroke:#55a868;stroke-width:0.3;" x="339.642516" xlink:href="#m09aacb9d07" y="178.777422"/>
     <use style="fill:#55a868;stroke:#55a868;stroke-width:0.3;" x="192.676481" xlink:href="#m09aacb9d07" y="210.380991"/>
     <use style="fill:#55a868;stroke:#55a868;stroke-width:0.3;" x="293.08646" xlink:href="#m09aacb9d07" y="201.04539"/>
     <use style="fill:#55a868;stroke:#55a868;stroke-width:0.3;" x="257.739138" xlink:href="#m09aacb9d07" y="194.759277"/>
     <use style="fill:#55a868;stroke:#55a868;stroke-width:0.3;" x="230.96484" xlink:href="#m09aacb9d07" y="209.703485"/>
     <use style="fill:#55a868;stroke:#55a868;stroke-width:0.3;" x="360.731176" xlink:href="#m09aacb9d07" y="190.007251"/>
     <use style="fill:#55a868;stroke:#55a868;stroke-width:0.3;" x="356.719208" xlink:href="#m09aacb9d07" y="184.114457"/>
     <use style="fill:#55a868;stroke:#55a868;stroke-width:0.3;" x="351.633861" xlink:href="#m09aacb9d07" y="175.333375"/>
    </g>
   </g>
   <g id="PathCollection_3">
    <defs>
     <path d="M 0 3.5 
C 0.928211 3.5 1.81853 3.131218 2.474874 2.474874 
C 3.131218 1.81853 3.5 0.928211 3.5 0 
C 3.5 -0.928211 3.131218 -1.81853 2.474874 -2.474874 
C 1.81853 -3.131218 0.928211 -3.5 0 -3.5 
C -0.928211 -3.5 -1.81853 -3.131218 -2.474874 -2.474874 
C -3.131218 -1.81853 -3.5 -0.928211 -3.5 0 
C -3.5 0.928211 -3.131218 1.81853 -2.474874 2.474874 
C -1.81853 3.131218 -0.928211 3.5 0 3.5 
z
" id="m5eced9ad74" style="stroke:#c44e52;stroke-width:0.3;"/>
    </defs>
    <g clip-path="url(#p65cf7d4961)">
     <use style="fill:#c44e52;stroke:#c44e52;stroke-width:0.3;" x="252.752333" xlink:href="#m5eced9ad74" y="210.624463"/>
     <use style="fill:#c44e52;stroke:#c44e52;stroke-width:0.3;" x="307.714468" xlink:href="#m5eced9ad74" y="207.865343"/>
     <use style="fill:#c44e52;stroke:#c44e52;stroke-width:0.3;" x="331.650039" xlink:href="#m5eced9ad74" y="194.432648"/>
     <use style="fill:#c44e52;stroke:#c44e52;stroke-width:0.3;" x="234.896785" xlink:href="#m5eced9ad74" y="220.60641"/>
     <use style="fill:#c44e52;stroke:#c44e52;stroke-width:0.3;" x="232.258762" xlink:href="#m5eced9ad74" y="236.582794"/>
     <use style="fill:#c44e52;stroke:#c44e52;stroke-width:0.3;" x="333.796686" xlink:href="#m5eced9ad74" y="217.622111"/>
     <use style="fill:#c44e52;stroke:#c44e52;stroke-width:0.3;" x="284.763037" xlink:href="#m5eced9ad74" y="211.946897"/>
     <use style="fill:#c44e52;stroke:#c44e52;stroke-width:0.3;" x="234.515424" xlink:href="#m5eced9ad74" y="218.734298"/>
     <use style="fill:#c44e52;stroke:#c44e52;stroke-width:0.3;" x="310.298931" xlink:href="#m5eced9ad74" y="210.10175"/>
     <use style="fill:#c44e52;stroke:#c44e52;stroke-width:0.3;" x="329.795934" xlink:href="#m5eced9ad74" y="189.804301"/>
     <use style="fill:#c44e52;stroke:#c44e52;stroke-width:0.3;" x="297.927553" xlink:href="#m5eced9ad74" y="186.794019"/>
     <use style="fill:#c44e52;stroke:#c44e52;stroke-width:0.3;" x="239.178013" xlink:href="#m5eced9ad74" y="212.106926"/>
     <use style="fill:#c44e52;stroke:#c44e52;stroke-width:0.3;" x="332.720145" xlink:href="#m5eced9ad74" y="203.316971"/>
     <use style="fill:#c44e52;stroke:#c44e52;stroke-width:0.3;" x="379.904766" xlink:href="#m5eced9ad74" y="176.016356"/>
     <use style="fill:#c44e52;stroke:#c44e52;stroke-width:0.3;" x="285.90304" xlink:href="#m5eced9ad74" y="190.644268"/>
     <use style="fill:#c44e52;stroke:#c44e52;stroke-width:0.3;" x="309.230643" xlink:href="#m5eced9ad74" y="193.908153"/>
     <use style="fill:#c44e52;stroke:#c44e52;stroke-width:0.3;" x="226.42528" xlink:href="#m5eced9ad74" y="218.335599"/>
     <use style="fill:#c44e52;stroke:#c44e52;stroke-width:0.3;" x="272.754639" xlink:href="#m5eced9ad74" y="219.628618"/>
     <use style="fill:#c44e52;stroke:#c44e52;stroke-width:0.3;" x="306.167953" xlink:href="#m5eced9ad74" y="194.433771"/>
     <use style="fill:#c44e52;stroke:#c44e52;stroke-width:0.3;" x="308.468631" xlink:href="#m5eced9ad74" y="204.108332"/>
     <use style="fill:#c44e52;stroke:#c44e52;stroke-width:0.3;" x="302.791682" xlink:href="#m5eced9ad74" y="200.978534"/>
     <use style="fill:#c44e52;stroke:#c44e52;stroke-width:0.3;" x="287.681311" xlink:href="#m5eced9ad74" y="192.770298"/>
     <use style="fill:#c44e52;stroke:#c44e52;stroke-width:0.3;" x="370.238383" xlink:href="#m5eced9ad74" y="167.359982"/>
     <use style="fill:#c44e52;stroke:#c44e52;stroke-width:0.3;" x="349.383388" xlink:href="#m5eced9ad74" y="161.564432"/>
    </g>
   </g>
   <g id="line2d_16">
    <path clip-path="url(#p65cf7d4961)" d="M 295.2 199.98 
L 435.139047 161.248834 
" style="fill:none;stroke:#ff0000;stroke-dasharray:7.4,3.2;stroke-dashoffset:0;stroke-width:2;"/>
   </g>
   <g id="patch_3">
    <path d="M 447.66 199.98 
C 447.66 179.959136 443.716326 160.13295 436.054674 141.636084 
C 428.393021 123.139218 417.162388 106.331389 403.0055 92.1745 
C 388.848611 78.017612 372.040782 66.786979 353.543916 59.125326 
C 335.04705 51.463674 315.220864 47.52 295.2 47.52 
C 275.179136 47.52 255.35295 51.463674 236.856084 59.125326 
C 218.359218 66.786979 201.551389 78.017612 187.3945 92.1745 
C 173.237612 106.331389 162.006979 123.139218 154.345326 141.636084 
C 146.683674 160.13295 142.74 179.959136 142.74 199.98 
C 142.74 220.000864 146.683674 239.82705 154.345326 258.323916 
C 162.006979 276.820782 173.237612 293.628611 187.3945 307.7855 
C 201.551389 321.942388 218.359218 333.173021 236.856084 340.834674 
C 255.35295 348.496326 275.179136 352.44 295.2 352.44 
C 315.220864 352.44 335.04705 348.496326 353.543916 340.834674 
C 372.040782 333.173021 388.848611 321.942388 403.0055 307.7855 
C 417.162388 293.628611 428.393021 276.820782 436.054674 258.323916 
C 443.716326 239.82705 447.66 220.000864 447.66 199.98 
" style="fill:none;"/>
   </g>
   <g id="text_16">
    <!-- Distribution of projected eye movement velocity on the screen - NewM5_3_23 -->
    <defs>
     <path d="M 7.71875 0 
L 7.71875 71.578125 
L 32.375 71.578125 
Q 40.71875 71.578125 45.125 70.5625 
Q 51.265625 69.140625 55.609375 65.4375 
Q 61.28125 60.640625 64.078125 53.1875 
Q 66.890625 45.75 66.890625 36.1875 
Q 66.890625 28.03125 64.984375 21.734375 
Q 63.09375 15.4375 60.109375 11.296875 
Q 57.125 7.171875 53.578125 4.796875 
Q 50.046875 2.4375 45.046875 1.21875 
Q 40.046875 0 33.546875 0 
z
M 17.1875 8.453125 
L 32.46875 8.453125 
Q 39.546875 8.453125 43.578125 9.765625 
Q 47.609375 11.078125 50 13.484375 
Q 53.375 16.84375 55.25 22.53125 
Q 57.125 28.21875 57.125 36.328125 
Q 57.125 47.5625 53.4375 53.59375 
Q 49.75 59.625 44.484375 61.671875 
Q 40.671875 63.140625 32.234375 63.140625 
L 17.1875 63.140625 
z
" id="ArialMT-68"/>
     <path d="M 6.640625 61.46875 
L 6.640625 71.578125 
L 15.4375 71.578125 
L 15.4375 61.46875 
z
M 6.640625 0 
L 6.640625 51.859375 
L 15.4375 51.859375 
L 15.4375 0 
z
" id="ArialMT-105"/>
     <path d="M 3.078125 15.484375 
L 11.765625 16.84375 
Q 12.5 11.625 15.84375 8.84375 
Q 19.1875 6.0625 25.203125 6.0625 
Q 31.25 6.0625 34.171875 8.515625 
Q 37.109375 10.984375 37.109375 14.3125 
Q 37.109375 17.28125 34.515625 19 
Q 32.71875 20.171875 25.53125 21.96875 
Q 15.875 24.421875 12.140625 26.203125 
Q 8.40625 27.984375 6.46875 31.125 
Q 4.546875 34.28125 4.546875 38.09375 
Q 4.546875 41.546875 6.125 44.5 
Q 7.71875 47.46875 10.453125 49.421875 
Q 12.5 50.921875 16.03125 51.96875 
Q 19.578125 53.03125 23.640625 53.03125 
Q 29.734375 53.03125 34.34375 51.265625 
Q 38.96875 49.515625 41.15625 46.5 
Q 43.359375 43.5 44.1875 38.484375 
L 35.59375 37.3125 
Q 35.015625 41.3125 32.203125 43.546875 
Q 29.390625 45.796875 24.265625 45.796875 
Q 18.21875 45.796875 15.625 43.796875 
Q 13.03125 41.796875 13.03125 39.109375 
Q 13.03125 37.40625 14.109375 36.03125 
Q 15.1875 34.625 17.484375 33.6875 
Q 18.796875 33.203125 25.25 31.453125 
Q 34.578125 28.953125 38.25 27.359375 
Q 41.9375 25.78125 44.03125 22.75 
Q 46.140625 19.734375 46.140625 15.234375 
Q 46.140625 10.84375 43.578125 6.953125 
Q 41.015625 3.078125 36.171875 0.953125 
Q 31.34375 -1.171875 25.25 -1.171875 
Q 15.140625 -1.171875 9.84375 3.03125 
Q 4.546875 7.234375 3.078125 15.484375 
z
" id="ArialMT-115"/>
     <path d="M 25.78125 7.859375 
L 27.046875 0.09375 
Q 23.34375 -0.6875 20.40625 -0.6875 
Q 15.625 -0.6875 12.984375 0.828125 
Q 10.359375 2.34375 9.28125 4.8125 
Q 8.203125 7.28125 8.203125 15.1875 
L 8.203125 45.015625 
L 1.765625 45.015625 
L 1.765625 51.859375 
L 8.203125 51.859375 
L 8.203125 64.703125 
L 16.9375 69.96875 
L 16.9375 51.859375 
L 25.78125 51.859375 
L 25.78125 45.015625 
L 16.9375 45.015625 
L 16.9375 14.703125 
Q 16.9375 10.9375 17.40625 9.859375 
Q 17.875 8.796875 18.921875 8.15625 
Q 19.96875 7.515625 21.921875 7.515625 
Q 23.390625 7.515625 25.78125 7.859375 
z
" id="ArialMT-116"/>
     <path d="M 6.5 0 
L 6.5 51.859375 
L 14.40625 51.859375 
L 14.40625 44 
Q 17.4375 49.515625 20 51.265625 
Q 22.5625 53.03125 25.640625 53.03125 
Q 30.078125 53.03125 34.671875 50.203125 
L 31.640625 42.046875 
Q 28.421875 43.953125 25.203125 43.953125 
Q 22.3125 43.953125 20.015625 42.21875 
Q 17.71875 40.484375 16.75 37.40625 
Q 15.28125 32.71875 15.28125 27.15625 
L 15.28125 0 
z
" id="ArialMT-114"/>
     <path d="M 14.703125 0 
L 6.546875 0 
L 6.546875 71.578125 
L 15.328125 71.578125 
L 15.328125 46.046875 
Q 20.90625 53.03125 29.546875 53.03125 
Q 34.328125 53.03125 38.59375 51.09375 
Q 42.875 49.171875 45.625 45.671875 
Q 48.390625 42.1875 49.953125 37.25 
Q 51.515625 32.328125 51.515625 26.703125 
Q 51.515625 13.375 44.921875 6.09375 
Q 38.328125 -1.171875 29.109375 -1.171875 
Q 19.921875 -1.171875 14.703125 6.5 
z
M 14.59375 26.3125 
Q 14.59375 17 17.140625 12.84375 
Q 21.296875 6.0625 28.375 6.0625 
Q 34.125 6.0625 38.328125 11.0625 
Q 42.53125 16.0625 42.53125 25.984375 
Q 42.53125 36.140625 38.5 40.96875 
Q 34.46875 45.796875 28.765625 45.796875 
Q 23 45.796875 18.796875 40.796875 
Q 14.59375 35.796875 14.59375 26.3125 
z
" id="ArialMT-98"/>
     <path d="M 40.578125 0 
L 40.578125 7.625 
Q 34.515625 -1.171875 24.125 -1.171875 
Q 19.53125 -1.171875 15.546875 0.578125 
Q 11.578125 2.34375 9.640625 5 
Q 7.71875 7.671875 6.9375 11.53125 
Q 6.390625 14.109375 6.390625 19.734375 
L 6.390625 51.859375 
L 15.1875 51.859375 
L 15.1875 23.09375 
Q 15.1875 16.21875 15.71875 13.8125 
Q 16.546875 10.359375 19.234375 8.375 
Q 21.921875 6.390625 25.875 6.390625 
Q 29.828125 6.390625 33.296875 8.421875 
Q 36.765625 10.453125 38.203125 13.9375 
Q 39.65625 17.4375 39.65625 24.078125 
L 39.65625 51.859375 
L 48.4375 51.859375 
L 48.4375 0 
z
" id="ArialMT-117"/>
     <path d="M 3.328125 25.921875 
Q 3.328125 40.328125 11.328125 47.265625 
Q 18.015625 53.03125 27.640625 53.03125 
Q 38.328125 53.03125 45.109375 46.015625 
Q 51.90625 39.015625 51.90625 26.65625 
Q 51.90625 16.65625 48.90625 10.90625 
Q 45.90625 5.171875 40.15625 2 
Q 34.421875 -1.171875 27.640625 -1.171875 
Q 16.75 -1.171875 10.03125 5.8125 
Q 3.328125 12.796875 3.328125 25.921875 
z
M 12.359375 25.921875 
Q 12.359375 15.96875 16.703125 11.015625 
Q 21.046875 6.0625 27.640625 6.0625 
Q 34.1875 6.0625 38.53125 11.03125 
Q 42.875 16.015625 42.875 26.21875 
Q 42.875 35.84375 38.5 40.796875 
Q 34.125 45.75 27.640625 45.75 
Q 21.046875 45.75 16.703125 40.8125 
Q 12.359375 35.890625 12.359375 25.921875 
z
" id="ArialMT-111"/>
     <path d="M 6.59375 0 
L 6.59375 51.859375 
L 14.5 51.859375 
L 14.5 44.484375 
Q 20.21875 53.03125 31 53.03125 
Q 35.6875 53.03125 39.625 51.34375 
Q 43.5625 49.65625 45.515625 46.921875 
Q 47.46875 44.1875 48.25 40.4375 
Q 48.734375 37.984375 48.734375 31.890625 
L 48.734375 0 
L 39.9375 0 
L 39.9375 31.546875 
Q 39.9375 36.921875 38.90625 39.578125 
Q 37.890625 42.234375 35.28125 43.8125 
Q 32.671875 45.40625 29.15625 45.40625 
Q 23.53125 45.40625 19.453125 41.84375 
Q 15.375 38.28125 15.375 28.328125 
L 15.375 0 
z
" id="ArialMT-110"/>
     <path id="ArialMT-32"/>
     <path d="M 8.6875 0 
L 8.6875 45.015625 
L 0.921875 45.015625 
L 0.921875 51.859375 
L 8.6875 51.859375 
L 8.6875 57.375 
Q 8.6875 62.59375 9.625 65.140625 
Q 10.890625 68.5625 14.078125 70.671875 
Q 17.28125 72.796875 23.046875 72.796875 
Q 26.765625 72.796875 31.25 71.921875 
L 29.9375 64.265625 
Q 27.203125 64.75 24.75 64.75 
Q 20.75 64.75 19.09375 63.03125 
Q 17.4375 61.328125 17.4375 56.640625 
L 17.4375 51.859375 
L 27.546875 51.859375 
L 27.546875 45.015625 
L 17.4375 45.015625 
L 17.4375 0 
z
" id="ArialMT-102"/>
     <path d="M 6.59375 -19.875 
L 6.59375 51.859375 
L 14.59375 51.859375 
L 14.59375 45.125 
Q 17.4375 49.078125 21 51.046875 
Q 24.5625 53.03125 29.640625 53.03125 
Q 36.28125 53.03125 41.359375 49.609375 
Q 46.4375 46.1875 49.015625 39.953125 
Q 51.609375 33.734375 51.609375 26.3125 
Q 51.609375 18.359375 48.75 11.984375 
Q 45.90625 5.609375 40.453125 2.21875 
Q 35.015625 -1.171875 29 -1.171875 
Q 24.609375 -1.171875 21.109375 0.6875 
Q 17.625 2.546875 15.375 5.375 
L 15.375 -19.875 
z
M 14.546875 25.640625 
Q 14.546875 15.625 18.59375 10.84375 
Q 22.65625 6.0625 28.421875 6.0625 
Q 34.28125 6.0625 38.453125 11.015625 
Q 42.625 15.96875 42.625 26.375 
Q 42.625 36.28125 38.546875 41.203125 
Q 34.46875 46.140625 28.8125 46.140625 
Q 23.1875 46.140625 18.859375 40.890625 
Q 14.546875 35.640625 14.546875 25.640625 
z
" id="ArialMT-112"/>
     <path d="M 6.546875 61.375 
L 6.546875 71.578125 
L 15.328125 71.578125 
L 15.328125 61.375 
z
M -4.59375 -20.125 
L -2.9375 -12.640625 
Q -0.296875 -13.328125 1.21875 -13.328125 
Q 3.90625 -13.328125 5.21875 -11.546875 
Q 6.546875 -9.765625 6.546875 -2.640625 
L 6.546875 51.859375 
L 15.328125 51.859375 
L 15.328125 -2.828125 
Q 15.328125 -12.40625 12.84375 -16.15625 
Q 9.671875 -21.046875 2.296875 -21.046875 
Q -1.265625 -21.046875 -4.59375 -20.125 
z
" id="ArialMT-106"/>
     <path d="M 42.09375 16.703125 
L 51.171875 15.578125 
Q 49.03125 7.625 43.21875 3.21875 
Q 37.40625 -1.171875 28.375 -1.171875 
Q 17 -1.171875 10.328125 5.828125 
Q 3.65625 12.84375 3.65625 25.484375 
Q 3.65625 38.578125 10.390625 45.796875 
Q 17.140625 53.03125 27.875 53.03125 
Q 38.28125 53.03125 44.875 45.953125 
Q 51.46875 38.875 51.46875 26.03125 
Q 51.46875 25.25 51.421875 23.6875 
L 12.75 23.6875 
Q 13.234375 15.140625 17.578125 10.59375 
Q 21.921875 6.0625 28.421875 6.0625 
Q 33.25 6.0625 36.671875 8.59375 
Q 40.09375 11.140625 42.09375 16.703125 
z
M 13.234375 30.90625 
L 42.1875 30.90625 
Q 41.609375 37.453125 38.875 40.71875 
Q 34.671875 45.796875 27.984375 45.796875 
Q 21.921875 45.796875 17.796875 41.75 
Q 13.671875 37.703125 13.234375 30.90625 
z
" id="ArialMT-101"/>
     <path d="M 40.4375 19 
L 49.078125 17.875 
Q 47.65625 8.9375 41.8125 3.875 
Q 35.984375 -1.171875 27.484375 -1.171875 
Q 16.84375 -1.171875 10.375 5.78125 
Q 3.90625 12.75 3.90625 25.734375 
Q 3.90625 34.125 6.6875 40.421875 
Q 9.46875 46.734375 15.15625 49.875 
Q 20.84375 53.03125 27.546875 53.03125 
Q 35.984375 53.03125 41.359375 48.75 
Q 46.734375 44.484375 48.25 36.625 
L 39.703125 35.296875 
Q 38.484375 40.53125 35.375 43.15625 
Q 32.28125 45.796875 27.875 45.796875 
Q 21.234375 45.796875 17.078125 41.03125 
Q 12.9375 36.28125 12.9375 25.984375 
Q 12.9375 15.53125 16.9375 10.796875 
Q 20.953125 6.0625 27.390625 6.0625 
Q 32.5625 6.0625 36.03125 9.234375 
Q 39.5 12.40625 40.4375 19 
z
" id="ArialMT-99"/>
     <path d="M 40.234375 0 
L 40.234375 6.546875 
Q 35.296875 -1.171875 25.734375 -1.171875 
Q 19.53125 -1.171875 14.328125 2.25 
Q 9.125 5.671875 6.265625 11.796875 
Q 3.421875 17.921875 3.421875 25.875 
Q 3.421875 33.640625 6 39.96875 
Q 8.59375 46.296875 13.765625 49.65625 
Q 18.953125 53.03125 25.34375 53.03125 
Q 30.03125 53.03125 33.6875 51.046875 
Q 37.359375 49.078125 39.65625 45.90625 
L 39.65625 71.578125 
L 48.390625 71.578125 
L 48.390625 0 
z
M 12.453125 25.875 
Q 12.453125 15.921875 16.640625 10.984375 
Q 20.84375 6.0625 26.5625 6.0625 
Q 32.328125 6.0625 36.34375 10.765625 
Q 40.375 15.484375 40.375 25.140625 
Q 40.375 35.796875 36.265625 40.765625 
Q 32.171875 45.75 26.171875 45.75 
Q 20.3125 45.75 16.375 40.96875 
Q 12.453125 36.1875 12.453125 25.875 
z
" id="ArialMT-100"/>
     <path d="M 6.203125 -19.96875 
L 5.21875 -11.71875 
Q 8.109375 -12.5 10.25 -12.5 
Q 13.1875 -12.5 14.9375 -11.515625 
Q 16.703125 -10.546875 17.828125 -8.796875 
Q 18.65625 -7.46875 20.515625 -2.25 
Q 20.75 -1.515625 21.296875 -0.09375 
L 1.609375 51.859375 
L 11.078125 51.859375 
L 21.875 21.828125 
Q 23.96875 16.109375 25.640625 9.8125 
Q 27.15625 15.875 29.25 21.625 
L 40.328125 51.859375 
L 49.125 51.859375 
L 29.390625 -0.875 
Q 26.21875 -9.421875 24.46875 -12.640625 
Q 22.125 -17 19.09375 -19.015625 
Q 16.0625 -21.046875 11.859375 -21.046875 
Q 9.328125 -21.046875 6.203125 -19.96875 
z
" id="ArialMT-121"/>
     <path d="M 6.59375 0 
L 6.59375 51.859375 
L 14.453125 51.859375 
L 14.453125 44.578125 
Q 16.890625 48.390625 20.9375 50.703125 
Q 25 53.03125 30.171875 53.03125 
Q 35.9375 53.03125 39.625 50.640625 
Q 43.3125 48.25 44.828125 43.953125 
Q 50.984375 53.03125 60.84375 53.03125 
Q 68.5625 53.03125 72.703125 48.75 
Q 76.859375 44.484375 76.859375 35.59375 
L 76.859375 0 
L 68.109375 0 
L 68.109375 32.671875 
Q 68.109375 37.9375 67.25 40.25 
Q 66.40625 42.578125 64.15625 43.984375 
Q 61.921875 45.40625 58.890625 45.40625 
Q 53.421875 45.40625 49.796875 41.765625 
Q 46.1875 38.140625 46.1875 30.125 
L 46.1875 0 
L 37.40625 0 
L 37.40625 33.6875 
Q 37.40625 39.546875 35.25 42.46875 
Q 33.109375 45.40625 28.21875 45.40625 
Q 24.515625 45.40625 21.359375 43.453125 
Q 18.21875 41.5 16.796875 37.734375 
Q 15.375 33.984375 15.375 26.90625 
L 15.375 0 
z
" id="ArialMT-109"/>
     <path d="M 21 0 
L 1.265625 51.859375 
L 10.546875 51.859375 
L 21.6875 20.796875 
Q 23.484375 15.765625 25 10.359375 
Q 26.171875 14.453125 28.265625 20.21875 
L 39.796875 51.859375 
L 48.828125 51.859375 
L 29.203125 0 
z
" id="ArialMT-118"/>
     <path d="M 6.390625 0 
L 6.390625 71.578125 
L 15.1875 71.578125 
L 15.1875 0 
z
" id="ArialMT-108"/>
     <path d="M 6.59375 0 
L 6.59375 71.578125 
L 15.375 71.578125 
L 15.375 45.90625 
Q 21.53125 53.03125 30.90625 53.03125 
Q 36.671875 53.03125 40.921875 50.75 
Q 45.171875 48.484375 47 44.484375 
Q 48.828125 40.484375 48.828125 32.859375 
L 48.828125 0 
L 40.046875 0 
L 40.046875 32.859375 
Q 40.046875 39.453125 37.1875 42.453125 
Q 34.328125 45.453125 29.109375 45.453125 
Q 25.203125 45.453125 21.75 43.421875 
Q 18.3125 41.40625 16.84375 37.9375 
Q 15.375 34.46875 15.375 28.375 
L 15.375 0 
z
" id="ArialMT-104"/>
     <path d="M 3.171875 21.484375 
L 3.171875 30.328125 
L 30.171875 30.328125 
L 30.171875 21.484375 
z
" id="ArialMT-45"/>
     <path d="M 7.625 0 
L 7.625 71.578125 
L 17.328125 71.578125 
L 54.9375 15.375 
L 54.9375 71.578125 
L 64.015625 71.578125 
L 64.015625 0 
L 54.296875 0 
L 16.703125 56.25 
L 16.703125 0 
z
" id="ArialMT-78"/>
     <path d="M 16.15625 0 
L 0.296875 51.859375 
L 9.375 51.859375 
L 17.625 21.921875 
L 20.703125 10.796875 
Q 20.90625 11.625 23.390625 21.484375 
L 31.640625 51.859375 
L 40.671875 51.859375 
L 48.4375 21.78125 
L 51.03125 11.859375 
L 54 21.875 
L 62.890625 51.859375 
L 71.4375 51.859375 
L 55.21875 0 
L 46.09375 0 
L 37.84375 31.0625 
L 35.84375 39.890625 
L 25.34375 0 
z
" id="ArialMT-119"/>
     <path d="M 7.421875 0 
L 7.421875 71.578125 
L 21.6875 71.578125 
L 38.625 20.90625 
Q 40.96875 13.8125 42.046875 10.296875 
Q 43.265625 14.203125 45.84375 21.78125 
L 62.984375 71.578125 
L 75.734375 71.578125 
L 75.734375 0 
L 66.609375 0 
L 66.609375 59.90625 
L 45.796875 0 
L 37.25 0 
L 16.546875 60.9375 
L 16.546875 0 
z
" id="ArialMT-77"/>
     <path d="M -1.515625 -19.875 
L -1.515625 -13.53125 
L 56.734375 -13.53125 
L 56.734375 -19.875 
z
" id="ArialMT-95"/>
    </defs>
    <g style="fill:#262626;" transform="translate(89.110313 23.748375)scale(0.12 -0.12)">
     <use xlink:href="#ArialMT-68"/>
     <use x="72.216797" xlink:href="#ArialMT-105"/>
     <use x="94.433594" xlink:href="#ArialMT-115"/>
     <use x="144.433594" xlink:href="#ArialMT-116"/>
     <use x="172.216797" xlink:href="#ArialMT-114"/>
     <use x="205.517578" xlink:href="#ArialMT-105"/>
     <use x="227.734375" xlink:href="#ArialMT-98"/>
     <use x="283.349609" xlink:href="#ArialMT-117"/>
     <use x="338.964844" xlink:href="#ArialMT-116"/>
     <use x="366.748047" xlink:href="#ArialMT-105"/>
     <use x="388.964844" xlink:href="#ArialMT-111"/>
     <use x="444.580078" xlink:href="#ArialMT-110"/>
     <use x="500.195312" xlink:href="#ArialMT-32"/>
     <use x="527.978516" xlink:href="#ArialMT-111"/>
     <use x="583.59375" xlink:href="#ArialMT-102"/>
     <use x="611.376953" xlink:href="#ArialMT-32"/>
     <use x="639.160156" xlink:href="#ArialMT-112"/>
     <use x="694.775391" xlink:href="#ArialMT-114"/>
     <use x="728.076172" xlink:href="#ArialMT-111"/>
     <use x="783.691406" xlink:href="#ArialMT-106"/>
     <use x="805.908203" xlink:href="#ArialMT-101"/>
     <use x="861.523438" xlink:href="#ArialMT-99"/>
     <use x="911.523438" xlink:href="#ArialMT-116"/>
     <use x="939.306641" xlink:href="#ArialMT-101"/>
     <use x="994.921875" xlink:href="#ArialMT-100"/>
     <use x="1050.537109" xlink:href="#ArialMT-32"/>
     <use x="1078.320312" xlink:href="#ArialMT-101"/>
     <use x="1133.935547" xlink:href="#ArialMT-121"/>
     <use x="1183.935547" xlink:href="#ArialMT-101"/>
     <use x="1239.550781" xlink:href="#ArialMT-32"/>
     <use x="1267.333984" xlink:href="#ArialMT-109"/>
     <use x="1350.634766" xlink:href="#ArialMT-111"/>
     <use x="1406.25" xlink:href="#ArialMT-118"/>
     <use x="1456.25" xlink:href="#ArialMT-101"/>
     <use x="1511.865234" xlink:href="#ArialMT-109"/>
     <use x="1595.166016" xlink:href="#ArialMT-101"/>
     <use x="1650.78125" xlink:href="#ArialMT-110"/>
     <use x="1706.396484" xlink:href="#ArialMT-116"/>
     <use x="1734.179688" xlink:href="#ArialMT-32"/>
     <use x="1761.962891" xlink:href="#ArialMT-118"/>
     <use x="1811.962891" xlink:href="#ArialMT-101"/>
     <use x="1867.578125" xlink:href="#ArialMT-108"/>
     <use x="1889.794922" xlink:href="#ArialMT-111"/>
     <use x="1945.410156" xlink:href="#ArialMT-99"/>
     <use x="1995.410156" xlink:href="#ArialMT-105"/>
     <use x="2017.626953" xlink:href="#ArialMT-116"/>
     <use x="2045.410156" xlink:href="#ArialMT-121"/>
     <use x="2095.410156" xlink:href="#ArialMT-32"/>
     <use x="2123.193359" xlink:href="#ArialMT-111"/>
     <use x="2178.808594" xlink:href="#ArialMT-110"/>
     <use x="2234.423828" xlink:href="#ArialMT-32"/>
     <use x="2262.207031" xlink:href="#ArialMT-116"/>
     <use x="2289.990234" xlink:href="#ArialMT-104"/>
     <use x="2345.605469" xlink:href="#ArialMT-101"/>
     <use x="2401.220703" xlink:href="#ArialMT-32"/>
     <use x="2429.003906" xlink:href="#ArialMT-115"/>
     <use x="2479.003906" xlink:href="#ArialMT-99"/>
     <use x="2529.003906" xlink:href="#ArialMT-114"/>
     <use x="2562.304688" xlink:href="#ArialMT-101"/>
     <use x="2617.919922" xlink:href="#ArialMT-101"/>
     <use x="2673.535156" xlink:href="#ArialMT-110"/>
     <use x="2729.150391" xlink:href="#ArialMT-32"/>
     <use x="2756.933594" xlink:href="#ArialMT-45"/>
     <use x="2790.234375" xlink:href="#ArialMT-32"/>
     <use x="2818.017578" xlink:href="#ArialMT-78"/>
     <use x="2890.234375" xlink:href="#ArialMT-101"/>
     <use x="2945.849609" xlink:href="#ArialMT-119"/>
     <use x="3018.066406" xlink:href="#ArialMT-77"/>
     <use x="3101.367188" xlink:href="#ArialMT-53"/>
     <use x="3156.982422" xlink:href="#ArialMT-95"/>
     <use x="3212.597656" xlink:href="#ArialMT-51"/>
     <use x="3268.212891" xlink:href="#ArialMT-95"/>
     <use x="3323.828125" xlink:href="#ArialMT-50"/>
     <use x="3379.443359" xlink:href="#ArialMT-51"/>
    </g>
   </g>
   <g id="legend_1">
    <g id="line2d_17">
     <path d="M 198.370313 60.2075 
L 218.370313 60.2075 
" style="fill:none;stroke:#ff0000;stroke-dasharray:7.4,3.2;stroke-dashoffset:0;stroke-width:2;"/>
    </g>
    <g id="line2d_18"/>
    <g id="text_17">
     <!-- Average angle in light: 15.47 degrees -->
     <defs>
      <path d="M -0.140625 0 
L 27.34375 71.578125 
L 37.546875 71.578125 
L 66.84375 0 
L 56.0625 0 
L 47.703125 21.6875 
L 17.78125 21.6875 
L 9.90625 0 
z
M 20.515625 29.390625 
L 44.78125 29.390625 
L 37.3125 49.21875 
Q 33.890625 58.25 32.234375 64.0625 
Q 30.859375 57.171875 28.375 50.390625 
z
" id="ArialMT-65"/>
      <path d="M 40.4375 6.390625 
Q 35.546875 2.25 31.03125 0.53125 
Q 26.515625 -1.171875 21.34375 -1.171875 
Q 12.796875 -1.171875 8.203125 3 
Q 3.609375 7.171875 3.609375 13.671875 
Q 3.609375 17.484375 5.34375 20.625 
Q 7.078125 23.78125 9.890625 25.6875 
Q 12.703125 27.59375 16.21875 28.5625 
Q 18.796875 29.25 24.03125 29.890625 
Q 34.671875 31.15625 39.703125 32.90625 
Q 39.75 34.71875 39.75 35.203125 
Q 39.75 40.578125 37.25 42.78125 
Q 33.890625 45.75 27.25 45.75 
Q 21.046875 45.75 18.09375 43.578125 
Q 15.140625 41.40625 13.71875 35.890625 
L 5.125 37.0625 
Q 6.296875 42.578125 8.984375 45.96875 
Q 11.671875 49.359375 16.75 51.1875 
Q 21.828125 53.03125 28.515625 53.03125 
Q 35.15625 53.03125 39.296875 51.46875 
Q 43.453125 49.90625 45.40625 47.53125 
Q 47.359375 45.171875 48.140625 41.546875 
Q 48.578125 39.3125 48.578125 33.453125 
L 48.578125 21.734375 
Q 48.578125 9.46875 49.140625 6.21875 
Q 49.703125 2.984375 51.375 0 
L 42.1875 0 
Q 40.828125 2.734375 40.4375 6.390625 
z
M 39.703125 26.03125 
Q 34.90625 24.078125 25.34375 22.703125 
Q 19.921875 21.921875 17.671875 20.9375 
Q 15.4375 19.96875 14.203125 18.09375 
Q 12.984375 16.21875 12.984375 13.921875 
Q 12.984375 10.40625 15.640625 8.0625 
Q 18.3125 5.71875 23.4375 5.71875 
Q 28.515625 5.71875 32.46875 7.9375 
Q 36.421875 10.15625 38.28125 14.015625 
Q 39.703125 17 39.703125 22.796875 
z
" id="ArialMT-97"/>
      <path d="M 4.984375 -4.296875 
L 13.53125 -5.5625 
Q 14.0625 -9.515625 16.5 -11.328125 
Q 19.78125 -13.765625 25.4375 -13.765625 
Q 31.546875 -13.765625 34.859375 -11.328125 
Q 38.1875 -8.890625 39.359375 -4.5 
Q 40.046875 -1.8125 39.984375 6.78125 
Q 34.234375 0 25.640625 0 
Q 14.9375 0 9.078125 7.71875 
Q 3.21875 15.4375 3.21875 26.21875 
Q 3.21875 33.640625 5.90625 39.90625 
Q 8.59375 46.1875 13.6875 49.609375 
Q 18.796875 53.03125 25.6875 53.03125 
Q 34.859375 53.03125 40.828125 45.609375 
L 40.828125 51.859375 
L 48.921875 51.859375 
L 48.921875 7.03125 
Q 48.921875 -5.078125 46.453125 -10.125 
Q 44 -15.1875 38.640625 -18.109375 
Q 33.296875 -21.046875 25.484375 -21.046875 
Q 16.21875 -21.046875 10.5 -16.875 
Q 4.78125 -12.703125 4.984375 -4.296875 
z
M 12.25 26.859375 
Q 12.25 16.65625 16.296875 11.96875 
Q 20.359375 7.28125 26.46875 7.28125 
Q 32.515625 7.28125 36.609375 11.9375 
Q 40.71875 16.609375 40.71875 26.5625 
Q 40.71875 36.078125 36.5 40.90625 
Q 32.28125 45.75 26.3125 45.75 
Q 20.453125 45.75 16.34375 40.984375 
Q 12.25 36.234375 12.25 26.859375 
z
" id="ArialMT-103"/>
      <path d="M 9.03125 41.84375 
L 9.03125 51.859375 
L 19.046875 51.859375 
L 19.046875 41.84375 
z
M 9.03125 0 
L 9.03125 10.015625 
L 19.046875 10.015625 
L 19.046875 0 
z
" id="ArialMT-58"/>
     </defs>
     <g style="fill:#262626;" transform="translate(226.370313 63.7075)scale(0.1 -0.1)">
      <use xlink:href="#ArialMT-65"/>
      <use x="66.683594" xlink:href="#ArialMT-118"/>
      <use x="116.683594" xlink:href="#ArialMT-101"/>
      <use x="172.298828" xlink:href="#ArialMT-114"/>
      <use x="205.599609" xlink:href="#ArialMT-97"/>
      <use x="261.214844" xlink:href="#ArialMT-103"/>
      <use x="316.830078" xlink:href="#ArialMT-101"/>
      <use x="372.445312" xlink:href="#ArialMT-32"/>
      <use x="400.228516" xlink:href="#ArialMT-97"/>
      <use x="455.84375" xlink:href="#ArialMT-110"/>
      <use x="511.458984" xlink:href="#ArialMT-103"/>
      <use x="567.074219" xlink:href="#ArialMT-108"/>
      <use x="589.291016" xlink:href="#ArialMT-101"/>
      <use x="644.90625" xlink:href="#ArialMT-32"/>
      <use x="672.689453" xlink:href="#ArialMT-105"/>
      <use x="694.90625" xlink:href="#ArialMT-110"/>
      <use x="750.521484" xlink:href="#ArialMT-32"/>
      <use x="778.304688" xlink:href="#ArialMT-108"/>
      <use x="800.521484" xlink:href="#ArialMT-105"/>
      <use x="822.738281" xlink:href="#ArialMT-103"/>
      <use x="878.353516" xlink:href="#ArialMT-104"/>
      <use x="933.96875" xlink:href="#ArialMT-116"/>
      <use x="961.751953" xlink:href="#ArialMT-58"/>
      <use x="989.535156" xlink:href="#ArialMT-32"/>
      <use x="1017.318359" xlink:href="#ArialMT-49"/>
      <use x="1072.933594" xlink:href="#ArialMT-53"/>
      <use x="1128.548828" xlink:href="#ArialMT-46"/>
      <use x="1156.332031" xlink:href="#ArialMT-52"/>
      <use x="1211.947266" xlink:href="#ArialMT-55"/>
      <use x="1267.5625" xlink:href="#ArialMT-32"/>
      <use x="1295.345703" xlink:href="#ArialMT-100"/>
      <use x="1350.960938" xlink:href="#ArialMT-101"/>
      <use x="1406.576172" xlink:href="#ArialMT-103"/>
      <use x="1462.191406" xlink:href="#ArialMT-114"/>
      <use x="1495.492188" xlink:href="#ArialMT-101"/>
      <use x="1551.107422" xlink:href="#ArialMT-101"/>
      <use x="1606.722656" xlink:href="#ArialMT-115"/>
     </g>
    </g>
    <g id="PathCollection_4">
     <g>
      <use style="fill:#4c72b0;stroke:#4c72b0;stroke-width:0.3;" x="208.370313" xlink:href="#m647601ed58" y="75.345"/>
     </g>
    </g>
    <g id="text_18">
     <!-- $-0.5 &lt; t &lt; 0.$ -->
     <defs>
      <path d="M 10.59375 35.5 
L 73.1875 35.5 
L 73.1875 27.203125 
L 10.59375 27.203125 
z
" id="DejaVuSans-8722"/>
      <path d="M 31.78125 66.40625 
Q 24.171875 66.40625 20.328125 58.90625 
Q 16.5 51.421875 16.5 36.375 
Q 16.5 21.390625 20.328125 13.890625 
Q 24.171875 6.390625 31.78125 6.390625 
Q 39.453125 6.390625 43.28125 13.890625 
Q 47.125 21.390625 47.125 36.375 
Q 47.125 51.421875 43.28125 58.90625 
Q 39.453125 66.40625 31.78125 66.40625 
z
M 31.78125 74.21875 
Q 44.046875 74.21875 50.515625 64.515625 
Q 56.984375 54.828125 56.984375 36.375 
Q 56.984375 17.96875 50.515625 8.265625 
Q 44.046875 -1.421875 31.78125 -1.421875 
Q 19.53125 -1.421875 13.0625 8.265625 
Q 6.59375 17.96875 6.59375 36.375 
Q 6.59375 54.828125 13.0625 64.515625 
Q 19.53125 74.21875 31.78125 74.21875 
z
" id="DejaVuSans-48"/>
      <path d="M 10.6875 12.40625 
L 21 12.40625 
L 21 0 
L 10.6875 0 
z
" id="DejaVuSans-46"/>
      <path d="M 10.796875 72.90625 
L 49.515625 72.90625 
L 49.515625 64.59375 
L 19.828125 64.59375 
L 19.828125 46.734375 
Q 21.96875 47.46875 24.109375 47.828125 
Q 26.265625 48.1875 28.421875 48.1875 
Q 40.625 48.1875 47.75 41.5 
Q 54.890625 34.8125 54.890625 23.390625 
Q 54.890625 11.625 47.5625 5.09375 
Q 40.234375 -1.421875 26.90625 -1.421875 
Q 22.3125 -1.421875 17.546875 -0.640625 
Q 12.796875 0.140625 7.71875 1.703125 
L 7.71875 11.625 
Q 12.109375 9.234375 16.796875 8.0625 
Q 21.484375 6.890625 26.703125 6.890625 
Q 35.15625 6.890625 40.078125 11.328125 
Q 45.015625 15.765625 45.015625 23.390625 
Q 45.015625 31 40.078125 35.4375 
Q 35.15625 39.890625 26.703125 39.890625 
Q 22.75 39.890625 18.8125 39.015625 
Q 14.890625 38.140625 10.796875 36.28125 
z
" id="DejaVuSans-53"/>
      <path d="M 73.1875 49.21875 
L 22.796875 31.296875 
L 73.1875 13.484375 
L 73.1875 4.59375 
L 10.59375 27.296875 
L 10.59375 35.40625 
L 73.1875 58.109375 
z
" id="DejaVuSans-60"/>
      <path d="M 42.28125 54.6875 
L 40.921875 47.703125 
L 23 47.703125 
L 17.1875 18.015625 
Q 16.890625 16.359375 16.75 15.234375 
Q 16.609375 14.109375 16.609375 13.484375 
Q 16.609375 10.359375 18.484375 8.9375 
Q 20.359375 7.515625 24.515625 7.515625 
L 33.59375 7.515625 
L 32.078125 0 
L 23.484375 0 
Q 15.484375 0 11.546875 3.125 
Q 7.625 6.25 7.625 12.59375 
Q 7.625 13.71875 7.765625 15.0625 
Q 7.90625 16.40625 8.203125 18.015625 
L 14.015625 47.703125 
L 6.390625 47.703125 
L 7.8125 54.6875 
L 15.28125 54.6875 
L 18.3125 70.21875 
L 27.296875 70.21875 
L 24.3125 54.6875 
z
" id="DejaVuSans-Oblique-116"/>
     </defs>
     <g style="fill:#262626;" transform="translate(226.370313 77.97)scale(0.1 -0.1)">
      <use transform="translate(0 0.78125)" xlink:href="#DejaVuSans-8722"/>
      <use transform="translate(83.789062 0.78125)" xlink:href="#DejaVuSans-48"/>
      <use transform="translate(147.412109 0.78125)" xlink:href="#DejaVuSans-46"/>
      <use transform="translate(179.199219 0.78125)" xlink:href="#DejaVuSans-53"/>
      <use transform="translate(262.304688 0.78125)" xlink:href="#DejaVuSans-60"/>
      <use transform="translate(365.576172 0.78125)" xlink:href="#DejaVuSans-Oblique-116"/>
      <use transform="translate(424.267578 0.78125)" xlink:href="#DejaVuSans-60"/>
      <use transform="translate(527.539062 0.78125)" xlink:href="#DejaVuSans-48"/>
     </g>
    </g>
    <g id="PathCollection_5">
     <g>
      <use style="fill:#55a868;stroke:#55a868;stroke-width:0.3;" x="208.370313" xlink:href="#m09aacb9d07" y="89.490312"/>
     </g>
    </g>
    <g id="text_19">
     <!-- $0. &lt; t &lt; 0.5$ -->
     <g style="fill:#262626;" transform="translate(226.370313 92.115312)scale(0.1 -0.1)">
      <use transform="translate(0 0.78125)" xlink:href="#DejaVuSans-48"/>
      <use transform="translate(63.623047 0.78125)" xlink:href="#DejaVuSans-46"/>
      <use transform="translate(134.375 0.78125)" xlink:href="#DejaVuSans-60"/>
      <use transform="translate(237.646484 0.78125)" xlink:href="#DejaVuSans-Oblique-116"/>
      <use transform="translate(296.337891 0.78125)" xlink:href="#DejaVuSans-60"/>
      <use transform="translate(399.609375 0.78125)" xlink:href="#DejaVuSans-48"/>
      <use transform="translate(463.232422 0.78125)" xlink:href="#DejaVuSans-46"/>
      <use transform="translate(495.019531 0.78125)" xlink:href="#DejaVuSans-53"/>
     </g>
    </g>
    <g id="PathCollection_6">
     <g>
      <use style="fill:#c44e52;stroke:#c44e52;stroke-width:0.3;" x="208.370313" xlink:href="#m5eced9ad74" y="103.635625"/>
     </g>
    </g>
    <g id="text_20">
     <!-- $0.5 &lt; t &lt; 1.$ -->
     <defs>
      <path d="M 12.40625 8.296875 
L 28.515625 8.296875 
L 28.515625 63.921875 
L 10.984375 60.40625 
L 10.984375 69.390625 
L 28.421875 72.90625 
L 38.28125 72.90625 
L 38.28125 8.296875 
L 54.390625 8.296875 
L 54.390625 0 
L 12.40625 0 
z
" id="DejaVuSans-49"/>
     </defs>
     <g style="fill:#262626;" transform="translate(226.370313 106.260625)scale(0.1 -0.1)">
      <use transform="translate(0 0.78125)" xlink:href="#DejaVuSans-48"/>
      <use transform="translate(63.623047 0.78125)" xlink:href="#DejaVuSans-46"/>
      <use transform="translate(95.410156 0.78125)" xlink:href="#DejaVuSans-53"/>
      <use transform="translate(178.515625 0.78125)" xlink:href="#DejaVuSans-60"/>
      <use transform="translate(281.787109 0.78125)" xlink:href="#DejaVuSans-Oblique-116"/>
      <use transform="translate(340.478516 0.78125)" xlink:href="#DejaVuSans-60"/>
      <use transform="translate(443.75 0.78125)" xlink:href="#DejaVuSans-49"/>
     </g>
    </g>
   </g>
  </g>
 </g>
 <defs>
  <clipPath id="p65cf7d4961">
   <path d="M 447.66 199.98 
C 447.66 179.959136 443.716326 160.13295 436.054674 141.636084 
C 428.393021 123.139218 417.162388 106.331389 403.0055 92.1745 
C 388.848611 78.017612 372.040782 66.786979 353.543916 59.125326 
C 335.04705 51.463674 315.220864 47.52 295.2 47.52 
C 275.179136 47.52 255.35295 51.463674 236.856084 59.125326 
C 218.359218 66.786979 201.551389 78.017612 187.3945 92.1745 
C 173.237612 106.331389 162.006979 123.139218 154.345326 141.636084 
C 146.683674 160.13295 142.74 179.959136 142.74 199.98 
C 142.74 220.000864 146.683674 239.82705 154.345326 258.323916 
C 162.006979 276.820782 173.237612 293.628611 187.3945 307.7855 
C 201.551389 321.942388 218.359218 333.173021 236.856084 340.834674 
C 255.35295 348.496326 275.179136 352.44 295.2 352.44 
C 315.220864 352.44 335.04705 348.496326 353.543916 340.834674 
C 372.040782 333.173021 388.848611 321.942388 403.0055 307.7855 
C 417.162388 293.628611 428.393021 276.820782 436.054674 258.323916 
C 443.716326 239.82705 447.66 220.000864 447.66 199.98 
M 295.2 199.98 
C 295.2 199.98 295.2 199.98 295.2 199.98 
C 295.2 199.98 295.2 199.98 295.2 199.98 
C 295.2 199.98 295.2 199.98 295.2 199.98 
C 295.2 199.98 295.2 199.98 295.2 199.98 
C 295.2 199.98 295.2 199.98 295.2 199.98 
C 295.2 199.98 295.2 199.98 295.2 199.98 
C 295.2 199.98 295.2 199.98 295.2 199.98 
C 295.2 199.98 295.2 199.98 295.2 199.98 
C 295.2 199.98 295.2 199.98 295.2 199.98 
C 295.2 199.98 295.2 199.98 295.2 199.98 
C 295.2 199.98 295.2 199.98 295.2 199.98 
C 295.2 199.98 295.2 199.98 295.2 199.98 
C 295.2 199.98 295.2 199.98 295.2 199.98 
C 295.2 199.98 295.2 199.98 295.2 199.98 
C 295.2 199.98 295.2 199.98 295.2 199.98 
C 295.2 199.98 295.2 199.98 295.2 199.98 
M 447.66 199.98 
z
"/>
  </clipPath>
 </defs>
</svg>
