<?xml version="1.0" encoding="utf-8" standalone="no"?>
<!DOCTYPE svg PUBLIC "-//W3C//DTD SVG 1.1//EN"
  "http://www.w3.org/Graphics/SVG/1.1/DTD/svg11.dtd">
<!-- Created with matplotlib (https://matplotlib.org/) -->
<svg height="396pt" version="1.1" viewBox="0 0 576 396" width="576pt" xmlns="http://www.w3.org/2000/svg" xmlns:xlink="http://www.w3.org/1999/xlink">
 <defs>
  <style type="text/css">
*{stroke-linecap:butt;stroke-linejoin:round;}
  </style>
 </defs>
 <g id="figure_1">
  <g id="patch_1">
   <path d="M 0 396 
L 576 396 
L 576 0 
L 0 0 
z
" style="fill:#ffffff;"/>
  </g>
  <g id="axes_1">
   <g id="patch_2">
    <path d="M 447.66 199.98 
C 447.66 179.959136 443.716326 160.13295 436.054674 141.636084 
C 428.393021 123.139218 417.162388 106.331389 403.0055 92.1745 
C 388.848611 78.017612 372.040782 66.786979 353.543916 59.125326 
C 335.04705 51.463674 315.220864 47.52 295.2 47.52 
C 275.179136 47.52 255.35295 51.463674 236.856084 59.125326 
C 218.359218 66.786979 201.551389 78.017612 187.3945 92.1745 
C 173.237612 106.331389 162.006979 123.139218 154.345326 141.636084 
C 146.683674 160.13295 142.74 179.959136 142.74 199.98 
C 142.74 220.000864 146.683674 239.82705 154.345326 258.323916 
C 162.006979 276.820782 173.237612 293.628611 187.3945 307.7855 
C 201.551389 321.942388 218.359218 333.173021 236.856084 340.834674 
C 255.35295 348.496326 275.179136 352.44 295.2 352.44 
C 315.220864 352.44 335.04705 348.496326 353.543916 340.834674 
C 372.040782 333.173021 388.848611 321.942388 403.0055 307.7855 
C 417.162388 293.628611 428.393021 276.820782 436.054674 258.323916 
C 443.716326 239.82705 447.66 220.000864 447.66 199.98 
M 295.2 199.98 
C 295.2 199.98 295.2 199.98 295.2 199.98 
C 295.2 199.98 295.2 199.98 295.2 199.98 
C 295.2 199.98 295.2 199.98 295.2 199.98 
C 295.2 199.98 295.2 199.98 295.2 199.98 
C 295.2 199.98 295.2 199.98 295.2 199.98 
C 295.2 199.98 295.2 199.98 295.2 199.98 
C 295.2 199.98 295.2 199.98 295.2 199.98 
C 295.2 199.98 295.2 199.98 295.2 199.98 
C 295.2 199.98 295.2 199.98 295.2 199.98 
C 295.2 199.98 295.2 199.98 295.2 199.98 
C 295.2 199.98 295.2 199.98 295.2 199.98 
C 295.2 199.98 295.2 199.98 295.2 199.98 
C 295.2 199.98 295.2 199.98 295.2 199.98 
C 295.2 199.98 295.2 199.98 295.2 199.98 
C 295.2 199.98 295.2 199.98 295.2 199.98 
C 295.2 199.98 295.2 199.98 295.2 199.98 
M 447.66 199.98 
z
" style="fill:#eaeaf2;"/>
   </g>
   <g id="matplotlib.axis_1">
    <g id="xtick_1">
     <g id="line2d_1">
      <path clip-path="url(#p8cb3635b08)" d="M 295.2 199.98 
L 447.66 199.98 
" style="fill:none;stroke:#ffffff;stroke-linecap:round;"/>
     </g>
     <g id="text_1">
      <!-- 0° -->
      <defs>
       <path d="M 4.15625 35.296875 
Q 4.15625 48 6.765625 55.734375 
Q 9.375 63.484375 14.515625 67.671875 
Q 19.671875 71.875 27.484375 71.875 
Q 33.25 71.875 37.59375 69.546875 
Q 41.9375 67.234375 44.765625 62.859375 
Q 47.609375 58.5 49.21875 52.21875 
Q 50.828125 45.953125 50.828125 35.296875 
Q 50.828125 22.703125 48.234375 14.96875 
Q 45.65625 7.234375 40.5 3 
Q 35.359375 -1.21875 27.484375 -1.21875 
Q 17.140625 -1.21875 11.234375 6.203125 
Q 4.15625 15.140625 4.15625 35.296875 
z
M 13.1875 35.296875 
Q 13.1875 17.671875 17.3125 11.828125 
Q 21.4375 6 27.484375 6 
Q 33.546875 6 37.671875 11.859375 
Q 41.796875 17.71875 41.796875 35.296875 
Q 41.796875 52.984375 37.671875 58.78125 
Q 33.546875 64.59375 27.390625 64.59375 
Q 21.34375 64.59375 17.71875 59.46875 
Q 13.1875 52.9375 13.1875 35.296875 
z
" id="ArialMT-48"/>
       <path d="M 6.25 59.28125 
Q 6.25 64.890625 10.21875 68.84375 
Q 14.203125 72.796875 19.78125 72.796875 
Q 25.4375 72.796875 29.390625 68.84375 
Q 33.34375 64.890625 33.34375 59.28125 
Q 33.34375 53.65625 29.359375 49.671875 
Q 25.390625 45.703125 19.78125 45.703125 
Q 14.203125 45.703125 10.21875 49.65625 
Q 6.25 53.609375 6.25 59.28125 
z
M 11.578125 59.28125 
Q 11.578125 55.859375 13.984375 53.4375 
Q 16.40625 51.03125 19.828125 51.03125 
Q 23.1875 51.03125 25.609375 53.4375 
Q 28.03125 55.859375 28.03125 59.28125 
Q 28.03125 62.703125 25.609375 65.109375 
Q 23.1875 67.53125 19.828125 67.53125 
Q 16.40625 67.53125 13.984375 65.109375 
Q 11.578125 62.703125 11.578125 59.28125 
z
" id="ArialMT-176"/>
      </defs>
      <g style="fill:#262626;" transform="translate(456.880313 202.565156)scale(0.1 -0.1)">
       <use xlink:href="#ArialMT-48"/>
       <use x="55.615234" xlink:href="#ArialMT-176"/>
      </g>
     </g>
    </g>
    <g id="xtick_2">
     <g id="line2d_2">
      <path clip-path="url(#p8cb3635b08)" d="M 295.2 199.98 
L 403.0055 92.1745 
" style="fill:none;stroke:#ffffff;stroke-linecap:round;"/>
     </g>
     <g id="text_2">
      <!-- 45° -->
      <defs>
       <path d="M 32.328125 0 
L 32.328125 17.140625 
L 1.265625 17.140625 
L 1.265625 25.203125 
L 33.9375 71.578125 
L 41.109375 71.578125 
L 41.109375 25.203125 
L 50.78125 25.203125 
L 50.78125 17.140625 
L 41.109375 17.140625 
L 41.109375 0 
z
M 32.328125 25.203125 
L 32.328125 57.46875 
L 9.90625 25.203125 
z
" id="ArialMT-52"/>
       <path d="M 4.15625 18.75 
L 13.375 19.53125 
Q 14.40625 12.796875 18.140625 9.390625 
Q 21.875 6 27.15625 6 
Q 33.5 6 37.890625 10.78125 
Q 42.28125 15.578125 42.28125 23.484375 
Q 42.28125 31 38.0625 35.34375 
Q 33.84375 39.703125 27 39.703125 
Q 22.75 39.703125 19.328125 37.765625 
Q 15.921875 35.84375 13.96875 32.765625 
L 5.71875 33.84375 
L 12.640625 70.609375 
L 48.25 70.609375 
L 48.25 62.203125 
L 19.671875 62.203125 
L 15.828125 42.96875 
Q 22.265625 47.46875 29.34375 47.46875 
Q 38.71875 47.46875 45.15625 40.96875 
Q 51.609375 34.46875 51.609375 24.265625 
Q 51.609375 14.546875 45.953125 7.46875 
Q 39.0625 -1.21875 27.15625 -1.21875 
Q 17.390625 -1.21875 11.203125 4.25 
Q 5.03125 9.71875 4.15625 18.75 
z
" id="ArialMT-53"/>
      </defs>
      <g style="fill:#262626;" transform="translate(405.344839 84.860161)scale(0.1 -0.1)">
       <use xlink:href="#ArialMT-52"/>
       <use x="55.615234" xlink:href="#ArialMT-53"/>
       <use x="111.230469" xlink:href="#ArialMT-176"/>
      </g>
     </g>
    </g>
    <g id="xtick_3">
     <g id="line2d_3">
      <path clip-path="url(#p8cb3635b08)" d="M 295.2 199.98 
L 295.2 47.52 
" style="fill:none;stroke:#ffffff;stroke-linecap:round;"/>
     </g>
     <g id="text_3">
      <!-- 90° -->
      <defs>
       <path d="M 5.46875 16.546875 
L 13.921875 17.328125 
Q 14.984375 11.375 18.015625 8.6875 
Q 21.046875 6 25.78125 6 
Q 29.828125 6 32.875 7.859375 
Q 35.9375 9.71875 37.890625 12.8125 
Q 39.84375 15.921875 41.15625 21.1875 
Q 42.484375 26.46875 42.484375 31.9375 
Q 42.484375 32.515625 42.4375 33.6875 
Q 39.796875 29.5 35.234375 26.875 
Q 30.671875 24.265625 25.34375 24.265625 
Q 16.453125 24.265625 10.296875 30.703125 
Q 4.15625 37.15625 4.15625 47.703125 
Q 4.15625 58.59375 10.578125 65.234375 
Q 17 71.875 26.65625 71.875 
Q 33.640625 71.875 39.421875 68.109375 
Q 45.21875 64.359375 48.21875 57.390625 
Q 51.21875 50.4375 51.21875 37.25 
Q 51.21875 23.53125 48.234375 15.40625 
Q 45.265625 7.28125 39.375 3.03125 
Q 33.5 -1.21875 25.59375 -1.21875 
Q 17.1875 -1.21875 11.859375 3.4375 
Q 6.546875 8.109375 5.46875 16.546875 
z
M 41.453125 48.140625 
Q 41.453125 55.71875 37.421875 60.15625 
Q 33.40625 64.59375 27.734375 64.59375 
Q 21.875 64.59375 17.53125 59.8125 
Q 13.1875 55.03125 13.1875 47.40625 
Q 13.1875 40.578125 17.3125 36.296875 
Q 21.4375 32.03125 27.484375 32.03125 
Q 33.59375 32.03125 37.515625 36.296875 
Q 41.453125 40.578125 41.453125 48.140625 
z
" id="ArialMT-57"/>
      </defs>
      <g style="fill:#262626;" transform="translate(287.639844 36.105156)scale(0.1 -0.1)">
       <use xlink:href="#ArialMT-57"/>
       <use x="55.615234" xlink:href="#ArialMT-48"/>
       <use x="111.230469" xlink:href="#ArialMT-176"/>
      </g>
     </g>
    </g>
    <g id="xtick_4">
     <g id="line2d_4">
      <path clip-path="url(#p8cb3635b08)" d="M 295.2 199.98 
L 187.3945 92.1745 
" style="fill:none;stroke:#ffffff;stroke-linecap:round;"/>
     </g>
     <g id="text_4">
      <!-- 135° -->
      <defs>
       <path d="M 37.25 0 
L 28.46875 0 
L 28.46875 56 
Q 25.296875 52.984375 20.140625 49.953125 
Q 14.984375 46.921875 10.890625 45.40625 
L 10.890625 53.90625 
Q 18.265625 57.375 23.78125 62.296875 
Q 29.296875 67.234375 31.59375 71.875 
L 37.25 71.875 
z
" id="ArialMT-49"/>
       <path d="M 4.203125 18.890625 
L 12.984375 20.0625 
Q 14.5 12.59375 18.140625 9.296875 
Q 21.78125 6 27 6 
Q 33.203125 6 37.46875 10.296875 
Q 41.75 14.59375 41.75 20.953125 
Q 41.75 27 37.796875 30.921875 
Q 33.84375 34.859375 27.734375 34.859375 
Q 25.25 34.859375 21.53125 33.890625 
L 22.515625 41.609375 
Q 23.390625 41.5 23.921875 41.5 
Q 29.546875 41.5 34.03125 44.421875 
Q 38.53125 47.359375 38.53125 53.46875 
Q 38.53125 58.296875 35.25 61.46875 
Q 31.984375 64.65625 26.8125 64.65625 
Q 21.6875 64.65625 18.265625 61.421875 
Q 14.84375 58.203125 13.875 51.765625 
L 5.078125 53.328125 
Q 6.6875 62.15625 12.390625 67.015625 
Q 18.109375 71.875 26.609375 71.875 
Q 32.46875 71.875 37.390625 69.359375 
Q 42.328125 66.84375 44.9375 62.5 
Q 47.5625 58.15625 47.5625 53.265625 
Q 47.5625 48.640625 45.0625 44.828125 
Q 42.578125 41.015625 37.703125 38.765625 
Q 44.046875 37.3125 47.5625 32.6875 
Q 51.078125 28.078125 51.078125 21.140625 
Q 51.078125 11.765625 44.234375 5.25 
Q 37.40625 -1.265625 26.953125 -1.265625 
Q 17.53125 -1.265625 11.296875 4.34375 
Q 5.078125 9.96875 4.203125 18.890625 
z
" id="ArialMT-51"/>
      </defs>
      <g style="fill:#262626;" transform="translate(167.15438 84.860161)scale(0.1 -0.1)">
       <use xlink:href="#ArialMT-49"/>
       <use x="55.615234" xlink:href="#ArialMT-51"/>
       <use x="111.230469" xlink:href="#ArialMT-53"/>
       <use x="166.845703" xlink:href="#ArialMT-176"/>
      </g>
     </g>
    </g>
    <g id="xtick_5">
     <g id="line2d_5">
      <path clip-path="url(#p8cb3635b08)" d="M 295.2 199.98 
L 142.74 199.98 
" style="fill:none;stroke:#ffffff;stroke-linecap:round;"/>
     </g>
     <g id="text_5">
      <!-- 180° -->
      <defs>
       <path d="M 17.671875 38.8125 
Q 12.203125 40.828125 9.5625 44.53125 
Q 6.9375 48.25 6.9375 53.421875 
Q 6.9375 61.234375 12.546875 66.546875 
Q 18.171875 71.875 27.484375 71.875 
Q 36.859375 71.875 42.578125 66.421875 
Q 48.296875 60.984375 48.296875 53.171875 
Q 48.296875 48.1875 45.671875 44.5 
Q 43.0625 40.828125 37.75 38.8125 
Q 44.34375 36.671875 47.78125 31.875 
Q 51.21875 27.09375 51.21875 20.453125 
Q 51.21875 11.28125 44.71875 5.03125 
Q 38.234375 -1.21875 27.640625 -1.21875 
Q 17.046875 -1.21875 10.546875 5.046875 
Q 4.046875 11.328125 4.046875 20.703125 
Q 4.046875 27.6875 7.59375 32.390625 
Q 11.140625 37.109375 17.671875 38.8125 
z
M 15.921875 53.71875 
Q 15.921875 48.640625 19.1875 45.40625 
Q 22.46875 42.1875 27.6875 42.1875 
Q 32.765625 42.1875 36.015625 45.375 
Q 39.265625 48.578125 39.265625 53.21875 
Q 39.265625 58.0625 35.90625 61.359375 
Q 32.5625 64.65625 27.59375 64.65625 
Q 22.5625 64.65625 19.234375 61.421875 
Q 15.921875 58.203125 15.921875 53.71875 
z
M 13.09375 20.65625 
Q 13.09375 16.890625 14.875 13.375 
Q 16.65625 9.859375 20.171875 7.921875 
Q 23.6875 6 27.734375 6 
Q 34.03125 6 38.125 10.046875 
Q 42.234375 14.109375 42.234375 20.359375 
Q 42.234375 26.703125 38.015625 30.859375 
Q 33.796875 35.015625 27.4375 35.015625 
Q 21.234375 35.015625 17.15625 30.90625 
Q 13.09375 26.8125 13.09375 20.65625 
z
" id="ArialMT-56"/>
      </defs>
      <g style="fill:#262626;" transform="translate(118.399375 202.565156)scale(0.1 -0.1)">
       <use xlink:href="#ArialMT-49"/>
       <use x="55.615234" xlink:href="#ArialMT-56"/>
       <use x="111.230469" xlink:href="#ArialMT-48"/>
       <use x="166.845703" xlink:href="#ArialMT-176"/>
      </g>
     </g>
    </g>
    <g id="xtick_6">
     <g id="line2d_6">
      <path clip-path="url(#p8cb3635b08)" d="M 295.2 199.98 
L 187.3945 307.7855 
" style="fill:none;stroke:#ffffff;stroke-linecap:round;"/>
     </g>
     <g id="text_6">
      <!-- 225° -->
      <defs>
       <path d="M 50.34375 8.453125 
L 50.34375 0 
L 3.03125 0 
Q 2.9375 3.171875 4.046875 6.109375 
Q 5.859375 10.9375 9.828125 15.625 
Q 13.8125 20.3125 21.34375 26.46875 
Q 33.015625 36.03125 37.109375 41.625 
Q 41.21875 47.21875 41.21875 52.203125 
Q 41.21875 57.421875 37.46875 61 
Q 33.734375 64.59375 27.734375 64.59375 
Q 21.390625 64.59375 17.578125 60.78125 
Q 13.765625 56.984375 13.71875 50.25 
L 4.6875 51.171875 
Q 5.609375 61.28125 11.65625 66.578125 
Q 17.71875 71.875 27.9375 71.875 
Q 38.234375 71.875 44.234375 66.15625 
Q 50.25 60.453125 50.25 52 
Q 50.25 47.703125 48.484375 43.546875 
Q 46.734375 39.40625 42.65625 34.8125 
Q 38.578125 30.21875 29.109375 22.21875 
Q 21.1875 15.578125 18.9375 13.203125 
Q 16.703125 10.84375 15.234375 8.453125 
z
" id="ArialMT-50"/>
      </defs>
      <g style="fill:#262626;" transform="translate(167.15438 320.270151)scale(0.1 -0.1)">
       <use xlink:href="#ArialMT-50"/>
       <use x="55.615234" xlink:href="#ArialMT-50"/>
       <use x="111.230469" xlink:href="#ArialMT-53"/>
       <use x="166.845703" xlink:href="#ArialMT-176"/>
      </g>
     </g>
    </g>
    <g id="xtick_7">
     <g id="line2d_7">
      <path clip-path="url(#p8cb3635b08)" d="M 295.2 199.98 
L 295.2 352.44 
" style="fill:none;stroke:#ffffff;stroke-linecap:round;"/>
     </g>
     <g id="text_7">
      <!-- 270° -->
      <defs>
       <path d="M 4.734375 62.203125 
L 4.734375 70.65625 
L 51.078125 70.65625 
L 51.078125 63.8125 
Q 44.234375 56.546875 37.515625 44.484375 
Q 30.8125 32.421875 27.15625 19.671875 
Q 24.515625 10.6875 23.78125 0 
L 14.75 0 
Q 14.890625 8.453125 18.0625 20.40625 
Q 21.234375 32.375 27.171875 43.484375 
Q 33.109375 54.59375 39.796875 62.203125 
z
" id="ArialMT-55"/>
      </defs>
      <g style="fill:#262626;" transform="translate(284.859375 369.025156)scale(0.1 -0.1)">
       <use xlink:href="#ArialMT-50"/>
       <use x="55.615234" xlink:href="#ArialMT-55"/>
       <use x="111.230469" xlink:href="#ArialMT-48"/>
       <use x="166.845703" xlink:href="#ArialMT-176"/>
      </g>
     </g>
    </g>
    <g id="xtick_8">
     <g id="line2d_8">
      <path clip-path="url(#p8cb3635b08)" d="M 295.2 199.98 
L 403.0055 307.7855 
" style="fill:none;stroke:#ffffff;stroke-linecap:round;"/>
     </g>
     <g id="text_8">
      <!-- 315° -->
      <g style="fill:#262626;" transform="translate(402.56437 320.270151)scale(0.1 -0.1)">
       <use xlink:href="#ArialMT-51"/>
       <use x="55.615234" xlink:href="#ArialMT-49"/>
       <use x="111.230469" xlink:href="#ArialMT-53"/>
       <use x="166.845703" xlink:href="#ArialMT-176"/>
      </g>
     </g>
    </g>
   </g>
   <g id="matplotlib.axis_2">
    <g id="ytick_1">
     <g id="line2d_9">
      <path clip-path="url(#p8cb3635b08)" d="M 316.418109 199.98 
L 316.301874 197.762104 
L 315.954443 195.568507 
L 315.379621 193.423244 
L 314.583708 191.349817 
L 313.575422 189.370945 
L 312.365811 187.508308 
L 310.968128 185.782314 
L 309.397686 184.211872 
L 307.671692 182.814189 
L 305.809055 181.604578 
L 303.830183 180.596292 
L 301.756756 179.800379 
L 299.611493 179.225557 
L 297.417896 178.878126 
L 295.2 178.761891 
L 292.982104 178.878126 
L 290.788507 179.225557 
L 288.643244 179.800379 
L 286.569817 180.596292 
L 284.590945 181.604578 
L 282.728308 182.814189 
L 281.002314 184.211872 
L 279.431872 185.782314 
L 278.034189 187.508308 
L 276.824578 189.370945 
L 275.816292 191.349817 
L 275.020379 193.423244 
L 274.445557 195.568507 
L 274.098126 197.762104 
L 273.981891 199.98 
L 274.098126 202.197896 
L 274.445557 204.391493 
L 275.020379 206.536756 
L 275.816292 208.610183 
L 276.824578 210.589055 
L 278.034189 212.451692 
L 279.431872 214.177686 
L 281.002314 215.748128 
L 282.728308 217.145811 
L 284.590945 218.355422 
L 286.569817 219.363708 
L 288.643244 220.159621 
L 290.788507 220.734443 
L 292.982104 221.081874 
L 295.2 221.198109 
L 297.417896 221.081874 
L 299.611493 220.734443 
L 301.756756 220.159621 
L 303.830183 219.363708 
L 305.809055 218.355422 
L 307.671692 217.145811 
L 309.397686 215.748128 
L 310.968128 214.177686 
L 312.365811 212.451692 
L 313.575422 210.589055 
L 314.583708 208.610183 
L 315.379621 206.536756 
L 315.954443 204.391493 
L 316.301874 202.197896 
L 316.418109 199.98 
L 316.418109 199.98 
" style="fill:none;stroke:#ffffff;stroke-linecap:round;"/>
     </g>
     <g id="text_9">
      <!-- 0.1 -->
      <defs>
       <path d="M 9.078125 0 
L 9.078125 10.015625 
L 19.09375 10.015625 
L 19.09375 0 
z
" id="ArialMT-46"/>
      </defs>
      <g style="fill:#262626;" transform="translate(314.802977 189.872681)scale(0.1 -0.1)">
       <use xlink:href="#ArialMT-48"/>
       <use x="55.615234" xlink:href="#ArialMT-46"/>
       <use x="83.398438" xlink:href="#ArialMT-49"/>
      </g>
     </g>
    </g>
    <g id="ytick_2">
     <g id="line2d_10">
      <path clip-path="url(#p8cb3635b08)" d="M 337.636219 199.98 
L 337.532846 197.019799 
L 337.223233 194.07402 
L 336.708886 191.157014 
L 335.992312 188.282993 
L 335.077002 185.465958 
L 333.967415 182.719635 
L 332.668957 180.057402 
L 331.187955 177.49223 
L 329.531622 175.036616 
L 327.70803 172.702524 
L 325.726061 170.501325 
L 323.595373 168.443743 
L 321.326345 166.539803 
L 318.930032 164.79878 
L 316.418109 163.229156 
L 313.802814 161.838579 
L 311.096887 160.633823 
L 308.313513 159.620757 
L 305.466251 158.804318 
L 302.568972 158.188483 
L 299.635793 157.776251 
L 296.681003 157.569632 
L 293.718997 157.569632 
L 290.764207 157.776251 
L 287.831028 158.188483 
L 284.933749 158.804318 
L 282.086487 159.620757 
L 279.303113 160.633823 
L 276.597186 161.838579 
L 273.981891 163.229156 
L 271.469968 164.79878 
L 269.073655 166.539803 
L 266.804627 168.443743 
L 264.673939 170.501325 
L 262.69197 172.702524 
L 260.868378 175.036616 
L 259.212045 177.49223 
L 257.731043 180.057402 
L 256.432585 182.719635 
L 255.322998 185.465958 
L 254.407688 188.282993 
L 253.691114 191.157014 
L 253.176767 194.07402 
L 252.867154 197.019799 
L 252.763781 199.98 
L 252.867154 202.940201 
L 253.176767 205.88598 
L 253.691114 208.802986 
L 254.407688 211.677007 
L 255.322998 214.494042 
L 256.432585 217.240365 
L 257.731043 219.902598 
L 259.212045 222.46777 
L 260.868378 224.923384 
L 262.69197 227.257476 
L 264.673939 229.458675 
L 266.804627 231.516257 
L 269.073655 233.420197 
L 271.469968 235.16122 
L 273.981891 236.730844 
L 276.597186 238.121421 
L 279.303113 239.326177 
L 282.086487 240.339243 
L 284.933749 241.155682 
L 287.831028 241.771517 
L 290.764207 242.183749 
L 293.718997 242.390368 
L 296.681003 242.390368 
L 299.635793 242.183749 
L 302.568972 241.771517 
L 305.466251 241.155682 
L 308.313513 240.339243 
L 311.096887 239.326177 
L 313.802814 238.121421 
L 316.418109 236.730844 
L 318.930032 235.16122 
L 321.326345 233.420197 
L 323.595373 231.516257 
L 325.726061 229.458675 
L 327.70803 227.257476 
L 329.531622 224.923384 
L 331.187955 222.46777 
L 332.668957 219.902598 
L 333.967415 217.240365 
L 335.077002 214.494042 
L 335.992312 211.677007 
L 336.708886 208.802986 
L 337.223233 205.88598 
L 337.532846 202.940201 
L 337.636219 199.98 
L 337.636219 199.98 
" style="fill:none;stroke:#ffffff;stroke-linecap:round;"/>
     </g>
     <g id="text_10">
      <!-- 0.2 -->
      <g style="fill:#262626;" transform="translate(334.405954 181.752862)scale(0.1 -0.1)">
       <use xlink:href="#ArialMT-48"/>
       <use x="55.615234" xlink:href="#ArialMT-46"/>
       <use x="83.398438" xlink:href="#ArialMT-50"/>
      </g>
     </g>
    </g>
    <g id="ytick_3">
     <g id="line2d_11">
      <path clip-path="url(#p8cb3635b08)" d="M 358.854328 199.98 
L 358.69927 195.539699 
L 358.234849 191.12103 
L 357.463329 186.745521 
L 356.388468 182.434489 
L 355.015503 178.208937 
L 353.351123 174.089452 
L 351.403436 170.096103 
L 349.181932 166.248345 
L 346.697433 162.564925 
L 343.962045 159.063786 
L 340.989092 155.761988 
L 337.793059 152.675615 
L 334.389518 149.819705 
L 330.795049 147.20817 
L 327.027164 144.853735 
L 323.104221 142.767869 
L 319.045331 140.960734 
L 314.870269 139.441136 
L 310.599376 138.216477 
L 306.253458 137.292724 
L 301.853689 136.674377 
L 297.421504 136.364448 
L 292.978496 136.364448 
L 288.546311 136.674377 
L 284.146542 137.292724 
L 279.800624 138.216477 
L 275.529731 139.441136 
L 271.354669 140.960734 
L 267.295779 142.767869 
L 263.372836 144.853735 
L 259.604951 147.20817 
L 256.010482 149.819705 
L 252.606941 152.675615 
L 249.410908 155.761988 
L 246.437955 159.063786 
L 243.702567 162.564925 
L 241.218068 166.248345 
L 238.996564 170.096103 
L 237.048877 174.089452 
L 235.384497 178.208937 
L 234.011532 182.434489 
L 232.936671 186.745521 
L 232.165151 191.12103 
L 231.70073 195.539699 
L 231.545672 199.98 
L 231.70073 204.420301 
L 232.165151 208.83897 
L 232.936671 213.214479 
L 234.011532 217.525511 
L 235.384497 221.751063 
L 237.048877 225.870548 
L 238.996564 229.863897 
L 241.218068 233.711655 
L 243.702567 237.395075 
L 246.437955 240.896214 
L 249.410908 244.198012 
L 252.606941 247.284385 
L 256.010482 250.140295 
L 259.604951 252.75183 
L 263.372836 255.106265 
L 267.295779 257.192131 
L 271.354669 258.999266 
L 275.529731 260.518864 
L 279.800624 261.743523 
L 284.146542 262.667276 
L 288.546311 263.285623 
L 292.978496 263.595552 
L 297.421504 263.595552 
L 301.853689 263.285623 
L 306.253458 262.667276 
L 310.599376 261.743523 
L 314.870269 260.518864 
L 319.045331 258.999266 
L 323.104221 257.192131 
L 327.027164 255.106265 
L 330.795049 252.75183 
L 334.389518 250.140295 
L 337.793059 247.284385 
L 340.989092 244.198012 
L 343.962045 240.896214 
L 346.697433 237.395075 
L 349.181932 233.711655 
L 351.403436 229.863897 
L 353.351123 225.870548 
L 355.015503 221.751063 
L 356.388468 217.525511 
L 357.463329 213.214479 
L 358.234849 208.83897 
L 358.69927 204.420301 
L 358.854328 199.98 
L 358.854328 199.98 
" style="fill:none;stroke:#ffffff;stroke-linecap:round;"/>
     </g>
     <g id="text_11">
      <!-- 0.3 -->
      <g style="fill:#262626;" transform="translate(354.008931 173.633043)scale(0.1 -0.1)">
       <use xlink:href="#ArialMT-48"/>
       <use x="55.615234" xlink:href="#ArialMT-46"/>
       <use x="83.398438" xlink:href="#ArialMT-51"/>
      </g>
     </g>
    </g>
    <g id="ytick_4">
     <g id="line2d_12">
      <path clip-path="url(#p8cb3635b08)" d="M 380.072438 199.98 
L 379.865693 194.059598 
L 379.246465 188.16804 
L 378.217771 182.334028 
L 376.784624 176.585986 
L 374.954004 170.951917 
L 372.73483 165.45927 
L 370.137915 160.134804 
L 367.175909 155.00446 
L 363.863245 150.093233 
L 360.216059 145.425049 
L 356.252123 141.022651 
L 351.990746 136.907487 
L 347.45269 133.099606 
L 342.660065 129.61756 
L 337.636219 126.478313 
L 332.405628 123.697158 
L 326.993775 121.287646 
L 321.427026 119.261515 
L 315.732501 117.628636 
L 309.937944 116.396965 
L 304.071586 115.572502 
L 298.162005 115.159264 
L 292.237995 115.159264 
L 286.328414 115.572502 
L 280.462056 116.396965 
L 274.667499 117.628636 
L 268.972974 119.261515 
L 263.406225 121.287646 
L 257.994372 123.697158 
L 252.763781 126.478313 
L 247.739935 129.61756 
L 242.94731 133.099606 
L 238.409254 136.907487 
L 234.147877 141.022651 
L 230.183941 145.425049 
L 226.536755 150.093233 
L 223.224091 155.00446 
L 220.262085 160.134804 
L 217.66517 165.45927 
L 215.445996 170.951917 
L 213.615376 176.585986 
L 212.182229 182.334028 
L 211.153535 188.16804 
L 210.534307 194.059598 
L 210.327562 199.98 
L 210.534307 205.900402 
L 211.153535 211.79196 
L 212.182229 217.625972 
L 213.615376 223.374014 
L 215.445996 229.008083 
L 217.66517 234.50073 
L 220.262085 239.825196 
L 223.224091 244.95554 
L 226.536755 249.866767 
L 230.183941 254.534951 
L 234.147877 258.937349 
L 238.409254 263.052513 
L 242.94731 266.860394 
L 247.739935 270.34244 
L 252.763781 273.481687 
L 257.994372 276.262842 
L 263.406225 278.672354 
L 268.972974 280.698485 
L 274.667499 282.331364 
L 280.462056 283.563035 
L 286.328414 284.387498 
L 292.237995 284.800736 
L 298.162005 284.800736 
L 304.071586 284.387498 
L 309.937944 283.563035 
L 315.732501 282.331364 
L 321.427026 280.698485 
L 326.993775 278.672354 
L 332.405628 276.262842 
L 337.636219 273.481687 
L 342.660065 270.34244 
L 347.45269 266.860394 
L 351.990746 263.052513 
L 356.252123 258.937349 
L 360.216059 254.534951 
L 363.863245 249.866767 
L 367.175909 244.95554 
L 370.137915 239.825196 
L 372.73483 234.50073 
L 374.954004 229.008083 
L 376.784624 223.374014 
L 378.217771 217.625972 
L 379.246465 211.79196 
L 379.865693 205.900402 
L 380.072438 199.98 
L 380.072438 199.98 
" style="fill:none;stroke:#ffffff;stroke-linecap:round;"/>
     </g>
     <g id="text_12">
      <!-- 0.4 -->
      <g style="fill:#262626;" transform="translate(373.611908 165.513224)scale(0.1 -0.1)">
       <use xlink:href="#ArialMT-48"/>
       <use x="55.615234" xlink:href="#ArialMT-46"/>
       <use x="83.398438" xlink:href="#ArialMT-52"/>
      </g>
     </g>
    </g>
    <g id="ytick_5">
     <g id="line2d_13">
      <path clip-path="url(#p8cb3635b08)" d="M 401.290547 199.98 
L 401.22592 196.277493 
L 401.032116 192.579498 
L 400.709372 188.890518 
L 400.258081 185.21505 
L 399.678794 181.55757 
L 398.972214 177.922535 
L 398.139205 174.314374 
L 397.180779 170.737482 
L 396.098106 167.196218 
L 394.892504 163.694896 
L 393.565443 160.237781 
L 392.118538 156.829087 
L 390.553552 153.472965 
L 388.872393 150.173505 
L 387.077109 146.934726 
L 385.169887 143.760575 
L 383.15305 140.654919 
L 381.029056 137.621541 
L 378.800492 134.664137 
L 376.470074 131.786311 
L 374.040641 128.991568 
L 371.515153 126.283313 
L 368.896687 123.664847 
L 366.188432 121.139359 
L 363.393689 118.709926 
L 360.515863 116.379508 
L 357.558459 114.150944 
L 354.525081 112.02695 
L 351.419425 110.010113 
L 348.245274 108.102891 
L 345.006495 106.307607 
L 341.707035 104.626448 
L 338.350913 103.061462 
L 334.942219 101.614557 
L 331.485104 100.287496 
L 327.983782 99.081894 
L 324.442518 97.999221 
L 320.865626 97.040795 
L 317.257465 96.207786 
L 313.62243 95.501206 
L 309.96495 94.921919 
L 306.289482 94.470628 
L 302.600502 94.147884 
L 298.902507 93.95408 
L 295.2 93.889453 
L 291.497493 93.95408 
L 287.799498 94.147884 
L 284.110518 94.470628 
L 280.43505 94.921919 
L 276.77757 95.501206 
L 273.142535 96.207786 
L 269.534374 97.040795 
L 265.957482 97.999221 
L 262.416218 99.081894 
L 258.914896 100.287496 
L 255.457781 101.614557 
L 252.049087 103.061462 
L 248.692965 104.626448 
L 245.393505 106.307607 
L 242.154726 108.102891 
L 238.980575 110.010113 
L 235.874919 112.02695 
L 232.841541 114.150944 
L 229.884137 116.379508 
L 227.006311 118.709926 
L 224.211568 121.139359 
L 221.503313 123.664847 
L 218.884847 126.283313 
L 216.359359 128.991568 
L 213.929926 131.786311 
L 211.599508 134.664137 
L 209.370944 137.621541 
L 207.24695 140.654919 
L 205.230113 143.760575 
L 203.322891 146.934726 
L 201.527607 150.173505 
L 199.846448 153.472965 
L 198.281462 156.829087 
L 196.834557 160.237781 
L 195.507496 163.694896 
L 194.301894 167.196218 
L 193.219221 170.737482 
L 192.260795 174.314374 
L 191.427786 177.922535 
L 190.721206 181.55757 
L 190.141919 185.21505 
L 189.690628 188.890518 
L 189.367884 192.579498 
L 189.17408 196.277493 
L 189.109453 199.98 
L 189.17408 203.682507 
L 189.367884 207.380502 
L 189.690628 211.069482 
L 190.141919 214.74495 
L 190.721206 218.40243 
L 191.427786 222.037465 
L 192.260795 225.645626 
L 193.219221 229.222518 
L 194.301894 232.763782 
L 195.507496 236.265104 
L 196.834557 239.722219 
L 198.281462 243.130913 
L 199.846448 246.487035 
L 201.527607 249.786495 
L 203.322891 253.025274 
L 205.230113 256.199425 
L 207.24695 259.305081 
L 209.370944 262.338459 
L 211.599508 265.295863 
L 213.929926 268.173689 
L 216.359359 270.968432 
L 218.884847 273.676687 
L 221.503313 276.295153 
L 224.211568 278.820641 
L 227.006311 281.250074 
L 229.884137 283.580492 
L 232.841541 285.809056 
L 235.874919 287.93305 
L 238.980575 289.949887 
L 242.154726 291.857109 
L 245.393505 293.652393 
L 248.692965 295.333552 
L 252.049087 296.898538 
L 255.457781 298.345443 
L 258.914896 299.672504 
L 262.416218 300.878106 
L 265.957482 301.960779 
L 269.534374 302.919205 
L 273.142535 303.752214 
L 276.77757 304.458794 
L 280.43505 305.038081 
L 284.110518 305.489372 
L 287.799498 305.812116 
L 291.497493 306.00592 
L 295.2 306.070547 
L 298.902507 306.00592 
L 302.600502 305.812116 
L 306.289482 305.489372 
L 309.96495 305.038081 
L 313.62243 304.458794 
L 317.257465 303.752214 
L 320.865626 302.919205 
L 324.442518 301.960779 
L 327.983782 300.878106 
L 331.485104 299.672504 
L 334.942219 298.345443 
L 338.350913 296.898538 
L 341.707035 295.333552 
L 345.006495 293.652393 
L 348.245274 291.857109 
L 351.419425 289.949887 
L 354.525081 287.93305 
L 357.558459 285.809056 
L 360.515863 283.580492 
L 363.393689 281.250074 
L 366.188432 278.820641 
L 368.896687 276.295153 
L 371.515153 273.676687 
L 374.040641 270.968432 
L 376.470074 268.173689 
L 378.800492 265.295863 
L 381.029056 262.338459 
L 383.15305 259.305081 
L 385.169887 256.199425 
L 387.077109 253.025274 
L 388.872393 249.786495 
L 390.553552 246.487035 
L 392.118538 243.130913 
L 393.565443 239.722219 
L 394.892504 236.265104 
L 396.098106 232.763782 
L 397.180779 229.222518 
L 398.139205 225.645626 
L 398.972214 222.037465 
L 399.678794 218.40243 
L 400.258081 214.74495 
L 400.709372 211.069482 
L 401.032116 207.380502 
L 401.22592 203.682507 
L 401.290547 199.98 
L 401.290547 199.98 
" style="fill:none;stroke:#ffffff;stroke-linecap:round;"/>
     </g>
     <g id="text_13">
      <!-- 0.5 -->
      <g style="fill:#262626;" transform="translate(393.214885 157.393405)scale(0.1 -0.1)">
       <use xlink:href="#ArialMT-48"/>
       <use x="55.615234" xlink:href="#ArialMT-46"/>
       <use x="83.398438" xlink:href="#ArialMT-53"/>
      </g>
     </g>
    </g>
    <g id="ytick_6">
     <g id="line2d_14">
      <path clip-path="url(#p8cb3635b08)" d="M 422.508657 199.98 
L 422.431104 195.536992 
L 422.198539 191.099397 
L 421.811247 186.672622 
L 421.269698 182.262059 
L 420.574552 177.873084 
L 419.726657 173.511042 
L 418.727046 169.181248 
L 417.576935 164.888978 
L 416.277728 160.639462 
L 414.831005 156.437875 
L 413.238531 152.289338 
L 411.502245 148.198904 
L 409.624263 144.171558 
L 407.606872 140.212206 
L 405.452531 136.325672 
L 403.163864 132.51669 
L 400.74366 128.789903 
L 398.194867 125.149849 
L 395.520591 121.600965 
L 392.724089 118.147573 
L 389.80877 114.793881 
L 386.778184 111.543976 
L 383.636024 108.401816 
L 380.386119 105.37123 
L 377.032427 102.455911 
L 373.579035 99.659409 
L 370.030151 96.985133 
L 366.390097 94.43634 
L 362.66331 92.016136 
L 358.854328 89.727469 
L 354.967794 87.573128 
L 351.008442 85.555737 
L 346.981096 83.677755 
L 342.890662 81.941469 
L 338.742125 80.348995 
L 334.540538 78.902272 
L 330.291022 77.603065 
L 325.998752 76.452954 
L 321.668958 75.453343 
L 317.306916 74.605448 
L 312.917941 73.910302 
L 308.507378 73.368753 
L 304.080603 72.981461 
L 299.643008 72.748896 
L 295.2 72.671343 
L 290.756992 72.748896 
L 286.319397 72.981461 
L 281.892622 73.368753 
L 277.482059 73.910302 
L 273.093084 74.605448 
L 268.731042 75.453343 
L 264.401248 76.452954 
L 260.108978 77.603065 
L 255.859462 78.902272 
L 251.657875 80.348995 
L 247.509338 81.941469 
L 243.418904 83.677755 
L 239.391558 85.555737 
L 235.432206 87.573128 
L 231.545672 89.727469 
L 227.73669 92.016136 
L 224.009903 94.43634 
L 220.369849 96.985133 
L 216.820965 99.659409 
L 213.367573 102.455911 
L 210.013881 105.37123 
L 206.763976 108.401816 
L 203.621816 111.543976 
L 200.59123 114.793881 
L 197.675911 118.147573 
L 194.879409 121.600965 
L 192.205133 125.149849 
L 189.65634 128.789903 
L 187.236136 132.51669 
L 184.947469 136.325672 
L 182.793128 140.212206 
L 180.775737 144.171558 
L 178.897755 148.198904 
L 177.161469 152.289338 
L 175.568995 156.437875 
L 174.122272 160.639462 
L 172.823065 164.888978 
L 171.672954 169.181248 
L 170.673343 173.511042 
L 169.825448 177.873084 
L 169.130302 182.262059 
L 168.588753 186.672622 
L 168.201461 191.099397 
L 167.968896 195.536992 
L 167.891343 199.98 
L 167.968896 204.423008 
L 168.201461 208.860603 
L 168.588753 213.287378 
L 169.130302 217.697941 
L 169.825448 222.086916 
L 170.673343 226.448958 
L 171.672954 230.778752 
L 172.823065 235.071022 
L 174.122272 239.320538 
L 175.568995 243.522125 
L 177.161469 247.670662 
L 178.897755 251.761096 
L 180.775737 255.788442 
L 182.793128 259.747794 
L 184.947469 263.634328 
L 187.236136 267.44331 
L 189.65634 271.170097 
L 192.205133 274.810151 
L 194.879409 278.359035 
L 197.675911 281.812427 
L 200.59123 285.166119 
L 203.621816 288.416024 
L 206.763976 291.558184 
L 210.013881 294.58877 
L 213.367573 297.504089 
L 216.820965 300.300591 
L 220.369849 302.974867 
L 224.009903 305.52366 
L 227.73669 307.943864 
L 231.545672 310.232531 
L 235.432206 312.386872 
L 239.391558 314.404263 
L 243.418904 316.282245 
L 247.509338 318.018531 
L 251.657875 319.611005 
L 255.859462 321.057728 
L 260.108978 322.356935 
L 264.401248 323.507046 
L 268.731042 324.506657 
L 273.093084 325.354552 
L 277.482059 326.049698 
L 281.892622 326.591247 
L 286.319397 326.978539 
L 290.756992 327.211104 
L 295.2 327.288657 
L 299.643008 327.211104 
L 304.080603 326.978539 
L 308.507378 326.591247 
L 312.917941 326.049698 
L 317.306916 325.354552 
L 321.668958 324.506657 
L 325.998752 323.507046 
L 330.291022 322.356935 
L 334.540538 321.057728 
L 338.742125 319.611005 
L 342.890662 318.018531 
L 346.981096 316.282245 
L 351.008442 314.404263 
L 354.967794 312.386872 
L 358.854328 310.232531 
L 362.66331 307.943864 
L 366.390097 305.52366 
L 370.030151 302.974867 
L 373.579035 300.300591 
L 377.032427 297.504089 
L 380.386119 294.58877 
L 383.636024 291.558184 
L 386.778184 288.416024 
L 389.80877 285.166119 
L 392.724089 281.812427 
L 395.520591 278.359035 
L 398.194867 274.810151 
L 400.74366 271.170097 
L 403.163864 267.44331 
L 405.452531 263.634328 
L 407.606872 259.747794 
L 409.624263 255.788442 
L 411.502245 251.761096 
L 413.238531 247.670662 
L 414.831005 243.522125 
L 416.277728 239.320538 
L 417.576935 235.071022 
L 418.727046 230.778752 
L 419.726657 226.448958 
L 420.574552 222.086916 
L 421.269698 217.697941 
L 421.811247 213.287378 
L 422.198539 208.860603 
L 422.431104 204.423008 
L 422.508657 199.98 
L 422.508657 199.98 
" style="fill:none;stroke:#ffffff;stroke-linecap:round;"/>
     </g>
     <g id="text_14">
      <!-- 0.6 -->
      <defs>
       <path d="M 49.75 54.046875 
L 41.015625 53.375 
Q 39.84375 58.546875 37.703125 60.890625 
Q 34.125 64.65625 28.90625 64.65625 
Q 24.703125 64.65625 21.53125 62.3125 
Q 17.390625 59.28125 14.984375 53.46875 
Q 12.59375 47.65625 12.5 36.921875 
Q 15.671875 41.75 20.265625 44.09375 
Q 24.859375 46.4375 29.890625 46.4375 
Q 38.671875 46.4375 44.84375 39.96875 
Q 51.03125 33.5 51.03125 23.25 
Q 51.03125 16.5 48.125 10.71875 
Q 45.21875 4.9375 40.140625 1.859375 
Q 35.0625 -1.21875 28.609375 -1.21875 
Q 17.625 -1.21875 10.6875 6.859375 
Q 3.765625 14.9375 3.765625 33.5 
Q 3.765625 54.25 11.421875 63.671875 
Q 18.109375 71.875 29.4375 71.875 
Q 37.890625 71.875 43.28125 67.140625 
Q 48.6875 62.40625 49.75 54.046875 
z
M 13.875 23.1875 
Q 13.875 18.65625 15.796875 14.5 
Q 17.71875 10.359375 21.1875 8.171875 
Q 24.65625 6 28.46875 6 
Q 34.03125 6 38.03125 10.484375 
Q 42.046875 14.984375 42.046875 22.703125 
Q 42.046875 30.125 38.078125 34.390625 
Q 34.125 38.671875 28.125 38.671875 
Q 22.171875 38.671875 18.015625 34.390625 
Q 13.875 30.125 13.875 23.1875 
z
" id="ArialMT-54"/>
      </defs>
      <g style="fill:#262626;" transform="translate(412.817862 149.273586)scale(0.1 -0.1)">
       <use xlink:href="#ArialMT-48"/>
       <use x="55.615234" xlink:href="#ArialMT-46"/>
       <use x="83.398438" xlink:href="#ArialMT-54"/>
      </g>
     </g>
    </g>
    <g id="ytick_7">
     <g id="line2d_15">
      <path clip-path="url(#p8cb3635b08)" d="M 443.726766 199.98 
L 443.636288 194.796491 
L 443.364963 189.619297 
L 442.913121 184.454725 
L 442.281314 179.309069 
L 441.470311 174.188598 
L 440.4811 169.099549 
L 439.314887 164.048123 
L 437.973091 159.040475 
L 436.457349 154.082705 
L 434.769506 149.180854 
L 432.91162 144.340894 
L 430.885953 139.568722 
L 428.694973 134.870151 
L 426.341351 130.250907 
L 423.827953 125.716617 
L 421.157841 121.272805 
L 418.33427 116.924886 
L 415.360678 112.678157 
L 412.240689 108.537792 
L 408.978104 104.508835 
L 405.576898 100.596195 
L 402.041214 96.804639 
L 398.375361 93.138786 
L 394.583805 89.603102 
L 390.671165 86.201896 
L 386.642208 82.939311 
L 382.501843 79.819322 
L 378.255114 76.84573 
L 373.907195 74.022159 
L 369.463383 71.352047 
L 364.929093 68.838649 
L 360.309849 66.485027 
L 355.611278 64.294047 
L 350.839106 62.26838 
L 345.999146 60.410494 
L 341.097295 58.722651 
L 336.139525 57.206909 
L 331.131877 55.865113 
L 326.080451 54.6989 
L 320.991402 53.709689 
L 315.870931 52.898686 
L 310.725275 52.266879 
L 305.560703 51.815037 
L 300.383509 51.543712 
L 295.2 51.453234 
L 290.016491 51.543712 
L 284.839297 51.815037 
L 279.674725 52.266879 
L 274.529069 52.898686 
L 269.408598 53.709689 
L 264.319549 54.6989 
L 259.268123 55.865113 
L 254.260475 57.206909 
L 249.302705 58.722651 
L 244.400854 60.410494 
L 239.560894 62.26838 
L 234.788722 64.294047 
L 230.090151 66.485027 
L 225.470907 68.838649 
L 220.936617 71.352047 
L 216.492805 74.022159 
L 212.144886 76.84573 
L 207.898157 79.819322 
L 203.757792 82.939311 
L 199.728835 86.201896 
L 195.816195 89.603102 
L 192.024639 93.138786 
L 188.358786 96.804639 
L 184.823102 100.596195 
L 181.421896 104.508835 
L 178.159311 108.537792 
L 175.039322 112.678157 
L 172.06573 116.924886 
L 169.242159 121.272805 
L 166.572047 125.716617 
L 164.058649 130.250907 
L 161.705027 134.870151 
L 159.514047 139.568722 
L 157.48838 144.340894 
L 155.630494 149.180854 
L 153.942651 154.082705 
L 152.426909 159.040475 
L 151.085113 164.048123 
L 149.9189 169.099549 
L 148.929689 174.188598 
L 148.118686 179.309069 
L 147.486879 184.454725 
L 147.035037 189.619297 
L 146.763712 194.796491 
L 146.673234 199.98 
L 146.763712 205.163509 
L 147.035037 210.340703 
L 147.486879 215.505275 
L 148.118686 220.650931 
L 148.929689 225.771402 
L 149.9189 230.860451 
L 151.085113 235.911877 
L 152.426909 240.919525 
L 153.942651 245.877295 
L 155.630494 250.779146 
L 157.48838 255.619106 
L 159.514047 260.391278 
L 161.705027 265.089849 
L 164.058649 269.709093 
L 166.572047 274.243383 
L 169.242159 278.687195 
L 172.06573 283.035114 
L 175.039322 287.281843 
L 178.159311 291.422208 
L 181.421896 295.451165 
L 184.823102 299.363805 
L 188.358786 303.155361 
L 192.024639 306.821214 
L 195.816195 310.356898 
L 199.728835 313.758104 
L 203.757792 317.020689 
L 207.898157 320.140678 
L 212.144886 323.11427 
L 216.492805 325.937841 
L 220.936617 328.607953 
L 225.470907 331.121351 
L 230.090151 333.474973 
L 234.788722 335.665953 
L 239.560894 337.69162 
L 244.400854 339.549506 
L 249.302705 341.237349 
L 254.260475 342.753091 
L 259.268123 344.094887 
L 264.319549 345.2611 
L 269.408598 346.250311 
L 274.529069 347.061314 
L 279.674725 347.693121 
L 284.839297 348.144963 
L 290.016491 348.416288 
L 295.2 348.506766 
L 300.383509 348.416288 
L 305.560703 348.144963 
L 310.725275 347.693121 
L 315.870931 347.061314 
L 320.991402 346.250311 
L 326.080451 345.2611 
L 331.131877 344.094887 
L 336.139525 342.753091 
L 341.097295 341.237349 
L 345.999146 339.549506 
L 350.839106 337.69162 
L 355.611278 335.665953 
L 360.309849 333.474973 
L 364.929093 331.121351 
L 369.463383 328.607953 
L 373.907195 325.937841 
L 378.255114 323.11427 
L 382.501843 320.140678 
L 386.642208 317.020689 
L 390.671165 313.758104 
L 394.583805 310.356898 
L 398.375361 306.821214 
L 402.041214 303.155361 
L 405.576898 299.363805 
L 408.978104 295.451165 
L 412.240689 291.422208 
L 415.360678 287.281843 
L 418.33427 283.035114 
L 421.157841 278.687195 
L 423.827953 274.243383 
L 426.341351 269.709093 
L 428.694973 265.089849 
L 430.885953 260.391278 
L 432.91162 255.619106 
L 434.769506 250.779146 
L 436.457349 245.877295 
L 437.973091 240.919525 
L 439.314887 235.911877 
L 440.4811 230.860451 
L 441.470311 225.771402 
L 442.281314 220.650931 
L 442.913121 215.505275 
L 443.364963 210.340703 
L 443.636288 205.163509 
L 443.726766 199.98 
L 443.726766 199.98 
" style="fill:none;stroke:#ffffff;stroke-linecap:round;"/>
     </g>
     <g id="text_15">
      <!-- 0.7 -->
      <g style="fill:#262626;" transform="translate(432.420839 141.153767)scale(0.1 -0.1)">
       <use xlink:href="#ArialMT-48"/>
       <use x="55.615234" xlink:href="#ArialMT-46"/>
       <use x="83.398438" xlink:href="#ArialMT-55"/>
      </g>
     </g>
    </g>
   </g>
   <g id="PathCollection_1">
    <defs>
     <path d="M 0 3.5 
C 0.928211 3.5 1.81853 3.131218 2.474874 2.474874 
C 3.131218 1.81853 3.5 0.928211 3.5 0 
C 3.5 -0.928211 3.131218 -1.81853 2.474874 -2.474874 
C 1.81853 -3.131218 0.928211 -3.5 0 -3.5 
C -0.928211 -3.5 -1.81853 -3.131218 -2.474874 -2.474874 
C -3.131218 -1.81853 -3.5 -0.928211 -3.5 0 
C -3.5 0.928211 -3.131218 1.81853 -2.474874 2.474874 
C -1.81853 3.131218 -0.928211 3.5 0 3.5 
z
" id="m13020ae2d9" style="stroke:#4c72b0;stroke-width:0.3;"/>
    </defs>
    <g clip-path="url(#p8cb3635b08)">
     <use style="fill:#4c72b0;stroke:#4c72b0;stroke-width:0.3;" x="318.447346" xlink:href="#m13020ae2d9" y="220.975475"/>
     <use style="fill:#4c72b0;stroke:#4c72b0;stroke-width:0.3;" x="228.47471" xlink:href="#m13020ae2d9" y="243.689625"/>
     <use style="fill:#4c72b0;stroke:#4c72b0;stroke-width:0.3;" x="294.14409" xlink:href="#m13020ae2d9" y="220.280927"/>
     <use style="fill:#4c72b0;stroke:#4c72b0;stroke-width:0.3;" x="345.633168" xlink:href="#m13020ae2d9" y="202.440785"/>
     <use style="fill:#4c72b0;stroke:#4c72b0;stroke-width:0.3;" x="232.654801" xlink:href="#m13020ae2d9" y="220.272974"/>
     <use style="fill:#4c72b0;stroke:#4c72b0;stroke-width:0.3;" x="280.653597" xlink:href="#m13020ae2d9" y="237.238899"/>
     <use style="fill:#4c72b0;stroke:#4c72b0;stroke-width:0.3;" x="231.251062" xlink:href="#m13020ae2d9" y="255.64275"/>
     <use style="fill:#4c72b0;stroke:#4c72b0;stroke-width:0.3;" x="231.393781" xlink:href="#m13020ae2d9" y="243.64026"/>
     <use style="fill:#4c72b0;stroke:#4c72b0;stroke-width:0.3;" x="267.750685" xlink:href="#m13020ae2d9" y="228.424858"/>
     <use style="fill:#4c72b0;stroke:#4c72b0;stroke-width:0.3;" x="356.527792" xlink:href="#m13020ae2d9" y="216.476084"/>
     <use style="fill:#4c72b0;stroke:#4c72b0;stroke-width:0.3;" x="369.043671" xlink:href="#m13020ae2d9" y="214.188006"/>
     <use style="fill:#4c72b0;stroke:#4c72b0;stroke-width:0.3;" x="164.998588" xlink:href="#m13020ae2d9" y="249.811415"/>
     <use style="fill:#4c72b0;stroke:#4c72b0;stroke-width:0.3;" x="244.193597" xlink:href="#m13020ae2d9" y="230.662921"/>
     <use style="fill:#4c72b0;stroke:#4c72b0;stroke-width:0.3;" x="344.735546" xlink:href="#m13020ae2d9" y="201.946053"/>
     <use style="fill:#4c72b0;stroke:#4c72b0;stroke-width:0.3;" x="259.276785" xlink:href="#m13020ae2d9" y="199.953452"/>
     <use style="fill:#4c72b0;stroke:#4c72b0;stroke-width:0.3;" x="190.562629" xlink:href="#m13020ae2d9" y="212.962157"/>
     <use style="fill:#4c72b0;stroke:#4c72b0;stroke-width:0.3;" x="261.949468" xlink:href="#m13020ae2d9" y="200.015406"/>
     <use style="fill:#4c72b0;stroke:#4c72b0;stroke-width:0.3;" x="329.225947" xlink:href="#m13020ae2d9" y="177.974812"/>
     <use style="fill:#4c72b0;stroke:#4c72b0;stroke-width:0.3;" x="305.585704" xlink:href="#m13020ae2d9" y="167.386729"/>
     <use style="fill:#4c72b0;stroke:#4c72b0;stroke-width:0.3;" x="296.423549" xlink:href="#m13020ae2d9" y="165.929906"/>
     <use style="fill:#4c72b0;stroke:#4c72b0;stroke-width:0.3;" x="331.735453" xlink:href="#m13020ae2d9" y="177.063378"/>
     <use style="fill:#4c72b0;stroke:#4c72b0;stroke-width:0.3;" x="312.134012" xlink:href="#m13020ae2d9" y="169.938539"/>
     <use style="fill:#4c72b0;stroke:#4c72b0;stroke-width:0.3;" x="214.029923" xlink:href="#m13020ae2d9" y="197.219182"/>
     <use style="fill:#4c72b0;stroke:#4c72b0;stroke-width:0.3;" x="193.841021" xlink:href="#m13020ae2d9" y="199.09821"/>
    </g>
   </g>
   <g id="PathCollection_2">
    <defs>
     <path d="M 0 3.5 
C 0.928211 3.5 1.81853 3.131218 2.474874 2.474874 
C 3.131218 1.81853 3.5 0.928211 3.5 0 
C 3.5 -0.928211 3.131218 -1.81853 2.474874 -2.474874 
C 1.81853 -3.131218 0.928211 -3.5 0 -3.5 
C -0.928211 -3.5 -1.81853 -3.131218 -2.474874 -2.474874 
C -3.131218 -1.81853 -3.5 -0.928211 -3.5 0 
C -3.5 0.928211 -3.131218 1.81853 -2.474874 2.474874 
C -1.81853 3.131218 -0.928211 3.5 0 3.5 
z
" id="mfaf9e4175d" style="stroke:#55a868;stroke-width:0.3;"/>
    </defs>
    <g clip-path="url(#p8cb3635b08)">
     <use style="fill:#55a868;stroke:#55a868;stroke-width:0.3;" x="321.59227" xlink:href="#mfaf9e4175d" y="186.399352"/>
     <use style="fill:#55a868;stroke:#55a868;stroke-width:0.3;" x="326.703533" xlink:href="#mfaf9e4175d" y="196.401993"/>
     <use style="fill:#55a868;stroke:#55a868;stroke-width:0.3;" x="357.619254" xlink:href="#mfaf9e4175d" y="196.54869"/>
     <use style="fill:#55a868;stroke:#55a868;stroke-width:0.3;" x="330.232185" xlink:href="#mfaf9e4175d" y="184.234541"/>
     <use style="fill:#55a868;stroke:#55a868;stroke-width:0.3;" x="290.773861" xlink:href="#mfaf9e4175d" y="194.054327"/>
     <use style="fill:#55a868;stroke:#55a868;stroke-width:0.3;" x="385.511223" xlink:href="#mfaf9e4175d" y="180.987429"/>
     <use style="fill:#55a868;stroke:#55a868;stroke-width:0.3;" x="365.469913" xlink:href="#mfaf9e4175d" y="173.197747"/>
     <use style="fill:#55a868;stroke:#55a868;stroke-width:0.3;" x="272.930748" xlink:href="#mfaf9e4175d" y="190.806563"/>
     <use style="fill:#55a868;stroke:#55a868;stroke-width:0.3;" x="284.912219" xlink:href="#mfaf9e4175d" y="205.117843"/>
     <use style="fill:#55a868;stroke:#55a868;stroke-width:0.3;" x="304.659147" xlink:href="#mfaf9e4175d" y="205.512592"/>
     <use style="fill:#55a868;stroke:#55a868;stroke-width:0.3;" x="279.087206" xlink:href="#mfaf9e4175d" y="192.530399"/>
     <use style="fill:#55a868;stroke:#55a868;stroke-width:0.3;" x="262.837256" xlink:href="#mfaf9e4175d" y="187.443344"/>
     <use style="fill:#55a868;stroke:#55a868;stroke-width:0.3;" x="224.041111" xlink:href="#mfaf9e4175d" y="225.412418"/>
     <use style="fill:#55a868;stroke:#55a868;stroke-width:0.3;" x="385.240452" xlink:href="#mfaf9e4175d" y="219.127953"/>
     <use style="fill:#55a868;stroke:#55a868;stroke-width:0.3;" x="343.622118" xlink:href="#mfaf9e4175d" y="216.622083"/>
     <use style="fill:#55a868;stroke:#55a868;stroke-width:0.3;" x="188.270607" xlink:href="#mfaf9e4175d" y="233.069026"/>
     <use style="fill:#55a868;stroke:#55a868;stroke-width:0.3;" x="332.172369" xlink:href="#mfaf9e4175d" y="216.990123"/>
     <use style="fill:#55a868;stroke:#55a868;stroke-width:0.3;" x="322.205463" xlink:href="#mfaf9e4175d" y="199.783523"/>
     <use style="fill:#55a868;stroke:#55a868;stroke-width:0.3;" x="261.179934" xlink:href="#mfaf9e4175d" y="196.401155"/>
     <use style="fill:#55a868;stroke:#55a868;stroke-width:0.3;" x="281.775224" xlink:href="#mfaf9e4175d" y="199.227407"/>
     <use style="fill:#55a868;stroke:#55a868;stroke-width:0.3;" x="171.579045" xlink:href="#mfaf9e4175d" y="226.887315"/>
     <use style="fill:#55a868;stroke:#55a868;stroke-width:0.3;" x="250.800798" xlink:href="#mfaf9e4175d" y="241.454525"/>
     <use style="fill:#55a868;stroke:#55a868;stroke-width:0.3;" x="358.363473" xlink:href="#mfaf9e4175d" y="217.617023"/>
     <use style="fill:#55a868;stroke:#55a868;stroke-width:0.3;" x="293.043397" xlink:href="#mfaf9e4175d" y="208.243362"/>
    </g>
   </g>
   <g id="PathCollection_3">
    <defs>
     <path d="M 0 3.5 
C 0.928211 3.5 1.81853 3.131218 2.474874 2.474874 
C 3.131218 1.81853 3.5 0.928211 3.5 0 
C 3.5 -0.928211 3.131218 -1.81853 2.474874 -2.474874 
C 1.81853 -3.131218 0.928211 -3.5 0 -3.5 
C -0.928211 -3.5 -1.81853 -3.131218 -2.474874 -2.474874 
C -3.131218 -1.81853 -3.5 -0.928211 -3.5 0 
C -3.5 0.928211 -3.131218 1.81853 -2.474874 2.474874 
C -1.81853 3.131218 -0.928211 3.5 0 3.5 
z
" id="m783c8430a2" style="stroke:#c44e52;stroke-width:0.3;"/>
    </defs>
    <g clip-path="url(#p8cb3635b08)">
     <use style="fill:#c44e52;stroke:#c44e52;stroke-width:0.3;" x="338.255015" xlink:href="#m783c8430a2" y="226.221762"/>
     <use style="fill:#c44e52;stroke:#c44e52;stroke-width:0.3;" x="393.643166" xlink:href="#m783c8430a2" y="187.485263"/>
     <use style="fill:#c44e52;stroke:#c44e52;stroke-width:0.3;" x="226.495801" xlink:href="#m783c8430a2" y="227.139241"/>
     <use style="fill:#c44e52;stroke:#c44e52;stroke-width:0.3;" x="292.180697" xlink:href="#m783c8430a2" y="231.851184"/>
     <use style="fill:#c44e52;stroke:#c44e52;stroke-width:0.3;" x="318.20355" xlink:href="#m783c8430a2" y="214.045993"/>
     <use style="fill:#c44e52;stroke:#c44e52;stroke-width:0.3;" x="252.471029" xlink:href="#m783c8430a2" y="236.449973"/>
     <use style="fill:#c44e52;stroke:#c44e52;stroke-width:0.3;" x="299.260555" xlink:href="#m783c8430a2" y="231.261884"/>
     <use style="fill:#c44e52;stroke:#c44e52;stroke-width:0.3;" x="340.822989" xlink:href="#m783c8430a2" y="217.986992"/>
     <use style="fill:#c44e52;stroke:#c44e52;stroke-width:0.3;" x="341.534973" xlink:href="#m783c8430a2" y="217.2931"/>
     <use style="fill:#c44e52;stroke:#c44e52;stroke-width:0.3;" x="275.957785" xlink:href="#m783c8430a2" y="232.009738"/>
     <use style="fill:#c44e52;stroke:#c44e52;stroke-width:0.3;" x="177.424564" xlink:href="#m783c8430a2" y="234.087148"/>
     <use style="fill:#c44e52;stroke:#c44e52;stroke-width:0.3;" x="262.119566" xlink:href="#m783c8430a2" y="220.978517"/>
     <use style="fill:#c44e52;stroke:#c44e52;stroke-width:0.3;" x="251.663816" xlink:href="#m783c8430a2" y="249.800648"/>
     <use style="fill:#c44e52;stroke:#c44e52;stroke-width:0.3;" x="363.436137" xlink:href="#m783c8430a2" y="182.076807"/>
     <use style="fill:#c44e52;stroke:#c44e52;stroke-width:0.3;" x="180.695291" xlink:href="#m783c8430a2" y="242.569138"/>
     <use style="fill:#c44e52;stroke:#c44e52;stroke-width:0.3;" x="252.257456" xlink:href="#m783c8430a2" y="224.458058"/>
     <use style="fill:#c44e52;stroke:#c44e52;stroke-width:0.3;" x="266.08424" xlink:href="#m783c8430a2" y="217.567129"/>
     <use style="fill:#c44e52;stroke:#c44e52;stroke-width:0.3;" x="417.293685" xlink:href="#m783c8430a2" y="171.722453"/>
     <use style="fill:#c44e52;stroke:#c44e52;stroke-width:0.3;" x="317.07882" xlink:href="#m783c8430a2" y="195.118059"/>
     <use style="fill:#c44e52;stroke:#c44e52;stroke-width:0.3;" x="205.405179" xlink:href="#m783c8430a2" y="225.281363"/>
     <use style="fill:#c44e52;stroke:#c44e52;stroke-width:0.3;" x="374.952898" xlink:href="#m783c8430a2" y="180.533294"/>
     <use style="fill:#c44e52;stroke:#c44e52;stroke-width:0.3;" x="432.179237" xlink:href="#m783c8430a2" y="174.002594"/>
     <use style="fill:#c44e52;stroke:#c44e52;stroke-width:0.3;" x="337.331837" xlink:href="#m783c8430a2" y="210.638855"/>
     <use style="fill:#c44e52;stroke:#c44e52;stroke-width:0.3;" x="352.764827" xlink:href="#m783c8430a2" y="191.237303"/>
    </g>
   </g>
   <g id="line2d_16">
    <path clip-path="url(#p8cb3635b08)" d="M 295.2 199.98 
L 373.209707 315.533549 
" style="fill:none;stroke:#ff0000;stroke-dasharray:7.4,3.2;stroke-dashoffset:0;stroke-width:2;"/>
   </g>
   <g id="patch_3">
    <path d="M 447.66 199.98 
C 447.66 179.959136 443.716326 160.13295 436.054674 141.636084 
C 428.393021 123.139218 417.162388 106.331389 403.0055 92.1745 
C 388.848611 78.017612 372.040782 66.786979 353.543916 59.125326 
C 335.04705 51.463674 315.220864 47.52 295.2 47.52 
C 275.179136 47.52 255.35295 51.463674 236.856084 59.125326 
C 218.359218 66.786979 201.551389 78.017612 187.3945 92.1745 
C 173.237612 106.331389 162.006979 123.139218 154.345326 141.636084 
C 146.683674 160.13295 142.74 179.959136 142.74 199.98 
C 142.74 220.000864 146.683674 239.82705 154.345326 258.323916 
C 162.006979 276.820782 173.237612 293.628611 187.3945 307.7855 
C 201.551389 321.942388 218.359218 333.173021 236.856084 340.834674 
C 255.35295 348.496326 275.179136 352.44 295.2 352.44 
C 315.220864 352.44 335.04705 348.496326 353.543916 340.834674 
C 372.040782 333.173021 388.848611 321.942388 403.0055 307.7855 
C 417.162388 293.628611 428.393021 276.820782 436.054674 258.323916 
C 443.716326 239.82705 447.66 220.000864 447.66 199.98 
" style="fill:none;"/>
   </g>
   <g id="text_16">
    <!-- Distribution of projected eye movement velocity on the screen - NewM5_3_23 -->
    <defs>
     <path d="M 7.71875 0 
L 7.71875 71.578125 
L 32.375 71.578125 
Q 40.71875 71.578125 45.125 70.5625 
Q 51.265625 69.140625 55.609375 65.4375 
Q 61.28125 60.640625 64.078125 53.1875 
Q 66.890625 45.75 66.890625 36.1875 
Q 66.890625 28.03125 64.984375 21.734375 
Q 63.09375 15.4375 60.109375 11.296875 
Q 57.125 7.171875 53.578125 4.796875 
Q 50.046875 2.4375 45.046875 1.21875 
Q 40.046875 0 33.546875 0 
z
M 17.1875 8.453125 
L 32.46875 8.453125 
Q 39.546875 8.453125 43.578125 9.765625 
Q 47.609375 11.078125 50 13.484375 
Q 53.375 16.84375 55.25 22.53125 
Q 57.125 28.21875 57.125 36.328125 
Q 57.125 47.5625 53.4375 53.59375 
Q 49.75 59.625 44.484375 61.671875 
Q 40.671875 63.140625 32.234375 63.140625 
L 17.1875 63.140625 
z
" id="ArialMT-68"/>
     <path d="M 6.640625 61.46875 
L 6.640625 71.578125 
L 15.4375 71.578125 
L 15.4375 61.46875 
z
M 6.640625 0 
L 6.640625 51.859375 
L 15.4375 51.859375 
L 15.4375 0 
z
" id="ArialMT-105"/>
     <path d="M 3.078125 15.484375 
L 11.765625 16.84375 
Q 12.5 11.625 15.84375 8.84375 
Q 19.1875 6.0625 25.203125 6.0625 
Q 31.25 6.0625 34.171875 8.515625 
Q 37.109375 10.984375 37.109375 14.3125 
Q 37.109375 17.28125 34.515625 19 
Q 32.71875 20.171875 25.53125 21.96875 
Q 15.875 24.421875 12.140625 26.203125 
Q 8.40625 27.984375 6.46875 31.125 
Q 4.546875 34.28125 4.546875 38.09375 
Q 4.546875 41.546875 6.125 44.5 
Q 7.71875 47.46875 10.453125 49.421875 
Q 12.5 50.921875 16.03125 51.96875 
Q 19.578125 53.03125 23.640625 53.03125 
Q 29.734375 53.03125 34.34375 51.265625 
Q 38.96875 49.515625 41.15625 46.5 
Q 43.359375 43.5 44.1875 38.484375 
L 35.59375 37.3125 
Q 35.015625 41.3125 32.203125 43.546875 
Q 29.390625 45.796875 24.265625 45.796875 
Q 18.21875 45.796875 15.625 43.796875 
Q 13.03125 41.796875 13.03125 39.109375 
Q 13.03125 37.40625 14.109375 36.03125 
Q 15.1875 34.625 17.484375 33.6875 
Q 18.796875 33.203125 25.25 31.453125 
Q 34.578125 28.953125 38.25 27.359375 
Q 41.9375 25.78125 44.03125 22.75 
Q 46.140625 19.734375 46.140625 15.234375 
Q 46.140625 10.84375 43.578125 6.953125 
Q 41.015625 3.078125 36.171875 0.953125 
Q 31.34375 -1.171875 25.25 -1.171875 
Q 15.140625 -1.171875 9.84375 3.03125 
Q 4.546875 7.234375 3.078125 15.484375 
z
" id="ArialMT-115"/>
     <path d="M 25.78125 7.859375 
L 27.046875 0.09375 
Q 23.34375 -0.6875 20.40625 -0.6875 
Q 15.625 -0.6875 12.984375 0.828125 
Q 10.359375 2.34375 9.28125 4.8125 
Q 8.203125 7.28125 8.203125 15.1875 
L 8.203125 45.015625 
L 1.765625 45.015625 
L 1.765625 51.859375 
L 8.203125 51.859375 
L 8.203125 64.703125 
L 16.9375 69.96875 
L 16.9375 51.859375 
L 25.78125 51.859375 
L 25.78125 45.015625 
L 16.9375 45.015625 
L 16.9375 14.703125 
Q 16.9375 10.9375 17.40625 9.859375 
Q 17.875 8.796875 18.921875 8.15625 
Q 19.96875 7.515625 21.921875 7.515625 
Q 23.390625 7.515625 25.78125 7.859375 
z
" id="ArialMT-116"/>
     <path d="M 6.5 0 
L 6.5 51.859375 
L 14.40625 51.859375 
L 14.40625 44 
Q 17.4375 49.515625 20 51.265625 
Q 22.5625 53.03125 25.640625 53.03125 
Q 30.078125 53.03125 34.671875 50.203125 
L 31.640625 42.046875 
Q 28.421875 43.953125 25.203125 43.953125 
Q 22.3125 43.953125 20.015625 42.21875 
Q 17.71875 40.484375 16.75 37.40625 
Q 15.28125 32.71875 15.28125 27.15625 
L 15.28125 0 
z
" id="ArialMT-114"/>
     <path d="M 14.703125 0 
L 6.546875 0 
L 6.546875 71.578125 
L 15.328125 71.578125 
L 15.328125 46.046875 
Q 20.90625 53.03125 29.546875 53.03125 
Q 34.328125 53.03125 38.59375 51.09375 
Q 42.875 49.171875 45.625 45.671875 
Q 48.390625 42.1875 49.953125 37.25 
Q 51.515625 32.328125 51.515625 26.703125 
Q 51.515625 13.375 44.921875 6.09375 
Q 38.328125 -1.171875 29.109375 -1.171875 
Q 19.921875 -1.171875 14.703125 6.5 
z
M 14.59375 26.3125 
Q 14.59375 17 17.140625 12.84375 
Q 21.296875 6.0625 28.375 6.0625 
Q 34.125 6.0625 38.328125 11.0625 
Q 42.53125 16.0625 42.53125 25.984375 
Q 42.53125 36.140625 38.5 40.96875 
Q 34.46875 45.796875 28.765625 45.796875 
Q 23 45.796875 18.796875 40.796875 
Q 14.59375 35.796875 14.59375 26.3125 
z
" id="ArialMT-98"/>
     <path d="M 40.578125 0 
L 40.578125 7.625 
Q 34.515625 -1.171875 24.125 -1.171875 
Q 19.53125 -1.171875 15.546875 0.578125 
Q 11.578125 2.34375 9.640625 5 
Q 7.71875 7.671875 6.9375 11.53125 
Q 6.390625 14.109375 6.390625 19.734375 
L 6.390625 51.859375 
L 15.1875 51.859375 
L 15.1875 23.09375 
Q 15.1875 16.21875 15.71875 13.8125 
Q 16.546875 10.359375 19.234375 8.375 
Q 21.921875 6.390625 25.875 6.390625 
Q 29.828125 6.390625 33.296875 8.421875 
Q 36.765625 10.453125 38.203125 13.9375 
Q 39.65625 17.4375 39.65625 24.078125 
L 39.65625 51.859375 
L 48.4375 51.859375 
L 48.4375 0 
z
" id="ArialMT-117"/>
     <path d="M 3.328125 25.921875 
Q 3.328125 40.328125 11.328125 47.265625 
Q 18.015625 53.03125 27.640625 53.03125 
Q 38.328125 53.03125 45.109375 46.015625 
Q 51.90625 39.015625 51.90625 26.65625 
Q 51.90625 16.65625 48.90625 10.90625 
Q 45.90625 5.171875 40.15625 2 
Q 34.421875 -1.171875 27.640625 -1.171875 
Q 16.75 -1.171875 10.03125 5.8125 
Q 3.328125 12.796875 3.328125 25.921875 
z
M 12.359375 25.921875 
Q 12.359375 15.96875 16.703125 11.015625 
Q 21.046875 6.0625 27.640625 6.0625 
Q 34.1875 6.0625 38.53125 11.03125 
Q 42.875 16.015625 42.875 26.21875 
Q 42.875 35.84375 38.5 40.796875 
Q 34.125 45.75 27.640625 45.75 
Q 21.046875 45.75 16.703125 40.8125 
Q 12.359375 35.890625 12.359375 25.921875 
z
" id="ArialMT-111"/>
     <path d="M 6.59375 0 
L 6.59375 51.859375 
L 14.5 51.859375 
L 14.5 44.484375 
Q 20.21875 53.03125 31 53.03125 
Q 35.6875 53.03125 39.625 51.34375 
Q 43.5625 49.65625 45.515625 46.921875 
Q 47.46875 44.1875 48.25 40.4375 
Q 48.734375 37.984375 48.734375 31.890625 
L 48.734375 0 
L 39.9375 0 
L 39.9375 31.546875 
Q 39.9375 36.921875 38.90625 39.578125 
Q 37.890625 42.234375 35.28125 43.8125 
Q 32.671875 45.40625 29.15625 45.40625 
Q 23.53125 45.40625 19.453125 41.84375 
Q 15.375 38.28125 15.375 28.328125 
L 15.375 0 
z
" id="ArialMT-110"/>
     <path id="ArialMT-32"/>
     <path d="M 8.6875 0 
L 8.6875 45.015625 
L 0.921875 45.015625 
L 0.921875 51.859375 
L 8.6875 51.859375 
L 8.6875 57.375 
Q 8.6875 62.59375 9.625 65.140625 
Q 10.890625 68.5625 14.078125 70.671875 
Q 17.28125 72.796875 23.046875 72.796875 
Q 26.765625 72.796875 31.25 71.921875 
L 29.9375 64.265625 
Q 27.203125 64.75 24.75 64.75 
Q 20.75 64.75 19.09375 63.03125 
Q 17.4375 61.328125 17.4375 56.640625 
L 17.4375 51.859375 
L 27.546875 51.859375 
L 27.546875 45.015625 
L 17.4375 45.015625 
L 17.4375 0 
z
" id="ArialMT-102"/>
     <path d="M 6.59375 -19.875 
L 6.59375 51.859375 
L 14.59375 51.859375 
L 14.59375 45.125 
Q 17.4375 49.078125 21 51.046875 
Q 24.5625 53.03125 29.640625 53.03125 
Q 36.28125 53.03125 41.359375 49.609375 
Q 46.4375 46.1875 49.015625 39.953125 
Q 51.609375 33.734375 51.609375 26.3125 
Q 51.609375 18.359375 48.75 11.984375 
Q 45.90625 5.609375 40.453125 2.21875 
Q 35.015625 -1.171875 29 -1.171875 
Q 24.609375 -1.171875 21.109375 0.6875 
Q 17.625 2.546875 15.375 5.375 
L 15.375 -19.875 
z
M 14.546875 25.640625 
Q 14.546875 15.625 18.59375 10.84375 
Q 22.65625 6.0625 28.421875 6.0625 
Q 34.28125 6.0625 38.453125 11.015625 
Q 42.625 15.96875 42.625 26.375 
Q 42.625 36.28125 38.546875 41.203125 
Q 34.46875 46.140625 28.8125 46.140625 
Q 23.1875 46.140625 18.859375 40.890625 
Q 14.546875 35.640625 14.546875 25.640625 
z
" id="ArialMT-112"/>
     <path d="M 6.546875 61.375 
L 6.546875 71.578125 
L 15.328125 71.578125 
L 15.328125 61.375 
z
M -4.59375 -20.125 
L -2.9375 -12.640625 
Q -0.296875 -13.328125 1.21875 -13.328125 
Q 3.90625 -13.328125 5.21875 -11.546875 
Q 6.546875 -9.765625 6.546875 -2.640625 
L 6.546875 51.859375 
L 15.328125 51.859375 
L 15.328125 -2.828125 
Q 15.328125 -12.40625 12.84375 -16.15625 
Q 9.671875 -21.046875 2.296875 -21.046875 
Q -1.265625 -21.046875 -4.59375 -20.125 
z
" id="ArialMT-106"/>
     <path d="M 42.09375 16.703125 
L 51.171875 15.578125 
Q 49.03125 7.625 43.21875 3.21875 
Q 37.40625 -1.171875 28.375 -1.171875 
Q 17 -1.171875 10.328125 5.828125 
Q 3.65625 12.84375 3.65625 25.484375 
Q 3.65625 38.578125 10.390625 45.796875 
Q 17.140625 53.03125 27.875 53.03125 
Q 38.28125 53.03125 44.875 45.953125 
Q 51.46875 38.875 51.46875 26.03125 
Q 51.46875 25.25 51.421875 23.6875 
L 12.75 23.6875 
Q 13.234375 15.140625 17.578125 10.59375 
Q 21.921875 6.0625 28.421875 6.0625 
Q 33.25 6.0625 36.671875 8.59375 
Q 40.09375 11.140625 42.09375 16.703125 
z
M 13.234375 30.90625 
L 42.1875 30.90625 
Q 41.609375 37.453125 38.875 40.71875 
Q 34.671875 45.796875 27.984375 45.796875 
Q 21.921875 45.796875 17.796875 41.75 
Q 13.671875 37.703125 13.234375 30.90625 
z
" id="ArialMT-101"/>
     <path d="M 40.4375 19 
L 49.078125 17.875 
Q 47.65625 8.9375 41.8125 3.875 
Q 35.984375 -1.171875 27.484375 -1.171875 
Q 16.84375 -1.171875 10.375 5.78125 
Q 3.90625 12.75 3.90625 25.734375 
Q 3.90625 34.125 6.6875 40.421875 
Q 9.46875 46.734375 15.15625 49.875 
Q 20.84375 53.03125 27.546875 53.03125 
Q 35.984375 53.03125 41.359375 48.75 
Q 46.734375 44.484375 48.25 36.625 
L 39.703125 35.296875 
Q 38.484375 40.53125 35.375 43.15625 
Q 32.28125 45.796875 27.875 45.796875 
Q 21.234375 45.796875 17.078125 41.03125 
Q 12.9375 36.28125 12.9375 25.984375 
Q 12.9375 15.53125 16.9375 10.796875 
Q 20.953125 6.0625 27.390625 6.0625 
Q 32.5625 6.0625 36.03125 9.234375 
Q 39.5 12.40625 40.4375 19 
z
" id="ArialMT-99"/>
     <path d="M 40.234375 0 
L 40.234375 6.546875 
Q 35.296875 -1.171875 25.734375 -1.171875 
Q 19.53125 -1.171875 14.328125 2.25 
Q 9.125 5.671875 6.265625 11.796875 
Q 3.421875 17.921875 3.421875 25.875 
Q 3.421875 33.640625 6 39.96875 
Q 8.59375 46.296875 13.765625 49.65625 
Q 18.953125 53.03125 25.34375 53.03125 
Q 30.03125 53.03125 33.6875 51.046875 
Q 37.359375 49.078125 39.65625 45.90625 
L 39.65625 71.578125 
L 48.390625 71.578125 
L 48.390625 0 
z
M 12.453125 25.875 
Q 12.453125 15.921875 16.640625 10.984375 
Q 20.84375 6.0625 26.5625 6.0625 
Q 32.328125 6.0625 36.34375 10.765625 
Q 40.375 15.484375 40.375 25.140625 
Q 40.375 35.796875 36.265625 40.765625 
Q 32.171875 45.75 26.171875 45.75 
Q 20.3125 45.75 16.375 40.96875 
Q 12.453125 36.1875 12.453125 25.875 
z
" id="ArialMT-100"/>
     <path d="M 6.203125 -19.96875 
L 5.21875 -11.71875 
Q 8.109375 -12.5 10.25 -12.5 
Q 13.1875 -12.5 14.9375 -11.515625 
Q 16.703125 -10.546875 17.828125 -8.796875 
Q 18.65625 -7.46875 20.515625 -2.25 
Q 20.75 -1.515625 21.296875 -0.09375 
L 1.609375 51.859375 
L 11.078125 51.859375 
L 21.875 21.828125 
Q 23.96875 16.109375 25.640625 9.8125 
Q 27.15625 15.875 29.25 21.625 
L 40.328125 51.859375 
L 49.125 51.859375 
L 29.390625 -0.875 
Q 26.21875 -9.421875 24.46875 -12.640625 
Q 22.125 -17 19.09375 -19.015625 
Q 16.0625 -21.046875 11.859375 -21.046875 
Q 9.328125 -21.046875 6.203125 -19.96875 
z
" id="ArialMT-121"/>
     <path d="M 6.59375 0 
L 6.59375 51.859375 
L 14.453125 51.859375 
L 14.453125 44.578125 
Q 16.890625 48.390625 20.9375 50.703125 
Q 25 53.03125 30.171875 53.03125 
Q 35.9375 53.03125 39.625 50.640625 
Q 43.3125 48.25 44.828125 43.953125 
Q 50.984375 53.03125 60.84375 53.03125 
Q 68.5625 53.03125 72.703125 48.75 
Q 76.859375 44.484375 76.859375 35.59375 
L 76.859375 0 
L 68.109375 0 
L 68.109375 32.671875 
Q 68.109375 37.9375 67.25 40.25 
Q 66.40625 42.578125 64.15625 43.984375 
Q 61.921875 45.40625 58.890625 45.40625 
Q 53.421875 45.40625 49.796875 41.765625 
Q 46.1875 38.140625 46.1875 30.125 
L 46.1875 0 
L 37.40625 0 
L 37.40625 33.6875 
Q 37.40625 39.546875 35.25 42.46875 
Q 33.109375 45.40625 28.21875 45.40625 
Q 24.515625 45.40625 21.359375 43.453125 
Q 18.21875 41.5 16.796875 37.734375 
Q 15.375 33.984375 15.375 26.90625 
L 15.375 0 
z
" id="ArialMT-109"/>
     <path d="M 21 0 
L 1.265625 51.859375 
L 10.546875 51.859375 
L 21.6875 20.796875 
Q 23.484375 15.765625 25 10.359375 
Q 26.171875 14.453125 28.265625 20.21875 
L 39.796875 51.859375 
L 48.828125 51.859375 
L 29.203125 0 
z
" id="ArialMT-118"/>
     <path d="M 6.390625 0 
L 6.390625 71.578125 
L 15.1875 71.578125 
L 15.1875 0 
z
" id="ArialMT-108"/>
     <path d="M 6.59375 0 
L 6.59375 71.578125 
L 15.375 71.578125 
L 15.375 45.90625 
Q 21.53125 53.03125 30.90625 53.03125 
Q 36.671875 53.03125 40.921875 50.75 
Q 45.171875 48.484375 47 44.484375 
Q 48.828125 40.484375 48.828125 32.859375 
L 48.828125 0 
L 40.046875 0 
L 40.046875 32.859375 
Q 40.046875 39.453125 37.1875 42.453125 
Q 34.328125 45.453125 29.109375 45.453125 
Q 25.203125 45.453125 21.75 43.421875 
Q 18.3125 41.40625 16.84375 37.9375 
Q 15.375 34.46875 15.375 28.375 
L 15.375 0 
z
" id="ArialMT-104"/>
     <path d="M 3.171875 21.484375 
L 3.171875 30.328125 
L 30.171875 30.328125 
L 30.171875 21.484375 
z
" id="ArialMT-45"/>
     <path d="M 7.625 0 
L 7.625 71.578125 
L 17.328125 71.578125 
L 54.9375 15.375 
L 54.9375 71.578125 
L 64.015625 71.578125 
L 64.015625 0 
L 54.296875 0 
L 16.703125 56.25 
L 16.703125 0 
z
" id="ArialMT-78"/>
     <path d="M 16.15625 0 
L 0.296875 51.859375 
L 9.375 51.859375 
L 17.625 21.921875 
L 20.703125 10.796875 
Q 20.90625 11.625 23.390625 21.484375 
L 31.640625 51.859375 
L 40.671875 51.859375 
L 48.4375 21.78125 
L 51.03125 11.859375 
L 54 21.875 
L 62.890625 51.859375 
L 71.4375 51.859375 
L 55.21875 0 
L 46.09375 0 
L 37.84375 31.0625 
L 35.84375 39.890625 
L 25.34375 0 
z
" id="ArialMT-119"/>
     <path d="M 7.421875 0 
L 7.421875 71.578125 
L 21.6875 71.578125 
L 38.625 20.90625 
Q 40.96875 13.8125 42.046875 10.296875 
Q 43.265625 14.203125 45.84375 21.78125 
L 62.984375 71.578125 
L 75.734375 71.578125 
L 75.734375 0 
L 66.609375 0 
L 66.609375 59.90625 
L 45.796875 0 
L 37.25 0 
L 16.546875 60.9375 
L 16.546875 0 
z
" id="ArialMT-77"/>
     <path d="M -1.515625 -19.875 
L -1.515625 -13.53125 
L 56.734375 -13.53125 
L 56.734375 -19.875 
z
" id="ArialMT-95"/>
    </defs>
    <g style="fill:#262626;" transform="translate(89.110313 23.748375)scale(0.12 -0.12)">
     <use xlink:href="#ArialMT-68"/>
     <use x="72.216797" xlink:href="#ArialMT-105"/>
     <use x="94.433594" xlink:href="#ArialMT-115"/>
     <use x="144.433594" xlink:href="#ArialMT-116"/>
     <use x="172.216797" xlink:href="#ArialMT-114"/>
     <use x="205.517578" xlink:href="#ArialMT-105"/>
     <use x="227.734375" xlink:href="#ArialMT-98"/>
     <use x="283.349609" xlink:href="#ArialMT-117"/>
     <use x="338.964844" xlink:href="#ArialMT-116"/>
     <use x="366.748047" xlink:href="#ArialMT-105"/>
     <use x="388.964844" xlink:href="#ArialMT-111"/>
     <use x="444.580078" xlink:href="#ArialMT-110"/>
     <use x="500.195312" xlink:href="#ArialMT-32"/>
     <use x="527.978516" xlink:href="#ArialMT-111"/>
     <use x="583.59375" xlink:href="#ArialMT-102"/>
     <use x="611.376953" xlink:href="#ArialMT-32"/>
     <use x="639.160156" xlink:href="#ArialMT-112"/>
     <use x="694.775391" xlink:href="#ArialMT-114"/>
     <use x="728.076172" xlink:href="#ArialMT-111"/>
     <use x="783.691406" xlink:href="#ArialMT-106"/>
     <use x="805.908203" xlink:href="#ArialMT-101"/>
     <use x="861.523438" xlink:href="#ArialMT-99"/>
     <use x="911.523438" xlink:href="#ArialMT-116"/>
     <use x="939.306641" xlink:href="#ArialMT-101"/>
     <use x="994.921875" xlink:href="#ArialMT-100"/>
     <use x="1050.537109" xlink:href="#ArialMT-32"/>
     <use x="1078.320312" xlink:href="#ArialMT-101"/>
     <use x="1133.935547" xlink:href="#ArialMT-121"/>
     <use x="1183.935547" xlink:href="#ArialMT-101"/>
     <use x="1239.550781" xlink:href="#ArialMT-32"/>
     <use x="1267.333984" xlink:href="#ArialMT-109"/>
     <use x="1350.634766" xlink:href="#ArialMT-111"/>
     <use x="1406.25" xlink:href="#ArialMT-118"/>
     <use x="1456.25" xlink:href="#ArialMT-101"/>
     <use x="1511.865234" xlink:href="#ArialMT-109"/>
     <use x="1595.166016" xlink:href="#ArialMT-101"/>
     <use x="1650.78125" xlink:href="#ArialMT-110"/>
     <use x="1706.396484" xlink:href="#ArialMT-116"/>
     <use x="1734.179688" xlink:href="#ArialMT-32"/>
     <use x="1761.962891" xlink:href="#ArialMT-118"/>
     <use x="1811.962891" xlink:href="#ArialMT-101"/>
     <use x="1867.578125" xlink:href="#ArialMT-108"/>
     <use x="1889.794922" xlink:href="#ArialMT-111"/>
     <use x="1945.410156" xlink:href="#ArialMT-99"/>
     <use x="1995.410156" xlink:href="#ArialMT-105"/>
     <use x="2017.626953" xlink:href="#ArialMT-116"/>
     <use x="2045.410156" xlink:href="#ArialMT-121"/>
     <use x="2095.410156" xlink:href="#ArialMT-32"/>
     <use x="2123.193359" xlink:href="#ArialMT-111"/>
     <use x="2178.808594" xlink:href="#ArialMT-110"/>
     <use x="2234.423828" xlink:href="#ArialMT-32"/>
     <use x="2262.207031" xlink:href="#ArialMT-116"/>
     <use x="2289.990234" xlink:href="#ArialMT-104"/>
     <use x="2345.605469" xlink:href="#ArialMT-101"/>
     <use x="2401.220703" xlink:href="#ArialMT-32"/>
     <use x="2429.003906" xlink:href="#ArialMT-115"/>
     <use x="2479.003906" xlink:href="#ArialMT-99"/>
     <use x="2529.003906" xlink:href="#ArialMT-114"/>
     <use x="2562.304688" xlink:href="#ArialMT-101"/>
     <use x="2617.919922" xlink:href="#ArialMT-101"/>
     <use x="2673.535156" xlink:href="#ArialMT-110"/>
     <use x="2729.150391" xlink:href="#ArialMT-32"/>
     <use x="2756.933594" xlink:href="#ArialMT-45"/>
     <use x="2790.234375" xlink:href="#ArialMT-32"/>
     <use x="2818.017578" xlink:href="#ArialMT-78"/>
     <use x="2890.234375" xlink:href="#ArialMT-101"/>
     <use x="2945.849609" xlink:href="#ArialMT-119"/>
     <use x="3018.066406" xlink:href="#ArialMT-77"/>
     <use x="3101.367188" xlink:href="#ArialMT-53"/>
     <use x="3156.982422" xlink:href="#ArialMT-95"/>
     <use x="3212.597656" xlink:href="#ArialMT-51"/>
     <use x="3268.212891" xlink:href="#ArialMT-95"/>
     <use x="3323.828125" xlink:href="#ArialMT-50"/>
     <use x="3379.443359" xlink:href="#ArialMT-51"/>
    </g>
   </g>
   <g id="legend_1">
    <g id="line2d_17">
     <path d="M 196.151563 60.2075 
L 216.151563 60.2075 
" style="fill:none;stroke:#ff0000;stroke-dasharray:7.4,3.2;stroke-dashoffset:0;stroke-width:2;"/>
    </g>
    <g id="line2d_18"/>
    <g id="text_17">
     <!-- Average angle in dark: -55.98 degrees -->
     <defs>
      <path d="M -0.140625 0 
L 27.34375 71.578125 
L 37.546875 71.578125 
L 66.84375 0 
L 56.0625 0 
L 47.703125 21.6875 
L 17.78125 21.6875 
L 9.90625 0 
z
M 20.515625 29.390625 
L 44.78125 29.390625 
L 37.3125 49.21875 
Q 33.890625 58.25 32.234375 64.0625 
Q 30.859375 57.171875 28.375 50.390625 
z
" id="ArialMT-65"/>
      <path d="M 40.4375 6.390625 
Q 35.546875 2.25 31.03125 0.53125 
Q 26.515625 -1.171875 21.34375 -1.171875 
Q 12.796875 -1.171875 8.203125 3 
Q 3.609375 7.171875 3.609375 13.671875 
Q 3.609375 17.484375 5.34375 20.625 
Q 7.078125 23.78125 9.890625 25.6875 
Q 12.703125 27.59375 16.21875 28.5625 
Q 18.796875 29.25 24.03125 29.890625 
Q 34.671875 31.15625 39.703125 32.90625 
Q 39.75 34.71875 39.75 35.203125 
Q 39.75 40.578125 37.25 42.78125 
Q 33.890625 45.75 27.25 45.75 
Q 21.046875 45.75 18.09375 43.578125 
Q 15.140625 41.40625 13.71875 35.890625 
L 5.125 37.0625 
Q 6.296875 42.578125 8.984375 45.96875 
Q 11.671875 49.359375 16.75 51.1875 
Q 21.828125 53.03125 28.515625 53.03125 
Q 35.15625 53.03125 39.296875 51.46875 
Q 43.453125 49.90625 45.40625 47.53125 
Q 47.359375 45.171875 48.140625 41.546875 
Q 48.578125 39.3125 48.578125 33.453125 
L 48.578125 21.734375 
Q 48.578125 9.46875 49.140625 6.21875 
Q 49.703125 2.984375 51.375 0 
L 42.1875 0 
Q 40.828125 2.734375 40.4375 6.390625 
z
M 39.703125 26.03125 
Q 34.90625 24.078125 25.34375 22.703125 
Q 19.921875 21.921875 17.671875 20.9375 
Q 15.4375 19.96875 14.203125 18.09375 
Q 12.984375 16.21875 12.984375 13.921875 
Q 12.984375 10.40625 15.640625 8.0625 
Q 18.3125 5.71875 23.4375 5.71875 
Q 28.515625 5.71875 32.46875 7.9375 
Q 36.421875 10.15625 38.28125 14.015625 
Q 39.703125 17 39.703125 22.796875 
z
" id="ArialMT-97"/>
      <path d="M 4.984375 -4.296875 
L 13.53125 -5.5625 
Q 14.0625 -9.515625 16.5 -11.328125 
Q 19.78125 -13.765625 25.4375 -13.765625 
Q 31.546875 -13.765625 34.859375 -11.328125 
Q 38.1875 -8.890625 39.359375 -4.5 
Q 40.046875 -1.8125 39.984375 6.78125 
Q 34.234375 0 25.640625 0 
Q 14.9375 0 9.078125 7.71875 
Q 3.21875 15.4375 3.21875 26.21875 
Q 3.21875 33.640625 5.90625 39.90625 
Q 8.59375 46.1875 13.6875 49.609375 
Q 18.796875 53.03125 25.6875 53.03125 
Q 34.859375 53.03125 40.828125 45.609375 
L 40.828125 51.859375 
L 48.921875 51.859375 
L 48.921875 7.03125 
Q 48.921875 -5.078125 46.453125 -10.125 
Q 44 -15.1875 38.640625 -18.109375 
Q 33.296875 -21.046875 25.484375 -21.046875 
Q 16.21875 -21.046875 10.5 -16.875 
Q 4.78125 -12.703125 4.984375 -4.296875 
z
M 12.25 26.859375 
Q 12.25 16.65625 16.296875 11.96875 
Q 20.359375 7.28125 26.46875 7.28125 
Q 32.515625 7.28125 36.609375 11.9375 
Q 40.71875 16.609375 40.71875 26.5625 
Q 40.71875 36.078125 36.5 40.90625 
Q 32.28125 45.75 26.3125 45.75 
Q 20.453125 45.75 16.34375 40.984375 
Q 12.25 36.234375 12.25 26.859375 
z
" id="ArialMT-103"/>
      <path d="M 6.640625 0 
L 6.640625 71.578125 
L 15.4375 71.578125 
L 15.4375 30.765625 
L 36.234375 51.859375 
L 47.609375 51.859375 
L 27.78125 32.625 
L 49.609375 0 
L 38.765625 0 
L 21.625 26.515625 
L 15.4375 20.5625 
L 15.4375 0 
z
" id="ArialMT-107"/>
      <path d="M 9.03125 41.84375 
L 9.03125 51.859375 
L 19.046875 51.859375 
L 19.046875 41.84375 
z
M 9.03125 0 
L 9.03125 10.015625 
L 19.046875 10.015625 
L 19.046875 0 
z
" id="ArialMT-58"/>
     </defs>
     <g style="fill:#262626;" transform="translate(224.151563 63.7075)scale(0.1 -0.1)">
      <use xlink:href="#ArialMT-65"/>
      <use x="66.683594" xlink:href="#ArialMT-118"/>
      <use x="116.683594" xlink:href="#ArialMT-101"/>
      <use x="172.298828" xlink:href="#ArialMT-114"/>
      <use x="205.599609" xlink:href="#ArialMT-97"/>
      <use x="261.214844" xlink:href="#ArialMT-103"/>
      <use x="316.830078" xlink:href="#ArialMT-101"/>
      <use x="372.445312" xlink:href="#ArialMT-32"/>
      <use x="400.228516" xlink:href="#ArialMT-97"/>
      <use x="455.84375" xlink:href="#ArialMT-110"/>
      <use x="511.458984" xlink:href="#ArialMT-103"/>
      <use x="567.074219" xlink:href="#ArialMT-108"/>
      <use x="589.291016" xlink:href="#ArialMT-101"/>
      <use x="644.90625" xlink:href="#ArialMT-32"/>
      <use x="672.689453" xlink:href="#ArialMT-105"/>
      <use x="694.90625" xlink:href="#ArialMT-110"/>
      <use x="750.521484" xlink:href="#ArialMT-32"/>
      <use x="778.304688" xlink:href="#ArialMT-100"/>
      <use x="833.919922" xlink:href="#ArialMT-97"/>
      <use x="889.535156" xlink:href="#ArialMT-114"/>
      <use x="922.835938" xlink:href="#ArialMT-107"/>
      <use x="972.835938" xlink:href="#ArialMT-58"/>
      <use x="1000.619141" xlink:href="#ArialMT-32"/>
      <use x="1028.402344" xlink:href="#ArialMT-45"/>
      <use x="1061.703125" xlink:href="#ArialMT-53"/>
      <use x="1117.318359" xlink:href="#ArialMT-53"/>
      <use x="1172.933594" xlink:href="#ArialMT-46"/>
      <use x="1200.716797" xlink:href="#ArialMT-57"/>
      <use x="1256.332031" xlink:href="#ArialMT-56"/>
      <use x="1311.947266" xlink:href="#ArialMT-32"/>
      <use x="1339.730469" xlink:href="#ArialMT-100"/>
      <use x="1395.345703" xlink:href="#ArialMT-101"/>
      <use x="1450.960938" xlink:href="#ArialMT-103"/>
      <use x="1506.576172" xlink:href="#ArialMT-114"/>
      <use x="1539.876953" xlink:href="#ArialMT-101"/>
      <use x="1595.492188" xlink:href="#ArialMT-101"/>
      <use x="1651.107422" xlink:href="#ArialMT-115"/>
     </g>
    </g>
    <g id="PathCollection_4">
     <g>
      <use style="fill:#4c72b0;stroke:#4c72b0;stroke-width:0.3;" x="206.151563" xlink:href="#m13020ae2d9" y="75.345"/>
     </g>
    </g>
    <g id="text_18">
     <!-- $-0.5 &lt; t &lt; 0.$ -->
     <defs>
      <path d="M 10.59375 35.5 
L 73.1875 35.5 
L 73.1875 27.203125 
L 10.59375 27.203125 
z
" id="DejaVuSans-8722"/>
      <path d="M 31.78125 66.40625 
Q 24.171875 66.40625 20.328125 58.90625 
Q 16.5 51.421875 16.5 36.375 
Q 16.5 21.390625 20.328125 13.890625 
Q 24.171875 6.390625 31.78125 6.390625 
Q 39.453125 6.390625 43.28125 13.890625 
Q 47.125 21.390625 47.125 36.375 
Q 47.125 51.421875 43.28125 58.90625 
Q 39.453125 66.40625 31.78125 66.40625 
z
M 31.78125 74.21875 
Q 44.046875 74.21875 50.515625 64.515625 
Q 56.984375 54.828125 56.984375 36.375 
Q 56.984375 17.96875 50.515625 8.265625 
Q 44.046875 -1.421875 31.78125 -1.421875 
Q 19.53125 -1.421875 13.0625 8.265625 
Q 6.59375 17.96875 6.59375 36.375 
Q 6.59375 54.828125 13.0625 64.515625 
Q 19.53125 74.21875 31.78125 74.21875 
z
" id="DejaVuSans-48"/>
      <path d="M 10.6875 12.40625 
L 21 12.40625 
L 21 0 
L 10.6875 0 
z
" id="DejaVuSans-46"/>
      <path d="M 10.796875 72.90625 
L 49.515625 72.90625 
L 49.515625 64.59375 
L 19.828125 64.59375 
L 19.828125 46.734375 
Q 21.96875 47.46875 24.109375 47.828125 
Q 26.265625 48.1875 28.421875 48.1875 
Q 40.625 48.1875 47.75 41.5 
Q 54.890625 34.8125 54.890625 23.390625 
Q 54.890625 11.625 47.5625 5.09375 
Q 40.234375 -1.421875 26.90625 -1.421875 
Q 22.3125 -1.421875 17.546875 -0.640625 
Q 12.796875 0.140625 7.71875 1.703125 
L 7.71875 11.625 
Q 12.109375 9.234375 16.796875 8.0625 
Q 21.484375 6.890625 26.703125 6.890625 
Q 35.15625 6.890625 40.078125 11.328125 
Q 45.015625 15.765625 45.015625 23.390625 
Q 45.015625 31 40.078125 35.4375 
Q 35.15625 39.890625 26.703125 39.890625 
Q 22.75 39.890625 18.8125 39.015625 
Q 14.890625 38.140625 10.796875 36.28125 
z
" id="DejaVuSans-53"/>
      <path d="M 73.1875 49.21875 
L 22.796875 31.296875 
L 73.1875 13.484375 
L 73.1875 4.59375 
L 10.59375 27.296875 
L 10.59375 35.40625 
L 73.1875 58.109375 
z
" id="DejaVuSans-60"/>
      <path d="M 42.28125 54.6875 
L 40.921875 47.703125 
L 23 47.703125 
L 17.1875 18.015625 
Q 16.890625 16.359375 16.75 15.234375 
Q 16.609375 14.109375 16.609375 13.484375 
Q 16.609375 10.359375 18.484375 8.9375 
Q 20.359375 7.515625 24.515625 7.515625 
L 33.59375 7.515625 
L 32.078125 0 
L 23.484375 0 
Q 15.484375 0 11.546875 3.125 
Q 7.625 6.25 7.625 12.59375 
Q 7.625 13.71875 7.765625 15.0625 
Q 7.90625 16.40625 8.203125 18.015625 
L 14.015625 47.703125 
L 6.390625 47.703125 
L 7.8125 54.6875 
L 15.28125 54.6875 
L 18.3125 70.21875 
L 27.296875 70.21875 
L 24.3125 54.6875 
z
" id="DejaVuSans-Oblique-116"/>
     </defs>
     <g style="fill:#262626;" transform="translate(224.151563 77.97)scale(0.1 -0.1)">
      <use transform="translate(0 0.78125)" xlink:href="#DejaVuSans-8722"/>
      <use transform="translate(83.789062 0.78125)" xlink:href="#DejaVuSans-48"/>
      <use transform="translate(147.412109 0.78125)" xlink:href="#DejaVuSans-46"/>
      <use transform="translate(179.199219 0.78125)" xlink:href="#DejaVuSans-53"/>
      <use transform="translate(262.304688 0.78125)" xlink:href="#DejaVuSans-60"/>
      <use transform="translate(365.576172 0.78125)" xlink:href="#DejaVuSans-Oblique-116"/>
      <use transform="translate(424.267578 0.78125)" xlink:href="#DejaVuSans-60"/>
      <use transform="translate(527.539062 0.78125)" xlink:href="#DejaVuSans-48"/>
     </g>
    </g>
    <g id="PathCollection_5">
     <g>
      <use style="fill:#55a868;stroke:#55a868;stroke-width:0.3;" x="206.151563" xlink:href="#mfaf9e4175d" y="89.490312"/>
     </g>
    </g>
    <g id="text_19">
     <!-- $0. &lt; t &lt; 0.5$ -->
     <g style="fill:#262626;" transform="translate(224.151563 92.115312)scale(0.1 -0.1)">
      <use transform="translate(0 0.78125)" xlink:href="#DejaVuSans-48"/>
      <use transform="translate(63.623047 0.78125)" xlink:href="#DejaVuSans-46"/>
      <use transform="translate(134.375 0.78125)" xlink:href="#DejaVuSans-60"/>
      <use transform="translate(237.646484 0.78125)" xlink:href="#DejaVuSans-Oblique-116"/>
      <use transform="translate(296.337891 0.78125)" xlink:href="#DejaVuSans-60"/>
      <use transform="translate(399.609375 0.78125)" xlink:href="#DejaVuSans-48"/>
      <use transform="translate(463.232422 0.78125)" xlink:href="#DejaVuSans-46"/>
      <use transform="translate(495.019531 0.78125)" xlink:href="#DejaVuSans-53"/>
     </g>
    </g>
    <g id="PathCollection_6">
     <g>
      <use style="fill:#c44e52;stroke:#c44e52;stroke-width:0.3;" x="206.151563" xlink:href="#m783c8430a2" y="103.635625"/>
     </g>
    </g>
    <g id="text_20">
     <!-- $0.5 &lt; t &lt; 1.$ -->
     <defs>
      <path d="M 12.40625 8.296875 
L 28.515625 8.296875 
L 28.515625 63.921875 
L 10.984375 60.40625 
L 10.984375 69.390625 
L 28.421875 72.90625 
L 38.28125 72.90625 
L 38.28125 8.296875 
L 54.390625 8.296875 
L 54.390625 0 
L 12.40625 0 
z
" id="DejaVuSans-49"/>
     </defs>
     <g style="fill:#262626;" transform="translate(224.151563 106.260625)scale(0.1 -0.1)">
      <use transform="translate(0 0.78125)" xlink:href="#DejaVuSans-48"/>
      <use transform="translate(63.623047 0.78125)" xlink:href="#DejaVuSans-46"/>
      <use transform="translate(95.410156 0.78125)" xlink:href="#DejaVuSans-53"/>
      <use transform="translate(178.515625 0.78125)" xlink:href="#DejaVuSans-60"/>
      <use transform="translate(281.787109 0.78125)" xlink:href="#DejaVuSans-Oblique-116"/>
      <use transform="translate(340.478516 0.78125)" xlink:href="#DejaVuSans-60"/>
      <use transform="translate(443.75 0.78125)" xlink:href="#DejaVuSans-49"/>
     </g>
    </g>
   </g>
  </g>
 </g>
 <defs>
  <clipPath id="p8cb3635b08">
   <path d="M 447.66 199.98 
C 447.66 179.959136 443.716326 160.13295 436.054674 141.636084 
C 428.393021 123.139218 417.162388 106.331389 403.0055 92.1745 
C 388.848611 78.017612 372.040782 66.786979 353.543916 59.125326 
C 335.04705 51.463674 315.220864 47.52 295.2 47.52 
C 275.179136 47.52 255.35295 51.463674 236.856084 59.125326 
C 218.359218 66.786979 201.551389 78.017612 187.3945 92.1745 
C 173.237612 106.331389 162.006979 123.139218 154.345326 141.636084 
C 146.683674 160.13295 142.74 179.959136 142.74 199.98 
C 142.74 220.000864 146.683674 239.82705 154.345326 258.323916 
C 162.006979 276.820782 173.237612 293.628611 187.3945 307.7855 
C 201.551389 321.942388 218.359218 333.173021 236.856084 340.834674 
C 255.35295 348.496326 275.179136 352.44 295.2 352.44 
C 315.220864 352.44 335.04705 348.496326 353.543916 340.834674 
C 372.040782 333.173021 388.848611 321.942388 403.0055 307.7855 
C 417.162388 293.628611 428.393021 276.820782 436.054674 258.323916 
C 443.716326 239.82705 447.66 220.000864 447.66 199.98 
M 295.2 199.98 
C 295.2 199.98 295.2 199.98 295.2 199.98 
C 295.2 199.98 295.2 199.98 295.2 199.98 
C 295.2 199.98 295.2 199.98 295.2 199.98 
C 295.2 199.98 295.2 199.98 295.2 199.98 
C 295.2 199.98 295.2 199.98 295.2 199.98 
C 295.2 199.98 295.2 199.98 295.2 199.98 
C 295.2 199.98 295.2 199.98 295.2 199.98 
C 295.2 199.98 295.2 199.98 295.2 199.98 
C 295.2 199.98 295.2 199.98 295.2 199.98 
C 295.2 199.98 295.2 199.98 295.2 199.98 
C 295.2 199.98 295.2 199.98 295.2 199.98 
C 295.2 199.98 295.2 199.98 295.2 199.98 
C 295.2 199.98 295.2 199.98 295.2 199.98 
C 295.2 199.98 295.2 199.98 295.2 199.98 
C 295.2 199.98 295.2 199.98 295.2 199.98 
C 295.2 199.98 295.2 199.98 295.2 199.98 
M 447.66 199.98 
z
"/>
  </clipPath>
 </defs>
</svg>
