<?xml version="1.0" encoding="utf-8" standalone="no"?>
<!DOCTYPE svg PUBLIC "-//W3C//DTD SVG 1.1//EN"
  "http://www.w3.org/Graphics/SVG/1.1/DTD/svg11.dtd">
<!-- Created with matplotlib (https://matplotlib.org/) -->
<svg height="396pt" version="1.1" viewBox="0 0 576 396" width="576pt" xmlns="http://www.w3.org/2000/svg" xmlns:xlink="http://www.w3.org/1999/xlink">
 <defs>
  <style type="text/css">
*{stroke-linecap:butt;stroke-linejoin:round;}
  </style>
 </defs>
 <g id="figure_1">
  <g id="patch_1">
   <path d="M 0 396 
L 576 396 
L 576 0 
L 0 0 
z
" style="fill:#ffffff;"/>
  </g>
  <g id="axes_1">
   <g id="patch_2">
    <path d="M 447.66 199.98 
C 447.66 179.959136 443.716326 160.13295 436.054674 141.636084 
C 428.393021 123.139218 417.162388 106.331389 403.0055 92.1745 
C 388.848611 78.017612 372.040782 66.786979 353.543916 59.125326 
C 335.04705 51.463674 315.220864 47.52 295.2 47.52 
C 275.179136 47.52 255.35295 51.463674 236.856084 59.125326 
C 218.359218 66.786979 201.551389 78.017612 187.3945 92.1745 
C 173.237612 106.331389 162.006979 123.139218 154.345326 141.636084 
C 146.683674 160.13295 142.74 179.959136 142.74 199.98 
C 142.74 220.000864 146.683674 239.82705 154.345326 258.323916 
C 162.006979 276.820782 173.237612 293.628611 187.3945 307.7855 
C 201.551389 321.942388 218.359218 333.173021 236.856084 340.834674 
C 255.35295 348.496326 275.179136 352.44 295.2 352.44 
C 315.220864 352.44 335.04705 348.496326 353.543916 340.834674 
C 372.040782 333.173021 388.848611 321.942388 403.0055 307.7855 
C 417.162388 293.628611 428.393021 276.820782 436.054674 258.323916 
C 443.716326 239.82705 447.66 220.000864 447.66 199.98 
M 295.2 199.98 
C 295.2 199.98 295.2 199.98 295.2 199.98 
C 295.2 199.98 295.2 199.98 295.2 199.98 
C 295.2 199.98 295.2 199.98 295.2 199.98 
C 295.2 199.98 295.2 199.98 295.2 199.98 
C 295.2 199.98 295.2 199.98 295.2 199.98 
C 295.2 199.98 295.2 199.98 295.2 199.98 
C 295.2 199.98 295.2 199.98 295.2 199.98 
C 295.2 199.98 295.2 199.98 295.2 199.98 
C 295.2 199.98 295.2 199.98 295.2 199.98 
C 295.2 199.98 295.2 199.98 295.2 199.98 
C 295.2 199.98 295.2 199.98 295.2 199.98 
C 295.2 199.98 295.2 199.98 295.2 199.98 
C 295.2 199.98 295.2 199.98 295.2 199.98 
C 295.2 199.98 295.2 199.98 295.2 199.98 
C 295.2 199.98 295.2 199.98 295.2 199.98 
C 295.2 199.98 295.2 199.98 295.2 199.98 
M 447.66 199.98 
z
" style="fill:#eaeaf2;"/>
   </g>
   <g id="matplotlib.axis_1">
    <g id="xtick_1">
     <g id="line2d_1">
      <path clip-path="url(#p6130cb972d)" d="M 295.2 199.98 
L 447.66 199.98 
" style="fill:none;stroke:#ffffff;stroke-linecap:round;"/>
     </g>
     <g id="text_1">
      <!-- 0° -->
      <defs>
       <path d="M 4.15625 35.296875 
Q 4.15625 48 6.765625 55.734375 
Q 9.375 63.484375 14.515625 67.671875 
Q 19.671875 71.875 27.484375 71.875 
Q 33.25 71.875 37.59375 69.546875 
Q 41.9375 67.234375 44.765625 62.859375 
Q 47.609375 58.5 49.21875 52.21875 
Q 50.828125 45.953125 50.828125 35.296875 
Q 50.828125 22.703125 48.234375 14.96875 
Q 45.65625 7.234375 40.5 3 
Q 35.359375 -1.21875 27.484375 -1.21875 
Q 17.140625 -1.21875 11.234375 6.203125 
Q 4.15625 15.140625 4.15625 35.296875 
z
M 13.1875 35.296875 
Q 13.1875 17.671875 17.3125 11.828125 
Q 21.4375 6 27.484375 6 
Q 33.546875 6 37.671875 11.859375 
Q 41.796875 17.71875 41.796875 35.296875 
Q 41.796875 52.984375 37.671875 58.78125 
Q 33.546875 64.59375 27.390625 64.59375 
Q 21.34375 64.59375 17.71875 59.46875 
Q 13.1875 52.9375 13.1875 35.296875 
z
" id="ArialMT-48"/>
       <path d="M 6.25 59.28125 
Q 6.25 64.890625 10.21875 68.84375 
Q 14.203125 72.796875 19.78125 72.796875 
Q 25.4375 72.796875 29.390625 68.84375 
Q 33.34375 64.890625 33.34375 59.28125 
Q 33.34375 53.65625 29.359375 49.671875 
Q 25.390625 45.703125 19.78125 45.703125 
Q 14.203125 45.703125 10.21875 49.65625 
Q 6.25 53.609375 6.25 59.28125 
z
M 11.578125 59.28125 
Q 11.578125 55.859375 13.984375 53.4375 
Q 16.40625 51.03125 19.828125 51.03125 
Q 23.1875 51.03125 25.609375 53.4375 
Q 28.03125 55.859375 28.03125 59.28125 
Q 28.03125 62.703125 25.609375 65.109375 
Q 23.1875 67.53125 19.828125 67.53125 
Q 16.40625 67.53125 13.984375 65.109375 
Q 11.578125 62.703125 11.578125 59.28125 
z
" id="ArialMT-176"/>
      </defs>
      <g style="fill:#262626;" transform="translate(456.880313 202.565156)scale(0.1 -0.1)">
       <use xlink:href="#ArialMT-48"/>
       <use x="55.615234" xlink:href="#ArialMT-176"/>
      </g>
     </g>
    </g>
    <g id="xtick_2">
     <g id="line2d_2">
      <path clip-path="url(#p6130cb972d)" d="M 295.2 199.98 
L 403.0055 92.1745 
" style="fill:none;stroke:#ffffff;stroke-linecap:round;"/>
     </g>
     <g id="text_2">
      <!-- 45° -->
      <defs>
       <path d="M 32.328125 0 
L 32.328125 17.140625 
L 1.265625 17.140625 
L 1.265625 25.203125 
L 33.9375 71.578125 
L 41.109375 71.578125 
L 41.109375 25.203125 
L 50.78125 25.203125 
L 50.78125 17.140625 
L 41.109375 17.140625 
L 41.109375 0 
z
M 32.328125 25.203125 
L 32.328125 57.46875 
L 9.90625 25.203125 
z
" id="ArialMT-52"/>
       <path d="M 4.15625 18.75 
L 13.375 19.53125 
Q 14.40625 12.796875 18.140625 9.390625 
Q 21.875 6 27.15625 6 
Q 33.5 6 37.890625 10.78125 
Q 42.28125 15.578125 42.28125 23.484375 
Q 42.28125 31 38.0625 35.34375 
Q 33.84375 39.703125 27 39.703125 
Q 22.75 39.703125 19.328125 37.765625 
Q 15.921875 35.84375 13.96875 32.765625 
L 5.71875 33.84375 
L 12.640625 70.609375 
L 48.25 70.609375 
L 48.25 62.203125 
L 19.671875 62.203125 
L 15.828125 42.96875 
Q 22.265625 47.46875 29.34375 47.46875 
Q 38.71875 47.46875 45.15625 40.96875 
Q 51.609375 34.46875 51.609375 24.265625 
Q 51.609375 14.546875 45.953125 7.46875 
Q 39.0625 -1.21875 27.15625 -1.21875 
Q 17.390625 -1.21875 11.203125 4.25 
Q 5.03125 9.71875 4.15625 18.75 
z
" id="ArialMT-53"/>
      </defs>
      <g style="fill:#262626;" transform="translate(405.344839 84.860161)scale(0.1 -0.1)">
       <use xlink:href="#ArialMT-52"/>
       <use x="55.615234" xlink:href="#ArialMT-53"/>
       <use x="111.230469" xlink:href="#ArialMT-176"/>
      </g>
     </g>
    </g>
    <g id="xtick_3">
     <g id="line2d_3">
      <path clip-path="url(#p6130cb972d)" d="M 295.2 199.98 
L 295.2 47.52 
" style="fill:none;stroke:#ffffff;stroke-linecap:round;"/>
     </g>
     <g id="text_3">
      <!-- 90° -->
      <defs>
       <path d="M 5.46875 16.546875 
L 13.921875 17.328125 
Q 14.984375 11.375 18.015625 8.6875 
Q 21.046875 6 25.78125 6 
Q 29.828125 6 32.875 7.859375 
Q 35.9375 9.71875 37.890625 12.8125 
Q 39.84375 15.921875 41.15625 21.1875 
Q 42.484375 26.46875 42.484375 31.9375 
Q 42.484375 32.515625 42.4375 33.6875 
Q 39.796875 29.5 35.234375 26.875 
Q 30.671875 24.265625 25.34375 24.265625 
Q 16.453125 24.265625 10.296875 30.703125 
Q 4.15625 37.15625 4.15625 47.703125 
Q 4.15625 58.59375 10.578125 65.234375 
Q 17 71.875 26.65625 71.875 
Q 33.640625 71.875 39.421875 68.109375 
Q 45.21875 64.359375 48.21875 57.390625 
Q 51.21875 50.4375 51.21875 37.25 
Q 51.21875 23.53125 48.234375 15.40625 
Q 45.265625 7.28125 39.375 3.03125 
Q 33.5 -1.21875 25.59375 -1.21875 
Q 17.1875 -1.21875 11.859375 3.4375 
Q 6.546875 8.109375 5.46875 16.546875 
z
M 41.453125 48.140625 
Q 41.453125 55.71875 37.421875 60.15625 
Q 33.40625 64.59375 27.734375 64.59375 
Q 21.875 64.59375 17.53125 59.8125 
Q 13.1875 55.03125 13.1875 47.40625 
Q 13.1875 40.578125 17.3125 36.296875 
Q 21.4375 32.03125 27.484375 32.03125 
Q 33.59375 32.03125 37.515625 36.296875 
Q 41.453125 40.578125 41.453125 48.140625 
z
" id="ArialMT-57"/>
      </defs>
      <g style="fill:#262626;" transform="translate(287.639844 36.105156)scale(0.1 -0.1)">
       <use xlink:href="#ArialMT-57"/>
       <use x="55.615234" xlink:href="#ArialMT-48"/>
       <use x="111.230469" xlink:href="#ArialMT-176"/>
      </g>
     </g>
    </g>
    <g id="xtick_4">
     <g id="line2d_4">
      <path clip-path="url(#p6130cb972d)" d="M 295.2 199.98 
L 187.3945 92.1745 
" style="fill:none;stroke:#ffffff;stroke-linecap:round;"/>
     </g>
     <g id="text_4">
      <!-- 135° -->
      <defs>
       <path d="M 37.25 0 
L 28.46875 0 
L 28.46875 56 
Q 25.296875 52.984375 20.140625 49.953125 
Q 14.984375 46.921875 10.890625 45.40625 
L 10.890625 53.90625 
Q 18.265625 57.375 23.78125 62.296875 
Q 29.296875 67.234375 31.59375 71.875 
L 37.25 71.875 
z
" id="ArialMT-49"/>
       <path d="M 4.203125 18.890625 
L 12.984375 20.0625 
Q 14.5 12.59375 18.140625 9.296875 
Q 21.78125 6 27 6 
Q 33.203125 6 37.46875 10.296875 
Q 41.75 14.59375 41.75 20.953125 
Q 41.75 27 37.796875 30.921875 
Q 33.84375 34.859375 27.734375 34.859375 
Q 25.25 34.859375 21.53125 33.890625 
L 22.515625 41.609375 
Q 23.390625 41.5 23.921875 41.5 
Q 29.546875 41.5 34.03125 44.421875 
Q 38.53125 47.359375 38.53125 53.46875 
Q 38.53125 58.296875 35.25 61.46875 
Q 31.984375 64.65625 26.8125 64.65625 
Q 21.6875 64.65625 18.265625 61.421875 
Q 14.84375 58.203125 13.875 51.765625 
L 5.078125 53.328125 
Q 6.6875 62.15625 12.390625 67.015625 
Q 18.109375 71.875 26.609375 71.875 
Q 32.46875 71.875 37.390625 69.359375 
Q 42.328125 66.84375 44.9375 62.5 
Q 47.5625 58.15625 47.5625 53.265625 
Q 47.5625 48.640625 45.0625 44.828125 
Q 42.578125 41.015625 37.703125 38.765625 
Q 44.046875 37.3125 47.5625 32.6875 
Q 51.078125 28.078125 51.078125 21.140625 
Q 51.078125 11.765625 44.234375 5.25 
Q 37.40625 -1.265625 26.953125 -1.265625 
Q 17.53125 -1.265625 11.296875 4.34375 
Q 5.078125 9.96875 4.203125 18.890625 
z
" id="ArialMT-51"/>
      </defs>
      <g style="fill:#262626;" transform="translate(167.15438 84.860161)scale(0.1 -0.1)">
       <use xlink:href="#ArialMT-49"/>
       <use x="55.615234" xlink:href="#ArialMT-51"/>
       <use x="111.230469" xlink:href="#ArialMT-53"/>
       <use x="166.845703" xlink:href="#ArialMT-176"/>
      </g>
     </g>
    </g>
    <g id="xtick_5">
     <g id="line2d_5">
      <path clip-path="url(#p6130cb972d)" d="M 295.2 199.98 
L 142.74 199.98 
" style="fill:none;stroke:#ffffff;stroke-linecap:round;"/>
     </g>
     <g id="text_5">
      <!-- 180° -->
      <defs>
       <path d="M 17.671875 38.8125 
Q 12.203125 40.828125 9.5625 44.53125 
Q 6.9375 48.25 6.9375 53.421875 
Q 6.9375 61.234375 12.546875 66.546875 
Q 18.171875 71.875 27.484375 71.875 
Q 36.859375 71.875 42.578125 66.421875 
Q 48.296875 60.984375 48.296875 53.171875 
Q 48.296875 48.1875 45.671875 44.5 
Q 43.0625 40.828125 37.75 38.8125 
Q 44.34375 36.671875 47.78125 31.875 
Q 51.21875 27.09375 51.21875 20.453125 
Q 51.21875 11.28125 44.71875 5.03125 
Q 38.234375 -1.21875 27.640625 -1.21875 
Q 17.046875 -1.21875 10.546875 5.046875 
Q 4.046875 11.328125 4.046875 20.703125 
Q 4.046875 27.6875 7.59375 32.390625 
Q 11.140625 37.109375 17.671875 38.8125 
z
M 15.921875 53.71875 
Q 15.921875 48.640625 19.1875 45.40625 
Q 22.46875 42.1875 27.6875 42.1875 
Q 32.765625 42.1875 36.015625 45.375 
Q 39.265625 48.578125 39.265625 53.21875 
Q 39.265625 58.0625 35.90625 61.359375 
Q 32.5625 64.65625 27.59375 64.65625 
Q 22.5625 64.65625 19.234375 61.421875 
Q 15.921875 58.203125 15.921875 53.71875 
z
M 13.09375 20.65625 
Q 13.09375 16.890625 14.875 13.375 
Q 16.65625 9.859375 20.171875 7.921875 
Q 23.6875 6 27.734375 6 
Q 34.03125 6 38.125 10.046875 
Q 42.234375 14.109375 42.234375 20.359375 
Q 42.234375 26.703125 38.015625 30.859375 
Q 33.796875 35.015625 27.4375 35.015625 
Q 21.234375 35.015625 17.15625 30.90625 
Q 13.09375 26.8125 13.09375 20.65625 
z
" id="ArialMT-56"/>
      </defs>
      <g style="fill:#262626;" transform="translate(118.399375 202.565156)scale(0.1 -0.1)">
       <use xlink:href="#ArialMT-49"/>
       <use x="55.615234" xlink:href="#ArialMT-56"/>
       <use x="111.230469" xlink:href="#ArialMT-48"/>
       <use x="166.845703" xlink:href="#ArialMT-176"/>
      </g>
     </g>
    </g>
    <g id="xtick_6">
     <g id="line2d_6">
      <path clip-path="url(#p6130cb972d)" d="M 295.2 199.98 
L 187.3945 307.7855 
" style="fill:none;stroke:#ffffff;stroke-linecap:round;"/>
     </g>
     <g id="text_6">
      <!-- 225° -->
      <defs>
       <path d="M 50.34375 8.453125 
L 50.34375 0 
L 3.03125 0 
Q 2.9375 3.171875 4.046875 6.109375 
Q 5.859375 10.9375 9.828125 15.625 
Q 13.8125 20.3125 21.34375 26.46875 
Q 33.015625 36.03125 37.109375 41.625 
Q 41.21875 47.21875 41.21875 52.203125 
Q 41.21875 57.421875 37.46875 61 
Q 33.734375 64.59375 27.734375 64.59375 
Q 21.390625 64.59375 17.578125 60.78125 
Q 13.765625 56.984375 13.71875 50.25 
L 4.6875 51.171875 
Q 5.609375 61.28125 11.65625 66.578125 
Q 17.71875 71.875 27.9375 71.875 
Q 38.234375 71.875 44.234375 66.15625 
Q 50.25 60.453125 50.25 52 
Q 50.25 47.703125 48.484375 43.546875 
Q 46.734375 39.40625 42.65625 34.8125 
Q 38.578125 30.21875 29.109375 22.21875 
Q 21.1875 15.578125 18.9375 13.203125 
Q 16.703125 10.84375 15.234375 8.453125 
z
" id="ArialMT-50"/>
      </defs>
      <g style="fill:#262626;" transform="translate(167.15438 320.270151)scale(0.1 -0.1)">
       <use xlink:href="#ArialMT-50"/>
       <use x="55.615234" xlink:href="#ArialMT-50"/>
       <use x="111.230469" xlink:href="#ArialMT-53"/>
       <use x="166.845703" xlink:href="#ArialMT-176"/>
      </g>
     </g>
    </g>
    <g id="xtick_7">
     <g id="line2d_7">
      <path clip-path="url(#p6130cb972d)" d="M 295.2 199.98 
L 295.2 352.44 
" style="fill:none;stroke:#ffffff;stroke-linecap:round;"/>
     </g>
     <g id="text_7">
      <!-- 270° -->
      <defs>
       <path d="M 4.734375 62.203125 
L 4.734375 70.65625 
L 51.078125 70.65625 
L 51.078125 63.8125 
Q 44.234375 56.546875 37.515625 44.484375 
Q 30.8125 32.421875 27.15625 19.671875 
Q 24.515625 10.6875 23.78125 0 
L 14.75 0 
Q 14.890625 8.453125 18.0625 20.40625 
Q 21.234375 32.375 27.171875 43.484375 
Q 33.109375 54.59375 39.796875 62.203125 
z
" id="ArialMT-55"/>
      </defs>
      <g style="fill:#262626;" transform="translate(284.859375 369.025156)scale(0.1 -0.1)">
       <use xlink:href="#ArialMT-50"/>
       <use x="55.615234" xlink:href="#ArialMT-55"/>
       <use x="111.230469" xlink:href="#ArialMT-48"/>
       <use x="166.845703" xlink:href="#ArialMT-176"/>
      </g>
     </g>
    </g>
    <g id="xtick_8">
     <g id="line2d_8">
      <path clip-path="url(#p6130cb972d)" d="M 295.2 199.98 
L 403.0055 307.7855 
" style="fill:none;stroke:#ffffff;stroke-linecap:round;"/>
     </g>
     <g id="text_8">
      <!-- 315° -->
      <g style="fill:#262626;" transform="translate(402.56437 320.270151)scale(0.1 -0.1)">
       <use xlink:href="#ArialMT-51"/>
       <use x="55.615234" xlink:href="#ArialMT-49"/>
       <use x="111.230469" xlink:href="#ArialMT-53"/>
       <use x="166.845703" xlink:href="#ArialMT-176"/>
      </g>
     </g>
    </g>
   </g>
   <g id="matplotlib.axis_2">
    <g id="ytick_1">
     <g id="line2d_9">
      <path clip-path="url(#p6130cb972d)" d="M 324.716533 199.98 
L 324.554838 196.894682 
L 324.071526 193.843168 
L 323.271891 190.85889 
L 322.164694 187.974545 
L 320.762067 185.221734 
L 319.079377 182.630617 
L 317.135059 180.229585 
L 314.950415 178.044941 
L 312.549383 176.100623 
L 309.958266 174.417933 
L 307.205455 173.015306 
L 304.32111 171.908109 
L 301.336832 171.108474 
L 298.285318 170.625162 
L 295.2 170.463467 
L 292.114682 170.625162 
L 289.063168 171.108474 
L 286.07889 171.908109 
L 283.194545 173.015306 
L 280.441734 174.417933 
L 277.850617 176.100623 
L 275.449585 178.044941 
L 273.264941 180.229585 
L 271.320623 182.630617 
L 269.637933 185.221734 
L 268.235306 187.974545 
L 267.128109 190.85889 
L 266.328474 193.843168 
L 265.845162 196.894682 
L 265.683467 199.98 
L 265.845162 203.065318 
L 266.328474 206.116832 
L 267.128109 209.10111 
L 268.235306 211.985455 
L 269.637933 214.738266 
L 271.320623 217.329383 
L 273.264941 219.730415 
L 275.449585 221.915059 
L 277.850617 223.859377 
L 280.441734 225.542067 
L 283.194545 226.944694 
L 286.07889 228.051891 
L 289.063168 228.851526 
L 292.114682 229.334838 
L 295.2 229.496533 
L 298.285318 229.334838 
L 301.336832 228.851526 
L 304.32111 228.051891 
L 307.205455 226.944694 
L 309.958266 225.542067 
L 312.549383 223.859377 
L 314.950415 221.915059 
L 317.135059 219.730415 
L 319.079377 217.329383 
L 320.762067 214.738266 
L 322.164694 211.985455 
L 323.271891 209.10111 
L 324.071526 206.116832 
L 324.554838 203.065318 
L 324.716533 199.98 
L 324.716533 199.98 
" style="fill:none;stroke:#ffffff;stroke-linecap:round;"/>
     </g>
     <g id="text_9">
      <!-- 0.1 -->
      <defs>
       <path d="M 9.078125 0 
L 9.078125 10.015625 
L 19.09375 10.015625 
L 19.09375 0 
z
" id="ArialMT-46"/>
      </defs>
      <g style="fill:#262626;" transform="translate(322.46972 186.697012)scale(0.1 -0.1)">
       <use xlink:href="#ArialMT-48"/>
       <use x="55.615234" xlink:href="#ArialMT-46"/>
       <use x="83.398438" xlink:href="#ArialMT-49"/>
      </g>
     </g>
    </g>
    <g id="ytick_2">
     <g id="line2d_10">
      <path clip-path="url(#p6130cb972d)" d="M 354.233065 199.98 
L 354.089264 195.862062 
L 353.65856 191.764185 
L 352.943051 187.706336 
L 351.946225 183.708282 
L 350.672936 179.789502 
L 349.129389 175.969089 
L 347.323103 172.265655 
L 345.262879 168.697241 
L 342.958753 165.281235 
L 340.421952 162.034277 
L 337.664834 158.972187 
L 334.700831 156.109883 
L 331.544384 153.46131 
L 328.210871 151.039371 
L 324.716533 148.855866 
L 321.078393 146.921432 
L 317.314176 145.245495 
L 313.44222 143.836218 
L 309.481391 142.700469 
L 305.450984 141.843779 
L 301.370636 141.270324 
L 297.260224 140.982896 
L 293.139776 140.982896 
L 289.029364 141.270324 
L 284.949016 141.843779 
L 280.918609 142.700469 
L 276.95778 143.836218 
L 273.085824 145.245495 
L 269.321607 146.921432 
L 265.683467 148.855866 
L 262.189129 151.039371 
L 258.855616 153.46131 
L 255.699169 156.109883 
L 252.735166 158.972187 
L 249.978048 162.034277 
L 247.441247 165.281235 
L 245.137121 168.697241 
L 243.076897 172.265655 
L 241.270611 175.969089 
L 239.727064 179.789502 
L 238.453775 183.708282 
L 237.456949 187.706336 
L 236.74144 191.764185 
L 236.310736 195.862062 
L 236.166935 199.98 
L 236.310736 204.097938 
L 236.74144 208.195815 
L 237.456949 212.253664 
L 238.453775 216.251718 
L 239.727064 220.170498 
L 241.270611 223.990911 
L 243.076897 227.694345 
L 245.137121 231.262759 
L 247.441247 234.678765 
L 249.978048 237.925723 
L 252.735166 240.987813 
L 255.699169 243.850117 
L 258.855616 246.49869 
L 262.189129 248.920629 
L 265.683467 251.104134 
L 269.321607 253.038568 
L 273.085824 254.714505 
L 276.95778 256.123782 
L 280.918609 257.259531 
L 284.949016 258.116221 
L 289.029364 258.689676 
L 293.139776 258.977104 
L 297.260224 258.977104 
L 301.370636 258.689676 
L 305.450984 258.116221 
L 309.481391 257.259531 
L 313.44222 256.123782 
L 317.314176 254.714505 
L 321.078393 253.038568 
L 324.716533 251.104134 
L 328.210871 248.920629 
L 331.544384 246.49869 
L 334.700831 243.850117 
L 337.664834 240.987813 
L 340.421952 237.925723 
L 342.958753 234.678765 
L 345.262879 231.262759 
L 347.323103 227.694345 
L 349.129389 223.990911 
L 350.672936 220.170498 
L 351.946225 216.251718 
L 352.943051 212.253664 
L 353.65856 208.195815 
L 354.089264 204.097938 
L 354.233065 199.98 
L 354.233065 199.98 
" style="fill:none;stroke:#ffffff;stroke-linecap:round;"/>
     </g>
     <g id="text_10">
      <!-- 0.2 -->
      <g style="fill:#262626;" transform="translate(349.739441 175.401524)scale(0.1 -0.1)">
       <use xlink:href="#ArialMT-48"/>
       <use x="55.615234" xlink:href="#ArialMT-46"/>
       <use x="83.398438" xlink:href="#ArialMT-50"/>
      </g>
     </g>
    </g>
    <g id="ytick_3">
     <g id="line2d_11">
      <path clip-path="url(#p6130cb972d)" d="M 383.749598 199.98 
L 383.533896 193.803092 
L 382.88784 187.656278 
L 381.814577 181.569503 
L 380.319337 175.572423 
L 378.409404 169.694254 
L 376.094083 163.963634 
L 373.384655 158.408482 
L 370.294318 153.055862 
L 366.83813 147.931852 
L 363.032928 143.061415 
L 358.89725 138.46828 
L 354.451246 134.174824 
L 349.716576 130.201964 
L 344.716307 126.569056 
L 339.474799 123.293798 
L 334.017589 120.392148 
L 328.371263 117.878242 
L 322.563331 115.764328 
L 316.622087 114.060703 
L 310.576476 112.775669 
L 304.455953 111.915486 
L 298.290336 111.484344 
L 292.109664 111.484344 
L 285.944047 111.915486 
L 279.823524 112.775669 
L 273.777913 114.060703 
L 267.836669 115.764328 
L 262.028737 117.878242 
L 256.382411 120.392148 
L 250.925201 123.293798 
L 245.683693 126.569056 
L 240.683424 130.201964 
L 235.948754 134.174824 
L 231.50275 138.46828 
L 227.367072 143.061415 
L 223.56187 147.931852 
L 220.105682 153.055862 
L 217.015345 158.408482 
L 214.305917 163.963634 
L 211.990596 169.694254 
L 210.080663 175.572423 
L 208.585423 181.569503 
L 207.51216 187.656278 
L 206.866104 193.803092 
L 206.650402 199.98 
L 206.866104 206.156908 
L 207.51216 212.303722 
L 208.585423 218.390497 
L 210.080663 224.387577 
L 211.990596 230.265746 
L 214.305917 235.996366 
L 217.015345 241.551518 
L 220.105682 246.904138 
L 223.56187 252.028148 
L 227.367072 256.898585 
L 231.50275 261.49172 
L 235.948754 265.785176 
L 240.683424 269.758036 
L 245.683693 273.390944 
L 250.925201 276.666202 
L 256.382411 279.567852 
L 262.028737 282.081758 
L 267.836669 284.195672 
L 273.777913 285.899297 
L 279.823524 287.184331 
L 285.944047 288.044514 
L 292.109664 288.475656 
L 298.290336 288.475656 
L 304.455953 288.044514 
L 310.576476 287.184331 
L 316.622087 285.899297 
L 322.563331 284.195672 
L 328.371263 282.081758 
L 334.017589 279.567852 
L 339.474799 276.666202 
L 344.716307 273.390944 
L 349.716576 269.758036 
L 354.451246 265.785176 
L 358.89725 261.49172 
L 363.032928 256.898585 
L 366.83813 252.028148 
L 370.294318 246.904138 
L 373.384655 241.551518 
L 376.094083 235.996366 
L 378.409404 230.265746 
L 380.319337 224.387577 
L 381.814577 218.390497 
L 382.88784 212.303722 
L 383.533896 206.156908 
L 383.749598 199.98 
L 383.749598 199.98 
" style="fill:none;stroke:#ffffff;stroke-linecap:round;"/>
     </g>
     <g id="text_11">
      <!-- 0.3 -->
      <g style="fill:#262626;" transform="translate(377.009161 164.106036)scale(0.1 -0.1)">
       <use xlink:href="#ArialMT-48"/>
       <use x="55.615234" xlink:href="#ArialMT-46"/>
       <use x="83.398438" xlink:href="#ArialMT-51"/>
      </g>
     </g>
    </g>
    <g id="ytick_4">
     <g id="line2d_12">
      <path clip-path="url(#p6130cb972d)" d="M 413.266131 199.98 
L 413.194208 195.859551 
L 412.978528 191.744123 
L 412.619352 187.638729 
L 412.117119 183.54837 
L 411.472441 179.478032 
L 410.686103 175.432671 
L 409.759062 171.417218 
L 408.692449 167.436564 
L 407.487563 163.495559 
L 406.145872 159.599005 
L 404.66901 155.751649 
L 403.058778 151.958178 
L 401.317136 148.223215 
L 399.446206 144.551309 
L 397.448269 140.946935 
L 395.325758 137.414483 
L 393.081259 133.958257 
L 390.717506 130.582469 
L 388.237381 127.291232 
L 385.643903 124.088554 
L 382.940234 120.978338 
L 380.129667 117.964374 
L 377.215626 115.050333 
L 374.201662 112.239766 
L 371.091446 109.536097 
L 367.888768 106.942619 
L 364.597531 104.462494 
L 361.221743 102.098741 
L 357.765517 99.854242 
L 354.233065 97.731731 
L 350.628691 95.733794 
L 346.956785 93.862864 
L 343.221822 92.121222 
L 339.428351 90.51099 
L 335.580995 89.034128 
L 331.684441 87.692437 
L 327.743436 86.487551 
L 323.762782 85.420938 
L 319.747329 84.493897 
L 315.701968 83.707559 
L 311.63163 83.062881 
L 307.541271 82.560648 
L 303.435877 82.201472 
L 299.320449 81.985792 
L 295.2 81.913869 
L 291.079551 81.985792 
L 286.964123 82.201472 
L 282.858729 82.560648 
L 278.76837 83.062881 
L 274.698032 83.707559 
L 270.652671 84.493897 
L 266.637218 85.420938 
L 262.656564 86.487551 
L 258.715559 87.692437 
L 254.819005 89.034128 
L 250.971649 90.51099 
L 247.178178 92.121222 
L 243.443215 93.862864 
L 239.771309 95.733794 
L 236.166935 97.731731 
L 232.634483 99.854242 
L 229.178257 102.098741 
L 225.802469 104.462494 
L 222.511232 106.942619 
L 219.308554 109.536097 
L 216.198338 112.239766 
L 213.184374 115.050333 
L 210.270333 117.964374 
L 207.459766 120.978338 
L 204.756097 124.088554 
L 202.162619 127.291232 
L 199.682494 130.582469 
L 197.318741 133.958257 
L 195.074242 137.414483 
L 192.951731 140.946935 
L 190.953794 144.551309 
L 189.082864 148.223215 
L 187.341222 151.958178 
L 185.73099 155.751649 
L 184.254128 159.599005 
L 182.912437 163.495559 
L 181.707551 167.436564 
L 180.640938 171.417218 
L 179.713897 175.432671 
L 178.927559 179.478032 
L 178.282881 183.54837 
L 177.780648 187.638729 
L 177.421472 191.744123 
L 177.205792 195.859551 
L 177.133869 199.98 
L 177.205792 204.100449 
L 177.421472 208.215877 
L 177.780648 212.321271 
L 178.282881 216.41163 
L 178.927559 220.481968 
L 179.713897 224.527329 
L 180.640938 228.542782 
L 181.707551 232.523436 
L 182.912437 236.464441 
L 184.254128 240.360995 
L 185.73099 244.208351 
L 187.341222 248.001822 
L 189.082864 251.736785 
L 190.953794 255.408691 
L 192.951731 259.013065 
L 195.074242 262.545517 
L 197.318741 266.001743 
L 199.682494 269.377531 
L 202.162619 272.668768 
L 204.756097 275.871446 
L 207.459766 278.981662 
L 210.270333 281.995626 
L 213.184374 284.909667 
L 216.198338 287.720234 
L 219.308554 290.423903 
L 222.511232 293.017381 
L 225.802469 295.497506 
L 229.178257 297.861259 
L 232.634483 300.105758 
L 236.166935 302.228269 
L 239.771309 304.226206 
L 243.443215 306.097136 
L 247.178178 307.838778 
L 250.971649 309.44901 
L 254.819005 310.925872 
L 258.715559 312.267563 
L 262.656564 313.472449 
L 266.637218 314.539062 
L 270.652671 315.466103 
L 274.698032 316.252441 
L 278.76837 316.897119 
L 282.858729 317.399352 
L 286.964123 317.758528 
L 291.079551 317.974208 
L 295.2 318.046131 
L 299.320449 317.974208 
L 303.435877 317.758528 
L 307.541271 317.399352 
L 311.63163 316.897119 
L 315.701968 316.252441 
L 319.747329 315.466103 
L 323.762782 314.539062 
L 327.743436 313.472449 
L 331.684441 312.267563 
L 335.580995 310.925872 
L 339.428351 309.44901 
L 343.221822 307.838778 
L 346.956785 306.097136 
L 350.628691 304.226206 
L 354.233065 302.228269 
L 357.765517 300.105758 
L 361.221743 297.861259 
L 364.597531 295.497506 
L 367.888768 293.017381 
L 371.091446 290.423903 
L 374.201662 287.720234 
L 377.215626 284.909667 
L 380.129667 281.995626 
L 382.940234 278.981662 
L 385.643903 275.871446 
L 388.237381 272.668768 
L 390.717506 269.377531 
L 393.081259 266.001743 
L 395.325758 262.545517 
L 397.448269 259.013065 
L 399.446206 255.408691 
L 401.317136 251.736785 
L 403.058778 248.001822 
L 404.66901 244.208351 
L 406.145872 240.360995 
L 407.487563 236.464441 
L 408.692449 232.523436 
L 409.759062 228.542782 
L 410.686103 224.527329 
L 411.472441 220.481968 
L 412.117119 216.41163 
L 412.619352 212.321271 
L 412.978528 208.215877 
L 413.194208 204.100449 
L 413.266131 199.98 
L 413.266131 199.98 
" style="fill:none;stroke:#ffffff;stroke-linecap:round;"/>
     </g>
     <g id="text_12">
      <!-- 0.4 -->
      <g style="fill:#262626;" transform="translate(404.278882 152.810548)scale(0.1 -0.1)">
       <use xlink:href="#ArialMT-48"/>
       <use x="55.615234" xlink:href="#ArialMT-46"/>
       <use x="83.398438" xlink:href="#ArialMT-52"/>
      </g>
     </g>
    </g>
    <g id="ytick_5">
     <g id="line2d_13">
      <path clip-path="url(#p6130cb972d)" d="M 442.782664 199.98 
L 442.69276 194.829439 
L 442.42316 189.685154 
L 441.97419 184.553411 
L 441.346399 179.440463 
L 440.540551 174.352539 
L 439.557628 169.295839 
L 438.398828 164.276522 
L 437.065562 159.300705 
L 435.559454 154.374449 
L 433.88234 149.503756 
L 432.036263 144.694561 
L 430.023472 139.952723 
L 427.846419 135.284019 
L 425.507758 130.694136 
L 423.010336 126.188668 
L 420.357197 121.773103 
L 417.551573 117.452822 
L 414.596883 113.233087 
L 411.496726 109.11904 
L 408.254879 105.115692 
L 404.875293 101.227923 
L 401.362084 97.460467 
L 397.719533 93.817916 
L 393.952077 90.304707 
L 390.064308 86.925121 
L 386.06096 83.683274 
L 381.946913 80.583117 
L 377.727178 77.628427 
L 373.406897 74.822803 
L 368.991332 72.169664 
L 364.485864 69.672242 
L 359.895981 67.333581 
L 355.227277 65.156528 
L 350.485439 63.143737 
L 345.676244 61.29766 
L 340.805551 59.620546 
L 335.879295 58.114438 
L 330.903478 56.781172 
L 325.884161 55.622372 
L 320.827461 54.639449 
L 315.739537 53.833601 
L 310.626589 53.20581 
L 305.494846 52.75684 
L 300.350561 52.48724 
L 295.2 52.397336 
L 290.049439 52.48724 
L 284.905154 52.75684 
L 279.773411 53.20581 
L 274.660463 53.833601 
L 269.572539 54.639449 
L 264.515839 55.622372 
L 259.496522 56.781172 
L 254.520705 58.114438 
L 249.594449 59.620546 
L 244.723756 61.29766 
L 239.914561 63.143737 
L 235.172723 65.156528 
L 230.504019 67.333581 
L 225.914136 69.672242 
L 221.408668 72.169664 
L 216.993103 74.822803 
L 212.672822 77.628427 
L 208.453087 80.583117 
L 204.33904 83.683274 
L 200.335692 86.925121 
L 196.447923 90.304707 
L 192.680467 93.817916 
L 189.037916 97.460467 
L 185.524707 101.227923 
L 182.145121 105.115692 
L 178.903274 109.11904 
L 175.803117 113.233087 
L 172.848427 117.452822 
L 170.042803 121.773103 
L 167.389664 126.188668 
L 164.892242 130.694136 
L 162.553581 135.284019 
L 160.376528 139.952723 
L 158.363737 144.694561 
L 156.51766 149.503756 
L 154.840546 154.374449 
L 153.334438 159.300705 
L 152.001172 164.276522 
L 150.842372 169.295839 
L 149.859449 174.352539 
L 149.053601 179.440463 
L 148.42581 184.553411 
L 147.97684 189.685154 
L 147.70724 194.829439 
L 147.617336 199.98 
L 147.70724 205.130561 
L 147.97684 210.274846 
L 148.42581 215.406589 
L 149.053601 220.519537 
L 149.859449 225.607461 
L 150.842372 230.664161 
L 152.001172 235.683478 
L 153.334438 240.659295 
L 154.840546 245.585551 
L 156.51766 250.456244 
L 158.363737 255.265439 
L 160.376528 260.007277 
L 162.553581 264.675981 
L 164.892242 269.265864 
L 167.389664 273.771332 
L 170.042803 278.186897 
L 172.848427 282.507178 
L 175.803117 286.726913 
L 178.903274 290.84096 
L 182.145121 294.844308 
L 185.524707 298.732077 
L 189.037916 302.499533 
L 192.680467 306.142084 
L 196.447923 309.655293 
L 200.335692 313.034879 
L 204.33904 316.276726 
L 208.453087 319.376883 
L 212.672822 322.331573 
L 216.993103 325.137197 
L 221.408668 327.790336 
L 225.914136 330.287758 
L 230.504019 332.626419 
L 235.172723 334.803472 
L 239.914561 336.816263 
L 244.723756 338.66234 
L 249.594449 340.339454 
L 254.520705 341.845562 
L 259.496522 343.178828 
L 264.515839 344.337628 
L 269.572539 345.320551 
L 274.660463 346.126399 
L 279.773411 346.75419 
L 284.905154 347.20316 
L 290.049439 347.47276 
L 295.2 347.562664 
L 300.350561 347.47276 
L 305.494846 347.20316 
L 310.626589 346.75419 
L 315.739537 346.126399 
L 320.827461 345.320551 
L 325.884161 344.337628 
L 330.903478 343.178828 
L 335.879295 341.845562 
L 340.805551 340.339454 
L 345.676244 338.66234 
L 350.485439 336.816263 
L 355.227277 334.803472 
L 359.895981 332.626419 
L 364.485864 330.287758 
L 368.991332 327.790336 
L 373.406897 325.137197 
L 377.727178 322.331573 
L 381.946913 319.376883 
L 386.06096 316.276726 
L 390.064308 313.034879 
L 393.952077 309.655293 
L 397.719533 306.142084 
L 401.362084 302.499533 
L 404.875293 298.732077 
L 408.254879 294.844308 
L 411.496726 290.84096 
L 414.596883 286.726913 
L 417.551573 282.507178 
L 420.357197 278.186897 
L 423.010336 273.771332 
L 425.507758 269.265864 
L 427.846419 264.675981 
L 430.023472 260.007277 
L 432.036263 255.265439 
L 433.88234 250.456244 
L 435.559454 245.585551 
L 437.065562 240.659295 
L 438.398828 235.683478 
L 439.557628 230.664161 
L 440.540551 225.607461 
L 441.346399 220.519537 
L 441.97419 215.406589 
L 442.42316 210.274846 
L 442.69276 205.130561 
L 442.782664 199.98 
L 442.782664 199.98 
" style="fill:none;stroke:#ffffff;stroke-linecap:round;"/>
     </g>
     <g id="text_13">
      <!-- 0.5 -->
      <g style="fill:#262626;" transform="translate(431.548602 141.51506)scale(0.1 -0.1)">
       <use xlink:href="#ArialMT-48"/>
       <use x="55.615234" xlink:href="#ArialMT-46"/>
       <use x="83.398438" xlink:href="#ArialMT-53"/>
      </g>
     </g>
    </g>
   </g>
   <g id="PathCollection_1">
    <defs>
     <path d="M 0 3.5 
C 0.928211 3.5 1.81853 3.131218 2.474874 2.474874 
C 3.131218 1.81853 3.5 0.928211 3.5 0 
C 3.5 -0.928211 3.131218 -1.81853 2.474874 -2.474874 
C 1.81853 -3.131218 0.928211 -3.5 0 -3.5 
C -0.928211 -3.5 -1.81853 -3.131218 -2.474874 -2.474874 
C -3.131218 -1.81853 -3.5 -0.928211 -3.5 0 
C -3.5 0.928211 -3.131218 1.81853 -2.474874 2.474874 
C -1.81853 3.131218 -0.928211 3.5 0 3.5 
z
" id="m6eb1190402" style="stroke:#4c72b0;stroke-width:0.3;"/>
    </defs>
    <g clip-path="url(#p6130cb972d)">
     <use style="fill:#4c72b0;stroke:#4c72b0;stroke-width:0.3;" x="304.366792" xlink:href="#m6eb1190402" y="174.921128"/>
     <use style="fill:#4c72b0;stroke:#4c72b0;stroke-width:0.3;" x="431.677043" xlink:href="#m6eb1190402" y="150.411293"/>
     <use style="fill:#4c72b0;stroke:#4c72b0;stroke-width:0.3;" x="264.028745" xlink:href="#m6eb1190402" y="165.358515"/>
     <use style="fill:#4c72b0;stroke:#4c72b0;stroke-width:0.3;" x="343.562019" xlink:href="#m6eb1190402" y="159.276092"/>
     <use style="fill:#4c72b0;stroke:#4c72b0;stroke-width:0.3;" x="282.0425" xlink:href="#m6eb1190402" y="178.648804"/>
     <use style="fill:#4c72b0;stroke:#4c72b0;stroke-width:0.3;" x="252.610431" xlink:href="#m6eb1190402" y="188.942207"/>
     <use style="fill:#4c72b0;stroke:#4c72b0;stroke-width:0.3;" x="308.458507" xlink:href="#m6eb1190402" y="183.011468"/>
     <use style="fill:#4c72b0;stroke:#4c72b0;stroke-width:0.3;" x="395.996397" xlink:href="#m6eb1190402" y="160.092573"/>
     <use style="fill:#4c72b0;stroke:#4c72b0;stroke-width:0.3;" x="391.738211" xlink:href="#m6eb1190402" y="150.122023"/>
     <use style="fill:#4c72b0;stroke:#4c72b0;stroke-width:0.3;" x="233.152938" xlink:href="#m6eb1190402" y="174.226585"/>
     <use style="fill:#4c72b0;stroke:#4c72b0;stroke-width:0.3;" x="235.87062" xlink:href="#m6eb1190402" y="194.728746"/>
     <use style="fill:#4c72b0;stroke:#4c72b0;stroke-width:0.3;" x="296.375666" xlink:href="#m6eb1190402" y="197.894435"/>
     <use style="fill:#4c72b0;stroke:#4c72b0;stroke-width:0.3;" x="423.831627" xlink:href="#m6eb1190402" y="166.527761"/>
     <use style="fill:#4c72b0;stroke:#4c72b0;stroke-width:0.3;" x="200.258999" xlink:href="#m6eb1190402" y="186.661679"/>
     <use style="fill:#4c72b0;stroke:#4c72b0;stroke-width:0.3;" x="295.713162" xlink:href="#m6eb1190402" y="173.603327"/>
     <use style="fill:#4c72b0;stroke:#4c72b0;stroke-width:0.3;" x="253.220775" xlink:href="#m6eb1190402" y="194.445735"/>
     <use style="fill:#4c72b0;stroke:#4c72b0;stroke-width:0.3;" x="223.193931" xlink:href="#m6eb1190402" y="211.742401"/>
     <use style="fill:#4c72b0;stroke:#4c72b0;stroke-width:0.3;" x="234.136913" xlink:href="#m6eb1190402" y="212.763115"/>
     <use style="fill:#4c72b0;stroke:#4c72b0;stroke-width:0.3;" x="247.073069" xlink:href="#m6eb1190402" y="210.523932"/>
     <use style="fill:#4c72b0;stroke:#4c72b0;stroke-width:0.3;" x="331.143478" xlink:href="#m6eb1190402" y="195.736535"/>
     <use style="fill:#4c72b0;stroke:#4c72b0;stroke-width:0.3;" x="364.962412" xlink:href="#m6eb1190402" y="185.634365"/>
     <use style="fill:#4c72b0;stroke:#4c72b0;stroke-width:0.3;" x="312.837059" xlink:href="#m6eb1190402" y="186.712988"/>
     <use style="fill:#4c72b0;stroke:#4c72b0;stroke-width:0.3;" x="288.920592" xlink:href="#m6eb1190402" y="184.627118"/>
     <use style="fill:#4c72b0;stroke:#4c72b0;stroke-width:0.3;" x="185.220621" xlink:href="#m6eb1190402" y="201.893776"/>
    </g>
   </g>
   <g id="PathCollection_2">
    <defs>
     <path d="M 0 3.5 
C 0.928211 3.5 1.81853 3.131218 2.474874 2.474874 
C 3.131218 1.81853 3.5 0.928211 3.5 0 
C 3.5 -0.928211 3.131218 -1.81853 2.474874 -2.474874 
C 1.81853 -3.131218 0.928211 -3.5 0 -3.5 
C -0.928211 -3.5 -1.81853 -3.131218 -2.474874 -2.474874 
C -3.131218 -1.81853 -3.5 -0.928211 -3.5 0 
C -3.5 0.928211 -3.131218 1.81853 -2.474874 2.474874 
C -1.81853 3.131218 -0.928211 3.5 0 3.5 
z
" id="m2f2fb6f0ad" style="stroke:#55a868;stroke-width:0.3;"/>
    </defs>
    <g clip-path="url(#p6130cb972d)">
     <use style="fill:#55a868;stroke:#55a868;stroke-width:0.3;" x="246.039135" xlink:href="#m2f2fb6f0ad" y="242.564158"/>
     <use style="fill:#55a868;stroke:#55a868;stroke-width:0.3;" x="326.12426" xlink:href="#m2f2fb6f0ad" y="221.600519"/>
     <use style="fill:#55a868;stroke:#55a868;stroke-width:0.3;" x="212.940497" xlink:href="#m2f2fb6f0ad" y="217.429019"/>
     <use style="fill:#55a868;stroke:#55a868;stroke-width:0.3;" x="256.705556" xlink:href="#m2f2fb6f0ad" y="215.274839"/>
     <use style="fill:#55a868;stroke:#55a868;stroke-width:0.3;" x="335.237104" xlink:href="#m2f2fb6f0ad" y="204.493084"/>
     <use style="fill:#55a868;stroke:#55a868;stroke-width:0.3;" x="415.433142" xlink:href="#m2f2fb6f0ad" y="178.815951"/>
     <use style="fill:#55a868;stroke:#55a868;stroke-width:0.3;" x="366.743641" xlink:href="#m2f2fb6f0ad" y="169.404336"/>
     <use style="fill:#55a868;stroke:#55a868;stroke-width:0.3;" x="192.322521" xlink:href="#m2f2fb6f0ad" y="194.058505"/>
     <use style="fill:#55a868;stroke:#55a868;stroke-width:0.3;" x="236.88105" xlink:href="#m2f2fb6f0ad" y="198.812851"/>
     <use style="fill:#55a868;stroke:#55a868;stroke-width:0.3;" x="315.395134" xlink:href="#m2f2fb6f0ad" y="193.743938"/>
     <use style="fill:#55a868;stroke:#55a868;stroke-width:0.3;" x="297.10608" xlink:href="#m2f2fb6f0ad" y="193.032837"/>
     <use style="fill:#55a868;stroke:#55a868;stroke-width:0.3;" x="277.4556" xlink:href="#m2f2fb6f0ad" y="193.395074"/>
     <use style="fill:#55a868;stroke:#55a868;stroke-width:0.3;" x="240.916358" xlink:href="#m2f2fb6f0ad" y="200.664186"/>
     <use style="fill:#55a868;stroke:#55a868;stroke-width:0.3;" x="270.731656" xlink:href="#m2f2fb6f0ad" y="200.545224"/>
     <use style="fill:#55a868;stroke:#55a868;stroke-width:0.3;" x="292.695989" xlink:href="#m2f2fb6f0ad" y="204.736363"/>
     <use style="fill:#55a868;stroke:#55a868;stroke-width:0.3;" x="339.146839" xlink:href="#m2f2fb6f0ad" y="197.598552"/>
     <use style="fill:#55a868;stroke:#55a868;stroke-width:0.3;" x="370.658945" xlink:href="#m2f2fb6f0ad" y="178.175654"/>
     <use style="fill:#55a868;stroke:#55a868;stroke-width:0.3;" x="389.181649" xlink:href="#m2f2fb6f0ad" y="164.536843"/>
     <use style="fill:#55a868;stroke:#55a868;stroke-width:0.3;" x="294.636966" xlink:href="#m2f2fb6f0ad" y="169.744217"/>
     <use style="fill:#55a868;stroke:#55a868;stroke-width:0.3;" x="235.524912" xlink:href="#m2f2fb6f0ad" y="189.177023"/>
     <use style="fill:#55a868;stroke:#55a868;stroke-width:0.3;" x="224.796734" xlink:href="#m2f2fb6f0ad" y="217.107941"/>
     <use style="fill:#55a868;stroke:#55a868;stroke-width:0.3;" x="331.282715" xlink:href="#m2f2fb6f0ad" y="199.514908"/>
     <use style="fill:#55a868;stroke:#55a868;stroke-width:0.3;" x="314.253536" xlink:href="#m2f2fb6f0ad" y="186.755902"/>
     <use style="fill:#55a868;stroke:#55a868;stroke-width:0.3;" x="339.127943" xlink:href="#m2f2fb6f0ad" y="179.491637"/>
    </g>
   </g>
   <g id="PathCollection_3">
    <defs>
     <path d="M 0 3.5 
C 0.928211 3.5 1.81853 3.131218 2.474874 2.474874 
C 3.131218 1.81853 3.5 0.928211 3.5 0 
C 3.5 -0.928211 3.131218 -1.81853 2.474874 -2.474874 
C 1.81853 -3.131218 0.928211 -3.5 0 -3.5 
C -0.928211 -3.5 -1.81853 -3.131218 -2.474874 -2.474874 
C -3.131218 -1.81853 -3.5 -0.928211 -3.5 0 
C -3.5 0.928211 -3.131218 1.81853 -2.474874 2.474874 
C -1.81853 3.131218 -0.928211 3.5 0 3.5 
z
" id="m4a1e089d4c" style="stroke:#c44e52;stroke-width:0.3;"/>
    </defs>
    <g clip-path="url(#p6130cb972d)">
     <use style="fill:#c44e52;stroke:#c44e52;stroke-width:0.3;" x="281.482125" xlink:href="#m4a1e089d4c" y="191.284016"/>
     <use style="fill:#c44e52;stroke:#c44e52;stroke-width:0.3;" x="364.462402" xlink:href="#m4a1e089d4c" y="187.155985"/>
     <use style="fill:#c44e52;stroke:#c44e52;stroke-width:0.3;" x="356.126647" xlink:href="#m4a1e089d4c" y="182.818476"/>
     <use style="fill:#c44e52;stroke:#c44e52;stroke-width:0.3;" x="378.289087" xlink:href="#m4a1e089d4c" y="171.612772"/>
     <use style="fill:#c44e52;stroke:#c44e52;stroke-width:0.3;" x="314.042902" xlink:href="#m4a1e089d4c" y="183.632921"/>
     <use style="fill:#c44e52;stroke:#c44e52;stroke-width:0.3;" x="324.750716" xlink:href="#m4a1e089d4c" y="189.681424"/>
     <use style="fill:#c44e52;stroke:#c44e52;stroke-width:0.3;" x="402.816744" xlink:href="#m4a1e089d4c" y="173.56835"/>
     <use style="fill:#c44e52;stroke:#c44e52;stroke-width:0.3;" x="355.821001" xlink:href="#m4a1e089d4c" y="154.265672"/>
     <use style="fill:#c44e52;stroke:#c44e52;stroke-width:0.3;" x="208.909611" xlink:href="#m4a1e089d4c" y="182.603712"/>
     <use style="fill:#c44e52;stroke:#c44e52;stroke-width:0.3;" x="174.834343" xlink:href="#m4a1e089d4c" y="226.952942"/>
     <use style="fill:#c44e52;stroke:#c44e52;stroke-width:0.3;" x="301.839493" xlink:href="#m4a1e089d4c" y="227.572314"/>
     <use style="fill:#c44e52;stroke:#c44e52;stroke-width:0.3;" x="395.303308" xlink:href="#m4a1e089d4c" y="199.504834"/>
     <use style="fill:#c44e52;stroke:#c44e52;stroke-width:0.3;" x="331.377413" xlink:href="#m4a1e089d4c" y="195.99516"/>
     <use style="fill:#c44e52;stroke:#c44e52;stroke-width:0.3;" x="415.640027" xlink:href="#m4a1e089d4c" y="186.499289"/>
     <use style="fill:#c44e52;stroke:#c44e52;stroke-width:0.3;" x="285.686525" xlink:href="#m4a1e089d4c" y="199.046641"/>
     <use style="fill:#c44e52;stroke:#c44e52;stroke-width:0.3;" x="210.529545" xlink:href="#m4a1e089d4c" y="215.971817"/>
     <use style="fill:#c44e52;stroke:#c44e52;stroke-width:0.3;" x="261.594813" xlink:href="#m4a1e089d4c" y="210.389252"/>
     <use style="fill:#c44e52;stroke:#c44e52;stroke-width:0.3;" x="325.163235" xlink:href="#m4a1e089d4c" y="196.714132"/>
     <use style="fill:#c44e52;stroke:#c44e52;stroke-width:0.3;" x="284.531561" xlink:href="#m4a1e089d4c" y="206.81141"/>
     <use style="fill:#c44e52;stroke:#c44e52;stroke-width:0.3;" x="307.771869" xlink:href="#m4a1e089d4c" y="203.029356"/>
     <use style="fill:#c44e52;stroke:#c44e52;stroke-width:0.3;" x="383.166272" xlink:href="#m4a1e089d4c" y="184.366577"/>
     <use style="fill:#c44e52;stroke:#c44e52;stroke-width:0.3;" x="397.920256" xlink:href="#m4a1e089d4c" y="172.741238"/>
     <use style="fill:#c44e52;stroke:#c44e52;stroke-width:0.3;" x="327.628314" xlink:href="#m4a1e089d4c" y="185.904572"/>
     <use style="fill:#c44e52;stroke:#c44e52;stroke-width:0.3;" x="289.482161" xlink:href="#m4a1e089d4c" y="193.823753"/>
    </g>
   </g>
   <g id="line2d_14">
    <path clip-path="url(#p6130cb972d)" d="M 295.2 199.98 
L 426.714455 138.441491 
" style="fill:none;stroke:#ff0000;stroke-dasharray:7.4,3.2;stroke-dashoffset:0;stroke-width:2;"/>
   </g>
   <g id="patch_3">
    <path d="M 447.66 199.98 
C 447.66 179.959136 443.716326 160.13295 436.054674 141.636084 
C 428.393021 123.139218 417.162388 106.331389 403.0055 92.1745 
C 388.848611 78.017612 372.040782 66.786979 353.543916 59.125326 
C 335.04705 51.463674 315.220864 47.52 295.2 47.52 
C 275.179136 47.52 255.35295 51.463674 236.856084 59.125326 
C 218.359218 66.786979 201.551389 78.017612 187.3945 92.1745 
C 173.237612 106.331389 162.006979 123.139218 154.345326 141.636084 
C 146.683674 160.13295 142.74 179.959136 142.74 199.98 
C 142.74 220.000864 146.683674 239.82705 154.345326 258.323916 
C 162.006979 276.820782 173.237612 293.628611 187.3945 307.7855 
C 201.551389 321.942388 218.359218 333.173021 236.856084 340.834674 
C 255.35295 348.496326 275.179136 352.44 295.2 352.44 
C 315.220864 352.44 335.04705 348.496326 353.543916 340.834674 
C 372.040782 333.173021 388.848611 321.942388 403.0055 307.7855 
C 417.162388 293.628611 428.393021 276.820782 436.054674 258.323916 
C 443.716326 239.82705 447.66 220.000864 447.66 199.98 
" style="fill:none;"/>
   </g>
   <g id="text_14">
    <!-- Distribution of projected eye movement velocity on the screen - NewM1_1_12 -->
    <defs>
     <path d="M 7.71875 0 
L 7.71875 71.578125 
L 32.375 71.578125 
Q 40.71875 71.578125 45.125 70.5625 
Q 51.265625 69.140625 55.609375 65.4375 
Q 61.28125 60.640625 64.078125 53.1875 
Q 66.890625 45.75 66.890625 36.1875 
Q 66.890625 28.03125 64.984375 21.734375 
Q 63.09375 15.4375 60.109375 11.296875 
Q 57.125 7.171875 53.578125 4.796875 
Q 50.046875 2.4375 45.046875 1.21875 
Q 40.046875 0 33.546875 0 
z
M 17.1875 8.453125 
L 32.46875 8.453125 
Q 39.546875 8.453125 43.578125 9.765625 
Q 47.609375 11.078125 50 13.484375 
Q 53.375 16.84375 55.25 22.53125 
Q 57.125 28.21875 57.125 36.328125 
Q 57.125 47.5625 53.4375 53.59375 
Q 49.75 59.625 44.484375 61.671875 
Q 40.671875 63.140625 32.234375 63.140625 
L 17.1875 63.140625 
z
" id="ArialMT-68"/>
     <path d="M 6.640625 61.46875 
L 6.640625 71.578125 
L 15.4375 71.578125 
L 15.4375 61.46875 
z
M 6.640625 0 
L 6.640625 51.859375 
L 15.4375 51.859375 
L 15.4375 0 
z
" id="ArialMT-105"/>
     <path d="M 3.078125 15.484375 
L 11.765625 16.84375 
Q 12.5 11.625 15.84375 8.84375 
Q 19.1875 6.0625 25.203125 6.0625 
Q 31.25 6.0625 34.171875 8.515625 
Q 37.109375 10.984375 37.109375 14.3125 
Q 37.109375 17.28125 34.515625 19 
Q 32.71875 20.171875 25.53125 21.96875 
Q 15.875 24.421875 12.140625 26.203125 
Q 8.40625 27.984375 6.46875 31.125 
Q 4.546875 34.28125 4.546875 38.09375 
Q 4.546875 41.546875 6.125 44.5 
Q 7.71875 47.46875 10.453125 49.421875 
Q 12.5 50.921875 16.03125 51.96875 
Q 19.578125 53.03125 23.640625 53.03125 
Q 29.734375 53.03125 34.34375 51.265625 
Q 38.96875 49.515625 41.15625 46.5 
Q 43.359375 43.5 44.1875 38.484375 
L 35.59375 37.3125 
Q 35.015625 41.3125 32.203125 43.546875 
Q 29.390625 45.796875 24.265625 45.796875 
Q 18.21875 45.796875 15.625 43.796875 
Q 13.03125 41.796875 13.03125 39.109375 
Q 13.03125 37.40625 14.109375 36.03125 
Q 15.1875 34.625 17.484375 33.6875 
Q 18.796875 33.203125 25.25 31.453125 
Q 34.578125 28.953125 38.25 27.359375 
Q 41.9375 25.78125 44.03125 22.75 
Q 46.140625 19.734375 46.140625 15.234375 
Q 46.140625 10.84375 43.578125 6.953125 
Q 41.015625 3.078125 36.171875 0.953125 
Q 31.34375 -1.171875 25.25 -1.171875 
Q 15.140625 -1.171875 9.84375 3.03125 
Q 4.546875 7.234375 3.078125 15.484375 
z
" id="ArialMT-115"/>
     <path d="M 25.78125 7.859375 
L 27.046875 0.09375 
Q 23.34375 -0.6875 20.40625 -0.6875 
Q 15.625 -0.6875 12.984375 0.828125 
Q 10.359375 2.34375 9.28125 4.8125 
Q 8.203125 7.28125 8.203125 15.1875 
L 8.203125 45.015625 
L 1.765625 45.015625 
L 1.765625 51.859375 
L 8.203125 51.859375 
L 8.203125 64.703125 
L 16.9375 69.96875 
L 16.9375 51.859375 
L 25.78125 51.859375 
L 25.78125 45.015625 
L 16.9375 45.015625 
L 16.9375 14.703125 
Q 16.9375 10.9375 17.40625 9.859375 
Q 17.875 8.796875 18.921875 8.15625 
Q 19.96875 7.515625 21.921875 7.515625 
Q 23.390625 7.515625 25.78125 7.859375 
z
" id="ArialMT-116"/>
     <path d="M 6.5 0 
L 6.5 51.859375 
L 14.40625 51.859375 
L 14.40625 44 
Q 17.4375 49.515625 20 51.265625 
Q 22.5625 53.03125 25.640625 53.03125 
Q 30.078125 53.03125 34.671875 50.203125 
L 31.640625 42.046875 
Q 28.421875 43.953125 25.203125 43.953125 
Q 22.3125 43.953125 20.015625 42.21875 
Q 17.71875 40.484375 16.75 37.40625 
Q 15.28125 32.71875 15.28125 27.15625 
L 15.28125 0 
z
" id="ArialMT-114"/>
     <path d="M 14.703125 0 
L 6.546875 0 
L 6.546875 71.578125 
L 15.328125 71.578125 
L 15.328125 46.046875 
Q 20.90625 53.03125 29.546875 53.03125 
Q 34.328125 53.03125 38.59375 51.09375 
Q 42.875 49.171875 45.625 45.671875 
Q 48.390625 42.1875 49.953125 37.25 
Q 51.515625 32.328125 51.515625 26.703125 
Q 51.515625 13.375 44.921875 6.09375 
Q 38.328125 -1.171875 29.109375 -1.171875 
Q 19.921875 -1.171875 14.703125 6.5 
z
M 14.59375 26.3125 
Q 14.59375 17 17.140625 12.84375 
Q 21.296875 6.0625 28.375 6.0625 
Q 34.125 6.0625 38.328125 11.0625 
Q 42.53125 16.0625 42.53125 25.984375 
Q 42.53125 36.140625 38.5 40.96875 
Q 34.46875 45.796875 28.765625 45.796875 
Q 23 45.796875 18.796875 40.796875 
Q 14.59375 35.796875 14.59375 26.3125 
z
" id="ArialMT-98"/>
     <path d="M 40.578125 0 
L 40.578125 7.625 
Q 34.515625 -1.171875 24.125 -1.171875 
Q 19.53125 -1.171875 15.546875 0.578125 
Q 11.578125 2.34375 9.640625 5 
Q 7.71875 7.671875 6.9375 11.53125 
Q 6.390625 14.109375 6.390625 19.734375 
L 6.390625 51.859375 
L 15.1875 51.859375 
L 15.1875 23.09375 
Q 15.1875 16.21875 15.71875 13.8125 
Q 16.546875 10.359375 19.234375 8.375 
Q 21.921875 6.390625 25.875 6.390625 
Q 29.828125 6.390625 33.296875 8.421875 
Q 36.765625 10.453125 38.203125 13.9375 
Q 39.65625 17.4375 39.65625 24.078125 
L 39.65625 51.859375 
L 48.4375 51.859375 
L 48.4375 0 
z
" id="ArialMT-117"/>
     <path d="M 3.328125 25.921875 
Q 3.328125 40.328125 11.328125 47.265625 
Q 18.015625 53.03125 27.640625 53.03125 
Q 38.328125 53.03125 45.109375 46.015625 
Q 51.90625 39.015625 51.90625 26.65625 
Q 51.90625 16.65625 48.90625 10.90625 
Q 45.90625 5.171875 40.15625 2 
Q 34.421875 -1.171875 27.640625 -1.171875 
Q 16.75 -1.171875 10.03125 5.8125 
Q 3.328125 12.796875 3.328125 25.921875 
z
M 12.359375 25.921875 
Q 12.359375 15.96875 16.703125 11.015625 
Q 21.046875 6.0625 27.640625 6.0625 
Q 34.1875 6.0625 38.53125 11.03125 
Q 42.875 16.015625 42.875 26.21875 
Q 42.875 35.84375 38.5 40.796875 
Q 34.125 45.75 27.640625 45.75 
Q 21.046875 45.75 16.703125 40.8125 
Q 12.359375 35.890625 12.359375 25.921875 
z
" id="ArialMT-111"/>
     <path d="M 6.59375 0 
L 6.59375 51.859375 
L 14.5 51.859375 
L 14.5 44.484375 
Q 20.21875 53.03125 31 53.03125 
Q 35.6875 53.03125 39.625 51.34375 
Q 43.5625 49.65625 45.515625 46.921875 
Q 47.46875 44.1875 48.25 40.4375 
Q 48.734375 37.984375 48.734375 31.890625 
L 48.734375 0 
L 39.9375 0 
L 39.9375 31.546875 
Q 39.9375 36.921875 38.90625 39.578125 
Q 37.890625 42.234375 35.28125 43.8125 
Q 32.671875 45.40625 29.15625 45.40625 
Q 23.53125 45.40625 19.453125 41.84375 
Q 15.375 38.28125 15.375 28.328125 
L 15.375 0 
z
" id="ArialMT-110"/>
     <path id="ArialMT-32"/>
     <path d="M 8.6875 0 
L 8.6875 45.015625 
L 0.921875 45.015625 
L 0.921875 51.859375 
L 8.6875 51.859375 
L 8.6875 57.375 
Q 8.6875 62.59375 9.625 65.140625 
Q 10.890625 68.5625 14.078125 70.671875 
Q 17.28125 72.796875 23.046875 72.796875 
Q 26.765625 72.796875 31.25 71.921875 
L 29.9375 64.265625 
Q 27.203125 64.75 24.75 64.75 
Q 20.75 64.75 19.09375 63.03125 
Q 17.4375 61.328125 17.4375 56.640625 
L 17.4375 51.859375 
L 27.546875 51.859375 
L 27.546875 45.015625 
L 17.4375 45.015625 
L 17.4375 0 
z
" id="ArialMT-102"/>
     <path d="M 6.59375 -19.875 
L 6.59375 51.859375 
L 14.59375 51.859375 
L 14.59375 45.125 
Q 17.4375 49.078125 21 51.046875 
Q 24.5625 53.03125 29.640625 53.03125 
Q 36.28125 53.03125 41.359375 49.609375 
Q 46.4375 46.1875 49.015625 39.953125 
Q 51.609375 33.734375 51.609375 26.3125 
Q 51.609375 18.359375 48.75 11.984375 
Q 45.90625 5.609375 40.453125 2.21875 
Q 35.015625 -1.171875 29 -1.171875 
Q 24.609375 -1.171875 21.109375 0.6875 
Q 17.625 2.546875 15.375 5.375 
L 15.375 -19.875 
z
M 14.546875 25.640625 
Q 14.546875 15.625 18.59375 10.84375 
Q 22.65625 6.0625 28.421875 6.0625 
Q 34.28125 6.0625 38.453125 11.015625 
Q 42.625 15.96875 42.625 26.375 
Q 42.625 36.28125 38.546875 41.203125 
Q 34.46875 46.140625 28.8125 46.140625 
Q 23.1875 46.140625 18.859375 40.890625 
Q 14.546875 35.640625 14.546875 25.640625 
z
" id="ArialMT-112"/>
     <path d="M 6.546875 61.375 
L 6.546875 71.578125 
L 15.328125 71.578125 
L 15.328125 61.375 
z
M -4.59375 -20.125 
L -2.9375 -12.640625 
Q -0.296875 -13.328125 1.21875 -13.328125 
Q 3.90625 -13.328125 5.21875 -11.546875 
Q 6.546875 -9.765625 6.546875 -2.640625 
L 6.546875 51.859375 
L 15.328125 51.859375 
L 15.328125 -2.828125 
Q 15.328125 -12.40625 12.84375 -16.15625 
Q 9.671875 -21.046875 2.296875 -21.046875 
Q -1.265625 -21.046875 -4.59375 -20.125 
z
" id="ArialMT-106"/>
     <path d="M 42.09375 16.703125 
L 51.171875 15.578125 
Q 49.03125 7.625 43.21875 3.21875 
Q 37.40625 -1.171875 28.375 -1.171875 
Q 17 -1.171875 10.328125 5.828125 
Q 3.65625 12.84375 3.65625 25.484375 
Q 3.65625 38.578125 10.390625 45.796875 
Q 17.140625 53.03125 27.875 53.03125 
Q 38.28125 53.03125 44.875 45.953125 
Q 51.46875 38.875 51.46875 26.03125 
Q 51.46875 25.25 51.421875 23.6875 
L 12.75 23.6875 
Q 13.234375 15.140625 17.578125 10.59375 
Q 21.921875 6.0625 28.421875 6.0625 
Q 33.25 6.0625 36.671875 8.59375 
Q 40.09375 11.140625 42.09375 16.703125 
z
M 13.234375 30.90625 
L 42.1875 30.90625 
Q 41.609375 37.453125 38.875 40.71875 
Q 34.671875 45.796875 27.984375 45.796875 
Q 21.921875 45.796875 17.796875 41.75 
Q 13.671875 37.703125 13.234375 30.90625 
z
" id="ArialMT-101"/>
     <path d="M 40.4375 19 
L 49.078125 17.875 
Q 47.65625 8.9375 41.8125 3.875 
Q 35.984375 -1.171875 27.484375 -1.171875 
Q 16.84375 -1.171875 10.375 5.78125 
Q 3.90625 12.75 3.90625 25.734375 
Q 3.90625 34.125 6.6875 40.421875 
Q 9.46875 46.734375 15.15625 49.875 
Q 20.84375 53.03125 27.546875 53.03125 
Q 35.984375 53.03125 41.359375 48.75 
Q 46.734375 44.484375 48.25 36.625 
L 39.703125 35.296875 
Q 38.484375 40.53125 35.375 43.15625 
Q 32.28125 45.796875 27.875 45.796875 
Q 21.234375 45.796875 17.078125 41.03125 
Q 12.9375 36.28125 12.9375 25.984375 
Q 12.9375 15.53125 16.9375 10.796875 
Q 20.953125 6.0625 27.390625 6.0625 
Q 32.5625 6.0625 36.03125 9.234375 
Q 39.5 12.40625 40.4375 19 
z
" id="ArialMT-99"/>
     <path d="M 40.234375 0 
L 40.234375 6.546875 
Q 35.296875 -1.171875 25.734375 -1.171875 
Q 19.53125 -1.171875 14.328125 2.25 
Q 9.125 5.671875 6.265625 11.796875 
Q 3.421875 17.921875 3.421875 25.875 
Q 3.421875 33.640625 6 39.96875 
Q 8.59375 46.296875 13.765625 49.65625 
Q 18.953125 53.03125 25.34375 53.03125 
Q 30.03125 53.03125 33.6875 51.046875 
Q 37.359375 49.078125 39.65625 45.90625 
L 39.65625 71.578125 
L 48.390625 71.578125 
L 48.390625 0 
z
M 12.453125 25.875 
Q 12.453125 15.921875 16.640625 10.984375 
Q 20.84375 6.0625 26.5625 6.0625 
Q 32.328125 6.0625 36.34375 10.765625 
Q 40.375 15.484375 40.375 25.140625 
Q 40.375 35.796875 36.265625 40.765625 
Q 32.171875 45.75 26.171875 45.75 
Q 20.3125 45.75 16.375 40.96875 
Q 12.453125 36.1875 12.453125 25.875 
z
" id="ArialMT-100"/>
     <path d="M 6.203125 -19.96875 
L 5.21875 -11.71875 
Q 8.109375 -12.5 10.25 -12.5 
Q 13.1875 -12.5 14.9375 -11.515625 
Q 16.703125 -10.546875 17.828125 -8.796875 
Q 18.65625 -7.46875 20.515625 -2.25 
Q 20.75 -1.515625 21.296875 -0.09375 
L 1.609375 51.859375 
L 11.078125 51.859375 
L 21.875 21.828125 
Q 23.96875 16.109375 25.640625 9.8125 
Q 27.15625 15.875 29.25 21.625 
L 40.328125 51.859375 
L 49.125 51.859375 
L 29.390625 -0.875 
Q 26.21875 -9.421875 24.46875 -12.640625 
Q 22.125 -17 19.09375 -19.015625 
Q 16.0625 -21.046875 11.859375 -21.046875 
Q 9.328125 -21.046875 6.203125 -19.96875 
z
" id="ArialMT-121"/>
     <path d="M 6.59375 0 
L 6.59375 51.859375 
L 14.453125 51.859375 
L 14.453125 44.578125 
Q 16.890625 48.390625 20.9375 50.703125 
Q 25 53.03125 30.171875 53.03125 
Q 35.9375 53.03125 39.625 50.640625 
Q 43.3125 48.25 44.828125 43.953125 
Q 50.984375 53.03125 60.84375 53.03125 
Q 68.5625 53.03125 72.703125 48.75 
Q 76.859375 44.484375 76.859375 35.59375 
L 76.859375 0 
L 68.109375 0 
L 68.109375 32.671875 
Q 68.109375 37.9375 67.25 40.25 
Q 66.40625 42.578125 64.15625 43.984375 
Q 61.921875 45.40625 58.890625 45.40625 
Q 53.421875 45.40625 49.796875 41.765625 
Q 46.1875 38.140625 46.1875 30.125 
L 46.1875 0 
L 37.40625 0 
L 37.40625 33.6875 
Q 37.40625 39.546875 35.25 42.46875 
Q 33.109375 45.40625 28.21875 45.40625 
Q 24.515625 45.40625 21.359375 43.453125 
Q 18.21875 41.5 16.796875 37.734375 
Q 15.375 33.984375 15.375 26.90625 
L 15.375 0 
z
" id="ArialMT-109"/>
     <path d="M 21 0 
L 1.265625 51.859375 
L 10.546875 51.859375 
L 21.6875 20.796875 
Q 23.484375 15.765625 25 10.359375 
Q 26.171875 14.453125 28.265625 20.21875 
L 39.796875 51.859375 
L 48.828125 51.859375 
L 29.203125 0 
z
" id="ArialMT-118"/>
     <path d="M 6.390625 0 
L 6.390625 71.578125 
L 15.1875 71.578125 
L 15.1875 0 
z
" id="ArialMT-108"/>
     <path d="M 6.59375 0 
L 6.59375 71.578125 
L 15.375 71.578125 
L 15.375 45.90625 
Q 21.53125 53.03125 30.90625 53.03125 
Q 36.671875 53.03125 40.921875 50.75 
Q 45.171875 48.484375 47 44.484375 
Q 48.828125 40.484375 48.828125 32.859375 
L 48.828125 0 
L 40.046875 0 
L 40.046875 32.859375 
Q 40.046875 39.453125 37.1875 42.453125 
Q 34.328125 45.453125 29.109375 45.453125 
Q 25.203125 45.453125 21.75 43.421875 
Q 18.3125 41.40625 16.84375 37.9375 
Q 15.375 34.46875 15.375 28.375 
L 15.375 0 
z
" id="ArialMT-104"/>
     <path d="M 3.171875 21.484375 
L 3.171875 30.328125 
L 30.171875 30.328125 
L 30.171875 21.484375 
z
" id="ArialMT-45"/>
     <path d="M 7.625 0 
L 7.625 71.578125 
L 17.328125 71.578125 
L 54.9375 15.375 
L 54.9375 71.578125 
L 64.015625 71.578125 
L 64.015625 0 
L 54.296875 0 
L 16.703125 56.25 
L 16.703125 0 
z
" id="ArialMT-78"/>
     <path d="M 16.15625 0 
L 0.296875 51.859375 
L 9.375 51.859375 
L 17.625 21.921875 
L 20.703125 10.796875 
Q 20.90625 11.625 23.390625 21.484375 
L 31.640625 51.859375 
L 40.671875 51.859375 
L 48.4375 21.78125 
L 51.03125 11.859375 
L 54 21.875 
L 62.890625 51.859375 
L 71.4375 51.859375 
L 55.21875 0 
L 46.09375 0 
L 37.84375 31.0625 
L 35.84375 39.890625 
L 25.34375 0 
z
" id="ArialMT-119"/>
     <path d="M 7.421875 0 
L 7.421875 71.578125 
L 21.6875 71.578125 
L 38.625 20.90625 
Q 40.96875 13.8125 42.046875 10.296875 
Q 43.265625 14.203125 45.84375 21.78125 
L 62.984375 71.578125 
L 75.734375 71.578125 
L 75.734375 0 
L 66.609375 0 
L 66.609375 59.90625 
L 45.796875 0 
L 37.25 0 
L 16.546875 60.9375 
L 16.546875 0 
z
" id="ArialMT-77"/>
     <path d="M -1.515625 -19.875 
L -1.515625 -13.53125 
L 56.734375 -13.53125 
L 56.734375 -19.875 
z
" id="ArialMT-95"/>
    </defs>
    <g style="fill:#262626;" transform="translate(89.110313 23.748375)scale(0.12 -0.12)">
     <use xlink:href="#ArialMT-68"/>
     <use x="72.216797" xlink:href="#ArialMT-105"/>
     <use x="94.433594" xlink:href="#ArialMT-115"/>
     <use x="144.433594" xlink:href="#ArialMT-116"/>
     <use x="172.216797" xlink:href="#ArialMT-114"/>
     <use x="205.517578" xlink:href="#ArialMT-105"/>
     <use x="227.734375" xlink:href="#ArialMT-98"/>
     <use x="283.349609" xlink:href="#ArialMT-117"/>
     <use x="338.964844" xlink:href="#ArialMT-116"/>
     <use x="366.748047" xlink:href="#ArialMT-105"/>
     <use x="388.964844" xlink:href="#ArialMT-111"/>
     <use x="444.580078" xlink:href="#ArialMT-110"/>
     <use x="500.195312" xlink:href="#ArialMT-32"/>
     <use x="527.978516" xlink:href="#ArialMT-111"/>
     <use x="583.59375" xlink:href="#ArialMT-102"/>
     <use x="611.376953" xlink:href="#ArialMT-32"/>
     <use x="639.160156" xlink:href="#ArialMT-112"/>
     <use x="694.775391" xlink:href="#ArialMT-114"/>
     <use x="728.076172" xlink:href="#ArialMT-111"/>
     <use x="783.691406" xlink:href="#ArialMT-106"/>
     <use x="805.908203" xlink:href="#ArialMT-101"/>
     <use x="861.523438" xlink:href="#ArialMT-99"/>
     <use x="911.523438" xlink:href="#ArialMT-116"/>
     <use x="939.306641" xlink:href="#ArialMT-101"/>
     <use x="994.921875" xlink:href="#ArialMT-100"/>
     <use x="1050.537109" xlink:href="#ArialMT-32"/>
     <use x="1078.320312" xlink:href="#ArialMT-101"/>
     <use x="1133.935547" xlink:href="#ArialMT-121"/>
     <use x="1183.935547" xlink:href="#ArialMT-101"/>
     <use x="1239.550781" xlink:href="#ArialMT-32"/>
     <use x="1267.333984" xlink:href="#ArialMT-109"/>
     <use x="1350.634766" xlink:href="#ArialMT-111"/>
     <use x="1406.25" xlink:href="#ArialMT-118"/>
     <use x="1456.25" xlink:href="#ArialMT-101"/>
     <use x="1511.865234" xlink:href="#ArialMT-109"/>
     <use x="1595.166016" xlink:href="#ArialMT-101"/>
     <use x="1650.78125" xlink:href="#ArialMT-110"/>
     <use x="1706.396484" xlink:href="#ArialMT-116"/>
     <use x="1734.179688" xlink:href="#ArialMT-32"/>
     <use x="1761.962891" xlink:href="#ArialMT-118"/>
     <use x="1811.962891" xlink:href="#ArialMT-101"/>
     <use x="1867.578125" xlink:href="#ArialMT-108"/>
     <use x="1889.794922" xlink:href="#ArialMT-111"/>
     <use x="1945.410156" xlink:href="#ArialMT-99"/>
     <use x="1995.410156" xlink:href="#ArialMT-105"/>
     <use x="2017.626953" xlink:href="#ArialMT-116"/>
     <use x="2045.410156" xlink:href="#ArialMT-121"/>
     <use x="2095.410156" xlink:href="#ArialMT-32"/>
     <use x="2123.193359" xlink:href="#ArialMT-111"/>
     <use x="2178.808594" xlink:href="#ArialMT-110"/>
     <use x="2234.423828" xlink:href="#ArialMT-32"/>
     <use x="2262.207031" xlink:href="#ArialMT-116"/>
     <use x="2289.990234" xlink:href="#ArialMT-104"/>
     <use x="2345.605469" xlink:href="#ArialMT-101"/>
     <use x="2401.220703" xlink:href="#ArialMT-32"/>
     <use x="2429.003906" xlink:href="#ArialMT-115"/>
     <use x="2479.003906" xlink:href="#ArialMT-99"/>
     <use x="2529.003906" xlink:href="#ArialMT-114"/>
     <use x="2562.304688" xlink:href="#ArialMT-101"/>
     <use x="2617.919922" xlink:href="#ArialMT-101"/>
     <use x="2673.535156" xlink:href="#ArialMT-110"/>
     <use x="2729.150391" xlink:href="#ArialMT-32"/>
     <use x="2756.933594" xlink:href="#ArialMT-45"/>
     <use x="2790.234375" xlink:href="#ArialMT-32"/>
     <use x="2818.017578" xlink:href="#ArialMT-78"/>
     <use x="2890.234375" xlink:href="#ArialMT-101"/>
     <use x="2945.849609" xlink:href="#ArialMT-119"/>
     <use x="3018.066406" xlink:href="#ArialMT-77"/>
     <use x="3101.367188" xlink:href="#ArialMT-49"/>
     <use x="3156.982422" xlink:href="#ArialMT-95"/>
     <use x="3212.597656" xlink:href="#ArialMT-49"/>
     <use x="3268.212891" xlink:href="#ArialMT-95"/>
     <use x="3323.828125" xlink:href="#ArialMT-49"/>
     <use x="3379.443359" xlink:href="#ArialMT-50"/>
    </g>
   </g>
   <g id="legend_1">
    <g id="line2d_15">
     <path d="M 197.816406 60.2075 
L 217.816406 60.2075 
" style="fill:none;stroke:#ff0000;stroke-dasharray:7.4,3.2;stroke-dashoffset:0;stroke-width:2;"/>
    </g>
    <g id="line2d_16"/>
    <g id="text_15">
     <!-- Average angle in dark: 25.08 degrees -->
     <defs>
      <path d="M -0.140625 0 
L 27.34375 71.578125 
L 37.546875 71.578125 
L 66.84375 0 
L 56.0625 0 
L 47.703125 21.6875 
L 17.78125 21.6875 
L 9.90625 0 
z
M 20.515625 29.390625 
L 44.78125 29.390625 
L 37.3125 49.21875 
Q 33.890625 58.25 32.234375 64.0625 
Q 30.859375 57.171875 28.375 50.390625 
z
" id="ArialMT-65"/>
      <path d="M 40.4375 6.390625 
Q 35.546875 2.25 31.03125 0.53125 
Q 26.515625 -1.171875 21.34375 -1.171875 
Q 12.796875 -1.171875 8.203125 3 
Q 3.609375 7.171875 3.609375 13.671875 
Q 3.609375 17.484375 5.34375 20.625 
Q 7.078125 23.78125 9.890625 25.6875 
Q 12.703125 27.59375 16.21875 28.5625 
Q 18.796875 29.25 24.03125 29.890625 
Q 34.671875 31.15625 39.703125 32.90625 
Q 39.75 34.71875 39.75 35.203125 
Q 39.75 40.578125 37.25 42.78125 
Q 33.890625 45.75 27.25 45.75 
Q 21.046875 45.75 18.09375 43.578125 
Q 15.140625 41.40625 13.71875 35.890625 
L 5.125 37.0625 
Q 6.296875 42.578125 8.984375 45.96875 
Q 11.671875 49.359375 16.75 51.1875 
Q 21.828125 53.03125 28.515625 53.03125 
Q 35.15625 53.03125 39.296875 51.46875 
Q 43.453125 49.90625 45.40625 47.53125 
Q 47.359375 45.171875 48.140625 41.546875 
Q 48.578125 39.3125 48.578125 33.453125 
L 48.578125 21.734375 
Q 48.578125 9.46875 49.140625 6.21875 
Q 49.703125 2.984375 51.375 0 
L 42.1875 0 
Q 40.828125 2.734375 40.4375 6.390625 
z
M 39.703125 26.03125 
Q 34.90625 24.078125 25.34375 22.703125 
Q 19.921875 21.921875 17.671875 20.9375 
Q 15.4375 19.96875 14.203125 18.09375 
Q 12.984375 16.21875 12.984375 13.921875 
Q 12.984375 10.40625 15.640625 8.0625 
Q 18.3125 5.71875 23.4375 5.71875 
Q 28.515625 5.71875 32.46875 7.9375 
Q 36.421875 10.15625 38.28125 14.015625 
Q 39.703125 17 39.703125 22.796875 
z
" id="ArialMT-97"/>
      <path d="M 4.984375 -4.296875 
L 13.53125 -5.5625 
Q 14.0625 -9.515625 16.5 -11.328125 
Q 19.78125 -13.765625 25.4375 -13.765625 
Q 31.546875 -13.765625 34.859375 -11.328125 
Q 38.1875 -8.890625 39.359375 -4.5 
Q 40.046875 -1.8125 39.984375 6.78125 
Q 34.234375 0 25.640625 0 
Q 14.9375 0 9.078125 7.71875 
Q 3.21875 15.4375 3.21875 26.21875 
Q 3.21875 33.640625 5.90625 39.90625 
Q 8.59375 46.1875 13.6875 49.609375 
Q 18.796875 53.03125 25.6875 53.03125 
Q 34.859375 53.03125 40.828125 45.609375 
L 40.828125 51.859375 
L 48.921875 51.859375 
L 48.921875 7.03125 
Q 48.921875 -5.078125 46.453125 -10.125 
Q 44 -15.1875 38.640625 -18.109375 
Q 33.296875 -21.046875 25.484375 -21.046875 
Q 16.21875 -21.046875 10.5 -16.875 
Q 4.78125 -12.703125 4.984375 -4.296875 
z
M 12.25 26.859375 
Q 12.25 16.65625 16.296875 11.96875 
Q 20.359375 7.28125 26.46875 7.28125 
Q 32.515625 7.28125 36.609375 11.9375 
Q 40.71875 16.609375 40.71875 26.5625 
Q 40.71875 36.078125 36.5 40.90625 
Q 32.28125 45.75 26.3125 45.75 
Q 20.453125 45.75 16.34375 40.984375 
Q 12.25 36.234375 12.25 26.859375 
z
" id="ArialMT-103"/>
      <path d="M 6.640625 0 
L 6.640625 71.578125 
L 15.4375 71.578125 
L 15.4375 30.765625 
L 36.234375 51.859375 
L 47.609375 51.859375 
L 27.78125 32.625 
L 49.609375 0 
L 38.765625 0 
L 21.625 26.515625 
L 15.4375 20.5625 
L 15.4375 0 
z
" id="ArialMT-107"/>
      <path d="M 9.03125 41.84375 
L 9.03125 51.859375 
L 19.046875 51.859375 
L 19.046875 41.84375 
z
M 9.03125 0 
L 9.03125 10.015625 
L 19.046875 10.015625 
L 19.046875 0 
z
" id="ArialMT-58"/>
     </defs>
     <g style="fill:#262626;" transform="translate(225.816406 63.7075)scale(0.1 -0.1)">
      <use xlink:href="#ArialMT-65"/>
      <use x="66.683594" xlink:href="#ArialMT-118"/>
      <use x="116.683594" xlink:href="#ArialMT-101"/>
      <use x="172.298828" xlink:href="#ArialMT-114"/>
      <use x="205.599609" xlink:href="#ArialMT-97"/>
      <use x="261.214844" xlink:href="#ArialMT-103"/>
      <use x="316.830078" xlink:href="#ArialMT-101"/>
      <use x="372.445312" xlink:href="#ArialMT-32"/>
      <use x="400.228516" xlink:href="#ArialMT-97"/>
      <use x="455.84375" xlink:href="#ArialMT-110"/>
      <use x="511.458984" xlink:href="#ArialMT-103"/>
      <use x="567.074219" xlink:href="#ArialMT-108"/>
      <use x="589.291016" xlink:href="#ArialMT-101"/>
      <use x="644.90625" xlink:href="#ArialMT-32"/>
      <use x="672.689453" xlink:href="#ArialMT-105"/>
      <use x="694.90625" xlink:href="#ArialMT-110"/>
      <use x="750.521484" xlink:href="#ArialMT-32"/>
      <use x="778.304688" xlink:href="#ArialMT-100"/>
      <use x="833.919922" xlink:href="#ArialMT-97"/>
      <use x="889.535156" xlink:href="#ArialMT-114"/>
      <use x="922.835938" xlink:href="#ArialMT-107"/>
      <use x="972.835938" xlink:href="#ArialMT-58"/>
      <use x="1000.619141" xlink:href="#ArialMT-32"/>
      <use x="1028.402344" xlink:href="#ArialMT-50"/>
      <use x="1084.017578" xlink:href="#ArialMT-53"/>
      <use x="1139.632812" xlink:href="#ArialMT-46"/>
      <use x="1167.416016" xlink:href="#ArialMT-48"/>
      <use x="1223.03125" xlink:href="#ArialMT-56"/>
      <use x="1278.646484" xlink:href="#ArialMT-32"/>
      <use x="1306.429688" xlink:href="#ArialMT-100"/>
      <use x="1362.044922" xlink:href="#ArialMT-101"/>
      <use x="1417.660156" xlink:href="#ArialMT-103"/>
      <use x="1473.275391" xlink:href="#ArialMT-114"/>
      <use x="1506.576172" xlink:href="#ArialMT-101"/>
      <use x="1562.191406" xlink:href="#ArialMT-101"/>
      <use x="1617.806641" xlink:href="#ArialMT-115"/>
     </g>
    </g>
    <g id="PathCollection_4">
     <g>
      <use style="fill:#4c72b0;stroke:#4c72b0;stroke-width:0.3;" x="207.816406" xlink:href="#m6eb1190402" y="75.345"/>
     </g>
    </g>
    <g id="text_16">
     <!-- $-0.5 &lt; t &lt; 0.$ -->
     <defs>
      <path d="M 10.59375 35.5 
L 73.1875 35.5 
L 73.1875 27.203125 
L 10.59375 27.203125 
z
" id="DejaVuSans-8722"/>
      <path d="M 31.78125 66.40625 
Q 24.171875 66.40625 20.328125 58.90625 
Q 16.5 51.421875 16.5 36.375 
Q 16.5 21.390625 20.328125 13.890625 
Q 24.171875 6.390625 31.78125 6.390625 
Q 39.453125 6.390625 43.28125 13.890625 
Q 47.125 21.390625 47.125 36.375 
Q 47.125 51.421875 43.28125 58.90625 
Q 39.453125 66.40625 31.78125 66.40625 
z
M 31.78125 74.21875 
Q 44.046875 74.21875 50.515625 64.515625 
Q 56.984375 54.828125 56.984375 36.375 
Q 56.984375 17.96875 50.515625 8.265625 
Q 44.046875 -1.421875 31.78125 -1.421875 
Q 19.53125 -1.421875 13.0625 8.265625 
Q 6.59375 17.96875 6.59375 36.375 
Q 6.59375 54.828125 13.0625 64.515625 
Q 19.53125 74.21875 31.78125 74.21875 
z
" id="DejaVuSans-48"/>
      <path d="M 10.6875 12.40625 
L 21 12.40625 
L 21 0 
L 10.6875 0 
z
" id="DejaVuSans-46"/>
      <path d="M 10.796875 72.90625 
L 49.515625 72.90625 
L 49.515625 64.59375 
L 19.828125 64.59375 
L 19.828125 46.734375 
Q 21.96875 47.46875 24.109375 47.828125 
Q 26.265625 48.1875 28.421875 48.1875 
Q 40.625 48.1875 47.75 41.5 
Q 54.890625 34.8125 54.890625 23.390625 
Q 54.890625 11.625 47.5625 5.09375 
Q 40.234375 -1.421875 26.90625 -1.421875 
Q 22.3125 -1.421875 17.546875 -0.640625 
Q 12.796875 0.140625 7.71875 1.703125 
L 7.71875 11.625 
Q 12.109375 9.234375 16.796875 8.0625 
Q 21.484375 6.890625 26.703125 6.890625 
Q 35.15625 6.890625 40.078125 11.328125 
Q 45.015625 15.765625 45.015625 23.390625 
Q 45.015625 31 40.078125 35.4375 
Q 35.15625 39.890625 26.703125 39.890625 
Q 22.75 39.890625 18.8125 39.015625 
Q 14.890625 38.140625 10.796875 36.28125 
z
" id="DejaVuSans-53"/>
      <path d="M 73.1875 49.21875 
L 22.796875 31.296875 
L 73.1875 13.484375 
L 73.1875 4.59375 
L 10.59375 27.296875 
L 10.59375 35.40625 
L 73.1875 58.109375 
z
" id="DejaVuSans-60"/>
      <path d="M 42.28125 54.6875 
L 40.921875 47.703125 
L 23 47.703125 
L 17.1875 18.015625 
Q 16.890625 16.359375 16.75 15.234375 
Q 16.609375 14.109375 16.609375 13.484375 
Q 16.609375 10.359375 18.484375 8.9375 
Q 20.359375 7.515625 24.515625 7.515625 
L 33.59375 7.515625 
L 32.078125 0 
L 23.484375 0 
Q 15.484375 0 11.546875 3.125 
Q 7.625 6.25 7.625 12.59375 
Q 7.625 13.71875 7.765625 15.0625 
Q 7.90625 16.40625 8.203125 18.015625 
L 14.015625 47.703125 
L 6.390625 47.703125 
L 7.8125 54.6875 
L 15.28125 54.6875 
L 18.3125 70.21875 
L 27.296875 70.21875 
L 24.3125 54.6875 
z
" id="DejaVuSans-Oblique-116"/>
     </defs>
     <g style="fill:#262626;" transform="translate(225.816406 77.97)scale(0.1 -0.1)">
      <use transform="translate(0 0.78125)" xlink:href="#DejaVuSans-8722"/>
      <use transform="translate(83.789062 0.78125)" xlink:href="#DejaVuSans-48"/>
      <use transform="translate(147.412109 0.78125)" xlink:href="#DejaVuSans-46"/>
      <use transform="translate(179.199219 0.78125)" xlink:href="#DejaVuSans-53"/>
      <use transform="translate(262.304688 0.78125)" xlink:href="#DejaVuSans-60"/>
      <use transform="translate(365.576172 0.78125)" xlink:href="#DejaVuSans-Oblique-116"/>
      <use transform="translate(424.267578 0.78125)" xlink:href="#DejaVuSans-60"/>
      <use transform="translate(527.539062 0.78125)" xlink:href="#DejaVuSans-48"/>
     </g>
    </g>
    <g id="PathCollection_5">
     <g>
      <use style="fill:#55a868;stroke:#55a868;stroke-width:0.3;" x="207.816406" xlink:href="#m2f2fb6f0ad" y="89.490312"/>
     </g>
    </g>
    <g id="text_17">
     <!-- $0. &lt; t &lt; 0.5$ -->
     <g style="fill:#262626;" transform="translate(225.816406 92.115312)scale(0.1 -0.1)">
      <use transform="translate(0 0.78125)" xlink:href="#DejaVuSans-48"/>
      <use transform="translate(63.623047 0.78125)" xlink:href="#DejaVuSans-46"/>
      <use transform="translate(134.375 0.78125)" xlink:href="#DejaVuSans-60"/>
      <use transform="translate(237.646484 0.78125)" xlink:href="#DejaVuSans-Oblique-116"/>
      <use transform="translate(296.337891 0.78125)" xlink:href="#DejaVuSans-60"/>
      <use transform="translate(399.609375 0.78125)" xlink:href="#DejaVuSans-48"/>
      <use transform="translate(463.232422 0.78125)" xlink:href="#DejaVuSans-46"/>
      <use transform="translate(495.019531 0.78125)" xlink:href="#DejaVuSans-53"/>
     </g>
    </g>
    <g id="PathCollection_6">
     <g>
      <use style="fill:#c44e52;stroke:#c44e52;stroke-width:0.3;" x="207.816406" xlink:href="#m4a1e089d4c" y="103.635625"/>
     </g>
    </g>
    <g id="text_18">
     <!-- $0.5 &lt; t &lt; 1.$ -->
     <defs>
      <path d="M 12.40625 8.296875 
L 28.515625 8.296875 
L 28.515625 63.921875 
L 10.984375 60.40625 
L 10.984375 69.390625 
L 28.421875 72.90625 
L 38.28125 72.90625 
L 38.28125 8.296875 
L 54.390625 8.296875 
L 54.390625 0 
L 12.40625 0 
z
" id="DejaVuSans-49"/>
     </defs>
     <g style="fill:#262626;" transform="translate(225.816406 106.260625)scale(0.1 -0.1)">
      <use transform="translate(0 0.78125)" xlink:href="#DejaVuSans-48"/>
      <use transform="translate(63.623047 0.78125)" xlink:href="#DejaVuSans-46"/>
      <use transform="translate(95.410156 0.78125)" xlink:href="#DejaVuSans-53"/>
      <use transform="translate(178.515625 0.78125)" xlink:href="#DejaVuSans-60"/>
      <use transform="translate(281.787109 0.78125)" xlink:href="#DejaVuSans-Oblique-116"/>
      <use transform="translate(340.478516 0.78125)" xlink:href="#DejaVuSans-60"/>
      <use transform="translate(443.75 0.78125)" xlink:href="#DejaVuSans-49"/>
     </g>
    </g>
   </g>
  </g>
 </g>
 <defs>
  <clipPath id="p6130cb972d">
   <path d="M 447.66 199.98 
C 447.66 179.959136 443.716326 160.13295 436.054674 141.636084 
C 428.393021 123.139218 417.162388 106.331389 403.0055 92.1745 
C 388.848611 78.017612 372.040782 66.786979 353.543916 59.125326 
C 335.04705 51.463674 315.220864 47.52 295.2 47.52 
C 275.179136 47.52 255.35295 51.463674 236.856084 59.125326 
C 218.359218 66.786979 201.551389 78.017612 187.3945 92.1745 
C 173.237612 106.331389 162.006979 123.139218 154.345326 141.636084 
C 146.683674 160.13295 142.74 179.959136 142.74 199.98 
C 142.74 220.000864 146.683674 239.82705 154.345326 258.323916 
C 162.006979 276.820782 173.237612 293.628611 187.3945 307.7855 
C 201.551389 321.942388 218.359218 333.173021 236.856084 340.834674 
C 255.35295 348.496326 275.179136 352.44 295.2 352.44 
C 315.220864 352.44 335.04705 348.496326 353.543916 340.834674 
C 372.040782 333.173021 388.848611 321.942388 403.0055 307.7855 
C 417.162388 293.628611 428.393021 276.820782 436.054674 258.323916 
C 443.716326 239.82705 447.66 220.000864 447.66 199.98 
M 295.2 199.98 
C 295.2 199.98 295.2 199.98 295.2 199.98 
C 295.2 199.98 295.2 199.98 295.2 199.98 
C 295.2 199.98 295.2 199.98 295.2 199.98 
C 295.2 199.98 295.2 199.98 295.2 199.98 
C 295.2 199.98 295.2 199.98 295.2 199.98 
C 295.2 199.98 295.2 199.98 295.2 199.98 
C 295.2 199.98 295.2 199.98 295.2 199.98 
C 295.2 199.98 295.2 199.98 295.2 199.98 
C 295.2 199.98 295.2 199.98 295.2 199.98 
C 295.2 199.98 295.2 199.98 295.2 199.98 
C 295.2 199.98 295.2 199.98 295.2 199.98 
C 295.2 199.98 295.2 199.98 295.2 199.98 
C 295.2 199.98 295.2 199.98 295.2 199.98 
C 295.2 199.98 295.2 199.98 295.2 199.98 
C 295.2 199.98 295.2 199.98 295.2 199.98 
C 295.2 199.98 295.2 199.98 295.2 199.98 
M 447.66 199.98 
z
"/>
  </clipPath>
 </defs>
</svg>
