<?xml version="1.0" encoding="utf-8" standalone="no"?>
<!DOCTYPE svg PUBLIC "-//W3C//DTD SVG 1.1//EN"
  "http://www.w3.org/Graphics/SVG/1.1/DTD/svg11.dtd">
<!-- Created with matplotlib (https://matplotlib.org/) -->
<svg height="396pt" version="1.1" viewBox="0 0 576 396" width="576pt" xmlns="http://www.w3.org/2000/svg" xmlns:xlink="http://www.w3.org/1999/xlink">
 <defs>
  <style type="text/css">
*{stroke-linecap:butt;stroke-linejoin:round;}
  </style>
 </defs>
 <g id="figure_1">
  <g id="patch_1">
   <path d="M 0 396 
L 576 396 
L 576 0 
L 0 0 
z
" style="fill:#ffffff;"/>
  </g>
  <g id="axes_1">
   <g id="patch_2">
    <path d="M 447.66 199.98 
C 447.66 179.959136 443.716326 160.13295 436.054674 141.636084 
C 428.393021 123.139218 417.162388 106.331389 403.0055 92.1745 
C 388.848611 78.017612 372.040782 66.786979 353.543916 59.125326 
C 335.04705 51.463674 315.220864 47.52 295.2 47.52 
C 275.179136 47.52 255.35295 51.463674 236.856084 59.125326 
C 218.359218 66.786979 201.551389 78.017612 187.3945 92.1745 
C 173.237612 106.331389 162.006979 123.139218 154.345326 141.636084 
C 146.683674 160.13295 142.74 179.959136 142.74 199.98 
C 142.74 220.000864 146.683674 239.82705 154.345326 258.323916 
C 162.006979 276.820782 173.237612 293.628611 187.3945 307.7855 
C 201.551389 321.942388 218.359218 333.173021 236.856084 340.834674 
C 255.35295 348.496326 275.179136 352.44 295.2 352.44 
C 315.220864 352.44 335.04705 348.496326 353.543916 340.834674 
C 372.040782 333.173021 388.848611 321.942388 403.0055 307.7855 
C 417.162388 293.628611 428.393021 276.820782 436.054674 258.323916 
C 443.716326 239.82705 447.66 220.000864 447.66 199.98 
M 295.2 199.98 
C 295.2 199.98 295.2 199.98 295.2 199.98 
C 295.2 199.98 295.2 199.98 295.2 199.98 
C 295.2 199.98 295.2 199.98 295.2 199.98 
C 295.2 199.98 295.2 199.98 295.2 199.98 
C 295.2 199.98 295.2 199.98 295.2 199.98 
C 295.2 199.98 295.2 199.98 295.2 199.98 
C 295.2 199.98 295.2 199.98 295.2 199.98 
C 295.2 199.98 295.2 199.98 295.2 199.98 
C 295.2 199.98 295.2 199.98 295.2 199.98 
C 295.2 199.98 295.2 199.98 295.2 199.98 
C 295.2 199.98 295.2 199.98 295.2 199.98 
C 295.2 199.98 295.2 199.98 295.2 199.98 
C 295.2 199.98 295.2 199.98 295.2 199.98 
C 295.2 199.98 295.2 199.98 295.2 199.98 
C 295.2 199.98 295.2 199.98 295.2 199.98 
C 295.2 199.98 295.2 199.98 295.2 199.98 
M 447.66 199.98 
z
" style="fill:#eaeaf2;"/>
   </g>
   <g id="matplotlib.axis_1">
    <g id="xtick_1">
     <g id="line2d_1">
      <path clip-path="url(#p234e78c772)" d="M 295.2 199.98 
L 447.66 199.98 
" style="fill:none;stroke:#ffffff;stroke-linecap:round;"/>
     </g>
     <g id="text_1">
      <!-- 0° -->
      <defs>
       <path d="M 4.15625 35.296875 
Q 4.15625 48 6.765625 55.734375 
Q 9.375 63.484375 14.515625 67.671875 
Q 19.671875 71.875 27.484375 71.875 
Q 33.25 71.875 37.59375 69.546875 
Q 41.9375 67.234375 44.765625 62.859375 
Q 47.609375 58.5 49.21875 52.21875 
Q 50.828125 45.953125 50.828125 35.296875 
Q 50.828125 22.703125 48.234375 14.96875 
Q 45.65625 7.234375 40.5 3 
Q 35.359375 -1.21875 27.484375 -1.21875 
Q 17.140625 -1.21875 11.234375 6.203125 
Q 4.15625 15.140625 4.15625 35.296875 
z
M 13.1875 35.296875 
Q 13.1875 17.671875 17.3125 11.828125 
Q 21.4375 6 27.484375 6 
Q 33.546875 6 37.671875 11.859375 
Q 41.796875 17.71875 41.796875 35.296875 
Q 41.796875 52.984375 37.671875 58.78125 
Q 33.546875 64.59375 27.390625 64.59375 
Q 21.34375 64.59375 17.71875 59.46875 
Q 13.1875 52.9375 13.1875 35.296875 
z
" id="ArialMT-48"/>
       <path d="M 6.25 59.28125 
Q 6.25 64.890625 10.21875 68.84375 
Q 14.203125 72.796875 19.78125 72.796875 
Q 25.4375 72.796875 29.390625 68.84375 
Q 33.34375 64.890625 33.34375 59.28125 
Q 33.34375 53.65625 29.359375 49.671875 
Q 25.390625 45.703125 19.78125 45.703125 
Q 14.203125 45.703125 10.21875 49.65625 
Q 6.25 53.609375 6.25 59.28125 
z
M 11.578125 59.28125 
Q 11.578125 55.859375 13.984375 53.4375 
Q 16.40625 51.03125 19.828125 51.03125 
Q 23.1875 51.03125 25.609375 53.4375 
Q 28.03125 55.859375 28.03125 59.28125 
Q 28.03125 62.703125 25.609375 65.109375 
Q 23.1875 67.53125 19.828125 67.53125 
Q 16.40625 67.53125 13.984375 65.109375 
Q 11.578125 62.703125 11.578125 59.28125 
z
" id="ArialMT-176"/>
      </defs>
      <g style="fill:#262626;" transform="translate(456.880313 202.565156)scale(0.1 -0.1)">
       <use xlink:href="#ArialMT-48"/>
       <use x="55.615234" xlink:href="#ArialMT-176"/>
      </g>
     </g>
    </g>
    <g id="xtick_2">
     <g id="line2d_2">
      <path clip-path="url(#p234e78c772)" d="M 295.2 199.98 
L 403.0055 92.1745 
" style="fill:none;stroke:#ffffff;stroke-linecap:round;"/>
     </g>
     <g id="text_2">
      <!-- 45° -->
      <defs>
       <path d="M 32.328125 0 
L 32.328125 17.140625 
L 1.265625 17.140625 
L 1.265625 25.203125 
L 33.9375 71.578125 
L 41.109375 71.578125 
L 41.109375 25.203125 
L 50.78125 25.203125 
L 50.78125 17.140625 
L 41.109375 17.140625 
L 41.109375 0 
z
M 32.328125 25.203125 
L 32.328125 57.46875 
L 9.90625 25.203125 
z
" id="ArialMT-52"/>
       <path d="M 4.15625 18.75 
L 13.375 19.53125 
Q 14.40625 12.796875 18.140625 9.390625 
Q 21.875 6 27.15625 6 
Q 33.5 6 37.890625 10.78125 
Q 42.28125 15.578125 42.28125 23.484375 
Q 42.28125 31 38.0625 35.34375 
Q 33.84375 39.703125 27 39.703125 
Q 22.75 39.703125 19.328125 37.765625 
Q 15.921875 35.84375 13.96875 32.765625 
L 5.71875 33.84375 
L 12.640625 70.609375 
L 48.25 70.609375 
L 48.25 62.203125 
L 19.671875 62.203125 
L 15.828125 42.96875 
Q 22.265625 47.46875 29.34375 47.46875 
Q 38.71875 47.46875 45.15625 40.96875 
Q 51.609375 34.46875 51.609375 24.265625 
Q 51.609375 14.546875 45.953125 7.46875 
Q 39.0625 -1.21875 27.15625 -1.21875 
Q 17.390625 -1.21875 11.203125 4.25 
Q 5.03125 9.71875 4.15625 18.75 
z
" id="ArialMT-53"/>
      </defs>
      <g style="fill:#262626;" transform="translate(405.344839 84.860161)scale(0.1 -0.1)">
       <use xlink:href="#ArialMT-52"/>
       <use x="55.615234" xlink:href="#ArialMT-53"/>
       <use x="111.230469" xlink:href="#ArialMT-176"/>
      </g>
     </g>
    </g>
    <g id="xtick_3">
     <g id="line2d_3">
      <path clip-path="url(#p234e78c772)" d="M 295.2 199.98 
L 295.2 47.52 
" style="fill:none;stroke:#ffffff;stroke-linecap:round;"/>
     </g>
     <g id="text_3">
      <!-- 90° -->
      <defs>
       <path d="M 5.46875 16.546875 
L 13.921875 17.328125 
Q 14.984375 11.375 18.015625 8.6875 
Q 21.046875 6 25.78125 6 
Q 29.828125 6 32.875 7.859375 
Q 35.9375 9.71875 37.890625 12.8125 
Q 39.84375 15.921875 41.15625 21.1875 
Q 42.484375 26.46875 42.484375 31.9375 
Q 42.484375 32.515625 42.4375 33.6875 
Q 39.796875 29.5 35.234375 26.875 
Q 30.671875 24.265625 25.34375 24.265625 
Q 16.453125 24.265625 10.296875 30.703125 
Q 4.15625 37.15625 4.15625 47.703125 
Q 4.15625 58.59375 10.578125 65.234375 
Q 17 71.875 26.65625 71.875 
Q 33.640625 71.875 39.421875 68.109375 
Q 45.21875 64.359375 48.21875 57.390625 
Q 51.21875 50.4375 51.21875 37.25 
Q 51.21875 23.53125 48.234375 15.40625 
Q 45.265625 7.28125 39.375 3.03125 
Q 33.5 -1.21875 25.59375 -1.21875 
Q 17.1875 -1.21875 11.859375 3.4375 
Q 6.546875 8.109375 5.46875 16.546875 
z
M 41.453125 48.140625 
Q 41.453125 55.71875 37.421875 60.15625 
Q 33.40625 64.59375 27.734375 64.59375 
Q 21.875 64.59375 17.53125 59.8125 
Q 13.1875 55.03125 13.1875 47.40625 
Q 13.1875 40.578125 17.3125 36.296875 
Q 21.4375 32.03125 27.484375 32.03125 
Q 33.59375 32.03125 37.515625 36.296875 
Q 41.453125 40.578125 41.453125 48.140625 
z
" id="ArialMT-57"/>
      </defs>
      <g style="fill:#262626;" transform="translate(287.639844 36.105156)scale(0.1 -0.1)">
       <use xlink:href="#ArialMT-57"/>
       <use x="55.615234" xlink:href="#ArialMT-48"/>
       <use x="111.230469" xlink:href="#ArialMT-176"/>
      </g>
     </g>
    </g>
    <g id="xtick_4">
     <g id="line2d_4">
      <path clip-path="url(#p234e78c772)" d="M 295.2 199.98 
L 187.3945 92.1745 
" style="fill:none;stroke:#ffffff;stroke-linecap:round;"/>
     </g>
     <g id="text_4">
      <!-- 135° -->
      <defs>
       <path d="M 37.25 0 
L 28.46875 0 
L 28.46875 56 
Q 25.296875 52.984375 20.140625 49.953125 
Q 14.984375 46.921875 10.890625 45.40625 
L 10.890625 53.90625 
Q 18.265625 57.375 23.78125 62.296875 
Q 29.296875 67.234375 31.59375 71.875 
L 37.25 71.875 
z
" id="ArialMT-49"/>
       <path d="M 4.203125 18.890625 
L 12.984375 20.0625 
Q 14.5 12.59375 18.140625 9.296875 
Q 21.78125 6 27 6 
Q 33.203125 6 37.46875 10.296875 
Q 41.75 14.59375 41.75 20.953125 
Q 41.75 27 37.796875 30.921875 
Q 33.84375 34.859375 27.734375 34.859375 
Q 25.25 34.859375 21.53125 33.890625 
L 22.515625 41.609375 
Q 23.390625 41.5 23.921875 41.5 
Q 29.546875 41.5 34.03125 44.421875 
Q 38.53125 47.359375 38.53125 53.46875 
Q 38.53125 58.296875 35.25 61.46875 
Q 31.984375 64.65625 26.8125 64.65625 
Q 21.6875 64.65625 18.265625 61.421875 
Q 14.84375 58.203125 13.875 51.765625 
L 5.078125 53.328125 
Q 6.6875 62.15625 12.390625 67.015625 
Q 18.109375 71.875 26.609375 71.875 
Q 32.46875 71.875 37.390625 69.359375 
Q 42.328125 66.84375 44.9375 62.5 
Q 47.5625 58.15625 47.5625 53.265625 
Q 47.5625 48.640625 45.0625 44.828125 
Q 42.578125 41.015625 37.703125 38.765625 
Q 44.046875 37.3125 47.5625 32.6875 
Q 51.078125 28.078125 51.078125 21.140625 
Q 51.078125 11.765625 44.234375 5.25 
Q 37.40625 -1.265625 26.953125 -1.265625 
Q 17.53125 -1.265625 11.296875 4.34375 
Q 5.078125 9.96875 4.203125 18.890625 
z
" id="ArialMT-51"/>
      </defs>
      <g style="fill:#262626;" transform="translate(167.15438 84.860161)scale(0.1 -0.1)">
       <use xlink:href="#ArialMT-49"/>
       <use x="55.615234" xlink:href="#ArialMT-51"/>
       <use x="111.230469" xlink:href="#ArialMT-53"/>
       <use x="166.845703" xlink:href="#ArialMT-176"/>
      </g>
     </g>
    </g>
    <g id="xtick_5">
     <g id="line2d_5">
      <path clip-path="url(#p234e78c772)" d="M 295.2 199.98 
L 142.74 199.98 
" style="fill:none;stroke:#ffffff;stroke-linecap:round;"/>
     </g>
     <g id="text_5">
      <!-- 180° -->
      <defs>
       <path d="M 17.671875 38.8125 
Q 12.203125 40.828125 9.5625 44.53125 
Q 6.9375 48.25 6.9375 53.421875 
Q 6.9375 61.234375 12.546875 66.546875 
Q 18.171875 71.875 27.484375 71.875 
Q 36.859375 71.875 42.578125 66.421875 
Q 48.296875 60.984375 48.296875 53.171875 
Q 48.296875 48.1875 45.671875 44.5 
Q 43.0625 40.828125 37.75 38.8125 
Q 44.34375 36.671875 47.78125 31.875 
Q 51.21875 27.09375 51.21875 20.453125 
Q 51.21875 11.28125 44.71875 5.03125 
Q 38.234375 -1.21875 27.640625 -1.21875 
Q 17.046875 -1.21875 10.546875 5.046875 
Q 4.046875 11.328125 4.046875 20.703125 
Q 4.046875 27.6875 7.59375 32.390625 
Q 11.140625 37.109375 17.671875 38.8125 
z
M 15.921875 53.71875 
Q 15.921875 48.640625 19.1875 45.40625 
Q 22.46875 42.1875 27.6875 42.1875 
Q 32.765625 42.1875 36.015625 45.375 
Q 39.265625 48.578125 39.265625 53.21875 
Q 39.265625 58.0625 35.90625 61.359375 
Q 32.5625 64.65625 27.59375 64.65625 
Q 22.5625 64.65625 19.234375 61.421875 
Q 15.921875 58.203125 15.921875 53.71875 
z
M 13.09375 20.65625 
Q 13.09375 16.890625 14.875 13.375 
Q 16.65625 9.859375 20.171875 7.921875 
Q 23.6875 6 27.734375 6 
Q 34.03125 6 38.125 10.046875 
Q 42.234375 14.109375 42.234375 20.359375 
Q 42.234375 26.703125 38.015625 30.859375 
Q 33.796875 35.015625 27.4375 35.015625 
Q 21.234375 35.015625 17.15625 30.90625 
Q 13.09375 26.8125 13.09375 20.65625 
z
" id="ArialMT-56"/>
      </defs>
      <g style="fill:#262626;" transform="translate(118.399375 202.565156)scale(0.1 -0.1)">
       <use xlink:href="#ArialMT-49"/>
       <use x="55.615234" xlink:href="#ArialMT-56"/>
       <use x="111.230469" xlink:href="#ArialMT-48"/>
       <use x="166.845703" xlink:href="#ArialMT-176"/>
      </g>
     </g>
    </g>
    <g id="xtick_6">
     <g id="line2d_6">
      <path clip-path="url(#p234e78c772)" d="M 295.2 199.98 
L 187.3945 307.7855 
" style="fill:none;stroke:#ffffff;stroke-linecap:round;"/>
     </g>
     <g id="text_6">
      <!-- 225° -->
      <defs>
       <path d="M 50.34375 8.453125 
L 50.34375 0 
L 3.03125 0 
Q 2.9375 3.171875 4.046875 6.109375 
Q 5.859375 10.9375 9.828125 15.625 
Q 13.8125 20.3125 21.34375 26.46875 
Q 33.015625 36.03125 37.109375 41.625 
Q 41.21875 47.21875 41.21875 52.203125 
Q 41.21875 57.421875 37.46875 61 
Q 33.734375 64.59375 27.734375 64.59375 
Q 21.390625 64.59375 17.578125 60.78125 
Q 13.765625 56.984375 13.71875 50.25 
L 4.6875 51.171875 
Q 5.609375 61.28125 11.65625 66.578125 
Q 17.71875 71.875 27.9375 71.875 
Q 38.234375 71.875 44.234375 66.15625 
Q 50.25 60.453125 50.25 52 
Q 50.25 47.703125 48.484375 43.546875 
Q 46.734375 39.40625 42.65625 34.8125 
Q 38.578125 30.21875 29.109375 22.21875 
Q 21.1875 15.578125 18.9375 13.203125 
Q 16.703125 10.84375 15.234375 8.453125 
z
" id="ArialMT-50"/>
      </defs>
      <g style="fill:#262626;" transform="translate(167.15438 320.270151)scale(0.1 -0.1)">
       <use xlink:href="#ArialMT-50"/>
       <use x="55.615234" xlink:href="#ArialMT-50"/>
       <use x="111.230469" xlink:href="#ArialMT-53"/>
       <use x="166.845703" xlink:href="#ArialMT-176"/>
      </g>
     </g>
    </g>
    <g id="xtick_7">
     <g id="line2d_7">
      <path clip-path="url(#p234e78c772)" d="M 295.2 199.98 
L 295.2 352.44 
" style="fill:none;stroke:#ffffff;stroke-linecap:round;"/>
     </g>
     <g id="text_7">
      <!-- 270° -->
      <defs>
       <path d="M 4.734375 62.203125 
L 4.734375 70.65625 
L 51.078125 70.65625 
L 51.078125 63.8125 
Q 44.234375 56.546875 37.515625 44.484375 
Q 30.8125 32.421875 27.15625 19.671875 
Q 24.515625 10.6875 23.78125 0 
L 14.75 0 
Q 14.890625 8.453125 18.0625 20.40625 
Q 21.234375 32.375 27.171875 43.484375 
Q 33.109375 54.59375 39.796875 62.203125 
z
" id="ArialMT-55"/>
      </defs>
      <g style="fill:#262626;" transform="translate(284.859375 369.025156)scale(0.1 -0.1)">
       <use xlink:href="#ArialMT-50"/>
       <use x="55.615234" xlink:href="#ArialMT-55"/>
       <use x="111.230469" xlink:href="#ArialMT-48"/>
       <use x="166.845703" xlink:href="#ArialMT-176"/>
      </g>
     </g>
    </g>
    <g id="xtick_8">
     <g id="line2d_8">
      <path clip-path="url(#p234e78c772)" d="M 295.2 199.98 
L 403.0055 307.7855 
" style="fill:none;stroke:#ffffff;stroke-linecap:round;"/>
     </g>
     <g id="text_8">
      <!-- 315° -->
      <g style="fill:#262626;" transform="translate(402.56437 320.270151)scale(0.1 -0.1)">
       <use xlink:href="#ArialMT-51"/>
       <use x="55.615234" xlink:href="#ArialMT-49"/>
       <use x="111.230469" xlink:href="#ArialMT-53"/>
       <use x="166.845703" xlink:href="#ArialMT-176"/>
      </g>
     </g>
    </g>
   </g>
   <g id="matplotlib.axis_2">
    <g id="ytick_1">
     <g id="line2d_9">
      <path clip-path="url(#p234e78c772)" d="M 315.307966 199.98 
L 315.197813 197.878145 
L 314.868559 195.799319 
L 314.323812 193.766297 
L 313.569541 191.801353 
L 312.614009 189.926017 
L 311.467686 188.160834 
L 310.143131 186.525144 
L 308.654856 185.036869 
L 307.019166 183.712314 
L 305.253983 182.565991 
L 303.378647 181.610459 
L 301.413703 180.856188 
L 299.380681 180.311441 
L 297.301855 179.982187 
L 295.2 179.872034 
L 293.098145 179.982187 
L 291.019319 180.311441 
L 288.986297 180.856188 
L 287.021353 181.610459 
L 285.146017 182.565991 
L 283.380834 183.712314 
L 281.745144 185.036869 
L 280.256869 186.525144 
L 278.932314 188.160834 
L 277.785991 189.926017 
L 276.830459 191.801353 
L 276.076188 193.766297 
L 275.531441 195.799319 
L 275.202187 197.878145 
L 275.092034 199.98 
L 275.202187 202.081855 
L 275.531441 204.160681 
L 276.076188 206.193703 
L 276.830459 208.158647 
L 277.785991 210.033983 
L 278.932314 211.799166 
L 280.256869 213.434856 
L 281.745144 214.923131 
L 283.380834 216.247686 
L 285.146017 217.394009 
L 287.021353 218.349541 
L 288.986297 219.103812 
L 291.019319 219.648559 
L 293.098145 219.977813 
L 295.2 220.087966 
L 297.301855 219.977813 
L 299.380681 219.648559 
L 301.413703 219.103812 
L 303.378647 218.349541 
L 305.253983 217.394009 
L 307.019166 216.247686 
L 308.654856 214.923131 
L 310.143131 213.434856 
L 311.467686 211.799166 
L 312.614009 210.033983 
L 313.569541 208.158647 
L 314.323812 206.193703 
L 314.868559 204.160681 
L 315.197813 202.081855 
L 315.307966 199.98 
L 315.307966 199.98 
" style="fill:none;stroke:#ffffff;stroke-linecap:round;"/>
     </g>
     <g id="text_9">
      <!-- 0.1 -->
      <defs>
       <path d="M 9.078125 0 
L 9.078125 10.015625 
L 19.09375 10.015625 
L 19.09375 0 
z
" id="ArialMT-46"/>
      </defs>
      <g style="fill:#262626;" transform="translate(313.777338 190.297515)scale(0.1 -0.1)">
       <use xlink:href="#ArialMT-48"/>
       <use x="55.615234" xlink:href="#ArialMT-46"/>
       <use x="83.398438" xlink:href="#ArialMT-49"/>
      </g>
     </g>
    </g>
    <g id="ytick_2">
     <g id="line2d_10">
      <path clip-path="url(#p234e78c772)" d="M 335.415932 199.98 
L 335.317968 197.174678 
L 335.024553 194.383024 
L 334.537118 191.618638 
L 333.858035 188.894987 
L 332.990615 186.225341 
L 331.939082 183.622707 
L 330.70856 181.099763 
L 329.305045 178.668803 
L 327.735373 176.341668 
L 326.007191 174.129697 
L 324.128921 172.043666 
L 322.109711 170.093738 
L 319.9594 168.289413 
L 317.688464 166.639481 
L 315.307966 165.151981 
L 312.829504 163.83416 
L 310.265153 162.692437 
L 307.627406 161.732376 
L 304.929115 160.958653 
L 302.183423 160.375038 
L 299.40371 159.984375 
L 296.603516 159.788566 
L 293.796484 159.788566 
L 290.99629 159.984375 
L 288.216577 160.375038 
L 285.470885 160.958653 
L 282.772594 161.732376 
L 280.134847 162.692437 
L 277.570496 163.83416 
L 275.092034 165.151981 
L 272.711536 166.639481 
L 270.4406 168.289413 
L 268.290289 170.093738 
L 266.271079 172.043666 
L 264.392809 174.129697 
L 262.664627 176.341668 
L 261.094955 178.668803 
L 259.69144 181.099763 
L 258.460918 183.622707 
L 257.409385 186.225341 
L 256.541965 188.894987 
L 255.862882 191.618638 
L 255.375447 194.383024 
L 255.082032 197.174678 
L 254.984068 199.98 
L 255.082032 202.785322 
L 255.375447 205.576976 
L 255.862882 208.341362 
L 256.541965 211.065013 
L 257.409385 213.734659 
L 258.460918 216.337293 
L 259.69144 218.860237 
L 261.094955 221.291197 
L 262.664627 223.618332 
L 264.392809 225.830303 
L 266.271079 227.916334 
L 268.290289 229.866262 
L 270.4406 231.670587 
L 272.711536 233.320519 
L 275.092034 234.808019 
L 277.570496 236.12584 
L 280.134847 237.267563 
L 282.772594 238.227624 
L 285.470885 239.001347 
L 288.216577 239.584962 
L 290.99629 239.975625 
L 293.796484 240.171434 
L 296.603516 240.171434 
L 299.40371 239.975625 
L 302.183423 239.584962 
L 304.929115 239.001347 
L 307.627406 238.227624 
L 310.265153 237.267563 
L 312.829504 236.12584 
L 315.307966 234.808019 
L 317.688464 233.320519 
L 319.9594 231.670587 
L 322.109711 229.866262 
L 324.128921 227.916334 
L 326.007191 225.830303 
L 327.735373 223.618332 
L 329.305045 221.291197 
L 330.70856 218.860237 
L 331.939082 216.337293 
L 332.990615 213.734659 
L 333.858035 211.065013 
L 334.537118 208.341362 
L 335.024553 205.576976 
L 335.317968 202.785322 
L 335.415932 199.98 
L 335.415932 199.98 
" style="fill:none;stroke:#ffffff;stroke-linecap:round;"/>
     </g>
     <g id="text_10">
      <!-- 0.2 -->
      <g style="fill:#262626;" transform="translate(332.354677 182.602529)scale(0.1 -0.1)">
       <use xlink:href="#ArialMT-48"/>
       <use x="55.615234" xlink:href="#ArialMT-46"/>
       <use x="83.398438" xlink:href="#ArialMT-50"/>
      </g>
     </g>
    </g>
    <g id="ytick_3">
     <g id="line2d_11">
      <path clip-path="url(#p234e78c772)" d="M 355.523898 199.98 
L 355.376952 195.772018 
L 354.93683 191.584536 
L 354.205676 187.437956 
L 353.187053 183.35248 
L 351.885922 179.348012 
L 350.308623 175.44406 
L 348.462841 171.659645 
L 346.357567 168.013204 
L 344.003059 164.522502 
L 341.410787 161.204546 
L 338.593381 158.075499 
L 335.564567 155.150607 
L 332.3391 152.44412 
L 328.932696 149.969222 
L 325.361949 147.737972 
L 321.644256 145.761239 
L 317.79773 144.048656 
L 313.84111 142.608564 
L 309.793672 141.447979 
L 305.675135 140.572557 
L 301.505564 139.986562 
L 297.305274 139.69285 
L 293.094726 139.69285 
L 288.894436 139.986562 
L 284.724865 140.572557 
L 280.606328 141.447979 
L 276.55889 142.608564 
L 272.60227 144.048656 
L 268.755744 145.761239 
L 265.038051 147.737972 
L 261.467304 149.969222 
L 258.0609 152.44412 
L 254.835433 155.150607 
L 251.806619 158.075499 
L 248.989213 161.204546 
L 246.396941 164.522502 
L 244.042433 168.013204 
L 241.937159 171.659645 
L 240.091377 175.44406 
L 238.514078 179.348012 
L 237.212947 183.35248 
L 236.194324 187.437956 
L 235.46317 191.584536 
L 235.023048 195.772018 
L 234.876102 199.98 
L 235.023048 204.187982 
L 235.46317 208.375464 
L 236.194324 212.522044 
L 237.212947 216.60752 
L 238.514078 220.611988 
L 240.091377 224.51594 
L 241.937159 228.300355 
L 244.042433 231.946796 
L 246.396941 235.437498 
L 248.989213 238.755454 
L 251.806619 241.884501 
L 254.835433 244.809393 
L 258.0609 247.51588 
L 261.467304 249.990778 
L 265.038051 252.222028 
L 268.755744 254.198761 
L 272.60227 255.911344 
L 276.55889 257.351436 
L 280.606328 258.512021 
L 284.724865 259.387443 
L 288.894436 259.973438 
L 293.094726 260.26715 
L 297.305274 260.26715 
L 301.505564 259.973438 
L 305.675135 259.387443 
L 309.793672 258.512021 
L 313.84111 257.351436 
L 317.79773 255.911344 
L 321.644256 254.198761 
L 325.361949 252.222028 
L 328.932696 249.990778 
L 332.3391 247.51588 
L 335.564567 244.809393 
L 338.593381 241.884501 
L 341.410787 238.755454 
L 344.003059 235.437498 
L 346.357567 231.946796 
L 348.462841 228.300355 
L 350.308623 224.51594 
L 351.885922 220.611988 
L 353.187053 216.60752 
L 354.205676 212.522044 
L 354.93683 208.375464 
L 355.376952 204.187982 
L 355.523898 199.98 
L 355.523898 199.98 
" style="fill:none;stroke:#ffffff;stroke-linecap:round;"/>
     </g>
     <g id="text_11">
      <!-- 0.3 -->
      <g style="fill:#262626;" transform="translate(350.932015 174.907544)scale(0.1 -0.1)">
       <use xlink:href="#ArialMT-48"/>
       <use x="55.615234" xlink:href="#ArialMT-46"/>
       <use x="83.398438" xlink:href="#ArialMT-51"/>
      </g>
     </g>
    </g>
    <g id="ytick_4">
     <g id="line2d_12">
      <path clip-path="url(#p234e78c772)" d="M 375.631864 199.98 
L 375.435936 194.369357 
L 374.849107 188.786048 
L 373.874235 183.257275 
L 372.51607 177.809974 
L 370.781229 172.470682 
L 368.678164 167.265414 
L 366.217121 162.219527 
L 363.410089 157.357606 
L 360.270745 152.703336 
L 356.814383 148.279394 
L 353.057841 144.107332 
L 349.019422 140.207476 
L 344.7188 136.598826 
L 340.176928 133.298963 
L 335.415932 130.323962 
L 330.459009 127.688319 
L 325.330307 125.404874 
L 320.054813 123.484751 
L 314.658229 121.937306 
L 309.166847 120.770076 
L 303.607419 119.98875 
L 298.007032 119.597133 
L 292.392968 119.597133 
L 286.792581 119.98875 
L 281.233153 120.770076 
L 275.741771 121.937306 
L 270.345187 123.484751 
L 265.069693 125.404874 
L 259.940991 127.688319 
L 254.984068 130.323962 
L 250.223072 133.298963 
L 245.6812 136.598826 
L 241.380578 140.207476 
L 237.342159 144.107332 
L 233.585617 148.279394 
L 230.129255 152.703336 
L 226.989911 157.357606 
L 224.182879 162.219527 
L 221.721836 167.265414 
L 219.618771 172.470682 
L 217.88393 177.809974 
L 216.525765 183.257275 
L 215.550893 188.786048 
L 214.964064 194.369357 
L 214.768136 199.98 
L 214.964064 205.590643 
L 215.550893 211.173952 
L 216.525765 216.702725 
L 217.88393 222.150026 
L 219.618771 227.489318 
L 221.721836 232.694586 
L 224.182879 237.740473 
L 226.989911 242.602394 
L 230.129255 247.256664 
L 233.585617 251.680606 
L 237.342159 255.852668 
L 241.380578 259.752524 
L 245.6812 263.361174 
L 250.223072 266.661037 
L 254.984068 269.636038 
L 259.940991 272.271681 
L 265.069693 274.555126 
L 270.345187 276.475249 
L 275.741771 278.022694 
L 281.233153 279.189924 
L 286.792581 279.97125 
L 292.392968 280.362867 
L 298.007032 280.362867 
L 303.607419 279.97125 
L 309.166847 279.189924 
L 314.658229 278.022694 
L 320.054813 276.475249 
L 325.330307 274.555126 
L 330.459009 272.271681 
L 335.415932 269.636038 
L 340.176928 266.661037 
L 344.7188 263.361174 
L 349.019422 259.752524 
L 353.057841 255.852668 
L 356.814383 251.680606 
L 360.270745 247.256664 
L 363.410089 242.602394 
L 366.217121 237.740473 
L 368.678164 232.694586 
L 370.781229 227.489318 
L 372.51607 222.150026 
L 373.874235 216.702725 
L 374.849107 211.173952 
L 375.435936 205.590643 
L 375.631864 199.98 
L 375.631864 199.98 
" style="fill:none;stroke:#ffffff;stroke-linecap:round;"/>
     </g>
     <g id="text_12">
      <!-- 0.4 -->
      <g style="fill:#262626;" transform="translate(369.509353 167.212558)scale(0.1 -0.1)">
       <use xlink:href="#ArialMT-48"/>
       <use x="55.615234" xlink:href="#ArialMT-46"/>
       <use x="83.398438" xlink:href="#ArialMT-52"/>
      </g>
     </g>
    </g>
    <g id="ytick_5">
     <g id="line2d_13">
      <path clip-path="url(#p234e78c772)" d="M 395.73983 199.98 
L 395.678584 196.471211 
L 395.49492 192.966696 
L 395.189063 189.470726 
L 394.761384 185.98756 
L 394.212404 182.521442 
L 393.542794 179.076594 
L 392.753368 175.657214 
L 391.845088 172.267467 
L 390.819061 168.911484 
L 389.676537 165.593353 
L 388.418907 162.317117 
L 387.047705 159.086767 
L 385.564601 155.906239 
L 383.971401 152.779409 
L 382.270047 149.710085 
L 380.462612 146.702007 
L 378.551297 143.75884 
L 376.538431 140.88417 
L 374.426467 138.0815 
L 372.217978 135.354243 
L 369.915655 132.705722 
L 367.522301 130.139165 
L 365.040835 127.657699 
L 362.474278 125.264345 
L 359.825757 122.962022 
L 357.0985 120.753533 
L 354.29583 118.641569 
L 351.42116 116.628703 
L 348.477993 114.717388 
L 345.469915 112.909953 
L 342.400591 111.208599 
L 339.273761 109.615399 
L 336.093233 108.132295 
L 332.862883 106.761093 
L 329.586647 105.503463 
L 326.268516 104.360939 
L 322.912533 103.334912 
L 319.522786 102.426632 
L 316.103406 101.637206 
L 312.658558 100.967596 
L 309.19244 100.418616 
L 305.709274 99.990937 
L 302.213304 99.68508 
L 298.708789 99.501416 
L 295.2 99.44017 
L 291.691211 99.501416 
L 288.186696 99.68508 
L 284.690726 99.990937 
L 281.20756 100.418616 
L 277.741442 100.967596 
L 274.296594 101.637206 
L 270.877214 102.426632 
L 267.487467 103.334912 
L 264.131484 104.360939 
L 260.813353 105.503463 
L 257.537117 106.761093 
L 254.306767 108.132295 
L 251.126239 109.615399 
L 247.999409 111.208599 
L 244.930085 112.909953 
L 241.922007 114.717388 
L 238.97884 116.628703 
L 236.10417 118.641569 
L 233.3015 120.753533 
L 230.574243 122.962022 
L 227.925722 125.264345 
L 225.359165 127.657699 
L 222.877699 130.139165 
L 220.484345 132.705722 
L 218.182022 135.354243 
L 215.973533 138.0815 
L 213.861569 140.88417 
L 211.848703 143.75884 
L 209.937388 146.702007 
L 208.129953 149.710085 
L 206.428599 152.779409 
L 204.835399 155.906239 
L 203.352295 159.086767 
L 201.981093 162.317117 
L 200.723463 165.593353 
L 199.580939 168.911484 
L 198.554912 172.267467 
L 197.646632 175.657214 
L 196.857206 179.076594 
L 196.187596 182.521442 
L 195.638616 185.98756 
L 195.210937 189.470726 
L 194.90508 192.966696 
L 194.721416 196.471211 
L 194.66017 199.98 
L 194.721416 203.488789 
L 194.90508 206.993304 
L 195.210937 210.489274 
L 195.638616 213.97244 
L 196.187596 217.438558 
L 196.857206 220.883406 
L 197.646632 224.302786 
L 198.554912 227.692533 
L 199.580939 231.048516 
L 200.723463 234.366647 
L 201.981093 237.642883 
L 203.352295 240.873233 
L 204.835399 244.053761 
L 206.428599 247.180591 
L 208.129953 250.249915 
L 209.937388 253.257993 
L 211.848703 256.20116 
L 213.861569 259.07583 
L 215.973533 261.8785 
L 218.182022 264.605757 
L 220.484345 267.254278 
L 222.877699 269.820835 
L 225.359165 272.302301 
L 227.925722 274.695655 
L 230.574243 276.997978 
L 233.3015 279.206467 
L 236.10417 281.318431 
L 238.97884 283.331297 
L 241.922007 285.242612 
L 244.930085 287.050047 
L 247.999409 288.751401 
L 251.126239 290.344601 
L 254.306767 291.827705 
L 257.537117 293.198907 
L 260.813353 294.456537 
L 264.131484 295.599061 
L 267.487467 296.625088 
L 270.877214 297.533368 
L 274.296594 298.322794 
L 277.741442 298.992404 
L 281.20756 299.541384 
L 284.690726 299.969063 
L 288.186696 300.27492 
L 291.691211 300.458584 
L 295.2 300.51983 
L 298.708789 300.458584 
L 302.213304 300.27492 
L 305.709274 299.969063 
L 309.19244 299.541384 
L 312.658558 298.992404 
L 316.103406 298.322794 
L 319.522786 297.533368 
L 322.912533 296.625088 
L 326.268516 295.599061 
L 329.586647 294.456537 
L 332.862883 293.198907 
L 336.093233 291.827705 
L 339.273761 290.344601 
L 342.400591 288.751401 
L 345.469915 287.050047 
L 348.477993 285.242612 
L 351.42116 283.331297 
L 354.29583 281.318431 
L 357.0985 279.206467 
L 359.825757 276.997978 
L 362.474278 274.695655 
L 365.040835 272.302301 
L 367.522301 269.820835 
L 369.915655 267.254278 
L 372.217978 264.605757 
L 374.426467 261.8785 
L 376.538431 259.07583 
L 378.551297 256.20116 
L 380.462612 253.257993 
L 382.270047 250.249915 
L 383.971401 247.180591 
L 385.564601 244.053761 
L 387.047705 240.873233 
L 388.418907 237.642883 
L 389.676537 234.366647 
L 390.819061 231.048516 
L 391.845088 227.692533 
L 392.753368 224.302786 
L 393.542794 220.883406 
L 394.212404 217.438558 
L 394.761384 213.97244 
L 395.189063 210.489274 
L 395.49492 206.993304 
L 395.678584 203.488789 
L 395.73983 199.98 
L 395.73983 199.98 
" style="fill:none;stroke:#ffffff;stroke-linecap:round;"/>
     </g>
     <g id="text_13">
      <!-- 0.5 -->
      <g style="fill:#262626;" transform="translate(388.086691 159.517573)scale(0.1 -0.1)">
       <use xlink:href="#ArialMT-48"/>
       <use x="55.615234" xlink:href="#ArialMT-46"/>
       <use x="83.398438" xlink:href="#ArialMT-53"/>
      </g>
     </g>
    </g>
    <g id="ytick_6">
     <g id="line2d_14">
      <path clip-path="url(#p234e78c772)" d="M 415.847796 199.98 
L 415.774301 195.769453 
L 415.553904 191.564035 
L 415.186875 187.368871 
L 414.67366 183.189072 
L 414.014885 179.02973 
L 413.211353 174.895913 
L 412.264041 170.792656 
L 411.174105 166.72496 
L 409.942873 162.697781 
L 408.571844 158.716023 
L 407.062689 154.78454 
L 405.417246 150.90812 
L 403.637521 147.091487 
L 401.725681 143.33929 
L 399.684057 139.656102 
L 397.515134 136.046409 
L 395.221556 132.514608 
L 392.806118 129.065005 
L 390.271761 125.7018 
L 387.621574 122.429091 
L 384.858786 119.250867 
L 381.986762 116.170998 
L 379.009002 113.193238 
L 375.929133 110.321214 
L 372.750909 107.558426 
L 369.4782 104.908239 
L 366.114995 102.373882 
L 362.665392 99.958444 
L 359.133591 97.664866 
L 355.523898 95.495943 
L 351.84071 93.454319 
L 348.088513 91.542479 
L 344.27188 89.762754 
L 340.39546 88.117311 
L 336.463977 86.608156 
L 332.482219 85.237127 
L 328.45504 84.005895 
L 324.387344 82.915959 
L 320.284087 81.968647 
L 316.15027 81.165115 
L 311.990928 80.50634 
L 307.811129 79.993125 
L 303.615965 79.626096 
L 299.410547 79.405699 
L 295.2 79.332204 
L 290.989453 79.405699 
L 286.784035 79.626096 
L 282.588871 79.993125 
L 278.409072 80.50634 
L 274.24973 81.165115 
L 270.115913 81.968647 
L 266.012656 82.915959 
L 261.94496 84.005895 
L 257.917781 85.237127 
L 253.936023 86.608156 
L 250.00454 88.117311 
L 246.12812 89.762754 
L 242.311487 91.542479 
L 238.55929 93.454319 
L 234.876102 95.495943 
L 231.266409 97.664866 
L 227.734608 99.958444 
L 224.285005 102.373882 
L 220.9218 104.908239 
L 217.649091 107.558426 
L 214.470867 110.321214 
L 211.390998 113.193238 
L 208.413238 116.170998 
L 205.541214 119.250867 
L 202.778426 122.429091 
L 200.128239 125.7018 
L 197.593882 129.065005 
L 195.178444 132.514608 
L 192.884866 136.046409 
L 190.715943 139.656102 
L 188.674319 143.33929 
L 186.762479 147.091487 
L 184.982754 150.90812 
L 183.337311 154.78454 
L 181.828156 158.716023 
L 180.457127 162.697781 
L 179.225895 166.72496 
L 178.135959 170.792656 
L 177.188647 174.895913 
L 176.385115 179.02973 
L 175.72634 183.189072 
L 175.213125 187.368871 
L 174.846096 191.564035 
L 174.625699 195.769453 
L 174.552204 199.98 
L 174.625699 204.190547 
L 174.846096 208.395965 
L 175.213125 212.591129 
L 175.72634 216.770928 
L 176.385115 220.93027 
L 177.188647 225.064087 
L 178.135959 229.167344 
L 179.225895 233.23504 
L 180.457127 237.262219 
L 181.828156 241.243977 
L 183.337311 245.17546 
L 184.982754 249.05188 
L 186.762479 252.868513 
L 188.674319 256.62071 
L 190.715943 260.303898 
L 192.884866 263.913591 
L 195.178444 267.445392 
L 197.593882 270.894995 
L 200.128239 274.2582 
L 202.778426 277.530909 
L 205.541214 280.709133 
L 208.413238 283.789002 
L 211.390998 286.766762 
L 214.470867 289.638786 
L 217.649091 292.401574 
L 220.9218 295.051761 
L 224.285005 297.586118 
L 227.734608 300.001556 
L 231.266409 302.295134 
L 234.876102 304.464057 
L 238.55929 306.505681 
L 242.311487 308.417521 
L 246.12812 310.197246 
L 250.00454 311.842689 
L 253.936023 313.351844 
L 257.917781 314.722873 
L 261.94496 315.954105 
L 266.012656 317.044041 
L 270.115913 317.991353 
L 274.24973 318.794885 
L 278.409072 319.45366 
L 282.588871 319.966875 
L 286.784035 320.333904 
L 290.989453 320.554301 
L 295.2 320.627796 
L 299.410547 320.554301 
L 303.615965 320.333904 
L 307.811129 319.966875 
L 311.990928 319.45366 
L 316.15027 318.794885 
L 320.284087 317.991353 
L 324.387344 317.044041 
L 328.45504 315.954105 
L 332.482219 314.722873 
L 336.463977 313.351844 
L 340.39546 311.842689 
L 344.27188 310.197246 
L 348.088513 308.417521 
L 351.84071 306.505681 
L 355.523898 304.464057 
L 359.133591 302.295134 
L 362.665392 300.001556 
L 366.114995 297.586118 
L 369.4782 295.051761 
L 372.750909 292.401574 
L 375.929133 289.638786 
L 379.009002 286.766762 
L 381.986762 283.789002 
L 384.858786 280.709133 
L 387.621574 277.530909 
L 390.271761 274.2582 
L 392.806118 270.894995 
L 395.221556 267.445392 
L 397.515134 263.913591 
L 399.684057 260.303898 
L 401.725681 256.62071 
L 403.637521 252.868513 
L 405.417246 249.05188 
L 407.062689 245.17546 
L 408.571844 241.243977 
L 409.942873 237.262219 
L 411.174105 233.23504 
L 412.264041 229.167344 
L 413.211353 225.064087 
L 414.014885 220.93027 
L 414.67366 216.770928 
L 415.186875 212.591129 
L 415.553904 208.395965 
L 415.774301 204.190547 
L 415.847796 199.98 
L 415.847796 199.98 
" style="fill:none;stroke:#ffffff;stroke-linecap:round;"/>
     </g>
     <g id="text_14">
      <!-- 0.6 -->
      <defs>
       <path d="M 49.75 54.046875 
L 41.015625 53.375 
Q 39.84375 58.546875 37.703125 60.890625 
Q 34.125 64.65625 28.90625 64.65625 
Q 24.703125 64.65625 21.53125 62.3125 
Q 17.390625 59.28125 14.984375 53.46875 
Q 12.59375 47.65625 12.5 36.921875 
Q 15.671875 41.75 20.265625 44.09375 
Q 24.859375 46.4375 29.890625 46.4375 
Q 38.671875 46.4375 44.84375 39.96875 
Q 51.03125 33.5 51.03125 23.25 
Q 51.03125 16.5 48.125 10.71875 
Q 45.21875 4.9375 40.140625 1.859375 
Q 35.0625 -1.21875 28.609375 -1.21875 
Q 17.625 -1.21875 10.6875 6.859375 
Q 3.765625 14.9375 3.765625 33.5 
Q 3.765625 54.25 11.421875 63.671875 
Q 18.109375 71.875 29.4375 71.875 
Q 37.890625 71.875 43.28125 67.140625 
Q 48.6875 62.40625 49.75 54.046875 
z
M 13.875 23.1875 
Q 13.875 18.65625 15.796875 14.5 
Q 17.71875 10.359375 21.1875 8.171875 
Q 24.65625 6 28.46875 6 
Q 34.03125 6 38.03125 10.484375 
Q 42.046875 14.984375 42.046875 22.703125 
Q 42.046875 30.125 38.078125 34.390625 
Q 34.125 38.671875 28.125 38.671875 
Q 22.171875 38.671875 18.015625 34.390625 
Q 13.875 30.125 13.875 23.1875 
z
" id="ArialMT-54"/>
      </defs>
      <g style="fill:#262626;" transform="translate(406.66403 151.822587)scale(0.1 -0.1)">
       <use xlink:href="#ArialMT-48"/>
       <use x="55.615234" xlink:href="#ArialMT-46"/>
       <use x="83.398438" xlink:href="#ArialMT-54"/>
      </g>
     </g>
    </g>
    <g id="ytick_7">
     <g id="line2d_15">
      <path clip-path="url(#p234e78c772)" d="M 435.955762 199.98 
L 435.870018 195.067695 
L 435.612888 190.161374 
L 435.184688 185.267016 
L 434.585937 180.390584 
L 433.817366 175.538018 
L 432.879911 170.715231 
L 431.774715 165.928099 
L 430.503123 161.182454 
L 429.066685 156.484077 
L 427.467151 151.838694 
L 425.70647 147.251963 
L 423.786787 142.729474 
L 421.710441 138.276735 
L 419.479962 133.899172 
L 417.098066 129.602119 
L 414.567656 125.39081 
L 411.891816 121.270377 
L 409.073804 117.245839 
L 406.117054 113.3221 
L 403.02517 109.50394 
L 399.801917 105.796011 
L 396.451222 102.202831 
L 392.977169 98.728778 
L 389.383989 95.378083 
L 385.67606 92.15483 
L 381.8579 89.062946 
L 377.934161 86.106196 
L 373.909623 83.288184 
L 369.78919 80.612344 
L 365.577881 78.081934 
L 361.280828 75.700038 
L 356.903265 73.469559 
L 352.450526 71.393213 
L 347.928037 69.47353 
L 343.341306 67.712849 
L 338.695923 66.113315 
L 333.997546 64.676877 
L 329.251901 63.405285 
L 324.464769 62.300089 
L 319.641982 61.362634 
L 314.789416 60.594063 
L 309.912984 59.995312 
L 305.018626 59.567112 
L 300.112305 59.309982 
L 295.2 59.224238 
L 290.287695 59.309982 
L 285.381374 59.567112 
L 280.487016 59.995312 
L 275.610584 60.594063 
L 270.758018 61.362634 
L 265.935231 62.300089 
L 261.148099 63.405285 
L 256.402454 64.676877 
L 251.704077 66.113315 
L 247.058694 67.712849 
L 242.471963 69.47353 
L 237.949474 71.393213 
L 233.496735 73.469559 
L 229.119172 75.700038 
L 224.822119 78.081934 
L 220.61081 80.612344 
L 216.490377 83.288184 
L 212.465839 86.106196 
L 208.5421 89.062946 
L 204.72394 92.15483 
L 201.016011 95.378083 
L 197.422831 98.728778 
L 193.948778 102.202831 
L 190.598083 105.796011 
L 187.37483 109.50394 
L 184.282946 113.3221 
L 181.326196 117.245839 
L 178.508184 121.270377 
L 175.832344 125.39081 
L 173.301934 129.602119 
L 170.920038 133.899172 
L 168.689559 138.276735 
L 166.613213 142.729474 
L 164.69353 147.251963 
L 162.932849 151.838694 
L 161.333315 156.484077 
L 159.896877 161.182454 
L 158.625285 165.928099 
L 157.520089 170.715231 
L 156.582634 175.538018 
L 155.814063 180.390584 
L 155.215312 185.267016 
L 154.787112 190.161374 
L 154.529982 195.067695 
L 154.444238 199.98 
L 154.529982 204.892305 
L 154.787112 209.798626 
L 155.215312 214.692984 
L 155.814063 219.569416 
L 156.582634 224.421982 
L 157.520089 229.244769 
L 158.625285 234.031901 
L 159.896877 238.777546 
L 161.333315 243.475923 
L 162.932849 248.121306 
L 164.69353 252.708037 
L 166.613213 257.230526 
L 168.689559 261.683265 
L 170.920038 266.060828 
L 173.301934 270.357881 
L 175.832344 274.56919 
L 178.508184 278.689623 
L 181.326196 282.714161 
L 184.282946 286.6379 
L 187.37483 290.45606 
L 190.598083 294.163989 
L 193.948778 297.757169 
L 197.422831 301.231222 
L 201.016011 304.581917 
L 204.72394 307.80517 
L 208.5421 310.897054 
L 212.465839 313.853804 
L 216.490377 316.671816 
L 220.61081 319.347656 
L 224.822119 321.878066 
L 229.119172 324.259962 
L 233.496735 326.490441 
L 237.949474 328.566787 
L 242.471963 330.48647 
L 247.058694 332.247151 
L 251.704077 333.846685 
L 256.402454 335.283123 
L 261.148099 336.554715 
L 265.935231 337.659911 
L 270.758018 338.597366 
L 275.610584 339.365937 
L 280.487016 339.964688 
L 285.381374 340.392888 
L 290.287695 340.650018 
L 295.2 340.735762 
L 300.112305 340.650018 
L 305.018626 340.392888 
L 309.912984 339.964688 
L 314.789416 339.365937 
L 319.641982 338.597366 
L 324.464769 337.659911 
L 329.251901 336.554715 
L 333.997546 335.283123 
L 338.695923 333.846685 
L 343.341306 332.247151 
L 347.928037 330.48647 
L 352.450526 328.566787 
L 356.903265 326.490441 
L 361.280828 324.259962 
L 365.577881 321.878066 
L 369.78919 319.347656 
L 373.909623 316.671816 
L 377.934161 313.853804 
L 381.8579 310.897054 
L 385.67606 307.80517 
L 389.383989 304.581917 
L 392.977169 301.231222 
L 396.451222 297.757169 
L 399.801917 294.163989 
L 403.02517 290.45606 
L 406.117054 286.6379 
L 409.073804 282.714161 
L 411.891816 278.689623 
L 414.567656 274.56919 
L 417.098066 270.357881 
L 419.479962 266.060828 
L 421.710441 261.683265 
L 423.786787 257.230526 
L 425.70647 252.708037 
L 427.467151 248.121306 
L 429.066685 243.475923 
L 430.503123 238.777546 
L 431.774715 234.031901 
L 432.879911 229.244769 
L 433.817366 224.421982 
L 434.585937 219.569416 
L 435.184688 214.692984 
L 435.612888 209.798626 
L 435.870018 204.892305 
L 435.955762 199.98 
L 435.955762 199.98 
" style="fill:none;stroke:#ffffff;stroke-linecap:round;"/>
     </g>
     <g id="text_15">
      <!-- 0.7 -->
      <g style="fill:#262626;" transform="translate(425.241368 144.127602)scale(0.1 -0.1)">
       <use xlink:href="#ArialMT-48"/>
       <use x="55.615234" xlink:href="#ArialMT-46"/>
       <use x="83.398438" xlink:href="#ArialMT-55"/>
      </g>
     </g>
    </g>
   </g>
   <g id="PathCollection_1">
    <defs>
     <path d="M 0 3.5 
C 0.928211 3.5 1.81853 3.131218 2.474874 2.474874 
C 3.131218 1.81853 3.5 0.928211 3.5 0 
C 3.5 -0.928211 3.131218 -1.81853 2.474874 -2.474874 
C 1.81853 -3.131218 0.928211 -3.5 0 -3.5 
C -0.928211 -3.5 -1.81853 -3.131218 -2.474874 -2.474874 
C -3.131218 -1.81853 -3.5 -0.928211 -3.5 0 
C -3.5 0.928211 -3.131218 1.81853 -2.474874 2.474874 
C -1.81853 3.131218 -0.928211 3.5 0 3.5 
z
" id="me3b1e37f0e" style="stroke:#4c72b0;stroke-width:0.3;"/>
    </defs>
    <g clip-path="url(#p234e78c772)">
     <use style="fill:#4c72b0;stroke:#4c72b0;stroke-width:0.3;" x="289.779262" xlink:href="#me3b1e37f0e" y="195.0766"/>
     <use style="fill:#4c72b0;stroke:#4c72b0;stroke-width:0.3;" x="293.210343" xlink:href="#me3b1e37f0e" y="191.1954"/>
     <use style="fill:#4c72b0;stroke:#4c72b0;stroke-width:0.3;" x="303.250255" xlink:href="#me3b1e37f0e" y="185.222599"/>
     <use style="fill:#4c72b0;stroke:#4c72b0;stroke-width:0.3;" x="289.285394" xlink:href="#me3b1e37f0e" y="181.859881"/>
     <use style="fill:#4c72b0;stroke:#4c72b0;stroke-width:0.3;" x="311.76717" xlink:href="#me3b1e37f0e" y="179.437485"/>
     <use style="fill:#4c72b0;stroke:#4c72b0;stroke-width:0.3;" x="308.58196" xlink:href="#me3b1e37f0e" y="182.843233"/>
     <use style="fill:#4c72b0;stroke:#4c72b0;stroke-width:0.3;" x="315.127302" xlink:href="#me3b1e37f0e" y="185.155209"/>
     <use style="fill:#4c72b0;stroke:#4c72b0;stroke-width:0.3;" x="294.296507" xlink:href="#me3b1e37f0e" y="187.726854"/>
     <use style="fill:#4c72b0;stroke:#4c72b0;stroke-width:0.3;" x="325.534033" xlink:href="#me3b1e37f0e" y="182.511958"/>
     <use style="fill:#4c72b0;stroke:#4c72b0;stroke-width:0.3;" x="349.816527" xlink:href="#me3b1e37f0e" y="176.933059"/>
     <use style="fill:#4c72b0;stroke:#4c72b0;stroke-width:0.3;" x="328.263081" xlink:href="#me3b1e37f0e" y="177.996437"/>
     <use style="fill:#4c72b0;stroke:#4c72b0;stroke-width:0.3;" x="313.322889" xlink:href="#me3b1e37f0e" y="178.364228"/>
     <use style="fill:#4c72b0;stroke:#4c72b0;stroke-width:0.3;" x="301.180197" xlink:href="#me3b1e37f0e" y="177.43542"/>
     <use style="fill:#4c72b0;stroke:#4c72b0;stroke-width:0.3;" x="284.971242" xlink:href="#me3b1e37f0e" y="180.948339"/>
     <use style="fill:#4c72b0;stroke:#4c72b0;stroke-width:0.3;" x="328.97791" xlink:href="#me3b1e37f0e" y="183.671415"/>
     <use style="fill:#4c72b0;stroke:#4c72b0;stroke-width:0.3;" x="333.508641" xlink:href="#me3b1e37f0e" y="185.701331"/>
     <use style="fill:#4c72b0;stroke:#4c72b0;stroke-width:0.3;" x="308.644275" xlink:href="#me3b1e37f0e" y="185.741417"/>
     <use style="fill:#4c72b0;stroke:#4c72b0;stroke-width:0.3;" x="330.950958" xlink:href="#me3b1e37f0e" y="184.257136"/>
     <use style="fill:#4c72b0;stroke:#4c72b0;stroke-width:0.3;" x="344.333359" xlink:href="#me3b1e37f0e" y="177.011945"/>
     <use style="fill:#4c72b0;stroke:#4c72b0;stroke-width:0.3;" x="366.876739" xlink:href="#me3b1e37f0e" y="169.917867"/>
     <use style="fill:#4c72b0;stroke:#4c72b0;stroke-width:0.3;" x="343.391817" xlink:href="#me3b1e37f0e" y="173.115907"/>
     <use style="fill:#4c72b0;stroke:#4c72b0;stroke-width:0.3;" x="326.040621" xlink:href="#me3b1e37f0e" y="181.44303"/>
     <use style="fill:#4c72b0;stroke:#4c72b0;stroke-width:0.3;" x="338.853976" xlink:href="#me3b1e37f0e" y="182.025259"/>
     <use style="fill:#4c72b0;stroke:#4c72b0;stroke-width:0.3;" x="383.052765" xlink:href="#me3b1e37f0e" y="172.502523"/>
    </g>
   </g>
   <g id="PathCollection_2">
    <defs>
     <path d="M 0 3.5 
C 0.928211 3.5 1.81853 3.131218 2.474874 2.474874 
C 3.131218 1.81853 3.5 0.928211 3.5 0 
C 3.5 -0.928211 3.131218 -1.81853 2.474874 -2.474874 
C 1.81853 -3.131218 0.928211 -3.5 0 -3.5 
C -0.928211 -3.5 -1.81853 -3.131218 -2.474874 -2.474874 
C -3.131218 -1.81853 -3.5 -0.928211 -3.5 0 
C -3.5 0.928211 -3.131218 1.81853 -2.474874 2.474874 
C -1.81853 3.131218 -0.928211 3.5 0 3.5 
z
" id="m36948d8d2e" style="stroke:#55a868;stroke-width:0.3;"/>
    </defs>
    <g clip-path="url(#p234e78c772)">
     <use style="fill:#55a868;stroke:#55a868;stroke-width:0.3;" x="347.495865" xlink:href="#m36948d8d2e" y="172.631868"/>
     <use style="fill:#55a868;stroke:#55a868;stroke-width:0.3;" x="357.852424" xlink:href="#m36948d8d2e" y="172.854874"/>
     <use style="fill:#55a868;stroke:#55a868;stroke-width:0.3;" x="349.646278" xlink:href="#m36948d8d2e" y="174.729909"/>
     <use style="fill:#55a868;stroke:#55a868;stroke-width:0.3;" x="398.189501" xlink:href="#m36948d8d2e" y="167.118419"/>
     <use style="fill:#55a868;stroke:#55a868;stroke-width:0.3;" x="384.764782" xlink:href="#m36948d8d2e" y="163.04788"/>
     <use style="fill:#55a868;stroke:#55a868;stroke-width:0.3;" x="324.167202" xlink:href="#m36948d8d2e" y="171.524919"/>
     <use style="fill:#55a868;stroke:#55a868;stroke-width:0.3;" x="294.111112" xlink:href="#m36948d8d2e" y="183.802429"/>
     <use style="fill:#55a868;stroke:#55a868;stroke-width:0.3;" x="325.405292" xlink:href="#m36948d8d2e" y="188.757996"/>
     <use style="fill:#55a868;stroke:#55a868;stroke-width:0.3;" x="345.081044" xlink:href="#m36948d8d2e" y="189.115756"/>
     <use style="fill:#55a868;stroke:#55a868;stroke-width:0.3;" x="333.13009" xlink:href="#m36948d8d2e" y="195.697248"/>
     <use style="fill:#55a868;stroke:#55a868;stroke-width:0.3;" x="322.654635" xlink:href="#m36948d8d2e" y="202.912039"/>
     <use style="fill:#55a868;stroke:#55a868;stroke-width:0.3;" x="340.890806" xlink:href="#m36948d8d2e" y="203.231153"/>
     <use style="fill:#55a868;stroke:#55a868;stroke-width:0.3;" x="357.904833" xlink:href="#m36948d8d2e" y="198.716029"/>
     <use style="fill:#55a868;stroke:#55a868;stroke-width:0.3;" x="346.324401" xlink:href="#m36948d8d2e" y="198.025001"/>
     <use style="fill:#55a868;stroke:#55a868;stroke-width:0.3;" x="312.082849" xlink:href="#m36948d8d2e" y="204.39793"/>
     <use style="fill:#55a868;stroke:#55a868;stroke-width:0.3;" x="354.388743" xlink:href="#m36948d8d2e" y="192.384368"/>
     <use style="fill:#55a868;stroke:#55a868;stroke-width:0.3;" x="393.546492" xlink:href="#m36948d8d2e" y="177.713439"/>
     <use style="fill:#55a868;stroke:#55a868;stroke-width:0.3;" x="394.688414" xlink:href="#m36948d8d2e" y="170.007583"/>
     <use style="fill:#55a868;stroke:#55a868;stroke-width:0.3;" x="430.715592" xlink:href="#m36948d8d2e" y="147.840148"/>
     <use style="fill:#55a868;stroke:#55a868;stroke-width:0.3;" x="359.34881" xlink:href="#m36948d8d2e" y="152.86045"/>
     <use style="fill:#55a868;stroke:#55a868;stroke-width:0.3;" x="333.38117" xlink:href="#m36948d8d2e" y="161.806144"/>
     <use style="fill:#55a868;stroke:#55a868;stroke-width:0.3;" x="337.516931" xlink:href="#m36948d8d2e" y="163.719206"/>
     <use style="fill:#55a868;stroke:#55a868;stroke-width:0.3;" x="339.061093" xlink:href="#m36948d8d2e" y="162.801682"/>
     <use style="fill:#55a868;stroke:#55a868;stroke-width:0.3;" x="419.035959" xlink:href="#m36948d8d2e" y="138.235026"/>
    </g>
   </g>
   <g id="PathCollection_3">
    <defs>
     <path d="M 0 3.5 
C 0.928211 3.5 1.81853 3.131218 2.474874 2.474874 
C 3.131218 1.81853 3.5 0.928211 3.5 0 
C 3.5 -0.928211 3.131218 -1.81853 2.474874 -2.474874 
C 1.81853 -3.131218 0.928211 -3.5 0 -3.5 
C -0.928211 -3.5 -1.81853 -3.131218 -2.474874 -2.474874 
C -3.131218 -1.81853 -3.5 -0.928211 -3.5 0 
C -3.5 0.928211 -3.131218 1.81853 -2.474874 2.474874 
C -1.81853 3.131218 -0.928211 3.5 0 3.5 
z
" id="m0dc930fd34" style="stroke:#c44e52;stroke-width:0.3;"/>
    </defs>
    <g clip-path="url(#p234e78c772)">
     <use style="fill:#c44e52;stroke:#c44e52;stroke-width:0.3;" x="407.144262" xlink:href="#m0dc930fd34" y="134.568031"/>
     <use style="fill:#c44e52;stroke:#c44e52;stroke-width:0.3;" x="412.493857" xlink:href="#m0dc930fd34" y="130.880614"/>
     <use style="fill:#c44e52;stroke:#c44e52;stroke-width:0.3;" x="355.535782" xlink:href="#m0dc930fd34" y="144.569172"/>
     <use style="fill:#c44e52;stroke:#c44e52;stroke-width:0.3;" x="345.846692" xlink:href="#m0dc930fd34" y="154.369437"/>
     <use style="fill:#c44e52;stroke:#c44e52;stroke-width:0.3;" x="416.719603" xlink:href="#m0dc930fd34" y="134.371233"/>
     <use style="fill:#c44e52;stroke:#c44e52;stroke-width:0.3;" x="353.583354" xlink:href="#m0dc930fd34" y="155.484251"/>
     <use style="fill:#c44e52;stroke:#c44e52;stroke-width:0.3;" x="341.263888" xlink:href="#m0dc930fd34" y="164.635258"/>
     <use style="fill:#c44e52;stroke:#c44e52;stroke-width:0.3;" x="368.623598" xlink:href="#m0dc930fd34" y="159.751681"/>
     <use style="fill:#c44e52;stroke:#c44e52;stroke-width:0.3;" x="329.094266" xlink:href="#m0dc930fd34" y="177.850969"/>
     <use style="fill:#c44e52;stroke:#c44e52;stroke-width:0.3;" x="239.429399" xlink:href="#m0dc930fd34" y="221.215754"/>
     <use style="fill:#c44e52;stroke:#c44e52;stroke-width:0.3;" x="287.649588" xlink:href="#m0dc930fd34" y="215.862755"/>
     <use style="fill:#c44e52;stroke:#c44e52;stroke-width:0.3;" x="389.953347" xlink:href="#m0dc930fd34" y="177.637561"/>
     <use style="fill:#c44e52;stroke:#c44e52;stroke-width:0.3;" x="366.722346" xlink:href="#m0dc930fd34" y="178.979404"/>
     <use style="fill:#c44e52;stroke:#c44e52;stroke-width:0.3;" x="339.783278" xlink:href="#m0dc930fd34" y="184.703101"/>
     <use style="fill:#c44e52;stroke:#c44e52;stroke-width:0.3;" x="273.645103" xlink:href="#m0dc930fd34" y="212.663576"/>
     <use style="fill:#c44e52;stroke:#c44e52;stroke-width:0.3;" x="317.388241" xlink:href="#m0dc930fd34" y="201.664568"/>
     <use style="fill:#c44e52;stroke:#c44e52;stroke-width:0.3;" x="383.111153" xlink:href="#m0dc930fd34" y="171.333242"/>
     <use style="fill:#c44e52;stroke:#c44e52;stroke-width:0.3;" x="380.387079" xlink:href="#m0dc930fd34" y="163.607806"/>
     <use style="fill:#c44e52;stroke:#c44e52;stroke-width:0.3;" x="359.018396" xlink:href="#m0dc930fd34" y="165.027672"/>
     <use style="fill:#c44e52;stroke:#c44e52;stroke-width:0.3;" x="414.708937" xlink:href="#m0dc930fd34" y="136.557144"/>
     <use style="fill:#c44e52;stroke:#c44e52;stroke-width:0.3;" x="413.576217" xlink:href="#m0dc930fd34" y="131.241522"/>
     <use style="fill:#c44e52;stroke:#c44e52;stroke-width:0.3;" x="383.59818" xlink:href="#m0dc930fd34" y="137.238826"/>
     <use style="fill:#c44e52;stroke:#c44e52;stroke-width:0.3;" x="395.770952" xlink:href="#m0dc930fd34" y="127.814544"/>
     <use style="fill:#c44e52;stroke:#c44e52;stroke-width:0.3;" x="375.208393" xlink:href="#m0dc930fd34" y="129.95952"/>
    </g>
   </g>
   <g id="line2d_16">
    <path clip-path="url(#p234e78c772)" d="M 295.2 199.98 
L 425.895107 136.719989 
" style="fill:none;stroke:#ff0000;stroke-dasharray:7.4,3.2;stroke-dashoffset:0;stroke-width:2;"/>
   </g>
   <g id="patch_3">
    <path d="M 447.66 199.98 
C 447.66 179.959136 443.716326 160.13295 436.054674 141.636084 
C 428.393021 123.139218 417.162388 106.331389 403.0055 92.1745 
C 388.848611 78.017612 372.040782 66.786979 353.543916 59.125326 
C 335.04705 51.463674 315.220864 47.52 295.2 47.52 
C 275.179136 47.52 255.35295 51.463674 236.856084 59.125326 
C 218.359218 66.786979 201.551389 78.017612 187.3945 92.1745 
C 173.237612 106.331389 162.006979 123.139218 154.345326 141.636084 
C 146.683674 160.13295 142.74 179.959136 142.74 199.98 
C 142.74 220.000864 146.683674 239.82705 154.345326 258.323916 
C 162.006979 276.820782 173.237612 293.628611 187.3945 307.7855 
C 201.551389 321.942388 218.359218 333.173021 236.856084 340.834674 
C 255.35295 348.496326 275.179136 352.44 295.2 352.44 
C 315.220864 352.44 335.04705 348.496326 353.543916 340.834674 
C 372.040782 333.173021 388.848611 321.942388 403.0055 307.7855 
C 417.162388 293.628611 428.393021 276.820782 436.054674 258.323916 
C 443.716326 239.82705 447.66 220.000864 447.66 199.98 
" style="fill:none;"/>
   </g>
   <g id="text_16">
    <!-- Distribution of projected eye movement velocity on the screen - NewM1_11_11 -->
    <defs>
     <path d="M 7.71875 0 
L 7.71875 71.578125 
L 32.375 71.578125 
Q 40.71875 71.578125 45.125 70.5625 
Q 51.265625 69.140625 55.609375 65.4375 
Q 61.28125 60.640625 64.078125 53.1875 
Q 66.890625 45.75 66.890625 36.1875 
Q 66.890625 28.03125 64.984375 21.734375 
Q 63.09375 15.4375 60.109375 11.296875 
Q 57.125 7.171875 53.578125 4.796875 
Q 50.046875 2.4375 45.046875 1.21875 
Q 40.046875 0 33.546875 0 
z
M 17.1875 8.453125 
L 32.46875 8.453125 
Q 39.546875 8.453125 43.578125 9.765625 
Q 47.609375 11.078125 50 13.484375 
Q 53.375 16.84375 55.25 22.53125 
Q 57.125 28.21875 57.125 36.328125 
Q 57.125 47.5625 53.4375 53.59375 
Q 49.75 59.625 44.484375 61.671875 
Q 40.671875 63.140625 32.234375 63.140625 
L 17.1875 63.140625 
z
" id="ArialMT-68"/>
     <path d="M 6.640625 61.46875 
L 6.640625 71.578125 
L 15.4375 71.578125 
L 15.4375 61.46875 
z
M 6.640625 0 
L 6.640625 51.859375 
L 15.4375 51.859375 
L 15.4375 0 
z
" id="ArialMT-105"/>
     <path d="M 3.078125 15.484375 
L 11.765625 16.84375 
Q 12.5 11.625 15.84375 8.84375 
Q 19.1875 6.0625 25.203125 6.0625 
Q 31.25 6.0625 34.171875 8.515625 
Q 37.109375 10.984375 37.109375 14.3125 
Q 37.109375 17.28125 34.515625 19 
Q 32.71875 20.171875 25.53125 21.96875 
Q 15.875 24.421875 12.140625 26.203125 
Q 8.40625 27.984375 6.46875 31.125 
Q 4.546875 34.28125 4.546875 38.09375 
Q 4.546875 41.546875 6.125 44.5 
Q 7.71875 47.46875 10.453125 49.421875 
Q 12.5 50.921875 16.03125 51.96875 
Q 19.578125 53.03125 23.640625 53.03125 
Q 29.734375 53.03125 34.34375 51.265625 
Q 38.96875 49.515625 41.15625 46.5 
Q 43.359375 43.5 44.1875 38.484375 
L 35.59375 37.3125 
Q 35.015625 41.3125 32.203125 43.546875 
Q 29.390625 45.796875 24.265625 45.796875 
Q 18.21875 45.796875 15.625 43.796875 
Q 13.03125 41.796875 13.03125 39.109375 
Q 13.03125 37.40625 14.109375 36.03125 
Q 15.1875 34.625 17.484375 33.6875 
Q 18.796875 33.203125 25.25 31.453125 
Q 34.578125 28.953125 38.25 27.359375 
Q 41.9375 25.78125 44.03125 22.75 
Q 46.140625 19.734375 46.140625 15.234375 
Q 46.140625 10.84375 43.578125 6.953125 
Q 41.015625 3.078125 36.171875 0.953125 
Q 31.34375 -1.171875 25.25 -1.171875 
Q 15.140625 -1.171875 9.84375 3.03125 
Q 4.546875 7.234375 3.078125 15.484375 
z
" id="ArialMT-115"/>
     <path d="M 25.78125 7.859375 
L 27.046875 0.09375 
Q 23.34375 -0.6875 20.40625 -0.6875 
Q 15.625 -0.6875 12.984375 0.828125 
Q 10.359375 2.34375 9.28125 4.8125 
Q 8.203125 7.28125 8.203125 15.1875 
L 8.203125 45.015625 
L 1.765625 45.015625 
L 1.765625 51.859375 
L 8.203125 51.859375 
L 8.203125 64.703125 
L 16.9375 69.96875 
L 16.9375 51.859375 
L 25.78125 51.859375 
L 25.78125 45.015625 
L 16.9375 45.015625 
L 16.9375 14.703125 
Q 16.9375 10.9375 17.40625 9.859375 
Q 17.875 8.796875 18.921875 8.15625 
Q 19.96875 7.515625 21.921875 7.515625 
Q 23.390625 7.515625 25.78125 7.859375 
z
" id="ArialMT-116"/>
     <path d="M 6.5 0 
L 6.5 51.859375 
L 14.40625 51.859375 
L 14.40625 44 
Q 17.4375 49.515625 20 51.265625 
Q 22.5625 53.03125 25.640625 53.03125 
Q 30.078125 53.03125 34.671875 50.203125 
L 31.640625 42.046875 
Q 28.421875 43.953125 25.203125 43.953125 
Q 22.3125 43.953125 20.015625 42.21875 
Q 17.71875 40.484375 16.75 37.40625 
Q 15.28125 32.71875 15.28125 27.15625 
L 15.28125 0 
z
" id="ArialMT-114"/>
     <path d="M 14.703125 0 
L 6.546875 0 
L 6.546875 71.578125 
L 15.328125 71.578125 
L 15.328125 46.046875 
Q 20.90625 53.03125 29.546875 53.03125 
Q 34.328125 53.03125 38.59375 51.09375 
Q 42.875 49.171875 45.625 45.671875 
Q 48.390625 42.1875 49.953125 37.25 
Q 51.515625 32.328125 51.515625 26.703125 
Q 51.515625 13.375 44.921875 6.09375 
Q 38.328125 -1.171875 29.109375 -1.171875 
Q 19.921875 -1.171875 14.703125 6.5 
z
M 14.59375 26.3125 
Q 14.59375 17 17.140625 12.84375 
Q 21.296875 6.0625 28.375 6.0625 
Q 34.125 6.0625 38.328125 11.0625 
Q 42.53125 16.0625 42.53125 25.984375 
Q 42.53125 36.140625 38.5 40.96875 
Q 34.46875 45.796875 28.765625 45.796875 
Q 23 45.796875 18.796875 40.796875 
Q 14.59375 35.796875 14.59375 26.3125 
z
" id="ArialMT-98"/>
     <path d="M 40.578125 0 
L 40.578125 7.625 
Q 34.515625 -1.171875 24.125 -1.171875 
Q 19.53125 -1.171875 15.546875 0.578125 
Q 11.578125 2.34375 9.640625 5 
Q 7.71875 7.671875 6.9375 11.53125 
Q 6.390625 14.109375 6.390625 19.734375 
L 6.390625 51.859375 
L 15.1875 51.859375 
L 15.1875 23.09375 
Q 15.1875 16.21875 15.71875 13.8125 
Q 16.546875 10.359375 19.234375 8.375 
Q 21.921875 6.390625 25.875 6.390625 
Q 29.828125 6.390625 33.296875 8.421875 
Q 36.765625 10.453125 38.203125 13.9375 
Q 39.65625 17.4375 39.65625 24.078125 
L 39.65625 51.859375 
L 48.4375 51.859375 
L 48.4375 0 
z
" id="ArialMT-117"/>
     <path d="M 3.328125 25.921875 
Q 3.328125 40.328125 11.328125 47.265625 
Q 18.015625 53.03125 27.640625 53.03125 
Q 38.328125 53.03125 45.109375 46.015625 
Q 51.90625 39.015625 51.90625 26.65625 
Q 51.90625 16.65625 48.90625 10.90625 
Q 45.90625 5.171875 40.15625 2 
Q 34.421875 -1.171875 27.640625 -1.171875 
Q 16.75 -1.171875 10.03125 5.8125 
Q 3.328125 12.796875 3.328125 25.921875 
z
M 12.359375 25.921875 
Q 12.359375 15.96875 16.703125 11.015625 
Q 21.046875 6.0625 27.640625 6.0625 
Q 34.1875 6.0625 38.53125 11.03125 
Q 42.875 16.015625 42.875 26.21875 
Q 42.875 35.84375 38.5 40.796875 
Q 34.125 45.75 27.640625 45.75 
Q 21.046875 45.75 16.703125 40.8125 
Q 12.359375 35.890625 12.359375 25.921875 
z
" id="ArialMT-111"/>
     <path d="M 6.59375 0 
L 6.59375 51.859375 
L 14.5 51.859375 
L 14.5 44.484375 
Q 20.21875 53.03125 31 53.03125 
Q 35.6875 53.03125 39.625 51.34375 
Q 43.5625 49.65625 45.515625 46.921875 
Q 47.46875 44.1875 48.25 40.4375 
Q 48.734375 37.984375 48.734375 31.890625 
L 48.734375 0 
L 39.9375 0 
L 39.9375 31.546875 
Q 39.9375 36.921875 38.90625 39.578125 
Q 37.890625 42.234375 35.28125 43.8125 
Q 32.671875 45.40625 29.15625 45.40625 
Q 23.53125 45.40625 19.453125 41.84375 
Q 15.375 38.28125 15.375 28.328125 
L 15.375 0 
z
" id="ArialMT-110"/>
     <path id="ArialMT-32"/>
     <path d="M 8.6875 0 
L 8.6875 45.015625 
L 0.921875 45.015625 
L 0.921875 51.859375 
L 8.6875 51.859375 
L 8.6875 57.375 
Q 8.6875 62.59375 9.625 65.140625 
Q 10.890625 68.5625 14.078125 70.671875 
Q 17.28125 72.796875 23.046875 72.796875 
Q 26.765625 72.796875 31.25 71.921875 
L 29.9375 64.265625 
Q 27.203125 64.75 24.75 64.75 
Q 20.75 64.75 19.09375 63.03125 
Q 17.4375 61.328125 17.4375 56.640625 
L 17.4375 51.859375 
L 27.546875 51.859375 
L 27.546875 45.015625 
L 17.4375 45.015625 
L 17.4375 0 
z
" id="ArialMT-102"/>
     <path d="M 6.59375 -19.875 
L 6.59375 51.859375 
L 14.59375 51.859375 
L 14.59375 45.125 
Q 17.4375 49.078125 21 51.046875 
Q 24.5625 53.03125 29.640625 53.03125 
Q 36.28125 53.03125 41.359375 49.609375 
Q 46.4375 46.1875 49.015625 39.953125 
Q 51.609375 33.734375 51.609375 26.3125 
Q 51.609375 18.359375 48.75 11.984375 
Q 45.90625 5.609375 40.453125 2.21875 
Q 35.015625 -1.171875 29 -1.171875 
Q 24.609375 -1.171875 21.109375 0.6875 
Q 17.625 2.546875 15.375 5.375 
L 15.375 -19.875 
z
M 14.546875 25.640625 
Q 14.546875 15.625 18.59375 10.84375 
Q 22.65625 6.0625 28.421875 6.0625 
Q 34.28125 6.0625 38.453125 11.015625 
Q 42.625 15.96875 42.625 26.375 
Q 42.625 36.28125 38.546875 41.203125 
Q 34.46875 46.140625 28.8125 46.140625 
Q 23.1875 46.140625 18.859375 40.890625 
Q 14.546875 35.640625 14.546875 25.640625 
z
" id="ArialMT-112"/>
     <path d="M 6.546875 61.375 
L 6.546875 71.578125 
L 15.328125 71.578125 
L 15.328125 61.375 
z
M -4.59375 -20.125 
L -2.9375 -12.640625 
Q -0.296875 -13.328125 1.21875 -13.328125 
Q 3.90625 -13.328125 5.21875 -11.546875 
Q 6.546875 -9.765625 6.546875 -2.640625 
L 6.546875 51.859375 
L 15.328125 51.859375 
L 15.328125 -2.828125 
Q 15.328125 -12.40625 12.84375 -16.15625 
Q 9.671875 -21.046875 2.296875 -21.046875 
Q -1.265625 -21.046875 -4.59375 -20.125 
z
" id="ArialMT-106"/>
     <path d="M 42.09375 16.703125 
L 51.171875 15.578125 
Q 49.03125 7.625 43.21875 3.21875 
Q 37.40625 -1.171875 28.375 -1.171875 
Q 17 -1.171875 10.328125 5.828125 
Q 3.65625 12.84375 3.65625 25.484375 
Q 3.65625 38.578125 10.390625 45.796875 
Q 17.140625 53.03125 27.875 53.03125 
Q 38.28125 53.03125 44.875 45.953125 
Q 51.46875 38.875 51.46875 26.03125 
Q 51.46875 25.25 51.421875 23.6875 
L 12.75 23.6875 
Q 13.234375 15.140625 17.578125 10.59375 
Q 21.921875 6.0625 28.421875 6.0625 
Q 33.25 6.0625 36.671875 8.59375 
Q 40.09375 11.140625 42.09375 16.703125 
z
M 13.234375 30.90625 
L 42.1875 30.90625 
Q 41.609375 37.453125 38.875 40.71875 
Q 34.671875 45.796875 27.984375 45.796875 
Q 21.921875 45.796875 17.796875 41.75 
Q 13.671875 37.703125 13.234375 30.90625 
z
" id="ArialMT-101"/>
     <path d="M 40.4375 19 
L 49.078125 17.875 
Q 47.65625 8.9375 41.8125 3.875 
Q 35.984375 -1.171875 27.484375 -1.171875 
Q 16.84375 -1.171875 10.375 5.78125 
Q 3.90625 12.75 3.90625 25.734375 
Q 3.90625 34.125 6.6875 40.421875 
Q 9.46875 46.734375 15.15625 49.875 
Q 20.84375 53.03125 27.546875 53.03125 
Q 35.984375 53.03125 41.359375 48.75 
Q 46.734375 44.484375 48.25 36.625 
L 39.703125 35.296875 
Q 38.484375 40.53125 35.375 43.15625 
Q 32.28125 45.796875 27.875 45.796875 
Q 21.234375 45.796875 17.078125 41.03125 
Q 12.9375 36.28125 12.9375 25.984375 
Q 12.9375 15.53125 16.9375 10.796875 
Q 20.953125 6.0625 27.390625 6.0625 
Q 32.5625 6.0625 36.03125 9.234375 
Q 39.5 12.40625 40.4375 19 
z
" id="ArialMT-99"/>
     <path d="M 40.234375 0 
L 40.234375 6.546875 
Q 35.296875 -1.171875 25.734375 -1.171875 
Q 19.53125 -1.171875 14.328125 2.25 
Q 9.125 5.671875 6.265625 11.796875 
Q 3.421875 17.921875 3.421875 25.875 
Q 3.421875 33.640625 6 39.96875 
Q 8.59375 46.296875 13.765625 49.65625 
Q 18.953125 53.03125 25.34375 53.03125 
Q 30.03125 53.03125 33.6875 51.046875 
Q 37.359375 49.078125 39.65625 45.90625 
L 39.65625 71.578125 
L 48.390625 71.578125 
L 48.390625 0 
z
M 12.453125 25.875 
Q 12.453125 15.921875 16.640625 10.984375 
Q 20.84375 6.0625 26.5625 6.0625 
Q 32.328125 6.0625 36.34375 10.765625 
Q 40.375 15.484375 40.375 25.140625 
Q 40.375 35.796875 36.265625 40.765625 
Q 32.171875 45.75 26.171875 45.75 
Q 20.3125 45.75 16.375 40.96875 
Q 12.453125 36.1875 12.453125 25.875 
z
" id="ArialMT-100"/>
     <path d="M 6.203125 -19.96875 
L 5.21875 -11.71875 
Q 8.109375 -12.5 10.25 -12.5 
Q 13.1875 -12.5 14.9375 -11.515625 
Q 16.703125 -10.546875 17.828125 -8.796875 
Q 18.65625 -7.46875 20.515625 -2.25 
Q 20.75 -1.515625 21.296875 -0.09375 
L 1.609375 51.859375 
L 11.078125 51.859375 
L 21.875 21.828125 
Q 23.96875 16.109375 25.640625 9.8125 
Q 27.15625 15.875 29.25 21.625 
L 40.328125 51.859375 
L 49.125 51.859375 
L 29.390625 -0.875 
Q 26.21875 -9.421875 24.46875 -12.640625 
Q 22.125 -17 19.09375 -19.015625 
Q 16.0625 -21.046875 11.859375 -21.046875 
Q 9.328125 -21.046875 6.203125 -19.96875 
z
" id="ArialMT-121"/>
     <path d="M 6.59375 0 
L 6.59375 51.859375 
L 14.453125 51.859375 
L 14.453125 44.578125 
Q 16.890625 48.390625 20.9375 50.703125 
Q 25 53.03125 30.171875 53.03125 
Q 35.9375 53.03125 39.625 50.640625 
Q 43.3125 48.25 44.828125 43.953125 
Q 50.984375 53.03125 60.84375 53.03125 
Q 68.5625 53.03125 72.703125 48.75 
Q 76.859375 44.484375 76.859375 35.59375 
L 76.859375 0 
L 68.109375 0 
L 68.109375 32.671875 
Q 68.109375 37.9375 67.25 40.25 
Q 66.40625 42.578125 64.15625 43.984375 
Q 61.921875 45.40625 58.890625 45.40625 
Q 53.421875 45.40625 49.796875 41.765625 
Q 46.1875 38.140625 46.1875 30.125 
L 46.1875 0 
L 37.40625 0 
L 37.40625 33.6875 
Q 37.40625 39.546875 35.25 42.46875 
Q 33.109375 45.40625 28.21875 45.40625 
Q 24.515625 45.40625 21.359375 43.453125 
Q 18.21875 41.5 16.796875 37.734375 
Q 15.375 33.984375 15.375 26.90625 
L 15.375 0 
z
" id="ArialMT-109"/>
     <path d="M 21 0 
L 1.265625 51.859375 
L 10.546875 51.859375 
L 21.6875 20.796875 
Q 23.484375 15.765625 25 10.359375 
Q 26.171875 14.453125 28.265625 20.21875 
L 39.796875 51.859375 
L 48.828125 51.859375 
L 29.203125 0 
z
" id="ArialMT-118"/>
     <path d="M 6.390625 0 
L 6.390625 71.578125 
L 15.1875 71.578125 
L 15.1875 0 
z
" id="ArialMT-108"/>
     <path d="M 6.59375 0 
L 6.59375 71.578125 
L 15.375 71.578125 
L 15.375 45.90625 
Q 21.53125 53.03125 30.90625 53.03125 
Q 36.671875 53.03125 40.921875 50.75 
Q 45.171875 48.484375 47 44.484375 
Q 48.828125 40.484375 48.828125 32.859375 
L 48.828125 0 
L 40.046875 0 
L 40.046875 32.859375 
Q 40.046875 39.453125 37.1875 42.453125 
Q 34.328125 45.453125 29.109375 45.453125 
Q 25.203125 45.453125 21.75 43.421875 
Q 18.3125 41.40625 16.84375 37.9375 
Q 15.375 34.46875 15.375 28.375 
L 15.375 0 
z
" id="ArialMT-104"/>
     <path d="M 3.171875 21.484375 
L 3.171875 30.328125 
L 30.171875 30.328125 
L 30.171875 21.484375 
z
" id="ArialMT-45"/>
     <path d="M 7.625 0 
L 7.625 71.578125 
L 17.328125 71.578125 
L 54.9375 15.375 
L 54.9375 71.578125 
L 64.015625 71.578125 
L 64.015625 0 
L 54.296875 0 
L 16.703125 56.25 
L 16.703125 0 
z
" id="ArialMT-78"/>
     <path d="M 16.15625 0 
L 0.296875 51.859375 
L 9.375 51.859375 
L 17.625 21.921875 
L 20.703125 10.796875 
Q 20.90625 11.625 23.390625 21.484375 
L 31.640625 51.859375 
L 40.671875 51.859375 
L 48.4375 21.78125 
L 51.03125 11.859375 
L 54 21.875 
L 62.890625 51.859375 
L 71.4375 51.859375 
L 55.21875 0 
L 46.09375 0 
L 37.84375 31.0625 
L 35.84375 39.890625 
L 25.34375 0 
z
" id="ArialMT-119"/>
     <path d="M 7.421875 0 
L 7.421875 71.578125 
L 21.6875 71.578125 
L 38.625 20.90625 
Q 40.96875 13.8125 42.046875 10.296875 
Q 43.265625 14.203125 45.84375 21.78125 
L 62.984375 71.578125 
L 75.734375 71.578125 
L 75.734375 0 
L 66.609375 0 
L 66.609375 59.90625 
L 45.796875 0 
L 37.25 0 
L 16.546875 60.9375 
L 16.546875 0 
z
" id="ArialMT-77"/>
     <path d="M -1.515625 -19.875 
L -1.515625 -13.53125 
L 56.734375 -13.53125 
L 56.734375 -19.875 
z
" id="ArialMT-95"/>
    </defs>
    <g style="fill:#262626;" transform="translate(85.786875 23.748375)scale(0.12 -0.12)">
     <use xlink:href="#ArialMT-68"/>
     <use x="72.216797" xlink:href="#ArialMT-105"/>
     <use x="94.433594" xlink:href="#ArialMT-115"/>
     <use x="144.433594" xlink:href="#ArialMT-116"/>
     <use x="172.216797" xlink:href="#ArialMT-114"/>
     <use x="205.517578" xlink:href="#ArialMT-105"/>
     <use x="227.734375" xlink:href="#ArialMT-98"/>
     <use x="283.349609" xlink:href="#ArialMT-117"/>
     <use x="338.964844" xlink:href="#ArialMT-116"/>
     <use x="366.748047" xlink:href="#ArialMT-105"/>
     <use x="388.964844" xlink:href="#ArialMT-111"/>
     <use x="444.580078" xlink:href="#ArialMT-110"/>
     <use x="500.195312" xlink:href="#ArialMT-32"/>
     <use x="527.978516" xlink:href="#ArialMT-111"/>
     <use x="583.59375" xlink:href="#ArialMT-102"/>
     <use x="611.376953" xlink:href="#ArialMT-32"/>
     <use x="639.160156" xlink:href="#ArialMT-112"/>
     <use x="694.775391" xlink:href="#ArialMT-114"/>
     <use x="728.076172" xlink:href="#ArialMT-111"/>
     <use x="783.691406" xlink:href="#ArialMT-106"/>
     <use x="805.908203" xlink:href="#ArialMT-101"/>
     <use x="861.523438" xlink:href="#ArialMT-99"/>
     <use x="911.523438" xlink:href="#ArialMT-116"/>
     <use x="939.306641" xlink:href="#ArialMT-101"/>
     <use x="994.921875" xlink:href="#ArialMT-100"/>
     <use x="1050.537109" xlink:href="#ArialMT-32"/>
     <use x="1078.320312" xlink:href="#ArialMT-101"/>
     <use x="1133.935547" xlink:href="#ArialMT-121"/>
     <use x="1183.935547" xlink:href="#ArialMT-101"/>
     <use x="1239.550781" xlink:href="#ArialMT-32"/>
     <use x="1267.333984" xlink:href="#ArialMT-109"/>
     <use x="1350.634766" xlink:href="#ArialMT-111"/>
     <use x="1406.25" xlink:href="#ArialMT-118"/>
     <use x="1456.25" xlink:href="#ArialMT-101"/>
     <use x="1511.865234" xlink:href="#ArialMT-109"/>
     <use x="1595.166016" xlink:href="#ArialMT-101"/>
     <use x="1650.78125" xlink:href="#ArialMT-110"/>
     <use x="1706.396484" xlink:href="#ArialMT-116"/>
     <use x="1734.179688" xlink:href="#ArialMT-32"/>
     <use x="1761.962891" xlink:href="#ArialMT-118"/>
     <use x="1811.962891" xlink:href="#ArialMT-101"/>
     <use x="1867.578125" xlink:href="#ArialMT-108"/>
     <use x="1889.794922" xlink:href="#ArialMT-111"/>
     <use x="1945.410156" xlink:href="#ArialMT-99"/>
     <use x="1995.410156" xlink:href="#ArialMT-105"/>
     <use x="2017.626953" xlink:href="#ArialMT-116"/>
     <use x="2045.410156" xlink:href="#ArialMT-121"/>
     <use x="2095.410156" xlink:href="#ArialMT-32"/>
     <use x="2123.193359" xlink:href="#ArialMT-111"/>
     <use x="2178.808594" xlink:href="#ArialMT-110"/>
     <use x="2234.423828" xlink:href="#ArialMT-32"/>
     <use x="2262.207031" xlink:href="#ArialMT-116"/>
     <use x="2289.990234" xlink:href="#ArialMT-104"/>
     <use x="2345.605469" xlink:href="#ArialMT-101"/>
     <use x="2401.220703" xlink:href="#ArialMT-32"/>
     <use x="2429.003906" xlink:href="#ArialMT-115"/>
     <use x="2479.003906" xlink:href="#ArialMT-99"/>
     <use x="2529.003906" xlink:href="#ArialMT-114"/>
     <use x="2562.304688" xlink:href="#ArialMT-101"/>
     <use x="2617.919922" xlink:href="#ArialMT-101"/>
     <use x="2673.535156" xlink:href="#ArialMT-110"/>
     <use x="2729.150391" xlink:href="#ArialMT-32"/>
     <use x="2756.933594" xlink:href="#ArialMT-45"/>
     <use x="2790.234375" xlink:href="#ArialMT-32"/>
     <use x="2818.017578" xlink:href="#ArialMT-78"/>
     <use x="2890.234375" xlink:href="#ArialMT-101"/>
     <use x="2945.849609" xlink:href="#ArialMT-119"/>
     <use x="3018.066406" xlink:href="#ArialMT-77"/>
     <use x="3101.367188" xlink:href="#ArialMT-49"/>
     <use x="3156.982422" xlink:href="#ArialMT-95"/>
     <use x="3212.597656" xlink:href="#ArialMT-49"/>
     <use x="3268.103516" xlink:href="#ArialMT-49"/>
     <use x="3323.71875" xlink:href="#ArialMT-95"/>
     <use x="3379.333984" xlink:href="#ArialMT-49"/>
     <use x="3434.839844" xlink:href="#ArialMT-49"/>
    </g>
   </g>
   <g id="legend_1">
    <g id="line2d_17">
     <path d="M 197.816406 60.2075 
L 217.816406 60.2075 
" style="fill:none;stroke:#ff0000;stroke-dasharray:7.4,3.2;stroke-dashoffset:0;stroke-width:2;"/>
    </g>
    <g id="line2d_18"/>
    <g id="text_17">
     <!-- Average angle in dark: 25.83 degrees -->
     <defs>
      <path d="M -0.140625 0 
L 27.34375 71.578125 
L 37.546875 71.578125 
L 66.84375 0 
L 56.0625 0 
L 47.703125 21.6875 
L 17.78125 21.6875 
L 9.90625 0 
z
M 20.515625 29.390625 
L 44.78125 29.390625 
L 37.3125 49.21875 
Q 33.890625 58.25 32.234375 64.0625 
Q 30.859375 57.171875 28.375 50.390625 
z
" id="ArialMT-65"/>
      <path d="M 40.4375 6.390625 
Q 35.546875 2.25 31.03125 0.53125 
Q 26.515625 -1.171875 21.34375 -1.171875 
Q 12.796875 -1.171875 8.203125 3 
Q 3.609375 7.171875 3.609375 13.671875 
Q 3.609375 17.484375 5.34375 20.625 
Q 7.078125 23.78125 9.890625 25.6875 
Q 12.703125 27.59375 16.21875 28.5625 
Q 18.796875 29.25 24.03125 29.890625 
Q 34.671875 31.15625 39.703125 32.90625 
Q 39.75 34.71875 39.75 35.203125 
Q 39.75 40.578125 37.25 42.78125 
Q 33.890625 45.75 27.25 45.75 
Q 21.046875 45.75 18.09375 43.578125 
Q 15.140625 41.40625 13.71875 35.890625 
L 5.125 37.0625 
Q 6.296875 42.578125 8.984375 45.96875 
Q 11.671875 49.359375 16.75 51.1875 
Q 21.828125 53.03125 28.515625 53.03125 
Q 35.15625 53.03125 39.296875 51.46875 
Q 43.453125 49.90625 45.40625 47.53125 
Q 47.359375 45.171875 48.140625 41.546875 
Q 48.578125 39.3125 48.578125 33.453125 
L 48.578125 21.734375 
Q 48.578125 9.46875 49.140625 6.21875 
Q 49.703125 2.984375 51.375 0 
L 42.1875 0 
Q 40.828125 2.734375 40.4375 6.390625 
z
M 39.703125 26.03125 
Q 34.90625 24.078125 25.34375 22.703125 
Q 19.921875 21.921875 17.671875 20.9375 
Q 15.4375 19.96875 14.203125 18.09375 
Q 12.984375 16.21875 12.984375 13.921875 
Q 12.984375 10.40625 15.640625 8.0625 
Q 18.3125 5.71875 23.4375 5.71875 
Q 28.515625 5.71875 32.46875 7.9375 
Q 36.421875 10.15625 38.28125 14.015625 
Q 39.703125 17 39.703125 22.796875 
z
" id="ArialMT-97"/>
      <path d="M 4.984375 -4.296875 
L 13.53125 -5.5625 
Q 14.0625 -9.515625 16.5 -11.328125 
Q 19.78125 -13.765625 25.4375 -13.765625 
Q 31.546875 -13.765625 34.859375 -11.328125 
Q 38.1875 -8.890625 39.359375 -4.5 
Q 40.046875 -1.8125 39.984375 6.78125 
Q 34.234375 0 25.640625 0 
Q 14.9375 0 9.078125 7.71875 
Q 3.21875 15.4375 3.21875 26.21875 
Q 3.21875 33.640625 5.90625 39.90625 
Q 8.59375 46.1875 13.6875 49.609375 
Q 18.796875 53.03125 25.6875 53.03125 
Q 34.859375 53.03125 40.828125 45.609375 
L 40.828125 51.859375 
L 48.921875 51.859375 
L 48.921875 7.03125 
Q 48.921875 -5.078125 46.453125 -10.125 
Q 44 -15.1875 38.640625 -18.109375 
Q 33.296875 -21.046875 25.484375 -21.046875 
Q 16.21875 -21.046875 10.5 -16.875 
Q 4.78125 -12.703125 4.984375 -4.296875 
z
M 12.25 26.859375 
Q 12.25 16.65625 16.296875 11.96875 
Q 20.359375 7.28125 26.46875 7.28125 
Q 32.515625 7.28125 36.609375 11.9375 
Q 40.71875 16.609375 40.71875 26.5625 
Q 40.71875 36.078125 36.5 40.90625 
Q 32.28125 45.75 26.3125 45.75 
Q 20.453125 45.75 16.34375 40.984375 
Q 12.25 36.234375 12.25 26.859375 
z
" id="ArialMT-103"/>
      <path d="M 6.640625 0 
L 6.640625 71.578125 
L 15.4375 71.578125 
L 15.4375 30.765625 
L 36.234375 51.859375 
L 47.609375 51.859375 
L 27.78125 32.625 
L 49.609375 0 
L 38.765625 0 
L 21.625 26.515625 
L 15.4375 20.5625 
L 15.4375 0 
z
" id="ArialMT-107"/>
      <path d="M 9.03125 41.84375 
L 9.03125 51.859375 
L 19.046875 51.859375 
L 19.046875 41.84375 
z
M 9.03125 0 
L 9.03125 10.015625 
L 19.046875 10.015625 
L 19.046875 0 
z
" id="ArialMT-58"/>
     </defs>
     <g style="fill:#262626;" transform="translate(225.816406 63.7075)scale(0.1 -0.1)">
      <use xlink:href="#ArialMT-65"/>
      <use x="66.683594" xlink:href="#ArialMT-118"/>
      <use x="116.683594" xlink:href="#ArialMT-101"/>
      <use x="172.298828" xlink:href="#ArialMT-114"/>
      <use x="205.599609" xlink:href="#ArialMT-97"/>
      <use x="261.214844" xlink:href="#ArialMT-103"/>
      <use x="316.830078" xlink:href="#ArialMT-101"/>
      <use x="372.445312" xlink:href="#ArialMT-32"/>
      <use x="400.228516" xlink:href="#ArialMT-97"/>
      <use x="455.84375" xlink:href="#ArialMT-110"/>
      <use x="511.458984" xlink:href="#ArialMT-103"/>
      <use x="567.074219" xlink:href="#ArialMT-108"/>
      <use x="589.291016" xlink:href="#ArialMT-101"/>
      <use x="644.90625" xlink:href="#ArialMT-32"/>
      <use x="672.689453" xlink:href="#ArialMT-105"/>
      <use x="694.90625" xlink:href="#ArialMT-110"/>
      <use x="750.521484" xlink:href="#ArialMT-32"/>
      <use x="778.304688" xlink:href="#ArialMT-100"/>
      <use x="833.919922" xlink:href="#ArialMT-97"/>
      <use x="889.535156" xlink:href="#ArialMT-114"/>
      <use x="922.835938" xlink:href="#ArialMT-107"/>
      <use x="972.835938" xlink:href="#ArialMT-58"/>
      <use x="1000.619141" xlink:href="#ArialMT-32"/>
      <use x="1028.402344" xlink:href="#ArialMT-50"/>
      <use x="1084.017578" xlink:href="#ArialMT-53"/>
      <use x="1139.632812" xlink:href="#ArialMT-46"/>
      <use x="1167.416016" xlink:href="#ArialMT-56"/>
      <use x="1223.03125" xlink:href="#ArialMT-51"/>
      <use x="1278.646484" xlink:href="#ArialMT-32"/>
      <use x="1306.429688" xlink:href="#ArialMT-100"/>
      <use x="1362.044922" xlink:href="#ArialMT-101"/>
      <use x="1417.660156" xlink:href="#ArialMT-103"/>
      <use x="1473.275391" xlink:href="#ArialMT-114"/>
      <use x="1506.576172" xlink:href="#ArialMT-101"/>
      <use x="1562.191406" xlink:href="#ArialMT-101"/>
      <use x="1617.806641" xlink:href="#ArialMT-115"/>
     </g>
    </g>
    <g id="PathCollection_4">
     <g>
      <use style="fill:#4c72b0;stroke:#4c72b0;stroke-width:0.3;" x="207.816406" xlink:href="#me3b1e37f0e" y="75.345"/>
     </g>
    </g>
    <g id="text_18">
     <!-- $-0.5 &lt; t &lt; 0.$ -->
     <defs>
      <path d="M 10.59375 35.5 
L 73.1875 35.5 
L 73.1875 27.203125 
L 10.59375 27.203125 
z
" id="DejaVuSans-8722"/>
      <path d="M 31.78125 66.40625 
Q 24.171875 66.40625 20.328125 58.90625 
Q 16.5 51.421875 16.5 36.375 
Q 16.5 21.390625 20.328125 13.890625 
Q 24.171875 6.390625 31.78125 6.390625 
Q 39.453125 6.390625 43.28125 13.890625 
Q 47.125 21.390625 47.125 36.375 
Q 47.125 51.421875 43.28125 58.90625 
Q 39.453125 66.40625 31.78125 66.40625 
z
M 31.78125 74.21875 
Q 44.046875 74.21875 50.515625 64.515625 
Q 56.984375 54.828125 56.984375 36.375 
Q 56.984375 17.96875 50.515625 8.265625 
Q 44.046875 -1.421875 31.78125 -1.421875 
Q 19.53125 -1.421875 13.0625 8.265625 
Q 6.59375 17.96875 6.59375 36.375 
Q 6.59375 54.828125 13.0625 64.515625 
Q 19.53125 74.21875 31.78125 74.21875 
z
" id="DejaVuSans-48"/>
      <path d="M 10.6875 12.40625 
L 21 12.40625 
L 21 0 
L 10.6875 0 
z
" id="DejaVuSans-46"/>
      <path d="M 10.796875 72.90625 
L 49.515625 72.90625 
L 49.515625 64.59375 
L 19.828125 64.59375 
L 19.828125 46.734375 
Q 21.96875 47.46875 24.109375 47.828125 
Q 26.265625 48.1875 28.421875 48.1875 
Q 40.625 48.1875 47.75 41.5 
Q 54.890625 34.8125 54.890625 23.390625 
Q 54.890625 11.625 47.5625 5.09375 
Q 40.234375 -1.421875 26.90625 -1.421875 
Q 22.3125 -1.421875 17.546875 -0.640625 
Q 12.796875 0.140625 7.71875 1.703125 
L 7.71875 11.625 
Q 12.109375 9.234375 16.796875 8.0625 
Q 21.484375 6.890625 26.703125 6.890625 
Q 35.15625 6.890625 40.078125 11.328125 
Q 45.015625 15.765625 45.015625 23.390625 
Q 45.015625 31 40.078125 35.4375 
Q 35.15625 39.890625 26.703125 39.890625 
Q 22.75 39.890625 18.8125 39.015625 
Q 14.890625 38.140625 10.796875 36.28125 
z
" id="DejaVuSans-53"/>
      <path d="M 73.1875 49.21875 
L 22.796875 31.296875 
L 73.1875 13.484375 
L 73.1875 4.59375 
L 10.59375 27.296875 
L 10.59375 35.40625 
L 73.1875 58.109375 
z
" id="DejaVuSans-60"/>
      <path d="M 42.28125 54.6875 
L 40.921875 47.703125 
L 23 47.703125 
L 17.1875 18.015625 
Q 16.890625 16.359375 16.75 15.234375 
Q 16.609375 14.109375 16.609375 13.484375 
Q 16.609375 10.359375 18.484375 8.9375 
Q 20.359375 7.515625 24.515625 7.515625 
L 33.59375 7.515625 
L 32.078125 0 
L 23.484375 0 
Q 15.484375 0 11.546875 3.125 
Q 7.625 6.25 7.625 12.59375 
Q 7.625 13.71875 7.765625 15.0625 
Q 7.90625 16.40625 8.203125 18.015625 
L 14.015625 47.703125 
L 6.390625 47.703125 
L 7.8125 54.6875 
L 15.28125 54.6875 
L 18.3125 70.21875 
L 27.296875 70.21875 
L 24.3125 54.6875 
z
" id="DejaVuSans-Oblique-116"/>
     </defs>
     <g style="fill:#262626;" transform="translate(225.816406 77.97)scale(0.1 -0.1)">
      <use transform="translate(0 0.78125)" xlink:href="#DejaVuSans-8722"/>
      <use transform="translate(83.789062 0.78125)" xlink:href="#DejaVuSans-48"/>
      <use transform="translate(147.412109 0.78125)" xlink:href="#DejaVuSans-46"/>
      <use transform="translate(179.199219 0.78125)" xlink:href="#DejaVuSans-53"/>
      <use transform="translate(262.304688 0.78125)" xlink:href="#DejaVuSans-60"/>
      <use transform="translate(365.576172 0.78125)" xlink:href="#DejaVuSans-Oblique-116"/>
      <use transform="translate(424.267578 0.78125)" xlink:href="#DejaVuSans-60"/>
      <use transform="translate(527.539062 0.78125)" xlink:href="#DejaVuSans-48"/>
     </g>
    </g>
    <g id="PathCollection_5">
     <g>
      <use style="fill:#55a868;stroke:#55a868;stroke-width:0.3;" x="207.816406" xlink:href="#m36948d8d2e" y="89.490312"/>
     </g>
    </g>
    <g id="text_19">
     <!-- $0. &lt; t &lt; 0.5$ -->
     <g style="fill:#262626;" transform="translate(225.816406 92.115312)scale(0.1 -0.1)">
      <use transform="translate(0 0.78125)" xlink:href="#DejaVuSans-48"/>
      <use transform="translate(63.623047 0.78125)" xlink:href="#DejaVuSans-46"/>
      <use transform="translate(134.375 0.78125)" xlink:href="#DejaVuSans-60"/>
      <use transform="translate(237.646484 0.78125)" xlink:href="#DejaVuSans-Oblique-116"/>
      <use transform="translate(296.337891 0.78125)" xlink:href="#DejaVuSans-60"/>
      <use transform="translate(399.609375 0.78125)" xlink:href="#DejaVuSans-48"/>
      <use transform="translate(463.232422 0.78125)" xlink:href="#DejaVuSans-46"/>
      <use transform="translate(495.019531 0.78125)" xlink:href="#DejaVuSans-53"/>
     </g>
    </g>
    <g id="PathCollection_6">
     <g>
      <use style="fill:#c44e52;stroke:#c44e52;stroke-width:0.3;" x="207.816406" xlink:href="#m0dc930fd34" y="103.635625"/>
     </g>
    </g>
    <g id="text_20">
     <!-- $0.5 &lt; t &lt; 1.$ -->
     <defs>
      <path d="M 12.40625 8.296875 
L 28.515625 8.296875 
L 28.515625 63.921875 
L 10.984375 60.40625 
L 10.984375 69.390625 
L 28.421875 72.90625 
L 38.28125 72.90625 
L 38.28125 8.296875 
L 54.390625 8.296875 
L 54.390625 0 
L 12.40625 0 
z
" id="DejaVuSans-49"/>
     </defs>
     <g style="fill:#262626;" transform="translate(225.816406 106.260625)scale(0.1 -0.1)">
      <use transform="translate(0 0.78125)" xlink:href="#DejaVuSans-48"/>
      <use transform="translate(63.623047 0.78125)" xlink:href="#DejaVuSans-46"/>
      <use transform="translate(95.410156 0.78125)" xlink:href="#DejaVuSans-53"/>
      <use transform="translate(178.515625 0.78125)" xlink:href="#DejaVuSans-60"/>
      <use transform="translate(281.787109 0.78125)" xlink:href="#DejaVuSans-Oblique-116"/>
      <use transform="translate(340.478516 0.78125)" xlink:href="#DejaVuSans-60"/>
      <use transform="translate(443.75 0.78125)" xlink:href="#DejaVuSans-49"/>
     </g>
    </g>
   </g>
  </g>
 </g>
 <defs>
  <clipPath id="p234e78c772">
   <path d="M 447.66 199.98 
C 447.66 179.959136 443.716326 160.13295 436.054674 141.636084 
C 428.393021 123.139218 417.162388 106.331389 403.0055 92.1745 
C 388.848611 78.017612 372.040782 66.786979 353.543916 59.125326 
C 335.04705 51.463674 315.220864 47.52 295.2 47.52 
C 275.179136 47.52 255.35295 51.463674 236.856084 59.125326 
C 218.359218 66.786979 201.551389 78.017612 187.3945 92.1745 
C 173.237612 106.331389 162.006979 123.139218 154.345326 141.636084 
C 146.683674 160.13295 142.74 179.959136 142.74 199.98 
C 142.74 220.000864 146.683674 239.82705 154.345326 258.323916 
C 162.006979 276.820782 173.237612 293.628611 187.3945 307.7855 
C 201.551389 321.942388 218.359218 333.173021 236.856084 340.834674 
C 255.35295 348.496326 275.179136 352.44 295.2 352.44 
C 315.220864 352.44 335.04705 348.496326 353.543916 340.834674 
C 372.040782 333.173021 388.848611 321.942388 403.0055 307.7855 
C 417.162388 293.628611 428.393021 276.820782 436.054674 258.323916 
C 443.716326 239.82705 447.66 220.000864 447.66 199.98 
M 295.2 199.98 
C 295.2 199.98 295.2 199.98 295.2 199.98 
C 295.2 199.98 295.2 199.98 295.2 199.98 
C 295.2 199.98 295.2 199.98 295.2 199.98 
C 295.2 199.98 295.2 199.98 295.2 199.98 
C 295.2 199.98 295.2 199.98 295.2 199.98 
C 295.2 199.98 295.2 199.98 295.2 199.98 
C 295.2 199.98 295.2 199.98 295.2 199.98 
C 295.2 199.98 295.2 199.98 295.2 199.98 
C 295.2 199.98 295.2 199.98 295.2 199.98 
C 295.2 199.98 295.2 199.98 295.2 199.98 
C 295.2 199.98 295.2 199.98 295.2 199.98 
C 295.2 199.98 295.2 199.98 295.2 199.98 
C 295.2 199.98 295.2 199.98 295.2 199.98 
C 295.2 199.98 295.2 199.98 295.2 199.98 
C 295.2 199.98 295.2 199.98 295.2 199.98 
C 295.2 199.98 295.2 199.98 295.2 199.98 
M 447.66 199.98 
z
"/>
  </clipPath>
 </defs>
</svg>
