<?xml version="1.0" encoding="utf-8" standalone="no"?>
<!DOCTYPE svg PUBLIC "-//W3C//DTD SVG 1.1//EN"
  "http://www.w3.org/Graphics/SVG/1.1/DTD/svg11.dtd">
<!-- Created with matplotlib (https://matplotlib.org/) -->
<svg height="396pt" version="1.1" viewBox="0 0 576 396" width="576pt" xmlns="http://www.w3.org/2000/svg" xmlns:xlink="http://www.w3.org/1999/xlink">
 <defs>
  <style type="text/css">
*{stroke-linecap:butt;stroke-linejoin:round;}
  </style>
 </defs>
 <g id="figure_1">
  <g id="patch_1">
   <path d="M 0 396 
L 576 396 
L 576 0 
L 0 0 
z
" style="fill:#ffffff;"/>
  </g>
  <g id="axes_1">
   <g id="patch_2">
    <path d="M 447.66 199.98 
C 447.66 179.959136 443.716326 160.13295 436.054674 141.636084 
C 428.393021 123.139218 417.162388 106.331389 403.0055 92.1745 
C 388.848611 78.017612 372.040782 66.786979 353.543916 59.125326 
C 335.04705 51.463674 315.220864 47.52 295.2 47.52 
C 275.179136 47.52 255.35295 51.463674 236.856084 59.125326 
C 218.359218 66.786979 201.551389 78.017612 187.3945 92.1745 
C 173.237612 106.331389 162.006979 123.139218 154.345326 141.636084 
C 146.683674 160.13295 142.74 179.959136 142.74 199.98 
C 142.74 220.000864 146.683674 239.82705 154.345326 258.323916 
C 162.006979 276.820782 173.237612 293.628611 187.3945 307.7855 
C 201.551389 321.942388 218.359218 333.173021 236.856084 340.834674 
C 255.35295 348.496326 275.179136 352.44 295.2 352.44 
C 315.220864 352.44 335.04705 348.496326 353.543916 340.834674 
C 372.040782 333.173021 388.848611 321.942388 403.0055 307.7855 
C 417.162388 293.628611 428.393021 276.820782 436.054674 258.323916 
C 443.716326 239.82705 447.66 220.000864 447.66 199.98 
M 295.2 199.98 
C 295.2 199.98 295.2 199.98 295.2 199.98 
C 295.2 199.98 295.2 199.98 295.2 199.98 
C 295.2 199.98 295.2 199.98 295.2 199.98 
C 295.2 199.98 295.2 199.98 295.2 199.98 
C 295.2 199.98 295.2 199.98 295.2 199.98 
C 295.2 199.98 295.2 199.98 295.2 199.98 
C 295.2 199.98 295.2 199.98 295.2 199.98 
C 295.2 199.98 295.2 199.98 295.2 199.98 
C 295.2 199.98 295.2 199.98 295.2 199.98 
C 295.2 199.98 295.2 199.98 295.2 199.98 
C 295.2 199.98 295.2 199.98 295.2 199.98 
C 295.2 199.98 295.2 199.98 295.2 199.98 
C 295.2 199.98 295.2 199.98 295.2 199.98 
C 295.2 199.98 295.2 199.98 295.2 199.98 
C 295.2 199.98 295.2 199.98 295.2 199.98 
C 295.2 199.98 295.2 199.98 295.2 199.98 
M 447.66 199.98 
z
" style="fill:#eaeaf2;"/>
   </g>
   <g id="matplotlib.axis_1">
    <g id="xtick_1">
     <g id="line2d_1">
      <path clip-path="url(#p6a2523c81b)" d="M 295.2 199.98 
L 447.66 199.98 
" style="fill:none;stroke:#ffffff;stroke-linecap:round;"/>
     </g>
     <g id="text_1">
      <!-- 0° -->
      <defs>
       <path d="M 4.15625 35.296875 
Q 4.15625 48 6.765625 55.734375 
Q 9.375 63.484375 14.515625 67.671875 
Q 19.671875 71.875 27.484375 71.875 
Q 33.25 71.875 37.59375 69.546875 
Q 41.9375 67.234375 44.765625 62.859375 
Q 47.609375 58.5 49.21875 52.21875 
Q 50.828125 45.953125 50.828125 35.296875 
Q 50.828125 22.703125 48.234375 14.96875 
Q 45.65625 7.234375 40.5 3 
Q 35.359375 -1.21875 27.484375 -1.21875 
Q 17.140625 -1.21875 11.234375 6.203125 
Q 4.15625 15.140625 4.15625 35.296875 
z
M 13.1875 35.296875 
Q 13.1875 17.671875 17.3125 11.828125 
Q 21.4375 6 27.484375 6 
Q 33.546875 6 37.671875 11.859375 
Q 41.796875 17.71875 41.796875 35.296875 
Q 41.796875 52.984375 37.671875 58.78125 
Q 33.546875 64.59375 27.390625 64.59375 
Q 21.34375 64.59375 17.71875 59.46875 
Q 13.1875 52.9375 13.1875 35.296875 
z
" id="ArialMT-48"/>
       <path d="M 6.25 59.28125 
Q 6.25 64.890625 10.21875 68.84375 
Q 14.203125 72.796875 19.78125 72.796875 
Q 25.4375 72.796875 29.390625 68.84375 
Q 33.34375 64.890625 33.34375 59.28125 
Q 33.34375 53.65625 29.359375 49.671875 
Q 25.390625 45.703125 19.78125 45.703125 
Q 14.203125 45.703125 10.21875 49.65625 
Q 6.25 53.609375 6.25 59.28125 
z
M 11.578125 59.28125 
Q 11.578125 55.859375 13.984375 53.4375 
Q 16.40625 51.03125 19.828125 51.03125 
Q 23.1875 51.03125 25.609375 53.4375 
Q 28.03125 55.859375 28.03125 59.28125 
Q 28.03125 62.703125 25.609375 65.109375 
Q 23.1875 67.53125 19.828125 67.53125 
Q 16.40625 67.53125 13.984375 65.109375 
Q 11.578125 62.703125 11.578125 59.28125 
z
" id="ArialMT-176"/>
      </defs>
      <g style="fill:#262626;" transform="translate(456.880312 202.565156)scale(0.1 -0.1)">
       <use xlink:href="#ArialMT-48"/>
       <use x="55.615234" xlink:href="#ArialMT-176"/>
      </g>
     </g>
    </g>
    <g id="xtick_2">
     <g id="line2d_2">
      <path clip-path="url(#p6a2523c81b)" d="M 295.2 199.98 
L 403.0055 92.1745 
" style="fill:none;stroke:#ffffff;stroke-linecap:round;"/>
     </g>
     <g id="text_2">
      <!-- 45° -->
      <defs>
       <path d="M 32.328125 0 
L 32.328125 17.140625 
L 1.265625 17.140625 
L 1.265625 25.203125 
L 33.9375 71.578125 
L 41.109375 71.578125 
L 41.109375 25.203125 
L 50.78125 25.203125 
L 50.78125 17.140625 
L 41.109375 17.140625 
L 41.109375 0 
z
M 32.328125 25.203125 
L 32.328125 57.46875 
L 9.90625 25.203125 
z
" id="ArialMT-52"/>
       <path d="M 4.15625 18.75 
L 13.375 19.53125 
Q 14.40625 12.796875 18.140625 9.390625 
Q 21.875 6 27.15625 6 
Q 33.5 6 37.890625 10.78125 
Q 42.28125 15.578125 42.28125 23.484375 
Q 42.28125 31 38.0625 35.34375 
Q 33.84375 39.703125 27 39.703125 
Q 22.75 39.703125 19.328125 37.765625 
Q 15.921875 35.84375 13.96875 32.765625 
L 5.71875 33.84375 
L 12.640625 70.609375 
L 48.25 70.609375 
L 48.25 62.203125 
L 19.671875 62.203125 
L 15.828125 42.96875 
Q 22.265625 47.46875 29.34375 47.46875 
Q 38.71875 47.46875 45.15625 40.96875 
Q 51.609375 34.46875 51.609375 24.265625 
Q 51.609375 14.546875 45.953125 7.46875 
Q 39.0625 -1.21875 27.15625 -1.21875 
Q 17.390625 -1.21875 11.203125 4.25 
Q 5.03125 9.71875 4.15625 18.75 
z
" id="ArialMT-53"/>
      </defs>
      <g style="fill:#262626;" transform="translate(405.344839 84.860161)scale(0.1 -0.1)">
       <use xlink:href="#ArialMT-52"/>
       <use x="55.615234" xlink:href="#ArialMT-53"/>
       <use x="111.230469" xlink:href="#ArialMT-176"/>
      </g>
     </g>
    </g>
    <g id="xtick_3">
     <g id="line2d_3">
      <path clip-path="url(#p6a2523c81b)" d="M 295.2 199.98 
L 295.2 47.52 
" style="fill:none;stroke:#ffffff;stroke-linecap:round;"/>
     </g>
     <g id="text_3">
      <!-- 90° -->
      <defs>
       <path d="M 5.46875 16.546875 
L 13.921875 17.328125 
Q 14.984375 11.375 18.015625 8.6875 
Q 21.046875 6 25.78125 6 
Q 29.828125 6 32.875 7.859375 
Q 35.9375 9.71875 37.890625 12.8125 
Q 39.84375 15.921875 41.15625 21.1875 
Q 42.484375 26.46875 42.484375 31.9375 
Q 42.484375 32.515625 42.4375 33.6875 
Q 39.796875 29.5 35.234375 26.875 
Q 30.671875 24.265625 25.34375 24.265625 
Q 16.453125 24.265625 10.296875 30.703125 
Q 4.15625 37.15625 4.15625 47.703125 
Q 4.15625 58.59375 10.578125 65.234375 
Q 17 71.875 26.65625 71.875 
Q 33.640625 71.875 39.421875 68.109375 
Q 45.21875 64.359375 48.21875 57.390625 
Q 51.21875 50.4375 51.21875 37.25 
Q 51.21875 23.53125 48.234375 15.40625 
Q 45.265625 7.28125 39.375 3.03125 
Q 33.5 -1.21875 25.59375 -1.21875 
Q 17.1875 -1.21875 11.859375 3.4375 
Q 6.546875 8.109375 5.46875 16.546875 
z
M 41.453125 48.140625 
Q 41.453125 55.71875 37.421875 60.15625 
Q 33.40625 64.59375 27.734375 64.59375 
Q 21.875 64.59375 17.53125 59.8125 
Q 13.1875 55.03125 13.1875 47.40625 
Q 13.1875 40.578125 17.3125 36.296875 
Q 21.4375 32.03125 27.484375 32.03125 
Q 33.59375 32.03125 37.515625 36.296875 
Q 41.453125 40.578125 41.453125 48.140625 
z
" id="ArialMT-57"/>
      </defs>
      <g style="fill:#262626;" transform="translate(287.639844 36.105156)scale(0.1 -0.1)">
       <use xlink:href="#ArialMT-57"/>
       <use x="55.615234" xlink:href="#ArialMT-48"/>
       <use x="111.230469" xlink:href="#ArialMT-176"/>
      </g>
     </g>
    </g>
    <g id="xtick_4">
     <g id="line2d_4">
      <path clip-path="url(#p6a2523c81b)" d="M 295.2 199.98 
L 187.3945 92.1745 
" style="fill:none;stroke:#ffffff;stroke-linecap:round;"/>
     </g>
     <g id="text_4">
      <!-- 135° -->
      <defs>
       <path d="M 37.25 0 
L 28.46875 0 
L 28.46875 56 
Q 25.296875 52.984375 20.140625 49.953125 
Q 14.984375 46.921875 10.890625 45.40625 
L 10.890625 53.90625 
Q 18.265625 57.375 23.78125 62.296875 
Q 29.296875 67.234375 31.59375 71.875 
L 37.25 71.875 
z
" id="ArialMT-49"/>
       <path d="M 4.203125 18.890625 
L 12.984375 20.0625 
Q 14.5 12.59375 18.140625 9.296875 
Q 21.78125 6 27 6 
Q 33.203125 6 37.46875 10.296875 
Q 41.75 14.59375 41.75 20.953125 
Q 41.75 27 37.796875 30.921875 
Q 33.84375 34.859375 27.734375 34.859375 
Q 25.25 34.859375 21.53125 33.890625 
L 22.515625 41.609375 
Q 23.390625 41.5 23.921875 41.5 
Q 29.546875 41.5 34.03125 44.421875 
Q 38.53125 47.359375 38.53125 53.46875 
Q 38.53125 58.296875 35.25 61.46875 
Q 31.984375 64.65625 26.8125 64.65625 
Q 21.6875 64.65625 18.265625 61.421875 
Q 14.84375 58.203125 13.875 51.765625 
L 5.078125 53.328125 
Q 6.6875 62.15625 12.390625 67.015625 
Q 18.109375 71.875 26.609375 71.875 
Q 32.46875 71.875 37.390625 69.359375 
Q 42.328125 66.84375 44.9375 62.5 
Q 47.5625 58.15625 47.5625 53.265625 
Q 47.5625 48.640625 45.0625 44.828125 
Q 42.578125 41.015625 37.703125 38.765625 
Q 44.046875 37.3125 47.5625 32.6875 
Q 51.078125 28.078125 51.078125 21.140625 
Q 51.078125 11.765625 44.234375 5.25 
Q 37.40625 -1.265625 26.953125 -1.265625 
Q 17.53125 -1.265625 11.296875 4.34375 
Q 5.078125 9.96875 4.203125 18.890625 
z
" id="ArialMT-51"/>
      </defs>
      <g style="fill:#262626;" transform="translate(167.15438 84.860161)scale(0.1 -0.1)">
       <use xlink:href="#ArialMT-49"/>
       <use x="55.615234" xlink:href="#ArialMT-51"/>
       <use x="111.230469" xlink:href="#ArialMT-53"/>
       <use x="166.845703" xlink:href="#ArialMT-176"/>
      </g>
     </g>
    </g>
    <g id="xtick_5">
     <g id="line2d_5">
      <path clip-path="url(#p6a2523c81b)" d="M 295.2 199.98 
L 142.74 199.98 
" style="fill:none;stroke:#ffffff;stroke-linecap:round;"/>
     </g>
     <g id="text_5">
      <!-- 180° -->
      <defs>
       <path d="M 17.671875 38.8125 
Q 12.203125 40.828125 9.5625 44.53125 
Q 6.9375 48.25 6.9375 53.421875 
Q 6.9375 61.234375 12.546875 66.546875 
Q 18.171875 71.875 27.484375 71.875 
Q 36.859375 71.875 42.578125 66.421875 
Q 48.296875 60.984375 48.296875 53.171875 
Q 48.296875 48.1875 45.671875 44.5 
Q 43.0625 40.828125 37.75 38.8125 
Q 44.34375 36.671875 47.78125 31.875 
Q 51.21875 27.09375 51.21875 20.453125 
Q 51.21875 11.28125 44.71875 5.03125 
Q 38.234375 -1.21875 27.640625 -1.21875 
Q 17.046875 -1.21875 10.546875 5.046875 
Q 4.046875 11.328125 4.046875 20.703125 
Q 4.046875 27.6875 7.59375 32.390625 
Q 11.140625 37.109375 17.671875 38.8125 
z
M 15.921875 53.71875 
Q 15.921875 48.640625 19.1875 45.40625 
Q 22.46875 42.1875 27.6875 42.1875 
Q 32.765625 42.1875 36.015625 45.375 
Q 39.265625 48.578125 39.265625 53.21875 
Q 39.265625 58.0625 35.90625 61.359375 
Q 32.5625 64.65625 27.59375 64.65625 
Q 22.5625 64.65625 19.234375 61.421875 
Q 15.921875 58.203125 15.921875 53.71875 
z
M 13.09375 20.65625 
Q 13.09375 16.890625 14.875 13.375 
Q 16.65625 9.859375 20.171875 7.921875 
Q 23.6875 6 27.734375 6 
Q 34.03125 6 38.125 10.046875 
Q 42.234375 14.109375 42.234375 20.359375 
Q 42.234375 26.703125 38.015625 30.859375 
Q 33.796875 35.015625 27.4375 35.015625 
Q 21.234375 35.015625 17.15625 30.90625 
Q 13.09375 26.8125 13.09375 20.65625 
z
" id="ArialMT-56"/>
      </defs>
      <g style="fill:#262626;" transform="translate(118.399375 202.565156)scale(0.1 -0.1)">
       <use xlink:href="#ArialMT-49"/>
       <use x="55.615234" xlink:href="#ArialMT-56"/>
       <use x="111.230469" xlink:href="#ArialMT-48"/>
       <use x="166.845703" xlink:href="#ArialMT-176"/>
      </g>
     </g>
    </g>
    <g id="xtick_6">
     <g id="line2d_6">
      <path clip-path="url(#p6a2523c81b)" d="M 295.2 199.98 
L 187.3945 307.7855 
" style="fill:none;stroke:#ffffff;stroke-linecap:round;"/>
     </g>
     <g id="text_6">
      <!-- 225° -->
      <defs>
       <path d="M 50.34375 8.453125 
L 50.34375 0 
L 3.03125 0 
Q 2.9375 3.171875 4.046875 6.109375 
Q 5.859375 10.9375 9.828125 15.625 
Q 13.8125 20.3125 21.34375 26.46875 
Q 33.015625 36.03125 37.109375 41.625 
Q 41.21875 47.21875 41.21875 52.203125 
Q 41.21875 57.421875 37.46875 61 
Q 33.734375 64.59375 27.734375 64.59375 
Q 21.390625 64.59375 17.578125 60.78125 
Q 13.765625 56.984375 13.71875 50.25 
L 4.6875 51.171875 
Q 5.609375 61.28125 11.65625 66.578125 
Q 17.71875 71.875 27.9375 71.875 
Q 38.234375 71.875 44.234375 66.15625 
Q 50.25 60.453125 50.25 52 
Q 50.25 47.703125 48.484375 43.546875 
Q 46.734375 39.40625 42.65625 34.8125 
Q 38.578125 30.21875 29.109375 22.21875 
Q 21.1875 15.578125 18.9375 13.203125 
Q 16.703125 10.84375 15.234375 8.453125 
z
" id="ArialMT-50"/>
      </defs>
      <g style="fill:#262626;" transform="translate(167.15438 320.270151)scale(0.1 -0.1)">
       <use xlink:href="#ArialMT-50"/>
       <use x="55.615234" xlink:href="#ArialMT-50"/>
       <use x="111.230469" xlink:href="#ArialMT-53"/>
       <use x="166.845703" xlink:href="#ArialMT-176"/>
      </g>
     </g>
    </g>
    <g id="xtick_7">
     <g id="line2d_7">
      <path clip-path="url(#p6a2523c81b)" d="M 295.2 199.98 
L 295.2 352.44 
" style="fill:none;stroke:#ffffff;stroke-linecap:round;"/>
     </g>
     <g id="text_7">
      <!-- 270° -->
      <defs>
       <path d="M 4.734375 62.203125 
L 4.734375 70.65625 
L 51.078125 70.65625 
L 51.078125 63.8125 
Q 44.234375 56.546875 37.515625 44.484375 
Q 30.8125 32.421875 27.15625 19.671875 
Q 24.515625 10.6875 23.78125 0 
L 14.75 0 
Q 14.890625 8.453125 18.0625 20.40625 
Q 21.234375 32.375 27.171875 43.484375 
Q 33.109375 54.59375 39.796875 62.203125 
z
" id="ArialMT-55"/>
      </defs>
      <g style="fill:#262626;" transform="translate(284.859375 369.025156)scale(0.1 -0.1)">
       <use xlink:href="#ArialMT-50"/>
       <use x="55.615234" xlink:href="#ArialMT-55"/>
       <use x="111.230469" xlink:href="#ArialMT-48"/>
       <use x="166.845703" xlink:href="#ArialMT-176"/>
      </g>
     </g>
    </g>
    <g id="xtick_8">
     <g id="line2d_8">
      <path clip-path="url(#p6a2523c81b)" d="M 295.2 199.98 
L 403.0055 307.7855 
" style="fill:none;stroke:#ffffff;stroke-linecap:round;"/>
     </g>
     <g id="text_8">
      <!-- 315° -->
      <g style="fill:#262626;" transform="translate(402.56437 320.270151)scale(0.1 -0.1)">
       <use xlink:href="#ArialMT-51"/>
       <use x="55.615234" xlink:href="#ArialMT-49"/>
       <use x="111.230469" xlink:href="#ArialMT-53"/>
       <use x="166.845703" xlink:href="#ArialMT-176"/>
      </g>
     </g>
    </g>
   </g>
   <g id="matplotlib.axis_2">
    <g id="ytick_1">
     <g id="line2d_9">
      <path clip-path="url(#p6a2523c81b)" d="M 313.014986 199.98 
L 312.917393 198.117827 
L 312.625686 196.276056 
L 312.143058 194.474867 
L 311.474799 192.733992 
L 310.62823 191.072507 
L 309.612626 189.508614 
L 308.439115 188.059448 
L 307.120552 186.740885 
L 305.671386 185.567374 
L 304.107493 184.55177 
L 302.446008 183.705201 
L 300.705133 183.036942 
L 298.903944 182.554314 
L 297.062173 182.262607 
L 295.2 182.165014 
L 293.337827 182.262607 
L 291.496056 182.554314 
L 289.694867 183.036942 
L 287.953992 183.705201 
L 286.292507 184.55177 
L 284.728614 185.567374 
L 283.279448 186.740885 
L 281.960885 188.059448 
L 280.787374 189.508614 
L 279.77177 191.072507 
L 278.925201 192.733992 
L 278.256942 194.474867 
L 277.774314 196.276056 
L 277.482607 198.117827 
L 277.385014 199.98 
L 277.482607 201.842173 
L 277.774314 203.683944 
L 278.256942 205.485133 
L 278.925201 207.226008 
L 279.77177 208.887493 
L 280.787374 210.451386 
L 281.960885 211.900552 
L 283.279448 213.219115 
L 284.728614 214.392626 
L 286.292507 215.40823 
L 287.953992 216.254799 
L 289.694867 216.923058 
L 291.496056 217.405686 
L 293.337827 217.697393 
L 295.2 217.794986 
L 297.062173 217.697393 
L 298.903944 217.405686 
L 300.705133 216.923058 
L 302.446008 216.254799 
L 304.107493 215.40823 
L 305.671386 214.392626 
L 307.120552 213.219115 
L 308.439115 211.900552 
L 309.612626 210.451386 
L 310.62823 208.887493 
L 311.474799 207.226008 
L 312.143058 205.485133 
L 312.625686 203.683944 
L 312.917393 201.842173 
L 313.014986 199.98 
L 313.014986 199.98 
" style="fill:none;stroke:#ffffff;stroke-linecap:round;"/>
     </g>
     <g id="text_9">
      <!-- 0.05 -->
      <defs>
       <path d="M 9.078125 0 
L 9.078125 10.015625 
L 19.09375 10.015625 
L 19.09375 0 
z
" id="ArialMT-46"/>
      </defs>
      <g style="fill:#262626;" transform="translate(311.658901 191.175)scale(0.1 -0.1)">
       <use xlink:href="#ArialMT-48"/>
       <use x="55.615234" xlink:href="#ArialMT-46"/>
       <use x="83.398438" xlink:href="#ArialMT-48"/>
       <use x="139.013672" xlink:href="#ArialMT-53"/>
      </g>
     </g>
    </g>
    <g id="ytick_2">
     <g id="line2d_10">
      <path clip-path="url(#p6a2523c81b)" d="M 330.829972 199.98 
L 330.743179 197.494579 
L 330.483223 195.021266 
L 330.051371 192.572112 
L 329.449727 190.159049 
L 328.681221 187.793832 
L 327.749599 185.487985 
L 326.659398 183.252742 
L 325.41593 181.098992 
L 324.025253 179.037228 
L 322.494142 177.077496 
L 320.830057 175.229342 
L 319.041105 173.501771 
L 317.136001 171.903199 
L 315.124027 170.441415 
L 313.014986 169.123539 
L 310.819152 167.955994 
L 308.547222 166.944466 
L 306.210267 166.093883 
L 303.81967 165.408391 
L 301.38708 164.891328 
L 298.924346 164.545213 
L 296.443468 164.371733 
L 293.956532 164.371733 
L 291.475654 164.545213 
L 289.01292 164.891328 
L 286.58033 165.408391 
L 284.189733 166.093883 
L 281.852778 166.944466 
L 279.580848 167.955994 
L 277.385014 169.123539 
L 275.275973 170.441415 
L 273.263999 171.903199 
L 271.358895 173.501771 
L 269.569943 175.229342 
L 267.905858 177.077496 
L 266.374747 179.037228 
L 264.98407 181.098992 
L 263.740602 183.252742 
L 262.650401 185.487985 
L 261.718779 187.793832 
L 260.950273 190.159049 
L 260.348629 192.572112 
L 259.916777 195.021266 
L 259.656821 197.494579 
L 259.570028 199.98 
L 259.656821 202.465421 
L 259.916777 204.938734 
L 260.348629 207.387888 
L 260.950273 209.800951 
L 261.718779 212.166168 
L 262.650401 214.472015 
L 263.740602 216.707258 
L 264.98407 218.861008 
L 266.374747 220.922772 
L 267.905858 222.882504 
L 269.569943 224.730658 
L 271.358895 226.458229 
L 273.263999 228.056801 
L 275.275973 229.518585 
L 277.385014 230.836461 
L 279.580848 232.004006 
L 281.852778 233.015534 
L 284.189733 233.866117 
L 286.58033 234.551609 
L 289.01292 235.068672 
L 291.475654 235.414787 
L 293.956532 235.588267 
L 296.443468 235.588267 
L 298.924346 235.414787 
L 301.38708 235.068672 
L 303.81967 234.551609 
L 306.210267 233.866117 
L 308.547222 233.015534 
L 310.819152 232.004006 
L 313.014986 230.836461 
L 315.124027 229.518585 
L 317.136001 228.056801 
L 319.041105 226.458229 
L 320.830057 224.730658 
L 322.494142 222.882504 
L 324.025253 220.922772 
L 325.41593 218.861008 
L 326.659398 216.707258 
L 327.749599 214.472015 
L 328.681221 212.166168 
L 329.449727 209.800951 
L 330.051371 207.387888 
L 330.483223 204.938734 
L 330.743179 202.465421 
L 330.829972 199.98 
L 330.829972 199.98 
" style="fill:none;stroke:#ffffff;stroke-linecap:round;"/>
     </g>
     <g id="text_10">
      <!-- 0.10 -->
      <g style="fill:#262626;" transform="translate(328.117802 184.3575)scale(0.1 -0.1)">
       <use xlink:href="#ArialMT-48"/>
       <use x="55.615234" xlink:href="#ArialMT-46"/>
       <use x="83.398438" xlink:href="#ArialMT-49"/>
       <use x="139.013672" xlink:href="#ArialMT-48"/>
      </g>
     </g>
    </g>
    <g id="ytick_3">
     <g id="line2d_11">
      <path clip-path="url(#p6a2523c81b)" d="M 348.644957 199.98 
L 348.514768 196.251868 
L 348.124835 192.5419 
L 347.477057 188.868169 
L 346.57459 185.248573 
L 345.421832 181.700748 
L 344.024398 178.241977 
L 342.389097 174.889112 
L 340.523894 171.658487 
L 338.437879 168.565842 
L 336.141213 165.626244 
L 333.645085 162.854013 
L 330.961657 160.262656 
L 328.104001 157.864799 
L 325.086041 155.672122 
L 321.922479 153.695309 
L 318.628727 151.94399 
L 315.220833 150.426698 
L 311.7154 149.150825 
L 308.129505 148.122586 
L 304.480619 147.346992 
L 300.786519 146.82782 
L 297.065202 146.5676 
L 293.334798 146.5676 
L 289.613481 146.82782 
L 285.919381 147.346992 
L 282.270495 148.122586 
L 278.6846 149.150825 
L 275.179167 150.426698 
L 271.771273 151.94399 
L 268.477521 153.695309 
L 265.313959 155.672122 
L 262.295999 157.864799 
L 259.438343 160.262656 
L 256.754915 162.854013 
L 254.258787 165.626244 
L 251.962121 168.565842 
L 249.876106 171.658487 
L 248.010903 174.889112 
L 246.375602 178.241977 
L 244.978168 181.700748 
L 243.82541 185.248573 
L 242.922943 188.868169 
L 242.275165 192.5419 
L 241.885232 196.251868 
L 241.755043 199.98 
L 241.885232 203.708132 
L 242.275165 207.4181 
L 242.922943 211.091831 
L 243.82541 214.711427 
L 244.978168 218.259252 
L 246.375602 221.718023 
L 248.010903 225.070888 
L 249.876106 228.301513 
L 251.962121 231.394158 
L 254.258787 234.333756 
L 256.754915 237.105987 
L 259.438343 239.697344 
L 262.295999 242.095201 
L 265.313959 244.287878 
L 268.477521 246.264691 
L 271.771273 248.01601 
L 275.179167 249.533302 
L 278.6846 250.809175 
L 282.270495 251.837414 
L 285.919381 252.613008 
L 289.613481 253.13218 
L 293.334798 253.3924 
L 297.065202 253.3924 
L 300.786519 253.13218 
L 304.480619 252.613008 
L 308.129505 251.837414 
L 311.7154 250.809175 
L 315.220833 249.533302 
L 318.628727 248.01601 
L 321.922479 246.264691 
L 325.086041 244.287878 
L 328.104001 242.095201 
L 330.961657 239.697344 
L 333.645085 237.105987 
L 336.141213 234.333756 
L 338.437879 231.394158 
L 340.523894 228.301513 
L 342.389097 225.070888 
L 344.024398 221.718023 
L 345.421832 218.259252 
L 346.57459 214.711427 
L 347.477057 211.091831 
L 348.124835 207.4181 
L 348.514768 203.708132 
L 348.644957 199.98 
L 348.644957 199.98 
" style="fill:none;stroke:#ffffff;stroke-linecap:round;"/>
     </g>
     <g id="text_11">
      <!-- 0.15 -->
      <g style="fill:#262626;" transform="translate(344.576702 177.54)scale(0.1 -0.1)">
       <use xlink:href="#ArialMT-48"/>
       <use x="55.615234" xlink:href="#ArialMT-46"/>
       <use x="83.398438" xlink:href="#ArialMT-49"/>
       <use x="139.013672" xlink:href="#ArialMT-53"/>
      </g>
     </g>
    </g>
    <g id="ytick_4">
     <g id="line2d_12">
      <path clip-path="url(#p6a2523c81b)" d="M 366.459943 199.98 
L 366.286358 195.009158 
L 365.766446 190.062533 
L 364.902743 185.164225 
L 363.699454 180.338098 
L 362.162443 175.607664 
L 360.299198 170.99597 
L 358.118795 166.525483 
L 355.631859 162.217983 
L 352.850505 158.094456 
L 349.788284 154.174991 
L 346.460113 150.478684 
L 342.882209 147.023542 
L 339.072002 143.826398 
L 335.048055 140.90283 
L 330.829972 138.267079 
L 326.438303 135.931987 
L 321.894445 133.908931 
L 317.220534 132.207767 
L 312.439341 130.836782 
L 307.574159 129.802655 
L 302.648692 129.110426 
L 297.686936 128.763466 
L 292.713064 128.763466 
L 287.751308 129.110426 
L 282.825841 129.802655 
L 277.960659 130.836782 
L 273.179466 132.207767 
L 268.505555 133.908931 
L 263.961697 135.931987 
L 259.570028 138.267079 
L 255.351945 140.90283 
L 251.327998 143.826398 
L 247.517791 147.023542 
L 243.939887 150.478684 
L 240.611716 154.174991 
L 237.549495 158.094456 
L 234.768141 162.217983 
L 232.281205 166.525483 
L 230.100802 170.99597 
L 228.237557 175.607664 
L 226.700546 180.338098 
L 225.497257 185.164225 
L 224.633554 190.062533 
L 224.113642 195.009158 
L 223.940057 199.98 
L 224.113642 204.950842 
L 224.633554 209.897467 
L 225.497257 214.795775 
L 226.700546 219.621902 
L 228.237557 224.352336 
L 230.100802 228.96403 
L 232.281205 233.434517 
L 234.768141 237.742017 
L 237.549495 241.865544 
L 240.611716 245.785009 
L 243.939887 249.481316 
L 247.517791 252.936458 
L 251.327998 256.133602 
L 255.351945 259.05717 
L 259.570028 261.692921 
L 263.961697 264.028013 
L 268.505555 266.051069 
L 273.179466 267.752233 
L 277.960659 269.123218 
L 282.825841 270.157345 
L 287.751308 270.849574 
L 292.713064 271.196534 
L 297.686936 271.196534 
L 302.648692 270.849574 
L 307.574159 270.157345 
L 312.439341 269.123218 
L 317.220534 267.752233 
L 321.894445 266.051069 
L 326.438303 264.028013 
L 330.829972 261.692921 
L 335.048055 259.05717 
L 339.072002 256.133602 
L 342.882209 252.936458 
L 346.460113 249.481316 
L 349.788284 245.785009 
L 352.850505 241.865544 
L 355.631859 237.742017 
L 358.118795 233.434517 
L 360.299198 228.96403 
L 362.162443 224.352336 
L 363.699454 219.621902 
L 364.902743 214.795775 
L 365.766446 209.897467 
L 366.286358 204.950842 
L 366.459943 199.98 
L 366.459943 199.98 
" style="fill:none;stroke:#ffffff;stroke-linecap:round;"/>
     </g>
     <g id="text_12">
      <!-- 0.20 -->
      <g style="fill:#262626;" transform="translate(361.035603 170.7225)scale(0.1 -0.1)">
       <use xlink:href="#ArialMT-48"/>
       <use x="55.615234" xlink:href="#ArialMT-46"/>
       <use x="83.398438" xlink:href="#ArialMT-50"/>
       <use x="139.013672" xlink:href="#ArialMT-48"/>
      </g>
     </g>
    </g>
    <g id="ytick_5">
     <g id="line2d_13">
      <path clip-path="url(#p6a2523c81b)" d="M 384.274929 199.98 
L 384.057947 193.766447 
L 383.408058 187.583166 
L 382.328428 181.460281 
L 380.824317 175.427622 
L 378.903054 169.51458 
L 376.573997 163.749962 
L 373.848494 158.161854 
L 370.739824 152.777479 
L 367.263131 147.62307 
L 363.435354 142.723739 
L 359.275142 138.103355 
L 354.802761 133.784427 
L 350.040002 129.787998 
L 345.010068 126.133537 
L 339.737465 122.838849 
L 334.247879 119.919984 
L 328.568056 117.391164 
L 322.725667 115.264708 
L 316.749176 113.550977 
L 310.667699 112.258319 
L 304.510865 111.393033 
L 298.30867 110.959333 
L 292.09133 110.959333 
L 285.889135 111.393033 
L 279.732301 112.258319 
L 273.650824 113.550977 
L 267.674333 115.264708 
L 261.831944 117.391164 
L 256.152121 119.919984 
L 250.662535 122.838849 
L 245.389932 126.133537 
L 240.359998 129.787998 
L 235.597239 133.784427 
L 231.124858 138.103355 
L 226.964646 142.723739 
L 223.136869 147.62307 
L 219.660176 152.777479 
L 216.551506 158.161854 
L 213.826003 163.749962 
L 211.496946 169.51458 
L 209.575683 175.427622 
L 208.071572 181.460281 
L 206.991942 187.583166 
L 206.342053 193.766447 
L 206.125071 199.98 
L 206.342053 206.193553 
L 206.991942 212.376834 
L 208.071572 218.499719 
L 209.575683 224.532378 
L 211.496946 230.44542 
L 213.826003 236.210038 
L 216.551506 241.798146 
L 219.660176 247.182521 
L 223.136869 252.33693 
L 226.964646 257.236261 
L 231.124858 261.856645 
L 235.597239 266.175573 
L 240.359998 270.172002 
L 245.389932 273.826463 
L 250.662535 277.121151 
L 256.152121 280.040016 
L 261.831944 282.568836 
L 267.674333 284.695292 
L 273.650824 286.409023 
L 279.732301 287.701681 
L 285.889135 288.566967 
L 292.09133 289.000667 
L 298.30867 289.000667 
L 304.510865 288.566967 
L 310.667699 287.701681 
L 316.749176 286.409023 
L 322.725667 284.695292 
L 328.568056 282.568836 
L 334.247879 280.040016 
L 339.737465 277.121151 
L 345.010068 273.826463 
L 350.040002 270.172002 
L 354.802761 266.175573 
L 359.275142 261.856645 
L 363.435354 257.236261 
L 367.263131 252.33693 
L 370.739824 247.182521 
L 373.848494 241.798146 
L 376.573997 236.210038 
L 378.903054 230.44542 
L 380.824317 224.532378 
L 382.328428 218.499719 
L 383.408058 212.376834 
L 384.057947 206.193553 
L 384.274929 199.98 
L 384.274929 199.98 
" style="fill:none;stroke:#ffffff;stroke-linecap:round;"/>
     </g>
     <g id="text_13">
      <!-- 0.25 -->
      <g style="fill:#262626;" transform="translate(377.494504 163.905)scale(0.1 -0.1)">
       <use xlink:href="#ArialMT-48"/>
       <use x="55.615234" xlink:href="#ArialMT-46"/>
       <use x="83.398438" xlink:href="#ArialMT-50"/>
       <use x="139.013672" xlink:href="#ArialMT-53"/>
      </g>
     </g>
    </g>
    <g id="ytick_6">
     <g id="line2d_14">
      <path clip-path="url(#p6a2523c81b)" d="M 402.089915 199.98 
L 402.024801 196.249596 
L 401.829537 192.523736 
L 401.504361 188.806961 
L 401.04967 185.103799 
L 400.466017 181.418761 
L 399.754114 177.756337 
L 398.914828 174.120989 
L 397.949181 170.517146 
L 396.85835 166.9492 
L 395.643664 163.421496 
L 394.306603 159.938333 
L 392.848796 156.503955 
L 391.272019 153.122545 
L 389.578193 149.798225 
L 387.769382 146.535043 
L 385.847789 143.336975 
L 383.815756 140.207918 
L 381.675758 137.151684 
L 379.430402 134.171997 
L 377.082425 131.272487 
L 374.634687 128.456686 
L 372.09017 125.728026 
L 369.451974 123.08983 
L 366.723314 120.545313 
L 363.907513 118.097575 
L 361.008003 115.749598 
L 358.028316 113.504242 
L 354.972082 111.364244 
L 351.843025 109.332211 
L 348.644957 107.410618 
L 345.381775 105.601807 
L 342.057455 103.907981 
L 338.676045 102.331204 
L 335.241667 100.873397 
L 331.758504 99.536336 
L 328.2308 98.32165 
L 324.662854 97.230819 
L 321.059011 96.265172 
L 317.423663 95.425886 
L 313.761239 94.713983 
L 310.076201 94.13033 
L 306.373039 93.675639 
L 302.656264 93.350463 
L 298.930404 93.155199 
L 295.2 93.090085 
L 291.469596 93.155199 
L 287.743736 93.350463 
L 284.026961 93.675639 
L 280.323799 94.13033 
L 276.638761 94.713983 
L 272.976337 95.425886 
L 269.340989 96.265172 
L 265.737146 97.230819 
L 262.1692 98.32165 
L 258.641496 99.536336 
L 255.158333 100.873397 
L 251.723955 102.331204 
L 248.342545 103.907981 
L 245.018225 105.601807 
L 241.755043 107.410618 
L 238.556975 109.332211 
L 235.427918 111.364244 
L 232.371684 113.504242 
L 229.391997 115.749598 
L 226.492487 118.097575 
L 223.676686 120.545313 
L 220.948026 123.08983 
L 218.30983 125.728026 
L 215.765313 128.456686 
L 213.317575 131.272487 
L 210.969598 134.171997 
L 208.724242 137.151684 
L 206.584244 140.207918 
L 204.552211 143.336975 
L 202.630618 146.535043 
L 200.821807 149.798225 
L 199.127981 153.122545 
L 197.551204 156.503955 
L 196.093397 159.938333 
L 194.756336 163.421496 
L 193.54165 166.9492 
L 192.450819 170.517146 
L 191.485172 174.120989 
L 190.645886 177.756337 
L 189.933983 181.418761 
L 189.35033 185.103799 
L 188.895639 188.806961 
L 188.570463 192.523736 
L 188.375199 196.249596 
L 188.310085 199.98 
L 188.375199 203.710404 
L 188.570463 207.436264 
L 188.895639 211.153039 
L 189.35033 214.856201 
L 189.933983 218.541239 
L 190.645886 222.203663 
L 191.485172 225.839011 
L 192.450819 229.442854 
L 193.54165 233.0108 
L 194.756336 236.538504 
L 196.093397 240.021667 
L 197.551204 243.456045 
L 199.127981 246.837455 
L 200.821807 250.161775 
L 202.630618 253.424957 
L 204.552211 256.623025 
L 206.584244 259.752082 
L 208.724242 262.808316 
L 210.969598 265.788003 
L 213.317575 268.687513 
L 215.765313 271.503314 
L 218.30983 274.231974 
L 220.948026 276.87017 
L 223.676686 279.414687 
L 226.492487 281.862425 
L 229.391997 284.210402 
L 232.371684 286.455758 
L 235.427918 288.595756 
L 238.556975 290.627789 
L 241.755043 292.549382 
L 245.018225 294.358193 
L 248.342545 296.052019 
L 251.723955 297.628796 
L 255.158333 299.086603 
L 258.641496 300.423664 
L 262.1692 301.63835 
L 265.737146 302.729181 
L 269.340989 303.694828 
L 272.976337 304.534114 
L 276.638761 305.246017 
L 280.323799 305.82967 
L 284.026961 306.284361 
L 287.743736 306.609537 
L 291.469596 306.804801 
L 295.2 306.869915 
L 298.930404 306.804801 
L 302.656264 306.609537 
L 306.373039 306.284361 
L 310.076201 305.82967 
L 313.761239 305.246017 
L 317.423663 304.534114 
L 321.059011 303.694828 
L 324.662854 302.729181 
L 328.2308 301.63835 
L 331.758504 300.423664 
L 335.241667 299.086603 
L 338.676045 297.628796 
L 342.057455 296.052019 
L 345.381775 294.358193 
L 348.644957 292.549382 
L 351.843025 290.627789 
L 354.972082 288.595756 
L 358.028316 286.455758 
L 361.008003 284.210402 
L 363.907513 281.862425 
L 366.723314 279.414687 
L 369.451974 276.87017 
L 372.09017 274.231974 
L 374.634687 271.503314 
L 377.082425 268.687513 
L 379.430402 265.788003 
L 381.675758 262.808316 
L 383.815756 259.752082 
L 385.847789 256.623025 
L 387.769382 253.424957 
L 389.578193 250.161775 
L 391.272019 246.837455 
L 392.848796 243.456045 
L 394.306603 240.021667 
L 395.643664 236.538504 
L 396.85835 233.0108 
L 397.949181 229.442854 
L 398.914828 225.839011 
L 399.754114 222.203663 
L 400.466017 218.541239 
L 401.04967 214.856201 
L 401.504361 211.153039 
L 401.829537 207.436264 
L 402.024801 203.710404 
L 402.089915 199.98 
L 402.089915 199.98 
" style="fill:none;stroke:#ffffff;stroke-linecap:round;"/>
     </g>
     <g id="text_14">
      <!-- 0.30 -->
      <g style="fill:#262626;" transform="translate(393.953405 157.0875)scale(0.1 -0.1)">
       <use xlink:href="#ArialMT-48"/>
       <use x="55.615234" xlink:href="#ArialMT-46"/>
       <use x="83.398438" xlink:href="#ArialMT-51"/>
       <use x="139.013672" xlink:href="#ArialMT-48"/>
      </g>
     </g>
    </g>
    <g id="ytick_7">
     <g id="line2d_15">
      <path clip-path="url(#p6a2523c81b)" d="M 419.904901 199.98 
L 419.828934 195.627862 
L 419.601126 191.281026 
L 419.221754 186.944788 
L 418.691281 182.624432 
L 418.010353 178.325221 
L 417.1798 174.052393 
L 416.200632 169.811154 
L 415.074044 165.606671 
L 413.801409 161.444066 
L 412.384275 157.328412 
L 410.824371 153.264722 
L 409.123596 149.257947 
L 407.284022 145.31297 
L 405.307892 141.434595 
L 403.197612 137.62755 
L 400.955754 133.896471 
L 398.585048 130.245904 
L 396.088384 126.680298 
L 393.468803 123.203997 
L 390.729496 119.821235 
L 387.873802 116.536134 
L 384.905198 113.352697 
L 381.827303 110.274802 
L 378.643866 107.306198 
L 375.358765 104.450504 
L 371.976003 101.711197 
L 368.499702 99.091616 
L 364.934096 96.594952 
L 361.283529 94.224246 
L 357.55245 91.982388 
L 353.745405 89.872108 
L 349.86703 87.895978 
L 345.922053 86.056404 
L 341.915278 84.355629 
L 337.851588 82.795725 
L 333.735934 81.378591 
L 329.573329 80.105956 
L 325.368846 78.979368 
L 321.127607 78.0002 
L 316.854779 77.169647 
L 312.555568 76.488719 
L 308.235212 75.958246 
L 303.898974 75.578874 
L 299.552138 75.351066 
L 295.2 75.275099 
L 290.847862 75.351066 
L 286.501026 75.578874 
L 282.164788 75.958246 
L 277.844432 76.488719 
L 273.545221 77.169647 
L 269.272393 78.0002 
L 265.031154 78.979368 
L 260.826671 80.105956 
L 256.664066 81.378591 
L 252.548412 82.795725 
L 248.484722 84.355629 
L 244.477947 86.056404 
L 240.53297 87.895978 
L 236.654595 89.872108 
L 232.84755 91.982388 
L 229.116471 94.224246 
L 225.465904 96.594952 
L 221.900298 99.091616 
L 218.423997 101.711197 
L 215.041235 104.450504 
L 211.756134 107.306198 
L 208.572697 110.274802 
L 205.494802 113.352697 
L 202.526198 116.536134 
L 199.670504 119.821235 
L 196.931197 123.203997 
L 194.311616 126.680298 
L 191.814952 130.245904 
L 189.444246 133.896471 
L 187.202388 137.62755 
L 185.092108 141.434595 
L 183.115978 145.31297 
L 181.276404 149.257947 
L 179.575629 153.264722 
L 178.015725 157.328412 
L 176.598591 161.444066 
L 175.325956 165.606671 
L 174.199368 169.811154 
L 173.2202 174.052393 
L 172.389647 178.325221 
L 171.708719 182.624432 
L 171.178246 186.944788 
L 170.798874 191.281026 
L 170.571066 195.627862 
L 170.495099 199.98 
L 170.571066 204.332138 
L 170.798874 208.678974 
L 171.178246 213.015212 
L 171.708719 217.335568 
L 172.389647 221.634779 
L 173.2202 225.907607 
L 174.199368 230.148846 
L 175.325956 234.353329 
L 176.598591 238.515934 
L 178.015725 242.631588 
L 179.575629 246.695278 
L 181.276404 250.702053 
L 183.115978 254.64703 
L 185.092108 258.525405 
L 187.202388 262.33245 
L 189.444246 266.063529 
L 191.814952 269.714096 
L 194.311616 273.279702 
L 196.931197 276.756003 
L 199.670504 280.138765 
L 202.526198 283.423866 
L 205.494802 286.607303 
L 208.572697 289.685198 
L 211.756134 292.653802 
L 215.041235 295.509496 
L 218.423997 298.248803 
L 221.900298 300.868384 
L 225.465904 303.365048 
L 229.116471 305.735754 
L 232.84755 307.977612 
L 236.654595 310.087892 
L 240.53297 312.064022 
L 244.477947 313.903596 
L 248.484722 315.604371 
L 252.548412 317.164275 
L 256.664066 318.581409 
L 260.826671 319.854044 
L 265.031154 320.980632 
L 269.272393 321.9598 
L 273.545221 322.790353 
L 277.844432 323.471281 
L 282.164788 324.001754 
L 286.501026 324.381126 
L 290.847862 324.608934 
L 295.2 324.684901 
L 299.552138 324.608934 
L 303.898974 324.381126 
L 308.235212 324.001754 
L 312.555568 323.471281 
L 316.854779 322.790353 
L 321.127607 321.9598 
L 325.368846 320.980632 
L 329.573329 319.854044 
L 333.735934 318.581409 
L 337.851588 317.164275 
L 341.915278 315.604371 
L 345.922053 313.903596 
L 349.86703 312.064022 
L 353.745405 310.087892 
L 357.55245 307.977612 
L 361.283529 305.735754 
L 364.934096 303.365048 
L 368.499702 300.868384 
L 371.976003 298.248803 
L 375.358765 295.509496 
L 378.643866 292.653802 
L 381.827303 289.685198 
L 384.905198 286.607303 
L 387.873802 283.423866 
L 390.729496 280.138765 
L 393.468803 276.756003 
L 396.088384 273.279702 
L 398.585048 269.714096 
L 400.955754 266.063529 
L 403.197612 262.33245 
L 405.307892 258.525405 
L 407.284022 254.64703 
L 409.123596 250.702053 
L 410.824371 246.695278 
L 412.384275 242.631588 
L 413.801409 238.515934 
L 415.074044 234.353329 
L 416.200632 230.148846 
L 417.1798 225.907607 
L 418.010353 221.634779 
L 418.691281 217.335568 
L 419.221754 213.015212 
L 419.601126 208.678974 
L 419.828934 204.332138 
L 419.904901 199.98 
L 419.904901 199.98 
" style="fill:none;stroke:#ffffff;stroke-linecap:round;"/>
     </g>
     <g id="text_15">
      <!-- 0.35 -->
      <g style="fill:#262626;" transform="translate(410.412305 150.270001)scale(0.1 -0.1)">
       <use xlink:href="#ArialMT-48"/>
       <use x="55.615234" xlink:href="#ArialMT-46"/>
       <use x="83.398438" xlink:href="#ArialMT-51"/>
       <use x="139.013672" xlink:href="#ArialMT-53"/>
      </g>
     </g>
    </g>
    <g id="ytick_8">
     <g id="line2d_16">
      <path clip-path="url(#p6a2523c81b)" d="M 437.719887 199.98 
L 437.633067 195.006128 
L 437.372715 190.038315 
L 436.939148 185.082615 
L 436.332893 180.145065 
L 435.554689 175.231681 
L 434.605485 170.348449 
L 433.486437 165.501319 
L 432.198908 160.696195 
L 430.744467 155.938933 
L 429.124886 151.235328 
L 427.342138 146.591111 
L 425.398395 142.01194 
L 423.296026 137.503394 
L 421.037591 133.070966 
L 418.625842 128.720057 
L 416.063719 124.455967 
L 413.354341 120.283891 
L 410.50101 116.208912 
L 407.507203 112.235996 
L 404.376567 108.369983 
L 401.112916 104.615582 
L 397.720227 100.977368 
L 394.202632 97.459773 
L 390.564418 94.067084 
L 386.810017 90.803433 
L 382.944004 87.672797 
L 378.971088 84.67899 
L 374.896109 81.825659 
L 370.724033 79.116281 
L 366.459943 76.554158 
L 362.109034 74.142409 
L 357.676606 71.883974 
L 353.16806 69.781605 
L 348.588889 67.837862 
L 343.944672 66.055114 
L 339.241067 64.435533 
L 334.483805 62.981092 
L 329.678681 61.693563 
L 324.831551 60.574515 
L 319.948319 59.625311 
L 315.034935 58.847107 
L 310.097385 58.240852 
L 305.141685 57.807285 
L 300.173872 57.546933 
L 295.2 57.460113 
L 290.226128 57.546933 
L 285.258315 57.807285 
L 280.302615 58.240852 
L 275.365065 58.847107 
L 270.451681 59.625311 
L 265.568449 60.574515 
L 260.721319 61.693563 
L 255.916195 62.981092 
L 251.158933 64.435533 
L 246.455328 66.055114 
L 241.811111 67.837862 
L 237.23194 69.781605 
L 232.723394 71.883974 
L 228.290966 74.142409 
L 223.940057 76.554158 
L 219.675967 79.116281 
L 215.503891 81.825659 
L 211.428912 84.67899 
L 207.455996 87.672797 
L 203.589983 90.803433 
L 199.835582 94.067084 
L 196.197368 97.459773 
L 192.679773 100.977368 
L 189.287084 104.615582 
L 186.023433 108.369983 
L 182.892797 112.235996 
L 179.89899 116.208912 
L 177.045659 120.283891 
L 174.336281 124.455967 
L 171.774158 128.720057 
L 169.362409 133.070966 
L 167.103974 137.503394 
L 165.001605 142.01194 
L 163.057862 146.591111 
L 161.275114 151.235328 
L 159.655533 155.938933 
L 158.201092 160.696195 
L 156.913563 165.501319 
L 155.794515 170.348449 
L 154.845311 175.231681 
L 154.067107 180.145065 
L 153.460852 185.082615 
L 153.027285 190.038315 
L 152.766933 195.006128 
L 152.680113 199.98 
L 152.766933 204.953872 
L 153.027285 209.921685 
L 153.460852 214.877385 
L 154.067107 219.814935 
L 154.845311 224.728319 
L 155.794515 229.611551 
L 156.913563 234.458681 
L 158.201092 239.263805 
L 159.655533 244.021067 
L 161.275114 248.724672 
L 163.057862 253.368889 
L 165.001605 257.94806 
L 167.103974 262.456606 
L 169.362409 266.889034 
L 171.774158 271.239943 
L 174.336281 275.504033 
L 177.045659 279.676109 
L 179.89899 283.751088 
L 182.892797 287.724004 
L 186.023433 291.590017 
L 189.287084 295.344418 
L 192.679773 298.982632 
L 196.197368 302.500227 
L 199.835582 305.892916 
L 203.589983 309.156567 
L 207.455996 312.287203 
L 211.428912 315.28101 
L 215.503891 318.134341 
L 219.675967 320.843719 
L 223.940057 323.405842 
L 228.290966 325.817591 
L 232.723394 328.076026 
L 237.23194 330.178395 
L 241.811111 332.122138 
L 246.455328 333.904886 
L 251.158933 335.524467 
L 255.916195 336.978908 
L 260.721319 338.266437 
L 265.568449 339.385485 
L 270.451681 340.334689 
L 275.365065 341.112893 
L 280.302615 341.719148 
L 285.258315 342.152715 
L 290.226128 342.413067 
L 295.2 342.499887 
L 300.173872 342.413067 
L 305.141685 342.152715 
L 310.097385 341.719148 
L 315.034935 341.112893 
L 319.948319 340.334689 
L 324.831551 339.385485 
L 329.678681 338.266437 
L 334.483805 336.978908 
L 339.241067 335.524467 
L 343.944672 333.904886 
L 348.588889 332.122138 
L 353.16806 330.178395 
L 357.676606 328.076026 
L 362.109034 325.817591 
L 366.459943 323.405842 
L 370.724033 320.843719 
L 374.896109 318.134341 
L 378.971088 315.28101 
L 382.944004 312.287203 
L 386.810017 309.156567 
L 390.564418 305.892916 
L 394.202632 302.500227 
L 397.720227 298.982632 
L 401.112916 295.344418 
L 404.376567 291.590017 
L 407.507203 287.724004 
L 410.50101 283.751088 
L 413.354341 279.676109 
L 416.063719 275.504033 
L 418.625842 271.239943 
L 421.037591 266.889034 
L 423.296026 262.456606 
L 425.398395 257.94806 
L 427.342138 253.368889 
L 429.124886 248.724672 
L 430.744467 244.021067 
L 432.198908 239.263805 
L 433.486437 234.458681 
L 434.605485 229.611551 
L 435.554689 224.728319 
L 436.332893 219.814935 
L 436.939148 214.877385 
L 437.372715 209.921685 
L 437.633067 204.953872 
L 437.719887 199.98 
L 437.719887 199.98 
" style="fill:none;stroke:#ffffff;stroke-linecap:round;"/>
     </g>
     <g id="text_16">
      <!-- 0.40 -->
      <g style="fill:#262626;" transform="translate(426.871206 143.452501)scale(0.1 -0.1)">
       <use xlink:href="#ArialMT-48"/>
       <use x="55.615234" xlink:href="#ArialMT-46"/>
       <use x="83.398438" xlink:href="#ArialMT-52"/>
       <use x="139.013672" xlink:href="#ArialMT-48"/>
      </g>
     </g>
    </g>
   </g>
   <g id="PathCollection_1">
    <defs>
     <path d="M 0 3.5 
C 0.928211 3.5 1.81853 3.131218 2.474874 2.474874 
C 3.131218 1.81853 3.5 0.928211 3.5 0 
C 3.5 -0.928211 3.131218 -1.81853 2.474874 -2.474874 
C 1.81853 -3.131218 0.928211 -3.5 0 -3.5 
C -0.928211 -3.5 -1.81853 -3.131218 -2.474874 -2.474874 
C -3.131218 -1.81853 -3.5 -0.928211 -3.5 0 
C -3.5 0.928211 -3.131218 1.81853 -2.474874 2.474874 
C -1.81853 3.131218 -0.928211 3.5 0 3.5 
z
" id="me58b075287" style="stroke:#4c72b0;stroke-width:0.3;"/>
    </defs>
    <g clip-path="url(#p6a2523c81b)">
     <use style="fill:#4c72b0;stroke:#4c72b0;stroke-width:0.3;" x="256.977087" xlink:href="#me58b075287" y="214.816556"/>
     <use style="fill:#4c72b0;stroke:#4c72b0;stroke-width:0.3;" x="247.819127" xlink:href="#me58b075287" y="222.242271"/>
     <use style="fill:#4c72b0;stroke:#4c72b0;stroke-width:0.3;" x="207.642277" xlink:href="#me58b075287" y="254.5261"/>
     <use style="fill:#4c72b0;stroke:#4c72b0;stroke-width:0.3;" x="249.501907" xlink:href="#me58b075287" y="271.451284"/>
     <use style="fill:#4c72b0;stroke:#4c72b0;stroke-width:0.3;" x="271.630941" xlink:href="#me58b075287" y="247.674993"/>
     <use style="fill:#4c72b0;stroke:#4c72b0;stroke-width:0.3;" x="279.788373" xlink:href="#me58b075287" y="231.044752"/>
     <use style="fill:#4c72b0;stroke:#4c72b0;stroke-width:0.3;" x="302.082113" xlink:href="#me58b075287" y="230.055475"/>
     <use style="fill:#4c72b0;stroke:#4c72b0;stroke-width:0.3;" x="320.402656" xlink:href="#me58b075287" y="218.515516"/>
     <use style="fill:#4c72b0;stroke:#4c72b0;stroke-width:0.3;" x="227.797825" xlink:href="#me58b075287" y="230.473389"/>
     <use style="fill:#4c72b0;stroke:#4c72b0;stroke-width:0.3;" x="198.652794" xlink:href="#me58b075287" y="239.656648"/>
     <use style="fill:#4c72b0;stroke:#4c72b0;stroke-width:0.3;" x="249.027803" xlink:href="#me58b075287" y="222.977451"/>
     <use style="fill:#4c72b0;stroke:#4c72b0;stroke-width:0.3;" x="256.270924" xlink:href="#me58b075287" y="216.683421"/>
     <use style="fill:#4c72b0;stroke:#4c72b0;stroke-width:0.3;" x="263.048171" xlink:href="#me58b075287" y="212.168709"/>
     <use style="fill:#4c72b0;stroke:#4c72b0;stroke-width:0.3;" x="257.050083" xlink:href="#me58b075287" y="193.265594"/>
     <use style="fill:#4c72b0;stroke:#4c72b0;stroke-width:0.3;" x="247.337737" xlink:href="#me58b075287" y="195.771254"/>
     <use style="fill:#4c72b0;stroke:#4c72b0;stroke-width:0.3;" x="196.220595" xlink:href="#me58b075287" y="226.704976"/>
     <use style="fill:#4c72b0;stroke:#4c72b0;stroke-width:0.3;" x="244.498248" xlink:href="#me58b075287" y="223.268318"/>
     <use style="fill:#4c72b0;stroke:#4c72b0;stroke-width:0.3;" x="269.723546" xlink:href="#me58b075287" y="214.786199"/>
     <use style="fill:#4c72b0;stroke:#4c72b0;stroke-width:0.3;" x="281.850332" xlink:href="#me58b075287" y="201.573266"/>
     <use style="fill:#4c72b0;stroke:#4c72b0;stroke-width:0.3;" x="272.01207" xlink:href="#me58b075287" y="196.496458"/>
     <use style="fill:#4c72b0;stroke:#4c72b0;stroke-width:0.3;" x="310.330698" xlink:href="#me58b075287" y="187.57433"/>
     <use style="fill:#4c72b0;stroke:#4c72b0;stroke-width:0.3;" x="257.437858" xlink:href="#me58b075287" y="180.739471"/>
     <use style="fill:#4c72b0;stroke:#4c72b0;stroke-width:0.3;" x="277.932768" xlink:href="#me58b075287" y="194.132155"/>
     <use style="fill:#4c72b0;stroke:#4c72b0;stroke-width:0.3;" x="310.77567" xlink:href="#me58b075287" y="200.824585"/>
    </g>
   </g>
   <g id="PathCollection_2">
    <defs>
     <path d="M 0 3.5 
C 0.928211 3.5 1.81853 3.131218 2.474874 2.474874 
C 3.131218 1.81853 3.5 0.928211 3.5 0 
C 3.5 -0.928211 3.131218 -1.81853 2.474874 -2.474874 
C 1.81853 -3.131218 0.928211 -3.5 0 -3.5 
C -0.928211 -3.5 -1.81853 -3.131218 -2.474874 -2.474874 
C -3.131218 -1.81853 -3.5 -0.928211 -3.5 0 
C -3.5 0.928211 -3.131218 1.81853 -2.474874 2.474874 
C -1.81853 3.131218 -0.928211 3.5 0 3.5 
z
" id="m4b0370b910" style="stroke:#55a868;stroke-width:0.3;"/>
    </defs>
    <g clip-path="url(#p6a2523c81b)">
     <use style="fill:#55a868;stroke:#55a868;stroke-width:0.3;" x="284.749782" xlink:href="#m4b0370b910" y="210.005022"/>
     <use style="fill:#55a868;stroke:#55a868;stroke-width:0.3;" x="212.939015" xlink:href="#m4b0370b910" y="210.017997"/>
     <use style="fill:#55a868;stroke:#55a868;stroke-width:0.3;" x="296.793064" xlink:href="#m4b0370b910" y="216.475158"/>
     <use style="fill:#55a868;stroke:#55a868;stroke-width:0.3;" x="289.947499" xlink:href="#m4b0370b910" y="222.47657"/>
     <use style="fill:#55a868;stroke:#55a868;stroke-width:0.3;" x="300.69834" xlink:href="#m4b0370b910" y="225.415066"/>
     <use style="fill:#55a868;stroke:#55a868;stroke-width:0.3;" x="373.740587" xlink:href="#m4b0370b910" y="188.172359"/>
     <use style="fill:#55a868;stroke:#55a868;stroke-width:0.3;" x="292.141399" xlink:href="#m4b0370b910" y="179.935293"/>
     <use style="fill:#55a868;stroke:#55a868;stroke-width:0.3;" x="297.791572" xlink:href="#m4b0370b910" y="189.16878"/>
     <use style="fill:#55a868;stroke:#55a868;stroke-width:0.3;" x="263.292681" xlink:href="#m4b0370b910" y="196.746543"/>
     <use style="fill:#55a868;stroke:#55a868;stroke-width:0.3;" x="254.622014" xlink:href="#m4b0370b910" y="209.785536"/>
     <use style="fill:#55a868;stroke:#55a868;stroke-width:0.3;" x="269.866169" xlink:href="#m4b0370b910" y="213.423846"/>
     <use style="fill:#55a868;stroke:#55a868;stroke-width:0.3;" x="322.928079" xlink:href="#m4b0370b910" y="198.020422"/>
     <use style="fill:#55a868;stroke:#55a868;stroke-width:0.3;" x="237.625847" xlink:href="#m4b0370b910" y="191.617803"/>
     <use style="fill:#55a868;stroke:#55a868;stroke-width:0.3;" x="270.923317" xlink:href="#m4b0370b910" y="200.607169"/>
     <use style="fill:#55a868;stroke:#55a868;stroke-width:0.3;" x="261.587557" xlink:href="#m4b0370b910" y="209.673181"/>
     <use style="fill:#55a868;stroke:#55a868;stroke-width:0.3;" x="339.978153" xlink:href="#m4b0370b910" y="197.909791"/>
     <use style="fill:#55a868;stroke:#55a868;stroke-width:0.3;" x="253.346572" xlink:href="#m4b0370b910" y="209.357858"/>
     <use style="fill:#55a868;stroke:#55a868;stroke-width:0.3;" x="260.377407" xlink:href="#m4b0370b910" y="215.159308"/>
     <use style="fill:#55a868;stroke:#55a868;stroke-width:0.3;" x="266.448723" xlink:href="#m4b0370b910" y="227.704644"/>
     <use style="fill:#55a868;stroke:#55a868;stroke-width:0.3;" x="256.039678" xlink:href="#m4b0370b910" y="228.85108"/>
     <use style="fill:#55a868;stroke:#55a868;stroke-width:0.3;" x="306.742451" xlink:href="#m4b0370b910" y="205.937053"/>
     <use style="fill:#55a868;stroke:#55a868;stroke-width:0.3;" x="271.320948" xlink:href="#m4b0370b910" y="196.287568"/>
     <use style="fill:#55a868;stroke:#55a868;stroke-width:0.3;" x="320.770156" xlink:href="#m4b0370b910" y="180.740383"/>
     <use style="fill:#55a868;stroke:#55a868;stroke-width:0.3;" x="247.469431" xlink:href="#m4b0370b910" y="183.801787"/>
    </g>
   </g>
   <g id="PathCollection_3">
    <defs>
     <path d="M 0 3.5 
C 0.928211 3.5 1.81853 3.131218 2.474874 2.474874 
C 3.131218 1.81853 3.5 0.928211 3.5 0 
C 3.5 -0.928211 3.131218 -1.81853 2.474874 -2.474874 
C 1.81853 -3.131218 0.928211 -3.5 0 -3.5 
C -0.928211 -3.5 -1.81853 -3.131218 -2.474874 -2.474874 
C -3.131218 -1.81853 -3.5 -0.928211 -3.5 0 
C -3.5 0.928211 -3.131218 1.81853 -2.474874 2.474874 
C -1.81853 3.131218 -0.928211 3.5 0 3.5 
z
" id="m2353946fe9" style="stroke:#c44e52;stroke-width:0.3;"/>
    </defs>
    <g clip-path="url(#p6a2523c81b)">
     <use style="fill:#c44e52;stroke:#c44e52;stroke-width:0.3;" x="266.039675" xlink:href="#m2353946fe9" y="196.312045"/>
     <use style="fill:#c44e52;stroke:#c44e52;stroke-width:0.3;" x="357.826694" xlink:href="#m2353946fe9" y="183.033709"/>
     <use style="fill:#c44e52;stroke:#c44e52;stroke-width:0.3;" x="394.809963" xlink:href="#m2353946fe9" y="167.91361"/>
     <use style="fill:#c44e52;stroke:#c44e52;stroke-width:0.3;" x="393.372777" xlink:href="#m2353946fe9" y="159.289102"/>
     <use style="fill:#c44e52;stroke:#c44e52;stroke-width:0.3;" x="182.282706" xlink:href="#m2353946fe9" y="164.264084"/>
     <use style="fill:#c44e52;stroke:#c44e52;stroke-width:0.3;" x="287.699947" xlink:href="#m2353946fe9" y="174.407428"/>
     <use style="fill:#c44e52;stroke:#c44e52;stroke-width:0.3;" x="328.082853" xlink:href="#m2353946fe9" y="185.873485"/>
     <use style="fill:#c44e52;stroke:#c44e52;stroke-width:0.3;" x="314.885431" xlink:href="#m2353946fe9" y="185.5124"/>
     <use style="fill:#c44e52;stroke:#c44e52;stroke-width:0.3;" x="418.34409" xlink:href="#m2353946fe9" y="186.216536"/>
     <use style="fill:#c44e52;stroke:#c44e52;stroke-width:0.3;" x="385.612127" xlink:href="#m2353946fe9" y="182.601515"/>
     <use style="fill:#c44e52;stroke:#c44e52;stroke-width:0.3;" x="323.520954" xlink:href="#m2353946fe9" y="178.584511"/>
     <use style="fill:#c44e52;stroke:#c44e52;stroke-width:0.3;" x="285.634284" xlink:href="#m2353946fe9" y="187.112336"/>
     <use style="fill:#c44e52;stroke:#c44e52;stroke-width:0.3;" x="352.676598" xlink:href="#m2353946fe9" y="184.696625"/>
     <use style="fill:#c44e52;stroke:#c44e52;stroke-width:0.3;" x="342.740507" xlink:href="#m2353946fe9" y="178.670545"/>
     <use style="fill:#c44e52;stroke:#c44e52;stroke-width:0.3;" x="347.454243" xlink:href="#m2353946fe9" y="185.929651"/>
     <use style="fill:#c44e52;stroke:#c44e52;stroke-width:0.3;" x="302.314738" xlink:href="#m2353946fe9" y="202.999611"/>
     <use style="fill:#c44e52;stroke:#c44e52;stroke-width:0.3;" x="386.103385" xlink:href="#m2353946fe9" y="207.646698"/>
     <use style="fill:#c44e52;stroke:#c44e52;stroke-width:0.3;" x="371.582676" xlink:href="#m2353946fe9" y="195.183656"/>
     <use style="fill:#c44e52;stroke:#c44e52;stroke-width:0.3;" x="404.457533" xlink:href="#m2353946fe9" y="187.59335"/>
     <use style="fill:#c44e52;stroke:#c44e52;stroke-width:0.3;" x="438.582287" xlink:href="#m2353946fe9" y="177.076731"/>
     <use style="fill:#c44e52;stroke:#c44e52;stroke-width:0.3;" x="375.704918" xlink:href="#m2353946fe9" y="176.380698"/>
     <use style="fill:#c44e52;stroke:#c44e52;stroke-width:0.3;" x="370.613546" xlink:href="#m2353946fe9" y="170.380828"/>
     <use style="fill:#c44e52;stroke:#c44e52;stroke-width:0.3;" x="321.650939" xlink:href="#m2353946fe9" y="166.994396"/>
     <use style="fill:#c44e52;stroke:#c44e52;stroke-width:0.3;" x="388.81078" xlink:href="#m2353946fe9" y="180.598035"/>
    </g>
   </g>
   <g id="line2d_17">
    <path clip-path="url(#p6a2523c81b)" d="M 295.2 199.98 
L 430.392723 147.008615 
" style="fill:none;stroke:#ff0000;stroke-dasharray:7.4,3.2;stroke-dashoffset:0;stroke-width:2;"/>
   </g>
   <g id="patch_3">
    <path d="M 447.66 199.98 
C 447.66 179.959136 443.716326 160.13295 436.054674 141.636084 
C 428.393021 123.139218 417.162388 106.331389 403.0055 92.1745 
C 388.848611 78.017612 372.040782 66.786979 353.543916 59.125326 
C 335.04705 51.463674 315.220864 47.52 295.2 47.52 
C 275.179136 47.52 255.35295 51.463674 236.856084 59.125326 
C 218.359218 66.786979 201.551389 78.017612 187.3945 92.1745 
C 173.237612 106.331389 162.006979 123.139218 154.345326 141.636084 
C 146.683674 160.13295 142.74 179.959136 142.74 199.98 
C 142.74 220.000864 146.683674 239.82705 154.345326 258.323916 
C 162.006979 276.820782 173.237612 293.628611 187.3945 307.7855 
C 201.551389 321.942388 218.359218 333.173021 236.856084 340.834674 
C 255.35295 348.496326 275.179136 352.44 295.2 352.44 
C 315.220864 352.44 335.04705 348.496326 353.543916 340.834674 
C 372.040782 333.173021 388.848611 321.942388 403.0055 307.7855 
C 417.162388 293.628611 428.393021 276.820782 436.054674 258.323916 
C 443.716326 239.82705 447.66 220.000864 447.66 199.98 
" style="fill:none;"/>
   </g>
   <g id="text_17">
    <!-- Distribution of projected eye movement velocity on the screen - NewM1_1_12 -->
    <defs>
     <path d="M 7.71875 0 
L 7.71875 71.578125 
L 32.375 71.578125 
Q 40.71875 71.578125 45.125 70.5625 
Q 51.265625 69.140625 55.609375 65.4375 
Q 61.28125 60.640625 64.078125 53.1875 
Q 66.890625 45.75 66.890625 36.1875 
Q 66.890625 28.03125 64.984375 21.734375 
Q 63.09375 15.4375 60.109375 11.296875 
Q 57.125 7.171875 53.578125 4.796875 
Q 50.046875 2.4375 45.046875 1.21875 
Q 40.046875 0 33.546875 0 
z
M 17.1875 8.453125 
L 32.46875 8.453125 
Q 39.546875 8.453125 43.578125 9.765625 
Q 47.609375 11.078125 50 13.484375 
Q 53.375 16.84375 55.25 22.53125 
Q 57.125 28.21875 57.125 36.328125 
Q 57.125 47.5625 53.4375 53.59375 
Q 49.75 59.625 44.484375 61.671875 
Q 40.671875 63.140625 32.234375 63.140625 
L 17.1875 63.140625 
z
" id="ArialMT-68"/>
     <path d="M 6.640625 61.46875 
L 6.640625 71.578125 
L 15.4375 71.578125 
L 15.4375 61.46875 
z
M 6.640625 0 
L 6.640625 51.859375 
L 15.4375 51.859375 
L 15.4375 0 
z
" id="ArialMT-105"/>
     <path d="M 3.078125 15.484375 
L 11.765625 16.84375 
Q 12.5 11.625 15.84375 8.84375 
Q 19.1875 6.0625 25.203125 6.0625 
Q 31.25 6.0625 34.171875 8.515625 
Q 37.109375 10.984375 37.109375 14.3125 
Q 37.109375 17.28125 34.515625 19 
Q 32.71875 20.171875 25.53125 21.96875 
Q 15.875 24.421875 12.140625 26.203125 
Q 8.40625 27.984375 6.46875 31.125 
Q 4.546875 34.28125 4.546875 38.09375 
Q 4.546875 41.546875 6.125 44.5 
Q 7.71875 47.46875 10.453125 49.421875 
Q 12.5 50.921875 16.03125 51.96875 
Q 19.578125 53.03125 23.640625 53.03125 
Q 29.734375 53.03125 34.34375 51.265625 
Q 38.96875 49.515625 41.15625 46.5 
Q 43.359375 43.5 44.1875 38.484375 
L 35.59375 37.3125 
Q 35.015625 41.3125 32.203125 43.546875 
Q 29.390625 45.796875 24.265625 45.796875 
Q 18.21875 45.796875 15.625 43.796875 
Q 13.03125 41.796875 13.03125 39.109375 
Q 13.03125 37.40625 14.109375 36.03125 
Q 15.1875 34.625 17.484375 33.6875 
Q 18.796875 33.203125 25.25 31.453125 
Q 34.578125 28.953125 38.25 27.359375 
Q 41.9375 25.78125 44.03125 22.75 
Q 46.140625 19.734375 46.140625 15.234375 
Q 46.140625 10.84375 43.578125 6.953125 
Q 41.015625 3.078125 36.171875 0.953125 
Q 31.34375 -1.171875 25.25 -1.171875 
Q 15.140625 -1.171875 9.84375 3.03125 
Q 4.546875 7.234375 3.078125 15.484375 
z
" id="ArialMT-115"/>
     <path d="M 25.78125 7.859375 
L 27.046875 0.09375 
Q 23.34375 -0.6875 20.40625 -0.6875 
Q 15.625 -0.6875 12.984375 0.828125 
Q 10.359375 2.34375 9.28125 4.8125 
Q 8.203125 7.28125 8.203125 15.1875 
L 8.203125 45.015625 
L 1.765625 45.015625 
L 1.765625 51.859375 
L 8.203125 51.859375 
L 8.203125 64.703125 
L 16.9375 69.96875 
L 16.9375 51.859375 
L 25.78125 51.859375 
L 25.78125 45.015625 
L 16.9375 45.015625 
L 16.9375 14.703125 
Q 16.9375 10.9375 17.40625 9.859375 
Q 17.875 8.796875 18.921875 8.15625 
Q 19.96875 7.515625 21.921875 7.515625 
Q 23.390625 7.515625 25.78125 7.859375 
z
" id="ArialMT-116"/>
     <path d="M 6.5 0 
L 6.5 51.859375 
L 14.40625 51.859375 
L 14.40625 44 
Q 17.4375 49.515625 20 51.265625 
Q 22.5625 53.03125 25.640625 53.03125 
Q 30.078125 53.03125 34.671875 50.203125 
L 31.640625 42.046875 
Q 28.421875 43.953125 25.203125 43.953125 
Q 22.3125 43.953125 20.015625 42.21875 
Q 17.71875 40.484375 16.75 37.40625 
Q 15.28125 32.71875 15.28125 27.15625 
L 15.28125 0 
z
" id="ArialMT-114"/>
     <path d="M 14.703125 0 
L 6.546875 0 
L 6.546875 71.578125 
L 15.328125 71.578125 
L 15.328125 46.046875 
Q 20.90625 53.03125 29.546875 53.03125 
Q 34.328125 53.03125 38.59375 51.09375 
Q 42.875 49.171875 45.625 45.671875 
Q 48.390625 42.1875 49.953125 37.25 
Q 51.515625 32.328125 51.515625 26.703125 
Q 51.515625 13.375 44.921875 6.09375 
Q 38.328125 -1.171875 29.109375 -1.171875 
Q 19.921875 -1.171875 14.703125 6.5 
z
M 14.59375 26.3125 
Q 14.59375 17 17.140625 12.84375 
Q 21.296875 6.0625 28.375 6.0625 
Q 34.125 6.0625 38.328125 11.0625 
Q 42.53125 16.0625 42.53125 25.984375 
Q 42.53125 36.140625 38.5 40.96875 
Q 34.46875 45.796875 28.765625 45.796875 
Q 23 45.796875 18.796875 40.796875 
Q 14.59375 35.796875 14.59375 26.3125 
z
" id="ArialMT-98"/>
     <path d="M 40.578125 0 
L 40.578125 7.625 
Q 34.515625 -1.171875 24.125 -1.171875 
Q 19.53125 -1.171875 15.546875 0.578125 
Q 11.578125 2.34375 9.640625 5 
Q 7.71875 7.671875 6.9375 11.53125 
Q 6.390625 14.109375 6.390625 19.734375 
L 6.390625 51.859375 
L 15.1875 51.859375 
L 15.1875 23.09375 
Q 15.1875 16.21875 15.71875 13.8125 
Q 16.546875 10.359375 19.234375 8.375 
Q 21.921875 6.390625 25.875 6.390625 
Q 29.828125 6.390625 33.296875 8.421875 
Q 36.765625 10.453125 38.203125 13.9375 
Q 39.65625 17.4375 39.65625 24.078125 
L 39.65625 51.859375 
L 48.4375 51.859375 
L 48.4375 0 
z
" id="ArialMT-117"/>
     <path d="M 3.328125 25.921875 
Q 3.328125 40.328125 11.328125 47.265625 
Q 18.015625 53.03125 27.640625 53.03125 
Q 38.328125 53.03125 45.109375 46.015625 
Q 51.90625 39.015625 51.90625 26.65625 
Q 51.90625 16.65625 48.90625 10.90625 
Q 45.90625 5.171875 40.15625 2 
Q 34.421875 -1.171875 27.640625 -1.171875 
Q 16.75 -1.171875 10.03125 5.8125 
Q 3.328125 12.796875 3.328125 25.921875 
z
M 12.359375 25.921875 
Q 12.359375 15.96875 16.703125 11.015625 
Q 21.046875 6.0625 27.640625 6.0625 
Q 34.1875 6.0625 38.53125 11.03125 
Q 42.875 16.015625 42.875 26.21875 
Q 42.875 35.84375 38.5 40.796875 
Q 34.125 45.75 27.640625 45.75 
Q 21.046875 45.75 16.703125 40.8125 
Q 12.359375 35.890625 12.359375 25.921875 
z
" id="ArialMT-111"/>
     <path d="M 6.59375 0 
L 6.59375 51.859375 
L 14.5 51.859375 
L 14.5 44.484375 
Q 20.21875 53.03125 31 53.03125 
Q 35.6875 53.03125 39.625 51.34375 
Q 43.5625 49.65625 45.515625 46.921875 
Q 47.46875 44.1875 48.25 40.4375 
Q 48.734375 37.984375 48.734375 31.890625 
L 48.734375 0 
L 39.9375 0 
L 39.9375 31.546875 
Q 39.9375 36.921875 38.90625 39.578125 
Q 37.890625 42.234375 35.28125 43.8125 
Q 32.671875 45.40625 29.15625 45.40625 
Q 23.53125 45.40625 19.453125 41.84375 
Q 15.375 38.28125 15.375 28.328125 
L 15.375 0 
z
" id="ArialMT-110"/>
     <path id="ArialMT-32"/>
     <path d="M 8.6875 0 
L 8.6875 45.015625 
L 0.921875 45.015625 
L 0.921875 51.859375 
L 8.6875 51.859375 
L 8.6875 57.375 
Q 8.6875 62.59375 9.625 65.140625 
Q 10.890625 68.5625 14.078125 70.671875 
Q 17.28125 72.796875 23.046875 72.796875 
Q 26.765625 72.796875 31.25 71.921875 
L 29.9375 64.265625 
Q 27.203125 64.75 24.75 64.75 
Q 20.75 64.75 19.09375 63.03125 
Q 17.4375 61.328125 17.4375 56.640625 
L 17.4375 51.859375 
L 27.546875 51.859375 
L 27.546875 45.015625 
L 17.4375 45.015625 
L 17.4375 0 
z
" id="ArialMT-102"/>
     <path d="M 6.59375 -19.875 
L 6.59375 51.859375 
L 14.59375 51.859375 
L 14.59375 45.125 
Q 17.4375 49.078125 21 51.046875 
Q 24.5625 53.03125 29.640625 53.03125 
Q 36.28125 53.03125 41.359375 49.609375 
Q 46.4375 46.1875 49.015625 39.953125 
Q 51.609375 33.734375 51.609375 26.3125 
Q 51.609375 18.359375 48.75 11.984375 
Q 45.90625 5.609375 40.453125 2.21875 
Q 35.015625 -1.171875 29 -1.171875 
Q 24.609375 -1.171875 21.109375 0.6875 
Q 17.625 2.546875 15.375 5.375 
L 15.375 -19.875 
z
M 14.546875 25.640625 
Q 14.546875 15.625 18.59375 10.84375 
Q 22.65625 6.0625 28.421875 6.0625 
Q 34.28125 6.0625 38.453125 11.015625 
Q 42.625 15.96875 42.625 26.375 
Q 42.625 36.28125 38.546875 41.203125 
Q 34.46875 46.140625 28.8125 46.140625 
Q 23.1875 46.140625 18.859375 40.890625 
Q 14.546875 35.640625 14.546875 25.640625 
z
" id="ArialMT-112"/>
     <path d="M 6.546875 61.375 
L 6.546875 71.578125 
L 15.328125 71.578125 
L 15.328125 61.375 
z
M -4.59375 -20.125 
L -2.9375 -12.640625 
Q -0.296875 -13.328125 1.21875 -13.328125 
Q 3.90625 -13.328125 5.21875 -11.546875 
Q 6.546875 -9.765625 6.546875 -2.640625 
L 6.546875 51.859375 
L 15.328125 51.859375 
L 15.328125 -2.828125 
Q 15.328125 -12.40625 12.84375 -16.15625 
Q 9.671875 -21.046875 2.296875 -21.046875 
Q -1.265625 -21.046875 -4.59375 -20.125 
z
" id="ArialMT-106"/>
     <path d="M 42.09375 16.703125 
L 51.171875 15.578125 
Q 49.03125 7.625 43.21875 3.21875 
Q 37.40625 -1.171875 28.375 -1.171875 
Q 17 -1.171875 10.328125 5.828125 
Q 3.65625 12.84375 3.65625 25.484375 
Q 3.65625 38.578125 10.390625 45.796875 
Q 17.140625 53.03125 27.875 53.03125 
Q 38.28125 53.03125 44.875 45.953125 
Q 51.46875 38.875 51.46875 26.03125 
Q 51.46875 25.25 51.421875 23.6875 
L 12.75 23.6875 
Q 13.234375 15.140625 17.578125 10.59375 
Q 21.921875 6.0625 28.421875 6.0625 
Q 33.25 6.0625 36.671875 8.59375 
Q 40.09375 11.140625 42.09375 16.703125 
z
M 13.234375 30.90625 
L 42.1875 30.90625 
Q 41.609375 37.453125 38.875 40.71875 
Q 34.671875 45.796875 27.984375 45.796875 
Q 21.921875 45.796875 17.796875 41.75 
Q 13.671875 37.703125 13.234375 30.90625 
z
" id="ArialMT-101"/>
     <path d="M 40.4375 19 
L 49.078125 17.875 
Q 47.65625 8.9375 41.8125 3.875 
Q 35.984375 -1.171875 27.484375 -1.171875 
Q 16.84375 -1.171875 10.375 5.78125 
Q 3.90625 12.75 3.90625 25.734375 
Q 3.90625 34.125 6.6875 40.421875 
Q 9.46875 46.734375 15.15625 49.875 
Q 20.84375 53.03125 27.546875 53.03125 
Q 35.984375 53.03125 41.359375 48.75 
Q 46.734375 44.484375 48.25 36.625 
L 39.703125 35.296875 
Q 38.484375 40.53125 35.375 43.15625 
Q 32.28125 45.796875 27.875 45.796875 
Q 21.234375 45.796875 17.078125 41.03125 
Q 12.9375 36.28125 12.9375 25.984375 
Q 12.9375 15.53125 16.9375 10.796875 
Q 20.953125 6.0625 27.390625 6.0625 
Q 32.5625 6.0625 36.03125 9.234375 
Q 39.5 12.40625 40.4375 19 
z
" id="ArialMT-99"/>
     <path d="M 40.234375 0 
L 40.234375 6.546875 
Q 35.296875 -1.171875 25.734375 -1.171875 
Q 19.53125 -1.171875 14.328125 2.25 
Q 9.125 5.671875 6.265625 11.796875 
Q 3.421875 17.921875 3.421875 25.875 
Q 3.421875 33.640625 6 39.96875 
Q 8.59375 46.296875 13.765625 49.65625 
Q 18.953125 53.03125 25.34375 53.03125 
Q 30.03125 53.03125 33.6875 51.046875 
Q 37.359375 49.078125 39.65625 45.90625 
L 39.65625 71.578125 
L 48.390625 71.578125 
L 48.390625 0 
z
M 12.453125 25.875 
Q 12.453125 15.921875 16.640625 10.984375 
Q 20.84375 6.0625 26.5625 6.0625 
Q 32.328125 6.0625 36.34375 10.765625 
Q 40.375 15.484375 40.375 25.140625 
Q 40.375 35.796875 36.265625 40.765625 
Q 32.171875 45.75 26.171875 45.75 
Q 20.3125 45.75 16.375 40.96875 
Q 12.453125 36.1875 12.453125 25.875 
z
" id="ArialMT-100"/>
     <path d="M 6.203125 -19.96875 
L 5.21875 -11.71875 
Q 8.109375 -12.5 10.25 -12.5 
Q 13.1875 -12.5 14.9375 -11.515625 
Q 16.703125 -10.546875 17.828125 -8.796875 
Q 18.65625 -7.46875 20.515625 -2.25 
Q 20.75 -1.515625 21.296875 -0.09375 
L 1.609375 51.859375 
L 11.078125 51.859375 
L 21.875 21.828125 
Q 23.96875 16.109375 25.640625 9.8125 
Q 27.15625 15.875 29.25 21.625 
L 40.328125 51.859375 
L 49.125 51.859375 
L 29.390625 -0.875 
Q 26.21875 -9.421875 24.46875 -12.640625 
Q 22.125 -17 19.09375 -19.015625 
Q 16.0625 -21.046875 11.859375 -21.046875 
Q 9.328125 -21.046875 6.203125 -19.96875 
z
" id="ArialMT-121"/>
     <path d="M 6.59375 0 
L 6.59375 51.859375 
L 14.453125 51.859375 
L 14.453125 44.578125 
Q 16.890625 48.390625 20.9375 50.703125 
Q 25 53.03125 30.171875 53.03125 
Q 35.9375 53.03125 39.625 50.640625 
Q 43.3125 48.25 44.828125 43.953125 
Q 50.984375 53.03125 60.84375 53.03125 
Q 68.5625 53.03125 72.703125 48.75 
Q 76.859375 44.484375 76.859375 35.59375 
L 76.859375 0 
L 68.109375 0 
L 68.109375 32.671875 
Q 68.109375 37.9375 67.25 40.25 
Q 66.40625 42.578125 64.15625 43.984375 
Q 61.921875 45.40625 58.890625 45.40625 
Q 53.421875 45.40625 49.796875 41.765625 
Q 46.1875 38.140625 46.1875 30.125 
L 46.1875 0 
L 37.40625 0 
L 37.40625 33.6875 
Q 37.40625 39.546875 35.25 42.46875 
Q 33.109375 45.40625 28.21875 45.40625 
Q 24.515625 45.40625 21.359375 43.453125 
Q 18.21875 41.5 16.796875 37.734375 
Q 15.375 33.984375 15.375 26.90625 
L 15.375 0 
z
" id="ArialMT-109"/>
     <path d="M 21 0 
L 1.265625 51.859375 
L 10.546875 51.859375 
L 21.6875 20.796875 
Q 23.484375 15.765625 25 10.359375 
Q 26.171875 14.453125 28.265625 20.21875 
L 39.796875 51.859375 
L 48.828125 51.859375 
L 29.203125 0 
z
" id="ArialMT-118"/>
     <path d="M 6.390625 0 
L 6.390625 71.578125 
L 15.1875 71.578125 
L 15.1875 0 
z
" id="ArialMT-108"/>
     <path d="M 6.59375 0 
L 6.59375 71.578125 
L 15.375 71.578125 
L 15.375 45.90625 
Q 21.53125 53.03125 30.90625 53.03125 
Q 36.671875 53.03125 40.921875 50.75 
Q 45.171875 48.484375 47 44.484375 
Q 48.828125 40.484375 48.828125 32.859375 
L 48.828125 0 
L 40.046875 0 
L 40.046875 32.859375 
Q 40.046875 39.453125 37.1875 42.453125 
Q 34.328125 45.453125 29.109375 45.453125 
Q 25.203125 45.453125 21.75 43.421875 
Q 18.3125 41.40625 16.84375 37.9375 
Q 15.375 34.46875 15.375 28.375 
L 15.375 0 
z
" id="ArialMT-104"/>
     <path d="M 3.171875 21.484375 
L 3.171875 30.328125 
L 30.171875 30.328125 
L 30.171875 21.484375 
z
" id="ArialMT-45"/>
     <path d="M 7.625 0 
L 7.625 71.578125 
L 17.328125 71.578125 
L 54.9375 15.375 
L 54.9375 71.578125 
L 64.015625 71.578125 
L 64.015625 0 
L 54.296875 0 
L 16.703125 56.25 
L 16.703125 0 
z
" id="ArialMT-78"/>
     <path d="M 16.15625 0 
L 0.296875 51.859375 
L 9.375 51.859375 
L 17.625 21.921875 
L 20.703125 10.796875 
Q 20.90625 11.625 23.390625 21.484375 
L 31.640625 51.859375 
L 40.671875 51.859375 
L 48.4375 21.78125 
L 51.03125 11.859375 
L 54 21.875 
L 62.890625 51.859375 
L 71.4375 51.859375 
L 55.21875 0 
L 46.09375 0 
L 37.84375 31.0625 
L 35.84375 39.890625 
L 25.34375 0 
z
" id="ArialMT-119"/>
     <path d="M 7.421875 0 
L 7.421875 71.578125 
L 21.6875 71.578125 
L 38.625 20.90625 
Q 40.96875 13.8125 42.046875 10.296875 
Q 43.265625 14.203125 45.84375 21.78125 
L 62.984375 71.578125 
L 75.734375 71.578125 
L 75.734375 0 
L 66.609375 0 
L 66.609375 59.90625 
L 45.796875 0 
L 37.25 0 
L 16.546875 60.9375 
L 16.546875 0 
z
" id="ArialMT-77"/>
     <path d="M -1.515625 -19.875 
L -1.515625 -13.53125 
L 56.734375 -13.53125 
L 56.734375 -19.875 
z
" id="ArialMT-95"/>
    </defs>
    <g style="fill:#262626;" transform="translate(89.110313 23.748375)scale(0.12 -0.12)">
     <use xlink:href="#ArialMT-68"/>
     <use x="72.216797" xlink:href="#ArialMT-105"/>
     <use x="94.433594" xlink:href="#ArialMT-115"/>
     <use x="144.433594" xlink:href="#ArialMT-116"/>
     <use x="172.216797" xlink:href="#ArialMT-114"/>
     <use x="205.517578" xlink:href="#ArialMT-105"/>
     <use x="227.734375" xlink:href="#ArialMT-98"/>
     <use x="283.349609" xlink:href="#ArialMT-117"/>
     <use x="338.964844" xlink:href="#ArialMT-116"/>
     <use x="366.748047" xlink:href="#ArialMT-105"/>
     <use x="388.964844" xlink:href="#ArialMT-111"/>
     <use x="444.580078" xlink:href="#ArialMT-110"/>
     <use x="500.195312" xlink:href="#ArialMT-32"/>
     <use x="527.978516" xlink:href="#ArialMT-111"/>
     <use x="583.59375" xlink:href="#ArialMT-102"/>
     <use x="611.376953" xlink:href="#ArialMT-32"/>
     <use x="639.160156" xlink:href="#ArialMT-112"/>
     <use x="694.775391" xlink:href="#ArialMT-114"/>
     <use x="728.076172" xlink:href="#ArialMT-111"/>
     <use x="783.691406" xlink:href="#ArialMT-106"/>
     <use x="805.908203" xlink:href="#ArialMT-101"/>
     <use x="861.523438" xlink:href="#ArialMT-99"/>
     <use x="911.523438" xlink:href="#ArialMT-116"/>
     <use x="939.306641" xlink:href="#ArialMT-101"/>
     <use x="994.921875" xlink:href="#ArialMT-100"/>
     <use x="1050.537109" xlink:href="#ArialMT-32"/>
     <use x="1078.320312" xlink:href="#ArialMT-101"/>
     <use x="1133.935547" xlink:href="#ArialMT-121"/>
     <use x="1183.935547" xlink:href="#ArialMT-101"/>
     <use x="1239.550781" xlink:href="#ArialMT-32"/>
     <use x="1267.333984" xlink:href="#ArialMT-109"/>
     <use x="1350.634766" xlink:href="#ArialMT-111"/>
     <use x="1406.25" xlink:href="#ArialMT-118"/>
     <use x="1456.25" xlink:href="#ArialMT-101"/>
     <use x="1511.865234" xlink:href="#ArialMT-109"/>
     <use x="1595.166016" xlink:href="#ArialMT-101"/>
     <use x="1650.78125" xlink:href="#ArialMT-110"/>
     <use x="1706.396484" xlink:href="#ArialMT-116"/>
     <use x="1734.179688" xlink:href="#ArialMT-32"/>
     <use x="1761.962891" xlink:href="#ArialMT-118"/>
     <use x="1811.962891" xlink:href="#ArialMT-101"/>
     <use x="1867.578125" xlink:href="#ArialMT-108"/>
     <use x="1889.794922" xlink:href="#ArialMT-111"/>
     <use x="1945.410156" xlink:href="#ArialMT-99"/>
     <use x="1995.410156" xlink:href="#ArialMT-105"/>
     <use x="2017.626953" xlink:href="#ArialMT-116"/>
     <use x="2045.410156" xlink:href="#ArialMT-121"/>
     <use x="2095.410156" xlink:href="#ArialMT-32"/>
     <use x="2123.193359" xlink:href="#ArialMT-111"/>
     <use x="2178.808594" xlink:href="#ArialMT-110"/>
     <use x="2234.423828" xlink:href="#ArialMT-32"/>
     <use x="2262.207031" xlink:href="#ArialMT-116"/>
     <use x="2289.990234" xlink:href="#ArialMT-104"/>
     <use x="2345.605469" xlink:href="#ArialMT-101"/>
     <use x="2401.220703" xlink:href="#ArialMT-32"/>
     <use x="2429.003906" xlink:href="#ArialMT-115"/>
     <use x="2479.003906" xlink:href="#ArialMT-99"/>
     <use x="2529.003906" xlink:href="#ArialMT-114"/>
     <use x="2562.304688" xlink:href="#ArialMT-101"/>
     <use x="2617.919922" xlink:href="#ArialMT-101"/>
     <use x="2673.535156" xlink:href="#ArialMT-110"/>
     <use x="2729.150391" xlink:href="#ArialMT-32"/>
     <use x="2756.933594" xlink:href="#ArialMT-45"/>
     <use x="2790.234375" xlink:href="#ArialMT-32"/>
     <use x="2818.017578" xlink:href="#ArialMT-78"/>
     <use x="2890.234375" xlink:href="#ArialMT-101"/>
     <use x="2945.849609" xlink:href="#ArialMT-119"/>
     <use x="3018.066406" xlink:href="#ArialMT-77"/>
     <use x="3101.367188" xlink:href="#ArialMT-49"/>
     <use x="3156.982422" xlink:href="#ArialMT-95"/>
     <use x="3212.597656" xlink:href="#ArialMT-49"/>
     <use x="3268.212891" xlink:href="#ArialMT-95"/>
     <use x="3323.828125" xlink:href="#ArialMT-49"/>
     <use x="3379.443359" xlink:href="#ArialMT-50"/>
    </g>
   </g>
   <g id="legend_1">
    <g id="line2d_18">
     <path d="M 201.150781 60.2075 
L 221.150781 60.2075 
" style="fill:none;stroke:#ff0000;stroke-dasharray:7.4,3.2;stroke-dashoffset:0;stroke-width:2;"/>
    </g>
    <g id="line2d_19"/>
    <g id="text_18">
     <!-- Average angle in light: 21.4 degrees -->
     <defs>
      <path d="M -0.140625 0 
L 27.34375 71.578125 
L 37.546875 71.578125 
L 66.84375 0 
L 56.0625 0 
L 47.703125 21.6875 
L 17.78125 21.6875 
L 9.90625 0 
z
M 20.515625 29.390625 
L 44.78125 29.390625 
L 37.3125 49.21875 
Q 33.890625 58.25 32.234375 64.0625 
Q 30.859375 57.171875 28.375 50.390625 
z
" id="ArialMT-65"/>
      <path d="M 40.4375 6.390625 
Q 35.546875 2.25 31.03125 0.53125 
Q 26.515625 -1.171875 21.34375 -1.171875 
Q 12.796875 -1.171875 8.203125 3 
Q 3.609375 7.171875 3.609375 13.671875 
Q 3.609375 17.484375 5.34375 20.625 
Q 7.078125 23.78125 9.890625 25.6875 
Q 12.703125 27.59375 16.21875 28.5625 
Q 18.796875 29.25 24.03125 29.890625 
Q 34.671875 31.15625 39.703125 32.90625 
Q 39.75 34.71875 39.75 35.203125 
Q 39.75 40.578125 37.25 42.78125 
Q 33.890625 45.75 27.25 45.75 
Q 21.046875 45.75 18.09375 43.578125 
Q 15.140625 41.40625 13.71875 35.890625 
L 5.125 37.0625 
Q 6.296875 42.578125 8.984375 45.96875 
Q 11.671875 49.359375 16.75 51.1875 
Q 21.828125 53.03125 28.515625 53.03125 
Q 35.15625 53.03125 39.296875 51.46875 
Q 43.453125 49.90625 45.40625 47.53125 
Q 47.359375 45.171875 48.140625 41.546875 
Q 48.578125 39.3125 48.578125 33.453125 
L 48.578125 21.734375 
Q 48.578125 9.46875 49.140625 6.21875 
Q 49.703125 2.984375 51.375 0 
L 42.1875 0 
Q 40.828125 2.734375 40.4375 6.390625 
z
M 39.703125 26.03125 
Q 34.90625 24.078125 25.34375 22.703125 
Q 19.921875 21.921875 17.671875 20.9375 
Q 15.4375 19.96875 14.203125 18.09375 
Q 12.984375 16.21875 12.984375 13.921875 
Q 12.984375 10.40625 15.640625 8.0625 
Q 18.3125 5.71875 23.4375 5.71875 
Q 28.515625 5.71875 32.46875 7.9375 
Q 36.421875 10.15625 38.28125 14.015625 
Q 39.703125 17 39.703125 22.796875 
z
" id="ArialMT-97"/>
      <path d="M 4.984375 -4.296875 
L 13.53125 -5.5625 
Q 14.0625 -9.515625 16.5 -11.328125 
Q 19.78125 -13.765625 25.4375 -13.765625 
Q 31.546875 -13.765625 34.859375 -11.328125 
Q 38.1875 -8.890625 39.359375 -4.5 
Q 40.046875 -1.8125 39.984375 6.78125 
Q 34.234375 0 25.640625 0 
Q 14.9375 0 9.078125 7.71875 
Q 3.21875 15.4375 3.21875 26.21875 
Q 3.21875 33.640625 5.90625 39.90625 
Q 8.59375 46.1875 13.6875 49.609375 
Q 18.796875 53.03125 25.6875 53.03125 
Q 34.859375 53.03125 40.828125 45.609375 
L 40.828125 51.859375 
L 48.921875 51.859375 
L 48.921875 7.03125 
Q 48.921875 -5.078125 46.453125 -10.125 
Q 44 -15.1875 38.640625 -18.109375 
Q 33.296875 -21.046875 25.484375 -21.046875 
Q 16.21875 -21.046875 10.5 -16.875 
Q 4.78125 -12.703125 4.984375 -4.296875 
z
M 12.25 26.859375 
Q 12.25 16.65625 16.296875 11.96875 
Q 20.359375 7.28125 26.46875 7.28125 
Q 32.515625 7.28125 36.609375 11.9375 
Q 40.71875 16.609375 40.71875 26.5625 
Q 40.71875 36.078125 36.5 40.90625 
Q 32.28125 45.75 26.3125 45.75 
Q 20.453125 45.75 16.34375 40.984375 
Q 12.25 36.234375 12.25 26.859375 
z
" id="ArialMT-103"/>
      <path d="M 9.03125 41.84375 
L 9.03125 51.859375 
L 19.046875 51.859375 
L 19.046875 41.84375 
z
M 9.03125 0 
L 9.03125 10.015625 
L 19.046875 10.015625 
L 19.046875 0 
z
" id="ArialMT-58"/>
     </defs>
     <g style="fill:#262626;" transform="translate(229.150781 63.7075)scale(0.1 -0.1)">
      <use xlink:href="#ArialMT-65"/>
      <use x="66.683594" xlink:href="#ArialMT-118"/>
      <use x="116.683594" xlink:href="#ArialMT-101"/>
      <use x="172.298828" xlink:href="#ArialMT-114"/>
      <use x="205.599609" xlink:href="#ArialMT-97"/>
      <use x="261.214844" xlink:href="#ArialMT-103"/>
      <use x="316.830078" xlink:href="#ArialMT-101"/>
      <use x="372.445312" xlink:href="#ArialMT-32"/>
      <use x="400.228516" xlink:href="#ArialMT-97"/>
      <use x="455.84375" xlink:href="#ArialMT-110"/>
      <use x="511.458984" xlink:href="#ArialMT-103"/>
      <use x="567.074219" xlink:href="#ArialMT-108"/>
      <use x="589.291016" xlink:href="#ArialMT-101"/>
      <use x="644.90625" xlink:href="#ArialMT-32"/>
      <use x="672.689453" xlink:href="#ArialMT-105"/>
      <use x="694.90625" xlink:href="#ArialMT-110"/>
      <use x="750.521484" xlink:href="#ArialMT-32"/>
      <use x="778.304688" xlink:href="#ArialMT-108"/>
      <use x="800.521484" xlink:href="#ArialMT-105"/>
      <use x="822.738281" xlink:href="#ArialMT-103"/>
      <use x="878.353516" xlink:href="#ArialMT-104"/>
      <use x="933.96875" xlink:href="#ArialMT-116"/>
      <use x="961.751953" xlink:href="#ArialMT-58"/>
      <use x="989.535156" xlink:href="#ArialMT-32"/>
      <use x="1017.318359" xlink:href="#ArialMT-50"/>
      <use x="1072.933594" xlink:href="#ArialMT-49"/>
      <use x="1128.548828" xlink:href="#ArialMT-46"/>
      <use x="1156.332031" xlink:href="#ArialMT-52"/>
      <use x="1211.947266" xlink:href="#ArialMT-32"/>
      <use x="1239.730469" xlink:href="#ArialMT-100"/>
      <use x="1295.345703" xlink:href="#ArialMT-101"/>
      <use x="1350.960938" xlink:href="#ArialMT-103"/>
      <use x="1406.576172" xlink:href="#ArialMT-114"/>
      <use x="1439.876953" xlink:href="#ArialMT-101"/>
      <use x="1495.492188" xlink:href="#ArialMT-101"/>
      <use x="1551.107422" xlink:href="#ArialMT-115"/>
     </g>
    </g>
    <g id="PathCollection_4">
     <g>
      <use style="fill:#4c72b0;stroke:#4c72b0;stroke-width:0.3;" x="211.150781" xlink:href="#me58b075287" y="75.345"/>
     </g>
    </g>
    <g id="text_19">
     <!-- $-0.5 &lt; t &lt; 0.$ -->
     <defs>
      <path d="M 10.59375 35.5 
L 73.1875 35.5 
L 73.1875 27.203125 
L 10.59375 27.203125 
z
" id="DejaVuSans-8722"/>
      <path d="M 31.78125 66.40625 
Q 24.171875 66.40625 20.328125 58.90625 
Q 16.5 51.421875 16.5 36.375 
Q 16.5 21.390625 20.328125 13.890625 
Q 24.171875 6.390625 31.78125 6.390625 
Q 39.453125 6.390625 43.28125 13.890625 
Q 47.125 21.390625 47.125 36.375 
Q 47.125 51.421875 43.28125 58.90625 
Q 39.453125 66.40625 31.78125 66.40625 
z
M 31.78125 74.21875 
Q 44.046875 74.21875 50.515625 64.515625 
Q 56.984375 54.828125 56.984375 36.375 
Q 56.984375 17.96875 50.515625 8.265625 
Q 44.046875 -1.421875 31.78125 -1.421875 
Q 19.53125 -1.421875 13.0625 8.265625 
Q 6.59375 17.96875 6.59375 36.375 
Q 6.59375 54.828125 13.0625 64.515625 
Q 19.53125 74.21875 31.78125 74.21875 
z
" id="DejaVuSans-48"/>
      <path d="M 10.6875 12.40625 
L 21 12.40625 
L 21 0 
L 10.6875 0 
z
" id="DejaVuSans-46"/>
      <path d="M 10.796875 72.90625 
L 49.515625 72.90625 
L 49.515625 64.59375 
L 19.828125 64.59375 
L 19.828125 46.734375 
Q 21.96875 47.46875 24.109375 47.828125 
Q 26.265625 48.1875 28.421875 48.1875 
Q 40.625 48.1875 47.75 41.5 
Q 54.890625 34.8125 54.890625 23.390625 
Q 54.890625 11.625 47.5625 5.09375 
Q 40.234375 -1.421875 26.90625 -1.421875 
Q 22.3125 -1.421875 17.546875 -0.640625 
Q 12.796875 0.140625 7.71875 1.703125 
L 7.71875 11.625 
Q 12.109375 9.234375 16.796875 8.0625 
Q 21.484375 6.890625 26.703125 6.890625 
Q 35.15625 6.890625 40.078125 11.328125 
Q 45.015625 15.765625 45.015625 23.390625 
Q 45.015625 31 40.078125 35.4375 
Q 35.15625 39.890625 26.703125 39.890625 
Q 22.75 39.890625 18.8125 39.015625 
Q 14.890625 38.140625 10.796875 36.28125 
z
" id="DejaVuSans-53"/>
      <path d="M 73.1875 49.21875 
L 22.796875 31.296875 
L 73.1875 13.484375 
L 73.1875 4.59375 
L 10.59375 27.296875 
L 10.59375 35.40625 
L 73.1875 58.109375 
z
" id="DejaVuSans-60"/>
      <path d="M 42.28125 54.6875 
L 40.921875 47.703125 
L 23 47.703125 
L 17.1875 18.015625 
Q 16.890625 16.359375 16.75 15.234375 
Q 16.609375 14.109375 16.609375 13.484375 
Q 16.609375 10.359375 18.484375 8.9375 
Q 20.359375 7.515625 24.515625 7.515625 
L 33.59375 7.515625 
L 32.078125 0 
L 23.484375 0 
Q 15.484375 0 11.546875 3.125 
Q 7.625 6.25 7.625 12.59375 
Q 7.625 13.71875 7.765625 15.0625 
Q 7.90625 16.40625 8.203125 18.015625 
L 14.015625 47.703125 
L 6.390625 47.703125 
L 7.8125 54.6875 
L 15.28125 54.6875 
L 18.3125 70.21875 
L 27.296875 70.21875 
L 24.3125 54.6875 
z
" id="DejaVuSans-Oblique-116"/>
     </defs>
     <g style="fill:#262626;" transform="translate(229.150781 77.97)scale(0.1 -0.1)">
      <use transform="translate(0 0.78125)" xlink:href="#DejaVuSans-8722"/>
      <use transform="translate(83.789062 0.78125)" xlink:href="#DejaVuSans-48"/>
      <use transform="translate(147.412109 0.78125)" xlink:href="#DejaVuSans-46"/>
      <use transform="translate(179.199219 0.78125)" xlink:href="#DejaVuSans-53"/>
      <use transform="translate(262.304688 0.78125)" xlink:href="#DejaVuSans-60"/>
      <use transform="translate(365.576172 0.78125)" xlink:href="#DejaVuSans-Oblique-116"/>
      <use transform="translate(424.267578 0.78125)" xlink:href="#DejaVuSans-60"/>
      <use transform="translate(527.539062 0.78125)" xlink:href="#DejaVuSans-48"/>
     </g>
    </g>
    <g id="PathCollection_5">
     <g>
      <use style="fill:#55a868;stroke:#55a868;stroke-width:0.3;" x="211.150781" xlink:href="#m4b0370b910" y="89.490312"/>
     </g>
    </g>
    <g id="text_20">
     <!-- $0. &lt; t &lt; 0.5$ -->
     <g style="fill:#262626;" transform="translate(229.150781 92.115312)scale(0.1 -0.1)">
      <use transform="translate(0 0.78125)" xlink:href="#DejaVuSans-48"/>
      <use transform="translate(63.623047 0.78125)" xlink:href="#DejaVuSans-46"/>
      <use transform="translate(134.375 0.78125)" xlink:href="#DejaVuSans-60"/>
      <use transform="translate(237.646484 0.78125)" xlink:href="#DejaVuSans-Oblique-116"/>
      <use transform="translate(296.337891 0.78125)" xlink:href="#DejaVuSans-60"/>
      <use transform="translate(399.609375 0.78125)" xlink:href="#DejaVuSans-48"/>
      <use transform="translate(463.232422 0.78125)" xlink:href="#DejaVuSans-46"/>
      <use transform="translate(495.019531 0.78125)" xlink:href="#DejaVuSans-53"/>
     </g>
    </g>
    <g id="PathCollection_6">
     <g>
      <use style="fill:#c44e52;stroke:#c44e52;stroke-width:0.3;" x="211.150781" xlink:href="#m2353946fe9" y="103.635625"/>
     </g>
    </g>
    <g id="text_21">
     <!-- $0.5 &lt; t &lt; 1.$ -->
     <defs>
      <path d="M 12.40625 8.296875 
L 28.515625 8.296875 
L 28.515625 63.921875 
L 10.984375 60.40625 
L 10.984375 69.390625 
L 28.421875 72.90625 
L 38.28125 72.90625 
L 38.28125 8.296875 
L 54.390625 8.296875 
L 54.390625 0 
L 12.40625 0 
z
" id="DejaVuSans-49"/>
     </defs>
     <g style="fill:#262626;" transform="translate(229.150781 106.260625)scale(0.1 -0.1)">
      <use transform="translate(0 0.78125)" xlink:href="#DejaVuSans-48"/>
      <use transform="translate(63.623047 0.78125)" xlink:href="#DejaVuSans-46"/>
      <use transform="translate(95.410156 0.78125)" xlink:href="#DejaVuSans-53"/>
      <use transform="translate(178.515625 0.78125)" xlink:href="#DejaVuSans-60"/>
      <use transform="translate(281.787109 0.78125)" xlink:href="#DejaVuSans-Oblique-116"/>
      <use transform="translate(340.478516 0.78125)" xlink:href="#DejaVuSans-60"/>
      <use transform="translate(443.75 0.78125)" xlink:href="#DejaVuSans-49"/>
     </g>
    </g>
   </g>
  </g>
 </g>
 <defs>
  <clipPath id="p6a2523c81b">
   <path d="M 447.66 199.98 
C 447.66 179.959136 443.716326 160.13295 436.054674 141.636084 
C 428.393021 123.139218 417.162388 106.331389 403.0055 92.1745 
C 388.848611 78.017612 372.040782 66.786979 353.543916 59.125326 
C 335.04705 51.463674 315.220864 47.52 295.2 47.52 
C 275.179136 47.52 255.35295 51.463674 236.856084 59.125326 
C 218.359218 66.786979 201.551389 78.017612 187.3945 92.1745 
C 173.237612 106.331389 162.006979 123.139218 154.345326 141.636084 
C 146.683674 160.13295 142.74 179.959136 142.74 199.98 
C 142.74 220.000864 146.683674 239.82705 154.345326 258.323916 
C 162.006979 276.820782 173.237612 293.628611 187.3945 307.7855 
C 201.551389 321.942388 218.359218 333.173021 236.856084 340.834674 
C 255.35295 348.496326 275.179136 352.44 295.2 352.44 
C 315.220864 352.44 335.04705 348.496326 353.543916 340.834674 
C 372.040782 333.173021 388.848611 321.942388 403.0055 307.7855 
C 417.162388 293.628611 428.393021 276.820782 436.054674 258.323916 
C 443.716326 239.82705 447.66 220.000864 447.66 199.98 
M 295.2 199.98 
C 295.2 199.98 295.2 199.98 295.2 199.98 
C 295.2 199.98 295.2 199.98 295.2 199.98 
C 295.2 199.98 295.2 199.98 295.2 199.98 
C 295.2 199.98 295.2 199.98 295.2 199.98 
C 295.2 199.98 295.2 199.98 295.2 199.98 
C 295.2 199.98 295.2 199.98 295.2 199.98 
C 295.2 199.98 295.2 199.98 295.2 199.98 
C 295.2 199.98 295.2 199.98 295.2 199.98 
C 295.2 199.98 295.2 199.98 295.2 199.98 
C 295.2 199.98 295.2 199.98 295.2 199.98 
C 295.2 199.98 295.2 199.98 295.2 199.98 
C 295.2 199.98 295.2 199.98 295.2 199.98 
C 295.2 199.98 295.2 199.98 295.2 199.98 
C 295.2 199.98 295.2 199.98 295.2 199.98 
C 295.2 199.98 295.2 199.98 295.2 199.98 
C 295.2 199.98 295.2 199.98 295.2 199.98 
M 447.66 199.98 
z
"/>
  </clipPath>
 </defs>
</svg>
