<?xml version="1.0" encoding="utf-8" standalone="no"?>
<!DOCTYPE svg PUBLIC "-//W3C//DTD SVG 1.1//EN"
  "http://www.w3.org/Graphics/SVG/1.1/DTD/svg11.dtd">
<!-- Created with matplotlib (https://matplotlib.org/) -->
<svg height="396pt" version="1.1" viewBox="0 0 576 396" width="576pt" xmlns="http://www.w3.org/2000/svg" xmlns:xlink="http://www.w3.org/1999/xlink">
 <defs>
  <style type="text/css">
*{stroke-linecap:butt;stroke-linejoin:round;}
  </style>
 </defs>
 <g id="figure_1">
  <g id="patch_1">
   <path d="M 0 396 
L 576 396 
L 576 0 
L 0 0 
z
" style="fill:#ffffff;"/>
  </g>
  <g id="axes_1">
   <g id="patch_2">
    <path d="M 447.66 199.98 
C 447.66 179.959136 443.716326 160.13295 436.054674 141.636084 
C 428.393021 123.139218 417.162388 106.331389 403.0055 92.1745 
C 388.848611 78.017612 372.040782 66.786979 353.543916 59.125326 
C 335.04705 51.463674 315.220864 47.52 295.2 47.52 
C 275.179136 47.52 255.35295 51.463674 236.856084 59.125326 
C 218.359218 66.786979 201.551389 78.017612 187.3945 92.1745 
C 173.237612 106.331389 162.006979 123.139218 154.345326 141.636084 
C 146.683674 160.13295 142.74 179.959136 142.74 199.98 
C 142.74 220.000864 146.683674 239.82705 154.345326 258.323916 
C 162.006979 276.820782 173.237612 293.628611 187.3945 307.7855 
C 201.551389 321.942388 218.359218 333.173021 236.856084 340.834674 
C 255.35295 348.496326 275.179136 352.44 295.2 352.44 
C 315.220864 352.44 335.04705 348.496326 353.543916 340.834674 
C 372.040782 333.173021 388.848611 321.942388 403.0055 307.7855 
C 417.162388 293.628611 428.393021 276.820782 436.054674 258.323916 
C 443.716326 239.82705 447.66 220.000864 447.66 199.98 
M 295.2 199.98 
C 295.2 199.98 295.2 199.98 295.2 199.98 
C 295.2 199.98 295.2 199.98 295.2 199.98 
C 295.2 199.98 295.2 199.98 295.2 199.98 
C 295.2 199.98 295.2 199.98 295.2 199.98 
C 295.2 199.98 295.2 199.98 295.2 199.98 
C 295.2 199.98 295.2 199.98 295.2 199.98 
C 295.2 199.98 295.2 199.98 295.2 199.98 
C 295.2 199.98 295.2 199.98 295.2 199.98 
C 295.2 199.98 295.2 199.98 295.2 199.98 
C 295.2 199.98 295.2 199.98 295.2 199.98 
C 295.2 199.98 295.2 199.98 295.2 199.98 
C 295.2 199.98 295.2 199.98 295.2 199.98 
C 295.2 199.98 295.2 199.98 295.2 199.98 
C 295.2 199.98 295.2 199.98 295.2 199.98 
C 295.2 199.98 295.2 199.98 295.2 199.98 
C 295.2 199.98 295.2 199.98 295.2 199.98 
M 447.66 199.98 
z
" style="fill:#eaeaf2;"/>
   </g>
   <g id="matplotlib.axis_1">
    <g id="xtick_1">
     <g id="line2d_1">
      <path clip-path="url(#p9a48a44d36)" d="M 295.2 199.98 
L 447.66 199.98 
" style="fill:none;stroke:#ffffff;stroke-linecap:round;"/>
     </g>
     <g id="text_1">
      <!-- 0° -->
      <defs>
       <path d="M 4.15625 35.296875 
Q 4.15625 48 6.765625 55.734375 
Q 9.375 63.484375 14.515625 67.671875 
Q 19.671875 71.875 27.484375 71.875 
Q 33.25 71.875 37.59375 69.546875 
Q 41.9375 67.234375 44.765625 62.859375 
Q 47.609375 58.5 49.21875 52.21875 
Q 50.828125 45.953125 50.828125 35.296875 
Q 50.828125 22.703125 48.234375 14.96875 
Q 45.65625 7.234375 40.5 3 
Q 35.359375 -1.21875 27.484375 -1.21875 
Q 17.140625 -1.21875 11.234375 6.203125 
Q 4.15625 15.140625 4.15625 35.296875 
z
M 13.1875 35.296875 
Q 13.1875 17.671875 17.3125 11.828125 
Q 21.4375 6 27.484375 6 
Q 33.546875 6 37.671875 11.859375 
Q 41.796875 17.71875 41.796875 35.296875 
Q 41.796875 52.984375 37.671875 58.78125 
Q 33.546875 64.59375 27.390625 64.59375 
Q 21.34375 64.59375 17.71875 59.46875 
Q 13.1875 52.9375 13.1875 35.296875 
z
" id="ArialMT-48"/>
       <path d="M 6.25 59.28125 
Q 6.25 64.890625 10.21875 68.84375 
Q 14.203125 72.796875 19.78125 72.796875 
Q 25.4375 72.796875 29.390625 68.84375 
Q 33.34375 64.890625 33.34375 59.28125 
Q 33.34375 53.65625 29.359375 49.671875 
Q 25.390625 45.703125 19.78125 45.703125 
Q 14.203125 45.703125 10.21875 49.65625 
Q 6.25 53.609375 6.25 59.28125 
z
M 11.578125 59.28125 
Q 11.578125 55.859375 13.984375 53.4375 
Q 16.40625 51.03125 19.828125 51.03125 
Q 23.1875 51.03125 25.609375 53.4375 
Q 28.03125 55.859375 28.03125 59.28125 
Q 28.03125 62.703125 25.609375 65.109375 
Q 23.1875 67.53125 19.828125 67.53125 
Q 16.40625 67.53125 13.984375 65.109375 
Q 11.578125 62.703125 11.578125 59.28125 
z
" id="ArialMT-176"/>
      </defs>
      <g style="fill:#262626;" transform="translate(456.880312 202.565156)scale(0.1 -0.1)">
       <use xlink:href="#ArialMT-48"/>
       <use x="55.615234" xlink:href="#ArialMT-176"/>
      </g>
     </g>
    </g>
    <g id="xtick_2">
     <g id="line2d_2">
      <path clip-path="url(#p9a48a44d36)" d="M 295.2 199.98 
L 403.0055 92.1745 
" style="fill:none;stroke:#ffffff;stroke-linecap:round;"/>
     </g>
     <g id="text_2">
      <!-- 45° -->
      <defs>
       <path d="M 32.328125 0 
L 32.328125 17.140625 
L 1.265625 17.140625 
L 1.265625 25.203125 
L 33.9375 71.578125 
L 41.109375 71.578125 
L 41.109375 25.203125 
L 50.78125 25.203125 
L 50.78125 17.140625 
L 41.109375 17.140625 
L 41.109375 0 
z
M 32.328125 25.203125 
L 32.328125 57.46875 
L 9.90625 25.203125 
z
" id="ArialMT-52"/>
       <path d="M 4.15625 18.75 
L 13.375 19.53125 
Q 14.40625 12.796875 18.140625 9.390625 
Q 21.875 6 27.15625 6 
Q 33.5 6 37.890625 10.78125 
Q 42.28125 15.578125 42.28125 23.484375 
Q 42.28125 31 38.0625 35.34375 
Q 33.84375 39.703125 27 39.703125 
Q 22.75 39.703125 19.328125 37.765625 
Q 15.921875 35.84375 13.96875 32.765625 
L 5.71875 33.84375 
L 12.640625 70.609375 
L 48.25 70.609375 
L 48.25 62.203125 
L 19.671875 62.203125 
L 15.828125 42.96875 
Q 22.265625 47.46875 29.34375 47.46875 
Q 38.71875 47.46875 45.15625 40.96875 
Q 51.609375 34.46875 51.609375 24.265625 
Q 51.609375 14.546875 45.953125 7.46875 
Q 39.0625 -1.21875 27.15625 -1.21875 
Q 17.390625 -1.21875 11.203125 4.25 
Q 5.03125 9.71875 4.15625 18.75 
z
" id="ArialMT-53"/>
      </defs>
      <g style="fill:#262626;" transform="translate(405.344839 84.860161)scale(0.1 -0.1)">
       <use xlink:href="#ArialMT-52"/>
       <use x="55.615234" xlink:href="#ArialMT-53"/>
       <use x="111.230469" xlink:href="#ArialMT-176"/>
      </g>
     </g>
    </g>
    <g id="xtick_3">
     <g id="line2d_3">
      <path clip-path="url(#p9a48a44d36)" d="M 295.2 199.98 
L 295.2 47.52 
" style="fill:none;stroke:#ffffff;stroke-linecap:round;"/>
     </g>
     <g id="text_3">
      <!-- 90° -->
      <defs>
       <path d="M 5.46875 16.546875 
L 13.921875 17.328125 
Q 14.984375 11.375 18.015625 8.6875 
Q 21.046875 6 25.78125 6 
Q 29.828125 6 32.875 7.859375 
Q 35.9375 9.71875 37.890625 12.8125 
Q 39.84375 15.921875 41.15625 21.1875 
Q 42.484375 26.46875 42.484375 31.9375 
Q 42.484375 32.515625 42.4375 33.6875 
Q 39.796875 29.5 35.234375 26.875 
Q 30.671875 24.265625 25.34375 24.265625 
Q 16.453125 24.265625 10.296875 30.703125 
Q 4.15625 37.15625 4.15625 47.703125 
Q 4.15625 58.59375 10.578125 65.234375 
Q 17 71.875 26.65625 71.875 
Q 33.640625 71.875 39.421875 68.109375 
Q 45.21875 64.359375 48.21875 57.390625 
Q 51.21875 50.4375 51.21875 37.25 
Q 51.21875 23.53125 48.234375 15.40625 
Q 45.265625 7.28125 39.375 3.03125 
Q 33.5 -1.21875 25.59375 -1.21875 
Q 17.1875 -1.21875 11.859375 3.4375 
Q 6.546875 8.109375 5.46875 16.546875 
z
M 41.453125 48.140625 
Q 41.453125 55.71875 37.421875 60.15625 
Q 33.40625 64.59375 27.734375 64.59375 
Q 21.875 64.59375 17.53125 59.8125 
Q 13.1875 55.03125 13.1875 47.40625 
Q 13.1875 40.578125 17.3125 36.296875 
Q 21.4375 32.03125 27.484375 32.03125 
Q 33.59375 32.03125 37.515625 36.296875 
Q 41.453125 40.578125 41.453125 48.140625 
z
" id="ArialMT-57"/>
      </defs>
      <g style="fill:#262626;" transform="translate(287.639844 36.105156)scale(0.1 -0.1)">
       <use xlink:href="#ArialMT-57"/>
       <use x="55.615234" xlink:href="#ArialMT-48"/>
       <use x="111.230469" xlink:href="#ArialMT-176"/>
      </g>
     </g>
    </g>
    <g id="xtick_4">
     <g id="line2d_4">
      <path clip-path="url(#p9a48a44d36)" d="M 295.2 199.98 
L 187.3945 92.1745 
" style="fill:none;stroke:#ffffff;stroke-linecap:round;"/>
     </g>
     <g id="text_4">
      <!-- 135° -->
      <defs>
       <path d="M 37.25 0 
L 28.46875 0 
L 28.46875 56 
Q 25.296875 52.984375 20.140625 49.953125 
Q 14.984375 46.921875 10.890625 45.40625 
L 10.890625 53.90625 
Q 18.265625 57.375 23.78125 62.296875 
Q 29.296875 67.234375 31.59375 71.875 
L 37.25 71.875 
z
" id="ArialMT-49"/>
       <path d="M 4.203125 18.890625 
L 12.984375 20.0625 
Q 14.5 12.59375 18.140625 9.296875 
Q 21.78125 6 27 6 
Q 33.203125 6 37.46875 10.296875 
Q 41.75 14.59375 41.75 20.953125 
Q 41.75 27 37.796875 30.921875 
Q 33.84375 34.859375 27.734375 34.859375 
Q 25.25 34.859375 21.53125 33.890625 
L 22.515625 41.609375 
Q 23.390625 41.5 23.921875 41.5 
Q 29.546875 41.5 34.03125 44.421875 
Q 38.53125 47.359375 38.53125 53.46875 
Q 38.53125 58.296875 35.25 61.46875 
Q 31.984375 64.65625 26.8125 64.65625 
Q 21.6875 64.65625 18.265625 61.421875 
Q 14.84375 58.203125 13.875 51.765625 
L 5.078125 53.328125 
Q 6.6875 62.15625 12.390625 67.015625 
Q 18.109375 71.875 26.609375 71.875 
Q 32.46875 71.875 37.390625 69.359375 
Q 42.328125 66.84375 44.9375 62.5 
Q 47.5625 58.15625 47.5625 53.265625 
Q 47.5625 48.640625 45.0625 44.828125 
Q 42.578125 41.015625 37.703125 38.765625 
Q 44.046875 37.3125 47.5625 32.6875 
Q 51.078125 28.078125 51.078125 21.140625 
Q 51.078125 11.765625 44.234375 5.25 
Q 37.40625 -1.265625 26.953125 -1.265625 
Q 17.53125 -1.265625 11.296875 4.34375 
Q 5.078125 9.96875 4.203125 18.890625 
z
" id="ArialMT-51"/>
      </defs>
      <g style="fill:#262626;" transform="translate(167.15438 84.860161)scale(0.1 -0.1)">
       <use xlink:href="#ArialMT-49"/>
       <use x="55.615234" xlink:href="#ArialMT-51"/>
       <use x="111.230469" xlink:href="#ArialMT-53"/>
       <use x="166.845703" xlink:href="#ArialMT-176"/>
      </g>
     </g>
    </g>
    <g id="xtick_5">
     <g id="line2d_5">
      <path clip-path="url(#p9a48a44d36)" d="M 295.2 199.98 
L 142.74 199.98 
" style="fill:none;stroke:#ffffff;stroke-linecap:round;"/>
     </g>
     <g id="text_5">
      <!-- 180° -->
      <defs>
       <path d="M 17.671875 38.8125 
Q 12.203125 40.828125 9.5625 44.53125 
Q 6.9375 48.25 6.9375 53.421875 
Q 6.9375 61.234375 12.546875 66.546875 
Q 18.171875 71.875 27.484375 71.875 
Q 36.859375 71.875 42.578125 66.421875 
Q 48.296875 60.984375 48.296875 53.171875 
Q 48.296875 48.1875 45.671875 44.5 
Q 43.0625 40.828125 37.75 38.8125 
Q 44.34375 36.671875 47.78125 31.875 
Q 51.21875 27.09375 51.21875 20.453125 
Q 51.21875 11.28125 44.71875 5.03125 
Q 38.234375 -1.21875 27.640625 -1.21875 
Q 17.046875 -1.21875 10.546875 5.046875 
Q 4.046875 11.328125 4.046875 20.703125 
Q 4.046875 27.6875 7.59375 32.390625 
Q 11.140625 37.109375 17.671875 38.8125 
z
M 15.921875 53.71875 
Q 15.921875 48.640625 19.1875 45.40625 
Q 22.46875 42.1875 27.6875 42.1875 
Q 32.765625 42.1875 36.015625 45.375 
Q 39.265625 48.578125 39.265625 53.21875 
Q 39.265625 58.0625 35.90625 61.359375 
Q 32.5625 64.65625 27.59375 64.65625 
Q 22.5625 64.65625 19.234375 61.421875 
Q 15.921875 58.203125 15.921875 53.71875 
z
M 13.09375 20.65625 
Q 13.09375 16.890625 14.875 13.375 
Q 16.65625 9.859375 20.171875 7.921875 
Q 23.6875 6 27.734375 6 
Q 34.03125 6 38.125 10.046875 
Q 42.234375 14.109375 42.234375 20.359375 
Q 42.234375 26.703125 38.015625 30.859375 
Q 33.796875 35.015625 27.4375 35.015625 
Q 21.234375 35.015625 17.15625 30.90625 
Q 13.09375 26.8125 13.09375 20.65625 
z
" id="ArialMT-56"/>
      </defs>
      <g style="fill:#262626;" transform="translate(118.399375 202.565156)scale(0.1 -0.1)">
       <use xlink:href="#ArialMT-49"/>
       <use x="55.615234" xlink:href="#ArialMT-56"/>
       <use x="111.230469" xlink:href="#ArialMT-48"/>
       <use x="166.845703" xlink:href="#ArialMT-176"/>
      </g>
     </g>
    </g>
    <g id="xtick_6">
     <g id="line2d_6">
      <path clip-path="url(#p9a48a44d36)" d="M 295.2 199.98 
L 187.3945 307.7855 
" style="fill:none;stroke:#ffffff;stroke-linecap:round;"/>
     </g>
     <g id="text_6">
      <!-- 225° -->
      <defs>
       <path d="M 50.34375 8.453125 
L 50.34375 0 
L 3.03125 0 
Q 2.9375 3.171875 4.046875 6.109375 
Q 5.859375 10.9375 9.828125 15.625 
Q 13.8125 20.3125 21.34375 26.46875 
Q 33.015625 36.03125 37.109375 41.625 
Q 41.21875 47.21875 41.21875 52.203125 
Q 41.21875 57.421875 37.46875 61 
Q 33.734375 64.59375 27.734375 64.59375 
Q 21.390625 64.59375 17.578125 60.78125 
Q 13.765625 56.984375 13.71875 50.25 
L 4.6875 51.171875 
Q 5.609375 61.28125 11.65625 66.578125 
Q 17.71875 71.875 27.9375 71.875 
Q 38.234375 71.875 44.234375 66.15625 
Q 50.25 60.453125 50.25 52 
Q 50.25 47.703125 48.484375 43.546875 
Q 46.734375 39.40625 42.65625 34.8125 
Q 38.578125 30.21875 29.109375 22.21875 
Q 21.1875 15.578125 18.9375 13.203125 
Q 16.703125 10.84375 15.234375 8.453125 
z
" id="ArialMT-50"/>
      </defs>
      <g style="fill:#262626;" transform="translate(167.15438 320.270151)scale(0.1 -0.1)">
       <use xlink:href="#ArialMT-50"/>
       <use x="55.615234" xlink:href="#ArialMT-50"/>
       <use x="111.230469" xlink:href="#ArialMT-53"/>
       <use x="166.845703" xlink:href="#ArialMT-176"/>
      </g>
     </g>
    </g>
    <g id="xtick_7">
     <g id="line2d_7">
      <path clip-path="url(#p9a48a44d36)" d="M 295.2 199.98 
L 295.2 352.44 
" style="fill:none;stroke:#ffffff;stroke-linecap:round;"/>
     </g>
     <g id="text_7">
      <!-- 270° -->
      <defs>
       <path d="M 4.734375 62.203125 
L 4.734375 70.65625 
L 51.078125 70.65625 
L 51.078125 63.8125 
Q 44.234375 56.546875 37.515625 44.484375 
Q 30.8125 32.421875 27.15625 19.671875 
Q 24.515625 10.6875 23.78125 0 
L 14.75 0 
Q 14.890625 8.453125 18.0625 20.40625 
Q 21.234375 32.375 27.171875 43.484375 
Q 33.109375 54.59375 39.796875 62.203125 
z
" id="ArialMT-55"/>
      </defs>
      <g style="fill:#262626;" transform="translate(284.859375 369.025156)scale(0.1 -0.1)">
       <use xlink:href="#ArialMT-50"/>
       <use x="55.615234" xlink:href="#ArialMT-55"/>
       <use x="111.230469" xlink:href="#ArialMT-48"/>
       <use x="166.845703" xlink:href="#ArialMT-176"/>
      </g>
     </g>
    </g>
    <g id="xtick_8">
     <g id="line2d_8">
      <path clip-path="url(#p9a48a44d36)" d="M 295.2 199.98 
L 403.0055 307.7855 
" style="fill:none;stroke:#ffffff;stroke-linecap:round;"/>
     </g>
     <g id="text_8">
      <!-- 315° -->
      <g style="fill:#262626;" transform="translate(402.56437 320.270151)scale(0.1 -0.1)">
       <use xlink:href="#ArialMT-51"/>
       <use x="55.615234" xlink:href="#ArialMT-49"/>
       <use x="111.230469" xlink:href="#ArialMT-53"/>
       <use x="166.845703" xlink:href="#ArialMT-176"/>
      </g>
     </g>
    </g>
   </g>
   <g id="matplotlib.axis_2">
    <g id="ytick_1">
     <g id="line2d_9">
      <path clip-path="url(#p9a48a44d36)" d="M 322.464807 199.98 
L 322.315448 197.130052 
L 321.869006 194.311328 
L 321.130373 191.554711 
L 320.107641 188.890404 
L 318.812016 186.347596 
L 317.257693 183.954148 
L 315.461701 181.736283 
L 313.443717 179.718299 
L 311.225852 177.922307 
L 308.832404 176.367984 
L 306.289596 175.072359 
L 303.625289 174.049627 
L 300.868672 173.310994 
L 298.049948 172.864552 
L 295.2 172.715193 
L 292.350052 172.864552 
L 289.531328 173.310994 
L 286.774711 174.049627 
L 284.110404 175.072359 
L 281.567596 176.367984 
L 279.174148 177.922307 
L 276.956283 179.718299 
L 274.938299 181.736283 
L 273.142307 183.954148 
L 271.587984 186.347596 
L 270.292359 188.890404 
L 269.269627 191.554711 
L 268.530994 194.311328 
L 268.084552 197.130052 
L 267.935193 199.98 
L 268.084552 202.829948 
L 268.530994 205.648672 
L 269.269627 208.405289 
L 270.292359 211.069596 
L 271.587984 213.612404 
L 273.142307 216.005852 
L 274.938299 218.223717 
L 276.956283 220.241701 
L 279.174148 222.037693 
L 281.567596 223.592016 
L 284.110404 224.887641 
L 286.774711 225.910373 
L 289.531328 226.649006 
L 292.350052 227.095448 
L 295.2 227.244807 
L 298.049948 227.095448 
L 300.868672 226.649006 
L 303.625289 225.910373 
L 306.289596 224.887641 
L 308.832404 223.592016 
L 311.225852 222.037693 
L 313.443717 220.241701 
L 315.461701 218.223717 
L 317.257693 216.005852 
L 318.812016 213.612404 
L 320.107641 211.069596 
L 321.130373 208.405289 
L 321.869006 205.648672 
L 322.315448 202.829948 
L 322.464807 199.98 
L 322.464807 199.98 
" style="fill:none;stroke:#ffffff;stroke-linecap:round;"/>
     </g>
     <g id="text_9">
      <!-- 0.02 -->
      <defs>
       <path d="M 9.078125 0 
L 9.078125 10.015625 
L 19.09375 10.015625 
L 19.09375 0 
z
" id="ArialMT-46"/>
      </defs>
      <g style="fill:#262626;" transform="translate(320.389398 187.55871)scale(0.1 -0.1)">
       <use xlink:href="#ArialMT-48"/>
       <use x="55.615234" xlink:href="#ArialMT-46"/>
       <use x="83.398438" xlink:href="#ArialMT-48"/>
       <use x="139.013672" xlink:href="#ArialMT-50"/>
      </g>
     </g>
    </g>
    <g id="ytick_2">
     <g id="line2d_10">
      <path clip-path="url(#p9a48a44d36)" d="M 349.729615 199.98 
L 349.596784 196.176206 
L 349.198937 192.390944 
L 348.538012 188.642656 
L 347.61723 184.949601 
L 346.441077 181.329773 
L 345.015282 177.800807 
L 343.346792 174.379896 
L 341.443736 171.083707 
L 339.315385 167.928296 
L 336.972109 164.929039 
L 334.425322 162.100547 
L 331.687434 159.456599 
L 328.771783 157.010077 
L 325.692574 154.7729 
L 322.464807 152.755968 
L 319.10421 150.969107 
L 315.627153 149.421021 
L 312.050578 148.119254 
L 308.391908 147.070148 
L 304.668968 146.278812 
L 300.899897 145.749104 
L 297.103056 145.483603 
L 293.296944 145.483603 
L 289.500103 145.749104 
L 285.731032 146.278812 
L 282.008092 147.070148 
L 278.349422 148.119254 
L 274.772847 149.421021 
L 271.29579 150.969107 
L 267.935193 152.755968 
L 264.707426 154.7729 
L 261.628217 157.010077 
L 258.712566 159.456599 
L 255.974678 162.100547 
L 253.427891 164.929039 
L 251.084615 167.928296 
L 248.956264 171.083707 
L 247.053208 174.379896 
L 245.384718 177.800807 
L 243.958923 181.329773 
L 242.78277 184.949601 
L 241.861988 188.642656 
L 241.201063 192.390944 
L 240.803216 196.176206 
L 240.670385 199.98 
L 240.803216 203.783794 
L 241.201063 207.569056 
L 241.861988 211.317344 
L 242.78277 215.010399 
L 243.958923 218.630227 
L 245.384718 222.159193 
L 247.053208 225.580104 
L 248.956264 228.876293 
L 251.084615 232.031704 
L 253.427891 235.030961 
L 255.974678 237.859453 
L 258.712566 240.503401 
L 261.628217 242.949923 
L 264.707426 245.1871 
L 267.935193 247.204032 
L 271.29579 248.990893 
L 274.772847 250.538979 
L 278.349422 251.840746 
L 282.008092 252.889852 
L 285.731032 253.681188 
L 289.500103 254.210896 
L 293.296944 254.476397 
L 297.103056 254.476397 
L 300.899897 254.210896 
L 304.668968 253.681188 
L 308.391908 252.889852 
L 312.050578 251.840746 
L 315.627153 250.538979 
L 319.10421 248.990893 
L 322.464807 247.204032 
L 325.692574 245.1871 
L 328.771783 242.949923 
L 331.687434 240.503401 
L 334.425322 237.859453 
L 336.972109 235.030961 
L 339.315385 232.031704 
L 341.443736 228.876293 
L 343.346792 225.580104 
L 345.015282 222.159193 
L 346.441077 218.630227 
L 347.61723 215.010399 
L 348.538012 211.317344 
L 349.198937 207.569056 
L 349.596784 203.783794 
L 349.729615 199.98 
L 349.729615 199.98 
" style="fill:none;stroke:#ffffff;stroke-linecap:round;"/>
     </g>
     <g id="text_10">
      <!-- 0.04 -->
      <g style="fill:#262626;" transform="translate(345.578795 177.12492)scale(0.1 -0.1)">
       <use xlink:href="#ArialMT-48"/>
       <use x="55.615234" xlink:href="#ArialMT-46"/>
       <use x="83.398438" xlink:href="#ArialMT-48"/>
       <use x="139.013672" xlink:href="#ArialMT-52"/>
      </g>
     </g>
    </g>
    <g id="ytick_3">
     <g id="line2d_11">
      <path clip-path="url(#p9a48a44d36)" d="M 376.994422 199.98 
L 376.795175 194.27431 
L 376.198405 188.596417 
L 375.207018 182.973983 
L 373.825845 177.434402 
L 372.061615 172.00466 
L 369.922923 166.711211 
L 367.420188 161.579845 
L 364.565604 156.63556 
L 361.373078 151.902445 
L 357.858163 147.403559 
L 354.037984 143.16082 
L 349.931152 139.194898 
L 345.557675 135.525115 
L 340.938861 132.169351 
L 336.097211 129.143952 
L 331.056315 126.46366 
L 325.84073 124.141532 
L 320.475867 122.188881 
L 314.987862 120.615221 
L 309.403452 119.428219 
L 303.749845 118.633656 
L 298.054584 118.235404 
L 292.345416 118.235404 
L 286.650155 118.633656 
L 280.996548 119.428219 
L 275.412138 120.615221 
L 269.924133 122.188881 
L 264.55927 124.141532 
L 259.343685 126.46366 
L 254.302789 129.143952 
L 249.461139 132.169351 
L 244.842325 135.525115 
L 240.468848 139.194898 
L 236.362016 143.16082 
L 232.541837 147.403559 
L 229.026922 151.902445 
L 225.834396 156.63556 
L 222.979812 161.579845 
L 220.477077 166.711211 
L 218.338385 172.00466 
L 216.574155 177.434402 
L 215.192982 182.973983 
L 214.201595 188.596417 
L 213.604825 194.27431 
L 213.405578 199.98 
L 213.604825 205.68569 
L 214.201595 211.363583 
L 215.192982 216.986017 
L 216.574155 222.525598 
L 218.338385 227.95534 
L 220.477077 233.248789 
L 222.979812 238.380155 
L 225.834396 243.32444 
L 229.026922 248.057555 
L 232.541837 252.556441 
L 236.362016 256.79918 
L 240.468848 260.765102 
L 244.842325 264.434885 
L 249.461139 267.790649 
L 254.302789 270.816048 
L 259.343685 273.49634 
L 264.55927 275.818468 
L 269.924133 277.771119 
L 275.412138 279.344779 
L 280.996548 280.531781 
L 286.650155 281.326344 
L 292.345416 281.724596 
L 298.054584 281.724596 
L 303.749845 281.326344 
L 309.403452 280.531781 
L 314.987862 279.344779 
L 320.475867 277.771119 
L 325.84073 275.818468 
L 331.056315 273.49634 
L 336.097211 270.816048 
L 340.938861 267.790649 
L 345.557675 264.434885 
L 349.931152 260.765102 
L 354.037984 256.79918 
L 357.858163 252.556441 
L 361.373078 248.057555 
L 364.565604 243.32444 
L 367.420188 238.380155 
L 369.922923 233.248789 
L 372.061615 227.95534 
L 373.825845 222.525598 
L 375.207018 216.986017 
L 376.198405 211.363583 
L 376.795175 205.68569 
L 376.994422 199.98 
L 376.994422 199.98 
" style="fill:none;stroke:#ffffff;stroke-linecap:round;"/>
     </g>
     <g id="text_11">
      <!-- 0.06 -->
      <defs>
       <path d="M 49.75 54.046875 
L 41.015625 53.375 
Q 39.84375 58.546875 37.703125 60.890625 
Q 34.125 64.65625 28.90625 64.65625 
Q 24.703125 64.65625 21.53125 62.3125 
Q 17.390625 59.28125 14.984375 53.46875 
Q 12.59375 47.65625 12.5 36.921875 
Q 15.671875 41.75 20.265625 44.09375 
Q 24.859375 46.4375 29.890625 46.4375 
Q 38.671875 46.4375 44.84375 39.96875 
Q 51.03125 33.5 51.03125 23.25 
Q 51.03125 16.5 48.125 10.71875 
Q 45.21875 4.9375 40.140625 1.859375 
Q 35.0625 -1.21875 28.609375 -1.21875 
Q 17.625 -1.21875 10.6875 6.859375 
Q 3.765625 14.9375 3.765625 33.5 
Q 3.765625 54.25 11.421875 63.671875 
Q 18.109375 71.875 29.4375 71.875 
Q 37.890625 71.875 43.28125 67.140625 
Q 48.6875 62.40625 49.75 54.046875 
z
M 13.875 23.1875 
Q 13.875 18.65625 15.796875 14.5 
Q 17.71875 10.359375 21.1875 8.171875 
Q 24.65625 6 28.46875 6 
Q 34.03125 6 38.03125 10.484375 
Q 42.046875 14.984375 42.046875 22.703125 
Q 42.046875 30.125 38.078125 34.390625 
Q 34.125 38.671875 28.125 38.671875 
Q 22.171875 38.671875 18.015625 34.390625 
Q 13.875 30.125 13.875 23.1875 
z
" id="ArialMT-54"/>
      </defs>
      <g style="fill:#262626;" transform="translate(370.768193 166.69113)scale(0.1 -0.1)">
       <use xlink:href="#ArialMT-48"/>
       <use x="55.615234" xlink:href="#ArialMT-46"/>
       <use x="83.398438" xlink:href="#ArialMT-48"/>
       <use x="139.013672" xlink:href="#ArialMT-54"/>
      </g>
     </g>
    </g>
    <g id="ytick_4">
     <g id="line2d_12">
      <path clip-path="url(#p9a48a44d36)" d="M 404.25923 199.98 
L 404.192794 196.173888 
L 403.993567 192.372413 
L 403.661792 188.580206 
L 403.197873 184.801889 
L 402.602375 181.042063 
L 401.876024 177.305311 
L 401.019705 173.596184 
L 400.03446 169.919202 
L 398.921491 166.278845 
L 397.682154 162.679547 
L 396.317957 159.125693 
L 394.830564 155.621615 
L 393.221787 152.17158 
L 391.493585 148.779793 
L 389.648064 145.450385 
L 387.687472 142.187413 
L 385.614199 138.994853 
L 383.43077 135.876593 
L 381.139846 132.836434 
L 378.744217 129.878078 
L 376.246802 127.005131 
L 373.650645 124.221093 
L 370.958907 121.529355 
L 368.174869 118.933198 
L 365.301922 116.435783 
L 362.343566 114.040154 
L 359.303407 111.74923 
L 356.185147 109.565801 
L 352.992587 107.492528 
L 349.729615 105.531936 
L 346.400207 103.686415 
L 343.00842 101.958213 
L 339.558385 100.349436 
L 336.054307 98.862043 
L 332.500453 97.497846 
L 328.901155 96.258509 
L 325.260798 95.14554 
L 321.583816 94.160295 
L 317.874689 93.303976 
L 314.137937 92.577625 
L 310.378111 91.982127 
L 306.599794 91.518208 
L 302.807587 91.186433 
L 299.006112 90.987206 
L 295.2 90.92077 
L 291.393888 90.987206 
L 287.592413 91.186433 
L 283.800206 91.518208 
L 280.021889 91.982127 
L 276.262063 92.577625 
L 272.525311 93.303976 
L 268.816184 94.160295 
L 265.139202 95.14554 
L 261.498845 96.258509 
L 257.899547 97.497846 
L 254.345693 98.862043 
L 250.841615 100.349436 
L 247.39158 101.958213 
L 243.999793 103.686415 
L 240.670385 105.531936 
L 237.407413 107.492528 
L 234.214853 109.565801 
L 231.096593 111.74923 
L 228.056434 114.040154 
L 225.098078 116.435783 
L 222.225131 118.933198 
L 219.441093 121.529355 
L 216.749355 124.221093 
L 214.153198 127.005131 
L 211.655783 129.878078 
L 209.260154 132.836434 
L 206.96923 135.876593 
L 204.785801 138.994853 
L 202.712528 142.187413 
L 200.751936 145.450385 
L 198.906415 148.779793 
L 197.178213 152.17158 
L 195.569436 155.621615 
L 194.082043 159.125693 
L 192.717846 162.679547 
L 191.478509 166.278845 
L 190.36554 169.919202 
L 189.380295 173.596184 
L 188.523976 177.305311 
L 187.797625 181.042063 
L 187.202127 184.801889 
L 186.738208 188.580206 
L 186.406433 192.372413 
L 186.207206 196.173888 
L 186.14077 199.98 
L 186.207206 203.786112 
L 186.406433 207.587587 
L 186.738208 211.379794 
L 187.202127 215.158111 
L 187.797625 218.917937 
L 188.523976 222.654689 
L 189.380295 226.363816 
L 190.36554 230.040798 
L 191.478509 233.681155 
L 192.717846 237.280453 
L 194.082043 240.834307 
L 195.569436 244.338385 
L 197.178213 247.78842 
L 198.906415 251.180207 
L 200.751936 254.509615 
L 202.712528 257.772587 
L 204.785801 260.965147 
L 206.96923 264.083407 
L 209.260154 267.123566 
L 211.655783 270.081922 
L 214.153198 272.954869 
L 216.749355 275.738907 
L 219.441093 278.430645 
L 222.225131 281.026802 
L 225.098078 283.524217 
L 228.056434 285.919846 
L 231.096593 288.21077 
L 234.214853 290.394199 
L 237.407413 292.467472 
L 240.670385 294.428064 
L 243.999793 296.273585 
L 247.39158 298.001787 
L 250.841615 299.610564 
L 254.345693 301.097957 
L 257.899547 302.462154 
L 261.498845 303.701491 
L 265.139202 304.81446 
L 268.816184 305.799705 
L 272.525311 306.656024 
L 276.262063 307.382375 
L 280.021889 307.977873 
L 283.800206 308.441792 
L 287.592413 308.773567 
L 291.393888 308.972794 
L 295.2 309.03923 
L 299.006112 308.972794 
L 302.807587 308.773567 
L 306.599794 308.441792 
L 310.378111 307.977873 
L 314.137937 307.382375 
L 317.874689 306.656024 
L 321.583816 305.799705 
L 325.260798 304.81446 
L 328.901155 303.701491 
L 332.500453 302.462154 
L 336.054307 301.097957 
L 339.558385 299.610564 
L 343.00842 298.001787 
L 346.400207 296.273585 
L 349.729615 294.428064 
L 352.992587 292.467472 
L 356.185147 290.394199 
L 359.303407 288.21077 
L 362.343566 285.919846 
L 365.301922 283.524217 
L 368.174869 281.026802 
L 370.958907 278.430645 
L 373.650645 275.738907 
L 376.246802 272.954869 
L 378.744217 270.081922 
L 381.139846 267.123566 
L 383.43077 264.083407 
L 385.614199 260.965147 
L 387.687472 257.772587 
L 389.648064 254.509615 
L 391.493585 251.180207 
L 393.221787 247.78842 
L 394.830564 244.338385 
L 396.317957 240.834307 
L 397.682154 237.280453 
L 398.921491 233.681155 
L 400.03446 230.040798 
L 401.019705 226.363816 
L 401.876024 222.654689 
L 402.602375 218.917937 
L 403.197873 215.158111 
L 403.661792 211.379794 
L 403.993567 207.587587 
L 404.192794 203.786112 
L 404.25923 199.98 
L 404.25923 199.98 
" style="fill:none;stroke:#ffffff;stroke-linecap:round;"/>
     </g>
     <g id="text_12">
      <!-- 0.08 -->
      <g style="fill:#262626;" transform="translate(395.95759 156.25734)scale(0.1 -0.1)">
       <use xlink:href="#ArialMT-48"/>
       <use x="55.615234" xlink:href="#ArialMT-46"/>
       <use x="83.398438" xlink:href="#ArialMT-48"/>
       <use x="139.013672" xlink:href="#ArialMT-56"/>
      </g>
     </g>
    </g>
    <g id="ytick_5">
     <g id="line2d_13">
      <path clip-path="url(#p9a48a44d36)" d="M 431.524037 199.98 
L 431.440993 195.22236 
L 431.191959 190.470516 
L 430.77724 185.730258 
L 430.197341 181.007361 
L 429.452969 176.307579 
L 428.54503 171.636639 
L 427.474631 167.00023 
L 426.243075 162.404003 
L 424.851864 157.853556 
L 423.302692 153.354433 
L 421.597447 148.912117 
L 419.738205 144.532019 
L 417.727233 140.219475 
L 415.566981 135.979741 
L 413.26008 131.817981 
L 410.80934 127.739266 
L 408.217749 123.748566 
L 405.488463 119.850741 
L 402.624808 116.050542 
L 399.630271 112.352598 
L 396.508503 108.761414 
L 393.263306 105.281366 
L 389.898634 101.916694 
L 386.418586 98.671497 
L 382.827402 95.549729 
L 379.129458 92.555192 
L 375.329259 89.691537 
L 371.431434 86.962251 
L 367.440734 84.37066 
L 363.362019 81.91992 
L 359.200259 79.613019 
L 354.960525 77.452767 
L 350.647981 75.441795 
L 346.267883 73.582553 
L 341.825567 71.877308 
L 337.326444 70.328136 
L 332.775997 68.936925 
L 328.17977 67.705369 
L 323.543361 66.63497 
L 318.872421 65.727031 
L 314.172639 64.982659 
L 309.449742 64.40276 
L 304.709484 63.988041 
L 299.95764 63.739007 
L 295.2 63.655963 
L 290.44236 63.739007 
L 285.690516 63.988041 
L 280.950258 64.40276 
L 276.227361 64.982659 
L 271.527579 65.727031 
L 266.856639 66.63497 
L 262.22023 67.705369 
L 257.624003 68.936925 
L 253.073556 70.328136 
L 248.574433 71.877308 
L 244.132117 73.582553 
L 239.752019 75.441795 
L 235.439475 77.452767 
L 231.199741 79.613019 
L 227.037981 81.91992 
L 222.959266 84.37066 
L 218.968566 86.962251 
L 215.070741 89.691537 
L 211.270542 92.555192 
L 207.572598 95.549729 
L 203.981414 98.671497 
L 200.501366 101.916694 
L 197.136694 105.281366 
L 193.891497 108.761414 
L 190.769729 112.352598 
L 187.775192 116.050542 
L 184.911537 119.850741 
L 182.182251 123.748566 
L 179.59066 127.739266 
L 177.13992 131.817981 
L 174.833019 135.979741 
L 172.672767 140.219475 
L 170.661795 144.532019 
L 168.802553 148.912117 
L 167.097308 153.354433 
L 165.548136 157.853556 
L 164.156925 162.404003 
L 162.925369 167.00023 
L 161.85497 171.636639 
L 160.947031 176.307579 
L 160.202659 181.007361 
L 159.62276 185.730258 
L 159.208041 190.470516 
L 158.959007 195.22236 
L 158.875963 199.98 
L 158.959007 204.73764 
L 159.208041 209.489484 
L 159.62276 214.229742 
L 160.202659 218.952639 
L 160.947031 223.652421 
L 161.85497 228.323361 
L 162.925369 232.95977 
L 164.156925 237.555997 
L 165.548136 242.106444 
L 167.097308 246.605567 
L 168.802553 251.047883 
L 170.661795 255.427981 
L 172.672767 259.740525 
L 174.833019 263.980259 
L 177.13992 268.142019 
L 179.59066 272.220734 
L 182.182251 276.211434 
L 184.911537 280.109259 
L 187.775192 283.909458 
L 190.769729 287.607402 
L 193.891497 291.198586 
L 197.136694 294.678634 
L 200.501366 298.043306 
L 203.981414 301.288503 
L 207.572598 304.410271 
L 211.270542 307.404808 
L 215.070741 310.268463 
L 218.968566 312.997749 
L 222.959266 315.58934 
L 227.037981 318.04008 
L 231.199741 320.346981 
L 235.439475 322.507233 
L 239.752019 324.518205 
L 244.132117 326.377447 
L 248.574433 328.082692 
L 253.073556 329.631864 
L 257.624003 331.023075 
L 262.22023 332.254631 
L 266.856639 333.32503 
L 271.527579 334.232969 
L 276.227361 334.977341 
L 280.950258 335.55724 
L 285.690516 335.971959 
L 290.44236 336.220993 
L 295.2 336.304037 
L 299.95764 336.220993 
L 304.709484 335.971959 
L 309.449742 335.55724 
L 314.172639 334.977341 
L 318.872421 334.232969 
L 323.543361 333.32503 
L 328.17977 332.254631 
L 332.775997 331.023075 
L 337.326444 329.631864 
L 341.825567 328.082692 
L 346.267883 326.377447 
L 350.647981 324.518205 
L 354.960525 322.507233 
L 359.200259 320.346981 
L 363.362019 318.04008 
L 367.440734 315.58934 
L 371.431434 312.997749 
L 375.329259 310.268463 
L 379.129458 307.404808 
L 382.827402 304.410271 
L 386.418586 301.288503 
L 389.898634 298.043306 
L 393.263306 294.678634 
L 396.508503 291.198586 
L 399.630271 287.607402 
L 402.624808 283.909458 
L 405.488463 280.109259 
L 408.217749 276.211434 
L 410.80934 272.220734 
L 413.26008 268.142019 
L 415.566981 263.980259 
L 417.727233 259.740525 
L 419.738205 255.427981 
L 421.597447 251.047883 
L 423.302692 246.605567 
L 424.851864 242.106444 
L 426.243075 237.555997 
L 427.474631 232.95977 
L 428.54503 228.323361 
L 429.452969 223.652421 
L 430.197341 218.952639 
L 430.77724 214.229742 
L 431.191959 209.489484 
L 431.440993 204.73764 
L 431.524037 199.98 
L 431.524037 199.98 
" style="fill:none;stroke:#ffffff;stroke-linecap:round;"/>
     </g>
     <g id="text_13">
      <!-- 0.10 -->
      <g style="fill:#262626;" transform="translate(421.146988 145.823549)scale(0.1 -0.1)">
       <use xlink:href="#ArialMT-48"/>
       <use x="55.615234" xlink:href="#ArialMT-46"/>
       <use x="83.398438" xlink:href="#ArialMT-49"/>
       <use x="139.013672" xlink:href="#ArialMT-48"/>
      </g>
     </g>
    </g>
   </g>
   <g id="PathCollection_1">
    <defs>
     <path d="M 0 3.5 
C 0.928211 3.5 1.81853 3.131218 2.474874 2.474874 
C 3.131218 1.81853 3.5 0.928211 3.5 0 
C 3.5 -0.928211 3.131218 -1.81853 2.474874 -2.474874 
C 1.81853 -3.131218 0.928211 -3.5 0 -3.5 
C -0.928211 -3.5 -1.81853 -3.131218 -2.474874 -2.474874 
C -3.131218 -1.81853 -3.5 -0.928211 -3.5 0 
C -3.5 0.928211 -3.131218 1.81853 -2.474874 2.474874 
C -1.81853 3.131218 -0.928211 3.5 0 3.5 
z
" id="mf3d25347d5" style="stroke:#4c72b0;stroke-width:0.3;"/>
    </defs>
    <g clip-path="url(#p9a48a44d36)">
     <use style="fill:#4c72b0;stroke:#4c72b0;stroke-width:0.3;" x="337.568843" xlink:href="#mf3d25347d5" y="178.502565"/>
     <use style="fill:#4c72b0;stroke:#4c72b0;stroke-width:0.3;" x="382.429461" xlink:href="#mf3d25347d5" y="176.450362"/>
     <use style="fill:#4c72b0;stroke:#4c72b0;stroke-width:0.3;" x="309.941424" xlink:href="#mf3d25347d5" y="173.311251"/>
     <use style="fill:#4c72b0;stroke:#4c72b0;stroke-width:0.3;" x="240.678982" xlink:href="#mf3d25347d5" y="181.369444"/>
     <use style="fill:#4c72b0;stroke:#4c72b0;stroke-width:0.3;" x="316.967959" xlink:href="#mf3d25347d5" y="187.617921"/>
     <use style="fill:#4c72b0;stroke:#4c72b0;stroke-width:0.3;" x="283.096649" xlink:href="#mf3d25347d5" y="207.79273"/>
     <use style="fill:#4c72b0;stroke:#4c72b0;stroke-width:0.3;" x="299.622448" xlink:href="#mf3d25347d5" y="208.38719"/>
     <use style="fill:#4c72b0;stroke:#4c72b0;stroke-width:0.3;" x="300.834068" xlink:href="#mf3d25347d5" y="212.531538"/>
     <use style="fill:#4c72b0;stroke:#4c72b0;stroke-width:0.3;" x="305.803823" xlink:href="#mf3d25347d5" y="197.035845"/>
     <use style="fill:#4c72b0;stroke:#4c72b0;stroke-width:0.3;" x="294.801984" xlink:href="#mf3d25347d5" y="184.171985"/>
     <use style="fill:#4c72b0;stroke:#4c72b0;stroke-width:0.3;" x="332.231271" xlink:href="#mf3d25347d5" y="163.699624"/>
     <use style="fill:#4c72b0;stroke:#4c72b0;stroke-width:0.3;" x="318.889737" xlink:href="#mf3d25347d5" y="153.613214"/>
     <use style="fill:#4c72b0;stroke:#4c72b0;stroke-width:0.3;" x="284.046221" xlink:href="#mf3d25347d5" y="151.635439"/>
     <use style="fill:#4c72b0;stroke:#4c72b0;stroke-width:0.3;" x="284.501076" xlink:href="#mf3d25347d5" y="145.283"/>
     <use style="fill:#4c72b0;stroke:#4c72b0;stroke-width:0.3;" x="290.463674" xlink:href="#mf3d25347d5" y="160.921018"/>
     <use style="fill:#4c72b0;stroke:#4c72b0;stroke-width:0.3;" x="293.076431" xlink:href="#mf3d25347d5" y="182.573298"/>
     <use style="fill:#4c72b0;stroke:#4c72b0;stroke-width:0.3;" x="369.668901" xlink:href="#mf3d25347d5" y="159.172935"/>
     <use style="fill:#4c72b0;stroke:#4c72b0;stroke-width:0.3;" x="349.417462" xlink:href="#mf3d25347d5" y="150.354144"/>
     <use style="fill:#4c72b0;stroke:#4c72b0;stroke-width:0.3;" x="303.854159" xlink:href="#mf3d25347d5" y="146.857554"/>
     <use style="fill:#4c72b0;stroke:#4c72b0;stroke-width:0.3;" x="343.76705" xlink:href="#mf3d25347d5" y="134.863682"/>
     <use style="fill:#4c72b0;stroke:#4c72b0;stroke-width:0.3;" x="296.525885" xlink:href="#mf3d25347d5" y="149.166987"/>
     <use style="fill:#4c72b0;stroke:#4c72b0;stroke-width:0.3;" x="391.039654" xlink:href="#mf3d25347d5" y="136.151058"/>
     <use style="fill:#4c72b0;stroke:#4c72b0;stroke-width:0.3;" x="279.349873" xlink:href="#mf3d25347d5" y="147.365798"/>
     <use style="fill:#4c72b0;stroke:#4c72b0;stroke-width:0.3;" x="351.423981" xlink:href="#mf3d25347d5" y="135.232648"/>
    </g>
   </g>
   <g id="PathCollection_2">
    <defs>
     <path d="M 0 3.5 
C 0.928211 3.5 1.81853 3.131218 2.474874 2.474874 
C 3.131218 1.81853 3.5 0.928211 3.5 0 
C 3.5 -0.928211 3.131218 -1.81853 2.474874 -2.474874 
C 1.81853 -3.131218 0.928211 -3.5 0 -3.5 
C -0.928211 -3.5 -1.81853 -3.131218 -2.474874 -2.474874 
C -3.131218 -1.81853 -3.5 -0.928211 -3.5 0 
C -3.5 0.928211 -3.131218 1.81853 -2.474874 2.474874 
C -1.81853 3.131218 -0.928211 3.5 0 3.5 
z
" id="m3b313a2348" style="stroke:#55a868;stroke-width:0.3;"/>
    </defs>
    <g clip-path="url(#p9a48a44d36)">
     <use style="fill:#55a868;stroke:#55a868;stroke-width:0.3;" x="356.14742" xlink:href="#m3b313a2348" y="117.635486"/>
     <use style="fill:#55a868;stroke:#55a868;stroke-width:0.3;" x="253.482641" xlink:href="#m3b313a2348" y="126.954573"/>
     <use style="fill:#55a868;stroke:#55a868;stroke-width:0.3;" x="312.288318" xlink:href="#m3b313a2348" y="146.794775"/>
     <use style="fill:#55a868;stroke:#55a868;stroke-width:0.3;" x="308.922056" xlink:href="#m3b313a2348" y="149.261707"/>
     <use style="fill:#55a868;stroke:#55a868;stroke-width:0.3;" x="356.443071" xlink:href="#m3b313a2348" y="132.16926"/>
     <use style="fill:#55a868;stroke:#55a868;stroke-width:0.3;" x="405.965359" xlink:href="#m3b313a2348" y="113.117339"/>
     <use style="fill:#55a868;stroke:#55a868;stroke-width:0.3;" x="311.461036" xlink:href="#m3b313a2348" y="135.354422"/>
     <use style="fill:#55a868;stroke:#55a868;stroke-width:0.3;" x="279.273674" xlink:href="#m3b313a2348" y="160.268579"/>
     <use style="fill:#55a868;stroke:#55a868;stroke-width:0.3;" x="326.146647" xlink:href="#m3b313a2348" y="146.104475"/>
     <use style="fill:#55a868;stroke:#55a868;stroke-width:0.3;" x="397.867946" xlink:href="#m3b313a2348" y="139.61196"/>
     <use style="fill:#55a868;stroke:#55a868;stroke-width:0.3;" x="377.133473" xlink:href="#m3b313a2348" y="131.299182"/>
     <use style="fill:#55a868;stroke:#55a868;stroke-width:0.3;" x="351.534424" xlink:href="#m3b313a2348" y="129.28195"/>
     <use style="fill:#55a868;stroke:#55a868;stroke-width:0.3;" x="408.918084" xlink:href="#m3b313a2348" y="125.306239"/>
     <use style="fill:#55a868;stroke:#55a868;stroke-width:0.3;" x="285.31727" xlink:href="#m3b313a2348" y="130.774921"/>
     <use style="fill:#55a868;stroke:#55a868;stroke-width:0.3;" x="276.291818" xlink:href="#m3b313a2348" y="142.225118"/>
     <use style="fill:#55a868;stroke:#55a868;stroke-width:0.3;" x="299.271661" xlink:href="#m3b313a2348" y="147.311053"/>
     <use style="fill:#55a868;stroke:#55a868;stroke-width:0.3;" x="325.73831" xlink:href="#m3b313a2348" y="145.804918"/>
     <use style="fill:#55a868;stroke:#55a868;stroke-width:0.3;" x="333.188404" xlink:href="#m3b313a2348" y="151.202791"/>
     <use style="fill:#55a868;stroke:#55a868;stroke-width:0.3;" x="281.10731" xlink:href="#m3b313a2348" y="172.376296"/>
     <use style="fill:#55a868;stroke:#55a868;stroke-width:0.3;" x="338.8536" xlink:href="#m3b313a2348" y="185.143896"/>
     <use style="fill:#55a868;stroke:#55a868;stroke-width:0.3;" x="313.739917" xlink:href="#m3b313a2348" y="179.553918"/>
     <use style="fill:#55a868;stroke:#55a868;stroke-width:0.3;" x="325.80362" xlink:href="#m3b313a2348" y="162.803839"/>
     <use style="fill:#55a868;stroke:#55a868;stroke-width:0.3;" x="306.495009" xlink:href="#m3b313a2348" y="174.624921"/>
     <use style="fill:#55a868;stroke:#55a868;stroke-width:0.3;" x="302.325472" xlink:href="#m3b313a2348" y="187.023157"/>
    </g>
   </g>
   <g id="PathCollection_3">
    <defs>
     <path d="M 0 3.5 
C 0.928211 3.5 1.81853 3.131218 2.474874 2.474874 
C 3.131218 1.81853 3.5 0.928211 3.5 0 
C 3.5 -0.928211 3.131218 -1.81853 2.474874 -2.474874 
C 1.81853 -3.131218 0.928211 -3.5 0 -3.5 
C -0.928211 -3.5 -1.81853 -3.131218 -2.474874 -2.474874 
C -3.131218 -1.81853 -3.5 -0.928211 -3.5 0 
C -3.5 0.928211 -3.131218 1.81853 -2.474874 2.474874 
C -1.81853 3.131218 -0.928211 3.5 0 3.5 
z
" id="md56168f4dc" style="stroke:#c44e52;stroke-width:0.3;"/>
    </defs>
    <g clip-path="url(#p9a48a44d36)">
     <use style="fill:#c44e52;stroke:#c44e52;stroke-width:0.3;" x="258.646349" xlink:href="#md56168f4dc" y="224.488448"/>
     <use style="fill:#c44e52;stroke:#c44e52;stroke-width:0.3;" x="278.32665" xlink:href="#md56168f4dc" y="230.907544"/>
     <use style="fill:#c44e52;stroke:#c44e52;stroke-width:0.3;" x="309.273985" xlink:href="#md56168f4dc" y="227.547179"/>
     <use style="fill:#c44e52;stroke:#c44e52;stroke-width:0.3;" x="276.555272" xlink:href="#md56168f4dc" y="228.523125"/>
     <use style="fill:#c44e52;stroke:#c44e52;stroke-width:0.3;" x="289.142834" xlink:href="#md56168f4dc" y="225.80022"/>
     <use style="fill:#c44e52;stroke:#c44e52;stroke-width:0.3;" x="270.836017" xlink:href="#md56168f4dc" y="241.393267"/>
     <use style="fill:#c44e52;stroke:#c44e52;stroke-width:0.3;" x="291.261466" xlink:href="#md56168f4dc" y="236.449884"/>
     <use style="fill:#c44e52;stroke:#c44e52;stroke-width:0.3;" x="270.390229" xlink:href="#md56168f4dc" y="232.68072"/>
     <use style="fill:#c44e52;stroke:#c44e52;stroke-width:0.3;" x="257.858502" xlink:href="#md56168f4dc" y="231.270833"/>
     <use style="fill:#c44e52;stroke:#c44e52;stroke-width:0.3;" x="268.346336" xlink:href="#md56168f4dc" y="240.799764"/>
     <use style="fill:#c44e52;stroke:#c44e52;stroke-width:0.3;" x="281.095868" xlink:href="#md56168f4dc" y="232.81703"/>
     <use style="fill:#c44e52;stroke:#c44e52;stroke-width:0.3;" x="288.867458" xlink:href="#md56168f4dc" y="221.055764"/>
     <use style="fill:#c44e52;stroke:#c44e52;stroke-width:0.3;" x="272.387383" xlink:href="#md56168f4dc" y="219.284752"/>
     <use style="fill:#c44e52;stroke:#c44e52;stroke-width:0.3;" x="289.017588" xlink:href="#md56168f4dc" y="221.136041"/>
     <use style="fill:#c44e52;stroke:#c44e52;stroke-width:0.3;" x="312.120878" xlink:href="#md56168f4dc" y="226.091178"/>
     <use style="fill:#c44e52;stroke:#c44e52;stroke-width:0.3;" x="288.415942" xlink:href="#md56168f4dc" y="230.63632"/>
     <use style="fill:#c44e52;stroke:#c44e52;stroke-width:0.3;" x="292.602415" xlink:href="#md56168f4dc" y="224.372897"/>
     <use style="fill:#c44e52;stroke:#c44e52;stroke-width:0.3;" x="205.524733" xlink:href="#md56168f4dc" y="246.458926"/>
     <use style="fill:#c44e52;stroke:#c44e52;stroke-width:0.3;" x="171.14478" xlink:href="#md56168f4dc" y="250.698493"/>
     <use style="fill:#c44e52;stroke:#c44e52;stroke-width:0.3;" x="259.417493" xlink:href="#md56168f4dc" y="249.130664"/>
     <use style="fill:#c44e52;stroke:#c44e52;stroke-width:0.3;" x="192.600404" xlink:href="#md56168f4dc" y="254.450318"/>
     <use style="fill:#c44e52;stroke:#c44e52;stroke-width:0.3;" x="344.827673" xlink:href="#md56168f4dc" y="239.114226"/>
     <use style="fill:#c44e52;stroke:#c44e52;stroke-width:0.3;" x="253.798125" xlink:href="#md56168f4dc" y="249.340508"/>
     <use style="fill:#c44e52;stroke:#c44e52;stroke-width:0.3;" x="205.714043" xlink:href="#md56168f4dc" y="265.348082"/>
    </g>
   </g>
   <g id="line2d_14">
    <path clip-path="url(#p9a48a44d36)" d="M 295.2 199.98 
L 342.948535 62.855541 
" style="fill:none;stroke:#ff0000;stroke-dasharray:7.4,3.2;stroke-dashoffset:0;stroke-width:2;"/>
   </g>
   <g id="patch_3">
    <path d="M 447.66 199.98 
C 447.66 179.959136 443.716326 160.13295 436.054674 141.636084 
C 428.393021 123.139218 417.162388 106.331389 403.0055 92.1745 
C 388.848611 78.017612 372.040782 66.786979 353.543916 59.125326 
C 335.04705 51.463674 315.220864 47.52 295.2 47.52 
C 275.179136 47.52 255.35295 51.463674 236.856084 59.125326 
C 218.359218 66.786979 201.551389 78.017612 187.3945 92.1745 
C 173.237612 106.331389 162.006979 123.139218 154.345326 141.636084 
C 146.683674 160.13295 142.74 179.959136 142.74 199.98 
C 142.74 220.000864 146.683674 239.82705 154.345326 258.323916 
C 162.006979 276.820782 173.237612 293.628611 187.3945 307.7855 
C 201.551389 321.942388 218.359218 333.173021 236.856084 340.834674 
C 255.35295 348.496326 275.179136 352.44 295.2 352.44 
C 315.220864 352.44 335.04705 348.496326 353.543916 340.834674 
C 372.040782 333.173021 388.848611 321.942388 403.0055 307.7855 
C 417.162388 293.628611 428.393021 276.820782 436.054674 258.323916 
C 443.716326 239.82705 447.66 220.000864 447.66 199.98 
" style="fill:none;"/>
   </g>
   <g id="text_14">
    <!-- Distribution of projected eye movement velocity on the screen - NewM1_9_35 -->
    <defs>
     <path d="M 7.71875 0 
L 7.71875 71.578125 
L 32.375 71.578125 
Q 40.71875 71.578125 45.125 70.5625 
Q 51.265625 69.140625 55.609375 65.4375 
Q 61.28125 60.640625 64.078125 53.1875 
Q 66.890625 45.75 66.890625 36.1875 
Q 66.890625 28.03125 64.984375 21.734375 
Q 63.09375 15.4375 60.109375 11.296875 
Q 57.125 7.171875 53.578125 4.796875 
Q 50.046875 2.4375 45.046875 1.21875 
Q 40.046875 0 33.546875 0 
z
M 17.1875 8.453125 
L 32.46875 8.453125 
Q 39.546875 8.453125 43.578125 9.765625 
Q 47.609375 11.078125 50 13.484375 
Q 53.375 16.84375 55.25 22.53125 
Q 57.125 28.21875 57.125 36.328125 
Q 57.125 47.5625 53.4375 53.59375 
Q 49.75 59.625 44.484375 61.671875 
Q 40.671875 63.140625 32.234375 63.140625 
L 17.1875 63.140625 
z
" id="ArialMT-68"/>
     <path d="M 6.640625 61.46875 
L 6.640625 71.578125 
L 15.4375 71.578125 
L 15.4375 61.46875 
z
M 6.640625 0 
L 6.640625 51.859375 
L 15.4375 51.859375 
L 15.4375 0 
z
" id="ArialMT-105"/>
     <path d="M 3.078125 15.484375 
L 11.765625 16.84375 
Q 12.5 11.625 15.84375 8.84375 
Q 19.1875 6.0625 25.203125 6.0625 
Q 31.25 6.0625 34.171875 8.515625 
Q 37.109375 10.984375 37.109375 14.3125 
Q 37.109375 17.28125 34.515625 19 
Q 32.71875 20.171875 25.53125 21.96875 
Q 15.875 24.421875 12.140625 26.203125 
Q 8.40625 27.984375 6.46875 31.125 
Q 4.546875 34.28125 4.546875 38.09375 
Q 4.546875 41.546875 6.125 44.5 
Q 7.71875 47.46875 10.453125 49.421875 
Q 12.5 50.921875 16.03125 51.96875 
Q 19.578125 53.03125 23.640625 53.03125 
Q 29.734375 53.03125 34.34375 51.265625 
Q 38.96875 49.515625 41.15625 46.5 
Q 43.359375 43.5 44.1875 38.484375 
L 35.59375 37.3125 
Q 35.015625 41.3125 32.203125 43.546875 
Q 29.390625 45.796875 24.265625 45.796875 
Q 18.21875 45.796875 15.625 43.796875 
Q 13.03125 41.796875 13.03125 39.109375 
Q 13.03125 37.40625 14.109375 36.03125 
Q 15.1875 34.625 17.484375 33.6875 
Q 18.796875 33.203125 25.25 31.453125 
Q 34.578125 28.953125 38.25 27.359375 
Q 41.9375 25.78125 44.03125 22.75 
Q 46.140625 19.734375 46.140625 15.234375 
Q 46.140625 10.84375 43.578125 6.953125 
Q 41.015625 3.078125 36.171875 0.953125 
Q 31.34375 -1.171875 25.25 -1.171875 
Q 15.140625 -1.171875 9.84375 3.03125 
Q 4.546875 7.234375 3.078125 15.484375 
z
" id="ArialMT-115"/>
     <path d="M 25.78125 7.859375 
L 27.046875 0.09375 
Q 23.34375 -0.6875 20.40625 -0.6875 
Q 15.625 -0.6875 12.984375 0.828125 
Q 10.359375 2.34375 9.28125 4.8125 
Q 8.203125 7.28125 8.203125 15.1875 
L 8.203125 45.015625 
L 1.765625 45.015625 
L 1.765625 51.859375 
L 8.203125 51.859375 
L 8.203125 64.703125 
L 16.9375 69.96875 
L 16.9375 51.859375 
L 25.78125 51.859375 
L 25.78125 45.015625 
L 16.9375 45.015625 
L 16.9375 14.703125 
Q 16.9375 10.9375 17.40625 9.859375 
Q 17.875 8.796875 18.921875 8.15625 
Q 19.96875 7.515625 21.921875 7.515625 
Q 23.390625 7.515625 25.78125 7.859375 
z
" id="ArialMT-116"/>
     <path d="M 6.5 0 
L 6.5 51.859375 
L 14.40625 51.859375 
L 14.40625 44 
Q 17.4375 49.515625 20 51.265625 
Q 22.5625 53.03125 25.640625 53.03125 
Q 30.078125 53.03125 34.671875 50.203125 
L 31.640625 42.046875 
Q 28.421875 43.953125 25.203125 43.953125 
Q 22.3125 43.953125 20.015625 42.21875 
Q 17.71875 40.484375 16.75 37.40625 
Q 15.28125 32.71875 15.28125 27.15625 
L 15.28125 0 
z
" id="ArialMT-114"/>
     <path d="M 14.703125 0 
L 6.546875 0 
L 6.546875 71.578125 
L 15.328125 71.578125 
L 15.328125 46.046875 
Q 20.90625 53.03125 29.546875 53.03125 
Q 34.328125 53.03125 38.59375 51.09375 
Q 42.875 49.171875 45.625 45.671875 
Q 48.390625 42.1875 49.953125 37.25 
Q 51.515625 32.328125 51.515625 26.703125 
Q 51.515625 13.375 44.921875 6.09375 
Q 38.328125 -1.171875 29.109375 -1.171875 
Q 19.921875 -1.171875 14.703125 6.5 
z
M 14.59375 26.3125 
Q 14.59375 17 17.140625 12.84375 
Q 21.296875 6.0625 28.375 6.0625 
Q 34.125 6.0625 38.328125 11.0625 
Q 42.53125 16.0625 42.53125 25.984375 
Q 42.53125 36.140625 38.5 40.96875 
Q 34.46875 45.796875 28.765625 45.796875 
Q 23 45.796875 18.796875 40.796875 
Q 14.59375 35.796875 14.59375 26.3125 
z
" id="ArialMT-98"/>
     <path d="M 40.578125 0 
L 40.578125 7.625 
Q 34.515625 -1.171875 24.125 -1.171875 
Q 19.53125 -1.171875 15.546875 0.578125 
Q 11.578125 2.34375 9.640625 5 
Q 7.71875 7.671875 6.9375 11.53125 
Q 6.390625 14.109375 6.390625 19.734375 
L 6.390625 51.859375 
L 15.1875 51.859375 
L 15.1875 23.09375 
Q 15.1875 16.21875 15.71875 13.8125 
Q 16.546875 10.359375 19.234375 8.375 
Q 21.921875 6.390625 25.875 6.390625 
Q 29.828125 6.390625 33.296875 8.421875 
Q 36.765625 10.453125 38.203125 13.9375 
Q 39.65625 17.4375 39.65625 24.078125 
L 39.65625 51.859375 
L 48.4375 51.859375 
L 48.4375 0 
z
" id="ArialMT-117"/>
     <path d="M 3.328125 25.921875 
Q 3.328125 40.328125 11.328125 47.265625 
Q 18.015625 53.03125 27.640625 53.03125 
Q 38.328125 53.03125 45.109375 46.015625 
Q 51.90625 39.015625 51.90625 26.65625 
Q 51.90625 16.65625 48.90625 10.90625 
Q 45.90625 5.171875 40.15625 2 
Q 34.421875 -1.171875 27.640625 -1.171875 
Q 16.75 -1.171875 10.03125 5.8125 
Q 3.328125 12.796875 3.328125 25.921875 
z
M 12.359375 25.921875 
Q 12.359375 15.96875 16.703125 11.015625 
Q 21.046875 6.0625 27.640625 6.0625 
Q 34.1875 6.0625 38.53125 11.03125 
Q 42.875 16.015625 42.875 26.21875 
Q 42.875 35.84375 38.5 40.796875 
Q 34.125 45.75 27.640625 45.75 
Q 21.046875 45.75 16.703125 40.8125 
Q 12.359375 35.890625 12.359375 25.921875 
z
" id="ArialMT-111"/>
     <path d="M 6.59375 0 
L 6.59375 51.859375 
L 14.5 51.859375 
L 14.5 44.484375 
Q 20.21875 53.03125 31 53.03125 
Q 35.6875 53.03125 39.625 51.34375 
Q 43.5625 49.65625 45.515625 46.921875 
Q 47.46875 44.1875 48.25 40.4375 
Q 48.734375 37.984375 48.734375 31.890625 
L 48.734375 0 
L 39.9375 0 
L 39.9375 31.546875 
Q 39.9375 36.921875 38.90625 39.578125 
Q 37.890625 42.234375 35.28125 43.8125 
Q 32.671875 45.40625 29.15625 45.40625 
Q 23.53125 45.40625 19.453125 41.84375 
Q 15.375 38.28125 15.375 28.328125 
L 15.375 0 
z
" id="ArialMT-110"/>
     <path id="ArialMT-32"/>
     <path d="M 8.6875 0 
L 8.6875 45.015625 
L 0.921875 45.015625 
L 0.921875 51.859375 
L 8.6875 51.859375 
L 8.6875 57.375 
Q 8.6875 62.59375 9.625 65.140625 
Q 10.890625 68.5625 14.078125 70.671875 
Q 17.28125 72.796875 23.046875 72.796875 
Q 26.765625 72.796875 31.25 71.921875 
L 29.9375 64.265625 
Q 27.203125 64.75 24.75 64.75 
Q 20.75 64.75 19.09375 63.03125 
Q 17.4375 61.328125 17.4375 56.640625 
L 17.4375 51.859375 
L 27.546875 51.859375 
L 27.546875 45.015625 
L 17.4375 45.015625 
L 17.4375 0 
z
" id="ArialMT-102"/>
     <path d="M 6.59375 -19.875 
L 6.59375 51.859375 
L 14.59375 51.859375 
L 14.59375 45.125 
Q 17.4375 49.078125 21 51.046875 
Q 24.5625 53.03125 29.640625 53.03125 
Q 36.28125 53.03125 41.359375 49.609375 
Q 46.4375 46.1875 49.015625 39.953125 
Q 51.609375 33.734375 51.609375 26.3125 
Q 51.609375 18.359375 48.75 11.984375 
Q 45.90625 5.609375 40.453125 2.21875 
Q 35.015625 -1.171875 29 -1.171875 
Q 24.609375 -1.171875 21.109375 0.6875 
Q 17.625 2.546875 15.375 5.375 
L 15.375 -19.875 
z
M 14.546875 25.640625 
Q 14.546875 15.625 18.59375 10.84375 
Q 22.65625 6.0625 28.421875 6.0625 
Q 34.28125 6.0625 38.453125 11.015625 
Q 42.625 15.96875 42.625 26.375 
Q 42.625 36.28125 38.546875 41.203125 
Q 34.46875 46.140625 28.8125 46.140625 
Q 23.1875 46.140625 18.859375 40.890625 
Q 14.546875 35.640625 14.546875 25.640625 
z
" id="ArialMT-112"/>
     <path d="M 6.546875 61.375 
L 6.546875 71.578125 
L 15.328125 71.578125 
L 15.328125 61.375 
z
M -4.59375 -20.125 
L -2.9375 -12.640625 
Q -0.296875 -13.328125 1.21875 -13.328125 
Q 3.90625 -13.328125 5.21875 -11.546875 
Q 6.546875 -9.765625 6.546875 -2.640625 
L 6.546875 51.859375 
L 15.328125 51.859375 
L 15.328125 -2.828125 
Q 15.328125 -12.40625 12.84375 -16.15625 
Q 9.671875 -21.046875 2.296875 -21.046875 
Q -1.265625 -21.046875 -4.59375 -20.125 
z
" id="ArialMT-106"/>
     <path d="M 42.09375 16.703125 
L 51.171875 15.578125 
Q 49.03125 7.625 43.21875 3.21875 
Q 37.40625 -1.171875 28.375 -1.171875 
Q 17 -1.171875 10.328125 5.828125 
Q 3.65625 12.84375 3.65625 25.484375 
Q 3.65625 38.578125 10.390625 45.796875 
Q 17.140625 53.03125 27.875 53.03125 
Q 38.28125 53.03125 44.875 45.953125 
Q 51.46875 38.875 51.46875 26.03125 
Q 51.46875 25.25 51.421875 23.6875 
L 12.75 23.6875 
Q 13.234375 15.140625 17.578125 10.59375 
Q 21.921875 6.0625 28.421875 6.0625 
Q 33.25 6.0625 36.671875 8.59375 
Q 40.09375 11.140625 42.09375 16.703125 
z
M 13.234375 30.90625 
L 42.1875 30.90625 
Q 41.609375 37.453125 38.875 40.71875 
Q 34.671875 45.796875 27.984375 45.796875 
Q 21.921875 45.796875 17.796875 41.75 
Q 13.671875 37.703125 13.234375 30.90625 
z
" id="ArialMT-101"/>
     <path d="M 40.4375 19 
L 49.078125 17.875 
Q 47.65625 8.9375 41.8125 3.875 
Q 35.984375 -1.171875 27.484375 -1.171875 
Q 16.84375 -1.171875 10.375 5.78125 
Q 3.90625 12.75 3.90625 25.734375 
Q 3.90625 34.125 6.6875 40.421875 
Q 9.46875 46.734375 15.15625 49.875 
Q 20.84375 53.03125 27.546875 53.03125 
Q 35.984375 53.03125 41.359375 48.75 
Q 46.734375 44.484375 48.25 36.625 
L 39.703125 35.296875 
Q 38.484375 40.53125 35.375 43.15625 
Q 32.28125 45.796875 27.875 45.796875 
Q 21.234375 45.796875 17.078125 41.03125 
Q 12.9375 36.28125 12.9375 25.984375 
Q 12.9375 15.53125 16.9375 10.796875 
Q 20.953125 6.0625 27.390625 6.0625 
Q 32.5625 6.0625 36.03125 9.234375 
Q 39.5 12.40625 40.4375 19 
z
" id="ArialMT-99"/>
     <path d="M 40.234375 0 
L 40.234375 6.546875 
Q 35.296875 -1.171875 25.734375 -1.171875 
Q 19.53125 -1.171875 14.328125 2.25 
Q 9.125 5.671875 6.265625 11.796875 
Q 3.421875 17.921875 3.421875 25.875 
Q 3.421875 33.640625 6 39.96875 
Q 8.59375 46.296875 13.765625 49.65625 
Q 18.953125 53.03125 25.34375 53.03125 
Q 30.03125 53.03125 33.6875 51.046875 
Q 37.359375 49.078125 39.65625 45.90625 
L 39.65625 71.578125 
L 48.390625 71.578125 
L 48.390625 0 
z
M 12.453125 25.875 
Q 12.453125 15.921875 16.640625 10.984375 
Q 20.84375 6.0625 26.5625 6.0625 
Q 32.328125 6.0625 36.34375 10.765625 
Q 40.375 15.484375 40.375 25.140625 
Q 40.375 35.796875 36.265625 40.765625 
Q 32.171875 45.75 26.171875 45.75 
Q 20.3125 45.75 16.375 40.96875 
Q 12.453125 36.1875 12.453125 25.875 
z
" id="ArialMT-100"/>
     <path d="M 6.203125 -19.96875 
L 5.21875 -11.71875 
Q 8.109375 -12.5 10.25 -12.5 
Q 13.1875 -12.5 14.9375 -11.515625 
Q 16.703125 -10.546875 17.828125 -8.796875 
Q 18.65625 -7.46875 20.515625 -2.25 
Q 20.75 -1.515625 21.296875 -0.09375 
L 1.609375 51.859375 
L 11.078125 51.859375 
L 21.875 21.828125 
Q 23.96875 16.109375 25.640625 9.8125 
Q 27.15625 15.875 29.25 21.625 
L 40.328125 51.859375 
L 49.125 51.859375 
L 29.390625 -0.875 
Q 26.21875 -9.421875 24.46875 -12.640625 
Q 22.125 -17 19.09375 -19.015625 
Q 16.0625 -21.046875 11.859375 -21.046875 
Q 9.328125 -21.046875 6.203125 -19.96875 
z
" id="ArialMT-121"/>
     <path d="M 6.59375 0 
L 6.59375 51.859375 
L 14.453125 51.859375 
L 14.453125 44.578125 
Q 16.890625 48.390625 20.9375 50.703125 
Q 25 53.03125 30.171875 53.03125 
Q 35.9375 53.03125 39.625 50.640625 
Q 43.3125 48.25 44.828125 43.953125 
Q 50.984375 53.03125 60.84375 53.03125 
Q 68.5625 53.03125 72.703125 48.75 
Q 76.859375 44.484375 76.859375 35.59375 
L 76.859375 0 
L 68.109375 0 
L 68.109375 32.671875 
Q 68.109375 37.9375 67.25 40.25 
Q 66.40625 42.578125 64.15625 43.984375 
Q 61.921875 45.40625 58.890625 45.40625 
Q 53.421875 45.40625 49.796875 41.765625 
Q 46.1875 38.140625 46.1875 30.125 
L 46.1875 0 
L 37.40625 0 
L 37.40625 33.6875 
Q 37.40625 39.546875 35.25 42.46875 
Q 33.109375 45.40625 28.21875 45.40625 
Q 24.515625 45.40625 21.359375 43.453125 
Q 18.21875 41.5 16.796875 37.734375 
Q 15.375 33.984375 15.375 26.90625 
L 15.375 0 
z
" id="ArialMT-109"/>
     <path d="M 21 0 
L 1.265625 51.859375 
L 10.546875 51.859375 
L 21.6875 20.796875 
Q 23.484375 15.765625 25 10.359375 
Q 26.171875 14.453125 28.265625 20.21875 
L 39.796875 51.859375 
L 48.828125 51.859375 
L 29.203125 0 
z
" id="ArialMT-118"/>
     <path d="M 6.390625 0 
L 6.390625 71.578125 
L 15.1875 71.578125 
L 15.1875 0 
z
" id="ArialMT-108"/>
     <path d="M 6.59375 0 
L 6.59375 71.578125 
L 15.375 71.578125 
L 15.375 45.90625 
Q 21.53125 53.03125 30.90625 53.03125 
Q 36.671875 53.03125 40.921875 50.75 
Q 45.171875 48.484375 47 44.484375 
Q 48.828125 40.484375 48.828125 32.859375 
L 48.828125 0 
L 40.046875 0 
L 40.046875 32.859375 
Q 40.046875 39.453125 37.1875 42.453125 
Q 34.328125 45.453125 29.109375 45.453125 
Q 25.203125 45.453125 21.75 43.421875 
Q 18.3125 41.40625 16.84375 37.9375 
Q 15.375 34.46875 15.375 28.375 
L 15.375 0 
z
" id="ArialMT-104"/>
     <path d="M 3.171875 21.484375 
L 3.171875 30.328125 
L 30.171875 30.328125 
L 30.171875 21.484375 
z
" id="ArialMT-45"/>
     <path d="M 7.625 0 
L 7.625 71.578125 
L 17.328125 71.578125 
L 54.9375 15.375 
L 54.9375 71.578125 
L 64.015625 71.578125 
L 64.015625 0 
L 54.296875 0 
L 16.703125 56.25 
L 16.703125 0 
z
" id="ArialMT-78"/>
     <path d="M 16.15625 0 
L 0.296875 51.859375 
L 9.375 51.859375 
L 17.625 21.921875 
L 20.703125 10.796875 
Q 20.90625 11.625 23.390625 21.484375 
L 31.640625 51.859375 
L 40.671875 51.859375 
L 48.4375 21.78125 
L 51.03125 11.859375 
L 54 21.875 
L 62.890625 51.859375 
L 71.4375 51.859375 
L 55.21875 0 
L 46.09375 0 
L 37.84375 31.0625 
L 35.84375 39.890625 
L 25.34375 0 
z
" id="ArialMT-119"/>
     <path d="M 7.421875 0 
L 7.421875 71.578125 
L 21.6875 71.578125 
L 38.625 20.90625 
Q 40.96875 13.8125 42.046875 10.296875 
Q 43.265625 14.203125 45.84375 21.78125 
L 62.984375 71.578125 
L 75.734375 71.578125 
L 75.734375 0 
L 66.609375 0 
L 66.609375 59.90625 
L 45.796875 0 
L 37.25 0 
L 16.546875 60.9375 
L 16.546875 0 
z
" id="ArialMT-77"/>
     <path d="M -1.515625 -19.875 
L -1.515625 -13.53125 
L 56.734375 -13.53125 
L 56.734375 -19.875 
z
" id="ArialMT-95"/>
    </defs>
    <g style="fill:#262626;" transform="translate(89.110313 23.748375)scale(0.12 -0.12)">
     <use xlink:href="#ArialMT-68"/>
     <use x="72.216797" xlink:href="#ArialMT-105"/>
     <use x="94.433594" xlink:href="#ArialMT-115"/>
     <use x="144.433594" xlink:href="#ArialMT-116"/>
     <use x="172.216797" xlink:href="#ArialMT-114"/>
     <use x="205.517578" xlink:href="#ArialMT-105"/>
     <use x="227.734375" xlink:href="#ArialMT-98"/>
     <use x="283.349609" xlink:href="#ArialMT-117"/>
     <use x="338.964844" xlink:href="#ArialMT-116"/>
     <use x="366.748047" xlink:href="#ArialMT-105"/>
     <use x="388.964844" xlink:href="#ArialMT-111"/>
     <use x="444.580078" xlink:href="#ArialMT-110"/>
     <use x="500.195312" xlink:href="#ArialMT-32"/>
     <use x="527.978516" xlink:href="#ArialMT-111"/>
     <use x="583.59375" xlink:href="#ArialMT-102"/>
     <use x="611.376953" xlink:href="#ArialMT-32"/>
     <use x="639.160156" xlink:href="#ArialMT-112"/>
     <use x="694.775391" xlink:href="#ArialMT-114"/>
     <use x="728.076172" xlink:href="#ArialMT-111"/>
     <use x="783.691406" xlink:href="#ArialMT-106"/>
     <use x="805.908203" xlink:href="#ArialMT-101"/>
     <use x="861.523438" xlink:href="#ArialMT-99"/>
     <use x="911.523438" xlink:href="#ArialMT-116"/>
     <use x="939.306641" xlink:href="#ArialMT-101"/>
     <use x="994.921875" xlink:href="#ArialMT-100"/>
     <use x="1050.537109" xlink:href="#ArialMT-32"/>
     <use x="1078.320312" xlink:href="#ArialMT-101"/>
     <use x="1133.935547" xlink:href="#ArialMT-121"/>
     <use x="1183.935547" xlink:href="#ArialMT-101"/>
     <use x="1239.550781" xlink:href="#ArialMT-32"/>
     <use x="1267.333984" xlink:href="#ArialMT-109"/>
     <use x="1350.634766" xlink:href="#ArialMT-111"/>
     <use x="1406.25" xlink:href="#ArialMT-118"/>
     <use x="1456.25" xlink:href="#ArialMT-101"/>
     <use x="1511.865234" xlink:href="#ArialMT-109"/>
     <use x="1595.166016" xlink:href="#ArialMT-101"/>
     <use x="1650.78125" xlink:href="#ArialMT-110"/>
     <use x="1706.396484" xlink:href="#ArialMT-116"/>
     <use x="1734.179688" xlink:href="#ArialMT-32"/>
     <use x="1761.962891" xlink:href="#ArialMT-118"/>
     <use x="1811.962891" xlink:href="#ArialMT-101"/>
     <use x="1867.578125" xlink:href="#ArialMT-108"/>
     <use x="1889.794922" xlink:href="#ArialMT-111"/>
     <use x="1945.410156" xlink:href="#ArialMT-99"/>
     <use x="1995.410156" xlink:href="#ArialMT-105"/>
     <use x="2017.626953" xlink:href="#ArialMT-116"/>
     <use x="2045.410156" xlink:href="#ArialMT-121"/>
     <use x="2095.410156" xlink:href="#ArialMT-32"/>
     <use x="2123.193359" xlink:href="#ArialMT-111"/>
     <use x="2178.808594" xlink:href="#ArialMT-110"/>
     <use x="2234.423828" xlink:href="#ArialMT-32"/>
     <use x="2262.207031" xlink:href="#ArialMT-116"/>
     <use x="2289.990234" xlink:href="#ArialMT-104"/>
     <use x="2345.605469" xlink:href="#ArialMT-101"/>
     <use x="2401.220703" xlink:href="#ArialMT-32"/>
     <use x="2429.003906" xlink:href="#ArialMT-115"/>
     <use x="2479.003906" xlink:href="#ArialMT-99"/>
     <use x="2529.003906" xlink:href="#ArialMT-114"/>
     <use x="2562.304688" xlink:href="#ArialMT-101"/>
     <use x="2617.919922" xlink:href="#ArialMT-101"/>
     <use x="2673.535156" xlink:href="#ArialMT-110"/>
     <use x="2729.150391" xlink:href="#ArialMT-32"/>
     <use x="2756.933594" xlink:href="#ArialMT-45"/>
     <use x="2790.234375" xlink:href="#ArialMT-32"/>
     <use x="2818.017578" xlink:href="#ArialMT-78"/>
     <use x="2890.234375" xlink:href="#ArialMT-101"/>
     <use x="2945.849609" xlink:href="#ArialMT-119"/>
     <use x="3018.066406" xlink:href="#ArialMT-77"/>
     <use x="3101.367188" xlink:href="#ArialMT-49"/>
     <use x="3156.982422" xlink:href="#ArialMT-95"/>
     <use x="3212.597656" xlink:href="#ArialMT-57"/>
     <use x="3268.212891" xlink:href="#ArialMT-95"/>
     <use x="3323.828125" xlink:href="#ArialMT-51"/>
     <use x="3379.443359" xlink:href="#ArialMT-53"/>
    </g>
   </g>
   <g id="legend_1">
    <g id="line2d_15">
     <path d="M 200.596875 60.2075 
L 220.596875 60.2075 
" style="fill:none;stroke:#ff0000;stroke-dasharray:7.4,3.2;stroke-dashoffset:0;stroke-width:2;"/>
    </g>
    <g id="line2d_16"/>
    <g id="text_15">
     <!-- Average angle in dark: 70.8 degrees -->
     <defs>
      <path d="M -0.140625 0 
L 27.34375 71.578125 
L 37.546875 71.578125 
L 66.84375 0 
L 56.0625 0 
L 47.703125 21.6875 
L 17.78125 21.6875 
L 9.90625 0 
z
M 20.515625 29.390625 
L 44.78125 29.390625 
L 37.3125 49.21875 
Q 33.890625 58.25 32.234375 64.0625 
Q 30.859375 57.171875 28.375 50.390625 
z
" id="ArialMT-65"/>
      <path d="M 40.4375 6.390625 
Q 35.546875 2.25 31.03125 0.53125 
Q 26.515625 -1.171875 21.34375 -1.171875 
Q 12.796875 -1.171875 8.203125 3 
Q 3.609375 7.171875 3.609375 13.671875 
Q 3.609375 17.484375 5.34375 20.625 
Q 7.078125 23.78125 9.890625 25.6875 
Q 12.703125 27.59375 16.21875 28.5625 
Q 18.796875 29.25 24.03125 29.890625 
Q 34.671875 31.15625 39.703125 32.90625 
Q 39.75 34.71875 39.75 35.203125 
Q 39.75 40.578125 37.25 42.78125 
Q 33.890625 45.75 27.25 45.75 
Q 21.046875 45.75 18.09375 43.578125 
Q 15.140625 41.40625 13.71875 35.890625 
L 5.125 37.0625 
Q 6.296875 42.578125 8.984375 45.96875 
Q 11.671875 49.359375 16.75 51.1875 
Q 21.828125 53.03125 28.515625 53.03125 
Q 35.15625 53.03125 39.296875 51.46875 
Q 43.453125 49.90625 45.40625 47.53125 
Q 47.359375 45.171875 48.140625 41.546875 
Q 48.578125 39.3125 48.578125 33.453125 
L 48.578125 21.734375 
Q 48.578125 9.46875 49.140625 6.21875 
Q 49.703125 2.984375 51.375 0 
L 42.1875 0 
Q 40.828125 2.734375 40.4375 6.390625 
z
M 39.703125 26.03125 
Q 34.90625 24.078125 25.34375 22.703125 
Q 19.921875 21.921875 17.671875 20.9375 
Q 15.4375 19.96875 14.203125 18.09375 
Q 12.984375 16.21875 12.984375 13.921875 
Q 12.984375 10.40625 15.640625 8.0625 
Q 18.3125 5.71875 23.4375 5.71875 
Q 28.515625 5.71875 32.46875 7.9375 
Q 36.421875 10.15625 38.28125 14.015625 
Q 39.703125 17 39.703125 22.796875 
z
" id="ArialMT-97"/>
      <path d="M 4.984375 -4.296875 
L 13.53125 -5.5625 
Q 14.0625 -9.515625 16.5 -11.328125 
Q 19.78125 -13.765625 25.4375 -13.765625 
Q 31.546875 -13.765625 34.859375 -11.328125 
Q 38.1875 -8.890625 39.359375 -4.5 
Q 40.046875 -1.8125 39.984375 6.78125 
Q 34.234375 0 25.640625 0 
Q 14.9375 0 9.078125 7.71875 
Q 3.21875 15.4375 3.21875 26.21875 
Q 3.21875 33.640625 5.90625 39.90625 
Q 8.59375 46.1875 13.6875 49.609375 
Q 18.796875 53.03125 25.6875 53.03125 
Q 34.859375 53.03125 40.828125 45.609375 
L 40.828125 51.859375 
L 48.921875 51.859375 
L 48.921875 7.03125 
Q 48.921875 -5.078125 46.453125 -10.125 
Q 44 -15.1875 38.640625 -18.109375 
Q 33.296875 -21.046875 25.484375 -21.046875 
Q 16.21875 -21.046875 10.5 -16.875 
Q 4.78125 -12.703125 4.984375 -4.296875 
z
M 12.25 26.859375 
Q 12.25 16.65625 16.296875 11.96875 
Q 20.359375 7.28125 26.46875 7.28125 
Q 32.515625 7.28125 36.609375 11.9375 
Q 40.71875 16.609375 40.71875 26.5625 
Q 40.71875 36.078125 36.5 40.90625 
Q 32.28125 45.75 26.3125 45.75 
Q 20.453125 45.75 16.34375 40.984375 
Q 12.25 36.234375 12.25 26.859375 
z
" id="ArialMT-103"/>
      <path d="M 6.640625 0 
L 6.640625 71.578125 
L 15.4375 71.578125 
L 15.4375 30.765625 
L 36.234375 51.859375 
L 47.609375 51.859375 
L 27.78125 32.625 
L 49.609375 0 
L 38.765625 0 
L 21.625 26.515625 
L 15.4375 20.5625 
L 15.4375 0 
z
" id="ArialMT-107"/>
      <path d="M 9.03125 41.84375 
L 9.03125 51.859375 
L 19.046875 51.859375 
L 19.046875 41.84375 
z
M 9.03125 0 
L 9.03125 10.015625 
L 19.046875 10.015625 
L 19.046875 0 
z
" id="ArialMT-58"/>
     </defs>
     <g style="fill:#262626;" transform="translate(228.596875 63.7075)scale(0.1 -0.1)">
      <use xlink:href="#ArialMT-65"/>
      <use x="66.683594" xlink:href="#ArialMT-118"/>
      <use x="116.683594" xlink:href="#ArialMT-101"/>
      <use x="172.298828" xlink:href="#ArialMT-114"/>
      <use x="205.599609" xlink:href="#ArialMT-97"/>
      <use x="261.214844" xlink:href="#ArialMT-103"/>
      <use x="316.830078" xlink:href="#ArialMT-101"/>
      <use x="372.445312" xlink:href="#ArialMT-32"/>
      <use x="400.228516" xlink:href="#ArialMT-97"/>
      <use x="455.84375" xlink:href="#ArialMT-110"/>
      <use x="511.458984" xlink:href="#ArialMT-103"/>
      <use x="567.074219" xlink:href="#ArialMT-108"/>
      <use x="589.291016" xlink:href="#ArialMT-101"/>
      <use x="644.90625" xlink:href="#ArialMT-32"/>
      <use x="672.689453" xlink:href="#ArialMT-105"/>
      <use x="694.90625" xlink:href="#ArialMT-110"/>
      <use x="750.521484" xlink:href="#ArialMT-32"/>
      <use x="778.304688" xlink:href="#ArialMT-100"/>
      <use x="833.919922" xlink:href="#ArialMT-97"/>
      <use x="889.535156" xlink:href="#ArialMT-114"/>
      <use x="922.835938" xlink:href="#ArialMT-107"/>
      <use x="972.835938" xlink:href="#ArialMT-58"/>
      <use x="1000.619141" xlink:href="#ArialMT-32"/>
      <use x="1028.402344" xlink:href="#ArialMT-55"/>
      <use x="1084.017578" xlink:href="#ArialMT-48"/>
      <use x="1139.632812" xlink:href="#ArialMT-46"/>
      <use x="1167.416016" xlink:href="#ArialMT-56"/>
      <use x="1223.03125" xlink:href="#ArialMT-32"/>
      <use x="1250.814453" xlink:href="#ArialMT-100"/>
      <use x="1306.429688" xlink:href="#ArialMT-101"/>
      <use x="1362.044922" xlink:href="#ArialMT-103"/>
      <use x="1417.660156" xlink:href="#ArialMT-114"/>
      <use x="1450.960938" xlink:href="#ArialMT-101"/>
      <use x="1506.576172" xlink:href="#ArialMT-101"/>
      <use x="1562.191406" xlink:href="#ArialMT-115"/>
     </g>
    </g>
    <g id="PathCollection_4">
     <g>
      <use style="fill:#4c72b0;stroke:#4c72b0;stroke-width:0.3;" x="210.596875" xlink:href="#mf3d25347d5" y="75.345"/>
     </g>
    </g>
    <g id="text_16">
     <!-- $-0.5 &lt; t &lt; 0.$ -->
     <defs>
      <path d="M 10.59375 35.5 
L 73.1875 35.5 
L 73.1875 27.203125 
L 10.59375 27.203125 
z
" id="DejaVuSans-8722"/>
      <path d="M 31.78125 66.40625 
Q 24.171875 66.40625 20.328125 58.90625 
Q 16.5 51.421875 16.5 36.375 
Q 16.5 21.390625 20.328125 13.890625 
Q 24.171875 6.390625 31.78125 6.390625 
Q 39.453125 6.390625 43.28125 13.890625 
Q 47.125 21.390625 47.125 36.375 
Q 47.125 51.421875 43.28125 58.90625 
Q 39.453125 66.40625 31.78125 66.40625 
z
M 31.78125 74.21875 
Q 44.046875 74.21875 50.515625 64.515625 
Q 56.984375 54.828125 56.984375 36.375 
Q 56.984375 17.96875 50.515625 8.265625 
Q 44.046875 -1.421875 31.78125 -1.421875 
Q 19.53125 -1.421875 13.0625 8.265625 
Q 6.59375 17.96875 6.59375 36.375 
Q 6.59375 54.828125 13.0625 64.515625 
Q 19.53125 74.21875 31.78125 74.21875 
z
" id="DejaVuSans-48"/>
      <path d="M 10.6875 12.40625 
L 21 12.40625 
L 21 0 
L 10.6875 0 
z
" id="DejaVuSans-46"/>
      <path d="M 10.796875 72.90625 
L 49.515625 72.90625 
L 49.515625 64.59375 
L 19.828125 64.59375 
L 19.828125 46.734375 
Q 21.96875 47.46875 24.109375 47.828125 
Q 26.265625 48.1875 28.421875 48.1875 
Q 40.625 48.1875 47.75 41.5 
Q 54.890625 34.8125 54.890625 23.390625 
Q 54.890625 11.625 47.5625 5.09375 
Q 40.234375 -1.421875 26.90625 -1.421875 
Q 22.3125 -1.421875 17.546875 -0.640625 
Q 12.796875 0.140625 7.71875 1.703125 
L 7.71875 11.625 
Q 12.109375 9.234375 16.796875 8.0625 
Q 21.484375 6.890625 26.703125 6.890625 
Q 35.15625 6.890625 40.078125 11.328125 
Q 45.015625 15.765625 45.015625 23.390625 
Q 45.015625 31 40.078125 35.4375 
Q 35.15625 39.890625 26.703125 39.890625 
Q 22.75 39.890625 18.8125 39.015625 
Q 14.890625 38.140625 10.796875 36.28125 
z
" id="DejaVuSans-53"/>
      <path d="M 73.1875 49.21875 
L 22.796875 31.296875 
L 73.1875 13.484375 
L 73.1875 4.59375 
L 10.59375 27.296875 
L 10.59375 35.40625 
L 73.1875 58.109375 
z
" id="DejaVuSans-60"/>
      <path d="M 42.28125 54.6875 
L 40.921875 47.703125 
L 23 47.703125 
L 17.1875 18.015625 
Q 16.890625 16.359375 16.75 15.234375 
Q 16.609375 14.109375 16.609375 13.484375 
Q 16.609375 10.359375 18.484375 8.9375 
Q 20.359375 7.515625 24.515625 7.515625 
L 33.59375 7.515625 
L 32.078125 0 
L 23.484375 0 
Q 15.484375 0 11.546875 3.125 
Q 7.625 6.25 7.625 12.59375 
Q 7.625 13.71875 7.765625 15.0625 
Q 7.90625 16.40625 8.203125 18.015625 
L 14.015625 47.703125 
L 6.390625 47.703125 
L 7.8125 54.6875 
L 15.28125 54.6875 
L 18.3125 70.21875 
L 27.296875 70.21875 
L 24.3125 54.6875 
z
" id="DejaVuSans-Oblique-116"/>
     </defs>
     <g style="fill:#262626;" transform="translate(228.596875 77.97)scale(0.1 -0.1)">
      <use transform="translate(0 0.78125)" xlink:href="#DejaVuSans-8722"/>
      <use transform="translate(83.789062 0.78125)" xlink:href="#DejaVuSans-48"/>
      <use transform="translate(147.412109 0.78125)" xlink:href="#DejaVuSans-46"/>
      <use transform="translate(179.199219 0.78125)" xlink:href="#DejaVuSans-53"/>
      <use transform="translate(262.304688 0.78125)" xlink:href="#DejaVuSans-60"/>
      <use transform="translate(365.576172 0.78125)" xlink:href="#DejaVuSans-Oblique-116"/>
      <use transform="translate(424.267578 0.78125)" xlink:href="#DejaVuSans-60"/>
      <use transform="translate(527.539062 0.78125)" xlink:href="#DejaVuSans-48"/>
     </g>
    </g>
    <g id="PathCollection_5">
     <g>
      <use style="fill:#55a868;stroke:#55a868;stroke-width:0.3;" x="210.596875" xlink:href="#m3b313a2348" y="89.490312"/>
     </g>
    </g>
    <g id="text_17">
     <!-- $0. &lt; t &lt; 0.5$ -->
     <g style="fill:#262626;" transform="translate(228.596875 92.115312)scale(0.1 -0.1)">
      <use transform="translate(0 0.78125)" xlink:href="#DejaVuSans-48"/>
      <use transform="translate(63.623047 0.78125)" xlink:href="#DejaVuSans-46"/>
      <use transform="translate(134.375 0.78125)" xlink:href="#DejaVuSans-60"/>
      <use transform="translate(237.646484 0.78125)" xlink:href="#DejaVuSans-Oblique-116"/>
      <use transform="translate(296.337891 0.78125)" xlink:href="#DejaVuSans-60"/>
      <use transform="translate(399.609375 0.78125)" xlink:href="#DejaVuSans-48"/>
      <use transform="translate(463.232422 0.78125)" xlink:href="#DejaVuSans-46"/>
      <use transform="translate(495.019531 0.78125)" xlink:href="#DejaVuSans-53"/>
     </g>
    </g>
    <g id="PathCollection_6">
     <g>
      <use style="fill:#c44e52;stroke:#c44e52;stroke-width:0.3;" x="210.596875" xlink:href="#md56168f4dc" y="103.635625"/>
     </g>
    </g>
    <g id="text_18">
     <!-- $0.5 &lt; t &lt; 1.$ -->
     <defs>
      <path d="M 12.40625 8.296875 
L 28.515625 8.296875 
L 28.515625 63.921875 
L 10.984375 60.40625 
L 10.984375 69.390625 
L 28.421875 72.90625 
L 38.28125 72.90625 
L 38.28125 8.296875 
L 54.390625 8.296875 
L 54.390625 0 
L 12.40625 0 
z
" id="DejaVuSans-49"/>
     </defs>
     <g style="fill:#262626;" transform="translate(228.596875 106.260625)scale(0.1 -0.1)">
      <use transform="translate(0 0.78125)" xlink:href="#DejaVuSans-48"/>
      <use transform="translate(63.623047 0.78125)" xlink:href="#DejaVuSans-46"/>
      <use transform="translate(95.410156 0.78125)" xlink:href="#DejaVuSans-53"/>
      <use transform="translate(178.515625 0.78125)" xlink:href="#DejaVuSans-60"/>
      <use transform="translate(281.787109 0.78125)" xlink:href="#DejaVuSans-Oblique-116"/>
      <use transform="translate(340.478516 0.78125)" xlink:href="#DejaVuSans-60"/>
      <use transform="translate(443.75 0.78125)" xlink:href="#DejaVuSans-49"/>
     </g>
    </g>
   </g>
  </g>
 </g>
 <defs>
  <clipPath id="p9a48a44d36">
   <path d="M 447.66 199.98 
C 447.66 179.959136 443.716326 160.13295 436.054674 141.636084 
C 428.393021 123.139218 417.162388 106.331389 403.0055 92.1745 
C 388.848611 78.017612 372.040782 66.786979 353.543916 59.125326 
C 335.04705 51.463674 315.220864 47.52 295.2 47.52 
C 275.179136 47.52 255.35295 51.463674 236.856084 59.125326 
C 218.359218 66.786979 201.551389 78.017612 187.3945 92.1745 
C 173.237612 106.331389 162.006979 123.139218 154.345326 141.636084 
C 146.683674 160.13295 142.74 179.959136 142.74 199.98 
C 142.74 220.000864 146.683674 239.82705 154.345326 258.323916 
C 162.006979 276.820782 173.237612 293.628611 187.3945 307.7855 
C 201.551389 321.942388 218.359218 333.173021 236.856084 340.834674 
C 255.35295 348.496326 275.179136 352.44 295.2 352.44 
C 315.220864 352.44 335.04705 348.496326 353.543916 340.834674 
C 372.040782 333.173021 388.848611 321.942388 403.0055 307.7855 
C 417.162388 293.628611 428.393021 276.820782 436.054674 258.323916 
C 443.716326 239.82705 447.66 220.000864 447.66 199.98 
M 295.2 199.98 
C 295.2 199.98 295.2 199.98 295.2 199.98 
C 295.2 199.98 295.2 199.98 295.2 199.98 
C 295.2 199.98 295.2 199.98 295.2 199.98 
C 295.2 199.98 295.2 199.98 295.2 199.98 
C 295.2 199.98 295.2 199.98 295.2 199.98 
C 295.2 199.98 295.2 199.98 295.2 199.98 
C 295.2 199.98 295.2 199.98 295.2 199.98 
C 295.2 199.98 295.2 199.98 295.2 199.98 
C 295.2 199.98 295.2 199.98 295.2 199.98 
C 295.2 199.98 295.2 199.98 295.2 199.98 
C 295.2 199.98 295.2 199.98 295.2 199.98 
C 295.2 199.98 295.2 199.98 295.2 199.98 
C 295.2 199.98 295.2 199.98 295.2 199.98 
C 295.2 199.98 295.2 199.98 295.2 199.98 
C 295.2 199.98 295.2 199.98 295.2 199.98 
C 295.2 199.98 295.2 199.98 295.2 199.98 
M 447.66 199.98 
z
"/>
  </clipPath>
 </defs>
</svg>
