<?xml version="1.0" encoding="utf-8" standalone="no"?>
<!DOCTYPE svg PUBLIC "-//W3C//DTD SVG 1.1//EN"
  "http://www.w3.org/Graphics/SVG/1.1/DTD/svg11.dtd">
<!-- Created with matplotlib (https://matplotlib.org/) -->
<svg height="396pt" version="1.1" viewBox="0 0 576 396" width="576pt" xmlns="http://www.w3.org/2000/svg" xmlns:xlink="http://www.w3.org/1999/xlink">
 <defs>
  <style type="text/css">
*{stroke-linecap:butt;stroke-linejoin:round;}
  </style>
 </defs>
 <g id="figure_1">
  <g id="patch_1">
   <path d="M 0 396 
L 576 396 
L 576 0 
L 0 0 
z
" style="fill:#ffffff;"/>
  </g>
  <g id="axes_1">
   <g id="patch_2">
    <path d="M 447.66 199.98 
C 447.66 179.959136 443.716326 160.13295 436.054674 141.636084 
C 428.393021 123.139218 417.162388 106.331389 403.0055 92.1745 
C 388.848611 78.017612 372.040782 66.786979 353.543916 59.125326 
C 335.04705 51.463674 315.220864 47.52 295.2 47.52 
C 275.179136 47.52 255.35295 51.463674 236.856084 59.125326 
C 218.359218 66.786979 201.551389 78.017612 187.3945 92.1745 
C 173.237612 106.331389 162.006979 123.139218 154.345326 141.636084 
C 146.683674 160.13295 142.74 179.959136 142.74 199.98 
C 142.74 220.000864 146.683674 239.82705 154.345326 258.323916 
C 162.006979 276.820782 173.237612 293.628611 187.3945 307.7855 
C 201.551389 321.942388 218.359218 333.173021 236.856084 340.834674 
C 255.35295 348.496326 275.179136 352.44 295.2 352.44 
C 315.220864 352.44 335.04705 348.496326 353.543916 340.834674 
C 372.040782 333.173021 388.848611 321.942388 403.0055 307.7855 
C 417.162388 293.628611 428.393021 276.820782 436.054674 258.323916 
C 443.716326 239.82705 447.66 220.000864 447.66 199.98 
M 295.2 199.98 
C 295.2 199.98 295.2 199.98 295.2 199.98 
C 295.2 199.98 295.2 199.98 295.2 199.98 
C 295.2 199.98 295.2 199.98 295.2 199.98 
C 295.2 199.98 295.2 199.98 295.2 199.98 
C 295.2 199.98 295.2 199.98 295.2 199.98 
C 295.2 199.98 295.2 199.98 295.2 199.98 
C 295.2 199.98 295.2 199.98 295.2 199.98 
C 295.2 199.98 295.2 199.98 295.2 199.98 
C 295.2 199.98 295.2 199.98 295.2 199.98 
C 295.2 199.98 295.2 199.98 295.2 199.98 
C 295.2 199.98 295.2 199.98 295.2 199.98 
C 295.2 199.98 295.2 199.98 295.2 199.98 
C 295.2 199.98 295.2 199.98 295.2 199.98 
C 295.2 199.98 295.2 199.98 295.2 199.98 
C 295.2 199.98 295.2 199.98 295.2 199.98 
C 295.2 199.98 295.2 199.98 295.2 199.98 
M 447.66 199.98 
z
" style="fill:#eaeaf2;"/>
   </g>
   <g id="matplotlib.axis_1">
    <g id="xtick_1">
     <g id="line2d_1">
      <path clip-path="url(#p7a4383e868)" d="M 295.2 199.98 
L 447.66 199.98 
" style="fill:none;stroke:#ffffff;stroke-linecap:round;"/>
     </g>
     <g id="text_1">
      <!-- 0° -->
      <defs>
       <path d="M 4.15625 35.296875 
Q 4.15625 48 6.765625 55.734375 
Q 9.375 63.484375 14.515625 67.671875 
Q 19.671875 71.875 27.484375 71.875 
Q 33.25 71.875 37.59375 69.546875 
Q 41.9375 67.234375 44.765625 62.859375 
Q 47.609375 58.5 49.21875 52.21875 
Q 50.828125 45.953125 50.828125 35.296875 
Q 50.828125 22.703125 48.234375 14.96875 
Q 45.65625 7.234375 40.5 3 
Q 35.359375 -1.21875 27.484375 -1.21875 
Q 17.140625 -1.21875 11.234375 6.203125 
Q 4.15625 15.140625 4.15625 35.296875 
z
M 13.1875 35.296875 
Q 13.1875 17.671875 17.3125 11.828125 
Q 21.4375 6 27.484375 6 
Q 33.546875 6 37.671875 11.859375 
Q 41.796875 17.71875 41.796875 35.296875 
Q 41.796875 52.984375 37.671875 58.78125 
Q 33.546875 64.59375 27.390625 64.59375 
Q 21.34375 64.59375 17.71875 59.46875 
Q 13.1875 52.9375 13.1875 35.296875 
z
" id="ArialMT-48"/>
       <path d="M 6.25 59.28125 
Q 6.25 64.890625 10.21875 68.84375 
Q 14.203125 72.796875 19.78125 72.796875 
Q 25.4375 72.796875 29.390625 68.84375 
Q 33.34375 64.890625 33.34375 59.28125 
Q 33.34375 53.65625 29.359375 49.671875 
Q 25.390625 45.703125 19.78125 45.703125 
Q 14.203125 45.703125 10.21875 49.65625 
Q 6.25 53.609375 6.25 59.28125 
z
M 11.578125 59.28125 
Q 11.578125 55.859375 13.984375 53.4375 
Q 16.40625 51.03125 19.828125 51.03125 
Q 23.1875 51.03125 25.609375 53.4375 
Q 28.03125 55.859375 28.03125 59.28125 
Q 28.03125 62.703125 25.609375 65.109375 
Q 23.1875 67.53125 19.828125 67.53125 
Q 16.40625 67.53125 13.984375 65.109375 
Q 11.578125 62.703125 11.578125 59.28125 
z
" id="ArialMT-176"/>
      </defs>
      <g style="fill:#262626;" transform="translate(456.880313 202.565156)scale(0.1 -0.1)">
       <use xlink:href="#ArialMT-48"/>
       <use x="55.615234" xlink:href="#ArialMT-176"/>
      </g>
     </g>
    </g>
    <g id="xtick_2">
     <g id="line2d_2">
      <path clip-path="url(#p7a4383e868)" d="M 295.2 199.98 
L 403.0055 92.1745 
" style="fill:none;stroke:#ffffff;stroke-linecap:round;"/>
     </g>
     <g id="text_2">
      <!-- 45° -->
      <defs>
       <path d="M 32.328125 0 
L 32.328125 17.140625 
L 1.265625 17.140625 
L 1.265625 25.203125 
L 33.9375 71.578125 
L 41.109375 71.578125 
L 41.109375 25.203125 
L 50.78125 25.203125 
L 50.78125 17.140625 
L 41.109375 17.140625 
L 41.109375 0 
z
M 32.328125 25.203125 
L 32.328125 57.46875 
L 9.90625 25.203125 
z
" id="ArialMT-52"/>
       <path d="M 4.15625 18.75 
L 13.375 19.53125 
Q 14.40625 12.796875 18.140625 9.390625 
Q 21.875 6 27.15625 6 
Q 33.5 6 37.890625 10.78125 
Q 42.28125 15.578125 42.28125 23.484375 
Q 42.28125 31 38.0625 35.34375 
Q 33.84375 39.703125 27 39.703125 
Q 22.75 39.703125 19.328125 37.765625 
Q 15.921875 35.84375 13.96875 32.765625 
L 5.71875 33.84375 
L 12.640625 70.609375 
L 48.25 70.609375 
L 48.25 62.203125 
L 19.671875 62.203125 
L 15.828125 42.96875 
Q 22.265625 47.46875 29.34375 47.46875 
Q 38.71875 47.46875 45.15625 40.96875 
Q 51.609375 34.46875 51.609375 24.265625 
Q 51.609375 14.546875 45.953125 7.46875 
Q 39.0625 -1.21875 27.15625 -1.21875 
Q 17.390625 -1.21875 11.203125 4.25 
Q 5.03125 9.71875 4.15625 18.75 
z
" id="ArialMT-53"/>
      </defs>
      <g style="fill:#262626;" transform="translate(405.344839 84.860161)scale(0.1 -0.1)">
       <use xlink:href="#ArialMT-52"/>
       <use x="55.615234" xlink:href="#ArialMT-53"/>
       <use x="111.230469" xlink:href="#ArialMT-176"/>
      </g>
     </g>
    </g>
    <g id="xtick_3">
     <g id="line2d_3">
      <path clip-path="url(#p7a4383e868)" d="M 295.2 199.98 
L 295.2 47.52 
" style="fill:none;stroke:#ffffff;stroke-linecap:round;"/>
     </g>
     <g id="text_3">
      <!-- 90° -->
      <defs>
       <path d="M 5.46875 16.546875 
L 13.921875 17.328125 
Q 14.984375 11.375 18.015625 8.6875 
Q 21.046875 6 25.78125 6 
Q 29.828125 6 32.875 7.859375 
Q 35.9375 9.71875 37.890625 12.8125 
Q 39.84375 15.921875 41.15625 21.1875 
Q 42.484375 26.46875 42.484375 31.9375 
Q 42.484375 32.515625 42.4375 33.6875 
Q 39.796875 29.5 35.234375 26.875 
Q 30.671875 24.265625 25.34375 24.265625 
Q 16.453125 24.265625 10.296875 30.703125 
Q 4.15625 37.15625 4.15625 47.703125 
Q 4.15625 58.59375 10.578125 65.234375 
Q 17 71.875 26.65625 71.875 
Q 33.640625 71.875 39.421875 68.109375 
Q 45.21875 64.359375 48.21875 57.390625 
Q 51.21875 50.4375 51.21875 37.25 
Q 51.21875 23.53125 48.234375 15.40625 
Q 45.265625 7.28125 39.375 3.03125 
Q 33.5 -1.21875 25.59375 -1.21875 
Q 17.1875 -1.21875 11.859375 3.4375 
Q 6.546875 8.109375 5.46875 16.546875 
z
M 41.453125 48.140625 
Q 41.453125 55.71875 37.421875 60.15625 
Q 33.40625 64.59375 27.734375 64.59375 
Q 21.875 64.59375 17.53125 59.8125 
Q 13.1875 55.03125 13.1875 47.40625 
Q 13.1875 40.578125 17.3125 36.296875 
Q 21.4375 32.03125 27.484375 32.03125 
Q 33.59375 32.03125 37.515625 36.296875 
Q 41.453125 40.578125 41.453125 48.140625 
z
" id="ArialMT-57"/>
      </defs>
      <g style="fill:#262626;" transform="translate(287.639844 36.105156)scale(0.1 -0.1)">
       <use xlink:href="#ArialMT-57"/>
       <use x="55.615234" xlink:href="#ArialMT-48"/>
       <use x="111.230469" xlink:href="#ArialMT-176"/>
      </g>
     </g>
    </g>
    <g id="xtick_4">
     <g id="line2d_4">
      <path clip-path="url(#p7a4383e868)" d="M 295.2 199.98 
L 187.3945 92.1745 
" style="fill:none;stroke:#ffffff;stroke-linecap:round;"/>
     </g>
     <g id="text_4">
      <!-- 135° -->
      <defs>
       <path d="M 37.25 0 
L 28.46875 0 
L 28.46875 56 
Q 25.296875 52.984375 20.140625 49.953125 
Q 14.984375 46.921875 10.890625 45.40625 
L 10.890625 53.90625 
Q 18.265625 57.375 23.78125 62.296875 
Q 29.296875 67.234375 31.59375 71.875 
L 37.25 71.875 
z
" id="ArialMT-49"/>
       <path d="M 4.203125 18.890625 
L 12.984375 20.0625 
Q 14.5 12.59375 18.140625 9.296875 
Q 21.78125 6 27 6 
Q 33.203125 6 37.46875 10.296875 
Q 41.75 14.59375 41.75 20.953125 
Q 41.75 27 37.796875 30.921875 
Q 33.84375 34.859375 27.734375 34.859375 
Q 25.25 34.859375 21.53125 33.890625 
L 22.515625 41.609375 
Q 23.390625 41.5 23.921875 41.5 
Q 29.546875 41.5 34.03125 44.421875 
Q 38.53125 47.359375 38.53125 53.46875 
Q 38.53125 58.296875 35.25 61.46875 
Q 31.984375 64.65625 26.8125 64.65625 
Q 21.6875 64.65625 18.265625 61.421875 
Q 14.84375 58.203125 13.875 51.765625 
L 5.078125 53.328125 
Q 6.6875 62.15625 12.390625 67.015625 
Q 18.109375 71.875 26.609375 71.875 
Q 32.46875 71.875 37.390625 69.359375 
Q 42.328125 66.84375 44.9375 62.5 
Q 47.5625 58.15625 47.5625 53.265625 
Q 47.5625 48.640625 45.0625 44.828125 
Q 42.578125 41.015625 37.703125 38.765625 
Q 44.046875 37.3125 47.5625 32.6875 
Q 51.078125 28.078125 51.078125 21.140625 
Q 51.078125 11.765625 44.234375 5.25 
Q 37.40625 -1.265625 26.953125 -1.265625 
Q 17.53125 -1.265625 11.296875 4.34375 
Q 5.078125 9.96875 4.203125 18.890625 
z
" id="ArialMT-51"/>
      </defs>
      <g style="fill:#262626;" transform="translate(167.15438 84.860161)scale(0.1 -0.1)">
       <use xlink:href="#ArialMT-49"/>
       <use x="55.615234" xlink:href="#ArialMT-51"/>
       <use x="111.230469" xlink:href="#ArialMT-53"/>
       <use x="166.845703" xlink:href="#ArialMT-176"/>
      </g>
     </g>
    </g>
    <g id="xtick_5">
     <g id="line2d_5">
      <path clip-path="url(#p7a4383e868)" d="M 295.2 199.98 
L 142.74 199.98 
" style="fill:none;stroke:#ffffff;stroke-linecap:round;"/>
     </g>
     <g id="text_5">
      <!-- 180° -->
      <defs>
       <path d="M 17.671875 38.8125 
Q 12.203125 40.828125 9.5625 44.53125 
Q 6.9375 48.25 6.9375 53.421875 
Q 6.9375 61.234375 12.546875 66.546875 
Q 18.171875 71.875 27.484375 71.875 
Q 36.859375 71.875 42.578125 66.421875 
Q 48.296875 60.984375 48.296875 53.171875 
Q 48.296875 48.1875 45.671875 44.5 
Q 43.0625 40.828125 37.75 38.8125 
Q 44.34375 36.671875 47.78125 31.875 
Q 51.21875 27.09375 51.21875 20.453125 
Q 51.21875 11.28125 44.71875 5.03125 
Q 38.234375 -1.21875 27.640625 -1.21875 
Q 17.046875 -1.21875 10.546875 5.046875 
Q 4.046875 11.328125 4.046875 20.703125 
Q 4.046875 27.6875 7.59375 32.390625 
Q 11.140625 37.109375 17.671875 38.8125 
z
M 15.921875 53.71875 
Q 15.921875 48.640625 19.1875 45.40625 
Q 22.46875 42.1875 27.6875 42.1875 
Q 32.765625 42.1875 36.015625 45.375 
Q 39.265625 48.578125 39.265625 53.21875 
Q 39.265625 58.0625 35.90625 61.359375 
Q 32.5625 64.65625 27.59375 64.65625 
Q 22.5625 64.65625 19.234375 61.421875 
Q 15.921875 58.203125 15.921875 53.71875 
z
M 13.09375 20.65625 
Q 13.09375 16.890625 14.875 13.375 
Q 16.65625 9.859375 20.171875 7.921875 
Q 23.6875 6 27.734375 6 
Q 34.03125 6 38.125 10.046875 
Q 42.234375 14.109375 42.234375 20.359375 
Q 42.234375 26.703125 38.015625 30.859375 
Q 33.796875 35.015625 27.4375 35.015625 
Q 21.234375 35.015625 17.15625 30.90625 
Q 13.09375 26.8125 13.09375 20.65625 
z
" id="ArialMT-56"/>
      </defs>
      <g style="fill:#262626;" transform="translate(118.399375 202.565156)scale(0.1 -0.1)">
       <use xlink:href="#ArialMT-49"/>
       <use x="55.615234" xlink:href="#ArialMT-56"/>
       <use x="111.230469" xlink:href="#ArialMT-48"/>
       <use x="166.845703" xlink:href="#ArialMT-176"/>
      </g>
     </g>
    </g>
    <g id="xtick_6">
     <g id="line2d_6">
      <path clip-path="url(#p7a4383e868)" d="M 295.2 199.98 
L 187.3945 307.7855 
" style="fill:none;stroke:#ffffff;stroke-linecap:round;"/>
     </g>
     <g id="text_6">
      <!-- 225° -->
      <defs>
       <path d="M 50.34375 8.453125 
L 50.34375 0 
L 3.03125 0 
Q 2.9375 3.171875 4.046875 6.109375 
Q 5.859375 10.9375 9.828125 15.625 
Q 13.8125 20.3125 21.34375 26.46875 
Q 33.015625 36.03125 37.109375 41.625 
Q 41.21875 47.21875 41.21875 52.203125 
Q 41.21875 57.421875 37.46875 61 
Q 33.734375 64.59375 27.734375 64.59375 
Q 21.390625 64.59375 17.578125 60.78125 
Q 13.765625 56.984375 13.71875 50.25 
L 4.6875 51.171875 
Q 5.609375 61.28125 11.65625 66.578125 
Q 17.71875 71.875 27.9375 71.875 
Q 38.234375 71.875 44.234375 66.15625 
Q 50.25 60.453125 50.25 52 
Q 50.25 47.703125 48.484375 43.546875 
Q 46.734375 39.40625 42.65625 34.8125 
Q 38.578125 30.21875 29.109375 22.21875 
Q 21.1875 15.578125 18.9375 13.203125 
Q 16.703125 10.84375 15.234375 8.453125 
z
" id="ArialMT-50"/>
      </defs>
      <g style="fill:#262626;" transform="translate(167.15438 320.270151)scale(0.1 -0.1)">
       <use xlink:href="#ArialMT-50"/>
       <use x="55.615234" xlink:href="#ArialMT-50"/>
       <use x="111.230469" xlink:href="#ArialMT-53"/>
       <use x="166.845703" xlink:href="#ArialMT-176"/>
      </g>
     </g>
    </g>
    <g id="xtick_7">
     <g id="line2d_7">
      <path clip-path="url(#p7a4383e868)" d="M 295.2 199.98 
L 295.2 352.44 
" style="fill:none;stroke:#ffffff;stroke-linecap:round;"/>
     </g>
     <g id="text_7">
      <!-- 270° -->
      <defs>
       <path d="M 4.734375 62.203125 
L 4.734375 70.65625 
L 51.078125 70.65625 
L 51.078125 63.8125 
Q 44.234375 56.546875 37.515625 44.484375 
Q 30.8125 32.421875 27.15625 19.671875 
Q 24.515625 10.6875 23.78125 0 
L 14.75 0 
Q 14.890625 8.453125 18.0625 20.40625 
Q 21.234375 32.375 27.171875 43.484375 
Q 33.109375 54.59375 39.796875 62.203125 
z
" id="ArialMT-55"/>
      </defs>
      <g style="fill:#262626;" transform="translate(284.859375 369.025156)scale(0.1 -0.1)">
       <use xlink:href="#ArialMT-50"/>
       <use x="55.615234" xlink:href="#ArialMT-55"/>
       <use x="111.230469" xlink:href="#ArialMT-48"/>
       <use x="166.845703" xlink:href="#ArialMT-176"/>
      </g>
     </g>
    </g>
    <g id="xtick_8">
     <g id="line2d_8">
      <path clip-path="url(#p7a4383e868)" d="M 295.2 199.98 
L 403.0055 307.7855 
" style="fill:none;stroke:#ffffff;stroke-linecap:round;"/>
     </g>
     <g id="text_8">
      <!-- 315° -->
      <g style="fill:#262626;" transform="translate(402.56437 320.270151)scale(0.1 -0.1)">
       <use xlink:href="#ArialMT-51"/>
       <use x="55.615234" xlink:href="#ArialMT-49"/>
       <use x="111.230469" xlink:href="#ArialMT-53"/>
       <use x="166.845703" xlink:href="#ArialMT-176"/>
      </g>
     </g>
    </g>
   </g>
   <g id="matplotlib.axis_2">
    <g id="ytick_1">
     <g id="line2d_9">
      <path clip-path="url(#p7a4383e868)" d="M 320.422852 199.98 
L 320.284678 197.343494 
L 319.871672 194.735874 
L 319.188358 192.18571 
L 318.242222 189.720942 
L 317.043631 187.368574 
L 315.605716 185.15438 
L 313.944232 183.102618 
L 312.077382 181.235768 
L 310.02562 179.574284 
L 307.811426 178.136369 
L 305.459058 176.937778 
L 302.99429 175.991642 
L 300.444126 175.308328 
L 297.836506 174.895322 
L 295.2 174.757148 
L 292.563494 174.895322 
L 289.955874 175.308328 
L 287.40571 175.991642 
L 284.940942 176.937778 
L 282.588574 178.136369 
L 280.37438 179.574284 
L 278.322618 181.235768 
L 276.455768 183.102618 
L 274.794284 185.15438 
L 273.356369 187.368574 
L 272.157778 189.720942 
L 271.211642 192.18571 
L 270.528328 194.735874 
L 270.115322 197.343494 
L 269.977148 199.98 
L 270.115322 202.616506 
L 270.528328 205.224126 
L 271.211642 207.77429 
L 272.157778 210.239058 
L 273.356369 212.591426 
L 274.794284 214.80562 
L 276.455768 216.857382 
L 278.322618 218.724232 
L 280.37438 220.385716 
L 282.588574 221.823631 
L 284.940942 223.022222 
L 287.40571 223.968358 
L 289.955874 224.651672 
L 292.563494 225.064678 
L 295.2 225.202852 
L 297.836506 225.064678 
L 300.444126 224.651672 
L 302.99429 223.968358 
L 305.459058 223.022222 
L 307.811426 221.823631 
L 310.02562 220.385716 
L 312.077382 218.724232 
L 313.944232 216.857382 
L 315.605716 214.80562 
L 317.043631 212.591426 
L 318.242222 210.239058 
L 319.188358 207.77429 
L 319.871672 205.224126 
L 320.284678 202.616506 
L 320.422852 199.98 
L 320.422852 199.98 
" style="fill:none;stroke:#ffffff;stroke-linecap:round;"/>
     </g>
     <g id="text_9">
      <!-- 0.05 -->
      <defs>
       <path d="M 9.078125 0 
L 9.078125 10.015625 
L 19.09375 10.015625 
L 19.09375 0 
z
" id="ArialMT-46"/>
      </defs>
      <g style="fill:#262626;" transform="translate(318.502877 188.340132)scale(0.1 -0.1)">
       <use xlink:href="#ArialMT-48"/>
       <use x="55.615234" xlink:href="#ArialMT-46"/>
       <use x="83.398438" xlink:href="#ArialMT-48"/>
       <use x="139.013672" xlink:href="#ArialMT-53"/>
      </g>
     </g>
    </g>
    <g id="ytick_2">
     <g id="line2d_10">
      <path clip-path="url(#p7a4383e868)" d="M 345.645704 199.98 
L 345.522821 196.461086 
L 345.15477 192.959315 
L 344.543344 189.491748 
L 343.691523 186.07528 
L 342.603456 182.726553 
L 341.284444 179.461884 
L 339.740913 176.297177 
L 337.980383 173.24785 
L 336.011432 170.328759 
L 333.843651 167.554127 
L 331.487602 164.93747 
L 328.954764 162.491536 
L 326.257476 160.228243 
L 323.40888 158.158616 
L 320.422852 156.292739 
L 317.313941 154.639702 
L 314.097293 153.207558 
L 310.78858 152.003285 
L 307.40392 151.032749 
L 303.959805 150.30068 
L 300.473012 149.810643 
L 296.96053 149.565026 
L 293.43947 149.565026 
L 289.926988 149.810643 
L 286.440195 150.30068 
L 282.99608 151.032749 
L 279.61142 152.003285 
L 276.302707 153.207558 
L 273.086059 154.639702 
L 269.977148 156.292739 
L 266.99112 158.158616 
L 264.142524 160.228243 
L 261.445236 162.491536 
L 258.912398 164.93747 
L 256.556349 167.554127 
L 254.388568 170.328759 
L 252.419617 173.24785 
L 250.659087 176.297177 
L 249.115556 179.461884 
L 247.796544 182.726553 
L 246.708477 186.07528 
L 245.856656 189.491748 
L 245.24523 192.959315 
L 244.877179 196.461086 
L 244.754296 199.98 
L 244.877179 203.498914 
L 245.24523 207.000685 
L 245.856656 210.468252 
L 246.708477 213.88472 
L 247.796544 217.233447 
L 249.115556 220.498116 
L 250.659087 223.662823 
L 252.419617 226.71215 
L 254.388568 229.631241 
L 256.556349 232.405873 
L 258.912398 235.02253 
L 261.445236 237.468464 
L 264.142524 239.731757 
L 266.99112 241.801384 
L 269.977148 243.667261 
L 273.086059 245.320298 
L 276.302707 246.752442 
L 279.61142 247.956715 
L 282.99608 248.927251 
L 286.440195 249.65932 
L 289.926988 250.149357 
L 293.43947 250.394974 
L 296.96053 250.394974 
L 300.473012 250.149357 
L 303.959805 249.65932 
L 307.40392 248.927251 
L 310.78858 247.956715 
L 314.097293 246.752442 
L 317.313941 245.320298 
L 320.422852 243.667261 
L 323.40888 241.801384 
L 326.257476 239.731757 
L 328.954764 237.468464 
L 331.487602 235.02253 
L 333.843651 232.405873 
L 336.011432 229.631241 
L 337.980383 226.71215 
L 339.740913 223.662823 
L 341.284444 220.498116 
L 342.603456 217.233447 
L 343.691523 213.88472 
L 344.543344 210.468252 
L 345.15477 207.000685 
L 345.522821 203.498914 
L 345.645704 199.98 
L 345.645704 199.98 
" style="fill:none;stroke:#ffffff;stroke-linecap:round;"/>
     </g>
     <g id="text_10">
      <!-- 0.10 -->
      <g style="fill:#262626;" transform="translate(341.805753 178.687765)scale(0.1 -0.1)">
       <use xlink:href="#ArialMT-48"/>
       <use x="55.615234" xlink:href="#ArialMT-46"/>
       <use x="83.398438" xlink:href="#ArialMT-49"/>
       <use x="139.013672" xlink:href="#ArialMT-48"/>
      </g>
     </g>
    </g>
    <g id="ytick_3">
     <g id="line2d_11">
      <path clip-path="url(#p7a4383e868)" d="M 370.868556 199.98 
L 370.684231 194.701628 
L 370.132155 189.448972 
L 369.215016 184.247623 
L 367.937284 179.122919 
L 366.305183 174.09983 
L 364.326665 169.202826 
L 362.011369 164.455765 
L 359.370575 159.881775 
L 356.417147 155.503139 
L 353.165477 151.34119 
L 349.631404 147.416204 
L 345.832147 143.747304 
L 341.786215 140.352364 
L 337.513319 137.247924 
L 333.034278 134.449108 
L 328.370912 131.969553 
L 323.54594 129.821337 
L 318.58287 128.014927 
L 313.50588 126.559124 
L 308.339707 125.46102 
L 303.109518 124.725965 
L 297.840795 124.35754 
L 292.559205 124.35754 
L 287.290482 124.725965 
L 282.060293 125.46102 
L 276.89412 126.559124 
L 271.81713 128.014927 
L 266.85406 129.821337 
L 262.029088 131.969553 
L 257.365722 134.449108 
L 252.886681 137.247924 
L 248.613785 140.352364 
L 244.567853 143.747304 
L 240.768596 147.416204 
L 237.234523 151.34119 
L 233.982853 155.503139 
L 231.029425 159.881775 
L 228.388631 164.455765 
L 226.073335 169.202826 
L 224.094817 174.09983 
L 222.462716 179.122919 
L 221.184984 184.247623 
L 220.267845 189.448972 
L 219.715769 194.701628 
L 219.531444 199.98 
L 219.715769 205.258372 
L 220.267845 210.511028 
L 221.184984 215.712377 
L 222.462716 220.837081 
L 224.094817 225.86017 
L 226.073335 230.757174 
L 228.388631 235.504235 
L 231.029425 240.078225 
L 233.982853 244.456861 
L 237.234523 248.61881 
L 240.768596 252.543796 
L 244.567853 256.212696 
L 248.613785 259.607636 
L 252.886681 262.712076 
L 257.365722 265.510892 
L 262.029088 267.990447 
L 266.85406 270.138663 
L 271.81713 271.945073 
L 276.89412 273.400876 
L 282.060293 274.49898 
L 287.290482 275.234035 
L 292.559205 275.60246 
L 297.840795 275.60246 
L 303.109518 275.234035 
L 308.339707 274.49898 
L 313.50588 273.400876 
L 318.58287 271.945073 
L 323.54594 270.138663 
L 328.370912 267.990447 
L 333.034278 265.510892 
L 337.513319 262.712076 
L 341.786215 259.607636 
L 345.832147 256.212696 
L 349.631404 252.543796 
L 353.165477 248.61881 
L 356.417147 244.456861 
L 359.370575 240.078225 
L 362.011369 235.504235 
L 364.326665 230.757174 
L 366.305183 225.86017 
L 367.937284 220.837081 
L 369.215016 215.712377 
L 370.132155 210.511028 
L 370.684231 205.258372 
L 370.868556 199.98 
L 370.868556 199.98 
" style="fill:none;stroke:#ffffff;stroke-linecap:round;"/>
     </g>
     <g id="text_11">
      <!-- 0.15 -->
      <g style="fill:#262626;" transform="translate(365.10863 169.035397)scale(0.1 -0.1)">
       <use xlink:href="#ArialMT-48"/>
       <use x="55.615234" xlink:href="#ArialMT-46"/>
       <use x="83.398438" xlink:href="#ArialMT-49"/>
       <use x="139.013672" xlink:href="#ArialMT-53"/>
      </g>
     </g>
    </g>
    <g id="ytick_4">
     <g id="line2d_12">
      <path clip-path="url(#p7a4383e868)" d="M 396.091408 199.98 
L 396.029947 196.458941 
L 395.845641 192.942171 
L 395.538714 189.433976 
L 395.109539 185.93863 
L 394.55864 182.460391 
L 393.886688 179.003497 
L 393.094502 175.572159 
L 392.183046 172.170559 
L 391.153431 168.80284 
L 390.006911 165.473106 
L 388.744884 162.185413 
L 387.368887 158.943768 
L 385.880596 155.752118 
L 384.281825 152.614353 
L 382.574522 149.534296 
L 380.760766 146.5157 
L 378.842768 143.562241 
L 376.822863 140.677519 
L 374.703514 137.865047 
L 372.487302 135.128253 
L 370.176927 132.470471 
L 367.775205 129.894939 
L 365.285061 127.404795 
L 362.709529 125.003073 
L 360.051747 122.692698 
L 357.314953 120.476486 
L 354.502481 118.357137 
L 351.617759 116.337232 
L 348.6643 114.419234 
L 345.645704 112.605478 
L 342.565647 110.898175 
L 339.427882 109.299404 
L 336.236232 107.811113 
L 332.994587 106.435116 
L 329.706894 105.173089 
L 326.37716 104.026569 
L 323.009441 102.996954 
L 319.607841 102.085498 
L 316.176503 101.293312 
L 312.719609 100.62136 
L 309.24137 100.070461 
L 305.746024 99.641286 
L 302.237829 99.334359 
L 298.721059 99.150053 
L 295.2 99.088592 
L 291.678941 99.150053 
L 288.162171 99.334359 
L 284.653976 99.641286 
L 281.15863 100.070461 
L 277.680391 100.62136 
L 274.223497 101.293312 
L 270.792159 102.085498 
L 267.390559 102.996954 
L 264.02284 104.026569 
L 260.693106 105.173089 
L 257.405413 106.435116 
L 254.163768 107.811113 
L 250.972118 109.299404 
L 247.834353 110.898175 
L 244.754296 112.605478 
L 241.7357 114.419234 
L 238.782241 116.337232 
L 235.897519 118.357137 
L 233.085047 120.476486 
L 230.348253 122.692698 
L 227.690471 125.003073 
L 225.114939 127.404795 
L 222.624795 129.894939 
L 220.223073 132.470471 
L 217.912698 135.128253 
L 215.696486 137.865047 
L 213.577137 140.677519 
L 211.557232 143.562241 
L 209.639234 146.5157 
L 207.825478 149.534296 
L 206.118175 152.614353 
L 204.519404 155.752118 
L 203.031113 158.943768 
L 201.655116 162.185413 
L 200.393089 165.473106 
L 199.246569 168.80284 
L 198.216954 172.170559 
L 197.305498 175.572159 
L 196.513312 179.003497 
L 195.84136 182.460391 
L 195.290461 185.93863 
L 194.861286 189.433976 
L 194.554359 192.942171 
L 194.370053 196.458941 
L 194.308592 199.98 
L 194.370053 203.501059 
L 194.554359 207.017829 
L 194.861286 210.526024 
L 195.290461 214.02137 
L 195.84136 217.499609 
L 196.513312 220.956503 
L 197.305498 224.387841 
L 198.216954 227.789441 
L 199.246569 231.15716 
L 200.393089 234.486894 
L 201.655116 237.774587 
L 203.031113 241.016232 
L 204.519404 244.207882 
L 206.118175 247.345647 
L 207.825478 250.425704 
L 209.639234 253.4443 
L 211.557232 256.397759 
L 213.577137 259.282481 
L 215.696486 262.094953 
L 217.912698 264.831747 
L 220.223073 267.489529 
L 222.624795 270.065061 
L 225.114939 272.555205 
L 227.690471 274.956927 
L 230.348253 277.267302 
L 233.085047 279.483514 
L 235.897519 281.602863 
L 238.782241 283.622768 
L 241.7357 285.540766 
L 244.754296 287.354522 
L 247.834353 289.061825 
L 250.972118 290.660596 
L 254.163768 292.148887 
L 257.405413 293.524884 
L 260.693106 294.786911 
L 264.02284 295.933431 
L 267.390559 296.963046 
L 270.792159 297.874502 
L 274.223497 298.666688 
L 277.680391 299.33864 
L 281.15863 299.889539 
L 284.653976 300.318714 
L 288.162171 300.625641 
L 291.678941 300.809947 
L 295.2 300.871408 
L 298.721059 300.809947 
L 302.237829 300.625641 
L 305.746024 300.318714 
L 309.24137 299.889539 
L 312.719609 299.33864 
L 316.176503 298.666688 
L 319.607841 297.874502 
L 323.009441 296.963046 
L 326.37716 295.933431 
L 329.706894 294.786911 
L 332.994587 293.524884 
L 336.236232 292.148887 
L 339.427882 290.660596 
L 342.565647 289.061825 
L 345.645704 287.354522 
L 348.6643 285.540766 
L 351.617759 283.622768 
L 354.502481 281.602863 
L 357.314953 279.483514 
L 360.051747 277.267302 
L 362.709529 274.956927 
L 365.285061 272.555205 
L 367.775205 270.065061 
L 370.176927 267.489529 
L 372.487302 264.831747 
L 374.703514 262.094953 
L 376.822863 259.282481 
L 378.842768 256.397759 
L 380.760766 253.4443 
L 382.574522 250.425704 
L 384.281825 247.345647 
L 385.880596 244.207882 
L 387.368887 241.016232 
L 388.744884 237.774587 
L 390.006911 234.486894 
L 391.153431 231.15716 
L 392.183046 227.789441 
L 393.094502 224.387841 
L 393.886688 220.956503 
L 394.55864 217.499609 
L 395.109539 214.02137 
L 395.538714 210.526024 
L 395.845641 207.017829 
L 396.029947 203.501059 
L 396.091408 199.98 
L 396.091408 199.98 
" style="fill:none;stroke:#ffffff;stroke-linecap:round;"/>
     </g>
     <g id="text_12">
      <!-- 0.20 -->
      <g style="fill:#262626;" transform="translate(388.411506 159.38303)scale(0.1 -0.1)">
       <use xlink:href="#ArialMT-48"/>
       <use x="55.615234" xlink:href="#ArialMT-46"/>
       <use x="83.398438" xlink:href="#ArialMT-50"/>
       <use x="139.013672" xlink:href="#ArialMT-48"/>
      </g>
     </g>
    </g>
    <g id="ytick_5">
     <g id="line2d_13">
      <path clip-path="url(#p7a4383e868)" d="M 421.314259 199.98 
L 421.237434 195.578676 
L 421.007051 191.182714 
L 420.623392 186.79747 
L 420.086924 182.428287 
L 419.398301 178.080489 
L 418.55836 173.759371 
L 417.568127 169.470199 
L 416.428807 165.218199 
L 415.141788 161.008551 
L 413.708639 156.846383 
L 412.131105 152.736767 
L 410.411109 148.684709 
L 408.550746 144.695147 
L 406.552282 140.772942 
L 404.418153 136.92287 
L 402.150958 133.149624 
L 399.75346 129.457801 
L 397.228579 125.851898 
L 394.579393 122.336309 
L 391.809128 118.915317 
L 388.921159 115.593089 
L 385.919006 112.373674 
L 382.806326 109.260994 
L 379.586911 106.258841 
L 376.264683 103.370872 
L 372.843691 100.600607 
L 369.328102 97.951421 
L 365.722199 95.42654 
L 362.030376 93.029042 
L 358.25713 90.761847 
L 354.407058 88.627718 
L 350.484853 86.629254 
L 346.495291 84.768891 
L 342.443233 83.048895 
L 338.333617 81.471361 
L 334.171449 80.038212 
L 329.961801 78.751193 
L 325.709801 77.611873 
L 321.420629 76.62164 
L 317.099511 75.781699 
L 312.751713 75.093076 
L 308.38253 74.556608 
L 303.997286 74.172949 
L 299.601324 73.942566 
L 295.2 73.865741 
L 290.798676 73.942566 
L 286.402714 74.172949 
L 282.01747 74.556608 
L 277.648287 75.093076 
L 273.300489 75.781699 
L 268.979371 76.62164 
L 264.690199 77.611873 
L 260.438199 78.751193 
L 256.228551 80.038212 
L 252.066383 81.471361 
L 247.956767 83.048895 
L 243.904709 84.768891 
L 239.915147 86.629254 
L 235.992942 88.627718 
L 232.14287 90.761847 
L 228.369624 93.029042 
L 224.677801 95.42654 
L 221.071898 97.951421 
L 217.556309 100.600607 
L 214.135317 103.370872 
L 210.813089 106.258841 
L 207.593674 109.260994 
L 204.480994 112.373674 
L 201.478841 115.593089 
L 198.590872 118.915317 
L 195.820607 122.336309 
L 193.171421 125.851898 
L 190.64654 129.457801 
L 188.249042 133.149624 
L 185.981847 136.92287 
L 183.847718 140.772942 
L 181.849254 144.695147 
L 179.988891 148.684709 
L 178.268895 152.736767 
L 176.691361 156.846383 
L 175.258212 161.008551 
L 173.971193 165.218199 
L 172.831873 169.470199 
L 171.84164 173.759371 
L 171.001699 178.080489 
L 170.313076 182.428287 
L 169.776608 186.79747 
L 169.392949 191.182714 
L 169.162566 195.578676 
L 169.085741 199.98 
L 169.162566 204.381324 
L 169.392949 208.777286 
L 169.776608 213.16253 
L 170.313076 217.531713 
L 171.001699 221.879511 
L 171.84164 226.200629 
L 172.831873 230.489801 
L 173.971193 234.741801 
L 175.258212 238.951449 
L 176.691361 243.113617 
L 178.268895 247.223233 
L 179.988891 251.275291 
L 181.849254 255.264853 
L 183.847718 259.187058 
L 185.981847 263.03713 
L 188.249042 266.810376 
L 190.64654 270.502199 
L 193.171421 274.108102 
L 195.820607 277.623691 
L 198.590872 281.044683 
L 201.478841 284.366911 
L 204.480994 287.586326 
L 207.593674 290.699006 
L 210.813089 293.701159 
L 214.135317 296.589128 
L 217.556309 299.359393 
L 221.071898 302.008579 
L 224.677801 304.53346 
L 228.369624 306.930958 
L 232.14287 309.198153 
L 235.992942 311.332282 
L 239.915147 313.330746 
L 243.904709 315.191109 
L 247.956767 316.911105 
L 252.066383 318.488639 
L 256.228551 319.921788 
L 260.438199 321.208807 
L 264.690199 322.348127 
L 268.979371 323.33836 
L 273.300489 324.178301 
L 277.648287 324.866924 
L 282.01747 325.403392 
L 286.402714 325.787051 
L 290.798676 326.017434 
L 295.2 326.094259 
L 299.601324 326.017434 
L 303.997286 325.787051 
L 308.38253 325.403392 
L 312.751713 324.866924 
L 317.099511 324.178301 
L 321.420629 323.33836 
L 325.709801 322.348127 
L 329.961801 321.208807 
L 334.171449 319.921788 
L 338.333617 318.488639 
L 342.443233 316.911105 
L 346.495291 315.191109 
L 350.484853 313.330746 
L 354.407058 311.332282 
L 358.25713 309.198153 
L 362.030376 306.930958 
L 365.722199 304.53346 
L 369.328102 302.008579 
L 372.843691 299.359393 
L 376.264683 296.589128 
L 379.586911 293.701159 
L 382.806326 290.699006 
L 385.919006 287.586326 
L 388.921159 284.366911 
L 391.809128 281.044683 
L 394.579393 277.623691 
L 397.228579 274.108102 
L 399.75346 270.502199 
L 402.150958 266.810376 
L 404.418153 263.03713 
L 406.552282 259.187058 
L 408.550746 255.264853 
L 410.411109 251.275291 
L 412.131105 247.223233 
L 413.708639 243.113617 
L 415.141788 238.951449 
L 416.428807 234.741801 
L 417.568127 230.489801 
L 418.55836 226.200629 
L 419.398301 221.879511 
L 420.086924 217.531713 
L 420.623392 213.16253 
L 421.007051 208.777286 
L 421.237434 204.381324 
L 421.314259 199.98 
L 421.314259 199.98 
" style="fill:none;stroke:#ffffff;stroke-linecap:round;"/>
     </g>
     <g id="text_13">
      <!-- 0.25 -->
      <g style="fill:#262626;" transform="translate(411.714383 149.730662)scale(0.1 -0.1)">
       <use xlink:href="#ArialMT-48"/>
       <use x="55.615234" xlink:href="#ArialMT-46"/>
       <use x="83.398438" xlink:href="#ArialMT-50"/>
       <use x="139.013672" xlink:href="#ArialMT-53"/>
      </g>
     </g>
    </g>
    <g id="ytick_6">
     <g id="line2d_14">
      <path clip-path="url(#p7a4383e868)" d="M 446.537111 199.98 
L 446.444921 194.698411 
L 446.168462 189.423257 
L 445.708071 184.160964 
L 445.064309 178.917945 
L 444.237961 173.700586 
L 443.230032 168.515245 
L 442.041752 163.368239 
L 440.674568 158.265839 
L 439.130146 153.214261 
L 437.410367 148.219659 
L 435.517326 143.28812 
L 433.453331 138.425651 
L 431.220895 133.638177 
L 428.822738 128.93153 
L 426.261783 124.311444 
L 423.541149 119.783549 
L 420.664151 115.353361 
L 417.634295 111.026278 
L 414.455271 106.807571 
L 411.130953 102.70238 
L 407.665391 98.715707 
L 404.062807 94.852409 
L 400.327591 91.117193 
L 396.464293 87.514609 
L 392.47762 84.049047 
L 388.372429 80.724729 
L 384.153722 77.545705 
L 379.826639 74.515849 
L 375.396451 71.638851 
L 370.868556 68.918217 
L 366.24847 66.357262 
L 361.541823 63.959105 
L 356.754349 61.726669 
L 351.89188 59.662674 
L 346.960341 57.769633 
L 341.965739 56.049854 
L 336.914161 54.505432 
L 331.811761 53.138248 
L 326.664755 51.949968 
L 321.479414 50.942039 
L 316.262055 50.115691 
L 311.019036 49.471929 
L 305.756743 49.011538 
L 300.481589 48.735079 
L 295.2 48.642889 
L 289.918411 48.735079 
L 284.643257 49.011538 
L 279.380964 49.471929 
L 274.137945 50.115691 
L 268.920586 50.942039 
L 263.735245 51.949968 
L 258.588239 53.138248 
L 253.485839 54.505432 
L 248.434261 56.049854 
L 243.439659 57.769633 
L 238.50812 59.662674 
L 233.645651 61.726669 
L 228.858177 63.959105 
L 224.15153 66.357262 
L 219.531444 68.918217 
L 215.003549 71.638851 
L 210.573361 74.515849 
L 206.246278 77.545705 
L 202.027571 80.724729 
L 197.92238 84.049047 
L 193.935707 87.514609 
L 190.072409 91.117193 
L 186.337193 94.852409 
L 182.734609 98.715707 
L 179.269047 102.70238 
L 175.944729 106.807571 
L 172.765705 111.026278 
L 169.735849 115.353361 
L 166.858851 119.783549 
L 164.138217 124.311444 
L 161.577262 128.93153 
L 159.179105 133.638177 
L 156.946669 138.425651 
L 154.882674 143.28812 
L 152.989633 148.219659 
L 151.269854 153.214261 
L 149.725432 158.265839 
L 148.358248 163.368239 
L 147.169968 168.515245 
L 146.162039 173.700586 
L 145.335691 178.917945 
L 144.691929 184.160964 
L 144.231538 189.423257 
L 143.955079 194.698411 
L 143.862889 199.98 
L 143.955079 205.261589 
L 144.231538 210.536743 
L 144.691929 215.799036 
L 145.335691 221.042055 
L 146.162039 226.259414 
L 147.169968 231.444755 
L 148.358248 236.591761 
L 149.725432 241.694161 
L 151.269854 246.745739 
L 152.989633 251.740341 
L 154.882674 256.67188 
L 156.946669 261.534349 
L 159.179105 266.321823 
L 161.577262 271.02847 
L 164.138217 275.648556 
L 166.858851 280.176451 
L 169.735849 284.606639 
L 172.765705 288.933722 
L 175.944729 293.152429 
L 179.269047 297.25762 
L 182.734609 301.244293 
L 186.337193 305.107591 
L 190.072409 308.842807 
L 193.935707 312.445391 
L 197.92238 315.910953 
L 202.027571 319.235271 
L 206.246278 322.414295 
L 210.573361 325.444151 
L 215.003549 328.321149 
L 219.531444 331.041783 
L 224.15153 333.602738 
L 228.858177 336.000895 
L 233.645651 338.233331 
L 238.50812 340.297326 
L 243.439659 342.190367 
L 248.434261 343.910146 
L 253.485839 345.454568 
L 258.588239 346.821752 
L 263.735245 348.010032 
L 268.920586 349.017961 
L 274.137945 349.844309 
L 279.380964 350.488071 
L 284.643257 350.948462 
L 289.918411 351.224921 
L 295.2 351.317111 
L 300.481589 351.224921 
L 305.756743 350.948462 
L 311.019036 350.488071 
L 316.262055 349.844309 
L 321.479414 349.017961 
L 326.664755 348.010032 
L 331.811761 346.821752 
L 336.914161 345.454568 
L 341.965739 343.910146 
L 346.960341 342.190367 
L 351.89188 340.297326 
L 356.754349 338.233331 
L 361.541823 336.000895 
L 366.24847 333.602738 
L 370.868556 331.041783 
L 375.396451 328.321149 
L 379.826639 325.444151 
L 384.153722 322.414295 
L 388.372429 319.235271 
L 392.47762 315.910953 
L 396.464293 312.445391 
L 400.327591 308.842807 
L 404.062807 305.107591 
L 407.665391 301.244293 
L 411.130953 297.25762 
L 414.455271 293.152429 
L 417.634295 288.933722 
L 420.664151 284.606639 
L 423.541149 280.176451 
L 426.261783 275.648556 
L 428.822738 271.02847 
L 431.220895 266.321823 
L 433.453331 261.534349 
L 435.517326 256.67188 
L 437.410367 251.740341 
L 439.130146 246.745739 
L 440.674568 241.694161 
L 442.041752 236.591761 
L 443.230032 231.444755 
L 444.237961 226.259414 
L 445.064309 221.042055 
L 445.708071 215.799036 
L 446.168462 210.536743 
L 446.444921 205.261589 
L 446.537111 199.98 
L 446.537111 199.98 
" style="fill:none;stroke:#ffffff;stroke-linecap:round;"/>
     </g>
     <g id="text_14">
      <!-- 0.30 -->
      <g style="fill:#262626;" transform="translate(435.01726 140.078295)scale(0.1 -0.1)">
       <use xlink:href="#ArialMT-48"/>
       <use x="55.615234" xlink:href="#ArialMT-46"/>
       <use x="83.398438" xlink:href="#ArialMT-51"/>
       <use x="139.013672" xlink:href="#ArialMT-48"/>
      </g>
     </g>
    </g>
   </g>
   <g id="PathCollection_1">
    <defs>
     <path d="M 0 3.5 
C 0.928211 3.5 1.81853 3.131218 2.474874 2.474874 
C 3.131218 1.81853 3.5 0.928211 3.5 0 
C 3.5 -0.928211 3.131218 -1.81853 2.474874 -2.474874 
C 1.81853 -3.131218 0.928211 -3.5 0 -3.5 
C -0.928211 -3.5 -1.81853 -3.131218 -2.474874 -2.474874 
C -3.131218 -1.81853 -3.5 -0.928211 -3.5 0 
C -3.5 0.928211 -3.131218 1.81853 -2.474874 2.474874 
C -1.81853 3.131218 -0.928211 3.5 0 3.5 
z
" id="m6c21043d26" style="stroke:#4c72b0;stroke-width:0.3;"/>
    </defs>
    <g clip-path="url(#p7a4383e868)">
     <use style="fill:#4c72b0;stroke:#4c72b0;stroke-width:0.3;" x="305.492483" xlink:href="#m6c21043d26" y="208.726341"/>
     <use style="fill:#4c72b0;stroke:#4c72b0;stroke-width:0.3;" x="374.334628" xlink:href="#m6c21043d26" y="206.771208"/>
     <use style="fill:#4c72b0;stroke:#4c72b0;stroke-width:0.3;" x="326.518961" xlink:href="#m6c21043d26" y="202.568986"/>
     <use style="fill:#4c72b0;stroke:#4c72b0;stroke-width:0.3;" x="225.094254" xlink:href="#m6c21043d26" y="197.884271"/>
     <use style="fill:#4c72b0;stroke:#4c72b0;stroke-width:0.3;" x="281.582001" xlink:href="#m6c21043d26" y="213.439944"/>
     <use style="fill:#4c72b0;stroke:#4c72b0;stroke-width:0.3;" x="284.620554" xlink:href="#m6c21043d26" y="212.220741"/>
     <use style="fill:#4c72b0;stroke:#4c72b0;stroke-width:0.3;" x="305.870539" xlink:href="#m6c21043d26" y="223.24704"/>
     <use style="fill:#4c72b0;stroke:#4c72b0;stroke-width:0.3;" x="238.69511" xlink:href="#m6c21043d26" y="230.671095"/>
     <use style="fill:#4c72b0;stroke:#4c72b0;stroke-width:0.3;" x="220.577468" xlink:href="#m6c21043d26" y="220.983242"/>
     <use style="fill:#4c72b0;stroke:#4c72b0;stroke-width:0.3;" x="325.581173" xlink:href="#m6c21043d26" y="233.301968"/>
     <use style="fill:#4c72b0;stroke:#4c72b0;stroke-width:0.3;" x="256.348268" xlink:href="#m6c21043d26" y="220.786558"/>
     <use style="fill:#4c72b0;stroke:#4c72b0;stroke-width:0.3;" x="355.602901" xlink:href="#m6c21043d26" y="215.540097"/>
     <use style="fill:#4c72b0;stroke:#4c72b0;stroke-width:0.3;" x="309.604099" xlink:href="#m6c21043d26" y="200.879731"/>
     <use style="fill:#4c72b0;stroke:#4c72b0;stroke-width:0.3;" x="306.715701" xlink:href="#m6c21043d26" y="191.17119"/>
     <use style="fill:#4c72b0;stroke:#4c72b0;stroke-width:0.3;" x="329.636897" xlink:href="#m6c21043d26" y="200.153996"/>
     <use style="fill:#4c72b0;stroke:#4c72b0;stroke-width:0.3;" x="288.402904" xlink:href="#m6c21043d26" y="204.002424"/>
     <use style="fill:#4c72b0;stroke:#4c72b0;stroke-width:0.3;" x="339.030384" xlink:href="#m6c21043d26" y="190.730663"/>
     <use style="fill:#4c72b0;stroke:#4c72b0;stroke-width:0.3;" x="312.267979" xlink:href="#m6c21043d26" y="191.149272"/>
     <use style="fill:#4c72b0;stroke:#4c72b0;stroke-width:0.3;" x="263.977943" xlink:href="#m6c21043d26" y="199.512535"/>
     <use style="fill:#4c72b0;stroke:#4c72b0;stroke-width:0.3;" x="283.426168" xlink:href="#m6c21043d26" y="222.085438"/>
     <use style="fill:#4c72b0;stroke:#4c72b0;stroke-width:0.3;" x="255.800973" xlink:href="#m6c21043d26" y="229.249365"/>
     <use style="fill:#4c72b0;stroke:#4c72b0;stroke-width:0.3;" x="292.822748" xlink:href="#m6c21043d26" y="232.063714"/>
     <use style="fill:#4c72b0;stroke:#4c72b0;stroke-width:0.3;" x="299.266361" xlink:href="#m6c21043d26" y="201.023654"/>
     <use style="fill:#4c72b0;stroke:#4c72b0;stroke-width:0.3;" x="300.453298" xlink:href="#m6c21043d26" y="218.204801"/>
    </g>
   </g>
   <g id="PathCollection_2">
    <defs>
     <path d="M 0 3.5 
C 0.928211 3.5 1.81853 3.131218 2.474874 2.474874 
C 3.131218 1.81853 3.5 0.928211 3.5 0 
C 3.5 -0.928211 3.131218 -1.81853 2.474874 -2.474874 
C 1.81853 -3.131218 0.928211 -3.5 0 -3.5 
C -0.928211 -3.5 -1.81853 -3.131218 -2.474874 -2.474874 
C -3.131218 -1.81853 -3.5 -0.928211 -3.5 0 
C -3.5 0.928211 -3.131218 1.81853 -2.474874 2.474874 
C -1.81853 3.131218 -0.928211 3.5 0 3.5 
z
" id="m3a2f0c566d" style="stroke:#55a868;stroke-width:0.3;"/>
    </defs>
    <g clip-path="url(#p7a4383e868)">
     <use style="fill:#55a868;stroke:#55a868;stroke-width:0.3;" x="265.875676" xlink:href="#m3a2f0c566d" y="210.523892"/>
     <use style="fill:#55a868;stroke:#55a868;stroke-width:0.3;" x="293.319992" xlink:href="#m3a2f0c566d" y="218.921308"/>
     <use style="fill:#55a868;stroke:#55a868;stroke-width:0.3;" x="357.596753" xlink:href="#m3a2f0c566d" y="214.66326"/>
     <use style="fill:#55a868;stroke:#55a868;stroke-width:0.3;" x="309.450852" xlink:href="#m3a2f0c566d" y="188.337128"/>
     <use style="fill:#55a868;stroke:#55a868;stroke-width:0.3;" x="314.022522" xlink:href="#m3a2f0c566d" y="190.10036"/>
     <use style="fill:#55a868;stroke:#55a868;stroke-width:0.3;" x="303.688557" xlink:href="#m3a2f0c566d" y="186.347764"/>
     <use style="fill:#55a868;stroke:#55a868;stroke-width:0.3;" x="316.362899" xlink:href="#m3a2f0c566d" y="203.307772"/>
     <use style="fill:#55a868;stroke:#55a868;stroke-width:0.3;" x="315.313544" xlink:href="#m3a2f0c566d" y="201.260613"/>
     <use style="fill:#55a868;stroke:#55a868;stroke-width:0.3;" x="305.545223" xlink:href="#m3a2f0c566d" y="196.990007"/>
     <use style="fill:#55a868;stroke:#55a868;stroke-width:0.3;" x="429.443933" xlink:href="#m3a2f0c566d" y="181.897768"/>
     <use style="fill:#55a868;stroke:#55a868;stroke-width:0.3;" x="285.578246" xlink:href="#m3a2f0c566d" y="188.464803"/>
     <use style="fill:#55a868;stroke:#55a868;stroke-width:0.3;" x="328.672691" xlink:href="#m3a2f0c566d" y="197.651022"/>
     <use style="fill:#55a868;stroke:#55a868;stroke-width:0.3;" x="184.60238" xlink:href="#m3a2f0c566d" y="200.604436"/>
     <use style="fill:#55a868;stroke:#55a868;stroke-width:0.3;" x="412.518933" xlink:href="#m3a2f0c566d" y="186.046131"/>
     <use style="fill:#55a868;stroke:#55a868;stroke-width:0.3;" x="317.879409" xlink:href="#m3a2f0c566d" y="194.651927"/>
     <use style="fill:#55a868;stroke:#55a868;stroke-width:0.3;" x="404.303976" xlink:href="#m3a2f0c566d" y="199.690976"/>
     <use style="fill:#55a868;stroke:#55a868;stroke-width:0.3;" x="288.595514" xlink:href="#m3a2f0c566d" y="208.3894"/>
     <use style="fill:#55a868;stroke:#55a868;stroke-width:0.3;" x="269.028432" xlink:href="#m3a2f0c566d" y="198.545795"/>
     <use style="fill:#55a868;stroke:#55a868;stroke-width:0.3;" x="241.161503" xlink:href="#m3a2f0c566d" y="204.114919"/>
     <use style="fill:#55a868;stroke:#55a868;stroke-width:0.3;" x="266.120026" xlink:href="#m3a2f0c566d" y="206.976578"/>
     <use style="fill:#55a868;stroke:#55a868;stroke-width:0.3;" x="289.202982" xlink:href="#m3a2f0c566d" y="210.863549"/>
     <use style="fill:#55a868;stroke:#55a868;stroke-width:0.3;" x="295.366294" xlink:href="#m3a2f0c566d" y="220.872003"/>
     <use style="fill:#55a868;stroke:#55a868;stroke-width:0.3;" x="309.602683" xlink:href="#m3a2f0c566d" y="232.397639"/>
     <use style="fill:#55a868;stroke:#55a868;stroke-width:0.3;" x="368.474381" xlink:href="#m3a2f0c566d" y="231.502761"/>
    </g>
   </g>
   <g id="PathCollection_3">
    <defs>
     <path d="M 0 3.5 
C 0.928211 3.5 1.81853 3.131218 2.474874 2.474874 
C 3.131218 1.81853 3.5 0.928211 3.5 0 
C 3.5 -0.928211 3.131218 -1.81853 2.474874 -2.474874 
C 1.81853 -3.131218 0.928211 -3.5 0 -3.5 
C -0.928211 -3.5 -1.81853 -3.131218 -2.474874 -2.474874 
C -3.131218 -1.81853 -3.5 -0.928211 -3.5 0 
C -3.5 0.928211 -3.131218 1.81853 -2.474874 2.474874 
C -1.81853 3.131218 -0.928211 3.5 0 3.5 
z
" id="m141c35c3ef" style="stroke:#c44e52;stroke-width:0.3;"/>
    </defs>
    <g clip-path="url(#p7a4383e868)">
     <use style="fill:#c44e52;stroke:#c44e52;stroke-width:0.3;" x="264.240613" xlink:href="#m141c35c3ef" y="229.792084"/>
     <use style="fill:#c44e52;stroke:#c44e52;stroke-width:0.3;" x="317.617515" xlink:href="#m141c35c3ef" y="239.22325"/>
     <use style="fill:#c44e52;stroke:#c44e52;stroke-width:0.3;" x="323.460292" xlink:href="#m141c35c3ef" y="252.487601"/>
     <use style="fill:#c44e52;stroke:#c44e52;stroke-width:0.3;" x="290.357584" xlink:href="#m141c35c3ef" y="263.214803"/>
     <use style="fill:#c44e52;stroke:#c44e52;stroke-width:0.3;" x="375.919857" xlink:href="#m141c35c3ef" y="254.795295"/>
     <use style="fill:#c44e52;stroke:#c44e52;stroke-width:0.3;" x="405.423176" xlink:href="#m141c35c3ef" y="240.256097"/>
     <use style="fill:#c44e52;stroke:#c44e52;stroke-width:0.3;" x="318.161525" xlink:href="#m141c35c3ef" y="244.072987"/>
     <use style="fill:#c44e52;stroke:#c44e52;stroke-width:0.3;" x="433.885018" xlink:href="#m141c35c3ef" y="242.98588"/>
     <use style="fill:#c44e52;stroke:#c44e52;stroke-width:0.3;" x="353.642807" xlink:href="#m141c35c3ef" y="232.648791"/>
     <use style="fill:#c44e52;stroke:#c44e52;stroke-width:0.3;" x="333.06695" xlink:href="#m141c35c3ef" y="247.213902"/>
     <use style="fill:#c44e52;stroke:#c44e52;stroke-width:0.3;" x="193.3224" xlink:href="#m141c35c3ef" y="244.579879"/>
     <use style="fill:#c44e52;stroke:#c44e52;stroke-width:0.3;" x="355.109485" xlink:href="#m141c35c3ef" y="235.650356"/>
     <use style="fill:#c44e52;stroke:#c44e52;stroke-width:0.3;" x="362.743648" xlink:href="#m141c35c3ef" y="240.446852"/>
     <use style="fill:#c44e52;stroke:#c44e52;stroke-width:0.3;" x="303.28567" xlink:href="#m141c35c3ef" y="236.915031"/>
     <use style="fill:#c44e52;stroke:#c44e52;stroke-width:0.3;" x="319.605973" xlink:href="#m141c35c3ef" y="229.86781"/>
     <use style="fill:#c44e52;stroke:#c44e52;stroke-width:0.3;" x="384.935683" xlink:href="#m141c35c3ef" y="214.0018"/>
     <use style="fill:#c44e52;stroke:#c44e52;stroke-width:0.3;" x="373.546955" xlink:href="#m141c35c3ef" y="204.256096"/>
     <use style="fill:#c44e52;stroke:#c44e52;stroke-width:0.3;" x="289.590743" xlink:href="#m141c35c3ef" y="207.622722"/>
     <use style="fill:#c44e52;stroke:#c44e52;stroke-width:0.3;" x="293.163027" xlink:href="#m141c35c3ef" y="216.121624"/>
     <use style="fill:#c44e52;stroke:#c44e52;stroke-width:0.3;" x="359.194473" xlink:href="#m141c35c3ef" y="194.21947"/>
     <use style="fill:#c44e52;stroke:#c44e52;stroke-width:0.3;" x="436.414439" xlink:href="#m141c35c3ef" y="192.177232"/>
     <use style="fill:#c44e52;stroke:#c44e52;stroke-width:0.3;" x="372.688359" xlink:href="#m141c35c3ef" y="202.945453"/>
     <use style="fill:#c44e52;stroke:#c44e52;stroke-width:0.3;" x="367.318777" xlink:href="#m141c35c3ef" y="202.448402"/>
     <use style="fill:#c44e52;stroke:#c44e52;stroke-width:0.3;" x="345.180556" xlink:href="#m141c35c3ef" y="193.97073"/>
    </g>
   </g>
   <g id="line2d_15">
    <path clip-path="url(#p7a4383e868)" d="M 295.2 199.98 
L 422.233435 270.304578 
" style="fill:none;stroke:#ff0000;stroke-dasharray:7.4,3.2;stroke-dashoffset:0;stroke-width:2;"/>
   </g>
   <g id="patch_3">
    <path d="M 447.66 199.98 
C 447.66 179.959136 443.716326 160.13295 436.054674 141.636084 
C 428.393021 123.139218 417.162388 106.331389 403.0055 92.1745 
C 388.848611 78.017612 372.040782 66.786979 353.543916 59.125326 
C 335.04705 51.463674 315.220864 47.52 295.2 47.52 
C 275.179136 47.52 255.35295 51.463674 236.856084 59.125326 
C 218.359218 66.786979 201.551389 78.017612 187.3945 92.1745 
C 173.237612 106.331389 162.006979 123.139218 154.345326 141.636084 
C 146.683674 160.13295 142.74 179.959136 142.74 199.98 
C 142.74 220.000864 146.683674 239.82705 154.345326 258.323916 
C 162.006979 276.820782 173.237612 293.628611 187.3945 307.7855 
C 201.551389 321.942388 218.359218 333.173021 236.856084 340.834674 
C 255.35295 348.496326 275.179136 352.44 295.2 352.44 
C 315.220864 352.44 335.04705 348.496326 353.543916 340.834674 
C 372.040782 333.173021 388.848611 321.942388 403.0055 307.7855 
C 417.162388 293.628611 428.393021 276.820782 436.054674 258.323916 
C 443.716326 239.82705 447.66 220.000864 447.66 199.98 
" style="fill:none;"/>
   </g>
   <g id="text_15">
    <!-- Distribution of projected eye movement velocity on the screen - NewM2_3_21 -->
    <defs>
     <path d="M 7.71875 0 
L 7.71875 71.578125 
L 32.375 71.578125 
Q 40.71875 71.578125 45.125 70.5625 
Q 51.265625 69.140625 55.609375 65.4375 
Q 61.28125 60.640625 64.078125 53.1875 
Q 66.890625 45.75 66.890625 36.1875 
Q 66.890625 28.03125 64.984375 21.734375 
Q 63.09375 15.4375 60.109375 11.296875 
Q 57.125 7.171875 53.578125 4.796875 
Q 50.046875 2.4375 45.046875 1.21875 
Q 40.046875 0 33.546875 0 
z
M 17.1875 8.453125 
L 32.46875 8.453125 
Q 39.546875 8.453125 43.578125 9.765625 
Q 47.609375 11.078125 50 13.484375 
Q 53.375 16.84375 55.25 22.53125 
Q 57.125 28.21875 57.125 36.328125 
Q 57.125 47.5625 53.4375 53.59375 
Q 49.75 59.625 44.484375 61.671875 
Q 40.671875 63.140625 32.234375 63.140625 
L 17.1875 63.140625 
z
" id="ArialMT-68"/>
     <path d="M 6.640625 61.46875 
L 6.640625 71.578125 
L 15.4375 71.578125 
L 15.4375 61.46875 
z
M 6.640625 0 
L 6.640625 51.859375 
L 15.4375 51.859375 
L 15.4375 0 
z
" id="ArialMT-105"/>
     <path d="M 3.078125 15.484375 
L 11.765625 16.84375 
Q 12.5 11.625 15.84375 8.84375 
Q 19.1875 6.0625 25.203125 6.0625 
Q 31.25 6.0625 34.171875 8.515625 
Q 37.109375 10.984375 37.109375 14.3125 
Q 37.109375 17.28125 34.515625 19 
Q 32.71875 20.171875 25.53125 21.96875 
Q 15.875 24.421875 12.140625 26.203125 
Q 8.40625 27.984375 6.46875 31.125 
Q 4.546875 34.28125 4.546875 38.09375 
Q 4.546875 41.546875 6.125 44.5 
Q 7.71875 47.46875 10.453125 49.421875 
Q 12.5 50.921875 16.03125 51.96875 
Q 19.578125 53.03125 23.640625 53.03125 
Q 29.734375 53.03125 34.34375 51.265625 
Q 38.96875 49.515625 41.15625 46.5 
Q 43.359375 43.5 44.1875 38.484375 
L 35.59375 37.3125 
Q 35.015625 41.3125 32.203125 43.546875 
Q 29.390625 45.796875 24.265625 45.796875 
Q 18.21875 45.796875 15.625 43.796875 
Q 13.03125 41.796875 13.03125 39.109375 
Q 13.03125 37.40625 14.109375 36.03125 
Q 15.1875 34.625 17.484375 33.6875 
Q 18.796875 33.203125 25.25 31.453125 
Q 34.578125 28.953125 38.25 27.359375 
Q 41.9375 25.78125 44.03125 22.75 
Q 46.140625 19.734375 46.140625 15.234375 
Q 46.140625 10.84375 43.578125 6.953125 
Q 41.015625 3.078125 36.171875 0.953125 
Q 31.34375 -1.171875 25.25 -1.171875 
Q 15.140625 -1.171875 9.84375 3.03125 
Q 4.546875 7.234375 3.078125 15.484375 
z
" id="ArialMT-115"/>
     <path d="M 25.78125 7.859375 
L 27.046875 0.09375 
Q 23.34375 -0.6875 20.40625 -0.6875 
Q 15.625 -0.6875 12.984375 0.828125 
Q 10.359375 2.34375 9.28125 4.8125 
Q 8.203125 7.28125 8.203125 15.1875 
L 8.203125 45.015625 
L 1.765625 45.015625 
L 1.765625 51.859375 
L 8.203125 51.859375 
L 8.203125 64.703125 
L 16.9375 69.96875 
L 16.9375 51.859375 
L 25.78125 51.859375 
L 25.78125 45.015625 
L 16.9375 45.015625 
L 16.9375 14.703125 
Q 16.9375 10.9375 17.40625 9.859375 
Q 17.875 8.796875 18.921875 8.15625 
Q 19.96875 7.515625 21.921875 7.515625 
Q 23.390625 7.515625 25.78125 7.859375 
z
" id="ArialMT-116"/>
     <path d="M 6.5 0 
L 6.5 51.859375 
L 14.40625 51.859375 
L 14.40625 44 
Q 17.4375 49.515625 20 51.265625 
Q 22.5625 53.03125 25.640625 53.03125 
Q 30.078125 53.03125 34.671875 50.203125 
L 31.640625 42.046875 
Q 28.421875 43.953125 25.203125 43.953125 
Q 22.3125 43.953125 20.015625 42.21875 
Q 17.71875 40.484375 16.75 37.40625 
Q 15.28125 32.71875 15.28125 27.15625 
L 15.28125 0 
z
" id="ArialMT-114"/>
     <path d="M 14.703125 0 
L 6.546875 0 
L 6.546875 71.578125 
L 15.328125 71.578125 
L 15.328125 46.046875 
Q 20.90625 53.03125 29.546875 53.03125 
Q 34.328125 53.03125 38.59375 51.09375 
Q 42.875 49.171875 45.625 45.671875 
Q 48.390625 42.1875 49.953125 37.25 
Q 51.515625 32.328125 51.515625 26.703125 
Q 51.515625 13.375 44.921875 6.09375 
Q 38.328125 -1.171875 29.109375 -1.171875 
Q 19.921875 -1.171875 14.703125 6.5 
z
M 14.59375 26.3125 
Q 14.59375 17 17.140625 12.84375 
Q 21.296875 6.0625 28.375 6.0625 
Q 34.125 6.0625 38.328125 11.0625 
Q 42.53125 16.0625 42.53125 25.984375 
Q 42.53125 36.140625 38.5 40.96875 
Q 34.46875 45.796875 28.765625 45.796875 
Q 23 45.796875 18.796875 40.796875 
Q 14.59375 35.796875 14.59375 26.3125 
z
" id="ArialMT-98"/>
     <path d="M 40.578125 0 
L 40.578125 7.625 
Q 34.515625 -1.171875 24.125 -1.171875 
Q 19.53125 -1.171875 15.546875 0.578125 
Q 11.578125 2.34375 9.640625 5 
Q 7.71875 7.671875 6.9375 11.53125 
Q 6.390625 14.109375 6.390625 19.734375 
L 6.390625 51.859375 
L 15.1875 51.859375 
L 15.1875 23.09375 
Q 15.1875 16.21875 15.71875 13.8125 
Q 16.546875 10.359375 19.234375 8.375 
Q 21.921875 6.390625 25.875 6.390625 
Q 29.828125 6.390625 33.296875 8.421875 
Q 36.765625 10.453125 38.203125 13.9375 
Q 39.65625 17.4375 39.65625 24.078125 
L 39.65625 51.859375 
L 48.4375 51.859375 
L 48.4375 0 
z
" id="ArialMT-117"/>
     <path d="M 3.328125 25.921875 
Q 3.328125 40.328125 11.328125 47.265625 
Q 18.015625 53.03125 27.640625 53.03125 
Q 38.328125 53.03125 45.109375 46.015625 
Q 51.90625 39.015625 51.90625 26.65625 
Q 51.90625 16.65625 48.90625 10.90625 
Q 45.90625 5.171875 40.15625 2 
Q 34.421875 -1.171875 27.640625 -1.171875 
Q 16.75 -1.171875 10.03125 5.8125 
Q 3.328125 12.796875 3.328125 25.921875 
z
M 12.359375 25.921875 
Q 12.359375 15.96875 16.703125 11.015625 
Q 21.046875 6.0625 27.640625 6.0625 
Q 34.1875 6.0625 38.53125 11.03125 
Q 42.875 16.015625 42.875 26.21875 
Q 42.875 35.84375 38.5 40.796875 
Q 34.125 45.75 27.640625 45.75 
Q 21.046875 45.75 16.703125 40.8125 
Q 12.359375 35.890625 12.359375 25.921875 
z
" id="ArialMT-111"/>
     <path d="M 6.59375 0 
L 6.59375 51.859375 
L 14.5 51.859375 
L 14.5 44.484375 
Q 20.21875 53.03125 31 53.03125 
Q 35.6875 53.03125 39.625 51.34375 
Q 43.5625 49.65625 45.515625 46.921875 
Q 47.46875 44.1875 48.25 40.4375 
Q 48.734375 37.984375 48.734375 31.890625 
L 48.734375 0 
L 39.9375 0 
L 39.9375 31.546875 
Q 39.9375 36.921875 38.90625 39.578125 
Q 37.890625 42.234375 35.28125 43.8125 
Q 32.671875 45.40625 29.15625 45.40625 
Q 23.53125 45.40625 19.453125 41.84375 
Q 15.375 38.28125 15.375 28.328125 
L 15.375 0 
z
" id="ArialMT-110"/>
     <path id="ArialMT-32"/>
     <path d="M 8.6875 0 
L 8.6875 45.015625 
L 0.921875 45.015625 
L 0.921875 51.859375 
L 8.6875 51.859375 
L 8.6875 57.375 
Q 8.6875 62.59375 9.625 65.140625 
Q 10.890625 68.5625 14.078125 70.671875 
Q 17.28125 72.796875 23.046875 72.796875 
Q 26.765625 72.796875 31.25 71.921875 
L 29.9375 64.265625 
Q 27.203125 64.75 24.75 64.75 
Q 20.75 64.75 19.09375 63.03125 
Q 17.4375 61.328125 17.4375 56.640625 
L 17.4375 51.859375 
L 27.546875 51.859375 
L 27.546875 45.015625 
L 17.4375 45.015625 
L 17.4375 0 
z
" id="ArialMT-102"/>
     <path d="M 6.59375 -19.875 
L 6.59375 51.859375 
L 14.59375 51.859375 
L 14.59375 45.125 
Q 17.4375 49.078125 21 51.046875 
Q 24.5625 53.03125 29.640625 53.03125 
Q 36.28125 53.03125 41.359375 49.609375 
Q 46.4375 46.1875 49.015625 39.953125 
Q 51.609375 33.734375 51.609375 26.3125 
Q 51.609375 18.359375 48.75 11.984375 
Q 45.90625 5.609375 40.453125 2.21875 
Q 35.015625 -1.171875 29 -1.171875 
Q 24.609375 -1.171875 21.109375 0.6875 
Q 17.625 2.546875 15.375 5.375 
L 15.375 -19.875 
z
M 14.546875 25.640625 
Q 14.546875 15.625 18.59375 10.84375 
Q 22.65625 6.0625 28.421875 6.0625 
Q 34.28125 6.0625 38.453125 11.015625 
Q 42.625 15.96875 42.625 26.375 
Q 42.625 36.28125 38.546875 41.203125 
Q 34.46875 46.140625 28.8125 46.140625 
Q 23.1875 46.140625 18.859375 40.890625 
Q 14.546875 35.640625 14.546875 25.640625 
z
" id="ArialMT-112"/>
     <path d="M 6.546875 61.375 
L 6.546875 71.578125 
L 15.328125 71.578125 
L 15.328125 61.375 
z
M -4.59375 -20.125 
L -2.9375 -12.640625 
Q -0.296875 -13.328125 1.21875 -13.328125 
Q 3.90625 -13.328125 5.21875 -11.546875 
Q 6.546875 -9.765625 6.546875 -2.640625 
L 6.546875 51.859375 
L 15.328125 51.859375 
L 15.328125 -2.828125 
Q 15.328125 -12.40625 12.84375 -16.15625 
Q 9.671875 -21.046875 2.296875 -21.046875 
Q -1.265625 -21.046875 -4.59375 -20.125 
z
" id="ArialMT-106"/>
     <path d="M 42.09375 16.703125 
L 51.171875 15.578125 
Q 49.03125 7.625 43.21875 3.21875 
Q 37.40625 -1.171875 28.375 -1.171875 
Q 17 -1.171875 10.328125 5.828125 
Q 3.65625 12.84375 3.65625 25.484375 
Q 3.65625 38.578125 10.390625 45.796875 
Q 17.140625 53.03125 27.875 53.03125 
Q 38.28125 53.03125 44.875 45.953125 
Q 51.46875 38.875 51.46875 26.03125 
Q 51.46875 25.25 51.421875 23.6875 
L 12.75 23.6875 
Q 13.234375 15.140625 17.578125 10.59375 
Q 21.921875 6.0625 28.421875 6.0625 
Q 33.25 6.0625 36.671875 8.59375 
Q 40.09375 11.140625 42.09375 16.703125 
z
M 13.234375 30.90625 
L 42.1875 30.90625 
Q 41.609375 37.453125 38.875 40.71875 
Q 34.671875 45.796875 27.984375 45.796875 
Q 21.921875 45.796875 17.796875 41.75 
Q 13.671875 37.703125 13.234375 30.90625 
z
" id="ArialMT-101"/>
     <path d="M 40.4375 19 
L 49.078125 17.875 
Q 47.65625 8.9375 41.8125 3.875 
Q 35.984375 -1.171875 27.484375 -1.171875 
Q 16.84375 -1.171875 10.375 5.78125 
Q 3.90625 12.75 3.90625 25.734375 
Q 3.90625 34.125 6.6875 40.421875 
Q 9.46875 46.734375 15.15625 49.875 
Q 20.84375 53.03125 27.546875 53.03125 
Q 35.984375 53.03125 41.359375 48.75 
Q 46.734375 44.484375 48.25 36.625 
L 39.703125 35.296875 
Q 38.484375 40.53125 35.375 43.15625 
Q 32.28125 45.796875 27.875 45.796875 
Q 21.234375 45.796875 17.078125 41.03125 
Q 12.9375 36.28125 12.9375 25.984375 
Q 12.9375 15.53125 16.9375 10.796875 
Q 20.953125 6.0625 27.390625 6.0625 
Q 32.5625 6.0625 36.03125 9.234375 
Q 39.5 12.40625 40.4375 19 
z
" id="ArialMT-99"/>
     <path d="M 40.234375 0 
L 40.234375 6.546875 
Q 35.296875 -1.171875 25.734375 -1.171875 
Q 19.53125 -1.171875 14.328125 2.25 
Q 9.125 5.671875 6.265625 11.796875 
Q 3.421875 17.921875 3.421875 25.875 
Q 3.421875 33.640625 6 39.96875 
Q 8.59375 46.296875 13.765625 49.65625 
Q 18.953125 53.03125 25.34375 53.03125 
Q 30.03125 53.03125 33.6875 51.046875 
Q 37.359375 49.078125 39.65625 45.90625 
L 39.65625 71.578125 
L 48.390625 71.578125 
L 48.390625 0 
z
M 12.453125 25.875 
Q 12.453125 15.921875 16.640625 10.984375 
Q 20.84375 6.0625 26.5625 6.0625 
Q 32.328125 6.0625 36.34375 10.765625 
Q 40.375 15.484375 40.375 25.140625 
Q 40.375 35.796875 36.265625 40.765625 
Q 32.171875 45.75 26.171875 45.75 
Q 20.3125 45.75 16.375 40.96875 
Q 12.453125 36.1875 12.453125 25.875 
z
" id="ArialMT-100"/>
     <path d="M 6.203125 -19.96875 
L 5.21875 -11.71875 
Q 8.109375 -12.5 10.25 -12.5 
Q 13.1875 -12.5 14.9375 -11.515625 
Q 16.703125 -10.546875 17.828125 -8.796875 
Q 18.65625 -7.46875 20.515625 -2.25 
Q 20.75 -1.515625 21.296875 -0.09375 
L 1.609375 51.859375 
L 11.078125 51.859375 
L 21.875 21.828125 
Q 23.96875 16.109375 25.640625 9.8125 
Q 27.15625 15.875 29.25 21.625 
L 40.328125 51.859375 
L 49.125 51.859375 
L 29.390625 -0.875 
Q 26.21875 -9.421875 24.46875 -12.640625 
Q 22.125 -17 19.09375 -19.015625 
Q 16.0625 -21.046875 11.859375 -21.046875 
Q 9.328125 -21.046875 6.203125 -19.96875 
z
" id="ArialMT-121"/>
     <path d="M 6.59375 0 
L 6.59375 51.859375 
L 14.453125 51.859375 
L 14.453125 44.578125 
Q 16.890625 48.390625 20.9375 50.703125 
Q 25 53.03125 30.171875 53.03125 
Q 35.9375 53.03125 39.625 50.640625 
Q 43.3125 48.25 44.828125 43.953125 
Q 50.984375 53.03125 60.84375 53.03125 
Q 68.5625 53.03125 72.703125 48.75 
Q 76.859375 44.484375 76.859375 35.59375 
L 76.859375 0 
L 68.109375 0 
L 68.109375 32.671875 
Q 68.109375 37.9375 67.25 40.25 
Q 66.40625 42.578125 64.15625 43.984375 
Q 61.921875 45.40625 58.890625 45.40625 
Q 53.421875 45.40625 49.796875 41.765625 
Q 46.1875 38.140625 46.1875 30.125 
L 46.1875 0 
L 37.40625 0 
L 37.40625 33.6875 
Q 37.40625 39.546875 35.25 42.46875 
Q 33.109375 45.40625 28.21875 45.40625 
Q 24.515625 45.40625 21.359375 43.453125 
Q 18.21875 41.5 16.796875 37.734375 
Q 15.375 33.984375 15.375 26.90625 
L 15.375 0 
z
" id="ArialMT-109"/>
     <path d="M 21 0 
L 1.265625 51.859375 
L 10.546875 51.859375 
L 21.6875 20.796875 
Q 23.484375 15.765625 25 10.359375 
Q 26.171875 14.453125 28.265625 20.21875 
L 39.796875 51.859375 
L 48.828125 51.859375 
L 29.203125 0 
z
" id="ArialMT-118"/>
     <path d="M 6.390625 0 
L 6.390625 71.578125 
L 15.1875 71.578125 
L 15.1875 0 
z
" id="ArialMT-108"/>
     <path d="M 6.59375 0 
L 6.59375 71.578125 
L 15.375 71.578125 
L 15.375 45.90625 
Q 21.53125 53.03125 30.90625 53.03125 
Q 36.671875 53.03125 40.921875 50.75 
Q 45.171875 48.484375 47 44.484375 
Q 48.828125 40.484375 48.828125 32.859375 
L 48.828125 0 
L 40.046875 0 
L 40.046875 32.859375 
Q 40.046875 39.453125 37.1875 42.453125 
Q 34.328125 45.453125 29.109375 45.453125 
Q 25.203125 45.453125 21.75 43.421875 
Q 18.3125 41.40625 16.84375 37.9375 
Q 15.375 34.46875 15.375 28.375 
L 15.375 0 
z
" id="ArialMT-104"/>
     <path d="M 3.171875 21.484375 
L 3.171875 30.328125 
L 30.171875 30.328125 
L 30.171875 21.484375 
z
" id="ArialMT-45"/>
     <path d="M 7.625 0 
L 7.625 71.578125 
L 17.328125 71.578125 
L 54.9375 15.375 
L 54.9375 71.578125 
L 64.015625 71.578125 
L 64.015625 0 
L 54.296875 0 
L 16.703125 56.25 
L 16.703125 0 
z
" id="ArialMT-78"/>
     <path d="M 16.15625 0 
L 0.296875 51.859375 
L 9.375 51.859375 
L 17.625 21.921875 
L 20.703125 10.796875 
Q 20.90625 11.625 23.390625 21.484375 
L 31.640625 51.859375 
L 40.671875 51.859375 
L 48.4375 21.78125 
L 51.03125 11.859375 
L 54 21.875 
L 62.890625 51.859375 
L 71.4375 51.859375 
L 55.21875 0 
L 46.09375 0 
L 37.84375 31.0625 
L 35.84375 39.890625 
L 25.34375 0 
z
" id="ArialMT-119"/>
     <path d="M 7.421875 0 
L 7.421875 71.578125 
L 21.6875 71.578125 
L 38.625 20.90625 
Q 40.96875 13.8125 42.046875 10.296875 
Q 43.265625 14.203125 45.84375 21.78125 
L 62.984375 71.578125 
L 75.734375 71.578125 
L 75.734375 0 
L 66.609375 0 
L 66.609375 59.90625 
L 45.796875 0 
L 37.25 0 
L 16.546875 60.9375 
L 16.546875 0 
z
" id="ArialMT-77"/>
     <path d="M -1.515625 -19.875 
L -1.515625 -13.53125 
L 56.734375 -13.53125 
L 56.734375 -19.875 
z
" id="ArialMT-95"/>
    </defs>
    <g style="fill:#262626;" transform="translate(89.110313 23.748375)scale(0.12 -0.12)">
     <use xlink:href="#ArialMT-68"/>
     <use x="72.216797" xlink:href="#ArialMT-105"/>
     <use x="94.433594" xlink:href="#ArialMT-115"/>
     <use x="144.433594" xlink:href="#ArialMT-116"/>
     <use x="172.216797" xlink:href="#ArialMT-114"/>
     <use x="205.517578" xlink:href="#ArialMT-105"/>
     <use x="227.734375" xlink:href="#ArialMT-98"/>
     <use x="283.349609" xlink:href="#ArialMT-117"/>
     <use x="338.964844" xlink:href="#ArialMT-116"/>
     <use x="366.748047" xlink:href="#ArialMT-105"/>
     <use x="388.964844" xlink:href="#ArialMT-111"/>
     <use x="444.580078" xlink:href="#ArialMT-110"/>
     <use x="500.195312" xlink:href="#ArialMT-32"/>
     <use x="527.978516" xlink:href="#ArialMT-111"/>
     <use x="583.59375" xlink:href="#ArialMT-102"/>
     <use x="611.376953" xlink:href="#ArialMT-32"/>
     <use x="639.160156" xlink:href="#ArialMT-112"/>
     <use x="694.775391" xlink:href="#ArialMT-114"/>
     <use x="728.076172" xlink:href="#ArialMT-111"/>
     <use x="783.691406" xlink:href="#ArialMT-106"/>
     <use x="805.908203" xlink:href="#ArialMT-101"/>
     <use x="861.523438" xlink:href="#ArialMT-99"/>
     <use x="911.523438" xlink:href="#ArialMT-116"/>
     <use x="939.306641" xlink:href="#ArialMT-101"/>
     <use x="994.921875" xlink:href="#ArialMT-100"/>
     <use x="1050.537109" xlink:href="#ArialMT-32"/>
     <use x="1078.320312" xlink:href="#ArialMT-101"/>
     <use x="1133.935547" xlink:href="#ArialMT-121"/>
     <use x="1183.935547" xlink:href="#ArialMT-101"/>
     <use x="1239.550781" xlink:href="#ArialMT-32"/>
     <use x="1267.333984" xlink:href="#ArialMT-109"/>
     <use x="1350.634766" xlink:href="#ArialMT-111"/>
     <use x="1406.25" xlink:href="#ArialMT-118"/>
     <use x="1456.25" xlink:href="#ArialMT-101"/>
     <use x="1511.865234" xlink:href="#ArialMT-109"/>
     <use x="1595.166016" xlink:href="#ArialMT-101"/>
     <use x="1650.78125" xlink:href="#ArialMT-110"/>
     <use x="1706.396484" xlink:href="#ArialMT-116"/>
     <use x="1734.179688" xlink:href="#ArialMT-32"/>
     <use x="1761.962891" xlink:href="#ArialMT-118"/>
     <use x="1811.962891" xlink:href="#ArialMT-101"/>
     <use x="1867.578125" xlink:href="#ArialMT-108"/>
     <use x="1889.794922" xlink:href="#ArialMT-111"/>
     <use x="1945.410156" xlink:href="#ArialMT-99"/>
     <use x="1995.410156" xlink:href="#ArialMT-105"/>
     <use x="2017.626953" xlink:href="#ArialMT-116"/>
     <use x="2045.410156" xlink:href="#ArialMT-121"/>
     <use x="2095.410156" xlink:href="#ArialMT-32"/>
     <use x="2123.193359" xlink:href="#ArialMT-111"/>
     <use x="2178.808594" xlink:href="#ArialMT-110"/>
     <use x="2234.423828" xlink:href="#ArialMT-32"/>
     <use x="2262.207031" xlink:href="#ArialMT-116"/>
     <use x="2289.990234" xlink:href="#ArialMT-104"/>
     <use x="2345.605469" xlink:href="#ArialMT-101"/>
     <use x="2401.220703" xlink:href="#ArialMT-32"/>
     <use x="2429.003906" xlink:href="#ArialMT-115"/>
     <use x="2479.003906" xlink:href="#ArialMT-99"/>
     <use x="2529.003906" xlink:href="#ArialMT-114"/>
     <use x="2562.304688" xlink:href="#ArialMT-101"/>
     <use x="2617.919922" xlink:href="#ArialMT-101"/>
     <use x="2673.535156" xlink:href="#ArialMT-110"/>
     <use x="2729.150391" xlink:href="#ArialMT-32"/>
     <use x="2756.933594" xlink:href="#ArialMT-45"/>
     <use x="2790.234375" xlink:href="#ArialMT-32"/>
     <use x="2818.017578" xlink:href="#ArialMT-78"/>
     <use x="2890.234375" xlink:href="#ArialMT-101"/>
     <use x="2945.849609" xlink:href="#ArialMT-119"/>
     <use x="3018.066406" xlink:href="#ArialMT-77"/>
     <use x="3101.367188" xlink:href="#ArialMT-50"/>
     <use x="3156.982422" xlink:href="#ArialMT-95"/>
     <use x="3212.597656" xlink:href="#ArialMT-51"/>
     <use x="3268.212891" xlink:href="#ArialMT-95"/>
     <use x="3323.828125" xlink:href="#ArialMT-50"/>
     <use x="3379.443359" xlink:href="#ArialMT-49"/>
    </g>
   </g>
   <g id="legend_1">
    <g id="line2d_16">
     <path d="M 196.151563 60.2075 
L 216.151563 60.2075 
" style="fill:none;stroke:#ff0000;stroke-dasharray:7.4,3.2;stroke-dashoffset:0;stroke-width:2;"/>
    </g>
    <g id="line2d_17"/>
    <g id="text_16">
     <!-- Average angle in dark: -28.97 degrees -->
     <defs>
      <path d="M -0.140625 0 
L 27.34375 71.578125 
L 37.546875 71.578125 
L 66.84375 0 
L 56.0625 0 
L 47.703125 21.6875 
L 17.78125 21.6875 
L 9.90625 0 
z
M 20.515625 29.390625 
L 44.78125 29.390625 
L 37.3125 49.21875 
Q 33.890625 58.25 32.234375 64.0625 
Q 30.859375 57.171875 28.375 50.390625 
z
" id="ArialMT-65"/>
      <path d="M 40.4375 6.390625 
Q 35.546875 2.25 31.03125 0.53125 
Q 26.515625 -1.171875 21.34375 -1.171875 
Q 12.796875 -1.171875 8.203125 3 
Q 3.609375 7.171875 3.609375 13.671875 
Q 3.609375 17.484375 5.34375 20.625 
Q 7.078125 23.78125 9.890625 25.6875 
Q 12.703125 27.59375 16.21875 28.5625 
Q 18.796875 29.25 24.03125 29.890625 
Q 34.671875 31.15625 39.703125 32.90625 
Q 39.75 34.71875 39.75 35.203125 
Q 39.75 40.578125 37.25 42.78125 
Q 33.890625 45.75 27.25 45.75 
Q 21.046875 45.75 18.09375 43.578125 
Q 15.140625 41.40625 13.71875 35.890625 
L 5.125 37.0625 
Q 6.296875 42.578125 8.984375 45.96875 
Q 11.671875 49.359375 16.75 51.1875 
Q 21.828125 53.03125 28.515625 53.03125 
Q 35.15625 53.03125 39.296875 51.46875 
Q 43.453125 49.90625 45.40625 47.53125 
Q 47.359375 45.171875 48.140625 41.546875 
Q 48.578125 39.3125 48.578125 33.453125 
L 48.578125 21.734375 
Q 48.578125 9.46875 49.140625 6.21875 
Q 49.703125 2.984375 51.375 0 
L 42.1875 0 
Q 40.828125 2.734375 40.4375 6.390625 
z
M 39.703125 26.03125 
Q 34.90625 24.078125 25.34375 22.703125 
Q 19.921875 21.921875 17.671875 20.9375 
Q 15.4375 19.96875 14.203125 18.09375 
Q 12.984375 16.21875 12.984375 13.921875 
Q 12.984375 10.40625 15.640625 8.0625 
Q 18.3125 5.71875 23.4375 5.71875 
Q 28.515625 5.71875 32.46875 7.9375 
Q 36.421875 10.15625 38.28125 14.015625 
Q 39.703125 17 39.703125 22.796875 
z
" id="ArialMT-97"/>
      <path d="M 4.984375 -4.296875 
L 13.53125 -5.5625 
Q 14.0625 -9.515625 16.5 -11.328125 
Q 19.78125 -13.765625 25.4375 -13.765625 
Q 31.546875 -13.765625 34.859375 -11.328125 
Q 38.1875 -8.890625 39.359375 -4.5 
Q 40.046875 -1.8125 39.984375 6.78125 
Q 34.234375 0 25.640625 0 
Q 14.9375 0 9.078125 7.71875 
Q 3.21875 15.4375 3.21875 26.21875 
Q 3.21875 33.640625 5.90625 39.90625 
Q 8.59375 46.1875 13.6875 49.609375 
Q 18.796875 53.03125 25.6875 53.03125 
Q 34.859375 53.03125 40.828125 45.609375 
L 40.828125 51.859375 
L 48.921875 51.859375 
L 48.921875 7.03125 
Q 48.921875 -5.078125 46.453125 -10.125 
Q 44 -15.1875 38.640625 -18.109375 
Q 33.296875 -21.046875 25.484375 -21.046875 
Q 16.21875 -21.046875 10.5 -16.875 
Q 4.78125 -12.703125 4.984375 -4.296875 
z
M 12.25 26.859375 
Q 12.25 16.65625 16.296875 11.96875 
Q 20.359375 7.28125 26.46875 7.28125 
Q 32.515625 7.28125 36.609375 11.9375 
Q 40.71875 16.609375 40.71875 26.5625 
Q 40.71875 36.078125 36.5 40.90625 
Q 32.28125 45.75 26.3125 45.75 
Q 20.453125 45.75 16.34375 40.984375 
Q 12.25 36.234375 12.25 26.859375 
z
" id="ArialMT-103"/>
      <path d="M 6.640625 0 
L 6.640625 71.578125 
L 15.4375 71.578125 
L 15.4375 30.765625 
L 36.234375 51.859375 
L 47.609375 51.859375 
L 27.78125 32.625 
L 49.609375 0 
L 38.765625 0 
L 21.625 26.515625 
L 15.4375 20.5625 
L 15.4375 0 
z
" id="ArialMT-107"/>
      <path d="M 9.03125 41.84375 
L 9.03125 51.859375 
L 19.046875 51.859375 
L 19.046875 41.84375 
z
M 9.03125 0 
L 9.03125 10.015625 
L 19.046875 10.015625 
L 19.046875 0 
z
" id="ArialMT-58"/>
     </defs>
     <g style="fill:#262626;" transform="translate(224.151563 63.7075)scale(0.1 -0.1)">
      <use xlink:href="#ArialMT-65"/>
      <use x="66.683594" xlink:href="#ArialMT-118"/>
      <use x="116.683594" xlink:href="#ArialMT-101"/>
      <use x="172.298828" xlink:href="#ArialMT-114"/>
      <use x="205.599609" xlink:href="#ArialMT-97"/>
      <use x="261.214844" xlink:href="#ArialMT-103"/>
      <use x="316.830078" xlink:href="#ArialMT-101"/>
      <use x="372.445312" xlink:href="#ArialMT-32"/>
      <use x="400.228516" xlink:href="#ArialMT-97"/>
      <use x="455.84375" xlink:href="#ArialMT-110"/>
      <use x="511.458984" xlink:href="#ArialMT-103"/>
      <use x="567.074219" xlink:href="#ArialMT-108"/>
      <use x="589.291016" xlink:href="#ArialMT-101"/>
      <use x="644.90625" xlink:href="#ArialMT-32"/>
      <use x="672.689453" xlink:href="#ArialMT-105"/>
      <use x="694.90625" xlink:href="#ArialMT-110"/>
      <use x="750.521484" xlink:href="#ArialMT-32"/>
      <use x="778.304688" xlink:href="#ArialMT-100"/>
      <use x="833.919922" xlink:href="#ArialMT-97"/>
      <use x="889.535156" xlink:href="#ArialMT-114"/>
      <use x="922.835938" xlink:href="#ArialMT-107"/>
      <use x="972.835938" xlink:href="#ArialMT-58"/>
      <use x="1000.619141" xlink:href="#ArialMT-32"/>
      <use x="1028.402344" xlink:href="#ArialMT-45"/>
      <use x="1061.703125" xlink:href="#ArialMT-50"/>
      <use x="1117.318359" xlink:href="#ArialMT-56"/>
      <use x="1172.933594" xlink:href="#ArialMT-46"/>
      <use x="1200.716797" xlink:href="#ArialMT-57"/>
      <use x="1256.332031" xlink:href="#ArialMT-55"/>
      <use x="1311.947266" xlink:href="#ArialMT-32"/>
      <use x="1339.730469" xlink:href="#ArialMT-100"/>
      <use x="1395.345703" xlink:href="#ArialMT-101"/>
      <use x="1450.960938" xlink:href="#ArialMT-103"/>
      <use x="1506.576172" xlink:href="#ArialMT-114"/>
      <use x="1539.876953" xlink:href="#ArialMT-101"/>
      <use x="1595.492188" xlink:href="#ArialMT-101"/>
      <use x="1651.107422" xlink:href="#ArialMT-115"/>
     </g>
    </g>
    <g id="PathCollection_4">
     <g>
      <use style="fill:#4c72b0;stroke:#4c72b0;stroke-width:0.3;" x="206.151563" xlink:href="#m6c21043d26" y="75.345"/>
     </g>
    </g>
    <g id="text_17">
     <!-- $-0.5 &lt; t &lt; 0.$ -->
     <defs>
      <path d="M 10.59375 35.5 
L 73.1875 35.5 
L 73.1875 27.203125 
L 10.59375 27.203125 
z
" id="DejaVuSans-8722"/>
      <path d="M 31.78125 66.40625 
Q 24.171875 66.40625 20.328125 58.90625 
Q 16.5 51.421875 16.5 36.375 
Q 16.5 21.390625 20.328125 13.890625 
Q 24.171875 6.390625 31.78125 6.390625 
Q 39.453125 6.390625 43.28125 13.890625 
Q 47.125 21.390625 47.125 36.375 
Q 47.125 51.421875 43.28125 58.90625 
Q 39.453125 66.40625 31.78125 66.40625 
z
M 31.78125 74.21875 
Q 44.046875 74.21875 50.515625 64.515625 
Q 56.984375 54.828125 56.984375 36.375 
Q 56.984375 17.96875 50.515625 8.265625 
Q 44.046875 -1.421875 31.78125 -1.421875 
Q 19.53125 -1.421875 13.0625 8.265625 
Q 6.59375 17.96875 6.59375 36.375 
Q 6.59375 54.828125 13.0625 64.515625 
Q 19.53125 74.21875 31.78125 74.21875 
z
" id="DejaVuSans-48"/>
      <path d="M 10.6875 12.40625 
L 21 12.40625 
L 21 0 
L 10.6875 0 
z
" id="DejaVuSans-46"/>
      <path d="M 10.796875 72.90625 
L 49.515625 72.90625 
L 49.515625 64.59375 
L 19.828125 64.59375 
L 19.828125 46.734375 
Q 21.96875 47.46875 24.109375 47.828125 
Q 26.265625 48.1875 28.421875 48.1875 
Q 40.625 48.1875 47.75 41.5 
Q 54.890625 34.8125 54.890625 23.390625 
Q 54.890625 11.625 47.5625 5.09375 
Q 40.234375 -1.421875 26.90625 -1.421875 
Q 22.3125 -1.421875 17.546875 -0.640625 
Q 12.796875 0.140625 7.71875 1.703125 
L 7.71875 11.625 
Q 12.109375 9.234375 16.796875 8.0625 
Q 21.484375 6.890625 26.703125 6.890625 
Q 35.15625 6.890625 40.078125 11.328125 
Q 45.015625 15.765625 45.015625 23.390625 
Q 45.015625 31 40.078125 35.4375 
Q 35.15625 39.890625 26.703125 39.890625 
Q 22.75 39.890625 18.8125 39.015625 
Q 14.890625 38.140625 10.796875 36.28125 
z
" id="DejaVuSans-53"/>
      <path d="M 73.1875 49.21875 
L 22.796875 31.296875 
L 73.1875 13.484375 
L 73.1875 4.59375 
L 10.59375 27.296875 
L 10.59375 35.40625 
L 73.1875 58.109375 
z
" id="DejaVuSans-60"/>
      <path d="M 42.28125 54.6875 
L 40.921875 47.703125 
L 23 47.703125 
L 17.1875 18.015625 
Q 16.890625 16.359375 16.75 15.234375 
Q 16.609375 14.109375 16.609375 13.484375 
Q 16.609375 10.359375 18.484375 8.9375 
Q 20.359375 7.515625 24.515625 7.515625 
L 33.59375 7.515625 
L 32.078125 0 
L 23.484375 0 
Q 15.484375 0 11.546875 3.125 
Q 7.625 6.25 7.625 12.59375 
Q 7.625 13.71875 7.765625 15.0625 
Q 7.90625 16.40625 8.203125 18.015625 
L 14.015625 47.703125 
L 6.390625 47.703125 
L 7.8125 54.6875 
L 15.28125 54.6875 
L 18.3125 70.21875 
L 27.296875 70.21875 
L 24.3125 54.6875 
z
" id="DejaVuSans-Oblique-116"/>
     </defs>
     <g style="fill:#262626;" transform="translate(224.151563 77.97)scale(0.1 -0.1)">
      <use transform="translate(0 0.78125)" xlink:href="#DejaVuSans-8722"/>
      <use transform="translate(83.789062 0.78125)" xlink:href="#DejaVuSans-48"/>
      <use transform="translate(147.412109 0.78125)" xlink:href="#DejaVuSans-46"/>
      <use transform="translate(179.199219 0.78125)" xlink:href="#DejaVuSans-53"/>
      <use transform="translate(262.304688 0.78125)" xlink:href="#DejaVuSans-60"/>
      <use transform="translate(365.576172 0.78125)" xlink:href="#DejaVuSans-Oblique-116"/>
      <use transform="translate(424.267578 0.78125)" xlink:href="#DejaVuSans-60"/>
      <use transform="translate(527.539062 0.78125)" xlink:href="#DejaVuSans-48"/>
     </g>
    </g>
    <g id="PathCollection_5">
     <g>
      <use style="fill:#55a868;stroke:#55a868;stroke-width:0.3;" x="206.151563" xlink:href="#m3a2f0c566d" y="89.490312"/>
     </g>
    </g>
    <g id="text_18">
     <!-- $0. &lt; t &lt; 0.5$ -->
     <g style="fill:#262626;" transform="translate(224.151563 92.115312)scale(0.1 -0.1)">
      <use transform="translate(0 0.78125)" xlink:href="#DejaVuSans-48"/>
      <use transform="translate(63.623047 0.78125)" xlink:href="#DejaVuSans-46"/>
      <use transform="translate(134.375 0.78125)" xlink:href="#DejaVuSans-60"/>
      <use transform="translate(237.646484 0.78125)" xlink:href="#DejaVuSans-Oblique-116"/>
      <use transform="translate(296.337891 0.78125)" xlink:href="#DejaVuSans-60"/>
      <use transform="translate(399.609375 0.78125)" xlink:href="#DejaVuSans-48"/>
      <use transform="translate(463.232422 0.78125)" xlink:href="#DejaVuSans-46"/>
      <use transform="translate(495.019531 0.78125)" xlink:href="#DejaVuSans-53"/>
     </g>
    </g>
    <g id="PathCollection_6">
     <g>
      <use style="fill:#c44e52;stroke:#c44e52;stroke-width:0.3;" x="206.151563" xlink:href="#m141c35c3ef" y="103.635625"/>
     </g>
    </g>
    <g id="text_19">
     <!-- $0.5 &lt; t &lt; 1.$ -->
     <defs>
      <path d="M 12.40625 8.296875 
L 28.515625 8.296875 
L 28.515625 63.921875 
L 10.984375 60.40625 
L 10.984375 69.390625 
L 28.421875 72.90625 
L 38.28125 72.90625 
L 38.28125 8.296875 
L 54.390625 8.296875 
L 54.390625 0 
L 12.40625 0 
z
" id="DejaVuSans-49"/>
     </defs>
     <g style="fill:#262626;" transform="translate(224.151563 106.260625)scale(0.1 -0.1)">
      <use transform="translate(0 0.78125)" xlink:href="#DejaVuSans-48"/>
      <use transform="translate(63.623047 0.78125)" xlink:href="#DejaVuSans-46"/>
      <use transform="translate(95.410156 0.78125)" xlink:href="#DejaVuSans-53"/>
      <use transform="translate(178.515625 0.78125)" xlink:href="#DejaVuSans-60"/>
      <use transform="translate(281.787109 0.78125)" xlink:href="#DejaVuSans-Oblique-116"/>
      <use transform="translate(340.478516 0.78125)" xlink:href="#DejaVuSans-60"/>
      <use transform="translate(443.75 0.78125)" xlink:href="#DejaVuSans-49"/>
     </g>
    </g>
   </g>
  </g>
 </g>
 <defs>
  <clipPath id="p7a4383e868">
   <path d="M 447.66 199.98 
C 447.66 179.959136 443.716326 160.13295 436.054674 141.636084 
C 428.393021 123.139218 417.162388 106.331389 403.0055 92.1745 
C 388.848611 78.017612 372.040782 66.786979 353.543916 59.125326 
C 335.04705 51.463674 315.220864 47.52 295.2 47.52 
C 275.179136 47.52 255.35295 51.463674 236.856084 59.125326 
C 218.359218 66.786979 201.551389 78.017612 187.3945 92.1745 
C 173.237612 106.331389 162.006979 123.139218 154.345326 141.636084 
C 146.683674 160.13295 142.74 179.959136 142.74 199.98 
C 142.74 220.000864 146.683674 239.82705 154.345326 258.323916 
C 162.006979 276.820782 173.237612 293.628611 187.3945 307.7855 
C 201.551389 321.942388 218.359218 333.173021 236.856084 340.834674 
C 255.35295 348.496326 275.179136 352.44 295.2 352.44 
C 315.220864 352.44 335.04705 348.496326 353.543916 340.834674 
C 372.040782 333.173021 388.848611 321.942388 403.0055 307.7855 
C 417.162388 293.628611 428.393021 276.820782 436.054674 258.323916 
C 443.716326 239.82705 447.66 220.000864 447.66 199.98 
M 295.2 199.98 
C 295.2 199.98 295.2 199.98 295.2 199.98 
C 295.2 199.98 295.2 199.98 295.2 199.98 
C 295.2 199.98 295.2 199.98 295.2 199.98 
C 295.2 199.98 295.2 199.98 295.2 199.98 
C 295.2 199.98 295.2 199.98 295.2 199.98 
C 295.2 199.98 295.2 199.98 295.2 199.98 
C 295.2 199.98 295.2 199.98 295.2 199.98 
C 295.2 199.98 295.2 199.98 295.2 199.98 
C 295.2 199.98 295.2 199.98 295.2 199.98 
C 295.2 199.98 295.2 199.98 295.2 199.98 
C 295.2 199.98 295.2 199.98 295.2 199.98 
C 295.2 199.98 295.2 199.98 295.2 199.98 
C 295.2 199.98 295.2 199.98 295.2 199.98 
C 295.2 199.98 295.2 199.98 295.2 199.98 
C 295.2 199.98 295.2 199.98 295.2 199.98 
C 295.2 199.98 295.2 199.98 295.2 199.98 
M 447.66 199.98 
z
"/>
  </clipPath>
 </defs>
</svg>
