<?xml version="1.0" encoding="utf-8" standalone="no"?>
<!DOCTYPE svg PUBLIC "-//W3C//DTD SVG 1.1//EN"
  "http://www.w3.org/Graphics/SVG/1.1/DTD/svg11.dtd">
<!-- Created with matplotlib (https://matplotlib.org/) -->
<svg height="396pt" version="1.1" viewBox="0 0 576 396" width="576pt" xmlns="http://www.w3.org/2000/svg" xmlns:xlink="http://www.w3.org/1999/xlink">
 <defs>
  <style type="text/css">
*{stroke-linecap:butt;stroke-linejoin:round;}
  </style>
 </defs>
 <g id="figure_1">
  <g id="patch_1">
   <path d="M 0 396 
L 576 396 
L 576 0 
L 0 0 
z
" style="fill:#ffffff;"/>
  </g>
  <g id="axes_1">
   <g id="patch_2">
    <path d="M 447.66 199.98 
C 447.66 179.959136 443.716326 160.13295 436.054674 141.636084 
C 428.393021 123.139218 417.162388 106.331389 403.0055 92.1745 
C 388.848611 78.017612 372.040782 66.786979 353.543916 59.125326 
C 335.04705 51.463674 315.220864 47.52 295.2 47.52 
C 275.179136 47.52 255.35295 51.463674 236.856084 59.125326 
C 218.359218 66.786979 201.551389 78.017612 187.3945 92.1745 
C 173.237612 106.331389 162.006979 123.139218 154.345326 141.636084 
C 146.683674 160.13295 142.74 179.959136 142.74 199.98 
C 142.74 220.000864 146.683674 239.82705 154.345326 258.323916 
C 162.006979 276.820782 173.237612 293.628611 187.3945 307.7855 
C 201.551389 321.942388 218.359218 333.173021 236.856084 340.834674 
C 255.35295 348.496326 275.179136 352.44 295.2 352.44 
C 315.220864 352.44 335.04705 348.496326 353.543916 340.834674 
C 372.040782 333.173021 388.848611 321.942388 403.0055 307.7855 
C 417.162388 293.628611 428.393021 276.820782 436.054674 258.323916 
C 443.716326 239.82705 447.66 220.000864 447.66 199.98 
M 295.2 199.98 
C 295.2 199.98 295.2 199.98 295.2 199.98 
C 295.2 199.98 295.2 199.98 295.2 199.98 
C 295.2 199.98 295.2 199.98 295.2 199.98 
C 295.2 199.98 295.2 199.98 295.2 199.98 
C 295.2 199.98 295.2 199.98 295.2 199.98 
C 295.2 199.98 295.2 199.98 295.2 199.98 
C 295.2 199.98 295.2 199.98 295.2 199.98 
C 295.2 199.98 295.2 199.98 295.2 199.98 
C 295.2 199.98 295.2 199.98 295.2 199.98 
C 295.2 199.98 295.2 199.98 295.2 199.98 
C 295.2 199.98 295.2 199.98 295.2 199.98 
C 295.2 199.98 295.2 199.98 295.2 199.98 
C 295.2 199.98 295.2 199.98 295.2 199.98 
C 295.2 199.98 295.2 199.98 295.2 199.98 
C 295.2 199.98 295.2 199.98 295.2 199.98 
C 295.2 199.98 295.2 199.98 295.2 199.98 
M 447.66 199.98 
z
" style="fill:#eaeaf2;"/>
   </g>
   <g id="matplotlib.axis_1">
    <g id="xtick_1">
     <g id="line2d_1">
      <path clip-path="url(#p956044a355)" d="M 295.2 199.98 
L 447.66 199.98 
" style="fill:none;stroke:#ffffff;stroke-linecap:round;"/>
     </g>
     <g id="text_1">
      <!-- 0° -->
      <defs>
       <path d="M 4.15625 35.296875 
Q 4.15625 48 6.765625 55.734375 
Q 9.375 63.484375 14.515625 67.671875 
Q 19.671875 71.875 27.484375 71.875 
Q 33.25 71.875 37.59375 69.546875 
Q 41.9375 67.234375 44.765625 62.859375 
Q 47.609375 58.5 49.21875 52.21875 
Q 50.828125 45.953125 50.828125 35.296875 
Q 50.828125 22.703125 48.234375 14.96875 
Q 45.65625 7.234375 40.5 3 
Q 35.359375 -1.21875 27.484375 -1.21875 
Q 17.140625 -1.21875 11.234375 6.203125 
Q 4.15625 15.140625 4.15625 35.296875 
z
M 13.1875 35.296875 
Q 13.1875 17.671875 17.3125 11.828125 
Q 21.4375 6 27.484375 6 
Q 33.546875 6 37.671875 11.859375 
Q 41.796875 17.71875 41.796875 35.296875 
Q 41.796875 52.984375 37.671875 58.78125 
Q 33.546875 64.59375 27.390625 64.59375 
Q 21.34375 64.59375 17.71875 59.46875 
Q 13.1875 52.9375 13.1875 35.296875 
z
" id="ArialMT-48"/>
       <path d="M 6.25 59.28125 
Q 6.25 64.890625 10.21875 68.84375 
Q 14.203125 72.796875 19.78125 72.796875 
Q 25.4375 72.796875 29.390625 68.84375 
Q 33.34375 64.890625 33.34375 59.28125 
Q 33.34375 53.65625 29.359375 49.671875 
Q 25.390625 45.703125 19.78125 45.703125 
Q 14.203125 45.703125 10.21875 49.65625 
Q 6.25 53.609375 6.25 59.28125 
z
M 11.578125 59.28125 
Q 11.578125 55.859375 13.984375 53.4375 
Q 16.40625 51.03125 19.828125 51.03125 
Q 23.1875 51.03125 25.609375 53.4375 
Q 28.03125 55.859375 28.03125 59.28125 
Q 28.03125 62.703125 25.609375 65.109375 
Q 23.1875 67.53125 19.828125 67.53125 
Q 16.40625 67.53125 13.984375 65.109375 
Q 11.578125 62.703125 11.578125 59.28125 
z
" id="ArialMT-176"/>
      </defs>
      <g style="fill:#262626;" transform="translate(456.880313 202.565156)scale(0.1 -0.1)">
       <use xlink:href="#ArialMT-48"/>
       <use x="55.615234" xlink:href="#ArialMT-176"/>
      </g>
     </g>
    </g>
    <g id="xtick_2">
     <g id="line2d_2">
      <path clip-path="url(#p956044a355)" d="M 295.2 199.98 
L 403.0055 92.1745 
" style="fill:none;stroke:#ffffff;stroke-linecap:round;"/>
     </g>
     <g id="text_2">
      <!-- 45° -->
      <defs>
       <path d="M 32.328125 0 
L 32.328125 17.140625 
L 1.265625 17.140625 
L 1.265625 25.203125 
L 33.9375 71.578125 
L 41.109375 71.578125 
L 41.109375 25.203125 
L 50.78125 25.203125 
L 50.78125 17.140625 
L 41.109375 17.140625 
L 41.109375 0 
z
M 32.328125 25.203125 
L 32.328125 57.46875 
L 9.90625 25.203125 
z
" id="ArialMT-52"/>
       <path d="M 4.15625 18.75 
L 13.375 19.53125 
Q 14.40625 12.796875 18.140625 9.390625 
Q 21.875 6 27.15625 6 
Q 33.5 6 37.890625 10.78125 
Q 42.28125 15.578125 42.28125 23.484375 
Q 42.28125 31 38.0625 35.34375 
Q 33.84375 39.703125 27 39.703125 
Q 22.75 39.703125 19.328125 37.765625 
Q 15.921875 35.84375 13.96875 32.765625 
L 5.71875 33.84375 
L 12.640625 70.609375 
L 48.25 70.609375 
L 48.25 62.203125 
L 19.671875 62.203125 
L 15.828125 42.96875 
Q 22.265625 47.46875 29.34375 47.46875 
Q 38.71875 47.46875 45.15625 40.96875 
Q 51.609375 34.46875 51.609375 24.265625 
Q 51.609375 14.546875 45.953125 7.46875 
Q 39.0625 -1.21875 27.15625 -1.21875 
Q 17.390625 -1.21875 11.203125 4.25 
Q 5.03125 9.71875 4.15625 18.75 
z
" id="ArialMT-53"/>
      </defs>
      <g style="fill:#262626;" transform="translate(405.344839 84.860161)scale(0.1 -0.1)">
       <use xlink:href="#ArialMT-52"/>
       <use x="55.615234" xlink:href="#ArialMT-53"/>
       <use x="111.230469" xlink:href="#ArialMT-176"/>
      </g>
     </g>
    </g>
    <g id="xtick_3">
     <g id="line2d_3">
      <path clip-path="url(#p956044a355)" d="M 295.2 199.98 
L 295.2 47.52 
" style="fill:none;stroke:#ffffff;stroke-linecap:round;"/>
     </g>
     <g id="text_3">
      <!-- 90° -->
      <defs>
       <path d="M 5.46875 16.546875 
L 13.921875 17.328125 
Q 14.984375 11.375 18.015625 8.6875 
Q 21.046875 6 25.78125 6 
Q 29.828125 6 32.875 7.859375 
Q 35.9375 9.71875 37.890625 12.8125 
Q 39.84375 15.921875 41.15625 21.1875 
Q 42.484375 26.46875 42.484375 31.9375 
Q 42.484375 32.515625 42.4375 33.6875 
Q 39.796875 29.5 35.234375 26.875 
Q 30.671875 24.265625 25.34375 24.265625 
Q 16.453125 24.265625 10.296875 30.703125 
Q 4.15625 37.15625 4.15625 47.703125 
Q 4.15625 58.59375 10.578125 65.234375 
Q 17 71.875 26.65625 71.875 
Q 33.640625 71.875 39.421875 68.109375 
Q 45.21875 64.359375 48.21875 57.390625 
Q 51.21875 50.4375 51.21875 37.25 
Q 51.21875 23.53125 48.234375 15.40625 
Q 45.265625 7.28125 39.375 3.03125 
Q 33.5 -1.21875 25.59375 -1.21875 
Q 17.1875 -1.21875 11.859375 3.4375 
Q 6.546875 8.109375 5.46875 16.546875 
z
M 41.453125 48.140625 
Q 41.453125 55.71875 37.421875 60.15625 
Q 33.40625 64.59375 27.734375 64.59375 
Q 21.875 64.59375 17.53125 59.8125 
Q 13.1875 55.03125 13.1875 47.40625 
Q 13.1875 40.578125 17.3125 36.296875 
Q 21.4375 32.03125 27.484375 32.03125 
Q 33.59375 32.03125 37.515625 36.296875 
Q 41.453125 40.578125 41.453125 48.140625 
z
" id="ArialMT-57"/>
      </defs>
      <g style="fill:#262626;" transform="translate(287.639844 36.105156)scale(0.1 -0.1)">
       <use xlink:href="#ArialMT-57"/>
       <use x="55.615234" xlink:href="#ArialMT-48"/>
       <use x="111.230469" xlink:href="#ArialMT-176"/>
      </g>
     </g>
    </g>
    <g id="xtick_4">
     <g id="line2d_4">
      <path clip-path="url(#p956044a355)" d="M 295.2 199.98 
L 187.3945 92.1745 
" style="fill:none;stroke:#ffffff;stroke-linecap:round;"/>
     </g>
     <g id="text_4">
      <!-- 135° -->
      <defs>
       <path d="M 37.25 0 
L 28.46875 0 
L 28.46875 56 
Q 25.296875 52.984375 20.140625 49.953125 
Q 14.984375 46.921875 10.890625 45.40625 
L 10.890625 53.90625 
Q 18.265625 57.375 23.78125 62.296875 
Q 29.296875 67.234375 31.59375 71.875 
L 37.25 71.875 
z
" id="ArialMT-49"/>
       <path d="M 4.203125 18.890625 
L 12.984375 20.0625 
Q 14.5 12.59375 18.140625 9.296875 
Q 21.78125 6 27 6 
Q 33.203125 6 37.46875 10.296875 
Q 41.75 14.59375 41.75 20.953125 
Q 41.75 27 37.796875 30.921875 
Q 33.84375 34.859375 27.734375 34.859375 
Q 25.25 34.859375 21.53125 33.890625 
L 22.515625 41.609375 
Q 23.390625 41.5 23.921875 41.5 
Q 29.546875 41.5 34.03125 44.421875 
Q 38.53125 47.359375 38.53125 53.46875 
Q 38.53125 58.296875 35.25 61.46875 
Q 31.984375 64.65625 26.8125 64.65625 
Q 21.6875 64.65625 18.265625 61.421875 
Q 14.84375 58.203125 13.875 51.765625 
L 5.078125 53.328125 
Q 6.6875 62.15625 12.390625 67.015625 
Q 18.109375 71.875 26.609375 71.875 
Q 32.46875 71.875 37.390625 69.359375 
Q 42.328125 66.84375 44.9375 62.5 
Q 47.5625 58.15625 47.5625 53.265625 
Q 47.5625 48.640625 45.0625 44.828125 
Q 42.578125 41.015625 37.703125 38.765625 
Q 44.046875 37.3125 47.5625 32.6875 
Q 51.078125 28.078125 51.078125 21.140625 
Q 51.078125 11.765625 44.234375 5.25 
Q 37.40625 -1.265625 26.953125 -1.265625 
Q 17.53125 -1.265625 11.296875 4.34375 
Q 5.078125 9.96875 4.203125 18.890625 
z
" id="ArialMT-51"/>
      </defs>
      <g style="fill:#262626;" transform="translate(167.15438 84.860161)scale(0.1 -0.1)">
       <use xlink:href="#ArialMT-49"/>
       <use x="55.615234" xlink:href="#ArialMT-51"/>
       <use x="111.230469" xlink:href="#ArialMT-53"/>
       <use x="166.845703" xlink:href="#ArialMT-176"/>
      </g>
     </g>
    </g>
    <g id="xtick_5">
     <g id="line2d_5">
      <path clip-path="url(#p956044a355)" d="M 295.2 199.98 
L 142.74 199.98 
" style="fill:none;stroke:#ffffff;stroke-linecap:round;"/>
     </g>
     <g id="text_5">
      <!-- 180° -->
      <defs>
       <path d="M 17.671875 38.8125 
Q 12.203125 40.828125 9.5625 44.53125 
Q 6.9375 48.25 6.9375 53.421875 
Q 6.9375 61.234375 12.546875 66.546875 
Q 18.171875 71.875 27.484375 71.875 
Q 36.859375 71.875 42.578125 66.421875 
Q 48.296875 60.984375 48.296875 53.171875 
Q 48.296875 48.1875 45.671875 44.5 
Q 43.0625 40.828125 37.75 38.8125 
Q 44.34375 36.671875 47.78125 31.875 
Q 51.21875 27.09375 51.21875 20.453125 
Q 51.21875 11.28125 44.71875 5.03125 
Q 38.234375 -1.21875 27.640625 -1.21875 
Q 17.046875 -1.21875 10.546875 5.046875 
Q 4.046875 11.328125 4.046875 20.703125 
Q 4.046875 27.6875 7.59375 32.390625 
Q 11.140625 37.109375 17.671875 38.8125 
z
M 15.921875 53.71875 
Q 15.921875 48.640625 19.1875 45.40625 
Q 22.46875 42.1875 27.6875 42.1875 
Q 32.765625 42.1875 36.015625 45.375 
Q 39.265625 48.578125 39.265625 53.21875 
Q 39.265625 58.0625 35.90625 61.359375 
Q 32.5625 64.65625 27.59375 64.65625 
Q 22.5625 64.65625 19.234375 61.421875 
Q 15.921875 58.203125 15.921875 53.71875 
z
M 13.09375 20.65625 
Q 13.09375 16.890625 14.875 13.375 
Q 16.65625 9.859375 20.171875 7.921875 
Q 23.6875 6 27.734375 6 
Q 34.03125 6 38.125 10.046875 
Q 42.234375 14.109375 42.234375 20.359375 
Q 42.234375 26.703125 38.015625 30.859375 
Q 33.796875 35.015625 27.4375 35.015625 
Q 21.234375 35.015625 17.15625 30.90625 
Q 13.09375 26.8125 13.09375 20.65625 
z
" id="ArialMT-56"/>
      </defs>
      <g style="fill:#262626;" transform="translate(118.399375 202.565156)scale(0.1 -0.1)">
       <use xlink:href="#ArialMT-49"/>
       <use x="55.615234" xlink:href="#ArialMT-56"/>
       <use x="111.230469" xlink:href="#ArialMT-48"/>
       <use x="166.845703" xlink:href="#ArialMT-176"/>
      </g>
     </g>
    </g>
    <g id="xtick_6">
     <g id="line2d_6">
      <path clip-path="url(#p956044a355)" d="M 295.2 199.98 
L 187.3945 307.7855 
" style="fill:none;stroke:#ffffff;stroke-linecap:round;"/>
     </g>
     <g id="text_6">
      <!-- 225° -->
      <defs>
       <path d="M 50.34375 8.453125 
L 50.34375 0 
L 3.03125 0 
Q 2.9375 3.171875 4.046875 6.109375 
Q 5.859375 10.9375 9.828125 15.625 
Q 13.8125 20.3125 21.34375 26.46875 
Q 33.015625 36.03125 37.109375 41.625 
Q 41.21875 47.21875 41.21875 52.203125 
Q 41.21875 57.421875 37.46875 61 
Q 33.734375 64.59375 27.734375 64.59375 
Q 21.390625 64.59375 17.578125 60.78125 
Q 13.765625 56.984375 13.71875 50.25 
L 4.6875 51.171875 
Q 5.609375 61.28125 11.65625 66.578125 
Q 17.71875 71.875 27.9375 71.875 
Q 38.234375 71.875 44.234375 66.15625 
Q 50.25 60.453125 50.25 52 
Q 50.25 47.703125 48.484375 43.546875 
Q 46.734375 39.40625 42.65625 34.8125 
Q 38.578125 30.21875 29.109375 22.21875 
Q 21.1875 15.578125 18.9375 13.203125 
Q 16.703125 10.84375 15.234375 8.453125 
z
" id="ArialMT-50"/>
      </defs>
      <g style="fill:#262626;" transform="translate(167.15438 320.270151)scale(0.1 -0.1)">
       <use xlink:href="#ArialMT-50"/>
       <use x="55.615234" xlink:href="#ArialMT-50"/>
       <use x="111.230469" xlink:href="#ArialMT-53"/>
       <use x="166.845703" xlink:href="#ArialMT-176"/>
      </g>
     </g>
    </g>
    <g id="xtick_7">
     <g id="line2d_7">
      <path clip-path="url(#p956044a355)" d="M 295.2 199.98 
L 295.2 352.44 
" style="fill:none;stroke:#ffffff;stroke-linecap:round;"/>
     </g>
     <g id="text_7">
      <!-- 270° -->
      <defs>
       <path d="M 4.734375 62.203125 
L 4.734375 70.65625 
L 51.078125 70.65625 
L 51.078125 63.8125 
Q 44.234375 56.546875 37.515625 44.484375 
Q 30.8125 32.421875 27.15625 19.671875 
Q 24.515625 10.6875 23.78125 0 
L 14.75 0 
Q 14.890625 8.453125 18.0625 20.40625 
Q 21.234375 32.375 27.171875 43.484375 
Q 33.109375 54.59375 39.796875 62.203125 
z
" id="ArialMT-55"/>
      </defs>
      <g style="fill:#262626;" transform="translate(284.859375 369.025156)scale(0.1 -0.1)">
       <use xlink:href="#ArialMT-50"/>
       <use x="55.615234" xlink:href="#ArialMT-55"/>
       <use x="111.230469" xlink:href="#ArialMT-48"/>
       <use x="166.845703" xlink:href="#ArialMT-176"/>
      </g>
     </g>
    </g>
    <g id="xtick_8">
     <g id="line2d_8">
      <path clip-path="url(#p956044a355)" d="M 295.2 199.98 
L 403.0055 307.7855 
" style="fill:none;stroke:#ffffff;stroke-linecap:round;"/>
     </g>
     <g id="text_8">
      <!-- 315° -->
      <g style="fill:#262626;" transform="translate(402.56437 320.270151)scale(0.1 -0.1)">
       <use xlink:href="#ArialMT-51"/>
       <use x="55.615234" xlink:href="#ArialMT-49"/>
       <use x="111.230469" xlink:href="#ArialMT-53"/>
       <use x="166.845703" xlink:href="#ArialMT-176"/>
      </g>
     </g>
    </g>
   </g>
   <g id="matplotlib.axis_2">
    <g id="ytick_1">
     <g id="line2d_9">
      <path clip-path="url(#p956044a355)" d="M 320.391518 199.98 
L 320.253517 197.346769 
L 319.841023 194.742389 
L 319.158558 192.195393 
L 318.213597 189.733686 
L 317.016495 187.384241 
L 315.580366 185.172797 
L 313.920946 183.123584 
L 312.056416 181.259054 
L 310.007203 179.599634 
L 307.795759 178.163505 
L 305.446314 176.966403 
L 302.984607 176.021442 
L 300.437611 175.338977 
L 297.833231 174.926483 
L 295.2 174.788482 
L 292.566769 174.926483 
L 289.962389 175.338977 
L 287.415393 176.021442 
L 284.953686 176.966403 
L 282.604241 178.163505 
L 280.392797 179.599634 
L 278.343584 181.259054 
L 276.479054 183.123584 
L 274.819634 185.172797 
L 273.383505 187.384241 
L 272.186403 189.733686 
L 271.241442 192.195393 
L 270.558977 194.742389 
L 270.146483 197.346769 
L 270.008482 199.98 
L 270.146483 202.613231 
L 270.558977 205.217611 
L 271.241442 207.764607 
L 272.186403 210.226314 
L 273.383505 212.575759 
L 274.819634 214.787203 
L 276.479054 216.836416 
L 278.343584 218.700946 
L 280.392797 220.360366 
L 282.604241 221.796495 
L 284.953686 222.993597 
L 287.415393 223.938558 
L 289.962389 224.621023 
L 292.566769 225.033517 
L 295.2 225.171518 
L 297.833231 225.033517 
L 300.437611 224.621023 
L 302.984607 223.938558 
L 305.446314 222.993597 
L 307.795759 221.796495 
L 310.007203 220.360366 
L 312.056416 218.700946 
L 313.920946 216.836416 
L 315.580366 214.787203 
L 317.016495 212.575759 
L 318.213597 210.226314 
L 319.158558 207.764607 
L 319.841023 205.217611 
L 320.253517 202.613231 
L 320.391518 199.98 
L 320.391518 199.98 
" style="fill:none;stroke:#ffffff;stroke-linecap:round;"/>
     </g>
     <g id="text_9">
      <!-- 0.2 -->
      <defs>
       <path d="M 9.078125 0 
L 9.078125 10.015625 
L 19.09375 10.015625 
L 19.09375 0 
z
" id="ArialMT-46"/>
      </defs>
      <g style="fill:#262626;" transform="translate(318.473928 188.352123)scale(0.1 -0.1)">
       <use xlink:href="#ArialMT-48"/>
       <use x="55.615234" xlink:href="#ArialMT-46"/>
       <use x="83.398438" xlink:href="#ArialMT-50"/>
      </g>
     </g>
    </g>
    <g id="ytick_2">
     <g id="line2d_10">
      <path clip-path="url(#p956044a355)" d="M 345.583037 199.98 
L 345.460306 196.465457 
L 345.092712 192.968037 
L 344.482046 189.504778 
L 343.631283 186.092553 
L 342.544568 182.747987 
L 341.227194 179.487373 
L 339.685581 176.326597 
L 337.927238 173.281058 
L 335.960733 170.365594 
L 333.795645 167.594408 
L 331.442524 164.981002 
L 328.912832 162.538107 
L 326.218895 160.277625 
L 323.373837 158.21057 
L 320.391518 156.34701 
L 317.28647 154.696027 
L 314.073818 153.265662 
L 310.769215 152.062885 
L 307.38876 151.093555 
L 303.948922 150.362395 
L 300.466461 149.872967 
L 296.958343 149.627655 
L 293.441657 149.627655 
L 289.933539 149.872967 
L 286.451078 150.362395 
L 283.01124 151.093555 
L 279.630785 152.062885 
L 276.326182 153.265662 
L 273.11353 154.696027 
L 270.008482 156.34701 
L 267.026163 158.21057 
L 264.181105 160.277625 
L 261.487168 162.538107 
L 258.957476 164.981002 
L 256.604355 167.594408 
L 254.439267 170.365594 
L 252.472762 173.281058 
L 250.714419 176.326597 
L 249.172806 179.487373 
L 247.855432 182.747987 
L 246.768717 186.092553 
L 245.917954 189.504778 
L 245.307288 192.968037 
L 244.939694 196.465457 
L 244.816963 199.98 
L 244.939694 203.494543 
L 245.307288 206.991963 
L 245.917954 210.455222 
L 246.768717 213.867447 
L 247.855432 217.212013 
L 249.172806 220.472627 
L 250.714419 223.633403 
L 252.472762 226.678942 
L 254.439267 229.594406 
L 256.604355 232.365592 
L 258.957476 234.978998 
L 261.487168 237.421893 
L 264.181105 239.682375 
L 267.026163 241.74943 
L 270.008482 243.61299 
L 273.11353 245.263973 
L 276.326182 246.694338 
L 279.630785 247.897115 
L 283.01124 248.866445 
L 286.451078 249.597605 
L 289.933539 250.087033 
L 293.441657 250.332345 
L 296.958343 250.332345 
L 300.466461 250.087033 
L 303.948922 249.597605 
L 307.38876 248.866445 
L 310.769215 247.897115 
L 314.073818 246.694338 
L 317.28647 245.263973 
L 320.391518 243.61299 
L 323.373837 241.74943 
L 326.218895 239.682375 
L 328.912832 237.421893 
L 331.442524 234.978998 
L 333.795645 232.365592 
L 335.960733 229.594406 
L 337.927238 226.678942 
L 339.685581 223.633403 
L 341.227194 220.472627 
L 342.544568 217.212013 
L 343.631283 213.867447 
L 344.482046 210.455222 
L 345.092712 206.991963 
L 345.460306 203.494543 
L 345.583037 199.98 
L 345.583037 199.98 
" style="fill:none;stroke:#ffffff;stroke-linecap:round;"/>
     </g>
     <g id="text_10">
      <!-- 0.4 -->
      <g style="fill:#262626;" transform="translate(341.747856 178.711747)scale(0.1 -0.1)">
       <use xlink:href="#ArialMT-48"/>
       <use x="55.615234" xlink:href="#ArialMT-46"/>
       <use x="83.398438" xlink:href="#ArialMT-52"/>
      </g>
     </g>
    </g>
    <g id="ytick_3">
     <g id="line2d_11">
      <path clip-path="url(#p956044a355)" d="M 370.774555 199.98 
L 370.590459 194.708186 
L 370.039069 189.462055 
L 369.12307 184.267166 
L 367.846925 179.14883 
L 366.216852 174.13198 
L 364.240791 169.241059 
L 361.928371 164.499896 
L 359.290857 159.931587 
L 356.341099 155.558391 
L 353.093468 151.401612 
L 349.563785 147.481503 
L 345.769248 143.817161 
L 341.728342 140.426438 
L 337.460755 137.325854 
L 332.987277 134.530516 
L 328.329704 132.05404 
L 323.510727 129.908493 
L 318.553822 128.104327 
L 313.48314 126.650332 
L 308.323384 125.553592 
L 303.099692 124.81945 
L 297.837514 124.451483 
L 292.562486 124.451483 
L 287.300308 124.81945 
L 282.076616 125.553592 
L 276.91686 126.650332 
L 271.846178 128.104327 
L 266.889273 129.908493 
L 262.070296 132.05404 
L 257.412723 134.530516 
L 252.939245 137.325854 
L 248.671658 140.426438 
L 244.630752 143.817161 
L 240.836215 147.481503 
L 237.306532 151.401612 
L 234.058901 155.558391 
L 231.109143 159.931587 
L 228.471629 164.499896 
L 226.159209 169.241059 
L 224.183148 174.13198 
L 222.553075 179.14883 
L 221.27693 184.267166 
L 220.360931 189.462055 
L 219.809541 194.708186 
L 219.625445 199.98 
L 219.809541 205.251814 
L 220.360931 210.497945 
L 221.27693 215.692834 
L 222.553075 220.81117 
L 224.183148 225.82802 
L 226.159209 230.718941 
L 228.471629 235.460104 
L 231.109143 240.028413 
L 234.058901 244.401609 
L 237.306532 248.558388 
L 240.836215 252.478497 
L 244.630752 256.142839 
L 248.671658 259.533562 
L 252.939245 262.634146 
L 257.412723 265.429484 
L 262.070296 267.90596 
L 266.889273 270.051507 
L 271.846178 271.855673 
L 276.91686 273.309668 
L 282.076616 274.406408 
L 287.300308 275.14055 
L 292.562486 275.508517 
L 297.837514 275.508517 
L 303.099692 275.14055 
L 308.323384 274.406408 
L 313.48314 273.309668 
L 318.553822 271.855673 
L 323.510727 270.051507 
L 328.329704 267.90596 
L 332.987277 265.429484 
L 337.460755 262.634146 
L 341.728342 259.533562 
L 345.769248 256.142839 
L 349.563785 252.478497 
L 353.093468 248.558388 
L 356.341099 244.401609 
L 359.290857 240.028413 
L 361.928371 235.460104 
L 364.240791 230.718941 
L 366.216852 225.82802 
L 367.846925 220.81117 
L 369.12307 215.692834 
L 370.039069 210.497945 
L 370.590459 205.251814 
L 370.774555 199.98 
L 370.774555 199.98 
" style="fill:none;stroke:#ffffff;stroke-linecap:round;"/>
     </g>
     <g id="text_11">
      <!-- 0.6 -->
      <defs>
       <path d="M 49.75 54.046875 
L 41.015625 53.375 
Q 39.84375 58.546875 37.703125 60.890625 
Q 34.125 64.65625 28.90625 64.65625 
Q 24.703125 64.65625 21.53125 62.3125 
Q 17.390625 59.28125 14.984375 53.46875 
Q 12.59375 47.65625 12.5 36.921875 
Q 15.671875 41.75 20.265625 44.09375 
Q 24.859375 46.4375 29.890625 46.4375 
Q 38.671875 46.4375 44.84375 39.96875 
Q 51.03125 33.5 51.03125 23.25 
Q 51.03125 16.5 48.125 10.71875 
Q 45.21875 4.9375 40.140625 1.859375 
Q 35.0625 -1.21875 28.609375 -1.21875 
Q 17.625 -1.21875 10.6875 6.859375 
Q 3.765625 14.9375 3.765625 33.5 
Q 3.765625 54.25 11.421875 63.671875 
Q 18.109375 71.875 29.4375 71.875 
Q 37.890625 71.875 43.28125 67.140625 
Q 48.6875 62.40625 49.75 54.046875 
z
M 13.875 23.1875 
Q 13.875 18.65625 15.796875 14.5 
Q 17.71875 10.359375 21.1875 8.171875 
Q 24.65625 6 28.46875 6 
Q 34.03125 6 38.03125 10.484375 
Q 42.046875 14.984375 42.046875 22.703125 
Q 42.046875 30.125 38.078125 34.390625 
Q 34.125 38.671875 28.125 38.671875 
Q 22.171875 38.671875 18.015625 34.390625 
Q 13.875 30.125 13.875 23.1875 
z
" id="ArialMT-54"/>
      </defs>
      <g style="fill:#262626;" transform="translate(365.021784 169.07137)scale(0.1 -0.1)">
       <use xlink:href="#ArialMT-48"/>
       <use x="55.615234" xlink:href="#ArialMT-46"/>
       <use x="83.398438" xlink:href="#ArialMT-54"/>
      </g>
     </g>
    </g>
    <g id="ytick_4">
     <g id="line2d_12">
      <path clip-path="url(#p956044a355)" d="M 395.966073 199.98 
L 395.904689 196.463315 
L 395.720612 192.950914 
L 395.414066 189.447077 
L 394.985425 185.956073 
L 394.43521 182.482155 
L 393.764093 179.029555 
L 392.97289 175.602481 
L 392.062566 172.205106 
L 391.034231 168.841571 
L 389.889135 165.515973 
L 388.628676 162.232365 
L 387.254389 158.994746 
L 385.767947 155.807061 
L 384.171162 152.673194 
L 382.465979 149.596963 
L 380.654477 146.582117 
L 378.738861 143.632327 
L 376.721466 140.751188 
L 374.604749 137.942211 
L 372.39129 135.208817 
L 370.083786 132.554336 
L 367.685047 129.982004 
L 365.197996 127.494953 
L 362.625664 125.096214 
L 359.971183 122.78871 
L 357.237789 120.575251 
L 354.428812 118.458534 
L 351.547673 116.441139 
L 348.597883 114.525523 
L 345.583037 112.714021 
L 342.506806 111.008838 
L 339.372939 109.412053 
L 336.185254 107.925611 
L 332.947635 106.551324 
L 329.664027 105.290865 
L 326.338429 104.145769 
L 322.974894 103.117434 
L 319.577519 102.20711 
L 316.150445 101.415907 
L 312.697845 100.74479 
L 309.223927 100.194575 
L 305.732923 99.765934 
L 302.229086 99.459388 
L 298.716685 99.275311 
L 295.2 99.213927 
L 291.683315 99.275311 
L 288.170914 99.459388 
L 284.667077 99.765934 
L 281.176073 100.194575 
L 277.702155 100.74479 
L 274.249555 101.415907 
L 270.822481 102.20711 
L 267.425106 103.117434 
L 264.061571 104.145769 
L 260.735973 105.290865 
L 257.452365 106.551324 
L 254.214746 107.925611 
L 251.027061 109.412053 
L 247.893194 111.008838 
L 244.816963 112.714021 
L 241.802117 114.525523 
L 238.852327 116.441139 
L 235.971188 118.458534 
L 233.162211 120.575251 
L 230.428817 122.78871 
L 227.774336 125.096214 
L 225.202004 127.494953 
L 222.714953 129.982004 
L 220.316214 132.554336 
L 218.00871 135.208817 
L 215.795251 137.942211 
L 213.678534 140.751188 
L 211.661139 143.632327 
L 209.745523 146.582117 
L 207.934021 149.596963 
L 206.228838 152.673194 
L 204.632053 155.807061 
L 203.145611 158.994746 
L 201.771324 162.232365 
L 200.510865 165.515973 
L 199.365769 168.841571 
L 198.337434 172.205106 
L 197.42711 175.602481 
L 196.635907 179.029555 
L 195.96479 182.482155 
L 195.414575 185.956073 
L 194.985934 189.447077 
L 194.679388 192.950914 
L 194.495311 196.463315 
L 194.433927 199.98 
L 194.495311 203.496685 
L 194.679388 207.009086 
L 194.985934 210.512923 
L 195.414575 214.003927 
L 195.96479 217.477845 
L 196.635907 220.930445 
L 197.42711 224.357519 
L 198.337434 227.754894 
L 199.365769 231.118429 
L 200.510865 234.444027 
L 201.771324 237.727635 
L 203.145611 240.965254 
L 204.632053 244.152939 
L 206.228838 247.286806 
L 207.934021 250.363037 
L 209.745523 253.377883 
L 211.661139 256.327673 
L 213.678534 259.208812 
L 215.795251 262.017789 
L 218.00871 264.751183 
L 220.316214 267.405664 
L 222.714953 269.977996 
L 225.202004 272.465047 
L 227.774336 274.863786 
L 230.428817 277.17129 
L 233.162211 279.384749 
L 235.971188 281.501466 
L 238.852327 283.518861 
L 241.802117 285.434477 
L 244.816963 287.245979 
L 247.893194 288.951162 
L 251.027061 290.547947 
L 254.214746 292.034389 
L 257.452365 293.408676 
L 260.735973 294.669135 
L 264.061571 295.814231 
L 267.425106 296.842566 
L 270.822481 297.75289 
L 274.249555 298.544093 
L 277.702155 299.21521 
L 281.176073 299.765425 
L 284.667077 300.194066 
L 288.170914 300.500612 
L 291.683315 300.684689 
L 295.2 300.746073 
L 298.716685 300.684689 
L 302.229086 300.500612 
L 305.732923 300.194066 
L 309.223927 299.765425 
L 312.697845 299.21521 
L 316.150445 298.544093 
L 319.577519 297.75289 
L 322.974894 296.842566 
L 326.338429 295.814231 
L 329.664027 294.669135 
L 332.947635 293.408676 
L 336.185254 292.034389 
L 339.372939 290.547947 
L 342.506806 288.951162 
L 345.583037 287.245979 
L 348.597883 285.434477 
L 351.547673 283.518861 
L 354.428812 281.501466 
L 357.237789 279.384749 
L 359.971183 277.17129 
L 362.625664 274.863786 
L 365.197996 272.465047 
L 367.685047 269.977996 
L 370.083786 267.405664 
L 372.39129 264.751183 
L 374.604749 262.017789 
L 376.721466 259.208812 
L 378.738861 256.327673 
L 380.654477 253.377883 
L 382.465979 250.363037 
L 384.171162 247.286806 
L 385.767947 244.152939 
L 387.254389 240.965254 
L 388.628676 237.727635 
L 389.889135 234.444027 
L 391.034231 231.118429 
L 392.062566 227.754894 
L 392.97289 224.357519 
L 393.764093 220.930445 
L 394.43521 217.477845 
L 394.985425 214.003927 
L 395.414066 210.512923 
L 395.720612 207.009086 
L 395.904689 203.496685 
L 395.966073 199.98 
L 395.966073 199.98 
" style="fill:none;stroke:#ffffff;stroke-linecap:round;"/>
     </g>
     <g id="text_12">
      <!-- 0.8 -->
      <g style="fill:#262626;" transform="translate(388.295713 159.430993)scale(0.1 -0.1)">
       <use xlink:href="#ArialMT-48"/>
       <use x="55.615234" xlink:href="#ArialMT-46"/>
       <use x="83.398438" xlink:href="#ArialMT-56"/>
      </g>
     </g>
    </g>
    <g id="ytick_5">
     <g id="line2d_13">
      <path clip-path="url(#p956044a355)" d="M 421.157592 199.98 
L 421.080862 195.584143 
L 420.850765 191.193643 
L 420.467583 186.813847 
L 419.931781 182.450091 
L 419.244013 178.107694 
L 418.405116 173.791944 
L 417.416113 169.508101 
L 416.278208 165.261383 
L 414.992788 161.056964 
L 413.561419 156.899966 
L 411.985845 152.795456 
L 410.267986 148.748432 
L 408.409933 144.763826 
L 406.413952 140.846493 
L 404.282474 137.001204 
L 402.018096 133.232646 
L 399.623576 129.545409 
L 397.101832 125.943985 
L 394.455937 122.432763 
L 391.689113 119.016021 
L 388.804732 115.69792 
L 385.806309 112.482505 
L 382.697495 109.373691 
L 379.48208 106.375268 
L 376.163979 103.490887 
L 372.747237 100.724063 
L 369.236015 98.078168 
L 365.634591 95.556424 
L 361.947354 93.161904 
L 358.178796 90.897526 
L 354.333507 88.766048 
L 350.416174 86.770067 
L 346.431568 84.912014 
L 342.384544 83.194155 
L 338.280034 81.618581 
L 334.123036 80.187212 
L 329.918617 78.901792 
L 325.671899 77.763887 
L 321.388056 76.774884 
L 317.072306 75.935987 
L 312.729909 75.248219 
L 308.366153 74.712417 
L 303.986357 74.329235 
L 299.595857 74.099138 
L 295.2 74.022408 
L 290.804143 74.099138 
L 286.413643 74.329235 
L 282.033847 74.712417 
L 277.670091 75.248219 
L 273.327694 75.935987 
L 269.011944 76.774884 
L 264.728101 77.763887 
L 260.481383 78.901792 
L 256.276964 80.187212 
L 252.119966 81.618581 
L 248.015456 83.194155 
L 243.968432 84.912014 
L 239.983826 86.770067 
L 236.066493 88.766048 
L 232.221204 90.897526 
L 228.452646 93.161904 
L 224.765409 95.556424 
L 221.163985 98.078168 
L 217.652763 100.724063 
L 214.236021 103.490887 
L 210.91792 106.375268 
L 207.702505 109.373691 
L 204.593691 112.482505 
L 201.595268 115.69792 
L 198.710887 119.016021 
L 195.944063 122.432763 
L 193.298168 125.943985 
L 190.776424 129.545409 
L 188.381904 133.232646 
L 186.117526 137.001204 
L 183.986048 140.846493 
L 181.990067 144.763826 
L 180.132014 148.748432 
L 178.414155 152.795456 
L 176.838581 156.899966 
L 175.407212 161.056964 
L 174.121792 165.261383 
L 172.983887 169.508101 
L 171.994884 173.791944 
L 171.155987 178.107694 
L 170.468219 182.450091 
L 169.932417 186.813847 
L 169.549235 191.193643 
L 169.319138 195.584143 
L 169.242408 199.98 
L 169.319138 204.375857 
L 169.549235 208.766357 
L 169.932417 213.146153 
L 170.468219 217.509909 
L 171.155987 221.852306 
L 171.994884 226.168056 
L 172.983887 230.451899 
L 174.121792 234.698617 
L 175.407212 238.903036 
L 176.838581 243.060034 
L 178.414155 247.164544 
L 180.132014 251.211568 
L 181.990067 255.196174 
L 183.986048 259.113507 
L 186.117526 262.958796 
L 188.381904 266.727354 
L 190.776424 270.414591 
L 193.298168 274.016015 
L 195.944063 277.527237 
L 198.710887 280.943979 
L 201.595268 284.26208 
L 204.593691 287.477495 
L 207.702505 290.586309 
L 210.91792 293.584732 
L 214.236021 296.469113 
L 217.652763 299.235937 
L 221.163985 301.881832 
L 224.765409 304.403576 
L 228.452646 306.798096 
L 232.221204 309.062474 
L 236.066493 311.193952 
L 239.983826 313.189933 
L 243.968432 315.047986 
L 248.015456 316.765845 
L 252.119966 318.341419 
L 256.276964 319.772788 
L 260.481383 321.058208 
L 264.728101 322.196113 
L 269.011944 323.185116 
L 273.327694 324.024013 
L 277.670091 324.711781 
L 282.033847 325.247583 
L 286.413643 325.630765 
L 290.804143 325.860862 
L 295.2 325.937592 
L 299.595857 325.860862 
L 303.986357 325.630765 
L 308.366153 325.247583 
L 312.729909 324.711781 
L 317.072306 324.024013 
L 321.388056 323.185116 
L 325.671899 322.196113 
L 329.918617 321.058208 
L 334.123036 319.772788 
L 338.280034 318.341419 
L 342.384544 316.765845 
L 346.431568 315.047986 
L 350.416174 313.189933 
L 354.333507 311.193952 
L 358.178796 309.062474 
L 361.947354 306.798096 
L 365.634591 304.403576 
L 369.236015 301.881832 
L 372.747237 299.235937 
L 376.163979 296.469113 
L 379.48208 293.584732 
L 382.697495 290.586309 
L 385.806309 287.477495 
L 388.804732 284.26208 
L 391.689113 280.943979 
L 394.455937 277.527237 
L 397.101832 274.016015 
L 399.623576 270.414591 
L 402.018096 266.727354 
L 404.282474 262.958796 
L 406.413952 259.113507 
L 408.409933 255.196174 
L 410.267986 251.211568 
L 411.985845 247.164544 
L 413.561419 243.060034 
L 414.992788 238.903036 
L 416.278208 234.698617 
L 417.416113 230.451899 
L 418.405116 226.168056 
L 419.244013 221.852306 
L 419.931781 217.509909 
L 420.467583 213.146153 
L 420.850765 208.766357 
L 421.080862 204.375857 
L 421.157592 199.98 
L 421.157592 199.98 
" style="fill:none;stroke:#ffffff;stroke-linecap:round;"/>
     </g>
     <g id="text_13">
      <!-- 1.0 -->
      <g style="fill:#262626;" transform="translate(411.569641 149.790617)scale(0.1 -0.1)">
       <use xlink:href="#ArialMT-49"/>
       <use x="55.615234" xlink:href="#ArialMT-46"/>
       <use x="83.398438" xlink:href="#ArialMT-48"/>
      </g>
     </g>
    </g>
    <g id="ytick_6">
     <g id="line2d_14">
      <path clip-path="url(#p956044a355)" d="M 446.34911 199.98 
L 446.257034 194.704972 
L 445.980918 189.436371 
L 445.521099 184.180616 
L 444.878137 178.94411 
L 444.052815 173.733233 
L 443.046139 168.554333 
L 441.859335 163.413721 
L 440.49385 158.317659 
L 438.951346 153.272356 
L 437.233703 148.28396 
L 435.343014 143.358547 
L 433.281583 138.502118 
L 431.05192 133.720591 
L 428.656743 129.019791 
L 426.098969 124.405445 
L 423.381715 119.883175 
L 420.508291 115.45849 
L 417.482199 111.136782 
L 414.307124 106.923316 
L 410.986936 102.823225 
L 407.525679 98.841504 
L 403.927571 94.983006 
L 400.196994 91.252429 
L 396.338496 87.654321 
L 392.356775 84.193064 
L 388.256684 80.872876 
L 384.043218 77.697801 
L 379.72151 74.671709 
L 375.296825 71.798285 
L 370.774555 69.081031 
L 366.160209 66.523257 
L 361.459409 64.12808 
L 356.677882 61.898417 
L 351.821453 59.836986 
L 346.89604 57.946297 
L 341.907644 56.228654 
L 336.862341 54.68615 
L 331.766279 53.320665 
L 326.625667 52.133861 
L 321.446767 51.127185 
L 316.23589 50.301863 
L 310.999384 49.658901 
L 305.743629 49.199082 
L 300.475028 48.922966 
L 295.2 48.83089 
L 289.924972 48.922966 
L 284.656371 49.199082 
L 279.400616 49.658901 
L 274.16411 50.301863 
L 268.953233 51.127185 
L 263.774333 52.133861 
L 258.633721 53.320665 
L 253.537659 54.68615 
L 248.492356 56.228654 
L 243.50396 57.946297 
L 238.578547 59.836986 
L 233.722118 61.898417 
L 228.940591 64.12808 
L 224.239791 66.523257 
L 219.625445 69.081031 
L 215.103175 71.798285 
L 210.67849 74.671709 
L 206.356782 77.697801 
L 202.143316 80.872876 
L 198.043225 84.193064 
L 194.061504 87.654321 
L 190.203006 91.252429 
L 186.472429 94.983006 
L 182.874321 98.841504 
L 179.413064 102.823225 
L 176.092876 106.923316 
L 172.917801 111.136782 
L 169.891709 115.45849 
L 167.018285 119.883175 
L 164.301031 124.405445 
L 161.743257 129.019791 
L 159.34808 133.720591 
L 157.118417 138.502118 
L 155.056986 143.358547 
L 153.166297 148.28396 
L 151.448654 153.272356 
L 149.90615 158.317659 
L 148.540665 163.413721 
L 147.353861 168.554333 
L 146.347185 173.733233 
L 145.521863 178.94411 
L 144.878901 184.180616 
L 144.419082 189.436371 
L 144.142966 194.704972 
L 144.05089 199.98 
L 144.142966 205.255028 
L 144.419082 210.523629 
L 144.878901 215.779384 
L 145.521863 221.01589 
L 146.347185 226.226767 
L 147.353861 231.405667 
L 148.540665 236.546279 
L 149.90615 241.642341 
L 151.448654 246.687644 
L 153.166297 251.67604 
L 155.056986 256.601453 
L 157.118417 261.457882 
L 159.34808 266.239409 
L 161.743257 270.940209 
L 164.301031 275.554555 
L 167.018285 280.076825 
L 169.891709 284.50151 
L 172.917801 288.823218 
L 176.092876 293.036684 
L 179.413064 297.136775 
L 182.874321 301.118496 
L 186.472429 304.976994 
L 190.203006 308.707571 
L 194.061504 312.305679 
L 198.043225 315.766936 
L 202.143316 319.087124 
L 206.356782 322.262199 
L 210.67849 325.288291 
L 215.103175 328.161715 
L 219.625445 330.878969 
L 224.239791 333.436743 
L 228.940591 335.83192 
L 233.722118 338.061583 
L 238.578547 340.123014 
L 243.50396 342.013703 
L 248.492356 343.731346 
L 253.537659 345.27385 
L 258.633721 346.639335 
L 263.774333 347.826139 
L 268.953233 348.832815 
L 274.16411 349.658137 
L 279.400616 350.301099 
L 284.656371 350.760918 
L 289.924972 351.037034 
L 295.2 351.12911 
L 300.475028 351.037034 
L 305.743629 350.760918 
L 310.999384 350.301099 
L 316.23589 349.658137 
L 321.446767 348.832815 
L 326.625667 347.826139 
L 331.766279 346.639335 
L 336.862341 345.27385 
L 341.907644 343.731346 
L 346.89604 342.013703 
L 351.821453 340.123014 
L 356.677882 338.061583 
L 361.459409 335.83192 
L 366.160209 333.436743 
L 370.774555 330.878969 
L 375.296825 328.161715 
L 379.72151 325.288291 
L 384.043218 322.262199 
L 388.256684 319.087124 
L 392.356775 315.766936 
L 396.338496 312.305679 
L 400.196994 308.707571 
L 403.927571 304.976994 
L 407.525679 301.118496 
L 410.986936 297.136775 
L 414.307124 293.036684 
L 417.482199 288.823218 
L 420.508291 284.50151 
L 423.381715 280.076825 
L 426.098969 275.554555 
L 428.656743 270.940209 
L 431.05192 266.239409 
L 433.281583 261.457882 
L 435.343014 256.601453 
L 437.233703 251.67604 
L 438.951346 246.687644 
L 440.49385 241.642341 
L 441.859335 236.546279 
L 443.046139 231.405667 
L 444.052815 226.226767 
L 444.878137 221.01589 
L 445.521099 215.779384 
L 445.980918 210.523629 
L 446.257034 205.255028 
L 446.34911 199.98 
L 446.34911 199.98 
" style="fill:none;stroke:#ffffff;stroke-linecap:round;"/>
     </g>
     <g id="text_14">
      <!-- 1.2 -->
      <g style="fill:#262626;" transform="translate(434.843569 140.15024)scale(0.1 -0.1)">
       <use xlink:href="#ArialMT-49"/>
       <use x="55.615234" xlink:href="#ArialMT-46"/>
       <use x="83.398438" xlink:href="#ArialMT-50"/>
      </g>
     </g>
    </g>
   </g>
   <g id="PathCollection_1">
    <defs>
     <path d="M 0 3.5 
C 0.928211 3.5 1.81853 3.131218 2.474874 2.474874 
C 3.131218 1.81853 3.5 0.928211 3.5 0 
C 3.5 -0.928211 3.131218 -1.81853 2.474874 -2.474874 
C 1.81853 -3.131218 0.928211 -3.5 0 -3.5 
C -0.928211 -3.5 -1.81853 -3.131218 -2.474874 -2.474874 
C -3.131218 -1.81853 -3.5 -0.928211 -3.5 0 
C -3.5 0.928211 -3.131218 1.81853 -2.474874 2.474874 
C -1.81853 3.131218 -0.928211 3.5 0 3.5 
z
" id="m7e60bbbf18" style="stroke:#4c72b0;stroke-width:0.3;"/>
    </defs>
    <g clip-path="url(#p956044a355)">
     <use style="fill:#4c72b0;stroke:#4c72b0;stroke-width:0.3;" x="292.03258" xlink:href="#m7e60bbbf18" y="201.126581"/>
     <use style="fill:#4c72b0;stroke:#4c72b0;stroke-width:0.3;" x="311.01818" xlink:href="#m7e60bbbf18" y="197.846266"/>
     <use style="fill:#4c72b0;stroke:#4c72b0;stroke-width:0.3;" x="359.360824" xlink:href="#m7e60bbbf18" y="187.062196"/>
     <use style="fill:#4c72b0;stroke:#4c72b0;stroke-width:0.3;" x="246.033749" xlink:href="#m7e60bbbf18" y="199.909445"/>
     <use style="fill:#4c72b0;stroke:#4c72b0;stroke-width:0.3;" x="246.443487" xlink:href="#m7e60bbbf18" y="207.607122"/>
     <use style="fill:#4c72b0;stroke:#4c72b0;stroke-width:0.3;" x="325.881558" xlink:href="#m7e60bbbf18" y="194.265057"/>
     <use style="fill:#4c72b0;stroke:#4c72b0;stroke-width:0.3;" x="314.922068" xlink:href="#m7e60bbbf18" y="191.0676"/>
     <use style="fill:#4c72b0;stroke:#4c72b0;stroke-width:0.3;" x="243.386026" xlink:href="#m7e60bbbf18" y="204.439466"/>
     <use style="fill:#4c72b0;stroke:#4c72b0;stroke-width:0.3;" x="244.205033" xlink:href="#m7e60bbbf18" y="215.846096"/>
     <use style="fill:#4c72b0;stroke:#4c72b0;stroke-width:0.3;" x="409.368928" xlink:href="#m7e60bbbf18" y="181.250885"/>
     <use style="fill:#4c72b0;stroke:#4c72b0;stroke-width:0.3;" x="218.14986" xlink:href="#m7e60bbbf18" y="202.12076"/>
     <use style="fill:#4c72b0;stroke:#4c72b0;stroke-width:0.3;" x="278.635049" xlink:href="#m7e60bbbf18" y="204.70133"/>
     <use style="fill:#4c72b0;stroke:#4c72b0;stroke-width:0.3;" x="377.718026" xlink:href="#m7e60bbbf18" y="186.865103"/>
     <use style="fill:#4c72b0;stroke:#4c72b0;stroke-width:0.3;" x="211.408437" xlink:href="#m7e60bbbf18" y="211.157586"/>
     <use style="fill:#4c72b0;stroke:#4c72b0;stroke-width:0.3;" x="263.23786" xlink:href="#m7e60bbbf18" y="211.632057"/>
     <use style="fill:#4c72b0;stroke:#4c72b0;stroke-width:0.3;" x="325.821476" xlink:href="#m7e60bbbf18" y="200.313125"/>
     <use style="fill:#4c72b0;stroke:#4c72b0;stroke-width:0.3;" x="282.979008" xlink:href="#m7e60bbbf18" y="203.824496"/>
     <use style="fill:#4c72b0;stroke:#4c72b0;stroke-width:0.3;" x="392.618987" xlink:href="#m7e60bbbf18" y="182.699379"/>
     <use style="fill:#4c72b0;stroke:#4c72b0;stroke-width:0.3;" x="245.417968" xlink:href="#m7e60bbbf18" y="196.851724"/>
     <use style="fill:#4c72b0;stroke:#4c72b0;stroke-width:0.3;" x="289.601792" xlink:href="#m7e60bbbf18" y="197.055682"/>
     <use style="fill:#4c72b0;stroke:#4c72b0;stroke-width:0.3;" x="401.428292" xlink:href="#m7e60bbbf18" y="174.886134"/>
     <use style="fill:#4c72b0;stroke:#4c72b0;stroke-width:0.3;" x="219.267571" xlink:href="#m7e60bbbf18" y="197.452971"/>
     <use style="fill:#4c72b0;stroke:#4c72b0;stroke-width:0.3;" x="326.894823" xlink:href="#m7e60bbbf18" y="189.478667"/>
     <use style="fill:#4c72b0;stroke:#4c72b0;stroke-width:0.3;" x="335.276326" xlink:href="#m7e60bbbf18" y="184.836103"/>
    </g>
   </g>
   <g id="PathCollection_2">
    <defs>
     <path d="M 0 3.5 
C 0.928211 3.5 1.81853 3.131218 2.474874 2.474874 
C 3.131218 1.81853 3.5 0.928211 3.5 0 
C 3.5 -0.928211 3.131218 -1.81853 2.474874 -2.474874 
C 1.81853 -3.131218 0.928211 -3.5 0 -3.5 
C -0.928211 -3.5 -1.81853 -3.131218 -2.474874 -2.474874 
C -3.131218 -1.81853 -3.5 -0.928211 -3.5 0 
C -3.5 0.928211 -3.131218 1.81853 -2.474874 2.474874 
C -1.81853 3.131218 -0.928211 3.5 0 3.5 
z
" id="me39a26ae6d" style="stroke:#55a868;stroke-width:0.3;"/>
    </defs>
    <g clip-path="url(#p956044a355)">
     <use style="fill:#55a868;stroke:#55a868;stroke-width:0.3;" x="324.279865" xlink:href="#me39a26ae6d" y="191.665017"/>
     <use style="fill:#55a868;stroke:#55a868;stroke-width:0.3;" x="336.653813" xlink:href="#me39a26ae6d" y="185.44441"/>
     <use style="fill:#55a868;stroke:#55a868;stroke-width:0.3;" x="153.335519" xlink:href="#me39a26ae6d" y="224.376116"/>
     <use style="fill:#55a868;stroke:#55a868;stroke-width:0.3;" x="293.983481" xlink:href="#me39a26ae6d" y="211.246433"/>
     <use style="fill:#55a868;stroke:#55a868;stroke-width:0.3;" x="327.829644" xlink:href="#me39a26ae6d" y="201.322591"/>
     <use style="fill:#55a868;stroke:#55a868;stroke-width:0.3;" x="257.623808" xlink:href="#me39a26ae6d" y="210.668632"/>
     <use style="fill:#55a868;stroke:#55a868;stroke-width:0.3;" x="294.672752" xlink:href="#me39a26ae6d" y="206.959691"/>
     <use style="fill:#55a868;stroke:#55a868;stroke-width:0.3;" x="344.350043" xlink:href="#me39a26ae6d" y="192.209492"/>
     <use style="fill:#55a868;stroke:#55a868;stroke-width:0.3;" x="209.827903" xlink:href="#me39a26ae6d" y="217.262065"/>
     <use style="fill:#55a868;stroke:#55a868;stroke-width:0.3;" x="331.897138" xlink:href="#me39a26ae6d" y="200.038834"/>
     <use style="fill:#55a868;stroke:#55a868;stroke-width:0.3;" x="266.385228" xlink:href="#me39a26ae6d" y="206.736704"/>
     <use style="fill:#55a868;stroke:#55a868;stroke-width:0.3;" x="274.911874" xlink:href="#me39a26ae6d" y="206.753761"/>
     <use style="fill:#55a868;stroke:#55a868;stroke-width:0.3;" x="251.426531" xlink:href="#me39a26ae6d" y="216.572795"/>
     <use style="fill:#55a868;stroke:#55a868;stroke-width:0.3;" x="266.983794" xlink:href="#me39a26ae6d" y="216.055789"/>
     <use style="fill:#55a868;stroke:#55a868;stroke-width:0.3;" x="278.847467" xlink:href="#me39a26ae6d" y="213.494858"/>
     <use style="fill:#55a868;stroke:#55a868;stroke-width:0.3;" x="310.718416" xlink:href="#me39a26ae6d" y="200.61216"/>
     <use style="fill:#55a868;stroke:#55a868;stroke-width:0.3;" x="337.489989" xlink:href="#me39a26ae6d" y="186.931354"/>
     <use style="fill:#55a868;stroke:#55a868;stroke-width:0.3;" x="291.050887" xlink:href="#me39a26ae6d" y="193.685719"/>
     <use style="fill:#55a868;stroke:#55a868;stroke-width:0.3;" x="325.41198" xlink:href="#me39a26ae6d" y="187.019455"/>
     <use style="fill:#55a868;stroke:#55a868;stroke-width:0.3;" x="288.104034" xlink:href="#me39a26ae6d" y="189.450725"/>
     <use style="fill:#55a868;stroke:#55a868;stroke-width:0.3;" x="309.739868" xlink:href="#me39a26ae6d" y="187.192143"/>
     <use style="fill:#55a868;stroke:#55a868;stroke-width:0.3;" x="249.100677" xlink:href="#me39a26ae6d" y="204.190224"/>
     <use style="fill:#55a868;stroke:#55a868;stroke-width:0.3;" x="322.878853" xlink:href="#me39a26ae6d" y="193.623564"/>
     <use style="fill:#55a868;stroke:#55a868;stroke-width:0.3;" x="291.567873" xlink:href="#me39a26ae6d" y="198.079731"/>
    </g>
   </g>
   <g id="PathCollection_3">
    <defs>
     <path d="M 0 3.5 
C 0.928211 3.5 1.81853 3.131218 2.474874 2.474874 
C 3.131218 1.81853 3.5 0.928211 3.5 0 
C 3.5 -0.928211 3.131218 -1.81853 2.474874 -2.474874 
C 1.81853 -3.131218 0.928211 -3.5 0 -3.5 
C -0.928211 -3.5 -1.81853 -3.131218 -2.474874 -2.474874 
C -3.131218 -1.81853 -3.5 -0.928211 -3.5 0 
C -3.5 0.928211 -3.131218 1.81853 -2.474874 2.474874 
C -1.81853 3.131218 -0.928211 3.5 0 3.5 
z
" id="mc373f21492" style="stroke:#c44e52;stroke-width:0.3;"/>
    </defs>
    <g clip-path="url(#p956044a355)">
     <use style="fill:#c44e52;stroke:#c44e52;stroke-width:0.3;" x="266.996982" xlink:href="#mc373f21492" y="196.061887"/>
     <use style="fill:#c44e52;stroke:#c44e52;stroke-width:0.3;" x="325.310891" xlink:href="#mc373f21492" y="188.385436"/>
     <use style="fill:#c44e52;stroke:#c44e52;stroke-width:0.3;" x="260.171348" xlink:href="#mc373f21492" y="196.350628"/>
     <use style="fill:#c44e52;stroke:#c44e52;stroke-width:0.3;" x="360.506864" xlink:href="#mc373f21492" y="183.505251"/>
     <use style="fill:#c44e52;stroke:#c44e52;stroke-width:0.3;" x="306.568765" xlink:href="#mc373f21492" y="188.550539"/>
     <use style="fill:#c44e52;stroke:#c44e52;stroke-width:0.3;" x="315.528781" xlink:href="#mc373f21492" y="191.212991"/>
     <use style="fill:#c44e52;stroke:#c44e52;stroke-width:0.3;" x="327.795513" xlink:href="#mc373f21492" y="187.282722"/>
     <use style="fill:#c44e52;stroke:#c44e52;stroke-width:0.3;" x="291.079416" xlink:href="#mc373f21492" y="192.846661"/>
     <use style="fill:#c44e52;stroke:#c44e52;stroke-width:0.3;" x="342.777759" xlink:href="#mc373f21492" y="184.53869"/>
     <use style="fill:#c44e52;stroke:#c44e52;stroke-width:0.3;" x="245.41238" xlink:href="#mc373f21492" y="201.81864"/>
     <use style="fill:#c44e52;stroke:#c44e52;stroke-width:0.3;" x="280.321244" xlink:href="#mc373f21492" y="202.545313"/>
     <use style="fill:#c44e52;stroke:#c44e52;stroke-width:0.3;" x="350.470778" xlink:href="#mc373f21492" y="189.076753"/>
     <use style="fill:#c44e52;stroke:#c44e52;stroke-width:0.3;" x="392.215025" xlink:href="#mc373f21492" y="166.346968"/>
     <use style="fill:#c44e52;stroke:#c44e52;stroke-width:0.3;" x="282.734658" xlink:href="#mc373f21492" y="184.564468"/>
     <use style="fill:#c44e52;stroke:#c44e52;stroke-width:0.3;" x="319.776988" xlink:href="#mc373f21492" y="180.333127"/>
     <use style="fill:#c44e52;stroke:#c44e52;stroke-width:0.3;" x="326.463716" xlink:href="#mc373f21492" y="180.371824"/>
     <use style="fill:#c44e52;stroke:#c44e52;stroke-width:0.3;" x="298.345572" xlink:href="#mc373f21492" y="188.544815"/>
     <use style="fill:#c44e52;stroke:#c44e52;stroke-width:0.3;" x="329.020749" xlink:href="#mc373f21492" y="181.364578"/>
     <use style="fill:#c44e52;stroke:#c44e52;stroke-width:0.3;" x="311.74589" xlink:href="#mc373f21492" y="185.04825"/>
     <use style="fill:#c44e52;stroke:#c44e52;stroke-width:0.3;" x="297.07896" xlink:href="#mc373f21492" y="191.589031"/>
     <use style="fill:#c44e52;stroke:#c44e52;stroke-width:0.3;" x="325.451676" xlink:href="#mc373f21492" y="186.716137"/>
     <use style="fill:#c44e52;stroke:#c44e52;stroke-width:0.3;" x="361.813871" xlink:href="#mc373f21492" y="171.092705"/>
     <use style="fill:#c44e52;stroke:#c44e52;stroke-width:0.3;" x="289.637154" xlink:href="#mc373f21492" y="185.73122"/>
     <use style="fill:#c44e52;stroke:#c44e52;stroke-width:0.3;" x="347.552662" xlink:href="#mc373f21492" y="174.463603"/>
    </g>
   </g>
   <g id="line2d_15">
    <path clip-path="url(#p956044a355)" d="M 295.2 199.98 
L 404.930738 106.814198 
" style="fill:none;stroke:#ff0000;stroke-dasharray:7.4,3.2;stroke-dashoffset:0;stroke-width:2;"/>
   </g>
   <g id="patch_3">
    <path d="M 447.66 199.98 
C 447.66 179.959136 443.716326 160.13295 436.054674 141.636084 
C 428.393021 123.139218 417.162388 106.331389 403.0055 92.1745 
C 388.848611 78.017612 372.040782 66.786979 353.543916 59.125326 
C 335.04705 51.463674 315.220864 47.52 295.2 47.52 
C 275.179136 47.52 255.35295 51.463674 236.856084 59.125326 
C 218.359218 66.786979 201.551389 78.017612 187.3945 92.1745 
C 173.237612 106.331389 162.006979 123.139218 154.345326 141.636084 
C 146.683674 160.13295 142.74 179.959136 142.74 199.98 
C 142.74 220.000864 146.683674 239.82705 154.345326 258.323916 
C 162.006979 276.820782 173.237612 293.628611 187.3945 307.7855 
C 201.551389 321.942388 218.359218 333.173021 236.856084 340.834674 
C 255.35295 348.496326 275.179136 352.44 295.2 352.44 
C 315.220864 352.44 335.04705 348.496326 353.543916 340.834674 
C 372.040782 333.173021 388.848611 321.942388 403.0055 307.7855 
C 417.162388 293.628611 428.393021 276.820782 436.054674 258.323916 
C 443.716326 239.82705 447.66 220.000864 447.66 199.98 
" style="fill:none;"/>
   </g>
   <g id="text_15">
    <!-- Distribution of projected eye movement velocity on the screen - NewM1_12_31 -->
    <defs>
     <path d="M 7.71875 0 
L 7.71875 71.578125 
L 32.375 71.578125 
Q 40.71875 71.578125 45.125 70.5625 
Q 51.265625 69.140625 55.609375 65.4375 
Q 61.28125 60.640625 64.078125 53.1875 
Q 66.890625 45.75 66.890625 36.1875 
Q 66.890625 28.03125 64.984375 21.734375 
Q 63.09375 15.4375 60.109375 11.296875 
Q 57.125 7.171875 53.578125 4.796875 
Q 50.046875 2.4375 45.046875 1.21875 
Q 40.046875 0 33.546875 0 
z
M 17.1875 8.453125 
L 32.46875 8.453125 
Q 39.546875 8.453125 43.578125 9.765625 
Q 47.609375 11.078125 50 13.484375 
Q 53.375 16.84375 55.25 22.53125 
Q 57.125 28.21875 57.125 36.328125 
Q 57.125 47.5625 53.4375 53.59375 
Q 49.75 59.625 44.484375 61.671875 
Q 40.671875 63.140625 32.234375 63.140625 
L 17.1875 63.140625 
z
" id="ArialMT-68"/>
     <path d="M 6.640625 61.46875 
L 6.640625 71.578125 
L 15.4375 71.578125 
L 15.4375 61.46875 
z
M 6.640625 0 
L 6.640625 51.859375 
L 15.4375 51.859375 
L 15.4375 0 
z
" id="ArialMT-105"/>
     <path d="M 3.078125 15.484375 
L 11.765625 16.84375 
Q 12.5 11.625 15.84375 8.84375 
Q 19.1875 6.0625 25.203125 6.0625 
Q 31.25 6.0625 34.171875 8.515625 
Q 37.109375 10.984375 37.109375 14.3125 
Q 37.109375 17.28125 34.515625 19 
Q 32.71875 20.171875 25.53125 21.96875 
Q 15.875 24.421875 12.140625 26.203125 
Q 8.40625 27.984375 6.46875 31.125 
Q 4.546875 34.28125 4.546875 38.09375 
Q 4.546875 41.546875 6.125 44.5 
Q 7.71875 47.46875 10.453125 49.421875 
Q 12.5 50.921875 16.03125 51.96875 
Q 19.578125 53.03125 23.640625 53.03125 
Q 29.734375 53.03125 34.34375 51.265625 
Q 38.96875 49.515625 41.15625 46.5 
Q 43.359375 43.5 44.1875 38.484375 
L 35.59375 37.3125 
Q 35.015625 41.3125 32.203125 43.546875 
Q 29.390625 45.796875 24.265625 45.796875 
Q 18.21875 45.796875 15.625 43.796875 
Q 13.03125 41.796875 13.03125 39.109375 
Q 13.03125 37.40625 14.109375 36.03125 
Q 15.1875 34.625 17.484375 33.6875 
Q 18.796875 33.203125 25.25 31.453125 
Q 34.578125 28.953125 38.25 27.359375 
Q 41.9375 25.78125 44.03125 22.75 
Q 46.140625 19.734375 46.140625 15.234375 
Q 46.140625 10.84375 43.578125 6.953125 
Q 41.015625 3.078125 36.171875 0.953125 
Q 31.34375 -1.171875 25.25 -1.171875 
Q 15.140625 -1.171875 9.84375 3.03125 
Q 4.546875 7.234375 3.078125 15.484375 
z
" id="ArialMT-115"/>
     <path d="M 25.78125 7.859375 
L 27.046875 0.09375 
Q 23.34375 -0.6875 20.40625 -0.6875 
Q 15.625 -0.6875 12.984375 0.828125 
Q 10.359375 2.34375 9.28125 4.8125 
Q 8.203125 7.28125 8.203125 15.1875 
L 8.203125 45.015625 
L 1.765625 45.015625 
L 1.765625 51.859375 
L 8.203125 51.859375 
L 8.203125 64.703125 
L 16.9375 69.96875 
L 16.9375 51.859375 
L 25.78125 51.859375 
L 25.78125 45.015625 
L 16.9375 45.015625 
L 16.9375 14.703125 
Q 16.9375 10.9375 17.40625 9.859375 
Q 17.875 8.796875 18.921875 8.15625 
Q 19.96875 7.515625 21.921875 7.515625 
Q 23.390625 7.515625 25.78125 7.859375 
z
" id="ArialMT-116"/>
     <path d="M 6.5 0 
L 6.5 51.859375 
L 14.40625 51.859375 
L 14.40625 44 
Q 17.4375 49.515625 20 51.265625 
Q 22.5625 53.03125 25.640625 53.03125 
Q 30.078125 53.03125 34.671875 50.203125 
L 31.640625 42.046875 
Q 28.421875 43.953125 25.203125 43.953125 
Q 22.3125 43.953125 20.015625 42.21875 
Q 17.71875 40.484375 16.75 37.40625 
Q 15.28125 32.71875 15.28125 27.15625 
L 15.28125 0 
z
" id="ArialMT-114"/>
     <path d="M 14.703125 0 
L 6.546875 0 
L 6.546875 71.578125 
L 15.328125 71.578125 
L 15.328125 46.046875 
Q 20.90625 53.03125 29.546875 53.03125 
Q 34.328125 53.03125 38.59375 51.09375 
Q 42.875 49.171875 45.625 45.671875 
Q 48.390625 42.1875 49.953125 37.25 
Q 51.515625 32.328125 51.515625 26.703125 
Q 51.515625 13.375 44.921875 6.09375 
Q 38.328125 -1.171875 29.109375 -1.171875 
Q 19.921875 -1.171875 14.703125 6.5 
z
M 14.59375 26.3125 
Q 14.59375 17 17.140625 12.84375 
Q 21.296875 6.0625 28.375 6.0625 
Q 34.125 6.0625 38.328125 11.0625 
Q 42.53125 16.0625 42.53125 25.984375 
Q 42.53125 36.140625 38.5 40.96875 
Q 34.46875 45.796875 28.765625 45.796875 
Q 23 45.796875 18.796875 40.796875 
Q 14.59375 35.796875 14.59375 26.3125 
z
" id="ArialMT-98"/>
     <path d="M 40.578125 0 
L 40.578125 7.625 
Q 34.515625 -1.171875 24.125 -1.171875 
Q 19.53125 -1.171875 15.546875 0.578125 
Q 11.578125 2.34375 9.640625 5 
Q 7.71875 7.671875 6.9375 11.53125 
Q 6.390625 14.109375 6.390625 19.734375 
L 6.390625 51.859375 
L 15.1875 51.859375 
L 15.1875 23.09375 
Q 15.1875 16.21875 15.71875 13.8125 
Q 16.546875 10.359375 19.234375 8.375 
Q 21.921875 6.390625 25.875 6.390625 
Q 29.828125 6.390625 33.296875 8.421875 
Q 36.765625 10.453125 38.203125 13.9375 
Q 39.65625 17.4375 39.65625 24.078125 
L 39.65625 51.859375 
L 48.4375 51.859375 
L 48.4375 0 
z
" id="ArialMT-117"/>
     <path d="M 3.328125 25.921875 
Q 3.328125 40.328125 11.328125 47.265625 
Q 18.015625 53.03125 27.640625 53.03125 
Q 38.328125 53.03125 45.109375 46.015625 
Q 51.90625 39.015625 51.90625 26.65625 
Q 51.90625 16.65625 48.90625 10.90625 
Q 45.90625 5.171875 40.15625 2 
Q 34.421875 -1.171875 27.640625 -1.171875 
Q 16.75 -1.171875 10.03125 5.8125 
Q 3.328125 12.796875 3.328125 25.921875 
z
M 12.359375 25.921875 
Q 12.359375 15.96875 16.703125 11.015625 
Q 21.046875 6.0625 27.640625 6.0625 
Q 34.1875 6.0625 38.53125 11.03125 
Q 42.875 16.015625 42.875 26.21875 
Q 42.875 35.84375 38.5 40.796875 
Q 34.125 45.75 27.640625 45.75 
Q 21.046875 45.75 16.703125 40.8125 
Q 12.359375 35.890625 12.359375 25.921875 
z
" id="ArialMT-111"/>
     <path d="M 6.59375 0 
L 6.59375 51.859375 
L 14.5 51.859375 
L 14.5 44.484375 
Q 20.21875 53.03125 31 53.03125 
Q 35.6875 53.03125 39.625 51.34375 
Q 43.5625 49.65625 45.515625 46.921875 
Q 47.46875 44.1875 48.25 40.4375 
Q 48.734375 37.984375 48.734375 31.890625 
L 48.734375 0 
L 39.9375 0 
L 39.9375 31.546875 
Q 39.9375 36.921875 38.90625 39.578125 
Q 37.890625 42.234375 35.28125 43.8125 
Q 32.671875 45.40625 29.15625 45.40625 
Q 23.53125 45.40625 19.453125 41.84375 
Q 15.375 38.28125 15.375 28.328125 
L 15.375 0 
z
" id="ArialMT-110"/>
     <path id="ArialMT-32"/>
     <path d="M 8.6875 0 
L 8.6875 45.015625 
L 0.921875 45.015625 
L 0.921875 51.859375 
L 8.6875 51.859375 
L 8.6875 57.375 
Q 8.6875 62.59375 9.625 65.140625 
Q 10.890625 68.5625 14.078125 70.671875 
Q 17.28125 72.796875 23.046875 72.796875 
Q 26.765625 72.796875 31.25 71.921875 
L 29.9375 64.265625 
Q 27.203125 64.75 24.75 64.75 
Q 20.75 64.75 19.09375 63.03125 
Q 17.4375 61.328125 17.4375 56.640625 
L 17.4375 51.859375 
L 27.546875 51.859375 
L 27.546875 45.015625 
L 17.4375 45.015625 
L 17.4375 0 
z
" id="ArialMT-102"/>
     <path d="M 6.59375 -19.875 
L 6.59375 51.859375 
L 14.59375 51.859375 
L 14.59375 45.125 
Q 17.4375 49.078125 21 51.046875 
Q 24.5625 53.03125 29.640625 53.03125 
Q 36.28125 53.03125 41.359375 49.609375 
Q 46.4375 46.1875 49.015625 39.953125 
Q 51.609375 33.734375 51.609375 26.3125 
Q 51.609375 18.359375 48.75 11.984375 
Q 45.90625 5.609375 40.453125 2.21875 
Q 35.015625 -1.171875 29 -1.171875 
Q 24.609375 -1.171875 21.109375 0.6875 
Q 17.625 2.546875 15.375 5.375 
L 15.375 -19.875 
z
M 14.546875 25.640625 
Q 14.546875 15.625 18.59375 10.84375 
Q 22.65625 6.0625 28.421875 6.0625 
Q 34.28125 6.0625 38.453125 11.015625 
Q 42.625 15.96875 42.625 26.375 
Q 42.625 36.28125 38.546875 41.203125 
Q 34.46875 46.140625 28.8125 46.140625 
Q 23.1875 46.140625 18.859375 40.890625 
Q 14.546875 35.640625 14.546875 25.640625 
z
" id="ArialMT-112"/>
     <path d="M 6.546875 61.375 
L 6.546875 71.578125 
L 15.328125 71.578125 
L 15.328125 61.375 
z
M -4.59375 -20.125 
L -2.9375 -12.640625 
Q -0.296875 -13.328125 1.21875 -13.328125 
Q 3.90625 -13.328125 5.21875 -11.546875 
Q 6.546875 -9.765625 6.546875 -2.640625 
L 6.546875 51.859375 
L 15.328125 51.859375 
L 15.328125 -2.828125 
Q 15.328125 -12.40625 12.84375 -16.15625 
Q 9.671875 -21.046875 2.296875 -21.046875 
Q -1.265625 -21.046875 -4.59375 -20.125 
z
" id="ArialMT-106"/>
     <path d="M 42.09375 16.703125 
L 51.171875 15.578125 
Q 49.03125 7.625 43.21875 3.21875 
Q 37.40625 -1.171875 28.375 -1.171875 
Q 17 -1.171875 10.328125 5.828125 
Q 3.65625 12.84375 3.65625 25.484375 
Q 3.65625 38.578125 10.390625 45.796875 
Q 17.140625 53.03125 27.875 53.03125 
Q 38.28125 53.03125 44.875 45.953125 
Q 51.46875 38.875 51.46875 26.03125 
Q 51.46875 25.25 51.421875 23.6875 
L 12.75 23.6875 
Q 13.234375 15.140625 17.578125 10.59375 
Q 21.921875 6.0625 28.421875 6.0625 
Q 33.25 6.0625 36.671875 8.59375 
Q 40.09375 11.140625 42.09375 16.703125 
z
M 13.234375 30.90625 
L 42.1875 30.90625 
Q 41.609375 37.453125 38.875 40.71875 
Q 34.671875 45.796875 27.984375 45.796875 
Q 21.921875 45.796875 17.796875 41.75 
Q 13.671875 37.703125 13.234375 30.90625 
z
" id="ArialMT-101"/>
     <path d="M 40.4375 19 
L 49.078125 17.875 
Q 47.65625 8.9375 41.8125 3.875 
Q 35.984375 -1.171875 27.484375 -1.171875 
Q 16.84375 -1.171875 10.375 5.78125 
Q 3.90625 12.75 3.90625 25.734375 
Q 3.90625 34.125 6.6875 40.421875 
Q 9.46875 46.734375 15.15625 49.875 
Q 20.84375 53.03125 27.546875 53.03125 
Q 35.984375 53.03125 41.359375 48.75 
Q 46.734375 44.484375 48.25 36.625 
L 39.703125 35.296875 
Q 38.484375 40.53125 35.375 43.15625 
Q 32.28125 45.796875 27.875 45.796875 
Q 21.234375 45.796875 17.078125 41.03125 
Q 12.9375 36.28125 12.9375 25.984375 
Q 12.9375 15.53125 16.9375 10.796875 
Q 20.953125 6.0625 27.390625 6.0625 
Q 32.5625 6.0625 36.03125 9.234375 
Q 39.5 12.40625 40.4375 19 
z
" id="ArialMT-99"/>
     <path d="M 40.234375 0 
L 40.234375 6.546875 
Q 35.296875 -1.171875 25.734375 -1.171875 
Q 19.53125 -1.171875 14.328125 2.25 
Q 9.125 5.671875 6.265625 11.796875 
Q 3.421875 17.921875 3.421875 25.875 
Q 3.421875 33.640625 6 39.96875 
Q 8.59375 46.296875 13.765625 49.65625 
Q 18.953125 53.03125 25.34375 53.03125 
Q 30.03125 53.03125 33.6875 51.046875 
Q 37.359375 49.078125 39.65625 45.90625 
L 39.65625 71.578125 
L 48.390625 71.578125 
L 48.390625 0 
z
M 12.453125 25.875 
Q 12.453125 15.921875 16.640625 10.984375 
Q 20.84375 6.0625 26.5625 6.0625 
Q 32.328125 6.0625 36.34375 10.765625 
Q 40.375 15.484375 40.375 25.140625 
Q 40.375 35.796875 36.265625 40.765625 
Q 32.171875 45.75 26.171875 45.75 
Q 20.3125 45.75 16.375 40.96875 
Q 12.453125 36.1875 12.453125 25.875 
z
" id="ArialMT-100"/>
     <path d="M 6.203125 -19.96875 
L 5.21875 -11.71875 
Q 8.109375 -12.5 10.25 -12.5 
Q 13.1875 -12.5 14.9375 -11.515625 
Q 16.703125 -10.546875 17.828125 -8.796875 
Q 18.65625 -7.46875 20.515625 -2.25 
Q 20.75 -1.515625 21.296875 -0.09375 
L 1.609375 51.859375 
L 11.078125 51.859375 
L 21.875 21.828125 
Q 23.96875 16.109375 25.640625 9.8125 
Q 27.15625 15.875 29.25 21.625 
L 40.328125 51.859375 
L 49.125 51.859375 
L 29.390625 -0.875 
Q 26.21875 -9.421875 24.46875 -12.640625 
Q 22.125 -17 19.09375 -19.015625 
Q 16.0625 -21.046875 11.859375 -21.046875 
Q 9.328125 -21.046875 6.203125 -19.96875 
z
" id="ArialMT-121"/>
     <path d="M 6.59375 0 
L 6.59375 51.859375 
L 14.453125 51.859375 
L 14.453125 44.578125 
Q 16.890625 48.390625 20.9375 50.703125 
Q 25 53.03125 30.171875 53.03125 
Q 35.9375 53.03125 39.625 50.640625 
Q 43.3125 48.25 44.828125 43.953125 
Q 50.984375 53.03125 60.84375 53.03125 
Q 68.5625 53.03125 72.703125 48.75 
Q 76.859375 44.484375 76.859375 35.59375 
L 76.859375 0 
L 68.109375 0 
L 68.109375 32.671875 
Q 68.109375 37.9375 67.25 40.25 
Q 66.40625 42.578125 64.15625 43.984375 
Q 61.921875 45.40625 58.890625 45.40625 
Q 53.421875 45.40625 49.796875 41.765625 
Q 46.1875 38.140625 46.1875 30.125 
L 46.1875 0 
L 37.40625 0 
L 37.40625 33.6875 
Q 37.40625 39.546875 35.25 42.46875 
Q 33.109375 45.40625 28.21875 45.40625 
Q 24.515625 45.40625 21.359375 43.453125 
Q 18.21875 41.5 16.796875 37.734375 
Q 15.375 33.984375 15.375 26.90625 
L 15.375 0 
z
" id="ArialMT-109"/>
     <path d="M 21 0 
L 1.265625 51.859375 
L 10.546875 51.859375 
L 21.6875 20.796875 
Q 23.484375 15.765625 25 10.359375 
Q 26.171875 14.453125 28.265625 20.21875 
L 39.796875 51.859375 
L 48.828125 51.859375 
L 29.203125 0 
z
" id="ArialMT-118"/>
     <path d="M 6.390625 0 
L 6.390625 71.578125 
L 15.1875 71.578125 
L 15.1875 0 
z
" id="ArialMT-108"/>
     <path d="M 6.59375 0 
L 6.59375 71.578125 
L 15.375 71.578125 
L 15.375 45.90625 
Q 21.53125 53.03125 30.90625 53.03125 
Q 36.671875 53.03125 40.921875 50.75 
Q 45.171875 48.484375 47 44.484375 
Q 48.828125 40.484375 48.828125 32.859375 
L 48.828125 0 
L 40.046875 0 
L 40.046875 32.859375 
Q 40.046875 39.453125 37.1875 42.453125 
Q 34.328125 45.453125 29.109375 45.453125 
Q 25.203125 45.453125 21.75 43.421875 
Q 18.3125 41.40625 16.84375 37.9375 
Q 15.375 34.46875 15.375 28.375 
L 15.375 0 
z
" id="ArialMT-104"/>
     <path d="M 3.171875 21.484375 
L 3.171875 30.328125 
L 30.171875 30.328125 
L 30.171875 21.484375 
z
" id="ArialMT-45"/>
     <path d="M 7.625 0 
L 7.625 71.578125 
L 17.328125 71.578125 
L 54.9375 15.375 
L 54.9375 71.578125 
L 64.015625 71.578125 
L 64.015625 0 
L 54.296875 0 
L 16.703125 56.25 
L 16.703125 0 
z
" id="ArialMT-78"/>
     <path d="M 16.15625 0 
L 0.296875 51.859375 
L 9.375 51.859375 
L 17.625 21.921875 
L 20.703125 10.796875 
Q 20.90625 11.625 23.390625 21.484375 
L 31.640625 51.859375 
L 40.671875 51.859375 
L 48.4375 21.78125 
L 51.03125 11.859375 
L 54 21.875 
L 62.890625 51.859375 
L 71.4375 51.859375 
L 55.21875 0 
L 46.09375 0 
L 37.84375 31.0625 
L 35.84375 39.890625 
L 25.34375 0 
z
" id="ArialMT-119"/>
     <path d="M 7.421875 0 
L 7.421875 71.578125 
L 21.6875 71.578125 
L 38.625 20.90625 
Q 40.96875 13.8125 42.046875 10.296875 
Q 43.265625 14.203125 45.84375 21.78125 
L 62.984375 71.578125 
L 75.734375 71.578125 
L 75.734375 0 
L 66.609375 0 
L 66.609375 59.90625 
L 45.796875 0 
L 37.25 0 
L 16.546875 60.9375 
L 16.546875 0 
z
" id="ArialMT-77"/>
     <path d="M -1.515625 -19.875 
L -1.515625 -13.53125 
L 56.734375 -13.53125 
L 56.734375 -19.875 
z
" id="ArialMT-95"/>
    </defs>
    <g style="fill:#262626;" transform="translate(85.77375 23.748375)scale(0.12 -0.12)">
     <use xlink:href="#ArialMT-68"/>
     <use x="72.216797" xlink:href="#ArialMT-105"/>
     <use x="94.433594" xlink:href="#ArialMT-115"/>
     <use x="144.433594" xlink:href="#ArialMT-116"/>
     <use x="172.216797" xlink:href="#ArialMT-114"/>
     <use x="205.517578" xlink:href="#ArialMT-105"/>
     <use x="227.734375" xlink:href="#ArialMT-98"/>
     <use x="283.349609" xlink:href="#ArialMT-117"/>
     <use x="338.964844" xlink:href="#ArialMT-116"/>
     <use x="366.748047" xlink:href="#ArialMT-105"/>
     <use x="388.964844" xlink:href="#ArialMT-111"/>
     <use x="444.580078" xlink:href="#ArialMT-110"/>
     <use x="500.195312" xlink:href="#ArialMT-32"/>
     <use x="527.978516" xlink:href="#ArialMT-111"/>
     <use x="583.59375" xlink:href="#ArialMT-102"/>
     <use x="611.376953" xlink:href="#ArialMT-32"/>
     <use x="639.160156" xlink:href="#ArialMT-112"/>
     <use x="694.775391" xlink:href="#ArialMT-114"/>
     <use x="728.076172" xlink:href="#ArialMT-111"/>
     <use x="783.691406" xlink:href="#ArialMT-106"/>
     <use x="805.908203" xlink:href="#ArialMT-101"/>
     <use x="861.523438" xlink:href="#ArialMT-99"/>
     <use x="911.523438" xlink:href="#ArialMT-116"/>
     <use x="939.306641" xlink:href="#ArialMT-101"/>
     <use x="994.921875" xlink:href="#ArialMT-100"/>
     <use x="1050.537109" xlink:href="#ArialMT-32"/>
     <use x="1078.320312" xlink:href="#ArialMT-101"/>
     <use x="1133.935547" xlink:href="#ArialMT-121"/>
     <use x="1183.935547" xlink:href="#ArialMT-101"/>
     <use x="1239.550781" xlink:href="#ArialMT-32"/>
     <use x="1267.333984" xlink:href="#ArialMT-109"/>
     <use x="1350.634766" xlink:href="#ArialMT-111"/>
     <use x="1406.25" xlink:href="#ArialMT-118"/>
     <use x="1456.25" xlink:href="#ArialMT-101"/>
     <use x="1511.865234" xlink:href="#ArialMT-109"/>
     <use x="1595.166016" xlink:href="#ArialMT-101"/>
     <use x="1650.78125" xlink:href="#ArialMT-110"/>
     <use x="1706.396484" xlink:href="#ArialMT-116"/>
     <use x="1734.179688" xlink:href="#ArialMT-32"/>
     <use x="1761.962891" xlink:href="#ArialMT-118"/>
     <use x="1811.962891" xlink:href="#ArialMT-101"/>
     <use x="1867.578125" xlink:href="#ArialMT-108"/>
     <use x="1889.794922" xlink:href="#ArialMT-111"/>
     <use x="1945.410156" xlink:href="#ArialMT-99"/>
     <use x="1995.410156" xlink:href="#ArialMT-105"/>
     <use x="2017.626953" xlink:href="#ArialMT-116"/>
     <use x="2045.410156" xlink:href="#ArialMT-121"/>
     <use x="2095.410156" xlink:href="#ArialMT-32"/>
     <use x="2123.193359" xlink:href="#ArialMT-111"/>
     <use x="2178.808594" xlink:href="#ArialMT-110"/>
     <use x="2234.423828" xlink:href="#ArialMT-32"/>
     <use x="2262.207031" xlink:href="#ArialMT-116"/>
     <use x="2289.990234" xlink:href="#ArialMT-104"/>
     <use x="2345.605469" xlink:href="#ArialMT-101"/>
     <use x="2401.220703" xlink:href="#ArialMT-32"/>
     <use x="2429.003906" xlink:href="#ArialMT-115"/>
     <use x="2479.003906" xlink:href="#ArialMT-99"/>
     <use x="2529.003906" xlink:href="#ArialMT-114"/>
     <use x="2562.304688" xlink:href="#ArialMT-101"/>
     <use x="2617.919922" xlink:href="#ArialMT-101"/>
     <use x="2673.535156" xlink:href="#ArialMT-110"/>
     <use x="2729.150391" xlink:href="#ArialMT-32"/>
     <use x="2756.933594" xlink:href="#ArialMT-45"/>
     <use x="2790.234375" xlink:href="#ArialMT-32"/>
     <use x="2818.017578" xlink:href="#ArialMT-78"/>
     <use x="2890.234375" xlink:href="#ArialMT-101"/>
     <use x="2945.849609" xlink:href="#ArialMT-119"/>
     <use x="3018.066406" xlink:href="#ArialMT-77"/>
     <use x="3101.367188" xlink:href="#ArialMT-49"/>
     <use x="3156.982422" xlink:href="#ArialMT-95"/>
     <use x="3212.597656" xlink:href="#ArialMT-49"/>
     <use x="3268.212891" xlink:href="#ArialMT-50"/>
     <use x="3323.828125" xlink:href="#ArialMT-95"/>
     <use x="3379.443359" xlink:href="#ArialMT-51"/>
     <use x="3435.058594" xlink:href="#ArialMT-49"/>
    </g>
   </g>
   <g id="legend_1">
    <g id="line2d_16">
     <path d="M 197.816406 60.2075 
L 217.816406 60.2075 
" style="fill:none;stroke:#ff0000;stroke-dasharray:7.4,3.2;stroke-dashoffset:0;stroke-width:2;"/>
    </g>
    <g id="line2d_17"/>
    <g id="text_16">
     <!-- Average angle in dark: 40.33 degrees -->
     <defs>
      <path d="M -0.140625 0 
L 27.34375 71.578125 
L 37.546875 71.578125 
L 66.84375 0 
L 56.0625 0 
L 47.703125 21.6875 
L 17.78125 21.6875 
L 9.90625 0 
z
M 20.515625 29.390625 
L 44.78125 29.390625 
L 37.3125 49.21875 
Q 33.890625 58.25 32.234375 64.0625 
Q 30.859375 57.171875 28.375 50.390625 
z
" id="ArialMT-65"/>
      <path d="M 40.4375 6.390625 
Q 35.546875 2.25 31.03125 0.53125 
Q 26.515625 -1.171875 21.34375 -1.171875 
Q 12.796875 -1.171875 8.203125 3 
Q 3.609375 7.171875 3.609375 13.671875 
Q 3.609375 17.484375 5.34375 20.625 
Q 7.078125 23.78125 9.890625 25.6875 
Q 12.703125 27.59375 16.21875 28.5625 
Q 18.796875 29.25 24.03125 29.890625 
Q 34.671875 31.15625 39.703125 32.90625 
Q 39.75 34.71875 39.75 35.203125 
Q 39.75 40.578125 37.25 42.78125 
Q 33.890625 45.75 27.25 45.75 
Q 21.046875 45.75 18.09375 43.578125 
Q 15.140625 41.40625 13.71875 35.890625 
L 5.125 37.0625 
Q 6.296875 42.578125 8.984375 45.96875 
Q 11.671875 49.359375 16.75 51.1875 
Q 21.828125 53.03125 28.515625 53.03125 
Q 35.15625 53.03125 39.296875 51.46875 
Q 43.453125 49.90625 45.40625 47.53125 
Q 47.359375 45.171875 48.140625 41.546875 
Q 48.578125 39.3125 48.578125 33.453125 
L 48.578125 21.734375 
Q 48.578125 9.46875 49.140625 6.21875 
Q 49.703125 2.984375 51.375 0 
L 42.1875 0 
Q 40.828125 2.734375 40.4375 6.390625 
z
M 39.703125 26.03125 
Q 34.90625 24.078125 25.34375 22.703125 
Q 19.921875 21.921875 17.671875 20.9375 
Q 15.4375 19.96875 14.203125 18.09375 
Q 12.984375 16.21875 12.984375 13.921875 
Q 12.984375 10.40625 15.640625 8.0625 
Q 18.3125 5.71875 23.4375 5.71875 
Q 28.515625 5.71875 32.46875 7.9375 
Q 36.421875 10.15625 38.28125 14.015625 
Q 39.703125 17 39.703125 22.796875 
z
" id="ArialMT-97"/>
      <path d="M 4.984375 -4.296875 
L 13.53125 -5.5625 
Q 14.0625 -9.515625 16.5 -11.328125 
Q 19.78125 -13.765625 25.4375 -13.765625 
Q 31.546875 -13.765625 34.859375 -11.328125 
Q 38.1875 -8.890625 39.359375 -4.5 
Q 40.046875 -1.8125 39.984375 6.78125 
Q 34.234375 0 25.640625 0 
Q 14.9375 0 9.078125 7.71875 
Q 3.21875 15.4375 3.21875 26.21875 
Q 3.21875 33.640625 5.90625 39.90625 
Q 8.59375 46.1875 13.6875 49.609375 
Q 18.796875 53.03125 25.6875 53.03125 
Q 34.859375 53.03125 40.828125 45.609375 
L 40.828125 51.859375 
L 48.921875 51.859375 
L 48.921875 7.03125 
Q 48.921875 -5.078125 46.453125 -10.125 
Q 44 -15.1875 38.640625 -18.109375 
Q 33.296875 -21.046875 25.484375 -21.046875 
Q 16.21875 -21.046875 10.5 -16.875 
Q 4.78125 -12.703125 4.984375 -4.296875 
z
M 12.25 26.859375 
Q 12.25 16.65625 16.296875 11.96875 
Q 20.359375 7.28125 26.46875 7.28125 
Q 32.515625 7.28125 36.609375 11.9375 
Q 40.71875 16.609375 40.71875 26.5625 
Q 40.71875 36.078125 36.5 40.90625 
Q 32.28125 45.75 26.3125 45.75 
Q 20.453125 45.75 16.34375 40.984375 
Q 12.25 36.234375 12.25 26.859375 
z
" id="ArialMT-103"/>
      <path d="M 6.640625 0 
L 6.640625 71.578125 
L 15.4375 71.578125 
L 15.4375 30.765625 
L 36.234375 51.859375 
L 47.609375 51.859375 
L 27.78125 32.625 
L 49.609375 0 
L 38.765625 0 
L 21.625 26.515625 
L 15.4375 20.5625 
L 15.4375 0 
z
" id="ArialMT-107"/>
      <path d="M 9.03125 41.84375 
L 9.03125 51.859375 
L 19.046875 51.859375 
L 19.046875 41.84375 
z
M 9.03125 0 
L 9.03125 10.015625 
L 19.046875 10.015625 
L 19.046875 0 
z
" id="ArialMT-58"/>
     </defs>
     <g style="fill:#262626;" transform="translate(225.816406 63.7075)scale(0.1 -0.1)">
      <use xlink:href="#ArialMT-65"/>
      <use x="66.683594" xlink:href="#ArialMT-118"/>
      <use x="116.683594" xlink:href="#ArialMT-101"/>
      <use x="172.298828" xlink:href="#ArialMT-114"/>
      <use x="205.599609" xlink:href="#ArialMT-97"/>
      <use x="261.214844" xlink:href="#ArialMT-103"/>
      <use x="316.830078" xlink:href="#ArialMT-101"/>
      <use x="372.445312" xlink:href="#ArialMT-32"/>
      <use x="400.228516" xlink:href="#ArialMT-97"/>
      <use x="455.84375" xlink:href="#ArialMT-110"/>
      <use x="511.458984" xlink:href="#ArialMT-103"/>
      <use x="567.074219" xlink:href="#ArialMT-108"/>
      <use x="589.291016" xlink:href="#ArialMT-101"/>
      <use x="644.90625" xlink:href="#ArialMT-32"/>
      <use x="672.689453" xlink:href="#ArialMT-105"/>
      <use x="694.90625" xlink:href="#ArialMT-110"/>
      <use x="750.521484" xlink:href="#ArialMT-32"/>
      <use x="778.304688" xlink:href="#ArialMT-100"/>
      <use x="833.919922" xlink:href="#ArialMT-97"/>
      <use x="889.535156" xlink:href="#ArialMT-114"/>
      <use x="922.835938" xlink:href="#ArialMT-107"/>
      <use x="972.835938" xlink:href="#ArialMT-58"/>
      <use x="1000.619141" xlink:href="#ArialMT-32"/>
      <use x="1028.402344" xlink:href="#ArialMT-52"/>
      <use x="1084.017578" xlink:href="#ArialMT-48"/>
      <use x="1139.632812" xlink:href="#ArialMT-46"/>
      <use x="1167.416016" xlink:href="#ArialMT-51"/>
      <use x="1223.03125" xlink:href="#ArialMT-51"/>
      <use x="1278.646484" xlink:href="#ArialMT-32"/>
      <use x="1306.429688" xlink:href="#ArialMT-100"/>
      <use x="1362.044922" xlink:href="#ArialMT-101"/>
      <use x="1417.660156" xlink:href="#ArialMT-103"/>
      <use x="1473.275391" xlink:href="#ArialMT-114"/>
      <use x="1506.576172" xlink:href="#ArialMT-101"/>
      <use x="1562.191406" xlink:href="#ArialMT-101"/>
      <use x="1617.806641" xlink:href="#ArialMT-115"/>
     </g>
    </g>
    <g id="PathCollection_4">
     <g>
      <use style="fill:#4c72b0;stroke:#4c72b0;stroke-width:0.3;" x="207.816406" xlink:href="#m7e60bbbf18" y="75.345"/>
     </g>
    </g>
    <g id="text_17">
     <!-- $-0.5 &lt; t &lt; 0.$ -->
     <defs>
      <path d="M 10.59375 35.5 
L 73.1875 35.5 
L 73.1875 27.203125 
L 10.59375 27.203125 
z
" id="DejaVuSans-8722"/>
      <path d="M 31.78125 66.40625 
Q 24.171875 66.40625 20.328125 58.90625 
Q 16.5 51.421875 16.5 36.375 
Q 16.5 21.390625 20.328125 13.890625 
Q 24.171875 6.390625 31.78125 6.390625 
Q 39.453125 6.390625 43.28125 13.890625 
Q 47.125 21.390625 47.125 36.375 
Q 47.125 51.421875 43.28125 58.90625 
Q 39.453125 66.40625 31.78125 66.40625 
z
M 31.78125 74.21875 
Q 44.046875 74.21875 50.515625 64.515625 
Q 56.984375 54.828125 56.984375 36.375 
Q 56.984375 17.96875 50.515625 8.265625 
Q 44.046875 -1.421875 31.78125 -1.421875 
Q 19.53125 -1.421875 13.0625 8.265625 
Q 6.59375 17.96875 6.59375 36.375 
Q 6.59375 54.828125 13.0625 64.515625 
Q 19.53125 74.21875 31.78125 74.21875 
z
" id="DejaVuSans-48"/>
      <path d="M 10.6875 12.40625 
L 21 12.40625 
L 21 0 
L 10.6875 0 
z
" id="DejaVuSans-46"/>
      <path d="M 10.796875 72.90625 
L 49.515625 72.90625 
L 49.515625 64.59375 
L 19.828125 64.59375 
L 19.828125 46.734375 
Q 21.96875 47.46875 24.109375 47.828125 
Q 26.265625 48.1875 28.421875 48.1875 
Q 40.625 48.1875 47.75 41.5 
Q 54.890625 34.8125 54.890625 23.390625 
Q 54.890625 11.625 47.5625 5.09375 
Q 40.234375 -1.421875 26.90625 -1.421875 
Q 22.3125 -1.421875 17.546875 -0.640625 
Q 12.796875 0.140625 7.71875 1.703125 
L 7.71875 11.625 
Q 12.109375 9.234375 16.796875 8.0625 
Q 21.484375 6.890625 26.703125 6.890625 
Q 35.15625 6.890625 40.078125 11.328125 
Q 45.015625 15.765625 45.015625 23.390625 
Q 45.015625 31 40.078125 35.4375 
Q 35.15625 39.890625 26.703125 39.890625 
Q 22.75 39.890625 18.8125 39.015625 
Q 14.890625 38.140625 10.796875 36.28125 
z
" id="DejaVuSans-53"/>
      <path d="M 73.1875 49.21875 
L 22.796875 31.296875 
L 73.1875 13.484375 
L 73.1875 4.59375 
L 10.59375 27.296875 
L 10.59375 35.40625 
L 73.1875 58.109375 
z
" id="DejaVuSans-60"/>
      <path d="M 42.28125 54.6875 
L 40.921875 47.703125 
L 23 47.703125 
L 17.1875 18.015625 
Q 16.890625 16.359375 16.75 15.234375 
Q 16.609375 14.109375 16.609375 13.484375 
Q 16.609375 10.359375 18.484375 8.9375 
Q 20.359375 7.515625 24.515625 7.515625 
L 33.59375 7.515625 
L 32.078125 0 
L 23.484375 0 
Q 15.484375 0 11.546875 3.125 
Q 7.625 6.25 7.625 12.59375 
Q 7.625 13.71875 7.765625 15.0625 
Q 7.90625 16.40625 8.203125 18.015625 
L 14.015625 47.703125 
L 6.390625 47.703125 
L 7.8125 54.6875 
L 15.28125 54.6875 
L 18.3125 70.21875 
L 27.296875 70.21875 
L 24.3125 54.6875 
z
" id="DejaVuSans-Oblique-116"/>
     </defs>
     <g style="fill:#262626;" transform="translate(225.816406 77.97)scale(0.1 -0.1)">
      <use transform="translate(0 0.78125)" xlink:href="#DejaVuSans-8722"/>
      <use transform="translate(83.789062 0.78125)" xlink:href="#DejaVuSans-48"/>
      <use transform="translate(147.412109 0.78125)" xlink:href="#DejaVuSans-46"/>
      <use transform="translate(179.199219 0.78125)" xlink:href="#DejaVuSans-53"/>
      <use transform="translate(262.304688 0.78125)" xlink:href="#DejaVuSans-60"/>
      <use transform="translate(365.576172 0.78125)" xlink:href="#DejaVuSans-Oblique-116"/>
      <use transform="translate(424.267578 0.78125)" xlink:href="#DejaVuSans-60"/>
      <use transform="translate(527.539062 0.78125)" xlink:href="#DejaVuSans-48"/>
     </g>
    </g>
    <g id="PathCollection_5">
     <g>
      <use style="fill:#55a868;stroke:#55a868;stroke-width:0.3;" x="207.816406" xlink:href="#me39a26ae6d" y="89.490312"/>
     </g>
    </g>
    <g id="text_18">
     <!-- $0. &lt; t &lt; 0.5$ -->
     <g style="fill:#262626;" transform="translate(225.816406 92.115312)scale(0.1 -0.1)">
      <use transform="translate(0 0.78125)" xlink:href="#DejaVuSans-48"/>
      <use transform="translate(63.623047 0.78125)" xlink:href="#DejaVuSans-46"/>
      <use transform="translate(134.375 0.78125)" xlink:href="#DejaVuSans-60"/>
      <use transform="translate(237.646484 0.78125)" xlink:href="#DejaVuSans-Oblique-116"/>
      <use transform="translate(296.337891 0.78125)" xlink:href="#DejaVuSans-60"/>
      <use transform="translate(399.609375 0.78125)" xlink:href="#DejaVuSans-48"/>
      <use transform="translate(463.232422 0.78125)" xlink:href="#DejaVuSans-46"/>
      <use transform="translate(495.019531 0.78125)" xlink:href="#DejaVuSans-53"/>
     </g>
    </g>
    <g id="PathCollection_6">
     <g>
      <use style="fill:#c44e52;stroke:#c44e52;stroke-width:0.3;" x="207.816406" xlink:href="#mc373f21492" y="103.635625"/>
     </g>
    </g>
    <g id="text_19">
     <!-- $0.5 &lt; t &lt; 1.$ -->
     <defs>
      <path d="M 12.40625 8.296875 
L 28.515625 8.296875 
L 28.515625 63.921875 
L 10.984375 60.40625 
L 10.984375 69.390625 
L 28.421875 72.90625 
L 38.28125 72.90625 
L 38.28125 8.296875 
L 54.390625 8.296875 
L 54.390625 0 
L 12.40625 0 
z
" id="DejaVuSans-49"/>
     </defs>
     <g style="fill:#262626;" transform="translate(225.816406 106.260625)scale(0.1 -0.1)">
      <use transform="translate(0 0.78125)" xlink:href="#DejaVuSans-48"/>
      <use transform="translate(63.623047 0.78125)" xlink:href="#DejaVuSans-46"/>
      <use transform="translate(95.410156 0.78125)" xlink:href="#DejaVuSans-53"/>
      <use transform="translate(178.515625 0.78125)" xlink:href="#DejaVuSans-60"/>
      <use transform="translate(281.787109 0.78125)" xlink:href="#DejaVuSans-Oblique-116"/>
      <use transform="translate(340.478516 0.78125)" xlink:href="#DejaVuSans-60"/>
      <use transform="translate(443.75 0.78125)" xlink:href="#DejaVuSans-49"/>
     </g>
    </g>
   </g>
  </g>
 </g>
 <defs>
  <clipPath id="p956044a355">
   <path d="M 447.66 199.98 
C 447.66 179.959136 443.716326 160.13295 436.054674 141.636084 
C 428.393021 123.139218 417.162388 106.331389 403.0055 92.1745 
C 388.848611 78.017612 372.040782 66.786979 353.543916 59.125326 
C 335.04705 51.463674 315.220864 47.52 295.2 47.52 
C 275.179136 47.52 255.35295 51.463674 236.856084 59.125326 
C 218.359218 66.786979 201.551389 78.017612 187.3945 92.1745 
C 173.237612 106.331389 162.006979 123.139218 154.345326 141.636084 
C 146.683674 160.13295 142.74 179.959136 142.74 199.98 
C 142.74 220.000864 146.683674 239.82705 154.345326 258.323916 
C 162.006979 276.820782 173.237612 293.628611 187.3945 307.7855 
C 201.551389 321.942388 218.359218 333.173021 236.856084 340.834674 
C 255.35295 348.496326 275.179136 352.44 295.2 352.44 
C 315.220864 352.44 335.04705 348.496326 353.543916 340.834674 
C 372.040782 333.173021 388.848611 321.942388 403.0055 307.7855 
C 417.162388 293.628611 428.393021 276.820782 436.054674 258.323916 
C 443.716326 239.82705 447.66 220.000864 447.66 199.98 
M 295.2 199.98 
C 295.2 199.98 295.2 199.98 295.2 199.98 
C 295.2 199.98 295.2 199.98 295.2 199.98 
C 295.2 199.98 295.2 199.98 295.2 199.98 
C 295.2 199.98 295.2 199.98 295.2 199.98 
C 295.2 199.98 295.2 199.98 295.2 199.98 
C 295.2 199.98 295.2 199.98 295.2 199.98 
C 295.2 199.98 295.2 199.98 295.2 199.98 
C 295.2 199.98 295.2 199.98 295.2 199.98 
C 295.2 199.98 295.2 199.98 295.2 199.98 
C 295.2 199.98 295.2 199.98 295.2 199.98 
C 295.2 199.98 295.2 199.98 295.2 199.98 
C 295.2 199.98 295.2 199.98 295.2 199.98 
C 295.2 199.98 295.2 199.98 295.2 199.98 
C 295.2 199.98 295.2 199.98 295.2 199.98 
C 295.2 199.98 295.2 199.98 295.2 199.98 
C 295.2 199.98 295.2 199.98 295.2 199.98 
M 447.66 199.98 
z
"/>
  </clipPath>
 </defs>
</svg>
