<?xml version="1.0" encoding="utf-8" standalone="no"?>
<!DOCTYPE svg PUBLIC "-//W3C//DTD SVG 1.1//EN"
  "http://www.w3.org/Graphics/SVG/1.1/DTD/svg11.dtd">
<!-- Created with matplotlib (https://matplotlib.org/) -->
<svg height="396pt" version="1.1" viewBox="0 0 576 396" width="576pt" xmlns="http://www.w3.org/2000/svg" xmlns:xlink="http://www.w3.org/1999/xlink">
 <defs>
  <style type="text/css">
*{stroke-linecap:butt;stroke-linejoin:round;}
  </style>
 </defs>
 <g id="figure_1">
  <g id="patch_1">
   <path d="M 0 396 
L 576 396 
L 576 0 
L 0 0 
z
" style="fill:#ffffff;"/>
  </g>
  <g id="axes_1">
   <g id="patch_2">
    <path d="M 447.66 199.98 
C 447.66 179.959136 443.716326 160.13295 436.054674 141.636084 
C 428.393021 123.139218 417.162388 106.331389 403.0055 92.1745 
C 388.848611 78.017612 372.040782 66.786979 353.543916 59.125326 
C 335.04705 51.463674 315.220864 47.52 295.2 47.52 
C 275.179136 47.52 255.35295 51.463674 236.856084 59.125326 
C 218.359218 66.786979 201.551389 78.017612 187.3945 92.1745 
C 173.237612 106.331389 162.006979 123.139218 154.345326 141.636084 
C 146.683674 160.13295 142.74 179.959136 142.74 199.98 
C 142.74 220.000864 146.683674 239.82705 154.345326 258.323916 
C 162.006979 276.820782 173.237612 293.628611 187.3945 307.7855 
C 201.551389 321.942388 218.359218 333.173021 236.856084 340.834674 
C 255.35295 348.496326 275.179136 352.44 295.2 352.44 
C 315.220864 352.44 335.04705 348.496326 353.543916 340.834674 
C 372.040782 333.173021 388.848611 321.942388 403.0055 307.7855 
C 417.162388 293.628611 428.393021 276.820782 436.054674 258.323916 
C 443.716326 239.82705 447.66 220.000864 447.66 199.98 
M 295.2 199.98 
C 295.2 199.98 295.2 199.98 295.2 199.98 
C 295.2 199.98 295.2 199.98 295.2 199.98 
C 295.2 199.98 295.2 199.98 295.2 199.98 
C 295.2 199.98 295.2 199.98 295.2 199.98 
C 295.2 199.98 295.2 199.98 295.2 199.98 
C 295.2 199.98 295.2 199.98 295.2 199.98 
C 295.2 199.98 295.2 199.98 295.2 199.98 
C 295.2 199.98 295.2 199.98 295.2 199.98 
C 295.2 199.98 295.2 199.98 295.2 199.98 
C 295.2 199.98 295.2 199.98 295.2 199.98 
C 295.2 199.98 295.2 199.98 295.2 199.98 
C 295.2 199.98 295.2 199.98 295.2 199.98 
C 295.2 199.98 295.2 199.98 295.2 199.98 
C 295.2 199.98 295.2 199.98 295.2 199.98 
C 295.2 199.98 295.2 199.98 295.2 199.98 
C 295.2 199.98 295.2 199.98 295.2 199.98 
M 447.66 199.98 
z
" style="fill:#eaeaf2;"/>
   </g>
   <g id="matplotlib.axis_1">
    <g id="xtick_1">
     <g id="line2d_1">
      <path clip-path="url(#pea3861be39)" d="M 295.2 199.98 
L 447.66 199.98 
" style="fill:none;stroke:#ffffff;stroke-linecap:round;"/>
     </g>
     <g id="text_1">
      <!-- 0° -->
      <defs>
       <path d="M 4.15625 35.296875 
Q 4.15625 48 6.765625 55.734375 
Q 9.375 63.484375 14.515625 67.671875 
Q 19.671875 71.875 27.484375 71.875 
Q 33.25 71.875 37.59375 69.546875 
Q 41.9375 67.234375 44.765625 62.859375 
Q 47.609375 58.5 49.21875 52.21875 
Q 50.828125 45.953125 50.828125 35.296875 
Q 50.828125 22.703125 48.234375 14.96875 
Q 45.65625 7.234375 40.5 3 
Q 35.359375 -1.21875 27.484375 -1.21875 
Q 17.140625 -1.21875 11.234375 6.203125 
Q 4.15625 15.140625 4.15625 35.296875 
z
M 13.1875 35.296875 
Q 13.1875 17.671875 17.3125 11.828125 
Q 21.4375 6 27.484375 6 
Q 33.546875 6 37.671875 11.859375 
Q 41.796875 17.71875 41.796875 35.296875 
Q 41.796875 52.984375 37.671875 58.78125 
Q 33.546875 64.59375 27.390625 64.59375 
Q 21.34375 64.59375 17.71875 59.46875 
Q 13.1875 52.9375 13.1875 35.296875 
z
" id="ArialMT-48"/>
       <path d="M 6.25 59.28125 
Q 6.25 64.890625 10.21875 68.84375 
Q 14.203125 72.796875 19.78125 72.796875 
Q 25.4375 72.796875 29.390625 68.84375 
Q 33.34375 64.890625 33.34375 59.28125 
Q 33.34375 53.65625 29.359375 49.671875 
Q 25.390625 45.703125 19.78125 45.703125 
Q 14.203125 45.703125 10.21875 49.65625 
Q 6.25 53.609375 6.25 59.28125 
z
M 11.578125 59.28125 
Q 11.578125 55.859375 13.984375 53.4375 
Q 16.40625 51.03125 19.828125 51.03125 
Q 23.1875 51.03125 25.609375 53.4375 
Q 28.03125 55.859375 28.03125 59.28125 
Q 28.03125 62.703125 25.609375 65.109375 
Q 23.1875 67.53125 19.828125 67.53125 
Q 16.40625 67.53125 13.984375 65.109375 
Q 11.578125 62.703125 11.578125 59.28125 
z
" id="ArialMT-176"/>
      </defs>
      <g style="fill:#262626;" transform="translate(456.880313 202.565156)scale(0.1 -0.1)">
       <use xlink:href="#ArialMT-48"/>
       <use x="55.615234" xlink:href="#ArialMT-176"/>
      </g>
     </g>
    </g>
    <g id="xtick_2">
     <g id="line2d_2">
      <path clip-path="url(#pea3861be39)" d="M 295.2 199.98 
L 403.0055 92.1745 
" style="fill:none;stroke:#ffffff;stroke-linecap:round;"/>
     </g>
     <g id="text_2">
      <!-- 45° -->
      <defs>
       <path d="M 32.328125 0 
L 32.328125 17.140625 
L 1.265625 17.140625 
L 1.265625 25.203125 
L 33.9375 71.578125 
L 41.109375 71.578125 
L 41.109375 25.203125 
L 50.78125 25.203125 
L 50.78125 17.140625 
L 41.109375 17.140625 
L 41.109375 0 
z
M 32.328125 25.203125 
L 32.328125 57.46875 
L 9.90625 25.203125 
z
" id="ArialMT-52"/>
       <path d="M 4.15625 18.75 
L 13.375 19.53125 
Q 14.40625 12.796875 18.140625 9.390625 
Q 21.875 6 27.15625 6 
Q 33.5 6 37.890625 10.78125 
Q 42.28125 15.578125 42.28125 23.484375 
Q 42.28125 31 38.0625 35.34375 
Q 33.84375 39.703125 27 39.703125 
Q 22.75 39.703125 19.328125 37.765625 
Q 15.921875 35.84375 13.96875 32.765625 
L 5.71875 33.84375 
L 12.640625 70.609375 
L 48.25 70.609375 
L 48.25 62.203125 
L 19.671875 62.203125 
L 15.828125 42.96875 
Q 22.265625 47.46875 29.34375 47.46875 
Q 38.71875 47.46875 45.15625 40.96875 
Q 51.609375 34.46875 51.609375 24.265625 
Q 51.609375 14.546875 45.953125 7.46875 
Q 39.0625 -1.21875 27.15625 -1.21875 
Q 17.390625 -1.21875 11.203125 4.25 
Q 5.03125 9.71875 4.15625 18.75 
z
" id="ArialMT-53"/>
      </defs>
      <g style="fill:#262626;" transform="translate(405.344839 84.860161)scale(0.1 -0.1)">
       <use xlink:href="#ArialMT-52"/>
       <use x="55.615234" xlink:href="#ArialMT-53"/>
       <use x="111.230469" xlink:href="#ArialMT-176"/>
      </g>
     </g>
    </g>
    <g id="xtick_3">
     <g id="line2d_3">
      <path clip-path="url(#pea3861be39)" d="M 295.2 199.98 
L 295.2 47.52 
" style="fill:none;stroke:#ffffff;stroke-linecap:round;"/>
     </g>
     <g id="text_3">
      <!-- 90° -->
      <defs>
       <path d="M 5.46875 16.546875 
L 13.921875 17.328125 
Q 14.984375 11.375 18.015625 8.6875 
Q 21.046875 6 25.78125 6 
Q 29.828125 6 32.875 7.859375 
Q 35.9375 9.71875 37.890625 12.8125 
Q 39.84375 15.921875 41.15625 21.1875 
Q 42.484375 26.46875 42.484375 31.9375 
Q 42.484375 32.515625 42.4375 33.6875 
Q 39.796875 29.5 35.234375 26.875 
Q 30.671875 24.265625 25.34375 24.265625 
Q 16.453125 24.265625 10.296875 30.703125 
Q 4.15625 37.15625 4.15625 47.703125 
Q 4.15625 58.59375 10.578125 65.234375 
Q 17 71.875 26.65625 71.875 
Q 33.640625 71.875 39.421875 68.109375 
Q 45.21875 64.359375 48.21875 57.390625 
Q 51.21875 50.4375 51.21875 37.25 
Q 51.21875 23.53125 48.234375 15.40625 
Q 45.265625 7.28125 39.375 3.03125 
Q 33.5 -1.21875 25.59375 -1.21875 
Q 17.1875 -1.21875 11.859375 3.4375 
Q 6.546875 8.109375 5.46875 16.546875 
z
M 41.453125 48.140625 
Q 41.453125 55.71875 37.421875 60.15625 
Q 33.40625 64.59375 27.734375 64.59375 
Q 21.875 64.59375 17.53125 59.8125 
Q 13.1875 55.03125 13.1875 47.40625 
Q 13.1875 40.578125 17.3125 36.296875 
Q 21.4375 32.03125 27.484375 32.03125 
Q 33.59375 32.03125 37.515625 36.296875 
Q 41.453125 40.578125 41.453125 48.140625 
z
" id="ArialMT-57"/>
      </defs>
      <g style="fill:#262626;" transform="translate(287.639844 36.105156)scale(0.1 -0.1)">
       <use xlink:href="#ArialMT-57"/>
       <use x="55.615234" xlink:href="#ArialMT-48"/>
       <use x="111.230469" xlink:href="#ArialMT-176"/>
      </g>
     </g>
    </g>
    <g id="xtick_4">
     <g id="line2d_4">
      <path clip-path="url(#pea3861be39)" d="M 295.2 199.98 
L 187.3945 92.1745 
" style="fill:none;stroke:#ffffff;stroke-linecap:round;"/>
     </g>
     <g id="text_4">
      <!-- 135° -->
      <defs>
       <path d="M 37.25 0 
L 28.46875 0 
L 28.46875 56 
Q 25.296875 52.984375 20.140625 49.953125 
Q 14.984375 46.921875 10.890625 45.40625 
L 10.890625 53.90625 
Q 18.265625 57.375 23.78125 62.296875 
Q 29.296875 67.234375 31.59375 71.875 
L 37.25 71.875 
z
" id="ArialMT-49"/>
       <path d="M 4.203125 18.890625 
L 12.984375 20.0625 
Q 14.5 12.59375 18.140625 9.296875 
Q 21.78125 6 27 6 
Q 33.203125 6 37.46875 10.296875 
Q 41.75 14.59375 41.75 20.953125 
Q 41.75 27 37.796875 30.921875 
Q 33.84375 34.859375 27.734375 34.859375 
Q 25.25 34.859375 21.53125 33.890625 
L 22.515625 41.609375 
Q 23.390625 41.5 23.921875 41.5 
Q 29.546875 41.5 34.03125 44.421875 
Q 38.53125 47.359375 38.53125 53.46875 
Q 38.53125 58.296875 35.25 61.46875 
Q 31.984375 64.65625 26.8125 64.65625 
Q 21.6875 64.65625 18.265625 61.421875 
Q 14.84375 58.203125 13.875 51.765625 
L 5.078125 53.328125 
Q 6.6875 62.15625 12.390625 67.015625 
Q 18.109375 71.875 26.609375 71.875 
Q 32.46875 71.875 37.390625 69.359375 
Q 42.328125 66.84375 44.9375 62.5 
Q 47.5625 58.15625 47.5625 53.265625 
Q 47.5625 48.640625 45.0625 44.828125 
Q 42.578125 41.015625 37.703125 38.765625 
Q 44.046875 37.3125 47.5625 32.6875 
Q 51.078125 28.078125 51.078125 21.140625 
Q 51.078125 11.765625 44.234375 5.25 
Q 37.40625 -1.265625 26.953125 -1.265625 
Q 17.53125 -1.265625 11.296875 4.34375 
Q 5.078125 9.96875 4.203125 18.890625 
z
" id="ArialMT-51"/>
      </defs>
      <g style="fill:#262626;" transform="translate(167.15438 84.860161)scale(0.1 -0.1)">
       <use xlink:href="#ArialMT-49"/>
       <use x="55.615234" xlink:href="#ArialMT-51"/>
       <use x="111.230469" xlink:href="#ArialMT-53"/>
       <use x="166.845703" xlink:href="#ArialMT-176"/>
      </g>
     </g>
    </g>
    <g id="xtick_5">
     <g id="line2d_5">
      <path clip-path="url(#pea3861be39)" d="M 295.2 199.98 
L 142.74 199.98 
" style="fill:none;stroke:#ffffff;stroke-linecap:round;"/>
     </g>
     <g id="text_5">
      <!-- 180° -->
      <defs>
       <path d="M 17.671875 38.8125 
Q 12.203125 40.828125 9.5625 44.53125 
Q 6.9375 48.25 6.9375 53.421875 
Q 6.9375 61.234375 12.546875 66.546875 
Q 18.171875 71.875 27.484375 71.875 
Q 36.859375 71.875 42.578125 66.421875 
Q 48.296875 60.984375 48.296875 53.171875 
Q 48.296875 48.1875 45.671875 44.5 
Q 43.0625 40.828125 37.75 38.8125 
Q 44.34375 36.671875 47.78125 31.875 
Q 51.21875 27.09375 51.21875 20.453125 
Q 51.21875 11.28125 44.71875 5.03125 
Q 38.234375 -1.21875 27.640625 -1.21875 
Q 17.046875 -1.21875 10.546875 5.046875 
Q 4.046875 11.328125 4.046875 20.703125 
Q 4.046875 27.6875 7.59375 32.390625 
Q 11.140625 37.109375 17.671875 38.8125 
z
M 15.921875 53.71875 
Q 15.921875 48.640625 19.1875 45.40625 
Q 22.46875 42.1875 27.6875 42.1875 
Q 32.765625 42.1875 36.015625 45.375 
Q 39.265625 48.578125 39.265625 53.21875 
Q 39.265625 58.0625 35.90625 61.359375 
Q 32.5625 64.65625 27.59375 64.65625 
Q 22.5625 64.65625 19.234375 61.421875 
Q 15.921875 58.203125 15.921875 53.71875 
z
M 13.09375 20.65625 
Q 13.09375 16.890625 14.875 13.375 
Q 16.65625 9.859375 20.171875 7.921875 
Q 23.6875 6 27.734375 6 
Q 34.03125 6 38.125 10.046875 
Q 42.234375 14.109375 42.234375 20.359375 
Q 42.234375 26.703125 38.015625 30.859375 
Q 33.796875 35.015625 27.4375 35.015625 
Q 21.234375 35.015625 17.15625 30.90625 
Q 13.09375 26.8125 13.09375 20.65625 
z
" id="ArialMT-56"/>
      </defs>
      <g style="fill:#262626;" transform="translate(118.399375 202.565156)scale(0.1 -0.1)">
       <use xlink:href="#ArialMT-49"/>
       <use x="55.615234" xlink:href="#ArialMT-56"/>
       <use x="111.230469" xlink:href="#ArialMT-48"/>
       <use x="166.845703" xlink:href="#ArialMT-176"/>
      </g>
     </g>
    </g>
    <g id="xtick_6">
     <g id="line2d_6">
      <path clip-path="url(#pea3861be39)" d="M 295.2 199.98 
L 187.3945 307.7855 
" style="fill:none;stroke:#ffffff;stroke-linecap:round;"/>
     </g>
     <g id="text_6">
      <!-- 225° -->
      <defs>
       <path d="M 50.34375 8.453125 
L 50.34375 0 
L 3.03125 0 
Q 2.9375 3.171875 4.046875 6.109375 
Q 5.859375 10.9375 9.828125 15.625 
Q 13.8125 20.3125 21.34375 26.46875 
Q 33.015625 36.03125 37.109375 41.625 
Q 41.21875 47.21875 41.21875 52.203125 
Q 41.21875 57.421875 37.46875 61 
Q 33.734375 64.59375 27.734375 64.59375 
Q 21.390625 64.59375 17.578125 60.78125 
Q 13.765625 56.984375 13.71875 50.25 
L 4.6875 51.171875 
Q 5.609375 61.28125 11.65625 66.578125 
Q 17.71875 71.875 27.9375 71.875 
Q 38.234375 71.875 44.234375 66.15625 
Q 50.25 60.453125 50.25 52 
Q 50.25 47.703125 48.484375 43.546875 
Q 46.734375 39.40625 42.65625 34.8125 
Q 38.578125 30.21875 29.109375 22.21875 
Q 21.1875 15.578125 18.9375 13.203125 
Q 16.703125 10.84375 15.234375 8.453125 
z
" id="ArialMT-50"/>
      </defs>
      <g style="fill:#262626;" transform="translate(167.15438 320.270151)scale(0.1 -0.1)">
       <use xlink:href="#ArialMT-50"/>
       <use x="55.615234" xlink:href="#ArialMT-50"/>
       <use x="111.230469" xlink:href="#ArialMT-53"/>
       <use x="166.845703" xlink:href="#ArialMT-176"/>
      </g>
     </g>
    </g>
    <g id="xtick_7">
     <g id="line2d_7">
      <path clip-path="url(#pea3861be39)" d="M 295.2 199.98 
L 295.2 352.44 
" style="fill:none;stroke:#ffffff;stroke-linecap:round;"/>
     </g>
     <g id="text_7">
      <!-- 270° -->
      <defs>
       <path d="M 4.734375 62.203125 
L 4.734375 70.65625 
L 51.078125 70.65625 
L 51.078125 63.8125 
Q 44.234375 56.546875 37.515625 44.484375 
Q 30.8125 32.421875 27.15625 19.671875 
Q 24.515625 10.6875 23.78125 0 
L 14.75 0 
Q 14.890625 8.453125 18.0625 20.40625 
Q 21.234375 32.375 27.171875 43.484375 
Q 33.109375 54.59375 39.796875 62.203125 
z
" id="ArialMT-55"/>
      </defs>
      <g style="fill:#262626;" transform="translate(284.859375 369.025156)scale(0.1 -0.1)">
       <use xlink:href="#ArialMT-50"/>
       <use x="55.615234" xlink:href="#ArialMT-55"/>
       <use x="111.230469" xlink:href="#ArialMT-48"/>
       <use x="166.845703" xlink:href="#ArialMT-176"/>
      </g>
     </g>
    </g>
    <g id="xtick_8">
     <g id="line2d_8">
      <path clip-path="url(#pea3861be39)" d="M 295.2 199.98 
L 403.0055 307.7855 
" style="fill:none;stroke:#ffffff;stroke-linecap:round;"/>
     </g>
     <g id="text_8">
      <!-- 315° -->
      <g style="fill:#262626;" transform="translate(402.56437 320.270151)scale(0.1 -0.1)">
       <use xlink:href="#ArialMT-51"/>
       <use x="55.615234" xlink:href="#ArialMT-49"/>
       <use x="111.230469" xlink:href="#ArialMT-53"/>
       <use x="166.845703" xlink:href="#ArialMT-176"/>
      </g>
     </g>
    </g>
   </g>
   <g id="matplotlib.axis_2">
    <g id="ytick_1">
     <g id="line2d_9">
      <path clip-path="url(#pea3861be39)" d="M 312.78735 199.98 
L 312.691005 198.141621 
L 312.403024 196.323384 
L 311.926564 194.54521 
L 311.266844 192.82658 
L 310.431092 191.186325 
L 309.428465 189.642415 
L 308.269948 188.211766 
L 306.968234 186.910052 
L 305.537585 185.751535 
L 303.993675 184.748908 
L 302.35342 183.913156 
L 300.63479 183.253436 
L 298.856616 182.776976 
L 297.038379 182.488995 
L 295.2 182.39265 
L 293.361621 182.488995 
L 291.543384 182.776976 
L 289.76521 183.253436 
L 288.04658 183.913156 
L 286.406325 184.748908 
L 284.862415 185.751535 
L 283.431766 186.910052 
L 282.130052 188.211766 
L 280.971535 189.642415 
L 279.968908 191.186325 
L 279.133156 192.82658 
L 278.473436 194.54521 
L 277.996976 196.323384 
L 277.708995 198.141621 
L 277.61265 199.98 
L 277.708995 201.818379 
L 277.996976 203.636616 
L 278.473436 205.41479 
L 279.133156 207.13342 
L 279.968908 208.773675 
L 280.971535 210.317585 
L 282.130052 211.748234 
L 283.431766 213.049948 
L 284.862415 214.208465 
L 286.406325 215.211092 
L 288.04658 216.046844 
L 289.76521 216.706564 
L 291.543384 217.183024 
L 293.361621 217.471005 
L 295.2 217.56735 
L 297.038379 217.471005 
L 298.856616 217.183024 
L 300.63479 216.706564 
L 302.35342 216.046844 
L 303.993675 215.211092 
L 305.537585 214.208465 
L 306.968234 213.049948 
L 308.269948 211.748234 
L 309.428465 210.317585 
L 310.431092 208.773675 
L 311.266844 207.13342 
L 311.926564 205.41479 
L 312.403024 203.636616 
L 312.691005 201.818379 
L 312.78735 199.98 
L 312.78735 199.98 
" style="fill:none;stroke:#ffffff;stroke-linecap:round;"/>
     </g>
     <g id="text_9">
      <!-- 0.05 -->
      <defs>
       <path d="M 9.078125 0 
L 9.078125 10.015625 
L 19.09375 10.015625 
L 19.09375 0 
z
" id="ArialMT-46"/>
      </defs>
      <g style="fill:#262626;" transform="translate(311.448593 191.262113)scale(0.1 -0.1)">
       <use xlink:href="#ArialMT-48"/>
       <use x="55.615234" xlink:href="#ArialMT-46"/>
       <use x="83.398438" xlink:href="#ArialMT-48"/>
       <use x="139.013672" xlink:href="#ArialMT-53"/>
      </g>
     </g>
    </g>
    <g id="ytick_2">
     <g id="line2d_10">
      <path clip-path="url(#pea3861be39)" d="M 330.3747 199.98 
L 330.289016 197.526337 
L 330.032382 195.084628 
L 329.606048 192.666769 
L 329.012091 190.284539 
L 328.253406 187.949544 
L 327.333687 185.673161 
L 326.257416 183.466479 
L 325.029837 181.340249 
L 323.65693 179.30483 
L 322.145383 177.370139 
L 320.502561 175.5456 
L 318.736468 173.840104 
L 316.855708 172.261958 
L 314.869442 170.818852 
L 312.78735 169.517816 
L 310.619573 168.365189 
L 308.376674 167.366586 
L 306.06958 166.526873 
L 303.70953 165.850139 
L 301.308023 165.339683 
L 298.876757 164.997991 
L 296.427579 164.826728 
L 293.972421 164.826728 
L 291.523243 164.997991 
L 289.091977 165.339683 
L 286.69047 165.850139 
L 284.33042 166.526873 
L 282.023326 167.366586 
L 279.780427 168.365189 
L 277.61265 169.517816 
L 275.530558 170.818852 
L 273.544292 172.261958 
L 271.663532 173.840104 
L 269.897439 175.5456 
L 268.254617 177.370139 
L 266.74307 179.30483 
L 265.370163 181.340249 
L 264.142584 183.466479 
L 263.066313 185.673161 
L 262.146594 187.949544 
L 261.387909 190.284539 
L 260.793952 192.666769 
L 260.367618 195.084628 
L 260.110984 197.526337 
L 260.0253 199.98 
L 260.110984 202.433663 
L 260.367618 204.875372 
L 260.793952 207.293231 
L 261.387909 209.675461 
L 262.146594 212.010456 
L 263.066313 214.286839 
L 264.142584 216.493521 
L 265.370163 218.619751 
L 266.74307 220.65517 
L 268.254617 222.589861 
L 269.897439 224.4144 
L 271.663532 226.119896 
L 273.544292 227.698042 
L 275.530558 229.141148 
L 277.61265 230.442184 
L 279.780427 231.594811 
L 282.023326 232.593414 
L 284.33042 233.433127 
L 286.69047 234.109861 
L 289.091977 234.620317 
L 291.523243 234.962009 
L 293.972421 235.133272 
L 296.427579 235.133272 
L 298.876757 234.962009 
L 301.308023 234.620317 
L 303.70953 234.109861 
L 306.06958 233.433127 
L 308.376674 232.593414 
L 310.619573 231.594811 
L 312.78735 230.442184 
L 314.869442 229.141148 
L 316.855708 227.698042 
L 318.736468 226.119896 
L 320.502561 224.4144 
L 322.145383 222.589861 
L 323.65693 220.65517 
L 325.029837 218.619751 
L 326.257416 216.493521 
L 327.333687 214.286839 
L 328.253406 212.010456 
L 329.012091 209.675461 
L 329.606048 207.293231 
L 330.032382 204.875372 
L 330.289016 202.433663 
L 330.3747 199.98 
L 330.3747 199.98 
" style="fill:none;stroke:#ffffff;stroke-linecap:round;"/>
     </g>
     <g id="text_10">
      <!-- 0.10 -->
      <g style="fill:#262626;" transform="translate(327.697185 184.531725)scale(0.1 -0.1)">
       <use xlink:href="#ArialMT-48"/>
       <use x="55.615234" xlink:href="#ArialMT-46"/>
       <use x="83.398438" xlink:href="#ArialMT-49"/>
       <use x="139.013672" xlink:href="#ArialMT-48"/>
      </g>
     </g>
    </g>
    <g id="ytick_3">
     <g id="line2d_11">
      <path clip-path="url(#pea3861be39)" d="M 347.96205 199.98 
L 347.833524 196.299505 
L 347.448573 192.636942 
L 346.809072 189.010153 
L 345.918137 185.436808 
L 344.780109 181.934316 
L 343.400531 178.519741 
L 341.786125 175.209718 
L 339.944756 172.020374 
L 337.885395 168.967245 
L 335.618075 166.065208 
L 333.153842 163.328401 
L 330.504702 160.770156 
L 327.683561 158.402938 
L 324.704164 156.238279 
L 321.581025 154.286725 
L 318.32936 152.557784 
L 314.965012 151.05988 
L 311.50437 149.800309 
L 307.964295 148.785209 
L 304.362034 148.019525 
L 300.715136 147.506986 
L 297.041369 147.250092 
L 293.358631 147.250092 
L 289.684864 147.506986 
L 286.037966 148.019525 
L 282.435705 148.785209 
L 278.89563 149.800309 
L 275.434988 151.05988 
L 272.07064 152.557784 
L 268.818975 154.286725 
L 265.695836 156.238279 
L 262.716439 158.402938 
L 259.895298 160.770156 
L 257.246158 163.328401 
L 254.781925 166.065208 
L 252.514605 168.967245 
L 250.455244 172.020374 
L 248.613875 175.209718 
L 246.999469 178.519741 
L 245.619891 181.934316 
L 244.481863 185.436808 
L 243.590928 189.010153 
L 242.951427 192.636942 
L 242.566476 196.299505 
L 242.43795 199.98 
L 242.566476 203.660495 
L 242.951427 207.323058 
L 243.590928 210.949847 
L 244.481863 214.523192 
L 245.619891 218.025684 
L 246.999469 221.440259 
L 248.613875 224.750282 
L 250.455244 227.939626 
L 252.514605 230.992755 
L 254.781925 233.894792 
L 257.246158 236.631599 
L 259.895298 239.189844 
L 262.716439 241.557062 
L 265.695836 243.721721 
L 268.818975 245.673275 
L 272.07064 247.402216 
L 275.434988 248.90012 
L 278.89563 250.159691 
L 282.435705 251.174791 
L 286.037966 251.940475 
L 289.684864 252.453014 
L 293.358631 252.709908 
L 297.041369 252.709908 
L 300.715136 252.453014 
L 304.362034 251.940475 
L 307.964295 251.174791 
L 311.50437 250.159691 
L 314.965012 248.90012 
L 318.32936 247.402216 
L 321.581025 245.673275 
L 324.704164 243.721721 
L 327.683561 241.557062 
L 330.504702 239.189844 
L 333.153842 236.631599 
L 335.618075 233.894792 
L 337.885395 230.992755 
L 339.944756 227.939626 
L 341.786125 224.750282 
L 343.400531 221.440259 
L 344.780109 218.025684 
L 345.918137 214.523192 
L 346.809072 210.949847 
L 347.448573 207.323058 
L 347.833524 203.660495 
L 347.96205 199.98 
L 347.96205 199.98 
" style="fill:none;stroke:#ffffff;stroke-linecap:round;"/>
     </g>
     <g id="text_11">
      <!-- 0.15 -->
      <g style="fill:#262626;" transform="translate(343.945778 177.801338)scale(0.1 -0.1)">
       <use xlink:href="#ArialMT-48"/>
       <use x="55.615234" xlink:href="#ArialMT-46"/>
       <use x="83.398438" xlink:href="#ArialMT-49"/>
       <use x="139.013672" xlink:href="#ArialMT-53"/>
      </g>
     </g>
    </g>
    <g id="ytick_4">
     <g id="line2d_12">
      <path clip-path="url(#pea3861be39)" d="M 365.549399 199.98 
L 365.378032 195.072674 
L 364.864764 190.189256 
L 364.012096 185.353537 
L 362.824183 180.589078 
L 361.306811 175.919088 
L 359.467374 171.366321 
L 357.314833 166.952958 
L 354.859674 162.700498 
L 352.11386 158.629661 
L 349.090766 154.760278 
L 345.805123 151.111201 
L 342.272936 147.700208 
L 338.511415 144.543917 
L 334.538885 141.657705 
L 330.3747 139.055633 
L 326.039147 136.750379 
L 321.553349 134.753173 
L 316.93916 133.073745 
L 312.21906 131.720278 
L 307.416045 130.699366 
L 302.553515 130.015982 
L 297.655159 129.673456 
L 292.744841 129.673456 
L 287.846485 130.015982 
L 282.983955 130.699366 
L 278.18094 131.720278 
L 273.46084 133.073745 
L 268.846651 134.753173 
L 264.360853 136.750379 
L 260.0253 139.055633 
L 255.861115 141.657705 
L 251.888585 144.543917 
L 248.127064 147.700208 
L 244.594877 151.111201 
L 241.309234 154.760278 
L 238.28614 158.629661 
L 235.540326 162.700498 
L 233.085167 166.952958 
L 230.932626 171.366321 
L 229.093189 175.919088 
L 227.575817 180.589078 
L 226.387904 185.353537 
L 225.535236 190.189256 
L 225.021968 195.072674 
L 224.850601 199.98 
L 225.021968 204.887326 
L 225.535236 209.770744 
L 226.387904 214.606463 
L 227.575817 219.370922 
L 229.093189 224.040912 
L 230.932626 228.593679 
L 233.085167 233.007042 
L 235.540326 237.259502 
L 238.28614 241.330339 
L 241.309234 245.199722 
L 244.594877 248.848799 
L 248.127064 252.259792 
L 251.888585 255.416083 
L 255.861115 258.302295 
L 260.0253 260.904367 
L 264.360853 263.209621 
L 268.846651 265.206827 
L 273.46084 266.886255 
L 278.18094 268.239722 
L 282.983955 269.260634 
L 287.846485 269.944018 
L 292.744841 270.286544 
L 297.655159 270.286544 
L 302.553515 269.944018 
L 307.416045 269.260634 
L 312.21906 268.239722 
L 316.93916 266.886255 
L 321.553349 265.206827 
L 326.039147 263.209621 
L 330.3747 260.904367 
L 334.538885 258.302295 
L 338.511415 255.416083 
L 342.272936 252.259792 
L 345.805123 248.848799 
L 349.090766 245.199722 
L 352.11386 241.330339 
L 354.859674 237.259502 
L 357.314833 233.007042 
L 359.467374 228.593679 
L 361.306811 224.040912 
L 362.824183 219.370922 
L 364.012096 214.606463 
L 364.864764 209.770744 
L 365.378032 204.887326 
L 365.549399 199.98 
L 365.549399 199.98 
" style="fill:none;stroke:#ffffff;stroke-linecap:round;"/>
     </g>
     <g id="text_12">
      <!-- 0.20 -->
      <g style="fill:#262626;" transform="translate(360.19437 171.07095)scale(0.1 -0.1)">
       <use xlink:href="#ArialMT-48"/>
       <use x="55.615234" xlink:href="#ArialMT-46"/>
       <use x="83.398438" xlink:href="#ArialMT-50"/>
       <use x="139.013672" xlink:href="#ArialMT-48"/>
      </g>
     </g>
    </g>
    <g id="ytick_5">
     <g id="line2d_13">
      <path clip-path="url(#pea3861be39)" d="M 383.136749 199.98 
L 382.92254 193.845842 
L 382.280955 187.74157 
L 381.21512 181.696922 
L 379.730229 175.741347 
L 377.833514 169.90386 
L 375.534218 164.212902 
L 372.843541 158.696197 
L 369.774593 153.380623 
L 366.342325 148.292076 
L 362.563458 143.455347 
L 358.456404 138.894001 
L 354.04117 134.63026 
L 349.339269 130.684896 
L 344.373606 127.077131 
L 339.168375 123.824541 
L 333.748934 120.942973 
L 328.141686 118.446466 
L 322.37395 116.347182 
L 316.473825 114.655348 
L 310.470056 113.379208 
L 304.391893 112.524977 
L 298.268948 112.096819 
L 292.131052 112.096819 
L 286.008107 112.524977 
L 279.929944 113.379208 
L 273.926175 114.655348 
L 268.02605 116.347182 
L 262.258314 118.446466 
L 256.651066 120.942973 
L 251.231625 123.824541 
L 246.026394 127.077131 
L 241.060731 130.684896 
L 236.35883 134.63026 
L 231.943596 138.894001 
L 227.836542 143.455347 
L 224.057675 148.292076 
L 220.625407 153.380623 
L 217.556459 158.696197 
L 214.865782 164.212902 
L 212.566486 169.90386 
L 210.669771 175.741347 
L 209.18488 181.696922 
L 208.119045 187.74157 
L 207.47746 193.845842 
L 207.263251 199.98 
L 207.47746 206.114158 
L 208.119045 212.21843 
L 209.18488 218.263078 
L 210.669771 224.218653 
L 212.566486 230.05614 
L 214.865782 235.747098 
L 217.556459 241.263803 
L 220.625407 246.579377 
L 224.057675 251.667924 
L 227.836542 256.504653 
L 231.943596 261.065999 
L 236.35883 265.32974 
L 241.060731 269.275104 
L 246.026394 272.882869 
L 251.231625 276.135459 
L 256.651066 279.017027 
L 262.258314 281.513534 
L 268.02605 283.612818 
L 273.926175 285.304652 
L 279.929944 286.580792 
L 286.008107 287.435023 
L 292.131052 287.863181 
L 298.268948 287.863181 
L 304.391893 287.435023 
L 310.470056 286.580792 
L 316.473825 285.304652 
L 322.37395 283.612818 
L 328.141686 281.513534 
L 333.748934 279.017027 
L 339.168375 276.135459 
L 344.373606 272.882869 
L 349.339269 269.275104 
L 354.04117 265.32974 
L 358.456404 261.065999 
L 362.563458 256.504653 
L 366.342325 251.667924 
L 369.774593 246.579377 
L 372.843541 241.263803 
L 375.534218 235.747098 
L 377.833514 230.05614 
L 379.730229 224.218653 
L 381.21512 218.263078 
L 382.280955 212.21843 
L 382.92254 206.114158 
L 383.136749 199.98 
L 383.136749 199.98 
" style="fill:none;stroke:#ffffff;stroke-linecap:round;"/>
     </g>
     <g id="text_13">
      <!-- 0.25 -->
      <g style="fill:#262626;" transform="translate(376.442963 164.340563)scale(0.1 -0.1)">
       <use xlink:href="#ArialMT-48"/>
       <use x="55.615234" xlink:href="#ArialMT-46"/>
       <use x="83.398438" xlink:href="#ArialMT-50"/>
       <use x="139.013672" xlink:href="#ArialMT-53"/>
      </g>
     </g>
    </g>
    <g id="ytick_6">
     <g id="line2d_14">
      <path clip-path="url(#pea3861be39)" d="M 400.724099 199.98 
L 400.659817 196.297262 
L 400.467048 192.619011 
L 400.146027 188.949728 
L 399.697146 185.293884 
L 399.120951 181.655932 
L 398.418144 178.040306 
L 397.589582 174.45141 
L 396.636274 170.893616 
L 395.559382 167.37126 
L 394.360217 163.888633 
L 393.040241 160.449977 
L 391.601061 157.059482 
L 390.044432 153.72128 
L 388.372249 150.439436 
L 386.586551 147.21795 
L 384.689511 144.060747 
L 382.683443 140.971673 
L 380.570789 137.954491 
L 378.354125 135.012877 
L 376.03615 132.150417 
L 373.619688 129.370596 
L 371.107684 126.676801 
L 368.503199 124.072316 
L 365.809404 121.560312 
L 363.029583 119.14385 
L 360.167123 116.825875 
L 357.225509 114.609211 
L 354.208327 112.496557 
L 351.119253 110.490489 
L 347.96205 108.593449 
L 344.740564 106.807751 
L 341.45872 105.135568 
L 338.120518 103.578939 
L 334.730023 102.139759 
L 331.291367 100.819783 
L 327.80874 99.620618 
L 324.286384 98.543726 
L 320.72859 97.590418 
L 317.139694 96.761856 
L 313.524068 96.059049 
L 309.886116 95.482854 
L 306.230272 95.033973 
L 302.560989 94.712952 
L 298.882738 94.520183 
L 295.2 94.455901 
L 291.517262 94.520183 
L 287.839011 94.712952 
L 284.169728 95.033973 
L 280.513884 95.482854 
L 276.875932 96.059049 
L 273.260306 96.761856 
L 269.67141 97.590418 
L 266.113616 98.543726 
L 262.59126 99.620618 
L 259.108633 100.819783 
L 255.669977 102.139759 
L 252.279482 103.578939 
L 248.94128 105.135568 
L 245.659436 106.807751 
L 242.43795 108.593449 
L 239.280747 110.490489 
L 236.191673 112.496557 
L 233.174491 114.609211 
L 230.232877 116.825875 
L 227.370417 119.14385 
L 224.590596 121.560312 
L 221.896801 124.072316 
L 219.292316 126.676801 
L 216.780312 129.370596 
L 214.36385 132.150417 
L 212.045875 135.012877 
L 209.829211 137.954491 
L 207.716557 140.971673 
L 205.710489 144.060747 
L 203.813449 147.21795 
L 202.027751 150.439436 
L 200.355568 153.72128 
L 198.798939 157.059482 
L 197.359759 160.449977 
L 196.039783 163.888633 
L 194.840618 167.37126 
L 193.763726 170.893616 
L 192.810418 174.45141 
L 191.981856 178.040306 
L 191.279049 181.655932 
L 190.702854 185.293884 
L 190.253973 188.949728 
L 189.932952 192.619011 
L 189.740183 196.297262 
L 189.675901 199.98 
L 189.740183 203.662738 
L 189.932952 207.340989 
L 190.253973 211.010272 
L 190.702854 214.666116 
L 191.279049 218.304068 
L 191.981856 221.919694 
L 192.810418 225.50859 
L 193.763726 229.066384 
L 194.840618 232.58874 
L 196.039783 236.071367 
L 197.359759 239.510023 
L 198.798939 242.900518 
L 200.355568 246.23872 
L 202.027751 249.520564 
L 203.813449 252.74205 
L 205.710489 255.899253 
L 207.716557 258.988327 
L 209.829211 262.005509 
L 212.045875 264.947123 
L 214.36385 267.809583 
L 216.780312 270.589404 
L 219.292316 273.283199 
L 221.896801 275.887684 
L 224.590596 278.399688 
L 227.370417 280.81615 
L 230.232877 283.134125 
L 233.174491 285.350789 
L 236.191673 287.463443 
L 239.280747 289.469511 
L 242.43795 291.366551 
L 245.659436 293.152249 
L 248.94128 294.824432 
L 252.279482 296.381061 
L 255.669977 297.820241 
L 259.108633 299.140217 
L 262.59126 300.339382 
L 266.113616 301.416274 
L 269.67141 302.369582 
L 273.260306 303.198144 
L 276.875932 303.900951 
L 280.513884 304.477146 
L 284.169728 304.926027 
L 287.839011 305.247048 
L 291.517262 305.439817 
L 295.2 305.504099 
L 298.882738 305.439817 
L 302.560989 305.247048 
L 306.230272 304.926027 
L 309.886116 304.477146 
L 313.524068 303.900951 
L 317.139694 303.198144 
L 320.72859 302.369582 
L 324.286384 301.416274 
L 327.80874 300.339382 
L 331.291367 299.140217 
L 334.730023 297.820241 
L 338.120518 296.381061 
L 341.45872 294.824432 
L 344.740564 293.152249 
L 347.96205 291.366551 
L 351.119253 289.469511 
L 354.208327 287.463443 
L 357.225509 285.350789 
L 360.167123 283.134125 
L 363.029583 280.81615 
L 365.809404 278.399688 
L 368.503199 275.887684 
L 371.107684 273.283199 
L 373.619688 270.589404 
L 376.03615 267.809583 
L 378.354125 264.947123 
L 380.570789 262.005509 
L 382.683443 258.988327 
L 384.689511 255.899253 
L 386.586551 252.74205 
L 388.372249 249.520564 
L 390.044432 246.23872 
L 391.601061 242.900518 
L 393.040241 239.510023 
L 394.360217 236.071367 
L 395.559382 232.58874 
L 396.636274 229.066384 
L 397.589582 225.50859 
L 398.418144 221.919694 
L 399.120951 218.304068 
L 399.697146 214.666116 
L 400.146027 211.010272 
L 400.467048 207.340989 
L 400.659817 203.662738 
L 400.724099 199.98 
L 400.724099 199.98 
" style="fill:none;stroke:#ffffff;stroke-linecap:round;"/>
     </g>
     <g id="text_14">
      <!-- 0.30 -->
      <g style="fill:#262626;" transform="translate(392.691555 157.610176)scale(0.1 -0.1)">
       <use xlink:href="#ArialMT-48"/>
       <use x="55.615234" xlink:href="#ArialMT-46"/>
       <use x="83.398438" xlink:href="#ArialMT-51"/>
       <use x="139.013672" xlink:href="#ArialMT-48"/>
      </g>
     </g>
    </g>
    <g id="ytick_7">
     <g id="line2d_15">
      <path clip-path="url(#pea3861be39)" d="M 418.311449 199.98 
L 418.236453 195.683472 
L 418.011556 191.392179 
L 417.637032 187.111349 
L 417.113337 182.846198 
L 416.441109 178.601921 
L 415.621168 174.38369 
L 414.654513 170.196645 
L 413.54232 166.045886 
L 412.285946 161.93647 
L 410.88692 157.873405 
L 409.346948 153.86164 
L 407.667905 149.906063 
L 405.851837 146.011493 
L 403.900957 142.182676 
L 401.817642 138.424276 
L 399.60443 134.740872 
L 397.264017 131.136951 
L 394.799254 127.616906 
L 392.213146 124.185024 
L 389.508841 120.845486 
L 386.689636 117.602362 
L 383.758965 114.459601 
L 380.720399 111.421035 
L 377.577638 108.490364 
L 374.334514 105.671159 
L 370.994976 102.966854 
L 367.563094 100.380746 
L 364.043049 97.915983 
L 360.439128 95.57557 
L 356.755724 93.362358 
L 352.997324 91.279043 
L 349.168507 89.328163 
L 345.273937 87.512095 
L 341.31836 85.833052 
L 337.306595 84.29308 
L 333.24353 82.894054 
L 329.134114 81.63768 
L 324.983355 80.525487 
L 320.79631 79.558832 
L 316.578079 78.738891 
L 312.333802 78.066663 
L 308.068651 77.542968 
L 303.787821 77.168444 
L 299.496528 76.943547 
L 295.2 76.868551 
L 290.903472 76.943547 
L 286.612179 77.168444 
L 282.331349 77.542968 
L 278.066198 78.066663 
L 273.821921 78.738891 
L 269.60369 79.558832 
L 265.416645 80.525487 
L 261.265886 81.63768 
L 257.15647 82.894054 
L 253.093405 84.29308 
L 249.08164 85.833052 
L 245.126063 87.512095 
L 241.231493 89.328163 
L 237.402676 91.279043 
L 233.644276 93.362358 
L 229.960872 95.57557 
L 226.356951 97.915983 
L 222.836906 100.380746 
L 219.405024 102.966854 
L 216.065486 105.671159 
L 212.822362 108.490364 
L 209.679601 111.421035 
L 206.641035 114.459601 
L 203.710364 117.602362 
L 200.891159 120.845486 
L 198.186854 124.185024 
L 195.600746 127.616906 
L 193.135983 131.136951 
L 190.79557 134.740872 
L 188.582358 138.424276 
L 186.499043 142.182676 
L 184.548163 146.011493 
L 182.732095 149.906063 
L 181.053052 153.86164 
L 179.51308 157.873405 
L 178.114054 161.93647 
L 176.85768 166.045886 
L 175.745487 170.196645 
L 174.778832 174.38369 
L 173.958891 178.601921 
L 173.286663 182.846198 
L 172.762968 187.111349 
L 172.388444 191.392179 
L 172.163547 195.683472 
L 172.088551 199.98 
L 172.163547 204.276528 
L 172.388444 208.567821 
L 172.762968 212.848651 
L 173.286663 217.113802 
L 173.958891 221.358079 
L 174.778832 225.57631 
L 175.745487 229.763355 
L 176.85768 233.914114 
L 178.114054 238.02353 
L 179.51308 242.086595 
L 181.053052 246.09836 
L 182.732095 250.053937 
L 184.548163 253.948507 
L 186.499043 257.777324 
L 188.582358 261.535724 
L 190.79557 265.219128 
L 193.135983 268.823049 
L 195.600746 272.343094 
L 198.186854 275.774976 
L 200.891159 279.114514 
L 203.710364 282.357638 
L 206.641035 285.500399 
L 209.679601 288.538965 
L 212.822362 291.469636 
L 216.065486 294.288841 
L 219.405024 296.993146 
L 222.836906 299.579254 
L 226.356951 302.044017 
L 229.960872 304.38443 
L 233.644276 306.597642 
L 237.402676 308.680957 
L 241.231493 310.631837 
L 245.126063 312.447905 
L 249.08164 314.126948 
L 253.093405 315.66692 
L 257.15647 317.065946 
L 261.265886 318.32232 
L 265.416645 319.434513 
L 269.60369 320.401168 
L 273.821921 321.221109 
L 278.066198 321.893337 
L 282.331349 322.417032 
L 286.612179 322.791556 
L 290.903472 323.016453 
L 295.2 323.091449 
L 299.496528 323.016453 
L 303.787821 322.791556 
L 308.068651 322.417032 
L 312.333802 321.893337 
L 316.578079 321.221109 
L 320.79631 320.401168 
L 324.983355 319.434513 
L 329.134114 318.32232 
L 333.24353 317.065946 
L 337.306595 315.66692 
L 341.31836 314.126948 
L 345.273937 312.447905 
L 349.168507 310.631837 
L 352.997324 308.680957 
L 356.755724 306.597642 
L 360.439128 304.38443 
L 364.043049 302.044017 
L 367.563094 299.579254 
L 370.994976 296.993146 
L 374.334514 294.288841 
L 377.577638 291.469636 
L 380.720399 288.538965 
L 383.758965 285.500399 
L 386.689636 282.357638 
L 389.508841 279.114514 
L 392.213146 275.774976 
L 394.799254 272.343094 
L 397.264017 268.823049 
L 399.60443 265.219128 
L 401.817642 261.535724 
L 403.900957 257.777324 
L 405.851837 253.948507 
L 407.667905 250.053937 
L 409.346948 246.09836 
L 410.88692 242.086595 
L 412.285946 238.02353 
L 413.54232 233.914114 
L 414.654513 229.763355 
L 415.621168 225.57631 
L 416.441109 221.358079 
L 417.113337 217.113802 
L 417.637032 212.848651 
L 418.011556 208.567821 
L 418.236453 204.276528 
L 418.311449 199.98 
L 418.311449 199.98 
" style="fill:none;stroke:#ffffff;stroke-linecap:round;"/>
     </g>
     <g id="text_15">
      <!-- 0.35 -->
      <g style="fill:#262626;" transform="translate(408.940148 150.879788)scale(0.1 -0.1)">
       <use xlink:href="#ArialMT-48"/>
       <use x="55.615234" xlink:href="#ArialMT-46"/>
       <use x="83.398438" xlink:href="#ArialMT-51"/>
       <use x="139.013672" xlink:href="#ArialMT-53"/>
      </g>
     </g>
    </g>
    <g id="ytick_8">
     <g id="line2d_16">
      <path clip-path="url(#pea3861be39)" d="M 435.898799 199.98 
L 435.813089 195.069683 
L 435.556064 190.165348 
L 435.128036 185.272971 
L 434.529528 180.398512 
L 433.761268 175.54791 
L 432.824192 170.727075 
L 431.719443 165.94188 
L 430.448366 161.198155 
L 429.012509 156.50168 
L 427.413623 151.858177 
L 425.653655 147.273302 
L 423.734749 142.752643 
L 421.659243 138.301706 
L 419.429666 133.925915 
L 417.048734 129.630601 
L 414.519348 125.420996 
L 411.844591 121.30223 
L 409.027719 117.279321 
L 406.072166 113.35717 
L 402.981533 109.540555 
L 399.759584 105.834127 
L 396.410246 102.242402 
L 392.937598 98.769754 
L 389.345873 95.420416 
L 385.639445 92.198467 
L 381.82283 89.107834 
L 377.900679 86.152281 
L 373.87777 83.335409 
L 369.759004 80.660652 
L 365.549399 78.131266 
L 361.254085 75.750334 
L 356.878294 73.520757 
L 352.427357 71.445251 
L 347.906698 69.526345 
L 343.321823 67.766377 
L 338.67832 66.167491 
L 333.981845 64.731634 
L 329.23812 63.460557 
L 324.452925 62.355808 
L 319.63209 61.418732 
L 314.781488 60.650472 
L 309.907029 60.051964 
L 305.014652 59.623936 
L 300.110317 59.366911 
L 295.2 59.281201 
L 290.289683 59.366911 
L 285.385348 59.623936 
L 280.492971 60.051964 
L 275.618512 60.650472 
L 270.76791 61.418732 
L 265.947075 62.355808 
L 261.16188 63.460557 
L 256.418155 64.731634 
L 251.72168 66.167491 
L 247.078177 67.766377 
L 242.493302 69.526345 
L 237.972643 71.445251 
L 233.521706 73.520757 
L 229.145915 75.750334 
L 224.850601 78.131266 
L 220.640996 80.660652 
L 216.52223 83.335409 
L 212.499321 86.152281 
L 208.57717 89.107834 
L 204.760555 92.198467 
L 201.054127 95.420416 
L 197.462402 98.769754 
L 193.989754 102.242402 
L 190.640416 105.834127 
L 187.418467 109.540555 
L 184.327834 113.35717 
L 181.372281 117.279321 
L 178.555409 121.30223 
L 175.880652 125.420996 
L 173.351266 129.630601 
L 170.970334 133.925915 
L 168.740757 138.301706 
L 166.665251 142.752643 
L 164.746345 147.273302 
L 162.986377 151.858177 
L 161.387491 156.50168 
L 159.951634 161.198155 
L 158.680557 165.94188 
L 157.575808 170.727075 
L 156.638732 175.54791 
L 155.870472 180.398512 
L 155.271964 185.272971 
L 154.843936 190.165348 
L 154.586911 195.069683 
L 154.501201 199.98 
L 154.586911 204.890317 
L 154.843936 209.794652 
L 155.271964 214.687029 
L 155.870472 219.561488 
L 156.638732 224.41209 
L 157.575808 229.232925 
L 158.680557 234.01812 
L 159.951634 238.761845 
L 161.387491 243.45832 
L 162.986377 248.101823 
L 164.746345 252.686698 
L 166.665251 257.207357 
L 168.740757 261.658294 
L 170.970334 266.034085 
L 173.351266 270.329399 
L 175.880652 274.539004 
L 178.555409 278.65777 
L 181.372281 282.680679 
L 184.327834 286.60283 
L 187.418467 290.419445 
L 190.640416 294.125873 
L 193.989754 297.717598 
L 197.462402 301.190246 
L 201.054127 304.539584 
L 204.760555 307.761533 
L 208.57717 310.852166 
L 212.499321 313.807719 
L 216.52223 316.624591 
L 220.640996 319.299348 
L 224.850601 321.828734 
L 229.145915 324.209666 
L 233.521706 326.439243 
L 237.972643 328.514749 
L 242.493302 330.433655 
L 247.078177 332.193623 
L 251.72168 333.792509 
L 256.418155 335.228366 
L 261.16188 336.499443 
L 265.947075 337.604192 
L 270.76791 338.541268 
L 275.618512 339.309528 
L 280.492971 339.908036 
L 285.385348 340.336064 
L 290.289683 340.593089 
L 295.2 340.678799 
L 300.110317 340.593089 
L 305.014652 340.336064 
L 309.907029 339.908036 
L 314.781488 339.309528 
L 319.63209 338.541268 
L 324.452925 337.604192 
L 329.23812 336.499443 
L 333.981845 335.228366 
L 338.67832 333.792509 
L 343.321823 332.193623 
L 347.906698 330.433655 
L 352.427357 328.514749 
L 356.878294 326.439243 
L 361.254085 324.209666 
L 365.549399 321.828734 
L 369.759004 319.299348 
L 373.87777 316.624591 
L 377.900679 313.807719 
L 381.82283 310.852166 
L 385.639445 307.761533 
L 389.345873 304.539584 
L 392.937598 301.190246 
L 396.410246 297.717598 
L 399.759584 294.125873 
L 402.981533 290.419445 
L 406.072166 286.60283 
L 409.027719 282.680679 
L 411.844591 278.65777 
L 414.519348 274.539004 
L 417.048734 270.329399 
L 419.429666 266.034085 
L 421.659243 261.658294 
L 423.734749 257.207357 
L 425.653655 252.686698 
L 427.413623 248.101823 
L 429.012509 243.45832 
L 430.448366 238.761845 
L 431.719443 234.01812 
L 432.824192 229.232925 
L 433.761268 224.41209 
L 434.529528 219.561488 
L 435.128036 214.687029 
L 435.556064 209.794652 
L 435.813089 204.890317 
L 435.898799 199.98 
L 435.898799 199.98 
" style="fill:none;stroke:#ffffff;stroke-linecap:round;"/>
     </g>
     <g id="text_16">
      <!-- 0.40 -->
      <g style="fill:#262626;" transform="translate(425.18874 144.149401)scale(0.1 -0.1)">
       <use xlink:href="#ArialMT-48"/>
       <use x="55.615234" xlink:href="#ArialMT-46"/>
       <use x="83.398438" xlink:href="#ArialMT-52"/>
       <use x="139.013672" xlink:href="#ArialMT-48"/>
      </g>
     </g>
    </g>
   </g>
   <g id="PathCollection_1">
    <defs>
     <path d="M 0 3.5 
C 0.928211 3.5 1.81853 3.131218 2.474874 2.474874 
C 3.131218 1.81853 3.5 0.928211 3.5 0 
C 3.5 -0.928211 3.131218 -1.81853 2.474874 -2.474874 
C 1.81853 -3.131218 0.928211 -3.5 0 -3.5 
C -0.928211 -3.5 -1.81853 -3.131218 -2.474874 -2.474874 
C -3.131218 -1.81853 -3.5 -0.928211 -3.5 0 
C -3.5 0.928211 -3.131218 1.81853 -2.474874 2.474874 
C -1.81853 3.131218 -0.928211 3.5 0 3.5 
z
" id="mce670acb77" style="stroke:#4c72b0;stroke-width:0.3;"/>
    </defs>
    <g clip-path="url(#pea3861be39)">
     <use style="fill:#4c72b0;stroke:#4c72b0;stroke-width:0.3;" x="301.735745" xlink:href="#mce670acb77" y="212.56691"/>
     <use style="fill:#4c72b0;stroke:#4c72b0;stroke-width:0.3;" x="259.764701" xlink:href="#mce670acb77" y="235.446811"/>
     <use style="fill:#4c72b0;stroke:#4c72b0;stroke-width:0.3;" x="345.445154" xlink:href="#mce670acb77" y="211.534791"/>
     <use style="fill:#4c72b0;stroke:#4c72b0;stroke-width:0.3;" x="259.58424" xlink:href="#mce670acb77" y="218.133898"/>
     <use style="fill:#4c72b0;stroke:#4c72b0;stroke-width:0.3;" x="285.713862" xlink:href="#mce670acb77" y="219.016899"/>
     <use style="fill:#4c72b0;stroke:#4c72b0;stroke-width:0.3;" x="196.014043" xlink:href="#mce670acb77" y="215.313273"/>
     <use style="fill:#4c72b0;stroke:#4c72b0;stroke-width:0.3;" x="246.021672" xlink:href="#mce670acb77" y="215.857579"/>
     <use style="fill:#4c72b0;stroke:#4c72b0;stroke-width:0.3;" x="426.078934" xlink:href="#mce670acb77" y="193.274455"/>
     <use style="fill:#4c72b0;stroke:#4c72b0;stroke-width:0.3;" x="276.414714" xlink:href="#mce670acb77" y="207.36838"/>
     <use style="fill:#4c72b0;stroke:#4c72b0;stroke-width:0.3;" x="301.400313" xlink:href="#mce670acb77" y="206.01725"/>
     <use style="fill:#4c72b0;stroke:#4c72b0;stroke-width:0.3;" x="393.845163" xlink:href="#mce670acb77" y="192.945698"/>
     <use style="fill:#4c72b0;stroke:#4c72b0;stroke-width:0.3;" x="339.308301" xlink:href="#mce670acb77" y="201.745346"/>
     <use style="fill:#4c72b0;stroke:#4c72b0;stroke-width:0.3;" x="372.316779" xlink:href="#mce670acb77" y="208.068247"/>
     <use style="fill:#4c72b0;stroke:#4c72b0;stroke-width:0.3;" x="262.55906" xlink:href="#mce670acb77" y="212.710534"/>
     <use style="fill:#4c72b0;stroke:#4c72b0;stroke-width:0.3;" x="399.327527" xlink:href="#mce670acb77" y="193.562873"/>
     <use style="fill:#4c72b0;stroke:#4c72b0;stroke-width:0.3;" x="238.554922" xlink:href="#mce670acb77" y="199.856438"/>
     <use style="fill:#4c72b0;stroke:#4c72b0;stroke-width:0.3;" x="195.443642" xlink:href="#mce670acb77" y="228.537069"/>
     <use style="fill:#4c72b0;stroke:#4c72b0;stroke-width:0.3;" x="312.852172" xlink:href="#mce670acb77" y="220.146874"/>
     <use style="fill:#4c72b0;stroke:#4c72b0;stroke-width:0.3;" x="390.103924" xlink:href="#mce670acb77" y="210.173726"/>
     <use style="fill:#4c72b0;stroke:#4c72b0;stroke-width:0.3;" x="216.392746" xlink:href="#mce670acb77" y="214.211747"/>
     <use style="fill:#4c72b0;stroke:#4c72b0;stroke-width:0.3;" x="301.159034" xlink:href="#mce670acb77" y="216.481374"/>
     <use style="fill:#4c72b0;stroke:#4c72b0;stroke-width:0.3;" x="301.73992" xlink:href="#mce670acb77" y="212.256418"/>
     <use style="fill:#4c72b0;stroke:#4c72b0;stroke-width:0.3;" x="257.360849" xlink:href="#mce670acb77" y="221.645817"/>
     <use style="fill:#4c72b0;stroke:#4c72b0;stroke-width:0.3;" x="308.758571" xlink:href="#mce670acb77" y="204.429176"/>
    </g>
   </g>
   <g id="PathCollection_2">
    <defs>
     <path d="M 0 3.5 
C 0.928211 3.5 1.81853 3.131218 2.474874 2.474874 
C 3.131218 1.81853 3.5 0.928211 3.5 0 
C 3.5 -0.928211 3.131218 -1.81853 2.474874 -2.474874 
C 1.81853 -3.131218 0.928211 -3.5 0 -3.5 
C -0.928211 -3.5 -1.81853 -3.131218 -2.474874 -2.474874 
C -3.131218 -1.81853 -3.5 -0.928211 -3.5 0 
C -3.5 0.928211 -3.131218 1.81853 -2.474874 2.474874 
C -1.81853 3.131218 -0.928211 3.5 0 3.5 
z
" id="m5278460f80" style="stroke:#55a868;stroke-width:0.3;"/>
    </defs>
    <g clip-path="url(#pea3861be39)">
     <use style="fill:#55a868;stroke:#55a868;stroke-width:0.3;" x="294.394221" xlink:href="#m5278460f80" y="202.37593"/>
     <use style="fill:#55a868;stroke:#55a868;stroke-width:0.3;" x="404.434556" xlink:href="#m5278460f80" y="196.008379"/>
     <use style="fill:#55a868;stroke:#55a868;stroke-width:0.3;" x="271.074607" xlink:href="#m5278460f80" y="203.65273"/>
     <use style="fill:#55a868;stroke:#55a868;stroke-width:0.3;" x="332.807007" xlink:href="#m5278460f80" y="199.542355"/>
     <use style="fill:#55a868;stroke:#55a868;stroke-width:0.3;" x="297.503194" xlink:href="#m5278460f80" y="197.541767"/>
     <use style="fill:#55a868;stroke:#55a868;stroke-width:0.3;" x="232.313355" xlink:href="#m5278460f80" y="201.361134"/>
     <use style="fill:#55a868;stroke:#55a868;stroke-width:0.3;" x="214.40029" xlink:href="#m5278460f80" y="197.17585"/>
     <use style="fill:#55a868;stroke:#55a868;stroke-width:0.3;" x="327.241708" xlink:href="#m5278460f80" y="202.15624"/>
     <use style="fill:#55a868;stroke:#55a868;stroke-width:0.3;" x="222.763363" xlink:href="#m5278460f80" y="226.905368"/>
     <use style="fill:#55a868;stroke:#55a868;stroke-width:0.3;" x="440.399917" xlink:href="#m5278460f80" y="200.135579"/>
     <use style="fill:#55a868;stroke:#55a868;stroke-width:0.3;" x="233.18272" xlink:href="#m5278460f80" y="220.103341"/>
     <use style="fill:#55a868;stroke:#55a868;stroke-width:0.3;" x="205.882298" xlink:href="#m5278460f80" y="234.790697"/>
     <use style="fill:#55a868;stroke:#55a868;stroke-width:0.3;" x="298.420322" xlink:href="#m5278460f80" y="231.610671"/>
     <use style="fill:#55a868;stroke:#55a868;stroke-width:0.3;" x="247.466187" xlink:href="#m5278460f80" y="246.289004"/>
     <use style="fill:#55a868;stroke:#55a868;stroke-width:0.3;" x="375.847757" xlink:href="#m5278460f80" y="237.296144"/>
     <use style="fill:#55a868;stroke:#55a868;stroke-width:0.3;" x="283.973526" xlink:href="#m5278460f80" y="248.759254"/>
     <use style="fill:#55a868;stroke:#55a868;stroke-width:0.3;" x="197.59119" xlink:href="#m5278460f80" y="263.129228"/>
     <use style="fill:#55a868;stroke:#55a868;stroke-width:0.3;" x="264.052817" xlink:href="#m5278460f80" y="246.365997"/>
     <use style="fill:#55a868;stroke:#55a868;stroke-width:0.3;" x="170.97136" xlink:href="#m5278460f80" y="269.664852"/>
     <use style="fill:#55a868;stroke:#55a868;stroke-width:0.3;" x="314.901164" xlink:href="#m5278460f80" y="240.580785"/>
     <use style="fill:#55a868;stroke:#55a868;stroke-width:0.3;" x="417.909284" xlink:href="#m5278460f80" y="203.769689"/>
     <use style="fill:#55a868;stroke:#55a868;stroke-width:0.3;" x="212.243301" xlink:href="#m5278460f80" y="237.536693"/>
     <use style="fill:#55a868;stroke:#55a868;stroke-width:0.3;" x="262.207721" xlink:href="#m5278460f80" y="238.966689"/>
     <use style="fill:#55a868;stroke:#55a868;stroke-width:0.3;" x="272.295674" xlink:href="#m5278460f80" y="246.709496"/>
    </g>
   </g>
   <g id="PathCollection_3">
    <defs>
     <path d="M 0 3.5 
C 0.928211 3.5 1.81853 3.131218 2.474874 2.474874 
C 3.131218 1.81853 3.5 0.928211 3.5 0 
C 3.5 -0.928211 3.131218 -1.81853 2.474874 -2.474874 
C 1.81853 -3.131218 0.928211 -3.5 0 -3.5 
C -0.928211 -3.5 -1.81853 -3.131218 -2.474874 -2.474874 
C -3.131218 -1.81853 -3.5 -0.928211 -3.5 0 
C -3.5 0.928211 -3.131218 1.81853 -2.474874 2.474874 
C -1.81853 3.131218 -0.928211 3.5 0 3.5 
z
" id="m3ba95c3f53" style="stroke:#c44e52;stroke-width:0.3;"/>
    </defs>
    <g clip-path="url(#pea3861be39)">
     <use style="fill:#c44e52;stroke:#c44e52;stroke-width:0.3;" x="336.351121" xlink:href="#m3ba95c3f53" y="226.461919"/>
     <use style="fill:#c44e52;stroke:#c44e52;stroke-width:0.3;" x="273.563529" xlink:href="#m3ba95c3f53" y="226.254644"/>
     <use style="fill:#c44e52;stroke:#c44e52;stroke-width:0.3;" x="354.608529" xlink:href="#m3ba95c3f53" y="220.232999"/>
     <use style="fill:#c44e52;stroke:#c44e52;stroke-width:0.3;" x="374.929822" xlink:href="#m3ba95c3f53" y="191.269333"/>
     <use style="fill:#c44e52;stroke:#c44e52;stroke-width:0.3;" x="278.491856" xlink:href="#m3ba95c3f53" y="201.017134"/>
     <use style="fill:#c44e52;stroke:#c44e52;stroke-width:0.3;" x="256.097887" xlink:href="#m3ba95c3f53" y="205.782415"/>
     <use style="fill:#c44e52;stroke:#c44e52;stroke-width:0.3;" x="365.974614" xlink:href="#m3ba95c3f53" y="198.211449"/>
     <use style="fill:#c44e52;stroke:#c44e52;stroke-width:0.3;" x="317.362183" xlink:href="#m3ba95c3f53" y="201.106628"/>
     <use style="fill:#c44e52;stroke:#c44e52;stroke-width:0.3;" x="291.94223" xlink:href="#m3ba95c3f53" y="204.837697"/>
     <use style="fill:#c44e52;stroke:#c44e52;stroke-width:0.3;" x="247.418632" xlink:href="#m3ba95c3f53" y="205.52026"/>
     <use style="fill:#c44e52;stroke:#c44e52;stroke-width:0.3;" x="302.396421" xlink:href="#m3ba95c3f53" y="190.640558"/>
     <use style="fill:#c44e52;stroke:#c44e52;stroke-width:0.3;" x="409.659601" xlink:href="#m3ba95c3f53" y="155.778618"/>
     <use style="fill:#c44e52;stroke:#c44e52;stroke-width:0.3;" x="278.65219" xlink:href="#m3ba95c3f53" y="176.016892"/>
     <use style="fill:#c44e52;stroke:#c44e52;stroke-width:0.3;" x="298.232159" xlink:href="#m3ba95c3f53" y="179.236772"/>
     <use style="fill:#c44e52;stroke:#c44e52;stroke-width:0.3;" x="339.403255" xlink:href="#m3ba95c3f53" y="176.718061"/>
     <use style="fill:#c44e52;stroke:#c44e52;stroke-width:0.3;" x="302.322855" xlink:href="#m3ba95c3f53" y="182.583791"/>
     <use style="fill:#c44e52;stroke:#c44e52;stroke-width:0.3;" x="366.346891" xlink:href="#m3ba95c3f53" y="158.00407"/>
     <use style="fill:#c44e52;stroke:#c44e52;stroke-width:0.3;" x="190.287355" xlink:href="#m3ba95c3f53" y="180.04843"/>
     <use style="fill:#c44e52;stroke:#c44e52;stroke-width:0.3;" x="340.737596" xlink:href="#m3ba95c3f53" y="157.708298"/>
     <use style="fill:#c44e52;stroke:#c44e52;stroke-width:0.3;" x="337.633226" xlink:href="#m3ba95c3f53" y="154.52582"/>
     <use style="fill:#c44e52;stroke:#c44e52;stroke-width:0.3;" x="263.043566" xlink:href="#m3ba95c3f53" y="170.104502"/>
     <use style="fill:#c44e52;stroke:#c44e52;stroke-width:0.3;" x="307.886846" xlink:href="#m3ba95c3f53" y="168.001453"/>
     <use style="fill:#c44e52;stroke:#c44e52;stroke-width:0.3;" x="428.863263" xlink:href="#m3ba95c3f53" y="162.809561"/>
     <use style="fill:#c44e52;stroke:#c44e52;stroke-width:0.3;" x="243.302002" xlink:href="#m3ba95c3f53" y="179.926548"/>
    </g>
   </g>
   <g id="line2d_17">
    <path clip-path="url(#pea3861be39)" d="M 295.2 199.98 
L 364.777322 327.424247 
" style="fill:none;stroke:#ff0000;stroke-dasharray:7.4,3.2;stroke-dashoffset:0;stroke-width:2;"/>
   </g>
   <g id="patch_3">
    <path d="M 447.66 199.98 
C 447.66 179.959136 443.716326 160.13295 436.054674 141.636084 
C 428.393021 123.139218 417.162388 106.331389 403.0055 92.1745 
C 388.848611 78.017612 372.040782 66.786979 353.543916 59.125326 
C 335.04705 51.463674 315.220864 47.52 295.2 47.52 
C 275.179136 47.52 255.35295 51.463674 236.856084 59.125326 
C 218.359218 66.786979 201.551389 78.017612 187.3945 92.1745 
C 173.237612 106.331389 162.006979 123.139218 154.345326 141.636084 
C 146.683674 160.13295 142.74 179.959136 142.74 199.98 
C 142.74 220.000864 146.683674 239.82705 154.345326 258.323916 
C 162.006979 276.820782 173.237612 293.628611 187.3945 307.7855 
C 201.551389 321.942388 218.359218 333.173021 236.856084 340.834674 
C 255.35295 348.496326 275.179136 352.44 295.2 352.44 
C 315.220864 352.44 335.04705 348.496326 353.543916 340.834674 
C 372.040782 333.173021 388.848611 321.942388 403.0055 307.7855 
C 417.162388 293.628611 428.393021 276.820782 436.054674 258.323916 
C 443.716326 239.82705 447.66 220.000864 447.66 199.98 
" style="fill:none;"/>
   </g>
   <g id="text_17">
    <!-- Distribution of projected eye movement velocity on the screen - NewM5_6_22 -->
    <defs>
     <path d="M 7.71875 0 
L 7.71875 71.578125 
L 32.375 71.578125 
Q 40.71875 71.578125 45.125 70.5625 
Q 51.265625 69.140625 55.609375 65.4375 
Q 61.28125 60.640625 64.078125 53.1875 
Q 66.890625 45.75 66.890625 36.1875 
Q 66.890625 28.03125 64.984375 21.734375 
Q 63.09375 15.4375 60.109375 11.296875 
Q 57.125 7.171875 53.578125 4.796875 
Q 50.046875 2.4375 45.046875 1.21875 
Q 40.046875 0 33.546875 0 
z
M 17.1875 8.453125 
L 32.46875 8.453125 
Q 39.546875 8.453125 43.578125 9.765625 
Q 47.609375 11.078125 50 13.484375 
Q 53.375 16.84375 55.25 22.53125 
Q 57.125 28.21875 57.125 36.328125 
Q 57.125 47.5625 53.4375 53.59375 
Q 49.75 59.625 44.484375 61.671875 
Q 40.671875 63.140625 32.234375 63.140625 
L 17.1875 63.140625 
z
" id="ArialMT-68"/>
     <path d="M 6.640625 61.46875 
L 6.640625 71.578125 
L 15.4375 71.578125 
L 15.4375 61.46875 
z
M 6.640625 0 
L 6.640625 51.859375 
L 15.4375 51.859375 
L 15.4375 0 
z
" id="ArialMT-105"/>
     <path d="M 3.078125 15.484375 
L 11.765625 16.84375 
Q 12.5 11.625 15.84375 8.84375 
Q 19.1875 6.0625 25.203125 6.0625 
Q 31.25 6.0625 34.171875 8.515625 
Q 37.109375 10.984375 37.109375 14.3125 
Q 37.109375 17.28125 34.515625 19 
Q 32.71875 20.171875 25.53125 21.96875 
Q 15.875 24.421875 12.140625 26.203125 
Q 8.40625 27.984375 6.46875 31.125 
Q 4.546875 34.28125 4.546875 38.09375 
Q 4.546875 41.546875 6.125 44.5 
Q 7.71875 47.46875 10.453125 49.421875 
Q 12.5 50.921875 16.03125 51.96875 
Q 19.578125 53.03125 23.640625 53.03125 
Q 29.734375 53.03125 34.34375 51.265625 
Q 38.96875 49.515625 41.15625 46.5 
Q 43.359375 43.5 44.1875 38.484375 
L 35.59375 37.3125 
Q 35.015625 41.3125 32.203125 43.546875 
Q 29.390625 45.796875 24.265625 45.796875 
Q 18.21875 45.796875 15.625 43.796875 
Q 13.03125 41.796875 13.03125 39.109375 
Q 13.03125 37.40625 14.109375 36.03125 
Q 15.1875 34.625 17.484375 33.6875 
Q 18.796875 33.203125 25.25 31.453125 
Q 34.578125 28.953125 38.25 27.359375 
Q 41.9375 25.78125 44.03125 22.75 
Q 46.140625 19.734375 46.140625 15.234375 
Q 46.140625 10.84375 43.578125 6.953125 
Q 41.015625 3.078125 36.171875 0.953125 
Q 31.34375 -1.171875 25.25 -1.171875 
Q 15.140625 -1.171875 9.84375 3.03125 
Q 4.546875 7.234375 3.078125 15.484375 
z
" id="ArialMT-115"/>
     <path d="M 25.78125 7.859375 
L 27.046875 0.09375 
Q 23.34375 -0.6875 20.40625 -0.6875 
Q 15.625 -0.6875 12.984375 0.828125 
Q 10.359375 2.34375 9.28125 4.8125 
Q 8.203125 7.28125 8.203125 15.1875 
L 8.203125 45.015625 
L 1.765625 45.015625 
L 1.765625 51.859375 
L 8.203125 51.859375 
L 8.203125 64.703125 
L 16.9375 69.96875 
L 16.9375 51.859375 
L 25.78125 51.859375 
L 25.78125 45.015625 
L 16.9375 45.015625 
L 16.9375 14.703125 
Q 16.9375 10.9375 17.40625 9.859375 
Q 17.875 8.796875 18.921875 8.15625 
Q 19.96875 7.515625 21.921875 7.515625 
Q 23.390625 7.515625 25.78125 7.859375 
z
" id="ArialMT-116"/>
     <path d="M 6.5 0 
L 6.5 51.859375 
L 14.40625 51.859375 
L 14.40625 44 
Q 17.4375 49.515625 20 51.265625 
Q 22.5625 53.03125 25.640625 53.03125 
Q 30.078125 53.03125 34.671875 50.203125 
L 31.640625 42.046875 
Q 28.421875 43.953125 25.203125 43.953125 
Q 22.3125 43.953125 20.015625 42.21875 
Q 17.71875 40.484375 16.75 37.40625 
Q 15.28125 32.71875 15.28125 27.15625 
L 15.28125 0 
z
" id="ArialMT-114"/>
     <path d="M 14.703125 0 
L 6.546875 0 
L 6.546875 71.578125 
L 15.328125 71.578125 
L 15.328125 46.046875 
Q 20.90625 53.03125 29.546875 53.03125 
Q 34.328125 53.03125 38.59375 51.09375 
Q 42.875 49.171875 45.625 45.671875 
Q 48.390625 42.1875 49.953125 37.25 
Q 51.515625 32.328125 51.515625 26.703125 
Q 51.515625 13.375 44.921875 6.09375 
Q 38.328125 -1.171875 29.109375 -1.171875 
Q 19.921875 -1.171875 14.703125 6.5 
z
M 14.59375 26.3125 
Q 14.59375 17 17.140625 12.84375 
Q 21.296875 6.0625 28.375 6.0625 
Q 34.125 6.0625 38.328125 11.0625 
Q 42.53125 16.0625 42.53125 25.984375 
Q 42.53125 36.140625 38.5 40.96875 
Q 34.46875 45.796875 28.765625 45.796875 
Q 23 45.796875 18.796875 40.796875 
Q 14.59375 35.796875 14.59375 26.3125 
z
" id="ArialMT-98"/>
     <path d="M 40.578125 0 
L 40.578125 7.625 
Q 34.515625 -1.171875 24.125 -1.171875 
Q 19.53125 -1.171875 15.546875 0.578125 
Q 11.578125 2.34375 9.640625 5 
Q 7.71875 7.671875 6.9375 11.53125 
Q 6.390625 14.109375 6.390625 19.734375 
L 6.390625 51.859375 
L 15.1875 51.859375 
L 15.1875 23.09375 
Q 15.1875 16.21875 15.71875 13.8125 
Q 16.546875 10.359375 19.234375 8.375 
Q 21.921875 6.390625 25.875 6.390625 
Q 29.828125 6.390625 33.296875 8.421875 
Q 36.765625 10.453125 38.203125 13.9375 
Q 39.65625 17.4375 39.65625 24.078125 
L 39.65625 51.859375 
L 48.4375 51.859375 
L 48.4375 0 
z
" id="ArialMT-117"/>
     <path d="M 3.328125 25.921875 
Q 3.328125 40.328125 11.328125 47.265625 
Q 18.015625 53.03125 27.640625 53.03125 
Q 38.328125 53.03125 45.109375 46.015625 
Q 51.90625 39.015625 51.90625 26.65625 
Q 51.90625 16.65625 48.90625 10.90625 
Q 45.90625 5.171875 40.15625 2 
Q 34.421875 -1.171875 27.640625 -1.171875 
Q 16.75 -1.171875 10.03125 5.8125 
Q 3.328125 12.796875 3.328125 25.921875 
z
M 12.359375 25.921875 
Q 12.359375 15.96875 16.703125 11.015625 
Q 21.046875 6.0625 27.640625 6.0625 
Q 34.1875 6.0625 38.53125 11.03125 
Q 42.875 16.015625 42.875 26.21875 
Q 42.875 35.84375 38.5 40.796875 
Q 34.125 45.75 27.640625 45.75 
Q 21.046875 45.75 16.703125 40.8125 
Q 12.359375 35.890625 12.359375 25.921875 
z
" id="ArialMT-111"/>
     <path d="M 6.59375 0 
L 6.59375 51.859375 
L 14.5 51.859375 
L 14.5 44.484375 
Q 20.21875 53.03125 31 53.03125 
Q 35.6875 53.03125 39.625 51.34375 
Q 43.5625 49.65625 45.515625 46.921875 
Q 47.46875 44.1875 48.25 40.4375 
Q 48.734375 37.984375 48.734375 31.890625 
L 48.734375 0 
L 39.9375 0 
L 39.9375 31.546875 
Q 39.9375 36.921875 38.90625 39.578125 
Q 37.890625 42.234375 35.28125 43.8125 
Q 32.671875 45.40625 29.15625 45.40625 
Q 23.53125 45.40625 19.453125 41.84375 
Q 15.375 38.28125 15.375 28.328125 
L 15.375 0 
z
" id="ArialMT-110"/>
     <path id="ArialMT-32"/>
     <path d="M 8.6875 0 
L 8.6875 45.015625 
L 0.921875 45.015625 
L 0.921875 51.859375 
L 8.6875 51.859375 
L 8.6875 57.375 
Q 8.6875 62.59375 9.625 65.140625 
Q 10.890625 68.5625 14.078125 70.671875 
Q 17.28125 72.796875 23.046875 72.796875 
Q 26.765625 72.796875 31.25 71.921875 
L 29.9375 64.265625 
Q 27.203125 64.75 24.75 64.75 
Q 20.75 64.75 19.09375 63.03125 
Q 17.4375 61.328125 17.4375 56.640625 
L 17.4375 51.859375 
L 27.546875 51.859375 
L 27.546875 45.015625 
L 17.4375 45.015625 
L 17.4375 0 
z
" id="ArialMT-102"/>
     <path d="M 6.59375 -19.875 
L 6.59375 51.859375 
L 14.59375 51.859375 
L 14.59375 45.125 
Q 17.4375 49.078125 21 51.046875 
Q 24.5625 53.03125 29.640625 53.03125 
Q 36.28125 53.03125 41.359375 49.609375 
Q 46.4375 46.1875 49.015625 39.953125 
Q 51.609375 33.734375 51.609375 26.3125 
Q 51.609375 18.359375 48.75 11.984375 
Q 45.90625 5.609375 40.453125 2.21875 
Q 35.015625 -1.171875 29 -1.171875 
Q 24.609375 -1.171875 21.109375 0.6875 
Q 17.625 2.546875 15.375 5.375 
L 15.375 -19.875 
z
M 14.546875 25.640625 
Q 14.546875 15.625 18.59375 10.84375 
Q 22.65625 6.0625 28.421875 6.0625 
Q 34.28125 6.0625 38.453125 11.015625 
Q 42.625 15.96875 42.625 26.375 
Q 42.625 36.28125 38.546875 41.203125 
Q 34.46875 46.140625 28.8125 46.140625 
Q 23.1875 46.140625 18.859375 40.890625 
Q 14.546875 35.640625 14.546875 25.640625 
z
" id="ArialMT-112"/>
     <path d="M 6.546875 61.375 
L 6.546875 71.578125 
L 15.328125 71.578125 
L 15.328125 61.375 
z
M -4.59375 -20.125 
L -2.9375 -12.640625 
Q -0.296875 -13.328125 1.21875 -13.328125 
Q 3.90625 -13.328125 5.21875 -11.546875 
Q 6.546875 -9.765625 6.546875 -2.640625 
L 6.546875 51.859375 
L 15.328125 51.859375 
L 15.328125 -2.828125 
Q 15.328125 -12.40625 12.84375 -16.15625 
Q 9.671875 -21.046875 2.296875 -21.046875 
Q -1.265625 -21.046875 -4.59375 -20.125 
z
" id="ArialMT-106"/>
     <path d="M 42.09375 16.703125 
L 51.171875 15.578125 
Q 49.03125 7.625 43.21875 3.21875 
Q 37.40625 -1.171875 28.375 -1.171875 
Q 17 -1.171875 10.328125 5.828125 
Q 3.65625 12.84375 3.65625 25.484375 
Q 3.65625 38.578125 10.390625 45.796875 
Q 17.140625 53.03125 27.875 53.03125 
Q 38.28125 53.03125 44.875 45.953125 
Q 51.46875 38.875 51.46875 26.03125 
Q 51.46875 25.25 51.421875 23.6875 
L 12.75 23.6875 
Q 13.234375 15.140625 17.578125 10.59375 
Q 21.921875 6.0625 28.421875 6.0625 
Q 33.25 6.0625 36.671875 8.59375 
Q 40.09375 11.140625 42.09375 16.703125 
z
M 13.234375 30.90625 
L 42.1875 30.90625 
Q 41.609375 37.453125 38.875 40.71875 
Q 34.671875 45.796875 27.984375 45.796875 
Q 21.921875 45.796875 17.796875 41.75 
Q 13.671875 37.703125 13.234375 30.90625 
z
" id="ArialMT-101"/>
     <path d="M 40.4375 19 
L 49.078125 17.875 
Q 47.65625 8.9375 41.8125 3.875 
Q 35.984375 -1.171875 27.484375 -1.171875 
Q 16.84375 -1.171875 10.375 5.78125 
Q 3.90625 12.75 3.90625 25.734375 
Q 3.90625 34.125 6.6875 40.421875 
Q 9.46875 46.734375 15.15625 49.875 
Q 20.84375 53.03125 27.546875 53.03125 
Q 35.984375 53.03125 41.359375 48.75 
Q 46.734375 44.484375 48.25 36.625 
L 39.703125 35.296875 
Q 38.484375 40.53125 35.375 43.15625 
Q 32.28125 45.796875 27.875 45.796875 
Q 21.234375 45.796875 17.078125 41.03125 
Q 12.9375 36.28125 12.9375 25.984375 
Q 12.9375 15.53125 16.9375 10.796875 
Q 20.953125 6.0625 27.390625 6.0625 
Q 32.5625 6.0625 36.03125 9.234375 
Q 39.5 12.40625 40.4375 19 
z
" id="ArialMT-99"/>
     <path d="M 40.234375 0 
L 40.234375 6.546875 
Q 35.296875 -1.171875 25.734375 -1.171875 
Q 19.53125 -1.171875 14.328125 2.25 
Q 9.125 5.671875 6.265625 11.796875 
Q 3.421875 17.921875 3.421875 25.875 
Q 3.421875 33.640625 6 39.96875 
Q 8.59375 46.296875 13.765625 49.65625 
Q 18.953125 53.03125 25.34375 53.03125 
Q 30.03125 53.03125 33.6875 51.046875 
Q 37.359375 49.078125 39.65625 45.90625 
L 39.65625 71.578125 
L 48.390625 71.578125 
L 48.390625 0 
z
M 12.453125 25.875 
Q 12.453125 15.921875 16.640625 10.984375 
Q 20.84375 6.0625 26.5625 6.0625 
Q 32.328125 6.0625 36.34375 10.765625 
Q 40.375 15.484375 40.375 25.140625 
Q 40.375 35.796875 36.265625 40.765625 
Q 32.171875 45.75 26.171875 45.75 
Q 20.3125 45.75 16.375 40.96875 
Q 12.453125 36.1875 12.453125 25.875 
z
" id="ArialMT-100"/>
     <path d="M 6.203125 -19.96875 
L 5.21875 -11.71875 
Q 8.109375 -12.5 10.25 -12.5 
Q 13.1875 -12.5 14.9375 -11.515625 
Q 16.703125 -10.546875 17.828125 -8.796875 
Q 18.65625 -7.46875 20.515625 -2.25 
Q 20.75 -1.515625 21.296875 -0.09375 
L 1.609375 51.859375 
L 11.078125 51.859375 
L 21.875 21.828125 
Q 23.96875 16.109375 25.640625 9.8125 
Q 27.15625 15.875 29.25 21.625 
L 40.328125 51.859375 
L 49.125 51.859375 
L 29.390625 -0.875 
Q 26.21875 -9.421875 24.46875 -12.640625 
Q 22.125 -17 19.09375 -19.015625 
Q 16.0625 -21.046875 11.859375 -21.046875 
Q 9.328125 -21.046875 6.203125 -19.96875 
z
" id="ArialMT-121"/>
     <path d="M 6.59375 0 
L 6.59375 51.859375 
L 14.453125 51.859375 
L 14.453125 44.578125 
Q 16.890625 48.390625 20.9375 50.703125 
Q 25 53.03125 30.171875 53.03125 
Q 35.9375 53.03125 39.625 50.640625 
Q 43.3125 48.25 44.828125 43.953125 
Q 50.984375 53.03125 60.84375 53.03125 
Q 68.5625 53.03125 72.703125 48.75 
Q 76.859375 44.484375 76.859375 35.59375 
L 76.859375 0 
L 68.109375 0 
L 68.109375 32.671875 
Q 68.109375 37.9375 67.25 40.25 
Q 66.40625 42.578125 64.15625 43.984375 
Q 61.921875 45.40625 58.890625 45.40625 
Q 53.421875 45.40625 49.796875 41.765625 
Q 46.1875 38.140625 46.1875 30.125 
L 46.1875 0 
L 37.40625 0 
L 37.40625 33.6875 
Q 37.40625 39.546875 35.25 42.46875 
Q 33.109375 45.40625 28.21875 45.40625 
Q 24.515625 45.40625 21.359375 43.453125 
Q 18.21875 41.5 16.796875 37.734375 
Q 15.375 33.984375 15.375 26.90625 
L 15.375 0 
z
" id="ArialMT-109"/>
     <path d="M 21 0 
L 1.265625 51.859375 
L 10.546875 51.859375 
L 21.6875 20.796875 
Q 23.484375 15.765625 25 10.359375 
Q 26.171875 14.453125 28.265625 20.21875 
L 39.796875 51.859375 
L 48.828125 51.859375 
L 29.203125 0 
z
" id="ArialMT-118"/>
     <path d="M 6.390625 0 
L 6.390625 71.578125 
L 15.1875 71.578125 
L 15.1875 0 
z
" id="ArialMT-108"/>
     <path d="M 6.59375 0 
L 6.59375 71.578125 
L 15.375 71.578125 
L 15.375 45.90625 
Q 21.53125 53.03125 30.90625 53.03125 
Q 36.671875 53.03125 40.921875 50.75 
Q 45.171875 48.484375 47 44.484375 
Q 48.828125 40.484375 48.828125 32.859375 
L 48.828125 0 
L 40.046875 0 
L 40.046875 32.859375 
Q 40.046875 39.453125 37.1875 42.453125 
Q 34.328125 45.453125 29.109375 45.453125 
Q 25.203125 45.453125 21.75 43.421875 
Q 18.3125 41.40625 16.84375 37.9375 
Q 15.375 34.46875 15.375 28.375 
L 15.375 0 
z
" id="ArialMT-104"/>
     <path d="M 3.171875 21.484375 
L 3.171875 30.328125 
L 30.171875 30.328125 
L 30.171875 21.484375 
z
" id="ArialMT-45"/>
     <path d="M 7.625 0 
L 7.625 71.578125 
L 17.328125 71.578125 
L 54.9375 15.375 
L 54.9375 71.578125 
L 64.015625 71.578125 
L 64.015625 0 
L 54.296875 0 
L 16.703125 56.25 
L 16.703125 0 
z
" id="ArialMT-78"/>
     <path d="M 16.15625 0 
L 0.296875 51.859375 
L 9.375 51.859375 
L 17.625 21.921875 
L 20.703125 10.796875 
Q 20.90625 11.625 23.390625 21.484375 
L 31.640625 51.859375 
L 40.671875 51.859375 
L 48.4375 21.78125 
L 51.03125 11.859375 
L 54 21.875 
L 62.890625 51.859375 
L 71.4375 51.859375 
L 55.21875 0 
L 46.09375 0 
L 37.84375 31.0625 
L 35.84375 39.890625 
L 25.34375 0 
z
" id="ArialMT-119"/>
     <path d="M 7.421875 0 
L 7.421875 71.578125 
L 21.6875 71.578125 
L 38.625 20.90625 
Q 40.96875 13.8125 42.046875 10.296875 
Q 43.265625 14.203125 45.84375 21.78125 
L 62.984375 71.578125 
L 75.734375 71.578125 
L 75.734375 0 
L 66.609375 0 
L 66.609375 59.90625 
L 45.796875 0 
L 37.25 0 
L 16.546875 60.9375 
L 16.546875 0 
z
" id="ArialMT-77"/>
     <path d="M -1.515625 -19.875 
L -1.515625 -13.53125 
L 56.734375 -13.53125 
L 56.734375 -19.875 
z
" id="ArialMT-95"/>
     <path d="M 49.75 54.046875 
L 41.015625 53.375 
Q 39.84375 58.546875 37.703125 60.890625 
Q 34.125 64.65625 28.90625 64.65625 
Q 24.703125 64.65625 21.53125 62.3125 
Q 17.390625 59.28125 14.984375 53.46875 
Q 12.59375 47.65625 12.5 36.921875 
Q 15.671875 41.75 20.265625 44.09375 
Q 24.859375 46.4375 29.890625 46.4375 
Q 38.671875 46.4375 44.84375 39.96875 
Q 51.03125 33.5 51.03125 23.25 
Q 51.03125 16.5 48.125 10.71875 
Q 45.21875 4.9375 40.140625 1.859375 
Q 35.0625 -1.21875 28.609375 -1.21875 
Q 17.625 -1.21875 10.6875 6.859375 
Q 3.765625 14.9375 3.765625 33.5 
Q 3.765625 54.25 11.421875 63.671875 
Q 18.109375 71.875 29.4375 71.875 
Q 37.890625 71.875 43.28125 67.140625 
Q 48.6875 62.40625 49.75 54.046875 
z
M 13.875 23.1875 
Q 13.875 18.65625 15.796875 14.5 
Q 17.71875 10.359375 21.1875 8.171875 
Q 24.65625 6 28.46875 6 
Q 34.03125 6 38.03125 10.484375 
Q 42.046875 14.984375 42.046875 22.703125 
Q 42.046875 30.125 38.078125 34.390625 
Q 34.125 38.671875 28.125 38.671875 
Q 22.171875 38.671875 18.015625 34.390625 
Q 13.875 30.125 13.875 23.1875 
z
" id="ArialMT-54"/>
    </defs>
    <g style="fill:#262626;" transform="translate(89.110313 23.748375)scale(0.12 -0.12)">
     <use xlink:href="#ArialMT-68"/>
     <use x="72.216797" xlink:href="#ArialMT-105"/>
     <use x="94.433594" xlink:href="#ArialMT-115"/>
     <use x="144.433594" xlink:href="#ArialMT-116"/>
     <use x="172.216797" xlink:href="#ArialMT-114"/>
     <use x="205.517578" xlink:href="#ArialMT-105"/>
     <use x="227.734375" xlink:href="#ArialMT-98"/>
     <use x="283.349609" xlink:href="#ArialMT-117"/>
     <use x="338.964844" xlink:href="#ArialMT-116"/>
     <use x="366.748047" xlink:href="#ArialMT-105"/>
     <use x="388.964844" xlink:href="#ArialMT-111"/>
     <use x="444.580078" xlink:href="#ArialMT-110"/>
     <use x="500.195312" xlink:href="#ArialMT-32"/>
     <use x="527.978516" xlink:href="#ArialMT-111"/>
     <use x="583.59375" xlink:href="#ArialMT-102"/>
     <use x="611.376953" xlink:href="#ArialMT-32"/>
     <use x="639.160156" xlink:href="#ArialMT-112"/>
     <use x="694.775391" xlink:href="#ArialMT-114"/>
     <use x="728.076172" xlink:href="#ArialMT-111"/>
     <use x="783.691406" xlink:href="#ArialMT-106"/>
     <use x="805.908203" xlink:href="#ArialMT-101"/>
     <use x="861.523438" xlink:href="#ArialMT-99"/>
     <use x="911.523438" xlink:href="#ArialMT-116"/>
     <use x="939.306641" xlink:href="#ArialMT-101"/>
     <use x="994.921875" xlink:href="#ArialMT-100"/>
     <use x="1050.537109" xlink:href="#ArialMT-32"/>
     <use x="1078.320312" xlink:href="#ArialMT-101"/>
     <use x="1133.935547" xlink:href="#ArialMT-121"/>
     <use x="1183.935547" xlink:href="#ArialMT-101"/>
     <use x="1239.550781" xlink:href="#ArialMT-32"/>
     <use x="1267.333984" xlink:href="#ArialMT-109"/>
     <use x="1350.634766" xlink:href="#ArialMT-111"/>
     <use x="1406.25" xlink:href="#ArialMT-118"/>
     <use x="1456.25" xlink:href="#ArialMT-101"/>
     <use x="1511.865234" xlink:href="#ArialMT-109"/>
     <use x="1595.166016" xlink:href="#ArialMT-101"/>
     <use x="1650.78125" xlink:href="#ArialMT-110"/>
     <use x="1706.396484" xlink:href="#ArialMT-116"/>
     <use x="1734.179688" xlink:href="#ArialMT-32"/>
     <use x="1761.962891" xlink:href="#ArialMT-118"/>
     <use x="1811.962891" xlink:href="#ArialMT-101"/>
     <use x="1867.578125" xlink:href="#ArialMT-108"/>
     <use x="1889.794922" xlink:href="#ArialMT-111"/>
     <use x="1945.410156" xlink:href="#ArialMT-99"/>
     <use x="1995.410156" xlink:href="#ArialMT-105"/>
     <use x="2017.626953" xlink:href="#ArialMT-116"/>
     <use x="2045.410156" xlink:href="#ArialMT-121"/>
     <use x="2095.410156" xlink:href="#ArialMT-32"/>
     <use x="2123.193359" xlink:href="#ArialMT-111"/>
     <use x="2178.808594" xlink:href="#ArialMT-110"/>
     <use x="2234.423828" xlink:href="#ArialMT-32"/>
     <use x="2262.207031" xlink:href="#ArialMT-116"/>
     <use x="2289.990234" xlink:href="#ArialMT-104"/>
     <use x="2345.605469" xlink:href="#ArialMT-101"/>
     <use x="2401.220703" xlink:href="#ArialMT-32"/>
     <use x="2429.003906" xlink:href="#ArialMT-115"/>
     <use x="2479.003906" xlink:href="#ArialMT-99"/>
     <use x="2529.003906" xlink:href="#ArialMT-114"/>
     <use x="2562.304688" xlink:href="#ArialMT-101"/>
     <use x="2617.919922" xlink:href="#ArialMT-101"/>
     <use x="2673.535156" xlink:href="#ArialMT-110"/>
     <use x="2729.150391" xlink:href="#ArialMT-32"/>
     <use x="2756.933594" xlink:href="#ArialMT-45"/>
     <use x="2790.234375" xlink:href="#ArialMT-32"/>
     <use x="2818.017578" xlink:href="#ArialMT-78"/>
     <use x="2890.234375" xlink:href="#ArialMT-101"/>
     <use x="2945.849609" xlink:href="#ArialMT-119"/>
     <use x="3018.066406" xlink:href="#ArialMT-77"/>
     <use x="3101.367188" xlink:href="#ArialMT-53"/>
     <use x="3156.982422" xlink:href="#ArialMT-95"/>
     <use x="3212.597656" xlink:href="#ArialMT-54"/>
     <use x="3268.212891" xlink:href="#ArialMT-95"/>
     <use x="3323.828125" xlink:href="#ArialMT-50"/>
     <use x="3379.443359" xlink:href="#ArialMT-50"/>
    </g>
   </g>
   <g id="legend_1">
    <g id="line2d_18">
     <path d="M 196.151563 60.2075 
L 216.151563 60.2075 
" style="fill:none;stroke:#ff0000;stroke-dasharray:7.4,3.2;stroke-dashoffset:0;stroke-width:2;"/>
    </g>
    <g id="line2d_19"/>
    <g id="text_18">
     <!-- Average angle in dark: -61.37 degrees -->
     <defs>
      <path d="M -0.140625 0 
L 27.34375 71.578125 
L 37.546875 71.578125 
L 66.84375 0 
L 56.0625 0 
L 47.703125 21.6875 
L 17.78125 21.6875 
L 9.90625 0 
z
M 20.515625 29.390625 
L 44.78125 29.390625 
L 37.3125 49.21875 
Q 33.890625 58.25 32.234375 64.0625 
Q 30.859375 57.171875 28.375 50.390625 
z
" id="ArialMT-65"/>
      <path d="M 40.4375 6.390625 
Q 35.546875 2.25 31.03125 0.53125 
Q 26.515625 -1.171875 21.34375 -1.171875 
Q 12.796875 -1.171875 8.203125 3 
Q 3.609375 7.171875 3.609375 13.671875 
Q 3.609375 17.484375 5.34375 20.625 
Q 7.078125 23.78125 9.890625 25.6875 
Q 12.703125 27.59375 16.21875 28.5625 
Q 18.796875 29.25 24.03125 29.890625 
Q 34.671875 31.15625 39.703125 32.90625 
Q 39.75 34.71875 39.75 35.203125 
Q 39.75 40.578125 37.25 42.78125 
Q 33.890625 45.75 27.25 45.75 
Q 21.046875 45.75 18.09375 43.578125 
Q 15.140625 41.40625 13.71875 35.890625 
L 5.125 37.0625 
Q 6.296875 42.578125 8.984375 45.96875 
Q 11.671875 49.359375 16.75 51.1875 
Q 21.828125 53.03125 28.515625 53.03125 
Q 35.15625 53.03125 39.296875 51.46875 
Q 43.453125 49.90625 45.40625 47.53125 
Q 47.359375 45.171875 48.140625 41.546875 
Q 48.578125 39.3125 48.578125 33.453125 
L 48.578125 21.734375 
Q 48.578125 9.46875 49.140625 6.21875 
Q 49.703125 2.984375 51.375 0 
L 42.1875 0 
Q 40.828125 2.734375 40.4375 6.390625 
z
M 39.703125 26.03125 
Q 34.90625 24.078125 25.34375 22.703125 
Q 19.921875 21.921875 17.671875 20.9375 
Q 15.4375 19.96875 14.203125 18.09375 
Q 12.984375 16.21875 12.984375 13.921875 
Q 12.984375 10.40625 15.640625 8.0625 
Q 18.3125 5.71875 23.4375 5.71875 
Q 28.515625 5.71875 32.46875 7.9375 
Q 36.421875 10.15625 38.28125 14.015625 
Q 39.703125 17 39.703125 22.796875 
z
" id="ArialMT-97"/>
      <path d="M 4.984375 -4.296875 
L 13.53125 -5.5625 
Q 14.0625 -9.515625 16.5 -11.328125 
Q 19.78125 -13.765625 25.4375 -13.765625 
Q 31.546875 -13.765625 34.859375 -11.328125 
Q 38.1875 -8.890625 39.359375 -4.5 
Q 40.046875 -1.8125 39.984375 6.78125 
Q 34.234375 0 25.640625 0 
Q 14.9375 0 9.078125 7.71875 
Q 3.21875 15.4375 3.21875 26.21875 
Q 3.21875 33.640625 5.90625 39.90625 
Q 8.59375 46.1875 13.6875 49.609375 
Q 18.796875 53.03125 25.6875 53.03125 
Q 34.859375 53.03125 40.828125 45.609375 
L 40.828125 51.859375 
L 48.921875 51.859375 
L 48.921875 7.03125 
Q 48.921875 -5.078125 46.453125 -10.125 
Q 44 -15.1875 38.640625 -18.109375 
Q 33.296875 -21.046875 25.484375 -21.046875 
Q 16.21875 -21.046875 10.5 -16.875 
Q 4.78125 -12.703125 4.984375 -4.296875 
z
M 12.25 26.859375 
Q 12.25 16.65625 16.296875 11.96875 
Q 20.359375 7.28125 26.46875 7.28125 
Q 32.515625 7.28125 36.609375 11.9375 
Q 40.71875 16.609375 40.71875 26.5625 
Q 40.71875 36.078125 36.5 40.90625 
Q 32.28125 45.75 26.3125 45.75 
Q 20.453125 45.75 16.34375 40.984375 
Q 12.25 36.234375 12.25 26.859375 
z
" id="ArialMT-103"/>
      <path d="M 6.640625 0 
L 6.640625 71.578125 
L 15.4375 71.578125 
L 15.4375 30.765625 
L 36.234375 51.859375 
L 47.609375 51.859375 
L 27.78125 32.625 
L 49.609375 0 
L 38.765625 0 
L 21.625 26.515625 
L 15.4375 20.5625 
L 15.4375 0 
z
" id="ArialMT-107"/>
      <path d="M 9.03125 41.84375 
L 9.03125 51.859375 
L 19.046875 51.859375 
L 19.046875 41.84375 
z
M 9.03125 0 
L 9.03125 10.015625 
L 19.046875 10.015625 
L 19.046875 0 
z
" id="ArialMT-58"/>
     </defs>
     <g style="fill:#262626;" transform="translate(224.151563 63.7075)scale(0.1 -0.1)">
      <use xlink:href="#ArialMT-65"/>
      <use x="66.683594" xlink:href="#ArialMT-118"/>
      <use x="116.683594" xlink:href="#ArialMT-101"/>
      <use x="172.298828" xlink:href="#ArialMT-114"/>
      <use x="205.599609" xlink:href="#ArialMT-97"/>
      <use x="261.214844" xlink:href="#ArialMT-103"/>
      <use x="316.830078" xlink:href="#ArialMT-101"/>
      <use x="372.445312" xlink:href="#ArialMT-32"/>
      <use x="400.228516" xlink:href="#ArialMT-97"/>
      <use x="455.84375" xlink:href="#ArialMT-110"/>
      <use x="511.458984" xlink:href="#ArialMT-103"/>
      <use x="567.074219" xlink:href="#ArialMT-108"/>
      <use x="589.291016" xlink:href="#ArialMT-101"/>
      <use x="644.90625" xlink:href="#ArialMT-32"/>
      <use x="672.689453" xlink:href="#ArialMT-105"/>
      <use x="694.90625" xlink:href="#ArialMT-110"/>
      <use x="750.521484" xlink:href="#ArialMT-32"/>
      <use x="778.304688" xlink:href="#ArialMT-100"/>
      <use x="833.919922" xlink:href="#ArialMT-97"/>
      <use x="889.535156" xlink:href="#ArialMT-114"/>
      <use x="922.835938" xlink:href="#ArialMT-107"/>
      <use x="972.835938" xlink:href="#ArialMT-58"/>
      <use x="1000.619141" xlink:href="#ArialMT-32"/>
      <use x="1028.402344" xlink:href="#ArialMT-45"/>
      <use x="1061.703125" xlink:href="#ArialMT-54"/>
      <use x="1117.318359" xlink:href="#ArialMT-49"/>
      <use x="1172.933594" xlink:href="#ArialMT-46"/>
      <use x="1200.716797" xlink:href="#ArialMT-51"/>
      <use x="1256.332031" xlink:href="#ArialMT-55"/>
      <use x="1311.947266" xlink:href="#ArialMT-32"/>
      <use x="1339.730469" xlink:href="#ArialMT-100"/>
      <use x="1395.345703" xlink:href="#ArialMT-101"/>
      <use x="1450.960938" xlink:href="#ArialMT-103"/>
      <use x="1506.576172" xlink:href="#ArialMT-114"/>
      <use x="1539.876953" xlink:href="#ArialMT-101"/>
      <use x="1595.492188" xlink:href="#ArialMT-101"/>
      <use x="1651.107422" xlink:href="#ArialMT-115"/>
     </g>
    </g>
    <g id="PathCollection_4">
     <g>
      <use style="fill:#4c72b0;stroke:#4c72b0;stroke-width:0.3;" x="206.151563" xlink:href="#mce670acb77" y="75.345"/>
     </g>
    </g>
    <g id="text_19">
     <!-- $-0.5 &lt; t &lt; 0.$ -->
     <defs>
      <path d="M 10.59375 35.5 
L 73.1875 35.5 
L 73.1875 27.203125 
L 10.59375 27.203125 
z
" id="DejaVuSans-8722"/>
      <path d="M 31.78125 66.40625 
Q 24.171875 66.40625 20.328125 58.90625 
Q 16.5 51.421875 16.5 36.375 
Q 16.5 21.390625 20.328125 13.890625 
Q 24.171875 6.390625 31.78125 6.390625 
Q 39.453125 6.390625 43.28125 13.890625 
Q 47.125 21.390625 47.125 36.375 
Q 47.125 51.421875 43.28125 58.90625 
Q 39.453125 66.40625 31.78125 66.40625 
z
M 31.78125 74.21875 
Q 44.046875 74.21875 50.515625 64.515625 
Q 56.984375 54.828125 56.984375 36.375 
Q 56.984375 17.96875 50.515625 8.265625 
Q 44.046875 -1.421875 31.78125 -1.421875 
Q 19.53125 -1.421875 13.0625 8.265625 
Q 6.59375 17.96875 6.59375 36.375 
Q 6.59375 54.828125 13.0625 64.515625 
Q 19.53125 74.21875 31.78125 74.21875 
z
" id="DejaVuSans-48"/>
      <path d="M 10.6875 12.40625 
L 21 12.40625 
L 21 0 
L 10.6875 0 
z
" id="DejaVuSans-46"/>
      <path d="M 10.796875 72.90625 
L 49.515625 72.90625 
L 49.515625 64.59375 
L 19.828125 64.59375 
L 19.828125 46.734375 
Q 21.96875 47.46875 24.109375 47.828125 
Q 26.265625 48.1875 28.421875 48.1875 
Q 40.625 48.1875 47.75 41.5 
Q 54.890625 34.8125 54.890625 23.390625 
Q 54.890625 11.625 47.5625 5.09375 
Q 40.234375 -1.421875 26.90625 -1.421875 
Q 22.3125 -1.421875 17.546875 -0.640625 
Q 12.796875 0.140625 7.71875 1.703125 
L 7.71875 11.625 
Q 12.109375 9.234375 16.796875 8.0625 
Q 21.484375 6.890625 26.703125 6.890625 
Q 35.15625 6.890625 40.078125 11.328125 
Q 45.015625 15.765625 45.015625 23.390625 
Q 45.015625 31 40.078125 35.4375 
Q 35.15625 39.890625 26.703125 39.890625 
Q 22.75 39.890625 18.8125 39.015625 
Q 14.890625 38.140625 10.796875 36.28125 
z
" id="DejaVuSans-53"/>
      <path d="M 73.1875 49.21875 
L 22.796875 31.296875 
L 73.1875 13.484375 
L 73.1875 4.59375 
L 10.59375 27.296875 
L 10.59375 35.40625 
L 73.1875 58.109375 
z
" id="DejaVuSans-60"/>
      <path d="M 42.28125 54.6875 
L 40.921875 47.703125 
L 23 47.703125 
L 17.1875 18.015625 
Q 16.890625 16.359375 16.75 15.234375 
Q 16.609375 14.109375 16.609375 13.484375 
Q 16.609375 10.359375 18.484375 8.9375 
Q 20.359375 7.515625 24.515625 7.515625 
L 33.59375 7.515625 
L 32.078125 0 
L 23.484375 0 
Q 15.484375 0 11.546875 3.125 
Q 7.625 6.25 7.625 12.59375 
Q 7.625 13.71875 7.765625 15.0625 
Q 7.90625 16.40625 8.203125 18.015625 
L 14.015625 47.703125 
L 6.390625 47.703125 
L 7.8125 54.6875 
L 15.28125 54.6875 
L 18.3125 70.21875 
L 27.296875 70.21875 
L 24.3125 54.6875 
z
" id="DejaVuSans-Oblique-116"/>
     </defs>
     <g style="fill:#262626;" transform="translate(224.151563 77.97)scale(0.1 -0.1)">
      <use transform="translate(0 0.78125)" xlink:href="#DejaVuSans-8722"/>
      <use transform="translate(83.789062 0.78125)" xlink:href="#DejaVuSans-48"/>
      <use transform="translate(147.412109 0.78125)" xlink:href="#DejaVuSans-46"/>
      <use transform="translate(179.199219 0.78125)" xlink:href="#DejaVuSans-53"/>
      <use transform="translate(262.304688 0.78125)" xlink:href="#DejaVuSans-60"/>
      <use transform="translate(365.576172 0.78125)" xlink:href="#DejaVuSans-Oblique-116"/>
      <use transform="translate(424.267578 0.78125)" xlink:href="#DejaVuSans-60"/>
      <use transform="translate(527.539062 0.78125)" xlink:href="#DejaVuSans-48"/>
     </g>
    </g>
    <g id="PathCollection_5">
     <g>
      <use style="fill:#55a868;stroke:#55a868;stroke-width:0.3;" x="206.151563" xlink:href="#m5278460f80" y="89.490312"/>
     </g>
    </g>
    <g id="text_20">
     <!-- $0. &lt; t &lt; 0.5$ -->
     <g style="fill:#262626;" transform="translate(224.151563 92.115312)scale(0.1 -0.1)">
      <use transform="translate(0 0.78125)" xlink:href="#DejaVuSans-48"/>
      <use transform="translate(63.623047 0.78125)" xlink:href="#DejaVuSans-46"/>
      <use transform="translate(134.375 0.78125)" xlink:href="#DejaVuSans-60"/>
      <use transform="translate(237.646484 0.78125)" xlink:href="#DejaVuSans-Oblique-116"/>
      <use transform="translate(296.337891 0.78125)" xlink:href="#DejaVuSans-60"/>
      <use transform="translate(399.609375 0.78125)" xlink:href="#DejaVuSans-48"/>
      <use transform="translate(463.232422 0.78125)" xlink:href="#DejaVuSans-46"/>
      <use transform="translate(495.019531 0.78125)" xlink:href="#DejaVuSans-53"/>
     </g>
    </g>
    <g id="PathCollection_6">
     <g>
      <use style="fill:#c44e52;stroke:#c44e52;stroke-width:0.3;" x="206.151563" xlink:href="#m3ba95c3f53" y="103.635625"/>
     </g>
    </g>
    <g id="text_21">
     <!-- $0.5 &lt; t &lt; 1.$ -->
     <defs>
      <path d="M 12.40625 8.296875 
L 28.515625 8.296875 
L 28.515625 63.921875 
L 10.984375 60.40625 
L 10.984375 69.390625 
L 28.421875 72.90625 
L 38.28125 72.90625 
L 38.28125 8.296875 
L 54.390625 8.296875 
L 54.390625 0 
L 12.40625 0 
z
" id="DejaVuSans-49"/>
     </defs>
     <g style="fill:#262626;" transform="translate(224.151563 106.260625)scale(0.1 -0.1)">
      <use transform="translate(0 0.78125)" xlink:href="#DejaVuSans-48"/>
      <use transform="translate(63.623047 0.78125)" xlink:href="#DejaVuSans-46"/>
      <use transform="translate(95.410156 0.78125)" xlink:href="#DejaVuSans-53"/>
      <use transform="translate(178.515625 0.78125)" xlink:href="#DejaVuSans-60"/>
      <use transform="translate(281.787109 0.78125)" xlink:href="#DejaVuSans-Oblique-116"/>
      <use transform="translate(340.478516 0.78125)" xlink:href="#DejaVuSans-60"/>
      <use transform="translate(443.75 0.78125)" xlink:href="#DejaVuSans-49"/>
     </g>
    </g>
   </g>
  </g>
 </g>
 <defs>
  <clipPath id="pea3861be39">
   <path d="M 447.66 199.98 
C 447.66 179.959136 443.716326 160.13295 436.054674 141.636084 
C 428.393021 123.139218 417.162388 106.331389 403.0055 92.1745 
C 388.848611 78.017612 372.040782 66.786979 353.543916 59.125326 
C 335.04705 51.463674 315.220864 47.52 295.2 47.52 
C 275.179136 47.52 255.35295 51.463674 236.856084 59.125326 
C 218.359218 66.786979 201.551389 78.017612 187.3945 92.1745 
C 173.237612 106.331389 162.006979 123.139218 154.345326 141.636084 
C 146.683674 160.13295 142.74 179.959136 142.74 199.98 
C 142.74 220.000864 146.683674 239.82705 154.345326 258.323916 
C 162.006979 276.820782 173.237612 293.628611 187.3945 307.7855 
C 201.551389 321.942388 218.359218 333.173021 236.856084 340.834674 
C 255.35295 348.496326 275.179136 352.44 295.2 352.44 
C 315.220864 352.44 335.04705 348.496326 353.543916 340.834674 
C 372.040782 333.173021 388.848611 321.942388 403.0055 307.7855 
C 417.162388 293.628611 428.393021 276.820782 436.054674 258.323916 
C 443.716326 239.82705 447.66 220.000864 447.66 199.98 
M 295.2 199.98 
C 295.2 199.98 295.2 199.98 295.2 199.98 
C 295.2 199.98 295.2 199.98 295.2 199.98 
C 295.2 199.98 295.2 199.98 295.2 199.98 
C 295.2 199.98 295.2 199.98 295.2 199.98 
C 295.2 199.98 295.2 199.98 295.2 199.98 
C 295.2 199.98 295.2 199.98 295.2 199.98 
C 295.2 199.98 295.2 199.98 295.2 199.98 
C 295.2 199.98 295.2 199.98 295.2 199.98 
C 295.2 199.98 295.2 199.98 295.2 199.98 
C 295.2 199.98 295.2 199.98 295.2 199.98 
C 295.2 199.98 295.2 199.98 295.2 199.98 
C 295.2 199.98 295.2 199.98 295.2 199.98 
C 295.2 199.98 295.2 199.98 295.2 199.98 
C 295.2 199.98 295.2 199.98 295.2 199.98 
C 295.2 199.98 295.2 199.98 295.2 199.98 
C 295.2 199.98 295.2 199.98 295.2 199.98 
M 447.66 199.98 
z
"/>
  </clipPath>
 </defs>
</svg>
