<?xml version="1.0" encoding="utf-8" standalone="no"?>
<!DOCTYPE svg PUBLIC "-//W3C//DTD SVG 1.1//EN"
  "http://www.w3.org/Graphics/SVG/1.1/DTD/svg11.dtd">
<!-- Created with matplotlib (https://matplotlib.org/) -->
<svg height="396pt" version="1.1" viewBox="0 0 576 396" width="576pt" xmlns="http://www.w3.org/2000/svg" xmlns:xlink="http://www.w3.org/1999/xlink">
 <defs>
  <style type="text/css">
*{stroke-linecap:butt;stroke-linejoin:round;}
  </style>
 </defs>
 <g id="figure_1">
  <g id="patch_1">
   <path d="M 0 396 
L 576 396 
L 576 0 
L 0 0 
z
" style="fill:#ffffff;"/>
  </g>
  <g id="axes_1">
   <g id="patch_2">
    <path d="M 447.66 199.98 
C 447.66 179.959136 443.716326 160.13295 436.054674 141.636084 
C 428.393021 123.139218 417.162388 106.331389 403.0055 92.1745 
C 388.848611 78.017612 372.040782 66.786979 353.543916 59.125326 
C 335.04705 51.463674 315.220864 47.52 295.2 47.52 
C 275.179136 47.52 255.35295 51.463674 236.856084 59.125326 
C 218.359218 66.786979 201.551389 78.017612 187.3945 92.1745 
C 173.237612 106.331389 162.006979 123.139218 154.345326 141.636084 
C 146.683674 160.13295 142.74 179.959136 142.74 199.98 
C 142.74 220.000864 146.683674 239.82705 154.345326 258.323916 
C 162.006979 276.820782 173.237612 293.628611 187.3945 307.7855 
C 201.551389 321.942388 218.359218 333.173021 236.856084 340.834674 
C 255.35295 348.496326 275.179136 352.44 295.2 352.44 
C 315.220864 352.44 335.04705 348.496326 353.543916 340.834674 
C 372.040782 333.173021 388.848611 321.942388 403.0055 307.7855 
C 417.162388 293.628611 428.393021 276.820782 436.054674 258.323916 
C 443.716326 239.82705 447.66 220.000864 447.66 199.98 
M 295.2 199.98 
C 295.2 199.98 295.2 199.98 295.2 199.98 
C 295.2 199.98 295.2 199.98 295.2 199.98 
C 295.2 199.98 295.2 199.98 295.2 199.98 
C 295.2 199.98 295.2 199.98 295.2 199.98 
C 295.2 199.98 295.2 199.98 295.2 199.98 
C 295.2 199.98 295.2 199.98 295.2 199.98 
C 295.2 199.98 295.2 199.98 295.2 199.98 
C 295.2 199.98 295.2 199.98 295.2 199.98 
C 295.2 199.98 295.2 199.98 295.2 199.98 
C 295.2 199.98 295.2 199.98 295.2 199.98 
C 295.2 199.98 295.2 199.98 295.2 199.98 
C 295.2 199.98 295.2 199.98 295.2 199.98 
C 295.2 199.98 295.2 199.98 295.2 199.98 
C 295.2 199.98 295.2 199.98 295.2 199.98 
C 295.2 199.98 295.2 199.98 295.2 199.98 
C 295.2 199.98 295.2 199.98 295.2 199.98 
M 447.66 199.98 
z
" style="fill:#eaeaf2;"/>
   </g>
   <g id="matplotlib.axis_1">
    <g id="xtick_1">
     <g id="line2d_1">
      <path clip-path="url(#p7b8b595923)" d="M 295.2 199.98 
L 447.66 199.98 
" style="fill:none;stroke:#ffffff;stroke-linecap:round;"/>
     </g>
     <g id="text_1">
      <!-- 0° -->
      <defs>
       <path d="M 4.15625 35.296875 
Q 4.15625 48 6.765625 55.734375 
Q 9.375 63.484375 14.515625 67.671875 
Q 19.671875 71.875 27.484375 71.875 
Q 33.25 71.875 37.59375 69.546875 
Q 41.9375 67.234375 44.765625 62.859375 
Q 47.609375 58.5 49.21875 52.21875 
Q 50.828125 45.953125 50.828125 35.296875 
Q 50.828125 22.703125 48.234375 14.96875 
Q 45.65625 7.234375 40.5 3 
Q 35.359375 -1.21875 27.484375 -1.21875 
Q 17.140625 -1.21875 11.234375 6.203125 
Q 4.15625 15.140625 4.15625 35.296875 
z
M 13.1875 35.296875 
Q 13.1875 17.671875 17.3125 11.828125 
Q 21.4375 6 27.484375 6 
Q 33.546875 6 37.671875 11.859375 
Q 41.796875 17.71875 41.796875 35.296875 
Q 41.796875 52.984375 37.671875 58.78125 
Q 33.546875 64.59375 27.390625 64.59375 
Q 21.34375 64.59375 17.71875 59.46875 
Q 13.1875 52.9375 13.1875 35.296875 
z
" id="ArialMT-48"/>
       <path d="M 6.25 59.28125 
Q 6.25 64.890625 10.21875 68.84375 
Q 14.203125 72.796875 19.78125 72.796875 
Q 25.4375 72.796875 29.390625 68.84375 
Q 33.34375 64.890625 33.34375 59.28125 
Q 33.34375 53.65625 29.359375 49.671875 
Q 25.390625 45.703125 19.78125 45.703125 
Q 14.203125 45.703125 10.21875 49.65625 
Q 6.25 53.609375 6.25 59.28125 
z
M 11.578125 59.28125 
Q 11.578125 55.859375 13.984375 53.4375 
Q 16.40625 51.03125 19.828125 51.03125 
Q 23.1875 51.03125 25.609375 53.4375 
Q 28.03125 55.859375 28.03125 59.28125 
Q 28.03125 62.703125 25.609375 65.109375 
Q 23.1875 67.53125 19.828125 67.53125 
Q 16.40625 67.53125 13.984375 65.109375 
Q 11.578125 62.703125 11.578125 59.28125 
z
" id="ArialMT-176"/>
      </defs>
      <g style="fill:#262626;" transform="translate(456.880313 202.565156)scale(0.1 -0.1)">
       <use xlink:href="#ArialMT-48"/>
       <use x="55.615234" xlink:href="#ArialMT-176"/>
      </g>
     </g>
    </g>
    <g id="xtick_2">
     <g id="line2d_2">
      <path clip-path="url(#p7b8b595923)" d="M 295.2 199.98 
L 403.0055 92.1745 
" style="fill:none;stroke:#ffffff;stroke-linecap:round;"/>
     </g>
     <g id="text_2">
      <!-- 45° -->
      <defs>
       <path d="M 32.328125 0 
L 32.328125 17.140625 
L 1.265625 17.140625 
L 1.265625 25.203125 
L 33.9375 71.578125 
L 41.109375 71.578125 
L 41.109375 25.203125 
L 50.78125 25.203125 
L 50.78125 17.140625 
L 41.109375 17.140625 
L 41.109375 0 
z
M 32.328125 25.203125 
L 32.328125 57.46875 
L 9.90625 25.203125 
z
" id="ArialMT-52"/>
       <path d="M 4.15625 18.75 
L 13.375 19.53125 
Q 14.40625 12.796875 18.140625 9.390625 
Q 21.875 6 27.15625 6 
Q 33.5 6 37.890625 10.78125 
Q 42.28125 15.578125 42.28125 23.484375 
Q 42.28125 31 38.0625 35.34375 
Q 33.84375 39.703125 27 39.703125 
Q 22.75 39.703125 19.328125 37.765625 
Q 15.921875 35.84375 13.96875 32.765625 
L 5.71875 33.84375 
L 12.640625 70.609375 
L 48.25 70.609375 
L 48.25 62.203125 
L 19.671875 62.203125 
L 15.828125 42.96875 
Q 22.265625 47.46875 29.34375 47.46875 
Q 38.71875 47.46875 45.15625 40.96875 
Q 51.609375 34.46875 51.609375 24.265625 
Q 51.609375 14.546875 45.953125 7.46875 
Q 39.0625 -1.21875 27.15625 -1.21875 
Q 17.390625 -1.21875 11.203125 4.25 
Q 5.03125 9.71875 4.15625 18.75 
z
" id="ArialMT-53"/>
      </defs>
      <g style="fill:#262626;" transform="translate(405.344839 84.860161)scale(0.1 -0.1)">
       <use xlink:href="#ArialMT-52"/>
       <use x="55.615234" xlink:href="#ArialMT-53"/>
       <use x="111.230469" xlink:href="#ArialMT-176"/>
      </g>
     </g>
    </g>
    <g id="xtick_3">
     <g id="line2d_3">
      <path clip-path="url(#p7b8b595923)" d="M 295.2 199.98 
L 295.2 47.52 
" style="fill:none;stroke:#ffffff;stroke-linecap:round;"/>
     </g>
     <g id="text_3">
      <!-- 90° -->
      <defs>
       <path d="M 5.46875 16.546875 
L 13.921875 17.328125 
Q 14.984375 11.375 18.015625 8.6875 
Q 21.046875 6 25.78125 6 
Q 29.828125 6 32.875 7.859375 
Q 35.9375 9.71875 37.890625 12.8125 
Q 39.84375 15.921875 41.15625 21.1875 
Q 42.484375 26.46875 42.484375 31.9375 
Q 42.484375 32.515625 42.4375 33.6875 
Q 39.796875 29.5 35.234375 26.875 
Q 30.671875 24.265625 25.34375 24.265625 
Q 16.453125 24.265625 10.296875 30.703125 
Q 4.15625 37.15625 4.15625 47.703125 
Q 4.15625 58.59375 10.578125 65.234375 
Q 17 71.875 26.65625 71.875 
Q 33.640625 71.875 39.421875 68.109375 
Q 45.21875 64.359375 48.21875 57.390625 
Q 51.21875 50.4375 51.21875 37.25 
Q 51.21875 23.53125 48.234375 15.40625 
Q 45.265625 7.28125 39.375 3.03125 
Q 33.5 -1.21875 25.59375 -1.21875 
Q 17.1875 -1.21875 11.859375 3.4375 
Q 6.546875 8.109375 5.46875 16.546875 
z
M 41.453125 48.140625 
Q 41.453125 55.71875 37.421875 60.15625 
Q 33.40625 64.59375 27.734375 64.59375 
Q 21.875 64.59375 17.53125 59.8125 
Q 13.1875 55.03125 13.1875 47.40625 
Q 13.1875 40.578125 17.3125 36.296875 
Q 21.4375 32.03125 27.484375 32.03125 
Q 33.59375 32.03125 37.515625 36.296875 
Q 41.453125 40.578125 41.453125 48.140625 
z
" id="ArialMT-57"/>
      </defs>
      <g style="fill:#262626;" transform="translate(287.639844 36.105156)scale(0.1 -0.1)">
       <use xlink:href="#ArialMT-57"/>
       <use x="55.615234" xlink:href="#ArialMT-48"/>
       <use x="111.230469" xlink:href="#ArialMT-176"/>
      </g>
     </g>
    </g>
    <g id="xtick_4">
     <g id="line2d_4">
      <path clip-path="url(#p7b8b595923)" d="M 295.2 199.98 
L 187.3945 92.1745 
" style="fill:none;stroke:#ffffff;stroke-linecap:round;"/>
     </g>
     <g id="text_4">
      <!-- 135° -->
      <defs>
       <path d="M 37.25 0 
L 28.46875 0 
L 28.46875 56 
Q 25.296875 52.984375 20.140625 49.953125 
Q 14.984375 46.921875 10.890625 45.40625 
L 10.890625 53.90625 
Q 18.265625 57.375 23.78125 62.296875 
Q 29.296875 67.234375 31.59375 71.875 
L 37.25 71.875 
z
" id="ArialMT-49"/>
       <path d="M 4.203125 18.890625 
L 12.984375 20.0625 
Q 14.5 12.59375 18.140625 9.296875 
Q 21.78125 6 27 6 
Q 33.203125 6 37.46875 10.296875 
Q 41.75 14.59375 41.75 20.953125 
Q 41.75 27 37.796875 30.921875 
Q 33.84375 34.859375 27.734375 34.859375 
Q 25.25 34.859375 21.53125 33.890625 
L 22.515625 41.609375 
Q 23.390625 41.5 23.921875 41.5 
Q 29.546875 41.5 34.03125 44.421875 
Q 38.53125 47.359375 38.53125 53.46875 
Q 38.53125 58.296875 35.25 61.46875 
Q 31.984375 64.65625 26.8125 64.65625 
Q 21.6875 64.65625 18.265625 61.421875 
Q 14.84375 58.203125 13.875 51.765625 
L 5.078125 53.328125 
Q 6.6875 62.15625 12.390625 67.015625 
Q 18.109375 71.875 26.609375 71.875 
Q 32.46875 71.875 37.390625 69.359375 
Q 42.328125 66.84375 44.9375 62.5 
Q 47.5625 58.15625 47.5625 53.265625 
Q 47.5625 48.640625 45.0625 44.828125 
Q 42.578125 41.015625 37.703125 38.765625 
Q 44.046875 37.3125 47.5625 32.6875 
Q 51.078125 28.078125 51.078125 21.140625 
Q 51.078125 11.765625 44.234375 5.25 
Q 37.40625 -1.265625 26.953125 -1.265625 
Q 17.53125 -1.265625 11.296875 4.34375 
Q 5.078125 9.96875 4.203125 18.890625 
z
" id="ArialMT-51"/>
      </defs>
      <g style="fill:#262626;" transform="translate(167.15438 84.860161)scale(0.1 -0.1)">
       <use xlink:href="#ArialMT-49"/>
       <use x="55.615234" xlink:href="#ArialMT-51"/>
       <use x="111.230469" xlink:href="#ArialMT-53"/>
       <use x="166.845703" xlink:href="#ArialMT-176"/>
      </g>
     </g>
    </g>
    <g id="xtick_5">
     <g id="line2d_5">
      <path clip-path="url(#p7b8b595923)" d="M 295.2 199.98 
L 142.74 199.98 
" style="fill:none;stroke:#ffffff;stroke-linecap:round;"/>
     </g>
     <g id="text_5">
      <!-- 180° -->
      <defs>
       <path d="M 17.671875 38.8125 
Q 12.203125 40.828125 9.5625 44.53125 
Q 6.9375 48.25 6.9375 53.421875 
Q 6.9375 61.234375 12.546875 66.546875 
Q 18.171875 71.875 27.484375 71.875 
Q 36.859375 71.875 42.578125 66.421875 
Q 48.296875 60.984375 48.296875 53.171875 
Q 48.296875 48.1875 45.671875 44.5 
Q 43.0625 40.828125 37.75 38.8125 
Q 44.34375 36.671875 47.78125 31.875 
Q 51.21875 27.09375 51.21875 20.453125 
Q 51.21875 11.28125 44.71875 5.03125 
Q 38.234375 -1.21875 27.640625 -1.21875 
Q 17.046875 -1.21875 10.546875 5.046875 
Q 4.046875 11.328125 4.046875 20.703125 
Q 4.046875 27.6875 7.59375 32.390625 
Q 11.140625 37.109375 17.671875 38.8125 
z
M 15.921875 53.71875 
Q 15.921875 48.640625 19.1875 45.40625 
Q 22.46875 42.1875 27.6875 42.1875 
Q 32.765625 42.1875 36.015625 45.375 
Q 39.265625 48.578125 39.265625 53.21875 
Q 39.265625 58.0625 35.90625 61.359375 
Q 32.5625 64.65625 27.59375 64.65625 
Q 22.5625 64.65625 19.234375 61.421875 
Q 15.921875 58.203125 15.921875 53.71875 
z
M 13.09375 20.65625 
Q 13.09375 16.890625 14.875 13.375 
Q 16.65625 9.859375 20.171875 7.921875 
Q 23.6875 6 27.734375 6 
Q 34.03125 6 38.125 10.046875 
Q 42.234375 14.109375 42.234375 20.359375 
Q 42.234375 26.703125 38.015625 30.859375 
Q 33.796875 35.015625 27.4375 35.015625 
Q 21.234375 35.015625 17.15625 30.90625 
Q 13.09375 26.8125 13.09375 20.65625 
z
" id="ArialMT-56"/>
      </defs>
      <g style="fill:#262626;" transform="translate(118.399375 202.565156)scale(0.1 -0.1)">
       <use xlink:href="#ArialMT-49"/>
       <use x="55.615234" xlink:href="#ArialMT-56"/>
       <use x="111.230469" xlink:href="#ArialMT-48"/>
       <use x="166.845703" xlink:href="#ArialMT-176"/>
      </g>
     </g>
    </g>
    <g id="xtick_6">
     <g id="line2d_6">
      <path clip-path="url(#p7b8b595923)" d="M 295.2 199.98 
L 187.3945 307.7855 
" style="fill:none;stroke:#ffffff;stroke-linecap:round;"/>
     </g>
     <g id="text_6">
      <!-- 225° -->
      <defs>
       <path d="M 50.34375 8.453125 
L 50.34375 0 
L 3.03125 0 
Q 2.9375 3.171875 4.046875 6.109375 
Q 5.859375 10.9375 9.828125 15.625 
Q 13.8125 20.3125 21.34375 26.46875 
Q 33.015625 36.03125 37.109375 41.625 
Q 41.21875 47.21875 41.21875 52.203125 
Q 41.21875 57.421875 37.46875 61 
Q 33.734375 64.59375 27.734375 64.59375 
Q 21.390625 64.59375 17.578125 60.78125 
Q 13.765625 56.984375 13.71875 50.25 
L 4.6875 51.171875 
Q 5.609375 61.28125 11.65625 66.578125 
Q 17.71875 71.875 27.9375 71.875 
Q 38.234375 71.875 44.234375 66.15625 
Q 50.25 60.453125 50.25 52 
Q 50.25 47.703125 48.484375 43.546875 
Q 46.734375 39.40625 42.65625 34.8125 
Q 38.578125 30.21875 29.109375 22.21875 
Q 21.1875 15.578125 18.9375 13.203125 
Q 16.703125 10.84375 15.234375 8.453125 
z
" id="ArialMT-50"/>
      </defs>
      <g style="fill:#262626;" transform="translate(167.15438 320.270151)scale(0.1 -0.1)">
       <use xlink:href="#ArialMT-50"/>
       <use x="55.615234" xlink:href="#ArialMT-50"/>
       <use x="111.230469" xlink:href="#ArialMT-53"/>
       <use x="166.845703" xlink:href="#ArialMT-176"/>
      </g>
     </g>
    </g>
    <g id="xtick_7">
     <g id="line2d_7">
      <path clip-path="url(#p7b8b595923)" d="M 295.2 199.98 
L 295.2 352.44 
" style="fill:none;stroke:#ffffff;stroke-linecap:round;"/>
     </g>
     <g id="text_7">
      <!-- 270° -->
      <defs>
       <path d="M 4.734375 62.203125 
L 4.734375 70.65625 
L 51.078125 70.65625 
L 51.078125 63.8125 
Q 44.234375 56.546875 37.515625 44.484375 
Q 30.8125 32.421875 27.15625 19.671875 
Q 24.515625 10.6875 23.78125 0 
L 14.75 0 
Q 14.890625 8.453125 18.0625 20.40625 
Q 21.234375 32.375 27.171875 43.484375 
Q 33.109375 54.59375 39.796875 62.203125 
z
" id="ArialMT-55"/>
      </defs>
      <g style="fill:#262626;" transform="translate(284.859375 369.025156)scale(0.1 -0.1)">
       <use xlink:href="#ArialMT-50"/>
       <use x="55.615234" xlink:href="#ArialMT-55"/>
       <use x="111.230469" xlink:href="#ArialMT-48"/>
       <use x="166.845703" xlink:href="#ArialMT-176"/>
      </g>
     </g>
    </g>
    <g id="xtick_8">
     <g id="line2d_8">
      <path clip-path="url(#p7b8b595923)" d="M 295.2 199.98 
L 403.0055 307.7855 
" style="fill:none;stroke:#ffffff;stroke-linecap:round;"/>
     </g>
     <g id="text_8">
      <!-- 315° -->
      <g style="fill:#262626;" transform="translate(402.56437 320.270151)scale(0.1 -0.1)">
       <use xlink:href="#ArialMT-51"/>
       <use x="55.615234" xlink:href="#ArialMT-49"/>
       <use x="111.230469" xlink:href="#ArialMT-53"/>
       <use x="166.845703" xlink:href="#ArialMT-176"/>
      </g>
     </g>
    </g>
   </g>
   <g id="matplotlib.axis_2">
    <g id="ytick_1">
     <g id="line2d_9">
      <path clip-path="url(#p7b8b595923)" d="M 315.33038 199.98 
L 315.220103 197.875802 
L 314.890482 195.794659 
L 314.345129 193.759371 
L 313.590017 191.792237 
L 312.63342 189.91481 
L 311.485819 188.14766 
L 310.159787 186.510147 
L 308.669853 185.020213 
L 307.03234 183.694181 
L 305.26519 182.54658 
L 303.387763 181.589983 
L 301.420629 180.834871 
L 299.385341 180.289518 
L 297.304198 179.959897 
L 295.2 179.84962 
L 293.095802 179.959897 
L 291.014659 180.289518 
L 288.979371 180.834871 
L 287.012237 181.589983 
L 285.13481 182.54658 
L 283.36766 183.694181 
L 281.730147 185.020213 
L 280.240213 186.510147 
L 278.914181 188.14766 
L 277.76658 189.91481 
L 276.809983 191.792237 
L 276.054871 193.759371 
L 275.509518 195.794659 
L 275.179897 197.875802 
L 275.06962 199.98 
L 275.179897 202.084198 
L 275.509518 204.165341 
L 276.054871 206.200629 
L 276.809983 208.167763 
L 277.76658 210.04519 
L 278.914181 211.81234 
L 280.240213 213.449853 
L 281.730147 214.939787 
L 283.36766 216.265819 
L 285.13481 217.41342 
L 287.012237 218.370017 
L 288.979371 219.125129 
L 291.014659 219.670482 
L 293.095802 220.000103 
L 295.2 220.11038 
L 297.304198 220.000103 
L 299.385341 219.670482 
L 301.420629 219.125129 
L 303.387763 218.370017 
L 305.26519 217.41342 
L 307.03234 216.265819 
L 308.669853 214.939787 
L 310.159787 213.449853 
L 311.485819 211.81234 
L 312.63342 210.04519 
L 313.590017 208.167763 
L 314.345129 206.200629 
L 314.890482 204.165341 
L 315.220103 202.084198 
L 315.33038 199.98 
L 315.33038 199.98 
" style="fill:none;stroke:#ffffff;stroke-linecap:round;"/>
     </g>
     <g id="text_9">
      <!-- 0.25 -->
      <defs>
       <path d="M 9.078125 0 
L 9.078125 10.015625 
L 19.09375 10.015625 
L 19.09375 0 
z
" id="ArialMT-46"/>
      </defs>
      <g style="fill:#262626;" transform="translate(313.798046 190.288937)scale(0.1 -0.1)">
       <use xlink:href="#ArialMT-48"/>
       <use x="55.615234" xlink:href="#ArialMT-46"/>
       <use x="83.398438" xlink:href="#ArialMT-50"/>
       <use x="139.013672" xlink:href="#ArialMT-53"/>
      </g>
     </g>
    </g>
    <g id="ytick_2">
     <g id="line2d_10">
      <path clip-path="url(#p7b8b595923)" d="M 335.460759 199.98 
L 335.362686 197.171551 
L 335.068944 194.376785 
L 334.580965 191.609318 
L 333.901126 188.882631 
L 333.032738 186.210009 
L 331.980034 183.604474 
L 330.74814 181.078719 
L 329.34306 178.645048 
L 327.771638 176.31532 
L 326.041531 174.100883 
L 324.161166 172.012527 
L 322.139706 170.060425 
L 319.986998 168.254089 
L 317.713531 166.602318 
L 315.33038 165.11316 
L 312.849155 163.793869 
L 310.281946 162.650874 
L 307.641259 161.689743 
L 304.939959 160.915158 
L 302.191207 160.330892 
L 299.408395 159.939794 
L 296.60508 159.743767 
L 293.79492 159.743767 
L 290.991605 159.939794 
L 288.208793 160.330892 
L 285.460041 160.915158 
L 282.758741 161.689743 
L 280.118054 162.650874 
L 277.550845 163.793869 
L 275.06962 165.11316 
L 272.686469 166.602318 
L 270.413002 168.254089 
L 268.260294 170.060425 
L 266.238834 172.012527 
L 264.358469 174.100883 
L 262.628362 176.31532 
L 261.05694 178.645048 
L 259.65186 181.078719 
L 258.419966 183.604474 
L 257.367262 186.210009 
L 256.498874 188.882631 
L 255.819035 191.609318 
L 255.331056 194.376785 
L 255.037314 197.171551 
L 254.939241 199.98 
L 255.037314 202.788449 
L 255.331056 205.583215 
L 255.819035 208.350682 
L 256.498874 211.077369 
L 257.367262 213.749991 
L 258.419966 216.355526 
L 259.65186 218.881281 
L 261.05694 221.314952 
L 262.628362 223.64468 
L 264.358469 225.859117 
L 266.238834 227.947473 
L 268.260294 229.899575 
L 270.413002 231.705911 
L 272.686469 233.357682 
L 275.06962 234.84684 
L 277.550845 236.166131 
L 280.118054 237.309126 
L 282.758741 238.270257 
L 285.460041 239.044842 
L 288.208793 239.629108 
L 290.991605 240.020206 
L 293.79492 240.216233 
L 296.60508 240.216233 
L 299.408395 240.020206 
L 302.191207 239.629108 
L 304.939959 239.044842 
L 307.641259 238.270257 
L 310.281946 237.309126 
L 312.849155 236.166131 
L 315.33038 234.84684 
L 317.713531 233.357682 
L 319.986998 231.705911 
L 322.139706 229.899575 
L 324.161166 227.947473 
L 326.041531 225.859117 
L 327.771638 223.64468 
L 329.34306 221.314952 
L 330.74814 218.881281 
L 331.980034 216.355526 
L 333.032738 213.749991 
L 333.901126 211.077369 
L 334.580965 208.350682 
L 335.068944 205.583215 
L 335.362686 202.788449 
L 335.460759 199.98 
L 335.460759 199.98 
" style="fill:none;stroke:#ffffff;stroke-linecap:round;"/>
     </g>
     <g id="text_10">
      <!-- 0.50 -->
      <g style="fill:#262626;" transform="translate(332.396091 182.585375)scale(0.1 -0.1)">
       <use xlink:href="#ArialMT-48"/>
       <use x="55.615234" xlink:href="#ArialMT-46"/>
       <use x="83.398438" xlink:href="#ArialMT-53"/>
       <use x="139.013672" xlink:href="#ArialMT-48"/>
      </g>
     </g>
    </g>
    <g id="ytick_3">
     <g id="line2d_11">
      <path clip-path="url(#p7b8b595923)" d="M 355.591139 199.98 
L 355.444029 195.767327 
L 355.003416 191.575178 
L 354.271447 187.423976 
L 353.251688 183.333946 
L 351.949107 179.325014 
L 350.37005 175.416711 
L 348.52221 171.628078 
L 346.41459 167.977572 
L 344.057457 164.482979 
L 341.462296 161.161324 
L 338.64175 158.02879 
L 335.609559 155.100638 
L 332.380498 152.391133 
L 328.970296 149.913477 
L 325.395569 147.67974 
L 321.673733 145.700804 
L 317.822919 143.986311 
L 313.861888 142.544614 
L 309.809939 141.382736 
L 305.686811 140.506338 
L 301.512593 139.91969 
L 297.30762 139.62565 
L 293.09238 139.62565 
L 288.887407 139.91969 
L 284.713189 140.506338 
L 280.590061 141.382736 
L 276.538112 142.544614 
L 272.577081 143.986311 
L 268.726267 145.700804 
L 265.004431 147.67974 
L 261.429704 149.913477 
L 258.019502 152.391133 
L 254.790441 155.100638 
L 251.75825 158.02879 
L 248.937704 161.161324 
L 246.342543 164.482979 
L 243.98541 167.977572 
L 241.87779 171.628078 
L 240.02995 175.416711 
L 238.450893 179.325014 
L 237.148312 183.333946 
L 236.128553 187.423976 
L 235.396584 191.575178 
L 234.955971 195.767327 
L 234.808861 199.98 
L 234.955971 204.192673 
L 235.396584 208.384822 
L 236.128553 212.536024 
L 237.148312 216.626054 
L 238.450893 220.634986 
L 240.02995 224.543289 
L 241.87779 228.331922 
L 243.98541 231.982428 
L 246.342543 235.477021 
L 248.937704 238.798676 
L 251.75825 241.93121 
L 254.790441 244.859362 
L 258.019502 247.568867 
L 261.429704 250.046523 
L 265.004431 252.28026 
L 268.726267 254.259196 
L 272.577081 255.973689 
L 276.538112 257.415386 
L 280.590061 258.577264 
L 284.713189 259.453662 
L 288.887407 260.04031 
L 293.09238 260.33435 
L 297.30762 260.33435 
L 301.512593 260.04031 
L 305.686811 259.453662 
L 309.809939 258.577264 
L 313.861888 257.415386 
L 317.822919 255.973689 
L 321.673733 254.259196 
L 325.395569 252.28026 
L 328.970296 250.046523 
L 332.380498 247.568867 
L 335.609559 244.859362 
L 338.64175 241.93121 
L 341.462296 238.798676 
L 344.057457 235.477021 
L 346.41459 231.982428 
L 348.52221 228.331922 
L 350.37005 224.543289 
L 351.949107 220.634986 
L 353.251688 216.626054 
L 354.271447 212.536024 
L 355.003416 208.384822 
L 355.444029 204.192673 
L 355.591139 199.98 
L 355.591139 199.98 
" style="fill:none;stroke:#ffffff;stroke-linecap:round;"/>
     </g>
     <g id="text_11">
      <!-- 0.75 -->
      <g style="fill:#262626;" transform="translate(350.994137 174.881812)scale(0.1 -0.1)">
       <use xlink:href="#ArialMT-48"/>
       <use x="55.615234" xlink:href="#ArialMT-46"/>
       <use x="83.398438" xlink:href="#ArialMT-55"/>
       <use x="139.013672" xlink:href="#ArialMT-53"/>
      </g>
     </g>
    </g>
    <g id="ytick_4">
     <g id="line2d_12">
      <path clip-path="url(#p7b8b595923)" d="M 375.721518 199.98 
L 375.525372 194.363103 
L 374.937888 188.773571 
L 373.96193 183.238635 
L 372.602251 177.785262 
L 370.865476 172.440019 
L 368.760067 167.228948 
L 366.296281 162.177437 
L 363.48612 157.310096 
L 360.343277 152.650639 
L 356.883062 148.221766 
L 353.122333 144.045053 
L 349.079412 140.14085 
L 344.773997 136.528178 
L 340.227062 133.224636 
L 335.460759 130.24632 
L 330.49831 127.607739 
L 325.363892 125.321748 
L 320.082518 123.399485 
L 314.679918 121.850315 
L 309.182415 120.681785 
L 303.616791 119.899587 
L 298.01016 119.507533 
L 292.38984 119.507533 
L 286.783209 119.899587 
L 281.217585 120.681785 
L 275.720082 121.850315 
L 270.317482 123.399485 
L 265.036108 125.321748 
L 259.90169 127.607739 
L 254.939241 130.24632 
L 250.172938 133.224636 
L 245.626003 136.528178 
L 241.320588 140.14085 
L 237.277667 144.045053 
L 233.516938 148.221766 
L 230.056723 152.650639 
L 226.91388 157.310096 
L 224.103719 162.177437 
L 221.639933 167.228948 
L 219.534524 172.440019 
L 217.797749 177.785262 
L 216.43807 183.238635 
L 215.462112 188.773571 
L 214.874628 194.363103 
L 214.678482 199.98 
L 214.874628 205.596897 
L 215.462112 211.186429 
L 216.43807 216.721365 
L 217.797749 222.174738 
L 219.534524 227.519981 
L 221.639933 232.731052 
L 224.103719 237.782563 
L 226.91388 242.649904 
L 230.056723 247.309361 
L 233.516938 251.738234 
L 237.277667 255.914947 
L 241.320588 259.81915 
L 245.626003 263.431822 
L 250.172938 266.735364 
L 254.939241 269.71368 
L 259.90169 272.352261 
L 265.036108 274.638252 
L 270.317482 276.560515 
L 275.720082 278.109685 
L 281.217585 279.278215 
L 286.783209 280.060413 
L 292.38984 280.452467 
L 298.01016 280.452467 
L 303.616791 280.060413 
L 309.182415 279.278215 
L 314.679918 278.109685 
L 320.082518 276.560515 
L 325.363892 274.638252 
L 330.49831 272.352261 
L 335.460759 269.71368 
L 340.227062 266.735364 
L 344.773997 263.431822 
L 349.079412 259.81915 
L 353.122333 255.914947 
L 356.883062 251.738234 
L 360.343277 247.309361 
L 363.48612 242.649904 
L 366.296281 237.782563 
L 368.760067 232.731052 
L 370.865476 227.519981 
L 372.602251 222.174738 
L 373.96193 216.721365 
L 374.937888 211.186429 
L 375.525372 205.596897 
L 375.721518 199.98 
L 375.721518 199.98 
" style="fill:none;stroke:#ffffff;stroke-linecap:round;"/>
     </g>
     <g id="text_12">
      <!-- 1.00 -->
      <g style="fill:#262626;" transform="translate(369.592183 167.178249)scale(0.1 -0.1)">
       <use xlink:href="#ArialMT-49"/>
       <use x="55.615234" xlink:href="#ArialMT-46"/>
       <use x="83.398438" xlink:href="#ArialMT-48"/>
       <use x="139.013672" xlink:href="#ArialMT-48"/>
      </g>
     </g>
    </g>
    <g id="ytick_5">
     <g id="line2d_13">
      <path clip-path="url(#p7b8b595923)" d="M 395.851898 199.98 
L 395.790583 196.467299 
L 395.606715 192.958879 
L 395.300516 189.459012 
L 394.87236 185.971963 
L 394.322769 182.501981 
L 393.652412 179.053294 
L 392.862106 175.630102 
L 391.952814 172.236577 
L 390.925643 168.876853 
L 389.781846 165.555024 
L 388.522814 162.275135 
L 387.150084 159.041185 
L 385.665326 155.857112 
L 384.070351 152.726796 
L 382.3671 149.654051 
L 380.55765 146.64262 
L 378.644205 143.696173 
L 376.629096 140.818299 
L 374.514778 138.012504 
L 372.303827 135.282207 
L 369.998937 132.630735 
L 367.602916 130.061317 
L 365.118683 127.577084 
L 362.549265 125.181063 
L 359.897793 122.876173 
L 357.167496 120.665222 
L 354.361701 118.550904 
L 351.483827 116.535795 
L 348.53738 114.62235 
L 345.525949 112.8129 
L 342.453204 111.109649 
L 339.322888 109.514674 
L 336.138815 108.029916 
L 332.904865 106.657186 
L 329.624976 105.398154 
L 326.303147 104.254357 
L 322.943423 103.227186 
L 319.549898 102.317894 
L 316.126706 101.527588 
L 312.678019 100.857231 
L 309.208037 100.30764 
L 305.720988 99.879484 
L 302.221121 99.573285 
L 298.712701 99.389417 
L 295.2 99.328102 
L 291.687299 99.389417 
L 288.178879 99.573285 
L 284.679012 99.879484 
L 281.191963 100.30764 
L 277.721981 100.857231 
L 274.273294 101.527588 
L 270.850102 102.317894 
L 267.456577 103.227186 
L 264.096853 104.254357 
L 260.775024 105.398154 
L 257.495135 106.657186 
L 254.261185 108.029916 
L 251.077112 109.514674 
L 247.946796 111.109649 
L 244.874051 112.8129 
L 241.86262 114.62235 
L 238.916173 116.535795 
L 236.038299 118.550904 
L 233.232504 120.665222 
L 230.502207 122.876173 
L 227.850735 125.181063 
L 225.281317 127.577084 
L 222.797084 130.061317 
L 220.401063 132.630735 
L 218.096173 135.282207 
L 215.885222 138.012504 
L 213.770904 140.818299 
L 211.755795 143.696173 
L 209.84235 146.64262 
L 208.0329 149.654051 
L 206.329649 152.726796 
L 204.734674 155.857112 
L 203.249916 159.041185 
L 201.877186 162.275135 
L 200.618154 165.555024 
L 199.474357 168.876853 
L 198.447186 172.236577 
L 197.537894 175.630102 
L 196.747588 179.053294 
L 196.077231 182.501981 
L 195.52764 185.971963 
L 195.099484 189.459012 
L 194.793285 192.958879 
L 194.609417 196.467299 
L 194.548102 199.98 
L 194.609417 203.492701 
L 194.793285 207.001121 
L 195.099484 210.500988 
L 195.52764 213.988037 
L 196.077231 217.458019 
L 196.747588 220.906706 
L 197.537894 224.329898 
L 198.447186 227.723423 
L 199.474357 231.083147 
L 200.618154 234.404976 
L 201.877186 237.684865 
L 203.249916 240.918815 
L 204.734674 244.102888 
L 206.329649 247.233204 
L 208.0329 250.305949 
L 209.84235 253.31738 
L 211.755795 256.263827 
L 213.770904 259.141701 
L 215.885222 261.947496 
L 218.096173 264.677793 
L 220.401063 267.329265 
L 222.797084 269.898683 
L 225.281317 272.382916 
L 227.850735 274.778937 
L 230.502207 277.083827 
L 233.232504 279.294778 
L 236.038299 281.409096 
L 238.916173 283.424205 
L 241.86262 285.33765 
L 244.874051 287.1471 
L 247.946796 288.850351 
L 251.077112 290.445326 
L 254.261185 291.930084 
L 257.495135 293.302814 
L 260.775024 294.561846 
L 264.096853 295.705643 
L 267.456577 296.732814 
L 270.850102 297.642106 
L 274.273294 298.432412 
L 277.721981 299.102769 
L 281.191963 299.65236 
L 284.679012 300.080516 
L 288.178879 300.386715 
L 291.687299 300.570583 
L 295.2 300.631898 
L 298.712701 300.570583 
L 302.221121 300.386715 
L 305.720988 300.080516 
L 309.208037 299.65236 
L 312.678019 299.102769 
L 316.126706 298.432412 
L 319.549898 297.642106 
L 322.943423 296.732814 
L 326.303147 295.705643 
L 329.624976 294.561846 
L 332.904865 293.302814 
L 336.138815 291.930084 
L 339.322888 290.445326 
L 342.453204 288.850351 
L 345.525949 287.1471 
L 348.53738 285.33765 
L 351.483827 283.424205 
L 354.361701 281.409096 
L 357.167496 279.294778 
L 359.897793 277.083827 
L 362.549265 274.778937 
L 365.118683 272.382916 
L 367.602916 269.898683 
L 369.998937 267.329265 
L 372.303827 264.677793 
L 374.514778 261.947496 
L 376.629096 259.141701 
L 378.644205 256.263827 
L 380.55765 253.31738 
L 382.3671 250.305949 
L 384.070351 247.233204 
L 385.665326 244.102888 
L 387.150084 240.918815 
L 388.522814 237.684865 
L 389.781846 234.404976 
L 390.925643 231.083147 
L 391.952814 227.723423 
L 392.862106 224.329898 
L 393.652412 220.906706 
L 394.322769 217.458019 
L 394.87236 213.988037 
L 395.300516 210.500988 
L 395.606715 207.001121 
L 395.790583 203.492701 
L 395.851898 199.98 
L 395.851898 199.98 
" style="fill:none;stroke:#ffffff;stroke-linecap:round;"/>
     </g>
     <g id="text_13">
      <!-- 1.25 -->
      <g style="fill:#262626;" transform="translate(388.190228 159.474686)scale(0.1 -0.1)">
       <use xlink:href="#ArialMT-49"/>
       <use x="55.615234" xlink:href="#ArialMT-46"/>
       <use x="83.398438" xlink:href="#ArialMT-50"/>
       <use x="139.013672" xlink:href="#ArialMT-53"/>
      </g>
     </g>
    </g>
    <g id="ytick_6">
     <g id="line2d_14">
      <path clip-path="url(#p7b8b595923)" d="M 415.982277 199.98 
L 415.9087 195.764759 
L 415.688058 191.554654 
L 415.320619 187.354814 
L 414.806832 183.170356 
L 414.147323 179.006378 
L 413.342895 174.867953 
L 412.394527 170.760123 
L 411.303377 166.687892 
L 410.070772 162.656224 
L 408.698215 158.670028 
L 407.187377 154.734163 
L 405.540101 150.853422 
L 403.758392 147.032535 
L 401.844421 143.276156 
L 399.80052 139.588861 
L 397.62918 135.975145 
L 395.333046 132.439408 
L 392.914915 128.985959 
L 390.377733 125.619005 
L 387.724592 122.342649 
L 384.958724 119.160882 
L 382.083499 116.07758 
L 379.10242 113.096501 
L 376.019118 110.221276 
L 372.837351 107.455408 
L 369.560995 104.802267 
L 366.194041 102.265085 
L 362.740592 99.846954 
L 359.204855 97.55082 
L 355.591139 95.37948 
L 351.903844 93.335579 
L 348.147465 91.421608 
L 344.326578 89.639899 
L 340.445837 87.992623 
L 336.509972 86.481785 
L 332.523776 85.109228 
L 328.492108 83.876623 
L 324.419877 82.785473 
L 320.312047 81.837105 
L 316.173622 81.032677 
L 312.009644 80.373168 
L 307.825186 79.859381 
L 303.625346 79.491942 
L 299.415241 79.2713 
L 295.2 79.197723 
L 290.984759 79.2713 
L 286.774654 79.491942 
L 282.574814 79.859381 
L 278.390356 80.373168 
L 274.226378 81.032677 
L 270.087953 81.837105 
L 265.980123 82.785473 
L 261.907892 83.876623 
L 257.876224 85.109228 
L 253.890028 86.481785 
L 249.954163 87.992623 
L 246.073422 89.639899 
L 242.252535 91.421608 
L 238.496156 93.335579 
L 234.808861 95.37948 
L 231.195145 97.55082 
L 227.659408 99.846954 
L 224.205959 102.265085 
L 220.839005 104.802267 
L 217.562649 107.455408 
L 214.380882 110.221276 
L 211.29758 113.096501 
L 208.316501 116.07758 
L 205.441276 119.160882 
L 202.675408 122.342649 
L 200.022267 125.619005 
L 197.485085 128.985959 
L 195.066954 132.439408 
L 192.77082 135.975145 
L 190.59948 139.588861 
L 188.555579 143.276156 
L 186.641608 147.032535 
L 184.859899 150.853422 
L 183.212623 154.734163 
L 181.701785 158.670028 
L 180.329228 162.656224 
L 179.096623 166.687892 
L 178.005473 170.760123 
L 177.057105 174.867953 
L 176.252677 179.006378 
L 175.593168 183.170356 
L 175.079381 187.354814 
L 174.711942 191.554654 
L 174.4913 195.764759 
L 174.417723 199.98 
L 174.4913 204.195241 
L 174.711942 208.405346 
L 175.079381 212.605186 
L 175.593168 216.789644 
L 176.252677 220.953622 
L 177.057105 225.092047 
L 178.005473 229.199877 
L 179.096623 233.272108 
L 180.329228 237.303776 
L 181.701785 241.289972 
L 183.212623 245.225837 
L 184.859899 249.106578 
L 186.641608 252.927465 
L 188.555579 256.683844 
L 190.59948 260.371139 
L 192.77082 263.984855 
L 195.066954 267.520592 
L 197.485085 270.974041 
L 200.022267 274.340995 
L 202.675408 277.617351 
L 205.441276 280.799118 
L 208.316501 283.88242 
L 211.29758 286.863499 
L 214.380882 289.738724 
L 217.562649 292.504592 
L 220.839005 295.157733 
L 224.205959 297.694915 
L 227.659408 300.113046 
L 231.195145 302.40918 
L 234.808861 304.58052 
L 238.496156 306.624421 
L 242.252535 308.538392 
L 246.073422 310.320101 
L 249.954163 311.967377 
L 253.890028 313.478215 
L 257.876224 314.850772 
L 261.907892 316.083377 
L 265.980123 317.174527 
L 270.087953 318.122895 
L 274.226378 318.927323 
L 278.390356 319.586832 
L 282.574814 320.100619 
L 286.774654 320.468058 
L 290.984759 320.6887 
L 295.2 320.762277 
L 299.415241 320.6887 
L 303.625346 320.468058 
L 307.825186 320.100619 
L 312.009644 319.586832 
L 316.173622 318.927323 
L 320.312047 318.122895 
L 324.419877 317.174527 
L 328.492108 316.083377 
L 332.523776 314.850772 
L 336.509972 313.478215 
L 340.445837 311.967377 
L 344.326578 310.320101 
L 348.147465 308.538392 
L 351.903844 306.624421 
L 355.591139 304.58052 
L 359.204855 302.40918 
L 362.740592 300.113046 
L 366.194041 297.694915 
L 369.560995 295.157733 
L 372.837351 292.504592 
L 376.019118 289.738724 
L 379.10242 286.863499 
L 382.083499 283.88242 
L 384.958724 280.799118 
L 387.724592 277.617351 
L 390.377733 274.340995 
L 392.914915 270.974041 
L 395.333046 267.520592 
L 397.62918 263.984855 
L 399.80052 260.371139 
L 401.844421 256.683844 
L 403.758392 252.927465 
L 405.540101 249.106578 
L 407.187377 245.225837 
L 408.698215 241.289972 
L 410.070772 237.303776 
L 411.303377 233.272108 
L 412.394527 229.199877 
L 413.342895 225.092047 
L 414.147323 220.953622 
L 414.806832 216.789644 
L 415.320619 212.605186 
L 415.688058 208.405346 
L 415.9087 204.195241 
L 415.982277 199.98 
L 415.982277 199.98 
" style="fill:none;stroke:#ffffff;stroke-linecap:round;"/>
     </g>
     <g id="text_14">
      <!-- 1.50 -->
      <g style="fill:#262626;" transform="translate(406.788274 151.771124)scale(0.1 -0.1)">
       <use xlink:href="#ArialMT-49"/>
       <use x="55.615234" xlink:href="#ArialMT-46"/>
       <use x="83.398438" xlink:href="#ArialMT-53"/>
       <use x="139.013672" xlink:href="#ArialMT-48"/>
      </g>
     </g>
    </g>
    <g id="ytick_7">
     <g id="line2d_15">
      <path clip-path="url(#p7b8b595923)" d="M 436.112657 199.98 
L 436.026817 195.062219 
L 435.769401 190.15043 
L 435.340723 185.250617 
L 434.741304 180.368749 
L 433.971877 175.510774 
L 433.033377 170.682611 
L 431.926949 165.890143 
L 430.653939 161.139208 
L 429.2159 156.435594 
L 427.614584 151.785033 
L 425.85194 147.19319 
L 423.930118 142.665659 
L 421.851457 138.207957 
L 419.618491 133.825515 
L 417.23394 129.523672 
L 414.70071 125.307669 
L 412.021887 121.182642 
L 409.200734 117.153618 
L 406.240689 113.225506 
L 403.145358 109.40309 
L 399.918512 105.691029 
L 396.564082 102.093843 
L 393.086157 98.615918 
L 389.488971 95.261488 
L 385.77691 92.034642 
L 381.954494 88.939311 
L 378.026382 85.979266 
L 373.997358 83.158113 
L 369.872331 80.47929 
L 365.656328 77.94606 
L 361.354485 75.561509 
L 356.972043 73.328543 
L 352.514341 71.249882 
L 347.98681 69.32806 
L 343.394967 67.565416 
L 338.744406 65.9641 
L 334.040792 64.526061 
L 329.289857 63.253051 
L 324.497389 62.146623 
L 319.669226 61.208123 
L 314.811251 60.438696 
L 309.929383 59.839277 
L 305.02957 59.410599 
L 300.117781 59.153183 
L 295.2 59.067343 
L 290.282219 59.153183 
L 285.37043 59.410599 
L 280.470617 59.839277 
L 275.588749 60.438696 
L 270.730774 61.208123 
L 265.902611 62.146623 
L 261.110143 63.253051 
L 256.359208 64.526061 
L 251.655594 65.9641 
L 247.005033 67.565416 
L 242.41319 69.32806 
L 237.885659 71.249882 
L 233.427957 73.328543 
L 229.045515 75.561509 
L 224.743672 77.94606 
L 220.527669 80.47929 
L 216.402642 83.158113 
L 212.373618 85.979266 
L 208.445506 88.939311 
L 204.62309 92.034642 
L 200.911029 95.261488 
L 197.313843 98.615918 
L 193.835918 102.093843 
L 190.481488 105.691029 
L 187.254642 109.40309 
L 184.159311 113.225506 
L 181.199266 117.153618 
L 178.378113 121.182642 
L 175.69929 125.307669 
L 173.16606 129.523672 
L 170.781509 133.825515 
L 168.548543 138.207957 
L 166.469882 142.665659 
L 164.54806 147.19319 
L 162.785416 151.785033 
L 161.1841 156.435594 
L 159.746061 161.139208 
L 158.473051 165.890143 
L 157.366623 170.682611 
L 156.428123 175.510774 
L 155.658696 180.368749 
L 155.059277 185.250617 
L 154.630599 190.15043 
L 154.373183 195.062219 
L 154.287343 199.98 
L 154.373183 204.897781 
L 154.630599 209.80957 
L 155.059277 214.709383 
L 155.658696 219.591251 
L 156.428123 224.449226 
L 157.366623 229.277389 
L 158.473051 234.069857 
L 159.746061 238.820792 
L 161.1841 243.524406 
L 162.785416 248.174967 
L 164.54806 252.76681 
L 166.469882 257.294341 
L 168.548543 261.752043 
L 170.781509 266.134485 
L 173.16606 270.436328 
L 175.69929 274.652331 
L 178.378113 278.777358 
L 181.199266 282.806382 
L 184.159311 286.734494 
L 187.254642 290.55691 
L 190.481488 294.268971 
L 193.835918 297.866157 
L 197.313843 301.344082 
L 200.911029 304.698512 
L 204.62309 307.925358 
L 208.445506 311.020689 
L 212.373618 313.980734 
L 216.402642 316.801887 
L 220.527669 319.48071 
L 224.743672 322.01394 
L 229.045515 324.398491 
L 233.427957 326.631457 
L 237.885659 328.710118 
L 242.41319 330.63194 
L 247.005033 332.394584 
L 251.655594 333.9959 
L 256.359208 335.433939 
L 261.110143 336.706949 
L 265.902611 337.813377 
L 270.730774 338.751877 
L 275.588749 339.521304 
L 280.470617 340.120723 
L 285.37043 340.549401 
L 290.282219 340.806817 
L 295.2 340.892657 
L 300.117781 340.806817 
L 305.02957 340.549401 
L 309.929383 340.120723 
L 314.811251 339.521304 
L 319.669226 338.751877 
L 324.497389 337.813377 
L 329.289857 336.706949 
L 334.040792 335.433939 
L 338.744406 333.9959 
L 343.394967 332.394584 
L 347.98681 330.63194 
L 352.514341 328.710118 
L 356.972043 326.631457 
L 361.354485 324.398491 
L 365.656328 322.01394 
L 369.872331 319.48071 
L 373.997358 316.801887 
L 378.026382 313.980734 
L 381.954494 311.020689 
L 385.77691 307.925358 
L 389.488971 304.698512 
L 393.086157 301.344082 
L 396.564082 297.866157 
L 399.918512 294.268971 
L 403.145358 290.55691 
L 406.240689 286.734494 
L 409.200734 282.806382 
L 412.021887 278.777358 
L 414.70071 274.652331 
L 417.23394 270.436328 
L 419.618491 266.134485 
L 421.851457 261.752043 
L 423.930118 257.294341 
L 425.85194 252.76681 
L 427.614584 248.174967 
L 429.2159 243.524406 
L 430.653939 238.820792 
L 431.926949 234.069857 
L 433.033377 229.277389 
L 433.971877 224.449226 
L 434.741304 219.591251 
L 435.340723 214.709383 
L 435.769401 209.80957 
L 436.026817 204.897781 
L 436.112657 199.98 
L 436.112657 199.98 
" style="fill:none;stroke:#ffffff;stroke-linecap:round;"/>
     </g>
     <g id="text_15">
      <!-- 1.75 -->
      <g style="fill:#262626;" transform="translate(425.386319 144.067561)scale(0.1 -0.1)">
       <use xlink:href="#ArialMT-49"/>
       <use x="55.615234" xlink:href="#ArialMT-46"/>
       <use x="83.398438" xlink:href="#ArialMT-55"/>
       <use x="139.013672" xlink:href="#ArialMT-53"/>
      </g>
     </g>
    </g>
   </g>
   <g id="PathCollection_1">
    <defs>
     <path d="M 0 3.5 
C 0.928211 3.5 1.81853 3.131218 2.474874 2.474874 
C 3.131218 1.81853 3.5 0.928211 3.5 0 
C 3.5 -0.928211 3.131218 -1.81853 2.474874 -2.474874 
C 1.81853 -3.131218 0.928211 -3.5 0 -3.5 
C -0.928211 -3.5 -1.81853 -3.131218 -2.474874 -2.474874 
C -3.131218 -1.81853 -3.5 -0.928211 -3.5 0 
C -3.5 0.928211 -3.131218 1.81853 -2.474874 2.474874 
C -1.81853 3.131218 -0.928211 3.5 0 3.5 
z
" id="mb1683a361d" style="stroke:#4c72b0;stroke-width:0.3;"/>
    </defs>
    <g clip-path="url(#p7b8b595923)">
     <use style="fill:#4c72b0;stroke:#4c72b0;stroke-width:0.3;" x="297.238812" xlink:href="#mb1683a361d" y="198.563941"/>
     <use style="fill:#4c72b0;stroke:#4c72b0;stroke-width:0.3;" x="285.038951" xlink:href="#mb1683a361d" y="203.278441"/>
     <use style="fill:#4c72b0;stroke:#4c72b0;stroke-width:0.3;" x="294.863636" xlink:href="#mb1683a361d" y="201.519476"/>
     <use style="fill:#4c72b0;stroke:#4c72b0;stroke-width:0.3;" x="262.31309" xlink:href="#mb1683a361d" y="210.988009"/>
     <use style="fill:#4c72b0;stroke:#4c72b0;stroke-width:0.3;" x="261.121982" xlink:href="#mb1683a361d" y="216.158645"/>
     <use style="fill:#4c72b0;stroke:#4c72b0;stroke-width:0.3;" x="227.437644" xlink:href="#mb1683a361d" y="226.994967"/>
     <use style="fill:#4c72b0;stroke:#4c72b0;stroke-width:0.3;" x="213.125448" xlink:href="#mb1683a361d" y="233.874338"/>
     <use style="fill:#4c72b0;stroke:#4c72b0;stroke-width:0.3;" x="248.301677" xlink:href="#mb1683a361d" y="229.483007"/>
     <use style="fill:#4c72b0;stroke:#4c72b0;stroke-width:0.3;" x="258.743279" xlink:href="#mb1683a361d" y="228.801824"/>
     <use style="fill:#4c72b0;stroke:#4c72b0;stroke-width:0.3;" x="232.241578" xlink:href="#mb1683a361d" y="232.544691"/>
     <use style="fill:#4c72b0;stroke:#4c72b0;stroke-width:0.3;" x="252.393606" xlink:href="#mb1683a361d" y="229.083778"/>
     <use style="fill:#4c72b0;stroke:#4c72b0;stroke-width:0.3;" x="258.68824" xlink:href="#mb1683a361d" y="228.578826"/>
     <use style="fill:#4c72b0;stroke:#4c72b0;stroke-width:0.3;" x="221.825877" xlink:href="#mb1683a361d" y="235.772526"/>
     <use style="fill:#4c72b0;stroke:#4c72b0;stroke-width:0.3;" x="252.669828" xlink:href="#mb1683a361d" y="231.107644"/>
     <use style="fill:#4c72b0;stroke:#4c72b0;stroke-width:0.3;" x="335.011872" xlink:href="#mb1683a361d" y="219.700579"/>
     <use style="fill:#4c72b0;stroke:#4c72b0;stroke-width:0.3;" x="306.804571" xlink:href="#mb1683a361d" y="218.129686"/>
     <use style="fill:#4c72b0;stroke:#4c72b0;stroke-width:0.3;" x="277.219619" xlink:href="#mb1683a361d" y="219.027296"/>
     <use style="fill:#4c72b0;stroke:#4c72b0;stroke-width:0.3;" x="310.183024" xlink:href="#mb1683a361d" y="212.245475"/>
     <use style="fill:#4c72b0;stroke:#4c72b0;stroke-width:0.3;" x="306.951449" xlink:href="#mb1683a361d" y="206.167085"/>
     <use style="fill:#4c72b0;stroke:#4c72b0;stroke-width:0.3;" x="294.62203" xlink:href="#mb1683a361d" y="203.463051"/>
     <use style="fill:#4c72b0;stroke:#4c72b0;stroke-width:0.3;" x="319.88803" xlink:href="#mb1683a361d" y="200.548367"/>
     <use style="fill:#4c72b0;stroke:#4c72b0;stroke-width:0.3;" x="327.044734" xlink:href="#mb1683a361d" y="198.195721"/>
     <use style="fill:#4c72b0;stroke:#4c72b0;stroke-width:0.3;" x="319.072784" xlink:href="#mb1683a361d" y="196.796511"/>
     <use style="fill:#4c72b0;stroke:#4c72b0;stroke-width:0.3;" x="311.270218" xlink:href="#mb1683a361d" y="194.787581"/>
    </g>
   </g>
   <g id="PathCollection_2">
    <defs>
     <path d="M 0 3.5 
C 0.928211 3.5 1.81853 3.131218 2.474874 2.474874 
C 3.131218 1.81853 3.5 0.928211 3.5 0 
C 3.5 -0.928211 3.131218 -1.81853 2.474874 -2.474874 
C 1.81853 -3.131218 0.928211 -3.5 0 -3.5 
C -0.928211 -3.5 -1.81853 -3.131218 -2.474874 -2.474874 
C -3.131218 -1.81853 -3.5 -0.928211 -3.5 0 
C -3.5 0.928211 -3.131218 1.81853 -2.474874 2.474874 
C -1.81853 3.131218 -0.928211 3.5 0 3.5 
z
" id="mb75e347f0f" style="stroke:#55a868;stroke-width:0.3;"/>
    </defs>
    <g clip-path="url(#p7b8b595923)">
     <use style="fill:#55a868;stroke:#55a868;stroke-width:0.3;" x="301.574857" xlink:href="#mb75e347f0f" y="191.772284"/>
     <use style="fill:#55a868;stroke:#55a868;stroke-width:0.3;" x="306.517603" xlink:href="#mb75e347f0f" y="191.506798"/>
     <use style="fill:#55a868;stroke:#55a868;stroke-width:0.3;" x="311.111028" xlink:href="#mb75e347f0f" y="189.508465"/>
     <use style="fill:#55a868;stroke:#55a868;stroke-width:0.3;" x="299.560364" xlink:href="#mb75e347f0f" y="191.691913"/>
     <use style="fill:#55a868;stroke:#55a868;stroke-width:0.3;" x="301.511797" xlink:href="#mb75e347f0f" y="190.228275"/>
     <use style="fill:#55a868;stroke:#55a868;stroke-width:0.3;" x="313.424159" xlink:href="#mb75e347f0f" y="190.356275"/>
     <use style="fill:#55a868;stroke:#55a868;stroke-width:0.3;" x="312.812001" xlink:href="#mb75e347f0f" y="187.841762"/>
     <use style="fill:#55a868;stroke:#55a868;stroke-width:0.3;" x="313.05269" xlink:href="#mb75e347f0f" y="188.146136"/>
     <use style="fill:#55a868;stroke:#55a868;stroke-width:0.3;" x="324.510987" xlink:href="#mb75e347f0f" y="187.133205"/>
     <use style="fill:#55a868;stroke:#55a868;stroke-width:0.3;" x="332.611639" xlink:href="#mb75e347f0f" y="185.189873"/>
     <use style="fill:#55a868;stroke:#55a868;stroke-width:0.3;" x="338.084185" xlink:href="#mb75e347f0f" y="183.748751"/>
     <use style="fill:#55a868;stroke:#55a868;stroke-width:0.3;" x="325.357527" xlink:href="#mb75e347f0f" y="184.311668"/>
     <use style="fill:#55a868;stroke:#55a868;stroke-width:0.3;" x="332.189858" xlink:href="#mb75e347f0f" y="181.393954"/>
     <use style="fill:#55a868;stroke:#55a868;stroke-width:0.3;" x="360.037209" xlink:href="#mb75e347f0f" y="173.534395"/>
     <use style="fill:#55a868;stroke:#55a868;stroke-width:0.3;" x="357.263204" xlink:href="#mb75e347f0f" y="166.672281"/>
     <use style="fill:#55a868;stroke:#55a868;stroke-width:0.3;" x="335.274614" xlink:href="#mb75e347f0f" y="165.834423"/>
     <use style="fill:#55a868;stroke:#55a868;stroke-width:0.3;" x="351.485235" xlink:href="#mb75e347f0f" y="165.211433"/>
     <use style="fill:#55a868;stroke:#55a868;stroke-width:0.3;" x="398.180808" xlink:href="#mb75e347f0f" y="152.906859"/>
     <use style="fill:#55a868;stroke:#55a868;stroke-width:0.3;" x="399.195727" xlink:href="#mb75e347f0f" y="143.033727"/>
     <use style="fill:#55a868;stroke:#55a868;stroke-width:0.3;" x="408.688218" xlink:href="#mb75e347f0f" y="120.325851"/>
     <use style="fill:#55a868;stroke:#55a868;stroke-width:0.3;" x="407.732412" xlink:href="#mb75e347f0f" y="108.222187"/>
     <use style="fill:#55a868;stroke:#55a868;stroke-width:0.3;" x="377.393574" xlink:href="#mb75e347f0f" y="114.787915"/>
     <use style="fill:#55a868;stroke:#55a868;stroke-width:0.3;" x="338.826081" xlink:href="#mb75e347f0f" y="133.792096"/>
     <use style="fill:#55a868;stroke:#55a868;stroke-width:0.3;" x="314.212838" xlink:href="#mb75e347f0f" y="155.951398"/>
    </g>
   </g>
   <g id="PathCollection_3">
    <defs>
     <path d="M 0 3.5 
C 0.928211 3.5 1.81853 3.131218 2.474874 2.474874 
C 3.131218 1.81853 3.5 0.928211 3.5 0 
C 3.5 -0.928211 3.131218 -1.81853 2.474874 -2.474874 
C 1.81853 -3.131218 0.928211 -3.5 0 -3.5 
C -0.928211 -3.5 -1.81853 -3.131218 -2.474874 -2.474874 
C -3.131218 -1.81853 -3.5 -0.928211 -3.5 0 
C -3.5 0.928211 -3.131218 1.81853 -2.474874 2.474874 
C -1.81853 3.131218 -0.928211 3.5 0 3.5 
z
" id="maa0da926b4" style="stroke:#c44e52;stroke-width:0.3;"/>
    </defs>
    <g clip-path="url(#p7b8b595923)">
     <use style="fill:#c44e52;stroke:#c44e52;stroke-width:0.3;" x="357.930632" xlink:href="#maa0da926b4" y="138.859659"/>
     <use style="fill:#c44e52;stroke:#c44e52;stroke-width:0.3;" x="360.208257" xlink:href="#maa0da926b4" y="134.494123"/>
     <use style="fill:#c44e52;stroke:#c44e52;stroke-width:0.3;" x="367.01524" xlink:href="#maa0da926b4" y="122.370433"/>
     <use style="fill:#c44e52;stroke:#c44e52;stroke-width:0.3;" x="311.47509" xlink:href="#maa0da926b4" y="158.503456"/>
     <use style="fill:#c44e52;stroke:#c44e52;stroke-width:0.3;" x="261.288186" xlink:href="#maa0da926b4" y="209.579023"/>
     <use style="fill:#c44e52;stroke:#c44e52;stroke-width:0.3;" x="327.319079" xlink:href="#maa0da926b4" y="168.239485"/>
     <use style="fill:#c44e52;stroke:#c44e52;stroke-width:0.3;" x="335.175486" xlink:href="#maa0da926b4" y="164.434833"/>
     <use style="fill:#c44e52;stroke:#c44e52;stroke-width:0.3;" x="342.140589" xlink:href="#maa0da926b4" y="159.398549"/>
     <use style="fill:#c44e52;stroke:#c44e52;stroke-width:0.3;" x="329.80032" xlink:href="#maa0da926b4" y="159.995853"/>
     <use style="fill:#c44e52;stroke:#c44e52;stroke-width:0.3;" x="340.825136" xlink:href="#maa0da926b4" y="148.096698"/>
     <use style="fill:#c44e52;stroke:#c44e52;stroke-width:0.3;" x="306.339053" xlink:href="#maa0da926b4" y="186.954254"/>
     <use style="fill:#c44e52;stroke:#c44e52;stroke-width:0.3;" x="259.71608" xlink:href="#maa0da926b4" y="234.041717"/>
     <use style="fill:#c44e52;stroke:#c44e52;stroke-width:0.3;" x="208.933018" xlink:href="#maa0da926b4" y="283.437816"/>
     <use style="fill:#c44e52;stroke:#c44e52;stroke-width:0.3;" x="206.617491" xlink:href="#maa0da926b4" y="283.062903"/>
     <use style="fill:#c44e52;stroke:#c44e52;stroke-width:0.3;" x="251.679222" xlink:href="#maa0da926b4" y="239.17718"/>
     <use style="fill:#c44e52;stroke:#c44e52;stroke-width:0.3;" x="274.103887" xlink:href="#maa0da926b4" y="216.160876"/>
     <use style="fill:#c44e52;stroke:#c44e52;stroke-width:0.3;" x="297.783322" xlink:href="#maa0da926b4" y="191.59635"/>
     <use style="fill:#c44e52;stroke:#c44e52;stroke-width:0.3;" x="292.856531" xlink:href="#maa0da926b4" y="197.611919"/>
     <use style="fill:#c44e52;stroke:#c44e52;stroke-width:0.3;" x="281.710039" xlink:href="#maa0da926b4" y="209.999201"/>
     <use style="fill:#c44e52;stroke:#c44e52;stroke-width:0.3;" x="271.306694" xlink:href="#maa0da926b4" y="226.592653"/>
     <use style="fill:#c44e52;stroke:#c44e52;stroke-width:0.3;" x="284.348534" xlink:href="#maa0da926b4" y="221.110495"/>
     <use style="fill:#c44e52;stroke:#c44e52;stroke-width:0.3;" x="298.070062" xlink:href="#maa0da926b4" y="207.978565"/>
     <use style="fill:#c44e52;stroke:#c44e52;stroke-width:0.3;" x="332.381139" xlink:href="#maa0da926b4" y="176.010079"/>
     <use style="fill:#c44e52;stroke:#c44e52;stroke-width:0.3;" x="364.539461" xlink:href="#maa0da926b4" y="140.445749"/>
    </g>
   </g>
   <g id="line2d_16">
    <path clip-path="url(#p7b8b595923)" d="M 295.2 199.98 
L 409.650485 110.62606 
" style="fill:none;stroke:#ff0000;stroke-dasharray:7.4,3.2;stroke-dashoffset:0;stroke-width:2;"/>
   </g>
   <g id="patch_3">
    <path d="M 447.66 199.98 
C 447.66 179.959136 443.716326 160.13295 436.054674 141.636084 
C 428.393021 123.139218 417.162388 106.331389 403.0055 92.1745 
C 388.848611 78.017612 372.040782 66.786979 353.543916 59.125326 
C 335.04705 51.463674 315.220864 47.52 295.2 47.52 
C 275.179136 47.52 255.35295 51.463674 236.856084 59.125326 
C 218.359218 66.786979 201.551389 78.017612 187.3945 92.1745 
C 173.237612 106.331389 162.006979 123.139218 154.345326 141.636084 
C 146.683674 160.13295 142.74 179.959136 142.74 199.98 
C 142.74 220.000864 146.683674 239.82705 154.345326 258.323916 
C 162.006979 276.820782 173.237612 293.628611 187.3945 307.7855 
C 201.551389 321.942388 218.359218 333.173021 236.856084 340.834674 
C 255.35295 348.496326 275.179136 352.44 295.2 352.44 
C 315.220864 352.44 335.04705 348.496326 353.543916 340.834674 
C 372.040782 333.173021 388.848611 321.942388 403.0055 307.7855 
C 417.162388 293.628611 428.393021 276.820782 436.054674 258.323916 
C 443.716326 239.82705 447.66 220.000864 447.66 199.98 
" style="fill:none;"/>
   </g>
   <g id="text_16">
    <!-- Distribution of projected eye movement velocity on the screen - NewM1_11_42 -->
    <defs>
     <path d="M 7.71875 0 
L 7.71875 71.578125 
L 32.375 71.578125 
Q 40.71875 71.578125 45.125 70.5625 
Q 51.265625 69.140625 55.609375 65.4375 
Q 61.28125 60.640625 64.078125 53.1875 
Q 66.890625 45.75 66.890625 36.1875 
Q 66.890625 28.03125 64.984375 21.734375 
Q 63.09375 15.4375 60.109375 11.296875 
Q 57.125 7.171875 53.578125 4.796875 
Q 50.046875 2.4375 45.046875 1.21875 
Q 40.046875 0 33.546875 0 
z
M 17.1875 8.453125 
L 32.46875 8.453125 
Q 39.546875 8.453125 43.578125 9.765625 
Q 47.609375 11.078125 50 13.484375 
Q 53.375 16.84375 55.25 22.53125 
Q 57.125 28.21875 57.125 36.328125 
Q 57.125 47.5625 53.4375 53.59375 
Q 49.75 59.625 44.484375 61.671875 
Q 40.671875 63.140625 32.234375 63.140625 
L 17.1875 63.140625 
z
" id="ArialMT-68"/>
     <path d="M 6.640625 61.46875 
L 6.640625 71.578125 
L 15.4375 71.578125 
L 15.4375 61.46875 
z
M 6.640625 0 
L 6.640625 51.859375 
L 15.4375 51.859375 
L 15.4375 0 
z
" id="ArialMT-105"/>
     <path d="M 3.078125 15.484375 
L 11.765625 16.84375 
Q 12.5 11.625 15.84375 8.84375 
Q 19.1875 6.0625 25.203125 6.0625 
Q 31.25 6.0625 34.171875 8.515625 
Q 37.109375 10.984375 37.109375 14.3125 
Q 37.109375 17.28125 34.515625 19 
Q 32.71875 20.171875 25.53125 21.96875 
Q 15.875 24.421875 12.140625 26.203125 
Q 8.40625 27.984375 6.46875 31.125 
Q 4.546875 34.28125 4.546875 38.09375 
Q 4.546875 41.546875 6.125 44.5 
Q 7.71875 47.46875 10.453125 49.421875 
Q 12.5 50.921875 16.03125 51.96875 
Q 19.578125 53.03125 23.640625 53.03125 
Q 29.734375 53.03125 34.34375 51.265625 
Q 38.96875 49.515625 41.15625 46.5 
Q 43.359375 43.5 44.1875 38.484375 
L 35.59375 37.3125 
Q 35.015625 41.3125 32.203125 43.546875 
Q 29.390625 45.796875 24.265625 45.796875 
Q 18.21875 45.796875 15.625 43.796875 
Q 13.03125 41.796875 13.03125 39.109375 
Q 13.03125 37.40625 14.109375 36.03125 
Q 15.1875 34.625 17.484375 33.6875 
Q 18.796875 33.203125 25.25 31.453125 
Q 34.578125 28.953125 38.25 27.359375 
Q 41.9375 25.78125 44.03125 22.75 
Q 46.140625 19.734375 46.140625 15.234375 
Q 46.140625 10.84375 43.578125 6.953125 
Q 41.015625 3.078125 36.171875 0.953125 
Q 31.34375 -1.171875 25.25 -1.171875 
Q 15.140625 -1.171875 9.84375 3.03125 
Q 4.546875 7.234375 3.078125 15.484375 
z
" id="ArialMT-115"/>
     <path d="M 25.78125 7.859375 
L 27.046875 0.09375 
Q 23.34375 -0.6875 20.40625 -0.6875 
Q 15.625 -0.6875 12.984375 0.828125 
Q 10.359375 2.34375 9.28125 4.8125 
Q 8.203125 7.28125 8.203125 15.1875 
L 8.203125 45.015625 
L 1.765625 45.015625 
L 1.765625 51.859375 
L 8.203125 51.859375 
L 8.203125 64.703125 
L 16.9375 69.96875 
L 16.9375 51.859375 
L 25.78125 51.859375 
L 25.78125 45.015625 
L 16.9375 45.015625 
L 16.9375 14.703125 
Q 16.9375 10.9375 17.40625 9.859375 
Q 17.875 8.796875 18.921875 8.15625 
Q 19.96875 7.515625 21.921875 7.515625 
Q 23.390625 7.515625 25.78125 7.859375 
z
" id="ArialMT-116"/>
     <path d="M 6.5 0 
L 6.5 51.859375 
L 14.40625 51.859375 
L 14.40625 44 
Q 17.4375 49.515625 20 51.265625 
Q 22.5625 53.03125 25.640625 53.03125 
Q 30.078125 53.03125 34.671875 50.203125 
L 31.640625 42.046875 
Q 28.421875 43.953125 25.203125 43.953125 
Q 22.3125 43.953125 20.015625 42.21875 
Q 17.71875 40.484375 16.75 37.40625 
Q 15.28125 32.71875 15.28125 27.15625 
L 15.28125 0 
z
" id="ArialMT-114"/>
     <path d="M 14.703125 0 
L 6.546875 0 
L 6.546875 71.578125 
L 15.328125 71.578125 
L 15.328125 46.046875 
Q 20.90625 53.03125 29.546875 53.03125 
Q 34.328125 53.03125 38.59375 51.09375 
Q 42.875 49.171875 45.625 45.671875 
Q 48.390625 42.1875 49.953125 37.25 
Q 51.515625 32.328125 51.515625 26.703125 
Q 51.515625 13.375 44.921875 6.09375 
Q 38.328125 -1.171875 29.109375 -1.171875 
Q 19.921875 -1.171875 14.703125 6.5 
z
M 14.59375 26.3125 
Q 14.59375 17 17.140625 12.84375 
Q 21.296875 6.0625 28.375 6.0625 
Q 34.125 6.0625 38.328125 11.0625 
Q 42.53125 16.0625 42.53125 25.984375 
Q 42.53125 36.140625 38.5 40.96875 
Q 34.46875 45.796875 28.765625 45.796875 
Q 23 45.796875 18.796875 40.796875 
Q 14.59375 35.796875 14.59375 26.3125 
z
" id="ArialMT-98"/>
     <path d="M 40.578125 0 
L 40.578125 7.625 
Q 34.515625 -1.171875 24.125 -1.171875 
Q 19.53125 -1.171875 15.546875 0.578125 
Q 11.578125 2.34375 9.640625 5 
Q 7.71875 7.671875 6.9375 11.53125 
Q 6.390625 14.109375 6.390625 19.734375 
L 6.390625 51.859375 
L 15.1875 51.859375 
L 15.1875 23.09375 
Q 15.1875 16.21875 15.71875 13.8125 
Q 16.546875 10.359375 19.234375 8.375 
Q 21.921875 6.390625 25.875 6.390625 
Q 29.828125 6.390625 33.296875 8.421875 
Q 36.765625 10.453125 38.203125 13.9375 
Q 39.65625 17.4375 39.65625 24.078125 
L 39.65625 51.859375 
L 48.4375 51.859375 
L 48.4375 0 
z
" id="ArialMT-117"/>
     <path d="M 3.328125 25.921875 
Q 3.328125 40.328125 11.328125 47.265625 
Q 18.015625 53.03125 27.640625 53.03125 
Q 38.328125 53.03125 45.109375 46.015625 
Q 51.90625 39.015625 51.90625 26.65625 
Q 51.90625 16.65625 48.90625 10.90625 
Q 45.90625 5.171875 40.15625 2 
Q 34.421875 -1.171875 27.640625 -1.171875 
Q 16.75 -1.171875 10.03125 5.8125 
Q 3.328125 12.796875 3.328125 25.921875 
z
M 12.359375 25.921875 
Q 12.359375 15.96875 16.703125 11.015625 
Q 21.046875 6.0625 27.640625 6.0625 
Q 34.1875 6.0625 38.53125 11.03125 
Q 42.875 16.015625 42.875 26.21875 
Q 42.875 35.84375 38.5 40.796875 
Q 34.125 45.75 27.640625 45.75 
Q 21.046875 45.75 16.703125 40.8125 
Q 12.359375 35.890625 12.359375 25.921875 
z
" id="ArialMT-111"/>
     <path d="M 6.59375 0 
L 6.59375 51.859375 
L 14.5 51.859375 
L 14.5 44.484375 
Q 20.21875 53.03125 31 53.03125 
Q 35.6875 53.03125 39.625 51.34375 
Q 43.5625 49.65625 45.515625 46.921875 
Q 47.46875 44.1875 48.25 40.4375 
Q 48.734375 37.984375 48.734375 31.890625 
L 48.734375 0 
L 39.9375 0 
L 39.9375 31.546875 
Q 39.9375 36.921875 38.90625 39.578125 
Q 37.890625 42.234375 35.28125 43.8125 
Q 32.671875 45.40625 29.15625 45.40625 
Q 23.53125 45.40625 19.453125 41.84375 
Q 15.375 38.28125 15.375 28.328125 
L 15.375 0 
z
" id="ArialMT-110"/>
     <path id="ArialMT-32"/>
     <path d="M 8.6875 0 
L 8.6875 45.015625 
L 0.921875 45.015625 
L 0.921875 51.859375 
L 8.6875 51.859375 
L 8.6875 57.375 
Q 8.6875 62.59375 9.625 65.140625 
Q 10.890625 68.5625 14.078125 70.671875 
Q 17.28125 72.796875 23.046875 72.796875 
Q 26.765625 72.796875 31.25 71.921875 
L 29.9375 64.265625 
Q 27.203125 64.75 24.75 64.75 
Q 20.75 64.75 19.09375 63.03125 
Q 17.4375 61.328125 17.4375 56.640625 
L 17.4375 51.859375 
L 27.546875 51.859375 
L 27.546875 45.015625 
L 17.4375 45.015625 
L 17.4375 0 
z
" id="ArialMT-102"/>
     <path d="M 6.59375 -19.875 
L 6.59375 51.859375 
L 14.59375 51.859375 
L 14.59375 45.125 
Q 17.4375 49.078125 21 51.046875 
Q 24.5625 53.03125 29.640625 53.03125 
Q 36.28125 53.03125 41.359375 49.609375 
Q 46.4375 46.1875 49.015625 39.953125 
Q 51.609375 33.734375 51.609375 26.3125 
Q 51.609375 18.359375 48.75 11.984375 
Q 45.90625 5.609375 40.453125 2.21875 
Q 35.015625 -1.171875 29 -1.171875 
Q 24.609375 -1.171875 21.109375 0.6875 
Q 17.625 2.546875 15.375 5.375 
L 15.375 -19.875 
z
M 14.546875 25.640625 
Q 14.546875 15.625 18.59375 10.84375 
Q 22.65625 6.0625 28.421875 6.0625 
Q 34.28125 6.0625 38.453125 11.015625 
Q 42.625 15.96875 42.625 26.375 
Q 42.625 36.28125 38.546875 41.203125 
Q 34.46875 46.140625 28.8125 46.140625 
Q 23.1875 46.140625 18.859375 40.890625 
Q 14.546875 35.640625 14.546875 25.640625 
z
" id="ArialMT-112"/>
     <path d="M 6.546875 61.375 
L 6.546875 71.578125 
L 15.328125 71.578125 
L 15.328125 61.375 
z
M -4.59375 -20.125 
L -2.9375 -12.640625 
Q -0.296875 -13.328125 1.21875 -13.328125 
Q 3.90625 -13.328125 5.21875 -11.546875 
Q 6.546875 -9.765625 6.546875 -2.640625 
L 6.546875 51.859375 
L 15.328125 51.859375 
L 15.328125 -2.828125 
Q 15.328125 -12.40625 12.84375 -16.15625 
Q 9.671875 -21.046875 2.296875 -21.046875 
Q -1.265625 -21.046875 -4.59375 -20.125 
z
" id="ArialMT-106"/>
     <path d="M 42.09375 16.703125 
L 51.171875 15.578125 
Q 49.03125 7.625 43.21875 3.21875 
Q 37.40625 -1.171875 28.375 -1.171875 
Q 17 -1.171875 10.328125 5.828125 
Q 3.65625 12.84375 3.65625 25.484375 
Q 3.65625 38.578125 10.390625 45.796875 
Q 17.140625 53.03125 27.875 53.03125 
Q 38.28125 53.03125 44.875 45.953125 
Q 51.46875 38.875 51.46875 26.03125 
Q 51.46875 25.25 51.421875 23.6875 
L 12.75 23.6875 
Q 13.234375 15.140625 17.578125 10.59375 
Q 21.921875 6.0625 28.421875 6.0625 
Q 33.25 6.0625 36.671875 8.59375 
Q 40.09375 11.140625 42.09375 16.703125 
z
M 13.234375 30.90625 
L 42.1875 30.90625 
Q 41.609375 37.453125 38.875 40.71875 
Q 34.671875 45.796875 27.984375 45.796875 
Q 21.921875 45.796875 17.796875 41.75 
Q 13.671875 37.703125 13.234375 30.90625 
z
" id="ArialMT-101"/>
     <path d="M 40.4375 19 
L 49.078125 17.875 
Q 47.65625 8.9375 41.8125 3.875 
Q 35.984375 -1.171875 27.484375 -1.171875 
Q 16.84375 -1.171875 10.375 5.78125 
Q 3.90625 12.75 3.90625 25.734375 
Q 3.90625 34.125 6.6875 40.421875 
Q 9.46875 46.734375 15.15625 49.875 
Q 20.84375 53.03125 27.546875 53.03125 
Q 35.984375 53.03125 41.359375 48.75 
Q 46.734375 44.484375 48.25 36.625 
L 39.703125 35.296875 
Q 38.484375 40.53125 35.375 43.15625 
Q 32.28125 45.796875 27.875 45.796875 
Q 21.234375 45.796875 17.078125 41.03125 
Q 12.9375 36.28125 12.9375 25.984375 
Q 12.9375 15.53125 16.9375 10.796875 
Q 20.953125 6.0625 27.390625 6.0625 
Q 32.5625 6.0625 36.03125 9.234375 
Q 39.5 12.40625 40.4375 19 
z
" id="ArialMT-99"/>
     <path d="M 40.234375 0 
L 40.234375 6.546875 
Q 35.296875 -1.171875 25.734375 -1.171875 
Q 19.53125 -1.171875 14.328125 2.25 
Q 9.125 5.671875 6.265625 11.796875 
Q 3.421875 17.921875 3.421875 25.875 
Q 3.421875 33.640625 6 39.96875 
Q 8.59375 46.296875 13.765625 49.65625 
Q 18.953125 53.03125 25.34375 53.03125 
Q 30.03125 53.03125 33.6875 51.046875 
Q 37.359375 49.078125 39.65625 45.90625 
L 39.65625 71.578125 
L 48.390625 71.578125 
L 48.390625 0 
z
M 12.453125 25.875 
Q 12.453125 15.921875 16.640625 10.984375 
Q 20.84375 6.0625 26.5625 6.0625 
Q 32.328125 6.0625 36.34375 10.765625 
Q 40.375 15.484375 40.375 25.140625 
Q 40.375 35.796875 36.265625 40.765625 
Q 32.171875 45.75 26.171875 45.75 
Q 20.3125 45.75 16.375 40.96875 
Q 12.453125 36.1875 12.453125 25.875 
z
" id="ArialMT-100"/>
     <path d="M 6.203125 -19.96875 
L 5.21875 -11.71875 
Q 8.109375 -12.5 10.25 -12.5 
Q 13.1875 -12.5 14.9375 -11.515625 
Q 16.703125 -10.546875 17.828125 -8.796875 
Q 18.65625 -7.46875 20.515625 -2.25 
Q 20.75 -1.515625 21.296875 -0.09375 
L 1.609375 51.859375 
L 11.078125 51.859375 
L 21.875 21.828125 
Q 23.96875 16.109375 25.640625 9.8125 
Q 27.15625 15.875 29.25 21.625 
L 40.328125 51.859375 
L 49.125 51.859375 
L 29.390625 -0.875 
Q 26.21875 -9.421875 24.46875 -12.640625 
Q 22.125 -17 19.09375 -19.015625 
Q 16.0625 -21.046875 11.859375 -21.046875 
Q 9.328125 -21.046875 6.203125 -19.96875 
z
" id="ArialMT-121"/>
     <path d="M 6.59375 0 
L 6.59375 51.859375 
L 14.453125 51.859375 
L 14.453125 44.578125 
Q 16.890625 48.390625 20.9375 50.703125 
Q 25 53.03125 30.171875 53.03125 
Q 35.9375 53.03125 39.625 50.640625 
Q 43.3125 48.25 44.828125 43.953125 
Q 50.984375 53.03125 60.84375 53.03125 
Q 68.5625 53.03125 72.703125 48.75 
Q 76.859375 44.484375 76.859375 35.59375 
L 76.859375 0 
L 68.109375 0 
L 68.109375 32.671875 
Q 68.109375 37.9375 67.25 40.25 
Q 66.40625 42.578125 64.15625 43.984375 
Q 61.921875 45.40625 58.890625 45.40625 
Q 53.421875 45.40625 49.796875 41.765625 
Q 46.1875 38.140625 46.1875 30.125 
L 46.1875 0 
L 37.40625 0 
L 37.40625 33.6875 
Q 37.40625 39.546875 35.25 42.46875 
Q 33.109375 45.40625 28.21875 45.40625 
Q 24.515625 45.40625 21.359375 43.453125 
Q 18.21875 41.5 16.796875 37.734375 
Q 15.375 33.984375 15.375 26.90625 
L 15.375 0 
z
" id="ArialMT-109"/>
     <path d="M 21 0 
L 1.265625 51.859375 
L 10.546875 51.859375 
L 21.6875 20.796875 
Q 23.484375 15.765625 25 10.359375 
Q 26.171875 14.453125 28.265625 20.21875 
L 39.796875 51.859375 
L 48.828125 51.859375 
L 29.203125 0 
z
" id="ArialMT-118"/>
     <path d="M 6.390625 0 
L 6.390625 71.578125 
L 15.1875 71.578125 
L 15.1875 0 
z
" id="ArialMT-108"/>
     <path d="M 6.59375 0 
L 6.59375 71.578125 
L 15.375 71.578125 
L 15.375 45.90625 
Q 21.53125 53.03125 30.90625 53.03125 
Q 36.671875 53.03125 40.921875 50.75 
Q 45.171875 48.484375 47 44.484375 
Q 48.828125 40.484375 48.828125 32.859375 
L 48.828125 0 
L 40.046875 0 
L 40.046875 32.859375 
Q 40.046875 39.453125 37.1875 42.453125 
Q 34.328125 45.453125 29.109375 45.453125 
Q 25.203125 45.453125 21.75 43.421875 
Q 18.3125 41.40625 16.84375 37.9375 
Q 15.375 34.46875 15.375 28.375 
L 15.375 0 
z
" id="ArialMT-104"/>
     <path d="M 3.171875 21.484375 
L 3.171875 30.328125 
L 30.171875 30.328125 
L 30.171875 21.484375 
z
" id="ArialMT-45"/>
     <path d="M 7.625 0 
L 7.625 71.578125 
L 17.328125 71.578125 
L 54.9375 15.375 
L 54.9375 71.578125 
L 64.015625 71.578125 
L 64.015625 0 
L 54.296875 0 
L 16.703125 56.25 
L 16.703125 0 
z
" id="ArialMT-78"/>
     <path d="M 16.15625 0 
L 0.296875 51.859375 
L 9.375 51.859375 
L 17.625 21.921875 
L 20.703125 10.796875 
Q 20.90625 11.625 23.390625 21.484375 
L 31.640625 51.859375 
L 40.671875 51.859375 
L 48.4375 21.78125 
L 51.03125 11.859375 
L 54 21.875 
L 62.890625 51.859375 
L 71.4375 51.859375 
L 55.21875 0 
L 46.09375 0 
L 37.84375 31.0625 
L 35.84375 39.890625 
L 25.34375 0 
z
" id="ArialMT-119"/>
     <path d="M 7.421875 0 
L 7.421875 71.578125 
L 21.6875 71.578125 
L 38.625 20.90625 
Q 40.96875 13.8125 42.046875 10.296875 
Q 43.265625 14.203125 45.84375 21.78125 
L 62.984375 71.578125 
L 75.734375 71.578125 
L 75.734375 0 
L 66.609375 0 
L 66.609375 59.90625 
L 45.796875 0 
L 37.25 0 
L 16.546875 60.9375 
L 16.546875 0 
z
" id="ArialMT-77"/>
     <path d="M -1.515625 -19.875 
L -1.515625 -13.53125 
L 56.734375 -13.53125 
L 56.734375 -19.875 
z
" id="ArialMT-95"/>
    </defs>
    <g style="fill:#262626;" transform="translate(85.780313 23.748375)scale(0.12 -0.12)">
     <use xlink:href="#ArialMT-68"/>
     <use x="72.216797" xlink:href="#ArialMT-105"/>
     <use x="94.433594" xlink:href="#ArialMT-115"/>
     <use x="144.433594" xlink:href="#ArialMT-116"/>
     <use x="172.216797" xlink:href="#ArialMT-114"/>
     <use x="205.517578" xlink:href="#ArialMT-105"/>
     <use x="227.734375" xlink:href="#ArialMT-98"/>
     <use x="283.349609" xlink:href="#ArialMT-117"/>
     <use x="338.964844" xlink:href="#ArialMT-116"/>
     <use x="366.748047" xlink:href="#ArialMT-105"/>
     <use x="388.964844" xlink:href="#ArialMT-111"/>
     <use x="444.580078" xlink:href="#ArialMT-110"/>
     <use x="500.195312" xlink:href="#ArialMT-32"/>
     <use x="527.978516" xlink:href="#ArialMT-111"/>
     <use x="583.59375" xlink:href="#ArialMT-102"/>
     <use x="611.376953" xlink:href="#ArialMT-32"/>
     <use x="639.160156" xlink:href="#ArialMT-112"/>
     <use x="694.775391" xlink:href="#ArialMT-114"/>
     <use x="728.076172" xlink:href="#ArialMT-111"/>
     <use x="783.691406" xlink:href="#ArialMT-106"/>
     <use x="805.908203" xlink:href="#ArialMT-101"/>
     <use x="861.523438" xlink:href="#ArialMT-99"/>
     <use x="911.523438" xlink:href="#ArialMT-116"/>
     <use x="939.306641" xlink:href="#ArialMT-101"/>
     <use x="994.921875" xlink:href="#ArialMT-100"/>
     <use x="1050.537109" xlink:href="#ArialMT-32"/>
     <use x="1078.320312" xlink:href="#ArialMT-101"/>
     <use x="1133.935547" xlink:href="#ArialMT-121"/>
     <use x="1183.935547" xlink:href="#ArialMT-101"/>
     <use x="1239.550781" xlink:href="#ArialMT-32"/>
     <use x="1267.333984" xlink:href="#ArialMT-109"/>
     <use x="1350.634766" xlink:href="#ArialMT-111"/>
     <use x="1406.25" xlink:href="#ArialMT-118"/>
     <use x="1456.25" xlink:href="#ArialMT-101"/>
     <use x="1511.865234" xlink:href="#ArialMT-109"/>
     <use x="1595.166016" xlink:href="#ArialMT-101"/>
     <use x="1650.78125" xlink:href="#ArialMT-110"/>
     <use x="1706.396484" xlink:href="#ArialMT-116"/>
     <use x="1734.179688" xlink:href="#ArialMT-32"/>
     <use x="1761.962891" xlink:href="#ArialMT-118"/>
     <use x="1811.962891" xlink:href="#ArialMT-101"/>
     <use x="1867.578125" xlink:href="#ArialMT-108"/>
     <use x="1889.794922" xlink:href="#ArialMT-111"/>
     <use x="1945.410156" xlink:href="#ArialMT-99"/>
     <use x="1995.410156" xlink:href="#ArialMT-105"/>
     <use x="2017.626953" xlink:href="#ArialMT-116"/>
     <use x="2045.410156" xlink:href="#ArialMT-121"/>
     <use x="2095.410156" xlink:href="#ArialMT-32"/>
     <use x="2123.193359" xlink:href="#ArialMT-111"/>
     <use x="2178.808594" xlink:href="#ArialMT-110"/>
     <use x="2234.423828" xlink:href="#ArialMT-32"/>
     <use x="2262.207031" xlink:href="#ArialMT-116"/>
     <use x="2289.990234" xlink:href="#ArialMT-104"/>
     <use x="2345.605469" xlink:href="#ArialMT-101"/>
     <use x="2401.220703" xlink:href="#ArialMT-32"/>
     <use x="2429.003906" xlink:href="#ArialMT-115"/>
     <use x="2479.003906" xlink:href="#ArialMT-99"/>
     <use x="2529.003906" xlink:href="#ArialMT-114"/>
     <use x="2562.304688" xlink:href="#ArialMT-101"/>
     <use x="2617.919922" xlink:href="#ArialMT-101"/>
     <use x="2673.535156" xlink:href="#ArialMT-110"/>
     <use x="2729.150391" xlink:href="#ArialMT-32"/>
     <use x="2756.933594" xlink:href="#ArialMT-45"/>
     <use x="2790.234375" xlink:href="#ArialMT-32"/>
     <use x="2818.017578" xlink:href="#ArialMT-78"/>
     <use x="2890.234375" xlink:href="#ArialMT-101"/>
     <use x="2945.849609" xlink:href="#ArialMT-119"/>
     <use x="3018.066406" xlink:href="#ArialMT-77"/>
     <use x="3101.367188" xlink:href="#ArialMT-49"/>
     <use x="3156.982422" xlink:href="#ArialMT-95"/>
     <use x="3212.597656" xlink:href="#ArialMT-49"/>
     <use x="3268.103516" xlink:href="#ArialMT-49"/>
     <use x="3323.71875" xlink:href="#ArialMT-95"/>
     <use x="3379.333984" xlink:href="#ArialMT-52"/>
     <use x="3434.949219" xlink:href="#ArialMT-50"/>
    </g>
   </g>
   <g id="legend_1">
    <g id="line2d_17">
     <path d="M 198.370313 60.2075 
L 218.370313 60.2075 
" style="fill:none;stroke:#ff0000;stroke-dasharray:7.4,3.2;stroke-dashoffset:0;stroke-width:2;"/>
    </g>
    <g id="line2d_18"/>
    <g id="text_17">
     <!-- Average angle in light: 37.98 degrees -->
     <defs>
      <path d="M -0.140625 0 
L 27.34375 71.578125 
L 37.546875 71.578125 
L 66.84375 0 
L 56.0625 0 
L 47.703125 21.6875 
L 17.78125 21.6875 
L 9.90625 0 
z
M 20.515625 29.390625 
L 44.78125 29.390625 
L 37.3125 49.21875 
Q 33.890625 58.25 32.234375 64.0625 
Q 30.859375 57.171875 28.375 50.390625 
z
" id="ArialMT-65"/>
      <path d="M 40.4375 6.390625 
Q 35.546875 2.25 31.03125 0.53125 
Q 26.515625 -1.171875 21.34375 -1.171875 
Q 12.796875 -1.171875 8.203125 3 
Q 3.609375 7.171875 3.609375 13.671875 
Q 3.609375 17.484375 5.34375 20.625 
Q 7.078125 23.78125 9.890625 25.6875 
Q 12.703125 27.59375 16.21875 28.5625 
Q 18.796875 29.25 24.03125 29.890625 
Q 34.671875 31.15625 39.703125 32.90625 
Q 39.75 34.71875 39.75 35.203125 
Q 39.75 40.578125 37.25 42.78125 
Q 33.890625 45.75 27.25 45.75 
Q 21.046875 45.75 18.09375 43.578125 
Q 15.140625 41.40625 13.71875 35.890625 
L 5.125 37.0625 
Q 6.296875 42.578125 8.984375 45.96875 
Q 11.671875 49.359375 16.75 51.1875 
Q 21.828125 53.03125 28.515625 53.03125 
Q 35.15625 53.03125 39.296875 51.46875 
Q 43.453125 49.90625 45.40625 47.53125 
Q 47.359375 45.171875 48.140625 41.546875 
Q 48.578125 39.3125 48.578125 33.453125 
L 48.578125 21.734375 
Q 48.578125 9.46875 49.140625 6.21875 
Q 49.703125 2.984375 51.375 0 
L 42.1875 0 
Q 40.828125 2.734375 40.4375 6.390625 
z
M 39.703125 26.03125 
Q 34.90625 24.078125 25.34375 22.703125 
Q 19.921875 21.921875 17.671875 20.9375 
Q 15.4375 19.96875 14.203125 18.09375 
Q 12.984375 16.21875 12.984375 13.921875 
Q 12.984375 10.40625 15.640625 8.0625 
Q 18.3125 5.71875 23.4375 5.71875 
Q 28.515625 5.71875 32.46875 7.9375 
Q 36.421875 10.15625 38.28125 14.015625 
Q 39.703125 17 39.703125 22.796875 
z
" id="ArialMT-97"/>
      <path d="M 4.984375 -4.296875 
L 13.53125 -5.5625 
Q 14.0625 -9.515625 16.5 -11.328125 
Q 19.78125 -13.765625 25.4375 -13.765625 
Q 31.546875 -13.765625 34.859375 -11.328125 
Q 38.1875 -8.890625 39.359375 -4.5 
Q 40.046875 -1.8125 39.984375 6.78125 
Q 34.234375 0 25.640625 0 
Q 14.9375 0 9.078125 7.71875 
Q 3.21875 15.4375 3.21875 26.21875 
Q 3.21875 33.640625 5.90625 39.90625 
Q 8.59375 46.1875 13.6875 49.609375 
Q 18.796875 53.03125 25.6875 53.03125 
Q 34.859375 53.03125 40.828125 45.609375 
L 40.828125 51.859375 
L 48.921875 51.859375 
L 48.921875 7.03125 
Q 48.921875 -5.078125 46.453125 -10.125 
Q 44 -15.1875 38.640625 -18.109375 
Q 33.296875 -21.046875 25.484375 -21.046875 
Q 16.21875 -21.046875 10.5 -16.875 
Q 4.78125 -12.703125 4.984375 -4.296875 
z
M 12.25 26.859375 
Q 12.25 16.65625 16.296875 11.96875 
Q 20.359375 7.28125 26.46875 7.28125 
Q 32.515625 7.28125 36.609375 11.9375 
Q 40.71875 16.609375 40.71875 26.5625 
Q 40.71875 36.078125 36.5 40.90625 
Q 32.28125 45.75 26.3125 45.75 
Q 20.453125 45.75 16.34375 40.984375 
Q 12.25 36.234375 12.25 26.859375 
z
" id="ArialMT-103"/>
      <path d="M 9.03125 41.84375 
L 9.03125 51.859375 
L 19.046875 51.859375 
L 19.046875 41.84375 
z
M 9.03125 0 
L 9.03125 10.015625 
L 19.046875 10.015625 
L 19.046875 0 
z
" id="ArialMT-58"/>
     </defs>
     <g style="fill:#262626;" transform="translate(226.370313 63.7075)scale(0.1 -0.1)">
      <use xlink:href="#ArialMT-65"/>
      <use x="66.683594" xlink:href="#ArialMT-118"/>
      <use x="116.683594" xlink:href="#ArialMT-101"/>
      <use x="172.298828" xlink:href="#ArialMT-114"/>
      <use x="205.599609" xlink:href="#ArialMT-97"/>
      <use x="261.214844" xlink:href="#ArialMT-103"/>
      <use x="316.830078" xlink:href="#ArialMT-101"/>
      <use x="372.445312" xlink:href="#ArialMT-32"/>
      <use x="400.228516" xlink:href="#ArialMT-97"/>
      <use x="455.84375" xlink:href="#ArialMT-110"/>
      <use x="511.458984" xlink:href="#ArialMT-103"/>
      <use x="567.074219" xlink:href="#ArialMT-108"/>
      <use x="589.291016" xlink:href="#ArialMT-101"/>
      <use x="644.90625" xlink:href="#ArialMT-32"/>
      <use x="672.689453" xlink:href="#ArialMT-105"/>
      <use x="694.90625" xlink:href="#ArialMT-110"/>
      <use x="750.521484" xlink:href="#ArialMT-32"/>
      <use x="778.304688" xlink:href="#ArialMT-108"/>
      <use x="800.521484" xlink:href="#ArialMT-105"/>
      <use x="822.738281" xlink:href="#ArialMT-103"/>
      <use x="878.353516" xlink:href="#ArialMT-104"/>
      <use x="933.96875" xlink:href="#ArialMT-116"/>
      <use x="961.751953" xlink:href="#ArialMT-58"/>
      <use x="989.535156" xlink:href="#ArialMT-32"/>
      <use x="1017.318359" xlink:href="#ArialMT-51"/>
      <use x="1072.933594" xlink:href="#ArialMT-55"/>
      <use x="1128.548828" xlink:href="#ArialMT-46"/>
      <use x="1156.332031" xlink:href="#ArialMT-57"/>
      <use x="1211.947266" xlink:href="#ArialMT-56"/>
      <use x="1267.5625" xlink:href="#ArialMT-32"/>
      <use x="1295.345703" xlink:href="#ArialMT-100"/>
      <use x="1350.960938" xlink:href="#ArialMT-101"/>
      <use x="1406.576172" xlink:href="#ArialMT-103"/>
      <use x="1462.191406" xlink:href="#ArialMT-114"/>
      <use x="1495.492188" xlink:href="#ArialMT-101"/>
      <use x="1551.107422" xlink:href="#ArialMT-101"/>
      <use x="1606.722656" xlink:href="#ArialMT-115"/>
     </g>
    </g>
    <g id="PathCollection_4">
     <g>
      <use style="fill:#4c72b0;stroke:#4c72b0;stroke-width:0.3;" x="208.370313" xlink:href="#mb1683a361d" y="75.345"/>
     </g>
    </g>
    <g id="text_18">
     <!-- $-0.5 &lt; t &lt; 0.$ -->
     <defs>
      <path d="M 10.59375 35.5 
L 73.1875 35.5 
L 73.1875 27.203125 
L 10.59375 27.203125 
z
" id="DejaVuSans-8722"/>
      <path d="M 31.78125 66.40625 
Q 24.171875 66.40625 20.328125 58.90625 
Q 16.5 51.421875 16.5 36.375 
Q 16.5 21.390625 20.328125 13.890625 
Q 24.171875 6.390625 31.78125 6.390625 
Q 39.453125 6.390625 43.28125 13.890625 
Q 47.125 21.390625 47.125 36.375 
Q 47.125 51.421875 43.28125 58.90625 
Q 39.453125 66.40625 31.78125 66.40625 
z
M 31.78125 74.21875 
Q 44.046875 74.21875 50.515625 64.515625 
Q 56.984375 54.828125 56.984375 36.375 
Q 56.984375 17.96875 50.515625 8.265625 
Q 44.046875 -1.421875 31.78125 -1.421875 
Q 19.53125 -1.421875 13.0625 8.265625 
Q 6.59375 17.96875 6.59375 36.375 
Q 6.59375 54.828125 13.0625 64.515625 
Q 19.53125 74.21875 31.78125 74.21875 
z
" id="DejaVuSans-48"/>
      <path d="M 10.6875 12.40625 
L 21 12.40625 
L 21 0 
L 10.6875 0 
z
" id="DejaVuSans-46"/>
      <path d="M 10.796875 72.90625 
L 49.515625 72.90625 
L 49.515625 64.59375 
L 19.828125 64.59375 
L 19.828125 46.734375 
Q 21.96875 47.46875 24.109375 47.828125 
Q 26.265625 48.1875 28.421875 48.1875 
Q 40.625 48.1875 47.75 41.5 
Q 54.890625 34.8125 54.890625 23.390625 
Q 54.890625 11.625 47.5625 5.09375 
Q 40.234375 -1.421875 26.90625 -1.421875 
Q 22.3125 -1.421875 17.546875 -0.640625 
Q 12.796875 0.140625 7.71875 1.703125 
L 7.71875 11.625 
Q 12.109375 9.234375 16.796875 8.0625 
Q 21.484375 6.890625 26.703125 6.890625 
Q 35.15625 6.890625 40.078125 11.328125 
Q 45.015625 15.765625 45.015625 23.390625 
Q 45.015625 31 40.078125 35.4375 
Q 35.15625 39.890625 26.703125 39.890625 
Q 22.75 39.890625 18.8125 39.015625 
Q 14.890625 38.140625 10.796875 36.28125 
z
" id="DejaVuSans-53"/>
      <path d="M 73.1875 49.21875 
L 22.796875 31.296875 
L 73.1875 13.484375 
L 73.1875 4.59375 
L 10.59375 27.296875 
L 10.59375 35.40625 
L 73.1875 58.109375 
z
" id="DejaVuSans-60"/>
      <path d="M 42.28125 54.6875 
L 40.921875 47.703125 
L 23 47.703125 
L 17.1875 18.015625 
Q 16.890625 16.359375 16.75 15.234375 
Q 16.609375 14.109375 16.609375 13.484375 
Q 16.609375 10.359375 18.484375 8.9375 
Q 20.359375 7.515625 24.515625 7.515625 
L 33.59375 7.515625 
L 32.078125 0 
L 23.484375 0 
Q 15.484375 0 11.546875 3.125 
Q 7.625 6.25 7.625 12.59375 
Q 7.625 13.71875 7.765625 15.0625 
Q 7.90625 16.40625 8.203125 18.015625 
L 14.015625 47.703125 
L 6.390625 47.703125 
L 7.8125 54.6875 
L 15.28125 54.6875 
L 18.3125 70.21875 
L 27.296875 70.21875 
L 24.3125 54.6875 
z
" id="DejaVuSans-Oblique-116"/>
     </defs>
     <g style="fill:#262626;" transform="translate(226.370313 77.97)scale(0.1 -0.1)">
      <use transform="translate(0 0.78125)" xlink:href="#DejaVuSans-8722"/>
      <use transform="translate(83.789062 0.78125)" xlink:href="#DejaVuSans-48"/>
      <use transform="translate(147.412109 0.78125)" xlink:href="#DejaVuSans-46"/>
      <use transform="translate(179.199219 0.78125)" xlink:href="#DejaVuSans-53"/>
      <use transform="translate(262.304688 0.78125)" xlink:href="#DejaVuSans-60"/>
      <use transform="translate(365.576172 0.78125)" xlink:href="#DejaVuSans-Oblique-116"/>
      <use transform="translate(424.267578 0.78125)" xlink:href="#DejaVuSans-60"/>
      <use transform="translate(527.539062 0.78125)" xlink:href="#DejaVuSans-48"/>
     </g>
    </g>
    <g id="PathCollection_5">
     <g>
      <use style="fill:#55a868;stroke:#55a868;stroke-width:0.3;" x="208.370313" xlink:href="#mb75e347f0f" y="89.490312"/>
     </g>
    </g>
    <g id="text_19">
     <!-- $0. &lt; t &lt; 0.5$ -->
     <g style="fill:#262626;" transform="translate(226.370313 92.115312)scale(0.1 -0.1)">
      <use transform="translate(0 0.78125)" xlink:href="#DejaVuSans-48"/>
      <use transform="translate(63.623047 0.78125)" xlink:href="#DejaVuSans-46"/>
      <use transform="translate(134.375 0.78125)" xlink:href="#DejaVuSans-60"/>
      <use transform="translate(237.646484 0.78125)" xlink:href="#DejaVuSans-Oblique-116"/>
      <use transform="translate(296.337891 0.78125)" xlink:href="#DejaVuSans-60"/>
      <use transform="translate(399.609375 0.78125)" xlink:href="#DejaVuSans-48"/>
      <use transform="translate(463.232422 0.78125)" xlink:href="#DejaVuSans-46"/>
      <use transform="translate(495.019531 0.78125)" xlink:href="#DejaVuSans-53"/>
     </g>
    </g>
    <g id="PathCollection_6">
     <g>
      <use style="fill:#c44e52;stroke:#c44e52;stroke-width:0.3;" x="208.370313" xlink:href="#maa0da926b4" y="103.635625"/>
     </g>
    </g>
    <g id="text_20">
     <!-- $0.5 &lt; t &lt; 1.$ -->
     <defs>
      <path d="M 12.40625 8.296875 
L 28.515625 8.296875 
L 28.515625 63.921875 
L 10.984375 60.40625 
L 10.984375 69.390625 
L 28.421875 72.90625 
L 38.28125 72.90625 
L 38.28125 8.296875 
L 54.390625 8.296875 
L 54.390625 0 
L 12.40625 0 
z
" id="DejaVuSans-49"/>
     </defs>
     <g style="fill:#262626;" transform="translate(226.370313 106.260625)scale(0.1 -0.1)">
      <use transform="translate(0 0.78125)" xlink:href="#DejaVuSans-48"/>
      <use transform="translate(63.623047 0.78125)" xlink:href="#DejaVuSans-46"/>
      <use transform="translate(95.410156 0.78125)" xlink:href="#DejaVuSans-53"/>
      <use transform="translate(178.515625 0.78125)" xlink:href="#DejaVuSans-60"/>
      <use transform="translate(281.787109 0.78125)" xlink:href="#DejaVuSans-Oblique-116"/>
      <use transform="translate(340.478516 0.78125)" xlink:href="#DejaVuSans-60"/>
      <use transform="translate(443.75 0.78125)" xlink:href="#DejaVuSans-49"/>
     </g>
    </g>
   </g>
  </g>
 </g>
 <defs>
  <clipPath id="p7b8b595923">
   <path d="M 447.66 199.98 
C 447.66 179.959136 443.716326 160.13295 436.054674 141.636084 
C 428.393021 123.139218 417.162388 106.331389 403.0055 92.1745 
C 388.848611 78.017612 372.040782 66.786979 353.543916 59.125326 
C 335.04705 51.463674 315.220864 47.52 295.2 47.52 
C 275.179136 47.52 255.35295 51.463674 236.856084 59.125326 
C 218.359218 66.786979 201.551389 78.017612 187.3945 92.1745 
C 173.237612 106.331389 162.006979 123.139218 154.345326 141.636084 
C 146.683674 160.13295 142.74 179.959136 142.74 199.98 
C 142.74 220.000864 146.683674 239.82705 154.345326 258.323916 
C 162.006979 276.820782 173.237612 293.628611 187.3945 307.7855 
C 201.551389 321.942388 218.359218 333.173021 236.856084 340.834674 
C 255.35295 348.496326 275.179136 352.44 295.2 352.44 
C 315.220864 352.44 335.04705 348.496326 353.543916 340.834674 
C 372.040782 333.173021 388.848611 321.942388 403.0055 307.7855 
C 417.162388 293.628611 428.393021 276.820782 436.054674 258.323916 
C 443.716326 239.82705 447.66 220.000864 447.66 199.98 
M 295.2 199.98 
C 295.2 199.98 295.2 199.98 295.2 199.98 
C 295.2 199.98 295.2 199.98 295.2 199.98 
C 295.2 199.98 295.2 199.98 295.2 199.98 
C 295.2 199.98 295.2 199.98 295.2 199.98 
C 295.2 199.98 295.2 199.98 295.2 199.98 
C 295.2 199.98 295.2 199.98 295.2 199.98 
C 295.2 199.98 295.2 199.98 295.2 199.98 
C 295.2 199.98 295.2 199.98 295.2 199.98 
C 295.2 199.98 295.2 199.98 295.2 199.98 
C 295.2 199.98 295.2 199.98 295.2 199.98 
C 295.2 199.98 295.2 199.98 295.2 199.98 
C 295.2 199.98 295.2 199.98 295.2 199.98 
C 295.2 199.98 295.2 199.98 295.2 199.98 
C 295.2 199.98 295.2 199.98 295.2 199.98 
C 295.2 199.98 295.2 199.98 295.2 199.98 
C 295.2 199.98 295.2 199.98 295.2 199.98 
M 447.66 199.98 
z
"/>
  </clipPath>
 </defs>
</svg>
