<?xml version="1.0" encoding="utf-8" standalone="no"?>
<!DOCTYPE svg PUBLIC "-//W3C//DTD SVG 1.1//EN"
  "http://www.w3.org/Graphics/SVG/1.1/DTD/svg11.dtd">
<!-- Created with matplotlib (https://matplotlib.org/) -->
<svg height="396pt" version="1.1" viewBox="0 0 576 396" width="576pt" xmlns="http://www.w3.org/2000/svg" xmlns:xlink="http://www.w3.org/1999/xlink">
 <defs>
  <style type="text/css">
*{stroke-linecap:butt;stroke-linejoin:round;}
  </style>
 </defs>
 <g id="figure_1">
  <g id="patch_1">
   <path d="M 0 396 
L 576 396 
L 576 0 
L 0 0 
z
" style="fill:#ffffff;"/>
  </g>
  <g id="axes_1">
   <g id="patch_2">
    <path d="M 447.66 199.98 
C 447.66 179.959136 443.716326 160.13295 436.054674 141.636084 
C 428.393021 123.139218 417.162388 106.331389 403.0055 92.1745 
C 388.848611 78.017612 372.040782 66.786979 353.543916 59.125326 
C 335.04705 51.463674 315.220864 47.52 295.2 47.52 
C 275.179136 47.52 255.35295 51.463674 236.856084 59.125326 
C 218.359218 66.786979 201.551389 78.017612 187.3945 92.1745 
C 173.237612 106.331389 162.006979 123.139218 154.345326 141.636084 
C 146.683674 160.13295 142.74 179.959136 142.74 199.98 
C 142.74 220.000864 146.683674 239.82705 154.345326 258.323916 
C 162.006979 276.820782 173.237612 293.628611 187.3945 307.7855 
C 201.551389 321.942388 218.359218 333.173021 236.856084 340.834674 
C 255.35295 348.496326 275.179136 352.44 295.2 352.44 
C 315.220864 352.44 335.04705 348.496326 353.543916 340.834674 
C 372.040782 333.173021 388.848611 321.942388 403.0055 307.7855 
C 417.162388 293.628611 428.393021 276.820782 436.054674 258.323916 
C 443.716326 239.82705 447.66 220.000864 447.66 199.98 
M 295.2 199.98 
C 295.2 199.98 295.2 199.98 295.2 199.98 
C 295.2 199.98 295.2 199.98 295.2 199.98 
C 295.2 199.98 295.2 199.98 295.2 199.98 
C 295.2 199.98 295.2 199.98 295.2 199.98 
C 295.2 199.98 295.2 199.98 295.2 199.98 
C 295.2 199.98 295.2 199.98 295.2 199.98 
C 295.2 199.98 295.2 199.98 295.2 199.98 
C 295.2 199.98 295.2 199.98 295.2 199.98 
C 295.2 199.98 295.2 199.98 295.2 199.98 
C 295.2 199.98 295.2 199.98 295.2 199.98 
C 295.2 199.98 295.2 199.98 295.2 199.98 
C 295.2 199.98 295.2 199.98 295.2 199.98 
C 295.2 199.98 295.2 199.98 295.2 199.98 
C 295.2 199.98 295.2 199.98 295.2 199.98 
C 295.2 199.98 295.2 199.98 295.2 199.98 
C 295.2 199.98 295.2 199.98 295.2 199.98 
M 447.66 199.98 
z
" style="fill:#eaeaf2;"/>
   </g>
   <g id="matplotlib.axis_1">
    <g id="xtick_1">
     <g id="line2d_1">
      <path clip-path="url(#pb324d04deb)" d="M 295.2 199.98 
L 447.66 199.98 
" style="fill:none;stroke:#ffffff;stroke-linecap:round;"/>
     </g>
     <g id="text_1">
      <!-- 0° -->
      <defs>
       <path d="M 4.15625 35.296875 
Q 4.15625 48 6.765625 55.734375 
Q 9.375 63.484375 14.515625 67.671875 
Q 19.671875 71.875 27.484375 71.875 
Q 33.25 71.875 37.59375 69.546875 
Q 41.9375 67.234375 44.765625 62.859375 
Q 47.609375 58.5 49.21875 52.21875 
Q 50.828125 45.953125 50.828125 35.296875 
Q 50.828125 22.703125 48.234375 14.96875 
Q 45.65625 7.234375 40.5 3 
Q 35.359375 -1.21875 27.484375 -1.21875 
Q 17.140625 -1.21875 11.234375 6.203125 
Q 4.15625 15.140625 4.15625 35.296875 
z
M 13.1875 35.296875 
Q 13.1875 17.671875 17.3125 11.828125 
Q 21.4375 6 27.484375 6 
Q 33.546875 6 37.671875 11.859375 
Q 41.796875 17.71875 41.796875 35.296875 
Q 41.796875 52.984375 37.671875 58.78125 
Q 33.546875 64.59375 27.390625 64.59375 
Q 21.34375 64.59375 17.71875 59.46875 
Q 13.1875 52.9375 13.1875 35.296875 
z
" id="ArialMT-48"/>
       <path d="M 6.25 59.28125 
Q 6.25 64.890625 10.21875 68.84375 
Q 14.203125 72.796875 19.78125 72.796875 
Q 25.4375 72.796875 29.390625 68.84375 
Q 33.34375 64.890625 33.34375 59.28125 
Q 33.34375 53.65625 29.359375 49.671875 
Q 25.390625 45.703125 19.78125 45.703125 
Q 14.203125 45.703125 10.21875 49.65625 
Q 6.25 53.609375 6.25 59.28125 
z
M 11.578125 59.28125 
Q 11.578125 55.859375 13.984375 53.4375 
Q 16.40625 51.03125 19.828125 51.03125 
Q 23.1875 51.03125 25.609375 53.4375 
Q 28.03125 55.859375 28.03125 59.28125 
Q 28.03125 62.703125 25.609375 65.109375 
Q 23.1875 67.53125 19.828125 67.53125 
Q 16.40625 67.53125 13.984375 65.109375 
Q 11.578125 62.703125 11.578125 59.28125 
z
" id="ArialMT-176"/>
      </defs>
      <g style="fill:#262626;" transform="translate(456.880312 202.565156)scale(0.1 -0.1)">
       <use xlink:href="#ArialMT-48"/>
       <use x="55.615234" xlink:href="#ArialMT-176"/>
      </g>
     </g>
    </g>
    <g id="xtick_2">
     <g id="line2d_2">
      <path clip-path="url(#pb324d04deb)" d="M 295.2 199.98 
L 403.0055 92.1745 
" style="fill:none;stroke:#ffffff;stroke-linecap:round;"/>
     </g>
     <g id="text_2">
      <!-- 45° -->
      <defs>
       <path d="M 32.328125 0 
L 32.328125 17.140625 
L 1.265625 17.140625 
L 1.265625 25.203125 
L 33.9375 71.578125 
L 41.109375 71.578125 
L 41.109375 25.203125 
L 50.78125 25.203125 
L 50.78125 17.140625 
L 41.109375 17.140625 
L 41.109375 0 
z
M 32.328125 25.203125 
L 32.328125 57.46875 
L 9.90625 25.203125 
z
" id="ArialMT-52"/>
       <path d="M 4.15625 18.75 
L 13.375 19.53125 
Q 14.40625 12.796875 18.140625 9.390625 
Q 21.875 6 27.15625 6 
Q 33.5 6 37.890625 10.78125 
Q 42.28125 15.578125 42.28125 23.484375 
Q 42.28125 31 38.0625 35.34375 
Q 33.84375 39.703125 27 39.703125 
Q 22.75 39.703125 19.328125 37.765625 
Q 15.921875 35.84375 13.96875 32.765625 
L 5.71875 33.84375 
L 12.640625 70.609375 
L 48.25 70.609375 
L 48.25 62.203125 
L 19.671875 62.203125 
L 15.828125 42.96875 
Q 22.265625 47.46875 29.34375 47.46875 
Q 38.71875 47.46875 45.15625 40.96875 
Q 51.609375 34.46875 51.609375 24.265625 
Q 51.609375 14.546875 45.953125 7.46875 
Q 39.0625 -1.21875 27.15625 -1.21875 
Q 17.390625 -1.21875 11.203125 4.25 
Q 5.03125 9.71875 4.15625 18.75 
z
" id="ArialMT-53"/>
      </defs>
      <g style="fill:#262626;" transform="translate(405.344839 84.860161)scale(0.1 -0.1)">
       <use xlink:href="#ArialMT-52"/>
       <use x="55.615234" xlink:href="#ArialMT-53"/>
       <use x="111.230469" xlink:href="#ArialMT-176"/>
      </g>
     </g>
    </g>
    <g id="xtick_3">
     <g id="line2d_3">
      <path clip-path="url(#pb324d04deb)" d="M 295.2 199.98 
L 295.2 47.52 
" style="fill:none;stroke:#ffffff;stroke-linecap:round;"/>
     </g>
     <g id="text_3">
      <!-- 90° -->
      <defs>
       <path d="M 5.46875 16.546875 
L 13.921875 17.328125 
Q 14.984375 11.375 18.015625 8.6875 
Q 21.046875 6 25.78125 6 
Q 29.828125 6 32.875 7.859375 
Q 35.9375 9.71875 37.890625 12.8125 
Q 39.84375 15.921875 41.15625 21.1875 
Q 42.484375 26.46875 42.484375 31.9375 
Q 42.484375 32.515625 42.4375 33.6875 
Q 39.796875 29.5 35.234375 26.875 
Q 30.671875 24.265625 25.34375 24.265625 
Q 16.453125 24.265625 10.296875 30.703125 
Q 4.15625 37.15625 4.15625 47.703125 
Q 4.15625 58.59375 10.578125 65.234375 
Q 17 71.875 26.65625 71.875 
Q 33.640625 71.875 39.421875 68.109375 
Q 45.21875 64.359375 48.21875 57.390625 
Q 51.21875 50.4375 51.21875 37.25 
Q 51.21875 23.53125 48.234375 15.40625 
Q 45.265625 7.28125 39.375 3.03125 
Q 33.5 -1.21875 25.59375 -1.21875 
Q 17.1875 -1.21875 11.859375 3.4375 
Q 6.546875 8.109375 5.46875 16.546875 
z
M 41.453125 48.140625 
Q 41.453125 55.71875 37.421875 60.15625 
Q 33.40625 64.59375 27.734375 64.59375 
Q 21.875 64.59375 17.53125 59.8125 
Q 13.1875 55.03125 13.1875 47.40625 
Q 13.1875 40.578125 17.3125 36.296875 
Q 21.4375 32.03125 27.484375 32.03125 
Q 33.59375 32.03125 37.515625 36.296875 
Q 41.453125 40.578125 41.453125 48.140625 
z
" id="ArialMT-57"/>
      </defs>
      <g style="fill:#262626;" transform="translate(287.639844 36.105156)scale(0.1 -0.1)">
       <use xlink:href="#ArialMT-57"/>
       <use x="55.615234" xlink:href="#ArialMT-48"/>
       <use x="111.230469" xlink:href="#ArialMT-176"/>
      </g>
     </g>
    </g>
    <g id="xtick_4">
     <g id="line2d_4">
      <path clip-path="url(#pb324d04deb)" d="M 295.2 199.98 
L 187.3945 92.1745 
" style="fill:none;stroke:#ffffff;stroke-linecap:round;"/>
     </g>
     <g id="text_4">
      <!-- 135° -->
      <defs>
       <path d="M 37.25 0 
L 28.46875 0 
L 28.46875 56 
Q 25.296875 52.984375 20.140625 49.953125 
Q 14.984375 46.921875 10.890625 45.40625 
L 10.890625 53.90625 
Q 18.265625 57.375 23.78125 62.296875 
Q 29.296875 67.234375 31.59375 71.875 
L 37.25 71.875 
z
" id="ArialMT-49"/>
       <path d="M 4.203125 18.890625 
L 12.984375 20.0625 
Q 14.5 12.59375 18.140625 9.296875 
Q 21.78125 6 27 6 
Q 33.203125 6 37.46875 10.296875 
Q 41.75 14.59375 41.75 20.953125 
Q 41.75 27 37.796875 30.921875 
Q 33.84375 34.859375 27.734375 34.859375 
Q 25.25 34.859375 21.53125 33.890625 
L 22.515625 41.609375 
Q 23.390625 41.5 23.921875 41.5 
Q 29.546875 41.5 34.03125 44.421875 
Q 38.53125 47.359375 38.53125 53.46875 
Q 38.53125 58.296875 35.25 61.46875 
Q 31.984375 64.65625 26.8125 64.65625 
Q 21.6875 64.65625 18.265625 61.421875 
Q 14.84375 58.203125 13.875 51.765625 
L 5.078125 53.328125 
Q 6.6875 62.15625 12.390625 67.015625 
Q 18.109375 71.875 26.609375 71.875 
Q 32.46875 71.875 37.390625 69.359375 
Q 42.328125 66.84375 44.9375 62.5 
Q 47.5625 58.15625 47.5625 53.265625 
Q 47.5625 48.640625 45.0625 44.828125 
Q 42.578125 41.015625 37.703125 38.765625 
Q 44.046875 37.3125 47.5625 32.6875 
Q 51.078125 28.078125 51.078125 21.140625 
Q 51.078125 11.765625 44.234375 5.25 
Q 37.40625 -1.265625 26.953125 -1.265625 
Q 17.53125 -1.265625 11.296875 4.34375 
Q 5.078125 9.96875 4.203125 18.890625 
z
" id="ArialMT-51"/>
      </defs>
      <g style="fill:#262626;" transform="translate(167.15438 84.860161)scale(0.1 -0.1)">
       <use xlink:href="#ArialMT-49"/>
       <use x="55.615234" xlink:href="#ArialMT-51"/>
       <use x="111.230469" xlink:href="#ArialMT-53"/>
       <use x="166.845703" xlink:href="#ArialMT-176"/>
      </g>
     </g>
    </g>
    <g id="xtick_5">
     <g id="line2d_5">
      <path clip-path="url(#pb324d04deb)" d="M 295.2 199.98 
L 142.74 199.98 
" style="fill:none;stroke:#ffffff;stroke-linecap:round;"/>
     </g>
     <g id="text_5">
      <!-- 180° -->
      <defs>
       <path d="M 17.671875 38.8125 
Q 12.203125 40.828125 9.5625 44.53125 
Q 6.9375 48.25 6.9375 53.421875 
Q 6.9375 61.234375 12.546875 66.546875 
Q 18.171875 71.875 27.484375 71.875 
Q 36.859375 71.875 42.578125 66.421875 
Q 48.296875 60.984375 48.296875 53.171875 
Q 48.296875 48.1875 45.671875 44.5 
Q 43.0625 40.828125 37.75 38.8125 
Q 44.34375 36.671875 47.78125 31.875 
Q 51.21875 27.09375 51.21875 20.453125 
Q 51.21875 11.28125 44.71875 5.03125 
Q 38.234375 -1.21875 27.640625 -1.21875 
Q 17.046875 -1.21875 10.546875 5.046875 
Q 4.046875 11.328125 4.046875 20.703125 
Q 4.046875 27.6875 7.59375 32.390625 
Q 11.140625 37.109375 17.671875 38.8125 
z
M 15.921875 53.71875 
Q 15.921875 48.640625 19.1875 45.40625 
Q 22.46875 42.1875 27.6875 42.1875 
Q 32.765625 42.1875 36.015625 45.375 
Q 39.265625 48.578125 39.265625 53.21875 
Q 39.265625 58.0625 35.90625 61.359375 
Q 32.5625 64.65625 27.59375 64.65625 
Q 22.5625 64.65625 19.234375 61.421875 
Q 15.921875 58.203125 15.921875 53.71875 
z
M 13.09375 20.65625 
Q 13.09375 16.890625 14.875 13.375 
Q 16.65625 9.859375 20.171875 7.921875 
Q 23.6875 6 27.734375 6 
Q 34.03125 6 38.125 10.046875 
Q 42.234375 14.109375 42.234375 20.359375 
Q 42.234375 26.703125 38.015625 30.859375 
Q 33.796875 35.015625 27.4375 35.015625 
Q 21.234375 35.015625 17.15625 30.90625 
Q 13.09375 26.8125 13.09375 20.65625 
z
" id="ArialMT-56"/>
      </defs>
      <g style="fill:#262626;" transform="translate(118.399375 202.565156)scale(0.1 -0.1)">
       <use xlink:href="#ArialMT-49"/>
       <use x="55.615234" xlink:href="#ArialMT-56"/>
       <use x="111.230469" xlink:href="#ArialMT-48"/>
       <use x="166.845703" xlink:href="#ArialMT-176"/>
      </g>
     </g>
    </g>
    <g id="xtick_6">
     <g id="line2d_6">
      <path clip-path="url(#pb324d04deb)" d="M 295.2 199.98 
L 187.3945 307.7855 
" style="fill:none;stroke:#ffffff;stroke-linecap:round;"/>
     </g>
     <g id="text_6">
      <!-- 225° -->
      <defs>
       <path d="M 50.34375 8.453125 
L 50.34375 0 
L 3.03125 0 
Q 2.9375 3.171875 4.046875 6.109375 
Q 5.859375 10.9375 9.828125 15.625 
Q 13.8125 20.3125 21.34375 26.46875 
Q 33.015625 36.03125 37.109375 41.625 
Q 41.21875 47.21875 41.21875 52.203125 
Q 41.21875 57.421875 37.46875 61 
Q 33.734375 64.59375 27.734375 64.59375 
Q 21.390625 64.59375 17.578125 60.78125 
Q 13.765625 56.984375 13.71875 50.25 
L 4.6875 51.171875 
Q 5.609375 61.28125 11.65625 66.578125 
Q 17.71875 71.875 27.9375 71.875 
Q 38.234375 71.875 44.234375 66.15625 
Q 50.25 60.453125 50.25 52 
Q 50.25 47.703125 48.484375 43.546875 
Q 46.734375 39.40625 42.65625 34.8125 
Q 38.578125 30.21875 29.109375 22.21875 
Q 21.1875 15.578125 18.9375 13.203125 
Q 16.703125 10.84375 15.234375 8.453125 
z
" id="ArialMT-50"/>
      </defs>
      <g style="fill:#262626;" transform="translate(167.15438 320.270151)scale(0.1 -0.1)">
       <use xlink:href="#ArialMT-50"/>
       <use x="55.615234" xlink:href="#ArialMT-50"/>
       <use x="111.230469" xlink:href="#ArialMT-53"/>
       <use x="166.845703" xlink:href="#ArialMT-176"/>
      </g>
     </g>
    </g>
    <g id="xtick_7">
     <g id="line2d_7">
      <path clip-path="url(#pb324d04deb)" d="M 295.2 199.98 
L 295.2 352.44 
" style="fill:none;stroke:#ffffff;stroke-linecap:round;"/>
     </g>
     <g id="text_7">
      <!-- 270° -->
      <defs>
       <path d="M 4.734375 62.203125 
L 4.734375 70.65625 
L 51.078125 70.65625 
L 51.078125 63.8125 
Q 44.234375 56.546875 37.515625 44.484375 
Q 30.8125 32.421875 27.15625 19.671875 
Q 24.515625 10.6875 23.78125 0 
L 14.75 0 
Q 14.890625 8.453125 18.0625 20.40625 
Q 21.234375 32.375 27.171875 43.484375 
Q 33.109375 54.59375 39.796875 62.203125 
z
" id="ArialMT-55"/>
      </defs>
      <g style="fill:#262626;" transform="translate(284.859375 369.025156)scale(0.1 -0.1)">
       <use xlink:href="#ArialMT-50"/>
       <use x="55.615234" xlink:href="#ArialMT-55"/>
       <use x="111.230469" xlink:href="#ArialMT-48"/>
       <use x="166.845703" xlink:href="#ArialMT-176"/>
      </g>
     </g>
    </g>
    <g id="xtick_8">
     <g id="line2d_8">
      <path clip-path="url(#pb324d04deb)" d="M 295.2 199.98 
L 403.0055 307.7855 
" style="fill:none;stroke:#ffffff;stroke-linecap:round;"/>
     </g>
     <g id="text_8">
      <!-- 315° -->
      <g style="fill:#262626;" transform="translate(402.56437 320.270151)scale(0.1 -0.1)">
       <use xlink:href="#ArialMT-51"/>
       <use x="55.615234" xlink:href="#ArialMT-49"/>
       <use x="111.230469" xlink:href="#ArialMT-53"/>
       <use x="166.845703" xlink:href="#ArialMT-176"/>
      </g>
     </g>
    </g>
   </g>
   <g id="matplotlib.axis_2">
    <g id="ytick_1">
     <g id="line2d_9">
      <path clip-path="url(#pb324d04deb)" d="M 313.197023 199.98 
L 313.098433 198.098799 
L 312.803745 196.238209 
L 312.316186 194.418614 
L 311.641098 192.659951 
L 310.785879 190.981489 
L 309.759897 189.401615 
L 308.574394 187.937641 
L 307.242359 186.605606 
L 305.778385 185.420103 
L 304.198511 184.394121 
L 302.520049 183.538902 
L 300.761386 182.863814 
L 298.941791 182.376255 
L 297.081201 182.081567 
L 295.2 181.982977 
L 293.318799 182.081567 
L 291.458209 182.376255 
L 289.638614 182.863814 
L 287.879951 183.538902 
L 286.201489 184.394121 
L 284.621615 185.420103 
L 283.157641 186.605606 
L 281.825606 187.937641 
L 280.640103 189.401615 
L 279.614121 190.981489 
L 278.758902 192.659951 
L 278.083814 194.418614 
L 277.596255 196.238209 
L 277.301567 198.098799 
L 277.202977 199.98 
L 277.301567 201.861201 
L 277.596255 203.721791 
L 278.083814 205.541386 
L 278.758902 207.300049 
L 279.614121 208.978511 
L 280.640103 210.558385 
L 281.825606 212.022359 
L 283.157641 213.354394 
L 284.621615 214.539897 
L 286.201489 215.565879 
L 287.879951 216.421098 
L 289.638614 217.096186 
L 291.458209 217.583745 
L 293.318799 217.878433 
L 295.2 217.977023 
L 297.081201 217.878433 
L 298.941791 217.583745 
L 300.761386 217.096186 
L 302.520049 216.421098 
L 304.198511 215.565879 
L 305.778385 214.539897 
L 307.242359 213.354394 
L 308.574394 212.022359 
L 309.759897 210.558385 
L 310.785879 208.978511 
L 311.641098 207.300049 
L 312.316186 205.541386 
L 312.803745 203.721791 
L 313.098433 201.861201 
L 313.197023 199.98 
L 313.197023 199.98 
" style="fill:none;stroke:#ffffff;stroke-linecap:round;"/>
     </g>
     <g id="text_9">
      <!-- 0.05 -->
      <defs>
       <path d="M 9.078125 0 
L 9.078125 10.015625 
L 19.09375 10.015625 
L 19.09375 0 
z
" id="ArialMT-46"/>
      </defs>
      <g style="fill:#262626;" transform="translate(311.827081 191.105338)scale(0.1 -0.1)">
       <use xlink:href="#ArialMT-48"/>
       <use x="55.615234" xlink:href="#ArialMT-46"/>
       <use x="83.398438" xlink:href="#ArialMT-48"/>
       <use x="139.013672" xlink:href="#ArialMT-53"/>
      </g>
     </g>
    </g>
    <g id="ytick_2">
     <g id="line2d_10">
      <path clip-path="url(#pb324d04deb)" d="M 331.194045 199.98 
L 331.106366 197.469182 
L 330.843754 194.970597 
L 330.407489 192.496417 
L 329.799697 190.058696 
L 329.023339 187.669311 
L 328.082197 185.339903 
L 326.980856 183.081819 
L 325.724682 180.906062 
L 324.319794 178.823231 
L 322.773039 176.843474 
L 321.091949 174.976435 
L 319.284717 173.231211 
L 317.360147 171.616305 
L 315.327615 170.139584 
L 313.197023 168.808242 
L 310.978751 167.628766 
L 308.683607 166.606902 
L 306.322772 165.747628 
L 303.907748 165.055132 
L 301.4503 164.532785 
L 298.962402 164.183134 
L 296.456174 164.007881 
L 293.943826 164.007881 
L 291.437598 164.183134 
L 288.9497 164.532785 
L 286.492252 165.055132 
L 284.077228 165.747628 
L 281.716393 166.606902 
L 279.421249 167.628766 
L 277.202977 168.808242 
L 275.072385 170.139584 
L 273.039853 171.616305 
L 271.115283 173.231211 
L 269.308051 174.976435 
L 267.626961 176.843474 
L 266.080206 178.823231 
L 264.675318 180.906062 
L 263.419144 183.081819 
L 262.317803 185.339903 
L 261.376661 187.669311 
L 260.600303 190.058696 
L 259.992511 192.496417 
L 259.556246 194.970597 
L 259.293634 197.469182 
L 259.205955 199.98 
L 259.293634 202.490818 
L 259.556246 204.989403 
L 259.992511 207.463583 
L 260.600303 209.901304 
L 261.376661 212.290689 
L 262.317803 214.620097 
L 263.419144 216.878181 
L 264.675318 219.053938 
L 266.080206 221.136769 
L 267.626961 223.116526 
L 269.308051 224.983565 
L 271.115283 226.728789 
L 273.039853 228.343695 
L 275.072385 229.820416 
L 277.202977 231.151758 
L 279.421249 232.331234 
L 281.716393 233.353098 
L 284.077228 234.212372 
L 286.492252 234.904868 
L 288.9497 235.427215 
L 291.437598 235.776866 
L 293.943826 235.952119 
L 296.456174 235.952119 
L 298.962402 235.776866 
L 301.4503 235.427215 
L 303.907748 234.904868 
L 306.322772 234.212372 
L 308.683607 233.353098 
L 310.978751 232.331234 
L 313.197023 231.151758 
L 315.327615 229.820416 
L 317.360147 228.343695 
L 319.284717 226.728789 
L 321.091949 224.983565 
L 322.773039 223.116526 
L 324.319794 221.136769 
L 325.724682 219.053938 
L 326.980856 216.878181 
L 328.082197 214.620097 
L 329.023339 212.290689 
L 329.799697 209.901304 
L 330.407489 207.463583 
L 330.843754 204.989403 
L 331.106366 202.490818 
L 331.194045 199.98 
L 331.194045 199.98 
" style="fill:none;stroke:#ffffff;stroke-linecap:round;"/>
     </g>
     <g id="text_10">
      <!-- 0.10 -->
      <g style="fill:#262626;" transform="translate(328.454162 184.218175)scale(0.1 -0.1)">
       <use xlink:href="#ArialMT-48"/>
       <use x="55.615234" xlink:href="#ArialMT-46"/>
       <use x="83.398438" xlink:href="#ArialMT-49"/>
       <use x="139.013672" xlink:href="#ArialMT-48"/>
      </g>
     </g>
    </g>
    <g id="ytick_3">
     <g id="line2d_11">
      <path clip-path="url(#pb324d04deb)" d="M 349.191068 199.98 
L 349.059549 196.213773 
L 348.665631 192.465896 
L 348.011234 188.754626 
L 347.099546 185.098045 
L 345.935008 181.513967 
L 344.523295 178.019854 
L 342.871284 174.632729 
L 340.987023 171.369093 
L 338.879692 168.244846 
L 336.559558 165.27521 
L 334.037924 162.474653 
L 331.327076 159.856817 
L 328.440221 157.434458 
L 325.391422 155.219376 
L 322.195534 153.222363 
L 318.868126 151.453149 
L 315.42541 149.920353 
L 311.884158 148.631443 
L 308.261622 147.592697 
L 304.575451 146.809177 
L 300.843603 146.284701 
L 297.084261 146.021822 
L 293.315739 146.021822 
L 289.556397 146.284701 
L 285.824549 146.809177 
L 282.138378 147.592697 
L 278.515842 148.631443 
L 274.97459 149.920353 
L 271.531874 151.453149 
L 268.204466 153.222363 
L 265.008578 155.219376 
L 261.959779 157.434458 
L 259.072924 159.856817 
L 256.362076 162.474653 
L 253.840442 165.27521 
L 251.520308 168.244846 
L 249.412977 171.369093 
L 247.528716 174.632729 
L 245.876705 178.019854 
L 244.464992 181.513967 
L 243.300454 185.098045 
L 242.388766 188.754626 
L 241.734369 192.465896 
L 241.340451 196.213773 
L 241.208932 199.98 
L 241.340451 203.746227 
L 241.734369 207.494104 
L 242.388766 211.205374 
L 243.300454 214.861955 
L 244.464992 218.446033 
L 245.876705 221.940146 
L 247.528716 225.327271 
L 249.412977 228.590907 
L 251.520308 231.715154 
L 253.840442 234.68479 
L 256.362076 237.485347 
L 259.072924 240.103183 
L 261.959779 242.525542 
L 265.008578 244.740624 
L 268.204466 246.737637 
L 271.531874 248.506851 
L 274.97459 250.039647 
L 278.515842 251.328557 
L 282.138378 252.367303 
L 285.824549 253.150823 
L 289.556397 253.675299 
L 293.315739 253.938178 
L 297.084261 253.938178 
L 300.843603 253.675299 
L 304.575451 253.150823 
L 308.261622 252.367303 
L 311.884158 251.328557 
L 315.42541 250.039647 
L 318.868126 248.506851 
L 322.195534 246.737637 
L 325.391422 244.740624 
L 328.440221 242.525542 
L 331.327076 240.103183 
L 334.037924 237.485347 
L 336.559558 234.68479 
L 338.879692 231.715154 
L 340.987023 228.590907 
L 342.871284 225.327271 
L 344.523295 221.940146 
L 345.935008 218.446033 
L 347.099546 214.861955 
L 348.011234 211.205374 
L 348.665631 207.494104 
L 349.059549 203.746227 
L 349.191068 199.98 
L 349.191068 199.98 
" style="fill:none;stroke:#ffffff;stroke-linecap:round;"/>
     </g>
     <g id="text_11">
      <!-- 0.15 -->
      <g style="fill:#262626;" transform="translate(345.081243 177.331013)scale(0.1 -0.1)">
       <use xlink:href="#ArialMT-48"/>
       <use x="55.615234" xlink:href="#ArialMT-46"/>
       <use x="83.398438" xlink:href="#ArialMT-49"/>
       <use x="139.013672" xlink:href="#ArialMT-53"/>
      </g>
     </g>
    </g>
    <g id="ytick_4">
     <g id="line2d_12">
      <path clip-path="url(#pb324d04deb)" d="M 367.188091 199.98 
L 367.012732 194.958365 
L 366.487508 189.961194 
L 365.614978 185.012834 
L 364.399394 180.137393 
L 362.846678 175.358623 
L 360.964393 170.699806 
L 358.761712 166.183638 
L 356.249363 161.832124 
L 353.439589 157.666462 
L 350.346077 153.706947 
L 346.983899 149.97287 
L 343.369435 146.482423 
L 339.520294 143.25261 
L 335.45523 140.299168 
L 331.194045 137.636484 
L 326.757502 135.277532 
L 322.167214 133.233804 
L 317.445543 131.515257 
L 312.615495 130.130263 
L 307.700601 129.08557 
L 302.724805 128.386267 
L 297.712348 128.035762 
L 292.687652 128.035762 
L 287.675195 128.386267 
L 282.699399 129.08557 
L 277.784505 130.130263 
L 272.954457 131.515257 
L 268.232786 133.233804 
L 263.642498 135.277532 
L 259.205955 137.636484 
L 254.94477 140.299168 
L 250.879706 143.25261 
L 247.030565 146.482423 
L 243.416101 149.97287 
L 240.053923 153.706947 
L 236.960411 157.666462 
L 234.150637 161.832124 
L 231.638288 166.183638 
L 229.435607 170.699806 
L 227.553322 175.358623 
L 226.000606 180.137393 
L 224.785022 185.012834 
L 223.912492 189.961194 
L 223.387268 194.958365 
L 223.211909 199.98 
L 223.387268 205.001635 
L 223.912492 209.998806 
L 224.785022 214.947166 
L 226.000606 219.822607 
L 227.553322 224.601377 
L 229.435607 229.260194 
L 231.638288 233.776362 
L 234.150637 238.127876 
L 236.960411 242.293538 
L 240.053923 246.253053 
L 243.416101 249.98713 
L 247.030565 253.477577 
L 250.879706 256.70739 
L 254.94477 259.660832 
L 259.205955 262.323516 
L 263.642498 264.682468 
L 268.232786 266.726196 
L 272.954457 268.444743 
L 277.784505 269.829737 
L 282.699399 270.87443 
L 287.675195 271.573733 
L 292.687652 271.924238 
L 297.712348 271.924238 
L 302.724805 271.573733 
L 307.700601 270.87443 
L 312.615495 269.829737 
L 317.445543 268.444743 
L 322.167214 266.726196 
L 326.757502 264.682468 
L 331.194045 262.323516 
L 335.45523 259.660832 
L 339.520294 256.70739 
L 343.369435 253.477577 
L 346.983899 249.98713 
L 350.346077 246.253053 
L 353.439589 242.293538 
L 356.249363 238.127876 
L 358.761712 233.776362 
L 360.964393 229.260194 
L 362.846678 224.601377 
L 364.399394 219.822607 
L 365.614978 214.947166 
L 366.487508 209.998806 
L 367.012732 205.001635 
L 367.188091 199.98 
L 367.188091 199.98 
" style="fill:none;stroke:#ffffff;stroke-linecap:round;"/>
     </g>
     <g id="text_12">
      <!-- 0.20 -->
      <g style="fill:#262626;" transform="translate(361.708324 170.44385)scale(0.1 -0.1)">
       <use xlink:href="#ArialMT-48"/>
       <use x="55.615234" xlink:href="#ArialMT-46"/>
       <use x="83.398438" xlink:href="#ArialMT-50"/>
       <use x="139.013672" xlink:href="#ArialMT-48"/>
      </g>
     </g>
    </g>
    <g id="ytick_5">
     <g id="line2d_13">
      <path clip-path="url(#pb324d04deb)" d="M 385.185114 199.98 
L 384.965914 193.702956 
L 384.309385 187.456493 
L 383.218723 181.271043 
L 381.699243 175.176741 
L 379.758347 169.203279 
L 377.405492 163.379757 
L 374.65214 157.734548 
L 371.511704 152.295155 
L 367.999486 147.088077 
L 364.132596 142.138684 
L 359.929874 137.471088 
L 355.411794 133.108028 
L 350.600368 129.070763 
L 345.519037 125.37896 
L 340.192557 122.050606 
L 334.646877 119.101916 
L 328.909017 116.547255 
L 323.006929 114.399071 
L 316.969369 112.667829 
L 310.825751 111.361962 
L 304.606006 110.487834 
L 298.340435 110.049703 
L 292.059565 110.049703 
L 285.793994 110.487834 
L 279.574249 111.361962 
L 273.430631 112.667829 
L 267.393071 114.399071 
L 261.490983 116.547255 
L 255.753123 119.101916 
L 250.207443 122.050606 
L 244.880963 125.37896 
L 239.799632 129.070763 
L 234.988206 133.108028 
L 230.470126 137.471088 
L 226.267404 142.138684 
L 222.400514 147.088077 
L 218.888296 152.295155 
L 215.74786 157.734548 
L 212.994508 163.379757 
L 210.641653 169.203279 
L 208.700757 175.176741 
L 207.181277 181.271043 
L 206.090615 187.456493 
L 205.434086 193.702956 
L 205.214886 199.98 
L 205.434086 206.257044 
L 206.090615 212.503507 
L 207.181277 218.688957 
L 208.700757 224.783259 
L 210.641653 230.756721 
L 212.994508 236.580243 
L 215.74786 242.225452 
L 218.888296 247.664845 
L 222.400514 252.871923 
L 226.267404 257.821316 
L 230.470126 262.488912 
L 234.988206 266.851972 
L 239.799632 270.889237 
L 244.880963 274.58104 
L 250.207443 277.909394 
L 255.753123 280.858084 
L 261.490983 283.412745 
L 267.393071 285.560929 
L 273.430631 287.292171 
L 279.574249 288.598038 
L 285.793994 289.472166 
L 292.059565 289.910297 
L 298.340435 289.910297 
L 304.606006 289.472166 
L 310.825751 288.598038 
L 316.969369 287.292171 
L 323.006929 285.560929 
L 328.909017 283.412745 
L 334.646877 280.858084 
L 340.192557 277.909394 
L 345.519037 274.58104 
L 350.600368 270.889237 
L 355.411794 266.851972 
L 359.929874 262.488912 
L 364.132596 257.821316 
L 367.999486 252.871923 
L 371.511704 247.664845 
L 374.65214 242.225452 
L 377.405492 236.580243 
L 379.758347 230.756721 
L 381.699243 224.783259 
L 383.218723 218.688957 
L 384.309385 212.503507 
L 384.965914 206.257044 
L 385.185114 199.98 
L 385.185114 199.98 
" style="fill:none;stroke:#ffffff;stroke-linecap:round;"/>
     </g>
     <g id="text_13">
      <!-- 0.25 -->
      <g style="fill:#262626;" transform="translate(378.335405 163.556688)scale(0.1 -0.1)">
       <use xlink:href="#ArialMT-48"/>
       <use x="55.615234" xlink:href="#ArialMT-46"/>
       <use x="83.398438" xlink:href="#ArialMT-50"/>
       <use x="139.013672" xlink:href="#ArialMT-53"/>
      </g>
     </g>
    </g>
    <g id="ytick_6">
     <g id="line2d_14">
      <path clip-path="url(#pb324d04deb)" d="M 403.182136 199.98 
L 403.116357 196.211478 
L 402.919097 192.447547 
L 402.590599 188.692793 
L 402.131262 184.951791 
L 401.541645 181.229099 
L 400.822468 177.529251 
L 399.974605 173.856757 
L 398.999092 170.216089 
L 397.897115 166.611685 
L 396.670017 163.047934 
L 395.319293 159.52918 
L 393.84659 156.059708 
L 392.253701 152.643747 
L 390.542567 149.285458 
L 388.715273 145.988932 
L 386.774045 142.758186 
L 384.721248 139.597156 
L 382.559383 136.509693 
L 380.291085 133.499559 
L 377.919116 130.570421 
L 375.446366 127.725848 
L 372.875848 124.969305 
L 370.210695 122.304152 
L 367.454152 119.733634 
L 364.609579 117.260884 
L 361.680441 114.888915 
L 358.670307 112.620617 
L 355.582844 110.458752 
L 352.421814 108.405955 
L 349.191068 106.464727 
L 345.894542 104.637433 
L 342.536253 102.926299 
L 339.120292 101.33341 
L 335.65082 99.860707 
L 332.132066 98.509983 
L 328.568315 97.282885 
L 324.963911 96.180908 
L 321.323243 95.205395 
L 317.650749 94.357532 
L 313.950901 93.638355 
L 310.228209 93.048738 
L 306.487207 92.589401 
L 302.732453 92.260903 
L 298.968522 92.063643 
L 295.2 91.997864 
L 291.431478 92.063643 
L 287.667547 92.260903 
L 283.912793 92.589401 
L 280.171791 93.048738 
L 276.449099 93.638355 
L 272.749251 94.357532 
L 269.076757 95.205395 
L 265.436089 96.180908 
L 261.831685 97.282885 
L 258.267934 98.509983 
L 254.74918 99.860707 
L 251.279708 101.33341 
L 247.863747 102.926299 
L 244.505458 104.637433 
L 241.208932 106.464727 
L 237.978186 108.405955 
L 234.817156 110.458752 
L 231.729693 112.620617 
L 228.719559 114.888915 
L 225.790421 117.260884 
L 222.945848 119.733634 
L 220.189305 122.304152 
L 217.524152 124.969305 
L 214.953634 127.725848 
L 212.480884 130.570421 
L 210.108915 133.499559 
L 207.840617 136.509693 
L 205.678752 139.597156 
L 203.625955 142.758186 
L 201.684727 145.988932 
L 199.857433 149.285458 
L 198.146299 152.643747 
L 196.55341 156.059708 
L 195.080707 159.52918 
L 193.729983 163.047934 
L 192.502885 166.611685 
L 191.400908 170.216089 
L 190.425395 173.856757 
L 189.577532 177.529251 
L 188.858355 181.229099 
L 188.268738 184.951791 
L 187.809401 188.692793 
L 187.480903 192.447547 
L 187.283643 196.211478 
L 187.217864 199.98 
L 187.283643 203.748522 
L 187.480903 207.512453 
L 187.809401 211.267207 
L 188.268738 215.008209 
L 188.858355 218.730901 
L 189.577532 222.430749 
L 190.425395 226.103243 
L 191.400908 229.743911 
L 192.502885 233.348315 
L 193.729983 236.912066 
L 195.080707 240.43082 
L 196.55341 243.900292 
L 198.146299 247.316253 
L 199.857433 250.674542 
L 201.684727 253.971068 
L 203.625955 257.201814 
L 205.678752 260.362844 
L 207.840617 263.450307 
L 210.108915 266.460441 
L 212.480884 269.389579 
L 214.953634 272.234152 
L 217.524152 274.990695 
L 220.189305 277.655848 
L 222.945848 280.226366 
L 225.790421 282.699116 
L 228.719559 285.071085 
L 231.729693 287.339383 
L 234.817156 289.501248 
L 237.978186 291.554045 
L 241.208932 293.495273 
L 244.505458 295.322567 
L 247.863747 297.033701 
L 251.279708 298.62659 
L 254.74918 300.099293 
L 258.267934 301.450017 
L 261.831685 302.677115 
L 265.436089 303.779092 
L 269.076757 304.754605 
L 272.749251 305.602468 
L 276.449099 306.321645 
L 280.171791 306.911262 
L 283.912793 307.370599 
L 287.667547 307.699097 
L 291.431478 307.896357 
L 295.2 307.962136 
L 298.968522 307.896357 
L 302.732453 307.699097 
L 306.487207 307.370599 
L 310.228209 306.911262 
L 313.950901 306.321645 
L 317.650749 305.602468 
L 321.323243 304.754605 
L 324.963911 303.779092 
L 328.568315 302.677115 
L 332.132066 301.450017 
L 335.65082 300.099293 
L 339.120292 298.62659 
L 342.536253 297.033701 
L 345.894542 295.322567 
L 349.191068 293.495273 
L 352.421814 291.554045 
L 355.582844 289.501248 
L 358.670307 287.339383 
L 361.680441 285.071085 
L 364.609579 282.699116 
L 367.454152 280.226366 
L 370.210695 277.655848 
L 372.875848 274.990695 
L 375.446366 272.234152 
L 377.919116 269.389579 
L 380.291085 266.460441 
L 382.559383 263.450307 
L 384.721248 260.362844 
L 386.774045 257.201814 
L 388.715273 253.971068 
L 390.542567 250.674542 
L 392.253701 247.316253 
L 393.84659 243.900292 
L 395.319293 240.43082 
L 396.670017 236.912066 
L 397.897115 233.348315 
L 398.999092 229.743911 
L 399.974605 226.103243 
L 400.822468 222.430749 
L 401.541645 218.730901 
L 402.131262 215.008209 
L 402.590599 211.267207 
L 402.919097 207.512453 
L 403.116357 203.748522 
L 403.182136 199.98 
L 403.182136 199.98 
" style="fill:none;stroke:#ffffff;stroke-linecap:round;"/>
     </g>
     <g id="text_14">
      <!-- 0.30 -->
      <g style="fill:#262626;" transform="translate(394.962486 156.669525)scale(0.1 -0.1)">
       <use xlink:href="#ArialMT-48"/>
       <use x="55.615234" xlink:href="#ArialMT-46"/>
       <use x="83.398438" xlink:href="#ArialMT-51"/>
       <use x="139.013672" xlink:href="#ArialMT-48"/>
      </g>
     </g>
    </g>
    <g id="ytick_7">
     <g id="line2d_15">
      <path clip-path="url(#pb324d04deb)" d="M 421.179159 199.98 
L 421.102416 195.583391 
L 420.87228 191.192138 
L 420.489032 186.811592 
L 419.953139 182.44709 
L 419.265253 178.103949 
L 418.426212 173.78746 
L 417.43704 169.502883 
L 416.29894 165.255438 
L 415.0133 161.050299 
L 413.581686 156.89259 
L 412.005842 152.787376 
L 410.287689 148.73966 
L 408.429318 144.754372 
L 406.432995 140.836367 
L 404.301152 136.99042 
L 402.036386 133.221217 
L 399.641456 129.533348 
L 397.119281 125.931308 
L 394.472932 122.419485 
L 391.705635 119.002157 
L 388.82076 115.683489 
L 385.821823 112.467523 
L 382.712477 109.358177 
L 379.496511 106.35924 
L 376.177843 103.474365 
L 372.760515 100.707068 
L 369.248692 98.060719 
L 365.646652 95.538544 
L 361.958783 93.143614 
L 358.18958 90.878848 
L 354.343633 88.747005 
L 350.425628 86.750682 
L 346.44034 84.892311 
L 342.392624 83.174158 
L 338.28741 81.598314 
L 334.129701 80.1667 
L 329.924562 78.88106 
L 325.677117 77.74296 
L 321.39254 76.753788 
L 317.076051 75.914747 
L 312.73291 75.226861 
L 308.368408 74.690968 
L 303.987862 74.30772 
L 299.596609 74.077584 
L 295.2 74.000841 
L 290.803391 74.077584 
L 286.412138 74.30772 
L 282.031592 74.690968 
L 277.66709 75.226861 
L 273.323949 75.914747 
L 269.00746 76.753788 
L 264.722883 77.74296 
L 260.475438 78.88106 
L 256.270299 80.1667 
L 252.11259 81.598314 
L 248.007376 83.174158 
L 243.95966 84.892311 
L 239.974372 86.750682 
L 236.056367 88.747005 
L 232.21042 90.878848 
L 228.441217 93.143614 
L 224.753348 95.538544 
L 221.151308 98.060719 
L 217.639485 100.707068 
L 214.222157 103.474365 
L 210.903489 106.35924 
L 207.687523 109.358177 
L 204.578177 112.467523 
L 201.57924 115.683489 
L 198.694365 119.002157 
L 195.927068 122.419485 
L 193.280719 125.931308 
L 190.758544 129.533348 
L 188.363614 133.221217 
L 186.098848 136.99042 
L 183.967005 140.836367 
L 181.970682 144.754372 
L 180.112311 148.73966 
L 178.394158 152.787376 
L 176.818314 156.89259 
L 175.3867 161.050299 
L 174.10106 165.255438 
L 172.96296 169.502883 
L 171.973788 173.78746 
L 171.134747 178.103949 
L 170.446861 182.44709 
L 169.910968 186.811592 
L 169.52772 191.192138 
L 169.297584 195.583391 
L 169.220841 199.98 
L 169.297584 204.376609 
L 169.52772 208.767862 
L 169.910968 213.148408 
L 170.446861 217.51291 
L 171.134747 221.856051 
L 171.973788 226.17254 
L 172.96296 230.457117 
L 174.10106 234.704562 
L 175.3867 238.909701 
L 176.818314 243.06741 
L 178.394158 247.172624 
L 180.112311 251.22034 
L 181.970682 255.205628 
L 183.967005 259.123633 
L 186.098848 262.96958 
L 188.363614 266.738783 
L 190.758544 270.426652 
L 193.280719 274.028692 
L 195.927068 277.540515 
L 198.694365 280.957843 
L 201.57924 284.276511 
L 204.578177 287.492477 
L 207.687523 290.601823 
L 210.903489 293.60076 
L 214.222157 296.485635 
L 217.639485 299.252932 
L 221.151308 301.899281 
L 224.753348 304.421456 
L 228.441217 306.816386 
L 232.21042 309.081152 
L 236.056367 311.212995 
L 239.974372 313.209318 
L 243.95966 315.067689 
L 248.007376 316.785842 
L 252.11259 318.361686 
L 256.270299 319.7933 
L 260.475438 321.07894 
L 264.722883 322.21704 
L 269.00746 323.206212 
L 273.323949 324.045253 
L 277.66709 324.733139 
L 282.031592 325.269032 
L 286.412138 325.65228 
L 290.803391 325.882416 
L 295.2 325.959159 
L 299.596609 325.882416 
L 303.987862 325.65228 
L 308.368408 325.269032 
L 312.73291 324.733139 
L 317.076051 324.045253 
L 321.39254 323.206212 
L 325.677117 322.21704 
L 329.924562 321.07894 
L 334.129701 319.7933 
L 338.28741 318.361686 
L 342.392624 316.785842 
L 346.44034 315.067689 
L 350.425628 313.209318 
L 354.343633 311.212995 
L 358.18958 309.081152 
L 361.958783 306.816386 
L 365.646652 304.421456 
L 369.248692 301.899281 
L 372.760515 299.252932 
L 376.177843 296.485635 
L 379.496511 293.60076 
L 382.712477 290.601823 
L 385.821823 287.492477 
L 388.82076 284.276511 
L 391.705635 280.957843 
L 394.472932 277.540515 
L 397.119281 274.028692 
L 399.641456 270.426652 
L 402.036386 266.738783 
L 404.301152 262.96958 
L 406.432995 259.123633 
L 408.429318 255.205628 
L 410.287689 251.22034 
L 412.005842 247.172624 
L 413.581686 243.06741 
L 415.0133 238.909701 
L 416.29894 234.704562 
L 417.43704 230.457117 
L 418.426212 226.17254 
L 419.265253 221.856051 
L 419.953139 217.51291 
L 420.489032 213.148408 
L 420.87228 208.767862 
L 421.102416 204.376609 
L 421.179159 199.98 
L 421.179159 199.98 
" style="fill:none;stroke:#ffffff;stroke-linecap:round;"/>
     </g>
     <g id="text_15">
      <!-- 0.35 -->
      <g style="fill:#262626;" transform="translate(411.589567 149.782363)scale(0.1 -0.1)">
       <use xlink:href="#ArialMT-48"/>
       <use x="55.615234" xlink:href="#ArialMT-46"/>
       <use x="83.398438" xlink:href="#ArialMT-51"/>
       <use x="139.013672" xlink:href="#ArialMT-53"/>
      </g>
     </g>
    </g>
    <g id="ytick_8">
     <g id="line2d_16">
      <path clip-path="url(#pb324d04deb)" d="M 439.176182 199.98 
L 439.088476 194.955304 
L 438.825463 189.936729 
L 438.387465 184.930391 
L 437.775016 179.942388 
L 436.98886 174.978798 
L 436.029957 170.045669 
L 434.899474 165.149009 
L 433.598789 160.294786 
L 432.129486 155.488913 
L 430.493356 150.737246 
L 428.692391 146.045573 
L 426.728787 141.419611 
L 424.604935 136.864996 
L 422.323423 132.387277 
L 419.887031 127.991909 
L 417.298727 123.684248 
L 414.561664 119.469541 
L 411.679178 115.352924 
L 408.65478 111.339411 
L 405.492154 107.433894 
L 402.195155 103.64113 
L 398.767798 99.96574 
L 395.21426 96.412202 
L 391.53887 92.984845 
L 387.746106 89.687846 
L 383.840589 86.52522 
L 379.827076 83.500822 
L 375.710459 80.618336 
L 371.495752 77.881273 
L 367.188091 75.292969 
L 362.792723 72.856577 
L 358.315004 70.575065 
L 353.760389 68.451213 
L 349.134427 66.487609 
L 344.442754 64.686644 
L 339.691087 63.050514 
L 334.885214 61.581211 
L 330.030991 60.280526 
L 325.134331 59.150043 
L 320.201202 58.19114 
L 315.237612 57.404984 
L 310.249609 56.792535 
L 305.243271 56.354537 
L 300.224696 56.091524 
L 295.2 56.003818 
L 290.175304 56.091524 
L 285.156729 56.354537 
L 280.150391 56.792535 
L 275.162388 57.404984 
L 270.198798 58.19114 
L 265.265669 59.150043 
L 260.369009 60.280526 
L 255.514786 61.581211 
L 250.708913 63.050514 
L 245.957246 64.686644 
L 241.265573 66.487609 
L 236.639611 68.451213 
L 232.084996 70.575065 
L 227.607277 72.856577 
L 223.211909 75.292969 
L 218.904248 77.881273 
L 214.689541 80.618336 
L 210.572924 83.500822 
L 206.559411 86.52522 
L 202.653894 89.687846 
L 198.86113 92.984845 
L 195.18574 96.412202 
L 191.632202 99.96574 
L 188.204845 103.64113 
L 184.907846 107.433894 
L 181.74522 111.339411 
L 178.720822 115.352924 
L 175.838336 119.469541 
L 173.101273 123.684248 
L 170.512969 127.991909 
L 168.076577 132.387277 
L 165.795065 136.864996 
L 163.671213 141.419611 
L 161.707609 146.045573 
L 159.906644 150.737246 
L 158.270514 155.488913 
L 156.801211 160.294786 
L 155.500526 165.149009 
L 154.370043 170.045669 
L 153.41114 174.978798 
L 152.624984 179.942388 
L 152.012535 184.930391 
L 151.574537 189.936729 
L 151.311524 194.955304 
L 151.223818 199.98 
L 151.311524 205.004696 
L 151.574537 210.023271 
L 152.012535 215.029609 
L 152.624984 220.017612 
L 153.41114 224.981202 
L 154.370043 229.914331 
L 155.500526 234.810991 
L 156.801211 239.665214 
L 158.270514 244.471087 
L 159.906644 249.222754 
L 161.707609 253.914427 
L 163.671213 258.540389 
L 165.795065 263.095004 
L 168.076577 267.572723 
L 170.512969 271.968091 
L 173.101273 276.275752 
L 175.838336 280.490459 
L 178.720822 284.607076 
L 181.74522 288.620589 
L 184.907846 292.526106 
L 188.204845 296.31887 
L 191.632202 299.99426 
L 195.18574 303.547798 
L 198.86113 306.975155 
L 202.653894 310.272154 
L 206.559411 313.43478 
L 210.572924 316.459178 
L 214.689541 319.341664 
L 218.904248 322.078727 
L 223.211909 324.667031 
L 227.607277 327.103423 
L 232.084996 329.384935 
L 236.639611 331.508787 
L 241.265573 333.472391 
L 245.957246 335.273356 
L 250.708913 336.909486 
L 255.514786 338.378789 
L 260.369009 339.679474 
L 265.265669 340.809957 
L 270.198798 341.76886 
L 275.162388 342.555016 
L 280.150391 343.167465 
L 285.156729 343.605463 
L 290.175304 343.868476 
L 295.2 343.956182 
L 300.224696 343.868476 
L 305.243271 343.605463 
L 310.249609 343.167465 
L 315.237612 342.555016 
L 320.201202 341.76886 
L 325.134331 340.809957 
L 330.030991 339.679474 
L 334.885214 338.378789 
L 339.691087 336.909486 
L 344.442754 335.273356 
L 349.134427 333.472391 
L 353.760389 331.508787 
L 358.315004 329.384935 
L 362.792723 327.103423 
L 367.188091 324.667031 
L 371.495752 322.078727 
L 375.710459 319.341664 
L 379.827076 316.459178 
L 383.840589 313.43478 
L 387.746106 310.272154 
L 391.53887 306.975155 
L 395.21426 303.547798 
L 398.767798 299.99426 
L 402.195155 296.31887 
L 405.492154 292.526106 
L 408.65478 288.620589 
L 411.679178 284.607076 
L 414.561664 280.490459 
L 417.298727 276.275752 
L 419.887031 271.968091 
L 422.323423 267.572723 
L 424.604935 263.095004 
L 426.728787 258.540389 
L 428.692391 253.914427 
L 430.493356 249.222754 
L 432.129486 244.471087 
L 433.598789 239.665214 
L 434.899474 234.810991 
L 436.029957 229.914331 
L 436.98886 224.981202 
L 437.775016 220.017612 
L 438.387465 215.029609 
L 438.825463 210.023271 
L 439.088476 205.004696 
L 439.176182 199.98 
L 439.176182 199.98 
" style="fill:none;stroke:#ffffff;stroke-linecap:round;"/>
     </g>
     <g id="text_16">
      <!-- 0.40 -->
      <g style="fill:#262626;" transform="translate(428.216648 142.895201)scale(0.1 -0.1)">
       <use xlink:href="#ArialMT-48"/>
       <use x="55.615234" xlink:href="#ArialMT-46"/>
       <use x="83.398438" xlink:href="#ArialMT-52"/>
       <use x="139.013672" xlink:href="#ArialMT-48"/>
      </g>
     </g>
    </g>
   </g>
   <g id="PathCollection_1">
    <defs>
     <path d="M 0 3.5 
C 0.928211 3.5 1.81853 3.131218 2.474874 2.474874 
C 3.131218 1.81853 3.5 0.928211 3.5 0 
C 3.5 -0.928211 3.131218 -1.81853 2.474874 -2.474874 
C 1.81853 -3.131218 0.928211 -3.5 0 -3.5 
C -0.928211 -3.5 -1.81853 -3.131218 -2.474874 -2.474874 
C -3.131218 -1.81853 -3.5 -0.928211 -3.5 0 
C -3.5 0.928211 -3.131218 1.81853 -2.474874 2.474874 
C -1.81853 3.131218 -0.928211 3.5 0 3.5 
z
" id="m68ff3078e6" style="stroke:#4c72b0;stroke-width:0.3;"/>
    </defs>
    <g clip-path="url(#pb324d04deb)">
     <use style="fill:#4c72b0;stroke:#4c72b0;stroke-width:0.3;" x="247.232432" xlink:href="#m68ff3078e6" y="263.516295"/>
     <use style="fill:#4c72b0;stroke:#4c72b0;stroke-width:0.3;" x="246.162907" xlink:href="#m68ff3078e6" y="259.734011"/>
     <use style="fill:#4c72b0;stroke:#4c72b0;stroke-width:0.3;" x="305.911371" xlink:href="#m68ff3078e6" y="257.738527"/>
     <use style="fill:#4c72b0;stroke:#4c72b0;stroke-width:0.3;" x="250.709043" xlink:href="#m68ff3078e6" y="258.759971"/>
     <use style="fill:#4c72b0;stroke:#4c72b0;stroke-width:0.3;" x="183.697607" xlink:href="#m68ff3078e6" y="261.82769"/>
     <use style="fill:#4c72b0;stroke:#4c72b0;stroke-width:0.3;" x="244.265221" xlink:href="#m68ff3078e6" y="264.963633"/>
     <use style="fill:#4c72b0;stroke:#4c72b0;stroke-width:0.3;" x="299.198222" xlink:href="#m68ff3078e6" y="261.312314"/>
     <use style="fill:#4c72b0;stroke:#4c72b0;stroke-width:0.3;" x="184.919873" xlink:href="#m68ff3078e6" y="269.999703"/>
     <use style="fill:#4c72b0;stroke:#4c72b0;stroke-width:0.3;" x="212.326756" xlink:href="#m68ff3078e6" y="270.637386"/>
     <use style="fill:#4c72b0;stroke:#4c72b0;stroke-width:0.3;" x="244.05621" xlink:href="#m68ff3078e6" y="260.935047"/>
     <use style="fill:#4c72b0;stroke:#4c72b0;stroke-width:0.3;" x="276.157108" xlink:href="#m68ff3078e6" y="253.754391"/>
     <use style="fill:#4c72b0;stroke:#4c72b0;stroke-width:0.3;" x="310.764437" xlink:href="#m68ff3078e6" y="252.013425"/>
     <use style="fill:#4c72b0;stroke:#4c72b0;stroke-width:0.3;" x="273.698274" xlink:href="#m68ff3078e6" y="251.903246"/>
     <use style="fill:#4c72b0;stroke:#4c72b0;stroke-width:0.3;" x="219.929495" xlink:href="#m68ff3078e6" y="256.374988"/>
     <use style="fill:#4c72b0;stroke:#4c72b0;stroke-width:0.3;" x="268.173794" xlink:href="#m68ff3078e6" y="250.26141"/>
     <use style="fill:#4c72b0;stroke:#4c72b0;stroke-width:0.3;" x="283.047117" xlink:href="#m68ff3078e6" y="247.148697"/>
     <use style="fill:#4c72b0;stroke:#4c72b0;stroke-width:0.3;" x="287.341116" xlink:href="#m68ff3078e6" y="239.427128"/>
     <use style="fill:#4c72b0;stroke:#4c72b0;stroke-width:0.3;" x="260.726985" xlink:href="#m68ff3078e6" y="231.958032"/>
     <use style="fill:#4c72b0;stroke:#4c72b0;stroke-width:0.3;" x="247.245334" xlink:href="#m68ff3078e6" y="232.344644"/>
     <use style="fill:#4c72b0;stroke:#4c72b0;stroke-width:0.3;" x="246.171425" xlink:href="#m68ff3078e6" y="235.561246"/>
     <use style="fill:#4c72b0;stroke:#4c72b0;stroke-width:0.3;" x="205.552067" xlink:href="#m68ff3078e6" y="238.988362"/>
     <use style="fill:#4c72b0;stroke:#4c72b0;stroke-width:0.3;" x="245.66422" xlink:href="#m68ff3078e6" y="244.477593"/>
     <use style="fill:#4c72b0;stroke:#4c72b0;stroke-width:0.3;" x="307.632616" xlink:href="#m68ff3078e6" y="231.715544"/>
     <use style="fill:#4c72b0;stroke:#4c72b0;stroke-width:0.3;" x="288.718368" xlink:href="#m68ff3078e6" y="222.59622"/>
    </g>
   </g>
   <g id="PathCollection_2">
    <defs>
     <path d="M 0 3.5 
C 0.928211 3.5 1.81853 3.131218 2.474874 2.474874 
C 3.131218 1.81853 3.5 0.928211 3.5 0 
C 3.5 -0.928211 3.131218 -1.81853 2.474874 -2.474874 
C 1.81853 -3.131218 0.928211 -3.5 0 -3.5 
C -0.928211 -3.5 -1.81853 -3.131218 -2.474874 -2.474874 
C -3.131218 -1.81853 -3.5 -0.928211 -3.5 0 
C -3.5 0.928211 -3.131218 1.81853 -2.474874 2.474874 
C -1.81853 3.131218 -0.928211 3.5 0 3.5 
z
" id="m07d9996c26" style="stroke:#55a868;stroke-width:0.3;"/>
    </defs>
    <g clip-path="url(#pb324d04deb)">
     <use style="fill:#55a868;stroke:#55a868;stroke-width:0.3;" x="234.174109" xlink:href="#m07d9996c26" y="225.563061"/>
     <use style="fill:#55a868;stroke:#55a868;stroke-width:0.3;" x="201.674749" xlink:href="#m07d9996c26" y="230.49782"/>
     <use style="fill:#55a868;stroke:#55a868;stroke-width:0.3;" x="230.635906" xlink:href="#m07d9996c26" y="223.07064"/>
     <use style="fill:#55a868;stroke:#55a868;stroke-width:0.3;" x="250.353762" xlink:href="#m07d9996c26" y="220.510634"/>
     <use style="fill:#55a868;stroke:#55a868;stroke-width:0.3;" x="323.579579" xlink:href="#m07d9996c26" y="216.419825"/>
     <use style="fill:#55a868;stroke:#55a868;stroke-width:0.3;" x="284.402364" xlink:href="#m07d9996c26" y="201.551891"/>
     <use style="fill:#55a868;stroke:#55a868;stroke-width:0.3;" x="256.885506" xlink:href="#m07d9996c26" y="210.235198"/>
     <use style="fill:#55a868;stroke:#55a868;stroke-width:0.3;" x="181.767571" xlink:href="#m07d9996c26" y="218.624763"/>
     <use style="fill:#55a868;stroke:#55a868;stroke-width:0.3;" x="258.303574" xlink:href="#m07d9996c26" y="214.161173"/>
     <use style="fill:#55a868;stroke:#55a868;stroke-width:0.3;" x="288.668934" xlink:href="#m07d9996c26" y="208.119828"/>
     <use style="fill:#55a868;stroke:#55a868;stroke-width:0.3;" x="299.987845" xlink:href="#m07d9996c26" y="201.219023"/>
     <use style="fill:#55a868;stroke:#55a868;stroke-width:0.3;" x="312.816028" xlink:href="#m07d9996c26" y="209.948892"/>
     <use style="fill:#55a868;stroke:#55a868;stroke-width:0.3;" x="281.133586" xlink:href="#m07d9996c26" y="204.053125"/>
     <use style="fill:#55a868;stroke:#55a868;stroke-width:0.3;" x="237.16577" xlink:href="#m07d9996c26" y="220.742121"/>
     <use style="fill:#55a868;stroke:#55a868;stroke-width:0.3;" x="289.796711" xlink:href="#m07d9996c26" y="222.581851"/>
     <use style="fill:#55a868;stroke:#55a868;stroke-width:0.3;" x="275.916601" xlink:href="#m07d9996c26" y="224.515267"/>
     <use style="fill:#55a868;stroke:#55a868;stroke-width:0.3;" x="273.30261" xlink:href="#m07d9996c26" y="221.661066"/>
     <use style="fill:#55a868;stroke:#55a868;stroke-width:0.3;" x="278.89542" xlink:href="#m07d9996c26" y="220.498628"/>
     <use style="fill:#55a868;stroke:#55a868;stroke-width:0.3;" x="271.235481" xlink:href="#m07d9996c26" y="225.135837"/>
     <use style="fill:#55a868;stroke:#55a868;stroke-width:0.3;" x="296.52567" xlink:href="#m07d9996c26" y="220.849224"/>
     <use style="fill:#55a868;stroke:#55a868;stroke-width:0.3;" x="295.66843" xlink:href="#m07d9996c26" y="224.94251"/>
     <use style="fill:#55a868;stroke:#55a868;stroke-width:0.3;" x="248.680815" xlink:href="#m07d9996c26" y="227.205002"/>
     <use style="fill:#55a868;stroke:#55a868;stroke-width:0.3;" x="270.957333" xlink:href="#m07d9996c26" y="219.383796"/>
     <use style="fill:#55a868;stroke:#55a868;stroke-width:0.3;" x="355.372192" xlink:href="#m07d9996c26" y="200.839413"/>
    </g>
   </g>
   <g id="PathCollection_3">
    <defs>
     <path d="M 0 3.5 
C 0.928211 3.5 1.81853 3.131218 2.474874 2.474874 
C 3.131218 1.81853 3.5 0.928211 3.5 0 
C 3.5 -0.928211 3.131218 -1.81853 2.474874 -2.474874 
C 1.81853 -3.131218 0.928211 -3.5 0 -3.5 
C -0.928211 -3.5 -1.81853 -3.131218 -2.474874 -2.474874 
C -3.131218 -1.81853 -3.5 -0.928211 -3.5 0 
C -3.5 0.928211 -3.131218 1.81853 -2.474874 2.474874 
C -1.81853 3.131218 -0.928211 3.5 0 3.5 
z
" id="mc4d13d43ec" style="stroke:#c44e52;stroke-width:0.3;"/>
    </defs>
    <g clip-path="url(#pb324d04deb)">
     <use style="fill:#c44e52;stroke:#c44e52;stroke-width:0.3;" x="363.700572" xlink:href="#mc4d13d43ec" y="185.377078"/>
     <use style="fill:#c44e52;stroke:#c44e52;stroke-width:0.3;" x="299.954828" xlink:href="#mc4d13d43ec" y="186.695141"/>
     <use style="fill:#c44e52;stroke:#c44e52;stroke-width:0.3;" x="345.042648" xlink:href="#mc4d13d43ec" y="182.829554"/>
     <use style="fill:#c44e52;stroke:#c44e52;stroke-width:0.3;" x="255.457412" xlink:href="#mc4d13d43ec" y="189.083321"/>
     <use style="fill:#c44e52;stroke:#c44e52;stroke-width:0.3;" x="362.562895" xlink:href="#mc4d13d43ec" y="180.458975"/>
     <use style="fill:#c44e52;stroke:#c44e52;stroke-width:0.3;" x="437.686077" xlink:href="#mc4d13d43ec" y="172.037953"/>
     <use style="fill:#c44e52;stroke:#c44e52;stroke-width:0.3;" x="365.62455" xlink:href="#mc4d13d43ec" y="185.354496"/>
     <use style="fill:#c44e52;stroke:#c44e52;stroke-width:0.3;" x="386.834541" xlink:href="#mc4d13d43ec" y="180.87532"/>
     <use style="fill:#c44e52;stroke:#c44e52;stroke-width:0.3;" x="243.668403" xlink:href="#mc4d13d43ec" y="195.068321"/>
     <use style="fill:#c44e52;stroke:#c44e52;stroke-width:0.3;" x="307.076665" xlink:href="#mc4d13d43ec" y="192.106245"/>
     <use style="fill:#c44e52;stroke:#c44e52;stroke-width:0.3;" x="363.121784" xlink:href="#mc4d13d43ec" y="188.481679"/>
     <use style="fill:#c44e52;stroke:#c44e52;stroke-width:0.3;" x="302.877583" xlink:href="#mc4d13d43ec" y="182.898478"/>
     <use style="fill:#c44e52;stroke:#c44e52;stroke-width:0.3;" x="384.507829" xlink:href="#mc4d13d43ec" y="191.856126"/>
     <use style="fill:#c44e52;stroke:#c44e52;stroke-width:0.3;" x="346.811669" xlink:href="#mc4d13d43ec" y="181.372451"/>
     <use style="fill:#c44e52;stroke:#c44e52;stroke-width:0.3;" x="404.556581" xlink:href="#mc4d13d43ec" y="160.139436"/>
     <use style="fill:#c44e52;stroke:#c44e52;stroke-width:0.3;" x="277.962737" xlink:href="#mc4d13d43ec" y="173.786672"/>
     <use style="fill:#c44e52;stroke:#c44e52;stroke-width:0.3;" x="270.269029" xlink:href="#mc4d13d43ec" y="190.926213"/>
     <use style="fill:#c44e52;stroke:#c44e52;stroke-width:0.3;" x="300.91561" xlink:href="#mc4d13d43ec" y="196.517847"/>
     <use style="fill:#c44e52;stroke:#c44e52;stroke-width:0.3;" x="309.664855" xlink:href="#mc4d13d43ec" y="183.762538"/>
     <use style="fill:#c44e52;stroke:#c44e52;stroke-width:0.3;" x="206.673432" xlink:href="#mc4d13d43ec" y="189.71839"/>
     <use style="fill:#c44e52;stroke:#c44e52;stroke-width:0.3;" x="311.160634" xlink:href="#mc4d13d43ec" y="196.010465"/>
     <use style="fill:#c44e52;stroke:#c44e52;stroke-width:0.3;" x="376.378353" xlink:href="#mc4d13d43ec" y="200.801293"/>
     <use style="fill:#c44e52;stroke:#c44e52;stroke-width:0.3;" x="325.266954" xlink:href="#mc4d13d43ec" y="198.880059"/>
     <use style="fill:#c44e52;stroke:#c44e52;stroke-width:0.3;" x="284.893296" xlink:href="#mc4d13d43ec" y="198.421005"/>
    </g>
   </g>
   <g id="line2d_17">
    <path clip-path="url(#pb324d04deb)" d="M 295.2 199.98 
L 416.841147 279.267272 
" style="fill:none;stroke:#ff0000;stroke-dasharray:7.4,3.2;stroke-dashoffset:0;stroke-width:2;"/>
   </g>
   <g id="patch_3">
    <path d="M 447.66 199.98 
C 447.66 179.959136 443.716326 160.13295 436.054674 141.636084 
C 428.393021 123.139218 417.162388 106.331389 403.0055 92.1745 
C 388.848611 78.017612 372.040782 66.786979 353.543916 59.125326 
C 335.04705 51.463674 315.220864 47.52 295.2 47.52 
C 275.179136 47.52 255.35295 51.463674 236.856084 59.125326 
C 218.359218 66.786979 201.551389 78.017612 187.3945 92.1745 
C 173.237612 106.331389 162.006979 123.139218 154.345326 141.636084 
C 146.683674 160.13295 142.74 179.959136 142.74 199.98 
C 142.74 220.000864 146.683674 239.82705 154.345326 258.323916 
C 162.006979 276.820782 173.237612 293.628611 187.3945 307.7855 
C 201.551389 321.942388 218.359218 333.173021 236.856084 340.834674 
C 255.35295 348.496326 275.179136 352.44 295.2 352.44 
C 315.220864 352.44 335.04705 348.496326 353.543916 340.834674 
C 372.040782 333.173021 388.848611 321.942388 403.0055 307.7855 
C 417.162388 293.628611 428.393021 276.820782 436.054674 258.323916 
C 443.716326 239.82705 447.66 220.000864 447.66 199.98 
" style="fill:none;"/>
   </g>
   <g id="text_17">
    <!-- Distribution of projected eye movement velocity on the screen - NewPit2_1_32 -->
    <defs>
     <path d="M 7.71875 0 
L 7.71875 71.578125 
L 32.375 71.578125 
Q 40.71875 71.578125 45.125 70.5625 
Q 51.265625 69.140625 55.609375 65.4375 
Q 61.28125 60.640625 64.078125 53.1875 
Q 66.890625 45.75 66.890625 36.1875 
Q 66.890625 28.03125 64.984375 21.734375 
Q 63.09375 15.4375 60.109375 11.296875 
Q 57.125 7.171875 53.578125 4.796875 
Q 50.046875 2.4375 45.046875 1.21875 
Q 40.046875 0 33.546875 0 
z
M 17.1875 8.453125 
L 32.46875 8.453125 
Q 39.546875 8.453125 43.578125 9.765625 
Q 47.609375 11.078125 50 13.484375 
Q 53.375 16.84375 55.25 22.53125 
Q 57.125 28.21875 57.125 36.328125 
Q 57.125 47.5625 53.4375 53.59375 
Q 49.75 59.625 44.484375 61.671875 
Q 40.671875 63.140625 32.234375 63.140625 
L 17.1875 63.140625 
z
" id="ArialMT-68"/>
     <path d="M 6.640625 61.46875 
L 6.640625 71.578125 
L 15.4375 71.578125 
L 15.4375 61.46875 
z
M 6.640625 0 
L 6.640625 51.859375 
L 15.4375 51.859375 
L 15.4375 0 
z
" id="ArialMT-105"/>
     <path d="M 3.078125 15.484375 
L 11.765625 16.84375 
Q 12.5 11.625 15.84375 8.84375 
Q 19.1875 6.0625 25.203125 6.0625 
Q 31.25 6.0625 34.171875 8.515625 
Q 37.109375 10.984375 37.109375 14.3125 
Q 37.109375 17.28125 34.515625 19 
Q 32.71875 20.171875 25.53125 21.96875 
Q 15.875 24.421875 12.140625 26.203125 
Q 8.40625 27.984375 6.46875 31.125 
Q 4.546875 34.28125 4.546875 38.09375 
Q 4.546875 41.546875 6.125 44.5 
Q 7.71875 47.46875 10.453125 49.421875 
Q 12.5 50.921875 16.03125 51.96875 
Q 19.578125 53.03125 23.640625 53.03125 
Q 29.734375 53.03125 34.34375 51.265625 
Q 38.96875 49.515625 41.15625 46.5 
Q 43.359375 43.5 44.1875 38.484375 
L 35.59375 37.3125 
Q 35.015625 41.3125 32.203125 43.546875 
Q 29.390625 45.796875 24.265625 45.796875 
Q 18.21875 45.796875 15.625 43.796875 
Q 13.03125 41.796875 13.03125 39.109375 
Q 13.03125 37.40625 14.109375 36.03125 
Q 15.1875 34.625 17.484375 33.6875 
Q 18.796875 33.203125 25.25 31.453125 
Q 34.578125 28.953125 38.25 27.359375 
Q 41.9375 25.78125 44.03125 22.75 
Q 46.140625 19.734375 46.140625 15.234375 
Q 46.140625 10.84375 43.578125 6.953125 
Q 41.015625 3.078125 36.171875 0.953125 
Q 31.34375 -1.171875 25.25 -1.171875 
Q 15.140625 -1.171875 9.84375 3.03125 
Q 4.546875 7.234375 3.078125 15.484375 
z
" id="ArialMT-115"/>
     <path d="M 25.78125 7.859375 
L 27.046875 0.09375 
Q 23.34375 -0.6875 20.40625 -0.6875 
Q 15.625 -0.6875 12.984375 0.828125 
Q 10.359375 2.34375 9.28125 4.8125 
Q 8.203125 7.28125 8.203125 15.1875 
L 8.203125 45.015625 
L 1.765625 45.015625 
L 1.765625 51.859375 
L 8.203125 51.859375 
L 8.203125 64.703125 
L 16.9375 69.96875 
L 16.9375 51.859375 
L 25.78125 51.859375 
L 25.78125 45.015625 
L 16.9375 45.015625 
L 16.9375 14.703125 
Q 16.9375 10.9375 17.40625 9.859375 
Q 17.875 8.796875 18.921875 8.15625 
Q 19.96875 7.515625 21.921875 7.515625 
Q 23.390625 7.515625 25.78125 7.859375 
z
" id="ArialMT-116"/>
     <path d="M 6.5 0 
L 6.5 51.859375 
L 14.40625 51.859375 
L 14.40625 44 
Q 17.4375 49.515625 20 51.265625 
Q 22.5625 53.03125 25.640625 53.03125 
Q 30.078125 53.03125 34.671875 50.203125 
L 31.640625 42.046875 
Q 28.421875 43.953125 25.203125 43.953125 
Q 22.3125 43.953125 20.015625 42.21875 
Q 17.71875 40.484375 16.75 37.40625 
Q 15.28125 32.71875 15.28125 27.15625 
L 15.28125 0 
z
" id="ArialMT-114"/>
     <path d="M 14.703125 0 
L 6.546875 0 
L 6.546875 71.578125 
L 15.328125 71.578125 
L 15.328125 46.046875 
Q 20.90625 53.03125 29.546875 53.03125 
Q 34.328125 53.03125 38.59375 51.09375 
Q 42.875 49.171875 45.625 45.671875 
Q 48.390625 42.1875 49.953125 37.25 
Q 51.515625 32.328125 51.515625 26.703125 
Q 51.515625 13.375 44.921875 6.09375 
Q 38.328125 -1.171875 29.109375 -1.171875 
Q 19.921875 -1.171875 14.703125 6.5 
z
M 14.59375 26.3125 
Q 14.59375 17 17.140625 12.84375 
Q 21.296875 6.0625 28.375 6.0625 
Q 34.125 6.0625 38.328125 11.0625 
Q 42.53125 16.0625 42.53125 25.984375 
Q 42.53125 36.140625 38.5 40.96875 
Q 34.46875 45.796875 28.765625 45.796875 
Q 23 45.796875 18.796875 40.796875 
Q 14.59375 35.796875 14.59375 26.3125 
z
" id="ArialMT-98"/>
     <path d="M 40.578125 0 
L 40.578125 7.625 
Q 34.515625 -1.171875 24.125 -1.171875 
Q 19.53125 -1.171875 15.546875 0.578125 
Q 11.578125 2.34375 9.640625 5 
Q 7.71875 7.671875 6.9375 11.53125 
Q 6.390625 14.109375 6.390625 19.734375 
L 6.390625 51.859375 
L 15.1875 51.859375 
L 15.1875 23.09375 
Q 15.1875 16.21875 15.71875 13.8125 
Q 16.546875 10.359375 19.234375 8.375 
Q 21.921875 6.390625 25.875 6.390625 
Q 29.828125 6.390625 33.296875 8.421875 
Q 36.765625 10.453125 38.203125 13.9375 
Q 39.65625 17.4375 39.65625 24.078125 
L 39.65625 51.859375 
L 48.4375 51.859375 
L 48.4375 0 
z
" id="ArialMT-117"/>
     <path d="M 3.328125 25.921875 
Q 3.328125 40.328125 11.328125 47.265625 
Q 18.015625 53.03125 27.640625 53.03125 
Q 38.328125 53.03125 45.109375 46.015625 
Q 51.90625 39.015625 51.90625 26.65625 
Q 51.90625 16.65625 48.90625 10.90625 
Q 45.90625 5.171875 40.15625 2 
Q 34.421875 -1.171875 27.640625 -1.171875 
Q 16.75 -1.171875 10.03125 5.8125 
Q 3.328125 12.796875 3.328125 25.921875 
z
M 12.359375 25.921875 
Q 12.359375 15.96875 16.703125 11.015625 
Q 21.046875 6.0625 27.640625 6.0625 
Q 34.1875 6.0625 38.53125 11.03125 
Q 42.875 16.015625 42.875 26.21875 
Q 42.875 35.84375 38.5 40.796875 
Q 34.125 45.75 27.640625 45.75 
Q 21.046875 45.75 16.703125 40.8125 
Q 12.359375 35.890625 12.359375 25.921875 
z
" id="ArialMT-111"/>
     <path d="M 6.59375 0 
L 6.59375 51.859375 
L 14.5 51.859375 
L 14.5 44.484375 
Q 20.21875 53.03125 31 53.03125 
Q 35.6875 53.03125 39.625 51.34375 
Q 43.5625 49.65625 45.515625 46.921875 
Q 47.46875 44.1875 48.25 40.4375 
Q 48.734375 37.984375 48.734375 31.890625 
L 48.734375 0 
L 39.9375 0 
L 39.9375 31.546875 
Q 39.9375 36.921875 38.90625 39.578125 
Q 37.890625 42.234375 35.28125 43.8125 
Q 32.671875 45.40625 29.15625 45.40625 
Q 23.53125 45.40625 19.453125 41.84375 
Q 15.375 38.28125 15.375 28.328125 
L 15.375 0 
z
" id="ArialMT-110"/>
     <path id="ArialMT-32"/>
     <path d="M 8.6875 0 
L 8.6875 45.015625 
L 0.921875 45.015625 
L 0.921875 51.859375 
L 8.6875 51.859375 
L 8.6875 57.375 
Q 8.6875 62.59375 9.625 65.140625 
Q 10.890625 68.5625 14.078125 70.671875 
Q 17.28125 72.796875 23.046875 72.796875 
Q 26.765625 72.796875 31.25 71.921875 
L 29.9375 64.265625 
Q 27.203125 64.75 24.75 64.75 
Q 20.75 64.75 19.09375 63.03125 
Q 17.4375 61.328125 17.4375 56.640625 
L 17.4375 51.859375 
L 27.546875 51.859375 
L 27.546875 45.015625 
L 17.4375 45.015625 
L 17.4375 0 
z
" id="ArialMT-102"/>
     <path d="M 6.59375 -19.875 
L 6.59375 51.859375 
L 14.59375 51.859375 
L 14.59375 45.125 
Q 17.4375 49.078125 21 51.046875 
Q 24.5625 53.03125 29.640625 53.03125 
Q 36.28125 53.03125 41.359375 49.609375 
Q 46.4375 46.1875 49.015625 39.953125 
Q 51.609375 33.734375 51.609375 26.3125 
Q 51.609375 18.359375 48.75 11.984375 
Q 45.90625 5.609375 40.453125 2.21875 
Q 35.015625 -1.171875 29 -1.171875 
Q 24.609375 -1.171875 21.109375 0.6875 
Q 17.625 2.546875 15.375 5.375 
L 15.375 -19.875 
z
M 14.546875 25.640625 
Q 14.546875 15.625 18.59375 10.84375 
Q 22.65625 6.0625 28.421875 6.0625 
Q 34.28125 6.0625 38.453125 11.015625 
Q 42.625 15.96875 42.625 26.375 
Q 42.625 36.28125 38.546875 41.203125 
Q 34.46875 46.140625 28.8125 46.140625 
Q 23.1875 46.140625 18.859375 40.890625 
Q 14.546875 35.640625 14.546875 25.640625 
z
" id="ArialMT-112"/>
     <path d="M 6.546875 61.375 
L 6.546875 71.578125 
L 15.328125 71.578125 
L 15.328125 61.375 
z
M -4.59375 -20.125 
L -2.9375 -12.640625 
Q -0.296875 -13.328125 1.21875 -13.328125 
Q 3.90625 -13.328125 5.21875 -11.546875 
Q 6.546875 -9.765625 6.546875 -2.640625 
L 6.546875 51.859375 
L 15.328125 51.859375 
L 15.328125 -2.828125 
Q 15.328125 -12.40625 12.84375 -16.15625 
Q 9.671875 -21.046875 2.296875 -21.046875 
Q -1.265625 -21.046875 -4.59375 -20.125 
z
" id="ArialMT-106"/>
     <path d="M 42.09375 16.703125 
L 51.171875 15.578125 
Q 49.03125 7.625 43.21875 3.21875 
Q 37.40625 -1.171875 28.375 -1.171875 
Q 17 -1.171875 10.328125 5.828125 
Q 3.65625 12.84375 3.65625 25.484375 
Q 3.65625 38.578125 10.390625 45.796875 
Q 17.140625 53.03125 27.875 53.03125 
Q 38.28125 53.03125 44.875 45.953125 
Q 51.46875 38.875 51.46875 26.03125 
Q 51.46875 25.25 51.421875 23.6875 
L 12.75 23.6875 
Q 13.234375 15.140625 17.578125 10.59375 
Q 21.921875 6.0625 28.421875 6.0625 
Q 33.25 6.0625 36.671875 8.59375 
Q 40.09375 11.140625 42.09375 16.703125 
z
M 13.234375 30.90625 
L 42.1875 30.90625 
Q 41.609375 37.453125 38.875 40.71875 
Q 34.671875 45.796875 27.984375 45.796875 
Q 21.921875 45.796875 17.796875 41.75 
Q 13.671875 37.703125 13.234375 30.90625 
z
" id="ArialMT-101"/>
     <path d="M 40.4375 19 
L 49.078125 17.875 
Q 47.65625 8.9375 41.8125 3.875 
Q 35.984375 -1.171875 27.484375 -1.171875 
Q 16.84375 -1.171875 10.375 5.78125 
Q 3.90625 12.75 3.90625 25.734375 
Q 3.90625 34.125 6.6875 40.421875 
Q 9.46875 46.734375 15.15625 49.875 
Q 20.84375 53.03125 27.546875 53.03125 
Q 35.984375 53.03125 41.359375 48.75 
Q 46.734375 44.484375 48.25 36.625 
L 39.703125 35.296875 
Q 38.484375 40.53125 35.375 43.15625 
Q 32.28125 45.796875 27.875 45.796875 
Q 21.234375 45.796875 17.078125 41.03125 
Q 12.9375 36.28125 12.9375 25.984375 
Q 12.9375 15.53125 16.9375 10.796875 
Q 20.953125 6.0625 27.390625 6.0625 
Q 32.5625 6.0625 36.03125 9.234375 
Q 39.5 12.40625 40.4375 19 
z
" id="ArialMT-99"/>
     <path d="M 40.234375 0 
L 40.234375 6.546875 
Q 35.296875 -1.171875 25.734375 -1.171875 
Q 19.53125 -1.171875 14.328125 2.25 
Q 9.125 5.671875 6.265625 11.796875 
Q 3.421875 17.921875 3.421875 25.875 
Q 3.421875 33.640625 6 39.96875 
Q 8.59375 46.296875 13.765625 49.65625 
Q 18.953125 53.03125 25.34375 53.03125 
Q 30.03125 53.03125 33.6875 51.046875 
Q 37.359375 49.078125 39.65625 45.90625 
L 39.65625 71.578125 
L 48.390625 71.578125 
L 48.390625 0 
z
M 12.453125 25.875 
Q 12.453125 15.921875 16.640625 10.984375 
Q 20.84375 6.0625 26.5625 6.0625 
Q 32.328125 6.0625 36.34375 10.765625 
Q 40.375 15.484375 40.375 25.140625 
Q 40.375 35.796875 36.265625 40.765625 
Q 32.171875 45.75 26.171875 45.75 
Q 20.3125 45.75 16.375 40.96875 
Q 12.453125 36.1875 12.453125 25.875 
z
" id="ArialMT-100"/>
     <path d="M 6.203125 -19.96875 
L 5.21875 -11.71875 
Q 8.109375 -12.5 10.25 -12.5 
Q 13.1875 -12.5 14.9375 -11.515625 
Q 16.703125 -10.546875 17.828125 -8.796875 
Q 18.65625 -7.46875 20.515625 -2.25 
Q 20.75 -1.515625 21.296875 -0.09375 
L 1.609375 51.859375 
L 11.078125 51.859375 
L 21.875 21.828125 
Q 23.96875 16.109375 25.640625 9.8125 
Q 27.15625 15.875 29.25 21.625 
L 40.328125 51.859375 
L 49.125 51.859375 
L 29.390625 -0.875 
Q 26.21875 -9.421875 24.46875 -12.640625 
Q 22.125 -17 19.09375 -19.015625 
Q 16.0625 -21.046875 11.859375 -21.046875 
Q 9.328125 -21.046875 6.203125 -19.96875 
z
" id="ArialMT-121"/>
     <path d="M 6.59375 0 
L 6.59375 51.859375 
L 14.453125 51.859375 
L 14.453125 44.578125 
Q 16.890625 48.390625 20.9375 50.703125 
Q 25 53.03125 30.171875 53.03125 
Q 35.9375 53.03125 39.625 50.640625 
Q 43.3125 48.25 44.828125 43.953125 
Q 50.984375 53.03125 60.84375 53.03125 
Q 68.5625 53.03125 72.703125 48.75 
Q 76.859375 44.484375 76.859375 35.59375 
L 76.859375 0 
L 68.109375 0 
L 68.109375 32.671875 
Q 68.109375 37.9375 67.25 40.25 
Q 66.40625 42.578125 64.15625 43.984375 
Q 61.921875 45.40625 58.890625 45.40625 
Q 53.421875 45.40625 49.796875 41.765625 
Q 46.1875 38.140625 46.1875 30.125 
L 46.1875 0 
L 37.40625 0 
L 37.40625 33.6875 
Q 37.40625 39.546875 35.25 42.46875 
Q 33.109375 45.40625 28.21875 45.40625 
Q 24.515625 45.40625 21.359375 43.453125 
Q 18.21875 41.5 16.796875 37.734375 
Q 15.375 33.984375 15.375 26.90625 
L 15.375 0 
z
" id="ArialMT-109"/>
     <path d="M 21 0 
L 1.265625 51.859375 
L 10.546875 51.859375 
L 21.6875 20.796875 
Q 23.484375 15.765625 25 10.359375 
Q 26.171875 14.453125 28.265625 20.21875 
L 39.796875 51.859375 
L 48.828125 51.859375 
L 29.203125 0 
z
" id="ArialMT-118"/>
     <path d="M 6.390625 0 
L 6.390625 71.578125 
L 15.1875 71.578125 
L 15.1875 0 
z
" id="ArialMT-108"/>
     <path d="M 6.59375 0 
L 6.59375 71.578125 
L 15.375 71.578125 
L 15.375 45.90625 
Q 21.53125 53.03125 30.90625 53.03125 
Q 36.671875 53.03125 40.921875 50.75 
Q 45.171875 48.484375 47 44.484375 
Q 48.828125 40.484375 48.828125 32.859375 
L 48.828125 0 
L 40.046875 0 
L 40.046875 32.859375 
Q 40.046875 39.453125 37.1875 42.453125 
Q 34.328125 45.453125 29.109375 45.453125 
Q 25.203125 45.453125 21.75 43.421875 
Q 18.3125 41.40625 16.84375 37.9375 
Q 15.375 34.46875 15.375 28.375 
L 15.375 0 
z
" id="ArialMT-104"/>
     <path d="M 3.171875 21.484375 
L 3.171875 30.328125 
L 30.171875 30.328125 
L 30.171875 21.484375 
z
" id="ArialMT-45"/>
     <path d="M 7.625 0 
L 7.625 71.578125 
L 17.328125 71.578125 
L 54.9375 15.375 
L 54.9375 71.578125 
L 64.015625 71.578125 
L 64.015625 0 
L 54.296875 0 
L 16.703125 56.25 
L 16.703125 0 
z
" id="ArialMT-78"/>
     <path d="M 16.15625 0 
L 0.296875 51.859375 
L 9.375 51.859375 
L 17.625 21.921875 
L 20.703125 10.796875 
Q 20.90625 11.625 23.390625 21.484375 
L 31.640625 51.859375 
L 40.671875 51.859375 
L 48.4375 21.78125 
L 51.03125 11.859375 
L 54 21.875 
L 62.890625 51.859375 
L 71.4375 51.859375 
L 55.21875 0 
L 46.09375 0 
L 37.84375 31.0625 
L 35.84375 39.890625 
L 25.34375 0 
z
" id="ArialMT-119"/>
     <path d="M 7.71875 0 
L 7.71875 71.578125 
L 34.71875 71.578125 
Q 41.84375 71.578125 45.609375 70.90625 
Q 50.875 70.015625 54.4375 67.546875 
Q 58.015625 65.09375 60.1875 60.640625 
Q 62.359375 56.203125 62.359375 50.875 
Q 62.359375 41.75 56.546875 35.421875 
Q 50.734375 29.109375 35.546875 29.109375 
L 17.1875 29.109375 
L 17.1875 0 
z
M 17.1875 37.546875 
L 35.6875 37.546875 
Q 44.875 37.546875 48.734375 40.96875 
Q 52.59375 44.390625 52.59375 50.59375 
Q 52.59375 55.078125 50.3125 58.265625 
Q 48.046875 61.46875 44.34375 62.5 
Q 41.9375 63.140625 35.5 63.140625 
L 17.1875 63.140625 
z
" id="ArialMT-80"/>
     <path d="M -1.515625 -19.875 
L -1.515625 -13.53125 
L 56.734375 -13.53125 
L 56.734375 -19.875 
z
" id="ArialMT-95"/>
    </defs>
    <g style="fill:#262626;" transform="translate(87.105938 23.748375)scale(0.12 -0.12)">
     <use xlink:href="#ArialMT-68"/>
     <use x="72.216797" xlink:href="#ArialMT-105"/>
     <use x="94.433594" xlink:href="#ArialMT-115"/>
     <use x="144.433594" xlink:href="#ArialMT-116"/>
     <use x="172.216797" xlink:href="#ArialMT-114"/>
     <use x="205.517578" xlink:href="#ArialMT-105"/>
     <use x="227.734375" xlink:href="#ArialMT-98"/>
     <use x="283.349609" xlink:href="#ArialMT-117"/>
     <use x="338.964844" xlink:href="#ArialMT-116"/>
     <use x="366.748047" xlink:href="#ArialMT-105"/>
     <use x="388.964844" xlink:href="#ArialMT-111"/>
     <use x="444.580078" xlink:href="#ArialMT-110"/>
     <use x="500.195312" xlink:href="#ArialMT-32"/>
     <use x="527.978516" xlink:href="#ArialMT-111"/>
     <use x="583.59375" xlink:href="#ArialMT-102"/>
     <use x="611.376953" xlink:href="#ArialMT-32"/>
     <use x="639.160156" xlink:href="#ArialMT-112"/>
     <use x="694.775391" xlink:href="#ArialMT-114"/>
     <use x="728.076172" xlink:href="#ArialMT-111"/>
     <use x="783.691406" xlink:href="#ArialMT-106"/>
     <use x="805.908203" xlink:href="#ArialMT-101"/>
     <use x="861.523438" xlink:href="#ArialMT-99"/>
     <use x="911.523438" xlink:href="#ArialMT-116"/>
     <use x="939.306641" xlink:href="#ArialMT-101"/>
     <use x="994.921875" xlink:href="#ArialMT-100"/>
     <use x="1050.537109" xlink:href="#ArialMT-32"/>
     <use x="1078.320312" xlink:href="#ArialMT-101"/>
     <use x="1133.935547" xlink:href="#ArialMT-121"/>
     <use x="1183.935547" xlink:href="#ArialMT-101"/>
     <use x="1239.550781" xlink:href="#ArialMT-32"/>
     <use x="1267.333984" xlink:href="#ArialMT-109"/>
     <use x="1350.634766" xlink:href="#ArialMT-111"/>
     <use x="1406.25" xlink:href="#ArialMT-118"/>
     <use x="1456.25" xlink:href="#ArialMT-101"/>
     <use x="1511.865234" xlink:href="#ArialMT-109"/>
     <use x="1595.166016" xlink:href="#ArialMT-101"/>
     <use x="1650.78125" xlink:href="#ArialMT-110"/>
     <use x="1706.396484" xlink:href="#ArialMT-116"/>
     <use x="1734.179688" xlink:href="#ArialMT-32"/>
     <use x="1761.962891" xlink:href="#ArialMT-118"/>
     <use x="1811.962891" xlink:href="#ArialMT-101"/>
     <use x="1867.578125" xlink:href="#ArialMT-108"/>
     <use x="1889.794922" xlink:href="#ArialMT-111"/>
     <use x="1945.410156" xlink:href="#ArialMT-99"/>
     <use x="1995.410156" xlink:href="#ArialMT-105"/>
     <use x="2017.626953" xlink:href="#ArialMT-116"/>
     <use x="2045.410156" xlink:href="#ArialMT-121"/>
     <use x="2095.410156" xlink:href="#ArialMT-32"/>
     <use x="2123.193359" xlink:href="#ArialMT-111"/>
     <use x="2178.808594" xlink:href="#ArialMT-110"/>
     <use x="2234.423828" xlink:href="#ArialMT-32"/>
     <use x="2262.207031" xlink:href="#ArialMT-116"/>
     <use x="2289.990234" xlink:href="#ArialMT-104"/>
     <use x="2345.605469" xlink:href="#ArialMT-101"/>
     <use x="2401.220703" xlink:href="#ArialMT-32"/>
     <use x="2429.003906" xlink:href="#ArialMT-115"/>
     <use x="2479.003906" xlink:href="#ArialMT-99"/>
     <use x="2529.003906" xlink:href="#ArialMT-114"/>
     <use x="2562.304688" xlink:href="#ArialMT-101"/>
     <use x="2617.919922" xlink:href="#ArialMT-101"/>
     <use x="2673.535156" xlink:href="#ArialMT-110"/>
     <use x="2729.150391" xlink:href="#ArialMT-32"/>
     <use x="2756.933594" xlink:href="#ArialMT-45"/>
     <use x="2790.234375" xlink:href="#ArialMT-32"/>
     <use x="2818.017578" xlink:href="#ArialMT-78"/>
     <use x="2890.234375" xlink:href="#ArialMT-101"/>
     <use x="2945.849609" xlink:href="#ArialMT-119"/>
     <use x="3018.066406" xlink:href="#ArialMT-80"/>
     <use x="3084.765625" xlink:href="#ArialMT-105"/>
     <use x="3106.982422" xlink:href="#ArialMT-116"/>
     <use x="3134.765625" xlink:href="#ArialMT-50"/>
     <use x="3190.380859" xlink:href="#ArialMT-95"/>
     <use x="3245.996094" xlink:href="#ArialMT-49"/>
     <use x="3301.611328" xlink:href="#ArialMT-95"/>
     <use x="3357.226562" xlink:href="#ArialMT-51"/>
     <use x="3412.841797" xlink:href="#ArialMT-50"/>
    </g>
   </g>
   <g id="legend_1">
    <g id="line2d_18">
     <path d="M 199.485938 60.2075 
L 219.485938 60.2075 
" style="fill:none;stroke:#ff0000;stroke-dasharray:7.4,3.2;stroke-dashoffset:0;stroke-width:2;"/>
    </g>
    <g id="line2d_19"/>
    <g id="text_18">
     <!-- Average angle in light: -33.1 degrees -->
     <defs>
      <path d="M -0.140625 0 
L 27.34375 71.578125 
L 37.546875 71.578125 
L 66.84375 0 
L 56.0625 0 
L 47.703125 21.6875 
L 17.78125 21.6875 
L 9.90625 0 
z
M 20.515625 29.390625 
L 44.78125 29.390625 
L 37.3125 49.21875 
Q 33.890625 58.25 32.234375 64.0625 
Q 30.859375 57.171875 28.375 50.390625 
z
" id="ArialMT-65"/>
      <path d="M 40.4375 6.390625 
Q 35.546875 2.25 31.03125 0.53125 
Q 26.515625 -1.171875 21.34375 -1.171875 
Q 12.796875 -1.171875 8.203125 3 
Q 3.609375 7.171875 3.609375 13.671875 
Q 3.609375 17.484375 5.34375 20.625 
Q 7.078125 23.78125 9.890625 25.6875 
Q 12.703125 27.59375 16.21875 28.5625 
Q 18.796875 29.25 24.03125 29.890625 
Q 34.671875 31.15625 39.703125 32.90625 
Q 39.75 34.71875 39.75 35.203125 
Q 39.75 40.578125 37.25 42.78125 
Q 33.890625 45.75 27.25 45.75 
Q 21.046875 45.75 18.09375 43.578125 
Q 15.140625 41.40625 13.71875 35.890625 
L 5.125 37.0625 
Q 6.296875 42.578125 8.984375 45.96875 
Q 11.671875 49.359375 16.75 51.1875 
Q 21.828125 53.03125 28.515625 53.03125 
Q 35.15625 53.03125 39.296875 51.46875 
Q 43.453125 49.90625 45.40625 47.53125 
Q 47.359375 45.171875 48.140625 41.546875 
Q 48.578125 39.3125 48.578125 33.453125 
L 48.578125 21.734375 
Q 48.578125 9.46875 49.140625 6.21875 
Q 49.703125 2.984375 51.375 0 
L 42.1875 0 
Q 40.828125 2.734375 40.4375 6.390625 
z
M 39.703125 26.03125 
Q 34.90625 24.078125 25.34375 22.703125 
Q 19.921875 21.921875 17.671875 20.9375 
Q 15.4375 19.96875 14.203125 18.09375 
Q 12.984375 16.21875 12.984375 13.921875 
Q 12.984375 10.40625 15.640625 8.0625 
Q 18.3125 5.71875 23.4375 5.71875 
Q 28.515625 5.71875 32.46875 7.9375 
Q 36.421875 10.15625 38.28125 14.015625 
Q 39.703125 17 39.703125 22.796875 
z
" id="ArialMT-97"/>
      <path d="M 4.984375 -4.296875 
L 13.53125 -5.5625 
Q 14.0625 -9.515625 16.5 -11.328125 
Q 19.78125 -13.765625 25.4375 -13.765625 
Q 31.546875 -13.765625 34.859375 -11.328125 
Q 38.1875 -8.890625 39.359375 -4.5 
Q 40.046875 -1.8125 39.984375 6.78125 
Q 34.234375 0 25.640625 0 
Q 14.9375 0 9.078125 7.71875 
Q 3.21875 15.4375 3.21875 26.21875 
Q 3.21875 33.640625 5.90625 39.90625 
Q 8.59375 46.1875 13.6875 49.609375 
Q 18.796875 53.03125 25.6875 53.03125 
Q 34.859375 53.03125 40.828125 45.609375 
L 40.828125 51.859375 
L 48.921875 51.859375 
L 48.921875 7.03125 
Q 48.921875 -5.078125 46.453125 -10.125 
Q 44 -15.1875 38.640625 -18.109375 
Q 33.296875 -21.046875 25.484375 -21.046875 
Q 16.21875 -21.046875 10.5 -16.875 
Q 4.78125 -12.703125 4.984375 -4.296875 
z
M 12.25 26.859375 
Q 12.25 16.65625 16.296875 11.96875 
Q 20.359375 7.28125 26.46875 7.28125 
Q 32.515625 7.28125 36.609375 11.9375 
Q 40.71875 16.609375 40.71875 26.5625 
Q 40.71875 36.078125 36.5 40.90625 
Q 32.28125 45.75 26.3125 45.75 
Q 20.453125 45.75 16.34375 40.984375 
Q 12.25 36.234375 12.25 26.859375 
z
" id="ArialMT-103"/>
      <path d="M 9.03125 41.84375 
L 9.03125 51.859375 
L 19.046875 51.859375 
L 19.046875 41.84375 
z
M 9.03125 0 
L 9.03125 10.015625 
L 19.046875 10.015625 
L 19.046875 0 
z
" id="ArialMT-58"/>
     </defs>
     <g style="fill:#262626;" transform="translate(227.485938 63.7075)scale(0.1 -0.1)">
      <use xlink:href="#ArialMT-65"/>
      <use x="66.683594" xlink:href="#ArialMT-118"/>
      <use x="116.683594" xlink:href="#ArialMT-101"/>
      <use x="172.298828" xlink:href="#ArialMT-114"/>
      <use x="205.599609" xlink:href="#ArialMT-97"/>
      <use x="261.214844" xlink:href="#ArialMT-103"/>
      <use x="316.830078" xlink:href="#ArialMT-101"/>
      <use x="372.445312" xlink:href="#ArialMT-32"/>
      <use x="400.228516" xlink:href="#ArialMT-97"/>
      <use x="455.84375" xlink:href="#ArialMT-110"/>
      <use x="511.458984" xlink:href="#ArialMT-103"/>
      <use x="567.074219" xlink:href="#ArialMT-108"/>
      <use x="589.291016" xlink:href="#ArialMT-101"/>
      <use x="644.90625" xlink:href="#ArialMT-32"/>
      <use x="672.689453" xlink:href="#ArialMT-105"/>
      <use x="694.90625" xlink:href="#ArialMT-110"/>
      <use x="750.521484" xlink:href="#ArialMT-32"/>
      <use x="778.304688" xlink:href="#ArialMT-108"/>
      <use x="800.521484" xlink:href="#ArialMT-105"/>
      <use x="822.738281" xlink:href="#ArialMT-103"/>
      <use x="878.353516" xlink:href="#ArialMT-104"/>
      <use x="933.96875" xlink:href="#ArialMT-116"/>
      <use x="961.751953" xlink:href="#ArialMT-58"/>
      <use x="989.535156" xlink:href="#ArialMT-32"/>
      <use x="1017.318359" xlink:href="#ArialMT-45"/>
      <use x="1050.619141" xlink:href="#ArialMT-51"/>
      <use x="1106.234375" xlink:href="#ArialMT-51"/>
      <use x="1161.849609" xlink:href="#ArialMT-46"/>
      <use x="1189.632812" xlink:href="#ArialMT-49"/>
      <use x="1245.248047" xlink:href="#ArialMT-32"/>
      <use x="1273.03125" xlink:href="#ArialMT-100"/>
      <use x="1328.646484" xlink:href="#ArialMT-101"/>
      <use x="1384.261719" xlink:href="#ArialMT-103"/>
      <use x="1439.876953" xlink:href="#ArialMT-114"/>
      <use x="1473.177734" xlink:href="#ArialMT-101"/>
      <use x="1528.792969" xlink:href="#ArialMT-101"/>
      <use x="1584.408203" xlink:href="#ArialMT-115"/>
     </g>
    </g>
    <g id="PathCollection_4">
     <g>
      <use style="fill:#4c72b0;stroke:#4c72b0;stroke-width:0.3;" x="209.485938" xlink:href="#m68ff3078e6" y="75.345"/>
     </g>
    </g>
    <g id="text_19">
     <!-- $-0.5 &lt; t &lt; 0.$ -->
     <defs>
      <path d="M 10.59375 35.5 
L 73.1875 35.5 
L 73.1875 27.203125 
L 10.59375 27.203125 
z
" id="DejaVuSans-8722"/>
      <path d="M 31.78125 66.40625 
Q 24.171875 66.40625 20.328125 58.90625 
Q 16.5 51.421875 16.5 36.375 
Q 16.5 21.390625 20.328125 13.890625 
Q 24.171875 6.390625 31.78125 6.390625 
Q 39.453125 6.390625 43.28125 13.890625 
Q 47.125 21.390625 47.125 36.375 
Q 47.125 51.421875 43.28125 58.90625 
Q 39.453125 66.40625 31.78125 66.40625 
z
M 31.78125 74.21875 
Q 44.046875 74.21875 50.515625 64.515625 
Q 56.984375 54.828125 56.984375 36.375 
Q 56.984375 17.96875 50.515625 8.265625 
Q 44.046875 -1.421875 31.78125 -1.421875 
Q 19.53125 -1.421875 13.0625 8.265625 
Q 6.59375 17.96875 6.59375 36.375 
Q 6.59375 54.828125 13.0625 64.515625 
Q 19.53125 74.21875 31.78125 74.21875 
z
" id="DejaVuSans-48"/>
      <path d="M 10.6875 12.40625 
L 21 12.40625 
L 21 0 
L 10.6875 0 
z
" id="DejaVuSans-46"/>
      <path d="M 10.796875 72.90625 
L 49.515625 72.90625 
L 49.515625 64.59375 
L 19.828125 64.59375 
L 19.828125 46.734375 
Q 21.96875 47.46875 24.109375 47.828125 
Q 26.265625 48.1875 28.421875 48.1875 
Q 40.625 48.1875 47.75 41.5 
Q 54.890625 34.8125 54.890625 23.390625 
Q 54.890625 11.625 47.5625 5.09375 
Q 40.234375 -1.421875 26.90625 -1.421875 
Q 22.3125 -1.421875 17.546875 -0.640625 
Q 12.796875 0.140625 7.71875 1.703125 
L 7.71875 11.625 
Q 12.109375 9.234375 16.796875 8.0625 
Q 21.484375 6.890625 26.703125 6.890625 
Q 35.15625 6.890625 40.078125 11.328125 
Q 45.015625 15.765625 45.015625 23.390625 
Q 45.015625 31 40.078125 35.4375 
Q 35.15625 39.890625 26.703125 39.890625 
Q 22.75 39.890625 18.8125 39.015625 
Q 14.890625 38.140625 10.796875 36.28125 
z
" id="DejaVuSans-53"/>
      <path d="M 73.1875 49.21875 
L 22.796875 31.296875 
L 73.1875 13.484375 
L 73.1875 4.59375 
L 10.59375 27.296875 
L 10.59375 35.40625 
L 73.1875 58.109375 
z
" id="DejaVuSans-60"/>
      <path d="M 42.28125 54.6875 
L 40.921875 47.703125 
L 23 47.703125 
L 17.1875 18.015625 
Q 16.890625 16.359375 16.75 15.234375 
Q 16.609375 14.109375 16.609375 13.484375 
Q 16.609375 10.359375 18.484375 8.9375 
Q 20.359375 7.515625 24.515625 7.515625 
L 33.59375 7.515625 
L 32.078125 0 
L 23.484375 0 
Q 15.484375 0 11.546875 3.125 
Q 7.625 6.25 7.625 12.59375 
Q 7.625 13.71875 7.765625 15.0625 
Q 7.90625 16.40625 8.203125 18.015625 
L 14.015625 47.703125 
L 6.390625 47.703125 
L 7.8125 54.6875 
L 15.28125 54.6875 
L 18.3125 70.21875 
L 27.296875 70.21875 
L 24.3125 54.6875 
z
" id="DejaVuSans-Oblique-116"/>
     </defs>
     <g style="fill:#262626;" transform="translate(227.485938 77.97)scale(0.1 -0.1)">
      <use transform="translate(0 0.78125)" xlink:href="#DejaVuSans-8722"/>
      <use transform="translate(83.789062 0.78125)" xlink:href="#DejaVuSans-48"/>
      <use transform="translate(147.412109 0.78125)" xlink:href="#DejaVuSans-46"/>
      <use transform="translate(179.199219 0.78125)" xlink:href="#DejaVuSans-53"/>
      <use transform="translate(262.304688 0.78125)" xlink:href="#DejaVuSans-60"/>
      <use transform="translate(365.576172 0.78125)" xlink:href="#DejaVuSans-Oblique-116"/>
      <use transform="translate(424.267578 0.78125)" xlink:href="#DejaVuSans-60"/>
      <use transform="translate(527.539062 0.78125)" xlink:href="#DejaVuSans-48"/>
     </g>
    </g>
    <g id="PathCollection_5">
     <g>
      <use style="fill:#55a868;stroke:#55a868;stroke-width:0.3;" x="209.485938" xlink:href="#m07d9996c26" y="89.490312"/>
     </g>
    </g>
    <g id="text_20">
     <!-- $0. &lt; t &lt; 0.5$ -->
     <g style="fill:#262626;" transform="translate(227.485938 92.115312)scale(0.1 -0.1)">
      <use transform="translate(0 0.78125)" xlink:href="#DejaVuSans-48"/>
      <use transform="translate(63.623047 0.78125)" xlink:href="#DejaVuSans-46"/>
      <use transform="translate(134.375 0.78125)" xlink:href="#DejaVuSans-60"/>
      <use transform="translate(237.646484 0.78125)" xlink:href="#DejaVuSans-Oblique-116"/>
      <use transform="translate(296.337891 0.78125)" xlink:href="#DejaVuSans-60"/>
      <use transform="translate(399.609375 0.78125)" xlink:href="#DejaVuSans-48"/>
      <use transform="translate(463.232422 0.78125)" xlink:href="#DejaVuSans-46"/>
      <use transform="translate(495.019531 0.78125)" xlink:href="#DejaVuSans-53"/>
     </g>
    </g>
    <g id="PathCollection_6">
     <g>
      <use style="fill:#c44e52;stroke:#c44e52;stroke-width:0.3;" x="209.485938" xlink:href="#mc4d13d43ec" y="103.635625"/>
     </g>
    </g>
    <g id="text_21">
     <!-- $0.5 &lt; t &lt; 1.$ -->
     <defs>
      <path d="M 12.40625 8.296875 
L 28.515625 8.296875 
L 28.515625 63.921875 
L 10.984375 60.40625 
L 10.984375 69.390625 
L 28.421875 72.90625 
L 38.28125 72.90625 
L 38.28125 8.296875 
L 54.390625 8.296875 
L 54.390625 0 
L 12.40625 0 
z
" id="DejaVuSans-49"/>
     </defs>
     <g style="fill:#262626;" transform="translate(227.485938 106.260625)scale(0.1 -0.1)">
      <use transform="translate(0 0.78125)" xlink:href="#DejaVuSans-48"/>
      <use transform="translate(63.623047 0.78125)" xlink:href="#DejaVuSans-46"/>
      <use transform="translate(95.410156 0.78125)" xlink:href="#DejaVuSans-53"/>
      <use transform="translate(178.515625 0.78125)" xlink:href="#DejaVuSans-60"/>
      <use transform="translate(281.787109 0.78125)" xlink:href="#DejaVuSans-Oblique-116"/>
      <use transform="translate(340.478516 0.78125)" xlink:href="#DejaVuSans-60"/>
      <use transform="translate(443.75 0.78125)" xlink:href="#DejaVuSans-49"/>
     </g>
    </g>
   </g>
  </g>
 </g>
 <defs>
  <clipPath id="pb324d04deb">
   <path d="M 447.66 199.98 
C 447.66 179.959136 443.716326 160.13295 436.054674 141.636084 
C 428.393021 123.139218 417.162388 106.331389 403.0055 92.1745 
C 388.848611 78.017612 372.040782 66.786979 353.543916 59.125326 
C 335.04705 51.463674 315.220864 47.52 295.2 47.52 
C 275.179136 47.52 255.35295 51.463674 236.856084 59.125326 
C 218.359218 66.786979 201.551389 78.017612 187.3945 92.1745 
C 173.237612 106.331389 162.006979 123.139218 154.345326 141.636084 
C 146.683674 160.13295 142.74 179.959136 142.74 199.98 
C 142.74 220.000864 146.683674 239.82705 154.345326 258.323916 
C 162.006979 276.820782 173.237612 293.628611 187.3945 307.7855 
C 201.551389 321.942388 218.359218 333.173021 236.856084 340.834674 
C 255.35295 348.496326 275.179136 352.44 295.2 352.44 
C 315.220864 352.44 335.04705 348.496326 353.543916 340.834674 
C 372.040782 333.173021 388.848611 321.942388 403.0055 307.7855 
C 417.162388 293.628611 428.393021 276.820782 436.054674 258.323916 
C 443.716326 239.82705 447.66 220.000864 447.66 199.98 
M 295.2 199.98 
C 295.2 199.98 295.2 199.98 295.2 199.98 
C 295.2 199.98 295.2 199.98 295.2 199.98 
C 295.2 199.98 295.2 199.98 295.2 199.98 
C 295.2 199.98 295.2 199.98 295.2 199.98 
C 295.2 199.98 295.2 199.98 295.2 199.98 
C 295.2 199.98 295.2 199.98 295.2 199.98 
C 295.2 199.98 295.2 199.98 295.2 199.98 
C 295.2 199.98 295.2 199.98 295.2 199.98 
C 295.2 199.98 295.2 199.98 295.2 199.98 
C 295.2 199.98 295.2 199.98 295.2 199.98 
C 295.2 199.98 295.2 199.98 295.2 199.98 
C 295.2 199.98 295.2 199.98 295.2 199.98 
C 295.2 199.98 295.2 199.98 295.2 199.98 
C 295.2 199.98 295.2 199.98 295.2 199.98 
C 295.2 199.98 295.2 199.98 295.2 199.98 
C 295.2 199.98 295.2 199.98 295.2 199.98 
M 447.66 199.98 
z
"/>
  </clipPath>
 </defs>
</svg>
