<?xml version="1.0" encoding="utf-8" standalone="no"?>
<!DOCTYPE svg PUBLIC "-//W3C//DTD SVG 1.1//EN"
  "http://www.w3.org/Graphics/SVG/1.1/DTD/svg11.dtd">
<!-- Created with matplotlib (https://matplotlib.org/) -->
<svg height="396pt" version="1.1" viewBox="0 0 576 396" width="576pt" xmlns="http://www.w3.org/2000/svg" xmlns:xlink="http://www.w3.org/1999/xlink">
 <defs>
  <style type="text/css">
*{stroke-linecap:butt;stroke-linejoin:round;}
  </style>
 </defs>
 <g id="figure_1">
  <g id="patch_1">
   <path d="M 0 396 
L 576 396 
L 576 0 
L 0 0 
z
" style="fill:#ffffff;"/>
  </g>
  <g id="axes_1">
   <g id="patch_2">
    <path d="M 447.66 199.98 
C 447.66 179.959136 443.716326 160.13295 436.054674 141.636084 
C 428.393021 123.139218 417.162388 106.331389 403.0055 92.1745 
C 388.848611 78.017612 372.040782 66.786979 353.543916 59.125326 
C 335.04705 51.463674 315.220864 47.52 295.2 47.52 
C 275.179136 47.52 255.35295 51.463674 236.856084 59.125326 
C 218.359218 66.786979 201.551389 78.017612 187.3945 92.1745 
C 173.237612 106.331389 162.006979 123.139218 154.345326 141.636084 
C 146.683674 160.13295 142.74 179.959136 142.74 199.98 
C 142.74 220.000864 146.683674 239.82705 154.345326 258.323916 
C 162.006979 276.820782 173.237612 293.628611 187.3945 307.7855 
C 201.551389 321.942388 218.359218 333.173021 236.856084 340.834674 
C 255.35295 348.496326 275.179136 352.44 295.2 352.44 
C 315.220864 352.44 335.04705 348.496326 353.543916 340.834674 
C 372.040782 333.173021 388.848611 321.942388 403.0055 307.7855 
C 417.162388 293.628611 428.393021 276.820782 436.054674 258.323916 
C 443.716326 239.82705 447.66 220.000864 447.66 199.98 
M 295.2 199.98 
C 295.2 199.98 295.2 199.98 295.2 199.98 
C 295.2 199.98 295.2 199.98 295.2 199.98 
C 295.2 199.98 295.2 199.98 295.2 199.98 
C 295.2 199.98 295.2 199.98 295.2 199.98 
C 295.2 199.98 295.2 199.98 295.2 199.98 
C 295.2 199.98 295.2 199.98 295.2 199.98 
C 295.2 199.98 295.2 199.98 295.2 199.98 
C 295.2 199.98 295.2 199.98 295.2 199.98 
C 295.2 199.98 295.2 199.98 295.2 199.98 
C 295.2 199.98 295.2 199.98 295.2 199.98 
C 295.2 199.98 295.2 199.98 295.2 199.98 
C 295.2 199.98 295.2 199.98 295.2 199.98 
C 295.2 199.98 295.2 199.98 295.2 199.98 
C 295.2 199.98 295.2 199.98 295.2 199.98 
C 295.2 199.98 295.2 199.98 295.2 199.98 
C 295.2 199.98 295.2 199.98 295.2 199.98 
M 447.66 199.98 
z
" style="fill:#eaeaf2;"/>
   </g>
   <g id="matplotlib.axis_1">
    <g id="xtick_1">
     <g id="line2d_1">
      <path clip-path="url(#p917d13823f)" d="M 295.2 199.98 
L 447.66 199.98 
" style="fill:none;stroke:#ffffff;stroke-linecap:round;"/>
     </g>
     <g id="text_1">
      <!-- 0° -->
      <defs>
       <path d="M 4.15625 35.296875 
Q 4.15625 48 6.765625 55.734375 
Q 9.375 63.484375 14.515625 67.671875 
Q 19.671875 71.875 27.484375 71.875 
Q 33.25 71.875 37.59375 69.546875 
Q 41.9375 67.234375 44.765625 62.859375 
Q 47.609375 58.5 49.21875 52.21875 
Q 50.828125 45.953125 50.828125 35.296875 
Q 50.828125 22.703125 48.234375 14.96875 
Q 45.65625 7.234375 40.5 3 
Q 35.359375 -1.21875 27.484375 -1.21875 
Q 17.140625 -1.21875 11.234375 6.203125 
Q 4.15625 15.140625 4.15625 35.296875 
z
M 13.1875 35.296875 
Q 13.1875 17.671875 17.3125 11.828125 
Q 21.4375 6 27.484375 6 
Q 33.546875 6 37.671875 11.859375 
Q 41.796875 17.71875 41.796875 35.296875 
Q 41.796875 52.984375 37.671875 58.78125 
Q 33.546875 64.59375 27.390625 64.59375 
Q 21.34375 64.59375 17.71875 59.46875 
Q 13.1875 52.9375 13.1875 35.296875 
z
" id="ArialMT-48"/>
       <path d="M 6.25 59.28125 
Q 6.25 64.890625 10.21875 68.84375 
Q 14.203125 72.796875 19.78125 72.796875 
Q 25.4375 72.796875 29.390625 68.84375 
Q 33.34375 64.890625 33.34375 59.28125 
Q 33.34375 53.65625 29.359375 49.671875 
Q 25.390625 45.703125 19.78125 45.703125 
Q 14.203125 45.703125 10.21875 49.65625 
Q 6.25 53.609375 6.25 59.28125 
z
M 11.578125 59.28125 
Q 11.578125 55.859375 13.984375 53.4375 
Q 16.40625 51.03125 19.828125 51.03125 
Q 23.1875 51.03125 25.609375 53.4375 
Q 28.03125 55.859375 28.03125 59.28125 
Q 28.03125 62.703125 25.609375 65.109375 
Q 23.1875 67.53125 19.828125 67.53125 
Q 16.40625 67.53125 13.984375 65.109375 
Q 11.578125 62.703125 11.578125 59.28125 
z
" id="ArialMT-176"/>
      </defs>
      <g style="fill:#262626;" transform="translate(456.880313 202.565156)scale(0.1 -0.1)">
       <use xlink:href="#ArialMT-48"/>
       <use x="55.615234" xlink:href="#ArialMT-176"/>
      </g>
     </g>
    </g>
    <g id="xtick_2">
     <g id="line2d_2">
      <path clip-path="url(#p917d13823f)" d="M 295.2 199.98 
L 403.0055 92.1745 
" style="fill:none;stroke:#ffffff;stroke-linecap:round;"/>
     </g>
     <g id="text_2">
      <!-- 45° -->
      <defs>
       <path d="M 32.328125 0 
L 32.328125 17.140625 
L 1.265625 17.140625 
L 1.265625 25.203125 
L 33.9375 71.578125 
L 41.109375 71.578125 
L 41.109375 25.203125 
L 50.78125 25.203125 
L 50.78125 17.140625 
L 41.109375 17.140625 
L 41.109375 0 
z
M 32.328125 25.203125 
L 32.328125 57.46875 
L 9.90625 25.203125 
z
" id="ArialMT-52"/>
       <path d="M 4.15625 18.75 
L 13.375 19.53125 
Q 14.40625 12.796875 18.140625 9.390625 
Q 21.875 6 27.15625 6 
Q 33.5 6 37.890625 10.78125 
Q 42.28125 15.578125 42.28125 23.484375 
Q 42.28125 31 38.0625 35.34375 
Q 33.84375 39.703125 27 39.703125 
Q 22.75 39.703125 19.328125 37.765625 
Q 15.921875 35.84375 13.96875 32.765625 
L 5.71875 33.84375 
L 12.640625 70.609375 
L 48.25 70.609375 
L 48.25 62.203125 
L 19.671875 62.203125 
L 15.828125 42.96875 
Q 22.265625 47.46875 29.34375 47.46875 
Q 38.71875 47.46875 45.15625 40.96875 
Q 51.609375 34.46875 51.609375 24.265625 
Q 51.609375 14.546875 45.953125 7.46875 
Q 39.0625 -1.21875 27.15625 -1.21875 
Q 17.390625 -1.21875 11.203125 4.25 
Q 5.03125 9.71875 4.15625 18.75 
z
" id="ArialMT-53"/>
      </defs>
      <g style="fill:#262626;" transform="translate(405.344839 84.860161)scale(0.1 -0.1)">
       <use xlink:href="#ArialMT-52"/>
       <use x="55.615234" xlink:href="#ArialMT-53"/>
       <use x="111.230469" xlink:href="#ArialMT-176"/>
      </g>
     </g>
    </g>
    <g id="xtick_3">
     <g id="line2d_3">
      <path clip-path="url(#p917d13823f)" d="M 295.2 199.98 
L 295.2 47.52 
" style="fill:none;stroke:#ffffff;stroke-linecap:round;"/>
     </g>
     <g id="text_3">
      <!-- 90° -->
      <defs>
       <path d="M 5.46875 16.546875 
L 13.921875 17.328125 
Q 14.984375 11.375 18.015625 8.6875 
Q 21.046875 6 25.78125 6 
Q 29.828125 6 32.875 7.859375 
Q 35.9375 9.71875 37.890625 12.8125 
Q 39.84375 15.921875 41.15625 21.1875 
Q 42.484375 26.46875 42.484375 31.9375 
Q 42.484375 32.515625 42.4375 33.6875 
Q 39.796875 29.5 35.234375 26.875 
Q 30.671875 24.265625 25.34375 24.265625 
Q 16.453125 24.265625 10.296875 30.703125 
Q 4.15625 37.15625 4.15625 47.703125 
Q 4.15625 58.59375 10.578125 65.234375 
Q 17 71.875 26.65625 71.875 
Q 33.640625 71.875 39.421875 68.109375 
Q 45.21875 64.359375 48.21875 57.390625 
Q 51.21875 50.4375 51.21875 37.25 
Q 51.21875 23.53125 48.234375 15.40625 
Q 45.265625 7.28125 39.375 3.03125 
Q 33.5 -1.21875 25.59375 -1.21875 
Q 17.1875 -1.21875 11.859375 3.4375 
Q 6.546875 8.109375 5.46875 16.546875 
z
M 41.453125 48.140625 
Q 41.453125 55.71875 37.421875 60.15625 
Q 33.40625 64.59375 27.734375 64.59375 
Q 21.875 64.59375 17.53125 59.8125 
Q 13.1875 55.03125 13.1875 47.40625 
Q 13.1875 40.578125 17.3125 36.296875 
Q 21.4375 32.03125 27.484375 32.03125 
Q 33.59375 32.03125 37.515625 36.296875 
Q 41.453125 40.578125 41.453125 48.140625 
z
" id="ArialMT-57"/>
      </defs>
      <g style="fill:#262626;" transform="translate(287.639844 36.105156)scale(0.1 -0.1)">
       <use xlink:href="#ArialMT-57"/>
       <use x="55.615234" xlink:href="#ArialMT-48"/>
       <use x="111.230469" xlink:href="#ArialMT-176"/>
      </g>
     </g>
    </g>
    <g id="xtick_4">
     <g id="line2d_4">
      <path clip-path="url(#p917d13823f)" d="M 295.2 199.98 
L 187.3945 92.1745 
" style="fill:none;stroke:#ffffff;stroke-linecap:round;"/>
     </g>
     <g id="text_4">
      <!-- 135° -->
      <defs>
       <path d="M 37.25 0 
L 28.46875 0 
L 28.46875 56 
Q 25.296875 52.984375 20.140625 49.953125 
Q 14.984375 46.921875 10.890625 45.40625 
L 10.890625 53.90625 
Q 18.265625 57.375 23.78125 62.296875 
Q 29.296875 67.234375 31.59375 71.875 
L 37.25 71.875 
z
" id="ArialMT-49"/>
       <path d="M 4.203125 18.890625 
L 12.984375 20.0625 
Q 14.5 12.59375 18.140625 9.296875 
Q 21.78125 6 27 6 
Q 33.203125 6 37.46875 10.296875 
Q 41.75 14.59375 41.75 20.953125 
Q 41.75 27 37.796875 30.921875 
Q 33.84375 34.859375 27.734375 34.859375 
Q 25.25 34.859375 21.53125 33.890625 
L 22.515625 41.609375 
Q 23.390625 41.5 23.921875 41.5 
Q 29.546875 41.5 34.03125 44.421875 
Q 38.53125 47.359375 38.53125 53.46875 
Q 38.53125 58.296875 35.25 61.46875 
Q 31.984375 64.65625 26.8125 64.65625 
Q 21.6875 64.65625 18.265625 61.421875 
Q 14.84375 58.203125 13.875 51.765625 
L 5.078125 53.328125 
Q 6.6875 62.15625 12.390625 67.015625 
Q 18.109375 71.875 26.609375 71.875 
Q 32.46875 71.875 37.390625 69.359375 
Q 42.328125 66.84375 44.9375 62.5 
Q 47.5625 58.15625 47.5625 53.265625 
Q 47.5625 48.640625 45.0625 44.828125 
Q 42.578125 41.015625 37.703125 38.765625 
Q 44.046875 37.3125 47.5625 32.6875 
Q 51.078125 28.078125 51.078125 21.140625 
Q 51.078125 11.765625 44.234375 5.25 
Q 37.40625 -1.265625 26.953125 -1.265625 
Q 17.53125 -1.265625 11.296875 4.34375 
Q 5.078125 9.96875 4.203125 18.890625 
z
" id="ArialMT-51"/>
      </defs>
      <g style="fill:#262626;" transform="translate(167.15438 84.860161)scale(0.1 -0.1)">
       <use xlink:href="#ArialMT-49"/>
       <use x="55.615234" xlink:href="#ArialMT-51"/>
       <use x="111.230469" xlink:href="#ArialMT-53"/>
       <use x="166.845703" xlink:href="#ArialMT-176"/>
      </g>
     </g>
    </g>
    <g id="xtick_5">
     <g id="line2d_5">
      <path clip-path="url(#p917d13823f)" d="M 295.2 199.98 
L 142.74 199.98 
" style="fill:none;stroke:#ffffff;stroke-linecap:round;"/>
     </g>
     <g id="text_5">
      <!-- 180° -->
      <defs>
       <path d="M 17.671875 38.8125 
Q 12.203125 40.828125 9.5625 44.53125 
Q 6.9375 48.25 6.9375 53.421875 
Q 6.9375 61.234375 12.546875 66.546875 
Q 18.171875 71.875 27.484375 71.875 
Q 36.859375 71.875 42.578125 66.421875 
Q 48.296875 60.984375 48.296875 53.171875 
Q 48.296875 48.1875 45.671875 44.5 
Q 43.0625 40.828125 37.75 38.8125 
Q 44.34375 36.671875 47.78125 31.875 
Q 51.21875 27.09375 51.21875 20.453125 
Q 51.21875 11.28125 44.71875 5.03125 
Q 38.234375 -1.21875 27.640625 -1.21875 
Q 17.046875 -1.21875 10.546875 5.046875 
Q 4.046875 11.328125 4.046875 20.703125 
Q 4.046875 27.6875 7.59375 32.390625 
Q 11.140625 37.109375 17.671875 38.8125 
z
M 15.921875 53.71875 
Q 15.921875 48.640625 19.1875 45.40625 
Q 22.46875 42.1875 27.6875 42.1875 
Q 32.765625 42.1875 36.015625 45.375 
Q 39.265625 48.578125 39.265625 53.21875 
Q 39.265625 58.0625 35.90625 61.359375 
Q 32.5625 64.65625 27.59375 64.65625 
Q 22.5625 64.65625 19.234375 61.421875 
Q 15.921875 58.203125 15.921875 53.71875 
z
M 13.09375 20.65625 
Q 13.09375 16.890625 14.875 13.375 
Q 16.65625 9.859375 20.171875 7.921875 
Q 23.6875 6 27.734375 6 
Q 34.03125 6 38.125 10.046875 
Q 42.234375 14.109375 42.234375 20.359375 
Q 42.234375 26.703125 38.015625 30.859375 
Q 33.796875 35.015625 27.4375 35.015625 
Q 21.234375 35.015625 17.15625 30.90625 
Q 13.09375 26.8125 13.09375 20.65625 
z
" id="ArialMT-56"/>
      </defs>
      <g style="fill:#262626;" transform="translate(118.399375 202.565156)scale(0.1 -0.1)">
       <use xlink:href="#ArialMT-49"/>
       <use x="55.615234" xlink:href="#ArialMT-56"/>
       <use x="111.230469" xlink:href="#ArialMT-48"/>
       <use x="166.845703" xlink:href="#ArialMT-176"/>
      </g>
     </g>
    </g>
    <g id="xtick_6">
     <g id="line2d_6">
      <path clip-path="url(#p917d13823f)" d="M 295.2 199.98 
L 187.3945 307.7855 
" style="fill:none;stroke:#ffffff;stroke-linecap:round;"/>
     </g>
     <g id="text_6">
      <!-- 225° -->
      <defs>
       <path d="M 50.34375 8.453125 
L 50.34375 0 
L 3.03125 0 
Q 2.9375 3.171875 4.046875 6.109375 
Q 5.859375 10.9375 9.828125 15.625 
Q 13.8125 20.3125 21.34375 26.46875 
Q 33.015625 36.03125 37.109375 41.625 
Q 41.21875 47.21875 41.21875 52.203125 
Q 41.21875 57.421875 37.46875 61 
Q 33.734375 64.59375 27.734375 64.59375 
Q 21.390625 64.59375 17.578125 60.78125 
Q 13.765625 56.984375 13.71875 50.25 
L 4.6875 51.171875 
Q 5.609375 61.28125 11.65625 66.578125 
Q 17.71875 71.875 27.9375 71.875 
Q 38.234375 71.875 44.234375 66.15625 
Q 50.25 60.453125 50.25 52 
Q 50.25 47.703125 48.484375 43.546875 
Q 46.734375 39.40625 42.65625 34.8125 
Q 38.578125 30.21875 29.109375 22.21875 
Q 21.1875 15.578125 18.9375 13.203125 
Q 16.703125 10.84375 15.234375 8.453125 
z
" id="ArialMT-50"/>
      </defs>
      <g style="fill:#262626;" transform="translate(167.15438 320.270151)scale(0.1 -0.1)">
       <use xlink:href="#ArialMT-50"/>
       <use x="55.615234" xlink:href="#ArialMT-50"/>
       <use x="111.230469" xlink:href="#ArialMT-53"/>
       <use x="166.845703" xlink:href="#ArialMT-176"/>
      </g>
     </g>
    </g>
    <g id="xtick_7">
     <g id="line2d_7">
      <path clip-path="url(#p917d13823f)" d="M 295.2 199.98 
L 295.2 352.44 
" style="fill:none;stroke:#ffffff;stroke-linecap:round;"/>
     </g>
     <g id="text_7">
      <!-- 270° -->
      <defs>
       <path d="M 4.734375 62.203125 
L 4.734375 70.65625 
L 51.078125 70.65625 
L 51.078125 63.8125 
Q 44.234375 56.546875 37.515625 44.484375 
Q 30.8125 32.421875 27.15625 19.671875 
Q 24.515625 10.6875 23.78125 0 
L 14.75 0 
Q 14.890625 8.453125 18.0625 20.40625 
Q 21.234375 32.375 27.171875 43.484375 
Q 33.109375 54.59375 39.796875 62.203125 
z
" id="ArialMT-55"/>
      </defs>
      <g style="fill:#262626;" transform="translate(284.859375 369.025156)scale(0.1 -0.1)">
       <use xlink:href="#ArialMT-50"/>
       <use x="55.615234" xlink:href="#ArialMT-55"/>
       <use x="111.230469" xlink:href="#ArialMT-48"/>
       <use x="166.845703" xlink:href="#ArialMT-176"/>
      </g>
     </g>
    </g>
    <g id="xtick_8">
     <g id="line2d_8">
      <path clip-path="url(#p917d13823f)" d="M 295.2 199.98 
L 403.0055 307.7855 
" style="fill:none;stroke:#ffffff;stroke-linecap:round;"/>
     </g>
     <g id="text_8">
      <!-- 315° -->
      <g style="fill:#262626;" transform="translate(402.56437 320.270151)scale(0.1 -0.1)">
       <use xlink:href="#ArialMT-51"/>
       <use x="55.615234" xlink:href="#ArialMT-49"/>
       <use x="111.230469" xlink:href="#ArialMT-53"/>
       <use x="166.845703" xlink:href="#ArialMT-176"/>
      </g>
     </g>
    </g>
   </g>
   <g id="matplotlib.axis_2">
    <g id="ytick_1">
     <g id="line2d_9">
      <path clip-path="url(#p917d13823f)" d="M 328.9896 199.98 
L 328.90729 197.622957 
L 328.660762 195.277397 
L 328.251216 192.954747 
L 327.680648 190.666324 
L 326.951838 188.423276 
L 326.068336 186.236532 
L 325.034446 184.116744 
L 323.855206 182.07424 
L 322.536361 180.118971 
L 321.084335 178.260464 
L 319.506204 176.507772 
L 317.809655 174.869434 
L 316.002955 173.353432 
L 314.094904 171.967152 
L 312.0948 170.717348 
L 310.012386 169.610109 
L 307.857807 168.650828 
L 305.641561 167.844181 
L 303.374444 167.194096 
L 301.067502 166.70374 
L 298.731975 166.375503 
L 296.37924 166.210984 
L 294.02076 166.210984 
L 291.668025 166.375503 
L 289.332498 166.70374 
L 287.025556 167.194096 
L 284.758439 167.844181 
L 282.542193 168.650828 
L 280.387614 169.610109 
L 278.3052 170.717348 
L 276.305096 171.967152 
L 274.397045 173.353432 
L 272.590345 174.869434 
L 270.893796 176.507772 
L 269.315665 178.260464 
L 267.863639 180.118971 
L 266.544794 182.07424 
L 265.365554 184.116744 
L 264.331664 186.236532 
L 263.448162 188.423276 
L 262.719352 190.666324 
L 262.148784 192.954747 
L 261.739238 195.277397 
L 261.49271 197.622957 
L 261.4104 199.98 
L 261.49271 202.337043 
L 261.739238 204.682603 
L 262.148784 207.005253 
L 262.719352 209.293676 
L 263.448162 211.536724 
L 264.331664 213.723468 
L 265.365554 215.843256 
L 266.544794 217.88576 
L 267.863639 219.841029 
L 269.315665 221.699536 
L 270.893796 223.452228 
L 272.590345 225.090566 
L 274.397045 226.606568 
L 276.305096 227.992848 
L 278.3052 229.242652 
L 280.387614 230.349891 
L 282.542193 231.309172 
L 284.758439 232.115819 
L 287.025556 232.765904 
L 289.332498 233.25626 
L 291.668025 233.584497 
L 294.02076 233.749016 
L 296.37924 233.749016 
L 298.731975 233.584497 
L 301.067502 233.25626 
L 303.374444 232.765904 
L 305.641561 232.115819 
L 307.857807 231.309172 
L 310.012386 230.349891 
L 312.0948 229.242652 
L 314.094904 227.992848 
L 316.002955 226.606568 
L 317.809655 225.090566 
L 319.506204 223.452228 
L 321.084335 221.699536 
L 322.536361 219.841029 
L 323.855206 217.88576 
L 325.034446 215.843256 
L 326.068336 213.723468 
L 326.951838 211.536724 
L 327.680648 209.293676 
L 328.251216 207.005253 
L 328.660762 204.682603 
L 328.90729 202.337043 
L 328.9896 199.98 
L 328.9896 199.98 
" style="fill:none;stroke:#ffffff;stroke-linecap:round;"/>
     </g>
     <g id="text_9">
      <!-- 0.05 -->
      <defs>
       <path d="M 9.078125 0 
L 9.078125 10.015625 
L 19.09375 10.015625 
L 19.09375 0 
z
" id="ArialMT-46"/>
      </defs>
      <g style="fill:#262626;" transform="translate(326.41752 185.06178)scale(0.1 -0.1)">
       <use xlink:href="#ArialMT-48"/>
       <use x="55.615234" xlink:href="#ArialMT-46"/>
       <use x="83.398438" xlink:href="#ArialMT-48"/>
       <use x="139.013672" xlink:href="#ArialMT-53"/>
      </g>
     </g>
    </g>
    <g id="ytick_2">
     <g id="line2d_10">
      <path clip-path="url(#p917d13823f)" d="M 362.7792 199.98 
L 362.61458 195.265913 
L 362.121524 190.574793 
L 361.302432 185.929494 
L 360.161296 181.352648 
L 358.703675 176.866552 
L 356.936671 172.493063 
L 354.868892 168.253487 
L 352.510412 164.16848 
L 349.872721 160.257943 
L 346.968671 156.540928 
L 343.812408 153.035543 
L 340.419311 149.758867 
L 336.80591 146.726864 
L 332.989809 143.954304 
L 328.9896 141.454696 
L 324.824771 139.240218 
L 320.515614 137.321657 
L 316.083121 135.708362 
L 311.548888 134.408191 
L 306.935005 133.42748 
L 302.26395 132.771006 
L 297.55848 132.441968 
L 292.84152 132.441968 
L 288.13605 132.771006 
L 283.464995 133.42748 
L 278.851112 134.408191 
L 274.316879 135.708362 
L 269.884386 137.321657 
L 265.575229 139.240218 
L 261.4104 141.454696 
L 257.410191 143.954304 
L 253.59409 146.726864 
L 249.980689 149.758867 
L 246.587592 153.035543 
L 243.431329 156.540928 
L 240.527279 160.257943 
L 237.889588 164.16848 
L 235.531108 168.253487 
L 233.463329 172.493063 
L 231.696325 176.866552 
L 230.238704 181.352648 
L 229.097568 185.929494 
L 228.278476 190.574793 
L 227.78542 195.265913 
L 227.6208 199.98 
L 227.78542 204.694087 
L 228.278476 209.385207 
L 229.097568 214.030506 
L 230.238704 218.607352 
L 231.696325 223.093448 
L 233.463329 227.466937 
L 235.531108 231.706513 
L 237.889588 235.79152 
L 240.527279 239.702057 
L 243.431329 243.419072 
L 246.587592 246.924457 
L 249.980689 250.201133 
L 253.59409 253.233136 
L 257.410191 256.005696 
L 261.4104 258.505304 
L 265.575229 260.719782 
L 269.884386 262.638343 
L 274.316879 264.251638 
L 278.851112 265.551809 
L 283.464995 266.53252 
L 288.13605 267.188994 
L 292.84152 267.518032 
L 297.55848 267.518032 
L 302.26395 267.188994 
L 306.935005 266.53252 
L 311.548888 265.551809 
L 316.083121 264.251638 
L 320.515614 262.638343 
L 324.824771 260.719782 
L 328.9896 258.505304 
L 332.989809 256.005696 
L 336.80591 253.233136 
L 340.419311 250.201133 
L 343.812408 246.924457 
L 346.968671 243.419072 
L 349.872721 239.702057 
L 352.510412 235.79152 
L 354.868892 231.706513 
L 356.936671 227.466937 
L 358.703675 223.093448 
L 360.161296 218.607352 
L 361.302432 214.030506 
L 362.121524 209.385207 
L 362.61458 204.694087 
L 362.7792 199.98 
L 362.7792 199.98 
" style="fill:none;stroke:#ffffff;stroke-linecap:round;"/>
     </g>
     <g id="text_10">
      <!-- 0.10 -->
      <g style="fill:#262626;" transform="translate(357.63504 172.13106)scale(0.1 -0.1)">
       <use xlink:href="#ArialMT-48"/>
       <use x="55.615234" xlink:href="#ArialMT-46"/>
       <use x="83.398438" xlink:href="#ArialMT-49"/>
       <use x="139.013672" xlink:href="#ArialMT-48"/>
      </g>
     </g>
    </g>
    <g id="ytick_3">
     <g id="line2d_11">
      <path clip-path="url(#p917d13823f)" d="M 396.5688 199.98 
L 396.507049 196.44228 
L 396.32187 192.90887 
L 396.013491 189.384075 
L 395.582286 185.87219 
L 395.02878 182.377493 
L 394.353648 178.904241 
L 393.557713 175.456668 
L 392.641944 172.038972 
L 391.607458 168.655318 
L 390.455513 165.309829 
L 389.187515 162.006579 
L 387.805007 158.749595 
L 386.309674 155.542843 
L 384.703338 152.390231 
L 382.987956 149.2956 
L 381.165618 146.26272 
L 379.238544 143.295287 
L 377.209082 140.396914 
L 375.079704 137.571135 
L 372.853006 134.821391 
L 370.531699 132.151034 
L 368.118612 129.563315 
L 365.616685 127.061388 
L 363.028966 124.648301 
L 360.358609 122.326994 
L 357.608865 120.100296 
L 354.783086 117.970918 
L 351.884713 115.941456 
L 348.91728 114.014382 
L 345.8844 112.192044 
L 342.789769 110.476662 
L 339.637157 108.870326 
L 336.430405 107.374993 
L 333.173421 105.992485 
L 329.870171 104.724487 
L 326.524682 103.572542 
L 323.141028 102.538056 
L 319.723332 101.622287 
L 316.275759 100.826352 
L 312.802507 100.15122 
L 309.30781 99.597714 
L 305.795925 99.166509 
L 302.27113 98.85813 
L 298.73772 98.672951 
L 295.2 98.6112 
L 291.66228 98.672951 
L 288.12887 98.85813 
L 284.604075 99.166509 
L 281.09219 99.597714 
L 277.597493 100.15122 
L 274.124241 100.826352 
L 270.676668 101.622287 
L 267.258972 102.538056 
L 263.875318 103.572542 
L 260.529829 104.724487 
L 257.226579 105.992485 
L 253.969595 107.374993 
L 250.762843 108.870326 
L 247.610231 110.476662 
L 244.5156 112.192044 
L 241.48272 114.014382 
L 238.515287 115.941456 
L 235.616914 117.970918 
L 232.791135 120.100296 
L 230.041391 122.326994 
L 227.371034 124.648301 
L 224.783315 127.061388 
L 222.281388 129.563315 
L 219.868301 132.151034 
L 217.546994 134.821391 
L 215.320296 137.571135 
L 213.190918 140.396914 
L 211.161456 143.295287 
L 209.234382 146.26272 
L 207.412044 149.2956 
L 205.696662 152.390231 
L 204.090326 155.542843 
L 202.594993 158.749595 
L 201.212485 162.006579 
L 199.944487 165.309829 
L 198.792542 168.655318 
L 197.758056 172.038972 
L 196.842287 175.456668 
L 196.046352 178.904241 
L 195.37122 182.377493 
L 194.817714 185.87219 
L 194.386509 189.384075 
L 194.07813 192.90887 
L 193.892951 196.44228 
L 193.8312 199.98 
L 193.892951 203.51772 
L 194.07813 207.05113 
L 194.386509 210.575925 
L 194.817714 214.08781 
L 195.37122 217.582507 
L 196.046352 221.055759 
L 196.842287 224.503332 
L 197.758056 227.921028 
L 198.792542 231.304682 
L 199.944487 234.650171 
L 201.212485 237.953421 
L 202.594993 241.210405 
L 204.090326 244.417157 
L 205.696662 247.569769 
L 207.412044 250.6644 
L 209.234382 253.69728 
L 211.161456 256.664713 
L 213.190918 259.563086 
L 215.320296 262.388865 
L 217.546994 265.138609 
L 219.868301 267.808966 
L 222.281388 270.396685 
L 224.783315 272.898612 
L 227.371034 275.311699 
L 230.041391 277.633006 
L 232.791135 279.859704 
L 235.616914 281.989082 
L 238.515287 284.018544 
L 241.48272 285.945618 
L 244.5156 287.767956 
L 247.610231 289.483338 
L 250.762843 291.089674 
L 253.969595 292.585007 
L 257.226579 293.967515 
L 260.529829 295.235513 
L 263.875318 296.387458 
L 267.258972 297.421944 
L 270.676668 298.337713 
L 274.124241 299.133648 
L 277.597493 299.80878 
L 281.09219 300.362286 
L 284.604075 300.793491 
L 288.12887 301.10187 
L 291.66228 301.287049 
L 295.2 301.3488 
L 298.73772 301.287049 
L 302.27113 301.10187 
L 305.795925 300.793491 
L 309.30781 300.362286 
L 312.802507 299.80878 
L 316.275759 299.133648 
L 319.723332 298.337713 
L 323.141028 297.421944 
L 326.524682 296.387458 
L 329.870171 295.235513 
L 333.173421 293.967515 
L 336.430405 292.585007 
L 339.637157 291.089674 
L 342.789769 289.483338 
L 345.8844 287.767956 
L 348.91728 285.945618 
L 351.884713 284.018544 
L 354.783086 281.989082 
L 357.608865 279.859704 
L 360.358609 277.633006 
L 363.028966 275.311699 
L 365.616685 272.898612 
L 368.118612 270.396685 
L 370.531699 267.808966 
L 372.853006 265.138609 
L 375.079704 262.388865 
L 377.209082 259.563086 
L 379.238544 256.664713 
L 381.165618 253.69728 
L 382.987956 250.6644 
L 384.703338 247.569769 
L 386.309674 244.417157 
L 387.805007 241.210405 
L 389.187515 237.953421 
L 390.455513 234.650171 
L 391.607458 231.304682 
L 392.641944 227.921028 
L 393.557713 224.503332 
L 394.353648 221.055759 
L 395.02878 217.582507 
L 395.582286 214.08781 
L 396.013491 210.575925 
L 396.32187 207.05113 
L 396.507049 203.51772 
L 396.5688 199.98 
L 396.5688 199.98 
" style="fill:none;stroke:#ffffff;stroke-linecap:round;"/>
     </g>
     <g id="text_11">
      <!-- 0.15 -->
      <g style="fill:#262626;" transform="translate(388.852559 159.20034)scale(0.1 -0.1)">
       <use xlink:href="#ArialMT-48"/>
       <use x="55.615234" xlink:href="#ArialMT-46"/>
       <use x="83.398438" xlink:href="#ArialMT-49"/>
       <use x="139.013672" xlink:href="#ArialMT-53"/>
      </g>
     </g>
    </g>
    <g id="ytick_4">
     <g id="line2d_12">
      <path clip-path="url(#p917d13823f)" d="M 430.3584 199.98 
L 430.276065 195.26304 
L 430.029161 190.551827 
L 429.617988 185.8521 
L 429.043047 181.169586 
L 428.30504 176.50999 
L 427.404864 171.878989 
L 426.343618 167.282224 
L 425.122593 162.725296 
L 423.743277 158.213758 
L 422.207351 153.753105 
L 420.516686 149.348772 
L 418.673342 145.006126 
L 416.679565 140.730457 
L 414.537784 136.526975 
L 412.250608 132.4008 
L 409.820824 128.35696 
L 407.251392 124.400382 
L 404.545442 120.535886 
L 401.706272 116.76818 
L 398.737341 113.101855 
L 395.642265 109.541378 
L 392.424816 106.091086 
L 389.088914 102.755184 
L 385.638622 99.537735 
L 382.078145 96.442659 
L 378.41182 93.473728 
L 374.644114 90.634558 
L 370.779618 87.928608 
L 366.82304 85.359176 
L 362.7792 82.929392 
L 358.653025 80.642216 
L 354.449543 78.500435 
L 350.173874 76.506658 
L 345.831228 74.663314 
L 341.426895 72.972649 
L 336.966242 71.436723 
L 332.454704 70.057407 
L 327.897776 68.836382 
L 323.301011 67.775136 
L 318.67001 66.87496 
L 314.010414 66.136953 
L 309.3279 65.562012 
L 304.628173 65.150839 
L 299.91696 64.903935 
L 295.2 64.8216 
L 290.48304 64.903935 
L 285.771827 65.150839 
L 281.0721 65.562012 
L 276.389586 66.136953 
L 271.72999 66.87496 
L 267.098989 67.775136 
L 262.502224 68.836382 
L 257.945296 70.057407 
L 253.433758 71.436723 
L 248.973105 72.972649 
L 244.568772 74.663314 
L 240.226126 76.506658 
L 235.950457 78.500435 
L 231.746975 80.642216 
L 227.6208 82.929392 
L 223.57696 85.359176 
L 219.620382 87.928608 
L 215.755886 90.634558 
L 211.98818 93.473728 
L 208.321855 96.442659 
L 204.761378 99.537735 
L 201.311086 102.755184 
L 197.975184 106.091086 
L 194.757735 109.541378 
L 191.662659 113.101855 
L 188.693728 116.76818 
L 185.854558 120.535886 
L 183.148608 124.400382 
L 180.579176 128.35696 
L 178.149392 132.4008 
L 175.862216 136.526975 
L 173.720435 140.730457 
L 171.726658 145.006126 
L 169.883314 149.348772 
L 168.192649 153.753105 
L 166.656723 158.213758 
L 165.277407 162.725296 
L 164.056382 167.282224 
L 162.995136 171.878989 
L 162.09496 176.50999 
L 161.356953 181.169586 
L 160.782012 185.8521 
L 160.370839 190.551827 
L 160.123935 195.26304 
L 160.0416 199.98 
L 160.123935 204.69696 
L 160.370839 209.408173 
L 160.782012 214.1079 
L 161.356953 218.790414 
L 162.09496 223.45001 
L 162.995136 228.081011 
L 164.056382 232.677776 
L 165.277407 237.234704 
L 166.656723 241.746242 
L 168.192649 246.206895 
L 169.883314 250.611228 
L 171.726658 254.953874 
L 173.720435 259.229543 
L 175.862216 263.433025 
L 178.149392 267.5592 
L 180.579176 271.60304 
L 183.148608 275.559618 
L 185.854558 279.424114 
L 188.693728 283.19182 
L 191.662659 286.858145 
L 194.757735 290.418622 
L 197.975184 293.868914 
L 201.311086 297.204816 
L 204.761378 300.422265 
L 208.321855 303.517341 
L 211.98818 306.486272 
L 215.755886 309.325442 
L 219.620382 312.031392 
L 223.57696 314.600824 
L 227.6208 317.030608 
L 231.746975 319.317784 
L 235.950457 321.459565 
L 240.226126 323.453342 
L 244.568772 325.296686 
L 248.973105 326.987351 
L 253.433758 328.523277 
L 257.945296 329.902593 
L 262.502224 331.123618 
L 267.098989 332.184864 
L 271.72999 333.08504 
L 276.389586 333.823047 
L 281.0721 334.397988 
L 285.771827 334.809161 
L 290.48304 335.056065 
L 295.2 335.1384 
L 299.91696 335.056065 
L 304.628173 334.809161 
L 309.3279 334.397988 
L 314.010414 333.823047 
L 318.67001 333.08504 
L 323.301011 332.184864 
L 327.897776 331.123618 
L 332.454704 329.902593 
L 336.966242 328.523277 
L 341.426895 326.987351 
L 345.831228 325.296686 
L 350.173874 323.453342 
L 354.449543 321.459565 
L 358.653025 319.317784 
L 362.7792 317.030608 
L 366.82304 314.600824 
L 370.779618 312.031392 
L 374.644114 309.325442 
L 378.41182 306.486272 
L 382.078145 303.517341 
L 385.638622 300.422265 
L 389.088914 297.204816 
L 392.424816 293.868914 
L 395.642265 290.418622 
L 398.737341 286.858145 
L 401.706272 283.19182 
L 404.545442 279.424114 
L 407.251392 275.559618 
L 409.820824 271.60304 
L 412.250608 267.5592 
L 414.537784 263.433025 
L 416.679565 259.229543 
L 418.673342 254.953874 
L 420.516686 250.611228 
L 422.207351 246.206895 
L 423.743277 241.746242 
L 425.122593 237.234704 
L 426.343618 232.677776 
L 427.404864 228.081011 
L 428.30504 223.45001 
L 429.043047 218.790414 
L 429.617988 214.1079 
L 430.029161 209.408173 
L 430.276065 204.69696 
L 430.3584 199.98 
L 430.3584 199.98 
" style="fill:none;stroke:#ffffff;stroke-linecap:round;"/>
     </g>
     <g id="text_12">
      <!-- 0.20 -->
      <g style="fill:#262626;" transform="translate(420.070079 146.26962)scale(0.1 -0.1)">
       <use xlink:href="#ArialMT-48"/>
       <use x="55.615234" xlink:href="#ArialMT-46"/>
       <use x="83.398438" xlink:href="#ArialMT-50"/>
       <use x="139.013672" xlink:href="#ArialMT-48"/>
      </g>
     </g>
    </g>
   </g>
   <g id="PathCollection_1">
    <defs>
     <path d="M 0 3.5 
C 0.928211 3.5 1.81853 3.131218 2.474874 2.474874 
C 3.131218 1.81853 3.5 0.928211 3.5 0 
C 3.5 -0.928211 3.131218 -1.81853 2.474874 -2.474874 
C 1.81853 -3.131218 0.928211 -3.5 0 -3.5 
C -0.928211 -3.5 -1.81853 -3.131218 -2.474874 -2.474874 
C -3.131218 -1.81853 -3.5 -0.928211 -3.5 0 
C -3.5 0.928211 -3.131218 1.81853 -2.474874 2.474874 
C -1.81853 3.131218 -0.928211 3.5 0 3.5 
z
" id="m1100e851b0" style="stroke:#4c72b0;stroke-width:0.3;"/>
    </defs>
    <g clip-path="url(#p917d13823f)">
     <use style="fill:#4c72b0;stroke:#4c72b0;stroke-width:0.3;" x="330.470518" xlink:href="#m1100e851b0" y="205.801239"/>
     <use style="fill:#4c72b0;stroke:#4c72b0;stroke-width:0.3;" x="371.760897" xlink:href="#m1100e851b0" y="204.625355"/>
     <use style="fill:#4c72b0;stroke:#4c72b0;stroke-width:0.3;" x="284.126656" xlink:href="#m1100e851b0" y="211.697559"/>
     <use style="fill:#4c72b0;stroke:#4c72b0;stroke-width:0.3;" x="333.316803" xlink:href="#m1100e851b0" y="209.762231"/>
     <use style="fill:#4c72b0;stroke:#4c72b0;stroke-width:0.3;" x="370.330443" xlink:href="#m1100e851b0" y="201.58096"/>
     <use style="fill:#4c72b0;stroke:#4c72b0;stroke-width:0.3;" x="318.089551" xlink:href="#m1100e851b0" y="205.88905"/>
     <use style="fill:#4c72b0;stroke:#4c72b0;stroke-width:0.3;" x="294.562336" xlink:href="#m1100e851b0" y="209.877844"/>
     <use style="fill:#4c72b0;stroke:#4c72b0;stroke-width:0.3;" x="328.697204" xlink:href="#m1100e851b0" y="204.359191"/>
     <use style="fill:#4c72b0;stroke:#4c72b0;stroke-width:0.3;" x="321.590606" xlink:href="#m1100e851b0" y="202.984689"/>
     <use style="fill:#4c72b0;stroke:#4c72b0;stroke-width:0.3;" x="323.232182" xlink:href="#m1100e851b0" y="201.33988"/>
     <use style="fill:#4c72b0;stroke:#4c72b0;stroke-width:0.3;" x="320.178434" xlink:href="#m1100e851b0" y="202.748988"/>
     <use style="fill:#4c72b0;stroke:#4c72b0;stroke-width:0.3;" x="328.154431" xlink:href="#m1100e851b0" y="205.307046"/>
     <use style="fill:#4c72b0;stroke:#4c72b0;stroke-width:0.3;" x="307.235473" xlink:href="#m1100e851b0" y="206.349066"/>
     <use style="fill:#4c72b0;stroke:#4c72b0;stroke-width:0.3;" x="286.573167" xlink:href="#m1100e851b0" y="213.313811"/>
     <use style="fill:#4c72b0;stroke:#4c72b0;stroke-width:0.3;" x="379.064101" xlink:href="#m1100e851b0" y="206.69204"/>
     <use style="fill:#4c72b0;stroke:#4c72b0;stroke-width:0.3;" x="348.110367" xlink:href="#m1100e851b0" y="206.175492"/>
     <use style="fill:#4c72b0;stroke:#4c72b0;stroke-width:0.3;" x="310.307461" xlink:href="#m1100e851b0" y="209.407099"/>
     <use style="fill:#4c72b0;stroke:#4c72b0;stroke-width:0.3;" x="309.442399" xlink:href="#m1100e851b0" y="211.287734"/>
     <use style="fill:#4c72b0;stroke:#4c72b0;stroke-width:0.3;" x="286.743149" xlink:href="#m1100e851b0" y="212.999211"/>
     <use style="fill:#4c72b0;stroke:#4c72b0;stroke-width:0.3;" x="344.913278" xlink:href="#m1100e851b0" y="214.96072"/>
     <use style="fill:#4c72b0;stroke:#4c72b0;stroke-width:0.3;" x="385.004093" xlink:href="#m1100e851b0" y="211.284308"/>
     <use style="fill:#4c72b0;stroke:#4c72b0;stroke-width:0.3;" x="339.616732" xlink:href="#m1100e851b0" y="210.021517"/>
     <use style="fill:#4c72b0;stroke:#4c72b0;stroke-width:0.3;" x="307.665819" xlink:href="#m1100e851b0" y="209.125769"/>
     <use style="fill:#4c72b0;stroke:#4c72b0;stroke-width:0.3;" x="288.320773" xlink:href="#m1100e851b0" y="210.1231"/>
    </g>
   </g>
   <g id="PathCollection_2">
    <defs>
     <path d="M 0 3.5 
C 0.928211 3.5 1.81853 3.131218 2.474874 2.474874 
C 3.131218 1.81853 3.5 0.928211 3.5 0 
C 3.5 -0.928211 3.131218 -1.81853 2.474874 -2.474874 
C 1.81853 -3.131218 0.928211 -3.5 0 -3.5 
C -0.928211 -3.5 -1.81853 -3.131218 -2.474874 -2.474874 
C -3.131218 -1.81853 -3.5 -0.928211 -3.5 0 
C -3.5 0.928211 -3.131218 1.81853 -2.474874 2.474874 
C -1.81853 3.131218 -0.928211 3.5 0 3.5 
z
" id="m6e6cbcf737" style="stroke:#55a868;stroke-width:0.3;"/>
    </defs>
    <g clip-path="url(#p917d13823f)">
     <use style="fill:#55a868;stroke:#55a868;stroke-width:0.3;" x="344.072584" xlink:href="#m6e6cbcf737" y="205.94484"/>
     <use style="fill:#55a868;stroke:#55a868;stroke-width:0.3;" x="298.347116" xlink:href="#m6e6cbcf737" y="205.003523"/>
     <use style="fill:#55a868;stroke:#55a868;stroke-width:0.3;" x="325.676008" xlink:href="#m6e6cbcf737" y="209.087935"/>
     <use style="fill:#55a868;stroke:#55a868;stroke-width:0.3;" x="387.120759" xlink:href="#m6e6cbcf737" y="205.159842"/>
     <use style="fill:#55a868;stroke:#55a868;stroke-width:0.3;" x="350.848094" xlink:href="#m6e6cbcf737" y="206.679155"/>
     <use style="fill:#55a868;stroke:#55a868;stroke-width:0.3;" x="286.071924" xlink:href="#m6e6cbcf737" y="211.082295"/>
     <use style="fill:#55a868;stroke:#55a868;stroke-width:0.3;" x="279.247085" xlink:href="#m6e6cbcf737" y="208.704717"/>
     <use style="fill:#55a868;stroke:#55a868;stroke-width:0.3;" x="350.917461" xlink:href="#m6e6cbcf737" y="207.44454"/>
     <use style="fill:#55a868;stroke:#55a868;stroke-width:0.3;" x="318.017097" xlink:href="#m6e6cbcf737" y="211.81965"/>
     <use style="fill:#55a868;stroke:#55a868;stroke-width:0.3;" x="353.143188" xlink:href="#m6e6cbcf737" y="207.832431"/>
     <use style="fill:#55a868;stroke:#55a868;stroke-width:0.3;" x="361.994421" xlink:href="#m6e6cbcf737" y="205.642382"/>
     <use style="fill:#55a868;stroke:#55a868;stroke-width:0.3;" x="360.009225" xlink:href="#m6e6cbcf737" y="208.161401"/>
     <use style="fill:#55a868;stroke:#55a868;stroke-width:0.3;" x="360.141687" xlink:href="#m6e6cbcf737" y="209.896971"/>
     <use style="fill:#55a868;stroke:#55a868;stroke-width:0.3;" x="345.704138" xlink:href="#m6e6cbcf737" y="203.924421"/>
     <use style="fill:#55a868;stroke:#55a868;stroke-width:0.3;" x="353.830076" xlink:href="#m6e6cbcf737" y="198.144276"/>
     <use style="fill:#55a868;stroke:#55a868;stroke-width:0.3;" x="372.977187" xlink:href="#m6e6cbcf737" y="199.35656"/>
     <use style="fill:#55a868;stroke:#55a868;stroke-width:0.3;" x="391.180783" xlink:href="#m6e6cbcf737" y="197.821915"/>
     <use style="fill:#55a868;stroke:#55a868;stroke-width:0.3;" x="387.825583" xlink:href="#m6e6cbcf737" y="199.953658"/>
     <use style="fill:#55a868;stroke:#55a868;stroke-width:0.3;" x="400.561635" xlink:href="#m6e6cbcf737" y="196.663104"/>
     <use style="fill:#55a868;stroke:#55a868;stroke-width:0.3;" x="382.705151" xlink:href="#m6e6cbcf737" y="194.084656"/>
     <use style="fill:#55a868;stroke:#55a868;stroke-width:0.3;" x="403.007185" xlink:href="#m6e6cbcf737" y="192.642371"/>
     <use style="fill:#55a868;stroke:#55a868;stroke-width:0.3;" x="410.413274" xlink:href="#m6e6cbcf737" y="191.24238"/>
     <use style="fill:#55a868;stroke:#55a868;stroke-width:0.3;" x="440.042125" xlink:href="#m6e6cbcf737" y="189.791831"/>
     <use style="fill:#55a868;stroke:#55a868;stroke-width:0.3;" x="390.361477" xlink:href="#m6e6cbcf737" y="183.701728"/>
    </g>
   </g>
   <g id="PathCollection_3">
    <defs>
     <path d="M 0 3.5 
C 0.928211 3.5 1.81853 3.131218 2.474874 2.474874 
C 3.131218 1.81853 3.5 0.928211 3.5 0 
C 3.5 -0.928211 3.131218 -1.81853 2.474874 -2.474874 
C 1.81853 -3.131218 0.928211 -3.5 0 -3.5 
C -0.928211 -3.5 -1.81853 -3.131218 -2.474874 -2.474874 
C -3.131218 -1.81853 -3.5 -0.928211 -3.5 0 
C -3.5 0.928211 -3.131218 1.81853 -2.474874 2.474874 
C -1.81853 3.131218 -0.928211 3.5 0 3.5 
z
" id="m812c0dabe8" style="stroke:#c44e52;stroke-width:0.3;"/>
    </defs>
    <g clip-path="url(#p917d13823f)">
     <use style="fill:#c44e52;stroke:#c44e52;stroke-width:0.3;" x="430.206432" xlink:href="#m812c0dabe8" y="178.646541"/>
     <use style="fill:#c44e52;stroke:#c44e52;stroke-width:0.3;" x="378.241357" xlink:href="#m812c0dabe8" y="181.480053"/>
     <use style="fill:#c44e52;stroke:#c44e52;stroke-width:0.3;" x="405.428248" xlink:href="#m812c0dabe8" y="179.528108"/>
     <use style="fill:#c44e52;stroke:#c44e52;stroke-width:0.3;" x="409.337348" xlink:href="#m812c0dabe8" y="183.692621"/>
     <use style="fill:#c44e52;stroke:#c44e52;stroke-width:0.3;" x="364.890195" xlink:href="#m812c0dabe8" y="190.629082"/>
     <use style="fill:#c44e52;stroke:#c44e52;stroke-width:0.3;" x="371.832481" xlink:href="#m812c0dabe8" y="197.966869"/>
     <use style="fill:#c44e52;stroke:#c44e52;stroke-width:0.3;" x="345.499342" xlink:href="#m812c0dabe8" y="202.419433"/>
     <use style="fill:#c44e52;stroke:#c44e52;stroke-width:0.3;" x="311.837591" xlink:href="#m812c0dabe8" y="205.849106"/>
     <use style="fill:#c44e52;stroke:#c44e52;stroke-width:0.3;" x="341.636155" xlink:href="#m812c0dabe8" y="209.565301"/>
     <use style="fill:#c44e52;stroke:#c44e52;stroke-width:0.3;" x="283.252956" xlink:href="#m812c0dabe8" y="210.889295"/>
     <use style="fill:#c44e52;stroke:#c44e52;stroke-width:0.3;" x="331.238031" xlink:href="#m812c0dabe8" y="215.041004"/>
     <use style="fill:#c44e52;stroke:#c44e52;stroke-width:0.3;" x="346.409773" xlink:href="#m812c0dabe8" y="218.971912"/>
     <use style="fill:#c44e52;stroke:#c44e52;stroke-width:0.3;" x="336.470773" xlink:href="#m812c0dabe8" y="220.98248"/>
     <use style="fill:#c44e52;stroke:#c44e52;stroke-width:0.3;" x="353.375633" xlink:href="#m812c0dabe8" y="221.874643"/>
     <use style="fill:#c44e52;stroke:#c44e52;stroke-width:0.3;" x="360.147621" xlink:href="#m812c0dabe8" y="218.807962"/>
     <use style="fill:#c44e52;stroke:#c44e52;stroke-width:0.3;" x="347.03466" xlink:href="#m812c0dabe8" y="216.962191"/>
     <use style="fill:#c44e52;stroke:#c44e52;stroke-width:0.3;" x="350.728805" xlink:href="#m812c0dabe8" y="221.282644"/>
     <use style="fill:#c44e52;stroke:#c44e52;stroke-width:0.3;" x="402.059855" xlink:href="#m812c0dabe8" y="221.018777"/>
     <use style="fill:#c44e52;stroke:#c44e52;stroke-width:0.3;" x="402.696931" xlink:href="#m812c0dabe8" y="220.612067"/>
     <use style="fill:#c44e52;stroke:#c44e52;stroke-width:0.3;" x="406.11517" xlink:href="#m812c0dabe8" y="219.250746"/>
     <use style="fill:#c44e52;stroke:#c44e52;stroke-width:0.3;" x="386.434468" xlink:href="#m812c0dabe8" y="219.786439"/>
     <use style="fill:#c44e52;stroke:#c44e52;stroke-width:0.3;" x="389.368085" xlink:href="#m812c0dabe8" y="218.170452"/>
     <use style="fill:#c44e52;stroke:#c44e52;stroke-width:0.3;" x="411.409691" xlink:href="#m812c0dabe8" y="216.169427"/>
     <use style="fill:#c44e52;stroke:#c44e52;stroke-width:0.3;" x="416.510972" xlink:href="#m812c0dabe8" y="210.585497"/>
    </g>
   </g>
   <g id="line2d_13">
    <path clip-path="url(#p917d13823f)" d="M 295.2 199.98 
L 440.073717 209.708624 
" style="fill:none;stroke:#ff0000;stroke-dasharray:7.4,3.2;stroke-dashoffset:0;stroke-width:2;"/>
   </g>
   <g id="patch_3">
    <path d="M 447.66 199.98 
C 447.66 179.959136 443.716326 160.13295 436.054674 141.636084 
C 428.393021 123.139218 417.162388 106.331389 403.0055 92.1745 
C 388.848611 78.017612 372.040782 66.786979 353.543916 59.125326 
C 335.04705 51.463674 315.220864 47.52 295.2 47.52 
C 275.179136 47.52 255.35295 51.463674 236.856084 59.125326 
C 218.359218 66.786979 201.551389 78.017612 187.3945 92.1745 
C 173.237612 106.331389 162.006979 123.139218 154.345326 141.636084 
C 146.683674 160.13295 142.74 179.959136 142.74 199.98 
C 142.74 220.000864 146.683674 239.82705 154.345326 258.323916 
C 162.006979 276.820782 173.237612 293.628611 187.3945 307.7855 
C 201.551389 321.942388 218.359218 333.173021 236.856084 340.834674 
C 255.35295 348.496326 275.179136 352.44 295.2 352.44 
C 315.220864 352.44 335.04705 348.496326 353.543916 340.834674 
C 372.040782 333.173021 388.848611 321.942388 403.0055 307.7855 
C 417.162388 293.628611 428.393021 276.820782 436.054674 258.323916 
C 443.716326 239.82705 447.66 220.000864 447.66 199.98 
" style="fill:none;"/>
   </g>
   <g id="text_13">
    <!-- Distribution of projected eye movement velocity on the screen - NewVglut3_3_32 -->
    <defs>
     <path d="M 7.71875 0 
L 7.71875 71.578125 
L 32.375 71.578125 
Q 40.71875 71.578125 45.125 70.5625 
Q 51.265625 69.140625 55.609375 65.4375 
Q 61.28125 60.640625 64.078125 53.1875 
Q 66.890625 45.75 66.890625 36.1875 
Q 66.890625 28.03125 64.984375 21.734375 
Q 63.09375 15.4375 60.109375 11.296875 
Q 57.125 7.171875 53.578125 4.796875 
Q 50.046875 2.4375 45.046875 1.21875 
Q 40.046875 0 33.546875 0 
z
M 17.1875 8.453125 
L 32.46875 8.453125 
Q 39.546875 8.453125 43.578125 9.765625 
Q 47.609375 11.078125 50 13.484375 
Q 53.375 16.84375 55.25 22.53125 
Q 57.125 28.21875 57.125 36.328125 
Q 57.125 47.5625 53.4375 53.59375 
Q 49.75 59.625 44.484375 61.671875 
Q 40.671875 63.140625 32.234375 63.140625 
L 17.1875 63.140625 
z
" id="ArialMT-68"/>
     <path d="M 6.640625 61.46875 
L 6.640625 71.578125 
L 15.4375 71.578125 
L 15.4375 61.46875 
z
M 6.640625 0 
L 6.640625 51.859375 
L 15.4375 51.859375 
L 15.4375 0 
z
" id="ArialMT-105"/>
     <path d="M 3.078125 15.484375 
L 11.765625 16.84375 
Q 12.5 11.625 15.84375 8.84375 
Q 19.1875 6.0625 25.203125 6.0625 
Q 31.25 6.0625 34.171875 8.515625 
Q 37.109375 10.984375 37.109375 14.3125 
Q 37.109375 17.28125 34.515625 19 
Q 32.71875 20.171875 25.53125 21.96875 
Q 15.875 24.421875 12.140625 26.203125 
Q 8.40625 27.984375 6.46875 31.125 
Q 4.546875 34.28125 4.546875 38.09375 
Q 4.546875 41.546875 6.125 44.5 
Q 7.71875 47.46875 10.453125 49.421875 
Q 12.5 50.921875 16.03125 51.96875 
Q 19.578125 53.03125 23.640625 53.03125 
Q 29.734375 53.03125 34.34375 51.265625 
Q 38.96875 49.515625 41.15625 46.5 
Q 43.359375 43.5 44.1875 38.484375 
L 35.59375 37.3125 
Q 35.015625 41.3125 32.203125 43.546875 
Q 29.390625 45.796875 24.265625 45.796875 
Q 18.21875 45.796875 15.625 43.796875 
Q 13.03125 41.796875 13.03125 39.109375 
Q 13.03125 37.40625 14.109375 36.03125 
Q 15.1875 34.625 17.484375 33.6875 
Q 18.796875 33.203125 25.25 31.453125 
Q 34.578125 28.953125 38.25 27.359375 
Q 41.9375 25.78125 44.03125 22.75 
Q 46.140625 19.734375 46.140625 15.234375 
Q 46.140625 10.84375 43.578125 6.953125 
Q 41.015625 3.078125 36.171875 0.953125 
Q 31.34375 -1.171875 25.25 -1.171875 
Q 15.140625 -1.171875 9.84375 3.03125 
Q 4.546875 7.234375 3.078125 15.484375 
z
" id="ArialMT-115"/>
     <path d="M 25.78125 7.859375 
L 27.046875 0.09375 
Q 23.34375 -0.6875 20.40625 -0.6875 
Q 15.625 -0.6875 12.984375 0.828125 
Q 10.359375 2.34375 9.28125 4.8125 
Q 8.203125 7.28125 8.203125 15.1875 
L 8.203125 45.015625 
L 1.765625 45.015625 
L 1.765625 51.859375 
L 8.203125 51.859375 
L 8.203125 64.703125 
L 16.9375 69.96875 
L 16.9375 51.859375 
L 25.78125 51.859375 
L 25.78125 45.015625 
L 16.9375 45.015625 
L 16.9375 14.703125 
Q 16.9375 10.9375 17.40625 9.859375 
Q 17.875 8.796875 18.921875 8.15625 
Q 19.96875 7.515625 21.921875 7.515625 
Q 23.390625 7.515625 25.78125 7.859375 
z
" id="ArialMT-116"/>
     <path d="M 6.5 0 
L 6.5 51.859375 
L 14.40625 51.859375 
L 14.40625 44 
Q 17.4375 49.515625 20 51.265625 
Q 22.5625 53.03125 25.640625 53.03125 
Q 30.078125 53.03125 34.671875 50.203125 
L 31.640625 42.046875 
Q 28.421875 43.953125 25.203125 43.953125 
Q 22.3125 43.953125 20.015625 42.21875 
Q 17.71875 40.484375 16.75 37.40625 
Q 15.28125 32.71875 15.28125 27.15625 
L 15.28125 0 
z
" id="ArialMT-114"/>
     <path d="M 14.703125 0 
L 6.546875 0 
L 6.546875 71.578125 
L 15.328125 71.578125 
L 15.328125 46.046875 
Q 20.90625 53.03125 29.546875 53.03125 
Q 34.328125 53.03125 38.59375 51.09375 
Q 42.875 49.171875 45.625 45.671875 
Q 48.390625 42.1875 49.953125 37.25 
Q 51.515625 32.328125 51.515625 26.703125 
Q 51.515625 13.375 44.921875 6.09375 
Q 38.328125 -1.171875 29.109375 -1.171875 
Q 19.921875 -1.171875 14.703125 6.5 
z
M 14.59375 26.3125 
Q 14.59375 17 17.140625 12.84375 
Q 21.296875 6.0625 28.375 6.0625 
Q 34.125 6.0625 38.328125 11.0625 
Q 42.53125 16.0625 42.53125 25.984375 
Q 42.53125 36.140625 38.5 40.96875 
Q 34.46875 45.796875 28.765625 45.796875 
Q 23 45.796875 18.796875 40.796875 
Q 14.59375 35.796875 14.59375 26.3125 
z
" id="ArialMT-98"/>
     <path d="M 40.578125 0 
L 40.578125 7.625 
Q 34.515625 -1.171875 24.125 -1.171875 
Q 19.53125 -1.171875 15.546875 0.578125 
Q 11.578125 2.34375 9.640625 5 
Q 7.71875 7.671875 6.9375 11.53125 
Q 6.390625 14.109375 6.390625 19.734375 
L 6.390625 51.859375 
L 15.1875 51.859375 
L 15.1875 23.09375 
Q 15.1875 16.21875 15.71875 13.8125 
Q 16.546875 10.359375 19.234375 8.375 
Q 21.921875 6.390625 25.875 6.390625 
Q 29.828125 6.390625 33.296875 8.421875 
Q 36.765625 10.453125 38.203125 13.9375 
Q 39.65625 17.4375 39.65625 24.078125 
L 39.65625 51.859375 
L 48.4375 51.859375 
L 48.4375 0 
z
" id="ArialMT-117"/>
     <path d="M 3.328125 25.921875 
Q 3.328125 40.328125 11.328125 47.265625 
Q 18.015625 53.03125 27.640625 53.03125 
Q 38.328125 53.03125 45.109375 46.015625 
Q 51.90625 39.015625 51.90625 26.65625 
Q 51.90625 16.65625 48.90625 10.90625 
Q 45.90625 5.171875 40.15625 2 
Q 34.421875 -1.171875 27.640625 -1.171875 
Q 16.75 -1.171875 10.03125 5.8125 
Q 3.328125 12.796875 3.328125 25.921875 
z
M 12.359375 25.921875 
Q 12.359375 15.96875 16.703125 11.015625 
Q 21.046875 6.0625 27.640625 6.0625 
Q 34.1875 6.0625 38.53125 11.03125 
Q 42.875 16.015625 42.875 26.21875 
Q 42.875 35.84375 38.5 40.796875 
Q 34.125 45.75 27.640625 45.75 
Q 21.046875 45.75 16.703125 40.8125 
Q 12.359375 35.890625 12.359375 25.921875 
z
" id="ArialMT-111"/>
     <path d="M 6.59375 0 
L 6.59375 51.859375 
L 14.5 51.859375 
L 14.5 44.484375 
Q 20.21875 53.03125 31 53.03125 
Q 35.6875 53.03125 39.625 51.34375 
Q 43.5625 49.65625 45.515625 46.921875 
Q 47.46875 44.1875 48.25 40.4375 
Q 48.734375 37.984375 48.734375 31.890625 
L 48.734375 0 
L 39.9375 0 
L 39.9375 31.546875 
Q 39.9375 36.921875 38.90625 39.578125 
Q 37.890625 42.234375 35.28125 43.8125 
Q 32.671875 45.40625 29.15625 45.40625 
Q 23.53125 45.40625 19.453125 41.84375 
Q 15.375 38.28125 15.375 28.328125 
L 15.375 0 
z
" id="ArialMT-110"/>
     <path id="ArialMT-32"/>
     <path d="M 8.6875 0 
L 8.6875 45.015625 
L 0.921875 45.015625 
L 0.921875 51.859375 
L 8.6875 51.859375 
L 8.6875 57.375 
Q 8.6875 62.59375 9.625 65.140625 
Q 10.890625 68.5625 14.078125 70.671875 
Q 17.28125 72.796875 23.046875 72.796875 
Q 26.765625 72.796875 31.25 71.921875 
L 29.9375 64.265625 
Q 27.203125 64.75 24.75 64.75 
Q 20.75 64.75 19.09375 63.03125 
Q 17.4375 61.328125 17.4375 56.640625 
L 17.4375 51.859375 
L 27.546875 51.859375 
L 27.546875 45.015625 
L 17.4375 45.015625 
L 17.4375 0 
z
" id="ArialMT-102"/>
     <path d="M 6.59375 -19.875 
L 6.59375 51.859375 
L 14.59375 51.859375 
L 14.59375 45.125 
Q 17.4375 49.078125 21 51.046875 
Q 24.5625 53.03125 29.640625 53.03125 
Q 36.28125 53.03125 41.359375 49.609375 
Q 46.4375 46.1875 49.015625 39.953125 
Q 51.609375 33.734375 51.609375 26.3125 
Q 51.609375 18.359375 48.75 11.984375 
Q 45.90625 5.609375 40.453125 2.21875 
Q 35.015625 -1.171875 29 -1.171875 
Q 24.609375 -1.171875 21.109375 0.6875 
Q 17.625 2.546875 15.375 5.375 
L 15.375 -19.875 
z
M 14.546875 25.640625 
Q 14.546875 15.625 18.59375 10.84375 
Q 22.65625 6.0625 28.421875 6.0625 
Q 34.28125 6.0625 38.453125 11.015625 
Q 42.625 15.96875 42.625 26.375 
Q 42.625 36.28125 38.546875 41.203125 
Q 34.46875 46.140625 28.8125 46.140625 
Q 23.1875 46.140625 18.859375 40.890625 
Q 14.546875 35.640625 14.546875 25.640625 
z
" id="ArialMT-112"/>
     <path d="M 6.546875 61.375 
L 6.546875 71.578125 
L 15.328125 71.578125 
L 15.328125 61.375 
z
M -4.59375 -20.125 
L -2.9375 -12.640625 
Q -0.296875 -13.328125 1.21875 -13.328125 
Q 3.90625 -13.328125 5.21875 -11.546875 
Q 6.546875 -9.765625 6.546875 -2.640625 
L 6.546875 51.859375 
L 15.328125 51.859375 
L 15.328125 -2.828125 
Q 15.328125 -12.40625 12.84375 -16.15625 
Q 9.671875 -21.046875 2.296875 -21.046875 
Q -1.265625 -21.046875 -4.59375 -20.125 
z
" id="ArialMT-106"/>
     <path d="M 42.09375 16.703125 
L 51.171875 15.578125 
Q 49.03125 7.625 43.21875 3.21875 
Q 37.40625 -1.171875 28.375 -1.171875 
Q 17 -1.171875 10.328125 5.828125 
Q 3.65625 12.84375 3.65625 25.484375 
Q 3.65625 38.578125 10.390625 45.796875 
Q 17.140625 53.03125 27.875 53.03125 
Q 38.28125 53.03125 44.875 45.953125 
Q 51.46875 38.875 51.46875 26.03125 
Q 51.46875 25.25 51.421875 23.6875 
L 12.75 23.6875 
Q 13.234375 15.140625 17.578125 10.59375 
Q 21.921875 6.0625 28.421875 6.0625 
Q 33.25 6.0625 36.671875 8.59375 
Q 40.09375 11.140625 42.09375 16.703125 
z
M 13.234375 30.90625 
L 42.1875 30.90625 
Q 41.609375 37.453125 38.875 40.71875 
Q 34.671875 45.796875 27.984375 45.796875 
Q 21.921875 45.796875 17.796875 41.75 
Q 13.671875 37.703125 13.234375 30.90625 
z
" id="ArialMT-101"/>
     <path d="M 40.4375 19 
L 49.078125 17.875 
Q 47.65625 8.9375 41.8125 3.875 
Q 35.984375 -1.171875 27.484375 -1.171875 
Q 16.84375 -1.171875 10.375 5.78125 
Q 3.90625 12.75 3.90625 25.734375 
Q 3.90625 34.125 6.6875 40.421875 
Q 9.46875 46.734375 15.15625 49.875 
Q 20.84375 53.03125 27.546875 53.03125 
Q 35.984375 53.03125 41.359375 48.75 
Q 46.734375 44.484375 48.25 36.625 
L 39.703125 35.296875 
Q 38.484375 40.53125 35.375 43.15625 
Q 32.28125 45.796875 27.875 45.796875 
Q 21.234375 45.796875 17.078125 41.03125 
Q 12.9375 36.28125 12.9375 25.984375 
Q 12.9375 15.53125 16.9375 10.796875 
Q 20.953125 6.0625 27.390625 6.0625 
Q 32.5625 6.0625 36.03125 9.234375 
Q 39.5 12.40625 40.4375 19 
z
" id="ArialMT-99"/>
     <path d="M 40.234375 0 
L 40.234375 6.546875 
Q 35.296875 -1.171875 25.734375 -1.171875 
Q 19.53125 -1.171875 14.328125 2.25 
Q 9.125 5.671875 6.265625 11.796875 
Q 3.421875 17.921875 3.421875 25.875 
Q 3.421875 33.640625 6 39.96875 
Q 8.59375 46.296875 13.765625 49.65625 
Q 18.953125 53.03125 25.34375 53.03125 
Q 30.03125 53.03125 33.6875 51.046875 
Q 37.359375 49.078125 39.65625 45.90625 
L 39.65625 71.578125 
L 48.390625 71.578125 
L 48.390625 0 
z
M 12.453125 25.875 
Q 12.453125 15.921875 16.640625 10.984375 
Q 20.84375 6.0625 26.5625 6.0625 
Q 32.328125 6.0625 36.34375 10.765625 
Q 40.375 15.484375 40.375 25.140625 
Q 40.375 35.796875 36.265625 40.765625 
Q 32.171875 45.75 26.171875 45.75 
Q 20.3125 45.75 16.375 40.96875 
Q 12.453125 36.1875 12.453125 25.875 
z
" id="ArialMT-100"/>
     <path d="M 6.203125 -19.96875 
L 5.21875 -11.71875 
Q 8.109375 -12.5 10.25 -12.5 
Q 13.1875 -12.5 14.9375 -11.515625 
Q 16.703125 -10.546875 17.828125 -8.796875 
Q 18.65625 -7.46875 20.515625 -2.25 
Q 20.75 -1.515625 21.296875 -0.09375 
L 1.609375 51.859375 
L 11.078125 51.859375 
L 21.875 21.828125 
Q 23.96875 16.109375 25.640625 9.8125 
Q 27.15625 15.875 29.25 21.625 
L 40.328125 51.859375 
L 49.125 51.859375 
L 29.390625 -0.875 
Q 26.21875 -9.421875 24.46875 -12.640625 
Q 22.125 -17 19.09375 -19.015625 
Q 16.0625 -21.046875 11.859375 -21.046875 
Q 9.328125 -21.046875 6.203125 -19.96875 
z
" id="ArialMT-121"/>
     <path d="M 6.59375 0 
L 6.59375 51.859375 
L 14.453125 51.859375 
L 14.453125 44.578125 
Q 16.890625 48.390625 20.9375 50.703125 
Q 25 53.03125 30.171875 53.03125 
Q 35.9375 53.03125 39.625 50.640625 
Q 43.3125 48.25 44.828125 43.953125 
Q 50.984375 53.03125 60.84375 53.03125 
Q 68.5625 53.03125 72.703125 48.75 
Q 76.859375 44.484375 76.859375 35.59375 
L 76.859375 0 
L 68.109375 0 
L 68.109375 32.671875 
Q 68.109375 37.9375 67.25 40.25 
Q 66.40625 42.578125 64.15625 43.984375 
Q 61.921875 45.40625 58.890625 45.40625 
Q 53.421875 45.40625 49.796875 41.765625 
Q 46.1875 38.140625 46.1875 30.125 
L 46.1875 0 
L 37.40625 0 
L 37.40625 33.6875 
Q 37.40625 39.546875 35.25 42.46875 
Q 33.109375 45.40625 28.21875 45.40625 
Q 24.515625 45.40625 21.359375 43.453125 
Q 18.21875 41.5 16.796875 37.734375 
Q 15.375 33.984375 15.375 26.90625 
L 15.375 0 
z
" id="ArialMT-109"/>
     <path d="M 21 0 
L 1.265625 51.859375 
L 10.546875 51.859375 
L 21.6875 20.796875 
Q 23.484375 15.765625 25 10.359375 
Q 26.171875 14.453125 28.265625 20.21875 
L 39.796875 51.859375 
L 48.828125 51.859375 
L 29.203125 0 
z
" id="ArialMT-118"/>
     <path d="M 6.390625 0 
L 6.390625 71.578125 
L 15.1875 71.578125 
L 15.1875 0 
z
" id="ArialMT-108"/>
     <path d="M 6.59375 0 
L 6.59375 71.578125 
L 15.375 71.578125 
L 15.375 45.90625 
Q 21.53125 53.03125 30.90625 53.03125 
Q 36.671875 53.03125 40.921875 50.75 
Q 45.171875 48.484375 47 44.484375 
Q 48.828125 40.484375 48.828125 32.859375 
L 48.828125 0 
L 40.046875 0 
L 40.046875 32.859375 
Q 40.046875 39.453125 37.1875 42.453125 
Q 34.328125 45.453125 29.109375 45.453125 
Q 25.203125 45.453125 21.75 43.421875 
Q 18.3125 41.40625 16.84375 37.9375 
Q 15.375 34.46875 15.375 28.375 
L 15.375 0 
z
" id="ArialMT-104"/>
     <path d="M 3.171875 21.484375 
L 3.171875 30.328125 
L 30.171875 30.328125 
L 30.171875 21.484375 
z
" id="ArialMT-45"/>
     <path d="M 7.625 0 
L 7.625 71.578125 
L 17.328125 71.578125 
L 54.9375 15.375 
L 54.9375 71.578125 
L 64.015625 71.578125 
L 64.015625 0 
L 54.296875 0 
L 16.703125 56.25 
L 16.703125 0 
z
" id="ArialMT-78"/>
     <path d="M 16.15625 0 
L 0.296875 51.859375 
L 9.375 51.859375 
L 17.625 21.921875 
L 20.703125 10.796875 
Q 20.90625 11.625 23.390625 21.484375 
L 31.640625 51.859375 
L 40.671875 51.859375 
L 48.4375 21.78125 
L 51.03125 11.859375 
L 54 21.875 
L 62.890625 51.859375 
L 71.4375 51.859375 
L 55.21875 0 
L 46.09375 0 
L 37.84375 31.0625 
L 35.84375 39.890625 
L 25.34375 0 
z
" id="ArialMT-119"/>
     <path d="M 28.171875 0 
L 0.4375 71.578125 
L 10.6875 71.578125 
L 29.296875 19.578125 
Q 31.546875 13.328125 33.0625 7.859375 
Q 34.71875 13.71875 36.921875 19.578125 
L 56.25 71.578125 
L 65.921875 71.578125 
L 37.890625 0 
z
" id="ArialMT-86"/>
     <path d="M 4.984375 -4.296875 
L 13.53125 -5.5625 
Q 14.0625 -9.515625 16.5 -11.328125 
Q 19.78125 -13.765625 25.4375 -13.765625 
Q 31.546875 -13.765625 34.859375 -11.328125 
Q 38.1875 -8.890625 39.359375 -4.5 
Q 40.046875 -1.8125 39.984375 6.78125 
Q 34.234375 0 25.640625 0 
Q 14.9375 0 9.078125 7.71875 
Q 3.21875 15.4375 3.21875 26.21875 
Q 3.21875 33.640625 5.90625 39.90625 
Q 8.59375 46.1875 13.6875 49.609375 
Q 18.796875 53.03125 25.6875 53.03125 
Q 34.859375 53.03125 40.828125 45.609375 
L 40.828125 51.859375 
L 48.921875 51.859375 
L 48.921875 7.03125 
Q 48.921875 -5.078125 46.453125 -10.125 
Q 44 -15.1875 38.640625 -18.109375 
Q 33.296875 -21.046875 25.484375 -21.046875 
Q 16.21875 -21.046875 10.5 -16.875 
Q 4.78125 -12.703125 4.984375 -4.296875 
z
M 12.25 26.859375 
Q 12.25 16.65625 16.296875 11.96875 
Q 20.359375 7.28125 26.46875 7.28125 
Q 32.515625 7.28125 36.609375 11.9375 
Q 40.71875 16.609375 40.71875 26.5625 
Q 40.71875 36.078125 36.5 40.90625 
Q 32.28125 45.75 26.3125 45.75 
Q 20.453125 45.75 16.34375 40.984375 
Q 12.25 36.234375 12.25 26.859375 
z
" id="ArialMT-103"/>
     <path d="M -1.515625 -19.875 
L -1.515625 -13.53125 
L 56.734375 -13.53125 
L 56.734375 -19.875 
z
" id="ArialMT-95"/>
    </defs>
    <g style="fill:#262626;" transform="translate(80.432813 23.748375)scale(0.12 -0.12)">
     <use xlink:href="#ArialMT-68"/>
     <use x="72.216797" xlink:href="#ArialMT-105"/>
     <use x="94.433594" xlink:href="#ArialMT-115"/>
     <use x="144.433594" xlink:href="#ArialMT-116"/>
     <use x="172.216797" xlink:href="#ArialMT-114"/>
     <use x="205.517578" xlink:href="#ArialMT-105"/>
     <use x="227.734375" xlink:href="#ArialMT-98"/>
     <use x="283.349609" xlink:href="#ArialMT-117"/>
     <use x="338.964844" xlink:href="#ArialMT-116"/>
     <use x="366.748047" xlink:href="#ArialMT-105"/>
     <use x="388.964844" xlink:href="#ArialMT-111"/>
     <use x="444.580078" xlink:href="#ArialMT-110"/>
     <use x="500.195312" xlink:href="#ArialMT-32"/>
     <use x="527.978516" xlink:href="#ArialMT-111"/>
     <use x="583.59375" xlink:href="#ArialMT-102"/>
     <use x="611.376953" xlink:href="#ArialMT-32"/>
     <use x="639.160156" xlink:href="#ArialMT-112"/>
     <use x="694.775391" xlink:href="#ArialMT-114"/>
     <use x="728.076172" xlink:href="#ArialMT-111"/>
     <use x="783.691406" xlink:href="#ArialMT-106"/>
     <use x="805.908203" xlink:href="#ArialMT-101"/>
     <use x="861.523438" xlink:href="#ArialMT-99"/>
     <use x="911.523438" xlink:href="#ArialMT-116"/>
     <use x="939.306641" xlink:href="#ArialMT-101"/>
     <use x="994.921875" xlink:href="#ArialMT-100"/>
     <use x="1050.537109" xlink:href="#ArialMT-32"/>
     <use x="1078.320312" xlink:href="#ArialMT-101"/>
     <use x="1133.935547" xlink:href="#ArialMT-121"/>
     <use x="1183.935547" xlink:href="#ArialMT-101"/>
     <use x="1239.550781" xlink:href="#ArialMT-32"/>
     <use x="1267.333984" xlink:href="#ArialMT-109"/>
     <use x="1350.634766" xlink:href="#ArialMT-111"/>
     <use x="1406.25" xlink:href="#ArialMT-118"/>
     <use x="1456.25" xlink:href="#ArialMT-101"/>
     <use x="1511.865234" xlink:href="#ArialMT-109"/>
     <use x="1595.166016" xlink:href="#ArialMT-101"/>
     <use x="1650.78125" xlink:href="#ArialMT-110"/>
     <use x="1706.396484" xlink:href="#ArialMT-116"/>
     <use x="1734.179688" xlink:href="#ArialMT-32"/>
     <use x="1761.962891" xlink:href="#ArialMT-118"/>
     <use x="1811.962891" xlink:href="#ArialMT-101"/>
     <use x="1867.578125" xlink:href="#ArialMT-108"/>
     <use x="1889.794922" xlink:href="#ArialMT-111"/>
     <use x="1945.410156" xlink:href="#ArialMT-99"/>
     <use x="1995.410156" xlink:href="#ArialMT-105"/>
     <use x="2017.626953" xlink:href="#ArialMT-116"/>
     <use x="2045.410156" xlink:href="#ArialMT-121"/>
     <use x="2095.410156" xlink:href="#ArialMT-32"/>
     <use x="2123.193359" xlink:href="#ArialMT-111"/>
     <use x="2178.808594" xlink:href="#ArialMT-110"/>
     <use x="2234.423828" xlink:href="#ArialMT-32"/>
     <use x="2262.207031" xlink:href="#ArialMT-116"/>
     <use x="2289.990234" xlink:href="#ArialMT-104"/>
     <use x="2345.605469" xlink:href="#ArialMT-101"/>
     <use x="2401.220703" xlink:href="#ArialMT-32"/>
     <use x="2429.003906" xlink:href="#ArialMT-115"/>
     <use x="2479.003906" xlink:href="#ArialMT-99"/>
     <use x="2529.003906" xlink:href="#ArialMT-114"/>
     <use x="2562.304688" xlink:href="#ArialMT-101"/>
     <use x="2617.919922" xlink:href="#ArialMT-101"/>
     <use x="2673.535156" xlink:href="#ArialMT-110"/>
     <use x="2729.150391" xlink:href="#ArialMT-32"/>
     <use x="2756.933594" xlink:href="#ArialMT-45"/>
     <use x="2790.234375" xlink:href="#ArialMT-32"/>
     <use x="2818.017578" xlink:href="#ArialMT-78"/>
     <use x="2890.234375" xlink:href="#ArialMT-101"/>
     <use x="2945.849609" xlink:href="#ArialMT-119"/>
     <use x="3018.066406" xlink:href="#ArialMT-86"/>
     <use x="3084.765625" xlink:href="#ArialMT-103"/>
     <use x="3140.380859" xlink:href="#ArialMT-108"/>
     <use x="3162.597656" xlink:href="#ArialMT-117"/>
     <use x="3218.212891" xlink:href="#ArialMT-116"/>
     <use x="3245.996094" xlink:href="#ArialMT-51"/>
     <use x="3301.611328" xlink:href="#ArialMT-95"/>
     <use x="3357.226562" xlink:href="#ArialMT-51"/>
     <use x="3412.841797" xlink:href="#ArialMT-95"/>
     <use x="3468.457031" xlink:href="#ArialMT-51"/>
     <use x="3524.072266" xlink:href="#ArialMT-50"/>
    </g>
   </g>
   <g id="legend_1">
    <g id="line2d_14">
     <path d="M 198.932031 60.2075 
L 218.932031 60.2075 
" style="fill:none;stroke:#ff0000;stroke-dasharray:7.4,3.2;stroke-dashoffset:0;stroke-width:2;"/>
    </g>
    <g id="line2d_15"/>
    <g id="text_14">
     <!-- Average angle in dark: -3.84 degrees -->
     <defs>
      <path d="M -0.140625 0 
L 27.34375 71.578125 
L 37.546875 71.578125 
L 66.84375 0 
L 56.0625 0 
L 47.703125 21.6875 
L 17.78125 21.6875 
L 9.90625 0 
z
M 20.515625 29.390625 
L 44.78125 29.390625 
L 37.3125 49.21875 
Q 33.890625 58.25 32.234375 64.0625 
Q 30.859375 57.171875 28.375 50.390625 
z
" id="ArialMT-65"/>
      <path d="M 40.4375 6.390625 
Q 35.546875 2.25 31.03125 0.53125 
Q 26.515625 -1.171875 21.34375 -1.171875 
Q 12.796875 -1.171875 8.203125 3 
Q 3.609375 7.171875 3.609375 13.671875 
Q 3.609375 17.484375 5.34375 20.625 
Q 7.078125 23.78125 9.890625 25.6875 
Q 12.703125 27.59375 16.21875 28.5625 
Q 18.796875 29.25 24.03125 29.890625 
Q 34.671875 31.15625 39.703125 32.90625 
Q 39.75 34.71875 39.75 35.203125 
Q 39.75 40.578125 37.25 42.78125 
Q 33.890625 45.75 27.25 45.75 
Q 21.046875 45.75 18.09375 43.578125 
Q 15.140625 41.40625 13.71875 35.890625 
L 5.125 37.0625 
Q 6.296875 42.578125 8.984375 45.96875 
Q 11.671875 49.359375 16.75 51.1875 
Q 21.828125 53.03125 28.515625 53.03125 
Q 35.15625 53.03125 39.296875 51.46875 
Q 43.453125 49.90625 45.40625 47.53125 
Q 47.359375 45.171875 48.140625 41.546875 
Q 48.578125 39.3125 48.578125 33.453125 
L 48.578125 21.734375 
Q 48.578125 9.46875 49.140625 6.21875 
Q 49.703125 2.984375 51.375 0 
L 42.1875 0 
Q 40.828125 2.734375 40.4375 6.390625 
z
M 39.703125 26.03125 
Q 34.90625 24.078125 25.34375 22.703125 
Q 19.921875 21.921875 17.671875 20.9375 
Q 15.4375 19.96875 14.203125 18.09375 
Q 12.984375 16.21875 12.984375 13.921875 
Q 12.984375 10.40625 15.640625 8.0625 
Q 18.3125 5.71875 23.4375 5.71875 
Q 28.515625 5.71875 32.46875 7.9375 
Q 36.421875 10.15625 38.28125 14.015625 
Q 39.703125 17 39.703125 22.796875 
z
" id="ArialMT-97"/>
      <path d="M 6.640625 0 
L 6.640625 71.578125 
L 15.4375 71.578125 
L 15.4375 30.765625 
L 36.234375 51.859375 
L 47.609375 51.859375 
L 27.78125 32.625 
L 49.609375 0 
L 38.765625 0 
L 21.625 26.515625 
L 15.4375 20.5625 
L 15.4375 0 
z
" id="ArialMT-107"/>
      <path d="M 9.03125 41.84375 
L 9.03125 51.859375 
L 19.046875 51.859375 
L 19.046875 41.84375 
z
M 9.03125 0 
L 9.03125 10.015625 
L 19.046875 10.015625 
L 19.046875 0 
z
" id="ArialMT-58"/>
     </defs>
     <g style="fill:#262626;" transform="translate(226.932031 63.7075)scale(0.1 -0.1)">
      <use xlink:href="#ArialMT-65"/>
      <use x="66.683594" xlink:href="#ArialMT-118"/>
      <use x="116.683594" xlink:href="#ArialMT-101"/>
      <use x="172.298828" xlink:href="#ArialMT-114"/>
      <use x="205.599609" xlink:href="#ArialMT-97"/>
      <use x="261.214844" xlink:href="#ArialMT-103"/>
      <use x="316.830078" xlink:href="#ArialMT-101"/>
      <use x="372.445312" xlink:href="#ArialMT-32"/>
      <use x="400.228516" xlink:href="#ArialMT-97"/>
      <use x="455.84375" xlink:href="#ArialMT-110"/>
      <use x="511.458984" xlink:href="#ArialMT-103"/>
      <use x="567.074219" xlink:href="#ArialMT-108"/>
      <use x="589.291016" xlink:href="#ArialMT-101"/>
      <use x="644.90625" xlink:href="#ArialMT-32"/>
      <use x="672.689453" xlink:href="#ArialMT-105"/>
      <use x="694.90625" xlink:href="#ArialMT-110"/>
      <use x="750.521484" xlink:href="#ArialMT-32"/>
      <use x="778.304688" xlink:href="#ArialMT-100"/>
      <use x="833.919922" xlink:href="#ArialMT-97"/>
      <use x="889.535156" xlink:href="#ArialMT-114"/>
      <use x="922.835938" xlink:href="#ArialMT-107"/>
      <use x="972.835938" xlink:href="#ArialMT-58"/>
      <use x="1000.619141" xlink:href="#ArialMT-32"/>
      <use x="1028.402344" xlink:href="#ArialMT-45"/>
      <use x="1061.703125" xlink:href="#ArialMT-51"/>
      <use x="1117.318359" xlink:href="#ArialMT-46"/>
      <use x="1145.101562" xlink:href="#ArialMT-56"/>
      <use x="1200.716797" xlink:href="#ArialMT-52"/>
      <use x="1256.332031" xlink:href="#ArialMT-32"/>
      <use x="1284.115234" xlink:href="#ArialMT-100"/>
      <use x="1339.730469" xlink:href="#ArialMT-101"/>
      <use x="1395.345703" xlink:href="#ArialMT-103"/>
      <use x="1450.960938" xlink:href="#ArialMT-114"/>
      <use x="1484.261719" xlink:href="#ArialMT-101"/>
      <use x="1539.876953" xlink:href="#ArialMT-101"/>
      <use x="1595.492188" xlink:href="#ArialMT-115"/>
     </g>
    </g>
    <g id="PathCollection_4">
     <g>
      <use style="fill:#4c72b0;stroke:#4c72b0;stroke-width:0.3;" x="208.932031" xlink:href="#m1100e851b0" y="75.345"/>
     </g>
    </g>
    <g id="text_15">
     <!-- $-0.5 &lt; t &lt; 0.$ -->
     <defs>
      <path d="M 10.59375 35.5 
L 73.1875 35.5 
L 73.1875 27.203125 
L 10.59375 27.203125 
z
" id="DejaVuSans-8722"/>
      <path d="M 31.78125 66.40625 
Q 24.171875 66.40625 20.328125 58.90625 
Q 16.5 51.421875 16.5 36.375 
Q 16.5 21.390625 20.328125 13.890625 
Q 24.171875 6.390625 31.78125 6.390625 
Q 39.453125 6.390625 43.28125 13.890625 
Q 47.125 21.390625 47.125 36.375 
Q 47.125 51.421875 43.28125 58.90625 
Q 39.453125 66.40625 31.78125 66.40625 
z
M 31.78125 74.21875 
Q 44.046875 74.21875 50.515625 64.515625 
Q 56.984375 54.828125 56.984375 36.375 
Q 56.984375 17.96875 50.515625 8.265625 
Q 44.046875 -1.421875 31.78125 -1.421875 
Q 19.53125 -1.421875 13.0625 8.265625 
Q 6.59375 17.96875 6.59375 36.375 
Q 6.59375 54.828125 13.0625 64.515625 
Q 19.53125 74.21875 31.78125 74.21875 
z
" id="DejaVuSans-48"/>
      <path d="M 10.6875 12.40625 
L 21 12.40625 
L 21 0 
L 10.6875 0 
z
" id="DejaVuSans-46"/>
      <path d="M 10.796875 72.90625 
L 49.515625 72.90625 
L 49.515625 64.59375 
L 19.828125 64.59375 
L 19.828125 46.734375 
Q 21.96875 47.46875 24.109375 47.828125 
Q 26.265625 48.1875 28.421875 48.1875 
Q 40.625 48.1875 47.75 41.5 
Q 54.890625 34.8125 54.890625 23.390625 
Q 54.890625 11.625 47.5625 5.09375 
Q 40.234375 -1.421875 26.90625 -1.421875 
Q 22.3125 -1.421875 17.546875 -0.640625 
Q 12.796875 0.140625 7.71875 1.703125 
L 7.71875 11.625 
Q 12.109375 9.234375 16.796875 8.0625 
Q 21.484375 6.890625 26.703125 6.890625 
Q 35.15625 6.890625 40.078125 11.328125 
Q 45.015625 15.765625 45.015625 23.390625 
Q 45.015625 31 40.078125 35.4375 
Q 35.15625 39.890625 26.703125 39.890625 
Q 22.75 39.890625 18.8125 39.015625 
Q 14.890625 38.140625 10.796875 36.28125 
z
" id="DejaVuSans-53"/>
      <path d="M 73.1875 49.21875 
L 22.796875 31.296875 
L 73.1875 13.484375 
L 73.1875 4.59375 
L 10.59375 27.296875 
L 10.59375 35.40625 
L 73.1875 58.109375 
z
" id="DejaVuSans-60"/>
      <path d="M 42.28125 54.6875 
L 40.921875 47.703125 
L 23 47.703125 
L 17.1875 18.015625 
Q 16.890625 16.359375 16.75 15.234375 
Q 16.609375 14.109375 16.609375 13.484375 
Q 16.609375 10.359375 18.484375 8.9375 
Q 20.359375 7.515625 24.515625 7.515625 
L 33.59375 7.515625 
L 32.078125 0 
L 23.484375 0 
Q 15.484375 0 11.546875 3.125 
Q 7.625 6.25 7.625 12.59375 
Q 7.625 13.71875 7.765625 15.0625 
Q 7.90625 16.40625 8.203125 18.015625 
L 14.015625 47.703125 
L 6.390625 47.703125 
L 7.8125 54.6875 
L 15.28125 54.6875 
L 18.3125 70.21875 
L 27.296875 70.21875 
L 24.3125 54.6875 
z
" id="DejaVuSans-Oblique-116"/>
     </defs>
     <g style="fill:#262626;" transform="translate(226.932031 77.97)scale(0.1 -0.1)">
      <use transform="translate(0 0.78125)" xlink:href="#DejaVuSans-8722"/>
      <use transform="translate(83.789062 0.78125)" xlink:href="#DejaVuSans-48"/>
      <use transform="translate(147.412109 0.78125)" xlink:href="#DejaVuSans-46"/>
      <use transform="translate(179.199219 0.78125)" xlink:href="#DejaVuSans-53"/>
      <use transform="translate(262.304688 0.78125)" xlink:href="#DejaVuSans-60"/>
      <use transform="translate(365.576172 0.78125)" xlink:href="#DejaVuSans-Oblique-116"/>
      <use transform="translate(424.267578 0.78125)" xlink:href="#DejaVuSans-60"/>
      <use transform="translate(527.539062 0.78125)" xlink:href="#DejaVuSans-48"/>
     </g>
    </g>
    <g id="PathCollection_5">
     <g>
      <use style="fill:#55a868;stroke:#55a868;stroke-width:0.3;" x="208.932031" xlink:href="#m6e6cbcf737" y="89.490312"/>
     </g>
    </g>
    <g id="text_16">
     <!-- $0. &lt; t &lt; 0.5$ -->
     <g style="fill:#262626;" transform="translate(226.932031 92.115312)scale(0.1 -0.1)">
      <use transform="translate(0 0.78125)" xlink:href="#DejaVuSans-48"/>
      <use transform="translate(63.623047 0.78125)" xlink:href="#DejaVuSans-46"/>
      <use transform="translate(134.375 0.78125)" xlink:href="#DejaVuSans-60"/>
      <use transform="translate(237.646484 0.78125)" xlink:href="#DejaVuSans-Oblique-116"/>
      <use transform="translate(296.337891 0.78125)" xlink:href="#DejaVuSans-60"/>
      <use transform="translate(399.609375 0.78125)" xlink:href="#DejaVuSans-48"/>
      <use transform="translate(463.232422 0.78125)" xlink:href="#DejaVuSans-46"/>
      <use transform="translate(495.019531 0.78125)" xlink:href="#DejaVuSans-53"/>
     </g>
    </g>
    <g id="PathCollection_6">
     <g>
      <use style="fill:#c44e52;stroke:#c44e52;stroke-width:0.3;" x="208.932031" xlink:href="#m812c0dabe8" y="103.635625"/>
     </g>
    </g>
    <g id="text_17">
     <!-- $0.5 &lt; t &lt; 1.$ -->
     <defs>
      <path d="M 12.40625 8.296875 
L 28.515625 8.296875 
L 28.515625 63.921875 
L 10.984375 60.40625 
L 10.984375 69.390625 
L 28.421875 72.90625 
L 38.28125 72.90625 
L 38.28125 8.296875 
L 54.390625 8.296875 
L 54.390625 0 
L 12.40625 0 
z
" id="DejaVuSans-49"/>
     </defs>
     <g style="fill:#262626;" transform="translate(226.932031 106.260625)scale(0.1 -0.1)">
      <use transform="translate(0 0.78125)" xlink:href="#DejaVuSans-48"/>
      <use transform="translate(63.623047 0.78125)" xlink:href="#DejaVuSans-46"/>
      <use transform="translate(95.410156 0.78125)" xlink:href="#DejaVuSans-53"/>
      <use transform="translate(178.515625 0.78125)" xlink:href="#DejaVuSans-60"/>
      <use transform="translate(281.787109 0.78125)" xlink:href="#DejaVuSans-Oblique-116"/>
      <use transform="translate(340.478516 0.78125)" xlink:href="#DejaVuSans-60"/>
      <use transform="translate(443.75 0.78125)" xlink:href="#DejaVuSans-49"/>
     </g>
    </g>
   </g>
  </g>
 </g>
 <defs>
  <clipPath id="p917d13823f">
   <path d="M 447.66 199.98 
C 447.66 179.959136 443.716326 160.13295 436.054674 141.636084 
C 428.393021 123.139218 417.162388 106.331389 403.0055 92.1745 
C 388.848611 78.017612 372.040782 66.786979 353.543916 59.125326 
C 335.04705 51.463674 315.220864 47.52 295.2 47.52 
C 275.179136 47.52 255.35295 51.463674 236.856084 59.125326 
C 218.359218 66.786979 201.551389 78.017612 187.3945 92.1745 
C 173.237612 106.331389 162.006979 123.139218 154.345326 141.636084 
C 146.683674 160.13295 142.74 179.959136 142.74 199.98 
C 142.74 220.000864 146.683674 239.82705 154.345326 258.323916 
C 162.006979 276.820782 173.237612 293.628611 187.3945 307.7855 
C 201.551389 321.942388 218.359218 333.173021 236.856084 340.834674 
C 255.35295 348.496326 275.179136 352.44 295.2 352.44 
C 315.220864 352.44 335.04705 348.496326 353.543916 340.834674 
C 372.040782 333.173021 388.848611 321.942388 403.0055 307.7855 
C 417.162388 293.628611 428.393021 276.820782 436.054674 258.323916 
C 443.716326 239.82705 447.66 220.000864 447.66 199.98 
M 295.2 199.98 
C 295.2 199.98 295.2 199.98 295.2 199.98 
C 295.2 199.98 295.2 199.98 295.2 199.98 
C 295.2 199.98 295.2 199.98 295.2 199.98 
C 295.2 199.98 295.2 199.98 295.2 199.98 
C 295.2 199.98 295.2 199.98 295.2 199.98 
C 295.2 199.98 295.2 199.98 295.2 199.98 
C 295.2 199.98 295.2 199.98 295.2 199.98 
C 295.2 199.98 295.2 199.98 295.2 199.98 
C 295.2 199.98 295.2 199.98 295.2 199.98 
C 295.2 199.98 295.2 199.98 295.2 199.98 
C 295.2 199.98 295.2 199.98 295.2 199.98 
C 295.2 199.98 295.2 199.98 295.2 199.98 
C 295.2 199.98 295.2 199.98 295.2 199.98 
C 295.2 199.98 295.2 199.98 295.2 199.98 
C 295.2 199.98 295.2 199.98 295.2 199.98 
C 295.2 199.98 295.2 199.98 295.2 199.98 
M 447.66 199.98 
z
"/>
  </clipPath>
 </defs>
</svg>
