<?xml version="1.0" encoding="utf-8" standalone="no"?>
<!DOCTYPE svg PUBLIC "-//W3C//DTD SVG 1.1//EN"
  "http://www.w3.org/Graphics/SVG/1.1/DTD/svg11.dtd">
<!-- Created with matplotlib (https://matplotlib.org/) -->
<svg height="396pt" version="1.1" viewBox="0 0 576 396" width="576pt" xmlns="http://www.w3.org/2000/svg" xmlns:xlink="http://www.w3.org/1999/xlink">
 <defs>
  <style type="text/css">
*{stroke-linecap:butt;stroke-linejoin:round;}
  </style>
 </defs>
 <g id="figure_1">
  <g id="patch_1">
   <path d="M 0 396 
L 576 396 
L 576 0 
L 0 0 
z
" style="fill:#ffffff;"/>
  </g>
  <g id="axes_1">
   <g id="patch_2">
    <path d="M 447.66 199.98 
C 447.66 179.959136 443.716326 160.13295 436.054674 141.636084 
C 428.393021 123.139218 417.162388 106.331389 403.0055 92.1745 
C 388.848611 78.017612 372.040782 66.786979 353.543916 59.125326 
C 335.04705 51.463674 315.220864 47.52 295.2 47.52 
C 275.179136 47.52 255.35295 51.463674 236.856084 59.125326 
C 218.359218 66.786979 201.551389 78.017612 187.3945 92.1745 
C 173.237612 106.331389 162.006979 123.139218 154.345326 141.636084 
C 146.683674 160.13295 142.74 179.959136 142.74 199.98 
C 142.74 220.000864 146.683674 239.82705 154.345326 258.323916 
C 162.006979 276.820782 173.237612 293.628611 187.3945 307.7855 
C 201.551389 321.942388 218.359218 333.173021 236.856084 340.834674 
C 255.35295 348.496326 275.179136 352.44 295.2 352.44 
C 315.220864 352.44 335.04705 348.496326 353.543916 340.834674 
C 372.040782 333.173021 388.848611 321.942388 403.0055 307.7855 
C 417.162388 293.628611 428.393021 276.820782 436.054674 258.323916 
C 443.716326 239.82705 447.66 220.000864 447.66 199.98 
M 295.2 199.98 
C 295.2 199.98 295.2 199.98 295.2 199.98 
C 295.2 199.98 295.2 199.98 295.2 199.98 
C 295.2 199.98 295.2 199.98 295.2 199.98 
C 295.2 199.98 295.2 199.98 295.2 199.98 
C 295.2 199.98 295.2 199.98 295.2 199.98 
C 295.2 199.98 295.2 199.98 295.2 199.98 
C 295.2 199.98 295.2 199.98 295.2 199.98 
C 295.2 199.98 295.2 199.98 295.2 199.98 
C 295.2 199.98 295.2 199.98 295.2 199.98 
C 295.2 199.98 295.2 199.98 295.2 199.98 
C 295.2 199.98 295.2 199.98 295.2 199.98 
C 295.2 199.98 295.2 199.98 295.2 199.98 
C 295.2 199.98 295.2 199.98 295.2 199.98 
C 295.2 199.98 295.2 199.98 295.2 199.98 
C 295.2 199.98 295.2 199.98 295.2 199.98 
C 295.2 199.98 295.2 199.98 295.2 199.98 
M 447.66 199.98 
z
" style="fill:#eaeaf2;"/>
   </g>
   <g id="matplotlib.axis_1">
    <g id="xtick_1">
     <g id="line2d_1">
      <path clip-path="url(#pf773611667)" d="M 295.2 199.98 
L 447.66 199.98 
" style="fill:none;stroke:#ffffff;stroke-linecap:round;"/>
     </g>
     <g id="text_1">
      <!-- 0° -->
      <defs>
       <path d="M 4.15625 35.296875 
Q 4.15625 48 6.765625 55.734375 
Q 9.375 63.484375 14.515625 67.671875 
Q 19.671875 71.875 27.484375 71.875 
Q 33.25 71.875 37.59375 69.546875 
Q 41.9375 67.234375 44.765625 62.859375 
Q 47.609375 58.5 49.21875 52.21875 
Q 50.828125 45.953125 50.828125 35.296875 
Q 50.828125 22.703125 48.234375 14.96875 
Q 45.65625 7.234375 40.5 3 
Q 35.359375 -1.21875 27.484375 -1.21875 
Q 17.140625 -1.21875 11.234375 6.203125 
Q 4.15625 15.140625 4.15625 35.296875 
z
M 13.1875 35.296875 
Q 13.1875 17.671875 17.3125 11.828125 
Q 21.4375 6 27.484375 6 
Q 33.546875 6 37.671875 11.859375 
Q 41.796875 17.71875 41.796875 35.296875 
Q 41.796875 52.984375 37.671875 58.78125 
Q 33.546875 64.59375 27.390625 64.59375 
Q 21.34375 64.59375 17.71875 59.46875 
Q 13.1875 52.9375 13.1875 35.296875 
z
" id="ArialMT-48"/>
       <path d="M 6.25 59.28125 
Q 6.25 64.890625 10.21875 68.84375 
Q 14.203125 72.796875 19.78125 72.796875 
Q 25.4375 72.796875 29.390625 68.84375 
Q 33.34375 64.890625 33.34375 59.28125 
Q 33.34375 53.65625 29.359375 49.671875 
Q 25.390625 45.703125 19.78125 45.703125 
Q 14.203125 45.703125 10.21875 49.65625 
Q 6.25 53.609375 6.25 59.28125 
z
M 11.578125 59.28125 
Q 11.578125 55.859375 13.984375 53.4375 
Q 16.40625 51.03125 19.828125 51.03125 
Q 23.1875 51.03125 25.609375 53.4375 
Q 28.03125 55.859375 28.03125 59.28125 
Q 28.03125 62.703125 25.609375 65.109375 
Q 23.1875 67.53125 19.828125 67.53125 
Q 16.40625 67.53125 13.984375 65.109375 
Q 11.578125 62.703125 11.578125 59.28125 
z
" id="ArialMT-176"/>
      </defs>
      <g style="fill:#262626;" transform="translate(456.880313 202.565156)scale(0.1 -0.1)">
       <use xlink:href="#ArialMT-48"/>
       <use x="55.615234" xlink:href="#ArialMT-176"/>
      </g>
     </g>
    </g>
    <g id="xtick_2">
     <g id="line2d_2">
      <path clip-path="url(#pf773611667)" d="M 295.2 199.98 
L 403.0055 92.1745 
" style="fill:none;stroke:#ffffff;stroke-linecap:round;"/>
     </g>
     <g id="text_2">
      <!-- 45° -->
      <defs>
       <path d="M 32.328125 0 
L 32.328125 17.140625 
L 1.265625 17.140625 
L 1.265625 25.203125 
L 33.9375 71.578125 
L 41.109375 71.578125 
L 41.109375 25.203125 
L 50.78125 25.203125 
L 50.78125 17.140625 
L 41.109375 17.140625 
L 41.109375 0 
z
M 32.328125 25.203125 
L 32.328125 57.46875 
L 9.90625 25.203125 
z
" id="ArialMT-52"/>
       <path d="M 4.15625 18.75 
L 13.375 19.53125 
Q 14.40625 12.796875 18.140625 9.390625 
Q 21.875 6 27.15625 6 
Q 33.5 6 37.890625 10.78125 
Q 42.28125 15.578125 42.28125 23.484375 
Q 42.28125 31 38.0625 35.34375 
Q 33.84375 39.703125 27 39.703125 
Q 22.75 39.703125 19.328125 37.765625 
Q 15.921875 35.84375 13.96875 32.765625 
L 5.71875 33.84375 
L 12.640625 70.609375 
L 48.25 70.609375 
L 48.25 62.203125 
L 19.671875 62.203125 
L 15.828125 42.96875 
Q 22.265625 47.46875 29.34375 47.46875 
Q 38.71875 47.46875 45.15625 40.96875 
Q 51.609375 34.46875 51.609375 24.265625 
Q 51.609375 14.546875 45.953125 7.46875 
Q 39.0625 -1.21875 27.15625 -1.21875 
Q 17.390625 -1.21875 11.203125 4.25 
Q 5.03125 9.71875 4.15625 18.75 
z
" id="ArialMT-53"/>
      </defs>
      <g style="fill:#262626;" transform="translate(405.344839 84.860161)scale(0.1 -0.1)">
       <use xlink:href="#ArialMT-52"/>
       <use x="55.615234" xlink:href="#ArialMT-53"/>
       <use x="111.230469" xlink:href="#ArialMT-176"/>
      </g>
     </g>
    </g>
    <g id="xtick_3">
     <g id="line2d_3">
      <path clip-path="url(#pf773611667)" d="M 295.2 199.98 
L 295.2 47.52 
" style="fill:none;stroke:#ffffff;stroke-linecap:round;"/>
     </g>
     <g id="text_3">
      <!-- 90° -->
      <defs>
       <path d="M 5.46875 16.546875 
L 13.921875 17.328125 
Q 14.984375 11.375 18.015625 8.6875 
Q 21.046875 6 25.78125 6 
Q 29.828125 6 32.875 7.859375 
Q 35.9375 9.71875 37.890625 12.8125 
Q 39.84375 15.921875 41.15625 21.1875 
Q 42.484375 26.46875 42.484375 31.9375 
Q 42.484375 32.515625 42.4375 33.6875 
Q 39.796875 29.5 35.234375 26.875 
Q 30.671875 24.265625 25.34375 24.265625 
Q 16.453125 24.265625 10.296875 30.703125 
Q 4.15625 37.15625 4.15625 47.703125 
Q 4.15625 58.59375 10.578125 65.234375 
Q 17 71.875 26.65625 71.875 
Q 33.640625 71.875 39.421875 68.109375 
Q 45.21875 64.359375 48.21875 57.390625 
Q 51.21875 50.4375 51.21875 37.25 
Q 51.21875 23.53125 48.234375 15.40625 
Q 45.265625 7.28125 39.375 3.03125 
Q 33.5 -1.21875 25.59375 -1.21875 
Q 17.1875 -1.21875 11.859375 3.4375 
Q 6.546875 8.109375 5.46875 16.546875 
z
M 41.453125 48.140625 
Q 41.453125 55.71875 37.421875 60.15625 
Q 33.40625 64.59375 27.734375 64.59375 
Q 21.875 64.59375 17.53125 59.8125 
Q 13.1875 55.03125 13.1875 47.40625 
Q 13.1875 40.578125 17.3125 36.296875 
Q 21.4375 32.03125 27.484375 32.03125 
Q 33.59375 32.03125 37.515625 36.296875 
Q 41.453125 40.578125 41.453125 48.140625 
z
" id="ArialMT-57"/>
      </defs>
      <g style="fill:#262626;" transform="translate(287.639844 36.105156)scale(0.1 -0.1)">
       <use xlink:href="#ArialMT-57"/>
       <use x="55.615234" xlink:href="#ArialMT-48"/>
       <use x="111.230469" xlink:href="#ArialMT-176"/>
      </g>
     </g>
    </g>
    <g id="xtick_4">
     <g id="line2d_4">
      <path clip-path="url(#pf773611667)" d="M 295.2 199.98 
L 187.3945 92.1745 
" style="fill:none;stroke:#ffffff;stroke-linecap:round;"/>
     </g>
     <g id="text_4">
      <!-- 135° -->
      <defs>
       <path d="M 37.25 0 
L 28.46875 0 
L 28.46875 56 
Q 25.296875 52.984375 20.140625 49.953125 
Q 14.984375 46.921875 10.890625 45.40625 
L 10.890625 53.90625 
Q 18.265625 57.375 23.78125 62.296875 
Q 29.296875 67.234375 31.59375 71.875 
L 37.25 71.875 
z
" id="ArialMT-49"/>
       <path d="M 4.203125 18.890625 
L 12.984375 20.0625 
Q 14.5 12.59375 18.140625 9.296875 
Q 21.78125 6 27 6 
Q 33.203125 6 37.46875 10.296875 
Q 41.75 14.59375 41.75 20.953125 
Q 41.75 27 37.796875 30.921875 
Q 33.84375 34.859375 27.734375 34.859375 
Q 25.25 34.859375 21.53125 33.890625 
L 22.515625 41.609375 
Q 23.390625 41.5 23.921875 41.5 
Q 29.546875 41.5 34.03125 44.421875 
Q 38.53125 47.359375 38.53125 53.46875 
Q 38.53125 58.296875 35.25 61.46875 
Q 31.984375 64.65625 26.8125 64.65625 
Q 21.6875 64.65625 18.265625 61.421875 
Q 14.84375 58.203125 13.875 51.765625 
L 5.078125 53.328125 
Q 6.6875 62.15625 12.390625 67.015625 
Q 18.109375 71.875 26.609375 71.875 
Q 32.46875 71.875 37.390625 69.359375 
Q 42.328125 66.84375 44.9375 62.5 
Q 47.5625 58.15625 47.5625 53.265625 
Q 47.5625 48.640625 45.0625 44.828125 
Q 42.578125 41.015625 37.703125 38.765625 
Q 44.046875 37.3125 47.5625 32.6875 
Q 51.078125 28.078125 51.078125 21.140625 
Q 51.078125 11.765625 44.234375 5.25 
Q 37.40625 -1.265625 26.953125 -1.265625 
Q 17.53125 -1.265625 11.296875 4.34375 
Q 5.078125 9.96875 4.203125 18.890625 
z
" id="ArialMT-51"/>
      </defs>
      <g style="fill:#262626;" transform="translate(167.15438 84.860161)scale(0.1 -0.1)">
       <use xlink:href="#ArialMT-49"/>
       <use x="55.615234" xlink:href="#ArialMT-51"/>
       <use x="111.230469" xlink:href="#ArialMT-53"/>
       <use x="166.845703" xlink:href="#ArialMT-176"/>
      </g>
     </g>
    </g>
    <g id="xtick_5">
     <g id="line2d_5">
      <path clip-path="url(#pf773611667)" d="M 295.2 199.98 
L 142.74 199.98 
" style="fill:none;stroke:#ffffff;stroke-linecap:round;"/>
     </g>
     <g id="text_5">
      <!-- 180° -->
      <defs>
       <path d="M 17.671875 38.8125 
Q 12.203125 40.828125 9.5625 44.53125 
Q 6.9375 48.25 6.9375 53.421875 
Q 6.9375 61.234375 12.546875 66.546875 
Q 18.171875 71.875 27.484375 71.875 
Q 36.859375 71.875 42.578125 66.421875 
Q 48.296875 60.984375 48.296875 53.171875 
Q 48.296875 48.1875 45.671875 44.5 
Q 43.0625 40.828125 37.75 38.8125 
Q 44.34375 36.671875 47.78125 31.875 
Q 51.21875 27.09375 51.21875 20.453125 
Q 51.21875 11.28125 44.71875 5.03125 
Q 38.234375 -1.21875 27.640625 -1.21875 
Q 17.046875 -1.21875 10.546875 5.046875 
Q 4.046875 11.328125 4.046875 20.703125 
Q 4.046875 27.6875 7.59375 32.390625 
Q 11.140625 37.109375 17.671875 38.8125 
z
M 15.921875 53.71875 
Q 15.921875 48.640625 19.1875 45.40625 
Q 22.46875 42.1875 27.6875 42.1875 
Q 32.765625 42.1875 36.015625 45.375 
Q 39.265625 48.578125 39.265625 53.21875 
Q 39.265625 58.0625 35.90625 61.359375 
Q 32.5625 64.65625 27.59375 64.65625 
Q 22.5625 64.65625 19.234375 61.421875 
Q 15.921875 58.203125 15.921875 53.71875 
z
M 13.09375 20.65625 
Q 13.09375 16.890625 14.875 13.375 
Q 16.65625 9.859375 20.171875 7.921875 
Q 23.6875 6 27.734375 6 
Q 34.03125 6 38.125 10.046875 
Q 42.234375 14.109375 42.234375 20.359375 
Q 42.234375 26.703125 38.015625 30.859375 
Q 33.796875 35.015625 27.4375 35.015625 
Q 21.234375 35.015625 17.15625 30.90625 
Q 13.09375 26.8125 13.09375 20.65625 
z
" id="ArialMT-56"/>
      </defs>
      <g style="fill:#262626;" transform="translate(118.399375 202.565156)scale(0.1 -0.1)">
       <use xlink:href="#ArialMT-49"/>
       <use x="55.615234" xlink:href="#ArialMT-56"/>
       <use x="111.230469" xlink:href="#ArialMT-48"/>
       <use x="166.845703" xlink:href="#ArialMT-176"/>
      </g>
     </g>
    </g>
    <g id="xtick_6">
     <g id="line2d_6">
      <path clip-path="url(#pf773611667)" d="M 295.2 199.98 
L 187.3945 307.7855 
" style="fill:none;stroke:#ffffff;stroke-linecap:round;"/>
     </g>
     <g id="text_6">
      <!-- 225° -->
      <defs>
       <path d="M 50.34375 8.453125 
L 50.34375 0 
L 3.03125 0 
Q 2.9375 3.171875 4.046875 6.109375 
Q 5.859375 10.9375 9.828125 15.625 
Q 13.8125 20.3125 21.34375 26.46875 
Q 33.015625 36.03125 37.109375 41.625 
Q 41.21875 47.21875 41.21875 52.203125 
Q 41.21875 57.421875 37.46875 61 
Q 33.734375 64.59375 27.734375 64.59375 
Q 21.390625 64.59375 17.578125 60.78125 
Q 13.765625 56.984375 13.71875 50.25 
L 4.6875 51.171875 
Q 5.609375 61.28125 11.65625 66.578125 
Q 17.71875 71.875 27.9375 71.875 
Q 38.234375 71.875 44.234375 66.15625 
Q 50.25 60.453125 50.25 52 
Q 50.25 47.703125 48.484375 43.546875 
Q 46.734375 39.40625 42.65625 34.8125 
Q 38.578125 30.21875 29.109375 22.21875 
Q 21.1875 15.578125 18.9375 13.203125 
Q 16.703125 10.84375 15.234375 8.453125 
z
" id="ArialMT-50"/>
      </defs>
      <g style="fill:#262626;" transform="translate(167.15438 320.270151)scale(0.1 -0.1)">
       <use xlink:href="#ArialMT-50"/>
       <use x="55.615234" xlink:href="#ArialMT-50"/>
       <use x="111.230469" xlink:href="#ArialMT-53"/>
       <use x="166.845703" xlink:href="#ArialMT-176"/>
      </g>
     </g>
    </g>
    <g id="xtick_7">
     <g id="line2d_7">
      <path clip-path="url(#pf773611667)" d="M 295.2 199.98 
L 295.2 352.44 
" style="fill:none;stroke:#ffffff;stroke-linecap:round;"/>
     </g>
     <g id="text_7">
      <!-- 270° -->
      <defs>
       <path d="M 4.734375 62.203125 
L 4.734375 70.65625 
L 51.078125 70.65625 
L 51.078125 63.8125 
Q 44.234375 56.546875 37.515625 44.484375 
Q 30.8125 32.421875 27.15625 19.671875 
Q 24.515625 10.6875 23.78125 0 
L 14.75 0 
Q 14.890625 8.453125 18.0625 20.40625 
Q 21.234375 32.375 27.171875 43.484375 
Q 33.109375 54.59375 39.796875 62.203125 
z
" id="ArialMT-55"/>
      </defs>
      <g style="fill:#262626;" transform="translate(284.859375 369.025156)scale(0.1 -0.1)">
       <use xlink:href="#ArialMT-50"/>
       <use x="55.615234" xlink:href="#ArialMT-55"/>
       <use x="111.230469" xlink:href="#ArialMT-48"/>
       <use x="166.845703" xlink:href="#ArialMT-176"/>
      </g>
     </g>
    </g>
    <g id="xtick_8">
     <g id="line2d_8">
      <path clip-path="url(#pf773611667)" d="M 295.2 199.98 
L 403.0055 307.7855 
" style="fill:none;stroke:#ffffff;stroke-linecap:round;"/>
     </g>
     <g id="text_8">
      <!-- 315° -->
      <g style="fill:#262626;" transform="translate(402.56437 320.270151)scale(0.1 -0.1)">
       <use xlink:href="#ArialMT-51"/>
       <use x="55.615234" xlink:href="#ArialMT-49"/>
       <use x="111.230469" xlink:href="#ArialMT-53"/>
       <use x="166.845703" xlink:href="#ArialMT-176"/>
      </g>
     </g>
    </g>
   </g>
   <g id="matplotlib.axis_2">
    <g id="ytick_1">
     <g id="line2d_9">
      <path clip-path="url(#pf773611667)" d="M 325.116122 199.98 
L 324.952239 196.852914 
L 324.462383 193.760088 
L 323.651923 190.73541 
L 322.529738 187.812017 
L 321.108122 185.021939 
L 319.402651 182.395745 
L 317.432011 179.962207 
L 315.217793 177.747989 
L 312.784255 175.777349 
L 310.158061 174.071878 
L 307.367983 172.650262 
L 304.44459 171.528077 
L 301.419912 170.717617 
L 298.327086 170.227761 
L 295.2 170.063878 
L 292.072914 170.227761 
L 288.980088 170.717617 
L 285.95541 171.528077 
L 283.032017 172.650262 
L 280.241939 174.071878 
L 277.615745 175.777349 
L 275.182207 177.747989 
L 272.967989 179.962207 
L 270.997349 182.395745 
L 269.291878 185.021939 
L 267.870262 187.812017 
L 266.748077 190.73541 
L 265.937617 193.760088 
L 265.447761 196.852914 
L 265.283878 199.98 
L 265.447761 203.107086 
L 265.937617 206.199912 
L 266.748077 209.22459 
L 267.870262 212.147983 
L 269.291878 214.938061 
L 270.997349 217.564255 
L 272.967989 219.997793 
L 275.182207 222.212011 
L 277.615745 224.182651 
L 280.241939 225.888122 
L 283.032017 227.309738 
L 285.95541 228.431923 
L 288.980088 229.242383 
L 292.072914 229.732239 
L 295.2 229.896122 
L 298.327086 229.732239 
L 301.419912 229.242383 
L 304.44459 228.431923 
L 307.367983 227.309738 
L 310.158061 225.888122 
L 312.784255 224.182651 
L 315.217793 222.212011 
L 317.432011 219.997793 
L 319.402651 217.564255 
L 321.108122 214.938061 
L 322.529738 212.147983 
L 323.651923 209.22459 
L 324.462383 206.199912 
L 324.952239 203.107086 
L 325.116122 199.98 
L 325.116122 199.98 
" style="fill:none;stroke:#ffffff;stroke-linecap:round;"/>
     </g>
     <g id="text_9">
      <!-- 0.05 -->
      <defs>
       <path d="M 9.078125 0 
L 9.078125 10.015625 
L 19.09375 10.015625 
L 19.09375 0 
z
" id="ArialMT-46"/>
      </defs>
      <g style="fill:#262626;" transform="translate(322.838893 186.544096)scale(0.1 -0.1)">
       <use xlink:href="#ArialMT-48"/>
       <use x="55.615234" xlink:href="#ArialMT-46"/>
       <use x="83.398438" xlink:href="#ArialMT-48"/>
       <use x="139.013672" xlink:href="#ArialMT-53"/>
      </g>
     </g>
    </g>
    <g id="ytick_2">
     <g id="line2d_10">
      <path clip-path="url(#pf773611667)" d="M 355.032244 199.98 
L 354.886496 195.806314 
L 354.449961 191.652961 
L 353.724766 187.540177 
L 352.714445 183.487998 
L 351.423919 179.516167 
L 349.859475 175.644034 
L 348.028736 171.890463 
L 345.940621 168.273741 
L 343.605303 164.811489 
L 341.034158 161.520575 
L 338.239715 158.417031 
L 335.235586 155.515977 
L 332.036408 152.831548 
L 328.657767 150.376821 
L 325.116122 148.163756 
L 321.42873 146.203135 
L 317.613553 144.504509 
L 313.68918 143.076154 
L 309.67473 141.925029 
L 305.58976 141.056742 
L 301.454173 140.475523 
L 297.288115 140.184204 
L 293.111885 140.184204 
L 288.945827 140.475523 
L 284.81024 141.056742 
L 280.72527 141.925029 
L 276.71082 143.076154 
L 272.786447 144.504509 
L 268.97127 146.203135 
L 265.283878 148.163756 
L 261.742233 150.376821 
L 258.363592 152.831548 
L 255.164414 155.515977 
L 252.160285 158.417031 
L 249.365842 161.520575 
L 246.794697 164.811489 
L 244.459379 168.273741 
L 242.371264 171.890463 
L 240.540525 175.644034 
L 238.976081 179.516167 
L 237.685555 183.487998 
L 236.675234 187.540177 
L 235.950039 191.652961 
L 235.513504 195.806314 
L 235.367756 199.98 
L 235.513504 204.153686 
L 235.950039 208.307039 
L 236.675234 212.419823 
L 237.685555 216.472002 
L 238.976081 220.443833 
L 240.540525 224.315966 
L 242.371264 228.069537 
L 244.459379 231.686259 
L 246.794697 235.148511 
L 249.365842 238.439425 
L 252.160285 241.542969 
L 255.164414 244.444023 
L 258.363592 247.128452 
L 261.742233 249.583179 
L 265.283878 251.796244 
L 268.97127 253.756865 
L 272.786447 255.455491 
L 276.71082 256.883846 
L 280.72527 258.034971 
L 284.81024 258.903258 
L 288.945827 259.484477 
L 293.111885 259.775796 
L 297.288115 259.775796 
L 301.454173 259.484477 
L 305.58976 258.903258 
L 309.67473 258.034971 
L 313.68918 256.883846 
L 317.613553 255.455491 
L 321.42873 253.756865 
L 325.116122 251.796244 
L 328.657767 249.583179 
L 332.036408 247.128452 
L 335.235586 244.444023 
L 338.239715 241.542969 
L 341.034158 238.439425 
L 343.605303 235.148511 
L 345.940621 231.686259 
L 348.028736 228.069537 
L 349.859475 224.315966 
L 351.423919 220.443833 
L 352.714445 216.472002 
L 353.724766 212.419823 
L 354.449961 208.307039 
L 354.886496 204.153686 
L 355.032244 199.98 
L 355.032244 199.98 
" style="fill:none;stroke:#ffffff;stroke-linecap:round;"/>
     </g>
     <g id="text_10">
      <!-- 0.10 -->
      <g style="fill:#262626;" transform="translate(350.477786 175.095691)scale(0.1 -0.1)">
       <use xlink:href="#ArialMT-48"/>
       <use x="55.615234" xlink:href="#ArialMT-46"/>
       <use x="83.398438" xlink:href="#ArialMT-49"/>
       <use x="139.013672" xlink:href="#ArialMT-48"/>
      </g>
     </g>
    </g>
    <g id="ytick_3">
     <g id="line2d_11">
      <path clip-path="url(#pf773611667)" d="M 384.948367 199.98 
L 384.729744 193.71947 
L 384.074942 187.489442 
L 382.98715 181.320265 
L 381.471667 175.241998 
L 379.535878 169.284251 
L 377.189213 163.476051 
L 374.443104 157.845694 
L 371.310932 152.420612 
L 367.807954 147.227234 
L 363.951238 142.290862 
L 359.759572 137.635546 
L 355.253379 133.283966 
L 350.454612 129.257322 
L 345.38665 125.575232 
L 340.074183 122.255634 
L 334.543094 119.314702 
L 328.82033 116.766763 
L 322.933771 114.624231 
L 316.912095 112.897543 
L 310.78464 111.595113 
L 304.581259 110.723284 
L 298.332173 110.286306 
L 292.067827 110.286306 
L 285.818741 110.723284 
L 279.61536 111.595113 
L 273.487905 112.897543 
L 267.466229 114.624231 
L 261.57967 116.766763 
L 255.856906 119.314702 
L 250.325817 122.255634 
L 245.01335 125.575232 
L 239.945388 129.257322 
L 235.146621 133.283966 
L 230.640428 137.635546 
L 226.448762 142.290862 
L 222.592046 147.227234 
L 219.089068 152.420612 
L 215.956896 157.845694 
L 213.210787 163.476051 
L 210.864122 169.284251 
L 208.928333 175.241998 
L 207.41285 181.320265 
L 206.325058 187.489442 
L 205.670256 193.71947 
L 205.451633 199.98 
L 205.670256 206.24053 
L 206.325058 212.470558 
L 207.41285 218.639735 
L 208.928333 224.718002 
L 210.864122 230.675749 
L 213.210787 236.483949 
L 215.956896 242.114306 
L 219.089068 247.539388 
L 222.592046 252.732766 
L 226.448762 257.669138 
L 230.640428 262.324454 
L 235.146621 266.676034 
L 239.945388 270.702678 
L 245.01335 274.384768 
L 250.325817 277.704366 
L 255.856906 280.645298 
L 261.57967 283.193237 
L 267.466229 285.335769 
L 273.487905 287.062457 
L 279.61536 288.364887 
L 285.818741 289.236716 
L 292.067827 289.673694 
L 298.332173 289.673694 
L 304.581259 289.236716 
L 310.78464 288.364887 
L 316.912095 287.062457 
L 322.933771 285.335769 
L 328.82033 283.193237 
L 334.543094 280.645298 
L 340.074183 277.704366 
L 345.38665 274.384768 
L 350.454612 270.702678 
L 355.253379 266.676034 
L 359.759572 262.324454 
L 363.951238 257.669138 
L 367.807954 252.732766 
L 371.310932 247.539388 
L 374.443104 242.114306 
L 377.189213 236.483949 
L 379.535878 230.675749 
L 381.471667 224.718002 
L 382.98715 218.639735 
L 384.074942 212.470558 
L 384.729744 206.24053 
L 384.948367 199.98 
L 384.948367 199.98 
" style="fill:none;stroke:#ffffff;stroke-linecap:round;"/>
     </g>
     <g id="text_11">
      <!-- 0.15 -->
      <g style="fill:#262626;" transform="translate(378.116679 163.647287)scale(0.1 -0.1)">
       <use xlink:href="#ArialMT-48"/>
       <use x="55.615234" xlink:href="#ArialMT-46"/>
       <use x="83.398438" xlink:href="#ArialMT-49"/>
       <use x="139.013672" xlink:href="#ArialMT-53"/>
      </g>
     </g>
    </g>
    <g id="ytick_4">
     <g id="line2d_12">
      <path clip-path="url(#pf773611667)" d="M 414.864489 199.98 
L 414.791593 195.80377 
L 414.572992 191.632627 
L 414.208954 187.471655 
L 413.699922 183.325922 
L 413.046516 179.20048 
L 412.249533 175.100354 
L 411.309942 171.03054 
L 410.22889 166.995997 
L 409.007692 163.001639 
L 407.647837 159.052334 
L 406.150982 155.152893 
L 404.51895 151.308067 
L 402.75373 147.522541 
L 400.857472 143.800925 
L 398.832487 140.147756 
L 396.681242 136.567482 
L 394.406357 133.064467 
L 392.010605 129.642978 
L 389.496904 126.307184 
L 386.868317 123.061149 
L 384.128046 119.908828 
L 381.27943 116.854061 
L 378.325939 113.90057 
L 375.271172 111.051954 
L 372.118851 108.311683 
L 368.872816 105.683096 
L 365.537022 103.169395 
L 362.115533 100.773643 
L 358.612518 98.498758 
L 355.032244 96.347513 
L 351.379075 94.322528 
L 347.657459 92.42627 
L 343.871933 90.66105 
L 340.027107 89.029018 
L 336.127666 87.532163 
L 332.178361 86.172308 
L 328.184003 84.95111 
L 324.14946 83.870058 
L 320.079646 82.930467 
L 315.97952 82.133484 
L 311.854078 81.480078 
L 307.708345 80.971046 
L 303.547373 80.607008 
L 299.37623 80.388407 
L 295.2 80.315511 
L 291.02377 80.388407 
L 286.852627 80.607008 
L 282.691655 80.971046 
L 278.545922 81.480078 
L 274.42048 82.133484 
L 270.320354 82.930467 
L 266.25054 83.870058 
L 262.215997 84.95111 
L 258.221639 86.172308 
L 254.272334 87.532163 
L 250.372893 89.029018 
L 246.528067 90.66105 
L 242.742541 92.42627 
L 239.020925 94.322528 
L 235.367756 96.347513 
L 231.787482 98.498758 
L 228.284467 100.773643 
L 224.862978 103.169395 
L 221.527184 105.683096 
L 218.281149 108.311683 
L 215.128828 111.051954 
L 212.074061 113.90057 
L 209.12057 116.854061 
L 206.271954 119.908828 
L 203.531683 123.061149 
L 200.903096 126.307184 
L 198.389395 129.642978 
L 195.993643 133.064467 
L 193.718758 136.567482 
L 191.567513 140.147756 
L 189.542528 143.800925 
L 187.64627 147.522541 
L 185.88105 151.308067 
L 184.249018 155.152893 
L 182.752163 159.052334 
L 181.392308 163.001639 
L 180.17111 166.995997 
L 179.090058 171.03054 
L 178.150467 175.100354 
L 177.353484 179.20048 
L 176.700078 183.325922 
L 176.191046 187.471655 
L 175.827008 191.632627 
L 175.608407 195.80377 
L 175.535511 199.98 
L 175.608407 204.15623 
L 175.827008 208.327373 
L 176.191046 212.488345 
L 176.700078 216.634078 
L 177.353484 220.75952 
L 178.150467 224.859646 
L 179.090058 228.92946 
L 180.17111 232.964003 
L 181.392308 236.958361 
L 182.752163 240.907666 
L 184.249018 244.807107 
L 185.88105 248.651933 
L 187.64627 252.437459 
L 189.542528 256.159075 
L 191.567513 259.812244 
L 193.718758 263.392518 
L 195.993643 266.895533 
L 198.389395 270.317022 
L 200.903096 273.652816 
L 203.531683 276.898851 
L 206.271954 280.051172 
L 209.12057 283.105939 
L 212.074061 286.05943 
L 215.128828 288.908046 
L 218.281149 291.648317 
L 221.527184 294.276904 
L 224.862978 296.790605 
L 228.284467 299.186357 
L 231.787482 301.461242 
L 235.367756 303.612487 
L 239.020925 305.637472 
L 242.742541 307.53373 
L 246.528067 309.29895 
L 250.372893 310.930982 
L 254.272334 312.427837 
L 258.221639 313.787692 
L 262.215997 315.00889 
L 266.25054 316.089942 
L 270.320354 317.029533 
L 274.42048 317.826516 
L 278.545922 318.479922 
L 282.691655 318.988954 
L 286.852627 319.352992 
L 291.02377 319.571593 
L 295.2 319.644489 
L 299.37623 319.571593 
L 303.547373 319.352992 
L 307.708345 318.988954 
L 311.854078 318.479922 
L 315.97952 317.826516 
L 320.079646 317.029533 
L 324.14946 316.089942 
L 328.184003 315.00889 
L 332.178361 313.787692 
L 336.127666 312.427837 
L 340.027107 310.930982 
L 343.871933 309.29895 
L 347.657459 307.53373 
L 351.379075 305.637472 
L 355.032244 303.612487 
L 358.612518 301.461242 
L 362.115533 299.186357 
L 365.537022 296.790605 
L 368.872816 294.276904 
L 372.118851 291.648317 
L 375.271172 288.908046 
L 378.325939 286.05943 
L 381.27943 283.105939 
L 384.128046 280.051172 
L 386.868317 276.898851 
L 389.496904 273.652816 
L 392.010605 270.317022 
L 394.406357 266.895533 
L 396.681242 263.392518 
L 398.832487 259.812244 
L 400.857472 256.159075 
L 402.75373 252.437459 
L 404.51895 248.651933 
L 406.150982 244.807107 
L 407.647837 240.907666 
L 409.007692 236.958361 
L 410.22889 232.964003 
L 411.309942 228.92946 
L 412.249533 224.859646 
L 413.046516 220.75952 
L 413.699922 216.634078 
L 414.208954 212.488345 
L 414.572992 208.327373 
L 414.791593 204.15623 
L 414.864489 199.98 
L 414.864489 199.98 
" style="fill:none;stroke:#ffffff;stroke-linecap:round;"/>
     </g>
     <g id="text_12">
      <!-- 0.20 -->
      <g style="fill:#262626;" transform="translate(405.755572 152.198883)scale(0.1 -0.1)">
       <use xlink:href="#ArialMT-48"/>
       <use x="55.615234" xlink:href="#ArialMT-46"/>
       <use x="83.398438" xlink:href="#ArialMT-50"/>
       <use x="139.013672" xlink:href="#ArialMT-48"/>
      </g>
     </g>
    </g>
    <g id="ytick_5">
     <g id="line2d_13">
      <path clip-path="url(#pf773611667)" d="M 444.780611 199.98 
L 444.689491 194.759712 
L 444.41624 189.545784 
L 443.961193 184.344569 
L 443.324903 179.162403 
L 442.508146 174.005599 
L 441.511916 168.880442 
L 440.337428 163.793175 
L 438.986112 158.749996 
L 437.459615 153.757049 
L 435.759797 148.820418 
L 433.888728 143.946117 
L 431.848688 139.140084 
L 429.642163 134.408176 
L 427.271841 129.756157 
L 424.740609 125.189694 
L 422.051553 120.714353 
L 419.207947 116.335584 
L 416.213256 112.058723 
L 413.07113 107.88898 
L 409.785396 103.831436 
L 406.360057 99.891035 
L 402.799287 96.072576 
L 399.107424 92.380713 
L 395.288965 88.819943 
L 391.348564 85.394604 
L 387.29102 82.10887 
L 383.121277 78.966744 
L 378.844416 75.972053 
L 374.465647 73.128447 
L 369.990306 70.439391 
L 365.423843 67.908159 
L 360.771824 65.537837 
L 356.039916 63.331312 
L 351.233883 61.291272 
L 346.359582 59.420203 
L 341.422951 57.720385 
L 336.430004 56.193888 
L 331.386825 54.842572 
L 326.299558 53.668084 
L 321.174401 52.671854 
L 316.017597 51.855097 
L 310.835431 51.218807 
L 305.634216 50.76376 
L 300.420288 50.490509 
L 295.2 50.399389 
L 289.979712 50.490509 
L 284.765784 50.76376 
L 279.564569 51.218807 
L 274.382403 51.855097 
L 269.225599 52.671854 
L 264.100442 53.668084 
L 259.013175 54.842572 
L 253.969996 56.193888 
L 248.977049 57.720385 
L 244.040418 59.420203 
L 239.166117 61.291272 
L 234.360084 63.331312 
L 229.628176 65.537837 
L 224.976157 67.908159 
L 220.409694 70.439391 
L 215.934353 73.128447 
L 211.555584 75.972053 
L 207.278723 78.966744 
L 203.10898 82.10887 
L 199.051436 85.394604 
L 195.111035 88.819943 
L 191.292576 92.380713 
L 187.600713 96.072576 
L 184.039943 99.891035 
L 180.614604 103.831436 
L 177.32887 107.88898 
L 174.186744 112.058723 
L 171.192053 116.335584 
L 168.348447 120.714353 
L 165.659391 125.189694 
L 163.128159 129.756157 
L 160.757837 134.408176 
L 158.551312 139.140084 
L 156.511272 143.946117 
L 154.640203 148.820418 
L 152.940385 153.757049 
L 151.413888 158.749996 
L 150.062572 163.793175 
L 148.888084 168.880442 
L 147.891854 174.005599 
L 147.075097 179.162403 
L 146.438807 184.344569 
L 145.98376 189.545784 
L 145.710509 194.759712 
L 145.619389 199.98 
L 145.710509 205.200288 
L 145.98376 210.414216 
L 146.438807 215.615431 
L 147.075097 220.797597 
L 147.891854 225.954401 
L 148.888084 231.079558 
L 150.062572 236.166825 
L 151.413888 241.210004 
L 152.940385 246.202951 
L 154.640203 251.139582 
L 156.511272 256.013883 
L 158.551312 260.819916 
L 160.757837 265.551824 
L 163.128159 270.203843 
L 165.659391 274.770306 
L 168.348447 279.245647 
L 171.192053 283.624416 
L 174.186744 287.901277 
L 177.32887 292.07102 
L 180.614604 296.128564 
L 184.039943 300.068965 
L 187.600713 303.887424 
L 191.292576 307.579287 
L 195.111035 311.140057 
L 199.051436 314.565396 
L 203.10898 317.85113 
L 207.278723 320.993256 
L 211.555584 323.987947 
L 215.934353 326.831553 
L 220.409694 329.520609 
L 224.976157 332.051841 
L 229.628176 334.422163 
L 234.360084 336.628688 
L 239.166117 338.668728 
L 244.040418 340.539797 
L 248.977049 342.239615 
L 253.969996 343.766112 
L 259.013175 345.117428 
L 264.100442 346.291916 
L 269.225599 347.288146 
L 274.382403 348.104903 
L 279.564569 348.741193 
L 284.765784 349.19624 
L 289.979712 349.469491 
L 295.2 349.560611 
L 300.420288 349.469491 
L 305.634216 349.19624 
L 310.835431 348.741193 
L 316.017597 348.104903 
L 321.174401 347.288146 
L 326.299558 346.291916 
L 331.386825 345.117428 
L 336.430004 343.766112 
L 341.422951 342.239615 
L 346.359582 340.539797 
L 351.233883 338.668728 
L 356.039916 336.628688 
L 360.771824 334.422163 
L 365.423843 332.051841 
L 369.990306 329.520609 
L 374.465647 326.831553 
L 378.844416 323.987947 
L 383.121277 320.993256 
L 387.29102 317.85113 
L 391.348564 314.565396 
L 395.288965 311.140057 
L 399.107424 307.579287 
L 402.799287 303.887424 
L 406.360057 300.068965 
L 409.785396 296.128564 
L 413.07113 292.07102 
L 416.213256 287.901277 
L 419.207947 283.624416 
L 422.051553 279.245647 
L 424.740609 274.770306 
L 427.271841 270.203843 
L 429.642163 265.551824 
L 431.848688 260.819916 
L 433.888728 256.013883 
L 435.759797 251.139582 
L 437.459615 246.202951 
L 438.986112 241.210004 
L 440.337428 236.166825 
L 441.511916 231.079558 
L 442.508146 225.954401 
L 443.324903 220.797597 
L 443.961193 215.615431 
L 444.41624 210.414216 
L 444.689491 205.200288 
L 444.780611 199.98 
L 444.780611 199.98 
" style="fill:none;stroke:#ffffff;stroke-linecap:round;"/>
     </g>
     <g id="text_13">
      <!-- 0.25 -->
      <g style="fill:#262626;" transform="translate(433.394465 140.750478)scale(0.1 -0.1)">
       <use xlink:href="#ArialMT-48"/>
       <use x="55.615234" xlink:href="#ArialMT-46"/>
       <use x="83.398438" xlink:href="#ArialMT-50"/>
       <use x="139.013672" xlink:href="#ArialMT-53"/>
      </g>
     </g>
    </g>
   </g>
   <g id="PathCollection_1">
    <defs>
     <path d="M 0 3.5 
C 0.928211 3.5 1.81853 3.131218 2.474874 2.474874 
C 3.131218 1.81853 3.5 0.928211 3.5 0 
C 3.5 -0.928211 3.131218 -1.81853 2.474874 -2.474874 
C 1.81853 -3.131218 0.928211 -3.5 0 -3.5 
C -0.928211 -3.5 -1.81853 -3.131218 -2.474874 -2.474874 
C -3.131218 -1.81853 -3.5 -0.928211 -3.5 0 
C -3.5 0.928211 -3.131218 1.81853 -2.474874 2.474874 
C -1.81853 3.131218 -0.928211 3.5 0 3.5 
z
" id="m51835e6025" style="stroke:#4c72b0;stroke-width:0.3;"/>
    </defs>
    <g clip-path="url(#pf773611667)">
     <use style="fill:#4c72b0;stroke:#4c72b0;stroke-width:0.3;" x="319.811634" xlink:href="#m51835e6025" y="201.545734"/>
     <use style="fill:#4c72b0;stroke:#4c72b0;stroke-width:0.3;" x="336.092993" xlink:href="#m51835e6025" y="198.227327"/>
     <use style="fill:#4c72b0;stroke:#4c72b0;stroke-width:0.3;" x="345.792008" xlink:href="#m51835e6025" y="197.230409"/>
     <use style="fill:#4c72b0;stroke:#4c72b0;stroke-width:0.3;" x="328.939493" xlink:href="#m51835e6025" y="200.875569"/>
     <use style="fill:#4c72b0;stroke:#4c72b0;stroke-width:0.3;" x="292.372059" xlink:href="#m51835e6025" y="200.968373"/>
     <use style="fill:#4c72b0;stroke:#4c72b0;stroke-width:0.3;" x="290.641583" xlink:href="#m51835e6025" y="200.184883"/>
     <use style="fill:#4c72b0;stroke:#4c72b0;stroke-width:0.3;" x="325.689061" xlink:href="#m51835e6025" y="199.630683"/>
     <use style="fill:#4c72b0;stroke:#4c72b0;stroke-width:0.3;" x="337.009142" xlink:href="#m51835e6025" y="195.603468"/>
     <use style="fill:#4c72b0;stroke:#4c72b0;stroke-width:0.3;" x="341.722875" xlink:href="#m51835e6025" y="196.600754"/>
     <use style="fill:#4c72b0;stroke:#4c72b0;stroke-width:0.3;" x="345.961798" xlink:href="#m51835e6025" y="197.476946"/>
     <use style="fill:#4c72b0;stroke:#4c72b0;stroke-width:0.3;" x="341.912781" xlink:href="#m51835e6025" y="196.754791"/>
     <use style="fill:#4c72b0;stroke:#4c72b0;stroke-width:0.3;" x="335.889915" xlink:href="#m51835e6025" y="197.8214"/>
     <use style="fill:#4c72b0;stroke:#4c72b0;stroke-width:0.3;" x="308.928293" xlink:href="#m51835e6025" y="201.302525"/>
     <use style="fill:#4c72b0;stroke:#4c72b0;stroke-width:0.3;" x="328.559396" xlink:href="#m51835e6025" y="198.699221"/>
     <use style="fill:#4c72b0;stroke:#4c72b0;stroke-width:0.3;" x="321.823556" xlink:href="#m51835e6025" y="197.329241"/>
     <use style="fill:#4c72b0;stroke:#4c72b0;stroke-width:0.3;" x="343.784931" xlink:href="#m51835e6025" y="196.044344"/>
     <use style="fill:#4c72b0;stroke:#4c72b0;stroke-width:0.3;" x="364.446914" xlink:href="#m51835e6025" y="194.6748"/>
     <use style="fill:#4c72b0;stroke:#4c72b0;stroke-width:0.3;" x="294.778428" xlink:href="#m51835e6025" y="197.078252"/>
     <use style="fill:#4c72b0;stroke:#4c72b0;stroke-width:0.3;" x="296.088267" xlink:href="#m51835e6025" y="195.057276"/>
     <use style="fill:#4c72b0;stroke:#4c72b0;stroke-width:0.3;" x="320.673868" xlink:href="#m51835e6025" y="195.80189"/>
     <use style="fill:#4c72b0;stroke:#4c72b0;stroke-width:0.3;" x="374.040907" xlink:href="#m51835e6025" y="195.355665"/>
     <use style="fill:#4c72b0;stroke:#4c72b0;stroke-width:0.3;" x="360.906422" xlink:href="#m51835e6025" y="198.170178"/>
     <use style="fill:#4c72b0;stroke:#4c72b0;stroke-width:0.3;" x="354.341347" xlink:href="#m51835e6025" y="195.081308"/>
     <use style="fill:#4c72b0;stroke:#4c72b0;stroke-width:0.3;" x="338.542237" xlink:href="#m51835e6025" y="197.304398"/>
    </g>
   </g>
   <g id="PathCollection_2">
    <defs>
     <path d="M 0 3.5 
C 0.928211 3.5 1.81853 3.131218 2.474874 2.474874 
C 3.131218 1.81853 3.5 0.928211 3.5 0 
C 3.5 -0.928211 3.131218 -1.81853 2.474874 -2.474874 
C 1.81853 -3.131218 0.928211 -3.5 0 -3.5 
C -0.928211 -3.5 -1.81853 -3.131218 -2.474874 -2.474874 
C -3.131218 -1.81853 -3.5 -0.928211 -3.5 0 
C -3.5 0.928211 -3.131218 1.81853 -2.474874 2.474874 
C -1.81853 3.131218 -0.928211 3.5 0 3.5 
z
" id="m89055376ad" style="stroke:#55a868;stroke-width:0.3;"/>
    </defs>
    <g clip-path="url(#pf773611667)">
     <use style="fill:#55a868;stroke:#55a868;stroke-width:0.3;" x="325.47726" xlink:href="#m89055376ad" y="202.502519"/>
     <use style="fill:#55a868;stroke:#55a868;stroke-width:0.3;" x="351.601657" xlink:href="#m89055376ad" y="201.339436"/>
     <use style="fill:#55a868;stroke:#55a868;stroke-width:0.3;" x="325.137902" xlink:href="#m89055376ad" y="200.765192"/>
     <use style="fill:#55a868;stroke:#55a868;stroke-width:0.3;" x="308.210482" xlink:href="#m89055376ad" y="201.134592"/>
     <use style="fill:#55a868;stroke:#55a868;stroke-width:0.3;" x="329.381014" xlink:href="#m89055376ad" y="203.567017"/>
     <use style="fill:#55a868;stroke:#55a868;stroke-width:0.3;" x="300.512811" xlink:href="#m89055376ad" y="207.329254"/>
     <use style="fill:#55a868;stroke:#55a868;stroke-width:0.3;" x="331.791468" xlink:href="#m89055376ad" y="206.179779"/>
     <use style="fill:#55a868;stroke:#55a868;stroke-width:0.3;" x="338.033095" xlink:href="#m89055376ad" y="206.764731"/>
     <use style="fill:#55a868;stroke:#55a868;stroke-width:0.3;" x="320.278902" xlink:href="#m89055376ad" y="207.191662"/>
     <use style="fill:#55a868;stroke:#55a868;stroke-width:0.3;" x="356.554942" xlink:href="#m89055376ad" y="203.466908"/>
     <use style="fill:#55a868;stroke:#55a868;stroke-width:0.3;" x="314.201035" xlink:href="#m89055376ad" y="202.341013"/>
     <use style="fill:#55a868;stroke:#55a868;stroke-width:0.3;" x="329.942483" xlink:href="#m89055376ad" y="201.927673"/>
     <use style="fill:#55a868;stroke:#55a868;stroke-width:0.3;" x="327.395601" xlink:href="#m89055376ad" y="201.567923"/>
     <use style="fill:#55a868;stroke:#55a868;stroke-width:0.3;" x="383.390405" xlink:href="#m89055376ad" y="197.857941"/>
     <use style="fill:#55a868;stroke:#55a868;stroke-width:0.3;" x="338.887088" xlink:href="#m89055376ad" y="196.842607"/>
     <use style="fill:#55a868;stroke:#55a868;stroke-width:0.3;" x="320.434053" xlink:href="#m89055376ad" y="194.729266"/>
     <use style="fill:#55a868;stroke:#55a868;stroke-width:0.3;" x="361.614348" xlink:href="#m89055376ad" y="192.170277"/>
     <use style="fill:#55a868;stroke:#55a868;stroke-width:0.3;" x="390.084915" xlink:href="#m89055376ad" y="187.891242"/>
     <use style="fill:#55a868;stroke:#55a868;stroke-width:0.3;" x="370.665358" xlink:href="#m89055376ad" y="184.025572"/>
     <use style="fill:#55a868;stroke:#55a868;stroke-width:0.3;" x="420.964563" xlink:href="#m89055376ad" y="181.397758"/>
     <use style="fill:#55a868;stroke:#55a868;stroke-width:0.3;" x="397.293121" xlink:href="#m89055376ad" y="183.712488"/>
     <use style="fill:#55a868;stroke:#55a868;stroke-width:0.3;" x="439.735364" xlink:href="#m89055376ad" y="186.103093"/>
     <use style="fill:#55a868;stroke:#55a868;stroke-width:0.3;" x="383.611554" xlink:href="#m89055376ad" y="188.448809"/>
     <use style="fill:#55a868;stroke:#55a868;stroke-width:0.3;" x="379.301247" xlink:href="#m89055376ad" y="188.035311"/>
    </g>
   </g>
   <g id="PathCollection_3">
    <defs>
     <path d="M 0 3.5 
C 0.928211 3.5 1.81853 3.131218 2.474874 2.474874 
C 3.131218 1.81853 3.5 0.928211 3.5 0 
C 3.5 -0.928211 3.131218 -1.81853 2.474874 -2.474874 
C 1.81853 -3.131218 0.928211 -3.5 0 -3.5 
C -0.928211 -3.5 -1.81853 -3.131218 -2.474874 -2.474874 
C -3.131218 -1.81853 -3.5 -0.928211 -3.5 0 
C -3.5 0.928211 -3.131218 1.81853 -2.474874 2.474874 
C -1.81853 3.131218 -0.928211 3.5 0 3.5 
z
" id="m148125f9bc" style="stroke:#c44e52;stroke-width:0.3;"/>
    </defs>
    <g clip-path="url(#pf773611667)">
     <use style="fill:#c44e52;stroke:#c44e52;stroke-width:0.3;" x="368.334348" xlink:href="#m148125f9bc" y="184.79127"/>
     <use style="fill:#c44e52;stroke:#c44e52;stroke-width:0.3;" x="392.299066" xlink:href="#m148125f9bc" y="187.200923"/>
     <use style="fill:#c44e52;stroke:#c44e52;stroke-width:0.3;" x="395.241768" xlink:href="#m148125f9bc" y="189.017512"/>
     <use style="fill:#c44e52;stroke:#c44e52;stroke-width:0.3;" x="399.277298" xlink:href="#m148125f9bc" y="189.784372"/>
     <use style="fill:#c44e52;stroke:#c44e52;stroke-width:0.3;" x="377.405902" xlink:href="#m148125f9bc" y="192.657451"/>
     <use style="fill:#c44e52;stroke:#c44e52;stroke-width:0.3;" x="354.294817" xlink:href="#m148125f9bc" y="192.812337"/>
     <use style="fill:#c44e52;stroke:#c44e52;stroke-width:0.3;" x="257.039462" xlink:href="#m148125f9bc" y="199.417222"/>
     <use style="fill:#c44e52;stroke:#c44e52;stroke-width:0.3;" x="297.796538" xlink:href="#m148125f9bc" y="207.069013"/>
     <use style="fill:#c44e52;stroke:#c44e52;stroke-width:0.3;" x="271.835736" xlink:href="#m148125f9bc" y="214.66566"/>
     <use style="fill:#c44e52;stroke:#c44e52;stroke-width:0.3;" x="269.568606" xlink:href="#m148125f9bc" y="219.116857"/>
     <use style="fill:#c44e52;stroke:#c44e52;stroke-width:0.3;" x="220.997834" xlink:href="#m148125f9bc" y="217.534381"/>
     <use style="fill:#c44e52;stroke:#c44e52;stroke-width:0.3;" x="275.339814" xlink:href="#m148125f9bc" y="216.495797"/>
     <use style="fill:#c44e52;stroke:#c44e52;stroke-width:0.3;" x="298.756048" xlink:href="#m148125f9bc" y="222.973642"/>
     <use style="fill:#c44e52;stroke:#c44e52;stroke-width:0.3;" x="306.748267" xlink:href="#m148125f9bc" y="222.926401"/>
     <use style="fill:#c44e52;stroke:#c44e52;stroke-width:0.3;" x="281.157743" xlink:href="#m148125f9bc" y="216.880594"/>
     <use style="fill:#c44e52;stroke:#c44e52;stroke-width:0.3;" x="273.409722" xlink:href="#m148125f9bc" y="214.044865"/>
     <use style="fill:#c44e52;stroke:#c44e52;stroke-width:0.3;" x="287.942673" xlink:href="#m148125f9bc" y="210.481145"/>
     <use style="fill:#c44e52;stroke:#c44e52;stroke-width:0.3;" x="282.383518" xlink:href="#m148125f9bc" y="209.953578"/>
     <use style="fill:#c44e52;stroke:#c44e52;stroke-width:0.3;" x="274.804622" xlink:href="#m148125f9bc" y="206.322602"/>
     <use style="fill:#c44e52;stroke:#c44e52;stroke-width:0.3;" x="289.282478" xlink:href="#m148125f9bc" y="202.376405"/>
     <use style="fill:#c44e52;stroke:#c44e52;stroke-width:0.3;" x="278.458335" xlink:href="#m148125f9bc" y="201.723424"/>
     <use style="fill:#c44e52;stroke:#c44e52;stroke-width:0.3;" x="282.390826" xlink:href="#m148125f9bc" y="197.240195"/>
     <use style="fill:#c44e52;stroke:#c44e52;stroke-width:0.3;" x="285.507567" xlink:href="#m148125f9bc" y="192.718094"/>
     <use style="fill:#c44e52;stroke:#c44e52;stroke-width:0.3;" x="282.860043" xlink:href="#m148125f9bc" y="190.523261"/>
    </g>
   </g>
   <g id="line2d_14">
    <path clip-path="url(#pf773611667)" d="M 295.2 199.98 
L 440.396457 200.994336 
" style="fill:none;stroke:#ff0000;stroke-dasharray:7.4,3.2;stroke-dashoffset:0;stroke-width:2;"/>
   </g>
   <g id="patch_3">
    <path d="M 447.66 199.98 
C 447.66 179.959136 443.716326 160.13295 436.054674 141.636084 
C 428.393021 123.139218 417.162388 106.331389 403.0055 92.1745 
C 388.848611 78.017612 372.040782 66.786979 353.543916 59.125326 
C 335.04705 51.463674 315.220864 47.52 295.2 47.52 
C 275.179136 47.52 255.35295 51.463674 236.856084 59.125326 
C 218.359218 66.786979 201.551389 78.017612 187.3945 92.1745 
C 173.237612 106.331389 162.006979 123.139218 154.345326 141.636084 
C 146.683674 160.13295 142.74 179.959136 142.74 199.98 
C 142.74 220.000864 146.683674 239.82705 154.345326 258.323916 
C 162.006979 276.820782 173.237612 293.628611 187.3945 307.7855 
C 201.551389 321.942388 218.359218 333.173021 236.856084 340.834674 
C 255.35295 348.496326 275.179136 352.44 295.2 352.44 
C 315.220864 352.44 335.04705 348.496326 353.543916 340.834674 
C 372.040782 333.173021 388.848611 321.942388 403.0055 307.7855 
C 417.162388 293.628611 428.393021 276.820782 436.054674 258.323916 
C 443.716326 239.82705 447.66 220.000864 447.66 199.98 
" style="fill:none;"/>
   </g>
   <g id="text_14">
    <!-- Distribution of projected eye movement velocity on the screen - NewVglut3_3_32 -->
    <defs>
     <path d="M 7.71875 0 
L 7.71875 71.578125 
L 32.375 71.578125 
Q 40.71875 71.578125 45.125 70.5625 
Q 51.265625 69.140625 55.609375 65.4375 
Q 61.28125 60.640625 64.078125 53.1875 
Q 66.890625 45.75 66.890625 36.1875 
Q 66.890625 28.03125 64.984375 21.734375 
Q 63.09375 15.4375 60.109375 11.296875 
Q 57.125 7.171875 53.578125 4.796875 
Q 50.046875 2.4375 45.046875 1.21875 
Q 40.046875 0 33.546875 0 
z
M 17.1875 8.453125 
L 32.46875 8.453125 
Q 39.546875 8.453125 43.578125 9.765625 
Q 47.609375 11.078125 50 13.484375 
Q 53.375 16.84375 55.25 22.53125 
Q 57.125 28.21875 57.125 36.328125 
Q 57.125 47.5625 53.4375 53.59375 
Q 49.75 59.625 44.484375 61.671875 
Q 40.671875 63.140625 32.234375 63.140625 
L 17.1875 63.140625 
z
" id="ArialMT-68"/>
     <path d="M 6.640625 61.46875 
L 6.640625 71.578125 
L 15.4375 71.578125 
L 15.4375 61.46875 
z
M 6.640625 0 
L 6.640625 51.859375 
L 15.4375 51.859375 
L 15.4375 0 
z
" id="ArialMT-105"/>
     <path d="M 3.078125 15.484375 
L 11.765625 16.84375 
Q 12.5 11.625 15.84375 8.84375 
Q 19.1875 6.0625 25.203125 6.0625 
Q 31.25 6.0625 34.171875 8.515625 
Q 37.109375 10.984375 37.109375 14.3125 
Q 37.109375 17.28125 34.515625 19 
Q 32.71875 20.171875 25.53125 21.96875 
Q 15.875 24.421875 12.140625 26.203125 
Q 8.40625 27.984375 6.46875 31.125 
Q 4.546875 34.28125 4.546875 38.09375 
Q 4.546875 41.546875 6.125 44.5 
Q 7.71875 47.46875 10.453125 49.421875 
Q 12.5 50.921875 16.03125 51.96875 
Q 19.578125 53.03125 23.640625 53.03125 
Q 29.734375 53.03125 34.34375 51.265625 
Q 38.96875 49.515625 41.15625 46.5 
Q 43.359375 43.5 44.1875 38.484375 
L 35.59375 37.3125 
Q 35.015625 41.3125 32.203125 43.546875 
Q 29.390625 45.796875 24.265625 45.796875 
Q 18.21875 45.796875 15.625 43.796875 
Q 13.03125 41.796875 13.03125 39.109375 
Q 13.03125 37.40625 14.109375 36.03125 
Q 15.1875 34.625 17.484375 33.6875 
Q 18.796875 33.203125 25.25 31.453125 
Q 34.578125 28.953125 38.25 27.359375 
Q 41.9375 25.78125 44.03125 22.75 
Q 46.140625 19.734375 46.140625 15.234375 
Q 46.140625 10.84375 43.578125 6.953125 
Q 41.015625 3.078125 36.171875 0.953125 
Q 31.34375 -1.171875 25.25 -1.171875 
Q 15.140625 -1.171875 9.84375 3.03125 
Q 4.546875 7.234375 3.078125 15.484375 
z
" id="ArialMT-115"/>
     <path d="M 25.78125 7.859375 
L 27.046875 0.09375 
Q 23.34375 -0.6875 20.40625 -0.6875 
Q 15.625 -0.6875 12.984375 0.828125 
Q 10.359375 2.34375 9.28125 4.8125 
Q 8.203125 7.28125 8.203125 15.1875 
L 8.203125 45.015625 
L 1.765625 45.015625 
L 1.765625 51.859375 
L 8.203125 51.859375 
L 8.203125 64.703125 
L 16.9375 69.96875 
L 16.9375 51.859375 
L 25.78125 51.859375 
L 25.78125 45.015625 
L 16.9375 45.015625 
L 16.9375 14.703125 
Q 16.9375 10.9375 17.40625 9.859375 
Q 17.875 8.796875 18.921875 8.15625 
Q 19.96875 7.515625 21.921875 7.515625 
Q 23.390625 7.515625 25.78125 7.859375 
z
" id="ArialMT-116"/>
     <path d="M 6.5 0 
L 6.5 51.859375 
L 14.40625 51.859375 
L 14.40625 44 
Q 17.4375 49.515625 20 51.265625 
Q 22.5625 53.03125 25.640625 53.03125 
Q 30.078125 53.03125 34.671875 50.203125 
L 31.640625 42.046875 
Q 28.421875 43.953125 25.203125 43.953125 
Q 22.3125 43.953125 20.015625 42.21875 
Q 17.71875 40.484375 16.75 37.40625 
Q 15.28125 32.71875 15.28125 27.15625 
L 15.28125 0 
z
" id="ArialMT-114"/>
     <path d="M 14.703125 0 
L 6.546875 0 
L 6.546875 71.578125 
L 15.328125 71.578125 
L 15.328125 46.046875 
Q 20.90625 53.03125 29.546875 53.03125 
Q 34.328125 53.03125 38.59375 51.09375 
Q 42.875 49.171875 45.625 45.671875 
Q 48.390625 42.1875 49.953125 37.25 
Q 51.515625 32.328125 51.515625 26.703125 
Q 51.515625 13.375 44.921875 6.09375 
Q 38.328125 -1.171875 29.109375 -1.171875 
Q 19.921875 -1.171875 14.703125 6.5 
z
M 14.59375 26.3125 
Q 14.59375 17 17.140625 12.84375 
Q 21.296875 6.0625 28.375 6.0625 
Q 34.125 6.0625 38.328125 11.0625 
Q 42.53125 16.0625 42.53125 25.984375 
Q 42.53125 36.140625 38.5 40.96875 
Q 34.46875 45.796875 28.765625 45.796875 
Q 23 45.796875 18.796875 40.796875 
Q 14.59375 35.796875 14.59375 26.3125 
z
" id="ArialMT-98"/>
     <path d="M 40.578125 0 
L 40.578125 7.625 
Q 34.515625 -1.171875 24.125 -1.171875 
Q 19.53125 -1.171875 15.546875 0.578125 
Q 11.578125 2.34375 9.640625 5 
Q 7.71875 7.671875 6.9375 11.53125 
Q 6.390625 14.109375 6.390625 19.734375 
L 6.390625 51.859375 
L 15.1875 51.859375 
L 15.1875 23.09375 
Q 15.1875 16.21875 15.71875 13.8125 
Q 16.546875 10.359375 19.234375 8.375 
Q 21.921875 6.390625 25.875 6.390625 
Q 29.828125 6.390625 33.296875 8.421875 
Q 36.765625 10.453125 38.203125 13.9375 
Q 39.65625 17.4375 39.65625 24.078125 
L 39.65625 51.859375 
L 48.4375 51.859375 
L 48.4375 0 
z
" id="ArialMT-117"/>
     <path d="M 3.328125 25.921875 
Q 3.328125 40.328125 11.328125 47.265625 
Q 18.015625 53.03125 27.640625 53.03125 
Q 38.328125 53.03125 45.109375 46.015625 
Q 51.90625 39.015625 51.90625 26.65625 
Q 51.90625 16.65625 48.90625 10.90625 
Q 45.90625 5.171875 40.15625 2 
Q 34.421875 -1.171875 27.640625 -1.171875 
Q 16.75 -1.171875 10.03125 5.8125 
Q 3.328125 12.796875 3.328125 25.921875 
z
M 12.359375 25.921875 
Q 12.359375 15.96875 16.703125 11.015625 
Q 21.046875 6.0625 27.640625 6.0625 
Q 34.1875 6.0625 38.53125 11.03125 
Q 42.875 16.015625 42.875 26.21875 
Q 42.875 35.84375 38.5 40.796875 
Q 34.125 45.75 27.640625 45.75 
Q 21.046875 45.75 16.703125 40.8125 
Q 12.359375 35.890625 12.359375 25.921875 
z
" id="ArialMT-111"/>
     <path d="M 6.59375 0 
L 6.59375 51.859375 
L 14.5 51.859375 
L 14.5 44.484375 
Q 20.21875 53.03125 31 53.03125 
Q 35.6875 53.03125 39.625 51.34375 
Q 43.5625 49.65625 45.515625 46.921875 
Q 47.46875 44.1875 48.25 40.4375 
Q 48.734375 37.984375 48.734375 31.890625 
L 48.734375 0 
L 39.9375 0 
L 39.9375 31.546875 
Q 39.9375 36.921875 38.90625 39.578125 
Q 37.890625 42.234375 35.28125 43.8125 
Q 32.671875 45.40625 29.15625 45.40625 
Q 23.53125 45.40625 19.453125 41.84375 
Q 15.375 38.28125 15.375 28.328125 
L 15.375 0 
z
" id="ArialMT-110"/>
     <path id="ArialMT-32"/>
     <path d="M 8.6875 0 
L 8.6875 45.015625 
L 0.921875 45.015625 
L 0.921875 51.859375 
L 8.6875 51.859375 
L 8.6875 57.375 
Q 8.6875 62.59375 9.625 65.140625 
Q 10.890625 68.5625 14.078125 70.671875 
Q 17.28125 72.796875 23.046875 72.796875 
Q 26.765625 72.796875 31.25 71.921875 
L 29.9375 64.265625 
Q 27.203125 64.75 24.75 64.75 
Q 20.75 64.75 19.09375 63.03125 
Q 17.4375 61.328125 17.4375 56.640625 
L 17.4375 51.859375 
L 27.546875 51.859375 
L 27.546875 45.015625 
L 17.4375 45.015625 
L 17.4375 0 
z
" id="ArialMT-102"/>
     <path d="M 6.59375 -19.875 
L 6.59375 51.859375 
L 14.59375 51.859375 
L 14.59375 45.125 
Q 17.4375 49.078125 21 51.046875 
Q 24.5625 53.03125 29.640625 53.03125 
Q 36.28125 53.03125 41.359375 49.609375 
Q 46.4375 46.1875 49.015625 39.953125 
Q 51.609375 33.734375 51.609375 26.3125 
Q 51.609375 18.359375 48.75 11.984375 
Q 45.90625 5.609375 40.453125 2.21875 
Q 35.015625 -1.171875 29 -1.171875 
Q 24.609375 -1.171875 21.109375 0.6875 
Q 17.625 2.546875 15.375 5.375 
L 15.375 -19.875 
z
M 14.546875 25.640625 
Q 14.546875 15.625 18.59375 10.84375 
Q 22.65625 6.0625 28.421875 6.0625 
Q 34.28125 6.0625 38.453125 11.015625 
Q 42.625 15.96875 42.625 26.375 
Q 42.625 36.28125 38.546875 41.203125 
Q 34.46875 46.140625 28.8125 46.140625 
Q 23.1875 46.140625 18.859375 40.890625 
Q 14.546875 35.640625 14.546875 25.640625 
z
" id="ArialMT-112"/>
     <path d="M 6.546875 61.375 
L 6.546875 71.578125 
L 15.328125 71.578125 
L 15.328125 61.375 
z
M -4.59375 -20.125 
L -2.9375 -12.640625 
Q -0.296875 -13.328125 1.21875 -13.328125 
Q 3.90625 -13.328125 5.21875 -11.546875 
Q 6.546875 -9.765625 6.546875 -2.640625 
L 6.546875 51.859375 
L 15.328125 51.859375 
L 15.328125 -2.828125 
Q 15.328125 -12.40625 12.84375 -16.15625 
Q 9.671875 -21.046875 2.296875 -21.046875 
Q -1.265625 -21.046875 -4.59375 -20.125 
z
" id="ArialMT-106"/>
     <path d="M 42.09375 16.703125 
L 51.171875 15.578125 
Q 49.03125 7.625 43.21875 3.21875 
Q 37.40625 -1.171875 28.375 -1.171875 
Q 17 -1.171875 10.328125 5.828125 
Q 3.65625 12.84375 3.65625 25.484375 
Q 3.65625 38.578125 10.390625 45.796875 
Q 17.140625 53.03125 27.875 53.03125 
Q 38.28125 53.03125 44.875 45.953125 
Q 51.46875 38.875 51.46875 26.03125 
Q 51.46875 25.25 51.421875 23.6875 
L 12.75 23.6875 
Q 13.234375 15.140625 17.578125 10.59375 
Q 21.921875 6.0625 28.421875 6.0625 
Q 33.25 6.0625 36.671875 8.59375 
Q 40.09375 11.140625 42.09375 16.703125 
z
M 13.234375 30.90625 
L 42.1875 30.90625 
Q 41.609375 37.453125 38.875 40.71875 
Q 34.671875 45.796875 27.984375 45.796875 
Q 21.921875 45.796875 17.796875 41.75 
Q 13.671875 37.703125 13.234375 30.90625 
z
" id="ArialMT-101"/>
     <path d="M 40.4375 19 
L 49.078125 17.875 
Q 47.65625 8.9375 41.8125 3.875 
Q 35.984375 -1.171875 27.484375 -1.171875 
Q 16.84375 -1.171875 10.375 5.78125 
Q 3.90625 12.75 3.90625 25.734375 
Q 3.90625 34.125 6.6875 40.421875 
Q 9.46875 46.734375 15.15625 49.875 
Q 20.84375 53.03125 27.546875 53.03125 
Q 35.984375 53.03125 41.359375 48.75 
Q 46.734375 44.484375 48.25 36.625 
L 39.703125 35.296875 
Q 38.484375 40.53125 35.375 43.15625 
Q 32.28125 45.796875 27.875 45.796875 
Q 21.234375 45.796875 17.078125 41.03125 
Q 12.9375 36.28125 12.9375 25.984375 
Q 12.9375 15.53125 16.9375 10.796875 
Q 20.953125 6.0625 27.390625 6.0625 
Q 32.5625 6.0625 36.03125 9.234375 
Q 39.5 12.40625 40.4375 19 
z
" id="ArialMT-99"/>
     <path d="M 40.234375 0 
L 40.234375 6.546875 
Q 35.296875 -1.171875 25.734375 -1.171875 
Q 19.53125 -1.171875 14.328125 2.25 
Q 9.125 5.671875 6.265625 11.796875 
Q 3.421875 17.921875 3.421875 25.875 
Q 3.421875 33.640625 6 39.96875 
Q 8.59375 46.296875 13.765625 49.65625 
Q 18.953125 53.03125 25.34375 53.03125 
Q 30.03125 53.03125 33.6875 51.046875 
Q 37.359375 49.078125 39.65625 45.90625 
L 39.65625 71.578125 
L 48.390625 71.578125 
L 48.390625 0 
z
M 12.453125 25.875 
Q 12.453125 15.921875 16.640625 10.984375 
Q 20.84375 6.0625 26.5625 6.0625 
Q 32.328125 6.0625 36.34375 10.765625 
Q 40.375 15.484375 40.375 25.140625 
Q 40.375 35.796875 36.265625 40.765625 
Q 32.171875 45.75 26.171875 45.75 
Q 20.3125 45.75 16.375 40.96875 
Q 12.453125 36.1875 12.453125 25.875 
z
" id="ArialMT-100"/>
     <path d="M 6.203125 -19.96875 
L 5.21875 -11.71875 
Q 8.109375 -12.5 10.25 -12.5 
Q 13.1875 -12.5 14.9375 -11.515625 
Q 16.703125 -10.546875 17.828125 -8.796875 
Q 18.65625 -7.46875 20.515625 -2.25 
Q 20.75 -1.515625 21.296875 -0.09375 
L 1.609375 51.859375 
L 11.078125 51.859375 
L 21.875 21.828125 
Q 23.96875 16.109375 25.640625 9.8125 
Q 27.15625 15.875 29.25 21.625 
L 40.328125 51.859375 
L 49.125 51.859375 
L 29.390625 -0.875 
Q 26.21875 -9.421875 24.46875 -12.640625 
Q 22.125 -17 19.09375 -19.015625 
Q 16.0625 -21.046875 11.859375 -21.046875 
Q 9.328125 -21.046875 6.203125 -19.96875 
z
" id="ArialMT-121"/>
     <path d="M 6.59375 0 
L 6.59375 51.859375 
L 14.453125 51.859375 
L 14.453125 44.578125 
Q 16.890625 48.390625 20.9375 50.703125 
Q 25 53.03125 30.171875 53.03125 
Q 35.9375 53.03125 39.625 50.640625 
Q 43.3125 48.25 44.828125 43.953125 
Q 50.984375 53.03125 60.84375 53.03125 
Q 68.5625 53.03125 72.703125 48.75 
Q 76.859375 44.484375 76.859375 35.59375 
L 76.859375 0 
L 68.109375 0 
L 68.109375 32.671875 
Q 68.109375 37.9375 67.25 40.25 
Q 66.40625 42.578125 64.15625 43.984375 
Q 61.921875 45.40625 58.890625 45.40625 
Q 53.421875 45.40625 49.796875 41.765625 
Q 46.1875 38.140625 46.1875 30.125 
L 46.1875 0 
L 37.40625 0 
L 37.40625 33.6875 
Q 37.40625 39.546875 35.25 42.46875 
Q 33.109375 45.40625 28.21875 45.40625 
Q 24.515625 45.40625 21.359375 43.453125 
Q 18.21875 41.5 16.796875 37.734375 
Q 15.375 33.984375 15.375 26.90625 
L 15.375 0 
z
" id="ArialMT-109"/>
     <path d="M 21 0 
L 1.265625 51.859375 
L 10.546875 51.859375 
L 21.6875 20.796875 
Q 23.484375 15.765625 25 10.359375 
Q 26.171875 14.453125 28.265625 20.21875 
L 39.796875 51.859375 
L 48.828125 51.859375 
L 29.203125 0 
z
" id="ArialMT-118"/>
     <path d="M 6.390625 0 
L 6.390625 71.578125 
L 15.1875 71.578125 
L 15.1875 0 
z
" id="ArialMT-108"/>
     <path d="M 6.59375 0 
L 6.59375 71.578125 
L 15.375 71.578125 
L 15.375 45.90625 
Q 21.53125 53.03125 30.90625 53.03125 
Q 36.671875 53.03125 40.921875 50.75 
Q 45.171875 48.484375 47 44.484375 
Q 48.828125 40.484375 48.828125 32.859375 
L 48.828125 0 
L 40.046875 0 
L 40.046875 32.859375 
Q 40.046875 39.453125 37.1875 42.453125 
Q 34.328125 45.453125 29.109375 45.453125 
Q 25.203125 45.453125 21.75 43.421875 
Q 18.3125 41.40625 16.84375 37.9375 
Q 15.375 34.46875 15.375 28.375 
L 15.375 0 
z
" id="ArialMT-104"/>
     <path d="M 3.171875 21.484375 
L 3.171875 30.328125 
L 30.171875 30.328125 
L 30.171875 21.484375 
z
" id="ArialMT-45"/>
     <path d="M 7.625 0 
L 7.625 71.578125 
L 17.328125 71.578125 
L 54.9375 15.375 
L 54.9375 71.578125 
L 64.015625 71.578125 
L 64.015625 0 
L 54.296875 0 
L 16.703125 56.25 
L 16.703125 0 
z
" id="ArialMT-78"/>
     <path d="M 16.15625 0 
L 0.296875 51.859375 
L 9.375 51.859375 
L 17.625 21.921875 
L 20.703125 10.796875 
Q 20.90625 11.625 23.390625 21.484375 
L 31.640625 51.859375 
L 40.671875 51.859375 
L 48.4375 21.78125 
L 51.03125 11.859375 
L 54 21.875 
L 62.890625 51.859375 
L 71.4375 51.859375 
L 55.21875 0 
L 46.09375 0 
L 37.84375 31.0625 
L 35.84375 39.890625 
L 25.34375 0 
z
" id="ArialMT-119"/>
     <path d="M 28.171875 0 
L 0.4375 71.578125 
L 10.6875 71.578125 
L 29.296875 19.578125 
Q 31.546875 13.328125 33.0625 7.859375 
Q 34.71875 13.71875 36.921875 19.578125 
L 56.25 71.578125 
L 65.921875 71.578125 
L 37.890625 0 
z
" id="ArialMT-86"/>
     <path d="M 4.984375 -4.296875 
L 13.53125 -5.5625 
Q 14.0625 -9.515625 16.5 -11.328125 
Q 19.78125 -13.765625 25.4375 -13.765625 
Q 31.546875 -13.765625 34.859375 -11.328125 
Q 38.1875 -8.890625 39.359375 -4.5 
Q 40.046875 -1.8125 39.984375 6.78125 
Q 34.234375 0 25.640625 0 
Q 14.9375 0 9.078125 7.71875 
Q 3.21875 15.4375 3.21875 26.21875 
Q 3.21875 33.640625 5.90625 39.90625 
Q 8.59375 46.1875 13.6875 49.609375 
Q 18.796875 53.03125 25.6875 53.03125 
Q 34.859375 53.03125 40.828125 45.609375 
L 40.828125 51.859375 
L 48.921875 51.859375 
L 48.921875 7.03125 
Q 48.921875 -5.078125 46.453125 -10.125 
Q 44 -15.1875 38.640625 -18.109375 
Q 33.296875 -21.046875 25.484375 -21.046875 
Q 16.21875 -21.046875 10.5 -16.875 
Q 4.78125 -12.703125 4.984375 -4.296875 
z
M 12.25 26.859375 
Q 12.25 16.65625 16.296875 11.96875 
Q 20.359375 7.28125 26.46875 7.28125 
Q 32.515625 7.28125 36.609375 11.9375 
Q 40.71875 16.609375 40.71875 26.5625 
Q 40.71875 36.078125 36.5 40.90625 
Q 32.28125 45.75 26.3125 45.75 
Q 20.453125 45.75 16.34375 40.984375 
Q 12.25 36.234375 12.25 26.859375 
z
" id="ArialMT-103"/>
     <path d="M -1.515625 -19.875 
L -1.515625 -13.53125 
L 56.734375 -13.53125 
L 56.734375 -19.875 
z
" id="ArialMT-95"/>
    </defs>
    <g style="fill:#262626;" transform="translate(80.432813 23.748375)scale(0.12 -0.12)">
     <use xlink:href="#ArialMT-68"/>
     <use x="72.216797" xlink:href="#ArialMT-105"/>
     <use x="94.433594" xlink:href="#ArialMT-115"/>
     <use x="144.433594" xlink:href="#ArialMT-116"/>
     <use x="172.216797" xlink:href="#ArialMT-114"/>
     <use x="205.517578" xlink:href="#ArialMT-105"/>
     <use x="227.734375" xlink:href="#ArialMT-98"/>
     <use x="283.349609" xlink:href="#ArialMT-117"/>
     <use x="338.964844" xlink:href="#ArialMT-116"/>
     <use x="366.748047" xlink:href="#ArialMT-105"/>
     <use x="388.964844" xlink:href="#ArialMT-111"/>
     <use x="444.580078" xlink:href="#ArialMT-110"/>
     <use x="500.195312" xlink:href="#ArialMT-32"/>
     <use x="527.978516" xlink:href="#ArialMT-111"/>
     <use x="583.59375" xlink:href="#ArialMT-102"/>
     <use x="611.376953" xlink:href="#ArialMT-32"/>
     <use x="639.160156" xlink:href="#ArialMT-112"/>
     <use x="694.775391" xlink:href="#ArialMT-114"/>
     <use x="728.076172" xlink:href="#ArialMT-111"/>
     <use x="783.691406" xlink:href="#ArialMT-106"/>
     <use x="805.908203" xlink:href="#ArialMT-101"/>
     <use x="861.523438" xlink:href="#ArialMT-99"/>
     <use x="911.523438" xlink:href="#ArialMT-116"/>
     <use x="939.306641" xlink:href="#ArialMT-101"/>
     <use x="994.921875" xlink:href="#ArialMT-100"/>
     <use x="1050.537109" xlink:href="#ArialMT-32"/>
     <use x="1078.320312" xlink:href="#ArialMT-101"/>
     <use x="1133.935547" xlink:href="#ArialMT-121"/>
     <use x="1183.935547" xlink:href="#ArialMT-101"/>
     <use x="1239.550781" xlink:href="#ArialMT-32"/>
     <use x="1267.333984" xlink:href="#ArialMT-109"/>
     <use x="1350.634766" xlink:href="#ArialMT-111"/>
     <use x="1406.25" xlink:href="#ArialMT-118"/>
     <use x="1456.25" xlink:href="#ArialMT-101"/>
     <use x="1511.865234" xlink:href="#ArialMT-109"/>
     <use x="1595.166016" xlink:href="#ArialMT-101"/>
     <use x="1650.78125" xlink:href="#ArialMT-110"/>
     <use x="1706.396484" xlink:href="#ArialMT-116"/>
     <use x="1734.179688" xlink:href="#ArialMT-32"/>
     <use x="1761.962891" xlink:href="#ArialMT-118"/>
     <use x="1811.962891" xlink:href="#ArialMT-101"/>
     <use x="1867.578125" xlink:href="#ArialMT-108"/>
     <use x="1889.794922" xlink:href="#ArialMT-111"/>
     <use x="1945.410156" xlink:href="#ArialMT-99"/>
     <use x="1995.410156" xlink:href="#ArialMT-105"/>
     <use x="2017.626953" xlink:href="#ArialMT-116"/>
     <use x="2045.410156" xlink:href="#ArialMT-121"/>
     <use x="2095.410156" xlink:href="#ArialMT-32"/>
     <use x="2123.193359" xlink:href="#ArialMT-111"/>
     <use x="2178.808594" xlink:href="#ArialMT-110"/>
     <use x="2234.423828" xlink:href="#ArialMT-32"/>
     <use x="2262.207031" xlink:href="#ArialMT-116"/>
     <use x="2289.990234" xlink:href="#ArialMT-104"/>
     <use x="2345.605469" xlink:href="#ArialMT-101"/>
     <use x="2401.220703" xlink:href="#ArialMT-32"/>
     <use x="2429.003906" xlink:href="#ArialMT-115"/>
     <use x="2479.003906" xlink:href="#ArialMT-99"/>
     <use x="2529.003906" xlink:href="#ArialMT-114"/>
     <use x="2562.304688" xlink:href="#ArialMT-101"/>
     <use x="2617.919922" xlink:href="#ArialMT-101"/>
     <use x="2673.535156" xlink:href="#ArialMT-110"/>
     <use x="2729.150391" xlink:href="#ArialMT-32"/>
     <use x="2756.933594" xlink:href="#ArialMT-45"/>
     <use x="2790.234375" xlink:href="#ArialMT-32"/>
     <use x="2818.017578" xlink:href="#ArialMT-78"/>
     <use x="2890.234375" xlink:href="#ArialMT-101"/>
     <use x="2945.849609" xlink:href="#ArialMT-119"/>
     <use x="3018.066406" xlink:href="#ArialMT-86"/>
     <use x="3084.765625" xlink:href="#ArialMT-103"/>
     <use x="3140.380859" xlink:href="#ArialMT-108"/>
     <use x="3162.597656" xlink:href="#ArialMT-117"/>
     <use x="3218.212891" xlink:href="#ArialMT-116"/>
     <use x="3245.996094" xlink:href="#ArialMT-51"/>
     <use x="3301.611328" xlink:href="#ArialMT-95"/>
     <use x="3357.226562" xlink:href="#ArialMT-51"/>
     <use x="3412.841797" xlink:href="#ArialMT-95"/>
     <use x="3468.457031" xlink:href="#ArialMT-51"/>
     <use x="3524.072266" xlink:href="#ArialMT-50"/>
    </g>
   </g>
   <g id="legend_1">
    <g id="line2d_15">
     <path d="M 202.266406 60.2075 
L 222.266406 60.2075 
" style="fill:none;stroke:#ff0000;stroke-dasharray:7.4,3.2;stroke-dashoffset:0;stroke-width:2;"/>
    </g>
    <g id="line2d_16"/>
    <g id="text_15">
     <!-- Average angle in light: -0.4 degrees -->
     <defs>
      <path d="M -0.140625 0 
L 27.34375 71.578125 
L 37.546875 71.578125 
L 66.84375 0 
L 56.0625 0 
L 47.703125 21.6875 
L 17.78125 21.6875 
L 9.90625 0 
z
M 20.515625 29.390625 
L 44.78125 29.390625 
L 37.3125 49.21875 
Q 33.890625 58.25 32.234375 64.0625 
Q 30.859375 57.171875 28.375 50.390625 
z
" id="ArialMT-65"/>
      <path d="M 40.4375 6.390625 
Q 35.546875 2.25 31.03125 0.53125 
Q 26.515625 -1.171875 21.34375 -1.171875 
Q 12.796875 -1.171875 8.203125 3 
Q 3.609375 7.171875 3.609375 13.671875 
Q 3.609375 17.484375 5.34375 20.625 
Q 7.078125 23.78125 9.890625 25.6875 
Q 12.703125 27.59375 16.21875 28.5625 
Q 18.796875 29.25 24.03125 29.890625 
Q 34.671875 31.15625 39.703125 32.90625 
Q 39.75 34.71875 39.75 35.203125 
Q 39.75 40.578125 37.25 42.78125 
Q 33.890625 45.75 27.25 45.75 
Q 21.046875 45.75 18.09375 43.578125 
Q 15.140625 41.40625 13.71875 35.890625 
L 5.125 37.0625 
Q 6.296875 42.578125 8.984375 45.96875 
Q 11.671875 49.359375 16.75 51.1875 
Q 21.828125 53.03125 28.515625 53.03125 
Q 35.15625 53.03125 39.296875 51.46875 
Q 43.453125 49.90625 45.40625 47.53125 
Q 47.359375 45.171875 48.140625 41.546875 
Q 48.578125 39.3125 48.578125 33.453125 
L 48.578125 21.734375 
Q 48.578125 9.46875 49.140625 6.21875 
Q 49.703125 2.984375 51.375 0 
L 42.1875 0 
Q 40.828125 2.734375 40.4375 6.390625 
z
M 39.703125 26.03125 
Q 34.90625 24.078125 25.34375 22.703125 
Q 19.921875 21.921875 17.671875 20.9375 
Q 15.4375 19.96875 14.203125 18.09375 
Q 12.984375 16.21875 12.984375 13.921875 
Q 12.984375 10.40625 15.640625 8.0625 
Q 18.3125 5.71875 23.4375 5.71875 
Q 28.515625 5.71875 32.46875 7.9375 
Q 36.421875 10.15625 38.28125 14.015625 
Q 39.703125 17 39.703125 22.796875 
z
" id="ArialMT-97"/>
      <path d="M 9.03125 41.84375 
L 9.03125 51.859375 
L 19.046875 51.859375 
L 19.046875 41.84375 
z
M 9.03125 0 
L 9.03125 10.015625 
L 19.046875 10.015625 
L 19.046875 0 
z
" id="ArialMT-58"/>
     </defs>
     <g style="fill:#262626;" transform="translate(230.266406 63.7075)scale(0.1 -0.1)">
      <use xlink:href="#ArialMT-65"/>
      <use x="66.683594" xlink:href="#ArialMT-118"/>
      <use x="116.683594" xlink:href="#ArialMT-101"/>
      <use x="172.298828" xlink:href="#ArialMT-114"/>
      <use x="205.599609" xlink:href="#ArialMT-97"/>
      <use x="261.214844" xlink:href="#ArialMT-103"/>
      <use x="316.830078" xlink:href="#ArialMT-101"/>
      <use x="372.445312" xlink:href="#ArialMT-32"/>
      <use x="400.228516" xlink:href="#ArialMT-97"/>
      <use x="455.84375" xlink:href="#ArialMT-110"/>
      <use x="511.458984" xlink:href="#ArialMT-103"/>
      <use x="567.074219" xlink:href="#ArialMT-108"/>
      <use x="589.291016" xlink:href="#ArialMT-101"/>
      <use x="644.90625" xlink:href="#ArialMT-32"/>
      <use x="672.689453" xlink:href="#ArialMT-105"/>
      <use x="694.90625" xlink:href="#ArialMT-110"/>
      <use x="750.521484" xlink:href="#ArialMT-32"/>
      <use x="778.304688" xlink:href="#ArialMT-108"/>
      <use x="800.521484" xlink:href="#ArialMT-105"/>
      <use x="822.738281" xlink:href="#ArialMT-103"/>
      <use x="878.353516" xlink:href="#ArialMT-104"/>
      <use x="933.96875" xlink:href="#ArialMT-116"/>
      <use x="961.751953" xlink:href="#ArialMT-58"/>
      <use x="989.535156" xlink:href="#ArialMT-32"/>
      <use x="1017.318359" xlink:href="#ArialMT-45"/>
      <use x="1050.619141" xlink:href="#ArialMT-48"/>
      <use x="1106.234375" xlink:href="#ArialMT-46"/>
      <use x="1134.017578" xlink:href="#ArialMT-52"/>
      <use x="1189.632812" xlink:href="#ArialMT-32"/>
      <use x="1217.416016" xlink:href="#ArialMT-100"/>
      <use x="1273.03125" xlink:href="#ArialMT-101"/>
      <use x="1328.646484" xlink:href="#ArialMT-103"/>
      <use x="1384.261719" xlink:href="#ArialMT-114"/>
      <use x="1417.5625" xlink:href="#ArialMT-101"/>
      <use x="1473.177734" xlink:href="#ArialMT-101"/>
      <use x="1528.792969" xlink:href="#ArialMT-115"/>
     </g>
    </g>
    <g id="PathCollection_4">
     <g>
      <use style="fill:#4c72b0;stroke:#4c72b0;stroke-width:0.3;" x="212.266406" xlink:href="#m51835e6025" y="75.345"/>
     </g>
    </g>
    <g id="text_16">
     <!-- $-0.5 &lt; t &lt; 0.$ -->
     <defs>
      <path d="M 10.59375 35.5 
L 73.1875 35.5 
L 73.1875 27.203125 
L 10.59375 27.203125 
z
" id="DejaVuSans-8722"/>
      <path d="M 31.78125 66.40625 
Q 24.171875 66.40625 20.328125 58.90625 
Q 16.5 51.421875 16.5 36.375 
Q 16.5 21.390625 20.328125 13.890625 
Q 24.171875 6.390625 31.78125 6.390625 
Q 39.453125 6.390625 43.28125 13.890625 
Q 47.125 21.390625 47.125 36.375 
Q 47.125 51.421875 43.28125 58.90625 
Q 39.453125 66.40625 31.78125 66.40625 
z
M 31.78125 74.21875 
Q 44.046875 74.21875 50.515625 64.515625 
Q 56.984375 54.828125 56.984375 36.375 
Q 56.984375 17.96875 50.515625 8.265625 
Q 44.046875 -1.421875 31.78125 -1.421875 
Q 19.53125 -1.421875 13.0625 8.265625 
Q 6.59375 17.96875 6.59375 36.375 
Q 6.59375 54.828125 13.0625 64.515625 
Q 19.53125 74.21875 31.78125 74.21875 
z
" id="DejaVuSans-48"/>
      <path d="M 10.6875 12.40625 
L 21 12.40625 
L 21 0 
L 10.6875 0 
z
" id="DejaVuSans-46"/>
      <path d="M 10.796875 72.90625 
L 49.515625 72.90625 
L 49.515625 64.59375 
L 19.828125 64.59375 
L 19.828125 46.734375 
Q 21.96875 47.46875 24.109375 47.828125 
Q 26.265625 48.1875 28.421875 48.1875 
Q 40.625 48.1875 47.75 41.5 
Q 54.890625 34.8125 54.890625 23.390625 
Q 54.890625 11.625 47.5625 5.09375 
Q 40.234375 -1.421875 26.90625 -1.421875 
Q 22.3125 -1.421875 17.546875 -0.640625 
Q 12.796875 0.140625 7.71875 1.703125 
L 7.71875 11.625 
Q 12.109375 9.234375 16.796875 8.0625 
Q 21.484375 6.890625 26.703125 6.890625 
Q 35.15625 6.890625 40.078125 11.328125 
Q 45.015625 15.765625 45.015625 23.390625 
Q 45.015625 31 40.078125 35.4375 
Q 35.15625 39.890625 26.703125 39.890625 
Q 22.75 39.890625 18.8125 39.015625 
Q 14.890625 38.140625 10.796875 36.28125 
z
" id="DejaVuSans-53"/>
      <path d="M 73.1875 49.21875 
L 22.796875 31.296875 
L 73.1875 13.484375 
L 73.1875 4.59375 
L 10.59375 27.296875 
L 10.59375 35.40625 
L 73.1875 58.109375 
z
" id="DejaVuSans-60"/>
      <path d="M 42.28125 54.6875 
L 40.921875 47.703125 
L 23 47.703125 
L 17.1875 18.015625 
Q 16.890625 16.359375 16.75 15.234375 
Q 16.609375 14.109375 16.609375 13.484375 
Q 16.609375 10.359375 18.484375 8.9375 
Q 20.359375 7.515625 24.515625 7.515625 
L 33.59375 7.515625 
L 32.078125 0 
L 23.484375 0 
Q 15.484375 0 11.546875 3.125 
Q 7.625 6.25 7.625 12.59375 
Q 7.625 13.71875 7.765625 15.0625 
Q 7.90625 16.40625 8.203125 18.015625 
L 14.015625 47.703125 
L 6.390625 47.703125 
L 7.8125 54.6875 
L 15.28125 54.6875 
L 18.3125 70.21875 
L 27.296875 70.21875 
L 24.3125 54.6875 
z
" id="DejaVuSans-Oblique-116"/>
     </defs>
     <g style="fill:#262626;" transform="translate(230.266406 77.97)scale(0.1 -0.1)">
      <use transform="translate(0 0.78125)" xlink:href="#DejaVuSans-8722"/>
      <use transform="translate(83.789062 0.78125)" xlink:href="#DejaVuSans-48"/>
      <use transform="translate(147.412109 0.78125)" xlink:href="#DejaVuSans-46"/>
      <use transform="translate(179.199219 0.78125)" xlink:href="#DejaVuSans-53"/>
      <use transform="translate(262.304688 0.78125)" xlink:href="#DejaVuSans-60"/>
      <use transform="translate(365.576172 0.78125)" xlink:href="#DejaVuSans-Oblique-116"/>
      <use transform="translate(424.267578 0.78125)" xlink:href="#DejaVuSans-60"/>
      <use transform="translate(527.539062 0.78125)" xlink:href="#DejaVuSans-48"/>
     </g>
    </g>
    <g id="PathCollection_5">
     <g>
      <use style="fill:#55a868;stroke:#55a868;stroke-width:0.3;" x="212.266406" xlink:href="#m89055376ad" y="89.490312"/>
     </g>
    </g>
    <g id="text_17">
     <!-- $0. &lt; t &lt; 0.5$ -->
     <g style="fill:#262626;" transform="translate(230.266406 92.115312)scale(0.1 -0.1)">
      <use transform="translate(0 0.78125)" xlink:href="#DejaVuSans-48"/>
      <use transform="translate(63.623047 0.78125)" xlink:href="#DejaVuSans-46"/>
      <use transform="translate(134.375 0.78125)" xlink:href="#DejaVuSans-60"/>
      <use transform="translate(237.646484 0.78125)" xlink:href="#DejaVuSans-Oblique-116"/>
      <use transform="translate(296.337891 0.78125)" xlink:href="#DejaVuSans-60"/>
      <use transform="translate(399.609375 0.78125)" xlink:href="#DejaVuSans-48"/>
      <use transform="translate(463.232422 0.78125)" xlink:href="#DejaVuSans-46"/>
      <use transform="translate(495.019531 0.78125)" xlink:href="#DejaVuSans-53"/>
     </g>
    </g>
    <g id="PathCollection_6">
     <g>
      <use style="fill:#c44e52;stroke:#c44e52;stroke-width:0.3;" x="212.266406" xlink:href="#m148125f9bc" y="103.635625"/>
     </g>
    </g>
    <g id="text_18">
     <!-- $0.5 &lt; t &lt; 1.$ -->
     <defs>
      <path d="M 12.40625 8.296875 
L 28.515625 8.296875 
L 28.515625 63.921875 
L 10.984375 60.40625 
L 10.984375 69.390625 
L 28.421875 72.90625 
L 38.28125 72.90625 
L 38.28125 8.296875 
L 54.390625 8.296875 
L 54.390625 0 
L 12.40625 0 
z
" id="DejaVuSans-49"/>
     </defs>
     <g style="fill:#262626;" transform="translate(230.266406 106.260625)scale(0.1 -0.1)">
      <use transform="translate(0 0.78125)" xlink:href="#DejaVuSans-48"/>
      <use transform="translate(63.623047 0.78125)" xlink:href="#DejaVuSans-46"/>
      <use transform="translate(95.410156 0.78125)" xlink:href="#DejaVuSans-53"/>
      <use transform="translate(178.515625 0.78125)" xlink:href="#DejaVuSans-60"/>
      <use transform="translate(281.787109 0.78125)" xlink:href="#DejaVuSans-Oblique-116"/>
      <use transform="translate(340.478516 0.78125)" xlink:href="#DejaVuSans-60"/>
      <use transform="translate(443.75 0.78125)" xlink:href="#DejaVuSans-49"/>
     </g>
    </g>
   </g>
  </g>
 </g>
 <defs>
  <clipPath id="pf773611667">
   <path d="M 447.66 199.98 
C 447.66 179.959136 443.716326 160.13295 436.054674 141.636084 
C 428.393021 123.139218 417.162388 106.331389 403.0055 92.1745 
C 388.848611 78.017612 372.040782 66.786979 353.543916 59.125326 
C 335.04705 51.463674 315.220864 47.52 295.2 47.52 
C 275.179136 47.52 255.35295 51.463674 236.856084 59.125326 
C 218.359218 66.786979 201.551389 78.017612 187.3945 92.1745 
C 173.237612 106.331389 162.006979 123.139218 154.345326 141.636084 
C 146.683674 160.13295 142.74 179.959136 142.74 199.98 
C 142.74 220.000864 146.683674 239.82705 154.345326 258.323916 
C 162.006979 276.820782 173.237612 293.628611 187.3945 307.7855 
C 201.551389 321.942388 218.359218 333.173021 236.856084 340.834674 
C 255.35295 348.496326 275.179136 352.44 295.2 352.44 
C 315.220864 352.44 335.04705 348.496326 353.543916 340.834674 
C 372.040782 333.173021 388.848611 321.942388 403.0055 307.7855 
C 417.162388 293.628611 428.393021 276.820782 436.054674 258.323916 
C 443.716326 239.82705 447.66 220.000864 447.66 199.98 
M 295.2 199.98 
C 295.2 199.98 295.2 199.98 295.2 199.98 
C 295.2 199.98 295.2 199.98 295.2 199.98 
C 295.2 199.98 295.2 199.98 295.2 199.98 
C 295.2 199.98 295.2 199.98 295.2 199.98 
C 295.2 199.98 295.2 199.98 295.2 199.98 
C 295.2 199.98 295.2 199.98 295.2 199.98 
C 295.2 199.98 295.2 199.98 295.2 199.98 
C 295.2 199.98 295.2 199.98 295.2 199.98 
C 295.2 199.98 295.2 199.98 295.2 199.98 
C 295.2 199.98 295.2 199.98 295.2 199.98 
C 295.2 199.98 295.2 199.98 295.2 199.98 
C 295.2 199.98 295.2 199.98 295.2 199.98 
C 295.2 199.98 295.2 199.98 295.2 199.98 
C 295.2 199.98 295.2 199.98 295.2 199.98 
C 295.2 199.98 295.2 199.98 295.2 199.98 
C 295.2 199.98 295.2 199.98 295.2 199.98 
M 447.66 199.98 
z
"/>
  </clipPath>
 </defs>
</svg>
