<?xml version="1.0" encoding="utf-8" standalone="no"?>
<!DOCTYPE svg PUBLIC "-//W3C//DTD SVG 1.1//EN"
  "http://www.w3.org/Graphics/SVG/1.1/DTD/svg11.dtd">
<svg xmlns:xlink="http://www.w3.org/1999/xlink" width="460.8pt" height="345.6pt" viewBox="0 0 460.8 345.6" xmlns="http://www.w3.org/2000/svg" version="1.1">
 <metadata>
  <rdf:RDF xmlns:dc="http://purl.org/dc/elements/1.1/" xmlns:cc="http://creativecommons.org/ns#" xmlns:rdf="http://www.w3.org/1999/02/22-rdf-syntax-ns#">
   <cc:Work>
    <dc:type rdf:resource="http://purl.org/dc/dcmitype/StillImage"/>
    <dc:date>2023-12-09T19:34:14.873665</dc:date>
    <dc:format>image/svg+xml</dc:format>
    <dc:creator>
     <cc:Agent>
      <dc:title>Matplotlib v3.7.4, https://matplotlib.org/</dc:title>
     </cc:Agent>
    </dc:creator>
   </cc:Work>
  </rdf:RDF>
 </metadata>
 <defs>
  <style type="text/css">*{stroke-linejoin: round; stroke-linecap: butt}</style>
 </defs>
 <g id="figure_1">
  <g id="patch_1">
   <path d="M 0 345.6 
L 460.8 345.6 
L 460.8 0 
L 0 0 
z
" style="fill: #ffffff"/>
  </g>
  <g id="axes_1">
   <g id="patch_2">
    <path d="M 57.6 307.584 
L 414.72 307.584 
L 414.72 41.472 
L 57.6 41.472 
z
" style="fill: #ffffff"/>
   </g>
   <g id="matplotlib.axis_1">
    <g id="xtick_1">
     <g id="line2d_1">
      <defs>
       <path id="mcc0db0865c" d="M 0 0 
L 0 3.5 
" style="stroke: #000000; stroke-width: 0.8"/>
      </defs>
      <g>
       <use xlink:href="#mcc0db0865c" x="90.152884" y="307.584" style="stroke: #000000; stroke-width: 0.8"/>
      </g>
     </g>
     <g id="text_1">
      <!-- −40 -->
      <g transform="translate(79.60054 322.182437) scale(0.1 -0.1)">
       <defs>
        <path id="DejaVuSans-2212" d="M 678 2272 
L 4684 2272 
L 4684 1741 
L 678 1741 
L 678 2272 
z
" transform="scale(0.015625)"/>
        <path id="DejaVuSans-34" d="M 2419 4116 
L 825 1625 
L 2419 1625 
L 2419 4116 
z
M 2253 4666 
L 3047 4666 
L 3047 1625 
L 3713 1625 
L 3713 1100 
L 3047 1100 
L 3047 0 
L 2419 0 
L 2419 1100 
L 313 1100 
L 313 1709 
L 2253 4666 
z
" transform="scale(0.015625)"/>
        <path id="DejaVuSans-30" d="M 2034 4250 
Q 1547 4250 1301 3770 
Q 1056 3291 1056 2328 
Q 1056 1369 1301 889 
Q 1547 409 2034 409 
Q 2525 409 2770 889 
Q 3016 1369 3016 2328 
Q 3016 3291 2770 3770 
Q 2525 4250 2034 4250 
z
M 2034 4750 
Q 2819 4750 3233 4129 
Q 3647 3509 3647 2328 
Q 3647 1150 3233 529 
Q 2819 -91 2034 -91 
Q 1250 -91 836 529 
Q 422 1150 422 2328 
Q 422 3509 836 4129 
Q 1250 4750 2034 4750 
z
" transform="scale(0.015625)"/>
       </defs>
       <use xlink:href="#DejaVuSans-2212"/>
       <use xlink:href="#DejaVuSans-34" x="83.789062"/>
       <use xlink:href="#DejaVuSans-30" x="147.412109"/>
      </g>
     </g>
    </g>
    <g id="xtick_2">
     <g id="line2d_2">
      <g>
       <use xlink:href="#mcc0db0865c" x="163.593589" y="307.584" style="stroke: #000000; stroke-width: 0.8"/>
      </g>
     </g>
     <g id="text_2">
      <!-- −20 -->
      <g transform="translate(153.041245 322.182437) scale(0.1 -0.1)">
       <defs>
        <path id="DejaVuSans-32" d="M 1228 531 
L 3431 531 
L 3431 0 
L 469 0 
L 469 531 
Q 828 903 1448 1529 
Q 2069 2156 2228 2338 
Q 2531 2678 2651 2914 
Q 2772 3150 2772 3378 
Q 2772 3750 2511 3984 
Q 2250 4219 1831 4219 
Q 1534 4219 1204 4116 
Q 875 4013 500 3803 
L 500 4441 
Q 881 4594 1212 4672 
Q 1544 4750 1819 4750 
Q 2544 4750 2975 4387 
Q 3406 4025 3406 3419 
Q 3406 3131 3298 2873 
Q 3191 2616 2906 2266 
Q 2828 2175 2409 1742 
Q 1991 1309 1228 531 
z
" transform="scale(0.015625)"/>
       </defs>
       <use xlink:href="#DejaVuSans-2212"/>
       <use xlink:href="#DejaVuSans-32" x="83.789062"/>
       <use xlink:href="#DejaVuSans-30" x="147.412109"/>
      </g>
     </g>
    </g>
    <g id="xtick_3">
     <g id="line2d_3">
      <g>
       <use xlink:href="#mcc0db0865c" x="237.034294" y="307.584" style="stroke: #000000; stroke-width: 0.8"/>
      </g>
     </g>
     <g id="text_3">
      <!-- 0 -->
      <g transform="translate(233.853044 322.182437) scale(0.1 -0.1)">
       <use xlink:href="#DejaVuSans-30"/>
      </g>
     </g>
    </g>
    <g id="xtick_4">
     <g id="line2d_4">
      <g>
       <use xlink:href="#mcc0db0865c" x="310.474999" y="307.584" style="stroke: #000000; stroke-width: 0.8"/>
      </g>
     </g>
     <g id="text_4">
      <!-- 20 -->
      <g transform="translate(304.112499 322.182437) scale(0.1 -0.1)">
       <use xlink:href="#DejaVuSans-32"/>
       <use xlink:href="#DejaVuSans-30" x="63.623047"/>
      </g>
     </g>
    </g>
    <g id="xtick_5">
     <g id="line2d_5">
      <g>
       <use xlink:href="#mcc0db0865c" x="383.915704" y="307.584" style="stroke: #000000; stroke-width: 0.8"/>
      </g>
     </g>
     <g id="text_5">
      <!-- 40 -->
      <g transform="translate(377.553204 322.182437) scale(0.1 -0.1)">
       <use xlink:href="#DejaVuSans-34"/>
       <use xlink:href="#DejaVuSans-30" x="63.623047"/>
      </g>
     </g>
    </g>
    <g id="text_6">
     <!-- Pitch[degrees] -->
     <g transform="translate(199.963125 335.860562) scale(0.1 -0.1)">
      <defs>
       <path id="DejaVuSans-50" d="M 1259 4147 
L 1259 2394 
L 2053 2394 
Q 2494 2394 2734 2622 
Q 2975 2850 2975 3272 
Q 2975 3691 2734 3919 
Q 2494 4147 2053 4147 
L 1259 4147 
z
M 628 4666 
L 2053 4666 
Q 2838 4666 3239 4311 
Q 3641 3956 3641 3272 
Q 3641 2581 3239 2228 
Q 2838 1875 2053 1875 
L 1259 1875 
L 1259 0 
L 628 0 
L 628 4666 
z
" transform="scale(0.015625)"/>
       <path id="DejaVuSans-69" d="M 603 3500 
L 1178 3500 
L 1178 0 
L 603 0 
L 603 3500 
z
M 603 4863 
L 1178 4863 
L 1178 4134 
L 603 4134 
L 603 4863 
z
" transform="scale(0.015625)"/>
       <path id="DejaVuSans-74" d="M 1172 4494 
L 1172 3500 
L 2356 3500 
L 2356 3053 
L 1172 3053 
L 1172 1153 
Q 1172 725 1289 603 
Q 1406 481 1766 481 
L 2356 481 
L 2356 0 
L 1766 0 
Q 1100 0 847 248 
Q 594 497 594 1153 
L 594 3053 
L 172 3053 
L 172 3500 
L 594 3500 
L 594 4494 
L 1172 4494 
z
" transform="scale(0.015625)"/>
       <path id="DejaVuSans-63" d="M 3122 3366 
L 3122 2828 
Q 2878 2963 2633 3030 
Q 2388 3097 2138 3097 
Q 1578 3097 1268 2742 
Q 959 2388 959 1747 
Q 959 1106 1268 751 
Q 1578 397 2138 397 
Q 2388 397 2633 464 
Q 2878 531 3122 666 
L 3122 134 
Q 2881 22 2623 -34 
Q 2366 -91 2075 -91 
Q 1284 -91 818 406 
Q 353 903 353 1747 
Q 353 2603 823 3093 
Q 1294 3584 2113 3584 
Q 2378 3584 2631 3529 
Q 2884 3475 3122 3366 
z
" transform="scale(0.015625)"/>
       <path id="DejaVuSans-68" d="M 3513 2113 
L 3513 0 
L 2938 0 
L 2938 2094 
Q 2938 2591 2744 2837 
Q 2550 3084 2163 3084 
Q 1697 3084 1428 2787 
Q 1159 2491 1159 1978 
L 1159 0 
L 581 0 
L 581 4863 
L 1159 4863 
L 1159 2956 
Q 1366 3272 1645 3428 
Q 1925 3584 2291 3584 
Q 2894 3584 3203 3211 
Q 3513 2838 3513 2113 
z
" transform="scale(0.015625)"/>
       <path id="DejaVuSans-5b" d="M 550 4863 
L 1875 4863 
L 1875 4416 
L 1125 4416 
L 1125 -397 
L 1875 -397 
L 1875 -844 
L 550 -844 
L 550 4863 
z
" transform="scale(0.015625)"/>
       <path id="DejaVuSans-64" d="M 2906 2969 
L 2906 4863 
L 3481 4863 
L 3481 0 
L 2906 0 
L 2906 525 
Q 2725 213 2448 61 
Q 2172 -91 1784 -91 
Q 1150 -91 751 415 
Q 353 922 353 1747 
Q 353 2572 751 3078 
Q 1150 3584 1784 3584 
Q 2172 3584 2448 3432 
Q 2725 3281 2906 2969 
z
M 947 1747 
Q 947 1113 1208 752 
Q 1469 391 1925 391 
Q 2381 391 2643 752 
Q 2906 1113 2906 1747 
Q 2906 2381 2643 2742 
Q 2381 3103 1925 3103 
Q 1469 3103 1208 2742 
Q 947 2381 947 1747 
z
" transform="scale(0.015625)"/>
       <path id="DejaVuSans-65" d="M 3597 1894 
L 3597 1613 
L 953 1613 
Q 991 1019 1311 708 
Q 1631 397 2203 397 
Q 2534 397 2845 478 
Q 3156 559 3463 722 
L 3463 178 
Q 3153 47 2828 -22 
Q 2503 -91 2169 -91 
Q 1331 -91 842 396 
Q 353 884 353 1716 
Q 353 2575 817 3079 
Q 1281 3584 2069 3584 
Q 2775 3584 3186 3129 
Q 3597 2675 3597 1894 
z
M 3022 2063 
Q 3016 2534 2758 2815 
Q 2500 3097 2075 3097 
Q 1594 3097 1305 2825 
Q 1016 2553 972 2059 
L 3022 2063 
z
" transform="scale(0.015625)"/>
       <path id="DejaVuSans-67" d="M 2906 1791 
Q 2906 2416 2648 2759 
Q 2391 3103 1925 3103 
Q 1463 3103 1205 2759 
Q 947 2416 947 1791 
Q 947 1169 1205 825 
Q 1463 481 1925 481 
Q 2391 481 2648 825 
Q 2906 1169 2906 1791 
z
M 3481 434 
Q 3481 -459 3084 -895 
Q 2688 -1331 1869 -1331 
Q 1566 -1331 1297 -1286 
Q 1028 -1241 775 -1147 
L 775 -588 
Q 1028 -725 1275 -790 
Q 1522 -856 1778 -856 
Q 2344 -856 2625 -561 
Q 2906 -266 2906 331 
L 2906 616 
Q 2728 306 2450 153 
Q 2172 0 1784 0 
Q 1141 0 747 490 
Q 353 981 353 1791 
Q 353 2603 747 3093 
Q 1141 3584 1784 3584 
Q 2172 3584 2450 3431 
Q 2728 3278 2906 2969 
L 2906 3500 
L 3481 3500 
L 3481 434 
z
" transform="scale(0.015625)"/>
       <path id="DejaVuSans-72" d="M 2631 2963 
Q 2534 3019 2420 3045 
Q 2306 3072 2169 3072 
Q 1681 3072 1420 2755 
Q 1159 2438 1159 1844 
L 1159 0 
L 581 0 
L 581 3500 
L 1159 3500 
L 1159 2956 
Q 1341 3275 1631 3429 
Q 1922 3584 2338 3584 
Q 2397 3584 2469 3576 
Q 2541 3569 2628 3553 
L 2631 2963 
z
" transform="scale(0.015625)"/>
       <path id="DejaVuSans-73" d="M 2834 3397 
L 2834 2853 
Q 2591 2978 2328 3040 
Q 2066 3103 1784 3103 
Q 1356 3103 1142 2972 
Q 928 2841 928 2578 
Q 928 2378 1081 2264 
Q 1234 2150 1697 2047 
L 1894 2003 
Q 2506 1872 2764 1633 
Q 3022 1394 3022 966 
Q 3022 478 2636 193 
Q 2250 -91 1575 -91 
Q 1294 -91 989 -36 
Q 684 19 347 128 
L 347 722 
Q 666 556 975 473 
Q 1284 391 1588 391 
Q 1994 391 2212 530 
Q 2431 669 2431 922 
Q 2431 1156 2273 1281 
Q 2116 1406 1581 1522 
L 1381 1569 
Q 847 1681 609 1914 
Q 372 2147 372 2553 
Q 372 3047 722 3315 
Q 1072 3584 1716 3584 
Q 2034 3584 2315 3537 
Q 2597 3491 2834 3397 
z
" transform="scale(0.015625)"/>
       <path id="DejaVuSans-5d" d="M 1947 4863 
L 1947 -844 
L 622 -844 
L 622 -397 
L 1369 -397 
L 1369 4416 
L 622 4416 
L 622 4863 
L 1947 4863 
z
" transform="scale(0.015625)"/>
      </defs>
      <use xlink:href="#DejaVuSans-50"/>
      <use xlink:href="#DejaVuSans-69" x="58.052734"/>
      <use xlink:href="#DejaVuSans-74" x="85.835938"/>
      <use xlink:href="#DejaVuSans-63" x="125.044922"/>
      <use xlink:href="#DejaVuSans-68" x="180.025391"/>
      <use xlink:href="#DejaVuSans-5b" x="243.404297"/>
      <use xlink:href="#DejaVuSans-64" x="282.417969"/>
      <use xlink:href="#DejaVuSans-65" x="345.894531"/>
      <use xlink:href="#DejaVuSans-67" x="407.417969"/>
      <use xlink:href="#DejaVuSans-72" x="470.894531"/>
      <use xlink:href="#DejaVuSans-65" x="509.757812"/>
      <use xlink:href="#DejaVuSans-65" x="571.28125"/>
      <use xlink:href="#DejaVuSans-73" x="632.804688"/>
      <use xlink:href="#DejaVuSans-5d" x="684.904297"/>
     </g>
    </g>
   </g>
   <g id="matplotlib.axis_2">
    <g id="ytick_1">
     <g id="line2d_6">
      <defs>
       <path id="m8557d9346b" d="M 0 0 
L -3.5 0 
" style="stroke: #000000; stroke-width: 0.8"/>
      </defs>
      <g>
       <use xlink:href="#m8557d9346b" x="57.6" y="307.058087" style="stroke: #000000; stroke-width: 0.8"/>
      </g>
     </g>
     <g id="text_7">
      <!-- −20 -->
      <g transform="translate(29.495313 310.857306) scale(0.1 -0.1)">
       <use xlink:href="#DejaVuSans-2212"/>
       <use xlink:href="#DejaVuSans-32" x="83.789062"/>
       <use xlink:href="#DejaVuSans-30" x="147.412109"/>
      </g>
     </g>
    </g>
    <g id="ytick_2">
     <g id="line2d_7">
      <g>
       <use xlink:href="#m8557d9346b" x="57.6" y="271.558957" style="stroke: #000000; stroke-width: 0.8"/>
      </g>
     </g>
     <g id="text_8">
      <!-- −15 -->
      <g transform="translate(29.495313 275.358175) scale(0.1 -0.1)">
       <defs>
        <path id="DejaVuSans-31" d="M 794 531 
L 1825 531 
L 1825 4091 
L 703 3866 
L 703 4441 
L 1819 4666 
L 2450 4666 
L 2450 531 
L 3481 531 
L 3481 0 
L 794 0 
L 794 531 
z
" transform="scale(0.015625)"/>
        <path id="DejaVuSans-35" d="M 691 4666 
L 3169 4666 
L 3169 4134 
L 1269 4134 
L 1269 2991 
Q 1406 3038 1543 3061 
Q 1681 3084 1819 3084 
Q 2600 3084 3056 2656 
Q 3513 2228 3513 1497 
Q 3513 744 3044 326 
Q 2575 -91 1722 -91 
Q 1428 -91 1123 -41 
Q 819 9 494 109 
L 494 744 
Q 775 591 1075 516 
Q 1375 441 1709 441 
Q 2250 441 2565 725 
Q 2881 1009 2881 1497 
Q 2881 1984 2565 2268 
Q 2250 2553 1709 2553 
Q 1456 2553 1204 2497 
Q 953 2441 691 2322 
L 691 4666 
z
" transform="scale(0.015625)"/>
       </defs>
       <use xlink:href="#DejaVuSans-2212"/>
       <use xlink:href="#DejaVuSans-31" x="83.789062"/>
       <use xlink:href="#DejaVuSans-35" x="147.412109"/>
      </g>
     </g>
    </g>
    <g id="ytick_3">
     <g id="line2d_8">
      <g>
       <use xlink:href="#m8557d9346b" x="57.6" y="236.059826" style="stroke: #000000; stroke-width: 0.8"/>
      </g>
     </g>
     <g id="text_9">
      <!-- −10 -->
      <g transform="translate(29.495313 239.859045) scale(0.1 -0.1)">
       <use xlink:href="#DejaVuSans-2212"/>
       <use xlink:href="#DejaVuSans-31" x="83.789062"/>
       <use xlink:href="#DejaVuSans-30" x="147.412109"/>
      </g>
     </g>
    </g>
    <g id="ytick_4">
     <g id="line2d_9">
      <g>
       <use xlink:href="#m8557d9346b" x="57.6" y="200.560696" style="stroke: #000000; stroke-width: 0.8"/>
      </g>
     </g>
     <g id="text_10">
      <!-- −5 -->
      <g transform="translate(35.857813 204.359914) scale(0.1 -0.1)">
       <use xlink:href="#DejaVuSans-2212"/>
       <use xlink:href="#DejaVuSans-35" x="83.789062"/>
      </g>
     </g>
    </g>
    <g id="ytick_5">
     <g id="line2d_10">
      <g>
       <use xlink:href="#m8557d9346b" x="57.6" y="165.061565" style="stroke: #000000; stroke-width: 0.8"/>
      </g>
     </g>
     <g id="text_11">
      <!-- 0 -->
      <g transform="translate(44.2375 168.860784) scale(0.1 -0.1)">
       <use xlink:href="#DejaVuSans-30"/>
      </g>
     </g>
    </g>
    <g id="ytick_6">
     <g id="line2d_11">
      <g>
       <use xlink:href="#m8557d9346b" x="57.6" y="129.562435" style="stroke: #000000; stroke-width: 0.8"/>
      </g>
     </g>
     <g id="text_12">
      <!-- 5 -->
      <g transform="translate(44.2375 133.361654) scale(0.1 -0.1)">
       <use xlink:href="#DejaVuSans-35"/>
      </g>
     </g>
    </g>
    <g id="ytick_7">
     <g id="line2d_12">
      <g>
       <use xlink:href="#m8557d9346b" x="57.6" y="94.063304" style="stroke: #000000; stroke-width: 0.8"/>
      </g>
     </g>
     <g id="text_13">
      <!-- 10 -->
      <g transform="translate(37.875 97.862523) scale(0.1 -0.1)">
       <use xlink:href="#DejaVuSans-31"/>
       <use xlink:href="#DejaVuSans-30" x="63.623047"/>
      </g>
     </g>
    </g>
    <g id="ytick_8">
     <g id="line2d_13">
      <g>
       <use xlink:href="#m8557d9346b" x="57.6" y="58.564174" style="stroke: #000000; stroke-width: 0.8"/>
      </g>
     </g>
     <g id="text_14">
      <!-- 15 -->
      <g transform="translate(37.875 62.363393) scale(0.1 -0.1)">
       <use xlink:href="#DejaVuSans-31"/>
       <use xlink:href="#DejaVuSans-35" x="63.623047"/>
      </g>
     </g>
    </g>
    <g id="text_15">
     <!-- Right eye movement[degrees] -->
     <g transform="translate(23.415625 251.053781) rotate(-90) scale(0.1 -0.1)">
      <defs>
       <path id="DejaVuSans-52" d="M 2841 2188 
Q 3044 2119 3236 1894 
Q 3428 1669 3622 1275 
L 4263 0 
L 3584 0 
L 2988 1197 
Q 2756 1666 2539 1819 
Q 2322 1972 1947 1972 
L 1259 1972 
L 1259 0 
L 628 0 
L 628 4666 
L 2053 4666 
Q 2853 4666 3247 4331 
Q 3641 3997 3641 3322 
Q 3641 2881 3436 2590 
Q 3231 2300 2841 2188 
z
M 1259 4147 
L 1259 2491 
L 2053 2491 
Q 2509 2491 2742 2702 
Q 2975 2913 2975 3322 
Q 2975 3731 2742 3939 
Q 2509 4147 2053 4147 
L 1259 4147 
z
" transform="scale(0.015625)"/>
       <path id="DejaVuSans-20" transform="scale(0.015625)"/>
       <path id="DejaVuSans-79" d="M 2059 -325 
Q 1816 -950 1584 -1140 
Q 1353 -1331 966 -1331 
L 506 -1331 
L 506 -850 
L 844 -850 
Q 1081 -850 1212 -737 
Q 1344 -625 1503 -206 
L 1606 56 
L 191 3500 
L 800 3500 
L 1894 763 
L 2988 3500 
L 3597 3500 
L 2059 -325 
z
" transform="scale(0.015625)"/>
       <path id="DejaVuSans-6d" d="M 3328 2828 
Q 3544 3216 3844 3400 
Q 4144 3584 4550 3584 
Q 5097 3584 5394 3201 
Q 5691 2819 5691 2113 
L 5691 0 
L 5113 0 
L 5113 2094 
Q 5113 2597 4934 2840 
Q 4756 3084 4391 3084 
Q 3944 3084 3684 2787 
Q 3425 2491 3425 1978 
L 3425 0 
L 2847 0 
L 2847 2094 
Q 2847 2600 2669 2842 
Q 2491 3084 2119 3084 
Q 1678 3084 1418 2786 
Q 1159 2488 1159 1978 
L 1159 0 
L 581 0 
L 581 3500 
L 1159 3500 
L 1159 2956 
Q 1356 3278 1631 3431 
Q 1906 3584 2284 3584 
Q 2666 3584 2933 3390 
Q 3200 3197 3328 2828 
z
" transform="scale(0.015625)"/>
       <path id="DejaVuSans-6f" d="M 1959 3097 
Q 1497 3097 1228 2736 
Q 959 2375 959 1747 
Q 959 1119 1226 758 
Q 1494 397 1959 397 
Q 2419 397 2687 759 
Q 2956 1122 2956 1747 
Q 2956 2369 2687 2733 
Q 2419 3097 1959 3097 
z
M 1959 3584 
Q 2709 3584 3137 3096 
Q 3566 2609 3566 1747 
Q 3566 888 3137 398 
Q 2709 -91 1959 -91 
Q 1206 -91 779 398 
Q 353 888 353 1747 
Q 353 2609 779 3096 
Q 1206 3584 1959 3584 
z
" transform="scale(0.015625)"/>
       <path id="DejaVuSans-76" d="M 191 3500 
L 800 3500 
L 1894 563 
L 2988 3500 
L 3597 3500 
L 2284 0 
L 1503 0 
L 191 3500 
z
" transform="scale(0.015625)"/>
       <path id="DejaVuSans-6e" d="M 3513 2113 
L 3513 0 
L 2938 0 
L 2938 2094 
Q 2938 2591 2744 2837 
Q 2550 3084 2163 3084 
Q 1697 3084 1428 2787 
Q 1159 2491 1159 1978 
L 1159 0 
L 581 0 
L 581 3500 
L 1159 3500 
L 1159 2956 
Q 1366 3272 1645 3428 
Q 1925 3584 2291 3584 
Q 2894 3584 3203 3211 
Q 3513 2838 3513 2113 
z
" transform="scale(0.015625)"/>
      </defs>
      <use xlink:href="#DejaVuSans-52"/>
      <use xlink:href="#DejaVuSans-69" x="69.482422"/>
      <use xlink:href="#DejaVuSans-67" x="97.265625"/>
      <use xlink:href="#DejaVuSans-68" x="160.742188"/>
      <use xlink:href="#DejaVuSans-74" x="224.121094"/>
      <use xlink:href="#DejaVuSans-20" x="263.330078"/>
      <use xlink:href="#DejaVuSans-65" x="295.117188"/>
      <use xlink:href="#DejaVuSans-79" x="356.640625"/>
      <use xlink:href="#DejaVuSans-65" x="415.820312"/>
      <use xlink:href="#DejaVuSans-20" x="477.34375"/>
      <use xlink:href="#DejaVuSans-6d" x="509.130859"/>
      <use xlink:href="#DejaVuSans-6f" x="606.542969"/>
      <use xlink:href="#DejaVuSans-76" x="667.724609"/>
      <use xlink:href="#DejaVuSans-65" x="726.904297"/>
      <use xlink:href="#DejaVuSans-6d" x="788.427734"/>
      <use xlink:href="#DejaVuSans-65" x="885.839844"/>
      <use xlink:href="#DejaVuSans-6e" x="947.363281"/>
      <use xlink:href="#DejaVuSans-74" x="1010.742188"/>
      <use xlink:href="#DejaVuSans-5b" x="1049.951172"/>
      <use xlink:href="#DejaVuSans-64" x="1088.964844"/>
      <use xlink:href="#DejaVuSans-65" x="1152.441406"/>
      <use xlink:href="#DejaVuSans-67" x="1213.964844"/>
      <use xlink:href="#DejaVuSans-72" x="1277.441406"/>
      <use xlink:href="#DejaVuSans-65" x="1316.304688"/>
      <use xlink:href="#DejaVuSans-65" x="1377.828125"/>
      <use xlink:href="#DejaVuSans-73" x="1439.351562"/>
      <use xlink:href="#DejaVuSans-5d" x="1491.451172"/>
     </g>
    </g>
   </g>
   <g id="line2d_14">
    <defs>
     <path id="m7c93750ca0" d="M 0 3 
C 0.795609 3 1.55874 2.683901 2.12132 2.12132 
C 2.683901 1.55874 3 0.795609 3 0 
C 3 -0.795609 2.683901 -1.55874 2.12132 -2.12132 
C 1.55874 -2.683901 0.795609 -3 0 -3 
C -0.795609 -3 -1.55874 -2.683901 -2.12132 -2.12132 
C -2.683901 -1.55874 -3 -0.795609 -3 0 
C -3 0.795609 -2.683901 1.55874 -2.12132 2.12132 
C -1.55874 2.683901 -0.795609 3 0 3 
z
" style="stroke: #1f77b4"/>
    </defs>
    <g clip-path="url(#pafb866cc36)">
     <use xlink:href="#m7c93750ca0" x="73.832727" y="53.568" style="fill: #1f77b4; stroke: #1f77b4"/>
     <use xlink:href="#m7c93750ca0" x="77.329904" y="57.775304" style="fill: #1f77b4; stroke: #1f77b4"/>
     <use xlink:href="#m7c93750ca0" x="80.82708" y="63.034435" style="fill: #1f77b4; stroke: #1f77b4"/>
     <use xlink:href="#m7c93750ca0" x="84.324257" y="67.241739" style="fill: #1f77b4; stroke: #1f77b4"/>
     <use xlink:href="#m7c93750ca0" x="88.987158" y="71.449043" style="fill: #1f77b4; stroke: #1f77b4"/>
     <use xlink:href="#m7c93750ca0" x="91.318609" y="75.656348" style="fill: #1f77b4; stroke: #1f77b4"/>
     <use xlink:href="#m7c93750ca0" x="94.815786" y="79.863652" style="fill: #1f77b4; stroke: #1f77b4"/>
     <use xlink:href="#m7c93750ca0" x="98.312962" y="84.070957" style="fill: #1f77b4; stroke: #1f77b4"/>
     <use xlink:href="#m7c93750ca0" x="101.810139" y="89.330087" style="fill: #1f77b4; stroke: #1f77b4"/>
     <use xlink:href="#m7c93750ca0" x="106.473041" y="94.589217" style="fill: #1f77b4; stroke: #1f77b4"/>
     <use xlink:href="#m7c93750ca0" x="111.135943" y="98.796522" style="fill: #1f77b4; stroke: #1f77b4"/>
     <use xlink:href="#m7c93750ca0" x="114.633119" y="103.003826" style="fill: #1f77b4; stroke: #1f77b4"/>
     <use xlink:href="#m7c93750ca0" x="119.296021" y="106.159304" style="fill: #1f77b4; stroke: #1f77b4"/>
     <use xlink:href="#m7c93750ca0" x="123.958923" y="109.314783" style="fill: #1f77b4; stroke: #1f77b4"/>
     <use xlink:href="#m7c93750ca0" x="128.038962" y="112.996174" style="fill: #1f77b4; stroke: #1f77b4"/>
     <use xlink:href="#m7c93750ca0" x="133.284727" y="117.203478" style="fill: #1f77b4; stroke: #1f77b4"/>
     <use xlink:href="#m7c93750ca0" x="139.113354" y="120.88487" style="fill: #1f77b4; stroke: #1f77b4"/>
     <use xlink:href="#m7c93750ca0" x="143.776256" y="125.092174" style="fill: #1f77b4; stroke: #1f77b4"/>
     <use xlink:href="#m7c93750ca0" x="147.273432" y="128.247652" style="fill: #1f77b4; stroke: #1f77b4"/>
     <use xlink:href="#m7c93750ca0" x="150.770609" y="132.454957" style="fill: #1f77b4; stroke: #1f77b4"/>
     <use xlink:href="#m7c93750ca0" x="154.267785" y="135.610435" style="fill: #1f77b4; stroke: #1f77b4"/>
     <use xlink:href="#m7c93750ca0" x="157.764962" y="138.765913" style="fill: #1f77b4; stroke: #1f77b4"/>
     <use xlink:href="#m7c93750ca0" x="161.262138" y="142.973217" style="fill: #1f77b4; stroke: #1f77b4"/>
     <use xlink:href="#m7c93750ca0" x="165.92504" y="148.232348" style="fill: #1f77b4; stroke: #1f77b4"/>
     <use xlink:href="#m7c93750ca0" x="170.587942" y="152.439652" style="fill: #1f77b4; stroke: #1f77b4"/>
     <use xlink:href="#m7c93750ca0" x="175.250844" y="157.698783" style="fill: #1f77b4; stroke: #1f77b4"/>
     <use xlink:href="#m7c93750ca0" x="179.913746" y="162.957913" style="fill: #1f77b4; stroke: #1f77b4"/>
     <use xlink:href="#m7c93750ca0" x="184.576648" y="167.69113" style="fill: #1f77b4; stroke: #1f77b4"/>
     <use xlink:href="#m7c93750ca0" x="190.405275" y="171.372522" style="fill: #1f77b4; stroke: #1f77b4"/>
     <use xlink:href="#m7c93750ca0" x="195.068177" y="175.579826" style="fill: #1f77b4; stroke: #1f77b4"/>
     <use xlink:href="#m7c93750ca0" x="200.896804" y="179.78713" style="fill: #1f77b4; stroke: #1f77b4"/>
     <use xlink:href="#m7c93750ca0" x="205.559706" y="182.942609" style="fill: #1f77b4; stroke: #1f77b4"/>
     <use xlink:href="#m7c93750ca0" x="210.222608" y="186.098087" style="fill: #1f77b4; stroke: #1f77b4"/>
     <use xlink:href="#m7c93750ca0" x="214.88551" y="190.305391" style="fill: #1f77b4; stroke: #1f77b4"/>
     <use xlink:href="#m7c93750ca0" x="220.714137" y="193.986783" style="fill: #1f77b4; stroke: #1f77b4"/>
     <use xlink:href="#m7c93750ca0" x="226.542765" y="197.668174" style="fill: #1f77b4; stroke: #1f77b4"/>
     <use xlink:href="#m7c93750ca0" x="232.371392" y="201.875478" style="fill: #1f77b4; stroke: #1f77b4"/>
     <use xlink:href="#m7c93750ca0" x="238.20002" y="205.030957" style="fill: #1f77b4; stroke: #1f77b4"/>
     <use xlink:href="#m7c93750ca0" x="245.194372" y="209.238261" style="fill: #1f77b4; stroke: #1f77b4"/>
     <use xlink:href="#m7c93750ca0" x="251.023" y="212.393739" style="fill: #1f77b4; stroke: #1f77b4"/>
     <use xlink:href="#m7c93750ca0" x="256.851627" y="215.549217" style="fill: #1f77b4; stroke: #1f77b4"/>
     <use xlink:href="#m7c93750ca0" x="262.680255" y="218.704696" style="fill: #1f77b4; stroke: #1f77b4"/>
     <use xlink:href="#m7c93750ca0" x="269.674607" y="222.386087" style="fill: #1f77b4; stroke: #1f77b4"/>
     <use xlink:href="#m7c93750ca0" x="276.66896" y="226.067478" style="fill: #1f77b4; stroke: #1f77b4"/>
     <use xlink:href="#m7c93750ca0" x="281.331862" y="229.222957" style="fill: #1f77b4; stroke: #1f77b4"/>
     <use xlink:href="#m7c93750ca0" x="287.16049" y="232.378435" style="fill: #1f77b4; stroke: #1f77b4"/>
     <use xlink:href="#m7c93750ca0" x="292.989117" y="236.059826" style="fill: #1f77b4; stroke: #1f77b4"/>
     <use xlink:href="#m7c93750ca0" x="298.817744" y="239.741217" style="fill: #1f77b4; stroke: #1f77b4"/>
     <use xlink:href="#m7c93750ca0" x="305.812097" y="243.948522" style="fill: #1f77b4; stroke: #1f77b4"/>
     <use xlink:href="#m7c93750ca0" x="311.640725" y="248.155826" style="fill: #1f77b4; stroke: #1f77b4"/>
     <use xlink:href="#m7c93750ca0" x="317.469352" y="252.36313" style="fill: #1f77b4; stroke: #1f77b4"/>
     <use xlink:href="#m7c93750ca0" x="324.463705" y="257.096348" style="fill: #1f77b4; stroke: #1f77b4"/>
     <use xlink:href="#m7c93750ca0" x="330.292332" y="262.881391" style="fill: #1f77b4; stroke: #1f77b4"/>
     <use xlink:href="#m7c93750ca0" x="334.955234" y="267.088696" style="fill: #1f77b4; stroke: #1f77b4"/>
     <use xlink:href="#m7c93750ca0" x="340.783862" y="272.347826" style="fill: #1f77b4; stroke: #1f77b4"/>
     <use xlink:href="#m7c93750ca0" x="346.612489" y="277.606957" style="fill: #1f77b4; stroke: #1f77b4"/>
     <use xlink:href="#m7c93750ca0" x="351.275391" y="281.814261" style="fill: #1f77b4; stroke: #1f77b4"/>
     <use xlink:href="#m7c93750ca0" x="355.938293" y="286.021565" style="fill: #1f77b4; stroke: #1f77b4"/>
     <use xlink:href="#m7c93750ca0" x="360.601195" y="291.280696" style="fill: #1f77b4; stroke: #1f77b4"/>
     <use xlink:href="#m7c93750ca0" x="366.429822" y="295.488" style="fill: #1f77b4; stroke: #1f77b4"/>
     <use xlink:href="#m7c93750ca0" x="374.5899" y="294.436174" style="fill: #1f77b4; stroke: #1f77b4"/>
     <use xlink:href="#m7c93750ca0" x="382.749979" y="292.332522" style="fill: #1f77b4; stroke: #1f77b4"/>
     <use xlink:href="#m7c93750ca0" x="389.744332" y="292.332522" style="fill: #1f77b4; stroke: #1f77b4"/>
     <use xlink:href="#m7c93750ca0" x="398.487273" y="290.22887" style="fill: #1f77b4; stroke: #1f77b4"/>
    </g>
   </g>
   <g id="line2d_15">
    <defs>
     <path id="m93427d0495" d="M 0 3 
C 0.795609 3 1.55874 2.683901 2.12132 2.12132 
C 2.683901 1.55874 3 0.795609 3 0 
C 3 -0.795609 2.683901 -1.55874 2.12132 -2.12132 
C 1.55874 -2.683901 0.795609 -3 0 -3 
C -0.795609 -3 -1.55874 -2.683901 -2.12132 -2.12132 
C -2.683901 -1.55874 -3 -0.795609 -3 0 
C -3 0.795609 -2.683901 1.55874 -2.12132 2.12132 
C -1.55874 2.683901 -0.795609 3 0 3 
z
" style="stroke: #ff7f0e"/>
    </defs>
    <g clip-path="url(#pafb866cc36)">
     <use xlink:href="#m93427d0495" x="76.164178" y="134.558609" style="fill: #ff7f0e; stroke: #ff7f0e"/>
     <use xlink:href="#m93427d0495" x="83.158531" y="132.454957" style="fill: #ff7f0e; stroke: #ff7f0e"/>
     <use xlink:href="#m93427d0495" x="90.152884" y="131.40313" style="fill: #ff7f0e; stroke: #ff7f0e"/>
     <use xlink:href="#m93427d0495" x="97.147237" y="130.351304" style="fill: #ff7f0e; stroke: #ff7f0e"/>
     <use xlink:href="#m93427d0495" x="105.307315" y="129.299478" style="fill: #ff7f0e; stroke: #ff7f0e"/>
     <use xlink:href="#m93427d0495" x="112.301668" y="127.721739" style="fill: #ff7f0e; stroke: #ff7f0e"/>
     <use xlink:href="#m93427d0495" x="119.296021" y="127.195826" style="fill: #ff7f0e; stroke: #ff7f0e"/>
     <use xlink:href="#m93427d0495" x="125.124648" y="126.144" style="fill: #ff7f0e; stroke: #ff7f0e"/>
     <use xlink:href="#m93427d0495" x="130.953276" y="125.618087" style="fill: #ff7f0e; stroke: #ff7f0e"/>
     <use xlink:href="#m93427d0495" x="136.781903" y="125.092174" style="fill: #ff7f0e; stroke: #ff7f0e"/>
     <use xlink:href="#m93427d0495" x="141.444805" y="124.040348" style="fill: #ff7f0e; stroke: #ff7f0e"/>
     <use xlink:href="#m93427d0495" x="146.107707" y="121.936696" style="fill: #ff7f0e; stroke: #ff7f0e"/>
     <use xlink:href="#m93427d0495" x="150.770609" y="125.092174" style="fill: #ff7f0e; stroke: #ff7f0e"/>
     <use xlink:href="#m93427d0495" x="155.433511" y="128.247652" style="fill: #ff7f0e; stroke: #ff7f0e"/>
     <use xlink:href="#m93427d0495" x="161.262138" y="132.454957" style="fill: #ff7f0e; stroke: #ff7f0e"/>
     <use xlink:href="#m93427d0495" x="167.090765" y="135.610435" style="fill: #ff7f0e; stroke: #ff7f0e"/>
     <use xlink:href="#m93427d0495" x="172.919393" y="138.765913" style="fill: #ff7f0e; stroke: #ff7f0e"/>
     <use xlink:href="#m93427d0495" x="177.582295" y="141.921391" style="fill: #ff7f0e; stroke: #ff7f0e"/>
     <use xlink:href="#m93427d0495" x="183.410922" y="145.07687" style="fill: #ff7f0e; stroke: #ff7f0e"/>
     <use xlink:href="#m93427d0495" x="188.073824" y="148.232348" style="fill: #ff7f0e; stroke: #ff7f0e"/>
     <use xlink:href="#m93427d0495" x="193.902451" y="150.336" style="fill: #ff7f0e; stroke: #ff7f0e"/>
     <use xlink:href="#m93427d0495" x="198.565353" y="152.439652" style="fill: #ff7f0e; stroke: #ff7f0e"/>
     <use xlink:href="#m93427d0495" x="204.393981" y="154.543304" style="fill: #ff7f0e; stroke: #ff7f0e"/>
     <use xlink:href="#m93427d0495" x="209.639745" y="157.17287" style="fill: #ff7f0e; stroke: #ff7f0e"/>
     <use xlink:href="#m93427d0495" x="214.88551" y="159.802435" style="fill: #ff7f0e; stroke: #ff7f0e"/>
     <use xlink:href="#m93427d0495" x="220.714137" y="161.906087" style="fill: #ff7f0e; stroke: #ff7f0e"/>
     <use xlink:href="#m93427d0495" x="227.70849" y="162.957913" style="fill: #ff7f0e; stroke: #ff7f0e"/>
     <use xlink:href="#m93427d0495" x="233.537118" y="162.957913" style="fill: #ff7f0e; stroke: #ff7f0e"/>
     <use xlink:href="#m93427d0495" x="239.365745" y="164.009739" style="fill: #ff7f0e; stroke: #ff7f0e"/>
     <use xlink:href="#m93427d0495" x="246.360098" y="165.061565" style="fill: #ff7f0e; stroke: #ff7f0e"/>
     <use xlink:href="#m93427d0495" x="252.188725" y="166.113391" style="fill: #ff7f0e; stroke: #ff7f0e"/>
     <use xlink:href="#m93427d0495" x="258.017353" y="165.061565" style="fill: #ff7f0e; stroke: #ff7f0e"/>
     <use xlink:href="#m93427d0495" x="265.011706" y="165.061565" style="fill: #ff7f0e; stroke: #ff7f0e"/>
     <use xlink:href="#m93427d0495" x="270.840333" y="165.061565" style="fill: #ff7f0e; stroke: #ff7f0e"/>
     <use xlink:href="#m93427d0495" x="276.66896" y="164.009739" style="fill: #ff7f0e; stroke: #ff7f0e"/>
     <use xlink:href="#m93427d0495" x="283.663313" y="164.009739" style="fill: #ff7f0e; stroke: #ff7f0e"/>
     <use xlink:href="#m93427d0495" x="290.657666" y="162.957913" style="fill: #ff7f0e; stroke: #ff7f0e"/>
     <use xlink:href="#m93427d0495" x="296.486293" y="166.113391" style="fill: #ff7f0e; stroke: #ff7f0e"/>
     <use xlink:href="#m93427d0495" x="299.98347" y="170.320696" style="fill: #ff7f0e; stroke: #ff7f0e"/>
     <use xlink:href="#m93427d0495" x="303.480646" y="174.528" style="fill: #ff7f0e; stroke: #ff7f0e"/>
     <use xlink:href="#m93427d0495" x="308.143548" y="177.683478" style="fill: #ff7f0e; stroke: #ff7f0e"/>
     <use xlink:href="#m93427d0495" x="311.640725" y="182.942609" style="fill: #ff7f0e; stroke: #ff7f0e"/>
     <use xlink:href="#m93427d0495" x="315.137901" y="187.149913" style="fill: #ff7f0e; stroke: #ff7f0e"/>
     <use xlink:href="#m93427d0495" x="319.21794" y="190.831304" style="fill: #ff7f0e; stroke: #ff7f0e"/>
     <use xlink:href="#m93427d0495" x="323.297979" y="194.512696" style="fill: #ff7f0e; stroke: #ff7f0e"/>
     <use xlink:href="#m93427d0495" x="326.795156" y="198.72" style="fill: #ff7f0e; stroke: #ff7f0e"/>
     <use xlink:href="#m93427d0495" x="332.623783" y="201.875478" style="fill: #ff7f0e; stroke: #ff7f0e"/>
     <use xlink:href="#m93427d0495" x="338.452411" y="202.927304" style="fill: #ff7f0e; stroke: #ff7f0e"/>
     <use xlink:href="#m93427d0495" x="344.281038" y="206.082783" style="fill: #ff7f0e; stroke: #ff7f0e"/>
     <use xlink:href="#m93427d0495" x="350.109665" y="209.238261" style="fill: #ff7f0e; stroke: #ff7f0e"/>
     <use xlink:href="#m93427d0495" x="357.104018" y="211.341913" style="fill: #ff7f0e; stroke: #ff7f0e"/>
     <use xlink:href="#m93427d0495" x="362.932646" y="214.497391" style="fill: #ff7f0e; stroke: #ff7f0e"/>
     <use xlink:href="#m93427d0495" x="369.926999" y="214.497391" style="fill: #ff7f0e; stroke: #ff7f0e"/>
     <use xlink:href="#m93427d0495" x="378.087077" y="214.497391" style="fill: #ff7f0e; stroke: #ff7f0e"/>
     <use xlink:href="#m93427d0495" x="383.915704" y="215.549217" style="fill: #ff7f0e; stroke: #ff7f0e"/>
     <use xlink:href="#m93427d0495" x="390.910057" y="215.549217" style="fill: #ff7f0e; stroke: #ff7f0e"/>
     <use xlink:href="#m93427d0495" x="397.90441" y="215.549217" style="fill: #ff7f0e; stroke: #ff7f0e"/>
    </g>
   </g>
   <g id="line2d_16">
    <path d="M 73.832727 53.568 
L 81.21124 63.496601 
L 88.589752 71.090466 
L 95.968264 81.25015 
L 103.346777 91.063209 
L 110.725289 98.425992 
L 118.103802 105.352506 
L 125.482314 110.689328 
L 132.860826 116.863494 
L 140.239339 121.900838 
L 147.617851 128.662008 
L 154.996364 136.267826 
L 162.374876 144.228237 
L 169.753388 151.68664 
L 177.131901 159.820364 
L 184.510413 167.623897 
L 191.888926 172.711209 
L 199.267438 178.610998 
L 206.64595 183.677692 
L 214.024463 189.528474 
L 221.402975 194.421856 
L 228.781488 199.284161 
L 236.16 203.926539 
L 243.538512 208.242213 
L 250.917025 212.336367 
L 258.295537 216.330915 
L 265.67405 220.280443 
L 273.052562 224.164032 
L 280.431074 228.613375 
L 287.809587 232.788408 
L 295.188099 237.448715 
L 302.566612 241.996269 
L 309.945124 246.931883 
L 317.323636 252.257948 
L 324.702149 257.333009 
L 332.080661 264.494988 
L 339.459174 271.152569 
L 346.837686 277.81015 
L 354.216198 284.467731 
L 361.594711 291.99785 
L 368.973223 295.160158 
L 376.351736 293.981976 
L 383.730248 292.332522 
L 391.10876 292.004225 
L 398.487273 290.22887 
" clip-path="url(#pafb866cc36)" style="fill: none; stroke: #2ca02c; stroke-width: 1.5; stroke-linecap: square"/>
   </g>
   <g id="line2d_17">
    <path d="M 76.164178 134.558609 
L 83.476456 132.407146 
L 90.788734 131.30751 
L 98.101012 130.228364 
L 105.41329 129.275573 
L 112.725568 127.689866 
L 120.037846 127.061957 
L 127.350124 125.943197 
L 134.662402 125.283415 
L 141.97468 123.801296 
L 149.286958 124.088158 
L 156.599236 129.089113 
L 163.911514 133.889265 
L 171.223792 137.847956 
L 178.53607 142.437742 
L 185.848348 146.726324 
L 193.160626 150.068262 
L 200.472904 153.12812 
L 207.785182 156.243225 
L 215.09746 159.878931 
L 222.409738 162.161075 
L 229.722016 162.957913 
L 237.034294 163.589009 
L 244.346572 164.758767 
L 251.65885 166.017771 
L 258.971128 165.061565 
L 266.283406 165.061565 
L 273.595684 164.564338 
L 280.907962 164.009739 
L 288.22024 163.324458 
L 295.532518 165.59704 
L 302.844796 173.763036 
L 310.157074 180.711462 
L 317.469352 189.253565 
L 324.78163 196.297613 
L 332.093908 201.588617 
L 339.406186 203.443655 
L 346.718464 207.402346 
L 354.030742 210.417581 
L 361.34302 213.636806 
L 368.655298 214.497391 
L 375.967576 214.497391 
L 383.279854 215.434473 
L 390.592132 215.549217 
L 397.90441 215.549217 
" clip-path="url(#pafb866cc36)" style="fill: none; stroke-dasharray: 5.55,2.4; stroke-dashoffset: 0; stroke: #d62728; stroke-width: 1.5"/>
   </g>
   <g id="patch_3">
    <path d="M 57.6 307.584 
L 57.6 41.472 
" style="fill: none; stroke: #000000; stroke-width: 0.8; stroke-linejoin: miter; stroke-linecap: square"/>
   </g>
   <g id="patch_4">
    <path d="M 414.72 307.584 
L 414.72 41.472 
" style="fill: none; stroke: #000000; stroke-width: 0.8; stroke-linejoin: miter; stroke-linecap: square"/>
   </g>
   <g id="patch_5">
    <path d="M 57.6 307.584 
L 414.72 307.584 
" style="fill: none; stroke: #000000; stroke-width: 0.8; stroke-linejoin: miter; stroke-linecap: square"/>
   </g>
   <g id="patch_6">
    <path d="M 57.6 41.472 
L 414.72 41.472 
" style="fill: none; stroke: #000000; stroke-width: 0.8; stroke-linejoin: miter; stroke-linecap: square"/>
   </g>
   <g id="text_16">
    <!-- Pitch correction -->
    <g transform="translate(189.5025 35.472) scale(0.12 -0.12)">
     <use xlink:href="#DejaVuSans-50"/>
     <use xlink:href="#DejaVuSans-69" x="58.052734"/>
     <use xlink:href="#DejaVuSans-74" x="85.835938"/>
     <use xlink:href="#DejaVuSans-63" x="125.044922"/>
     <use xlink:href="#DejaVuSans-68" x="180.025391"/>
     <use xlink:href="#DejaVuSans-20" x="243.404297"/>
     <use xlink:href="#DejaVuSans-63" x="275.191406"/>
     <use xlink:href="#DejaVuSans-6f" x="330.171875"/>
     <use xlink:href="#DejaVuSans-72" x="391.353516"/>
     <use xlink:href="#DejaVuSans-72" x="430.716797"/>
     <use xlink:href="#DejaVuSans-65" x="469.580078"/>
     <use xlink:href="#DejaVuSans-63" x="531.103516"/>
     <use xlink:href="#DejaVuSans-74" x="586.083984"/>
     <use xlink:href="#DejaVuSans-69" x="625.292969"/>
     <use xlink:href="#DejaVuSans-6f" x="653.076172"/>
     <use xlink:href="#DejaVuSans-6e" x="714.257812"/>
    </g>
   </g>
   <g id="legend_1">
    <g id="patch_7">
     <path d="M 322.245 108.1845 
L 407.72 108.1845 
Q 409.72 108.1845 409.72 106.1845 
L 409.72 48.472 
Q 409.72 46.472 407.72 46.472 
L 322.245 46.472 
Q 320.245 46.472 320.245 48.472 
L 320.245 106.1845 
Q 320.245 108.1845 322.245 108.1845 
z
" style="fill: #ffffff; opacity: 0.8; stroke: #cccccc; stroke-linejoin: miter"/>
    </g>
    <g id="line2d_18">
     <g>
      <use xlink:href="#m7c93750ca0" x="334.245" y="54.570438" style="fill: #1f77b4; stroke: #1f77b4"/>
     </g>
    </g>
    <g id="text_17">
     <!-- horiz. data -->
     <g transform="translate(352.245 58.070438) scale(0.1 -0.1)">
      <defs>
       <path id="DejaVuSans-7a" d="M 353 3500 
L 3084 3500 
L 3084 2975 
L 922 459 
L 3084 459 
L 3084 0 
L 275 0 
L 275 525 
L 2438 3041 
L 353 3041 
L 353 3500 
z
" transform="scale(0.015625)"/>
       <path id="DejaVuSans-2e" d="M 684 794 
L 1344 794 
L 1344 0 
L 684 0 
L 684 794 
z
" transform="scale(0.015625)"/>
       <path id="DejaVuSans-61" d="M 2194 1759 
Q 1497 1759 1228 1600 
Q 959 1441 959 1056 
Q 959 750 1161 570 
Q 1363 391 1709 391 
Q 2188 391 2477 730 
Q 2766 1069 2766 1631 
L 2766 1759 
L 2194 1759 
z
M 3341 1997 
L 3341 0 
L 2766 0 
L 2766 531 
Q 2569 213 2275 61 
Q 1981 -91 1556 -91 
Q 1019 -91 701 211 
Q 384 513 384 1019 
Q 384 1609 779 1909 
Q 1175 2209 1959 2209 
L 2766 2209 
L 2766 2266 
Q 2766 2663 2505 2880 
Q 2244 3097 1772 3097 
Q 1472 3097 1187 3025 
Q 903 2953 641 2809 
L 641 3341 
Q 956 3463 1253 3523 
Q 1550 3584 1831 3584 
Q 2591 3584 2966 3190 
Q 3341 2797 3341 1997 
z
" transform="scale(0.015625)"/>
      </defs>
      <use xlink:href="#DejaVuSans-68"/>
      <use xlink:href="#DejaVuSans-6f" x="63.378906"/>
      <use xlink:href="#DejaVuSans-72" x="124.560547"/>
      <use xlink:href="#DejaVuSans-69" x="165.673828"/>
      <use xlink:href="#DejaVuSans-7a" x="193.457031"/>
      <use xlink:href="#DejaVuSans-2e" x="245.947266"/>
      <use xlink:href="#DejaVuSans-20" x="277.734375"/>
      <use xlink:href="#DejaVuSans-64" x="309.521484"/>
      <use xlink:href="#DejaVuSans-61" x="372.998047"/>
      <use xlink:href="#DejaVuSans-74" x="434.277344"/>
      <use xlink:href="#DejaVuSans-61" x="473.486328"/>
     </g>
    </g>
    <g id="line2d_19">
     <g>
      <use xlink:href="#m93427d0495" x="334.245" y="69.248563" style="fill: #ff7f0e; stroke: #ff7f0e"/>
     </g>
    </g>
    <g id="text_18">
     <!-- vert. data -->
     <g transform="translate(352.245 72.748563) scale(0.1 -0.1)">
      <use xlink:href="#DejaVuSans-76"/>
      <use xlink:href="#DejaVuSans-65" x="59.179688"/>
      <use xlink:href="#DejaVuSans-72" x="120.703125"/>
      <use xlink:href="#DejaVuSans-74" x="161.816406"/>
      <use xlink:href="#DejaVuSans-2e" x="201.025391"/>
      <use xlink:href="#DejaVuSans-20" x="232.8125"/>
      <use xlink:href="#DejaVuSans-64" x="264.599609"/>
      <use xlink:href="#DejaVuSans-61" x="328.076172"/>
      <use xlink:href="#DejaVuSans-74" x="389.355469"/>
      <use xlink:href="#DejaVuSans-61" x="428.564453"/>
     </g>
    </g>
    <g id="line2d_20">
     <path d="M 324.245 83.926688 
L 334.245 83.926688 
L 344.245 83.926688 
" style="fill: none; stroke: #2ca02c; stroke-width: 1.5; stroke-linecap: square"/>
    </g>
    <g id="text_19">
     <!-- horiz. fit -->
     <g transform="translate(352.245 87.426688) scale(0.1 -0.1)">
      <defs>
       <path id="DejaVuSans-66" d="M 2375 4863 
L 2375 4384 
L 1825 4384 
Q 1516 4384 1395 4259 
Q 1275 4134 1275 3809 
L 1275 3500 
L 2222 3500 
L 2222 3053 
L 1275 3053 
L 1275 0 
L 697 0 
L 697 3053 
L 147 3053 
L 147 3500 
L 697 3500 
L 697 3744 
Q 697 4328 969 4595 
Q 1241 4863 1831 4863 
L 2375 4863 
z
" transform="scale(0.015625)"/>
      </defs>
      <use xlink:href="#DejaVuSans-68"/>
      <use xlink:href="#DejaVuSans-6f" x="63.378906"/>
      <use xlink:href="#DejaVuSans-72" x="124.560547"/>
      <use xlink:href="#DejaVuSans-69" x="165.673828"/>
      <use xlink:href="#DejaVuSans-7a" x="193.457031"/>
      <use xlink:href="#DejaVuSans-2e" x="245.947266"/>
      <use xlink:href="#DejaVuSans-20" x="277.734375"/>
      <use xlink:href="#DejaVuSans-66" x="309.521484"/>
      <use xlink:href="#DejaVuSans-69" x="344.726562"/>
      <use xlink:href="#DejaVuSans-74" x="372.509766"/>
     </g>
    </g>
    <g id="line2d_21">
     <path d="M 324.245 98.604813 
L 334.245 98.604813 
L 344.245 98.604813 
" style="fill: none; stroke-dasharray: 5.55,2.4; stroke-dashoffset: 0; stroke: #d62728; stroke-width: 1.5"/>
    </g>
    <g id="text_20">
     <!-- vert. fit -->
     <g transform="translate(352.245 102.104813) scale(0.1 -0.1)">
      <use xlink:href="#DejaVuSans-76"/>
      <use xlink:href="#DejaVuSans-65" x="59.179688"/>
      <use xlink:href="#DejaVuSans-72" x="120.703125"/>
      <use xlink:href="#DejaVuSans-74" x="161.816406"/>
      <use xlink:href="#DejaVuSans-2e" x="201.025391"/>
      <use xlink:href="#DejaVuSans-20" x="232.8125"/>
      <use xlink:href="#DejaVuSans-66" x="264.599609"/>
      <use xlink:href="#DejaVuSans-69" x="299.804688"/>
      <use xlink:href="#DejaVuSans-74" x="327.587891"/>
     </g>
    </g>
   </g>
  </g>
 </g>
 <defs>
  <clipPath id="pafb866cc36">
   <rect x="57.6" y="41.472" width="357.12" height="266.112"/>
  </clipPath>
 </defs>
</svg>
