<?xml version="1.0" encoding="utf-8" standalone="no"?>
<!DOCTYPE svg PUBLIC "-//W3C//DTD SVG 1.1//EN"
  "http://www.w3.org/Graphics/SVG/1.1/DTD/svg11.dtd">
<svg xmlns:xlink="http://www.w3.org/1999/xlink" width="460.8pt" height="345.6pt" viewBox="0 0 460.8 345.6" xmlns="http://www.w3.org/2000/svg" version="1.1">
 <metadata>
  <rdf:RDF xmlns:dc="http://purl.org/dc/elements/1.1/" xmlns:cc="http://creativecommons.org/ns#" xmlns:rdf="http://www.w3.org/1999/02/22-rdf-syntax-ns#">
   <cc:Work>
    <dc:type rdf:resource="http://purl.org/dc/dcmitype/StillImage"/>
    <dc:date>2023-12-23T15:45:28.518260</dc:date>
    <dc:format>image/svg+xml</dc:format>
    <dc:creator>
     <cc:Agent>
      <dc:title>Matplotlib v3.7.4, https://matplotlib.org/</dc:title>
     </cc:Agent>
    </dc:creator>
   </cc:Work>
  </rdf:RDF>
 </metadata>
 <defs>
  <style type="text/css">*{stroke-linejoin: round; stroke-linecap: butt}</style>
 </defs>
 <g id="figure_1">
  <g id="patch_1">
   <path d="M 0 345.6 
L 460.8 345.6 
L 460.8 0 
L 0 0 
z
" style="fill: #ffffff"/>
  </g>
  <g id="axes_1">
   <g id="patch_2">
    <path d="M 369.216 174.528 
C 369.216 157.055246 365.774248 139.752393 359.087715 123.609673 
C 352.401182 107.466954 342.599903 92.798303 330.2448 80.4432 
C 317.889697 68.088097 303.221046 58.286818 287.078327 51.600285 
C 270.935607 44.913752 253.632754 41.472 236.16 41.472 
C 218.687246 41.472 201.384393 44.913752 185.241673 51.600285 
C 169.098954 58.286818 154.430303 68.088097 142.0752 80.4432 
C 129.720097 92.798303 119.918818 107.466954 113.232285 123.609673 
C 106.545752 139.752393 103.104 157.055246 103.104 174.528 
C 103.104 192.000754 106.545752 209.303607 113.232285 225.446327 
C 119.918818 241.589046 129.720097 256.257697 142.0752 268.6128 
C 154.430303 280.967903 169.098954 290.769182 185.241673 297.455715 
C 201.384393 304.142248 218.687246 307.584 236.16 307.584 
C 253.632754 307.584 270.935607 304.142248 287.078327 297.455715 
C 303.221046 290.769182 317.889697 280.967903 330.2448 268.6128 
C 342.599903 256.257697 352.401182 241.589046 359.087715 225.446327 
C 365.774248 209.303607 369.216 192.000754 369.216 174.528 
M 236.16 174.528 
C 236.16 174.528 236.16 174.528 236.16 174.528 
C 236.16 174.528 236.16 174.528 236.16 174.528 
C 236.16 174.528 236.16 174.528 236.16 174.528 
C 236.16 174.528 236.16 174.528 236.16 174.528 
C 236.16 174.528 236.16 174.528 236.16 174.528 
C 236.16 174.528 236.16 174.528 236.16 174.528 
C 236.16 174.528 236.16 174.528 236.16 174.528 
C 236.16 174.528 236.16 174.528 236.16 174.528 
C 236.16 174.528 236.16 174.528 236.16 174.528 
C 236.16 174.528 236.16 174.528 236.16 174.528 
C 236.16 174.528 236.16 174.528 236.16 174.528 
C 236.16 174.528 236.16 174.528 236.16 174.528 
C 236.16 174.528 236.16 174.528 236.16 174.528 
C 236.16 174.528 236.16 174.528 236.16 174.528 
C 236.16 174.528 236.16 174.528 236.16 174.528 
C 236.16 174.528 236.16 174.528 236.16 174.528 
z
" style="fill: #ffffff"/>
   </g>
   <g id="PathCollection_1">
    <defs>
     <path id="m8733bdb662" d="M 0 3 
C 0.795609 3 1.55874 2.683901 2.12132 2.12132 
C 2.683901 1.55874 3 0.795609 3 0 
C 3 -0.795609 2.683901 -1.55874 2.12132 -2.12132 
C 1.55874 -2.683901 0.795609 -3 0 -3 
C -0.795609 -3 -1.55874 -2.683901 -2.12132 -2.12132 
C -2.683901 -1.55874 -3 -0.795609 -3 0 
C -3 0.795609 -2.683901 1.55874 -2.12132 2.12132 
C -1.55874 2.683901 -0.795609 3 0 3 
z
" style="stroke: #1f77b4"/>
    </defs>
    <g clip-path="url(#p1ee2cbce53)">
     <use xlink:href="#m8733bdb662" x="207.223388" y="205.469902" style="fill: #1f77b4; stroke: #1f77b4"/>
     <use xlink:href="#m8733bdb662" x="219.575079" y="200.377183" style="fill: #1f77b4; stroke: #1f77b4"/>
     <use xlink:href="#m8733bdb662" x="250.94665" y="183.28192" style="fill: #1f77b4; stroke: #1f77b4"/>
     <use xlink:href="#m8733bdb662" x="273.923345" y="166.094345" style="fill: #1f77b4; stroke: #1f77b4"/>
     <use xlink:href="#m8733bdb662" x="274.349914" y="157.273875" style="fill: #1f77b4; stroke: #1f77b4"/>
     <use xlink:href="#m8733bdb662" x="283.000259" y="153.442793" style="fill: #1f77b4; stroke: #1f77b4"/>
     <use xlink:href="#m8733bdb662" x="279.507435" y="158.757168" style="fill: #1f77b4; stroke: #1f77b4"/>
     <use xlink:href="#m8733bdb662" x="238.260932" y="192.0941" style="fill: #1f77b4; stroke: #1f77b4"/>
     <use xlink:href="#m8733bdb662" x="258.378" y="184.394653" style="fill: #1f77b4; stroke: #1f77b4"/>
     <use xlink:href="#m8733bdb662" x="312.685977" y="154.386698" style="fill: #1f77b4; stroke: #1f77b4"/>
     <use xlink:href="#m8733bdb662" x="280.737964" y="167.482187" style="fill: #1f77b4; stroke: #1f77b4"/>
     <use xlink:href="#m8733bdb662" x="248.095585" y="179.308761" style="fill: #1f77b4; stroke: #1f77b4"/>
     <use xlink:href="#m8733bdb662" x="270.138148" y="170.177927" style="fill: #1f77b4; stroke: #1f77b4"/>
     <use xlink:href="#m8733bdb662" x="294.930625" y="163.401293" style="fill: #1f77b4; stroke: #1f77b4"/>
     <use xlink:href="#m8733bdb662" x="278.681182" y="180.994066" style="fill: #1f77b4; stroke: #1f77b4"/>
     <use xlink:href="#m8733bdb662" x="269.9242" y="178.864592" style="fill: #1f77b4; stroke: #1f77b4"/>
     <use xlink:href="#m8733bdb662" x="277.601881" y="172.237143" style="fill: #1f77b4; stroke: #1f77b4"/>
     <use xlink:href="#m8733bdb662" x="289.471284" y="168.668009" style="fill: #1f77b4; stroke: #1f77b4"/>
     <use xlink:href="#m8733bdb662" x="313.535404" y="160.787381" style="fill: #1f77b4; stroke: #1f77b4"/>
     <use xlink:href="#m8733bdb662" x="302.756344" y="168.449519" style="fill: #1f77b4; stroke: #1f77b4"/>
     <use xlink:href="#m8733bdb662" x="259.870158" y="196.963267" style="fill: #1f77b4; stroke: #1f77b4"/>
     <use xlink:href="#m8733bdb662" x="243.496384" y="208.043954" style="fill: #1f77b4; stroke: #1f77b4"/>
     <use xlink:href="#m8733bdb662" x="321.608364" y="155.966541" style="fill: #1f77b4; stroke: #1f77b4"/>
     <use xlink:href="#m8733bdb662" x="223.918026" y="221.268508" style="fill: #1f77b4; stroke: #1f77b4"/>
    </g>
   </g>
   <g id="PathCollection_2">
    <defs>
     <path id="m5c4aeda42d" d="M 0 3 
C 0.795609 3 1.55874 2.683901 2.12132 2.12132 
C 2.683901 1.55874 3 0.795609 3 0 
C 3 -0.795609 2.683901 -1.55874 2.12132 -2.12132 
C 1.55874 -2.683901 0.795609 -3 0 -3 
C -0.795609 -3 -1.55874 -2.683901 -2.12132 -2.12132 
C -2.683901 -1.55874 -3 -0.795609 -3 0 
C -3 0.795609 -2.683901 1.55874 -2.12132 2.12132 
C -1.55874 2.683901 -0.795609 3 0 3 
z
" style="stroke: #ff7f0e"/>
    </defs>
    <g clip-path="url(#p1ee2cbce53)">
     <use xlink:href="#m5c4aeda42d" x="311.70172" y="158.775604" style="fill: #ff7f0e; stroke: #ff7f0e"/>
     <use xlink:href="#m5c4aeda42d" x="292.711985" y="171.063634" style="fill: #ff7f0e; stroke: #ff7f0e"/>
     <use xlink:href="#m5c4aeda42d" x="309.550734" y="163.224019" style="fill: #ff7f0e; stroke: #ff7f0e"/>
     <use xlink:href="#m5c4aeda42d" x="341.440178" y="129.706145" style="fill: #ff7f0e; stroke: #ff7f0e"/>
     <use xlink:href="#m5c4aeda42d" x="244.323692" y="192.992624" style="fill: #ff7f0e; stroke: #ff7f0e"/>
     <use xlink:href="#m5c4aeda42d" x="273.895978" y="176.907458" style="fill: #ff7f0e; stroke: #ff7f0e"/>
     <use xlink:href="#m5c4aeda42d" x="280.022551" y="168.642162" style="fill: #ff7f0e; stroke: #ff7f0e"/>
     <use xlink:href="#m5c4aeda42d" x="338.940313" y="120.851654" style="fill: #ff7f0e; stroke: #ff7f0e"/>
     <use xlink:href="#m5c4aeda42d" x="346.548678" y="112.300207" style="fill: #ff7f0e; stroke: #ff7f0e"/>
     <use xlink:href="#m5c4aeda42d" x="297.411843" y="141.477788" style="fill: #ff7f0e; stroke: #ff7f0e"/>
     <use xlink:href="#m5c4aeda42d" x="295.474631" y="144.453398" style="fill: #ff7f0e; stroke: #ff7f0e"/>
     <use xlink:href="#m5c4aeda42d" x="320.434291" y="130.122096" style="fill: #ff7f0e; stroke: #ff7f0e"/>
     <use xlink:href="#m5c4aeda42d" x="296.509543" y="152.306044" style="fill: #ff7f0e; stroke: #ff7f0e"/>
     <use xlink:href="#m5c4aeda42d" x="286.112617" y="152.723073" style="fill: #ff7f0e; stroke: #ff7f0e"/>
     <use xlink:href="#m5c4aeda42d" x="258.571848" y="169.126038" style="fill: #ff7f0e; stroke: #ff7f0e"/>
     <use xlink:href="#m5c4aeda42d" x="284.948317" y="157.524898" style="fill: #ff7f0e; stroke: #ff7f0e"/>
     <use xlink:href="#m5c4aeda42d" x="277.497615" y="162.785204" style="fill: #ff7f0e; stroke: #ff7f0e"/>
     <use xlink:href="#m5c4aeda42d" x="241.445099" y="190.322261" style="fill: #ff7f0e; stroke: #ff7f0e"/>
     <use xlink:href="#m5c4aeda42d" x="265.48209" y="179.456616" style="fill: #ff7f0e; stroke: #ff7f0e"/>
     <use xlink:href="#m5c4aeda42d" x="244.06079" y="185.467913" style="fill: #ff7f0e; stroke: #ff7f0e"/>
     <use xlink:href="#m5c4aeda42d" x="250.014782" y="174.368532" style="fill: #ff7f0e; stroke: #ff7f0e"/>
     <use xlink:href="#m5c4aeda42d" x="273.545329" y="153.799791" style="fill: #ff7f0e; stroke: #ff7f0e"/>
     <use xlink:href="#m5c4aeda42d" x="243.965292" y="159.546204" style="fill: #ff7f0e; stroke: #ff7f0e"/>
     <use xlink:href="#m5c4aeda42d" x="245.572478" y="172.317953" style="fill: #ff7f0e; stroke: #ff7f0e"/>
    </g>
   </g>
   <g id="PathCollection_3">
    <defs>
     <path id="m78ebb03423" d="M 0 3 
C 0.795609 3 1.55874 2.683901 2.12132 2.12132 
C 2.683901 1.55874 3 0.795609 3 0 
C 3 -0.795609 2.683901 -1.55874 2.12132 -2.12132 
C 1.55874 -2.683901 0.795609 -3 0 -3 
C -0.795609 -3 -1.55874 -2.683901 -2.12132 -2.12132 
C -2.683901 -1.55874 -3 -0.795609 -3 0 
C -3 0.795609 -2.683901 1.55874 -2.12132 2.12132 
C -1.55874 2.683901 -0.795609 3 0 3 
z
" style="stroke: #2ca02c"/>
    </defs>
    <g clip-path="url(#p1ee2cbce53)">
     <use xlink:href="#m78ebb03423" x="262.616732" y="160.825573" style="fill: #2ca02c; stroke: #2ca02c"/>
     <use xlink:href="#m78ebb03423" x="256.054704" y="164.32526" style="fill: #2ca02c; stroke: #2ca02c"/>
     <use xlink:href="#m78ebb03423" x="234.579297" y="177.022938" style="fill: #2ca02c; stroke: #2ca02c"/>
     <use xlink:href="#m78ebb03423" x="260.787192" y="156.30974" style="fill: #2ca02c; stroke: #2ca02c"/>
     <use xlink:href="#m78ebb03423" x="236.658181" y="174.284228" style="fill: #2ca02c; stroke: #2ca02c"/>
     <use xlink:href="#m78ebb03423" x="184.672742" y="215.748317" style="fill: #2ca02c; stroke: #2ca02c"/>
     <use xlink:href="#m78ebb03423" x="176.987814" y="224.735264" style="fill: #2ca02c; stroke: #2ca02c"/>
     <use xlink:href="#m78ebb03423" x="199.98143" y="201.927453" style="fill: #2ca02c; stroke: #2ca02c"/>
     <use xlink:href="#m78ebb03423" x="213.466466" y="188.772921" style="fill: #2ca02c; stroke: #2ca02c"/>
     <use xlink:href="#m78ebb03423" x="183.503512" y="209.441702" style="fill: #2ca02c; stroke: #2ca02c"/>
     <use xlink:href="#m78ebb03423" x="168.50536" y="223.405714" style="fill: #2ca02c; stroke: #2ca02c"/>
     <use xlink:href="#m78ebb03423" x="207.79971" y="202.226505" style="fill: #2ca02c; stroke: #2ca02c"/>
     <use xlink:href="#m78ebb03423" x="300.904043" y="137.892818" style="fill: #2ca02c; stroke: #2ca02c"/>
     <use xlink:href="#m78ebb03423" x="235.727258" y="178.222271" style="fill: #2ca02c; stroke: #2ca02c"/>
     <use xlink:href="#m78ebb03423" x="244.42447" y="176.597191" style="fill: #2ca02c; stroke: #2ca02c"/>
     <use xlink:href="#m78ebb03423" x="261.184811" y="164.882224" style="fill: #2ca02c; stroke: #2ca02c"/>
     <use xlink:href="#m78ebb03423" x="250.1152" y="173.90416" style="fill: #2ca02c; stroke: #2ca02c"/>
     <use xlink:href="#m78ebb03423" x="275.326559" y="156.030906" style="fill: #2ca02c; stroke: #2ca02c"/>
     <use xlink:href="#m78ebb03423" x="269.323141" y="163.748755" style="fill: #2ca02c; stroke: #2ca02c"/>
     <use xlink:href="#m78ebb03423" x="203.384614" y="197.883952" style="fill: #2ca02c; stroke: #2ca02c"/>
     <use xlink:href="#m78ebb03423" x="218.085186" y="189.445769" style="fill: #2ca02c; stroke: #2ca02c"/>
     <use xlink:href="#m78ebb03423" x="249.682881" y="167.189647" style="fill: #2ca02c; stroke: #2ca02c"/>
     <use xlink:href="#m78ebb03423" x="283.876555" y="138.306506" style="fill: #2ca02c; stroke: #2ca02c"/>
     <use xlink:href="#m78ebb03423" x="251.233666" y="152.407226" style="fill: #2ca02c; stroke: #2ca02c"/>
    </g>
   </g>
   <g id="matplotlib.axis_1">
    <g id="xtick_1">
     <g id="line2d_1">
      <path d="M 236.16 174.528 
L 369.216 174.528 
" clip-path="url(#p1ee2cbce53)" style="fill: none; stroke: #b0b0b0; stroke-width: 0.8; stroke-linecap: square"/>
     </g>
     <g id="text_1">
      <!-- 0° -->
      <g transform="translate(377.53475 177.287375) scale(0.1 -0.1)">
       <defs>
        <path id="DejaVuSans-30" d="M 2034 4250 
Q 1547 4250 1301 3770 
Q 1056 3291 1056 2328 
Q 1056 1369 1301 889 
Q 1547 409 2034 409 
Q 2525 409 2770 889 
Q 3016 1369 3016 2328 
Q 3016 3291 2770 3770 
Q 2525 4250 2034 4250 
z
M 2034 4750 
Q 2819 4750 3233 4129 
Q 3647 3509 3647 2328 
Q 3647 1150 3233 529 
Q 2819 -91 2034 -91 
Q 1250 -91 836 529 
Q 422 1150 422 2328 
Q 422 3509 836 4129 
Q 1250 4750 2034 4750 
z
" transform="scale(0.015625)"/>
        <path id="DejaVuSans-b0" d="M 1600 4347 
Q 1350 4347 1178 4173 
Q 1006 4000 1006 3750 
Q 1006 3503 1178 3333 
Q 1350 3163 1600 3163 
Q 1850 3163 2022 3333 
Q 2194 3503 2194 3750 
Q 2194 3997 2020 4172 
Q 1847 4347 1600 4347 
z
M 1600 4750 
Q 1800 4750 1984 4673 
Q 2169 4597 2303 4453 
Q 2447 4313 2519 4134 
Q 2591 3956 2591 3750 
Q 2591 3338 2302 3052 
Q 2013 2766 1594 2766 
Q 1172 2766 890 3047 
Q 609 3328 609 3750 
Q 609 4169 896 4459 
Q 1184 4750 1600 4750 
z
" transform="scale(0.015625)"/>
       </defs>
       <use xlink:href="#DejaVuSans-30"/>
       <use xlink:href="#DejaVuSans-b0" x="63.623047"/>
      </g>
     </g>
    </g>
    <g id="xtick_2">
     <g id="line2d_2">
      <path d="M 236.16 174.528 
L 330.2448 80.4432 
" clip-path="url(#p1ee2cbce53)" style="fill: none; stroke: #b0b0b0; stroke-width: 0.8; stroke-linecap: square"/>
     </g>
     <g id="text_2">
      <!-- 45° -->
      <g transform="translate(331.281795 73.30308) scale(0.1 -0.1)">
       <defs>
        <path id="DejaVuSans-34" d="M 2419 4116 
L 825 1625 
L 2419 1625 
L 2419 4116 
z
M 2253 4666 
L 3047 4666 
L 3047 1625 
L 3713 1625 
L 3713 1100 
L 3047 1100 
L 3047 0 
L 2419 0 
L 2419 1100 
L 313 1100 
L 313 1709 
L 2253 4666 
z
" transform="scale(0.015625)"/>
        <path id="DejaVuSans-35" d="M 691 4666 
L 3169 4666 
L 3169 4134 
L 1269 4134 
L 1269 2991 
Q 1406 3038 1543 3061 
Q 1681 3084 1819 3084 
Q 2600 3084 3056 2656 
Q 3513 2228 3513 1497 
Q 3513 744 3044 326 
Q 2575 -91 1722 -91 
Q 1428 -91 1123 -41 
Q 819 9 494 109 
L 494 744 
Q 775 591 1075 516 
Q 1375 441 1709 441 
Q 2250 441 2565 725 
Q 2881 1009 2881 1497 
Q 2881 1984 2565 2268 
Q 2250 2553 1709 2553 
Q 1456 2553 1204 2497 
Q 953 2441 691 2322 
L 691 4666 
z
" transform="scale(0.015625)"/>
       </defs>
       <use xlink:href="#DejaVuSans-34"/>
       <use xlink:href="#DejaVuSans-35" x="63.623047"/>
       <use xlink:href="#DejaVuSans-b0" x="127.246094"/>
      </g>
     </g>
    </g>
    <g id="xtick_3">
     <g id="line2d_3">
      <path d="M 236.16 174.528 
L 236.16 41.472 
" clip-path="url(#p1ee2cbce53)" style="fill: none; stroke: #b0b0b0; stroke-width: 0.8; stroke-linecap: square"/>
     </g>
     <g id="text_3">
      <!-- 90° -->
      <g transform="translate(227.2975 30.231375) scale(0.1 -0.1)">
       <defs>
        <path id="DejaVuSans-39" d="M 703 97 
L 703 672 
Q 941 559 1184 500 
Q 1428 441 1663 441 
Q 2288 441 2617 861 
Q 2947 1281 2994 2138 
Q 2813 1869 2534 1725 
Q 2256 1581 1919 1581 
Q 1219 1581 811 2004 
Q 403 2428 403 3163 
Q 403 3881 828 4315 
Q 1253 4750 1959 4750 
Q 2769 4750 3195 4129 
Q 3622 3509 3622 2328 
Q 3622 1225 3098 567 
Q 2575 -91 1691 -91 
Q 1453 -91 1209 -44 
Q 966 3 703 97 
z
M 1959 2075 
Q 2384 2075 2632 2365 
Q 2881 2656 2881 3163 
Q 2881 3666 2632 3958 
Q 2384 4250 1959 4250 
Q 1534 4250 1286 3958 
Q 1038 3666 1038 3163 
Q 1038 2656 1286 2365 
Q 1534 2075 1959 2075 
z
" transform="scale(0.015625)"/>
       </defs>
       <use xlink:href="#DejaVuSans-39"/>
       <use xlink:href="#DejaVuSans-30" x="63.623047"/>
       <use xlink:href="#DejaVuSans-b0" x="127.246094"/>
      </g>
     </g>
    </g>
    <g id="xtick_4">
     <g id="line2d_4">
      <path d="M 236.16 174.528 
L 142.0752 80.4432 
" clip-path="url(#p1ee2cbce53)" style="fill: none; stroke: #b0b0b0; stroke-width: 0.8; stroke-linecap: square"/>
     </g>
     <g id="text_4">
      <!-- 135° -->
      <g transform="translate(120.131955 73.30308) scale(0.1 -0.1)">
       <defs>
        <path id="DejaVuSans-31" d="M 794 531 
L 1825 531 
L 1825 4091 
L 703 3866 
L 703 4441 
L 1819 4666 
L 2450 4666 
L 2450 531 
L 3481 531 
L 3481 0 
L 794 0 
L 794 531 
z
" transform="scale(0.015625)"/>
        <path id="DejaVuSans-33" d="M 2597 2516 
Q 3050 2419 3304 2112 
Q 3559 1806 3559 1356 
Q 3559 666 3084 287 
Q 2609 -91 1734 -91 
Q 1441 -91 1130 -33 
Q 819 25 488 141 
L 488 750 
Q 750 597 1062 519 
Q 1375 441 1716 441 
Q 2309 441 2620 675 
Q 2931 909 2931 1356 
Q 2931 1769 2642 2001 
Q 2353 2234 1838 2234 
L 1294 2234 
L 1294 2753 
L 1863 2753 
Q 2328 2753 2575 2939 
Q 2822 3125 2822 3475 
Q 2822 3834 2567 4026 
Q 2313 4219 1838 4219 
Q 1578 4219 1281 4162 
Q 984 4106 628 3988 
L 628 4550 
Q 988 4650 1302 4700 
Q 1616 4750 1894 4750 
Q 2613 4750 3031 4423 
Q 3450 4097 3450 3541 
Q 3450 3153 3228 2886 
Q 3006 2619 2597 2516 
z
" transform="scale(0.015625)"/>
       </defs>
       <use xlink:href="#DejaVuSans-31"/>
       <use xlink:href="#DejaVuSans-33" x="63.623047"/>
       <use xlink:href="#DejaVuSans-35" x="127.246094"/>
       <use xlink:href="#DejaVuSans-b0" x="190.869141"/>
      </g>
     </g>
    </g>
    <g id="xtick_5">
     <g id="line2d_5">
      <path d="M 236.16 174.528 
L 103.104 174.528 
" clip-path="url(#p1ee2cbce53)" style="fill: none; stroke: #b0b0b0; stroke-width: 0.8; stroke-linecap: square"/>
     </g>
     <g id="text_5">
      <!-- 180° -->
      <g transform="translate(77.06025 177.287375) scale(0.1 -0.1)">
       <defs>
        <path id="DejaVuSans-38" d="M 2034 2216 
Q 1584 2216 1326 1975 
Q 1069 1734 1069 1313 
Q 1069 891 1326 650 
Q 1584 409 2034 409 
Q 2484 409 2743 651 
Q 3003 894 3003 1313 
Q 3003 1734 2745 1975 
Q 2488 2216 2034 2216 
z
M 1403 2484 
Q 997 2584 770 2862 
Q 544 3141 544 3541 
Q 544 4100 942 4425 
Q 1341 4750 2034 4750 
Q 2731 4750 3128 4425 
Q 3525 4100 3525 3541 
Q 3525 3141 3298 2862 
Q 3072 2584 2669 2484 
Q 3125 2378 3379 2068 
Q 3634 1759 3634 1313 
Q 3634 634 3220 271 
Q 2806 -91 2034 -91 
Q 1263 -91 848 271 
Q 434 634 434 1313 
Q 434 1759 690 2068 
Q 947 2378 1403 2484 
z
M 1172 3481 
Q 1172 3119 1398 2916 
Q 1625 2713 2034 2713 
Q 2441 2713 2670 2916 
Q 2900 3119 2900 3481 
Q 2900 3844 2670 4047 
Q 2441 4250 2034 4250 
Q 1625 4250 1398 4047 
Q 1172 3844 1172 3481 
z
" transform="scale(0.015625)"/>
       </defs>
       <use xlink:href="#DejaVuSans-31"/>
       <use xlink:href="#DejaVuSans-38" x="63.623047"/>
       <use xlink:href="#DejaVuSans-30" x="127.246094"/>
       <use xlink:href="#DejaVuSans-b0" x="190.869141"/>
      </g>
     </g>
    </g>
    <g id="xtick_6">
     <g id="line2d_6">
      <path d="M 236.16 174.528 
L 142.0752 268.6128 
" clip-path="url(#p1ee2cbce53)" style="fill: none; stroke: #b0b0b0; stroke-width: 0.8; stroke-linecap: square"/>
     </g>
     <g id="text_6">
      <!-- 225° -->
      <g transform="translate(120.131955 281.27167) scale(0.1 -0.1)">
       <defs>
        <path id="DejaVuSans-32" d="M 1228 531 
L 3431 531 
L 3431 0 
L 469 0 
L 469 531 
Q 828 903 1448 1529 
Q 2069 2156 2228 2338 
Q 2531 2678 2651 2914 
Q 2772 3150 2772 3378 
Q 2772 3750 2511 3984 
Q 2250 4219 1831 4219 
Q 1534 4219 1204 4116 
Q 875 4013 500 3803 
L 500 4441 
Q 881 4594 1212 4672 
Q 1544 4750 1819 4750 
Q 2544 4750 2975 4387 
Q 3406 4025 3406 3419 
Q 3406 3131 3298 2873 
Q 3191 2616 2906 2266 
Q 2828 2175 2409 1742 
Q 1991 1309 1228 531 
z
" transform="scale(0.015625)"/>
       </defs>
       <use xlink:href="#DejaVuSans-32"/>
       <use xlink:href="#DejaVuSans-32" x="63.623047"/>
       <use xlink:href="#DejaVuSans-35" x="127.246094"/>
       <use xlink:href="#DejaVuSans-b0" x="190.869141"/>
      </g>
     </g>
    </g>
    <g id="xtick_7">
     <g id="line2d_7">
      <path d="M 236.16 174.528 
L 236.16 307.584 
" clip-path="url(#p1ee2cbce53)" style="fill: none; stroke: #b0b0b0; stroke-width: 0.8; stroke-linecap: square"/>
     </g>
     <g id="text_7">
      <!-- 270° -->
      <g transform="translate(224.11625 324.343375) scale(0.1 -0.1)">
       <defs>
        <path id="DejaVuSans-37" d="M 525 4666 
L 3525 4666 
L 3525 4397 
L 1831 0 
L 1172 0 
L 2766 4134 
L 525 4134 
L 525 4666 
z
" transform="scale(0.015625)"/>
       </defs>
       <use xlink:href="#DejaVuSans-32"/>
       <use xlink:href="#DejaVuSans-37" x="63.623047"/>
       <use xlink:href="#DejaVuSans-30" x="127.246094"/>
       <use xlink:href="#DejaVuSans-b0" x="190.869141"/>
      </g>
     </g>
    </g>
    <g id="xtick_8">
     <g id="line2d_8">
      <path d="M 236.16 174.528 
L 330.2448 268.6128 
" clip-path="url(#p1ee2cbce53)" style="fill: none; stroke: #b0b0b0; stroke-width: 0.8; stroke-linecap: square"/>
     </g>
     <g id="text_8">
      <!-- 315° -->
      <g transform="translate(328.100545 281.27167) scale(0.1 -0.1)">
       <use xlink:href="#DejaVuSans-33"/>
       <use xlink:href="#DejaVuSans-31" x="63.623047"/>
       <use xlink:href="#DejaVuSans-35" x="127.246094"/>
       <use xlink:href="#DejaVuSans-b0" x="190.869141"/>
      </g>
     </g>
    </g>
   </g>
   <g id="matplotlib.axis_2">
    <g id="ytick_1">
     <g id="line2d_9">
      <path d="M 265.053655 174.528 
C 265.053655 170.73372 264.306265 166.976335 262.854257 163.470877 
C 261.402249 159.965419 259.273861 156.780062 256.590899 154.097101 
C 253.907938 151.414139 250.722581 149.285751 247.217123 147.833743 
C 243.711665 146.381735 239.95428 145.634345 236.16 145.634345 
C 232.36572 145.634345 228.608335 146.381735 225.102877 147.833743 
C 221.597419 149.285751 218.412062 151.414139 215.729101 154.097101 
C 213.046139 156.780062 210.917751 159.965419 209.465743 163.470877 
C 208.013735 166.976335 207.266345 170.73372 207.266345 174.528 
C 207.266345 178.32228 208.013735 182.079665 209.465743 185.585123 
C 210.917751 189.090581 213.046139 192.275938 215.729101 194.958899 
C 218.412062 197.641861 221.597419 199.770249 225.102877 201.222257 
C 228.608335 202.674265 232.36572 203.421655 236.16 203.421655 
C 239.95428 203.421655 243.711665 202.674265 247.217123 201.222257 
C 250.722581 199.770249 253.907938 197.641861 256.590899 194.958899 
C 259.273861 192.275938 261.402249 189.090581 262.854257 185.585123 
C 264.306265 182.079665 265.053655 178.32228 265.053655 174.528 
" clip-path="url(#p1ee2cbce53)" style="fill: none; stroke: #b0b0b0; stroke-width: 0.8; stroke-linecap: square"/>
     </g>
     <g id="text_9">
      <!-- 0.1 -->
      <g transform="translate(262.854257 161.391189) scale(0.1 -0.1)">
       <defs>
        <path id="DejaVuSans-2e" d="M 684 794 
L 1344 794 
L 1344 0 
L 684 0 
L 684 794 
z
" transform="scale(0.015625)"/>
       </defs>
       <use xlink:href="#DejaVuSans-30"/>
       <use xlink:href="#DejaVuSans-2e" x="63.623047"/>
       <use xlink:href="#DejaVuSans-31" x="95.410156"/>
      </g>
     </g>
    </g>
    <g id="ytick_2">
     <g id="line2d_10">
      <path d="M 293.94731 174.528 
C 293.94731 166.93944 292.452529 159.424669 289.548513 152.413754 
C 286.644497 145.402838 282.387721 139.032123 277.021799 133.666201 
C 271.655877 128.300279 265.285162 124.043503 258.274246 121.139487 
C 251.263331 118.235471 243.74856 116.74069 236.16 116.74069 
C 228.57144 116.74069 221.056669 118.235471 214.045754 121.139487 
C 207.034838 124.043503 200.664123 128.300279 195.298201 133.666201 
C 189.932279 139.032123 185.675503 145.402838 182.771487 152.413754 
C 179.867471 159.424669 178.37269 166.93944 178.37269 174.528 
C 178.37269 182.11656 179.867471 189.631331 182.771487 196.642246 
C 185.675503 203.653162 189.932279 210.023877 195.298201 215.389799 
C 200.664123 220.755721 207.034838 225.012497 214.045754 227.916513 
C 221.056669 230.820529 228.57144 232.31531 236.16 232.31531 
C 243.74856 232.31531 251.263331 230.820529 258.274246 227.916513 
C 265.285162 225.012497 271.655877 220.755721 277.021799 215.389799 
C 282.387721 210.023877 286.644497 203.653162 289.548513 196.642246 
C 292.452529 189.631331 293.94731 182.11656 293.94731 174.528 
" clip-path="url(#p1ee2cbce53)" style="fill: none; stroke: #b0b0b0; stroke-width: 0.8; stroke-linecap: square"/>
     </g>
     <g id="text_10">
      <!-- 0.2 -->
      <g transform="translate(289.548513 150.334066) scale(0.1 -0.1)">
       <use xlink:href="#DejaVuSans-30"/>
       <use xlink:href="#DejaVuSans-2e" x="63.623047"/>
       <use xlink:href="#DejaVuSans-32" x="95.410156"/>
      </g>
     </g>
    </g>
    <g id="ytick_3">
     <g id="line2d_11">
      <path d="M 322.840965 174.528 
C 322.840965 163.14516 320.598794 151.873004 316.24277 141.356631 
C 311.886746 130.840258 305.501582 121.284185 297.452698 113.235302 
C 289.403815 105.186418 279.847742 98.801254 269.331369 94.44523 
C 258.814996 90.089206 247.54284 87.847035 236.16 87.847035 
C 224.77716 87.847035 213.505004 90.089206 202.988631 94.44523 
C 192.472258 98.801254 182.916185 105.186418 174.867302 113.235302 
C 166.818418 121.284185 160.433254 130.840258 156.07723 141.356631 
C 151.721206 151.873004 149.479035 163.14516 149.479035 174.528 
C 149.479035 185.91084 151.721206 197.182996 156.07723 207.699369 
C 160.433254 218.215742 166.818418 227.771815 174.867302 235.820698 
C 182.916185 243.869582 192.472258 250.254746 202.988631 254.61077 
C 213.505004 258.966794 224.77716 261.208965 236.16 261.208965 
C 247.54284 261.208965 258.814996 258.966794 269.331369 254.61077 
C 279.847742 250.254746 289.403815 243.869582 297.452698 235.820698 
C 305.501582 227.771815 311.886746 218.215742 316.24277 207.699369 
C 320.598794 197.182996 322.840965 185.91084 322.840965 174.528 
" clip-path="url(#p1ee2cbce53)" style="fill: none; stroke: #b0b0b0; stroke-width: 0.8; stroke-linecap: square"/>
     </g>
     <g id="text_11">
      <!-- 0.3 -->
      <g transform="translate(316.24277 139.276943) scale(0.1 -0.1)">
       <use xlink:href="#DejaVuSans-30"/>
       <use xlink:href="#DejaVuSans-2e" x="63.623047"/>
       <use xlink:href="#DejaVuSans-33" x="95.410156"/>
      </g>
     </g>
    </g>
    <g id="ytick_4">
     <g id="line2d_12">
      <path d="M 351.734621 174.528 
C 351.734621 159.35088 348.745059 144.321338 342.937026 130.299507 
C 337.128994 116.277677 328.615443 103.536247 317.883598 92.804402 
C 307.151753 82.072557 294.410323 73.559006 280.388493 67.750974 
C 266.366662 61.942941 251.33712 58.953379 236.16 58.953379 
C 220.98288 58.953379 205.953338 61.942941 191.931507 67.750974 
C 177.909677 73.559006 165.168247 82.072557 154.436402 92.804402 
C 143.704557 103.536247 135.191006 116.277677 129.382974 130.299507 
C 123.574941 144.321338 120.585379 159.35088 120.585379 174.528 
C 120.585379 189.70512 123.574941 204.734662 129.382974 218.756493 
C 135.191006 232.778323 143.704557 245.519753 154.436402 256.251598 
C 165.168247 266.983443 177.909677 275.496994 191.931507 281.305026 
C 205.953338 287.113059 220.98288 290.102621 236.16 290.102621 
C 251.33712 290.102621 266.366662 287.113059 280.388493 281.305026 
C 294.410323 275.496994 307.151753 266.983443 317.883598 256.251598 
C 328.615443 245.519753 337.128994 232.778323 342.937026 218.756493 
C 348.745059 204.734662 351.734621 189.70512 351.734621 174.528 
" clip-path="url(#p1ee2cbce53)" style="fill: none; stroke: #b0b0b0; stroke-width: 0.8; stroke-linecap: square"/>
     </g>
     <g id="text_12">
      <!-- 0.4 -->
      <g transform="translate(342.937026 128.21982) scale(0.1 -0.1)">
       <use xlink:href="#DejaVuSans-30"/>
       <use xlink:href="#DejaVuSans-2e" x="63.623047"/>
       <use xlink:href="#DejaVuSans-34" x="95.410156"/>
      </g>
     </g>
    </g>
   </g>
   <g id="line2d_13">
    <path d="M 236.16 174.528 
L 360.064546 147.964455 
" clip-path="url(#p1ee2cbce53)" style="fill: none; stroke-dasharray: 7.4,3.2; stroke-dashoffset: 0; stroke: #ff0000; stroke-width: 2"/>
   </g>
   <g id="patch_3">
    <path d="M 369.216 174.528 
C 369.216 157.055246 365.774248 139.752393 359.087715 123.609673 
C 352.401182 107.466954 342.599903 92.798303 330.2448 80.4432 
C 317.889697 68.088097 303.221046 58.286818 287.078327 51.600285 
C 270.935607 44.913752 253.632754 41.472 236.16 41.472 
C 218.687246 41.472 201.384393 44.913752 185.241673 51.600285 
C 169.098954 58.286818 154.430303 68.088097 142.0752 80.4432 
C 129.720097 92.798303 119.918818 107.466954 113.232285 123.609673 
C 106.545752 139.752393 103.104 157.055246 103.104 174.528 
C 103.104 192.000754 106.545752 209.303607 113.232285 225.446327 
C 119.918818 241.589046 129.720097 256.257697 142.0752 268.6128 
C 154.430303 280.967903 169.098954 290.769182 185.241673 297.455715 
C 201.384393 304.142248 218.687246 307.584 236.16 307.584 
C 253.632754 307.584 270.935607 304.142248 287.078327 297.455715 
C 303.221046 290.769182 317.889697 280.967903 330.2448 268.6128 
C 342.599903 256.257697 352.401182 241.589046 359.087715 225.446327 
C 365.774248 209.303607 369.216 192.000754 369.216 174.528 
" style="fill: none; stroke: #000000; stroke-width: 0.8; stroke-linejoin: miter; stroke-linecap: square"/>
   </g>
   <g id="text_13">
    <!-- Distribution of projected eye movement velocity on the screen - WT1_4_23 -->
    <g transform="translate(10.8525 13.803563) scale(0.12 -0.12)">
     <defs>
      <path id="DejaVuSans-44" d="M 1259 4147 
L 1259 519 
L 2022 519 
Q 2988 519 3436 956 
Q 3884 1394 3884 2338 
Q 3884 3275 3436 3711 
Q 2988 4147 2022 4147 
L 1259 4147 
z
M 628 4666 
L 1925 4666 
Q 3281 4666 3915 4102 
Q 4550 3538 4550 2338 
Q 4550 1131 3912 565 
Q 3275 0 1925 0 
L 628 0 
L 628 4666 
z
" transform="scale(0.015625)"/>
      <path id="DejaVuSans-69" d="M 603 3500 
L 1178 3500 
L 1178 0 
L 603 0 
L 603 3500 
z
M 603 4863 
L 1178 4863 
L 1178 4134 
L 603 4134 
L 603 4863 
z
" transform="scale(0.015625)"/>
      <path id="DejaVuSans-73" d="M 2834 3397 
L 2834 2853 
Q 2591 2978 2328 3040 
Q 2066 3103 1784 3103 
Q 1356 3103 1142 2972 
Q 928 2841 928 2578 
Q 928 2378 1081 2264 
Q 1234 2150 1697 2047 
L 1894 2003 
Q 2506 1872 2764 1633 
Q 3022 1394 3022 966 
Q 3022 478 2636 193 
Q 2250 -91 1575 -91 
Q 1294 -91 989 -36 
Q 684 19 347 128 
L 347 722 
Q 666 556 975 473 
Q 1284 391 1588 391 
Q 1994 391 2212 530 
Q 2431 669 2431 922 
Q 2431 1156 2273 1281 
Q 2116 1406 1581 1522 
L 1381 1569 
Q 847 1681 609 1914 
Q 372 2147 372 2553 
Q 372 3047 722 3315 
Q 1072 3584 1716 3584 
Q 2034 3584 2315 3537 
Q 2597 3491 2834 3397 
z
" transform="scale(0.015625)"/>
      <path id="DejaVuSans-74" d="M 1172 4494 
L 1172 3500 
L 2356 3500 
L 2356 3053 
L 1172 3053 
L 1172 1153 
Q 1172 725 1289 603 
Q 1406 481 1766 481 
L 2356 481 
L 2356 0 
L 1766 0 
Q 1100 0 847 248 
Q 594 497 594 1153 
L 594 3053 
L 172 3053 
L 172 3500 
L 594 3500 
L 594 4494 
L 1172 4494 
z
" transform="scale(0.015625)"/>
      <path id="DejaVuSans-72" d="M 2631 2963 
Q 2534 3019 2420 3045 
Q 2306 3072 2169 3072 
Q 1681 3072 1420 2755 
Q 1159 2438 1159 1844 
L 1159 0 
L 581 0 
L 581 3500 
L 1159 3500 
L 1159 2956 
Q 1341 3275 1631 3429 
Q 1922 3584 2338 3584 
Q 2397 3584 2469 3576 
Q 2541 3569 2628 3553 
L 2631 2963 
z
" transform="scale(0.015625)"/>
      <path id="DejaVuSans-62" d="M 3116 1747 
Q 3116 2381 2855 2742 
Q 2594 3103 2138 3103 
Q 1681 3103 1420 2742 
Q 1159 2381 1159 1747 
Q 1159 1113 1420 752 
Q 1681 391 2138 391 
Q 2594 391 2855 752 
Q 3116 1113 3116 1747 
z
M 1159 2969 
Q 1341 3281 1617 3432 
Q 1894 3584 2278 3584 
Q 2916 3584 3314 3078 
Q 3713 2572 3713 1747 
Q 3713 922 3314 415 
Q 2916 -91 2278 -91 
Q 1894 -91 1617 61 
Q 1341 213 1159 525 
L 1159 0 
L 581 0 
L 581 4863 
L 1159 4863 
L 1159 2969 
z
" transform="scale(0.015625)"/>
      <path id="DejaVuSans-75" d="M 544 1381 
L 544 3500 
L 1119 3500 
L 1119 1403 
Q 1119 906 1312 657 
Q 1506 409 1894 409 
Q 2359 409 2629 706 
Q 2900 1003 2900 1516 
L 2900 3500 
L 3475 3500 
L 3475 0 
L 2900 0 
L 2900 538 
Q 2691 219 2414 64 
Q 2138 -91 1772 -91 
Q 1169 -91 856 284 
Q 544 659 544 1381 
z
M 1991 3584 
L 1991 3584 
z
" transform="scale(0.015625)"/>
      <path id="DejaVuSans-6f" d="M 1959 3097 
Q 1497 3097 1228 2736 
Q 959 2375 959 1747 
Q 959 1119 1226 758 
Q 1494 397 1959 397 
Q 2419 397 2687 759 
Q 2956 1122 2956 1747 
Q 2956 2369 2687 2733 
Q 2419 3097 1959 3097 
z
M 1959 3584 
Q 2709 3584 3137 3096 
Q 3566 2609 3566 1747 
Q 3566 888 3137 398 
Q 2709 -91 1959 -91 
Q 1206 -91 779 398 
Q 353 888 353 1747 
Q 353 2609 779 3096 
Q 1206 3584 1959 3584 
z
" transform="scale(0.015625)"/>
      <path id="DejaVuSans-6e" d="M 3513 2113 
L 3513 0 
L 2938 0 
L 2938 2094 
Q 2938 2591 2744 2837 
Q 2550 3084 2163 3084 
Q 1697 3084 1428 2787 
Q 1159 2491 1159 1978 
L 1159 0 
L 581 0 
L 581 3500 
L 1159 3500 
L 1159 2956 
Q 1366 3272 1645 3428 
Q 1925 3584 2291 3584 
Q 2894 3584 3203 3211 
Q 3513 2838 3513 2113 
z
" transform="scale(0.015625)"/>
      <path id="DejaVuSans-20" transform="scale(0.015625)"/>
      <path id="DejaVuSans-66" d="M 2375 4863 
L 2375 4384 
L 1825 4384 
Q 1516 4384 1395 4259 
Q 1275 4134 1275 3809 
L 1275 3500 
L 2222 3500 
L 2222 3053 
L 1275 3053 
L 1275 0 
L 697 0 
L 697 3053 
L 147 3053 
L 147 3500 
L 697 3500 
L 697 3744 
Q 697 4328 969 4595 
Q 1241 4863 1831 4863 
L 2375 4863 
z
" transform="scale(0.015625)"/>
      <path id="DejaVuSans-70" d="M 1159 525 
L 1159 -1331 
L 581 -1331 
L 581 3500 
L 1159 3500 
L 1159 2969 
Q 1341 3281 1617 3432 
Q 1894 3584 2278 3584 
Q 2916 3584 3314 3078 
Q 3713 2572 3713 1747 
Q 3713 922 3314 415 
Q 2916 -91 2278 -91 
Q 1894 -91 1617 61 
Q 1341 213 1159 525 
z
M 3116 1747 
Q 3116 2381 2855 2742 
Q 2594 3103 2138 3103 
Q 1681 3103 1420 2742 
Q 1159 2381 1159 1747 
Q 1159 1113 1420 752 
Q 1681 391 2138 391 
Q 2594 391 2855 752 
Q 3116 1113 3116 1747 
z
" transform="scale(0.015625)"/>
      <path id="DejaVuSans-6a" d="M 603 3500 
L 1178 3500 
L 1178 -63 
Q 1178 -731 923 -1031 
Q 669 -1331 103 -1331 
L -116 -1331 
L -116 -844 
L 38 -844 
Q 366 -844 484 -692 
Q 603 -541 603 -63 
L 603 3500 
z
M 603 4863 
L 1178 4863 
L 1178 4134 
L 603 4134 
L 603 4863 
z
" transform="scale(0.015625)"/>
      <path id="DejaVuSans-65" d="M 3597 1894 
L 3597 1613 
L 953 1613 
Q 991 1019 1311 708 
Q 1631 397 2203 397 
Q 2534 397 2845 478 
Q 3156 559 3463 722 
L 3463 178 
Q 3153 47 2828 -22 
Q 2503 -91 2169 -91 
Q 1331 -91 842 396 
Q 353 884 353 1716 
Q 353 2575 817 3079 
Q 1281 3584 2069 3584 
Q 2775 3584 3186 3129 
Q 3597 2675 3597 1894 
z
M 3022 2063 
Q 3016 2534 2758 2815 
Q 2500 3097 2075 3097 
Q 1594 3097 1305 2825 
Q 1016 2553 972 2059 
L 3022 2063 
z
" transform="scale(0.015625)"/>
      <path id="DejaVuSans-63" d="M 3122 3366 
L 3122 2828 
Q 2878 2963 2633 3030 
Q 2388 3097 2138 3097 
Q 1578 3097 1268 2742 
Q 959 2388 959 1747 
Q 959 1106 1268 751 
Q 1578 397 2138 397 
Q 2388 397 2633 464 
Q 2878 531 3122 666 
L 3122 134 
Q 2881 22 2623 -34 
Q 2366 -91 2075 -91 
Q 1284 -91 818 406 
Q 353 903 353 1747 
Q 353 2603 823 3093 
Q 1294 3584 2113 3584 
Q 2378 3584 2631 3529 
Q 2884 3475 3122 3366 
z
" transform="scale(0.015625)"/>
      <path id="DejaVuSans-64" d="M 2906 2969 
L 2906 4863 
L 3481 4863 
L 3481 0 
L 2906 0 
L 2906 525 
Q 2725 213 2448 61 
Q 2172 -91 1784 -91 
Q 1150 -91 751 415 
Q 353 922 353 1747 
Q 353 2572 751 3078 
Q 1150 3584 1784 3584 
Q 2172 3584 2448 3432 
Q 2725 3281 2906 2969 
z
M 947 1747 
Q 947 1113 1208 752 
Q 1469 391 1925 391 
Q 2381 391 2643 752 
Q 2906 1113 2906 1747 
Q 2906 2381 2643 2742 
Q 2381 3103 1925 3103 
Q 1469 3103 1208 2742 
Q 947 2381 947 1747 
z
" transform="scale(0.015625)"/>
      <path id="DejaVuSans-79" d="M 2059 -325 
Q 1816 -950 1584 -1140 
Q 1353 -1331 966 -1331 
L 506 -1331 
L 506 -850 
L 844 -850 
Q 1081 -850 1212 -737 
Q 1344 -625 1503 -206 
L 1606 56 
L 191 3500 
L 800 3500 
L 1894 763 
L 2988 3500 
L 3597 3500 
L 2059 -325 
z
" transform="scale(0.015625)"/>
      <path id="DejaVuSans-6d" d="M 3328 2828 
Q 3544 3216 3844 3400 
Q 4144 3584 4550 3584 
Q 5097 3584 5394 3201 
Q 5691 2819 5691 2113 
L 5691 0 
L 5113 0 
L 5113 2094 
Q 5113 2597 4934 2840 
Q 4756 3084 4391 3084 
Q 3944 3084 3684 2787 
Q 3425 2491 3425 1978 
L 3425 0 
L 2847 0 
L 2847 2094 
Q 2847 2600 2669 2842 
Q 2491 3084 2119 3084 
Q 1678 3084 1418 2786 
Q 1159 2488 1159 1978 
L 1159 0 
L 581 0 
L 581 3500 
L 1159 3500 
L 1159 2956 
Q 1356 3278 1631 3431 
Q 1906 3584 2284 3584 
Q 2666 3584 2933 3390 
Q 3200 3197 3328 2828 
z
" transform="scale(0.015625)"/>
      <path id="DejaVuSans-76" d="M 191 3500 
L 800 3500 
L 1894 563 
L 2988 3500 
L 3597 3500 
L 2284 0 
L 1503 0 
L 191 3500 
z
" transform="scale(0.015625)"/>
      <path id="DejaVuSans-6c" d="M 603 4863 
L 1178 4863 
L 1178 0 
L 603 0 
L 603 4863 
z
" transform="scale(0.015625)"/>
      <path id="DejaVuSans-68" d="M 3513 2113 
L 3513 0 
L 2938 0 
L 2938 2094 
Q 2938 2591 2744 2837 
Q 2550 3084 2163 3084 
Q 1697 3084 1428 2787 
Q 1159 2491 1159 1978 
L 1159 0 
L 581 0 
L 581 4863 
L 1159 4863 
L 1159 2956 
Q 1366 3272 1645 3428 
Q 1925 3584 2291 3584 
Q 2894 3584 3203 3211 
Q 3513 2838 3513 2113 
z
" transform="scale(0.015625)"/>
      <path id="DejaVuSans-2d" d="M 313 2009 
L 1997 2009 
L 1997 1497 
L 313 1497 
L 313 2009 
z
" transform="scale(0.015625)"/>
      <path id="DejaVuSans-57" d="M 213 4666 
L 850 4666 
L 1831 722 
L 2809 4666 
L 3519 4666 
L 4500 722 
L 5478 4666 
L 6119 4666 
L 4947 0 
L 4153 0 
L 3169 4050 
L 2175 0 
L 1381 0 
L 213 4666 
z
" transform="scale(0.015625)"/>
      <path id="DejaVuSans-54" d="M -19 4666 
L 3928 4666 
L 3928 4134 
L 2272 4134 
L 2272 0 
L 1638 0 
L 1638 4134 
L -19 4134 
L -19 4666 
z
" transform="scale(0.015625)"/>
      <path id="DejaVuSans-5f" d="M 3263 -1063 
L 3263 -1509 
L -63 -1509 
L -63 -1063 
L 3263 -1063 
z
" transform="scale(0.015625)"/>
     </defs>
     <use xlink:href="#DejaVuSans-44"/>
     <use xlink:href="#DejaVuSans-69" x="77.001953"/>
     <use xlink:href="#DejaVuSans-73" x="104.785156"/>
     <use xlink:href="#DejaVuSans-74" x="156.884766"/>
     <use xlink:href="#DejaVuSans-72" x="196.09375"/>
     <use xlink:href="#DejaVuSans-69" x="237.207031"/>
     <use xlink:href="#DejaVuSans-62" x="264.990234"/>
     <use xlink:href="#DejaVuSans-75" x="328.466797"/>
     <use xlink:href="#DejaVuSans-74" x="391.845703"/>
     <use xlink:href="#DejaVuSans-69" x="431.054688"/>
     <use xlink:href="#DejaVuSans-6f" x="458.837891"/>
     <use xlink:href="#DejaVuSans-6e" x="520.019531"/>
     <use xlink:href="#DejaVuSans-20" x="583.398438"/>
     <use xlink:href="#DejaVuSans-6f" x="615.185547"/>
     <use xlink:href="#DejaVuSans-66" x="676.367188"/>
     <use xlink:href="#DejaVuSans-20" x="711.572266"/>
     <use xlink:href="#DejaVuSans-70" x="743.359375"/>
     <use xlink:href="#DejaVuSans-72" x="806.835938"/>
     <use xlink:href="#DejaVuSans-6f" x="845.699219"/>
     <use xlink:href="#DejaVuSans-6a" x="906.880859"/>
     <use xlink:href="#DejaVuSans-65" x="934.664062"/>
     <use xlink:href="#DejaVuSans-63" x="996.1875"/>
     <use xlink:href="#DejaVuSans-74" x="1051.167969"/>
     <use xlink:href="#DejaVuSans-65" x="1090.376953"/>
     <use xlink:href="#DejaVuSans-64" x="1151.900391"/>
     <use xlink:href="#DejaVuSans-20" x="1215.376953"/>
     <use xlink:href="#DejaVuSans-65" x="1247.164062"/>
     <use xlink:href="#DejaVuSans-79" x="1308.6875"/>
     <use xlink:href="#DejaVuSans-65" x="1367.867188"/>
     <use xlink:href="#DejaVuSans-20" x="1429.390625"/>
     <use xlink:href="#DejaVuSans-6d" x="1461.177734"/>
     <use xlink:href="#DejaVuSans-6f" x="1558.589844"/>
     <use xlink:href="#DejaVuSans-76" x="1619.771484"/>
     <use xlink:href="#DejaVuSans-65" x="1678.951172"/>
     <use xlink:href="#DejaVuSans-6d" x="1740.474609"/>
     <use xlink:href="#DejaVuSans-65" x="1837.886719"/>
     <use xlink:href="#DejaVuSans-6e" x="1899.410156"/>
     <use xlink:href="#DejaVuSans-74" x="1962.789062"/>
     <use xlink:href="#DejaVuSans-20" x="2001.998047"/>
     <use xlink:href="#DejaVuSans-76" x="2033.785156"/>
     <use xlink:href="#DejaVuSans-65" x="2092.964844"/>
     <use xlink:href="#DejaVuSans-6c" x="2154.488281"/>
     <use xlink:href="#DejaVuSans-6f" x="2182.271484"/>
     <use xlink:href="#DejaVuSans-63" x="2243.453125"/>
     <use xlink:href="#DejaVuSans-69" x="2298.433594"/>
     <use xlink:href="#DejaVuSans-74" x="2326.216797"/>
     <use xlink:href="#DejaVuSans-79" x="2365.425781"/>
     <use xlink:href="#DejaVuSans-20" x="2424.605469"/>
     <use xlink:href="#DejaVuSans-6f" x="2456.392578"/>
     <use xlink:href="#DejaVuSans-6e" x="2517.574219"/>
     <use xlink:href="#DejaVuSans-20" x="2580.953125"/>
     <use xlink:href="#DejaVuSans-74" x="2612.740234"/>
     <use xlink:href="#DejaVuSans-68" x="2651.949219"/>
     <use xlink:href="#DejaVuSans-65" x="2715.328125"/>
     <use xlink:href="#DejaVuSans-20" x="2776.851562"/>
     <use xlink:href="#DejaVuSans-73" x="2808.638672"/>
     <use xlink:href="#DejaVuSans-63" x="2860.738281"/>
     <use xlink:href="#DejaVuSans-72" x="2915.71875"/>
     <use xlink:href="#DejaVuSans-65" x="2954.582031"/>
     <use xlink:href="#DejaVuSans-65" x="3016.105469"/>
     <use xlink:href="#DejaVuSans-6e" x="3077.628906"/>
     <use xlink:href="#DejaVuSans-20" x="3141.007812"/>
     <use xlink:href="#DejaVuSans-2d" x="3172.794922"/>
     <use xlink:href="#DejaVuSans-20" x="3208.878906"/>
     <use xlink:href="#DejaVuSans-57" x="3240.666016"/>
     <use xlink:href="#DejaVuSans-54" x="3339.542969"/>
     <use xlink:href="#DejaVuSans-31" x="3400.626953"/>
     <use xlink:href="#DejaVuSans-5f" x="3464.25"/>
     <use xlink:href="#DejaVuSans-34" x="3514.25"/>
     <use xlink:href="#DejaVuSans-5f" x="3577.873047"/>
     <use xlink:href="#DejaVuSans-32" x="3627.873047"/>
     <use xlink:href="#DejaVuSans-33" x="3691.496094"/>
    </g>
   </g>
   <g id="legend_1">
    <g id="patch_4">
     <path d="M 129.119375 108.1845 
L 343.200625 108.1845 
Q 345.200625 108.1845 345.200625 106.1845 
L 345.200625 48.472 
Q 345.200625 46.472 343.200625 46.472 
L 129.119375 46.472 
Q 127.119375 46.472 127.119375 48.472 
L 127.119375 106.1845 
Q 127.119375 108.1845 129.119375 108.1845 
z
" style="fill: #ffffff; opacity: 0.8; stroke: #cccccc; stroke-linejoin: miter"/>
    </g>
    <g id="PathCollection_4">
     <g>
      <use xlink:href="#m8733bdb662" x="141.119375" y="55.445438" style="fill: #1f77b4; stroke: #1f77b4"/>
     </g>
    </g>
    <g id="text_14">
     <!-- $-0.5 &lt; t &lt; 0.$ -->
     <g transform="translate(159.119375 58.070438) scale(0.1 -0.1)">
      <defs>
       <path id="DejaVuSans-2212" d="M 678 2272 
L 4684 2272 
L 4684 1741 
L 678 1741 
L 678 2272 
z
" transform="scale(0.015625)"/>
       <path id="DejaVuSans-3c" d="M 4684 3150 
L 1459 2003 
L 4684 863 
L 4684 294 
L 678 1747 
L 678 2266 
L 4684 3719 
L 4684 3150 
z
" transform="scale(0.015625)"/>
       <path id="DejaVuSans-Oblique-74" d="M 2706 3500 
L 2619 3053 
L 1472 3053 
L 1100 1153 
Q 1081 1047 1072 975 
Q 1063 903 1063 863 
Q 1063 663 1183 572 
Q 1303 481 1569 481 
L 2150 481 
L 2053 0 
L 1503 0 
Q 991 0 739 200 
Q 488 400 488 806 
Q 488 878 497 964 
Q 506 1050 525 1153 
L 897 3053 
L 409 3053 
L 500 3500 
L 978 3500 
L 1172 4494 
L 1747 4494 
L 1556 3500 
L 2706 3500 
z
" transform="scale(0.015625)"/>
      </defs>
      <use xlink:href="#DejaVuSans-2212" transform="translate(0 0.78125)"/>
      <use xlink:href="#DejaVuSans-30" transform="translate(83.789062 0.78125)"/>
      <use xlink:href="#DejaVuSans-2e" transform="translate(147.412109 0.78125)"/>
      <use xlink:href="#DejaVuSans-35" transform="translate(179.199219 0.78125)"/>
      <use xlink:href="#DejaVuSans-3c" transform="translate(262.304688 0.78125)"/>
      <use xlink:href="#DejaVuSans-Oblique-74" transform="translate(365.576172 0.78125)"/>
      <use xlink:href="#DejaVuSans-3c" transform="translate(424.267578 0.78125)"/>
      <use xlink:href="#DejaVuSans-30" transform="translate(527.539062 0.78125)"/>
      <use xlink:href="#DejaVuSans-2e" transform="translate(591.162109 0.78125)"/>
     </g>
    </g>
    <g id="PathCollection_5">
     <g>
      <use xlink:href="#m5c4aeda42d" x="141.119375" y="70.123563" style="fill: #ff7f0e; stroke: #ff7f0e"/>
     </g>
    </g>
    <g id="text_15">
     <!-- $0. &lt; t &lt; 0.5$ -->
     <g transform="translate(159.119375 72.748563) scale(0.1 -0.1)">
      <use xlink:href="#DejaVuSans-30" transform="translate(0 0.78125)"/>
      <use xlink:href="#DejaVuSans-2e" transform="translate(63.623047 0.78125)"/>
      <use xlink:href="#DejaVuSans-3c" transform="translate(134.375 0.78125)"/>
      <use xlink:href="#DejaVuSans-Oblique-74" transform="translate(237.646484 0.78125)"/>
      <use xlink:href="#DejaVuSans-3c" transform="translate(296.337891 0.78125)"/>
      <use xlink:href="#DejaVuSans-30" transform="translate(399.609375 0.78125)"/>
      <use xlink:href="#DejaVuSans-2e" transform="translate(463.232422 0.78125)"/>
      <use xlink:href="#DejaVuSans-35" transform="translate(495.019531 0.78125)"/>
     </g>
    </g>
    <g id="PathCollection_6">
     <g>
      <use xlink:href="#m78ebb03423" x="141.119375" y="84.801688" style="fill: #2ca02c; stroke: #2ca02c"/>
     </g>
    </g>
    <g id="text_16">
     <!-- $0.5 &lt; t &lt; 1.$ -->
     <g transform="translate(159.119375 87.426688) scale(0.1 -0.1)">
      <use xlink:href="#DejaVuSans-30" transform="translate(0 0.78125)"/>
      <use xlink:href="#DejaVuSans-2e" transform="translate(63.623047 0.78125)"/>
      <use xlink:href="#DejaVuSans-35" transform="translate(95.410156 0.78125)"/>
      <use xlink:href="#DejaVuSans-3c" transform="translate(178.515625 0.78125)"/>
      <use xlink:href="#DejaVuSans-Oblique-74" transform="translate(281.787109 0.78125)"/>
      <use xlink:href="#DejaVuSans-3c" transform="translate(340.478516 0.78125)"/>
      <use xlink:href="#DejaVuSans-31" transform="translate(443.75 0.78125)"/>
      <use xlink:href="#DejaVuSans-2e" transform="translate(507.373047 0.78125)"/>
     </g>
    </g>
    <g id="line2d_14">
     <path d="M 131.119375 98.604813 
L 141.119375 98.604813 
L 151.119375 98.604813 
" style="fill: none; stroke-dasharray: 7.4,3.2; stroke-dashoffset: 0; stroke: #ff0000; stroke-width: 2"/>
    </g>
    <g id="text_17">
     <!-- Average angle in dark: 12.1 degrees -->
     <g transform="translate(159.119375 102.104813) scale(0.1 -0.1)">
      <defs>
       <path id="DejaVuSans-41" d="M 2188 4044 
L 1331 1722 
L 3047 1722 
L 2188 4044 
z
M 1831 4666 
L 2547 4666 
L 4325 0 
L 3669 0 
L 3244 1197 
L 1141 1197 
L 716 0 
L 50 0 
L 1831 4666 
z
" transform="scale(0.015625)"/>
       <path id="DejaVuSans-61" d="M 2194 1759 
Q 1497 1759 1228 1600 
Q 959 1441 959 1056 
Q 959 750 1161 570 
Q 1363 391 1709 391 
Q 2188 391 2477 730 
Q 2766 1069 2766 1631 
L 2766 1759 
L 2194 1759 
z
M 3341 1997 
L 3341 0 
L 2766 0 
L 2766 531 
Q 2569 213 2275 61 
Q 1981 -91 1556 -91 
Q 1019 -91 701 211 
Q 384 513 384 1019 
Q 384 1609 779 1909 
Q 1175 2209 1959 2209 
L 2766 2209 
L 2766 2266 
Q 2766 2663 2505 2880 
Q 2244 3097 1772 3097 
Q 1472 3097 1187 3025 
Q 903 2953 641 2809 
L 641 3341 
Q 956 3463 1253 3523 
Q 1550 3584 1831 3584 
Q 2591 3584 2966 3190 
Q 3341 2797 3341 1997 
z
" transform="scale(0.015625)"/>
       <path id="DejaVuSans-67" d="M 2906 1791 
Q 2906 2416 2648 2759 
Q 2391 3103 1925 3103 
Q 1463 3103 1205 2759 
Q 947 2416 947 1791 
Q 947 1169 1205 825 
Q 1463 481 1925 481 
Q 2391 481 2648 825 
Q 2906 1169 2906 1791 
z
M 3481 434 
Q 3481 -459 3084 -895 
Q 2688 -1331 1869 -1331 
Q 1566 -1331 1297 -1286 
Q 1028 -1241 775 -1147 
L 775 -588 
Q 1028 -725 1275 -790 
Q 1522 -856 1778 -856 
Q 2344 -856 2625 -561 
Q 2906 -266 2906 331 
L 2906 616 
Q 2728 306 2450 153 
Q 2172 0 1784 0 
Q 1141 0 747 490 
Q 353 981 353 1791 
Q 353 2603 747 3093 
Q 1141 3584 1784 3584 
Q 2172 3584 2450 3431 
Q 2728 3278 2906 2969 
L 2906 3500 
L 3481 3500 
L 3481 434 
z
" transform="scale(0.015625)"/>
       <path id="DejaVuSans-6b" d="M 581 4863 
L 1159 4863 
L 1159 1991 
L 2875 3500 
L 3609 3500 
L 1753 1863 
L 3688 0 
L 2938 0 
L 1159 1709 
L 1159 0 
L 581 0 
L 581 4863 
z
" transform="scale(0.015625)"/>
       <path id="DejaVuSans-3a" d="M 750 794 
L 1409 794 
L 1409 0 
L 750 0 
L 750 794 
z
M 750 3309 
L 1409 3309 
L 1409 2516 
L 750 2516 
L 750 3309 
z
" transform="scale(0.015625)"/>
      </defs>
      <use xlink:href="#DejaVuSans-41"/>
      <use xlink:href="#DejaVuSans-76" x="62.533203"/>
      <use xlink:href="#DejaVuSans-65" x="121.712891"/>
      <use xlink:href="#DejaVuSans-72" x="183.236328"/>
      <use xlink:href="#DejaVuSans-61" x="224.349609"/>
      <use xlink:href="#DejaVuSans-67" x="285.628906"/>
      <use xlink:href="#DejaVuSans-65" x="349.105469"/>
      <use xlink:href="#DejaVuSans-20" x="410.628906"/>
      <use xlink:href="#DejaVuSans-61" x="442.416016"/>
      <use xlink:href="#DejaVuSans-6e" x="503.695312"/>
      <use xlink:href="#DejaVuSans-67" x="567.074219"/>
      <use xlink:href="#DejaVuSans-6c" x="630.550781"/>
      <use xlink:href="#DejaVuSans-65" x="658.333984"/>
      <use xlink:href="#DejaVuSans-20" x="719.857422"/>
      <use xlink:href="#DejaVuSans-69" x="751.644531"/>
      <use xlink:href="#DejaVuSans-6e" x="779.427734"/>
      <use xlink:href="#DejaVuSans-20" x="842.806641"/>
      <use xlink:href="#DejaVuSans-64" x="874.59375"/>
      <use xlink:href="#DejaVuSans-61" x="938.070312"/>
      <use xlink:href="#DejaVuSans-72" x="999.349609"/>
      <use xlink:href="#DejaVuSans-6b" x="1040.462891"/>
      <use xlink:href="#DejaVuSans-3a" x="1098.373047"/>
      <use xlink:href="#DejaVuSans-20" x="1132.064453"/>
      <use xlink:href="#DejaVuSans-31" x="1163.851562"/>
      <use xlink:href="#DejaVuSans-32" x="1227.474609"/>
      <use xlink:href="#DejaVuSans-2e" x="1291.097656"/>
      <use xlink:href="#DejaVuSans-31" x="1322.884766"/>
      <use xlink:href="#DejaVuSans-20" x="1386.507812"/>
      <use xlink:href="#DejaVuSans-64" x="1418.294922"/>
      <use xlink:href="#DejaVuSans-65" x="1481.771484"/>
      <use xlink:href="#DejaVuSans-67" x="1543.294922"/>
      <use xlink:href="#DejaVuSans-72" x="1606.771484"/>
      <use xlink:href="#DejaVuSans-65" x="1645.634766"/>
      <use xlink:href="#DejaVuSans-65" x="1707.158203"/>
      <use xlink:href="#DejaVuSans-73" x="1768.681641"/>
     </g>
    </g>
   </g>
  </g>
 </g>
 <defs>
  <clipPath id="p1ee2cbce53">
   <path d="M 369.216 174.528 
C 369.216 157.055246 365.774248 139.752393 359.087715 123.609673 
C 352.401182 107.466954 342.599903 92.798303 330.2448 80.4432 
C 317.889697 68.088097 303.221046 58.286818 287.078327 51.600285 
C 270.935607 44.913752 253.632754 41.472 236.16 41.472 
C 218.687246 41.472 201.384393 44.913752 185.241673 51.600285 
C 169.098954 58.286818 154.430303 68.088097 142.0752 80.4432 
C 129.720097 92.798303 119.918818 107.466954 113.232285 123.609673 
C 106.545752 139.752393 103.104 157.055246 103.104 174.528 
C 103.104 192.000754 106.545752 209.303607 113.232285 225.446327 
C 119.918818 241.589046 129.720097 256.257697 142.0752 268.6128 
C 154.430303 280.967903 169.098954 290.769182 185.241673 297.455715 
C 201.384393 304.142248 218.687246 307.584 236.16 307.584 
C 253.632754 307.584 270.935607 304.142248 287.078327 297.455715 
C 303.221046 290.769182 317.889697 280.967903 330.2448 268.6128 
C 342.599903 256.257697 352.401182 241.589046 359.087715 225.446327 
C 365.774248 209.303607 369.216 192.000754 369.216 174.528 
M 236.16 174.528 
C 236.16 174.528 236.16 174.528 236.16 174.528 
C 236.16 174.528 236.16 174.528 236.16 174.528 
C 236.16 174.528 236.16 174.528 236.16 174.528 
C 236.16 174.528 236.16 174.528 236.16 174.528 
C 236.16 174.528 236.16 174.528 236.16 174.528 
C 236.16 174.528 236.16 174.528 236.16 174.528 
C 236.16 174.528 236.16 174.528 236.16 174.528 
C 236.16 174.528 236.16 174.528 236.16 174.528 
C 236.16 174.528 236.16 174.528 236.16 174.528 
C 236.16 174.528 236.16 174.528 236.16 174.528 
C 236.16 174.528 236.16 174.528 236.16 174.528 
C 236.16 174.528 236.16 174.528 236.16 174.528 
C 236.16 174.528 236.16 174.528 236.16 174.528 
C 236.16 174.528 236.16 174.528 236.16 174.528 
C 236.16 174.528 236.16 174.528 236.16 174.528 
C 236.16 174.528 236.16 174.528 236.16 174.528 
z
"/>
  </clipPath>
 </defs>
</svg>
