<?xml version="1.0" encoding="utf-8" standalone="no"?>
<!DOCTYPE svg PUBLIC "-//W3C//DTD SVG 1.1//EN"
  "http://www.w3.org/Graphics/SVG/1.1/DTD/svg11.dtd">
<svg xmlns:xlink="http://www.w3.org/1999/xlink" width="460.8pt" height="345.6pt" viewBox="0 0 460.8 345.6" xmlns="http://www.w3.org/2000/svg" version="1.1">
 <metadata>
  <rdf:RDF xmlns:dc="http://purl.org/dc/elements/1.1/" xmlns:cc="http://creativecommons.org/ns#" xmlns:rdf="http://www.w3.org/1999/02/22-rdf-syntax-ns#">
   <cc:Work>
    <dc:type rdf:resource="http://purl.org/dc/dcmitype/StillImage"/>
    <dc:date>2023-12-23T15:46:12.808136</dc:date>
    <dc:format>image/svg+xml</dc:format>
    <dc:creator>
     <cc:Agent>
      <dc:title>Matplotlib v3.7.4, https://matplotlib.org/</dc:title>
     </cc:Agent>
    </dc:creator>
   </cc:Work>
  </rdf:RDF>
 </metadata>
 <defs>
  <style type="text/css">*{stroke-linejoin: round; stroke-linecap: butt}</style>
 </defs>
 <g id="figure_1">
  <g id="patch_1">
   <path d="M 0 345.6 
L 460.8 345.6 
L 460.8 0 
L 0 0 
z
" style="fill: #ffffff"/>
  </g>
  <g id="axes_1">
   <g id="patch_2">
    <path d="M 369.216 174.528 
C 369.216 157.055246 365.774248 139.752393 359.087715 123.609673 
C 352.401182 107.466954 342.599903 92.798303 330.2448 80.4432 
C 317.889697 68.088097 303.221046 58.286818 287.078327 51.600285 
C 270.935607 44.913752 253.632754 41.472 236.16 41.472 
C 218.687246 41.472 201.384393 44.913752 185.241673 51.600285 
C 169.098954 58.286818 154.430303 68.088097 142.0752 80.4432 
C 129.720097 92.798303 119.918818 107.466954 113.232285 123.609673 
C 106.545752 139.752393 103.104 157.055246 103.104 174.528 
C 103.104 192.000754 106.545752 209.303607 113.232285 225.446327 
C 119.918818 241.589046 129.720097 256.257697 142.0752 268.6128 
C 154.430303 280.967903 169.098954 290.769182 185.241673 297.455715 
C 201.384393 304.142248 218.687246 307.584 236.16 307.584 
C 253.632754 307.584 270.935607 304.142248 287.078327 297.455715 
C 303.221046 290.769182 317.889697 280.967903 330.2448 268.6128 
C 342.599903 256.257697 352.401182 241.589046 359.087715 225.446327 
C 365.774248 209.303607 369.216 192.000754 369.216 174.528 
M 236.16 174.528 
C 236.16 174.528 236.16 174.528 236.16 174.528 
C 236.16 174.528 236.16 174.528 236.16 174.528 
C 236.16 174.528 236.16 174.528 236.16 174.528 
C 236.16 174.528 236.16 174.528 236.16 174.528 
C 236.16 174.528 236.16 174.528 236.16 174.528 
C 236.16 174.528 236.16 174.528 236.16 174.528 
C 236.16 174.528 236.16 174.528 236.16 174.528 
C 236.16 174.528 236.16 174.528 236.16 174.528 
C 236.16 174.528 236.16 174.528 236.16 174.528 
C 236.16 174.528 236.16 174.528 236.16 174.528 
C 236.16 174.528 236.16 174.528 236.16 174.528 
C 236.16 174.528 236.16 174.528 236.16 174.528 
C 236.16 174.528 236.16 174.528 236.16 174.528 
C 236.16 174.528 236.16 174.528 236.16 174.528 
C 236.16 174.528 236.16 174.528 236.16 174.528 
C 236.16 174.528 236.16 174.528 236.16 174.528 
z
" style="fill: #ffffff"/>
   </g>
   <g id="PathCollection_1">
    <defs>
     <path id="m6d442df347" d="M 0 3 
C 0.795609 3 1.55874 2.683901 2.12132 2.12132 
C 2.683901 1.55874 3 0.795609 3 0 
C 3 -0.795609 2.683901 -1.55874 2.12132 -2.12132 
C 1.55874 -2.683901 0.795609 -3 0 -3 
C -0.795609 -3 -1.55874 -2.683901 -2.12132 -2.12132 
C -2.683901 -1.55874 -3 -0.795609 -3 0 
C -3 0.795609 -2.683901 1.55874 -2.12132 2.12132 
C -1.55874 2.683901 -0.795609 3 0 3 
z
" style="stroke: #1f77b4"/>
    </defs>
    <g clip-path="url(#p118abd5334)">
     <use xlink:href="#m6d442df347" x="208.588767" y="168.708688" style="fill: #1f77b4; stroke: #1f77b4"/>
     <use xlink:href="#m6d442df347" x="263.164139" y="142.878042" style="fill: #1f77b4; stroke: #1f77b4"/>
     <use xlink:href="#m6d442df347" x="204.987514" y="167.09354" style="fill: #1f77b4; stroke: #1f77b4"/>
     <use xlink:href="#m6d442df347" x="177.047656" y="179.438918" style="fill: #1f77b4; stroke: #1f77b4"/>
     <use xlink:href="#m6d442df347" x="174.283572" y="175.547741" style="fill: #1f77b4; stroke: #1f77b4"/>
     <use xlink:href="#m6d442df347" x="200.219638" y="161.628262" style="fill: #1f77b4; stroke: #1f77b4"/>
     <use xlink:href="#m6d442df347" x="145.084725" y="196.746701" style="fill: #1f77b4; stroke: #1f77b4"/>
     <use xlink:href="#m6d442df347" x="179.49942" y="174.399189" style="fill: #1f77b4; stroke: #1f77b4"/>
     <use xlink:href="#m6d442df347" x="174.592083" y="167.430524" style="fill: #1f77b4; stroke: #1f77b4"/>
     <use xlink:href="#m6d442df347" x="192.925548" y="156.683564" style="fill: #1f77b4; stroke: #1f77b4"/>
     <use xlink:href="#m6d442df347" x="147.119004" y="173.468123" style="fill: #1f77b4; stroke: #1f77b4"/>
     <use xlink:href="#m6d442df347" x="165.244712" y="161.269411" style="fill: #1f77b4; stroke: #1f77b4"/>
     <use xlink:href="#m6d442df347" x="173.925018" y="163.852044" style="fill: #1f77b4; stroke: #1f77b4"/>
     <use xlink:href="#m6d442df347" x="181.191679" y="159.914225" style="fill: #1f77b4; stroke: #1f77b4"/>
     <use xlink:href="#m6d442df347" x="158.797699" y="160.189455" style="fill: #1f77b4; stroke: #1f77b4"/>
     <use xlink:href="#m6d442df347" x="134.131414" y="160.218623" style="fill: #1f77b4; stroke: #1f77b4"/>
     <use xlink:href="#m6d442df347" x="140.720669" y="164.552399" style="fill: #1f77b4; stroke: #1f77b4"/>
     <use xlink:href="#m6d442df347" x="138.527445" y="148.747319" style="fill: #1f77b4; stroke: #1f77b4"/>
     <use xlink:href="#m6d442df347" x="156.511265" y="145.580147" style="fill: #1f77b4; stroke: #1f77b4"/>
     <use xlink:href="#m6d442df347" x="157.858481" y="136.123061" style="fill: #1f77b4; stroke: #1f77b4"/>
     <use xlink:href="#m6d442df347" x="184.843479" y="125.334886" style="fill: #1f77b4; stroke: #1f77b4"/>
     <use xlink:href="#m6d442df347" x="187.063889" y="119.59854" style="fill: #1f77b4; stroke: #1f77b4"/>
     <use xlink:href="#m6d442df347" x="197.029008" y="112.23799" style="fill: #1f77b4; stroke: #1f77b4"/>
     <use xlink:href="#m6d442df347" x="158.255007" y="127.178806" style="fill: #1f77b4; stroke: #1f77b4"/>
    </g>
   </g>
   <g id="PathCollection_2">
    <defs>
     <path id="m451c7c23bf" d="M 0 3 
C 0.795609 3 1.55874 2.683901 2.12132 2.12132 
C 2.683901 1.55874 3 0.795609 3 0 
C 3 -0.795609 2.683901 -1.55874 2.12132 -2.12132 
C 1.55874 -2.683901 0.795609 -3 0 -3 
C -0.795609 -3 -1.55874 -2.683901 -2.12132 -2.12132 
C -2.683901 -1.55874 -3 -0.795609 -3 0 
C -3 0.795609 -2.683901 1.55874 -2.12132 2.12132 
C -1.55874 2.683901 -0.795609 3 0 3 
z
" style="stroke: #ff7f0e"/>
    </defs>
    <g clip-path="url(#p118abd5334)">
     <use xlink:href="#m451c7c23bf" x="165.756312" y="134.559964" style="fill: #ff7f0e; stroke: #ff7f0e"/>
     <use xlink:href="#m451c7c23bf" x="204.219146" y="118.142708" style="fill: #ff7f0e; stroke: #ff7f0e"/>
     <use xlink:href="#m451c7c23bf" x="214.272253" y="105.698101" style="fill: #ff7f0e; stroke: #ff7f0e"/>
     <use xlink:href="#m451c7c23bf" x="268.687177" y="88.646066" style="fill: #ff7f0e; stroke: #ff7f0e"/>
     <use xlink:href="#m451c7c23bf" x="237.181008" y="105.701121" style="fill: #ff7f0e; stroke: #ff7f0e"/>
     <use xlink:href="#m451c7c23bf" x="242.088559" y="103.217378" style="fill: #ff7f0e; stroke: #ff7f0e"/>
     <use xlink:href="#m451c7c23bf" x="258.611898" y="113.067884" style="fill: #ff7f0e; stroke: #ff7f0e"/>
     <use xlink:href="#m451c7c23bf" x="290.977554" y="86.581792" style="fill: #ff7f0e; stroke: #ff7f0e"/>
     <use xlink:href="#m451c7c23bf" x="263.820158" y="105.267797" style="fill: #ff7f0e; stroke: #ff7f0e"/>
     <use xlink:href="#m451c7c23bf" x="276.871969" y="96.119948" style="fill: #ff7f0e; stroke: #ff7f0e"/>
     <use xlink:href="#m451c7c23bf" x="253.499895" y="109.379245" style="fill: #ff7f0e; stroke: #ff7f0e"/>
     <use xlink:href="#m451c7c23bf" x="264.743707" y="115.261428" style="fill: #ff7f0e; stroke: #ff7f0e"/>
     <use xlink:href="#m451c7c23bf" x="254.392154" y="116.543213" style="fill: #ff7f0e; stroke: #ff7f0e"/>
     <use xlink:href="#m451c7c23bf" x="299.629583" y="95.756529" style="fill: #ff7f0e; stroke: #ff7f0e"/>
     <use xlink:href="#m451c7c23bf" x="307.462147" y="100.874993" style="fill: #ff7f0e; stroke: #ff7f0e"/>
     <use xlink:href="#m451c7c23bf" x="291.470787" y="117.573415" style="fill: #ff7f0e; stroke: #ff7f0e"/>
     <use xlink:href="#m451c7c23bf" x="314.150142" y="105.813807" style="fill: #ff7f0e; stroke: #ff7f0e"/>
     <use xlink:href="#m451c7c23bf" x="318.347249" y="87.596577" style="fill: #ff7f0e; stroke: #ff7f0e"/>
     <use xlink:href="#m451c7c23bf" x="282.448346" y="109.685097" style="fill: #ff7f0e; stroke: #ff7f0e"/>
     <use xlink:href="#m451c7c23bf" x="303.340205" y="103.846584" style="fill: #ff7f0e; stroke: #ff7f0e"/>
     <use xlink:href="#m451c7c23bf" x="312.631225" y="102.981388" style="fill: #ff7f0e; stroke: #ff7f0e"/>
     <use xlink:href="#m451c7c23bf" x="291.936782" y="107.466312" style="fill: #ff7f0e; stroke: #ff7f0e"/>
     <use xlink:href="#m451c7c23bf" x="328.680657" y="87.937663" style="fill: #ff7f0e; stroke: #ff7f0e"/>
     <use xlink:href="#m451c7c23bf" x="304.348518" y="96.021621" style="fill: #ff7f0e; stroke: #ff7f0e"/>
    </g>
   </g>
   <g id="PathCollection_3">
    <defs>
     <path id="m357a21273c" d="M 0 3 
C 0.795609 3 1.55874 2.683901 2.12132 2.12132 
C 2.683901 1.55874 3 0.795609 3 0 
C 3 -0.795609 2.683901 -1.55874 2.12132 -2.12132 
C 1.55874 -2.683901 0.795609 -3 0 -3 
C -0.795609 -3 -1.55874 -2.683901 -2.12132 -2.12132 
C -2.683901 -1.55874 -3 -0.795609 -3 0 
C -3 0.795609 -2.683901 1.55874 -2.12132 2.12132 
C -1.55874 2.683901 -0.795609 3 0 3 
z
" style="stroke: #2ca02c"/>
    </defs>
    <g clip-path="url(#p118abd5334)">
     <use xlink:href="#m357a21273c" x="269.740573" y="110.265421" style="fill: #2ca02c; stroke: #2ca02c"/>
     <use xlink:href="#m357a21273c" x="285.971325" y="106.687286" style="fill: #2ca02c; stroke: #2ca02c"/>
     <use xlink:href="#m357a21273c" x="319.284842" y="92.168407" style="fill: #2ca02c; stroke: #2ca02c"/>
     <use xlink:href="#m357a21273c" x="286.860815" y="108.110013" style="fill: #2ca02c; stroke: #2ca02c"/>
     <use xlink:href="#m357a21273c" x="314.090607" y="87.768996" style="fill: #2ca02c; stroke: #2ca02c"/>
     <use xlink:href="#m357a21273c" x="302.942787" y="96.093062" style="fill: #2ca02c; stroke: #2ca02c"/>
     <use xlink:href="#m357a21273c" x="292.764359" y="98.02077" style="fill: #2ca02c; stroke: #2ca02c"/>
     <use xlink:href="#m357a21273c" x="278.260522" y="101.748658" style="fill: #2ca02c; stroke: #2ca02c"/>
     <use xlink:href="#m357a21273c" x="311.623392" y="89.705683" style="fill: #2ca02c; stroke: #2ca02c"/>
     <use xlink:href="#m357a21273c" x="296.840796" y="105.663901" style="fill: #2ca02c; stroke: #2ca02c"/>
     <use xlink:href="#m357a21273c" x="288.88619" y="115.925775" style="fill: #2ca02c; stroke: #2ca02c"/>
     <use xlink:href="#m357a21273c" x="262.028626" y="136.165198" style="fill: #2ca02c; stroke: #2ca02c"/>
     <use xlink:href="#m357a21273c" x="225.026723" y="151.697059" style="fill: #2ca02c; stroke: #2ca02c"/>
     <use xlink:href="#m357a21273c" x="237.119569" y="148.969259" style="fill: #2ca02c; stroke: #2ca02c"/>
     <use xlink:href="#m357a21273c" x="276.883513" y="130.82712" style="fill: #2ca02c; stroke: #2ca02c"/>
     <use xlink:href="#m357a21273c" x="258.177325" y="142.467523" style="fill: #2ca02c; stroke: #2ca02c"/>
     <use xlink:href="#m357a21273c" x="269.107308" y="132.665338" style="fill: #2ca02c; stroke: #2ca02c"/>
     <use xlink:href="#m357a21273c" x="274.776434" y="131.516396" style="fill: #2ca02c; stroke: #2ca02c"/>
     <use xlink:href="#m357a21273c" x="293.849394" y="105.448543" style="fill: #2ca02c; stroke: #2ca02c"/>
     <use xlink:href="#m357a21273c" x="279.89118" y="120.77894" style="fill: #2ca02c; stroke: #2ca02c"/>
     <use xlink:href="#m357a21273c" x="250.407836" y="128.123946" style="fill: #2ca02c; stroke: #2ca02c"/>
     <use xlink:href="#m357a21273c" x="258.223985" y="139.969226" style="fill: #2ca02c; stroke: #2ca02c"/>
     <use xlink:href="#m357a21273c" x="274.200052" y="121.827523" style="fill: #2ca02c; stroke: #2ca02c"/>
     <use xlink:href="#m357a21273c" x="295.201171" y="123.396556" style="fill: #2ca02c; stroke: #2ca02c"/>
    </g>
   </g>
   <g id="matplotlib.axis_1">
    <g id="xtick_1">
     <g id="line2d_1">
      <path d="M 236.16 174.528 
L 369.216 174.528 
" clip-path="url(#p118abd5334)" style="fill: none; stroke: #b0b0b0; stroke-width: 0.8; stroke-linecap: square"/>
     </g>
     <g id="text_1">
      <!-- 0° -->
      <g transform="translate(377.53475 177.287375) scale(0.1 -0.1)">
       <defs>
        <path id="DejaVuSans-30" d="M 2034 4250 
Q 1547 4250 1301 3770 
Q 1056 3291 1056 2328 
Q 1056 1369 1301 889 
Q 1547 409 2034 409 
Q 2525 409 2770 889 
Q 3016 1369 3016 2328 
Q 3016 3291 2770 3770 
Q 2525 4250 2034 4250 
z
M 2034 4750 
Q 2819 4750 3233 4129 
Q 3647 3509 3647 2328 
Q 3647 1150 3233 529 
Q 2819 -91 2034 -91 
Q 1250 -91 836 529 
Q 422 1150 422 2328 
Q 422 3509 836 4129 
Q 1250 4750 2034 4750 
z
" transform="scale(0.015625)"/>
        <path id="DejaVuSans-b0" d="M 1600 4347 
Q 1350 4347 1178 4173 
Q 1006 4000 1006 3750 
Q 1006 3503 1178 3333 
Q 1350 3163 1600 3163 
Q 1850 3163 2022 3333 
Q 2194 3503 2194 3750 
Q 2194 3997 2020 4172 
Q 1847 4347 1600 4347 
z
M 1600 4750 
Q 1800 4750 1984 4673 
Q 2169 4597 2303 4453 
Q 2447 4313 2519 4134 
Q 2591 3956 2591 3750 
Q 2591 3338 2302 3052 
Q 2013 2766 1594 2766 
Q 1172 2766 890 3047 
Q 609 3328 609 3750 
Q 609 4169 896 4459 
Q 1184 4750 1600 4750 
z
" transform="scale(0.015625)"/>
       </defs>
       <use xlink:href="#DejaVuSans-30"/>
       <use xlink:href="#DejaVuSans-b0" x="63.623047"/>
      </g>
     </g>
    </g>
    <g id="xtick_2">
     <g id="line2d_2">
      <path d="M 236.16 174.528 
L 330.2448 80.4432 
" clip-path="url(#p118abd5334)" style="fill: none; stroke: #b0b0b0; stroke-width: 0.8; stroke-linecap: square"/>
     </g>
     <g id="text_2">
      <!-- 45° -->
      <g transform="translate(331.281795 73.30308) scale(0.1 -0.1)">
       <defs>
        <path id="DejaVuSans-34" d="M 2419 4116 
L 825 1625 
L 2419 1625 
L 2419 4116 
z
M 2253 4666 
L 3047 4666 
L 3047 1625 
L 3713 1625 
L 3713 1100 
L 3047 1100 
L 3047 0 
L 2419 0 
L 2419 1100 
L 313 1100 
L 313 1709 
L 2253 4666 
z
" transform="scale(0.015625)"/>
        <path id="DejaVuSans-35" d="M 691 4666 
L 3169 4666 
L 3169 4134 
L 1269 4134 
L 1269 2991 
Q 1406 3038 1543 3061 
Q 1681 3084 1819 3084 
Q 2600 3084 3056 2656 
Q 3513 2228 3513 1497 
Q 3513 744 3044 326 
Q 2575 -91 1722 -91 
Q 1428 -91 1123 -41 
Q 819 9 494 109 
L 494 744 
Q 775 591 1075 516 
Q 1375 441 1709 441 
Q 2250 441 2565 725 
Q 2881 1009 2881 1497 
Q 2881 1984 2565 2268 
Q 2250 2553 1709 2553 
Q 1456 2553 1204 2497 
Q 953 2441 691 2322 
L 691 4666 
z
" transform="scale(0.015625)"/>
       </defs>
       <use xlink:href="#DejaVuSans-34"/>
       <use xlink:href="#DejaVuSans-35" x="63.623047"/>
       <use xlink:href="#DejaVuSans-b0" x="127.246094"/>
      </g>
     </g>
    </g>
    <g id="xtick_3">
     <g id="line2d_3">
      <path d="M 236.16 174.528 
L 236.16 41.472 
" clip-path="url(#p118abd5334)" style="fill: none; stroke: #b0b0b0; stroke-width: 0.8; stroke-linecap: square"/>
     </g>
     <g id="text_3">
      <!-- 90° -->
      <g transform="translate(227.2975 30.231375) scale(0.1 -0.1)">
       <defs>
        <path id="DejaVuSans-39" d="M 703 97 
L 703 672 
Q 941 559 1184 500 
Q 1428 441 1663 441 
Q 2288 441 2617 861 
Q 2947 1281 2994 2138 
Q 2813 1869 2534 1725 
Q 2256 1581 1919 1581 
Q 1219 1581 811 2004 
Q 403 2428 403 3163 
Q 403 3881 828 4315 
Q 1253 4750 1959 4750 
Q 2769 4750 3195 4129 
Q 3622 3509 3622 2328 
Q 3622 1225 3098 567 
Q 2575 -91 1691 -91 
Q 1453 -91 1209 -44 
Q 966 3 703 97 
z
M 1959 2075 
Q 2384 2075 2632 2365 
Q 2881 2656 2881 3163 
Q 2881 3666 2632 3958 
Q 2384 4250 1959 4250 
Q 1534 4250 1286 3958 
Q 1038 3666 1038 3163 
Q 1038 2656 1286 2365 
Q 1534 2075 1959 2075 
z
" transform="scale(0.015625)"/>
       </defs>
       <use xlink:href="#DejaVuSans-39"/>
       <use xlink:href="#DejaVuSans-30" x="63.623047"/>
       <use xlink:href="#DejaVuSans-b0" x="127.246094"/>
      </g>
     </g>
    </g>
    <g id="xtick_4">
     <g id="line2d_4">
      <path d="M 236.16 174.528 
L 142.0752 80.4432 
" clip-path="url(#p118abd5334)" style="fill: none; stroke: #b0b0b0; stroke-width: 0.8; stroke-linecap: square"/>
     </g>
     <g id="text_4">
      <!-- 135° -->
      <g transform="translate(120.131955 73.30308) scale(0.1 -0.1)">
       <defs>
        <path id="DejaVuSans-31" d="M 794 531 
L 1825 531 
L 1825 4091 
L 703 3866 
L 703 4441 
L 1819 4666 
L 2450 4666 
L 2450 531 
L 3481 531 
L 3481 0 
L 794 0 
L 794 531 
z
" transform="scale(0.015625)"/>
        <path id="DejaVuSans-33" d="M 2597 2516 
Q 3050 2419 3304 2112 
Q 3559 1806 3559 1356 
Q 3559 666 3084 287 
Q 2609 -91 1734 -91 
Q 1441 -91 1130 -33 
Q 819 25 488 141 
L 488 750 
Q 750 597 1062 519 
Q 1375 441 1716 441 
Q 2309 441 2620 675 
Q 2931 909 2931 1356 
Q 2931 1769 2642 2001 
Q 2353 2234 1838 2234 
L 1294 2234 
L 1294 2753 
L 1863 2753 
Q 2328 2753 2575 2939 
Q 2822 3125 2822 3475 
Q 2822 3834 2567 4026 
Q 2313 4219 1838 4219 
Q 1578 4219 1281 4162 
Q 984 4106 628 3988 
L 628 4550 
Q 988 4650 1302 4700 
Q 1616 4750 1894 4750 
Q 2613 4750 3031 4423 
Q 3450 4097 3450 3541 
Q 3450 3153 3228 2886 
Q 3006 2619 2597 2516 
z
" transform="scale(0.015625)"/>
       </defs>
       <use xlink:href="#DejaVuSans-31"/>
       <use xlink:href="#DejaVuSans-33" x="63.623047"/>
       <use xlink:href="#DejaVuSans-35" x="127.246094"/>
       <use xlink:href="#DejaVuSans-b0" x="190.869141"/>
      </g>
     </g>
    </g>
    <g id="xtick_5">
     <g id="line2d_5">
      <path d="M 236.16 174.528 
L 103.104 174.528 
" clip-path="url(#p118abd5334)" style="fill: none; stroke: #b0b0b0; stroke-width: 0.8; stroke-linecap: square"/>
     </g>
     <g id="text_5">
      <!-- 180° -->
      <g transform="translate(77.06025 177.287375) scale(0.1 -0.1)">
       <defs>
        <path id="DejaVuSans-38" d="M 2034 2216 
Q 1584 2216 1326 1975 
Q 1069 1734 1069 1313 
Q 1069 891 1326 650 
Q 1584 409 2034 409 
Q 2484 409 2743 651 
Q 3003 894 3003 1313 
Q 3003 1734 2745 1975 
Q 2488 2216 2034 2216 
z
M 1403 2484 
Q 997 2584 770 2862 
Q 544 3141 544 3541 
Q 544 4100 942 4425 
Q 1341 4750 2034 4750 
Q 2731 4750 3128 4425 
Q 3525 4100 3525 3541 
Q 3525 3141 3298 2862 
Q 3072 2584 2669 2484 
Q 3125 2378 3379 2068 
Q 3634 1759 3634 1313 
Q 3634 634 3220 271 
Q 2806 -91 2034 -91 
Q 1263 -91 848 271 
Q 434 634 434 1313 
Q 434 1759 690 2068 
Q 947 2378 1403 2484 
z
M 1172 3481 
Q 1172 3119 1398 2916 
Q 1625 2713 2034 2713 
Q 2441 2713 2670 2916 
Q 2900 3119 2900 3481 
Q 2900 3844 2670 4047 
Q 2441 4250 2034 4250 
Q 1625 4250 1398 4047 
Q 1172 3844 1172 3481 
z
" transform="scale(0.015625)"/>
       </defs>
       <use xlink:href="#DejaVuSans-31"/>
       <use xlink:href="#DejaVuSans-38" x="63.623047"/>
       <use xlink:href="#DejaVuSans-30" x="127.246094"/>
       <use xlink:href="#DejaVuSans-b0" x="190.869141"/>
      </g>
     </g>
    </g>
    <g id="xtick_6">
     <g id="line2d_6">
      <path d="M 236.16 174.528 
L 142.0752 268.6128 
" clip-path="url(#p118abd5334)" style="fill: none; stroke: #b0b0b0; stroke-width: 0.8; stroke-linecap: square"/>
     </g>
     <g id="text_6">
      <!-- 225° -->
      <g transform="translate(120.131955 281.27167) scale(0.1 -0.1)">
       <defs>
        <path id="DejaVuSans-32" d="M 1228 531 
L 3431 531 
L 3431 0 
L 469 0 
L 469 531 
Q 828 903 1448 1529 
Q 2069 2156 2228 2338 
Q 2531 2678 2651 2914 
Q 2772 3150 2772 3378 
Q 2772 3750 2511 3984 
Q 2250 4219 1831 4219 
Q 1534 4219 1204 4116 
Q 875 4013 500 3803 
L 500 4441 
Q 881 4594 1212 4672 
Q 1544 4750 1819 4750 
Q 2544 4750 2975 4387 
Q 3406 4025 3406 3419 
Q 3406 3131 3298 2873 
Q 3191 2616 2906 2266 
Q 2828 2175 2409 1742 
Q 1991 1309 1228 531 
z
" transform="scale(0.015625)"/>
       </defs>
       <use xlink:href="#DejaVuSans-32"/>
       <use xlink:href="#DejaVuSans-32" x="63.623047"/>
       <use xlink:href="#DejaVuSans-35" x="127.246094"/>
       <use xlink:href="#DejaVuSans-b0" x="190.869141"/>
      </g>
     </g>
    </g>
    <g id="xtick_7">
     <g id="line2d_7">
      <path d="M 236.16 174.528 
L 236.16 307.584 
" clip-path="url(#p118abd5334)" style="fill: none; stroke: #b0b0b0; stroke-width: 0.8; stroke-linecap: square"/>
     </g>
     <g id="text_7">
      <!-- 270° -->
      <g transform="translate(224.11625 324.343375) scale(0.1 -0.1)">
       <defs>
        <path id="DejaVuSans-37" d="M 525 4666 
L 3525 4666 
L 3525 4397 
L 1831 0 
L 1172 0 
L 2766 4134 
L 525 4134 
L 525 4666 
z
" transform="scale(0.015625)"/>
       </defs>
       <use xlink:href="#DejaVuSans-32"/>
       <use xlink:href="#DejaVuSans-37" x="63.623047"/>
       <use xlink:href="#DejaVuSans-30" x="127.246094"/>
       <use xlink:href="#DejaVuSans-b0" x="190.869141"/>
      </g>
     </g>
    </g>
    <g id="xtick_8">
     <g id="line2d_8">
      <path d="M 236.16 174.528 
L 330.2448 268.6128 
" clip-path="url(#p118abd5334)" style="fill: none; stroke: #b0b0b0; stroke-width: 0.8; stroke-linecap: square"/>
     </g>
     <g id="text_8">
      <!-- 315° -->
      <g transform="translate(328.100545 281.27167) scale(0.1 -0.1)">
       <use xlink:href="#DejaVuSans-33"/>
       <use xlink:href="#DejaVuSans-31" x="63.623047"/>
       <use xlink:href="#DejaVuSans-35" x="127.246094"/>
       <use xlink:href="#DejaVuSans-b0" x="190.869141"/>
      </g>
     </g>
    </g>
   </g>
   <g id="matplotlib.axis_2">
    <g id="ytick_1">
     <g id="line2d_9">
      <path d="M 251.937078 174.528 
C 251.937078 172.456173 251.528973 170.404492 250.736119 168.490374 
C 249.943265 166.576255 248.781081 164.836924 247.316079 163.371921 
C 245.851076 161.906919 244.111745 160.744735 242.197626 159.951881 
C 240.283508 159.159027 238.231827 158.750922 236.16 158.750922 
C 234.088173 158.750922 232.036492 159.159027 230.122374 159.951881 
C 228.208255 160.744735 226.468924 161.906919 225.003921 163.371921 
C 223.538919 164.836924 222.376735 166.576255 221.583881 168.490374 
C 220.791027 170.404492 220.382922 172.456173 220.382922 174.528 
C 220.382922 176.599827 220.791027 178.651508 221.583881 180.565626 
C 222.376735 182.479745 223.538919 184.219076 225.003921 185.684079 
C 226.468924 187.149081 228.208255 188.311265 230.122374 189.104119 
C 232.036492 189.896973 234.088173 190.305078 236.16 190.305078 
C 238.231827 190.305078 240.283508 189.896973 242.197626 189.104119 
C 244.111745 188.311265 245.851076 187.149081 247.316079 185.684079 
C 248.781081 184.219076 249.943265 182.479745 250.736119 180.565626 
C 251.528973 178.651508 251.937078 176.599827 251.937078 174.528 
" clip-path="url(#p118abd5334)" style="fill: none; stroke: #b0b0b0; stroke-width: 0.8; stroke-linecap: square"/>
     </g>
     <g id="text_9">
      <!-- 0.005 -->
      <g transform="translate(250.736119 166.410686) scale(0.1 -0.1)">
       <defs>
        <path id="DejaVuSans-2e" d="M 684 794 
L 1344 794 
L 1344 0 
L 684 0 
L 684 794 
z
" transform="scale(0.015625)"/>
       </defs>
       <use xlink:href="#DejaVuSans-30"/>
       <use xlink:href="#DejaVuSans-2e" x="63.623047"/>
       <use xlink:href="#DejaVuSans-30" x="95.410156"/>
       <use xlink:href="#DejaVuSans-30" x="159.033203"/>
       <use xlink:href="#DejaVuSans-35" x="222.65625"/>
      </g>
     </g>
    </g>
    <g id="ytick_2">
     <g id="line2d_10">
      <path d="M 267.714156 174.528 
C 267.714156 170.384346 266.897946 166.280984 265.312238 162.452747 
C 263.726531 158.624511 261.402163 155.145848 258.472157 152.215843 
C 255.542152 149.285837 252.063489 146.961469 248.235253 145.375762 
C 244.407016 143.790054 240.303654 142.973844 236.16 142.973844 
C 232.016346 142.973844 227.912984 143.790054 224.084747 145.375762 
C 220.256511 146.961469 216.777848 149.285837 213.847843 152.215843 
C 210.917837 155.145848 208.593469 158.624511 207.007762 162.452747 
C 205.422054 166.280984 204.605844 170.384346 204.605844 174.528 
C 204.605844 178.671654 205.422054 182.775016 207.007762 186.603253 
C 208.593469 190.431489 210.917837 193.910152 213.847843 196.840157 
C 216.777848 199.770163 220.256511 202.094531 224.084747 203.680238 
C 227.912984 205.265946 232.016346 206.082156 236.16 206.082156 
C 240.303654 206.082156 244.407016 205.265946 248.235253 203.680238 
C 252.063489 202.094531 255.542152 199.770163 258.472157 196.840157 
C 261.402163 193.910152 263.726531 190.431489 265.312238 186.603253 
C 266.897946 182.775016 267.714156 178.671654 267.714156 174.528 
" clip-path="url(#p118abd5334)" style="fill: none; stroke: #b0b0b0; stroke-width: 0.8; stroke-linecap: square"/>
     </g>
     <g id="text_10">
      <!-- 0.010 -->
      <g transform="translate(265.312238 160.37306) scale(0.1 -0.1)">
       <use xlink:href="#DejaVuSans-30"/>
       <use xlink:href="#DejaVuSans-2e" x="63.623047"/>
       <use xlink:href="#DejaVuSans-30" x="95.410156"/>
       <use xlink:href="#DejaVuSans-31" x="159.033203"/>
       <use xlink:href="#DejaVuSans-30" x="222.65625"/>
      </g>
     </g>
    </g>
    <g id="ytick_3">
     <g id="line2d_11">
      <path d="M 283.491233 174.528 
C 283.491233 168.312519 282.266919 162.157477 279.888358 156.415121 
C 277.509796 150.672766 274.023244 145.454772 269.628236 141.059764 
C 265.233228 136.664756 260.015234 133.178204 254.272879 130.799642 
C 248.530523 128.421081 242.375481 127.196767 236.16 127.196767 
C 229.944519 127.196767 223.789477 128.421081 218.047121 130.799642 
C 212.304766 133.178204 207.086772 136.664756 202.691764 141.059764 
C 198.296756 145.454772 194.810204 150.672766 192.431642 156.415121 
C 190.053081 162.157477 188.828767 168.312519 188.828767 174.528 
C 188.828767 180.743481 190.053081 186.898523 192.431642 192.640879 
C 194.810204 198.383234 198.296756 203.601228 202.691764 207.996236 
C 207.086772 212.391244 212.304766 215.877796 218.047121 218.256358 
C 223.789477 220.634919 229.944519 221.859233 236.16 221.859233 
C 242.375481 221.859233 248.530523 220.634919 254.272879 218.256358 
C 260.015234 215.877796 265.233228 212.391244 269.628236 207.996236 
C 274.023244 203.601228 277.509796 198.383234 279.888358 192.640879 
C 282.266919 186.898523 283.491233 180.743481 283.491233 174.528 
" clip-path="url(#p118abd5334)" style="fill: none; stroke: #b0b0b0; stroke-width: 0.8; stroke-linecap: square"/>
     </g>
     <g id="text_11">
      <!-- 0.015 -->
      <g transform="translate(279.888358 154.335434) scale(0.1 -0.1)">
       <use xlink:href="#DejaVuSans-30"/>
       <use xlink:href="#DejaVuSans-2e" x="63.623047"/>
       <use xlink:href="#DejaVuSans-30" x="95.410156"/>
       <use xlink:href="#DejaVuSans-31" x="159.033203"/>
       <use xlink:href="#DejaVuSans-35" x="222.65625"/>
      </g>
     </g>
    </g>
    <g id="ytick_4">
     <g id="line2d_12">
      <path d="M 299.268311 174.528 
C 299.268311 166.240693 297.635892 158.033969 294.464477 150.377495 
C 291.293062 142.721021 286.644326 135.763697 280.784315 129.903685 
C 274.924303 124.043674 267.966979 119.394938 260.310505 116.223523 
C 252.654031 113.052108 244.447307 111.419689 236.16 111.419689 
C 227.872693 111.419689 219.665969 113.052108 212.009495 116.223523 
C 204.353021 119.394938 197.395697 124.043674 191.535685 129.903685 
C 185.675674 135.763697 181.026938 142.721021 177.855523 150.377495 
C 174.684108 158.033969 173.051689 166.240693 173.051689 174.528 
C 173.051689 182.815307 174.684108 191.022031 177.855523 198.678505 
C 181.026938 206.334979 185.675674 213.292303 191.535685 219.152315 
C 197.395697 225.012326 204.353021 229.661062 212.009495 232.832477 
C 219.665969 236.003892 227.872693 237.636311 236.16 237.636311 
C 244.447307 237.636311 252.654031 236.003892 260.310505 232.832477 
C 267.966979 229.661062 274.924303 225.012326 280.784315 219.152315 
C 286.644326 213.292303 291.293062 206.334979 294.464477 198.678505 
C 297.635892 191.022031 299.268311 182.815307 299.268311 174.528 
" clip-path="url(#p118abd5334)" style="fill: none; stroke: #b0b0b0; stroke-width: 0.8; stroke-linecap: square"/>
     </g>
     <g id="text_12">
      <!-- 0.020 -->
      <g transform="translate(294.464477 148.297807) scale(0.1 -0.1)">
       <use xlink:href="#DejaVuSans-30"/>
       <use xlink:href="#DejaVuSans-2e" x="63.623047"/>
       <use xlink:href="#DejaVuSans-30" x="95.410156"/>
       <use xlink:href="#DejaVuSans-32" x="159.033203"/>
       <use xlink:href="#DejaVuSans-30" x="222.65625"/>
      </g>
     </g>
    </g>
    <g id="ytick_5">
     <g id="line2d_13">
      <path d="M 315.045389 174.528 
C 315.045389 164.168866 313.004865 153.910461 309.040596 144.339869 
C 305.076327 134.769276 299.265407 126.072621 291.940393 118.747607 
C 284.615379 111.422593 275.918724 105.611673 266.348131 101.647404 
C 256.777539 97.683135 246.519134 95.642611 236.16 95.642611 
C 225.800866 95.642611 215.542461 97.683135 205.971869 101.647404 
C 196.401276 105.611673 187.704621 111.422593 180.379607 118.747607 
C 173.054593 126.072621 167.243673 134.769276 163.279404 144.339869 
C 159.315135 153.910461 157.274611 164.168866 157.274611 174.528 
C 157.274611 184.887134 159.315135 195.145539 163.279404 204.716131 
C 167.243673 214.286724 173.054593 222.983379 180.379607 230.308393 
C 187.704621 237.633407 196.401276 243.444327 205.971869 247.408596 
C 215.542461 251.372865 225.800866 253.413389 236.16 253.413389 
C 246.519134 253.413389 256.777539 251.372865 266.348131 247.408596 
C 275.918724 243.444327 284.615379 237.633407 291.940393 230.308393 
C 299.265407 222.983379 305.076327 214.286724 309.040596 204.716131 
C 313.004865 195.145539 315.045389 184.887134 315.045389 174.528 
" clip-path="url(#p118abd5334)" style="fill: none; stroke: #b0b0b0; stroke-width: 0.8; stroke-linecap: square"/>
     </g>
     <g id="text_13">
      <!-- 0.025 -->
      <g transform="translate(309.040596 142.260181) scale(0.1 -0.1)">
       <use xlink:href="#DejaVuSans-30"/>
       <use xlink:href="#DejaVuSans-2e" x="63.623047"/>
       <use xlink:href="#DejaVuSans-30" x="95.410156"/>
       <use xlink:href="#DejaVuSans-32" x="159.033203"/>
       <use xlink:href="#DejaVuSans-35" x="222.65625"/>
      </g>
     </g>
    </g>
    <g id="ytick_6">
     <g id="line2d_14">
      <path d="M 330.822467 174.528 
C 330.822467 162.097039 328.373838 149.786953 323.616715 138.302242 
C 318.859592 126.817532 311.886489 116.381545 303.096472 107.591528 
C 294.306455 98.801511 283.870468 91.828408 272.385758 87.071285 
C 260.901047 82.314162 248.590961 79.865533 236.16 79.865533 
C 223.729039 79.865533 211.418953 82.314162 199.934242 87.071285 
C 188.449532 91.828408 178.013545 98.801511 169.223528 107.591528 
C 160.433511 116.381545 153.460408 126.817532 148.703285 138.302242 
C 143.946162 149.786953 141.497533 162.097039 141.497533 174.528 
C 141.497533 186.958961 143.946162 199.269047 148.703285 210.753758 
C 153.460408 222.238468 160.433511 232.674455 169.223528 241.464472 
C 178.013545 250.254489 188.449532 257.227592 199.934242 261.984715 
C 211.418953 266.741838 223.729039 269.190467 236.16 269.190467 
C 248.590961 269.190467 260.901047 266.741838 272.385758 261.984715 
C 283.870468 257.227592 294.306455 250.254489 303.096472 241.464472 
C 311.886489 232.674455 318.859592 222.238468 323.616715 210.753758 
C 328.373838 199.269047 330.822467 186.958961 330.822467 174.528 
" clip-path="url(#p118abd5334)" style="fill: none; stroke: #b0b0b0; stroke-width: 0.8; stroke-linecap: square"/>
     </g>
     <g id="text_14">
      <!-- 0.030 -->
      <g transform="translate(323.616715 136.222555) scale(0.1 -0.1)">
       <use xlink:href="#DejaVuSans-30"/>
       <use xlink:href="#DejaVuSans-2e" x="63.623047"/>
       <use xlink:href="#DejaVuSans-30" x="95.410156"/>
       <use xlink:href="#DejaVuSans-33" x="159.033203"/>
       <use xlink:href="#DejaVuSans-30" x="222.65625"/>
      </g>
     </g>
    </g>
    <g id="ytick_7">
     <g id="line2d_15">
      <path d="M 346.599544 174.528 
C 346.599544 160.025212 343.742811 145.663445 338.192835 132.264616 
C 332.642858 118.865787 324.50757 106.690469 314.252551 96.435449 
C 303.997531 86.18043 291.822213 78.045142 278.423384 72.495165 
C 265.024555 66.945189 250.662788 64.088456 236.16 64.088456 
C 221.657212 64.088456 207.295445 66.945189 193.896616 72.495165 
C 180.497787 78.045142 168.322469 86.18043 158.067449 96.435449 
C 147.81243 106.690469 139.677142 118.865787 134.127165 132.264616 
C 128.577189 145.663445 125.720456 160.025212 125.720456 174.528 
C 125.720456 189.030788 128.577189 203.392555 134.127165 216.791384 
C 139.677142 230.190213 147.81243 242.365531 158.067449 252.620551 
C 168.322469 262.87557 180.497787 271.010858 193.896616 276.560835 
C 207.295445 282.110811 221.657212 284.967544 236.16 284.967544 
C 250.662788 284.967544 265.024555 282.110811 278.423384 276.560835 
C 291.822213 271.010858 303.997531 262.87557 314.252551 252.620551 
C 324.50757 242.365531 332.642858 230.190213 338.192835 216.791384 
C 343.742811 203.392555 346.599544 189.030788 346.599544 174.528 
" clip-path="url(#p118abd5334)" style="fill: none; stroke: #b0b0b0; stroke-width: 0.8; stroke-linecap: square"/>
     </g>
     <g id="text_15">
      <!-- 0.035 -->
      <g transform="translate(338.192835 130.184929) scale(0.1 -0.1)">
       <use xlink:href="#DejaVuSans-30"/>
       <use xlink:href="#DejaVuSans-2e" x="63.623047"/>
       <use xlink:href="#DejaVuSans-30" x="95.410156"/>
       <use xlink:href="#DejaVuSans-33" x="159.033203"/>
       <use xlink:href="#DejaVuSans-35" x="222.65625"/>
      </g>
     </g>
    </g>
    <g id="ytick_8">
     <g id="line2d_16">
      <path d="M 362.376622 174.528 
C 362.376622 157.953385 359.111784 141.539937 352.768954 126.22699 
C 346.426123 110.914042 337.128652 96.999393 325.408629 85.279371 
C 313.688607 73.559348 299.773958 64.261877 284.46101 57.919046 
C 269.148063 51.576216 252.734615 48.311378 236.16 48.311378 
C 219.585385 48.311378 203.171937 51.576216 187.85899 57.919046 
C 172.546042 64.261877 158.631393 73.559348 146.911371 85.279371 
C 135.191348 96.999393 125.893877 110.914042 119.551046 126.22699 
C 113.208216 141.539937 109.943378 157.953385 109.943378 174.528 
C 109.943378 191.102615 113.208216 207.516063 119.551046 222.82901 
C 125.893877 238.141958 135.191348 252.056607 146.911371 263.776629 
C 158.631393 275.496652 172.546042 284.794123 187.85899 291.136954 
C 203.171937 297.479784 219.585385 300.744622 236.16 300.744622 
C 252.734615 300.744622 269.148063 297.479784 284.46101 291.136954 
C 299.773958 284.794123 313.688607 275.496652 325.408629 263.776629 
C 337.128652 252.056607 346.426123 238.141958 352.768954 222.82901 
C 359.111784 207.516063 362.376622 191.102615 362.376622 174.528 
" clip-path="url(#p118abd5334)" style="fill: none; stroke: #b0b0b0; stroke-width: 0.8; stroke-linecap: square"/>
     </g>
     <g id="text_16">
      <!-- 0.040 -->
      <g transform="translate(352.768954 124.147302) scale(0.1 -0.1)">
       <use xlink:href="#DejaVuSans-30"/>
       <use xlink:href="#DejaVuSans-2e" x="63.623047"/>
       <use xlink:href="#DejaVuSans-30" x="95.410156"/>
       <use xlink:href="#DejaVuSans-34" x="159.033203"/>
       <use xlink:href="#DejaVuSans-30" x="222.65625"/>
      </g>
     </g>
    </g>
   </g>
   <g id="line2d_17">
    <path d="M 236.16 174.528 
L 301.96627 66.234449 
" clip-path="url(#p118abd5334)" style="fill: none; stroke-dasharray: 7.4,3.2; stroke-dashoffset: 0; stroke: #ff0000; stroke-width: 2"/>
   </g>
   <g id="patch_3">
    <path d="M 369.216 174.528 
C 369.216 157.055246 365.774248 139.752393 359.087715 123.609673 
C 352.401182 107.466954 342.599903 92.798303 330.2448 80.4432 
C 317.889697 68.088097 303.221046 58.286818 287.078327 51.600285 
C 270.935607 44.913752 253.632754 41.472 236.16 41.472 
C 218.687246 41.472 201.384393 44.913752 185.241673 51.600285 
C 169.098954 58.286818 154.430303 68.088097 142.0752 80.4432 
C 129.720097 92.798303 119.918818 107.466954 113.232285 123.609673 
C 106.545752 139.752393 103.104 157.055246 103.104 174.528 
C 103.104 192.000754 106.545752 209.303607 113.232285 225.446327 
C 119.918818 241.589046 129.720097 256.257697 142.0752 268.6128 
C 154.430303 280.967903 169.098954 290.769182 185.241673 297.455715 
C 201.384393 304.142248 218.687246 307.584 236.16 307.584 
C 253.632754 307.584 270.935607 304.142248 287.078327 297.455715 
C 303.221046 290.769182 317.889697 280.967903 330.2448 268.6128 
C 342.599903 256.257697 352.401182 241.589046 359.087715 225.446327 
C 365.774248 209.303607 369.216 192.000754 369.216 174.528 
" style="fill: none; stroke: #000000; stroke-width: 0.8; stroke-linejoin: miter; stroke-linecap: square"/>
   </g>
   <g id="text_17">
    <!-- Distribution of projected eye movement velocity on the screen - WT1_7_21 -->
    <g transform="translate(10.8525 13.803563) scale(0.12 -0.12)">
     <defs>
      <path id="DejaVuSans-44" d="M 1259 4147 
L 1259 519 
L 2022 519 
Q 2988 519 3436 956 
Q 3884 1394 3884 2338 
Q 3884 3275 3436 3711 
Q 2988 4147 2022 4147 
L 1259 4147 
z
M 628 4666 
L 1925 4666 
Q 3281 4666 3915 4102 
Q 4550 3538 4550 2338 
Q 4550 1131 3912 565 
Q 3275 0 1925 0 
L 628 0 
L 628 4666 
z
" transform="scale(0.015625)"/>
      <path id="DejaVuSans-69" d="M 603 3500 
L 1178 3500 
L 1178 0 
L 603 0 
L 603 3500 
z
M 603 4863 
L 1178 4863 
L 1178 4134 
L 603 4134 
L 603 4863 
z
" transform="scale(0.015625)"/>
      <path id="DejaVuSans-73" d="M 2834 3397 
L 2834 2853 
Q 2591 2978 2328 3040 
Q 2066 3103 1784 3103 
Q 1356 3103 1142 2972 
Q 928 2841 928 2578 
Q 928 2378 1081 2264 
Q 1234 2150 1697 2047 
L 1894 2003 
Q 2506 1872 2764 1633 
Q 3022 1394 3022 966 
Q 3022 478 2636 193 
Q 2250 -91 1575 -91 
Q 1294 -91 989 -36 
Q 684 19 347 128 
L 347 722 
Q 666 556 975 473 
Q 1284 391 1588 391 
Q 1994 391 2212 530 
Q 2431 669 2431 922 
Q 2431 1156 2273 1281 
Q 2116 1406 1581 1522 
L 1381 1569 
Q 847 1681 609 1914 
Q 372 2147 372 2553 
Q 372 3047 722 3315 
Q 1072 3584 1716 3584 
Q 2034 3584 2315 3537 
Q 2597 3491 2834 3397 
z
" transform="scale(0.015625)"/>
      <path id="DejaVuSans-74" d="M 1172 4494 
L 1172 3500 
L 2356 3500 
L 2356 3053 
L 1172 3053 
L 1172 1153 
Q 1172 725 1289 603 
Q 1406 481 1766 481 
L 2356 481 
L 2356 0 
L 1766 0 
Q 1100 0 847 248 
Q 594 497 594 1153 
L 594 3053 
L 172 3053 
L 172 3500 
L 594 3500 
L 594 4494 
L 1172 4494 
z
" transform="scale(0.015625)"/>
      <path id="DejaVuSans-72" d="M 2631 2963 
Q 2534 3019 2420 3045 
Q 2306 3072 2169 3072 
Q 1681 3072 1420 2755 
Q 1159 2438 1159 1844 
L 1159 0 
L 581 0 
L 581 3500 
L 1159 3500 
L 1159 2956 
Q 1341 3275 1631 3429 
Q 1922 3584 2338 3584 
Q 2397 3584 2469 3576 
Q 2541 3569 2628 3553 
L 2631 2963 
z
" transform="scale(0.015625)"/>
      <path id="DejaVuSans-62" d="M 3116 1747 
Q 3116 2381 2855 2742 
Q 2594 3103 2138 3103 
Q 1681 3103 1420 2742 
Q 1159 2381 1159 1747 
Q 1159 1113 1420 752 
Q 1681 391 2138 391 
Q 2594 391 2855 752 
Q 3116 1113 3116 1747 
z
M 1159 2969 
Q 1341 3281 1617 3432 
Q 1894 3584 2278 3584 
Q 2916 3584 3314 3078 
Q 3713 2572 3713 1747 
Q 3713 922 3314 415 
Q 2916 -91 2278 -91 
Q 1894 -91 1617 61 
Q 1341 213 1159 525 
L 1159 0 
L 581 0 
L 581 4863 
L 1159 4863 
L 1159 2969 
z
" transform="scale(0.015625)"/>
      <path id="DejaVuSans-75" d="M 544 1381 
L 544 3500 
L 1119 3500 
L 1119 1403 
Q 1119 906 1312 657 
Q 1506 409 1894 409 
Q 2359 409 2629 706 
Q 2900 1003 2900 1516 
L 2900 3500 
L 3475 3500 
L 3475 0 
L 2900 0 
L 2900 538 
Q 2691 219 2414 64 
Q 2138 -91 1772 -91 
Q 1169 -91 856 284 
Q 544 659 544 1381 
z
M 1991 3584 
L 1991 3584 
z
" transform="scale(0.015625)"/>
      <path id="DejaVuSans-6f" d="M 1959 3097 
Q 1497 3097 1228 2736 
Q 959 2375 959 1747 
Q 959 1119 1226 758 
Q 1494 397 1959 397 
Q 2419 397 2687 759 
Q 2956 1122 2956 1747 
Q 2956 2369 2687 2733 
Q 2419 3097 1959 3097 
z
M 1959 3584 
Q 2709 3584 3137 3096 
Q 3566 2609 3566 1747 
Q 3566 888 3137 398 
Q 2709 -91 1959 -91 
Q 1206 -91 779 398 
Q 353 888 353 1747 
Q 353 2609 779 3096 
Q 1206 3584 1959 3584 
z
" transform="scale(0.015625)"/>
      <path id="DejaVuSans-6e" d="M 3513 2113 
L 3513 0 
L 2938 0 
L 2938 2094 
Q 2938 2591 2744 2837 
Q 2550 3084 2163 3084 
Q 1697 3084 1428 2787 
Q 1159 2491 1159 1978 
L 1159 0 
L 581 0 
L 581 3500 
L 1159 3500 
L 1159 2956 
Q 1366 3272 1645 3428 
Q 1925 3584 2291 3584 
Q 2894 3584 3203 3211 
Q 3513 2838 3513 2113 
z
" transform="scale(0.015625)"/>
      <path id="DejaVuSans-20" transform="scale(0.015625)"/>
      <path id="DejaVuSans-66" d="M 2375 4863 
L 2375 4384 
L 1825 4384 
Q 1516 4384 1395 4259 
Q 1275 4134 1275 3809 
L 1275 3500 
L 2222 3500 
L 2222 3053 
L 1275 3053 
L 1275 0 
L 697 0 
L 697 3053 
L 147 3053 
L 147 3500 
L 697 3500 
L 697 3744 
Q 697 4328 969 4595 
Q 1241 4863 1831 4863 
L 2375 4863 
z
" transform="scale(0.015625)"/>
      <path id="DejaVuSans-70" d="M 1159 525 
L 1159 -1331 
L 581 -1331 
L 581 3500 
L 1159 3500 
L 1159 2969 
Q 1341 3281 1617 3432 
Q 1894 3584 2278 3584 
Q 2916 3584 3314 3078 
Q 3713 2572 3713 1747 
Q 3713 922 3314 415 
Q 2916 -91 2278 -91 
Q 1894 -91 1617 61 
Q 1341 213 1159 525 
z
M 3116 1747 
Q 3116 2381 2855 2742 
Q 2594 3103 2138 3103 
Q 1681 3103 1420 2742 
Q 1159 2381 1159 1747 
Q 1159 1113 1420 752 
Q 1681 391 2138 391 
Q 2594 391 2855 752 
Q 3116 1113 3116 1747 
z
" transform="scale(0.015625)"/>
      <path id="DejaVuSans-6a" d="M 603 3500 
L 1178 3500 
L 1178 -63 
Q 1178 -731 923 -1031 
Q 669 -1331 103 -1331 
L -116 -1331 
L -116 -844 
L 38 -844 
Q 366 -844 484 -692 
Q 603 -541 603 -63 
L 603 3500 
z
M 603 4863 
L 1178 4863 
L 1178 4134 
L 603 4134 
L 603 4863 
z
" transform="scale(0.015625)"/>
      <path id="DejaVuSans-65" d="M 3597 1894 
L 3597 1613 
L 953 1613 
Q 991 1019 1311 708 
Q 1631 397 2203 397 
Q 2534 397 2845 478 
Q 3156 559 3463 722 
L 3463 178 
Q 3153 47 2828 -22 
Q 2503 -91 2169 -91 
Q 1331 -91 842 396 
Q 353 884 353 1716 
Q 353 2575 817 3079 
Q 1281 3584 2069 3584 
Q 2775 3584 3186 3129 
Q 3597 2675 3597 1894 
z
M 3022 2063 
Q 3016 2534 2758 2815 
Q 2500 3097 2075 3097 
Q 1594 3097 1305 2825 
Q 1016 2553 972 2059 
L 3022 2063 
z
" transform="scale(0.015625)"/>
      <path id="DejaVuSans-63" d="M 3122 3366 
L 3122 2828 
Q 2878 2963 2633 3030 
Q 2388 3097 2138 3097 
Q 1578 3097 1268 2742 
Q 959 2388 959 1747 
Q 959 1106 1268 751 
Q 1578 397 2138 397 
Q 2388 397 2633 464 
Q 2878 531 3122 666 
L 3122 134 
Q 2881 22 2623 -34 
Q 2366 -91 2075 -91 
Q 1284 -91 818 406 
Q 353 903 353 1747 
Q 353 2603 823 3093 
Q 1294 3584 2113 3584 
Q 2378 3584 2631 3529 
Q 2884 3475 3122 3366 
z
" transform="scale(0.015625)"/>
      <path id="DejaVuSans-64" d="M 2906 2969 
L 2906 4863 
L 3481 4863 
L 3481 0 
L 2906 0 
L 2906 525 
Q 2725 213 2448 61 
Q 2172 -91 1784 -91 
Q 1150 -91 751 415 
Q 353 922 353 1747 
Q 353 2572 751 3078 
Q 1150 3584 1784 3584 
Q 2172 3584 2448 3432 
Q 2725 3281 2906 2969 
z
M 947 1747 
Q 947 1113 1208 752 
Q 1469 391 1925 391 
Q 2381 391 2643 752 
Q 2906 1113 2906 1747 
Q 2906 2381 2643 2742 
Q 2381 3103 1925 3103 
Q 1469 3103 1208 2742 
Q 947 2381 947 1747 
z
" transform="scale(0.015625)"/>
      <path id="DejaVuSans-79" d="M 2059 -325 
Q 1816 -950 1584 -1140 
Q 1353 -1331 966 -1331 
L 506 -1331 
L 506 -850 
L 844 -850 
Q 1081 -850 1212 -737 
Q 1344 -625 1503 -206 
L 1606 56 
L 191 3500 
L 800 3500 
L 1894 763 
L 2988 3500 
L 3597 3500 
L 2059 -325 
z
" transform="scale(0.015625)"/>
      <path id="DejaVuSans-6d" d="M 3328 2828 
Q 3544 3216 3844 3400 
Q 4144 3584 4550 3584 
Q 5097 3584 5394 3201 
Q 5691 2819 5691 2113 
L 5691 0 
L 5113 0 
L 5113 2094 
Q 5113 2597 4934 2840 
Q 4756 3084 4391 3084 
Q 3944 3084 3684 2787 
Q 3425 2491 3425 1978 
L 3425 0 
L 2847 0 
L 2847 2094 
Q 2847 2600 2669 2842 
Q 2491 3084 2119 3084 
Q 1678 3084 1418 2786 
Q 1159 2488 1159 1978 
L 1159 0 
L 581 0 
L 581 3500 
L 1159 3500 
L 1159 2956 
Q 1356 3278 1631 3431 
Q 1906 3584 2284 3584 
Q 2666 3584 2933 3390 
Q 3200 3197 3328 2828 
z
" transform="scale(0.015625)"/>
      <path id="DejaVuSans-76" d="M 191 3500 
L 800 3500 
L 1894 563 
L 2988 3500 
L 3597 3500 
L 2284 0 
L 1503 0 
L 191 3500 
z
" transform="scale(0.015625)"/>
      <path id="DejaVuSans-6c" d="M 603 4863 
L 1178 4863 
L 1178 0 
L 603 0 
L 603 4863 
z
" transform="scale(0.015625)"/>
      <path id="DejaVuSans-68" d="M 3513 2113 
L 3513 0 
L 2938 0 
L 2938 2094 
Q 2938 2591 2744 2837 
Q 2550 3084 2163 3084 
Q 1697 3084 1428 2787 
Q 1159 2491 1159 1978 
L 1159 0 
L 581 0 
L 581 4863 
L 1159 4863 
L 1159 2956 
Q 1366 3272 1645 3428 
Q 1925 3584 2291 3584 
Q 2894 3584 3203 3211 
Q 3513 2838 3513 2113 
z
" transform="scale(0.015625)"/>
      <path id="DejaVuSans-2d" d="M 313 2009 
L 1997 2009 
L 1997 1497 
L 313 1497 
L 313 2009 
z
" transform="scale(0.015625)"/>
      <path id="DejaVuSans-57" d="M 213 4666 
L 850 4666 
L 1831 722 
L 2809 4666 
L 3519 4666 
L 4500 722 
L 5478 4666 
L 6119 4666 
L 4947 0 
L 4153 0 
L 3169 4050 
L 2175 0 
L 1381 0 
L 213 4666 
z
" transform="scale(0.015625)"/>
      <path id="DejaVuSans-54" d="M -19 4666 
L 3928 4666 
L 3928 4134 
L 2272 4134 
L 2272 0 
L 1638 0 
L 1638 4134 
L -19 4134 
L -19 4666 
z
" transform="scale(0.015625)"/>
      <path id="DejaVuSans-5f" d="M 3263 -1063 
L 3263 -1509 
L -63 -1509 
L -63 -1063 
L 3263 -1063 
z
" transform="scale(0.015625)"/>
     </defs>
     <use xlink:href="#DejaVuSans-44"/>
     <use xlink:href="#DejaVuSans-69" x="77.001953"/>
     <use xlink:href="#DejaVuSans-73" x="104.785156"/>
     <use xlink:href="#DejaVuSans-74" x="156.884766"/>
     <use xlink:href="#DejaVuSans-72" x="196.09375"/>
     <use xlink:href="#DejaVuSans-69" x="237.207031"/>
     <use xlink:href="#DejaVuSans-62" x="264.990234"/>
     <use xlink:href="#DejaVuSans-75" x="328.466797"/>
     <use xlink:href="#DejaVuSans-74" x="391.845703"/>
     <use xlink:href="#DejaVuSans-69" x="431.054688"/>
     <use xlink:href="#DejaVuSans-6f" x="458.837891"/>
     <use xlink:href="#DejaVuSans-6e" x="520.019531"/>
     <use xlink:href="#DejaVuSans-20" x="583.398438"/>
     <use xlink:href="#DejaVuSans-6f" x="615.185547"/>
     <use xlink:href="#DejaVuSans-66" x="676.367188"/>
     <use xlink:href="#DejaVuSans-20" x="711.572266"/>
     <use xlink:href="#DejaVuSans-70" x="743.359375"/>
     <use xlink:href="#DejaVuSans-72" x="806.835938"/>
     <use xlink:href="#DejaVuSans-6f" x="845.699219"/>
     <use xlink:href="#DejaVuSans-6a" x="906.880859"/>
     <use xlink:href="#DejaVuSans-65" x="934.664062"/>
     <use xlink:href="#DejaVuSans-63" x="996.1875"/>
     <use xlink:href="#DejaVuSans-74" x="1051.167969"/>
     <use xlink:href="#DejaVuSans-65" x="1090.376953"/>
     <use xlink:href="#DejaVuSans-64" x="1151.900391"/>
     <use xlink:href="#DejaVuSans-20" x="1215.376953"/>
     <use xlink:href="#DejaVuSans-65" x="1247.164062"/>
     <use xlink:href="#DejaVuSans-79" x="1308.6875"/>
     <use xlink:href="#DejaVuSans-65" x="1367.867188"/>
     <use xlink:href="#DejaVuSans-20" x="1429.390625"/>
     <use xlink:href="#DejaVuSans-6d" x="1461.177734"/>
     <use xlink:href="#DejaVuSans-6f" x="1558.589844"/>
     <use xlink:href="#DejaVuSans-76" x="1619.771484"/>
     <use xlink:href="#DejaVuSans-65" x="1678.951172"/>
     <use xlink:href="#DejaVuSans-6d" x="1740.474609"/>
     <use xlink:href="#DejaVuSans-65" x="1837.886719"/>
     <use xlink:href="#DejaVuSans-6e" x="1899.410156"/>
     <use xlink:href="#DejaVuSans-74" x="1962.789062"/>
     <use xlink:href="#DejaVuSans-20" x="2001.998047"/>
     <use xlink:href="#DejaVuSans-76" x="2033.785156"/>
     <use xlink:href="#DejaVuSans-65" x="2092.964844"/>
     <use xlink:href="#DejaVuSans-6c" x="2154.488281"/>
     <use xlink:href="#DejaVuSans-6f" x="2182.271484"/>
     <use xlink:href="#DejaVuSans-63" x="2243.453125"/>
     <use xlink:href="#DejaVuSans-69" x="2298.433594"/>
     <use xlink:href="#DejaVuSans-74" x="2326.216797"/>
     <use xlink:href="#DejaVuSans-79" x="2365.425781"/>
     <use xlink:href="#DejaVuSans-20" x="2424.605469"/>
     <use xlink:href="#DejaVuSans-6f" x="2456.392578"/>
     <use xlink:href="#DejaVuSans-6e" x="2517.574219"/>
     <use xlink:href="#DejaVuSans-20" x="2580.953125"/>
     <use xlink:href="#DejaVuSans-74" x="2612.740234"/>
     <use xlink:href="#DejaVuSans-68" x="2651.949219"/>
     <use xlink:href="#DejaVuSans-65" x="2715.328125"/>
     <use xlink:href="#DejaVuSans-20" x="2776.851562"/>
     <use xlink:href="#DejaVuSans-73" x="2808.638672"/>
     <use xlink:href="#DejaVuSans-63" x="2860.738281"/>
     <use xlink:href="#DejaVuSans-72" x="2915.71875"/>
     <use xlink:href="#DejaVuSans-65" x="2954.582031"/>
     <use xlink:href="#DejaVuSans-65" x="3016.105469"/>
     <use xlink:href="#DejaVuSans-6e" x="3077.628906"/>
     <use xlink:href="#DejaVuSans-20" x="3141.007812"/>
     <use xlink:href="#DejaVuSans-2d" x="3172.794922"/>
     <use xlink:href="#DejaVuSans-20" x="3208.878906"/>
     <use xlink:href="#DejaVuSans-57" x="3240.666016"/>
     <use xlink:href="#DejaVuSans-54" x="3339.542969"/>
     <use xlink:href="#DejaVuSans-31" x="3400.626953"/>
     <use xlink:href="#DejaVuSans-5f" x="3464.25"/>
     <use xlink:href="#DejaVuSans-37" x="3514.25"/>
     <use xlink:href="#DejaVuSans-5f" x="3577.873047"/>
     <use xlink:href="#DejaVuSans-32" x="3627.873047"/>
     <use xlink:href="#DejaVuSans-31" x="3691.496094"/>
    </g>
   </g>
   <g id="legend_1">
    <g id="patch_4">
     <path d="M 125.938125 108.1845 
L 346.381875 108.1845 
Q 348.381875 108.1845 348.381875 106.1845 
L 348.381875 48.472 
Q 348.381875 46.472 346.381875 46.472 
L 125.938125 46.472 
Q 123.938125 46.472 123.938125 48.472 
L 123.938125 106.1845 
Q 123.938125 108.1845 125.938125 108.1845 
z
" style="fill: #ffffff; opacity: 0.8; stroke: #cccccc; stroke-linejoin: miter"/>
    </g>
    <g id="PathCollection_4">
     <g>
      <use xlink:href="#m6d442df347" x="137.938125" y="55.445438" style="fill: #1f77b4; stroke: #1f77b4"/>
     </g>
    </g>
    <g id="text_18">
     <!-- $-0.5 &lt; t &lt; 0.$ -->
     <g transform="translate(155.938125 58.070438) scale(0.1 -0.1)">
      <defs>
       <path id="DejaVuSans-2212" d="M 678 2272 
L 4684 2272 
L 4684 1741 
L 678 1741 
L 678 2272 
z
" transform="scale(0.015625)"/>
       <path id="DejaVuSans-3c" d="M 4684 3150 
L 1459 2003 
L 4684 863 
L 4684 294 
L 678 1747 
L 678 2266 
L 4684 3719 
L 4684 3150 
z
" transform="scale(0.015625)"/>
       <path id="DejaVuSans-Oblique-74" d="M 2706 3500 
L 2619 3053 
L 1472 3053 
L 1100 1153 
Q 1081 1047 1072 975 
Q 1063 903 1063 863 
Q 1063 663 1183 572 
Q 1303 481 1569 481 
L 2150 481 
L 2053 0 
L 1503 0 
Q 991 0 739 200 
Q 488 400 488 806 
Q 488 878 497 964 
Q 506 1050 525 1153 
L 897 3053 
L 409 3053 
L 500 3500 
L 978 3500 
L 1172 4494 
L 1747 4494 
L 1556 3500 
L 2706 3500 
z
" transform="scale(0.015625)"/>
      </defs>
      <use xlink:href="#DejaVuSans-2212" transform="translate(0 0.78125)"/>
      <use xlink:href="#DejaVuSans-30" transform="translate(83.789062 0.78125)"/>
      <use xlink:href="#DejaVuSans-2e" transform="translate(147.412109 0.78125)"/>
      <use xlink:href="#DejaVuSans-35" transform="translate(179.199219 0.78125)"/>
      <use xlink:href="#DejaVuSans-3c" transform="translate(262.304688 0.78125)"/>
      <use xlink:href="#DejaVuSans-Oblique-74" transform="translate(365.576172 0.78125)"/>
      <use xlink:href="#DejaVuSans-3c" transform="translate(424.267578 0.78125)"/>
      <use xlink:href="#DejaVuSans-30" transform="translate(527.539062 0.78125)"/>
      <use xlink:href="#DejaVuSans-2e" transform="translate(591.162109 0.78125)"/>
     </g>
    </g>
    <g id="PathCollection_5">
     <g>
      <use xlink:href="#m451c7c23bf" x="137.938125" y="70.123563" style="fill: #ff7f0e; stroke: #ff7f0e"/>
     </g>
    </g>
    <g id="text_19">
     <!-- $0. &lt; t &lt; 0.5$ -->
     <g transform="translate(155.938125 72.748563) scale(0.1 -0.1)">
      <use xlink:href="#DejaVuSans-30" transform="translate(0 0.78125)"/>
      <use xlink:href="#DejaVuSans-2e" transform="translate(63.623047 0.78125)"/>
      <use xlink:href="#DejaVuSans-3c" transform="translate(134.375 0.78125)"/>
      <use xlink:href="#DejaVuSans-Oblique-74" transform="translate(237.646484 0.78125)"/>
      <use xlink:href="#DejaVuSans-3c" transform="translate(296.337891 0.78125)"/>
      <use xlink:href="#DejaVuSans-30" transform="translate(399.609375 0.78125)"/>
      <use xlink:href="#DejaVuSans-2e" transform="translate(463.232422 0.78125)"/>
      <use xlink:href="#DejaVuSans-35" transform="translate(495.019531 0.78125)"/>
     </g>
    </g>
    <g id="PathCollection_6">
     <g>
      <use xlink:href="#m357a21273c" x="137.938125" y="84.801688" style="fill: #2ca02c; stroke: #2ca02c"/>
     </g>
    </g>
    <g id="text_20">
     <!-- $0.5 &lt; t &lt; 1.$ -->
     <g transform="translate(155.938125 87.426688) scale(0.1 -0.1)">
      <use xlink:href="#DejaVuSans-30" transform="translate(0 0.78125)"/>
      <use xlink:href="#DejaVuSans-2e" transform="translate(63.623047 0.78125)"/>
      <use xlink:href="#DejaVuSans-35" transform="translate(95.410156 0.78125)"/>
      <use xlink:href="#DejaVuSans-3c" transform="translate(178.515625 0.78125)"/>
      <use xlink:href="#DejaVuSans-Oblique-74" transform="translate(281.787109 0.78125)"/>
      <use xlink:href="#DejaVuSans-3c" transform="translate(340.478516 0.78125)"/>
      <use xlink:href="#DejaVuSans-31" transform="translate(443.75 0.78125)"/>
      <use xlink:href="#DejaVuSans-2e" transform="translate(507.373047 0.78125)"/>
     </g>
    </g>
    <g id="line2d_18">
     <path d="M 127.938125 98.604813 
L 137.938125 98.604813 
L 147.938125 98.604813 
" style="fill: none; stroke-dasharray: 7.4,3.2; stroke-dashoffset: 0; stroke: #ff0000; stroke-width: 2"/>
    </g>
    <g id="text_21">
     <!-- Average angle in dark: 58.71 degrees -->
     <g transform="translate(155.938125 102.104813) scale(0.1 -0.1)">
      <defs>
       <path id="DejaVuSans-41" d="M 2188 4044 
L 1331 1722 
L 3047 1722 
L 2188 4044 
z
M 1831 4666 
L 2547 4666 
L 4325 0 
L 3669 0 
L 3244 1197 
L 1141 1197 
L 716 0 
L 50 0 
L 1831 4666 
z
" transform="scale(0.015625)"/>
       <path id="DejaVuSans-61" d="M 2194 1759 
Q 1497 1759 1228 1600 
Q 959 1441 959 1056 
Q 959 750 1161 570 
Q 1363 391 1709 391 
Q 2188 391 2477 730 
Q 2766 1069 2766 1631 
L 2766 1759 
L 2194 1759 
z
M 3341 1997 
L 3341 0 
L 2766 0 
L 2766 531 
Q 2569 213 2275 61 
Q 1981 -91 1556 -91 
Q 1019 -91 701 211 
Q 384 513 384 1019 
Q 384 1609 779 1909 
Q 1175 2209 1959 2209 
L 2766 2209 
L 2766 2266 
Q 2766 2663 2505 2880 
Q 2244 3097 1772 3097 
Q 1472 3097 1187 3025 
Q 903 2953 641 2809 
L 641 3341 
Q 956 3463 1253 3523 
Q 1550 3584 1831 3584 
Q 2591 3584 2966 3190 
Q 3341 2797 3341 1997 
z
" transform="scale(0.015625)"/>
       <path id="DejaVuSans-67" d="M 2906 1791 
Q 2906 2416 2648 2759 
Q 2391 3103 1925 3103 
Q 1463 3103 1205 2759 
Q 947 2416 947 1791 
Q 947 1169 1205 825 
Q 1463 481 1925 481 
Q 2391 481 2648 825 
Q 2906 1169 2906 1791 
z
M 3481 434 
Q 3481 -459 3084 -895 
Q 2688 -1331 1869 -1331 
Q 1566 -1331 1297 -1286 
Q 1028 -1241 775 -1147 
L 775 -588 
Q 1028 -725 1275 -790 
Q 1522 -856 1778 -856 
Q 2344 -856 2625 -561 
Q 2906 -266 2906 331 
L 2906 616 
Q 2728 306 2450 153 
Q 2172 0 1784 0 
Q 1141 0 747 490 
Q 353 981 353 1791 
Q 353 2603 747 3093 
Q 1141 3584 1784 3584 
Q 2172 3584 2450 3431 
Q 2728 3278 2906 2969 
L 2906 3500 
L 3481 3500 
L 3481 434 
z
" transform="scale(0.015625)"/>
       <path id="DejaVuSans-6b" d="M 581 4863 
L 1159 4863 
L 1159 1991 
L 2875 3500 
L 3609 3500 
L 1753 1863 
L 3688 0 
L 2938 0 
L 1159 1709 
L 1159 0 
L 581 0 
L 581 4863 
z
" transform="scale(0.015625)"/>
       <path id="DejaVuSans-3a" d="M 750 794 
L 1409 794 
L 1409 0 
L 750 0 
L 750 794 
z
M 750 3309 
L 1409 3309 
L 1409 2516 
L 750 2516 
L 750 3309 
z
" transform="scale(0.015625)"/>
      </defs>
      <use xlink:href="#DejaVuSans-41"/>
      <use xlink:href="#DejaVuSans-76" x="62.533203"/>
      <use xlink:href="#DejaVuSans-65" x="121.712891"/>
      <use xlink:href="#DejaVuSans-72" x="183.236328"/>
      <use xlink:href="#DejaVuSans-61" x="224.349609"/>
      <use xlink:href="#DejaVuSans-67" x="285.628906"/>
      <use xlink:href="#DejaVuSans-65" x="349.105469"/>
      <use xlink:href="#DejaVuSans-20" x="410.628906"/>
      <use xlink:href="#DejaVuSans-61" x="442.416016"/>
      <use xlink:href="#DejaVuSans-6e" x="503.695312"/>
      <use xlink:href="#DejaVuSans-67" x="567.074219"/>
      <use xlink:href="#DejaVuSans-6c" x="630.550781"/>
      <use xlink:href="#DejaVuSans-65" x="658.333984"/>
      <use xlink:href="#DejaVuSans-20" x="719.857422"/>
      <use xlink:href="#DejaVuSans-69" x="751.644531"/>
      <use xlink:href="#DejaVuSans-6e" x="779.427734"/>
      <use xlink:href="#DejaVuSans-20" x="842.806641"/>
      <use xlink:href="#DejaVuSans-64" x="874.59375"/>
      <use xlink:href="#DejaVuSans-61" x="938.070312"/>
      <use xlink:href="#DejaVuSans-72" x="999.349609"/>
      <use xlink:href="#DejaVuSans-6b" x="1040.462891"/>
      <use xlink:href="#DejaVuSans-3a" x="1098.373047"/>
      <use xlink:href="#DejaVuSans-20" x="1132.064453"/>
      <use xlink:href="#DejaVuSans-35" x="1163.851562"/>
      <use xlink:href="#DejaVuSans-38" x="1227.474609"/>
      <use xlink:href="#DejaVuSans-2e" x="1291.097656"/>
      <use xlink:href="#DejaVuSans-37" x="1322.884766"/>
      <use xlink:href="#DejaVuSans-31" x="1386.507812"/>
      <use xlink:href="#DejaVuSans-20" x="1450.130859"/>
      <use xlink:href="#DejaVuSans-64" x="1481.917969"/>
      <use xlink:href="#DejaVuSans-65" x="1545.394531"/>
      <use xlink:href="#DejaVuSans-67" x="1606.917969"/>
      <use xlink:href="#DejaVuSans-72" x="1670.394531"/>
      <use xlink:href="#DejaVuSans-65" x="1709.257812"/>
      <use xlink:href="#DejaVuSans-65" x="1770.78125"/>
      <use xlink:href="#DejaVuSans-73" x="1832.304688"/>
     </g>
    </g>
   </g>
  </g>
 </g>
 <defs>
  <clipPath id="p118abd5334">
   <path d="M 369.216 174.528 
C 369.216 157.055246 365.774248 139.752393 359.087715 123.609673 
C 352.401182 107.466954 342.599903 92.798303 330.2448 80.4432 
C 317.889697 68.088097 303.221046 58.286818 287.078327 51.600285 
C 270.935607 44.913752 253.632754 41.472 236.16 41.472 
C 218.687246 41.472 201.384393 44.913752 185.241673 51.600285 
C 169.098954 58.286818 154.430303 68.088097 142.0752 80.4432 
C 129.720097 92.798303 119.918818 107.466954 113.232285 123.609673 
C 106.545752 139.752393 103.104 157.055246 103.104 174.528 
C 103.104 192.000754 106.545752 209.303607 113.232285 225.446327 
C 119.918818 241.589046 129.720097 256.257697 142.0752 268.6128 
C 154.430303 280.967903 169.098954 290.769182 185.241673 297.455715 
C 201.384393 304.142248 218.687246 307.584 236.16 307.584 
C 253.632754 307.584 270.935607 304.142248 287.078327 297.455715 
C 303.221046 290.769182 317.889697 280.967903 330.2448 268.6128 
C 342.599903 256.257697 352.401182 241.589046 359.087715 225.446327 
C 365.774248 209.303607 369.216 192.000754 369.216 174.528 
M 236.16 174.528 
C 236.16 174.528 236.16 174.528 236.16 174.528 
C 236.16 174.528 236.16 174.528 236.16 174.528 
C 236.16 174.528 236.16 174.528 236.16 174.528 
C 236.16 174.528 236.16 174.528 236.16 174.528 
C 236.16 174.528 236.16 174.528 236.16 174.528 
C 236.16 174.528 236.16 174.528 236.16 174.528 
C 236.16 174.528 236.16 174.528 236.16 174.528 
C 236.16 174.528 236.16 174.528 236.16 174.528 
C 236.16 174.528 236.16 174.528 236.16 174.528 
C 236.16 174.528 236.16 174.528 236.16 174.528 
C 236.16 174.528 236.16 174.528 236.16 174.528 
C 236.16 174.528 236.16 174.528 236.16 174.528 
C 236.16 174.528 236.16 174.528 236.16 174.528 
C 236.16 174.528 236.16 174.528 236.16 174.528 
C 236.16 174.528 236.16 174.528 236.16 174.528 
C 236.16 174.528 236.16 174.528 236.16 174.528 
z
"/>
  </clipPath>
 </defs>
</svg>
