<?xml version="1.0" encoding="utf-8" standalone="no"?>
<!DOCTYPE svg PUBLIC "-//W3C//DTD SVG 1.1//EN"
  "http://www.w3.org/Graphics/SVG/1.1/DTD/svg11.dtd">
<svg xmlns:xlink="http://www.w3.org/1999/xlink" width="576pt" height="396pt" viewBox="0 0 576 396" xmlns="http://www.w3.org/2000/svg" version="1.1">
 <metadata>
  <rdf:RDF xmlns:dc="http://purl.org/dc/elements/1.1/" xmlns:cc="http://creativecommons.org/ns#" xmlns:rdf="http://www.w3.org/1999/02/22-rdf-syntax-ns#">
   <cc:Work>
    <dc:type rdf:resource="http://purl.org/dc/dcmitype/StillImage"/>
    <dc:date>2022-03-14T13:33:10.904539</dc:date>
    <dc:format>image/svg+xml</dc:format>
    <dc:creator>
     <cc:Agent>
      <dc:title>Matplotlib v3.5.1, https://matplotlib.org/</dc:title>
     </cc:Agent>
    </dc:creator>
   </cc:Work>
  </rdf:RDF>
 </metadata>
 <defs>
  <style type="text/css">*{stroke-linejoin: round; stroke-linecap: butt}</style>
 </defs>
 <g id="figure_1">
  <g id="patch_1">
   <path d="M 0 396 
L 576 396 
L 576 0 
L 0 0 
z
" style="fill: #ffffff"/>
  </g>
  <g id="axes_1">
   <g id="patch_2">
    <path d="M 447.66 199.98 
C 447.66 179.959136 443.716326 160.13295 436.054674 141.636084 
C 428.393021 123.139218 417.162388 106.331389 403.0055 92.1745 
C 388.848611 78.017612 372.040782 66.786979 353.543916 59.125326 
C 335.04705 51.463674 315.220864 47.52 295.2 47.52 
C 275.179136 47.52 255.35295 51.463674 236.856084 59.125326 
C 218.359218 66.786979 201.551389 78.017612 187.3945 92.1745 
C 173.237612 106.331389 162.006979 123.139218 154.345326 141.636084 
C 146.683674 160.13295 142.74 179.959136 142.74 199.98 
C 142.74 220.000864 146.683674 239.82705 154.345326 258.323916 
C 162.006979 276.820782 173.237612 293.628611 187.3945 307.7855 
C 201.551389 321.942388 218.359218 333.173021 236.856084 340.834674 
C 255.35295 348.496326 275.179136 352.44 295.2 352.44 
C 315.220864 352.44 335.04705 348.496326 353.543916 340.834674 
C 372.040782 333.173021 388.848611 321.942388 403.0055 307.7855 
C 417.162388 293.628611 428.393021 276.820782 436.054674 258.323916 
C 443.716326 239.82705 447.66 220.000864 447.66 199.98 
M 295.2 199.98 
C 295.2 199.98 295.2 199.98 295.2 199.98 
C 295.2 199.98 295.2 199.98 295.2 199.98 
C 295.2 199.98 295.2 199.98 295.2 199.98 
C 295.2 199.98 295.2 199.98 295.2 199.98 
C 295.2 199.98 295.2 199.98 295.2 199.98 
C 295.2 199.98 295.2 199.98 295.2 199.98 
C 295.2 199.98 295.2 199.98 295.2 199.98 
C 295.2 199.98 295.2 199.98 295.2 199.98 
C 295.2 199.98 295.2 199.98 295.2 199.98 
C 295.2 199.98 295.2 199.98 295.2 199.98 
C 295.2 199.98 295.2 199.98 295.2 199.98 
C 295.2 199.98 295.2 199.98 295.2 199.98 
C 295.2 199.98 295.2 199.98 295.2 199.98 
C 295.2 199.98 295.2 199.98 295.2 199.98 
C 295.2 199.98 295.2 199.98 295.2 199.98 
C 295.2 199.98 295.2 199.98 295.2 199.98 
M 447.66 199.98 
z
" style="fill: #eaeaf2"/>
   </g>
   <g id="matplotlib.axis_1">
    <g id="xtick_1">
     <g id="line2d_1">
      <path d="M 295.2 199.98 
L 447.66 199.98 
" clip-path="url(#p646a459f7b)" style="fill: none; stroke: #ffffff; stroke-linecap: round"/>
     </g>
     <g id="text_1">
      <!-- 0° -->
      <g style="fill: #262626" transform="translate(456.880313 202.565156)scale(0.1 -0.1)">
       <defs>
        <path id="ArialMT-30" d="M 266 2259 
Q 266 3072 433 3567 
Q 600 4063 929 4331 
Q 1259 4600 1759 4600 
Q 2128 4600 2406 4451 
Q 2684 4303 2865 4023 
Q 3047 3744 3150 3342 
Q 3253 2941 3253 2259 
Q 3253 1453 3087 958 
Q 2922 463 2592 192 
Q 2263 -78 1759 -78 
Q 1097 -78 719 397 
Q 266 969 266 2259 
z
M 844 2259 
Q 844 1131 1108 757 
Q 1372 384 1759 384 
Q 2147 384 2411 759 
Q 2675 1134 2675 2259 
Q 2675 3391 2411 3762 
Q 2147 4134 1753 4134 
Q 1366 4134 1134 3806 
Q 844 3388 844 2259 
z
" transform="scale(0.015625)"/>
        <path id="ArialMT-b0" d="M 400 3794 
Q 400 4153 654 4406 
Q 909 4659 1266 4659 
Q 1628 4659 1881 4406 
Q 2134 4153 2134 3794 
Q 2134 3434 1879 3179 
Q 1625 2925 1266 2925 
Q 909 2925 654 3178 
Q 400 3431 400 3794 
z
M 741 3794 
Q 741 3575 895 3420 
Q 1050 3266 1269 3266 
Q 1484 3266 1639 3420 
Q 1794 3575 1794 3794 
Q 1794 4013 1639 4167 
Q 1484 4322 1269 4322 
Q 1050 4322 895 4167 
Q 741 4013 741 3794 
z
" transform="scale(0.015625)"/>
       </defs>
       <use xlink:href="#ArialMT-30"/>
       <use xlink:href="#ArialMT-b0" x="55.615234"/>
      </g>
     </g>
    </g>
    <g id="xtick_2">
     <g id="line2d_2">
      <path d="M 295.2 199.98 
L 403.0055 92.1745 
" clip-path="url(#p646a459f7b)" style="fill: none; stroke: #ffffff; stroke-linecap: round"/>
     </g>
     <g id="text_2">
      <!-- 45° -->
      <g style="fill: #262626" transform="translate(405.344839 84.860161)scale(0.1 -0.1)">
       <defs>
        <path id="ArialMT-34" d="M 2069 0 
L 2069 1097 
L 81 1097 
L 81 1613 
L 2172 4581 
L 2631 4581 
L 2631 1613 
L 3250 1613 
L 3250 1097 
L 2631 1097 
L 2631 0 
L 2069 0 
z
M 2069 1613 
L 2069 3678 
L 634 1613 
L 2069 1613 
z
" transform="scale(0.015625)"/>
        <path id="ArialMT-35" d="M 266 1200 
L 856 1250 
Q 922 819 1161 601 
Q 1400 384 1738 384 
Q 2144 384 2425 690 
Q 2706 997 2706 1503 
Q 2706 1984 2436 2262 
Q 2166 2541 1728 2541 
Q 1456 2541 1237 2417 
Q 1019 2294 894 2097 
L 366 2166 
L 809 4519 
L 3088 4519 
L 3088 3981 
L 1259 3981 
L 1013 2750 
Q 1425 3038 1878 3038 
Q 2478 3038 2890 2622 
Q 3303 2206 3303 1553 
Q 3303 931 2941 478 
Q 2500 -78 1738 -78 
Q 1113 -78 717 272 
Q 322 622 266 1200 
z
" transform="scale(0.015625)"/>
       </defs>
       <use xlink:href="#ArialMT-34"/>
       <use xlink:href="#ArialMT-35" x="55.615234"/>
       <use xlink:href="#ArialMT-b0" x="111.230469"/>
      </g>
     </g>
    </g>
    <g id="xtick_3">
     <g id="line2d_3">
      <path d="M 295.2 199.98 
L 295.2 47.52 
" clip-path="url(#p646a459f7b)" style="fill: none; stroke: #ffffff; stroke-linecap: round"/>
     </g>
     <g id="text_3">
      <!-- 90° -->
      <g style="fill: #262626" transform="translate(287.639844 36.105156)scale(0.1 -0.1)">
       <defs>
        <path id="ArialMT-39" d="M 350 1059 
L 891 1109 
Q 959 728 1153 556 
Q 1347 384 1650 384 
Q 1909 384 2104 503 
Q 2300 622 2425 820 
Q 2550 1019 2634 1356 
Q 2719 1694 2719 2044 
Q 2719 2081 2716 2156 
Q 2547 1888 2255 1720 
Q 1963 1553 1622 1553 
Q 1053 1553 659 1965 
Q 266 2378 266 3053 
Q 266 3750 677 4175 
Q 1088 4600 1706 4600 
Q 2153 4600 2523 4359 
Q 2894 4119 3086 3673 
Q 3278 3228 3278 2384 
Q 3278 1506 3087 986 
Q 2897 466 2520 194 
Q 2144 -78 1638 -78 
Q 1100 -78 759 220 
Q 419 519 350 1059 
z
M 2653 3081 
Q 2653 3566 2395 3850 
Q 2138 4134 1775 4134 
Q 1400 4134 1122 3828 
Q 844 3522 844 3034 
Q 844 2597 1108 2323 
Q 1372 2050 1759 2050 
Q 2150 2050 2401 2323 
Q 2653 2597 2653 3081 
z
" transform="scale(0.015625)"/>
       </defs>
       <use xlink:href="#ArialMT-39"/>
       <use xlink:href="#ArialMT-30" x="55.615234"/>
       <use xlink:href="#ArialMT-b0" x="111.230469"/>
      </g>
     </g>
    </g>
    <g id="xtick_4">
     <g id="line2d_4">
      <path d="M 295.2 199.98 
L 187.3945 92.1745 
" clip-path="url(#p646a459f7b)" style="fill: none; stroke: #ffffff; stroke-linecap: round"/>
     </g>
     <g id="text_4">
      <!-- 135° -->
      <g style="fill: #262626" transform="translate(167.15438 84.860161)scale(0.1 -0.1)">
       <defs>
        <path id="ArialMT-31" d="M 2384 0 
L 1822 0 
L 1822 3584 
Q 1619 3391 1289 3197 
Q 959 3003 697 2906 
L 697 3450 
Q 1169 3672 1522 3987 
Q 1875 4303 2022 4600 
L 2384 4600 
L 2384 0 
z
" transform="scale(0.015625)"/>
        <path id="ArialMT-33" d="M 269 1209 
L 831 1284 
Q 928 806 1161 595 
Q 1394 384 1728 384 
Q 2125 384 2398 659 
Q 2672 934 2672 1341 
Q 2672 1728 2419 1979 
Q 2166 2231 1775 2231 
Q 1616 2231 1378 2169 
L 1441 2663 
Q 1497 2656 1531 2656 
Q 1891 2656 2178 2843 
Q 2466 3031 2466 3422 
Q 2466 3731 2256 3934 
Q 2047 4138 1716 4138 
Q 1388 4138 1169 3931 
Q 950 3725 888 3313 
L 325 3413 
Q 428 3978 793 4289 
Q 1159 4600 1703 4600 
Q 2078 4600 2393 4439 
Q 2709 4278 2876 4000 
Q 3044 3722 3044 3409 
Q 3044 3113 2884 2869 
Q 2725 2625 2413 2481 
Q 2819 2388 3044 2092 
Q 3269 1797 3269 1353 
Q 3269 753 2831 336 
Q 2394 -81 1725 -81 
Q 1122 -81 723 278 
Q 325 638 269 1209 
z
" transform="scale(0.015625)"/>
       </defs>
       <use xlink:href="#ArialMT-31"/>
       <use xlink:href="#ArialMT-33" x="55.615234"/>
       <use xlink:href="#ArialMT-35" x="111.230469"/>
       <use xlink:href="#ArialMT-b0" x="166.845703"/>
      </g>
     </g>
    </g>
    <g id="xtick_5">
     <g id="line2d_5">
      <path d="M 295.2 199.98 
L 142.74 199.98 
" clip-path="url(#p646a459f7b)" style="fill: none; stroke: #ffffff; stroke-linecap: round"/>
     </g>
     <g id="text_5">
      <!-- 180° -->
      <g style="fill: #262626" transform="translate(118.399375 202.565156)scale(0.1 -0.1)">
       <defs>
        <path id="ArialMT-38" d="M 1131 2484 
Q 781 2613 612 2850 
Q 444 3088 444 3419 
Q 444 3919 803 4259 
Q 1163 4600 1759 4600 
Q 2359 4600 2725 4251 
Q 3091 3903 3091 3403 
Q 3091 3084 2923 2848 
Q 2756 2613 2416 2484 
Q 2838 2347 3058 2040 
Q 3278 1734 3278 1309 
Q 3278 722 2862 322 
Q 2447 -78 1769 -78 
Q 1091 -78 675 323 
Q 259 725 259 1325 
Q 259 1772 486 2073 
Q 713 2375 1131 2484 
z
M 1019 3438 
Q 1019 3113 1228 2906 
Q 1438 2700 1772 2700 
Q 2097 2700 2305 2904 
Q 2513 3109 2513 3406 
Q 2513 3716 2298 3927 
Q 2084 4138 1766 4138 
Q 1444 4138 1231 3931 
Q 1019 3725 1019 3438 
z
M 838 1322 
Q 838 1081 952 856 
Q 1066 631 1291 507 
Q 1516 384 1775 384 
Q 2178 384 2440 643 
Q 2703 903 2703 1303 
Q 2703 1709 2433 1975 
Q 2163 2241 1756 2241 
Q 1359 2241 1098 1978 
Q 838 1716 838 1322 
z
" transform="scale(0.015625)"/>
       </defs>
       <use xlink:href="#ArialMT-31"/>
       <use xlink:href="#ArialMT-38" x="55.615234"/>
       <use xlink:href="#ArialMT-30" x="111.230469"/>
       <use xlink:href="#ArialMT-b0" x="166.845703"/>
      </g>
     </g>
    </g>
    <g id="xtick_6">
     <g id="line2d_6">
      <path d="M 295.2 199.98 
L 187.3945 307.7855 
" clip-path="url(#p646a459f7b)" style="fill: none; stroke: #ffffff; stroke-linecap: round"/>
     </g>
     <g id="text_6">
      <!-- 225° -->
      <g style="fill: #262626" transform="translate(167.15438 320.270151)scale(0.1 -0.1)">
       <defs>
        <path id="ArialMT-32" d="M 3222 541 
L 3222 0 
L 194 0 
Q 188 203 259 391 
Q 375 700 629 1000 
Q 884 1300 1366 1694 
Q 2113 2306 2375 2664 
Q 2638 3022 2638 3341 
Q 2638 3675 2398 3904 
Q 2159 4134 1775 4134 
Q 1369 4134 1125 3890 
Q 881 3647 878 3216 
L 300 3275 
Q 359 3922 746 4261 
Q 1134 4600 1788 4600 
Q 2447 4600 2831 4234 
Q 3216 3869 3216 3328 
Q 3216 3053 3103 2787 
Q 2991 2522 2730 2228 
Q 2469 1934 1863 1422 
Q 1356 997 1212 845 
Q 1069 694 975 541 
L 3222 541 
z
" transform="scale(0.015625)"/>
       </defs>
       <use xlink:href="#ArialMT-32"/>
       <use xlink:href="#ArialMT-32" x="55.615234"/>
       <use xlink:href="#ArialMT-35" x="111.230469"/>
       <use xlink:href="#ArialMT-b0" x="166.845703"/>
      </g>
     </g>
    </g>
    <g id="xtick_7">
     <g id="line2d_7">
      <path d="M 295.2 199.98 
L 295.2 352.44 
" clip-path="url(#p646a459f7b)" style="fill: none; stroke: #ffffff; stroke-linecap: round"/>
     </g>
     <g id="text_7">
      <!-- 270° -->
      <g style="fill: #262626" transform="translate(284.859375 369.025156)scale(0.1 -0.1)">
       <defs>
        <path id="ArialMT-37" d="M 303 3981 
L 303 4522 
L 3269 4522 
L 3269 4084 
Q 2831 3619 2401 2847 
Q 1972 2075 1738 1259 
Q 1569 684 1522 0 
L 944 0 
Q 953 541 1156 1306 
Q 1359 2072 1739 2783 
Q 2119 3494 2547 3981 
L 303 3981 
z
" transform="scale(0.015625)"/>
       </defs>
       <use xlink:href="#ArialMT-32"/>
       <use xlink:href="#ArialMT-37" x="55.615234"/>
       <use xlink:href="#ArialMT-30" x="111.230469"/>
       <use xlink:href="#ArialMT-b0" x="166.845703"/>
      </g>
     </g>
    </g>
    <g id="xtick_8">
     <g id="line2d_8">
      <path d="M 295.2 199.98 
L 403.0055 307.7855 
" clip-path="url(#p646a459f7b)" style="fill: none; stroke: #ffffff; stroke-linecap: round"/>
     </g>
     <g id="text_8">
      <!-- 315° -->
      <g style="fill: #262626" transform="translate(402.56437 320.270151)scale(0.1 -0.1)">
       <use xlink:href="#ArialMT-33"/>
       <use xlink:href="#ArialMT-31" x="55.615234"/>
       <use xlink:href="#ArialMT-35" x="111.230469"/>
       <use xlink:href="#ArialMT-b0" x="166.845703"/>
      </g>
     </g>
    </g>
   </g>
   <g id="matplotlib.axis_2">
    <g id="ytick_1">
     <g id="line2d_9">
      <path d="M 323.991088 199.98 
C 323.991088 196.199189 323.246351 192.455141 321.799497 188.962127 
C 320.352644 185.469113 318.231811 182.295063 315.558374 179.621626 
C 312.884937 176.948189 309.710887 174.827356 306.217873 173.380503 
C 302.724859 171.933649 298.980811 171.188912 295.2 171.188912 
C 291.419189 171.188912 287.675141 171.933649 284.182127 173.380503 
C 280.689113 174.827356 277.515063 176.948189 274.841626 179.621626 
C 272.168189 182.295063 270.047356 185.469113 268.600503 188.962127 
C 267.153649 192.455141 266.408912 196.199189 266.408912 199.98 
C 266.408912 203.760811 267.153649 207.504859 268.600503 210.997873 
C 270.047356 214.490887 272.168189 217.664937 274.841626 220.338374 
C 277.515063 223.011811 280.689113 225.132644 284.182127 226.579497 
C 287.675141 228.026351 291.419189 228.771088 295.2 228.771088 
C 298.980811 228.771088 302.724859 228.026351 306.217873 226.579497 
C 309.710887 225.132644 312.884937 223.011811 315.558374 220.338374 
C 318.231811 217.664937 320.352644 214.490887 321.799497 210.997873 
C 323.246351 207.504859 323.991088 203.760811 323.991088 199.98 
" clip-path="url(#p646a459f7b)" style="fill: none; stroke: #ffffff; stroke-linecap: round"/>
     </g>
     <g id="text_9">
      <!-- 0.02 -->
      <g style="fill: #262626" transform="translate(321.799497 186.974627)scale(0.1 -0.1)">
       <defs>
        <path id="ArialMT-2e" d="M 581 0 
L 581 641 
L 1222 641 
L 1222 0 
L 581 0 
z
" transform="scale(0.015625)"/>
       </defs>
       <use xlink:href="#ArialMT-30"/>
       <use xlink:href="#ArialMT-2e" x="55.615234"/>
       <use xlink:href="#ArialMT-30" x="83.398438"/>
       <use xlink:href="#ArialMT-32" x="139.013672"/>
      </g>
     </g>
    </g>
    <g id="ytick_2">
     <g id="line2d_10">
      <path d="M 352.782177 199.98 
C 352.782177 192.418378 351.292702 184.930283 348.398995 177.944255 
C 345.505287 170.958227 341.263622 164.610127 335.916748 159.263252 
C 330.569873 153.916378 324.221773 149.674713 317.235745 146.781005 
C 310.249717 143.887298 302.761622 142.397823 295.2 142.397823 
C 287.638378 142.397823 280.150283 143.887298 273.164255 146.781005 
C 266.178227 149.674713 259.830127 153.916378 254.483252 159.263252 
C 249.136378 164.610127 244.894713 170.958227 242.001005 177.944255 
C 239.107298 184.930283 237.617823 192.418378 237.617823 199.98 
C 237.617823 207.541622 239.107298 215.029717 242.001005 222.015745 
C 244.894713 229.001773 249.136378 235.349873 254.483252 240.696748 
C 259.830127 246.043622 266.178227 250.285287 273.164255 253.178995 
C 280.150283 256.072702 287.638378 257.562177 295.2 257.562177 
C 302.761622 257.562177 310.249717 256.072702 317.235745 253.178995 
C 324.221773 250.285287 330.569873 246.043622 335.916748 240.696748 
C 341.263622 235.349873 345.505287 229.001773 348.398995 222.015745 
C 351.292702 215.029717 352.782177 207.541622 352.782177 199.98 
" clip-path="url(#p646a459f7b)" style="fill: none; stroke: #ffffff; stroke-linecap: round"/>
     </g>
     <g id="text_10">
      <!-- 0.04 -->
      <g style="fill: #262626" transform="translate(348.398995 175.956755)scale(0.1 -0.1)">
       <use xlink:href="#ArialMT-30"/>
       <use xlink:href="#ArialMT-2e" x="55.615234"/>
       <use xlink:href="#ArialMT-30" x="83.398438"/>
       <use xlink:href="#ArialMT-34" x="139.013672"/>
      </g>
     </g>
    </g>
    <g id="ytick_3">
     <g id="line2d_11">
      <path d="M 381.573265 199.98 
C 381.573265 188.637567 379.339053 177.405424 374.998492 166.926382 
C 370.657931 156.44734 364.295433 146.92519 356.275122 138.904878 
C 348.25481 130.884567 338.73266 124.522069 328.253618 120.181508 
C 317.774576 115.840947 306.542433 113.606735 295.2 113.606735 
C 283.857567 113.606735 272.625424 115.840947 262.146382 120.181508 
C 251.66734 124.522069 242.14519 130.884567 234.124878 138.904878 
C 226.104567 146.92519 219.742069 156.44734 215.401508 166.926382 
C 211.060947 177.405424 208.826735 188.637567 208.826735 199.98 
C 208.826735 211.322433 211.060947 222.554576 215.401508 233.033618 
C 219.742069 243.51266 226.104567 253.03481 234.124878 261.055122 
C 242.14519 269.075433 251.66734 275.437931 262.146382 279.778492 
C 272.625424 284.119053 283.857567 286.353265 295.2 286.353265 
C 306.542433 286.353265 317.774576 284.119053 328.253618 279.778492 
C 338.73266 275.437931 348.25481 269.075433 356.275122 261.055122 
C 364.295433 253.03481 370.657931 243.51266 374.998492 233.033618 
C 379.339053 222.554576 381.573265 211.322433 381.573265 199.98 
" clip-path="url(#p646a459f7b)" style="fill: none; stroke: #ffffff; stroke-linecap: round"/>
     </g>
     <g id="text_11">
      <!-- 0.06 -->
      <g style="fill: #262626" transform="translate(374.998492 164.938882)scale(0.1 -0.1)">
       <defs>
        <path id="ArialMT-36" d="M 3184 3459 
L 2625 3416 
Q 2550 3747 2413 3897 
Q 2184 4138 1850 4138 
Q 1581 4138 1378 3988 
Q 1113 3794 959 3422 
Q 806 3050 800 2363 
Q 1003 2672 1297 2822 
Q 1591 2972 1913 2972 
Q 2475 2972 2870 2558 
Q 3266 2144 3266 1488 
Q 3266 1056 3080 686 
Q 2894 316 2569 119 
Q 2244 -78 1831 -78 
Q 1128 -78 684 439 
Q 241 956 241 2144 
Q 241 3472 731 4075 
Q 1159 4600 1884 4600 
Q 2425 4600 2770 4297 
Q 3116 3994 3184 3459 
z
M 888 1484 
Q 888 1194 1011 928 
Q 1134 663 1356 523 
Q 1578 384 1822 384 
Q 2178 384 2434 671 
Q 2691 959 2691 1453 
Q 2691 1928 2437 2201 
Q 2184 2475 1800 2475 
Q 1419 2475 1153 2201 
Q 888 1928 888 1484 
z
" transform="scale(0.015625)"/>
       </defs>
       <use xlink:href="#ArialMT-30"/>
       <use xlink:href="#ArialMT-2e" x="55.615234"/>
       <use xlink:href="#ArialMT-30" x="83.398438"/>
       <use xlink:href="#ArialMT-36" x="139.013672"/>
      </g>
     </g>
    </g>
    <g id="ytick_4">
     <g id="line2d_12">
      <path d="M 410.364354 199.98 
C 410.364354 184.856756 407.385404 169.880566 401.597989 155.90851 
C 395.810574 141.936454 387.327244 129.240253 376.633495 118.546505 
C 365.939747 107.852756 353.243546 99.369426 339.27149 93.582011 
C 325.299434 87.794596 310.323244 84.815646 295.2 84.815646 
C 280.076756 84.815646 265.100566 87.794596 251.12851 93.582011 
C 237.156454 99.369426 224.460253 107.852756 213.766505 118.546505 
C 203.072756 129.240253 194.589426 141.936454 188.802011 155.90851 
C 183.014596 169.880566 180.035646 184.856756 180.035646 199.98 
C 180.035646 215.103244 183.014596 230.079434 188.802011 244.05149 
C 194.589426 258.023546 203.072756 270.719747 213.766505 281.413495 
C 224.460253 292.107244 237.156454 300.590574 251.12851 306.377989 
C 265.100566 312.165404 280.076756 315.144354 295.2 315.144354 
C 310.323244 315.144354 325.299434 312.165404 339.27149 306.377989 
C 353.243546 300.590574 365.939747 292.107244 376.633495 281.413495 
C 387.327244 270.719747 395.810574 258.023546 401.597989 244.05149 
C 407.385404 230.079434 410.364354 215.103244 410.364354 199.98 
" clip-path="url(#p646a459f7b)" style="fill: none; stroke: #ffffff; stroke-linecap: round"/>
     </g>
     <g id="text_12">
      <!-- 0.08 -->
      <g style="fill: #262626" transform="translate(401.597989 153.92101)scale(0.1 -0.1)">
       <use xlink:href="#ArialMT-30"/>
       <use xlink:href="#ArialMT-2e" x="55.615234"/>
       <use xlink:href="#ArialMT-30" x="83.398438"/>
       <use xlink:href="#ArialMT-38" x="139.013672"/>
      </g>
     </g>
    </g>
    <g id="ytick_5">
     <g id="line2d_13">
      <path d="M 439.155442 199.98 
C 439.155442 181.075945 435.431755 162.355707 428.197486 144.890637 
C 420.963218 127.425567 410.359055 111.555317 396.991869 98.188131 
C 383.624683 84.820945 367.754433 74.216782 350.289363 66.982514 
C 332.824293 59.748245 314.104055 56.024558 295.2 56.024558 
C 276.295945 56.024558 257.575707 59.748245 240.110637 66.982514 
C 222.645567 74.216782 206.775317 84.820945 193.408131 98.188131 
C 180.040945 111.555317 169.436782 127.425567 162.202514 144.890637 
C 154.968245 162.355707 151.244558 181.075945 151.244558 199.98 
C 151.244558 218.884055 154.968245 237.604293 162.202514 255.069363 
C 169.436782 272.534433 180.040945 288.404683 193.408131 301.771869 
C 206.775317 315.139055 222.645567 325.743218 240.110637 332.977486 
C 257.575707 340.211755 276.295945 343.935442 295.2 343.935442 
C 314.104055 343.935442 332.824293 340.211755 350.289363 332.977486 
C 367.754433 325.743218 383.624683 315.139055 396.991869 301.771869 
C 410.359055 288.404683 420.963218 272.534433 428.197486 255.069363 
C 435.431755 237.604293 439.155442 218.884055 439.155442 199.98 
" clip-path="url(#p646a459f7b)" style="fill: none; stroke: #ffffff; stroke-linecap: round"/>
     </g>
     <g id="text_13">
      <!-- 0.10 -->
      <g style="fill: #262626" transform="translate(428.197486 142.903137)scale(0.1 -0.1)">
       <use xlink:href="#ArialMT-30"/>
       <use xlink:href="#ArialMT-2e" x="55.615234"/>
       <use xlink:href="#ArialMT-31" x="83.398438"/>
       <use xlink:href="#ArialMT-30" x="139.013672"/>
      </g>
     </g>
    </g>
   </g>
   <g id="PathCollection_1">
    <defs>
     <path id="mecf3ed3ed7" d="M 0 3.5 
C 0.928211 3.5 1.81853 3.131218 2.474874 2.474874 
C 3.131218 1.81853 3.5 0.928211 3.5 0 
C 3.5 -0.928211 3.131218 -1.81853 2.474874 -2.474874 
C 1.81853 -3.131218 0.928211 -3.5 0 -3.5 
C -0.928211 -3.5 -1.81853 -3.131218 -2.474874 -2.474874 
C -3.131218 -1.81853 -3.5 -0.928211 -3.5 0 
C -3.5 0.928211 -3.131218 1.81853 -2.474874 2.474874 
C -1.81853 3.131218 -0.928211 3.5 0 3.5 
z
" style="stroke: #4c72b0; stroke-width: 0.3"/>
    </defs>
    <g clip-path="url(#p646a459f7b)">
     <use xlink:href="#mecf3ed3ed7" x="314.415088" y="176.505787" style="fill: #4c72b0; stroke: #4c72b0; stroke-width: 0.3"/>
     <use xlink:href="#mecf3ed3ed7" x="328.828239" y="172.749267" style="fill: #4c72b0; stroke: #4c72b0; stroke-width: 0.3"/>
     <use xlink:href="#mecf3ed3ed7" x="321.247498" y="170.562893" style="fill: #4c72b0; stroke: #4c72b0; stroke-width: 0.3"/>
     <use xlink:href="#mecf3ed3ed7" x="321.544345" y="174.819087" style="fill: #4c72b0; stroke: #4c72b0; stroke-width: 0.3"/>
     <use xlink:href="#mecf3ed3ed7" x="328.205619" y="174.004111" style="fill: #4c72b0; stroke: #4c72b0; stroke-width: 0.3"/>
     <use xlink:href="#mecf3ed3ed7" x="334.373516" y="174.760697" style="fill: #4c72b0; stroke: #4c72b0; stroke-width: 0.3"/>
     <use xlink:href="#mecf3ed3ed7" x="331.696775" y="170.560084" style="fill: #4c72b0; stroke: #4c72b0; stroke-width: 0.3"/>
     <use xlink:href="#mecf3ed3ed7" x="334.699348" y="165.858092" style="fill: #4c72b0; stroke: #4c72b0; stroke-width: 0.3"/>
     <use xlink:href="#mecf3ed3ed7" x="325.242712" y="174.654582" style="fill: #4c72b0; stroke: #4c72b0; stroke-width: 0.3"/>
     <use xlink:href="#mecf3ed3ed7" x="336.178235" y="168.249269" style="fill: #4c72b0; stroke: #4c72b0; stroke-width: 0.3"/>
     <use xlink:href="#mecf3ed3ed7" x="331.74802" y="171.304801" style="fill: #4c72b0; stroke: #4c72b0; stroke-width: 0.3"/>
     <use xlink:href="#mecf3ed3ed7" x="336.564621" y="170.257592" style="fill: #4c72b0; stroke: #4c72b0; stroke-width: 0.3"/>
     <use xlink:href="#mecf3ed3ed7" x="335.23833" y="174.717974" style="fill: #4c72b0; stroke: #4c72b0; stroke-width: 0.3"/>
     <use xlink:href="#mecf3ed3ed7" x="331.038073" y="180.101948" style="fill: #4c72b0; stroke: #4c72b0; stroke-width: 0.3"/>
     <use xlink:href="#mecf3ed3ed7" x="331.090649" y="182.285203" style="fill: #4c72b0; stroke: #4c72b0; stroke-width: 0.3"/>
     <use xlink:href="#mecf3ed3ed7" x="341.640002" y="180.056682" style="fill: #4c72b0; stroke: #4c72b0; stroke-width: 0.3"/>
     <use xlink:href="#mecf3ed3ed7" x="344.905588" y="178.167158" style="fill: #4c72b0; stroke: #4c72b0; stroke-width: 0.3"/>
     <use xlink:href="#mecf3ed3ed7" x="337.734929" y="174.876535" style="fill: #4c72b0; stroke: #4c72b0; stroke-width: 0.3"/>
     <use xlink:href="#mecf3ed3ed7" x="326.540466" y="180.342409" style="fill: #4c72b0; stroke: #4c72b0; stroke-width: 0.3"/>
     <use xlink:href="#mecf3ed3ed7" x="329.440893" y="182.636254" style="fill: #4c72b0; stroke: #4c72b0; stroke-width: 0.3"/>
     <use xlink:href="#mecf3ed3ed7" x="328.864111" y="184.299236" style="fill: #4c72b0; stroke: #4c72b0; stroke-width: 0.3"/>
     <use xlink:href="#mecf3ed3ed7" x="325.9239" y="188.352998" style="fill: #4c72b0; stroke: #4c72b0; stroke-width: 0.3"/>
     <use xlink:href="#mecf3ed3ed7" x="338.844026" y="177.392304" style="fill: #4c72b0; stroke: #4c72b0; stroke-width: 0.3"/>
     <use xlink:href="#mecf3ed3ed7" x="341.884462" y="167.30944" style="fill: #4c72b0; stroke: #4c72b0; stroke-width: 0.3"/>
    </g>
   </g>
   <g id="PathCollection_2">
    <defs>
     <path id="m1a90fc2338" d="M 0 3.5 
C 0.928211 3.5 1.81853 3.131218 2.474874 2.474874 
C 3.131218 1.81853 3.5 0.928211 3.5 0 
C 3.5 -0.928211 3.131218 -1.81853 2.474874 -2.474874 
C 1.81853 -3.131218 0.928211 -3.5 0 -3.5 
C -0.928211 -3.5 -1.81853 -3.131218 -2.474874 -2.474874 
C -3.131218 -1.81853 -3.5 -0.928211 -3.5 0 
C -3.5 0.928211 -3.131218 1.81853 -2.474874 2.474874 
C -1.81853 3.131218 -0.928211 3.5 0 3.5 
z
" style="stroke: #55a868; stroke-width: 0.3"/>
    </defs>
    <g clip-path="url(#p646a459f7b)">
     <use xlink:href="#m1a90fc2338" x="346.086453" y="165.608093" style="fill: #55a868; stroke: #55a868; stroke-width: 0.3"/>
     <use xlink:href="#m1a90fc2338" x="342.864309" y="166.46076" style="fill: #55a868; stroke: #55a868; stroke-width: 0.3"/>
     <use xlink:href="#m1a90fc2338" x="344.170299" y="165.51753" style="fill: #55a868; stroke: #55a868; stroke-width: 0.3"/>
     <use xlink:href="#m1a90fc2338" x="344.549925" y="163.100205" style="fill: #55a868; stroke: #55a868; stroke-width: 0.3"/>
     <use xlink:href="#m1a90fc2338" x="347.036938" y="162.3607" style="fill: #55a868; stroke: #55a868; stroke-width: 0.3"/>
     <use xlink:href="#m1a90fc2338" x="359.563342" y="155.921625" style="fill: #55a868; stroke: #55a868; stroke-width: 0.3"/>
     <use xlink:href="#m1a90fc2338" x="362.404865" y="153.320667" style="fill: #55a868; stroke: #55a868; stroke-width: 0.3"/>
     <use xlink:href="#m1a90fc2338" x="353.383454" y="153.133017" style="fill: #55a868; stroke: #55a868; stroke-width: 0.3"/>
     <use xlink:href="#m1a90fc2338" x="358.472036" y="148.464726" style="fill: #55a868; stroke: #55a868; stroke-width: 0.3"/>
     <use xlink:href="#m1a90fc2338" x="361.778564" y="153.427172" style="fill: #55a868; stroke: #55a868; stroke-width: 0.3"/>
     <use xlink:href="#m1a90fc2338" x="359.151716" y="154.790537" style="fill: #55a868; stroke: #55a868; stroke-width: 0.3"/>
     <use xlink:href="#m1a90fc2338" x="350.191282" y="158.222195" style="fill: #55a868; stroke: #55a868; stroke-width: 0.3"/>
     <use xlink:href="#m1a90fc2338" x="350.913457" y="156.492392" style="fill: #55a868; stroke: #55a868; stroke-width: 0.3"/>
     <use xlink:href="#m1a90fc2338" x="362.351773" y="156.115465" style="fill: #55a868; stroke: #55a868; stroke-width: 0.3"/>
     <use xlink:href="#m1a90fc2338" x="379.031199" y="154.679086" style="fill: #55a868; stroke: #55a868; stroke-width: 0.3"/>
     <use xlink:href="#m1a90fc2338" x="372.672459" y="154.566337" style="fill: #55a868; stroke: #55a868; stroke-width: 0.3"/>
     <use xlink:href="#m1a90fc2338" x="380.108499" y="153.149731" style="fill: #55a868; stroke: #55a868; stroke-width: 0.3"/>
     <use xlink:href="#m1a90fc2338" x="389.999872" y="146.256889" style="fill: #55a868; stroke: #55a868; stroke-width: 0.3"/>
     <use xlink:href="#m1a90fc2338" x="392.418174" y="145.167601" style="fill: #55a868; stroke: #55a868; stroke-width: 0.3"/>
     <use xlink:href="#m1a90fc2338" x="404.208235" y="141.626071" style="fill: #55a868; stroke: #55a868; stroke-width: 0.3"/>
     <use xlink:href="#m1a90fc2338" x="414.263811" y="137.966905" style="fill: #55a868; stroke: #55a868; stroke-width: 0.3"/>
     <use xlink:href="#m1a90fc2338" x="422.084655" y="129.387335" style="fill: #55a868; stroke: #55a868; stroke-width: 0.3"/>
     <use xlink:href="#m1a90fc2338" x="419.788299" y="128.344489" style="fill: #55a868; stroke: #55a868; stroke-width: 0.3"/>
     <use xlink:href="#m1a90fc2338" x="415.200064" y="131.457706" style="fill: #55a868; stroke: #55a868; stroke-width: 0.3"/>
    </g>
   </g>
   <g id="PathCollection_3">
    <defs>
     <path id="m5bafd2c421" d="M 0 3.5 
C 0.928211 3.5 1.81853 3.131218 2.474874 2.474874 
C 3.131218 1.81853 3.5 0.928211 3.5 0 
C 3.5 -0.928211 3.131218 -1.81853 2.474874 -2.474874 
C 1.81853 -3.131218 0.928211 -3.5 0 -3.5 
C -0.928211 -3.5 -1.81853 -3.131218 -2.474874 -2.474874 
C -3.131218 -1.81853 -3.5 -0.928211 -3.5 0 
C -3.5 0.928211 -3.131218 1.81853 -2.474874 2.474874 
C -1.81853 3.131218 -0.928211 3.5 0 3.5 
z
" style="stroke: #c44e52; stroke-width: 0.3"/>
    </defs>
    <g clip-path="url(#p646a459f7b)">
     <use xlink:href="#m5bafd2c421" x="414.176889" y="142.717078" style="fill: #c44e52; stroke: #c44e52; stroke-width: 0.3"/>
     <use xlink:href="#m5bafd2c421" x="409.307571" y="144.547111" style="fill: #c44e52; stroke: #c44e52; stroke-width: 0.3"/>
     <use xlink:href="#m5bafd2c421" x="397.411834" y="154.512808" style="fill: #c44e52; stroke: #c44e52; stroke-width: 0.3"/>
     <use xlink:href="#m5bafd2c421" x="390.276269" y="157.929813" style="fill: #c44e52; stroke: #c44e52; stroke-width: 0.3"/>
     <use xlink:href="#m5bafd2c421" x="389.463082" y="162.683147" style="fill: #c44e52; stroke: #c44e52; stroke-width: 0.3"/>
     <use xlink:href="#m5bafd2c421" x="375.967402" y="173.382845" style="fill: #c44e52; stroke: #c44e52; stroke-width: 0.3"/>
     <use xlink:href="#m5bafd2c421" x="375.04023" y="179.155564" style="fill: #c44e52; stroke: #c44e52; stroke-width: 0.3"/>
     <use xlink:href="#m5bafd2c421" x="375.525575" y="181.158425" style="fill: #c44e52; stroke: #c44e52; stroke-width: 0.3"/>
     <use xlink:href="#m5bafd2c421" x="358.358103" y="187.595049" style="fill: #c44e52; stroke: #c44e52; stroke-width: 0.3"/>
     <use xlink:href="#m5bafd2c421" x="351.427783" y="191.308622" style="fill: #c44e52; stroke: #c44e52; stroke-width: 0.3"/>
     <use xlink:href="#m5bafd2c421" x="357.173698" y="191.116493" style="fill: #c44e52; stroke: #c44e52; stroke-width: 0.3"/>
     <use xlink:href="#m5bafd2c421" x="359.885806" y="191.191203" style="fill: #c44e52; stroke: #c44e52; stroke-width: 0.3"/>
     <use xlink:href="#m5bafd2c421" x="354.654421" y="196.902654" style="fill: #c44e52; stroke: #c44e52; stroke-width: 0.3"/>
     <use xlink:href="#m5bafd2c421" x="343.707252" y="201.916898" style="fill: #c44e52; stroke: #c44e52; stroke-width: 0.3"/>
     <use xlink:href="#m5bafd2c421" x="326.925791" y="207.092317" style="fill: #c44e52; stroke: #c44e52; stroke-width: 0.3"/>
     <use xlink:href="#m5bafd2c421" x="313.54955" y="213.876727" style="fill: #c44e52; stroke: #c44e52; stroke-width: 0.3"/>
     <use xlink:href="#m5bafd2c421" x="313.217598" y="212.603756" style="fill: #c44e52; stroke: #c44e52; stroke-width: 0.3"/>
     <use xlink:href="#m5bafd2c421" x="302.285759" y="216.741265" style="fill: #c44e52; stroke: #c44e52; stroke-width: 0.3"/>
     <use xlink:href="#m5bafd2c421" x="315.072488" y="205.074803" style="fill: #c44e52; stroke: #c44e52; stroke-width: 0.3"/>
     <use xlink:href="#m5bafd2c421" x="322.216892" y="208.189842" style="fill: #c44e52; stroke: #c44e52; stroke-width: 0.3"/>
     <use xlink:href="#m5bafd2c421" x="320.649843" y="200.759644" style="fill: #c44e52; stroke: #c44e52; stroke-width: 0.3"/>
     <use xlink:href="#m5bafd2c421" x="322.370483" y="193.373788" style="fill: #c44e52; stroke: #c44e52; stroke-width: 0.3"/>
     <use xlink:href="#m5bafd2c421" x="312.858399" y="200.374669" style="fill: #c44e52; stroke: #c44e52; stroke-width: 0.3"/>
     <use xlink:href="#m5bafd2c421" x="307.391943" y="204.501084" style="fill: #c44e52; stroke: #c44e52; stroke-width: 0.3"/>
    </g>
   </g>
   <g id="line2d_14">
    <path d="M 295.2 199.98 
L 427.000314 139.056135 
" clip-path="url(#p646a459f7b)" style="fill: none; stroke-dasharray: 7.4,3.2; stroke-dashoffset: 0; stroke: #ff0000; stroke-width: 2"/>
   </g>
   <g id="patch_3">
    <path d="M 447.66 199.98 
C 447.66 179.959136 443.716326 160.13295 436.054674 141.636084 
C 428.393021 123.139218 417.162388 106.331389 403.0055 92.1745 
C 388.848611 78.017612 372.040782 66.786979 353.543916 59.125326 
C 335.04705 51.463674 315.220864 47.52 295.2 47.52 
C 275.179136 47.52 255.35295 51.463674 236.856084 59.125326 
C 218.359218 66.786979 201.551389 78.017612 187.3945 92.1745 
C 173.237612 106.331389 162.006979 123.139218 154.345326 141.636084 
C 146.683674 160.13295 142.74 179.959136 142.74 199.98 
C 142.74 220.000864 146.683674 239.82705 154.345326 258.323916 
C 162.006979 276.820782 173.237612 293.628611 187.3945 307.7855 
C 201.551389 321.942388 218.359218 333.173021 236.856084 340.834674 
C 255.35295 348.496326 275.179136 352.44 295.2 352.44 
C 315.220864 352.44 335.04705 348.496326 353.543916 340.834674 
C 372.040782 333.173021 388.848611 321.942388 403.0055 307.7855 
C 417.162388 293.628611 428.393021 276.820782 436.054674 258.323916 
C 443.716326 239.82705 447.66 220.000864 447.66 199.98 
" style="fill: none"/>
   </g>
   <g id="text_14">
    <!-- Distribution of projected eye movement velocity on the screen - NewM1_9_33 -->
    <g style="fill: #262626" transform="translate(89.110313 20.421719)scale(0.12 -0.12)">
     <defs>
      <path id="ArialMT-44" d="M 494 0 
L 494 4581 
L 2072 4581 
Q 2606 4581 2888 4516 
Q 3281 4425 3559 4188 
Q 3922 3881 4101 3404 
Q 4281 2928 4281 2316 
Q 4281 1794 4159 1391 
Q 4038 988 3847 723 
Q 3656 459 3429 307 
Q 3203 156 2883 78 
Q 2563 0 2147 0 
L 494 0 
z
M 1100 541 
L 2078 541 
Q 2531 541 2789 625 
Q 3047 709 3200 863 
Q 3416 1078 3536 1442 
Q 3656 1806 3656 2325 
Q 3656 3044 3420 3430 
Q 3184 3816 2847 3947 
Q 2603 4041 2063 4041 
L 1100 4041 
L 1100 541 
z
" transform="scale(0.015625)"/>
      <path id="ArialMT-69" d="M 425 3934 
L 425 4581 
L 988 4581 
L 988 3934 
L 425 3934 
z
M 425 0 
L 425 3319 
L 988 3319 
L 988 0 
L 425 0 
z
" transform="scale(0.015625)"/>
      <path id="ArialMT-73" d="M 197 991 
L 753 1078 
Q 800 744 1014 566 
Q 1228 388 1613 388 
Q 2000 388 2187 545 
Q 2375 703 2375 916 
Q 2375 1106 2209 1216 
Q 2094 1291 1634 1406 
Q 1016 1563 777 1677 
Q 538 1791 414 1992 
Q 291 2194 291 2438 
Q 291 2659 392 2848 
Q 494 3038 669 3163 
Q 800 3259 1026 3326 
Q 1253 3394 1513 3394 
Q 1903 3394 2198 3281 
Q 2494 3169 2634 2976 
Q 2775 2784 2828 2463 
L 2278 2388 
Q 2241 2644 2061 2787 
Q 1881 2931 1553 2931 
Q 1166 2931 1000 2803 
Q 834 2675 834 2503 
Q 834 2394 903 2306 
Q 972 2216 1119 2156 
Q 1203 2125 1616 2013 
Q 2213 1853 2448 1751 
Q 2684 1650 2818 1456 
Q 2953 1263 2953 975 
Q 2953 694 2789 445 
Q 2625 197 2315 61 
Q 2006 -75 1616 -75 
Q 969 -75 630 194 
Q 291 463 197 991 
z
" transform="scale(0.015625)"/>
      <path id="ArialMT-74" d="M 1650 503 
L 1731 6 
Q 1494 -44 1306 -44 
Q 1000 -44 831 53 
Q 663 150 594 308 
Q 525 466 525 972 
L 525 2881 
L 113 2881 
L 113 3319 
L 525 3319 
L 525 4141 
L 1084 4478 
L 1084 3319 
L 1650 3319 
L 1650 2881 
L 1084 2881 
L 1084 941 
Q 1084 700 1114 631 
Q 1144 563 1211 522 
Q 1278 481 1403 481 
Q 1497 481 1650 503 
z
" transform="scale(0.015625)"/>
      <path id="ArialMT-72" d="M 416 0 
L 416 3319 
L 922 3319 
L 922 2816 
Q 1116 3169 1280 3281 
Q 1444 3394 1641 3394 
Q 1925 3394 2219 3213 
L 2025 2691 
Q 1819 2813 1613 2813 
Q 1428 2813 1281 2702 
Q 1134 2591 1072 2394 
Q 978 2094 978 1738 
L 978 0 
L 416 0 
z
" transform="scale(0.015625)"/>
      <path id="ArialMT-62" d="M 941 0 
L 419 0 
L 419 4581 
L 981 4581 
L 981 2947 
Q 1338 3394 1891 3394 
Q 2197 3394 2470 3270 
Q 2744 3147 2920 2923 
Q 3097 2700 3197 2384 
Q 3297 2069 3297 1709 
Q 3297 856 2875 390 
Q 2453 -75 1863 -75 
Q 1275 -75 941 416 
L 941 0 
z
M 934 1684 
Q 934 1088 1097 822 
Q 1363 388 1816 388 
Q 2184 388 2453 708 
Q 2722 1028 2722 1663 
Q 2722 2313 2464 2622 
Q 2206 2931 1841 2931 
Q 1472 2931 1203 2611 
Q 934 2291 934 1684 
z
" transform="scale(0.015625)"/>
      <path id="ArialMT-75" d="M 2597 0 
L 2597 488 
Q 2209 -75 1544 -75 
Q 1250 -75 995 37 
Q 741 150 617 320 
Q 494 491 444 738 
Q 409 903 409 1263 
L 409 3319 
L 972 3319 
L 972 1478 
Q 972 1038 1006 884 
Q 1059 663 1231 536 
Q 1403 409 1656 409 
Q 1909 409 2131 539 
Q 2353 669 2445 892 
Q 2538 1116 2538 1541 
L 2538 3319 
L 3100 3319 
L 3100 0 
L 2597 0 
z
" transform="scale(0.015625)"/>
      <path id="ArialMT-6f" d="M 213 1659 
Q 213 2581 725 3025 
Q 1153 3394 1769 3394 
Q 2453 3394 2887 2945 
Q 3322 2497 3322 1706 
Q 3322 1066 3130 698 
Q 2938 331 2570 128 
Q 2203 -75 1769 -75 
Q 1072 -75 642 372 
Q 213 819 213 1659 
z
M 791 1659 
Q 791 1022 1069 705 
Q 1347 388 1769 388 
Q 2188 388 2466 706 
Q 2744 1025 2744 1678 
Q 2744 2294 2464 2611 
Q 2184 2928 1769 2928 
Q 1347 2928 1069 2612 
Q 791 2297 791 1659 
z
" transform="scale(0.015625)"/>
      <path id="ArialMT-6e" d="M 422 0 
L 422 3319 
L 928 3319 
L 928 2847 
Q 1294 3394 1984 3394 
Q 2284 3394 2536 3286 
Q 2788 3178 2913 3003 
Q 3038 2828 3088 2588 
Q 3119 2431 3119 2041 
L 3119 0 
L 2556 0 
L 2556 2019 
Q 2556 2363 2490 2533 
Q 2425 2703 2258 2804 
Q 2091 2906 1866 2906 
Q 1506 2906 1245 2678 
Q 984 2450 984 1813 
L 984 0 
L 422 0 
z
" transform="scale(0.015625)"/>
      <path id="ArialMT-20" transform="scale(0.015625)"/>
      <path id="ArialMT-66" d="M 556 0 
L 556 2881 
L 59 2881 
L 59 3319 
L 556 3319 
L 556 3672 
Q 556 4006 616 4169 
Q 697 4388 901 4523 
Q 1106 4659 1475 4659 
Q 1713 4659 2000 4603 
L 1916 4113 
Q 1741 4144 1584 4144 
Q 1328 4144 1222 4034 
Q 1116 3925 1116 3625 
L 1116 3319 
L 1763 3319 
L 1763 2881 
L 1116 2881 
L 1116 0 
L 556 0 
z
" transform="scale(0.015625)"/>
      <path id="ArialMT-70" d="M 422 -1272 
L 422 3319 
L 934 3319 
L 934 2888 
Q 1116 3141 1344 3267 
Q 1572 3394 1897 3394 
Q 2322 3394 2647 3175 
Q 2972 2956 3137 2557 
Q 3303 2159 3303 1684 
Q 3303 1175 3120 767 
Q 2938 359 2589 142 
Q 2241 -75 1856 -75 
Q 1575 -75 1351 44 
Q 1128 163 984 344 
L 984 -1272 
L 422 -1272 
z
M 931 1641 
Q 931 1000 1190 694 
Q 1450 388 1819 388 
Q 2194 388 2461 705 
Q 2728 1022 2728 1688 
Q 2728 2322 2467 2637 
Q 2206 2953 1844 2953 
Q 1484 2953 1207 2617 
Q 931 2281 931 1641 
z
" transform="scale(0.015625)"/>
      <path id="ArialMT-6a" d="M 419 3928 
L 419 4581 
L 981 4581 
L 981 3928 
L 419 3928 
z
M -294 -1288 
L -188 -809 
Q -19 -853 78 -853 
Q 250 -853 334 -739 
Q 419 -625 419 -169 
L 419 3319 
L 981 3319 
L 981 -181 
Q 981 -794 822 -1034 
Q 619 -1347 147 -1347 
Q -81 -1347 -294 -1288 
z
" transform="scale(0.015625)"/>
      <path id="ArialMT-65" d="M 2694 1069 
L 3275 997 
Q 3138 488 2766 206 
Q 2394 -75 1816 -75 
Q 1088 -75 661 373 
Q 234 822 234 1631 
Q 234 2469 665 2931 
Q 1097 3394 1784 3394 
Q 2450 3394 2872 2941 
Q 3294 2488 3294 1666 
Q 3294 1616 3291 1516 
L 816 1516 
Q 847 969 1125 678 
Q 1403 388 1819 388 
Q 2128 388 2347 550 
Q 2566 713 2694 1069 
z
M 847 1978 
L 2700 1978 
Q 2663 2397 2488 2606 
Q 2219 2931 1791 2931 
Q 1403 2931 1139 2672 
Q 875 2413 847 1978 
z
" transform="scale(0.015625)"/>
      <path id="ArialMT-63" d="M 2588 1216 
L 3141 1144 
Q 3050 572 2676 248 
Q 2303 -75 1759 -75 
Q 1078 -75 664 370 
Q 250 816 250 1647 
Q 250 2184 428 2587 
Q 606 2991 970 3192 
Q 1334 3394 1763 3394 
Q 2303 3394 2647 3120 
Q 2991 2847 3088 2344 
L 2541 2259 
Q 2463 2594 2264 2762 
Q 2066 2931 1784 2931 
Q 1359 2931 1093 2626 
Q 828 2322 828 1663 
Q 828 994 1084 691 
Q 1341 388 1753 388 
Q 2084 388 2306 591 
Q 2528 794 2588 1216 
z
" transform="scale(0.015625)"/>
      <path id="ArialMT-64" d="M 2575 0 
L 2575 419 
Q 2259 -75 1647 -75 
Q 1250 -75 917 144 
Q 584 363 401 755 
Q 219 1147 219 1656 
Q 219 2153 384 2558 
Q 550 2963 881 3178 
Q 1213 3394 1622 3394 
Q 1922 3394 2156 3267 
Q 2391 3141 2538 2938 
L 2538 4581 
L 3097 4581 
L 3097 0 
L 2575 0 
z
M 797 1656 
Q 797 1019 1065 703 
Q 1334 388 1700 388 
Q 2069 388 2326 689 
Q 2584 991 2584 1609 
Q 2584 2291 2321 2609 
Q 2059 2928 1675 2928 
Q 1300 2928 1048 2622 
Q 797 2316 797 1656 
z
" transform="scale(0.015625)"/>
      <path id="ArialMT-79" d="M 397 -1278 
L 334 -750 
Q 519 -800 656 -800 
Q 844 -800 956 -737 
Q 1069 -675 1141 -563 
Q 1194 -478 1313 -144 
Q 1328 -97 1363 -6 
L 103 3319 
L 709 3319 
L 1400 1397 
Q 1534 1031 1641 628 
Q 1738 1016 1872 1384 
L 2581 3319 
L 3144 3319 
L 1881 -56 
Q 1678 -603 1566 -809 
Q 1416 -1088 1222 -1217 
Q 1028 -1347 759 -1347 
Q 597 -1347 397 -1278 
z
" transform="scale(0.015625)"/>
      <path id="ArialMT-6d" d="M 422 0 
L 422 3319 
L 925 3319 
L 925 2853 
Q 1081 3097 1340 3245 
Q 1600 3394 1931 3394 
Q 2300 3394 2536 3241 
Q 2772 3088 2869 2813 
Q 3263 3394 3894 3394 
Q 4388 3394 4653 3120 
Q 4919 2847 4919 2278 
L 4919 0 
L 4359 0 
L 4359 2091 
Q 4359 2428 4304 2576 
Q 4250 2725 4106 2815 
Q 3963 2906 3769 2906 
Q 3419 2906 3187 2673 
Q 2956 2441 2956 1928 
L 2956 0 
L 2394 0 
L 2394 2156 
Q 2394 2531 2256 2718 
Q 2119 2906 1806 2906 
Q 1569 2906 1367 2781 
Q 1166 2656 1075 2415 
Q 984 2175 984 1722 
L 984 0 
L 422 0 
z
" transform="scale(0.015625)"/>
      <path id="ArialMT-76" d="M 1344 0 
L 81 3319 
L 675 3319 
L 1388 1331 
Q 1503 1009 1600 663 
Q 1675 925 1809 1294 
L 2547 3319 
L 3125 3319 
L 1869 0 
L 1344 0 
z
" transform="scale(0.015625)"/>
      <path id="ArialMT-6c" d="M 409 0 
L 409 4581 
L 972 4581 
L 972 0 
L 409 0 
z
" transform="scale(0.015625)"/>
      <path id="ArialMT-68" d="M 422 0 
L 422 4581 
L 984 4581 
L 984 2938 
Q 1378 3394 1978 3394 
Q 2347 3394 2619 3248 
Q 2891 3103 3008 2847 
Q 3125 2591 3125 2103 
L 3125 0 
L 2563 0 
L 2563 2103 
Q 2563 2525 2380 2717 
Q 2197 2909 1863 2909 
Q 1613 2909 1392 2779 
Q 1172 2650 1078 2428 
Q 984 2206 984 1816 
L 984 0 
L 422 0 
z
" transform="scale(0.015625)"/>
      <path id="ArialMT-2d" d="M 203 1375 
L 203 1941 
L 1931 1941 
L 1931 1375 
L 203 1375 
z
" transform="scale(0.015625)"/>
      <path id="ArialMT-4e" d="M 488 0 
L 488 4581 
L 1109 4581 
L 3516 984 
L 3516 4581 
L 4097 4581 
L 4097 0 
L 3475 0 
L 1069 3600 
L 1069 0 
L 488 0 
z
" transform="scale(0.015625)"/>
      <path id="ArialMT-77" d="M 1034 0 
L 19 3319 
L 600 3319 
L 1128 1403 
L 1325 691 
Q 1338 744 1497 1375 
L 2025 3319 
L 2603 3319 
L 3100 1394 
L 3266 759 
L 3456 1400 
L 4025 3319 
L 4572 3319 
L 3534 0 
L 2950 0 
L 2422 1988 
L 2294 2553 
L 1622 0 
L 1034 0 
z
" transform="scale(0.015625)"/>
      <path id="ArialMT-4d" d="M 475 0 
L 475 4581 
L 1388 4581 
L 2472 1338 
Q 2622 884 2691 659 
Q 2769 909 2934 1394 
L 4031 4581 
L 4847 4581 
L 4847 0 
L 4263 0 
L 4263 3834 
L 2931 0 
L 2384 0 
L 1059 3900 
L 1059 0 
L 475 0 
z
" transform="scale(0.015625)"/>
      <path id="ArialMT-5f" d="M -97 -1272 
L -97 -866 
L 3631 -866 
L 3631 -1272 
L -97 -1272 
z
" transform="scale(0.015625)"/>
     </defs>
     <use xlink:href="#ArialMT-44"/>
     <use xlink:href="#ArialMT-69" x="72.216797"/>
     <use xlink:href="#ArialMT-73" x="94.433594"/>
     <use xlink:href="#ArialMT-74" x="144.433594"/>
     <use xlink:href="#ArialMT-72" x="172.216797"/>
     <use xlink:href="#ArialMT-69" x="205.517578"/>
     <use xlink:href="#ArialMT-62" x="227.734375"/>
     <use xlink:href="#ArialMT-75" x="283.349609"/>
     <use xlink:href="#ArialMT-74" x="338.964844"/>
     <use xlink:href="#ArialMT-69" x="366.748047"/>
     <use xlink:href="#ArialMT-6f" x="388.964844"/>
     <use xlink:href="#ArialMT-6e" x="444.580078"/>
     <use xlink:href="#ArialMT-20" x="500.195312"/>
     <use xlink:href="#ArialMT-6f" x="527.978516"/>
     <use xlink:href="#ArialMT-66" x="583.59375"/>
     <use xlink:href="#ArialMT-20" x="611.376953"/>
     <use xlink:href="#ArialMT-70" x="639.160156"/>
     <use xlink:href="#ArialMT-72" x="694.775391"/>
     <use xlink:href="#ArialMT-6f" x="728.076172"/>
     <use xlink:href="#ArialMT-6a" x="783.691406"/>
     <use xlink:href="#ArialMT-65" x="805.908203"/>
     <use xlink:href="#ArialMT-63" x="861.523438"/>
     <use xlink:href="#ArialMT-74" x="911.523438"/>
     <use xlink:href="#ArialMT-65" x="939.306641"/>
     <use xlink:href="#ArialMT-64" x="994.921875"/>
     <use xlink:href="#ArialMT-20" x="1050.537109"/>
     <use xlink:href="#ArialMT-65" x="1078.320312"/>
     <use xlink:href="#ArialMT-79" x="1133.935547"/>
     <use xlink:href="#ArialMT-65" x="1183.935547"/>
     <use xlink:href="#ArialMT-20" x="1239.550781"/>
     <use xlink:href="#ArialMT-6d" x="1267.333984"/>
     <use xlink:href="#ArialMT-6f" x="1350.634766"/>
     <use xlink:href="#ArialMT-76" x="1406.25"/>
     <use xlink:href="#ArialMT-65" x="1456.25"/>
     <use xlink:href="#ArialMT-6d" x="1511.865234"/>
     <use xlink:href="#ArialMT-65" x="1595.166016"/>
     <use xlink:href="#ArialMT-6e" x="1650.78125"/>
     <use xlink:href="#ArialMT-74" x="1706.396484"/>
     <use xlink:href="#ArialMT-20" x="1734.179688"/>
     <use xlink:href="#ArialMT-76" x="1761.962891"/>
     <use xlink:href="#ArialMT-65" x="1811.962891"/>
     <use xlink:href="#ArialMT-6c" x="1867.578125"/>
     <use xlink:href="#ArialMT-6f" x="1889.794922"/>
     <use xlink:href="#ArialMT-63" x="1945.410156"/>
     <use xlink:href="#ArialMT-69" x="1995.410156"/>
     <use xlink:href="#ArialMT-74" x="2017.626953"/>
     <use xlink:href="#ArialMT-79" x="2045.410156"/>
     <use xlink:href="#ArialMT-20" x="2095.410156"/>
     <use xlink:href="#ArialMT-6f" x="2123.193359"/>
     <use xlink:href="#ArialMT-6e" x="2178.808594"/>
     <use xlink:href="#ArialMT-20" x="2234.423828"/>
     <use xlink:href="#ArialMT-74" x="2262.207031"/>
     <use xlink:href="#ArialMT-68" x="2289.990234"/>
     <use xlink:href="#ArialMT-65" x="2345.605469"/>
     <use xlink:href="#ArialMT-20" x="2401.220703"/>
     <use xlink:href="#ArialMT-73" x="2429.003906"/>
     <use xlink:href="#ArialMT-63" x="2479.003906"/>
     <use xlink:href="#ArialMT-72" x="2529.003906"/>
     <use xlink:href="#ArialMT-65" x="2562.304688"/>
     <use xlink:href="#ArialMT-65" x="2617.919922"/>
     <use xlink:href="#ArialMT-6e" x="2673.535156"/>
     <use xlink:href="#ArialMT-20" x="2729.150391"/>
     <use xlink:href="#ArialMT-2d" x="2756.933594"/>
     <use xlink:href="#ArialMT-20" x="2790.234375"/>
     <use xlink:href="#ArialMT-4e" x="2818.017578"/>
     <use xlink:href="#ArialMT-65" x="2890.234375"/>
     <use xlink:href="#ArialMT-77" x="2945.849609"/>
     <use xlink:href="#ArialMT-4d" x="3018.066406"/>
     <use xlink:href="#ArialMT-31" x="3101.367188"/>
     <use xlink:href="#ArialMT-5f" x="3156.982422"/>
     <use xlink:href="#ArialMT-39" x="3212.597656"/>
     <use xlink:href="#ArialMT-5f" x="3268.212891"/>
     <use xlink:href="#ArialMT-33" x="3323.828125"/>
     <use xlink:href="#ArialMT-33" x="3379.443359"/>
    </g>
   </g>
   <g id="legend_1">
    <g id="PathCollection_4">
     <g>
      <use xlink:href="#mecf3ed3ed7" x="208.457031" y="61.052813" style="fill: #4c72b0; stroke: #4c72b0; stroke-width: 0.3"/>
     </g>
    </g>
    <g id="text_15">
     <!-- $-0.5 &lt; t &lt; 0.$ -->
     <g style="fill: #262626" transform="translate(226.457031 63.677813)scale(0.1 -0.1)">
      <defs>
       <path id="DejaVuSans-2212" d="M 678 2272 
L 4684 2272 
L 4684 1741 
L 678 1741 
L 678 2272 
z
" transform="scale(0.015625)"/>
       <path id="DejaVuSans-30" d="M 2034 4250 
Q 1547 4250 1301 3770 
Q 1056 3291 1056 2328 
Q 1056 1369 1301 889 
Q 1547 409 2034 409 
Q 2525 409 2770 889 
Q 3016 1369 3016 2328 
Q 3016 3291 2770 3770 
Q 2525 4250 2034 4250 
z
M 2034 4750 
Q 2819 4750 3233 4129 
Q 3647 3509 3647 2328 
Q 3647 1150 3233 529 
Q 2819 -91 2034 -91 
Q 1250 -91 836 529 
Q 422 1150 422 2328 
Q 422 3509 836 4129 
Q 1250 4750 2034 4750 
z
" transform="scale(0.015625)"/>
       <path id="DejaVuSans-2e" d="M 684 794 
L 1344 794 
L 1344 0 
L 684 0 
L 684 794 
z
" transform="scale(0.015625)"/>
       <path id="DejaVuSans-35" d="M 691 4666 
L 3169 4666 
L 3169 4134 
L 1269 4134 
L 1269 2991 
Q 1406 3038 1543 3061 
Q 1681 3084 1819 3084 
Q 2600 3084 3056 2656 
Q 3513 2228 3513 1497 
Q 3513 744 3044 326 
Q 2575 -91 1722 -91 
Q 1428 -91 1123 -41 
Q 819 9 494 109 
L 494 744 
Q 775 591 1075 516 
Q 1375 441 1709 441 
Q 2250 441 2565 725 
Q 2881 1009 2881 1497 
Q 2881 1984 2565 2268 
Q 2250 2553 1709 2553 
Q 1456 2553 1204 2497 
Q 953 2441 691 2322 
L 691 4666 
z
" transform="scale(0.015625)"/>
       <path id="DejaVuSans-3c" d="M 4684 3150 
L 1459 2003 
L 4684 863 
L 4684 294 
L 678 1747 
L 678 2266 
L 4684 3719 
L 4684 3150 
z
" transform="scale(0.015625)"/>
       <path id="DejaVuSans-Oblique-74" d="M 2706 3500 
L 2619 3053 
L 1472 3053 
L 1100 1153 
Q 1081 1047 1072 975 
Q 1063 903 1063 863 
Q 1063 663 1183 572 
Q 1303 481 1569 481 
L 2150 481 
L 2053 0 
L 1503 0 
Q 991 0 739 200 
Q 488 400 488 806 
Q 488 878 497 964 
Q 506 1050 525 1153 
L 897 3053 
L 409 3053 
L 500 3500 
L 978 3500 
L 1172 4494 
L 1747 4494 
L 1556 3500 
L 2706 3500 
z
" transform="scale(0.015625)"/>
      </defs>
      <use xlink:href="#DejaVuSans-2212" transform="translate(0 0.78125)"/>
      <use xlink:href="#DejaVuSans-30" transform="translate(83.789062 0.78125)"/>
      <use xlink:href="#DejaVuSans-2e" transform="translate(147.412109 0.78125)"/>
      <use xlink:href="#DejaVuSans-35" transform="translate(179.199219 0.78125)"/>
      <use xlink:href="#DejaVuSans-3c" transform="translate(262.304688 0.78125)"/>
      <use xlink:href="#DejaVuSans-Oblique-74" transform="translate(365.576172 0.78125)"/>
      <use xlink:href="#DejaVuSans-3c" transform="translate(424.267578 0.78125)"/>
      <use xlink:href="#DejaVuSans-30" transform="translate(527.539062 0.78125)"/>
     </g>
    </g>
    <g id="PathCollection_5">
     <g>
      <use xlink:href="#m1a90fc2338" x="208.457031" y="75.198125" style="fill: #55a868; stroke: #55a868; stroke-width: 0.3"/>
     </g>
    </g>
    <g id="text_16">
     <!-- $0. &lt; t &lt; 0.5$ -->
     <g style="fill: #262626" transform="translate(226.457031 77.823125)scale(0.1 -0.1)">
      <use xlink:href="#DejaVuSans-30" transform="translate(0 0.78125)"/>
      <use xlink:href="#DejaVuSans-2e" transform="translate(63.623047 0.78125)"/>
      <use xlink:href="#DejaVuSans-3c" transform="translate(134.375 0.78125)"/>
      <use xlink:href="#DejaVuSans-Oblique-74" transform="translate(237.646484 0.78125)"/>
      <use xlink:href="#DejaVuSans-3c" transform="translate(296.337891 0.78125)"/>
      <use xlink:href="#DejaVuSans-30" transform="translate(399.609375 0.78125)"/>
      <use xlink:href="#DejaVuSans-2e" transform="translate(463.232422 0.78125)"/>
      <use xlink:href="#DejaVuSans-35" transform="translate(495.019531 0.78125)"/>
     </g>
    </g>
    <g id="PathCollection_6">
     <g>
      <use xlink:href="#m5bafd2c421" x="208.457031" y="89.343438" style="fill: #c44e52; stroke: #c44e52; stroke-width: 0.3"/>
     </g>
    </g>
    <g id="text_17">
     <!-- $0.5 &lt; t &lt; 1.$ -->
     <g style="fill: #262626" transform="translate(226.457031 91.968438)scale(0.1 -0.1)">
      <defs>
       <path id="DejaVuSans-31" d="M 794 531 
L 1825 531 
L 1825 4091 
L 703 3866 
L 703 4441 
L 1819 4666 
L 2450 4666 
L 2450 531 
L 3481 531 
L 3481 0 
L 794 0 
L 794 531 
z
" transform="scale(0.015625)"/>
      </defs>
      <use xlink:href="#DejaVuSans-30" transform="translate(0 0.78125)"/>
      <use xlink:href="#DejaVuSans-2e" transform="translate(63.623047 0.78125)"/>
      <use xlink:href="#DejaVuSans-35" transform="translate(95.410156 0.78125)"/>
      <use xlink:href="#DejaVuSans-3c" transform="translate(178.515625 0.78125)"/>
      <use xlink:href="#DejaVuSans-Oblique-74" transform="translate(281.787109 0.78125)"/>
      <use xlink:href="#DejaVuSans-3c" transform="translate(340.478516 0.78125)"/>
      <use xlink:href="#DejaVuSans-31" transform="translate(443.75 0.78125)"/>
     </g>
    </g>
    <g id="line2d_15">
     <path d="M 198.457031 102.643438 
L 208.457031 102.643438 
L 218.457031 102.643438 
" style="fill: none; stroke-dasharray: 7.4,3.2; stroke-dashoffset: 0; stroke: #ff0000; stroke-width: 2"/>
    </g>
    <g id="text_18">
     <!-- Average angle in light: 24.81 degrees -->
     <g style="fill: #262626" transform="translate(226.457031 106.143438)scale(0.1 -0.1)">
      <defs>
       <path id="ArialMT-41" d="M -9 0 
L 1750 4581 
L 2403 4581 
L 4278 0 
L 3588 0 
L 3053 1388 
L 1138 1388 
L 634 0 
L -9 0 
z
M 1313 1881 
L 2866 1881 
L 2388 3150 
Q 2169 3728 2063 4100 
Q 1975 3659 1816 3225 
L 1313 1881 
z
" transform="scale(0.015625)"/>
       <path id="ArialMT-61" d="M 2588 409 
Q 2275 144 1986 34 
Q 1697 -75 1366 -75 
Q 819 -75 525 192 
Q 231 459 231 875 
Q 231 1119 342 1320 
Q 453 1522 633 1644 
Q 813 1766 1038 1828 
Q 1203 1872 1538 1913 
Q 2219 1994 2541 2106 
Q 2544 2222 2544 2253 
Q 2544 2597 2384 2738 
Q 2169 2928 1744 2928 
Q 1347 2928 1158 2789 
Q 969 2650 878 2297 
L 328 2372 
Q 403 2725 575 2942 
Q 747 3159 1072 3276 
Q 1397 3394 1825 3394 
Q 2250 3394 2515 3294 
Q 2781 3194 2906 3042 
Q 3031 2891 3081 2659 
Q 3109 2516 3109 2141 
L 3109 1391 
Q 3109 606 3145 398 
Q 3181 191 3288 0 
L 2700 0 
Q 2613 175 2588 409 
z
M 2541 1666 
Q 2234 1541 1622 1453 
Q 1275 1403 1131 1340 
Q 988 1278 909 1158 
Q 831 1038 831 891 
Q 831 666 1001 516 
Q 1172 366 1500 366 
Q 1825 366 2078 508 
Q 2331 650 2450 897 
Q 2541 1088 2541 1459 
L 2541 1666 
z
" transform="scale(0.015625)"/>
       <path id="ArialMT-67" d="M 319 -275 
L 866 -356 
Q 900 -609 1056 -725 
Q 1266 -881 1628 -881 
Q 2019 -881 2231 -725 
Q 2444 -569 2519 -288 
Q 2563 -116 2559 434 
Q 2191 0 1641 0 
Q 956 0 581 494 
Q 206 988 206 1678 
Q 206 2153 378 2554 
Q 550 2956 876 3175 
Q 1203 3394 1644 3394 
Q 2231 3394 2613 2919 
L 2613 3319 
L 3131 3319 
L 3131 450 
Q 3131 -325 2973 -648 
Q 2816 -972 2473 -1159 
Q 2131 -1347 1631 -1347 
Q 1038 -1347 672 -1080 
Q 306 -813 319 -275 
z
M 784 1719 
Q 784 1066 1043 766 
Q 1303 466 1694 466 
Q 2081 466 2343 764 
Q 2606 1063 2606 1700 
Q 2606 2309 2336 2618 
Q 2066 2928 1684 2928 
Q 1309 2928 1046 2623 
Q 784 2319 784 1719 
z
" transform="scale(0.015625)"/>
       <path id="ArialMT-3a" d="M 578 2678 
L 578 3319 
L 1219 3319 
L 1219 2678 
L 578 2678 
z
M 578 0 
L 578 641 
L 1219 641 
L 1219 0 
L 578 0 
z
" transform="scale(0.015625)"/>
      </defs>
      <use xlink:href="#ArialMT-41"/>
      <use xlink:href="#ArialMT-76" x="64.949219"/>
      <use xlink:href="#ArialMT-65" x="114.949219"/>
      <use xlink:href="#ArialMT-72" x="170.564453"/>
      <use xlink:href="#ArialMT-61" x="203.865234"/>
      <use xlink:href="#ArialMT-67" x="259.480469"/>
      <use xlink:href="#ArialMT-65" x="315.095703"/>
      <use xlink:href="#ArialMT-20" x="370.710938"/>
      <use xlink:href="#ArialMT-61" x="398.494141"/>
      <use xlink:href="#ArialMT-6e" x="454.109375"/>
      <use xlink:href="#ArialMT-67" x="509.724609"/>
      <use xlink:href="#ArialMT-6c" x="565.339844"/>
      <use xlink:href="#ArialMT-65" x="587.556641"/>
      <use xlink:href="#ArialMT-20" x="643.171875"/>
      <use xlink:href="#ArialMT-69" x="670.955078"/>
      <use xlink:href="#ArialMT-6e" x="693.171875"/>
      <use xlink:href="#ArialMT-20" x="748.787109"/>
      <use xlink:href="#ArialMT-6c" x="776.570312"/>
      <use xlink:href="#ArialMT-69" x="798.787109"/>
      <use xlink:href="#ArialMT-67" x="821.003906"/>
      <use xlink:href="#ArialMT-68" x="876.619141"/>
      <use xlink:href="#ArialMT-74" x="932.234375"/>
      <use xlink:href="#ArialMT-3a" x="960.017578"/>
      <use xlink:href="#ArialMT-20" x="987.800781"/>
      <use xlink:href="#ArialMT-32" x="1015.583984"/>
      <use xlink:href="#ArialMT-34" x="1071.199219"/>
      <use xlink:href="#ArialMT-2e" x="1126.814453"/>
      <use xlink:href="#ArialMT-38" x="1154.597656"/>
      <use xlink:href="#ArialMT-31" x="1210.212891"/>
      <use xlink:href="#ArialMT-20" x="1265.828125"/>
      <use xlink:href="#ArialMT-64" x="1293.611328"/>
      <use xlink:href="#ArialMT-65" x="1349.226562"/>
      <use xlink:href="#ArialMT-67" x="1404.841797"/>
      <use xlink:href="#ArialMT-72" x="1460.457031"/>
      <use xlink:href="#ArialMT-65" x="1493.757812"/>
      <use xlink:href="#ArialMT-65" x="1549.373047"/>
      <use xlink:href="#ArialMT-73" x="1604.988281"/>
     </g>
    </g>
   </g>
  </g>
 </g>
 <defs>
  <clipPath id="p646a459f7b">
   <path d="M 447.66 199.98 
C 447.66 179.959136 443.716326 160.13295 436.054674 141.636084 
C 428.393021 123.139218 417.162388 106.331389 403.0055 92.1745 
C 388.848611 78.017612 372.040782 66.786979 353.543916 59.125326 
C 335.04705 51.463674 315.220864 47.52 295.2 47.52 
C 275.179136 47.52 255.35295 51.463674 236.856084 59.125326 
C 218.359218 66.786979 201.551389 78.017612 187.3945 92.1745 
C 173.237612 106.331389 162.006979 123.139218 154.345326 141.636084 
C 146.683674 160.13295 142.74 179.959136 142.74 199.98 
C 142.74 220.000864 146.683674 239.82705 154.345326 258.323916 
C 162.006979 276.820782 173.237612 293.628611 187.3945 307.7855 
C 201.551389 321.942388 218.359218 333.173021 236.856084 340.834674 
C 255.35295 348.496326 275.179136 352.44 295.2 352.44 
C 315.220864 352.44 335.04705 348.496326 353.543916 340.834674 
C 372.040782 333.173021 388.848611 321.942388 403.0055 307.7855 
C 417.162388 293.628611 428.393021 276.820782 436.054674 258.323916 
C 443.716326 239.82705 447.66 220.000864 447.66 199.98 
M 295.2 199.98 
C 295.2 199.98 295.2 199.98 295.2 199.98 
C 295.2 199.98 295.2 199.98 295.2 199.98 
C 295.2 199.98 295.2 199.98 295.2 199.98 
C 295.2 199.98 295.2 199.98 295.2 199.98 
C 295.2 199.98 295.2 199.98 295.2 199.98 
C 295.2 199.98 295.2 199.98 295.2 199.98 
C 295.2 199.98 295.2 199.98 295.2 199.98 
C 295.2 199.98 295.2 199.98 295.2 199.98 
C 295.2 199.98 295.2 199.98 295.2 199.98 
C 295.2 199.98 295.2 199.98 295.2 199.98 
C 295.2 199.98 295.2 199.98 295.2 199.98 
C 295.2 199.98 295.2 199.98 295.2 199.98 
C 295.2 199.98 295.2 199.98 295.2 199.98 
C 295.2 199.98 295.2 199.98 295.2 199.98 
C 295.2 199.98 295.2 199.98 295.2 199.98 
C 295.2 199.98 295.2 199.98 295.2 199.98 
M 447.66 199.98 
z
"/>
  </clipPath>
 </defs>
</svg>
