<?xml version="1.0" encoding="utf-8" standalone="no"?>
<!DOCTYPE svg PUBLIC "-//W3C//DTD SVG 1.1//EN"
  "http://www.w3.org/Graphics/SVG/1.1/DTD/svg11.dtd">
<svg xmlns:xlink="http://www.w3.org/1999/xlink" width="460.8pt" height="345.6pt" viewBox="0 0 460.8 345.6" xmlns="http://www.w3.org/2000/svg" version="1.1">
 <metadata>
  <rdf:RDF xmlns:dc="http://purl.org/dc/elements/1.1/" xmlns:cc="http://creativecommons.org/ns#" xmlns:rdf="http://www.w3.org/1999/02/22-rdf-syntax-ns#">
   <cc:Work>
    <dc:type rdf:resource="http://purl.org/dc/dcmitype/StillImage"/>
    <dc:date>2023-12-23T17:10:45.337876</dc:date>
    <dc:format>image/svg+xml</dc:format>
    <dc:creator>
     <cc:Agent>
      <dc:title>Matplotlib v3.7.4, https://matplotlib.org/</dc:title>
     </cc:Agent>
    </dc:creator>
   </cc:Work>
  </rdf:RDF>
 </metadata>
 <defs>
  <style type="text/css">*{stroke-linejoin: round; stroke-linecap: butt}</style>
 </defs>
 <g id="figure_1">
  <g id="patch_1">
   <path d="M 0 345.6 
L 460.8 345.6 
L 460.8 0 
L 0 0 
z
" style="fill: #ffffff"/>
  </g>
  <g id="axes_1">
   <g id="patch_2">
    <path d="M 369.216 174.528 
C 369.216 157.055246 365.774248 139.752393 359.087715 123.609673 
C 352.401182 107.466954 342.599903 92.798303 330.2448 80.4432 
C 317.889697 68.088097 303.221046 58.286818 287.078327 51.600285 
C 270.935607 44.913752 253.632754 41.472 236.16 41.472 
C 218.687246 41.472 201.384393 44.913752 185.241673 51.600285 
C 169.098954 58.286818 154.430303 68.088097 142.0752 80.4432 
C 129.720097 92.798303 119.918818 107.466954 113.232285 123.609673 
C 106.545752 139.752393 103.104 157.055246 103.104 174.528 
C 103.104 192.000754 106.545752 209.303607 113.232285 225.446327 
C 119.918818 241.589046 129.720097 256.257697 142.0752 268.6128 
C 154.430303 280.967903 169.098954 290.769182 185.241673 297.455715 
C 201.384393 304.142248 218.687246 307.584 236.16 307.584 
C 253.632754 307.584 270.935607 304.142248 287.078327 297.455715 
C 303.221046 290.769182 317.889697 280.967903 330.2448 268.6128 
C 342.599903 256.257697 352.401182 241.589046 359.087715 225.446327 
C 365.774248 209.303607 369.216 192.000754 369.216 174.528 
M 236.16 174.528 
C 236.16 174.528 236.16 174.528 236.16 174.528 
C 236.16 174.528 236.16 174.528 236.16 174.528 
C 236.16 174.528 236.16 174.528 236.16 174.528 
C 236.16 174.528 236.16 174.528 236.16 174.528 
C 236.16 174.528 236.16 174.528 236.16 174.528 
C 236.16 174.528 236.16 174.528 236.16 174.528 
C 236.16 174.528 236.16 174.528 236.16 174.528 
C 236.16 174.528 236.16 174.528 236.16 174.528 
C 236.16 174.528 236.16 174.528 236.16 174.528 
C 236.16 174.528 236.16 174.528 236.16 174.528 
C 236.16 174.528 236.16 174.528 236.16 174.528 
C 236.16 174.528 236.16 174.528 236.16 174.528 
C 236.16 174.528 236.16 174.528 236.16 174.528 
C 236.16 174.528 236.16 174.528 236.16 174.528 
C 236.16 174.528 236.16 174.528 236.16 174.528 
C 236.16 174.528 236.16 174.528 236.16 174.528 
z
" style="fill: #ffffff"/>
   </g>
   <g id="PathCollection_1">
    <defs>
     <path id="ma82e659742" d="M 0 3 
C 0.795609 3 1.55874 2.683901 2.12132 2.12132 
C 2.683901 1.55874 3 0.795609 3 0 
C 3 -0.795609 2.683901 -1.55874 2.12132 -2.12132 
C 1.55874 -2.683901 0.795609 -3 0 -3 
C -0.795609 -3 -1.55874 -2.683901 -2.12132 -2.12132 
C -2.683901 -1.55874 -3 -0.795609 -3 0 
C -3 0.795609 -2.683901 1.55874 -2.12132 2.12132 
C -1.55874 2.683901 -0.795609 3 0 3 
z
" style="stroke: #1f77b4"/>
    </defs>
    <g clip-path="url(#pcf6d137ebd)">
     <use xlink:href="#ma82e659742" x="179.580997" y="191.54438" style="fill: #1f77b4; stroke: #1f77b4"/>
     <use xlink:href="#ma82e659742" x="175.577702" y="198.585674" style="fill: #1f77b4; stroke: #1f77b4"/>
     <use xlink:href="#ma82e659742" x="154.828953" y="229.285937" style="fill: #1f77b4; stroke: #1f77b4"/>
     <use xlink:href="#ma82e659742" x="162.301845" y="250.018534" style="fill: #1f77b4; stroke: #1f77b4"/>
     <use xlink:href="#ma82e659742" x="176.333235" y="226.256579" style="fill: #1f77b4; stroke: #1f77b4"/>
     <use xlink:href="#ma82e659742" x="184.683257" y="209.168693" style="fill: #1f77b4; stroke: #1f77b4"/>
     <use xlink:href="#ma82e659742" x="198.400089" y="209.303821" style="fill: #1f77b4; stroke: #1f77b4"/>
     <use xlink:href="#ma82e659742" x="217.467425" y="197.65621" style="fill: #1f77b4; stroke: #1f77b4"/>
     <use xlink:href="#ma82e659742" x="197.871252" y="202.285006" style="fill: #1f77b4; stroke: #1f77b4"/>
     <use xlink:href="#ma82e659742" x="176.69286" y="210.175203" style="fill: #1f77b4; stroke: #1f77b4"/>
     <use xlink:href="#ma82e659742" x="174.072712" y="197.377954" style="fill: #1f77b4; stroke: #1f77b4"/>
     <use xlink:href="#ma82e659742" x="175.723836" y="191.517308" style="fill: #1f77b4; stroke: #1f77b4"/>
     <use xlink:href="#ma82e659742" x="179.951729" y="187.244262" style="fill: #1f77b4; stroke: #1f77b4"/>
     <use xlink:href="#ma82e659742" x="178.486926" y="167.634904" style="fill: #1f77b4; stroke: #1f77b4"/>
     <use xlink:href="#ma82e659742" x="173.50325" y="169.345317" style="fill: #1f77b4; stroke: #1f77b4"/>
     <use xlink:href="#ma82e659742" x="146.320393" y="197.520282" style="fill: #1f77b4; stroke: #1f77b4"/>
     <use xlink:href="#ma82e659742" x="152.675537" y="197.615673" style="fill: #1f77b4; stroke: #1f77b4"/>
     <use xlink:href="#ma82e659742" x="167.591994" y="190.603512" style="fill: #1f77b4; stroke: #1f77b4"/>
     <use xlink:href="#ma82e659742" x="180.755117" y="178.364711" style="fill: #1f77b4; stroke: #1f77b4"/>
     <use xlink:href="#ma82e659742" x="183.140761" y="173.037874" style="fill: #1f77b4; stroke: #1f77b4"/>
     <use xlink:href="#ma82e659742" x="198.628976" y="166.147029" style="fill: #1f77b4; stroke: #1f77b4"/>
     <use xlink:href="#ma82e659742" x="191.995656" y="155.611921" style="fill: #1f77b4; stroke: #1f77b4"/>
     <use xlink:href="#ma82e659742" x="196.964209" y="169.935097" style="fill: #1f77b4; stroke: #1f77b4"/>
     <use xlink:href="#ma82e659742" x="213.073819" y="177.544828" style="fill: #1f77b4; stroke: #1f77b4"/>
    </g>
   </g>
   <g id="PathCollection_2">
    <defs>
     <path id="mf454bee95e" d="M 0 3 
C 0.795609 3 1.55874 2.683901 2.12132 2.12132 
C 2.683901 1.55874 3 0.795609 3 0 
C 3 -0.795609 2.683901 -1.55874 2.12132 -2.12132 
C 1.55874 -2.683901 0.795609 -3 0 -3 
C -0.795609 -3 -1.55874 -2.683901 -2.12132 -2.12132 
C -2.683901 -1.55874 -3 -0.795609 -3 0 
C -3 0.795609 -2.683901 1.55874 -2.12132 2.12132 
C -1.55874 2.683901 -0.795609 3 0 3 
z
" style="stroke: #ff7f0e"/>
    </defs>
    <g clip-path="url(#pcf6d137ebd)">
     <use xlink:href="#mf454bee95e" x="197.4993" y="186.289199" style="fill: #ff7f0e; stroke: #ff7f0e"/>
     <use xlink:href="#mf454bee95e" x="179.807054" y="183.370877" style="fill: #ff7f0e; stroke: #ff7f0e"/>
     <use xlink:href="#mf454bee95e" x="188.97105" y="193.755073" style="fill: #ff7f0e; stroke: #ff7f0e"/>
     <use xlink:href="#mf454bee95e" x="199.78331" y="199.204601" style="fill: #ff7f0e; stroke: #ff7f0e"/>
     <use xlink:href="#mf454bee95e" x="211.795838" y="201.901152" style="fill: #ff7f0e; stroke: #ff7f0e"/>
     <use xlink:href="#mf454bee95e" x="240.374175" y="165.806501" style="fill: #ff7f0e; stroke: #ff7f0e"/>
     <use xlink:href="#mf454bee95e" x="233.029168" y="154.280614" style="fill: #ff7f0e; stroke: #ff7f0e"/>
     <use xlink:href="#mf454bee95e" x="232.674411" y="164.008455" style="fill: #ff7f0e; stroke: #ff7f0e"/>
     <use xlink:href="#mf454bee95e" x="221.959374" y="170.546261" style="fill: #ff7f0e; stroke: #ff7f0e"/>
     <use xlink:href="#mf454bee95e" x="215.846842" y="183.022867" style="fill: #ff7f0e; stroke: #ff7f0e"/>
     <use xlink:href="#mf454bee95e" x="212.69981" y="186.970557" style="fill: #ff7f0e; stroke: #ff7f0e"/>
     <use xlink:href="#mf454bee95e" x="221.873094" y="172.516898" style="fill: #ff7f0e; stroke: #ff7f0e"/>
     <use xlink:href="#mf454bee95e" x="207.927084" y="164.357734" style="fill: #ff7f0e; stroke: #ff7f0e"/>
     <use xlink:href="#mf454bee95e" x="205.798969" y="173.84646" style="fill: #ff7f0e; stroke: #ff7f0e"/>
     <use xlink:href="#mf454bee95e" x="200.363316" y="182.684407" style="fill: #ff7f0e; stroke: #ff7f0e"/>
     <use xlink:href="#mf454bee95e" x="220.683399" y="171.965063" style="fill: #ff7f0e; stroke: #ff7f0e"/>
     <use xlink:href="#mf454bee95e" x="213.21096" y="182.782287" style="fill: #ff7f0e; stroke: #ff7f0e"/>
     <use xlink:href="#mf454bee95e" x="207.790105" y="188.405591" style="fill: #ff7f0e; stroke: #ff7f0e"/>
     <use xlink:href="#mf454bee95e" x="206.81862" y="200.934289" style="fill: #ff7f0e; stroke: #ff7f0e"/>
     <use xlink:href="#mf454bee95e" x="201.380684" y="201.740784" style="fill: #ff7f0e; stroke: #ff7f0e"/>
     <use xlink:href="#mf454bee95e" x="214.151069" y="179.37078" style="fill: #ff7f0e; stroke: #ff7f0e"/>
     <use xlink:href="#mf454bee95e" x="209.699013" y="169.470843" style="fill: #ff7f0e; stroke: #ff7f0e"/>
     <use xlink:href="#mf454bee95e" x="218.709846" y="153.861807" style="fill: #ff7f0e; stroke: #ff7f0e"/>
     <use xlink:href="#mf454bee95e" x="208.150391" y="157.032515" style="fill: #ff7f0e; stroke: #ff7f0e"/>
    </g>
   </g>
   <g id="PathCollection_3">
    <defs>
     <path id="m3a016fec39" d="M 0 3 
C 0.795609 3 1.55874 2.683901 2.12132 2.12132 
C 2.683901 1.55874 3 0.795609 3 0 
C 3 -0.795609 2.683901 -1.55874 2.12132 -2.12132 
C 1.55874 -2.683901 0.795609 -3 0 -3 
C -0.795609 -3 -1.55874 -2.683901 -2.12132 -2.12132 
C -2.683901 -1.55874 -3 -0.795609 -3 0 
C -3 0.795609 -2.683901 1.55874 -2.12132 2.12132 
C -1.55874 2.683901 -0.795609 3 0 3 
z
" style="stroke: #2ca02c"/>
    </defs>
    <g clip-path="url(#pcf6d137ebd)">
     <use xlink:href="#m3a016fec39" x="203.9587" y="169.329418" style="fill: #2ca02c; stroke: #2ca02c"/>
     <use xlink:href="#m3a016fec39" x="224.246981" y="156.148724" style="fill: #2ca02c; stroke: #2ca02c"/>
     <use xlink:href="#m3a016fec39" x="257.016231" y="141.285117" style="fill: #2ca02c; stroke: #2ca02c"/>
     <use xlink:href="#m3a016fec39" x="275.90991" y="132.829345" style="fill: #2ca02c; stroke: #2ca02c"/>
     <use xlink:href="#m3a016fec39" x="242.225233" y="145.102172" style="fill: #2ca02c; stroke: #2ca02c"/>
     <use xlink:href="#m3a016fec39" x="233.688204" y="149.7182" style="fill: #2ca02c; stroke: #2ca02c"/>
     <use xlink:href="#m3a016fec39" x="247.009741" y="159.739683" style="fill: #2ca02c; stroke: #2ca02c"/>
     <use xlink:href="#m3a016fec39" x="249.42722" y="160.107279" style="fill: #2ca02c; stroke: #2ca02c"/>
     <use xlink:href="#m3a016fec39" x="274.299089" y="155.781728" style="fill: #2ca02c; stroke: #2ca02c"/>
     <use xlink:href="#m3a016fec39" x="292.327477" y="155.22227" style="fill: #2ca02c; stroke: #2ca02c"/>
     <use xlink:href="#m3a016fec39" x="288.896052" y="155.211573" style="fill: #2ca02c; stroke: #2ca02c"/>
     <use xlink:href="#m3a016fec39" x="272.980423" y="165.161943" style="fill: #2ca02c; stroke: #2ca02c"/>
     <use xlink:href="#m3a016fec39" x="282.586421" y="158.270911" style="fill: #2ca02c; stroke: #2ca02c"/>
     <use xlink:href="#m3a016fec39" x="286.487318" y="153.14268" style="fill: #2ca02c; stroke: #2ca02c"/>
     <use xlink:href="#m3a016fec39" x="289.842856" y="160.073786" style="fill: #2ca02c; stroke: #2ca02c"/>
     <use xlink:href="#m3a016fec39" x="281.076658" y="180.503984" style="fill: #2ca02c; stroke: #2ca02c"/>
     <use xlink:href="#m3a016fec39" x="297.784353" y="178.946985" style="fill: #2ca02c; stroke: #2ca02c"/>
     <use xlink:href="#m3a016fec39" x="307.395104" y="168.468016" style="fill: #2ca02c; stroke: #2ca02c"/>
     <use xlink:href="#m3a016fec39" x="333.91539" y="159.896217" style="fill: #2ca02c; stroke: #2ca02c"/>
     <use xlink:href="#m3a016fec39" x="360.120422" y="148.226437" style="fill: #2ca02c; stroke: #2ca02c"/>
     <use xlink:href="#m3a016fec39" x="356.75111" y="153.363303" style="fill: #2ca02c; stroke: #2ca02c"/>
     <use xlink:href="#m3a016fec39" x="351.73239" y="146.696915" style="fill: #2ca02c; stroke: #2ca02c"/>
     <use xlink:href="#m3a016fec39" x="336.365665" y="146.518371" style="fill: #2ca02c; stroke: #2ca02c"/>
     <use xlink:href="#m3a016fec39" x="343.383207" y="154.497005" style="fill: #2ca02c; stroke: #2ca02c"/>
    </g>
   </g>
   <g id="matplotlib.axis_1">
    <g id="xtick_1">
     <g id="line2d_1">
      <path d="M 236.16 174.528 
L 369.216 174.528 
" clip-path="url(#pcf6d137ebd)" style="fill: none; stroke: #b0b0b0; stroke-width: 0.8; stroke-linecap: square"/>
     </g>
     <g id="text_1">
      <!-- 0° -->
      <g transform="translate(377.53475 177.287375) scale(0.1 -0.1)">
       <defs>
        <path id="DejaVuSans-30" d="M 2034 4250 
Q 1547 4250 1301 3770 
Q 1056 3291 1056 2328 
Q 1056 1369 1301 889 
Q 1547 409 2034 409 
Q 2525 409 2770 889 
Q 3016 1369 3016 2328 
Q 3016 3291 2770 3770 
Q 2525 4250 2034 4250 
z
M 2034 4750 
Q 2819 4750 3233 4129 
Q 3647 3509 3647 2328 
Q 3647 1150 3233 529 
Q 2819 -91 2034 -91 
Q 1250 -91 836 529 
Q 422 1150 422 2328 
Q 422 3509 836 4129 
Q 1250 4750 2034 4750 
z
" transform="scale(0.015625)"/>
        <path id="DejaVuSans-b0" d="M 1600 4347 
Q 1350 4347 1178 4173 
Q 1006 4000 1006 3750 
Q 1006 3503 1178 3333 
Q 1350 3163 1600 3163 
Q 1850 3163 2022 3333 
Q 2194 3503 2194 3750 
Q 2194 3997 2020 4172 
Q 1847 4347 1600 4347 
z
M 1600 4750 
Q 1800 4750 1984 4673 
Q 2169 4597 2303 4453 
Q 2447 4313 2519 4134 
Q 2591 3956 2591 3750 
Q 2591 3338 2302 3052 
Q 2013 2766 1594 2766 
Q 1172 2766 890 3047 
Q 609 3328 609 3750 
Q 609 4169 896 4459 
Q 1184 4750 1600 4750 
z
" transform="scale(0.015625)"/>
       </defs>
       <use xlink:href="#DejaVuSans-30"/>
       <use xlink:href="#DejaVuSans-b0" x="63.623047"/>
      </g>
     </g>
    </g>
    <g id="xtick_2">
     <g id="line2d_2">
      <path d="M 236.16 174.528 
L 330.2448 80.4432 
" clip-path="url(#pcf6d137ebd)" style="fill: none; stroke: #b0b0b0; stroke-width: 0.8; stroke-linecap: square"/>
     </g>
     <g id="text_2">
      <!-- 45° -->
      <g transform="translate(331.281795 73.30308) scale(0.1 -0.1)">
       <defs>
        <path id="DejaVuSans-34" d="M 2419 4116 
L 825 1625 
L 2419 1625 
L 2419 4116 
z
M 2253 4666 
L 3047 4666 
L 3047 1625 
L 3713 1625 
L 3713 1100 
L 3047 1100 
L 3047 0 
L 2419 0 
L 2419 1100 
L 313 1100 
L 313 1709 
L 2253 4666 
z
" transform="scale(0.015625)"/>
        <path id="DejaVuSans-35" d="M 691 4666 
L 3169 4666 
L 3169 4134 
L 1269 4134 
L 1269 2991 
Q 1406 3038 1543 3061 
Q 1681 3084 1819 3084 
Q 2600 3084 3056 2656 
Q 3513 2228 3513 1497 
Q 3513 744 3044 326 
Q 2575 -91 1722 -91 
Q 1428 -91 1123 -41 
Q 819 9 494 109 
L 494 744 
Q 775 591 1075 516 
Q 1375 441 1709 441 
Q 2250 441 2565 725 
Q 2881 1009 2881 1497 
Q 2881 1984 2565 2268 
Q 2250 2553 1709 2553 
Q 1456 2553 1204 2497 
Q 953 2441 691 2322 
L 691 4666 
z
" transform="scale(0.015625)"/>
       </defs>
       <use xlink:href="#DejaVuSans-34"/>
       <use xlink:href="#DejaVuSans-35" x="63.623047"/>
       <use xlink:href="#DejaVuSans-b0" x="127.246094"/>
      </g>
     </g>
    </g>
    <g id="xtick_3">
     <g id="line2d_3">
      <path d="M 236.16 174.528 
L 236.16 41.472 
" clip-path="url(#pcf6d137ebd)" style="fill: none; stroke: #b0b0b0; stroke-width: 0.8; stroke-linecap: square"/>
     </g>
     <g id="text_3">
      <!-- 90° -->
      <g transform="translate(227.2975 30.231375) scale(0.1 -0.1)">
       <defs>
        <path id="DejaVuSans-39" d="M 703 97 
L 703 672 
Q 941 559 1184 500 
Q 1428 441 1663 441 
Q 2288 441 2617 861 
Q 2947 1281 2994 2138 
Q 2813 1869 2534 1725 
Q 2256 1581 1919 1581 
Q 1219 1581 811 2004 
Q 403 2428 403 3163 
Q 403 3881 828 4315 
Q 1253 4750 1959 4750 
Q 2769 4750 3195 4129 
Q 3622 3509 3622 2328 
Q 3622 1225 3098 567 
Q 2575 -91 1691 -91 
Q 1453 -91 1209 -44 
Q 966 3 703 97 
z
M 1959 2075 
Q 2384 2075 2632 2365 
Q 2881 2656 2881 3163 
Q 2881 3666 2632 3958 
Q 2384 4250 1959 4250 
Q 1534 4250 1286 3958 
Q 1038 3666 1038 3163 
Q 1038 2656 1286 2365 
Q 1534 2075 1959 2075 
z
" transform="scale(0.015625)"/>
       </defs>
       <use xlink:href="#DejaVuSans-39"/>
       <use xlink:href="#DejaVuSans-30" x="63.623047"/>
       <use xlink:href="#DejaVuSans-b0" x="127.246094"/>
      </g>
     </g>
    </g>
    <g id="xtick_4">
     <g id="line2d_4">
      <path d="M 236.16 174.528 
L 142.0752 80.4432 
" clip-path="url(#pcf6d137ebd)" style="fill: none; stroke: #b0b0b0; stroke-width: 0.8; stroke-linecap: square"/>
     </g>
     <g id="text_4">
      <!-- 135° -->
      <g transform="translate(120.131955 73.30308) scale(0.1 -0.1)">
       <defs>
        <path id="DejaVuSans-31" d="M 794 531 
L 1825 531 
L 1825 4091 
L 703 3866 
L 703 4441 
L 1819 4666 
L 2450 4666 
L 2450 531 
L 3481 531 
L 3481 0 
L 794 0 
L 794 531 
z
" transform="scale(0.015625)"/>
        <path id="DejaVuSans-33" d="M 2597 2516 
Q 3050 2419 3304 2112 
Q 3559 1806 3559 1356 
Q 3559 666 3084 287 
Q 2609 -91 1734 -91 
Q 1441 -91 1130 -33 
Q 819 25 488 141 
L 488 750 
Q 750 597 1062 519 
Q 1375 441 1716 441 
Q 2309 441 2620 675 
Q 2931 909 2931 1356 
Q 2931 1769 2642 2001 
Q 2353 2234 1838 2234 
L 1294 2234 
L 1294 2753 
L 1863 2753 
Q 2328 2753 2575 2939 
Q 2822 3125 2822 3475 
Q 2822 3834 2567 4026 
Q 2313 4219 1838 4219 
Q 1578 4219 1281 4162 
Q 984 4106 628 3988 
L 628 4550 
Q 988 4650 1302 4700 
Q 1616 4750 1894 4750 
Q 2613 4750 3031 4423 
Q 3450 4097 3450 3541 
Q 3450 3153 3228 2886 
Q 3006 2619 2597 2516 
z
" transform="scale(0.015625)"/>
       </defs>
       <use xlink:href="#DejaVuSans-31"/>
       <use xlink:href="#DejaVuSans-33" x="63.623047"/>
       <use xlink:href="#DejaVuSans-35" x="127.246094"/>
       <use xlink:href="#DejaVuSans-b0" x="190.869141"/>
      </g>
     </g>
    </g>
    <g id="xtick_5">
     <g id="line2d_5">
      <path d="M 236.16 174.528 
L 103.104 174.528 
" clip-path="url(#pcf6d137ebd)" style="fill: none; stroke: #b0b0b0; stroke-width: 0.8; stroke-linecap: square"/>
     </g>
     <g id="text_5">
      <!-- 180° -->
      <g transform="translate(77.06025 177.287375) scale(0.1 -0.1)">
       <defs>
        <path id="DejaVuSans-38" d="M 2034 2216 
Q 1584 2216 1326 1975 
Q 1069 1734 1069 1313 
Q 1069 891 1326 650 
Q 1584 409 2034 409 
Q 2484 409 2743 651 
Q 3003 894 3003 1313 
Q 3003 1734 2745 1975 
Q 2488 2216 2034 2216 
z
M 1403 2484 
Q 997 2584 770 2862 
Q 544 3141 544 3541 
Q 544 4100 942 4425 
Q 1341 4750 2034 4750 
Q 2731 4750 3128 4425 
Q 3525 4100 3525 3541 
Q 3525 3141 3298 2862 
Q 3072 2584 2669 2484 
Q 3125 2378 3379 2068 
Q 3634 1759 3634 1313 
Q 3634 634 3220 271 
Q 2806 -91 2034 -91 
Q 1263 -91 848 271 
Q 434 634 434 1313 
Q 434 1759 690 2068 
Q 947 2378 1403 2484 
z
M 1172 3481 
Q 1172 3119 1398 2916 
Q 1625 2713 2034 2713 
Q 2441 2713 2670 2916 
Q 2900 3119 2900 3481 
Q 2900 3844 2670 4047 
Q 2441 4250 2034 4250 
Q 1625 4250 1398 4047 
Q 1172 3844 1172 3481 
z
" transform="scale(0.015625)"/>
       </defs>
       <use xlink:href="#DejaVuSans-31"/>
       <use xlink:href="#DejaVuSans-38" x="63.623047"/>
       <use xlink:href="#DejaVuSans-30" x="127.246094"/>
       <use xlink:href="#DejaVuSans-b0" x="190.869141"/>
      </g>
     </g>
    </g>
    <g id="xtick_6">
     <g id="line2d_6">
      <path d="M 236.16 174.528 
L 142.0752 268.6128 
" clip-path="url(#pcf6d137ebd)" style="fill: none; stroke: #b0b0b0; stroke-width: 0.8; stroke-linecap: square"/>
     </g>
     <g id="text_6">
      <!-- 225° -->
      <g transform="translate(120.131955 281.27167) scale(0.1 -0.1)">
       <defs>
        <path id="DejaVuSans-32" d="M 1228 531 
L 3431 531 
L 3431 0 
L 469 0 
L 469 531 
Q 828 903 1448 1529 
Q 2069 2156 2228 2338 
Q 2531 2678 2651 2914 
Q 2772 3150 2772 3378 
Q 2772 3750 2511 3984 
Q 2250 4219 1831 4219 
Q 1534 4219 1204 4116 
Q 875 4013 500 3803 
L 500 4441 
Q 881 4594 1212 4672 
Q 1544 4750 1819 4750 
Q 2544 4750 2975 4387 
Q 3406 4025 3406 3419 
Q 3406 3131 3298 2873 
Q 3191 2616 2906 2266 
Q 2828 2175 2409 1742 
Q 1991 1309 1228 531 
z
" transform="scale(0.015625)"/>
       </defs>
       <use xlink:href="#DejaVuSans-32"/>
       <use xlink:href="#DejaVuSans-32" x="63.623047"/>
       <use xlink:href="#DejaVuSans-35" x="127.246094"/>
       <use xlink:href="#DejaVuSans-b0" x="190.869141"/>
      </g>
     </g>
    </g>
    <g id="xtick_7">
     <g id="line2d_7">
      <path d="M 236.16 174.528 
L 236.16 307.584 
" clip-path="url(#pcf6d137ebd)" style="fill: none; stroke: #b0b0b0; stroke-width: 0.8; stroke-linecap: square"/>
     </g>
     <g id="text_7">
      <!-- 270° -->
      <g transform="translate(224.11625 324.343375) scale(0.1 -0.1)">
       <defs>
        <path id="DejaVuSans-37" d="M 525 4666 
L 3525 4666 
L 3525 4397 
L 1831 0 
L 1172 0 
L 2766 4134 
L 525 4134 
L 525 4666 
z
" transform="scale(0.015625)"/>
       </defs>
       <use xlink:href="#DejaVuSans-32"/>
       <use xlink:href="#DejaVuSans-37" x="63.623047"/>
       <use xlink:href="#DejaVuSans-30" x="127.246094"/>
       <use xlink:href="#DejaVuSans-b0" x="190.869141"/>
      </g>
     </g>
    </g>
    <g id="xtick_8">
     <g id="line2d_8">
      <path d="M 236.16 174.528 
L 330.2448 268.6128 
" clip-path="url(#pcf6d137ebd)" style="fill: none; stroke: #b0b0b0; stroke-width: 0.8; stroke-linecap: square"/>
     </g>
     <g id="text_8">
      <!-- 315° -->
      <g transform="translate(328.100545 281.27167) scale(0.1 -0.1)">
       <use xlink:href="#DejaVuSans-33"/>
       <use xlink:href="#DejaVuSans-31" x="63.623047"/>
       <use xlink:href="#DejaVuSans-35" x="127.246094"/>
       <use xlink:href="#DejaVuSans-b0" x="190.869141"/>
      </g>
     </g>
    </g>
   </g>
   <g id="matplotlib.axis_2">
    <g id="ytick_1">
     <g id="line2d_9">
      <path d="M 263.177146 174.528 
C 263.177146 170.980141 262.478295 167.46678 261.120588 164.188986 
C 259.762881 160.911192 257.772722 157.932708 255.264007 155.423993 
C 252.755292 152.915278 249.776808 150.925119 246.499014 149.567412 
C 243.22122 148.209705 239.707859 147.510854 236.16 147.510854 
C 232.612141 147.510854 229.09878 148.209705 225.820986 149.567412 
C 222.543192 150.925119 219.564708 152.915278 217.055993 155.423993 
C 214.547278 157.932708 212.557119 160.911192 211.199412 164.188986 
C 209.841705 167.46678 209.142854 170.980141 209.142854 174.528 
C 209.142854 178.075859 209.841705 181.58922 211.199412 184.867014 
C 212.557119 188.144808 214.547278 191.123292 217.055993 193.632007 
C 219.564708 196.140722 222.543192 198.130881 225.820986 199.488588 
C 229.09878 200.846295 232.612141 201.545146 236.16 201.545146 
C 239.707859 201.545146 243.22122 200.846295 246.499014 199.488588 
C 249.776808 198.130881 252.755292 196.140722 255.264007 193.632007 
C 257.772722 191.123292 259.762881 188.144808 261.120588 184.867014 
C 262.478295 181.58922 263.177146 178.075859 263.177146 174.528 
" clip-path="url(#pcf6d137ebd)" style="fill: none; stroke: #b0b0b0; stroke-width: 0.8; stroke-linecap: square"/>
     </g>
     <g id="text_9">
      <!-- 0.05 -->
      <g transform="translate(261.120588 162.109298) scale(0.1 -0.1)">
       <defs>
        <path id="DejaVuSans-2e" d="M 684 794 
L 1344 794 
L 1344 0 
L 684 0 
L 684 794 
z
" transform="scale(0.015625)"/>
       </defs>
       <use xlink:href="#DejaVuSans-30"/>
       <use xlink:href="#DejaVuSans-2e" x="63.623047"/>
       <use xlink:href="#DejaVuSans-30" x="95.410156"/>
       <use xlink:href="#DejaVuSans-35" x="159.033203"/>
      </g>
     </g>
    </g>
    <g id="ytick_2">
     <g id="line2d_10">
      <path d="M 290.194291 174.528 
C 290.194291 167.432282 288.796589 160.405561 286.081176 153.849972 
C 283.365762 147.294383 279.385444 141.337417 274.368014 136.319986 
C 269.350583 131.302556 263.393617 127.322238 256.838028 124.606824 
C 250.282439 121.891411 243.255718 120.493709 236.16 120.493709 
C 229.064282 120.493709 222.037561 121.891411 215.481972 124.606824 
C 208.926383 127.322238 202.969417 131.302556 197.951986 136.319986 
C 192.934556 141.337417 188.954238 147.294383 186.238824 153.849972 
C 183.523411 160.405561 182.125709 167.432282 182.125709 174.528 
C 182.125709 181.623718 183.523411 188.650439 186.238824 195.206028 
C 188.954238 201.761617 192.934556 207.718583 197.951986 212.736014 
C 202.969417 217.753444 208.926383 221.733762 215.481972 224.449176 
C 222.037561 227.164589 229.064282 228.562291 236.16 228.562291 
C 243.255718 228.562291 250.282439 227.164589 256.838028 224.449176 
C 263.393617 221.733762 269.350583 217.753444 274.368014 212.736014 
C 279.385444 207.718583 283.365762 201.761617 286.081176 195.206028 
C 288.796589 188.650439 290.194291 181.623718 290.194291 174.528 
" clip-path="url(#pcf6d137ebd)" style="fill: none; stroke: #b0b0b0; stroke-width: 0.8; stroke-linecap: square"/>
     </g>
     <g id="text_10">
      <!-- 0.10 -->
      <g transform="translate(286.081176 151.770284) scale(0.1 -0.1)">
       <use xlink:href="#DejaVuSans-30"/>
       <use xlink:href="#DejaVuSans-2e" x="63.623047"/>
       <use xlink:href="#DejaVuSans-31" x="95.410156"/>
       <use xlink:href="#DejaVuSans-30" x="159.033203"/>
      </g>
     </g>
    </g>
    <g id="ytick_3">
     <g id="line2d_11">
      <path d="M 317.211437 174.528 
C 317.211437 163.884423 315.114884 153.344341 311.041764 143.510958 
C 306.968643 133.677575 300.998166 124.742125 293.472021 117.215979 
C 285.945875 109.689834 277.010425 103.719357 267.177042 99.646236 
C 257.343659 95.573116 246.803577 93.476563 236.16 93.476563 
C 225.516423 93.476563 214.976341 95.573116 205.142958 99.646236 
C 195.309575 103.719357 186.374125 109.689834 178.847979 117.215979 
C 171.321834 124.742125 165.351357 133.677575 161.278236 143.510958 
C 157.205116 153.344341 155.108563 163.884423 155.108563 174.528 
C 155.108563 185.171577 157.205116 195.711659 161.278236 205.545042 
C 165.351357 215.378425 171.321834 224.313875 178.847979 231.840021 
C 186.374125 239.366166 195.309575 245.336643 205.142958 249.409764 
C 214.976341 253.482884 225.516423 255.579437 236.16 255.579437 
C 246.803577 255.579437 257.343659 253.482884 267.177042 249.409764 
C 277.010425 245.336643 285.945875 239.366166 293.472021 231.840021 
C 300.998166 224.313875 306.968643 215.378425 311.041764 205.545042 
C 315.114884 195.711659 317.211437 185.171577 317.211437 174.528 
" clip-path="url(#pcf6d137ebd)" style="fill: none; stroke: #b0b0b0; stroke-width: 0.8; stroke-linecap: square"/>
     </g>
     <g id="text_11">
      <!-- 0.15 -->
      <g transform="translate(311.041764 141.43127) scale(0.1 -0.1)">
       <use xlink:href="#DejaVuSans-30"/>
       <use xlink:href="#DejaVuSans-2e" x="63.623047"/>
       <use xlink:href="#DejaVuSans-31" x="95.410156"/>
       <use xlink:href="#DejaVuSans-35" x="159.033203"/>
      </g>
     </g>
    </g>
    <g id="ytick_4">
     <g id="line2d_12">
      <path d="M 344.228582 174.528 
C 344.228582 160.336564 341.433179 146.283121 336.002351 133.171944 
C 330.571524 120.060767 322.610888 108.146833 312.576027 98.111973 
C 302.541167 88.077112 290.627233 80.116476 277.516056 74.685649 
C 264.404879 69.254821 250.351436 66.459418 236.16 66.459418 
C 221.968564 66.459418 207.915121 69.254821 194.803944 74.685649 
C 181.692767 80.116476 169.778833 88.077112 159.743973 98.111973 
C 149.709112 108.146833 141.748476 120.060767 136.317649 133.171944 
C 130.886821 146.283121 128.091418 160.336564 128.091418 174.528 
C 128.091418 188.719436 130.886821 202.772879 136.317649 215.884056 
C 141.748476 228.995233 149.709112 240.909167 159.743973 250.944027 
C 169.778833 260.978888 181.692767 268.939524 194.803944 274.370351 
C 207.915121 279.801179 221.968564 282.596582 236.16 282.596582 
C 250.351436 282.596582 264.404879 279.801179 277.516056 274.370351 
C 290.627233 268.939524 302.541167 260.978888 312.576027 250.944027 
C 322.610888 240.909167 330.571524 228.995233 336.002351 215.884056 
C 341.433179 202.772879 344.228582 188.719436 344.228582 174.528 
" clip-path="url(#pcf6d137ebd)" style="fill: none; stroke: #b0b0b0; stroke-width: 0.8; stroke-linecap: square"/>
     </g>
     <g id="text_12">
      <!-- 0.20 -->
      <g transform="translate(336.002351 131.092256) scale(0.1 -0.1)">
       <use xlink:href="#DejaVuSans-30"/>
       <use xlink:href="#DejaVuSans-2e" x="63.623047"/>
       <use xlink:href="#DejaVuSans-32" x="95.410156"/>
       <use xlink:href="#DejaVuSans-30" x="159.033203"/>
      </g>
     </g>
    </g>
   </g>
   <g id="line2d_13">
    <path d="M 236.16 174.528 
L 344.416849 108.661369 
" clip-path="url(#pcf6d137ebd)" style="fill: none; stroke-dasharray: 7.4,3.2; stroke-dashoffset: 0; stroke: #ff0000; stroke-width: 2"/>
   </g>
   <g id="patch_3">
    <path d="M 369.216 174.528 
C 369.216 157.055246 365.774248 139.752393 359.087715 123.609673 
C 352.401182 107.466954 342.599903 92.798303 330.2448 80.4432 
C 317.889697 68.088097 303.221046 58.286818 287.078327 51.600285 
C 270.935607 44.913752 253.632754 41.472 236.16 41.472 
C 218.687246 41.472 201.384393 44.913752 185.241673 51.600285 
C 169.098954 58.286818 154.430303 68.088097 142.0752 80.4432 
C 129.720097 92.798303 119.918818 107.466954 113.232285 123.609673 
C 106.545752 139.752393 103.104 157.055246 103.104 174.528 
C 103.104 192.000754 106.545752 209.303607 113.232285 225.446327 
C 119.918818 241.589046 129.720097 256.257697 142.0752 268.6128 
C 154.430303 280.967903 169.098954 290.769182 185.241673 297.455715 
C 201.384393 304.142248 218.687246 307.584 236.16 307.584 
C 253.632754 307.584 270.935607 304.142248 287.078327 297.455715 
C 303.221046 290.769182 317.889697 280.967903 330.2448 268.6128 
C 342.599903 256.257697 352.401182 241.589046 359.087715 225.446327 
C 365.774248 209.303607 369.216 192.000754 369.216 174.528 
" style="fill: none; stroke: #000000; stroke-width: 0.8; stroke-linejoin: miter; stroke-linecap: square"/>
   </g>
   <g id="text_13">
    <!-- Distribution of projected eye movement velocity on the screen - NewM1_1_12 -->
    <g transform="translate(2.185313 13.803563) scale(0.12 -0.12)">
     <defs>
      <path id="DejaVuSans-44" d="M 1259 4147 
L 1259 519 
L 2022 519 
Q 2988 519 3436 956 
Q 3884 1394 3884 2338 
Q 3884 3275 3436 3711 
Q 2988 4147 2022 4147 
L 1259 4147 
z
M 628 4666 
L 1925 4666 
Q 3281 4666 3915 4102 
Q 4550 3538 4550 2338 
Q 4550 1131 3912 565 
Q 3275 0 1925 0 
L 628 0 
L 628 4666 
z
" transform="scale(0.015625)"/>
      <path id="DejaVuSans-69" d="M 603 3500 
L 1178 3500 
L 1178 0 
L 603 0 
L 603 3500 
z
M 603 4863 
L 1178 4863 
L 1178 4134 
L 603 4134 
L 603 4863 
z
" transform="scale(0.015625)"/>
      <path id="DejaVuSans-73" d="M 2834 3397 
L 2834 2853 
Q 2591 2978 2328 3040 
Q 2066 3103 1784 3103 
Q 1356 3103 1142 2972 
Q 928 2841 928 2578 
Q 928 2378 1081 2264 
Q 1234 2150 1697 2047 
L 1894 2003 
Q 2506 1872 2764 1633 
Q 3022 1394 3022 966 
Q 3022 478 2636 193 
Q 2250 -91 1575 -91 
Q 1294 -91 989 -36 
Q 684 19 347 128 
L 347 722 
Q 666 556 975 473 
Q 1284 391 1588 391 
Q 1994 391 2212 530 
Q 2431 669 2431 922 
Q 2431 1156 2273 1281 
Q 2116 1406 1581 1522 
L 1381 1569 
Q 847 1681 609 1914 
Q 372 2147 372 2553 
Q 372 3047 722 3315 
Q 1072 3584 1716 3584 
Q 2034 3584 2315 3537 
Q 2597 3491 2834 3397 
z
" transform="scale(0.015625)"/>
      <path id="DejaVuSans-74" d="M 1172 4494 
L 1172 3500 
L 2356 3500 
L 2356 3053 
L 1172 3053 
L 1172 1153 
Q 1172 725 1289 603 
Q 1406 481 1766 481 
L 2356 481 
L 2356 0 
L 1766 0 
Q 1100 0 847 248 
Q 594 497 594 1153 
L 594 3053 
L 172 3053 
L 172 3500 
L 594 3500 
L 594 4494 
L 1172 4494 
z
" transform="scale(0.015625)"/>
      <path id="DejaVuSans-72" d="M 2631 2963 
Q 2534 3019 2420 3045 
Q 2306 3072 2169 3072 
Q 1681 3072 1420 2755 
Q 1159 2438 1159 1844 
L 1159 0 
L 581 0 
L 581 3500 
L 1159 3500 
L 1159 2956 
Q 1341 3275 1631 3429 
Q 1922 3584 2338 3584 
Q 2397 3584 2469 3576 
Q 2541 3569 2628 3553 
L 2631 2963 
z
" transform="scale(0.015625)"/>
      <path id="DejaVuSans-62" d="M 3116 1747 
Q 3116 2381 2855 2742 
Q 2594 3103 2138 3103 
Q 1681 3103 1420 2742 
Q 1159 2381 1159 1747 
Q 1159 1113 1420 752 
Q 1681 391 2138 391 
Q 2594 391 2855 752 
Q 3116 1113 3116 1747 
z
M 1159 2969 
Q 1341 3281 1617 3432 
Q 1894 3584 2278 3584 
Q 2916 3584 3314 3078 
Q 3713 2572 3713 1747 
Q 3713 922 3314 415 
Q 2916 -91 2278 -91 
Q 1894 -91 1617 61 
Q 1341 213 1159 525 
L 1159 0 
L 581 0 
L 581 4863 
L 1159 4863 
L 1159 2969 
z
" transform="scale(0.015625)"/>
      <path id="DejaVuSans-75" d="M 544 1381 
L 544 3500 
L 1119 3500 
L 1119 1403 
Q 1119 906 1312 657 
Q 1506 409 1894 409 
Q 2359 409 2629 706 
Q 2900 1003 2900 1516 
L 2900 3500 
L 3475 3500 
L 3475 0 
L 2900 0 
L 2900 538 
Q 2691 219 2414 64 
Q 2138 -91 1772 -91 
Q 1169 -91 856 284 
Q 544 659 544 1381 
z
M 1991 3584 
L 1991 3584 
z
" transform="scale(0.015625)"/>
      <path id="DejaVuSans-6f" d="M 1959 3097 
Q 1497 3097 1228 2736 
Q 959 2375 959 1747 
Q 959 1119 1226 758 
Q 1494 397 1959 397 
Q 2419 397 2687 759 
Q 2956 1122 2956 1747 
Q 2956 2369 2687 2733 
Q 2419 3097 1959 3097 
z
M 1959 3584 
Q 2709 3584 3137 3096 
Q 3566 2609 3566 1747 
Q 3566 888 3137 398 
Q 2709 -91 1959 -91 
Q 1206 -91 779 398 
Q 353 888 353 1747 
Q 353 2609 779 3096 
Q 1206 3584 1959 3584 
z
" transform="scale(0.015625)"/>
      <path id="DejaVuSans-6e" d="M 3513 2113 
L 3513 0 
L 2938 0 
L 2938 2094 
Q 2938 2591 2744 2837 
Q 2550 3084 2163 3084 
Q 1697 3084 1428 2787 
Q 1159 2491 1159 1978 
L 1159 0 
L 581 0 
L 581 3500 
L 1159 3500 
L 1159 2956 
Q 1366 3272 1645 3428 
Q 1925 3584 2291 3584 
Q 2894 3584 3203 3211 
Q 3513 2838 3513 2113 
z
" transform="scale(0.015625)"/>
      <path id="DejaVuSans-20" transform="scale(0.015625)"/>
      <path id="DejaVuSans-66" d="M 2375 4863 
L 2375 4384 
L 1825 4384 
Q 1516 4384 1395 4259 
Q 1275 4134 1275 3809 
L 1275 3500 
L 2222 3500 
L 2222 3053 
L 1275 3053 
L 1275 0 
L 697 0 
L 697 3053 
L 147 3053 
L 147 3500 
L 697 3500 
L 697 3744 
Q 697 4328 969 4595 
Q 1241 4863 1831 4863 
L 2375 4863 
z
" transform="scale(0.015625)"/>
      <path id="DejaVuSans-70" d="M 1159 525 
L 1159 -1331 
L 581 -1331 
L 581 3500 
L 1159 3500 
L 1159 2969 
Q 1341 3281 1617 3432 
Q 1894 3584 2278 3584 
Q 2916 3584 3314 3078 
Q 3713 2572 3713 1747 
Q 3713 922 3314 415 
Q 2916 -91 2278 -91 
Q 1894 -91 1617 61 
Q 1341 213 1159 525 
z
M 3116 1747 
Q 3116 2381 2855 2742 
Q 2594 3103 2138 3103 
Q 1681 3103 1420 2742 
Q 1159 2381 1159 1747 
Q 1159 1113 1420 752 
Q 1681 391 2138 391 
Q 2594 391 2855 752 
Q 3116 1113 3116 1747 
z
" transform="scale(0.015625)"/>
      <path id="DejaVuSans-6a" d="M 603 3500 
L 1178 3500 
L 1178 -63 
Q 1178 -731 923 -1031 
Q 669 -1331 103 -1331 
L -116 -1331 
L -116 -844 
L 38 -844 
Q 366 -844 484 -692 
Q 603 -541 603 -63 
L 603 3500 
z
M 603 4863 
L 1178 4863 
L 1178 4134 
L 603 4134 
L 603 4863 
z
" transform="scale(0.015625)"/>
      <path id="DejaVuSans-65" d="M 3597 1894 
L 3597 1613 
L 953 1613 
Q 991 1019 1311 708 
Q 1631 397 2203 397 
Q 2534 397 2845 478 
Q 3156 559 3463 722 
L 3463 178 
Q 3153 47 2828 -22 
Q 2503 -91 2169 -91 
Q 1331 -91 842 396 
Q 353 884 353 1716 
Q 353 2575 817 3079 
Q 1281 3584 2069 3584 
Q 2775 3584 3186 3129 
Q 3597 2675 3597 1894 
z
M 3022 2063 
Q 3016 2534 2758 2815 
Q 2500 3097 2075 3097 
Q 1594 3097 1305 2825 
Q 1016 2553 972 2059 
L 3022 2063 
z
" transform="scale(0.015625)"/>
      <path id="DejaVuSans-63" d="M 3122 3366 
L 3122 2828 
Q 2878 2963 2633 3030 
Q 2388 3097 2138 3097 
Q 1578 3097 1268 2742 
Q 959 2388 959 1747 
Q 959 1106 1268 751 
Q 1578 397 2138 397 
Q 2388 397 2633 464 
Q 2878 531 3122 666 
L 3122 134 
Q 2881 22 2623 -34 
Q 2366 -91 2075 -91 
Q 1284 -91 818 406 
Q 353 903 353 1747 
Q 353 2603 823 3093 
Q 1294 3584 2113 3584 
Q 2378 3584 2631 3529 
Q 2884 3475 3122 3366 
z
" transform="scale(0.015625)"/>
      <path id="DejaVuSans-64" d="M 2906 2969 
L 2906 4863 
L 3481 4863 
L 3481 0 
L 2906 0 
L 2906 525 
Q 2725 213 2448 61 
Q 2172 -91 1784 -91 
Q 1150 -91 751 415 
Q 353 922 353 1747 
Q 353 2572 751 3078 
Q 1150 3584 1784 3584 
Q 2172 3584 2448 3432 
Q 2725 3281 2906 2969 
z
M 947 1747 
Q 947 1113 1208 752 
Q 1469 391 1925 391 
Q 2381 391 2643 752 
Q 2906 1113 2906 1747 
Q 2906 2381 2643 2742 
Q 2381 3103 1925 3103 
Q 1469 3103 1208 2742 
Q 947 2381 947 1747 
z
" transform="scale(0.015625)"/>
      <path id="DejaVuSans-79" d="M 2059 -325 
Q 1816 -950 1584 -1140 
Q 1353 -1331 966 -1331 
L 506 -1331 
L 506 -850 
L 844 -850 
Q 1081 -850 1212 -737 
Q 1344 -625 1503 -206 
L 1606 56 
L 191 3500 
L 800 3500 
L 1894 763 
L 2988 3500 
L 3597 3500 
L 2059 -325 
z
" transform="scale(0.015625)"/>
      <path id="DejaVuSans-6d" d="M 3328 2828 
Q 3544 3216 3844 3400 
Q 4144 3584 4550 3584 
Q 5097 3584 5394 3201 
Q 5691 2819 5691 2113 
L 5691 0 
L 5113 0 
L 5113 2094 
Q 5113 2597 4934 2840 
Q 4756 3084 4391 3084 
Q 3944 3084 3684 2787 
Q 3425 2491 3425 1978 
L 3425 0 
L 2847 0 
L 2847 2094 
Q 2847 2600 2669 2842 
Q 2491 3084 2119 3084 
Q 1678 3084 1418 2786 
Q 1159 2488 1159 1978 
L 1159 0 
L 581 0 
L 581 3500 
L 1159 3500 
L 1159 2956 
Q 1356 3278 1631 3431 
Q 1906 3584 2284 3584 
Q 2666 3584 2933 3390 
Q 3200 3197 3328 2828 
z
" transform="scale(0.015625)"/>
      <path id="DejaVuSans-76" d="M 191 3500 
L 800 3500 
L 1894 563 
L 2988 3500 
L 3597 3500 
L 2284 0 
L 1503 0 
L 191 3500 
z
" transform="scale(0.015625)"/>
      <path id="DejaVuSans-6c" d="M 603 4863 
L 1178 4863 
L 1178 0 
L 603 0 
L 603 4863 
z
" transform="scale(0.015625)"/>
      <path id="DejaVuSans-68" d="M 3513 2113 
L 3513 0 
L 2938 0 
L 2938 2094 
Q 2938 2591 2744 2837 
Q 2550 3084 2163 3084 
Q 1697 3084 1428 2787 
Q 1159 2491 1159 1978 
L 1159 0 
L 581 0 
L 581 4863 
L 1159 4863 
L 1159 2956 
Q 1366 3272 1645 3428 
Q 1925 3584 2291 3584 
Q 2894 3584 3203 3211 
Q 3513 2838 3513 2113 
z
" transform="scale(0.015625)"/>
      <path id="DejaVuSans-2d" d="M 313 2009 
L 1997 2009 
L 1997 1497 
L 313 1497 
L 313 2009 
z
" transform="scale(0.015625)"/>
      <path id="DejaVuSans-4e" d="M 628 4666 
L 1478 4666 
L 3547 763 
L 3547 4666 
L 4159 4666 
L 4159 0 
L 3309 0 
L 1241 3903 
L 1241 0 
L 628 0 
L 628 4666 
z
" transform="scale(0.015625)"/>
      <path id="DejaVuSans-77" d="M 269 3500 
L 844 3500 
L 1563 769 
L 2278 3500 
L 2956 3500 
L 3675 769 
L 4391 3500 
L 4966 3500 
L 4050 0 
L 3372 0 
L 2619 2869 
L 1863 0 
L 1184 0 
L 269 3500 
z
" transform="scale(0.015625)"/>
      <path id="DejaVuSans-4d" d="M 628 4666 
L 1569 4666 
L 2759 1491 
L 3956 4666 
L 4897 4666 
L 4897 0 
L 4281 0 
L 4281 4097 
L 3078 897 
L 2444 897 
L 1241 4097 
L 1241 0 
L 628 0 
L 628 4666 
z
" transform="scale(0.015625)"/>
      <path id="DejaVuSans-5f" d="M 3263 -1063 
L 3263 -1509 
L -63 -1509 
L -63 -1063 
L 3263 -1063 
z
" transform="scale(0.015625)"/>
     </defs>
     <use xlink:href="#DejaVuSans-44"/>
     <use xlink:href="#DejaVuSans-69" x="77.001953"/>
     <use xlink:href="#DejaVuSans-73" x="104.785156"/>
     <use xlink:href="#DejaVuSans-74" x="156.884766"/>
     <use xlink:href="#DejaVuSans-72" x="196.09375"/>
     <use xlink:href="#DejaVuSans-69" x="237.207031"/>
     <use xlink:href="#DejaVuSans-62" x="264.990234"/>
     <use xlink:href="#DejaVuSans-75" x="328.466797"/>
     <use xlink:href="#DejaVuSans-74" x="391.845703"/>
     <use xlink:href="#DejaVuSans-69" x="431.054688"/>
     <use xlink:href="#DejaVuSans-6f" x="458.837891"/>
     <use xlink:href="#DejaVuSans-6e" x="520.019531"/>
     <use xlink:href="#DejaVuSans-20" x="583.398438"/>
     <use xlink:href="#DejaVuSans-6f" x="615.185547"/>
     <use xlink:href="#DejaVuSans-66" x="676.367188"/>
     <use xlink:href="#DejaVuSans-20" x="711.572266"/>
     <use xlink:href="#DejaVuSans-70" x="743.359375"/>
     <use xlink:href="#DejaVuSans-72" x="806.835938"/>
     <use xlink:href="#DejaVuSans-6f" x="845.699219"/>
     <use xlink:href="#DejaVuSans-6a" x="906.880859"/>
     <use xlink:href="#DejaVuSans-65" x="934.664062"/>
     <use xlink:href="#DejaVuSans-63" x="996.1875"/>
     <use xlink:href="#DejaVuSans-74" x="1051.167969"/>
     <use xlink:href="#DejaVuSans-65" x="1090.376953"/>
     <use xlink:href="#DejaVuSans-64" x="1151.900391"/>
     <use xlink:href="#DejaVuSans-20" x="1215.376953"/>
     <use xlink:href="#DejaVuSans-65" x="1247.164062"/>
     <use xlink:href="#DejaVuSans-79" x="1308.6875"/>
     <use xlink:href="#DejaVuSans-65" x="1367.867188"/>
     <use xlink:href="#DejaVuSans-20" x="1429.390625"/>
     <use xlink:href="#DejaVuSans-6d" x="1461.177734"/>
     <use xlink:href="#DejaVuSans-6f" x="1558.589844"/>
     <use xlink:href="#DejaVuSans-76" x="1619.771484"/>
     <use xlink:href="#DejaVuSans-65" x="1678.951172"/>
     <use xlink:href="#DejaVuSans-6d" x="1740.474609"/>
     <use xlink:href="#DejaVuSans-65" x="1837.886719"/>
     <use xlink:href="#DejaVuSans-6e" x="1899.410156"/>
     <use xlink:href="#DejaVuSans-74" x="1962.789062"/>
     <use xlink:href="#DejaVuSans-20" x="2001.998047"/>
     <use xlink:href="#DejaVuSans-76" x="2033.785156"/>
     <use xlink:href="#DejaVuSans-65" x="2092.964844"/>
     <use xlink:href="#DejaVuSans-6c" x="2154.488281"/>
     <use xlink:href="#DejaVuSans-6f" x="2182.271484"/>
     <use xlink:href="#DejaVuSans-63" x="2243.453125"/>
     <use xlink:href="#DejaVuSans-69" x="2298.433594"/>
     <use xlink:href="#DejaVuSans-74" x="2326.216797"/>
     <use xlink:href="#DejaVuSans-79" x="2365.425781"/>
     <use xlink:href="#DejaVuSans-20" x="2424.605469"/>
     <use xlink:href="#DejaVuSans-6f" x="2456.392578"/>
     <use xlink:href="#DejaVuSans-6e" x="2517.574219"/>
     <use xlink:href="#DejaVuSans-20" x="2580.953125"/>
     <use xlink:href="#DejaVuSans-74" x="2612.740234"/>
     <use xlink:href="#DejaVuSans-68" x="2651.949219"/>
     <use xlink:href="#DejaVuSans-65" x="2715.328125"/>
     <use xlink:href="#DejaVuSans-20" x="2776.851562"/>
     <use xlink:href="#DejaVuSans-73" x="2808.638672"/>
     <use xlink:href="#DejaVuSans-63" x="2860.738281"/>
     <use xlink:href="#DejaVuSans-72" x="2915.71875"/>
     <use xlink:href="#DejaVuSans-65" x="2954.582031"/>
     <use xlink:href="#DejaVuSans-65" x="3016.105469"/>
     <use xlink:href="#DejaVuSans-6e" x="3077.628906"/>
     <use xlink:href="#DejaVuSans-20" x="3141.007812"/>
     <use xlink:href="#DejaVuSans-2d" x="3172.794922"/>
     <use xlink:href="#DejaVuSans-20" x="3208.878906"/>
     <use xlink:href="#DejaVuSans-4e" x="3240.666016"/>
     <use xlink:href="#DejaVuSans-65" x="3315.470703"/>
     <use xlink:href="#DejaVuSans-77" x="3376.994141"/>
     <use xlink:href="#DejaVuSans-4d" x="3458.78125"/>
     <use xlink:href="#DejaVuSans-31" x="3545.060547"/>
     <use xlink:href="#DejaVuSans-5f" x="3608.683594"/>
     <use xlink:href="#DejaVuSans-31" x="3658.683594"/>
     <use xlink:href="#DejaVuSans-5f" x="3722.306641"/>
     <use xlink:href="#DejaVuSans-31" x="3772.306641"/>
     <use xlink:href="#DejaVuSans-32" x="3835.929688"/>
    </g>
   </g>
   <g id="legend_1">
    <g id="patch_4">
     <path d="M 126.045938 108.1845 
L 346.274063 108.1845 
Q 348.274063 108.1845 348.274063 106.1845 
L 348.274063 48.472 
Q 348.274063 46.472 346.274063 46.472 
L 126.045938 46.472 
Q 124.045938 46.472 124.045938 48.472 
L 124.045938 106.1845 
Q 124.045938 108.1845 126.045938 108.1845 
z
" style="fill: #ffffff; opacity: 0.8; stroke: #cccccc; stroke-linejoin: miter"/>
    </g>
    <g id="PathCollection_4">
     <g>
      <use xlink:href="#ma82e659742" x="138.045938" y="55.445438" style="fill: #1f77b4; stroke: #1f77b4"/>
     </g>
    </g>
    <g id="text_14">
     <!-- $-0.5 &lt; t &lt; 0.$ -->
     <g transform="translate(156.045938 58.070438) scale(0.1 -0.1)">
      <defs>
       <path id="DejaVuSans-2212" d="M 678 2272 
L 4684 2272 
L 4684 1741 
L 678 1741 
L 678 2272 
z
" transform="scale(0.015625)"/>
       <path id="DejaVuSans-3c" d="M 4684 3150 
L 1459 2003 
L 4684 863 
L 4684 294 
L 678 1747 
L 678 2266 
L 4684 3719 
L 4684 3150 
z
" transform="scale(0.015625)"/>
       <path id="DejaVuSans-Oblique-74" d="M 2706 3500 
L 2619 3053 
L 1472 3053 
L 1100 1153 
Q 1081 1047 1072 975 
Q 1063 903 1063 863 
Q 1063 663 1183 572 
Q 1303 481 1569 481 
L 2150 481 
L 2053 0 
L 1503 0 
Q 991 0 739 200 
Q 488 400 488 806 
Q 488 878 497 964 
Q 506 1050 525 1153 
L 897 3053 
L 409 3053 
L 500 3500 
L 978 3500 
L 1172 4494 
L 1747 4494 
L 1556 3500 
L 2706 3500 
z
" transform="scale(0.015625)"/>
      </defs>
      <use xlink:href="#DejaVuSans-2212" transform="translate(0 0.78125)"/>
      <use xlink:href="#DejaVuSans-30" transform="translate(83.789062 0.78125)"/>
      <use xlink:href="#DejaVuSans-2e" transform="translate(147.412109 0.78125)"/>
      <use xlink:href="#DejaVuSans-35" transform="translate(179.199219 0.78125)"/>
      <use xlink:href="#DejaVuSans-3c" transform="translate(262.304688 0.78125)"/>
      <use xlink:href="#DejaVuSans-Oblique-74" transform="translate(365.576172 0.78125)"/>
      <use xlink:href="#DejaVuSans-3c" transform="translate(424.267578 0.78125)"/>
      <use xlink:href="#DejaVuSans-30" transform="translate(527.539062 0.78125)"/>
      <use xlink:href="#DejaVuSans-2e" transform="translate(591.162109 0.78125)"/>
     </g>
    </g>
    <g id="PathCollection_5">
     <g>
      <use xlink:href="#mf454bee95e" x="138.045938" y="70.123563" style="fill: #ff7f0e; stroke: #ff7f0e"/>
     </g>
    </g>
    <g id="text_15">
     <!-- $0. &lt; t &lt; 0.5$ -->
     <g transform="translate(156.045938 72.748563) scale(0.1 -0.1)">
      <use xlink:href="#DejaVuSans-30" transform="translate(0 0.78125)"/>
      <use xlink:href="#DejaVuSans-2e" transform="translate(63.623047 0.78125)"/>
      <use xlink:href="#DejaVuSans-3c" transform="translate(134.375 0.78125)"/>
      <use xlink:href="#DejaVuSans-Oblique-74" transform="translate(237.646484 0.78125)"/>
      <use xlink:href="#DejaVuSans-3c" transform="translate(296.337891 0.78125)"/>
      <use xlink:href="#DejaVuSans-30" transform="translate(399.609375 0.78125)"/>
      <use xlink:href="#DejaVuSans-2e" transform="translate(463.232422 0.78125)"/>
      <use xlink:href="#DejaVuSans-35" transform="translate(495.019531 0.78125)"/>
     </g>
    </g>
    <g id="PathCollection_6">
     <g>
      <use xlink:href="#m3a016fec39" x="138.045938" y="84.801688" style="fill: #2ca02c; stroke: #2ca02c"/>
     </g>
    </g>
    <g id="text_16">
     <!-- $0.5 &lt; t &lt; 1.$ -->
     <g transform="translate(156.045938 87.426688) scale(0.1 -0.1)">
      <use xlink:href="#DejaVuSans-30" transform="translate(0 0.78125)"/>
      <use xlink:href="#DejaVuSans-2e" transform="translate(63.623047 0.78125)"/>
      <use xlink:href="#DejaVuSans-35" transform="translate(95.410156 0.78125)"/>
      <use xlink:href="#DejaVuSans-3c" transform="translate(178.515625 0.78125)"/>
      <use xlink:href="#DejaVuSans-Oblique-74" transform="translate(281.787109 0.78125)"/>
      <use xlink:href="#DejaVuSans-3c" transform="translate(340.478516 0.78125)"/>
      <use xlink:href="#DejaVuSans-31" transform="translate(443.75 0.78125)"/>
      <use xlink:href="#DejaVuSans-2e" transform="translate(507.373047 0.78125)"/>
     </g>
    </g>
    <g id="line2d_14">
     <path d="M 128.045938 98.604813 
L 138.045938 98.604813 
L 148.045938 98.604813 
" style="fill: none; stroke-dasharray: 7.4,3.2; stroke-dashoffset: 0; stroke: #ff0000; stroke-width: 2"/>
    </g>
    <g id="text_17">
     <!-- Average angle in light: 31.32 degrees -->
     <g transform="translate(156.045938 102.104813) scale(0.1 -0.1)">
      <defs>
       <path id="DejaVuSans-41" d="M 2188 4044 
L 1331 1722 
L 3047 1722 
L 2188 4044 
z
M 1831 4666 
L 2547 4666 
L 4325 0 
L 3669 0 
L 3244 1197 
L 1141 1197 
L 716 0 
L 50 0 
L 1831 4666 
z
" transform="scale(0.015625)"/>
       <path id="DejaVuSans-61" d="M 2194 1759 
Q 1497 1759 1228 1600 
Q 959 1441 959 1056 
Q 959 750 1161 570 
Q 1363 391 1709 391 
Q 2188 391 2477 730 
Q 2766 1069 2766 1631 
L 2766 1759 
L 2194 1759 
z
M 3341 1997 
L 3341 0 
L 2766 0 
L 2766 531 
Q 2569 213 2275 61 
Q 1981 -91 1556 -91 
Q 1019 -91 701 211 
Q 384 513 384 1019 
Q 384 1609 779 1909 
Q 1175 2209 1959 2209 
L 2766 2209 
L 2766 2266 
Q 2766 2663 2505 2880 
Q 2244 3097 1772 3097 
Q 1472 3097 1187 3025 
Q 903 2953 641 2809 
L 641 3341 
Q 956 3463 1253 3523 
Q 1550 3584 1831 3584 
Q 2591 3584 2966 3190 
Q 3341 2797 3341 1997 
z
" transform="scale(0.015625)"/>
       <path id="DejaVuSans-67" d="M 2906 1791 
Q 2906 2416 2648 2759 
Q 2391 3103 1925 3103 
Q 1463 3103 1205 2759 
Q 947 2416 947 1791 
Q 947 1169 1205 825 
Q 1463 481 1925 481 
Q 2391 481 2648 825 
Q 2906 1169 2906 1791 
z
M 3481 434 
Q 3481 -459 3084 -895 
Q 2688 -1331 1869 -1331 
Q 1566 -1331 1297 -1286 
Q 1028 -1241 775 -1147 
L 775 -588 
Q 1028 -725 1275 -790 
Q 1522 -856 1778 -856 
Q 2344 -856 2625 -561 
Q 2906 -266 2906 331 
L 2906 616 
Q 2728 306 2450 153 
Q 2172 0 1784 0 
Q 1141 0 747 490 
Q 353 981 353 1791 
Q 353 2603 747 3093 
Q 1141 3584 1784 3584 
Q 2172 3584 2450 3431 
Q 2728 3278 2906 2969 
L 2906 3500 
L 3481 3500 
L 3481 434 
z
" transform="scale(0.015625)"/>
       <path id="DejaVuSans-3a" d="M 750 794 
L 1409 794 
L 1409 0 
L 750 0 
L 750 794 
z
M 750 3309 
L 1409 3309 
L 1409 2516 
L 750 2516 
L 750 3309 
z
" transform="scale(0.015625)"/>
      </defs>
      <use xlink:href="#DejaVuSans-41"/>
      <use xlink:href="#DejaVuSans-76" x="62.533203"/>
      <use xlink:href="#DejaVuSans-65" x="121.712891"/>
      <use xlink:href="#DejaVuSans-72" x="183.236328"/>
      <use xlink:href="#DejaVuSans-61" x="224.349609"/>
      <use xlink:href="#DejaVuSans-67" x="285.628906"/>
      <use xlink:href="#DejaVuSans-65" x="349.105469"/>
      <use xlink:href="#DejaVuSans-20" x="410.628906"/>
      <use xlink:href="#DejaVuSans-61" x="442.416016"/>
      <use xlink:href="#DejaVuSans-6e" x="503.695312"/>
      <use xlink:href="#DejaVuSans-67" x="567.074219"/>
      <use xlink:href="#DejaVuSans-6c" x="630.550781"/>
      <use xlink:href="#DejaVuSans-65" x="658.333984"/>
      <use xlink:href="#DejaVuSans-20" x="719.857422"/>
      <use xlink:href="#DejaVuSans-69" x="751.644531"/>
      <use xlink:href="#DejaVuSans-6e" x="779.427734"/>
      <use xlink:href="#DejaVuSans-20" x="842.806641"/>
      <use xlink:href="#DejaVuSans-6c" x="874.59375"/>
      <use xlink:href="#DejaVuSans-69" x="902.376953"/>
      <use xlink:href="#DejaVuSans-67" x="930.160156"/>
      <use xlink:href="#DejaVuSans-68" x="993.636719"/>
      <use xlink:href="#DejaVuSans-74" x="1057.015625"/>
      <use xlink:href="#DejaVuSans-3a" x="1096.224609"/>
      <use xlink:href="#DejaVuSans-20" x="1129.916016"/>
      <use xlink:href="#DejaVuSans-33" x="1161.703125"/>
      <use xlink:href="#DejaVuSans-31" x="1225.326172"/>
      <use xlink:href="#DejaVuSans-2e" x="1288.949219"/>
      <use xlink:href="#DejaVuSans-33" x="1320.736328"/>
      <use xlink:href="#DejaVuSans-32" x="1384.359375"/>
      <use xlink:href="#DejaVuSans-20" x="1447.982422"/>
      <use xlink:href="#DejaVuSans-64" x="1479.769531"/>
      <use xlink:href="#DejaVuSans-65" x="1543.246094"/>
      <use xlink:href="#DejaVuSans-67" x="1604.769531"/>
      <use xlink:href="#DejaVuSans-72" x="1668.246094"/>
      <use xlink:href="#DejaVuSans-65" x="1707.109375"/>
      <use xlink:href="#DejaVuSans-65" x="1768.632812"/>
      <use xlink:href="#DejaVuSans-73" x="1830.15625"/>
     </g>
    </g>
   </g>
  </g>
 </g>
 <defs>
  <clipPath id="pcf6d137ebd">
   <path d="M 369.216 174.528 
C 369.216 157.055246 365.774248 139.752393 359.087715 123.609673 
C 352.401182 107.466954 342.599903 92.798303 330.2448 80.4432 
C 317.889697 68.088097 303.221046 58.286818 287.078327 51.600285 
C 270.935607 44.913752 253.632754 41.472 236.16 41.472 
C 218.687246 41.472 201.384393 44.913752 185.241673 51.600285 
C 169.098954 58.286818 154.430303 68.088097 142.0752 80.4432 
C 129.720097 92.798303 119.918818 107.466954 113.232285 123.609673 
C 106.545752 139.752393 103.104 157.055246 103.104 174.528 
C 103.104 192.000754 106.545752 209.303607 113.232285 225.446327 
C 119.918818 241.589046 129.720097 256.257697 142.0752 268.6128 
C 154.430303 280.967903 169.098954 290.769182 185.241673 297.455715 
C 201.384393 304.142248 218.687246 307.584 236.16 307.584 
C 253.632754 307.584 270.935607 304.142248 287.078327 297.455715 
C 303.221046 290.769182 317.889697 280.967903 330.2448 268.6128 
C 342.599903 256.257697 352.401182 241.589046 359.087715 225.446327 
C 365.774248 209.303607 369.216 192.000754 369.216 174.528 
M 236.16 174.528 
C 236.16 174.528 236.16 174.528 236.16 174.528 
C 236.16 174.528 236.16 174.528 236.16 174.528 
C 236.16 174.528 236.16 174.528 236.16 174.528 
C 236.16 174.528 236.16 174.528 236.16 174.528 
C 236.16 174.528 236.16 174.528 236.16 174.528 
C 236.16 174.528 236.16 174.528 236.16 174.528 
C 236.16 174.528 236.16 174.528 236.16 174.528 
C 236.16 174.528 236.16 174.528 236.16 174.528 
C 236.16 174.528 236.16 174.528 236.16 174.528 
C 236.16 174.528 236.16 174.528 236.16 174.528 
C 236.16 174.528 236.16 174.528 236.16 174.528 
C 236.16 174.528 236.16 174.528 236.16 174.528 
C 236.16 174.528 236.16 174.528 236.16 174.528 
C 236.16 174.528 236.16 174.528 236.16 174.528 
C 236.16 174.528 236.16 174.528 236.16 174.528 
C 236.16 174.528 236.16 174.528 236.16 174.528 
z
"/>
  </clipPath>
 </defs>
</svg>
