<?xml version="1.0" encoding="utf-8" standalone="no"?>
<!DOCTYPE svg PUBLIC "-//W3C//DTD SVG 1.1//EN"
  "http://www.w3.org/Graphics/SVG/1.1/DTD/svg11.dtd">
<svg xmlns:xlink="http://www.w3.org/1999/xlink" width="460.8pt" height="345.6pt" viewBox="0 0 460.8 345.6" xmlns="http://www.w3.org/2000/svg" version="1.1">
 <metadata>
  <rdf:RDF xmlns:dc="http://purl.org/dc/elements/1.1/" xmlns:cc="http://creativecommons.org/ns#" xmlns:rdf="http://www.w3.org/1999/02/22-rdf-syntax-ns#">
   <cc:Work>
    <dc:type rdf:resource="http://purl.org/dc/dcmitype/StillImage"/>
    <dc:date>2023-12-23T17:14:00.991465</dc:date>
    <dc:format>image/svg+xml</dc:format>
    <dc:creator>
     <cc:Agent>
      <dc:title>Matplotlib v3.7.4, https://matplotlib.org/</dc:title>
     </cc:Agent>
    </dc:creator>
   </cc:Work>
  </rdf:RDF>
 </metadata>
 <defs>
  <style type="text/css">*{stroke-linejoin: round; stroke-linecap: butt}</style>
 </defs>
 <g id="figure_1">
  <g id="patch_1">
   <path d="M 0 345.6 
L 460.8 345.6 
L 460.8 0 
L 0 0 
z
" style="fill: #ffffff"/>
  </g>
  <g id="axes_1">
   <g id="patch_2">
    <path d="M 369.216 174.528 
C 369.216 157.055246 365.774248 139.752393 359.087715 123.609673 
C 352.401182 107.466954 342.599903 92.798303 330.2448 80.4432 
C 317.889697 68.088097 303.221046 58.286818 287.078327 51.600285 
C 270.935607 44.913752 253.632754 41.472 236.16 41.472 
C 218.687246 41.472 201.384393 44.913752 185.241673 51.600285 
C 169.098954 58.286818 154.430303 68.088097 142.0752 80.4432 
C 129.720097 92.798303 119.918818 107.466954 113.232285 123.609673 
C 106.545752 139.752393 103.104 157.055246 103.104 174.528 
C 103.104 192.000754 106.545752 209.303607 113.232285 225.446327 
C 119.918818 241.589046 129.720097 256.257697 142.0752 268.6128 
C 154.430303 280.967903 169.098954 290.769182 185.241673 297.455715 
C 201.384393 304.142248 218.687246 307.584 236.16 307.584 
C 253.632754 307.584 270.935607 304.142248 287.078327 297.455715 
C 303.221046 290.769182 317.889697 280.967903 330.2448 268.6128 
C 342.599903 256.257697 352.401182 241.589046 359.087715 225.446327 
C 365.774248 209.303607 369.216 192.000754 369.216 174.528 
M 236.16 174.528 
C 236.16 174.528 236.16 174.528 236.16 174.528 
C 236.16 174.528 236.16 174.528 236.16 174.528 
C 236.16 174.528 236.16 174.528 236.16 174.528 
C 236.16 174.528 236.16 174.528 236.16 174.528 
C 236.16 174.528 236.16 174.528 236.16 174.528 
C 236.16 174.528 236.16 174.528 236.16 174.528 
C 236.16 174.528 236.16 174.528 236.16 174.528 
C 236.16 174.528 236.16 174.528 236.16 174.528 
C 236.16 174.528 236.16 174.528 236.16 174.528 
C 236.16 174.528 236.16 174.528 236.16 174.528 
C 236.16 174.528 236.16 174.528 236.16 174.528 
C 236.16 174.528 236.16 174.528 236.16 174.528 
C 236.16 174.528 236.16 174.528 236.16 174.528 
C 236.16 174.528 236.16 174.528 236.16 174.528 
C 236.16 174.528 236.16 174.528 236.16 174.528 
C 236.16 174.528 236.16 174.528 236.16 174.528 
z
" style="fill: #ffffff"/>
   </g>
   <g id="PathCollection_1">
    <defs>
     <path id="mcab228138a" d="M 0 3 
C 0.795609 3 1.55874 2.683901 2.12132 2.12132 
C 2.683901 1.55874 3 0.795609 3 0 
C 3 -0.795609 2.683901 -1.55874 2.12132 -2.12132 
C 1.55874 -2.683901 0.795609 -3 0 -3 
C -0.795609 -3 -1.55874 -2.683901 -2.12132 -2.12132 
C -2.683901 -1.55874 -3 -0.795609 -3 0 
C -3 0.795609 -2.683901 1.55874 -2.12132 2.12132 
C -1.55874 2.683901 -0.795609 3 0 3 
z
" style="stroke: #1f77b4"/>
    </defs>
    <g clip-path="url(#p71fdcfa09c)">
     <use xlink:href="#mcab228138a" x="252.402799" y="167.271416" style="fill: #1f77b4; stroke: #1f77b4"/>
     <use xlink:href="#mcab228138a" x="272.344185" y="158.461869" style="fill: #1f77b4; stroke: #1f77b4"/>
     <use xlink:href="#mcab228138a" x="266.721078" y="170.158631" style="fill: #1f77b4; stroke: #1f77b4"/>
     <use xlink:href="#mcab228138a" x="248.096618" y="188.779465" style="fill: #1f77b4; stroke: #1f77b4"/>
     <use xlink:href="#mcab228138a" x="271.64358" y="177.954747" style="fill: #1f77b4; stroke: #1f77b4"/>
     <use xlink:href="#mcab228138a" x="270.205407" y="180.94945" style="fill: #1f77b4; stroke: #1f77b4"/>
     <use xlink:href="#mcab228138a" x="268.741057" y="183.478063" style="fill: #1f77b4; stroke: #1f77b4"/>
     <use xlink:href="#mcab228138a" x="280.654005" y="176.223532" style="fill: #1f77b4; stroke: #1f77b4"/>
     <use xlink:href="#mcab228138a" x="266.130493" y="183.041781" style="fill: #1f77b4; stroke: #1f77b4"/>
     <use xlink:href="#mcab228138a" x="274.961683" y="174.565223" style="fill: #1f77b4; stroke: #1f77b4"/>
     <use xlink:href="#mcab228138a" x="273.002534" y="189.0147" style="fill: #1f77b4; stroke: #1f77b4"/>
     <use xlink:href="#mcab228138a" x="271.447618" y="197.354851" style="fill: #1f77b4; stroke: #1f77b4"/>
     <use xlink:href="#mcab228138a" x="257.893192" y="198.857326" style="fill: #1f77b4; stroke: #1f77b4"/>
     <use xlink:href="#mcab228138a" x="275.38073" y="183.660675" style="fill: #1f77b4; stroke: #1f77b4"/>
     <use xlink:href="#mcab228138a" x="273.519478" y="186.203662" style="fill: #1f77b4; stroke: #1f77b4"/>
     <use xlink:href="#mcab228138a" x="282.808896" y="180.518494" style="fill: #1f77b4; stroke: #1f77b4"/>
     <use xlink:href="#mcab228138a" x="260.268197" y="188.542659" style="fill: #1f77b4; stroke: #1f77b4"/>
     <use xlink:href="#mcab228138a" x="251.961036" y="181.929113" style="fill: #1f77b4; stroke: #1f77b4"/>
     <use xlink:href="#mcab228138a" x="264.936576" y="176.381517" style="fill: #1f77b4; stroke: #1f77b4"/>
     <use xlink:href="#mcab228138a" x="259.774608" y="178.275495" style="fill: #1f77b4; stroke: #1f77b4"/>
     <use xlink:href="#mcab228138a" x="275.20188" y="167.803405" style="fill: #1f77b4; stroke: #1f77b4"/>
     <use xlink:href="#mcab228138a" x="295.473574" y="157.797273" style="fill: #1f77b4; stroke: #1f77b4"/>
     <use xlink:href="#mcab228138a" x="298.25289" y="145.778292" style="fill: #1f77b4; stroke: #1f77b4"/>
     <use xlink:href="#mcab228138a" x="281.177942" y="159.192583" style="fill: #1f77b4; stroke: #1f77b4"/>
    </g>
   </g>
   <g id="PathCollection_2">
    <defs>
     <path id="m261d51ca73" d="M 0 3 
C 0.795609 3 1.55874 2.683901 2.12132 2.12132 
C 2.683901 1.55874 3 0.795609 3 0 
C 3 -0.795609 2.683901 -1.55874 2.12132 -2.12132 
C 1.55874 -2.683901 0.795609 -3 0 -3 
C -0.795609 -3 -1.55874 -2.683901 -2.12132 -2.12132 
C -2.683901 -1.55874 -3 -0.795609 -3 0 
C -3 0.795609 -2.683901 1.55874 -2.12132 2.12132 
C -1.55874 2.683901 -0.795609 3 0 3 
z
" style="stroke: #ff7f0e"/>
    </defs>
    <g clip-path="url(#p71fdcfa09c)">
     <use xlink:href="#m261d51ca73" x="267.829338" y="170.569802" style="fill: #ff7f0e; stroke: #ff7f0e"/>
     <use xlink:href="#m261d51ca73" x="275.940732" y="158.325112" style="fill: #ff7f0e; stroke: #ff7f0e"/>
     <use xlink:href="#m261d51ca73" x="265.118123" y="165.3851" style="fill: #ff7f0e; stroke: #ff7f0e"/>
     <use xlink:href="#m261d51ca73" x="267.053897" y="162.027504" style="fill: #ff7f0e; stroke: #ff7f0e"/>
     <use xlink:href="#m261d51ca73" x="264.622373" y="168.606499" style="fill: #ff7f0e; stroke: #ff7f0e"/>
     <use xlink:href="#m261d51ca73" x="268.72966" y="169.18582" style="fill: #ff7f0e; stroke: #ff7f0e"/>
     <use xlink:href="#m261d51ca73" x="246.095358" y="184.505421" style="fill: #ff7f0e; stroke: #ff7f0e"/>
     <use xlink:href="#m261d51ca73" x="243.599046" y="184.711939" style="fill: #ff7f0e; stroke: #ff7f0e"/>
     <use xlink:href="#m261d51ca73" x="247.018823" y="187.355287" style="fill: #ff7f0e; stroke: #ff7f0e"/>
     <use xlink:href="#m261d51ca73" x="259.469327" y="185.22319" style="fill: #ff7f0e; stroke: #ff7f0e"/>
     <use xlink:href="#m261d51ca73" x="269.512405" y="184.287725" style="fill: #ff7f0e; stroke: #ff7f0e"/>
     <use xlink:href="#m261d51ca73" x="266.331546" y="189.184717" style="fill: #ff7f0e; stroke: #ff7f0e"/>
     <use xlink:href="#m261d51ca73" x="270.12324" y="201.77329" style="fill: #ff7f0e; stroke: #ff7f0e"/>
     <use xlink:href="#m261d51ca73" x="283.496096" y="195.26954" style="fill: #ff7f0e; stroke: #ff7f0e"/>
     <use xlink:href="#m261d51ca73" x="274.074438" y="203.160867" style="fill: #ff7f0e; stroke: #ff7f0e"/>
     <use xlink:href="#m261d51ca73" x="280.699301" y="202.266819" style="fill: #ff7f0e; stroke: #ff7f0e"/>
     <use xlink:href="#m261d51ca73" x="264.354679" y="208.77835" style="fill: #ff7f0e; stroke: #ff7f0e"/>
     <use xlink:href="#m261d51ca73" x="285.423311" y="192.728844" style="fill: #ff7f0e; stroke: #ff7f0e"/>
     <use xlink:href="#m261d51ca73" x="272.73186" y="201.757697" style="fill: #ff7f0e; stroke: #ff7f0e"/>
     <use xlink:href="#m261d51ca73" x="279.947966" y="192.801773" style="fill: #ff7f0e; stroke: #ff7f0e"/>
     <use xlink:href="#m261d51ca73" x="283.061977" y="202.359374" style="fill: #ff7f0e; stroke: #ff7f0e"/>
     <use xlink:href="#m261d51ca73" x="311.315392" y="189.19214" style="fill: #ff7f0e; stroke: #ff7f0e"/>
     <use xlink:href="#m261d51ca73" x="288.762269" y="196.307138" style="fill: #ff7f0e; stroke: #ff7f0e"/>
     <use xlink:href="#m261d51ca73" x="310.689469" y="185.354244" style="fill: #ff7f0e; stroke: #ff7f0e"/>
    </g>
   </g>
   <g id="PathCollection_3">
    <defs>
     <path id="m0480a12c26" d="M 0 3 
C 0.795609 3 1.55874 2.683901 2.12132 2.12132 
C 2.683901 1.55874 3 0.795609 3 0 
C 3 -0.795609 2.683901 -1.55874 2.12132 -2.12132 
C 1.55874 -2.683901 0.795609 -3 0 -3 
C -0.795609 -3 -1.55874 -2.683901 -2.12132 -2.12132 
C -2.683901 -1.55874 -3 -0.795609 -3 0 
C -3 0.795609 -2.683901 1.55874 -2.12132 2.12132 
C -1.55874 2.683901 -0.795609 3 0 3 
z
" style="stroke: #2ca02c"/>
    </defs>
    <g clip-path="url(#p71fdcfa09c)">
     <use xlink:href="#m0480a12c26" x="348.344579" y="154.969105" style="fill: #2ca02c; stroke: #2ca02c"/>
     <use xlink:href="#m0480a12c26" x="335.933314" y="165.735842" style="fill: #2ca02c; stroke: #2ca02c"/>
     <use xlink:href="#m0480a12c26" x="333.711308" y="162.830887" style="fill: #2ca02c; stroke: #2ca02c"/>
     <use xlink:href="#m0480a12c26" x="343.653575" y="161.752224" style="fill: #2ca02c; stroke: #2ca02c"/>
     <use xlink:href="#m0480a12c26" x="354.455243" y="162.449892" style="fill: #2ca02c; stroke: #2ca02c"/>
     <use xlink:href="#m0480a12c26" x="336.128957" y="176.146382" style="fill: #2ca02c; stroke: #2ca02c"/>
     <use xlink:href="#m0480a12c26" x="360.367692" y="170.576614" style="fill: #2ca02c; stroke: #2ca02c"/>
     <use xlink:href="#m0480a12c26" x="330.194296" y="196.209146" style="fill: #2ca02c; stroke: #2ca02c"/>
     <use xlink:href="#m0480a12c26" x="322.852529" y="200.906266" style="fill: #2ca02c; stroke: #2ca02c"/>
     <use xlink:href="#m0480a12c26" x="337.751687" y="199.495901" style="fill: #2ca02c; stroke: #2ca02c"/>
     <use xlink:href="#m0480a12c26" x="331.404773" y="208.773648" style="fill: #2ca02c; stroke: #2ca02c"/>
     <use xlink:href="#m0480a12c26" x="317.491067" y="217.606642" style="fill: #2ca02c; stroke: #2ca02c"/>
     <use xlink:href="#m0480a12c26" x="313.24997" y="207.512585" style="fill: #2ca02c; stroke: #2ca02c"/>
     <use xlink:href="#m0480a12c26" x="302.147119" y="210.239254" style="fill: #2ca02c; stroke: #2ca02c"/>
     <use xlink:href="#m0480a12c26" x="278.112381" y="220.551433" style="fill: #2ca02c; stroke: #2ca02c"/>
     <use xlink:href="#m0480a12c26" x="278.849762" y="212.50599" style="fill: #2ca02c; stroke: #2ca02c"/>
     <use xlink:href="#m0480a12c26" x="306.494721" y="190.284772" style="fill: #2ca02c; stroke: #2ca02c"/>
     <use xlink:href="#m0480a12c26" x="318.708628" y="177.69128" style="fill: #2ca02c; stroke: #2ca02c"/>
     <use xlink:href="#m0480a12c26" x="297.859107" y="188.532918" style="fill: #2ca02c; stroke: #2ca02c"/>
     <use xlink:href="#m0480a12c26" x="316.286851" y="177.663657" style="fill: #2ca02c; stroke: #2ca02c"/>
     <use xlink:href="#m0480a12c26" x="343.583217" y="159.220763" style="fill: #2ca02c; stroke: #2ca02c"/>
     <use xlink:href="#m0480a12c26" x="348.128868" y="158.419904" style="fill: #2ca02c; stroke: #2ca02c"/>
     <use xlink:href="#m0480a12c26" x="348.760696" y="158.632283" style="fill: #2ca02c; stroke: #2ca02c"/>
     <use xlink:href="#m0480a12c26" x="360.854364" y="151.960902" style="fill: #2ca02c; stroke: #2ca02c"/>
    </g>
   </g>
   <g id="matplotlib.axis_1">
    <g id="xtick_1">
     <g id="line2d_1">
      <path d="M 236.16 174.528 
L 369.216 174.528 
" clip-path="url(#p71fdcfa09c)" style="fill: none; stroke: #b0b0b0; stroke-width: 0.8; stroke-linecap: square"/>
     </g>
     <g id="text_1">
      <!-- 0° -->
      <g transform="translate(377.53475 177.287375) scale(0.1 -0.1)">
       <defs>
        <path id="DejaVuSans-30" d="M 2034 4250 
Q 1547 4250 1301 3770 
Q 1056 3291 1056 2328 
Q 1056 1369 1301 889 
Q 1547 409 2034 409 
Q 2525 409 2770 889 
Q 3016 1369 3016 2328 
Q 3016 3291 2770 3770 
Q 2525 4250 2034 4250 
z
M 2034 4750 
Q 2819 4750 3233 4129 
Q 3647 3509 3647 2328 
Q 3647 1150 3233 529 
Q 2819 -91 2034 -91 
Q 1250 -91 836 529 
Q 422 1150 422 2328 
Q 422 3509 836 4129 
Q 1250 4750 2034 4750 
z
" transform="scale(0.015625)"/>
        <path id="DejaVuSans-b0" d="M 1600 4347 
Q 1350 4347 1178 4173 
Q 1006 4000 1006 3750 
Q 1006 3503 1178 3333 
Q 1350 3163 1600 3163 
Q 1850 3163 2022 3333 
Q 2194 3503 2194 3750 
Q 2194 3997 2020 4172 
Q 1847 4347 1600 4347 
z
M 1600 4750 
Q 1800 4750 1984 4673 
Q 2169 4597 2303 4453 
Q 2447 4313 2519 4134 
Q 2591 3956 2591 3750 
Q 2591 3338 2302 3052 
Q 2013 2766 1594 2766 
Q 1172 2766 890 3047 
Q 609 3328 609 3750 
Q 609 4169 896 4459 
Q 1184 4750 1600 4750 
z
" transform="scale(0.015625)"/>
       </defs>
       <use xlink:href="#DejaVuSans-30"/>
       <use xlink:href="#DejaVuSans-b0" x="63.623047"/>
      </g>
     </g>
    </g>
    <g id="xtick_2">
     <g id="line2d_2">
      <path d="M 236.16 174.528 
L 330.2448 80.4432 
" clip-path="url(#p71fdcfa09c)" style="fill: none; stroke: #b0b0b0; stroke-width: 0.8; stroke-linecap: square"/>
     </g>
     <g id="text_2">
      <!-- 45° -->
      <g transform="translate(331.281795 73.30308) scale(0.1 -0.1)">
       <defs>
        <path id="DejaVuSans-34" d="M 2419 4116 
L 825 1625 
L 2419 1625 
L 2419 4116 
z
M 2253 4666 
L 3047 4666 
L 3047 1625 
L 3713 1625 
L 3713 1100 
L 3047 1100 
L 3047 0 
L 2419 0 
L 2419 1100 
L 313 1100 
L 313 1709 
L 2253 4666 
z
" transform="scale(0.015625)"/>
        <path id="DejaVuSans-35" d="M 691 4666 
L 3169 4666 
L 3169 4134 
L 1269 4134 
L 1269 2991 
Q 1406 3038 1543 3061 
Q 1681 3084 1819 3084 
Q 2600 3084 3056 2656 
Q 3513 2228 3513 1497 
Q 3513 744 3044 326 
Q 2575 -91 1722 -91 
Q 1428 -91 1123 -41 
Q 819 9 494 109 
L 494 744 
Q 775 591 1075 516 
Q 1375 441 1709 441 
Q 2250 441 2565 725 
Q 2881 1009 2881 1497 
Q 2881 1984 2565 2268 
Q 2250 2553 1709 2553 
Q 1456 2553 1204 2497 
Q 953 2441 691 2322 
L 691 4666 
z
" transform="scale(0.015625)"/>
       </defs>
       <use xlink:href="#DejaVuSans-34"/>
       <use xlink:href="#DejaVuSans-35" x="63.623047"/>
       <use xlink:href="#DejaVuSans-b0" x="127.246094"/>
      </g>
     </g>
    </g>
    <g id="xtick_3">
     <g id="line2d_3">
      <path d="M 236.16 174.528 
L 236.16 41.472 
" clip-path="url(#p71fdcfa09c)" style="fill: none; stroke: #b0b0b0; stroke-width: 0.8; stroke-linecap: square"/>
     </g>
     <g id="text_3">
      <!-- 90° -->
      <g transform="translate(227.2975 30.231375) scale(0.1 -0.1)">
       <defs>
        <path id="DejaVuSans-39" d="M 703 97 
L 703 672 
Q 941 559 1184 500 
Q 1428 441 1663 441 
Q 2288 441 2617 861 
Q 2947 1281 2994 2138 
Q 2813 1869 2534 1725 
Q 2256 1581 1919 1581 
Q 1219 1581 811 2004 
Q 403 2428 403 3163 
Q 403 3881 828 4315 
Q 1253 4750 1959 4750 
Q 2769 4750 3195 4129 
Q 3622 3509 3622 2328 
Q 3622 1225 3098 567 
Q 2575 -91 1691 -91 
Q 1453 -91 1209 -44 
Q 966 3 703 97 
z
M 1959 2075 
Q 2384 2075 2632 2365 
Q 2881 2656 2881 3163 
Q 2881 3666 2632 3958 
Q 2384 4250 1959 4250 
Q 1534 4250 1286 3958 
Q 1038 3666 1038 3163 
Q 1038 2656 1286 2365 
Q 1534 2075 1959 2075 
z
" transform="scale(0.015625)"/>
       </defs>
       <use xlink:href="#DejaVuSans-39"/>
       <use xlink:href="#DejaVuSans-30" x="63.623047"/>
       <use xlink:href="#DejaVuSans-b0" x="127.246094"/>
      </g>
     </g>
    </g>
    <g id="xtick_4">
     <g id="line2d_4">
      <path d="M 236.16 174.528 
L 142.0752 80.4432 
" clip-path="url(#p71fdcfa09c)" style="fill: none; stroke: #b0b0b0; stroke-width: 0.8; stroke-linecap: square"/>
     </g>
     <g id="text_4">
      <!-- 135° -->
      <g transform="translate(120.131955 73.30308) scale(0.1 -0.1)">
       <defs>
        <path id="DejaVuSans-31" d="M 794 531 
L 1825 531 
L 1825 4091 
L 703 3866 
L 703 4441 
L 1819 4666 
L 2450 4666 
L 2450 531 
L 3481 531 
L 3481 0 
L 794 0 
L 794 531 
z
" transform="scale(0.015625)"/>
        <path id="DejaVuSans-33" d="M 2597 2516 
Q 3050 2419 3304 2112 
Q 3559 1806 3559 1356 
Q 3559 666 3084 287 
Q 2609 -91 1734 -91 
Q 1441 -91 1130 -33 
Q 819 25 488 141 
L 488 750 
Q 750 597 1062 519 
Q 1375 441 1716 441 
Q 2309 441 2620 675 
Q 2931 909 2931 1356 
Q 2931 1769 2642 2001 
Q 2353 2234 1838 2234 
L 1294 2234 
L 1294 2753 
L 1863 2753 
Q 2328 2753 2575 2939 
Q 2822 3125 2822 3475 
Q 2822 3834 2567 4026 
Q 2313 4219 1838 4219 
Q 1578 4219 1281 4162 
Q 984 4106 628 3988 
L 628 4550 
Q 988 4650 1302 4700 
Q 1616 4750 1894 4750 
Q 2613 4750 3031 4423 
Q 3450 4097 3450 3541 
Q 3450 3153 3228 2886 
Q 3006 2619 2597 2516 
z
" transform="scale(0.015625)"/>
       </defs>
       <use xlink:href="#DejaVuSans-31"/>
       <use xlink:href="#DejaVuSans-33" x="63.623047"/>
       <use xlink:href="#DejaVuSans-35" x="127.246094"/>
       <use xlink:href="#DejaVuSans-b0" x="190.869141"/>
      </g>
     </g>
    </g>
    <g id="xtick_5">
     <g id="line2d_5">
      <path d="M 236.16 174.528 
L 103.104 174.528 
" clip-path="url(#p71fdcfa09c)" style="fill: none; stroke: #b0b0b0; stroke-width: 0.8; stroke-linecap: square"/>
     </g>
     <g id="text_5">
      <!-- 180° -->
      <g transform="translate(77.06025 177.287375) scale(0.1 -0.1)">
       <defs>
        <path id="DejaVuSans-38" d="M 2034 2216 
Q 1584 2216 1326 1975 
Q 1069 1734 1069 1313 
Q 1069 891 1326 650 
Q 1584 409 2034 409 
Q 2484 409 2743 651 
Q 3003 894 3003 1313 
Q 3003 1734 2745 1975 
Q 2488 2216 2034 2216 
z
M 1403 2484 
Q 997 2584 770 2862 
Q 544 3141 544 3541 
Q 544 4100 942 4425 
Q 1341 4750 2034 4750 
Q 2731 4750 3128 4425 
Q 3525 4100 3525 3541 
Q 3525 3141 3298 2862 
Q 3072 2584 2669 2484 
Q 3125 2378 3379 2068 
Q 3634 1759 3634 1313 
Q 3634 634 3220 271 
Q 2806 -91 2034 -91 
Q 1263 -91 848 271 
Q 434 634 434 1313 
Q 434 1759 690 2068 
Q 947 2378 1403 2484 
z
M 1172 3481 
Q 1172 3119 1398 2916 
Q 1625 2713 2034 2713 
Q 2441 2713 2670 2916 
Q 2900 3119 2900 3481 
Q 2900 3844 2670 4047 
Q 2441 4250 2034 4250 
Q 1625 4250 1398 4047 
Q 1172 3844 1172 3481 
z
" transform="scale(0.015625)"/>
       </defs>
       <use xlink:href="#DejaVuSans-31"/>
       <use xlink:href="#DejaVuSans-38" x="63.623047"/>
       <use xlink:href="#DejaVuSans-30" x="127.246094"/>
       <use xlink:href="#DejaVuSans-b0" x="190.869141"/>
      </g>
     </g>
    </g>
    <g id="xtick_6">
     <g id="line2d_6">
      <path d="M 236.16 174.528 
L 142.0752 268.6128 
" clip-path="url(#p71fdcfa09c)" style="fill: none; stroke: #b0b0b0; stroke-width: 0.8; stroke-linecap: square"/>
     </g>
     <g id="text_6">
      <!-- 225° -->
      <g transform="translate(120.131955 281.27167) scale(0.1 -0.1)">
       <defs>
        <path id="DejaVuSans-32" d="M 1228 531 
L 3431 531 
L 3431 0 
L 469 0 
L 469 531 
Q 828 903 1448 1529 
Q 2069 2156 2228 2338 
Q 2531 2678 2651 2914 
Q 2772 3150 2772 3378 
Q 2772 3750 2511 3984 
Q 2250 4219 1831 4219 
Q 1534 4219 1204 4116 
Q 875 4013 500 3803 
L 500 4441 
Q 881 4594 1212 4672 
Q 1544 4750 1819 4750 
Q 2544 4750 2975 4387 
Q 3406 4025 3406 3419 
Q 3406 3131 3298 2873 
Q 3191 2616 2906 2266 
Q 2828 2175 2409 1742 
Q 1991 1309 1228 531 
z
" transform="scale(0.015625)"/>
       </defs>
       <use xlink:href="#DejaVuSans-32"/>
       <use xlink:href="#DejaVuSans-32" x="63.623047"/>
       <use xlink:href="#DejaVuSans-35" x="127.246094"/>
       <use xlink:href="#DejaVuSans-b0" x="190.869141"/>
      </g>
     </g>
    </g>
    <g id="xtick_7">
     <g id="line2d_7">
      <path d="M 236.16 174.528 
L 236.16 307.584 
" clip-path="url(#p71fdcfa09c)" style="fill: none; stroke: #b0b0b0; stroke-width: 0.8; stroke-linecap: square"/>
     </g>
     <g id="text_7">
      <!-- 270° -->
      <g transform="translate(224.11625 324.343375) scale(0.1 -0.1)">
       <defs>
        <path id="DejaVuSans-37" d="M 525 4666 
L 3525 4666 
L 3525 4397 
L 1831 0 
L 1172 0 
L 2766 4134 
L 525 4134 
L 525 4666 
z
" transform="scale(0.015625)"/>
       </defs>
       <use xlink:href="#DejaVuSans-32"/>
       <use xlink:href="#DejaVuSans-37" x="63.623047"/>
       <use xlink:href="#DejaVuSans-30" x="127.246094"/>
       <use xlink:href="#DejaVuSans-b0" x="190.869141"/>
      </g>
     </g>
    </g>
    <g id="xtick_8">
     <g id="line2d_8">
      <path d="M 236.16 174.528 
L 330.2448 268.6128 
" clip-path="url(#p71fdcfa09c)" style="fill: none; stroke: #b0b0b0; stroke-width: 0.8; stroke-linecap: square"/>
     </g>
     <g id="text_8">
      <!-- 315° -->
      <g transform="translate(328.100545 281.27167) scale(0.1 -0.1)">
       <use xlink:href="#DejaVuSans-33"/>
       <use xlink:href="#DejaVuSans-31" x="63.623047"/>
       <use xlink:href="#DejaVuSans-35" x="127.246094"/>
       <use xlink:href="#DejaVuSans-b0" x="190.869141"/>
      </g>
     </g>
    </g>
   </g>
   <g id="matplotlib.axis_2">
    <g id="ytick_1">
     <g id="line2d_9">
      <path d="M 252.96377 174.528 
C 252.96377 172.321349 252.529108 170.136155 251.684659 168.097476 
C 250.840211 166.058796 249.602398 164.206278 248.04206 162.64594 
C 246.481722 161.085602 244.629204 159.847789 242.590524 159.003341 
C 240.551845 158.158892 238.366651 157.72423 236.16 157.72423 
C 233.953349 157.72423 231.768155 158.158892 229.729476 159.003341 
C 227.690796 159.847789 225.838278 161.085602 224.27794 162.64594 
C 222.717602 164.206278 221.479789 166.058796 220.635341 168.097476 
C 219.790892 170.136155 219.35623 172.321349 219.35623 174.528 
C 219.35623 176.734651 219.790892 178.919845 220.635341 180.958524 
C 221.479789 182.997204 222.717602 184.849722 224.27794 186.41006 
C 225.838278 187.970398 227.690796 189.208211 229.729476 190.052659 
C 231.768155 190.897108 233.953349 191.33177 236.16 191.33177 
C 238.366651 191.33177 240.551845 190.897108 242.590524 190.052659 
C 244.629204 189.208211 246.481722 187.970398 248.04206 186.41006 
C 249.602398 184.849722 250.840211 182.997204 251.684659 180.958524 
C 252.529108 178.919845 252.96377 176.734651 252.96377 174.528 
" clip-path="url(#p71fdcfa09c)" style="fill: none; stroke: #b0b0b0; stroke-width: 0.8; stroke-linecap: square"/>
     </g>
     <g id="text_9">
      <!-- 0.01 -->
      <g transform="translate(251.684659 166.017788) scale(0.1 -0.1)">
       <defs>
        <path id="DejaVuSans-2e" d="M 684 794 
L 1344 794 
L 1344 0 
L 684 0 
L 684 794 
z
" transform="scale(0.015625)"/>
       </defs>
       <use xlink:href="#DejaVuSans-30"/>
       <use xlink:href="#DejaVuSans-2e" x="63.623047"/>
       <use xlink:href="#DejaVuSans-30" x="95.410156"/>
       <use xlink:href="#DejaVuSans-31" x="159.033203"/>
      </g>
     </g>
    </g>
    <g id="ytick_2">
     <g id="line2d_10">
      <path d="M 269.76754 174.528 
C 269.76754 170.114698 268.898216 165.74431 267.209319 161.666951 
C 265.520421 157.589592 263.044795 153.884556 259.92412 150.76388 
C 256.803444 147.643205 253.098408 145.167579 249.021049 143.478681 
C 244.94369 141.789784 240.573302 140.92046 236.16 140.92046 
C 231.746698 140.92046 227.37631 141.789784 223.298951 143.478681 
C 219.221592 145.167579 215.516556 147.643205 212.39588 150.76388 
C 209.275205 153.884556 206.799579 157.589592 205.110681 161.666951 
C 203.421784 165.74431 202.55246 170.114698 202.55246 174.528 
C 202.55246 178.941302 203.421784 183.31169 205.110681 187.389049 
C 206.799579 191.466408 209.275205 195.171444 212.39588 198.29212 
C 215.516556 201.412795 219.221592 203.888421 223.298951 205.577319 
C 227.37631 207.266216 231.746698 208.13554 236.16 208.13554 
C 240.573302 208.13554 244.94369 207.266216 249.021049 205.577319 
C 253.098408 203.888421 256.803444 201.412795 259.92412 198.29212 
C 263.044795 195.171444 265.520421 191.466408 267.209319 187.389049 
C 268.898216 183.31169 269.76754 178.941302 269.76754 174.528 
" clip-path="url(#p71fdcfa09c)" style="fill: none; stroke: #b0b0b0; stroke-width: 0.8; stroke-linecap: square"/>
     </g>
     <g id="text_10">
      <!-- 0.02 -->
      <g transform="translate(267.209319 159.587264) scale(0.1 -0.1)">
       <use xlink:href="#DejaVuSans-30"/>
       <use xlink:href="#DejaVuSans-2e" x="63.623047"/>
       <use xlink:href="#DejaVuSans-30" x="95.410156"/>
       <use xlink:href="#DejaVuSans-32" x="159.033203"/>
      </g>
     </g>
    </g>
    <g id="ytick_3">
     <g id="line2d_11">
      <path d="M 286.571311 174.528 
C 286.571311 167.908047 285.267324 161.352465 282.733978 155.236427 
C 280.200632 149.120388 276.487193 143.562834 271.80618 138.88182 
C 267.125166 134.200807 261.567612 130.487368 255.451573 127.954022 
C 249.335535 125.420676 242.779953 124.116689 236.16 124.116689 
C 229.540047 124.116689 222.984465 125.420676 216.868427 127.954022 
C 210.752388 130.487368 205.194834 134.200807 200.51382 138.88182 
C 195.832807 143.562834 192.119368 149.120388 189.586022 155.236427 
C 187.052676 161.352465 185.748689 167.908047 185.748689 174.528 
C 185.748689 181.147953 187.052676 187.703535 189.586022 193.819573 
C 192.119368 199.935612 195.832807 205.493166 200.51382 210.17418 
C 205.194834 214.855193 210.752388 218.568632 216.868427 221.101978 
C 222.984465 223.635324 229.540047 224.939311 236.16 224.939311 
C 242.779953 224.939311 249.335535 223.635324 255.451573 221.101978 
C 261.567612 218.568632 267.125166 214.855193 271.80618 210.17418 
C 276.487193 205.493166 280.200632 199.935612 282.733978 193.819573 
C 285.267324 187.703535 286.571311 181.147953 286.571311 174.528 
" clip-path="url(#p71fdcfa09c)" style="fill: none; stroke: #b0b0b0; stroke-width: 0.8; stroke-linecap: square"/>
     </g>
     <g id="text_11">
      <!-- 0.03 -->
      <g transform="translate(282.733978 153.156739) scale(0.1 -0.1)">
       <use xlink:href="#DejaVuSans-30"/>
       <use xlink:href="#DejaVuSans-2e" x="63.623047"/>
       <use xlink:href="#DejaVuSans-30" x="95.410156"/>
       <use xlink:href="#DejaVuSans-33" x="159.033203"/>
      </g>
     </g>
    </g>
    <g id="ytick_4">
     <g id="line2d_12">
      <path d="M 303.375081 174.528 
C 303.375081 165.701396 301.636433 156.96062 298.258638 148.805902 
C 294.880843 140.651184 289.929591 133.241112 283.68824 126.99976 
C 277.446888 120.758409 270.036816 115.807157 261.882098 112.429362 
C 253.72738 109.051567 244.986604 107.312919 236.16 107.312919 
C 227.333396 107.312919 218.59262 109.051567 210.437902 112.429362 
C 202.283184 115.807157 194.873112 120.758409 188.63176 126.99976 
C 182.390409 133.241112 177.439157 140.651184 174.061362 148.805902 
C 170.683567 156.96062 168.944919 165.701396 168.944919 174.528 
C 168.944919 183.354604 170.683567 192.09538 174.061362 200.250098 
C 177.439157 208.404816 182.390409 215.814888 188.63176 222.05624 
C 194.873112 228.297591 202.283184 233.248843 210.437902 236.626638 
C 218.59262 240.004433 227.333396 241.743081 236.16 241.743081 
C 244.986604 241.743081 253.72738 240.004433 261.882098 236.626638 
C 270.036816 233.248843 277.446888 228.297591 283.68824 222.05624 
C 289.929591 215.814888 294.880843 208.404816 298.258638 200.250098 
C 301.636433 192.09538 303.375081 183.354604 303.375081 174.528 
" clip-path="url(#p71fdcfa09c)" style="fill: none; stroke: #b0b0b0; stroke-width: 0.8; stroke-linecap: square"/>
     </g>
     <g id="text_12">
      <!-- 0.04 -->
      <g transform="translate(298.258638 146.726215) scale(0.1 -0.1)">
       <use xlink:href="#DejaVuSans-30"/>
       <use xlink:href="#DejaVuSans-2e" x="63.623047"/>
       <use xlink:href="#DejaVuSans-30" x="95.410156"/>
       <use xlink:href="#DejaVuSans-34" x="159.033203"/>
      </g>
     </g>
    </g>
    <g id="ytick_5">
     <g id="line2d_13">
      <path d="M 320.178851 174.528 
C 320.178851 163.494746 318.005541 152.568776 313.783297 142.375378 
C 309.561053 132.18198 303.371988 122.91939 295.570299 115.117701 
C 287.76861 107.316012 278.50602 101.126947 268.312622 96.904703 
C 258.119224 92.682459 247.193254 90.509149 236.16 90.509149 
C 225.126746 90.509149 214.200776 92.682459 204.007378 96.904703 
C 193.81398 101.126947 184.55139 107.316012 176.749701 115.117701 
C 168.948012 122.91939 162.758947 132.18198 158.536703 142.375378 
C 154.314459 152.568776 152.141149 163.494746 152.141149 174.528 
C 152.141149 185.561254 154.314459 196.487224 158.536703 206.680622 
C 162.758947 216.87402 168.948012 226.13661 176.749701 233.938299 
C 184.55139 241.739988 193.81398 247.929053 204.007378 252.151297 
C 214.200776 256.373541 225.126746 258.546851 236.16 258.546851 
C 247.193254 258.546851 258.119224 256.373541 268.312622 252.151297 
C 278.50602 247.929053 287.76861 241.739988 295.570299 233.938299 
C 303.371988 226.13661 309.561053 216.87402 313.783297 206.680622 
C 318.005541 196.487224 320.178851 185.561254 320.178851 174.528 
" clip-path="url(#p71fdcfa09c)" style="fill: none; stroke: #b0b0b0; stroke-width: 0.8; stroke-linecap: square"/>
     </g>
     <g id="text_13">
      <!-- 0.05 -->
      <g transform="translate(313.783297 140.29569) scale(0.1 -0.1)">
       <use xlink:href="#DejaVuSans-30"/>
       <use xlink:href="#DejaVuSans-2e" x="63.623047"/>
       <use xlink:href="#DejaVuSans-30" x="95.410156"/>
       <use xlink:href="#DejaVuSans-35" x="159.033203"/>
      </g>
     </g>
    </g>
    <g id="ytick_6">
     <g id="line2d_14">
      <path d="M 336.982621 174.528 
C 336.982621 161.288095 334.374649 148.176931 329.307956 135.944853 
C 324.241264 123.712776 316.814386 112.597668 307.452359 103.235641 
C 298.090332 93.873614 286.975224 86.446736 274.743147 81.380044 
C 262.511069 76.313351 249.399905 73.705379 236.16 73.705379 
C 222.920095 73.705379 209.808931 76.313351 197.576853 81.380044 
C 185.344776 86.446736 174.229668 93.873614 164.867641 103.235641 
C 155.505614 112.597668 148.078736 123.712776 143.012044 135.944853 
C 137.945351 148.176931 135.337379 161.288095 135.337379 174.528 
C 135.337379 187.767905 137.945351 200.879069 143.012044 213.111147 
C 148.078736 225.343224 155.505614 236.458332 164.867641 245.820359 
C 174.229668 255.182386 185.344776 262.609264 197.576853 267.675956 
C 209.808931 272.742649 222.920095 275.350621 236.16 275.350621 
C 249.399905 275.350621 262.511069 272.742649 274.743147 267.675956 
C 286.975224 262.609264 298.090332 255.182386 307.452359 245.820359 
C 316.814386 236.458332 324.241264 225.343224 329.307956 213.111147 
C 334.374649 200.879069 336.982621 187.767905 336.982621 174.528 
" clip-path="url(#p71fdcfa09c)" style="fill: none; stroke: #b0b0b0; stroke-width: 0.8; stroke-linecap: square"/>
     </g>
     <g id="text_14">
      <!-- 0.06 -->
      <g transform="translate(329.307956 133.865166) scale(0.1 -0.1)">
       <defs>
        <path id="DejaVuSans-36" d="M 2113 2584 
Q 1688 2584 1439 2293 
Q 1191 2003 1191 1497 
Q 1191 994 1439 701 
Q 1688 409 2113 409 
Q 2538 409 2786 701 
Q 3034 994 3034 1497 
Q 3034 2003 2786 2293 
Q 2538 2584 2113 2584 
z
M 3366 4563 
L 3366 3988 
Q 3128 4100 2886 4159 
Q 2644 4219 2406 4219 
Q 1781 4219 1451 3797 
Q 1122 3375 1075 2522 
Q 1259 2794 1537 2939 
Q 1816 3084 2150 3084 
Q 2853 3084 3261 2657 
Q 3669 2231 3669 1497 
Q 3669 778 3244 343 
Q 2819 -91 2113 -91 
Q 1303 -91 875 529 
Q 447 1150 447 2328 
Q 447 3434 972 4092 
Q 1497 4750 2381 4750 
Q 2619 4750 2861 4703 
Q 3103 4656 3366 4563 
z
" transform="scale(0.015625)"/>
       </defs>
       <use xlink:href="#DejaVuSans-30"/>
       <use xlink:href="#DejaVuSans-2e" x="63.623047"/>
       <use xlink:href="#DejaVuSans-30" x="95.410156"/>
       <use xlink:href="#DejaVuSans-36" x="159.033203"/>
      </g>
     </g>
    </g>
    <g id="ytick_7">
     <g id="line2d_15">
      <path d="M 353.786392 174.528 
C 353.786392 159.081444 350.743757 143.785086 344.832616 129.514329 
C 338.921475 115.243572 330.256784 102.275945 319.334419 91.353581 
C 308.412055 80.431216 295.444428 71.766525 281.173671 65.855384 
C 266.902914 59.944243 251.606556 56.901608 236.16 56.901608 
C 220.713444 56.901608 205.417086 59.944243 191.146329 65.855384 
C 176.875572 71.766525 163.907945 80.431216 152.985581 91.353581 
C 142.063216 102.275945 133.398525 115.243572 127.487384 129.514329 
C 121.576243 143.785086 118.533608 159.081444 118.533608 174.528 
C 118.533608 189.974556 121.576243 205.270914 127.487384 219.541671 
C 133.398525 233.812428 142.063216 246.780055 152.985581 257.702419 
C 163.907945 268.624784 176.875572 277.289475 191.146329 283.200616 
C 205.417086 289.111757 220.713444 292.154392 236.16 292.154392 
C 251.606556 292.154392 266.902914 289.111757 281.173671 283.200616 
C 295.444428 277.289475 308.412055 268.624784 319.334419 257.702419 
C 330.256784 246.780055 338.921475 233.812428 344.832616 219.541671 
C 350.743757 205.270914 353.786392 189.974556 353.786392 174.528 
" clip-path="url(#p71fdcfa09c)" style="fill: none; stroke: #b0b0b0; stroke-width: 0.8; stroke-linecap: square"/>
     </g>
     <g id="text_15">
      <!-- 0.07 -->
      <g transform="translate(344.832616 127.434641) scale(0.1 -0.1)">
       <use xlink:href="#DejaVuSans-30"/>
       <use xlink:href="#DejaVuSans-2e" x="63.623047"/>
       <use xlink:href="#DejaVuSans-30" x="95.410156"/>
       <use xlink:href="#DejaVuSans-37" x="159.033203"/>
      </g>
     </g>
    </g>
   </g>
   <g id="line2d_16">
    <path d="M 236.16 174.528 
L 361.515769 193.072261 
" clip-path="url(#p71fdcfa09c)" style="fill: none; stroke-dasharray: 7.4,3.2; stroke-dashoffset: 0; stroke: #ff0000; stroke-width: 2"/>
   </g>
   <g id="patch_3">
    <path d="M 369.216 174.528 
C 369.216 157.055246 365.774248 139.752393 359.087715 123.609673 
C 352.401182 107.466954 342.599903 92.798303 330.2448 80.4432 
C 317.889697 68.088097 303.221046 58.286818 287.078327 51.600285 
C 270.935607 44.913752 253.632754 41.472 236.16 41.472 
C 218.687246 41.472 201.384393 44.913752 185.241673 51.600285 
C 169.098954 58.286818 154.430303 68.088097 142.0752 80.4432 
C 129.720097 92.798303 119.918818 107.466954 113.232285 123.609673 
C 106.545752 139.752393 103.104 157.055246 103.104 174.528 
C 103.104 192.000754 106.545752 209.303607 113.232285 225.446327 
C 119.918818 241.589046 129.720097 256.257697 142.0752 268.6128 
C 154.430303 280.967903 169.098954 290.769182 185.241673 297.455715 
C 201.384393 304.142248 218.687246 307.584 236.16 307.584 
C 253.632754 307.584 270.935607 304.142248 287.078327 297.455715 
C 303.221046 290.769182 317.889697 280.967903 330.2448 268.6128 
C 342.599903 256.257697 352.401182 241.589046 359.087715 225.446327 
C 365.774248 209.303607 369.216 192.000754 369.216 174.528 
" style="fill: none; stroke: #000000; stroke-width: 0.8; stroke-linejoin: miter; stroke-linecap: square"/>
   </g>
   <g id="text_16">
    <!-- Distribution of projected eye movement velocity on the screen - NewM5_13_23 -->
    <g transform="translate(-1.632187 13.803563) scale(0.12 -0.12)">
     <defs>
      <path id="DejaVuSans-44" d="M 1259 4147 
L 1259 519 
L 2022 519 
Q 2988 519 3436 956 
Q 3884 1394 3884 2338 
Q 3884 3275 3436 3711 
Q 2988 4147 2022 4147 
L 1259 4147 
z
M 628 4666 
L 1925 4666 
Q 3281 4666 3915 4102 
Q 4550 3538 4550 2338 
Q 4550 1131 3912 565 
Q 3275 0 1925 0 
L 628 0 
L 628 4666 
z
" transform="scale(0.015625)"/>
      <path id="DejaVuSans-69" d="M 603 3500 
L 1178 3500 
L 1178 0 
L 603 0 
L 603 3500 
z
M 603 4863 
L 1178 4863 
L 1178 4134 
L 603 4134 
L 603 4863 
z
" transform="scale(0.015625)"/>
      <path id="DejaVuSans-73" d="M 2834 3397 
L 2834 2853 
Q 2591 2978 2328 3040 
Q 2066 3103 1784 3103 
Q 1356 3103 1142 2972 
Q 928 2841 928 2578 
Q 928 2378 1081 2264 
Q 1234 2150 1697 2047 
L 1894 2003 
Q 2506 1872 2764 1633 
Q 3022 1394 3022 966 
Q 3022 478 2636 193 
Q 2250 -91 1575 -91 
Q 1294 -91 989 -36 
Q 684 19 347 128 
L 347 722 
Q 666 556 975 473 
Q 1284 391 1588 391 
Q 1994 391 2212 530 
Q 2431 669 2431 922 
Q 2431 1156 2273 1281 
Q 2116 1406 1581 1522 
L 1381 1569 
Q 847 1681 609 1914 
Q 372 2147 372 2553 
Q 372 3047 722 3315 
Q 1072 3584 1716 3584 
Q 2034 3584 2315 3537 
Q 2597 3491 2834 3397 
z
" transform="scale(0.015625)"/>
      <path id="DejaVuSans-74" d="M 1172 4494 
L 1172 3500 
L 2356 3500 
L 2356 3053 
L 1172 3053 
L 1172 1153 
Q 1172 725 1289 603 
Q 1406 481 1766 481 
L 2356 481 
L 2356 0 
L 1766 0 
Q 1100 0 847 248 
Q 594 497 594 1153 
L 594 3053 
L 172 3053 
L 172 3500 
L 594 3500 
L 594 4494 
L 1172 4494 
z
" transform="scale(0.015625)"/>
      <path id="DejaVuSans-72" d="M 2631 2963 
Q 2534 3019 2420 3045 
Q 2306 3072 2169 3072 
Q 1681 3072 1420 2755 
Q 1159 2438 1159 1844 
L 1159 0 
L 581 0 
L 581 3500 
L 1159 3500 
L 1159 2956 
Q 1341 3275 1631 3429 
Q 1922 3584 2338 3584 
Q 2397 3584 2469 3576 
Q 2541 3569 2628 3553 
L 2631 2963 
z
" transform="scale(0.015625)"/>
      <path id="DejaVuSans-62" d="M 3116 1747 
Q 3116 2381 2855 2742 
Q 2594 3103 2138 3103 
Q 1681 3103 1420 2742 
Q 1159 2381 1159 1747 
Q 1159 1113 1420 752 
Q 1681 391 2138 391 
Q 2594 391 2855 752 
Q 3116 1113 3116 1747 
z
M 1159 2969 
Q 1341 3281 1617 3432 
Q 1894 3584 2278 3584 
Q 2916 3584 3314 3078 
Q 3713 2572 3713 1747 
Q 3713 922 3314 415 
Q 2916 -91 2278 -91 
Q 1894 -91 1617 61 
Q 1341 213 1159 525 
L 1159 0 
L 581 0 
L 581 4863 
L 1159 4863 
L 1159 2969 
z
" transform="scale(0.015625)"/>
      <path id="DejaVuSans-75" d="M 544 1381 
L 544 3500 
L 1119 3500 
L 1119 1403 
Q 1119 906 1312 657 
Q 1506 409 1894 409 
Q 2359 409 2629 706 
Q 2900 1003 2900 1516 
L 2900 3500 
L 3475 3500 
L 3475 0 
L 2900 0 
L 2900 538 
Q 2691 219 2414 64 
Q 2138 -91 1772 -91 
Q 1169 -91 856 284 
Q 544 659 544 1381 
z
M 1991 3584 
L 1991 3584 
z
" transform="scale(0.015625)"/>
      <path id="DejaVuSans-6f" d="M 1959 3097 
Q 1497 3097 1228 2736 
Q 959 2375 959 1747 
Q 959 1119 1226 758 
Q 1494 397 1959 397 
Q 2419 397 2687 759 
Q 2956 1122 2956 1747 
Q 2956 2369 2687 2733 
Q 2419 3097 1959 3097 
z
M 1959 3584 
Q 2709 3584 3137 3096 
Q 3566 2609 3566 1747 
Q 3566 888 3137 398 
Q 2709 -91 1959 -91 
Q 1206 -91 779 398 
Q 353 888 353 1747 
Q 353 2609 779 3096 
Q 1206 3584 1959 3584 
z
" transform="scale(0.015625)"/>
      <path id="DejaVuSans-6e" d="M 3513 2113 
L 3513 0 
L 2938 0 
L 2938 2094 
Q 2938 2591 2744 2837 
Q 2550 3084 2163 3084 
Q 1697 3084 1428 2787 
Q 1159 2491 1159 1978 
L 1159 0 
L 581 0 
L 581 3500 
L 1159 3500 
L 1159 2956 
Q 1366 3272 1645 3428 
Q 1925 3584 2291 3584 
Q 2894 3584 3203 3211 
Q 3513 2838 3513 2113 
z
" transform="scale(0.015625)"/>
      <path id="DejaVuSans-20" transform="scale(0.015625)"/>
      <path id="DejaVuSans-66" d="M 2375 4863 
L 2375 4384 
L 1825 4384 
Q 1516 4384 1395 4259 
Q 1275 4134 1275 3809 
L 1275 3500 
L 2222 3500 
L 2222 3053 
L 1275 3053 
L 1275 0 
L 697 0 
L 697 3053 
L 147 3053 
L 147 3500 
L 697 3500 
L 697 3744 
Q 697 4328 969 4595 
Q 1241 4863 1831 4863 
L 2375 4863 
z
" transform="scale(0.015625)"/>
      <path id="DejaVuSans-70" d="M 1159 525 
L 1159 -1331 
L 581 -1331 
L 581 3500 
L 1159 3500 
L 1159 2969 
Q 1341 3281 1617 3432 
Q 1894 3584 2278 3584 
Q 2916 3584 3314 3078 
Q 3713 2572 3713 1747 
Q 3713 922 3314 415 
Q 2916 -91 2278 -91 
Q 1894 -91 1617 61 
Q 1341 213 1159 525 
z
M 3116 1747 
Q 3116 2381 2855 2742 
Q 2594 3103 2138 3103 
Q 1681 3103 1420 2742 
Q 1159 2381 1159 1747 
Q 1159 1113 1420 752 
Q 1681 391 2138 391 
Q 2594 391 2855 752 
Q 3116 1113 3116 1747 
z
" transform="scale(0.015625)"/>
      <path id="DejaVuSans-6a" d="M 603 3500 
L 1178 3500 
L 1178 -63 
Q 1178 -731 923 -1031 
Q 669 -1331 103 -1331 
L -116 -1331 
L -116 -844 
L 38 -844 
Q 366 -844 484 -692 
Q 603 -541 603 -63 
L 603 3500 
z
M 603 4863 
L 1178 4863 
L 1178 4134 
L 603 4134 
L 603 4863 
z
" transform="scale(0.015625)"/>
      <path id="DejaVuSans-65" d="M 3597 1894 
L 3597 1613 
L 953 1613 
Q 991 1019 1311 708 
Q 1631 397 2203 397 
Q 2534 397 2845 478 
Q 3156 559 3463 722 
L 3463 178 
Q 3153 47 2828 -22 
Q 2503 -91 2169 -91 
Q 1331 -91 842 396 
Q 353 884 353 1716 
Q 353 2575 817 3079 
Q 1281 3584 2069 3584 
Q 2775 3584 3186 3129 
Q 3597 2675 3597 1894 
z
M 3022 2063 
Q 3016 2534 2758 2815 
Q 2500 3097 2075 3097 
Q 1594 3097 1305 2825 
Q 1016 2553 972 2059 
L 3022 2063 
z
" transform="scale(0.015625)"/>
      <path id="DejaVuSans-63" d="M 3122 3366 
L 3122 2828 
Q 2878 2963 2633 3030 
Q 2388 3097 2138 3097 
Q 1578 3097 1268 2742 
Q 959 2388 959 1747 
Q 959 1106 1268 751 
Q 1578 397 2138 397 
Q 2388 397 2633 464 
Q 2878 531 3122 666 
L 3122 134 
Q 2881 22 2623 -34 
Q 2366 -91 2075 -91 
Q 1284 -91 818 406 
Q 353 903 353 1747 
Q 353 2603 823 3093 
Q 1294 3584 2113 3584 
Q 2378 3584 2631 3529 
Q 2884 3475 3122 3366 
z
" transform="scale(0.015625)"/>
      <path id="DejaVuSans-64" d="M 2906 2969 
L 2906 4863 
L 3481 4863 
L 3481 0 
L 2906 0 
L 2906 525 
Q 2725 213 2448 61 
Q 2172 -91 1784 -91 
Q 1150 -91 751 415 
Q 353 922 353 1747 
Q 353 2572 751 3078 
Q 1150 3584 1784 3584 
Q 2172 3584 2448 3432 
Q 2725 3281 2906 2969 
z
M 947 1747 
Q 947 1113 1208 752 
Q 1469 391 1925 391 
Q 2381 391 2643 752 
Q 2906 1113 2906 1747 
Q 2906 2381 2643 2742 
Q 2381 3103 1925 3103 
Q 1469 3103 1208 2742 
Q 947 2381 947 1747 
z
" transform="scale(0.015625)"/>
      <path id="DejaVuSans-79" d="M 2059 -325 
Q 1816 -950 1584 -1140 
Q 1353 -1331 966 -1331 
L 506 -1331 
L 506 -850 
L 844 -850 
Q 1081 -850 1212 -737 
Q 1344 -625 1503 -206 
L 1606 56 
L 191 3500 
L 800 3500 
L 1894 763 
L 2988 3500 
L 3597 3500 
L 2059 -325 
z
" transform="scale(0.015625)"/>
      <path id="DejaVuSans-6d" d="M 3328 2828 
Q 3544 3216 3844 3400 
Q 4144 3584 4550 3584 
Q 5097 3584 5394 3201 
Q 5691 2819 5691 2113 
L 5691 0 
L 5113 0 
L 5113 2094 
Q 5113 2597 4934 2840 
Q 4756 3084 4391 3084 
Q 3944 3084 3684 2787 
Q 3425 2491 3425 1978 
L 3425 0 
L 2847 0 
L 2847 2094 
Q 2847 2600 2669 2842 
Q 2491 3084 2119 3084 
Q 1678 3084 1418 2786 
Q 1159 2488 1159 1978 
L 1159 0 
L 581 0 
L 581 3500 
L 1159 3500 
L 1159 2956 
Q 1356 3278 1631 3431 
Q 1906 3584 2284 3584 
Q 2666 3584 2933 3390 
Q 3200 3197 3328 2828 
z
" transform="scale(0.015625)"/>
      <path id="DejaVuSans-76" d="M 191 3500 
L 800 3500 
L 1894 563 
L 2988 3500 
L 3597 3500 
L 2284 0 
L 1503 0 
L 191 3500 
z
" transform="scale(0.015625)"/>
      <path id="DejaVuSans-6c" d="M 603 4863 
L 1178 4863 
L 1178 0 
L 603 0 
L 603 4863 
z
" transform="scale(0.015625)"/>
      <path id="DejaVuSans-68" d="M 3513 2113 
L 3513 0 
L 2938 0 
L 2938 2094 
Q 2938 2591 2744 2837 
Q 2550 3084 2163 3084 
Q 1697 3084 1428 2787 
Q 1159 2491 1159 1978 
L 1159 0 
L 581 0 
L 581 4863 
L 1159 4863 
L 1159 2956 
Q 1366 3272 1645 3428 
Q 1925 3584 2291 3584 
Q 2894 3584 3203 3211 
Q 3513 2838 3513 2113 
z
" transform="scale(0.015625)"/>
      <path id="DejaVuSans-2d" d="M 313 2009 
L 1997 2009 
L 1997 1497 
L 313 1497 
L 313 2009 
z
" transform="scale(0.015625)"/>
      <path id="DejaVuSans-4e" d="M 628 4666 
L 1478 4666 
L 3547 763 
L 3547 4666 
L 4159 4666 
L 4159 0 
L 3309 0 
L 1241 3903 
L 1241 0 
L 628 0 
L 628 4666 
z
" transform="scale(0.015625)"/>
      <path id="DejaVuSans-77" d="M 269 3500 
L 844 3500 
L 1563 769 
L 2278 3500 
L 2956 3500 
L 3675 769 
L 4391 3500 
L 4966 3500 
L 4050 0 
L 3372 0 
L 2619 2869 
L 1863 0 
L 1184 0 
L 269 3500 
z
" transform="scale(0.015625)"/>
      <path id="DejaVuSans-4d" d="M 628 4666 
L 1569 4666 
L 2759 1491 
L 3956 4666 
L 4897 4666 
L 4897 0 
L 4281 0 
L 4281 4097 
L 3078 897 
L 2444 897 
L 1241 4097 
L 1241 0 
L 628 0 
L 628 4666 
z
" transform="scale(0.015625)"/>
      <path id="DejaVuSans-5f" d="M 3263 -1063 
L 3263 -1509 
L -63 -1509 
L -63 -1063 
L 3263 -1063 
z
" transform="scale(0.015625)"/>
     </defs>
     <use xlink:href="#DejaVuSans-44"/>
     <use xlink:href="#DejaVuSans-69" x="77.001953"/>
     <use xlink:href="#DejaVuSans-73" x="104.785156"/>
     <use xlink:href="#DejaVuSans-74" x="156.884766"/>
     <use xlink:href="#DejaVuSans-72" x="196.09375"/>
     <use xlink:href="#DejaVuSans-69" x="237.207031"/>
     <use xlink:href="#DejaVuSans-62" x="264.990234"/>
     <use xlink:href="#DejaVuSans-75" x="328.466797"/>
     <use xlink:href="#DejaVuSans-74" x="391.845703"/>
     <use xlink:href="#DejaVuSans-69" x="431.054688"/>
     <use xlink:href="#DejaVuSans-6f" x="458.837891"/>
     <use xlink:href="#DejaVuSans-6e" x="520.019531"/>
     <use xlink:href="#DejaVuSans-20" x="583.398438"/>
     <use xlink:href="#DejaVuSans-6f" x="615.185547"/>
     <use xlink:href="#DejaVuSans-66" x="676.367188"/>
     <use xlink:href="#DejaVuSans-20" x="711.572266"/>
     <use xlink:href="#DejaVuSans-70" x="743.359375"/>
     <use xlink:href="#DejaVuSans-72" x="806.835938"/>
     <use xlink:href="#DejaVuSans-6f" x="845.699219"/>
     <use xlink:href="#DejaVuSans-6a" x="906.880859"/>
     <use xlink:href="#DejaVuSans-65" x="934.664062"/>
     <use xlink:href="#DejaVuSans-63" x="996.1875"/>
     <use xlink:href="#DejaVuSans-74" x="1051.167969"/>
     <use xlink:href="#DejaVuSans-65" x="1090.376953"/>
     <use xlink:href="#DejaVuSans-64" x="1151.900391"/>
     <use xlink:href="#DejaVuSans-20" x="1215.376953"/>
     <use xlink:href="#DejaVuSans-65" x="1247.164062"/>
     <use xlink:href="#DejaVuSans-79" x="1308.6875"/>
     <use xlink:href="#DejaVuSans-65" x="1367.867188"/>
     <use xlink:href="#DejaVuSans-20" x="1429.390625"/>
     <use xlink:href="#DejaVuSans-6d" x="1461.177734"/>
     <use xlink:href="#DejaVuSans-6f" x="1558.589844"/>
     <use xlink:href="#DejaVuSans-76" x="1619.771484"/>
     <use xlink:href="#DejaVuSans-65" x="1678.951172"/>
     <use xlink:href="#DejaVuSans-6d" x="1740.474609"/>
     <use xlink:href="#DejaVuSans-65" x="1837.886719"/>
     <use xlink:href="#DejaVuSans-6e" x="1899.410156"/>
     <use xlink:href="#DejaVuSans-74" x="1962.789062"/>
     <use xlink:href="#DejaVuSans-20" x="2001.998047"/>
     <use xlink:href="#DejaVuSans-76" x="2033.785156"/>
     <use xlink:href="#DejaVuSans-65" x="2092.964844"/>
     <use xlink:href="#DejaVuSans-6c" x="2154.488281"/>
     <use xlink:href="#DejaVuSans-6f" x="2182.271484"/>
     <use xlink:href="#DejaVuSans-63" x="2243.453125"/>
     <use xlink:href="#DejaVuSans-69" x="2298.433594"/>
     <use xlink:href="#DejaVuSans-74" x="2326.216797"/>
     <use xlink:href="#DejaVuSans-79" x="2365.425781"/>
     <use xlink:href="#DejaVuSans-20" x="2424.605469"/>
     <use xlink:href="#DejaVuSans-6f" x="2456.392578"/>
     <use xlink:href="#DejaVuSans-6e" x="2517.574219"/>
     <use xlink:href="#DejaVuSans-20" x="2580.953125"/>
     <use xlink:href="#DejaVuSans-74" x="2612.740234"/>
     <use xlink:href="#DejaVuSans-68" x="2651.949219"/>
     <use xlink:href="#DejaVuSans-65" x="2715.328125"/>
     <use xlink:href="#DejaVuSans-20" x="2776.851562"/>
     <use xlink:href="#DejaVuSans-73" x="2808.638672"/>
     <use xlink:href="#DejaVuSans-63" x="2860.738281"/>
     <use xlink:href="#DejaVuSans-72" x="2915.71875"/>
     <use xlink:href="#DejaVuSans-65" x="2954.582031"/>
     <use xlink:href="#DejaVuSans-65" x="3016.105469"/>
     <use xlink:href="#DejaVuSans-6e" x="3077.628906"/>
     <use xlink:href="#DejaVuSans-20" x="3141.007812"/>
     <use xlink:href="#DejaVuSans-2d" x="3172.794922"/>
     <use xlink:href="#DejaVuSans-20" x="3208.878906"/>
     <use xlink:href="#DejaVuSans-4e" x="3240.666016"/>
     <use xlink:href="#DejaVuSans-65" x="3315.470703"/>
     <use xlink:href="#DejaVuSans-77" x="3376.994141"/>
     <use xlink:href="#DejaVuSans-4d" x="3458.78125"/>
     <use xlink:href="#DejaVuSans-35" x="3545.060547"/>
     <use xlink:href="#DejaVuSans-5f" x="3608.683594"/>
     <use xlink:href="#DejaVuSans-31" x="3658.683594"/>
     <use xlink:href="#DejaVuSans-33" x="3722.306641"/>
     <use xlink:href="#DejaVuSans-5f" x="3785.929688"/>
     <use xlink:href="#DejaVuSans-32" x="3835.929688"/>
     <use xlink:href="#DejaVuSans-33" x="3899.552734"/>
    </g>
   </g>
   <g id="legend_1">
    <g id="patch_4">
     <path d="M 127.315469 108.1845 
L 345.004531 108.1845 
Q 347.004531 108.1845 347.004531 106.1845 
L 347.004531 48.472 
Q 347.004531 46.472 345.004531 46.472 
L 127.315469 46.472 
Q 125.315469 46.472 125.315469 48.472 
L 125.315469 106.1845 
Q 125.315469 108.1845 127.315469 108.1845 
z
" style="fill: #ffffff; opacity: 0.8; stroke: #cccccc; stroke-linejoin: miter"/>
    </g>
    <g id="PathCollection_4">
     <g>
      <use xlink:href="#mcab228138a" x="139.315469" y="55.445438" style="fill: #1f77b4; stroke: #1f77b4"/>
     </g>
    </g>
    <g id="text_17">
     <!-- $-0.5 &lt; t &lt; 0.$ -->
     <g transform="translate(157.315469 58.070438) scale(0.1 -0.1)">
      <defs>
       <path id="DejaVuSans-2212" d="M 678 2272 
L 4684 2272 
L 4684 1741 
L 678 1741 
L 678 2272 
z
" transform="scale(0.015625)"/>
       <path id="DejaVuSans-3c" d="M 4684 3150 
L 1459 2003 
L 4684 863 
L 4684 294 
L 678 1747 
L 678 2266 
L 4684 3719 
L 4684 3150 
z
" transform="scale(0.015625)"/>
       <path id="DejaVuSans-Oblique-74" d="M 2706 3500 
L 2619 3053 
L 1472 3053 
L 1100 1153 
Q 1081 1047 1072 975 
Q 1063 903 1063 863 
Q 1063 663 1183 572 
Q 1303 481 1569 481 
L 2150 481 
L 2053 0 
L 1503 0 
Q 991 0 739 200 
Q 488 400 488 806 
Q 488 878 497 964 
Q 506 1050 525 1153 
L 897 3053 
L 409 3053 
L 500 3500 
L 978 3500 
L 1172 4494 
L 1747 4494 
L 1556 3500 
L 2706 3500 
z
" transform="scale(0.015625)"/>
      </defs>
      <use xlink:href="#DejaVuSans-2212" transform="translate(0 0.78125)"/>
      <use xlink:href="#DejaVuSans-30" transform="translate(83.789062 0.78125)"/>
      <use xlink:href="#DejaVuSans-2e" transform="translate(147.412109 0.78125)"/>
      <use xlink:href="#DejaVuSans-35" transform="translate(179.199219 0.78125)"/>
      <use xlink:href="#DejaVuSans-3c" transform="translate(262.304688 0.78125)"/>
      <use xlink:href="#DejaVuSans-Oblique-74" transform="translate(365.576172 0.78125)"/>
      <use xlink:href="#DejaVuSans-3c" transform="translate(424.267578 0.78125)"/>
      <use xlink:href="#DejaVuSans-30" transform="translate(527.539062 0.78125)"/>
      <use xlink:href="#DejaVuSans-2e" transform="translate(591.162109 0.78125)"/>
     </g>
    </g>
    <g id="PathCollection_5">
     <g>
      <use xlink:href="#m261d51ca73" x="139.315469" y="70.123563" style="fill: #ff7f0e; stroke: #ff7f0e"/>
     </g>
    </g>
    <g id="text_18">
     <!-- $0. &lt; t &lt; 0.5$ -->
     <g transform="translate(157.315469 72.748563) scale(0.1 -0.1)">
      <use xlink:href="#DejaVuSans-30" transform="translate(0 0.78125)"/>
      <use xlink:href="#DejaVuSans-2e" transform="translate(63.623047 0.78125)"/>
      <use xlink:href="#DejaVuSans-3c" transform="translate(134.375 0.78125)"/>
      <use xlink:href="#DejaVuSans-Oblique-74" transform="translate(237.646484 0.78125)"/>
      <use xlink:href="#DejaVuSans-3c" transform="translate(296.337891 0.78125)"/>
      <use xlink:href="#DejaVuSans-30" transform="translate(399.609375 0.78125)"/>
      <use xlink:href="#DejaVuSans-2e" transform="translate(463.232422 0.78125)"/>
      <use xlink:href="#DejaVuSans-35" transform="translate(495.019531 0.78125)"/>
     </g>
    </g>
    <g id="PathCollection_6">
     <g>
      <use xlink:href="#m0480a12c26" x="139.315469" y="84.801688" style="fill: #2ca02c; stroke: #2ca02c"/>
     </g>
    </g>
    <g id="text_19">
     <!-- $0.5 &lt; t &lt; 1.$ -->
     <g transform="translate(157.315469 87.426688) scale(0.1 -0.1)">
      <use xlink:href="#DejaVuSans-30" transform="translate(0 0.78125)"/>
      <use xlink:href="#DejaVuSans-2e" transform="translate(63.623047 0.78125)"/>
      <use xlink:href="#DejaVuSans-35" transform="translate(95.410156 0.78125)"/>
      <use xlink:href="#DejaVuSans-3c" transform="translate(178.515625 0.78125)"/>
      <use xlink:href="#DejaVuSans-Oblique-74" transform="translate(281.787109 0.78125)"/>
      <use xlink:href="#DejaVuSans-3c" transform="translate(340.478516 0.78125)"/>
      <use xlink:href="#DejaVuSans-31" transform="translate(443.75 0.78125)"/>
      <use xlink:href="#DejaVuSans-2e" transform="translate(507.373047 0.78125)"/>
     </g>
    </g>
    <g id="line2d_17">
     <path d="M 129.315469 98.604813 
L 139.315469 98.604813 
L 149.315469 98.604813 
" style="fill: none; stroke-dasharray: 7.4,3.2; stroke-dashoffset: 0; stroke: #ff0000; stroke-width: 2"/>
    </g>
    <g id="text_20">
     <!-- Average angle in dark: -8.41 degrees -->
     <g transform="translate(157.315469 102.104813) scale(0.1 -0.1)">
      <defs>
       <path id="DejaVuSans-41" d="M 2188 4044 
L 1331 1722 
L 3047 1722 
L 2188 4044 
z
M 1831 4666 
L 2547 4666 
L 4325 0 
L 3669 0 
L 3244 1197 
L 1141 1197 
L 716 0 
L 50 0 
L 1831 4666 
z
" transform="scale(0.015625)"/>
       <path id="DejaVuSans-61" d="M 2194 1759 
Q 1497 1759 1228 1600 
Q 959 1441 959 1056 
Q 959 750 1161 570 
Q 1363 391 1709 391 
Q 2188 391 2477 730 
Q 2766 1069 2766 1631 
L 2766 1759 
L 2194 1759 
z
M 3341 1997 
L 3341 0 
L 2766 0 
L 2766 531 
Q 2569 213 2275 61 
Q 1981 -91 1556 -91 
Q 1019 -91 701 211 
Q 384 513 384 1019 
Q 384 1609 779 1909 
Q 1175 2209 1959 2209 
L 2766 2209 
L 2766 2266 
Q 2766 2663 2505 2880 
Q 2244 3097 1772 3097 
Q 1472 3097 1187 3025 
Q 903 2953 641 2809 
L 641 3341 
Q 956 3463 1253 3523 
Q 1550 3584 1831 3584 
Q 2591 3584 2966 3190 
Q 3341 2797 3341 1997 
z
" transform="scale(0.015625)"/>
       <path id="DejaVuSans-67" d="M 2906 1791 
Q 2906 2416 2648 2759 
Q 2391 3103 1925 3103 
Q 1463 3103 1205 2759 
Q 947 2416 947 1791 
Q 947 1169 1205 825 
Q 1463 481 1925 481 
Q 2391 481 2648 825 
Q 2906 1169 2906 1791 
z
M 3481 434 
Q 3481 -459 3084 -895 
Q 2688 -1331 1869 -1331 
Q 1566 -1331 1297 -1286 
Q 1028 -1241 775 -1147 
L 775 -588 
Q 1028 -725 1275 -790 
Q 1522 -856 1778 -856 
Q 2344 -856 2625 -561 
Q 2906 -266 2906 331 
L 2906 616 
Q 2728 306 2450 153 
Q 2172 0 1784 0 
Q 1141 0 747 490 
Q 353 981 353 1791 
Q 353 2603 747 3093 
Q 1141 3584 1784 3584 
Q 2172 3584 2450 3431 
Q 2728 3278 2906 2969 
L 2906 3500 
L 3481 3500 
L 3481 434 
z
" transform="scale(0.015625)"/>
       <path id="DejaVuSans-6b" d="M 581 4863 
L 1159 4863 
L 1159 1991 
L 2875 3500 
L 3609 3500 
L 1753 1863 
L 3688 0 
L 2938 0 
L 1159 1709 
L 1159 0 
L 581 0 
L 581 4863 
z
" transform="scale(0.015625)"/>
       <path id="DejaVuSans-3a" d="M 750 794 
L 1409 794 
L 1409 0 
L 750 0 
L 750 794 
z
M 750 3309 
L 1409 3309 
L 1409 2516 
L 750 2516 
L 750 3309 
z
" transform="scale(0.015625)"/>
      </defs>
      <use xlink:href="#DejaVuSans-41"/>
      <use xlink:href="#DejaVuSans-76" x="62.533203"/>
      <use xlink:href="#DejaVuSans-65" x="121.712891"/>
      <use xlink:href="#DejaVuSans-72" x="183.236328"/>
      <use xlink:href="#DejaVuSans-61" x="224.349609"/>
      <use xlink:href="#DejaVuSans-67" x="285.628906"/>
      <use xlink:href="#DejaVuSans-65" x="349.105469"/>
      <use xlink:href="#DejaVuSans-20" x="410.628906"/>
      <use xlink:href="#DejaVuSans-61" x="442.416016"/>
      <use xlink:href="#DejaVuSans-6e" x="503.695312"/>
      <use xlink:href="#DejaVuSans-67" x="567.074219"/>
      <use xlink:href="#DejaVuSans-6c" x="630.550781"/>
      <use xlink:href="#DejaVuSans-65" x="658.333984"/>
      <use xlink:href="#DejaVuSans-20" x="719.857422"/>
      <use xlink:href="#DejaVuSans-69" x="751.644531"/>
      <use xlink:href="#DejaVuSans-6e" x="779.427734"/>
      <use xlink:href="#DejaVuSans-20" x="842.806641"/>
      <use xlink:href="#DejaVuSans-64" x="874.59375"/>
      <use xlink:href="#DejaVuSans-61" x="938.070312"/>
      <use xlink:href="#DejaVuSans-72" x="999.349609"/>
      <use xlink:href="#DejaVuSans-6b" x="1040.462891"/>
      <use xlink:href="#DejaVuSans-3a" x="1098.373047"/>
      <use xlink:href="#DejaVuSans-20" x="1132.064453"/>
      <use xlink:href="#DejaVuSans-2d" x="1163.851562"/>
      <use xlink:href="#DejaVuSans-38" x="1199.935547"/>
      <use xlink:href="#DejaVuSans-2e" x="1263.558594"/>
      <use xlink:href="#DejaVuSans-34" x="1295.345703"/>
      <use xlink:href="#DejaVuSans-31" x="1358.96875"/>
      <use xlink:href="#DejaVuSans-20" x="1422.591797"/>
      <use xlink:href="#DejaVuSans-64" x="1454.378906"/>
      <use xlink:href="#DejaVuSans-65" x="1517.855469"/>
      <use xlink:href="#DejaVuSans-67" x="1579.378906"/>
      <use xlink:href="#DejaVuSans-72" x="1642.855469"/>
      <use xlink:href="#DejaVuSans-65" x="1681.71875"/>
      <use xlink:href="#DejaVuSans-65" x="1743.242188"/>
      <use xlink:href="#DejaVuSans-73" x="1804.765625"/>
     </g>
    </g>
   </g>
  </g>
 </g>
 <defs>
  <clipPath id="p71fdcfa09c">
   <path d="M 369.216 174.528 
C 369.216 157.055246 365.774248 139.752393 359.087715 123.609673 
C 352.401182 107.466954 342.599903 92.798303 330.2448 80.4432 
C 317.889697 68.088097 303.221046 58.286818 287.078327 51.600285 
C 270.935607 44.913752 253.632754 41.472 236.16 41.472 
C 218.687246 41.472 201.384393 44.913752 185.241673 51.600285 
C 169.098954 58.286818 154.430303 68.088097 142.0752 80.4432 
C 129.720097 92.798303 119.918818 107.466954 113.232285 123.609673 
C 106.545752 139.752393 103.104 157.055246 103.104 174.528 
C 103.104 192.000754 106.545752 209.303607 113.232285 225.446327 
C 119.918818 241.589046 129.720097 256.257697 142.0752 268.6128 
C 154.430303 280.967903 169.098954 290.769182 185.241673 297.455715 
C 201.384393 304.142248 218.687246 307.584 236.16 307.584 
C 253.632754 307.584 270.935607 304.142248 287.078327 297.455715 
C 303.221046 290.769182 317.889697 280.967903 330.2448 268.6128 
C 342.599903 256.257697 352.401182 241.589046 359.087715 225.446327 
C 365.774248 209.303607 369.216 192.000754 369.216 174.528 
M 236.16 174.528 
C 236.16 174.528 236.16 174.528 236.16 174.528 
C 236.16 174.528 236.16 174.528 236.16 174.528 
C 236.16 174.528 236.16 174.528 236.16 174.528 
C 236.16 174.528 236.16 174.528 236.16 174.528 
C 236.16 174.528 236.16 174.528 236.16 174.528 
C 236.16 174.528 236.16 174.528 236.16 174.528 
C 236.16 174.528 236.16 174.528 236.16 174.528 
C 236.16 174.528 236.16 174.528 236.16 174.528 
C 236.16 174.528 236.16 174.528 236.16 174.528 
C 236.16 174.528 236.16 174.528 236.16 174.528 
C 236.16 174.528 236.16 174.528 236.16 174.528 
C 236.16 174.528 236.16 174.528 236.16 174.528 
C 236.16 174.528 236.16 174.528 236.16 174.528 
C 236.16 174.528 236.16 174.528 236.16 174.528 
C 236.16 174.528 236.16 174.528 236.16 174.528 
C 236.16 174.528 236.16 174.528 236.16 174.528 
z
"/>
  </clipPath>
 </defs>
</svg>
