<?xml version="1.0" encoding="utf-8" standalone="no"?>
<!DOCTYPE svg PUBLIC "-//W3C//DTD SVG 1.1//EN"
  "http://www.w3.org/Graphics/SVG/1.1/DTD/svg11.dtd">
<svg xmlns:xlink="http://www.w3.org/1999/xlink" width="460.8pt" height="345.6pt" viewBox="0 0 460.8 345.6" xmlns="http://www.w3.org/2000/svg" version="1.1">
 <metadata>
  <rdf:RDF xmlns:dc="http://purl.org/dc/elements/1.1/" xmlns:cc="http://creativecommons.org/ns#" xmlns:rdf="http://www.w3.org/1999/02/22-rdf-syntax-ns#">
   <cc:Work>
    <dc:type rdf:resource="http://purl.org/dc/dcmitype/StillImage"/>
    <dc:date>2023-12-23T17:11:57.644272</dc:date>
    <dc:format>image/svg+xml</dc:format>
    <dc:creator>
     <cc:Agent>
      <dc:title>Matplotlib v3.7.4, https://matplotlib.org/</dc:title>
     </cc:Agent>
    </dc:creator>
   </cc:Work>
  </rdf:RDF>
 </metadata>
 <defs>
  <style type="text/css">*{stroke-linejoin: round; stroke-linecap: butt}</style>
 </defs>
 <g id="figure_1">
  <g id="patch_1">
   <path d="M 0 345.6 
L 460.8 345.6 
L 460.8 0 
L 0 0 
z
" style="fill: #ffffff"/>
  </g>
  <g id="axes_1">
   <g id="patch_2">
    <path d="M 369.216 174.528 
C 369.216 157.055246 365.774248 139.752393 359.087715 123.609673 
C 352.401182 107.466954 342.599903 92.798303 330.2448 80.4432 
C 317.889697 68.088097 303.221046 58.286818 287.078327 51.600285 
C 270.935607 44.913752 253.632754 41.472 236.16 41.472 
C 218.687246 41.472 201.384393 44.913752 185.241673 51.600285 
C 169.098954 58.286818 154.430303 68.088097 142.0752 80.4432 
C 129.720097 92.798303 119.918818 107.466954 113.232285 123.609673 
C 106.545752 139.752393 103.104 157.055246 103.104 174.528 
C 103.104 192.000754 106.545752 209.303607 113.232285 225.446327 
C 119.918818 241.589046 129.720097 256.257697 142.0752 268.6128 
C 154.430303 280.967903 169.098954 290.769182 185.241673 297.455715 
C 201.384393 304.142248 218.687246 307.584 236.16 307.584 
C 253.632754 307.584 270.935607 304.142248 287.078327 297.455715 
C 303.221046 290.769182 317.889697 280.967903 330.2448 268.6128 
C 342.599903 256.257697 352.401182 241.589046 359.087715 225.446327 
C 365.774248 209.303607 369.216 192.000754 369.216 174.528 
M 236.16 174.528 
C 236.16 174.528 236.16 174.528 236.16 174.528 
C 236.16 174.528 236.16 174.528 236.16 174.528 
C 236.16 174.528 236.16 174.528 236.16 174.528 
C 236.16 174.528 236.16 174.528 236.16 174.528 
C 236.16 174.528 236.16 174.528 236.16 174.528 
C 236.16 174.528 236.16 174.528 236.16 174.528 
C 236.16 174.528 236.16 174.528 236.16 174.528 
C 236.16 174.528 236.16 174.528 236.16 174.528 
C 236.16 174.528 236.16 174.528 236.16 174.528 
C 236.16 174.528 236.16 174.528 236.16 174.528 
C 236.16 174.528 236.16 174.528 236.16 174.528 
C 236.16 174.528 236.16 174.528 236.16 174.528 
C 236.16 174.528 236.16 174.528 236.16 174.528 
C 236.16 174.528 236.16 174.528 236.16 174.528 
C 236.16 174.528 236.16 174.528 236.16 174.528 
C 236.16 174.528 236.16 174.528 236.16 174.528 
z
" style="fill: #ffffff"/>
   </g>
   <g id="PathCollection_1">
    <defs>
     <path id="mc4c1432e37" d="M 0 3 
C 0.795609 3 1.55874 2.683901 2.12132 2.12132 
C 2.683901 1.55874 3 0.795609 3 0 
C 3 -0.795609 2.683901 -1.55874 2.12132 -2.12132 
C 1.55874 -2.683901 0.795609 -3 0 -3 
C -0.795609 -3 -1.55874 -2.683901 -2.12132 -2.12132 
C -2.683901 -1.55874 -3 -0.795609 -3 0 
C -3 0.795609 -2.683901 1.55874 -2.12132 2.12132 
C -1.55874 2.683901 -0.795609 3 0 3 
z
" style="stroke: #1f77b4"/>
    </defs>
    <g clip-path="url(#p381eff4b4f)">
     <use xlink:href="#mc4c1432e37" x="209.579115" y="206.384833" style="fill: #1f77b4; stroke: #1f77b4"/>
     <use xlink:href="#mc4c1432e37" x="192.708271" y="222.848476" style="fill: #1f77b4; stroke: #1f77b4"/>
     <use xlink:href="#mc4c1432e37" x="202.397911" y="220.603005" style="fill: #1f77b4; stroke: #1f77b4"/>
     <use xlink:href="#mc4c1432e37" x="188.760807" y="230.538998" style="fill: #1f77b4; stroke: #1f77b4"/>
     <use xlink:href="#mc4c1432e37" x="168.190846" y="244.292851" style="fill: #1f77b4; stroke: #1f77b4"/>
     <use xlink:href="#mc4c1432e37" x="188.177732" y="229.966668" style="fill: #1f77b4; stroke: #1f77b4"/>
     <use xlink:href="#mc4c1432e37" x="175.95816" y="230.901405" style="fill: #1f77b4; stroke: #1f77b4"/>
     <use xlink:href="#mc4c1432e37" x="190.602123" y="228.387604" style="fill: #1f77b4; stroke: #1f77b4"/>
     <use xlink:href="#mc4c1432e37" x="193.358671" y="234.884365" style="fill: #1f77b4; stroke: #1f77b4"/>
     <use xlink:href="#mc4c1432e37" x="182.004514" y="228.998722" style="fill: #1f77b4; stroke: #1f77b4"/>
     <use xlink:href="#mc4c1432e37" x="196.275687" y="196.025715" style="fill: #1f77b4; stroke: #1f77b4"/>
     <use xlink:href="#mc4c1432e37" x="163.3646" y="211.797216" style="fill: #1f77b4; stroke: #1f77b4"/>
     <use xlink:href="#mc4c1432e37" x="138.394637" y="246.768914" style="fill: #1f77b4; stroke: #1f77b4"/>
     <use xlink:href="#mc4c1432e37" x="139.058831" y="255.948645" style="fill: #1f77b4; stroke: #1f77b4"/>
     <use xlink:href="#mc4c1432e37" x="165.773452" y="223.631742" style="fill: #1f77b4; stroke: #1f77b4"/>
     <use xlink:href="#mc4c1432e37" x="137.361646" y="237.146718" style="fill: #1f77b4; stroke: #1f77b4"/>
     <use xlink:href="#mc4c1432e37" x="176.340681" y="204.47389" style="fill: #1f77b4; stroke: #1f77b4"/>
     <use xlink:href="#mc4c1432e37" x="204.073701" y="182.843294" style="fill: #1f77b4; stroke: #1f77b4"/>
     <use xlink:href="#mc4c1432e37" x="194.349697" y="178.329375" style="fill: #1f77b4; stroke: #1f77b4"/>
     <use xlink:href="#mc4c1432e37" x="154.224562" y="206.674775" style="fill: #1f77b4; stroke: #1f77b4"/>
     <use xlink:href="#mc4c1432e37" x="164.116928" y="201.094115" style="fill: #1f77b4; stroke: #1f77b4"/>
     <use xlink:href="#mc4c1432e37" x="193.998419" y="180.08652" style="fill: #1f77b4; stroke: #1f77b4"/>
     <use xlink:href="#mc4c1432e37" x="201.532606" y="177.611022" style="fill: #1f77b4; stroke: #1f77b4"/>
     <use xlink:href="#mc4c1432e37" x="197.013831" y="177.970912" style="fill: #1f77b4; stroke: #1f77b4"/>
    </g>
   </g>
   <g id="PathCollection_2">
    <defs>
     <path id="m14ae728c95" d="M 0 3 
C 0.795609 3 1.55874 2.683901 2.12132 2.12132 
C 2.683901 1.55874 3 0.795609 3 0 
C 3 -0.795609 2.683901 -1.55874 2.12132 -2.12132 
C 1.55874 -2.683901 0.795609 -3 0 -3 
C -0.795609 -3 -1.55874 -2.683901 -2.12132 -2.12132 
C -2.683901 -1.55874 -3 -0.795609 -3 0 
C -3 0.795609 -2.683901 1.55874 -2.12132 2.12132 
C -1.55874 2.683901 -0.795609 3 0 3 
z
" style="stroke: #ff7f0e"/>
    </defs>
    <g clip-path="url(#p381eff4b4f)">
     <use xlink:href="#m14ae728c95" x="201.102003" y="170.434699" style="fill: #ff7f0e; stroke: #ff7f0e"/>
     <use xlink:href="#m14ae728c95" x="200.529059" y="161.928423" style="fill: #ff7f0e; stroke: #ff7f0e"/>
     <use xlink:href="#m14ae728c95" x="216.376484" y="160.540087" style="fill: #ff7f0e; stroke: #ff7f0e"/>
     <use xlink:href="#m14ae728c95" x="200.694151" y="191.758201" style="fill: #ff7f0e; stroke: #ff7f0e"/>
     <use xlink:href="#m14ae728c95" x="201.075667" y="183.61223" style="fill: #ff7f0e; stroke: #ff7f0e"/>
     <use xlink:href="#m14ae728c95" x="185.241921" y="178.389018" style="fill: #ff7f0e; stroke: #ff7f0e"/>
     <use xlink:href="#m14ae728c95" x="192.922517" y="170.957369" style="fill: #ff7f0e; stroke: #ff7f0e"/>
     <use xlink:href="#m14ae728c95" x="208.3355" y="167.070645" style="fill: #ff7f0e; stroke: #ff7f0e"/>
     <use xlink:href="#m14ae728c95" x="216.707249" y="153.437591" style="fill: #ff7f0e; stroke: #ff7f0e"/>
     <use xlink:href="#m14ae728c95" x="200.315653" y="161.353785" style="fill: #ff7f0e; stroke: #ff7f0e"/>
     <use xlink:href="#m14ae728c95" x="196.000205" y="166.198115" style="fill: #ff7f0e; stroke: #ff7f0e"/>
     <use xlink:href="#m14ae728c95" x="204.949346" y="167.411786" style="fill: #ff7f0e; stroke: #ff7f0e"/>
     <use xlink:href="#m14ae728c95" x="193.403172" y="174.246382" style="fill: #ff7f0e; stroke: #ff7f0e"/>
     <use xlink:href="#m14ae728c95" x="183.339031" y="174.025257" style="fill: #ff7f0e; stroke: #ff7f0e"/>
     <use xlink:href="#m14ae728c95" x="187.193138" y="173.168669" style="fill: #ff7f0e; stroke: #ff7f0e"/>
     <use xlink:href="#m14ae728c95" x="180.143405" y="175.347524" style="fill: #ff7f0e; stroke: #ff7f0e"/>
     <use xlink:href="#m14ae728c95" x="161.983866" y="193.561628" style="fill: #ff7f0e; stroke: #ff7f0e"/>
     <use xlink:href="#m14ae728c95" x="143.745018" y="201.762775" style="fill: #ff7f0e; stroke: #ff7f0e"/>
     <use xlink:href="#m14ae728c95" x="148.977609" y="192.70644" style="fill: #ff7f0e; stroke: #ff7f0e"/>
     <use xlink:href="#m14ae728c95" x="160.83344" y="184.600177" style="fill: #ff7f0e; stroke: #ff7f0e"/>
     <use xlink:href="#m14ae728c95" x="173.077345" y="187.86226" style="fill: #ff7f0e; stroke: #ff7f0e"/>
     <use xlink:href="#m14ae728c95" x="163.2688" y="202.884049" style="fill: #ff7f0e; stroke: #ff7f0e"/>
     <use xlink:href="#m14ae728c95" x="143.821497" y="210.19459" style="fill: #ff7f0e; stroke: #ff7f0e"/>
     <use xlink:href="#m14ae728c95" x="160.973368" y="198.946302" style="fill: #ff7f0e; stroke: #ff7f0e"/>
    </g>
   </g>
   <g id="PathCollection_3">
    <defs>
     <path id="m4944069369" d="M 0 3 
C 0.795609 3 1.55874 2.683901 2.12132 2.12132 
C 2.683901 1.55874 3 0.795609 3 0 
C 3 -0.795609 2.683901 -1.55874 2.12132 -2.12132 
C 1.55874 -2.683901 0.795609 -3 0 -3 
C -0.795609 -3 -1.55874 -2.683901 -2.12132 -2.12132 
C -2.683901 -1.55874 -3 -0.795609 -3 0 
C -3 0.795609 -2.683901 1.55874 -2.12132 2.12132 
C -1.55874 2.683901 -0.795609 3 0 3 
z
" style="stroke: #2ca02c"/>
    </defs>
    <g clip-path="url(#p381eff4b4f)">
     <use xlink:href="#m4944069369" x="179.997135" y="210.915804" style="fill: #2ca02c; stroke: #2ca02c"/>
     <use xlink:href="#m4944069369" x="194.799786" y="204.202142" style="fill: #2ca02c; stroke: #2ca02c"/>
     <use xlink:href="#m4944069369" x="220.51959" y="189.746612" style="fill: #2ca02c; stroke: #2ca02c"/>
     <use xlink:href="#m4944069369" x="235.759224" y="180.180115" style="fill: #2ca02c; stroke: #2ca02c"/>
     <use xlink:href="#m4944069369" x="252.991848" y="175.709159" style="fill: #2ca02c; stroke: #2ca02c"/>
     <use xlink:href="#m4944069369" x="252.909806" y="183.373326" style="fill: #2ca02c; stroke: #2ca02c"/>
     <use xlink:href="#m4944069369" x="246.257642" y="182.146774" style="fill: #2ca02c; stroke: #2ca02c"/>
     <use xlink:href="#m4944069369" x="253.983714" y="171.786072" style="fill: #2ca02c; stroke: #2ca02c"/>
     <use xlink:href="#m4944069369" x="239.829495" y="167.62897" style="fill: #2ca02c; stroke: #2ca02c"/>
     <use xlink:href="#m4944069369" x="237.391554" y="180.455483" style="fill: #2ca02c; stroke: #2ca02c"/>
     <use xlink:href="#m4944069369" x="229.921891" y="190.674359" style="fill: #2ca02c; stroke: #2ca02c"/>
     <use xlink:href="#m4944069369" x="230.641001" y="189.896421" style="fill: #2ca02c; stroke: #2ca02c"/>
     <use xlink:href="#m4944069369" x="234.645289" y="195.607493" style="fill: #2ca02c; stroke: #2ca02c"/>
     <use xlink:href="#m4944069369" x="245.400131" y="191.361336" style="fill: #2ca02c; stroke: #2ca02c"/>
     <use xlink:href="#m4944069369" x="253.157906" y="186.701367" style="fill: #2ca02c; stroke: #2ca02c"/>
     <use xlink:href="#m4944069369" x="243.351207" y="192.308132" style="fill: #2ca02c; stroke: #2ca02c"/>
     <use xlink:href="#m4944069369" x="235.008359" y="199.10802" style="fill: #2ca02c; stroke: #2ca02c"/>
     <use xlink:href="#m4944069369" x="257.29099" y="192.612273" style="fill: #2ca02c; stroke: #2ca02c"/>
     <use xlink:href="#m4944069369" x="272.565772" y="198.061122" style="fill: #2ca02c; stroke: #2ca02c"/>
     <use xlink:href="#m4944069369" x="275.317363" y="196.334867" style="fill: #2ca02c; stroke: #2ca02c"/>
     <use xlink:href="#m4944069369" x="268.117109" y="199.837817" style="fill: #2ca02c; stroke: #2ca02c"/>
     <use xlink:href="#m4944069369" x="277.917953" y="192.456902" style="fill: #2ca02c; stroke: #2ca02c"/>
     <use xlink:href="#m4944069369" x="302.970934" y="188.942294" style="fill: #2ca02c; stroke: #2ca02c"/>
     <use xlink:href="#m4944069369" x="321.488043" y="187.409463" style="fill: #2ca02c; stroke: #2ca02c"/>
    </g>
   </g>
   <g id="matplotlib.axis_1">
    <g id="xtick_1">
     <g id="line2d_1">
      <path d="M 236.16 174.528 
L 369.216 174.528 
" clip-path="url(#p381eff4b4f)" style="fill: none; stroke: #b0b0b0; stroke-width: 0.8; stroke-linecap: square"/>
     </g>
     <g id="text_1">
      <!-- 0° -->
      <g transform="translate(377.53475 177.287375) scale(0.1 -0.1)">
       <defs>
        <path id="DejaVuSans-30" d="M 2034 4250 
Q 1547 4250 1301 3770 
Q 1056 3291 1056 2328 
Q 1056 1369 1301 889 
Q 1547 409 2034 409 
Q 2525 409 2770 889 
Q 3016 1369 3016 2328 
Q 3016 3291 2770 3770 
Q 2525 4250 2034 4250 
z
M 2034 4750 
Q 2819 4750 3233 4129 
Q 3647 3509 3647 2328 
Q 3647 1150 3233 529 
Q 2819 -91 2034 -91 
Q 1250 -91 836 529 
Q 422 1150 422 2328 
Q 422 3509 836 4129 
Q 1250 4750 2034 4750 
z
" transform="scale(0.015625)"/>
        <path id="DejaVuSans-b0" d="M 1600 4347 
Q 1350 4347 1178 4173 
Q 1006 4000 1006 3750 
Q 1006 3503 1178 3333 
Q 1350 3163 1600 3163 
Q 1850 3163 2022 3333 
Q 2194 3503 2194 3750 
Q 2194 3997 2020 4172 
Q 1847 4347 1600 4347 
z
M 1600 4750 
Q 1800 4750 1984 4673 
Q 2169 4597 2303 4453 
Q 2447 4313 2519 4134 
Q 2591 3956 2591 3750 
Q 2591 3338 2302 3052 
Q 2013 2766 1594 2766 
Q 1172 2766 890 3047 
Q 609 3328 609 3750 
Q 609 4169 896 4459 
Q 1184 4750 1600 4750 
z
" transform="scale(0.015625)"/>
       </defs>
       <use xlink:href="#DejaVuSans-30"/>
       <use xlink:href="#DejaVuSans-b0" x="63.623047"/>
      </g>
     </g>
    </g>
    <g id="xtick_2">
     <g id="line2d_2">
      <path d="M 236.16 174.528 
L 330.2448 80.4432 
" clip-path="url(#p381eff4b4f)" style="fill: none; stroke: #b0b0b0; stroke-width: 0.8; stroke-linecap: square"/>
     </g>
     <g id="text_2">
      <!-- 45° -->
      <g transform="translate(331.281795 73.30308) scale(0.1 -0.1)">
       <defs>
        <path id="DejaVuSans-34" d="M 2419 4116 
L 825 1625 
L 2419 1625 
L 2419 4116 
z
M 2253 4666 
L 3047 4666 
L 3047 1625 
L 3713 1625 
L 3713 1100 
L 3047 1100 
L 3047 0 
L 2419 0 
L 2419 1100 
L 313 1100 
L 313 1709 
L 2253 4666 
z
" transform="scale(0.015625)"/>
        <path id="DejaVuSans-35" d="M 691 4666 
L 3169 4666 
L 3169 4134 
L 1269 4134 
L 1269 2991 
Q 1406 3038 1543 3061 
Q 1681 3084 1819 3084 
Q 2600 3084 3056 2656 
Q 3513 2228 3513 1497 
Q 3513 744 3044 326 
Q 2575 -91 1722 -91 
Q 1428 -91 1123 -41 
Q 819 9 494 109 
L 494 744 
Q 775 591 1075 516 
Q 1375 441 1709 441 
Q 2250 441 2565 725 
Q 2881 1009 2881 1497 
Q 2881 1984 2565 2268 
Q 2250 2553 1709 2553 
Q 1456 2553 1204 2497 
Q 953 2441 691 2322 
L 691 4666 
z
" transform="scale(0.015625)"/>
       </defs>
       <use xlink:href="#DejaVuSans-34"/>
       <use xlink:href="#DejaVuSans-35" x="63.623047"/>
       <use xlink:href="#DejaVuSans-b0" x="127.246094"/>
      </g>
     </g>
    </g>
    <g id="xtick_3">
     <g id="line2d_3">
      <path d="M 236.16 174.528 
L 236.16 41.472 
" clip-path="url(#p381eff4b4f)" style="fill: none; stroke: #b0b0b0; stroke-width: 0.8; stroke-linecap: square"/>
     </g>
     <g id="text_3">
      <!-- 90° -->
      <g transform="translate(227.2975 30.231375) scale(0.1 -0.1)">
       <defs>
        <path id="DejaVuSans-39" d="M 703 97 
L 703 672 
Q 941 559 1184 500 
Q 1428 441 1663 441 
Q 2288 441 2617 861 
Q 2947 1281 2994 2138 
Q 2813 1869 2534 1725 
Q 2256 1581 1919 1581 
Q 1219 1581 811 2004 
Q 403 2428 403 3163 
Q 403 3881 828 4315 
Q 1253 4750 1959 4750 
Q 2769 4750 3195 4129 
Q 3622 3509 3622 2328 
Q 3622 1225 3098 567 
Q 2575 -91 1691 -91 
Q 1453 -91 1209 -44 
Q 966 3 703 97 
z
M 1959 2075 
Q 2384 2075 2632 2365 
Q 2881 2656 2881 3163 
Q 2881 3666 2632 3958 
Q 2384 4250 1959 4250 
Q 1534 4250 1286 3958 
Q 1038 3666 1038 3163 
Q 1038 2656 1286 2365 
Q 1534 2075 1959 2075 
z
" transform="scale(0.015625)"/>
       </defs>
       <use xlink:href="#DejaVuSans-39"/>
       <use xlink:href="#DejaVuSans-30" x="63.623047"/>
       <use xlink:href="#DejaVuSans-b0" x="127.246094"/>
      </g>
     </g>
    </g>
    <g id="xtick_4">
     <g id="line2d_4">
      <path d="M 236.16 174.528 
L 142.0752 80.4432 
" clip-path="url(#p381eff4b4f)" style="fill: none; stroke: #b0b0b0; stroke-width: 0.8; stroke-linecap: square"/>
     </g>
     <g id="text_4">
      <!-- 135° -->
      <g transform="translate(120.131955 73.30308) scale(0.1 -0.1)">
       <defs>
        <path id="DejaVuSans-31" d="M 794 531 
L 1825 531 
L 1825 4091 
L 703 3866 
L 703 4441 
L 1819 4666 
L 2450 4666 
L 2450 531 
L 3481 531 
L 3481 0 
L 794 0 
L 794 531 
z
" transform="scale(0.015625)"/>
        <path id="DejaVuSans-33" d="M 2597 2516 
Q 3050 2419 3304 2112 
Q 3559 1806 3559 1356 
Q 3559 666 3084 287 
Q 2609 -91 1734 -91 
Q 1441 -91 1130 -33 
Q 819 25 488 141 
L 488 750 
Q 750 597 1062 519 
Q 1375 441 1716 441 
Q 2309 441 2620 675 
Q 2931 909 2931 1356 
Q 2931 1769 2642 2001 
Q 2353 2234 1838 2234 
L 1294 2234 
L 1294 2753 
L 1863 2753 
Q 2328 2753 2575 2939 
Q 2822 3125 2822 3475 
Q 2822 3834 2567 4026 
Q 2313 4219 1838 4219 
Q 1578 4219 1281 4162 
Q 984 4106 628 3988 
L 628 4550 
Q 988 4650 1302 4700 
Q 1616 4750 1894 4750 
Q 2613 4750 3031 4423 
Q 3450 4097 3450 3541 
Q 3450 3153 3228 2886 
Q 3006 2619 2597 2516 
z
" transform="scale(0.015625)"/>
       </defs>
       <use xlink:href="#DejaVuSans-31"/>
       <use xlink:href="#DejaVuSans-33" x="63.623047"/>
       <use xlink:href="#DejaVuSans-35" x="127.246094"/>
       <use xlink:href="#DejaVuSans-b0" x="190.869141"/>
      </g>
     </g>
    </g>
    <g id="xtick_5">
     <g id="line2d_5">
      <path d="M 236.16 174.528 
L 103.104 174.528 
" clip-path="url(#p381eff4b4f)" style="fill: none; stroke: #b0b0b0; stroke-width: 0.8; stroke-linecap: square"/>
     </g>
     <g id="text_5">
      <!-- 180° -->
      <g transform="translate(77.06025 177.287375) scale(0.1 -0.1)">
       <defs>
        <path id="DejaVuSans-38" d="M 2034 2216 
Q 1584 2216 1326 1975 
Q 1069 1734 1069 1313 
Q 1069 891 1326 650 
Q 1584 409 2034 409 
Q 2484 409 2743 651 
Q 3003 894 3003 1313 
Q 3003 1734 2745 1975 
Q 2488 2216 2034 2216 
z
M 1403 2484 
Q 997 2584 770 2862 
Q 544 3141 544 3541 
Q 544 4100 942 4425 
Q 1341 4750 2034 4750 
Q 2731 4750 3128 4425 
Q 3525 4100 3525 3541 
Q 3525 3141 3298 2862 
Q 3072 2584 2669 2484 
Q 3125 2378 3379 2068 
Q 3634 1759 3634 1313 
Q 3634 634 3220 271 
Q 2806 -91 2034 -91 
Q 1263 -91 848 271 
Q 434 634 434 1313 
Q 434 1759 690 2068 
Q 947 2378 1403 2484 
z
M 1172 3481 
Q 1172 3119 1398 2916 
Q 1625 2713 2034 2713 
Q 2441 2713 2670 2916 
Q 2900 3119 2900 3481 
Q 2900 3844 2670 4047 
Q 2441 4250 2034 4250 
Q 1625 4250 1398 4047 
Q 1172 3844 1172 3481 
z
" transform="scale(0.015625)"/>
       </defs>
       <use xlink:href="#DejaVuSans-31"/>
       <use xlink:href="#DejaVuSans-38" x="63.623047"/>
       <use xlink:href="#DejaVuSans-30" x="127.246094"/>
       <use xlink:href="#DejaVuSans-b0" x="190.869141"/>
      </g>
     </g>
    </g>
    <g id="xtick_6">
     <g id="line2d_6">
      <path d="M 236.16 174.528 
L 142.0752 268.6128 
" clip-path="url(#p381eff4b4f)" style="fill: none; stroke: #b0b0b0; stroke-width: 0.8; stroke-linecap: square"/>
     </g>
     <g id="text_6">
      <!-- 225° -->
      <g transform="translate(120.131955 281.27167) scale(0.1 -0.1)">
       <defs>
        <path id="DejaVuSans-32" d="M 1228 531 
L 3431 531 
L 3431 0 
L 469 0 
L 469 531 
Q 828 903 1448 1529 
Q 2069 2156 2228 2338 
Q 2531 2678 2651 2914 
Q 2772 3150 2772 3378 
Q 2772 3750 2511 3984 
Q 2250 4219 1831 4219 
Q 1534 4219 1204 4116 
Q 875 4013 500 3803 
L 500 4441 
Q 881 4594 1212 4672 
Q 1544 4750 1819 4750 
Q 2544 4750 2975 4387 
Q 3406 4025 3406 3419 
Q 3406 3131 3298 2873 
Q 3191 2616 2906 2266 
Q 2828 2175 2409 1742 
Q 1991 1309 1228 531 
z
" transform="scale(0.015625)"/>
       </defs>
       <use xlink:href="#DejaVuSans-32"/>
       <use xlink:href="#DejaVuSans-32" x="63.623047"/>
       <use xlink:href="#DejaVuSans-35" x="127.246094"/>
       <use xlink:href="#DejaVuSans-b0" x="190.869141"/>
      </g>
     </g>
    </g>
    <g id="xtick_7">
     <g id="line2d_7">
      <path d="M 236.16 174.528 
L 236.16 307.584 
" clip-path="url(#p381eff4b4f)" style="fill: none; stroke: #b0b0b0; stroke-width: 0.8; stroke-linecap: square"/>
     </g>
     <g id="text_7">
      <!-- 270° -->
      <g transform="translate(224.11625 324.343375) scale(0.1 -0.1)">
       <defs>
        <path id="DejaVuSans-37" d="M 525 4666 
L 3525 4666 
L 3525 4397 
L 1831 0 
L 1172 0 
L 2766 4134 
L 525 4134 
L 525 4666 
z
" transform="scale(0.015625)"/>
       </defs>
       <use xlink:href="#DejaVuSans-32"/>
       <use xlink:href="#DejaVuSans-37" x="63.623047"/>
       <use xlink:href="#DejaVuSans-30" x="127.246094"/>
       <use xlink:href="#DejaVuSans-b0" x="190.869141"/>
      </g>
     </g>
    </g>
    <g id="xtick_8">
     <g id="line2d_8">
      <path d="M 236.16 174.528 
L 330.2448 268.6128 
" clip-path="url(#p381eff4b4f)" style="fill: none; stroke: #b0b0b0; stroke-width: 0.8; stroke-linecap: square"/>
     </g>
     <g id="text_8">
      <!-- 315° -->
      <g transform="translate(328.100545 281.27167) scale(0.1 -0.1)">
       <use xlink:href="#DejaVuSans-33"/>
       <use xlink:href="#DejaVuSans-31" x="63.623047"/>
       <use xlink:href="#DejaVuSans-35" x="127.246094"/>
       <use xlink:href="#DejaVuSans-b0" x="190.869141"/>
      </g>
     </g>
    </g>
   </g>
   <g id="matplotlib.axis_2">
    <g id="ytick_1">
     <g id="line2d_9">
      <path d="M 263.386548 174.528 
C 263.386548 170.952643 262.68228 167.412051 261.31405 164.108851 
C 259.94582 160.805652 257.940236 157.804083 255.412076 155.275924 
C 252.883917 152.747764 249.882348 150.74218 246.579149 149.37395 
C 243.275949 148.00572 239.735357 147.301452 236.16 147.301452 
C 232.584643 147.301452 229.044051 148.00572 225.740851 149.37395 
C 222.437652 150.74218 219.436083 152.747764 216.907924 155.275924 
C 214.379764 157.804083 212.37418 160.805652 211.00595 164.108851 
C 209.63772 167.412051 208.933452 170.952643 208.933452 174.528 
C 208.933452 178.103357 209.63772 181.643949 211.00595 184.947149 
C 212.37418 188.250348 214.379764 191.251917 216.907924 193.780076 
C 219.436083 196.308236 222.437652 198.31382 225.740851 199.68205 
C 229.044051 201.05028 232.584643 201.754548 236.16 201.754548 
C 239.735357 201.754548 243.275949 201.05028 246.579149 199.68205 
C 249.882348 198.31382 252.883917 196.308236 255.412076 193.780076 
C 257.940236 191.251917 259.94582 188.250348 261.31405 184.947149 
C 262.68228 181.643949 263.386548 178.103357 263.386548 174.528 
" clip-path="url(#p381eff4b4f)" style="fill: none; stroke: #b0b0b0; stroke-width: 0.8; stroke-linecap: square"/>
     </g>
     <g id="text_9">
      <!-- 0.01 -->
      <g transform="translate(261.31405 162.029164) scale(0.1 -0.1)">
       <defs>
        <path id="DejaVuSans-2e" d="M 684 794 
L 1344 794 
L 1344 0 
L 684 0 
L 684 794 
z
" transform="scale(0.015625)"/>
       </defs>
       <use xlink:href="#DejaVuSans-30"/>
       <use xlink:href="#DejaVuSans-2e" x="63.623047"/>
       <use xlink:href="#DejaVuSans-30" x="95.410156"/>
       <use xlink:href="#DejaVuSans-31" x="159.033203"/>
      </g>
     </g>
    </g>
    <g id="ytick_2">
     <g id="line2d_10">
      <path d="M 290.613095 174.528 
C 290.613095 167.377285 289.20456 160.296102 286.4681 153.689703 
C 283.73164 147.083303 279.720472 141.080166 274.664153 136.023847 
C 269.607834 130.967528 263.604697 126.95636 256.998297 124.2199 
C 250.391898 121.48344 243.310715 120.074905 236.16 120.074905 
C 229.009285 120.074905 221.928102 121.48344 215.321703 124.2199 
C 208.715303 126.95636 202.712166 130.967528 197.655847 136.023847 
C 192.599528 141.080166 188.58836 147.083303 185.8519 153.689703 
C 183.11544 160.296102 181.706905 167.377285 181.706905 174.528 
C 181.706905 181.678715 183.11544 188.759898 185.8519 195.366297 
C 188.58836 201.972697 192.599528 207.975834 197.655847 213.032153 
C 202.712166 218.088472 208.715303 222.09964 215.321703 224.8361 
C 221.928102 227.57256 229.009285 228.981095 236.16 228.981095 
C 243.310715 228.981095 250.391898 227.57256 256.998297 224.8361 
C 263.604697 222.09964 269.607834 218.088472 274.664153 213.032153 
C 279.720472 207.975834 283.73164 201.972697 286.4681 195.366297 
C 289.20456 188.759898 290.613095 181.678715 290.613095 174.528 
" clip-path="url(#p381eff4b4f)" style="fill: none; stroke: #b0b0b0; stroke-width: 0.8; stroke-linecap: square"/>
     </g>
     <g id="text_10">
      <!-- 0.02 -->
      <g transform="translate(286.4681 151.610015) scale(0.1 -0.1)">
       <use xlink:href="#DejaVuSans-30"/>
       <use xlink:href="#DejaVuSans-2e" x="63.623047"/>
       <use xlink:href="#DejaVuSans-30" x="95.410156"/>
       <use xlink:href="#DejaVuSans-32" x="159.033203"/>
      </g>
     </g>
    </g>
    <g id="ytick_3">
     <g id="line2d_11">
      <path d="M 317.839643 174.528 
C 317.839643 163.801928 315.72684 153.180153 311.62215 143.270554 
C 307.51746 133.360955 301.500708 124.356249 293.916229 116.771771 
C 286.331751 109.187292 277.327045 103.17054 267.417446 99.06585 
C 257.507847 94.96116 246.886072 92.848357 236.16 92.848357 
C 225.433928 92.848357 214.812153 94.96116 204.902554 99.06585 
C 194.992955 103.17054 185.988249 109.187292 178.403771 116.771771 
C 170.819292 124.356249 164.80254 133.360955 160.69785 143.270554 
C 156.59316 153.180153 154.480357 163.801928 154.480357 174.528 
C 154.480357 185.254072 156.59316 195.875847 160.69785 205.785446 
C 164.80254 215.695045 170.819292 224.699751 178.403771 232.284229 
C 185.988249 239.868708 194.992955 245.88546 204.902554 249.99015 
C 214.812153 254.09484 225.433928 256.207643 236.16 256.207643 
C 246.886072 256.207643 257.507847 254.09484 267.417446 249.99015 
C 277.327045 245.88546 286.331751 239.868708 293.916229 232.284229 
C 301.500708 224.699751 307.51746 215.695045 311.62215 205.785446 
C 315.72684 195.875847 317.839643 185.254072 317.839643 174.528 
" clip-path="url(#p381eff4b4f)" style="fill: none; stroke: #b0b0b0; stroke-width: 0.8; stroke-linecap: square"/>
     </g>
     <g id="text_11">
      <!-- 0.03 -->
      <g transform="translate(311.62215 141.190866) scale(0.1 -0.1)">
       <use xlink:href="#DejaVuSans-30"/>
       <use xlink:href="#DejaVuSans-2e" x="63.623047"/>
       <use xlink:href="#DejaVuSans-30" x="95.410156"/>
       <use xlink:href="#DejaVuSans-33" x="159.033203"/>
      </g>
     </g>
    </g>
    <g id="ytick_4">
     <g id="line2d_12">
      <path d="M 345.06619 174.528 
C 345.06619 160.22657 342.24912 146.064204 336.7762 132.851405 
C 331.30328 119.638607 323.280944 107.632332 313.168306 97.519694 
C 303.055668 87.407056 291.049393 79.38472 277.836595 73.9118 
C 264.623796 68.43888 250.46143 65.62181 236.16 65.62181 
C 221.85857 65.62181 207.696204 68.43888 194.483405 73.9118 
C 181.270607 79.38472 169.264332 87.407056 159.151694 97.519694 
C 149.039056 107.632332 141.01672 119.638607 135.5438 132.851405 
C 130.07088 146.064204 127.25381 160.22657 127.25381 174.528 
C 127.25381 188.82943 130.07088 202.991796 135.5438 216.204595 
C 141.01672 229.417393 149.039056 241.423668 159.151694 251.536306 
C 169.264332 261.648944 181.270607 269.67128 194.483405 275.1442 
C 207.696204 280.61712 221.85857 283.43419 236.16 283.43419 
C 250.46143 283.43419 264.623796 280.61712 277.836595 275.1442 
C 291.049393 269.67128 303.055668 261.648944 313.168306 251.536306 
C 323.280944 241.423668 331.30328 229.417393 336.7762 216.204595 
C 342.24912 202.991796 345.06619 188.82943 345.06619 174.528 
" clip-path="url(#p381eff4b4f)" style="fill: none; stroke: #b0b0b0; stroke-width: 0.8; stroke-linecap: square"/>
     </g>
     <g id="text_12">
      <!-- 0.04 -->
      <g transform="translate(336.7762 130.771718) scale(0.1 -0.1)">
       <use xlink:href="#DejaVuSans-30"/>
       <use xlink:href="#DejaVuSans-2e" x="63.623047"/>
       <use xlink:href="#DejaVuSans-30" x="95.410156"/>
       <use xlink:href="#DejaVuSans-34" x="159.033203"/>
      </g>
     </g>
    </g>
   </g>
   <g id="line2d_13">
    <path d="M 236.16 174.528 
L 121.729958 228.968094 
" clip-path="url(#p381eff4b4f)" style="fill: none; stroke-dasharray: 7.4,3.2; stroke-dashoffset: 0; stroke: #ff0000; stroke-width: 2"/>
   </g>
   <g id="patch_3">
    <path d="M 369.216 174.528 
C 369.216 157.055246 365.774248 139.752393 359.087715 123.609673 
C 352.401182 107.466954 342.599903 92.798303 330.2448 80.4432 
C 317.889697 68.088097 303.221046 58.286818 287.078327 51.600285 
C 270.935607 44.913752 253.632754 41.472 236.16 41.472 
C 218.687246 41.472 201.384393 44.913752 185.241673 51.600285 
C 169.098954 58.286818 154.430303 68.088097 142.0752 80.4432 
C 129.720097 92.798303 119.918818 107.466954 113.232285 123.609673 
C 106.545752 139.752393 103.104 157.055246 103.104 174.528 
C 103.104 192.000754 106.545752 209.303607 113.232285 225.446327 
C 119.918818 241.589046 129.720097 256.257697 142.0752 268.6128 
C 154.430303 280.967903 169.098954 290.769182 185.241673 297.455715 
C 201.384393 304.142248 218.687246 307.584 236.16 307.584 
C 253.632754 307.584 270.935607 304.142248 287.078327 297.455715 
C 303.221046 290.769182 317.889697 280.967903 330.2448 268.6128 
C 342.599903 256.257697 352.401182 241.589046 359.087715 225.446327 
C 365.774248 209.303607 369.216 192.000754 369.216 174.528 
" style="fill: none; stroke: #000000; stroke-width: 0.8; stroke-linejoin: miter; stroke-linecap: square"/>
   </g>
   <g id="text_13">
    <!-- Distribution of projected eye movement velocity on the screen - NewM1_11_41 -->
    <g transform="translate(-1.632187 13.803563) scale(0.12 -0.12)">
     <defs>
      <path id="DejaVuSans-44" d="M 1259 4147 
L 1259 519 
L 2022 519 
Q 2988 519 3436 956 
Q 3884 1394 3884 2338 
Q 3884 3275 3436 3711 
Q 2988 4147 2022 4147 
L 1259 4147 
z
M 628 4666 
L 1925 4666 
Q 3281 4666 3915 4102 
Q 4550 3538 4550 2338 
Q 4550 1131 3912 565 
Q 3275 0 1925 0 
L 628 0 
L 628 4666 
z
" transform="scale(0.015625)"/>
      <path id="DejaVuSans-69" d="M 603 3500 
L 1178 3500 
L 1178 0 
L 603 0 
L 603 3500 
z
M 603 4863 
L 1178 4863 
L 1178 4134 
L 603 4134 
L 603 4863 
z
" transform="scale(0.015625)"/>
      <path id="DejaVuSans-73" d="M 2834 3397 
L 2834 2853 
Q 2591 2978 2328 3040 
Q 2066 3103 1784 3103 
Q 1356 3103 1142 2972 
Q 928 2841 928 2578 
Q 928 2378 1081 2264 
Q 1234 2150 1697 2047 
L 1894 2003 
Q 2506 1872 2764 1633 
Q 3022 1394 3022 966 
Q 3022 478 2636 193 
Q 2250 -91 1575 -91 
Q 1294 -91 989 -36 
Q 684 19 347 128 
L 347 722 
Q 666 556 975 473 
Q 1284 391 1588 391 
Q 1994 391 2212 530 
Q 2431 669 2431 922 
Q 2431 1156 2273 1281 
Q 2116 1406 1581 1522 
L 1381 1569 
Q 847 1681 609 1914 
Q 372 2147 372 2553 
Q 372 3047 722 3315 
Q 1072 3584 1716 3584 
Q 2034 3584 2315 3537 
Q 2597 3491 2834 3397 
z
" transform="scale(0.015625)"/>
      <path id="DejaVuSans-74" d="M 1172 4494 
L 1172 3500 
L 2356 3500 
L 2356 3053 
L 1172 3053 
L 1172 1153 
Q 1172 725 1289 603 
Q 1406 481 1766 481 
L 2356 481 
L 2356 0 
L 1766 0 
Q 1100 0 847 248 
Q 594 497 594 1153 
L 594 3053 
L 172 3053 
L 172 3500 
L 594 3500 
L 594 4494 
L 1172 4494 
z
" transform="scale(0.015625)"/>
      <path id="DejaVuSans-72" d="M 2631 2963 
Q 2534 3019 2420 3045 
Q 2306 3072 2169 3072 
Q 1681 3072 1420 2755 
Q 1159 2438 1159 1844 
L 1159 0 
L 581 0 
L 581 3500 
L 1159 3500 
L 1159 2956 
Q 1341 3275 1631 3429 
Q 1922 3584 2338 3584 
Q 2397 3584 2469 3576 
Q 2541 3569 2628 3553 
L 2631 2963 
z
" transform="scale(0.015625)"/>
      <path id="DejaVuSans-62" d="M 3116 1747 
Q 3116 2381 2855 2742 
Q 2594 3103 2138 3103 
Q 1681 3103 1420 2742 
Q 1159 2381 1159 1747 
Q 1159 1113 1420 752 
Q 1681 391 2138 391 
Q 2594 391 2855 752 
Q 3116 1113 3116 1747 
z
M 1159 2969 
Q 1341 3281 1617 3432 
Q 1894 3584 2278 3584 
Q 2916 3584 3314 3078 
Q 3713 2572 3713 1747 
Q 3713 922 3314 415 
Q 2916 -91 2278 -91 
Q 1894 -91 1617 61 
Q 1341 213 1159 525 
L 1159 0 
L 581 0 
L 581 4863 
L 1159 4863 
L 1159 2969 
z
" transform="scale(0.015625)"/>
      <path id="DejaVuSans-75" d="M 544 1381 
L 544 3500 
L 1119 3500 
L 1119 1403 
Q 1119 906 1312 657 
Q 1506 409 1894 409 
Q 2359 409 2629 706 
Q 2900 1003 2900 1516 
L 2900 3500 
L 3475 3500 
L 3475 0 
L 2900 0 
L 2900 538 
Q 2691 219 2414 64 
Q 2138 -91 1772 -91 
Q 1169 -91 856 284 
Q 544 659 544 1381 
z
M 1991 3584 
L 1991 3584 
z
" transform="scale(0.015625)"/>
      <path id="DejaVuSans-6f" d="M 1959 3097 
Q 1497 3097 1228 2736 
Q 959 2375 959 1747 
Q 959 1119 1226 758 
Q 1494 397 1959 397 
Q 2419 397 2687 759 
Q 2956 1122 2956 1747 
Q 2956 2369 2687 2733 
Q 2419 3097 1959 3097 
z
M 1959 3584 
Q 2709 3584 3137 3096 
Q 3566 2609 3566 1747 
Q 3566 888 3137 398 
Q 2709 -91 1959 -91 
Q 1206 -91 779 398 
Q 353 888 353 1747 
Q 353 2609 779 3096 
Q 1206 3584 1959 3584 
z
" transform="scale(0.015625)"/>
      <path id="DejaVuSans-6e" d="M 3513 2113 
L 3513 0 
L 2938 0 
L 2938 2094 
Q 2938 2591 2744 2837 
Q 2550 3084 2163 3084 
Q 1697 3084 1428 2787 
Q 1159 2491 1159 1978 
L 1159 0 
L 581 0 
L 581 3500 
L 1159 3500 
L 1159 2956 
Q 1366 3272 1645 3428 
Q 1925 3584 2291 3584 
Q 2894 3584 3203 3211 
Q 3513 2838 3513 2113 
z
" transform="scale(0.015625)"/>
      <path id="DejaVuSans-20" transform="scale(0.015625)"/>
      <path id="DejaVuSans-66" d="M 2375 4863 
L 2375 4384 
L 1825 4384 
Q 1516 4384 1395 4259 
Q 1275 4134 1275 3809 
L 1275 3500 
L 2222 3500 
L 2222 3053 
L 1275 3053 
L 1275 0 
L 697 0 
L 697 3053 
L 147 3053 
L 147 3500 
L 697 3500 
L 697 3744 
Q 697 4328 969 4595 
Q 1241 4863 1831 4863 
L 2375 4863 
z
" transform="scale(0.015625)"/>
      <path id="DejaVuSans-70" d="M 1159 525 
L 1159 -1331 
L 581 -1331 
L 581 3500 
L 1159 3500 
L 1159 2969 
Q 1341 3281 1617 3432 
Q 1894 3584 2278 3584 
Q 2916 3584 3314 3078 
Q 3713 2572 3713 1747 
Q 3713 922 3314 415 
Q 2916 -91 2278 -91 
Q 1894 -91 1617 61 
Q 1341 213 1159 525 
z
M 3116 1747 
Q 3116 2381 2855 2742 
Q 2594 3103 2138 3103 
Q 1681 3103 1420 2742 
Q 1159 2381 1159 1747 
Q 1159 1113 1420 752 
Q 1681 391 2138 391 
Q 2594 391 2855 752 
Q 3116 1113 3116 1747 
z
" transform="scale(0.015625)"/>
      <path id="DejaVuSans-6a" d="M 603 3500 
L 1178 3500 
L 1178 -63 
Q 1178 -731 923 -1031 
Q 669 -1331 103 -1331 
L -116 -1331 
L -116 -844 
L 38 -844 
Q 366 -844 484 -692 
Q 603 -541 603 -63 
L 603 3500 
z
M 603 4863 
L 1178 4863 
L 1178 4134 
L 603 4134 
L 603 4863 
z
" transform="scale(0.015625)"/>
      <path id="DejaVuSans-65" d="M 3597 1894 
L 3597 1613 
L 953 1613 
Q 991 1019 1311 708 
Q 1631 397 2203 397 
Q 2534 397 2845 478 
Q 3156 559 3463 722 
L 3463 178 
Q 3153 47 2828 -22 
Q 2503 -91 2169 -91 
Q 1331 -91 842 396 
Q 353 884 353 1716 
Q 353 2575 817 3079 
Q 1281 3584 2069 3584 
Q 2775 3584 3186 3129 
Q 3597 2675 3597 1894 
z
M 3022 2063 
Q 3016 2534 2758 2815 
Q 2500 3097 2075 3097 
Q 1594 3097 1305 2825 
Q 1016 2553 972 2059 
L 3022 2063 
z
" transform="scale(0.015625)"/>
      <path id="DejaVuSans-63" d="M 3122 3366 
L 3122 2828 
Q 2878 2963 2633 3030 
Q 2388 3097 2138 3097 
Q 1578 3097 1268 2742 
Q 959 2388 959 1747 
Q 959 1106 1268 751 
Q 1578 397 2138 397 
Q 2388 397 2633 464 
Q 2878 531 3122 666 
L 3122 134 
Q 2881 22 2623 -34 
Q 2366 -91 2075 -91 
Q 1284 -91 818 406 
Q 353 903 353 1747 
Q 353 2603 823 3093 
Q 1294 3584 2113 3584 
Q 2378 3584 2631 3529 
Q 2884 3475 3122 3366 
z
" transform="scale(0.015625)"/>
      <path id="DejaVuSans-64" d="M 2906 2969 
L 2906 4863 
L 3481 4863 
L 3481 0 
L 2906 0 
L 2906 525 
Q 2725 213 2448 61 
Q 2172 -91 1784 -91 
Q 1150 -91 751 415 
Q 353 922 353 1747 
Q 353 2572 751 3078 
Q 1150 3584 1784 3584 
Q 2172 3584 2448 3432 
Q 2725 3281 2906 2969 
z
M 947 1747 
Q 947 1113 1208 752 
Q 1469 391 1925 391 
Q 2381 391 2643 752 
Q 2906 1113 2906 1747 
Q 2906 2381 2643 2742 
Q 2381 3103 1925 3103 
Q 1469 3103 1208 2742 
Q 947 2381 947 1747 
z
" transform="scale(0.015625)"/>
      <path id="DejaVuSans-79" d="M 2059 -325 
Q 1816 -950 1584 -1140 
Q 1353 -1331 966 -1331 
L 506 -1331 
L 506 -850 
L 844 -850 
Q 1081 -850 1212 -737 
Q 1344 -625 1503 -206 
L 1606 56 
L 191 3500 
L 800 3500 
L 1894 763 
L 2988 3500 
L 3597 3500 
L 2059 -325 
z
" transform="scale(0.015625)"/>
      <path id="DejaVuSans-6d" d="M 3328 2828 
Q 3544 3216 3844 3400 
Q 4144 3584 4550 3584 
Q 5097 3584 5394 3201 
Q 5691 2819 5691 2113 
L 5691 0 
L 5113 0 
L 5113 2094 
Q 5113 2597 4934 2840 
Q 4756 3084 4391 3084 
Q 3944 3084 3684 2787 
Q 3425 2491 3425 1978 
L 3425 0 
L 2847 0 
L 2847 2094 
Q 2847 2600 2669 2842 
Q 2491 3084 2119 3084 
Q 1678 3084 1418 2786 
Q 1159 2488 1159 1978 
L 1159 0 
L 581 0 
L 581 3500 
L 1159 3500 
L 1159 2956 
Q 1356 3278 1631 3431 
Q 1906 3584 2284 3584 
Q 2666 3584 2933 3390 
Q 3200 3197 3328 2828 
z
" transform="scale(0.015625)"/>
      <path id="DejaVuSans-76" d="M 191 3500 
L 800 3500 
L 1894 563 
L 2988 3500 
L 3597 3500 
L 2284 0 
L 1503 0 
L 191 3500 
z
" transform="scale(0.015625)"/>
      <path id="DejaVuSans-6c" d="M 603 4863 
L 1178 4863 
L 1178 0 
L 603 0 
L 603 4863 
z
" transform="scale(0.015625)"/>
      <path id="DejaVuSans-68" d="M 3513 2113 
L 3513 0 
L 2938 0 
L 2938 2094 
Q 2938 2591 2744 2837 
Q 2550 3084 2163 3084 
Q 1697 3084 1428 2787 
Q 1159 2491 1159 1978 
L 1159 0 
L 581 0 
L 581 4863 
L 1159 4863 
L 1159 2956 
Q 1366 3272 1645 3428 
Q 1925 3584 2291 3584 
Q 2894 3584 3203 3211 
Q 3513 2838 3513 2113 
z
" transform="scale(0.015625)"/>
      <path id="DejaVuSans-2d" d="M 313 2009 
L 1997 2009 
L 1997 1497 
L 313 1497 
L 313 2009 
z
" transform="scale(0.015625)"/>
      <path id="DejaVuSans-4e" d="M 628 4666 
L 1478 4666 
L 3547 763 
L 3547 4666 
L 4159 4666 
L 4159 0 
L 3309 0 
L 1241 3903 
L 1241 0 
L 628 0 
L 628 4666 
z
" transform="scale(0.015625)"/>
      <path id="DejaVuSans-77" d="M 269 3500 
L 844 3500 
L 1563 769 
L 2278 3500 
L 2956 3500 
L 3675 769 
L 4391 3500 
L 4966 3500 
L 4050 0 
L 3372 0 
L 2619 2869 
L 1863 0 
L 1184 0 
L 269 3500 
z
" transform="scale(0.015625)"/>
      <path id="DejaVuSans-4d" d="M 628 4666 
L 1569 4666 
L 2759 1491 
L 3956 4666 
L 4897 4666 
L 4897 0 
L 4281 0 
L 4281 4097 
L 3078 897 
L 2444 897 
L 1241 4097 
L 1241 0 
L 628 0 
L 628 4666 
z
" transform="scale(0.015625)"/>
      <path id="DejaVuSans-5f" d="M 3263 -1063 
L 3263 -1509 
L -63 -1509 
L -63 -1063 
L 3263 -1063 
z
" transform="scale(0.015625)"/>
     </defs>
     <use xlink:href="#DejaVuSans-44"/>
     <use xlink:href="#DejaVuSans-69" x="77.001953"/>
     <use xlink:href="#DejaVuSans-73" x="104.785156"/>
     <use xlink:href="#DejaVuSans-74" x="156.884766"/>
     <use xlink:href="#DejaVuSans-72" x="196.09375"/>
     <use xlink:href="#DejaVuSans-69" x="237.207031"/>
     <use xlink:href="#DejaVuSans-62" x="264.990234"/>
     <use xlink:href="#DejaVuSans-75" x="328.466797"/>
     <use xlink:href="#DejaVuSans-74" x="391.845703"/>
     <use xlink:href="#DejaVuSans-69" x="431.054688"/>
     <use xlink:href="#DejaVuSans-6f" x="458.837891"/>
     <use xlink:href="#DejaVuSans-6e" x="520.019531"/>
     <use xlink:href="#DejaVuSans-20" x="583.398438"/>
     <use xlink:href="#DejaVuSans-6f" x="615.185547"/>
     <use xlink:href="#DejaVuSans-66" x="676.367188"/>
     <use xlink:href="#DejaVuSans-20" x="711.572266"/>
     <use xlink:href="#DejaVuSans-70" x="743.359375"/>
     <use xlink:href="#DejaVuSans-72" x="806.835938"/>
     <use xlink:href="#DejaVuSans-6f" x="845.699219"/>
     <use xlink:href="#DejaVuSans-6a" x="906.880859"/>
     <use xlink:href="#DejaVuSans-65" x="934.664062"/>
     <use xlink:href="#DejaVuSans-63" x="996.1875"/>
     <use xlink:href="#DejaVuSans-74" x="1051.167969"/>
     <use xlink:href="#DejaVuSans-65" x="1090.376953"/>
     <use xlink:href="#DejaVuSans-64" x="1151.900391"/>
     <use xlink:href="#DejaVuSans-20" x="1215.376953"/>
     <use xlink:href="#DejaVuSans-65" x="1247.164062"/>
     <use xlink:href="#DejaVuSans-79" x="1308.6875"/>
     <use xlink:href="#DejaVuSans-65" x="1367.867188"/>
     <use xlink:href="#DejaVuSans-20" x="1429.390625"/>
     <use xlink:href="#DejaVuSans-6d" x="1461.177734"/>
     <use xlink:href="#DejaVuSans-6f" x="1558.589844"/>
     <use xlink:href="#DejaVuSans-76" x="1619.771484"/>
     <use xlink:href="#DejaVuSans-65" x="1678.951172"/>
     <use xlink:href="#DejaVuSans-6d" x="1740.474609"/>
     <use xlink:href="#DejaVuSans-65" x="1837.886719"/>
     <use xlink:href="#DejaVuSans-6e" x="1899.410156"/>
     <use xlink:href="#DejaVuSans-74" x="1962.789062"/>
     <use xlink:href="#DejaVuSans-20" x="2001.998047"/>
     <use xlink:href="#DejaVuSans-76" x="2033.785156"/>
     <use xlink:href="#DejaVuSans-65" x="2092.964844"/>
     <use xlink:href="#DejaVuSans-6c" x="2154.488281"/>
     <use xlink:href="#DejaVuSans-6f" x="2182.271484"/>
     <use xlink:href="#DejaVuSans-63" x="2243.453125"/>
     <use xlink:href="#DejaVuSans-69" x="2298.433594"/>
     <use xlink:href="#DejaVuSans-74" x="2326.216797"/>
     <use xlink:href="#DejaVuSans-79" x="2365.425781"/>
     <use xlink:href="#DejaVuSans-20" x="2424.605469"/>
     <use xlink:href="#DejaVuSans-6f" x="2456.392578"/>
     <use xlink:href="#DejaVuSans-6e" x="2517.574219"/>
     <use xlink:href="#DejaVuSans-20" x="2580.953125"/>
     <use xlink:href="#DejaVuSans-74" x="2612.740234"/>
     <use xlink:href="#DejaVuSans-68" x="2651.949219"/>
     <use xlink:href="#DejaVuSans-65" x="2715.328125"/>
     <use xlink:href="#DejaVuSans-20" x="2776.851562"/>
     <use xlink:href="#DejaVuSans-73" x="2808.638672"/>
     <use xlink:href="#DejaVuSans-63" x="2860.738281"/>
     <use xlink:href="#DejaVuSans-72" x="2915.71875"/>
     <use xlink:href="#DejaVuSans-65" x="2954.582031"/>
     <use xlink:href="#DejaVuSans-65" x="3016.105469"/>
     <use xlink:href="#DejaVuSans-6e" x="3077.628906"/>
     <use xlink:href="#DejaVuSans-20" x="3141.007812"/>
     <use xlink:href="#DejaVuSans-2d" x="3172.794922"/>
     <use xlink:href="#DejaVuSans-20" x="3208.878906"/>
     <use xlink:href="#DejaVuSans-4e" x="3240.666016"/>
     <use xlink:href="#DejaVuSans-65" x="3315.470703"/>
     <use xlink:href="#DejaVuSans-77" x="3376.994141"/>
     <use xlink:href="#DejaVuSans-4d" x="3458.78125"/>
     <use xlink:href="#DejaVuSans-31" x="3545.060547"/>
     <use xlink:href="#DejaVuSans-5f" x="3608.683594"/>
     <use xlink:href="#DejaVuSans-31" x="3658.683594"/>
     <use xlink:href="#DejaVuSans-31" x="3722.306641"/>
     <use xlink:href="#DejaVuSans-5f" x="3785.929688"/>
     <use xlink:href="#DejaVuSans-34" x="3835.929688"/>
     <use xlink:href="#DejaVuSans-31" x="3899.552734"/>
    </g>
   </g>
   <g id="legend_1">
    <g id="patch_4">
     <path d="M 120.952969 108.1845 
L 351.367031 108.1845 
Q 353.367031 108.1845 353.367031 106.1845 
L 353.367031 48.472 
Q 353.367031 46.472 351.367031 46.472 
L 120.952969 46.472 
Q 118.952969 46.472 118.952969 48.472 
L 118.952969 106.1845 
Q 118.952969 108.1845 120.952969 108.1845 
z
" style="fill: #ffffff; opacity: 0.8; stroke: #cccccc; stroke-linejoin: miter"/>
    </g>
    <g id="PathCollection_4">
     <g>
      <use xlink:href="#mc4c1432e37" x="132.952969" y="55.445438" style="fill: #1f77b4; stroke: #1f77b4"/>
     </g>
    </g>
    <g id="text_14">
     <!-- $-0.5 &lt; t &lt; 0.$ -->
     <g transform="translate(150.952969 58.070438) scale(0.1 -0.1)">
      <defs>
       <path id="DejaVuSans-2212" d="M 678 2272 
L 4684 2272 
L 4684 1741 
L 678 1741 
L 678 2272 
z
" transform="scale(0.015625)"/>
       <path id="DejaVuSans-3c" d="M 4684 3150 
L 1459 2003 
L 4684 863 
L 4684 294 
L 678 1747 
L 678 2266 
L 4684 3719 
L 4684 3150 
z
" transform="scale(0.015625)"/>
       <path id="DejaVuSans-Oblique-74" d="M 2706 3500 
L 2619 3053 
L 1472 3053 
L 1100 1153 
Q 1081 1047 1072 975 
Q 1063 903 1063 863 
Q 1063 663 1183 572 
Q 1303 481 1569 481 
L 2150 481 
L 2053 0 
L 1503 0 
Q 991 0 739 200 
Q 488 400 488 806 
Q 488 878 497 964 
Q 506 1050 525 1153 
L 897 3053 
L 409 3053 
L 500 3500 
L 978 3500 
L 1172 4494 
L 1747 4494 
L 1556 3500 
L 2706 3500 
z
" transform="scale(0.015625)"/>
      </defs>
      <use xlink:href="#DejaVuSans-2212" transform="translate(0 0.78125)"/>
      <use xlink:href="#DejaVuSans-30" transform="translate(83.789062 0.78125)"/>
      <use xlink:href="#DejaVuSans-2e" transform="translate(147.412109 0.78125)"/>
      <use xlink:href="#DejaVuSans-35" transform="translate(179.199219 0.78125)"/>
      <use xlink:href="#DejaVuSans-3c" transform="translate(262.304688 0.78125)"/>
      <use xlink:href="#DejaVuSans-Oblique-74" transform="translate(365.576172 0.78125)"/>
      <use xlink:href="#DejaVuSans-3c" transform="translate(424.267578 0.78125)"/>
      <use xlink:href="#DejaVuSans-30" transform="translate(527.539062 0.78125)"/>
      <use xlink:href="#DejaVuSans-2e" transform="translate(591.162109 0.78125)"/>
     </g>
    </g>
    <g id="PathCollection_5">
     <g>
      <use xlink:href="#m14ae728c95" x="132.952969" y="70.123563" style="fill: #ff7f0e; stroke: #ff7f0e"/>
     </g>
    </g>
    <g id="text_15">
     <!-- $0. &lt; t &lt; 0.5$ -->
     <g transform="translate(150.952969 72.748563) scale(0.1 -0.1)">
      <use xlink:href="#DejaVuSans-30" transform="translate(0 0.78125)"/>
      <use xlink:href="#DejaVuSans-2e" transform="translate(63.623047 0.78125)"/>
      <use xlink:href="#DejaVuSans-3c" transform="translate(134.375 0.78125)"/>
      <use xlink:href="#DejaVuSans-Oblique-74" transform="translate(237.646484 0.78125)"/>
      <use xlink:href="#DejaVuSans-3c" transform="translate(296.337891 0.78125)"/>
      <use xlink:href="#DejaVuSans-30" transform="translate(399.609375 0.78125)"/>
      <use xlink:href="#DejaVuSans-2e" transform="translate(463.232422 0.78125)"/>
      <use xlink:href="#DejaVuSans-35" transform="translate(495.019531 0.78125)"/>
     </g>
    </g>
    <g id="PathCollection_6">
     <g>
      <use xlink:href="#m4944069369" x="132.952969" y="84.801688" style="fill: #2ca02c; stroke: #2ca02c"/>
     </g>
    </g>
    <g id="text_16">
     <!-- $0.5 &lt; t &lt; 1.$ -->
     <g transform="translate(150.952969 87.426688) scale(0.1 -0.1)">
      <use xlink:href="#DejaVuSans-30" transform="translate(0 0.78125)"/>
      <use xlink:href="#DejaVuSans-2e" transform="translate(63.623047 0.78125)"/>
      <use xlink:href="#DejaVuSans-35" transform="translate(95.410156 0.78125)"/>
      <use xlink:href="#DejaVuSans-3c" transform="translate(178.515625 0.78125)"/>
      <use xlink:href="#DejaVuSans-Oblique-74" transform="translate(281.787109 0.78125)"/>
      <use xlink:href="#DejaVuSans-3c" transform="translate(340.478516 0.78125)"/>
      <use xlink:href="#DejaVuSans-31" transform="translate(443.75 0.78125)"/>
      <use xlink:href="#DejaVuSans-2e" transform="translate(507.373047 0.78125)"/>
     </g>
    </g>
    <g id="line2d_14">
     <path d="M 122.952969 98.604813 
L 132.952969 98.604813 
L 142.952969 98.604813 
" style="fill: none; stroke-dasharray: 7.4,3.2; stroke-dashoffset: 0; stroke: #ff0000; stroke-width: 2"/>
    </g>
    <g id="text_17">
     <!-- Average angle in dark: -154.56 degrees -->
     <g transform="translate(150.952969 102.104813) scale(0.1 -0.1)">
      <defs>
       <path id="DejaVuSans-41" d="M 2188 4044 
L 1331 1722 
L 3047 1722 
L 2188 4044 
z
M 1831 4666 
L 2547 4666 
L 4325 0 
L 3669 0 
L 3244 1197 
L 1141 1197 
L 716 0 
L 50 0 
L 1831 4666 
z
" transform="scale(0.015625)"/>
       <path id="DejaVuSans-61" d="M 2194 1759 
Q 1497 1759 1228 1600 
Q 959 1441 959 1056 
Q 959 750 1161 570 
Q 1363 391 1709 391 
Q 2188 391 2477 730 
Q 2766 1069 2766 1631 
L 2766 1759 
L 2194 1759 
z
M 3341 1997 
L 3341 0 
L 2766 0 
L 2766 531 
Q 2569 213 2275 61 
Q 1981 -91 1556 -91 
Q 1019 -91 701 211 
Q 384 513 384 1019 
Q 384 1609 779 1909 
Q 1175 2209 1959 2209 
L 2766 2209 
L 2766 2266 
Q 2766 2663 2505 2880 
Q 2244 3097 1772 3097 
Q 1472 3097 1187 3025 
Q 903 2953 641 2809 
L 641 3341 
Q 956 3463 1253 3523 
Q 1550 3584 1831 3584 
Q 2591 3584 2966 3190 
Q 3341 2797 3341 1997 
z
" transform="scale(0.015625)"/>
       <path id="DejaVuSans-67" d="M 2906 1791 
Q 2906 2416 2648 2759 
Q 2391 3103 1925 3103 
Q 1463 3103 1205 2759 
Q 947 2416 947 1791 
Q 947 1169 1205 825 
Q 1463 481 1925 481 
Q 2391 481 2648 825 
Q 2906 1169 2906 1791 
z
M 3481 434 
Q 3481 -459 3084 -895 
Q 2688 -1331 1869 -1331 
Q 1566 -1331 1297 -1286 
Q 1028 -1241 775 -1147 
L 775 -588 
Q 1028 -725 1275 -790 
Q 1522 -856 1778 -856 
Q 2344 -856 2625 -561 
Q 2906 -266 2906 331 
L 2906 616 
Q 2728 306 2450 153 
Q 2172 0 1784 0 
Q 1141 0 747 490 
Q 353 981 353 1791 
Q 353 2603 747 3093 
Q 1141 3584 1784 3584 
Q 2172 3584 2450 3431 
Q 2728 3278 2906 2969 
L 2906 3500 
L 3481 3500 
L 3481 434 
z
" transform="scale(0.015625)"/>
       <path id="DejaVuSans-6b" d="M 581 4863 
L 1159 4863 
L 1159 1991 
L 2875 3500 
L 3609 3500 
L 1753 1863 
L 3688 0 
L 2938 0 
L 1159 1709 
L 1159 0 
L 581 0 
L 581 4863 
z
" transform="scale(0.015625)"/>
       <path id="DejaVuSans-3a" d="M 750 794 
L 1409 794 
L 1409 0 
L 750 0 
L 750 794 
z
M 750 3309 
L 1409 3309 
L 1409 2516 
L 750 2516 
L 750 3309 
z
" transform="scale(0.015625)"/>
       <path id="DejaVuSans-36" d="M 2113 2584 
Q 1688 2584 1439 2293 
Q 1191 2003 1191 1497 
Q 1191 994 1439 701 
Q 1688 409 2113 409 
Q 2538 409 2786 701 
Q 3034 994 3034 1497 
Q 3034 2003 2786 2293 
Q 2538 2584 2113 2584 
z
M 3366 4563 
L 3366 3988 
Q 3128 4100 2886 4159 
Q 2644 4219 2406 4219 
Q 1781 4219 1451 3797 
Q 1122 3375 1075 2522 
Q 1259 2794 1537 2939 
Q 1816 3084 2150 3084 
Q 2853 3084 3261 2657 
Q 3669 2231 3669 1497 
Q 3669 778 3244 343 
Q 2819 -91 2113 -91 
Q 1303 -91 875 529 
Q 447 1150 447 2328 
Q 447 3434 972 4092 
Q 1497 4750 2381 4750 
Q 2619 4750 2861 4703 
Q 3103 4656 3366 4563 
z
" transform="scale(0.015625)"/>
      </defs>
      <use xlink:href="#DejaVuSans-41"/>
      <use xlink:href="#DejaVuSans-76" x="62.533203"/>
      <use xlink:href="#DejaVuSans-65" x="121.712891"/>
      <use xlink:href="#DejaVuSans-72" x="183.236328"/>
      <use xlink:href="#DejaVuSans-61" x="224.349609"/>
      <use xlink:href="#DejaVuSans-67" x="285.628906"/>
      <use xlink:href="#DejaVuSans-65" x="349.105469"/>
      <use xlink:href="#DejaVuSans-20" x="410.628906"/>
      <use xlink:href="#DejaVuSans-61" x="442.416016"/>
      <use xlink:href="#DejaVuSans-6e" x="503.695312"/>
      <use xlink:href="#DejaVuSans-67" x="567.074219"/>
      <use xlink:href="#DejaVuSans-6c" x="630.550781"/>
      <use xlink:href="#DejaVuSans-65" x="658.333984"/>
      <use xlink:href="#DejaVuSans-20" x="719.857422"/>
      <use xlink:href="#DejaVuSans-69" x="751.644531"/>
      <use xlink:href="#DejaVuSans-6e" x="779.427734"/>
      <use xlink:href="#DejaVuSans-20" x="842.806641"/>
      <use xlink:href="#DejaVuSans-64" x="874.59375"/>
      <use xlink:href="#DejaVuSans-61" x="938.070312"/>
      <use xlink:href="#DejaVuSans-72" x="999.349609"/>
      <use xlink:href="#DejaVuSans-6b" x="1040.462891"/>
      <use xlink:href="#DejaVuSans-3a" x="1098.373047"/>
      <use xlink:href="#DejaVuSans-20" x="1132.064453"/>
      <use xlink:href="#DejaVuSans-2d" x="1163.851562"/>
      <use xlink:href="#DejaVuSans-31" x="1199.935547"/>
      <use xlink:href="#DejaVuSans-35" x="1263.558594"/>
      <use xlink:href="#DejaVuSans-34" x="1327.181641"/>
      <use xlink:href="#DejaVuSans-2e" x="1390.804688"/>
      <use xlink:href="#DejaVuSans-35" x="1422.591797"/>
      <use xlink:href="#DejaVuSans-36" x="1486.214844"/>
      <use xlink:href="#DejaVuSans-20" x="1549.837891"/>
      <use xlink:href="#DejaVuSans-64" x="1581.625"/>
      <use xlink:href="#DejaVuSans-65" x="1645.101562"/>
      <use xlink:href="#DejaVuSans-67" x="1706.625"/>
      <use xlink:href="#DejaVuSans-72" x="1770.101562"/>
      <use xlink:href="#DejaVuSans-65" x="1808.964844"/>
      <use xlink:href="#DejaVuSans-65" x="1870.488281"/>
      <use xlink:href="#DejaVuSans-73" x="1932.011719"/>
     </g>
    </g>
   </g>
  </g>
 </g>
 <defs>
  <clipPath id="p381eff4b4f">
   <path d="M 369.216 174.528 
C 369.216 157.055246 365.774248 139.752393 359.087715 123.609673 
C 352.401182 107.466954 342.599903 92.798303 330.2448 80.4432 
C 317.889697 68.088097 303.221046 58.286818 287.078327 51.600285 
C 270.935607 44.913752 253.632754 41.472 236.16 41.472 
C 218.687246 41.472 201.384393 44.913752 185.241673 51.600285 
C 169.098954 58.286818 154.430303 68.088097 142.0752 80.4432 
C 129.720097 92.798303 119.918818 107.466954 113.232285 123.609673 
C 106.545752 139.752393 103.104 157.055246 103.104 174.528 
C 103.104 192.000754 106.545752 209.303607 113.232285 225.446327 
C 119.918818 241.589046 129.720097 256.257697 142.0752 268.6128 
C 154.430303 280.967903 169.098954 290.769182 185.241673 297.455715 
C 201.384393 304.142248 218.687246 307.584 236.16 307.584 
C 253.632754 307.584 270.935607 304.142248 287.078327 297.455715 
C 303.221046 290.769182 317.889697 280.967903 330.2448 268.6128 
C 342.599903 256.257697 352.401182 241.589046 359.087715 225.446327 
C 365.774248 209.303607 369.216 192.000754 369.216 174.528 
M 236.16 174.528 
C 236.16 174.528 236.16 174.528 236.16 174.528 
C 236.16 174.528 236.16 174.528 236.16 174.528 
C 236.16 174.528 236.16 174.528 236.16 174.528 
C 236.16 174.528 236.16 174.528 236.16 174.528 
C 236.16 174.528 236.16 174.528 236.16 174.528 
C 236.16 174.528 236.16 174.528 236.16 174.528 
C 236.16 174.528 236.16 174.528 236.16 174.528 
C 236.16 174.528 236.16 174.528 236.16 174.528 
C 236.16 174.528 236.16 174.528 236.16 174.528 
C 236.16 174.528 236.16 174.528 236.16 174.528 
C 236.16 174.528 236.16 174.528 236.16 174.528 
C 236.16 174.528 236.16 174.528 236.16 174.528 
C 236.16 174.528 236.16 174.528 236.16 174.528 
C 236.16 174.528 236.16 174.528 236.16 174.528 
C 236.16 174.528 236.16 174.528 236.16 174.528 
C 236.16 174.528 236.16 174.528 236.16 174.528 
z
"/>
  </clipPath>
 </defs>
</svg>
